<?xml version="1.0" encoding="utf-8" standalone="no"?>
<!DOCTYPE svg PUBLIC "-//W3C//DTD SVG 1.1//EN"
  "http://www.w3.org/Graphics/SVG/1.1/DTD/svg11.dtd">
<svg xmlns:xlink="http://www.w3.org/1999/xlink" width="354.74716pt" height="304.224688pt" viewBox="0 0 354.74716 304.224688" xmlns="http://www.w3.org/2000/svg" version="1.1">
 <metadata>
  <rdf:RDF xmlns:dc="http://purl.org/dc/elements/1.1/" xmlns:cc="http://creativecommons.org/ns#" xmlns:rdf="http://www.w3.org/1999/02/22-rdf-syntax-ns#">
   <cc:Work>
    <dc:type rdf:resource="http://purl.org/dc/dcmitype/StillImage"/>
    <dc:date>2024-09-27T16:07:28.143241</dc:date>
    <dc:format>image/svg+xml</dc:format>
    <dc:creator>
     <cc:Agent>
      <dc:title>Matplotlib v3.8.3, https://matplotlib.org/</dc:title>
     </cc:Agent>
    </dc:creator>
   </cc:Work>
  </rdf:RDF>
 </metadata>
 <defs>
  <style type="text/css">*{stroke-linejoin: round; stroke-linecap: butt}</style>
 </defs>
 <g id="figure_1">
  <g id="patch_1">
   <path d="M -0 304.224688 
L 354.74716 304.224688 
L 354.74716 0 
L -0 0 
z
" style="fill: #ffffff"/>
  </g>
  <g id="axes_1">
   <g id="patch_2">
    <path d="M 305.542033 152.310086 
C 305.542033 141.384703 304.140321 130.504326 301.371258 119.93568 
C 298.602195 109.367034 294.488596 99.197191 289.131302 89.675458 
L 177.808273 152.310086 
z
" style="fill: #1f77b4"/>
   </g>
   <g id="patch_3">
    <path d="M 289.036544 89.483566 
C 285.932125 83.965958 282.421785 78.686778 278.53456 73.689689 
C 274.647334 68.692601 270.393968 63.991419 265.809642 59.625028 
L 177.713515 152.118194 
z
" style="fill: #ff7f0e"/>
   </g>
   <g id="patch_4">
    <path d="M 265.71956 59.53425 
C 262.87492 56.824842 259.906801 54.248106 256.824671 51.812262 
C 253.74254 49.376417 250.549678 47.084055 247.256266 44.942488 
L 177.623432 152.027416 
z
" style="fill: #aec7e8"/>
   </g>
   <g id="patch_5">
    <path d="M 247.132138 44.869259 
C 240.725129 40.70305 233.957124 37.120242 226.909606 34.163969 
C 219.862087 31.207696 212.563452 28.88987 205.101569 27.238396 
L 177.499303 151.954187 
z
" style="fill: #ffbb78"/>
   </g>
   <g id="patch_6">
    <path d="M 204.946078 27.199355 
C 199.831172 26.067318 194.651465 25.251014 189.436313 24.75507 
C 184.221161 24.259126 178.980434 24.084482 173.743835 24.232126 
L 177.343813 151.915146 
z
" style="fill: #98df8a"/>
   </g>
   <g id="patch_7">
    <path d="M 173.54672 24.250361 
C 162.844675 24.552102 152.2229 26.198173 141.931514 29.149814 
C 131.640128 32.101456 121.760549 36.335316 112.525418 41.751696 
L 177.146697 151.933381 
z
" style="fill: #2ca02c"/>
   </g>
   <g id="patch_8">
    <path d="M 112.382011 41.817107 
C 110.68791 42.810693 109.01695 43.843218 107.370463 44.91386 
C 105.723976 45.984501 104.102401 47.092973 102.50703 48.238392 
L 177.00329 151.998792 
z
" style="fill: #d62728"/>
   </g>
   <g id="patch_9">
    <path d="M 102.418425 48.310659 
C 96.565509 52.512843 91.078629 57.202729 86.016522 62.330112 
C 80.954416 67.457495 76.335212 73.004011 72.20836 78.910285 
L 176.914685 152.071059 
z
" style="fill: #9467bd"/>
   </g>
   <g id="patch_10">
    <path d="M 72.123256 79.023227 
C 69.748135 82.422457 67.539952 85.93533 65.506556 89.549367 
C 63.47316 93.163403 61.61696 96.874316 59.944553 100.668919 
L 176.829581 152.184002 
z
" style="fill: #ff9896"/>
   </g>
   <g id="patch_11">
    <path d="M 59.877021 100.899909 
C 53.700269 114.914635 50.094155 129.926703 49.231209 145.217882 
C 48.368262 160.50906 50.262469 175.831535 54.823201 190.452223 
L 176.762049 152.414992 
z
" style="fill: #c5b0d5"/>
   </g>
   <g id="patch_12">
    <path d="M 54.856238 190.669075 
C 55.571061 192.960637 56.350339 195.231594 57.193144 197.47924 
C 58.035948 199.726885 58.941944 201.950326 59.910052 204.146914 
L 176.795086 152.631844 
z
" style="fill: #c49c94"/>
   </g>
   <g id="patch_13">
    <path d="M 59.947247 204.225768 
C 61.795777 208.419987 63.868721 212.51167 66.157083 216.48306 
C 68.445445 220.454449 70.945909 224.299791 73.647622 228.002395 
L 176.83228 152.710698 
z
" style="fill: #8c564b"/>
   </g>
   <g id="patch_14">
    <path d="M 73.74767 228.127663 
C 78.639164 234.831286 84.172313 241.042304 90.268621 246.672607 
C 96.36493 252.30291 102.995434 257.325747 110.066073 261.669863 
L 176.932328 152.835966 
z
" style="fill: #e377c2"/>
   </g>
   <g id="patch_15">
    <path d="M 110.193969 261.75729 
C 113.727197 263.928064 117.364039 265.925494 121.091573 267.742483 
C 124.819107 269.559472 128.632913 271.193866 132.519437 272.639856 
L 177.060224 152.923392 
z
" style="fill: #7f7f7f"/>
   </g>
   <g id="patch_16">
    <path d="M 132.68058 272.688766 
C 141.483549 275.963932 150.620968 278.258181 159.926977 279.529869 
C 169.232985 280.801557 178.650933 281.042942 188.009868 280.249644 
L 177.221367 152.972303 
z
" style="fill: #f7b6d2"/>
   </g>
   <g id="patch_17">
    <path d="M 188.254672 280.225731 
C 198.704447 279.339969 209.005477 277.170642 218.924956 273.766776 
C 228.844436 270.362911 238.307069 265.750345 247.098999 260.033323 
L 177.466172 152.948389 
z
" style="fill: #c7c7c7"/>
   </g>
   <g id="patch_18">
    <path d="M 247.299203 259.909612 
C 254.439596 255.266515 261.097719 249.920858 267.174097 243.952508 
C 273.250475 237.984159 278.714695 231.422989 283.485118 224.367025 
L 177.666376 152.824679 
z
" style="fill: #dbdb8d"/>
   </g>
   <g id="patch_19">
    <path d="M 283.594688 224.21191 
C 287.385403 218.605038 290.724505 212.705744 293.580441 206.569771 
C 296.436377 200.433799 298.800123 194.080534 300.649345 187.570011 
L 177.775946 152.669564 
z
" style="fill: #bcbd22"/>
   </g>
   <g id="patch_20">
    <path d="M 300.684959 187.467085 
C 301.221572 185.577842 301.714541 183.676474 302.163473 181.764498 
C 302.612406 179.852523 303.017182 177.930447 303.377479 175.999806 
L 177.81156 152.566637 
z
" style="fill: #17becf"/>
   </g>
   <g id="patch_21">
    <path d="M 303.389307 175.927176 
C 304.109998 172.065379 304.652149 168.17239 305.014033 164.260624 
C 305.375917 160.348859 305.557148 156.422481 305.557148 152.494012 
L 177.823388 152.494007 
z
" style="fill: #9edae5"/>
   </g>
   <g id="patch_22">
    <path d="M 251.804787 152.44498 
C 251.804787 146.071839 250.987122 139.724953 249.371835 133.559909 
C 247.756548 127.394866 245.356949 121.462457 242.231861 115.908113 
L 177.293427 152.44498 
z
" style="fill: #ffffff"/>
   </g>
   <g id="patch_23">
    <path d="M 242.231861 115.908113 
C 240.42095 112.689508 238.373252 109.609987 236.105703 106.695018 
C 233.838155 103.78005 231.357025 101.037694 228.682835 98.490633 
L 177.293427 152.44498 
z
" style="fill: #ffffff"/>
   </g>
   <g id="patch_24">
    <path d="M 228.682835 98.490633 
C 227.023461 96.910144 225.292059 95.407049 223.49415 93.986139 
C 221.69624 92.56523 219.833737 91.228019 217.91258 89.978771 
L 177.293427 152.44498 
z
" style="fill: #ffffff"/>
   </g>
   <g id="patch_25">
    <path d="M 217.91258 89.978771 
C 214.175158 87.548483 210.227156 85.458511 206.116103 83.734019 
C 202.005051 82.009527 197.747514 80.657462 193.394749 79.694102 
L 177.293427 152.44498 
z
" style="fill: #ffffff"/>
   </g>
   <g id="patch_26">
    <path d="M 193.394749 79.694102 
C 190.411054 79.033746 187.389558 78.557569 184.347386 78.268269 
C 181.305214 77.978968 178.248123 77.877092 175.19344 77.963218 
L 177.293427 152.44498 
z
" style="fill: #ffffff"/>
   </g>
   <g id="patch_27">
    <path d="M 175.19344 77.963218 
C 168.950581 78.139233 162.754545 79.099441 156.751237 80.821232 
C 150.747928 82.543023 144.98484 85.012774 139.597681 88.17233 
L 177.293427 152.44498 
z
" style="fill: #ffffff"/>
   </g>
   <g id="patch_28">
    <path d="M 139.597681 88.17233 
C 138.609455 88.751922 137.634728 89.354228 136.674278 89.978769 
C 135.713827 90.603309 134.767908 91.249918 133.837275 91.918079 
L 177.293427 152.44498 
z
" style="fill: #ffffff"/>
   </g>
   <g id="patch_29">
    <path d="M 133.837275 91.918079 
C 130.423075 94.369353 127.222394 97.105121 124.269499 100.096094 
C 121.316604 103.087067 118.622068 106.322535 116.214737 109.767861 
L 177.293427 152.44498 
z
" style="fill: #ffffff"/>
   </g>
   <g id="patch_30">
    <path d="M 116.214737 109.767861 
C 114.82925 111.750745 113.541144 113.799921 112.354996 115.908109 
C 111.168848 118.016297 110.086065 120.180996 109.110494 122.394515 
L 177.293427 152.44498 
z
" style="fill: #ffffff"/>
   </g>
   <g id="patch_31">
    <path d="M 109.110494 122.394515 
C 105.507389 130.569772 103.403823 139.326811 102.900437 148.246665 
C 102.397052 157.166519 103.502005 166.10463 106.162433 174.633365 
L 177.293427 152.44498 
z
" style="fill: #ffffff"/>
   </g>
   <g id="patch_32">
    <path d="M 106.162433 174.633365 
C 106.579413 175.970109 107.033992 177.294834 107.525628 178.605961 
C 108.017264 179.917087 108.545761 181.214094 109.110491 182.495437 
L 177.293427 152.44498 
z
" style="fill: #ffffff"/>
   </g>
   <g id="patch_33">
    <path d="M 109.110491 182.495437 
C 110.1888 184.942065 111.398018 187.32888 112.732895 189.645524 
C 114.067773 191.962168 115.526377 194.205284 117.102376 196.365136 
L 177.293427 152.44498 
z
" style="fill: #ffffff"/>
   </g>
   <g id="patch_34">
    <path d="M 117.102376 196.365136 
C 119.955748 200.275583 123.183418 203.898677 126.739598 207.18302 
C 130.295778 210.467364 134.163572 213.397352 138.288111 215.93142 
L 177.293427 152.44498 
z
" style="fill: #ffffff"/>
   </g>
   <g id="patch_35">
    <path d="M 138.288111 215.93142 
C 140.349161 217.197704 142.470653 218.362872 144.645047 219.422782 
C 146.819442 220.482693 149.044162 221.436089 151.311301 222.279583 
L 177.293427 152.44498 
z
" style="fill: #ffffff"/>
   </g>
   <g id="patch_36">
    <path d="M 151.311301 222.279583 
C 156.446367 224.190096 161.776528 225.528408 167.205033 226.270226 
C 172.633538 227.012044 178.12734 227.152853 183.586719 226.690095 
L 177.293427 152.44498 
z
" style="fill: #ffffff"/>
   </g>
   <g id="patch_37">
    <path d="M 183.586719 226.690095 
C 189.682421 226.173401 195.691355 224.90796 201.477718 222.922372 
C 207.264081 220.936784 212.78395 218.24612 217.912576 214.91119 
L 177.293427 152.44498 
z
" style="fill: #ffffff"/>
   </g>
   <g id="patch_38">
    <path d="M 217.912576 214.91119 
C 222.077805 212.202717 225.961711 209.084417 229.506264 205.60288 
C 233.050818 202.121343 236.23828 198.293994 239.021027 194.178015 
L 177.293427 152.44498 
z
" style="fill: #ffffff"/>
   </g>
   <g id="patch_39">
    <path d="M 239.021027 194.178015 
C 241.232277 190.90734 243.180087 187.466085 244.846049 183.886767 
C 246.512012 180.30745 247.890864 176.601379 248.969577 172.803574 
L 177.293427 152.44498 
z
" style="fill: #ffffff"/>
   </g>
   <g id="patch_40">
    <path d="M 248.969577 172.803574 
C 249.282601 171.701516 249.570166 170.592384 249.832043 169.477065 
C 250.09392 168.361746 250.33004 167.240535 250.540213 166.114328 
L 177.293427 152.44498 
z
" style="fill: #ffffff"/>
   </g>
   <g id="patch_41">
    <path d="M 250.540213 166.114328 
C 250.960616 163.861613 251.276871 161.590703 251.48797 159.30884 
C 251.699069 157.026976 251.804787 154.736589 251.804787 152.444982 
L 177.293427 152.44498 
z
" style="fill: #ffffff"/>
   </g>
   <g id="matplotlib.axis_1"/>
   <g id="matplotlib.axis_2"/>
   <g id="text_1">
    <!-- A [50] -->
    <g transform="translate(313.727556 119.457614) scale(0.1 -0.1)">
     <defs>
      <path id="DejaVuSans-41" d="M 2188 4044 
L 1331 1722 
L 3047 1722 
L 2188 4044 
z
M 1831 4666 
L 2547 4666 
L 4325 0 
L 3669 0 
L 3244 1197 
L 1141 1197 
L 716 0 
L 50 0 
L 1831 4666 
z
" transform="scale(0.015625)"/>
      <path id="DejaVuSans-20" transform="scale(0.015625)"/>
      <path id="DejaVuSans-5b" d="M 550 4863 
L 1875 4863 
L 1875 4416 
L 1125 4416 
L 1125 -397 
L 1875 -397 
L 1875 -844 
L 550 -844 
L 550 4863 
z
" transform="scale(0.015625)"/>
      <path id="DejaVuSans-35" d="M 691 4666 
L 3169 4666 
L 3169 4134 
L 1269 4134 
L 1269 2991 
Q 1406 3038 1543 3061 
Q 1681 3084 1819 3084 
Q 2600 3084 3056 2656 
Q 3513 2228 3513 1497 
Q 3513 744 3044 326 
Q 2575 -91 1722 -91 
Q 1428 -91 1123 -41 
Q 819 9 494 109 
L 494 744 
Q 775 591 1075 516 
Q 1375 441 1709 441 
Q 2250 441 2565 725 
Q 2881 1009 2881 1497 
Q 2881 1984 2565 2268 
Q 2250 2553 1709 2553 
Q 1456 2553 1204 2497 
Q 953 2441 691 2322 
L 691 4666 
z
" transform="scale(0.015625)"/>
      <path id="DejaVuSans-30" d="M 2034 4250 
Q 1547 4250 1301 3770 
Q 1056 3291 1056 2328 
Q 1056 1369 1301 889 
Q 1547 409 2034 409 
Q 2525 409 2770 889 
Q 3016 1369 3016 2328 
Q 3016 3291 2770 3770 
Q 2525 4250 2034 4250 
z
M 2034 4750 
Q 2819 4750 3233 4129 
Q 3647 3509 3647 2328 
Q 3647 1150 3233 529 
Q 2819 -91 2034 -91 
Q 1250 -91 836 529 
Q 422 1150 422 2328 
Q 422 3509 836 4129 
Q 1250 4750 2034 4750 
z
" transform="scale(0.015625)"/>
      <path id="DejaVuSans-5d" d="M 1947 4863 
L 1947 -844 
L 622 -844 
L 622 -397 
L 1369 -397 
L 1369 4416 
L 622 4416 
L 622 4863 
L 1947 4863 
z
" transform="scale(0.015625)"/>
     </defs>
     <use xlink:href="#DejaVuSans-41"/>
     <use xlink:href="#DejaVuSans-20" x="68.408203"/>
     <use xlink:href="#DejaVuSans-5b" x="100.195312"/>
     <use xlink:href="#DejaVuSans-35" x="139.208984"/>
     <use xlink:href="#DejaVuSans-30" x="202.832031"/>
     <use xlink:href="#DejaVuSans-5d" x="266.455078"/>
    </g>
   </g>
   <g id="text_2">
    <!-- C [29] -->
    <g transform="translate(288.616664 68.606214) scale(0.1 -0.1)">
     <defs>
      <path id="DejaVuSans-43" d="M 4122 4306 
L 4122 3641 
Q 3803 3938 3442 4084 
Q 3081 4231 2675 4231 
Q 1875 4231 1450 3742 
Q 1025 3253 1025 2328 
Q 1025 1406 1450 917 
Q 1875 428 2675 428 
Q 3081 428 3442 575 
Q 3803 722 4122 1019 
L 4122 359 
Q 3791 134 3420 21 
Q 3050 -91 2638 -91 
Q 1578 -91 968 557 
Q 359 1206 359 2328 
Q 359 3453 968 4101 
Q 1578 4750 2638 4750 
Q 3056 4750 3426 4639 
Q 3797 4528 4122 4306 
z
" transform="scale(0.015625)"/>
      <path id="DejaVuSans-32" d="M 1228 531 
L 3431 531 
L 3431 0 
L 469 0 
L 469 531 
Q 828 903 1448 1529 
Q 2069 2156 2228 2338 
Q 2531 2678 2651 2914 
Q 2772 3150 2772 3378 
Q 2772 3750 2511 3984 
Q 2250 4219 1831 4219 
Q 1534 4219 1204 4116 
Q 875 4013 500 3803 
L 500 4441 
Q 881 4594 1212 4672 
Q 1544 4750 1819 4750 
Q 2544 4750 2975 4387 
Q 3406 4025 3406 3419 
Q 3406 3131 3298 2873 
Q 3191 2616 2906 2266 
Q 2828 2175 2409 1742 
Q 1991 1309 1228 531 
z
" transform="scale(0.015625)"/>
      <path id="DejaVuSans-39" d="M 703 97 
L 703 672 
Q 941 559 1184 500 
Q 1428 441 1663 441 
Q 2288 441 2617 861 
Q 2947 1281 2994 2138 
Q 2813 1869 2534 1725 
Q 2256 1581 1919 1581 
Q 1219 1581 811 2004 
Q 403 2428 403 3163 
Q 403 3881 828 4315 
Q 1253 4750 1959 4750 
Q 2769 4750 3195 4129 
Q 3622 3509 3622 2328 
Q 3622 1225 3098 567 
Q 2575 -91 1691 -91 
Q 1453 -91 1209 -44 
Q 966 3 703 97 
z
M 1959 2075 
Q 2384 2075 2632 2365 
Q 2881 2656 2881 3163 
Q 2881 3666 2632 3958 
Q 2384 4250 1959 4250 
Q 1534 4250 1286 3958 
Q 1038 3666 1038 3163 
Q 1038 2656 1286 2365 
Q 1534 2075 1959 2075 
z
" transform="scale(0.015625)"/>
     </defs>
     <use xlink:href="#DejaVuSans-43"/>
     <use xlink:href="#DejaVuSans-20" x="69.824219"/>
     <use xlink:href="#DejaVuSans-5b" x="101.611328"/>
     <use xlink:href="#DejaVuSans-32" x="140.625"/>
     <use xlink:href="#DejaVuSans-39" x="204.248047"/>
     <use xlink:href="#DejaVuSans-5d" x="267.871094"/>
    </g>
   </g>
   <g id="text_3">
    <!-- D [18] -->
    <g transform="translate(264.744795 44.550121) scale(0.1 -0.1)">
     <defs>
      <path id="DejaVuSans-44" d="M 1259 4147 
L 1259 519 
L 2022 519 
Q 2988 519 3436 956 
Q 3884 1394 3884 2338 
Q 3884 3275 3436 3711 
Q 2988 4147 2022 4147 
L 1259 4147 
z
M 628 4666 
L 1925 4666 
Q 3281 4666 3915 4102 
Q 4550 3538 4550 2338 
Q 4550 1131 3912 565 
Q 3275 0 1925 0 
L 628 0 
L 628 4666 
z
" transform="scale(0.015625)"/>
      <path id="DejaVuSans-31" d="M 794 531 
L 1825 531 
L 1825 4091 
L 703 3866 
L 703 4441 
L 1819 4666 
L 2450 4666 
L 2450 531 
L 3481 531 
L 3481 0 
L 794 0 
L 794 531 
z
" transform="scale(0.015625)"/>
      <path id="DejaVuSans-38" d="M 2034 2216 
Q 1584 2216 1326 1975 
Q 1069 1734 1069 1313 
Q 1069 891 1326 650 
Q 1584 409 2034 409 
Q 2484 409 2743 651 
Q 3003 894 3003 1313 
Q 3003 1734 2745 1975 
Q 2488 2216 2034 2216 
z
M 1403 2484 
Q 997 2584 770 2862 
Q 544 3141 544 3541 
Q 544 4100 942 4425 
Q 1341 4750 2034 4750 
Q 2731 4750 3128 4425 
Q 3525 4100 3525 3541 
Q 3525 3141 3298 2862 
Q 3072 2584 2669 2484 
Q 3125 2378 3379 2068 
Q 3634 1759 3634 1313 
Q 3634 634 3220 271 
Q 2806 -91 2034 -91 
Q 1263 -91 848 271 
Q 434 634 434 1313 
Q 434 1759 690 2068 
Q 947 2378 1403 2484 
z
M 1172 3481 
Q 1172 3119 1398 2916 
Q 1625 2713 2034 2713 
Q 2441 2713 2670 2916 
Q 2900 3119 2900 3481 
Q 2900 3844 2670 4047 
Q 2441 4250 2034 4250 
Q 1625 4250 1398 4047 
Q 1172 3844 1172 3481 
z
" transform="scale(0.015625)"/>
     </defs>
     <use xlink:href="#DejaVuSans-44"/>
     <use xlink:href="#DejaVuSans-20" x="77.001953"/>
     <use xlink:href="#DejaVuSans-5b" x="108.789062"/>
     <use xlink:href="#DejaVuSans-31" x="147.802734"/>
     <use xlink:href="#DejaVuSans-38" x="211.425781"/>
     <use xlink:href="#DejaVuSans-5d" x="275.048828"/>
    </g>
   </g>
   <g id="text_4">
    <!-- E [35] -->
    <g transform="translate(231.850636 25.144322) scale(0.1 -0.1)">
     <defs>
      <path id="DejaVuSans-45" d="M 628 4666 
L 3578 4666 
L 3578 4134 
L 1259 4134 
L 1259 2753 
L 3481 2753 
L 3481 2222 
L 1259 2222 
L 1259 531 
L 3634 531 
L 3634 0 
L 628 0 
L 628 4666 
z
" transform="scale(0.015625)"/>
      <path id="DejaVuSans-33" d="M 2597 2516 
Q 3050 2419 3304 2112 
Q 3559 1806 3559 1356 
Q 3559 666 3084 287 
Q 2609 -91 1734 -91 
Q 1441 -91 1130 -33 
Q 819 25 488 141 
L 488 750 
Q 750 597 1062 519 
Q 1375 441 1716 441 
Q 2309 441 2620 675 
Q 2931 909 2931 1356 
Q 2931 1769 2642 2001 
Q 2353 2234 1838 2234 
L 1294 2234 
L 1294 2753 
L 1863 2753 
Q 2328 2753 2575 2939 
Q 2822 3125 2822 3475 
Q 2822 3834 2567 4026 
Q 2313 4219 1838 4219 
Q 1578 4219 1281 4162 
Q 984 4106 628 3988 
L 628 4550 
Q 988 4650 1302 4700 
Q 1616 4750 1894 4750 
Q 2613 4750 3031 4423 
Q 3450 4097 3450 3541 
Q 3450 3153 3228 2886 
Q 3006 2619 2597 2516 
z
" transform="scale(0.015625)"/>
     </defs>
     <use xlink:href="#DejaVuSans-45"/>
     <use xlink:href="#DejaVuSans-20" x="63.183594"/>
     <use xlink:href="#DejaVuSans-5b" x="94.970703"/>
     <use xlink:href="#DejaVuSans-33" x="133.984375"/>
     <use xlink:href="#DejaVuSans-35" x="197.607422"/>
     <use xlink:href="#DejaVuSans-5d" x="261.230469"/>
    </g>
   </g>
   <g id="text_5">
    <!-- F [24] -->
    <g transform="translate(190.645563 14.798437) scale(0.1 -0.1)">
     <defs>
      <path id="DejaVuSans-46" d="M 628 4666 
L 3309 4666 
L 3309 4134 
L 1259 4134 
L 1259 2759 
L 3109 2759 
L 3109 2228 
L 1259 2228 
L 1259 0 
L 628 0 
L 628 4666 
z
" transform="scale(0.015625)"/>
      <path id="DejaVuSans-34" d="M 2419 4116 
L 825 1625 
L 2419 1625 
L 2419 4116 
z
M 2253 4666 
L 3047 4666 
L 3047 1625 
L 3713 1625 
L 3713 1100 
L 3047 1100 
L 3047 0 
L 2419 0 
L 2419 1100 
L 313 1100 
L 313 1709 
L 2253 4666 
z
" transform="scale(0.015625)"/>
     </defs>
     <use xlink:href="#DejaVuSans-46"/>
     <use xlink:href="#DejaVuSans-20" x="57.519531"/>
     <use xlink:href="#DejaVuSans-5b" x="89.306641"/>
     <use xlink:href="#DejaVuSans-32" x="128.320312"/>
     <use xlink:href="#DejaVuSans-34" x="191.943359"/>
     <use xlink:href="#DejaVuSans-5d" x="255.566406"/>
    </g>
   </g>
   <g id="text_6">
    <!-- G [49] -->
    <g transform="translate(106.955308 19.630833) scale(0.1 -0.1)">
     <defs>
      <path id="DejaVuSans-47" d="M 3809 666 
L 3809 1919 
L 2778 1919 
L 2778 2438 
L 4434 2438 
L 4434 434 
Q 4069 175 3628 42 
Q 3188 -91 2688 -91 
Q 1594 -91 976 548 
Q 359 1188 359 2328 
Q 359 3472 976 4111 
Q 1594 4750 2688 4750 
Q 3144 4750 3555 4637 
Q 3966 4525 4313 4306 
L 4313 3634 
Q 3963 3931 3569 4081 
Q 3175 4231 2741 4231 
Q 1884 4231 1454 3753 
Q 1025 3275 1025 2328 
Q 1025 1384 1454 906 
Q 1884 428 2741 428 
Q 3075 428 3337 486 
Q 3600 544 3809 666 
z
" transform="scale(0.015625)"/>
     </defs>
     <use xlink:href="#DejaVuSans-47"/>
     <use xlink:href="#DejaVuSans-20" x="77.490234"/>
     <use xlink:href="#DejaVuSans-5b" x="109.277344"/>
     <use xlink:href="#DejaVuSans-34" x="148.291016"/>
     <use xlink:href="#DejaVuSans-39" x="211.914062"/>
     <use xlink:href="#DejaVuSans-5d" x="275.537109"/>
    </g>
   </g>
   <g id="text_7">
    <!-- H [9] -->
    <g transform="translate(75.543118 36.964741) scale(0.1 -0.1)">
     <defs>
      <path id="DejaVuSans-48" d="M 628 4666 
L 1259 4666 
L 1259 2753 
L 3553 2753 
L 3553 4666 
L 4184 4666 
L 4184 0 
L 3553 0 
L 3553 2222 
L 1259 2222 
L 1259 0 
L 628 0 
L 628 4666 
z
" transform="scale(0.015625)"/>
     </defs>
     <use xlink:href="#DejaVuSans-48"/>
     <use xlink:href="#DejaVuSans-20" x="75.195312"/>
     <use xlink:href="#DejaVuSans-5b" x="106.982422"/>
     <use xlink:href="#DejaVuSans-39" x="145.996094"/>
     <use xlink:href="#DejaVuSans-5d" x="209.619141"/>
    </g>
   </g>
   <g id="text_8">
    <!-- I [33] -->
    <g transform="translate(50.270456 56.115392) scale(0.1 -0.1)">
     <defs>
      <path id="DejaVuSans-49" d="M 628 4666 
L 1259 4666 
L 1259 0 
L 628 0 
L 628 4666 
z
" transform="scale(0.015625)"/>
     </defs>
     <use xlink:href="#DejaVuSans-49"/>
     <use xlink:href="#DejaVuSans-20" x="29.492188"/>
     <use xlink:href="#DejaVuSans-5b" x="61.279297"/>
     <use xlink:href="#DejaVuSans-33" x="100.292969"/>
     <use xlink:href="#DejaVuSans-33" x="163.916016"/>
     <use xlink:href="#DejaVuSans-5d" x="227.539062"/>
    </g>
   </g>
   <g id="text_9">
    <!-- K [19] -->
    <g transform="translate(24.110191 86.045278) scale(0.1 -0.1)">
     <defs>
      <path id="DejaVuSans-4b" d="M 628 4666 
L 1259 4666 
L 1259 2694 
L 3353 4666 
L 4166 4666 
L 1850 2491 
L 4331 0 
L 3500 0 
L 1259 2247 
L 1259 0 
L 628 0 
L 628 4666 
z
" transform="scale(0.015625)"/>
     </defs>
     <use xlink:href="#DejaVuSans-4b"/>
     <use xlink:href="#DejaVuSans-20" x="65.576172"/>
     <use xlink:href="#DejaVuSans-5b" x="97.363281"/>
     <use xlink:href="#DejaVuSans-31" x="136.376953"/>
     <use xlink:href="#DejaVuSans-39" x="200"/>
     <use xlink:href="#DejaVuSans-5d" x="263.623047"/>
    </g>
   </g>
   <g id="text_10">
    <!-- L [70] -->
    <g transform="translate(7.2 147.257546) scale(0.1 -0.1)">
     <defs>
      <path id="DejaVuSans-4c" d="M 628 4666 
L 1259 4666 
L 1259 531 
L 3531 531 
L 3531 0 
L 628 0 
L 628 4666 
z
" transform="scale(0.015625)"/>
      <path id="DejaVuSans-37" d="M 525 4666 
L 3525 4666 
L 3525 4397 
L 1831 0 
L 1172 0 
L 2766 4134 
L 525 4134 
L 525 4666 
z
" transform="scale(0.015625)"/>
     </defs>
     <use xlink:href="#DejaVuSans-4c"/>
     <use xlink:href="#DejaVuSans-20" x="55.712891"/>
     <use xlink:href="#DejaVuSans-5b" x="87.5"/>
     <use xlink:href="#DejaVuSans-37" x="126.513672"/>
     <use xlink:href="#DejaVuSans-30" x="190.136719"/>
     <use xlink:href="#DejaVuSans-5d" x="253.759766"/>
    </g>
   </g>
   <g id="text_11">
    <!-- M [11] -->
    <g transform="translate(12.898575 204.723354) scale(0.1 -0.1)">
     <defs>
      <path id="DejaVuSans-4d" d="M 628 4666 
L 1569 4666 
L 2759 1491 
L 3956 4666 
L 4897 4666 
L 4897 0 
L 4281 0 
L 4281 4097 
L 3078 897 
L 2444 897 
L 1241 4097 
L 1241 0 
L 628 0 
L 628 4666 
z
" transform="scale(0.015625)"/>
     </defs>
     <use xlink:href="#DejaVuSans-4d"/>
     <use xlink:href="#DejaVuSans-20" x="86.279297"/>
     <use xlink:href="#DejaVuSans-5b" x="118.066406"/>
     <use xlink:href="#DejaVuSans-31" x="157.080078"/>
     <use xlink:href="#DejaVuSans-31" x="220.703125"/>
     <use xlink:href="#DejaVuSans-5d" x="284.326172"/>
    </g>
   </g>
   <g id="text_12">
    <!-- N [21] -->
    <g transform="translate(23.902063 225.619671) scale(0.1 -0.1)">
     <defs>
      <path id="DejaVuSans-4e" d="M 628 4666 
L 1478 4666 
L 3547 763 
L 3547 4666 
L 4159 4666 
L 4159 0 
L 3309 0 
L 1241 3903 
L 1241 0 
L 628 0 
L 628 4666 
z
" transform="scale(0.015625)"/>
     </defs>
     <use xlink:href="#DejaVuSans-4e"/>
     <use xlink:href="#DejaVuSans-20" x="74.804688"/>
     <use xlink:href="#DejaVuSans-5b" x="106.591797"/>
     <use xlink:href="#DejaVuSans-32" x="145.605469"/>
     <use xlink:href="#DejaVuSans-31" x="209.228516"/>
     <use xlink:href="#DejaVuSans-5d" x="272.851562"/>
    </g>
   </g>
   <g id="text_13">
    <!-- P [38] -->
    <g transform="translate(51.866313 258.815646) scale(0.1 -0.1)">
     <defs>
      <path id="DejaVuSans-50" d="M 1259 4147 
L 1259 2394 
L 2053 2394 
Q 2494 2394 2734 2622 
Q 2975 2850 2975 3272 
Q 2975 3691 2734 3919 
Q 2494 4147 2053 4147 
L 1259 4147 
z
M 628 4666 
L 2053 4666 
Q 2838 4666 3239 4311 
Q 3641 3956 3641 3272 
Q 3641 2581 3239 2228 
Q 2838 1875 2053 1875 
L 1259 1875 
L 1259 0 
L 628 0 
L 628 4666 
z
" transform="scale(0.015625)"/>
     </defs>
     <use xlink:href="#DejaVuSans-50"/>
     <use xlink:href="#DejaVuSans-20" x="60.302734"/>
     <use xlink:href="#DejaVuSans-5b" x="92.089844"/>
     <use xlink:href="#DejaVuSans-33" x="131.103516"/>
     <use xlink:href="#DejaVuSans-38" x="194.726562"/>
     <use xlink:href="#DejaVuSans-5d" x="258.349609"/>
    </g>
   </g>
   <g id="text_14">
    <!-- Q [19] -->
    <g transform="translate(83.916583 281.983767) scale(0.1 -0.1)">
     <defs>
      <path id="DejaVuSans-51" d="M 2522 4238 
Q 1834 4238 1429 3725 
Q 1025 3213 1025 2328 
Q 1025 1447 1429 934 
Q 1834 422 2522 422 
Q 3209 422 3611 934 
Q 4013 1447 4013 2328 
Q 4013 3213 3611 3725 
Q 3209 4238 2522 4238 
z
M 3406 84 
L 4238 -825 
L 3475 -825 
L 2784 -78 
Q 2681 -84 2626 -87 
Q 2572 -91 2522 -91 
Q 1538 -91 948 567 
Q 359 1225 359 2328 
Q 359 3434 948 4092 
Q 1538 4750 2522 4750 
Q 3503 4750 4090 4092 
Q 4678 3434 4678 2328 
Q 4678 1516 4351 937 
Q 4025 359 3406 84 
z
" transform="scale(0.015625)"/>
     </defs>
     <use xlink:href="#DejaVuSans-51"/>
     <use xlink:href="#DejaVuSans-20" x="78.710938"/>
     <use xlink:href="#DejaVuSans-5b" x="110.498047"/>
     <use xlink:href="#DejaVuSans-31" x="149.511719"/>
     <use xlink:href="#DejaVuSans-39" x="213.134766"/>
     <use xlink:href="#DejaVuSans-5d" x="276.757812"/>
    </g>
   </g>
   <g id="text_15">
    <!-- R [43] -->
    <g transform="translate(127.54285 294.945) scale(0.1 -0.1)">
     <defs>
      <path id="DejaVuSans-52" d="M 2841 2188 
Q 3044 2119 3236 1894 
Q 3428 1669 3622 1275 
L 4263 0 
L 3584 0 
L 2988 1197 
Q 2756 1666 2539 1819 
Q 2322 1972 1947 1972 
L 1259 1972 
L 1259 0 
L 628 0 
L 628 4666 
L 2053 4666 
Q 2853 4666 3247 4331 
Q 3641 3997 3641 3322 
Q 3641 2881 3436 2590 
Q 3231 2300 2841 2188 
z
M 1259 4147 
L 1259 2491 
L 2053 2491 
Q 2509 2491 2742 2702 
Q 2975 2913 2975 3322 
Q 2975 3731 2742 3939 
Q 2509 4147 2053 4147 
L 1259 4147 
z
" transform="scale(0.015625)"/>
     </defs>
     <use xlink:href="#DejaVuSans-52"/>
     <use xlink:href="#DejaVuSans-20" x="69.482422"/>
     <use xlink:href="#DejaVuSans-5b" x="101.269531"/>
     <use xlink:href="#DejaVuSans-34" x="140.283203"/>
     <use xlink:href="#DejaVuSans-33" x="203.90625"/>
     <use xlink:href="#DejaVuSans-5d" x="267.529297"/>
    </g>
   </g>
   <g id="text_16">
    <!-- S [48] -->
    <g transform="translate(223.070835 288.60799) scale(0.1 -0.1)">
     <defs>
      <path id="DejaVuSans-53" d="M 3425 4513 
L 3425 3897 
Q 3066 4069 2747 4153 
Q 2428 4238 2131 4238 
Q 1616 4238 1336 4038 
Q 1056 3838 1056 3469 
Q 1056 3159 1242 3001 
Q 1428 2844 1947 2747 
L 2328 2669 
Q 3034 2534 3370 2195 
Q 3706 1856 3706 1288 
Q 3706 609 3251 259 
Q 2797 -91 1919 -91 
Q 1588 -91 1214 -16 
Q 841 59 441 206 
L 441 856 
Q 825 641 1194 531 
Q 1563 422 1919 422 
Q 2459 422 2753 634 
Q 3047 847 3047 1241 
Q 3047 1584 2836 1778 
Q 2625 1972 2144 2069 
L 1759 2144 
Q 1053 2284 737 2584 
Q 422 2884 422 3419 
Q 422 4038 858 4394 
Q 1294 4750 2059 4750 
Q 2388 4750 2728 4690 
Q 3069 4631 3425 4513 
z
" transform="scale(0.015625)"/>
     </defs>
     <use xlink:href="#DejaVuSans-53"/>
     <use xlink:href="#DejaVuSans-20" x="63.476562"/>
     <use xlink:href="#DejaVuSans-5b" x="95.263672"/>
     <use xlink:href="#DejaVuSans-34" x="134.277344"/>
     <use xlink:href="#DejaVuSans-38" x="197.900391"/>
     <use xlink:href="#DejaVuSans-5d" x="261.523438"/>
    </g>
   </g>
   <g id="text_17">
    <!-- T [39] -->
    <g transform="translate(276.124869 255.824666) scale(0.1 -0.1)">
     <defs>
      <path id="DejaVuSans-54" d="M -19 4666 
L 3928 4666 
L 3928 4134 
L 2272 4134 
L 2272 0 
L 1638 0 
L 1638 4134 
L -19 4134 
L -19 4666 
z
" transform="scale(0.015625)"/>
     </defs>
     <use xlink:href="#DejaVuSans-54"/>
     <use xlink:href="#DejaVuSans-20" x="61.083984"/>
     <use xlink:href="#DejaVuSans-5b" x="92.871094"/>
     <use xlink:href="#DejaVuSans-33" x="131.884766"/>
     <use xlink:href="#DejaVuSans-39" x="195.507812"/>
     <use xlink:href="#DejaVuSans-5d" x="259.130859"/>
    </g>
   </g>
   <g id="text_18">
    <!-- V [31] -->
    <g transform="translate(305.16089 214.719167) scale(0.1 -0.1)">
     <defs>
      <path id="DejaVuSans-56" d="M 1831 0 
L 50 4666 
L 709 4666 
L 2188 738 
L 3669 4666 
L 4325 4666 
L 2547 0 
L 1831 0 
z
" transform="scale(0.015625)"/>
     </defs>
     <use xlink:href="#DejaVuSans-56"/>
     <use xlink:href="#DejaVuSans-20" x="68.408203"/>
     <use xlink:href="#DejaVuSans-5b" x="100.195312"/>
     <use xlink:href="#DejaVuSans-33" x="139.208984"/>
     <use xlink:href="#DejaVuSans-31" x="202.832031"/>
     <use xlink:href="#DejaVuSans-5d" x="266.455078"/>
    </g>
   </g>
   <g id="text_19">
    <!-- W [9] -->
    <g transform="translate(314.598665 187.44366) scale(0.1 -0.1)">
     <defs>
      <path id="DejaVuSans-57" d="M 213 4666 
L 850 4666 
L 1831 722 
L 2809 4666 
L 3519 4666 
L 4500 722 
L 5478 4666 
L 6119 4666 
L 4947 0 
L 4153 0 
L 3169 4050 
L 2175 0 
L 1381 0 
L 213 4666 
z
" transform="scale(0.015625)"/>
     </defs>
     <use xlink:href="#DejaVuSans-57"/>
     <use xlink:href="#DejaVuSans-20" x="98.876953"/>
     <use xlink:href="#DejaVuSans-5b" x="130.664062"/>
     <use xlink:href="#DejaVuSans-39" x="169.677734"/>
     <use xlink:href="#DejaVuSans-5d" x="233.300781"/>
    </g>
   </g>
   <g id="text_20">
    <!-- Y [18] -->
    <g transform="translate(317.733098 168.196661) scale(0.1 -0.1)">
     <defs>
      <path id="DejaVuSans-59" d="M -13 4666 
L 666 4666 
L 1959 2747 
L 3244 4666 
L 3922 4666 
L 2272 2222 
L 2272 0 
L 1638 0 
L 1638 2222 
L -13 4666 
z
" transform="scale(0.015625)"/>
     </defs>
     <use xlink:href="#DejaVuSans-59"/>
     <use xlink:href="#DejaVuSans-20" x="61.083984"/>
     <use xlink:href="#DejaVuSans-5b" x="92.871094"/>
     <use xlink:href="#DejaVuSans-31" x="131.884766"/>
     <use xlink:href="#DejaVuSans-38" x="195.507812"/>
     <use xlink:href="#DejaVuSans-5d" x="259.130859"/>
    </g>
   </g>
   <g id="text_21">
    <!-- A0A2I2UTY3 [613] -->
    <g transform="translate(122.282802 152.44498) scale(0.12 -0.12)">
     <defs>
      <path id="DejaVuSans-55" d="M 556 4666 
L 1191 4666 
L 1191 1831 
Q 1191 1081 1462 751 
Q 1734 422 2344 422 
Q 2950 422 3222 751 
Q 3494 1081 3494 1831 
L 3494 4666 
L 4128 4666 
L 4128 1753 
Q 4128 841 3676 375 
Q 3225 -91 2344 -91 
Q 1459 -91 1007 375 
Q 556 841 556 1753 
L 556 4666 
z
" transform="scale(0.015625)"/>
      <path id="DejaVuSans-36" d="M 2113 2584 
Q 1688 2584 1439 2293 
Q 1191 2003 1191 1497 
Q 1191 994 1439 701 
Q 1688 409 2113 409 
Q 2538 409 2786 701 
Q 3034 994 3034 1497 
Q 3034 2003 2786 2293 
Q 2538 2584 2113 2584 
z
M 3366 4563 
L 3366 3988 
Q 3128 4100 2886 4159 
Q 2644 4219 2406 4219 
Q 1781 4219 1451 3797 
Q 1122 3375 1075 2522 
Q 1259 2794 1537 2939 
Q 1816 3084 2150 3084 
Q 2853 3084 3261 2657 
Q 3669 2231 3669 1497 
Q 3669 778 3244 343 
Q 2819 -91 2113 -91 
Q 1303 -91 875 529 
Q 447 1150 447 2328 
Q 447 3434 972 4092 
Q 1497 4750 2381 4750 
Q 2619 4750 2861 4703 
Q 3103 4656 3366 4563 
z
" transform="scale(0.015625)"/>
     </defs>
     <use xlink:href="#DejaVuSans-41"/>
     <use xlink:href="#DejaVuSans-30" x="68.408203"/>
     <use xlink:href="#DejaVuSans-41" x="132.03125"/>
     <use xlink:href="#DejaVuSans-32" x="200.439453"/>
     <use xlink:href="#DejaVuSans-49" x="264.0625"/>
     <use xlink:href="#DejaVuSans-32" x="293.554688"/>
     <use xlink:href="#DejaVuSans-55" x="357.177734"/>
     <use xlink:href="#DejaVuSans-54" x="430.371094"/>
     <use xlink:href="#DejaVuSans-59" x="491.455078"/>
     <use xlink:href="#DejaVuSans-33" x="552.539062"/>
     <use xlink:href="#DejaVuSans-20" x="616.162109"/>
     <use xlink:href="#DejaVuSans-5b" x="647.949219"/>
     <use xlink:href="#DejaVuSans-36" x="686.962891"/>
     <use xlink:href="#DejaVuSans-31" x="750.585938"/>
     <use xlink:href="#DejaVuSans-33" x="814.208984"/>
     <use xlink:href="#DejaVuSans-5d" x="877.832031"/>
    </g>
   </g>
  </g>
 </g>
</svg>
