<?xml version="1.0" encoding="utf-8" standalone="no"?>
<!DOCTYPE svg PUBLIC "-//W3C//DTD SVG 1.1//EN"
  "http://www.w3.org/Graphics/SVG/1.1/DTD/svg11.dtd">
<svg xmlns:xlink="http://www.w3.org/1999/xlink" width="352.900692pt" height="305.607536pt" viewBox="0 0 352.900692 305.607536" xmlns="http://www.w3.org/2000/svg" version="1.1">
 <metadata>
  <rdf:RDF xmlns:dc="http://purl.org/dc/elements/1.1/" xmlns:cc="http://creativecommons.org/ns#" xmlns:rdf="http://www.w3.org/1999/02/22-rdf-syntax-ns#">
   <cc:Work>
    <dc:type rdf:resource="http://purl.org/dc/dcmitype/StillImage"/>
    <dc:date>2024-09-27T16:07:32.273384</dc:date>
    <dc:format>image/svg+xml</dc:format>
    <dc:creator>
     <cc:Agent>
      <dc:title>Matplotlib v3.8.3, https://matplotlib.org/</dc:title>
     </cc:Agent>
    </dc:creator>
   </cc:Work>
  </rdf:RDF>
 </metadata>
 <defs>
  <style type="text/css">*{stroke-linejoin: round; stroke-linecap: butt}</style>
 </defs>
 <g id="figure_1">
  <g id="patch_1">
   <path d="M 0 305.607536 
L 352.900692 305.607536 
L 352.900692 0 
L 0 0 
z
" style="fill: #ffffff"/>
  </g>
  <g id="axes_1">
   <g id="patch_2">
    <path d="M 304.529647 152.780919 
C 304.529647 144.28746 303.682508 135.815138 302.000816 127.48983 
C 300.319124 119.164522 297.811249 111.027664 294.514453 103.20015 
L 176.795887 152.780919 
z
" style="fill: #1f77b4"/>
   </g>
   <g id="patch_3">
    <path d="M 294.461474 103.053389 
C 292.892573 99.328382 291.147749 95.679942 289.232892 92.120385 
C 287.318036 88.560828 285.235303 85.094164 282.991726 81.732098 
L 176.742908 152.634158 
z
" style="fill: #ff7f0e"/>
   </g>
   <g id="patch_4">
    <path d="M 282.935731 81.648189 
C 280.692154 78.286123 278.290261 75.032442 275.73816 71.898131 
C 273.186059 68.763821 270.486625 65.752411 267.648973 62.874069 
L 176.686913 152.550248 
z
" style="fill: #aec7e8"/>
   </g>
   <g id="patch_5">
    <path d="M 267.593386 62.815503 
C 265.890999 61.088705 264.139786 59.410733 262.341875 57.783629 
C 260.543964 56.156524 258.700085 54.580946 256.81248 53.05881 
L 176.631327 152.491682 
z
" style="fill: #ffbb78"/>
   </g>
   <g id="patch_6">
    <path d="M 256.687251 52.97438 
C 249.129188 46.879673 240.900804 41.666542 232.161647 37.436068 
C 223.42249 33.205594 214.229409 29.985298 204.760658 27.83762 
L 176.506098 152.407252 
z
" style="fill: #98df8a"/>
   </g>
   <g id="patch_7">
    <path d="M 204.591755 27.788184 
C 200.255607 26.80467 195.871062 26.048232 191.456029 25.52196 
C 187.040996 24.995688 182.601494 24.7003 178.155657 24.637001 
L 176.337195 152.357816 
z
" style="fill: #2ca02c"/>
   </g>
   <g id="patch_8">
    <path d="M 178.064891 24.633985 
C 175.236104 24.593709 172.406759 24.647423 169.581539 24.795039 
C 166.756318 24.942654 163.936782 25.184089 161.127595 25.518944 
L 176.246429 152.3548 
z
" style="fill: #d62728"/>
   </g>
   <g id="patch_9">
    <path d="M 160.946453 25.560935 
C 148.887891 26.998316 137.095697 30.14803 125.926431 34.914841 
C 114.757164 39.681652 104.324545 46.017026 94.94402 53.729403 
L 176.065288 152.396791 
z
" style="fill: #9467bd"/>
   </g>
   <g id="patch_10">
    <path d="M 94.749953 53.871247 
C 89.127697 58.493691 83.910808 63.58824 79.156272 69.099242 
C 74.401737 74.610244 70.12693 80.51756 66.378548 86.756661 
L 175.871221 152.538635 
z
" style="fill: #ff9896"/>
   </g>
   <g id="patch_11">
    <path d="M 66.253994 87.033813 
C 57.274026 101.980777 51.449075 118.609446 49.138902 135.89281 
C 46.828728 153.176173 48.08189 170.750936 52.82099 187.531654 
L 175.746667 152.815786 
z
" style="fill: #c5b0d5"/>
   </g>
   <g id="patch_12">
    <path d="M 52.858029 187.808753 
C 54.286297 192.866117 56.025307 197.830523 58.065141 202.673658 
C 60.104976 207.516794 62.441749 212.229434 65.062135 216.784701 
L 175.783705 153.092885 
z
" style="fill: #c49c94"/>
   </g>
   <g id="patch_13">
    <path d="M 65.130516 216.902279 
C 67.952613 221.8082 71.097655 226.521137 74.544842 231.009923 
C 77.99203 235.498708 81.733748 239.753424 85.745251 243.745935 
L 175.852086 153.210463 
z
" style="fill: #8c564b"/>
   </g>
   <g id="patch_14">
    <path d="M 85.849242 243.848456 
C 90.147514 248.126379 94.744984 252.092778 99.606754 255.717547 
C 104.468525 259.342316 109.582265 262.616261 114.909158 265.514531 
L 175.956077 153.312985 
z
" style="fill: #e377c2"/>
   </g>
   <g id="patch_15">
    <path d="M 114.999939 265.569072 
C 117.129941 266.727969 119.292512 267.825978 121.485022 268.861765 
C 123.677532 269.897551 125.899092 270.870694 128.147 271.780012 
L 176.046859 153.367525 
z
" style="fill: #7f7f7f"/>
   </g>
   <g id="patch_16">
    <path d="M 128.236998 271.812983 
C 133.108683 273.783662 138.097343 275.451821 143.174528 276.807945 
C 148.251714 278.16407 153.407754 279.205577 158.613243 279.926527 
L 176.136856 153.400497 
z
" style="fill: #f7b6d2"/>
   </g>
   <g id="patch_17">
    <path d="M 158.78844 279.943205 
C 167.602928 281.163995 176.520908 281.460353 185.396998 280.827446 
C 194.273087 280.19454 203.058792 278.635828 211.610887 276.17672 
L 176.312053 153.417175 
z
" style="fill: #c7c7c7"/>
   </g>
   <g id="patch_18">
    <path d="M 211.836223 276.108438 
C 221.557076 273.31326 230.911604 269.373314 239.703052 264.37147 
C 248.494501 259.369625 256.660798 253.341197 264.030183 246.412981 
L 176.53739 153.348893 
z
" style="fill: #dbdb8d"/>
   </g>
   <g id="patch_19">
    <path d="M 264.206873 246.250001 
C 270.985489 239.877187 277.047585 232.782793 282.285179 225.093189 
C 287.522772 217.403585 291.904578 209.164701 295.352546 200.523293 
L 176.714079 153.185912 
z
" style="fill: #bcbd22"/>
   </g>
   <g id="patch_20">
    <path d="M 295.415793 200.397247 
C 296.164644 198.520453 296.868855 196.626154 297.52783 194.715949 
C 298.186806 192.805744 298.800362 190.880171 299.367979 188.940856 
L 176.777327 153.059866 
z
" style="fill: #17becf"/>
   </g>
   <g id="patch_21">
    <path d="M 299.391691 188.842805 
C 301.095181 183.022678 302.382035 177.088619 303.242485 171.08567 
C 304.102935 165.082722 304.534799 159.026111 304.534799 152.961808 
L 176.801039 152.961815 
z
" style="fill: #9edae5"/>
   </g>
   <g id="patch_22">
    <path d="M 250.785559 152.886299 
C 250.785559 147.931781 250.291395 142.989593 249.310408 138.133163 
C 248.329421 133.276734 246.866494 128.530233 244.943363 123.964184 
L 176.274199 152.886299 
z
" style="fill: #ffffff"/>
   </g>
   <g id="patch_23">
    <path d="M 244.943363 123.964184 
C 244.028171 121.791263 243.010357 119.663006 241.893357 117.586598 
C 240.776357 115.510189 239.56143 113.487969 238.252677 111.526764 
L 176.274199 152.886299 
z
" style="fill: #ffffff"/>
   </g>
   <g id="patch_24">
    <path d="M 238.252677 111.526764 
C 236.943924 109.565559 235.542819 107.667579 234.054093 105.839231 
C 232.565368 104.010883 230.990698 102.254227 229.335401 100.575194 
L 176.274199 152.886299 
z
" style="fill: #ffffff"/>
   </g>
   <g id="patch_25">
    <path d="M 229.335401 100.575194 
C 228.342342 99.567895 227.320801 98.589079 226.272019 97.639934 
C 225.223238 96.69079 224.147642 95.771703 223.046539 94.88379 
L 176.274199 152.886299 
z
" style="fill: #ffffff"/>
   </g>
   <g id="patch_26">
    <path d="M 223.046539 94.88379 
C 218.637669 91.328544 213.837778 88.287551 208.739937 85.819774 
C 203.642095 83.351998 198.279465 81.473492 192.756026 80.22068 
L 176.274199 152.886299 
z
" style="fill: #ffffff"/>
   </g>
   <g id="patch_27">
    <path d="M 192.756026 80.22068 
C 190.226607 79.646964 187.668955 79.205708 185.093519 78.898716 
C 182.518084 78.591724 179.928374 78.419414 177.334969 78.38249 
L 176.274199 152.886299 
z
" style="fill: #ffffff"/>
   </g>
   <g id="patch_28">
    <path d="M 177.334969 78.38249 
C 175.684843 78.358996 174.034392 78.390329 172.386347 78.476438 
C 170.738302 78.562547 169.093572 78.703384 167.454879 78.898716 
L 176.274199 152.886299 
z
" style="fill: #ffffff"/>
   </g>
   <g id="patch_29">
    <path d="M 167.454879 78.898716 
C 160.420718 79.737188 153.541939 81.574522 147.026533 84.355162 
C 140.511128 87.135801 134.425433 90.831436 128.95346 95.330323 
L 176.274199 152.886299 
z
" style="fill: #ffffff"/>
   </g>
   <g id="patch_30">
    <path d="M 128.95346 95.330323 
C 125.673811 98.026749 122.630626 100.998569 119.857146 104.21332 
C 117.083667 107.428071 114.59003 110.874005 112.403474 114.513481 
L 176.274199 152.886299 
z
" style="fill: #ffffff"/>
   </g>
   <g id="patch_31">
    <path d="M 112.403474 114.513481 
C 107.165159 123.232543 103.767271 132.9326 102.41967 143.014562 
C 101.072068 153.096525 101.803079 163.348469 104.567555 173.137221 
L 176.274199 152.886299 
z
" style="fill: #ffffff"/>
   </g>
   <g id="patch_32">
    <path d="M 104.567555 173.137221 
C 105.400711 176.087351 106.415134 178.983254 107.605037 181.808416 
C 108.79494 184.633579 110.158058 187.382619 111.686617 190.039858 
L 176.274199 152.886299 
z
" style="fill: #ffffff"/>
   </g>
   <g id="patch_33">
    <path d="M 111.686617 190.039858 
C 113.33284 192.901645 115.167448 195.650859 117.178307 198.269317 
C 119.189167 200.887775 121.371835 203.369693 123.711879 205.698657 
L 176.274199 152.886299 
z
" style="fill: #ffffff"/>
   </g>
   <g id="patch_34">
    <path d="M 123.711879 205.698657 
C 126.219204 208.194112 128.901062 210.507845 131.737095 212.622293 
C 134.573127 214.736742 137.556142 216.646543 140.663497 218.337201 
L 176.274199 152.886299 
z
" style="fill: #ffffff"/>
   </g>
   <g id="patch_35">
    <path d="M 140.663497 218.337201 
C 141.905998 219.013225 143.167497 219.65373 144.446461 220.257939 
C 145.725425 220.862147 147.021335 221.429814 148.332616 221.960249 
L 176.274199 152.886299 
z
" style="fill: #ffffff"/>
   </g>
   <g id="patch_36">
    <path d="M 148.332616 221.960249 
C 151.174432 223.109812 154.084483 224.082905 157.046175 224.873977 
C 160.007866 225.66505 163.015556 226.272596 166.052091 226.69315 
L 176.274199 152.886299 
z
" style="fill: #ffffff"/>
   </g>
   <g id="patch_37">
    <path d="M 166.052091 226.69315 
C 171.193877 227.405277 176.396031 227.578153 181.57375 227.208957 
C 186.751469 226.839762 191.876463 225.930513 196.865185 224.496033 
L 176.274199 152.886299 
z
" style="fill: #ffffff"/>
   </g>
   <g id="patch_38">
    <path d="M 196.865185 224.496033 
C 202.535683 222.865513 207.992491 220.567211 213.120836 217.649469 
C 218.249181 214.731726 223.012854 211.215143 227.311662 207.173684 
L 176.274199 152.886299 
z
" style="fill: #ffffff"/>
   </g>
   <g id="patch_39">
    <path d="M 227.311662 207.173684 
C 231.265855 203.456209 234.802078 199.317812 237.857341 194.83221 
C 240.912604 190.346608 243.468657 185.540592 245.479972 180.499771 
L 176.274199 152.886299 
z
" style="fill: #ffffff"/>
   </g>
   <g id="patch_40">
    <path d="M 245.479972 180.499771 
C 245.916801 179.404975 246.327591 178.299967 246.711993 177.185681 
C 247.096396 176.071395 247.454303 174.948144 247.785413 173.816877 
L 176.274199 152.886299 
z
" style="fill: #ffffff"/>
   </g>
   <g id="patch_41">
    <path d="M 247.785413 173.816877 
C 248.779116 170.421802 249.52978 166.960268 250.03171 163.458548 
C 250.533639 159.956828 250.78556 156.423805 250.785559 152.886295 
L 176.274199 152.886299 
z
" style="fill: #ffffff"/>
   </g>
   <g id="matplotlib.axis_1"/>
   <g id="matplotlib.axis_2"/>
   <g id="text_1">
    <!-- A [21] -->
    <g transform="translate(314.521309 127.720096) scale(0.1 -0.1)">
     <defs>
      <path id="DejaVuSans-41" d="M 2188 4044 
L 1331 1722 
L 3047 1722 
L 2188 4044 
z
M 1831 4666 
L 2547 4666 
L 4325 0 
L 3669 0 
L 3244 1197 
L 1141 1197 
L 716 0 
L 50 0 
L 1831 4666 
z
" transform="scale(0.015625)"/>
      <path id="DejaVuSans-20" transform="scale(0.015625)"/>
      <path id="DejaVuSans-5b" d="M 550 4863 
L 1875 4863 
L 1875 4416 
L 1125 4416 
L 1125 -397 
L 1875 -397 
L 1875 -844 
L 550 -844 
L 550 4863 
z
" transform="scale(0.015625)"/>
      <path id="DejaVuSans-32" d="M 1228 531 
L 3431 531 
L 3431 0 
L 469 0 
L 469 531 
Q 828 903 1448 1529 
Q 2069 2156 2228 2338 
Q 2531 2678 2651 2914 
Q 2772 3150 2772 3378 
Q 2772 3750 2511 3984 
Q 2250 4219 1831 4219 
Q 1534 4219 1204 4116 
Q 875 4013 500 3803 
L 500 4441 
Q 881 4594 1212 4672 
Q 1544 4750 1819 4750 
Q 2544 4750 2975 4387 
Q 3406 4025 3406 3419 
Q 3406 3131 3298 2873 
Q 3191 2616 2906 2266 
Q 2828 2175 2409 1742 
Q 1991 1309 1228 531 
z
" transform="scale(0.015625)"/>
      <path id="DejaVuSans-31" d="M 794 531 
L 1825 531 
L 1825 4091 
L 703 3866 
L 703 4441 
L 1819 4666 
L 2450 4666 
L 2450 531 
L 3481 531 
L 3481 0 
L 794 0 
L 794 531 
z
" transform="scale(0.015625)"/>
      <path id="DejaVuSans-5d" d="M 1947 4863 
L 1947 -844 
L 622 -844 
L 622 -397 
L 1369 -397 
L 1369 4416 
L 622 4416 
L 622 4863 
L 1947 4863 
z
" transform="scale(0.015625)"/>
     </defs>
     <use xlink:href="#DejaVuSans-41"/>
     <use xlink:href="#DejaVuSans-20" x="68.408203"/>
     <use xlink:href="#DejaVuSans-5b" x="100.195312"/>
     <use xlink:href="#DejaVuSans-32" x="139.208984"/>
     <use xlink:href="#DejaVuSans-31" x="202.832031"/>
     <use xlink:href="#DejaVuSans-5d" x="266.455078"/>
    </g>
   </g>
   <g id="text_2">
    <!-- C [10] -->
    <g transform="translate(300.481891 88.828382) scale(0.1 -0.1)">
     <defs>
      <path id="DejaVuSans-43" d="M 4122 4306 
L 4122 3641 
Q 3803 3938 3442 4084 
Q 3081 4231 2675 4231 
Q 1875 4231 1450 3742 
Q 1025 3253 1025 2328 
Q 1025 1406 1450 917 
Q 1875 428 2675 428 
Q 3081 428 3442 575 
Q 3803 722 4122 1019 
L 4122 359 
Q 3791 134 3420 21 
Q 3050 -91 2638 -91 
Q 1578 -91 968 557 
Q 359 1206 359 2328 
Q 359 3453 968 4101 
Q 1578 4750 2638 4750 
Q 3056 4750 3426 4639 
Q 3797 4528 4122 4306 
z
" transform="scale(0.015625)"/>
      <path id="DejaVuSans-30" d="M 2034 4250 
Q 1547 4250 1301 3770 
Q 1056 3291 1056 2328 
Q 1056 1369 1301 889 
Q 1547 409 2034 409 
Q 2525 409 2770 889 
Q 3016 1369 3016 2328 
Q 3016 3291 2770 3770 
Q 2525 4250 2034 4250 
z
M 2034 4750 
Q 2819 4750 3233 4129 
Q 3647 3509 3647 2328 
Q 3647 1150 3233 529 
Q 2819 -91 2034 -91 
Q 1250 -91 836 529 
Q 422 1150 422 2328 
Q 422 3509 836 4129 
Q 1250 4750 2034 4750 
z
" transform="scale(0.015625)"/>
     </defs>
     <use xlink:href="#DejaVuSans-43"/>
     <use xlink:href="#DejaVuSans-20" x="69.824219"/>
     <use xlink:href="#DejaVuSans-5b" x="101.611328"/>
     <use xlink:href="#DejaVuSans-31" x="140.625"/>
     <use xlink:href="#DejaVuSans-30" x="204.248047"/>
     <use xlink:href="#DejaVuSans-5d" x="267.871094"/>
    </g>
   </g>
   <g id="text_3">
    <!-- D [10] -->
    <g transform="translate(285.643284 66.592295) scale(0.1 -0.1)">
     <defs>
      <path id="DejaVuSans-44" d="M 1259 4147 
L 1259 519 
L 2022 519 
Q 2988 519 3436 956 
Q 3884 1394 3884 2338 
Q 3884 3275 3436 3711 
Q 2988 4147 2022 4147 
L 1259 4147 
z
M 628 4666 
L 1925 4666 
Q 3281 4666 3915 4102 
Q 4550 3538 4550 2338 
Q 4550 1131 3912 565 
Q 3275 0 1925 0 
L 628 0 
L 628 4666 
z
" transform="scale(0.015625)"/>
     </defs>
     <use xlink:href="#DejaVuSans-44"/>
     <use xlink:href="#DejaVuSans-20" x="77.001953"/>
     <use xlink:href="#DejaVuSans-5b" x="108.789062"/>
     <use xlink:href="#DejaVuSans-31" x="147.802734"/>
     <use xlink:href="#DejaVuSans-30" x="211.425781"/>
     <use xlink:href="#DejaVuSans-5d" x="275.048828"/>
    </g>
   </g>
   <g id="text_4">
    <!-- E [6] -->
    <g transform="translate(270.91293 51.072198) scale(0.1 -0.1)">
     <defs>
      <path id="DejaVuSans-45" d="M 628 4666 
L 3578 4666 
L 3578 4134 
L 1259 4134 
L 1259 2753 
L 3481 2753 
L 3481 2222 
L 1259 2222 
L 1259 531 
L 3634 531 
L 3634 0 
L 628 0 
L 628 4666 
z
" transform="scale(0.015625)"/>
      <path id="DejaVuSans-36" d="M 2113 2584 
Q 1688 2584 1439 2293 
Q 1191 2003 1191 1497 
Q 1191 994 1439 701 
Q 1688 409 2113 409 
Q 2538 409 2786 701 
Q 3034 994 3034 1497 
Q 3034 2003 2786 2293 
Q 2538 2584 2113 2584 
z
M 3366 4563 
L 3366 3988 
Q 3128 4100 2886 4159 
Q 2644 4219 2406 4219 
Q 1781 4219 1451 3797 
Q 1122 3375 1075 2522 
Q 1259 2794 1537 2939 
Q 1816 3084 2150 3084 
Q 2853 3084 3261 2657 
Q 3669 2231 3669 1497 
Q 3669 778 3244 343 
Q 2819 -91 2113 -91 
Q 1303 -91 875 529 
Q 447 1150 447 2328 
Q 447 3434 972 4092 
Q 1497 4750 2381 4750 
Q 2619 4750 2861 4703 
Q 3103 4656 3366 4563 
z
" transform="scale(0.015625)"/>
     </defs>
     <use xlink:href="#DejaVuSans-45"/>
     <use xlink:href="#DejaVuSans-20" x="63.183594"/>
     <use xlink:href="#DejaVuSans-5b" x="94.970703"/>
     <use xlink:href="#DejaVuSans-36" x="133.984375"/>
     <use xlink:href="#DejaVuSans-5d" x="197.607422"/>
    </g>
   </g>
   <g id="text_5">
    <!-- F [24] -->
    <g transform="translate(237.727202 28.698324) scale(0.1 -0.1)">
     <defs>
      <path id="DejaVuSans-46" d="M 628 4666 
L 3309 4666 
L 3309 4134 
L 1259 4134 
L 1259 2759 
L 3109 2759 
L 3109 2228 
L 1259 2228 
L 1259 0 
L 628 0 
L 628 4666 
z
" transform="scale(0.015625)"/>
      <path id="DejaVuSans-34" d="M 2419 4116 
L 825 1625 
L 2419 1625 
L 2419 4116 
z
M 2253 4666 
L 3047 4666 
L 3047 1625 
L 3713 1625 
L 3713 1100 
L 3047 1100 
L 3047 0 
L 2419 0 
L 2419 1100 
L 313 1100 
L 313 1709 
L 2253 4666 
z
" transform="scale(0.015625)"/>
     </defs>
     <use xlink:href="#DejaVuSans-46"/>
     <use xlink:href="#DejaVuSans-20" x="57.519531"/>
     <use xlink:href="#DejaVuSans-5b" x="89.306641"/>
     <use xlink:href="#DejaVuSans-32" x="128.320312"/>
     <use xlink:href="#DejaVuSans-34" x="191.943359"/>
     <use xlink:href="#DejaVuSans-5d" x="255.566406"/>
    </g>
   </g>
   <g id="text_6">
    <!-- G [11] -->
    <g transform="translate(192.967912 15.59775) scale(0.1 -0.1)">
     <defs>
      <path id="DejaVuSans-47" d="M 3809 666 
L 3809 1919 
L 2778 1919 
L 2778 2438 
L 4434 2438 
L 4434 434 
Q 4069 175 3628 42 
Q 3188 -91 2688 -91 
Q 1594 -91 976 548 
Q 359 1188 359 2328 
Q 359 3472 976 4111 
Q 1594 4750 2688 4750 
Q 3144 4750 3555 4637 
Q 3966 4525 4313 4306 
L 4313 3634 
Q 3963 3931 3569 4081 
Q 3175 4231 2741 4231 
Q 1884 4231 1454 3753 
Q 1025 3275 1025 2328 
Q 1025 1384 1454 906 
Q 1884 428 2741 428 
Q 3075 428 3337 486 
Q 3600 544 3809 666 
z
" transform="scale(0.015625)"/>
     </defs>
     <use xlink:href="#DejaVuSans-47"/>
     <use xlink:href="#DejaVuSans-20" x="77.490234"/>
     <use xlink:href="#DejaVuSans-5b" x="109.277344"/>
     <use xlink:href="#DejaVuSans-31" x="148.291016"/>
     <use xlink:href="#DejaVuSans-31" x="211.914062"/>
     <use xlink:href="#DejaVuSans-5d" x="275.537109"/>
    </g>
   </g>
   <g id="text_7">
    <!-- H [7] -->
    <g transform="translate(144.050987 14.798438) scale(0.1 -0.1)">
     <defs>
      <path id="DejaVuSans-48" d="M 628 4666 
L 1259 4666 
L 1259 2753 
L 3553 2753 
L 3553 4666 
L 4184 4666 
L 4184 0 
L 3553 0 
L 3553 2222 
L 1259 2222 
L 1259 0 
L 628 0 
L 628 4666 
z
" transform="scale(0.015625)"/>
      <path id="DejaVuSans-37" d="M 525 4666 
L 3525 4666 
L 3525 4397 
L 1831 0 
L 1172 0 
L 2766 4134 
L 525 4134 
L 525 4666 
z
" transform="scale(0.015625)"/>
     </defs>
     <use xlink:href="#DejaVuSans-48"/>
     <use xlink:href="#DejaVuSans-20" x="75.195312"/>
     <use xlink:href="#DejaVuSans-5b" x="106.982422"/>
     <use xlink:href="#DejaVuSans-37" x="145.996094"/>
     <use xlink:href="#DejaVuSans-5d" x="209.619141"/>
    </g>
   </g>
   <g id="text_8">
    <!-- I [30] -->
    <g transform="translate(94.256295 25.926021) scale(0.1 -0.1)">
     <defs>
      <path id="DejaVuSans-49" d="M 628 4666 
L 1259 4666 
L 1259 0 
L 628 0 
L 628 4666 
z
" transform="scale(0.015625)"/>
      <path id="DejaVuSans-33" d="M 2597 2516 
Q 3050 2419 3304 2112 
Q 3559 1806 3559 1356 
Q 3559 666 3084 287 
Q 2609 -91 1734 -91 
Q 1441 -91 1130 -33 
Q 819 25 488 141 
L 488 750 
Q 750 597 1062 519 
Q 1375 441 1716 441 
Q 2309 441 2620 675 
Q 2931 909 2931 1356 
Q 2931 1769 2642 2001 
Q 2353 2234 1838 2234 
L 1294 2234 
L 1294 2753 
L 1863 2753 
Q 2328 2753 2575 2939 
Q 2822 3125 2822 3475 
Q 2822 3834 2567 4026 
Q 2313 4219 1838 4219 
Q 1578 4219 1281 4162 
Q 984 4106 628 3988 
L 628 4550 
Q 988 4650 1302 4700 
Q 1616 4750 1894 4750 
Q 2613 4750 3031 4423 
Q 3450 4097 3450 3541 
Q 3450 3153 3228 2886 
Q 3006 2619 2597 2516 
z
" transform="scale(0.015625)"/>
     </defs>
     <use xlink:href="#DejaVuSans-49"/>
     <use xlink:href="#DejaVuSans-20" x="29.492188"/>
     <use xlink:href="#DejaVuSans-5b" x="61.279297"/>
     <use xlink:href="#DejaVuSans-33" x="100.292969"/>
     <use xlink:href="#DejaVuSans-30" x="163.916016"/>
     <use xlink:href="#DejaVuSans-5d" x="227.539062"/>
    </g>
   </g>
   <g id="text_9">
    <!-- K [18] -->
    <g transform="translate(39.220715 63.514678) scale(0.1 -0.1)">
     <defs>
      <path id="DejaVuSans-4b" d="M 628 4666 
L 1259 4666 
L 1259 2694 
L 3353 4666 
L 4166 4666 
L 1850 2491 
L 4331 0 
L 3500 0 
L 1259 2247 
L 1259 0 
L 628 0 
L 628 4666 
z
" transform="scale(0.015625)"/>
      <path id="DejaVuSans-38" d="M 2034 2216 
Q 1584 2216 1326 1975 
Q 1069 1734 1069 1313 
Q 1069 891 1326 650 
Q 1584 409 2034 409 
Q 2484 409 2743 651 
Q 3003 894 3003 1313 
Q 3003 1734 2745 1975 
Q 2488 2216 2034 2216 
z
M 1403 2484 
Q 997 2584 770 2862 
Q 544 3141 544 3541 
Q 544 4100 942 4425 
Q 1341 4750 2034 4750 
Q 2731 4750 3128 4425 
Q 3525 4100 3525 3541 
Q 3525 3141 3298 2862 
Q 3072 2584 2669 2484 
Q 3125 2378 3379 2068 
Q 3634 1759 3634 1313 
Q 3634 634 3220 271 
Q 2806 -91 2034 -91 
Q 1263 -91 848 271 
Q 434 634 434 1313 
Q 434 1759 690 2068 
Q 947 2378 1403 2484 
z
M 1172 3481 
Q 1172 3119 1398 2916 
Q 1625 2713 2034 2713 
Q 2441 2713 2670 2916 
Q 2900 3119 2900 3481 
Q 2900 3844 2670 4047 
Q 2441 4250 2034 4250 
Q 1625 4250 1398 4047 
Q 1172 3844 1172 3481 
z
" transform="scale(0.015625)"/>
     </defs>
     <use xlink:href="#DejaVuSans-4b"/>
     <use xlink:href="#DejaVuSans-20" x="65.576172"/>
     <use xlink:href="#DejaVuSans-5b" x="97.363281"/>
     <use xlink:href="#DejaVuSans-31" x="136.376953"/>
     <use xlink:href="#DejaVuSans-38" x="200"/>
     <use xlink:href="#DejaVuSans-5d" x="263.623047"/>
    </g>
   </g>
   <g id="text_10">
    <!-- L [43] -->
    <g transform="translate(7.2 136.959887) scale(0.1 -0.1)">
     <defs>
      <path id="DejaVuSans-4c" d="M 628 4666 
L 1259 4666 
L 1259 531 
L 3531 531 
L 3531 0 
L 628 0 
L 628 4666 
z
" transform="scale(0.015625)"/>
     </defs>
     <use xlink:href="#DejaVuSans-4c"/>
     <use xlink:href="#DejaVuSans-20" x="55.712891"/>
     <use xlink:href="#DejaVuSans-5b" x="87.5"/>
     <use xlink:href="#DejaVuSans-34" x="126.513672"/>
     <use xlink:href="#DejaVuSans-33" x="190.136719"/>
     <use xlink:href="#DejaVuSans-5d" x="253.759766"/>
    </g>
   </g>
   <g id="text_11">
    <!-- M [13] -->
    <g transform="translate(13.95891 210.391111) scale(0.1 -0.1)">
     <defs>
      <path id="DejaVuSans-4d" d="M 628 4666 
L 1569 4666 
L 2759 1491 
L 3956 4666 
L 4897 4666 
L 4897 0 
L 4281 0 
L 4281 4097 
L 3078 897 
L 2444 897 
L 1241 4097 
L 1241 0 
L 628 0 
L 628 4666 
z
" transform="scale(0.015625)"/>
     </defs>
     <use xlink:href="#DejaVuSans-4d"/>
     <use xlink:href="#DejaVuSans-20" x="86.279297"/>
     <use xlink:href="#DejaVuSans-5b" x="118.066406"/>
     <use xlink:href="#DejaVuSans-31" x="157.080078"/>
     <use xlink:href="#DejaVuSans-33" x="220.703125"/>
     <use xlink:href="#DejaVuSans-5d" x="284.326172"/>
    </g>
   </g>
   <g id="text_12">
    <!-- N [14] -->
    <g transform="translate(33.226618 241.549243) scale(0.1 -0.1)">
     <defs>
      <path id="DejaVuSans-4e" d="M 628 4666 
L 1478 4666 
L 3547 763 
L 3547 4666 
L 4159 4666 
L 4159 0 
L 3309 0 
L 1241 3903 
L 1241 0 
L 628 0 
L 628 4666 
z
" transform="scale(0.015625)"/>
     </defs>
     <use xlink:href="#DejaVuSans-4e"/>
     <use xlink:href="#DejaVuSans-20" x="74.804688"/>
     <use xlink:href="#DejaVuSans-5b" x="106.591797"/>
     <use xlink:href="#DejaVuSans-31" x="145.605469"/>
     <use xlink:href="#DejaVuSans-34" x="209.228516"/>
     <use xlink:href="#DejaVuSans-5d" x="272.851562"/>
    </g>
   </g>
   <g id="text_13">
    <!-- P [15] -->
    <g transform="translate(62.235885 268.717378) scale(0.1 -0.1)">
     <defs>
      <path id="DejaVuSans-50" d="M 1259 4147 
L 1259 2394 
L 2053 2394 
Q 2494 2394 2734 2622 
Q 2975 2850 2975 3272 
Q 2975 3691 2734 3919 
Q 2494 4147 2053 4147 
L 1259 4147 
z
M 628 4666 
L 2053 4666 
Q 2838 4666 3239 4311 
Q 3641 3956 3641 3272 
Q 3641 2581 3239 2228 
Q 2838 1875 2053 1875 
L 1259 1875 
L 1259 0 
L 628 0 
L 628 4666 
z
" transform="scale(0.015625)"/>
      <path id="DejaVuSans-35" d="M 691 4666 
L 3169 4666 
L 3169 4134 
L 1269 4134 
L 1269 2991 
Q 1406 3038 1543 3061 
Q 1681 3084 1819 3084 
Q 2600 3084 3056 2656 
Q 3513 2228 3513 1497 
Q 3513 744 3044 326 
Q 2575 -91 1722 -91 
Q 1428 -91 1123 -41 
Q 819 9 494 109 
L 494 744 
Q 775 591 1075 516 
Q 1375 441 1709 441 
Q 2250 441 2565 725 
Q 2881 1009 2881 1497 
Q 2881 1984 2565 2268 
Q 2250 2553 1709 2553 
Q 1456 2553 1204 2497 
Q 953 2441 691 2322 
L 691 4666 
z
" transform="scale(0.015625)"/>
     </defs>
     <use xlink:href="#DejaVuSans-50"/>
     <use xlink:href="#DejaVuSans-20" x="60.302734"/>
     <use xlink:href="#DejaVuSans-5b" x="92.089844"/>
     <use xlink:href="#DejaVuSans-31" x="131.103516"/>
     <use xlink:href="#DejaVuSans-35" x="194.726562"/>
     <use xlink:href="#DejaVuSans-5d" x="258.349609"/>
    </g>
   </g>
   <g id="text_14">
    <!-- Q [6] -->
    <g transform="translate(90.813213 283.170564) scale(0.1 -0.1)">
     <defs>
      <path id="DejaVuSans-51" d="M 2522 4238 
Q 1834 4238 1429 3725 
Q 1025 3213 1025 2328 
Q 1025 1447 1429 934 
Q 1834 422 2522 422 
Q 3209 422 3611 934 
Q 4013 1447 4013 2328 
Q 4013 3213 3611 3725 
Q 3209 4238 2522 4238 
z
M 3406 84 
L 4238 -825 
L 3475 -825 
L 2784 -78 
Q 2681 -84 2626 -87 
Q 2572 -91 2522 -91 
Q 1538 -91 948 567 
Q 359 1225 359 2328 
Q 359 3434 948 4092 
Q 1538 4750 2522 4750 
Q 3503 4750 4090 4092 
Q 4678 3434 4678 2328 
Q 4678 1516 4351 937 
Q 4025 359 3406 84 
z
" transform="scale(0.015625)"/>
     </defs>
     <use xlink:href="#DejaVuSans-51"/>
     <use xlink:href="#DejaVuSans-20" x="78.710938"/>
     <use xlink:href="#DejaVuSans-5b" x="110.498047"/>
     <use xlink:href="#DejaVuSans-36" x="149.511719"/>
     <use xlink:href="#DejaVuSans-5d" x="213.134766"/>
    </g>
   </g>
   <g id="text_15">
    <!-- R [13] -->
    <g transform="translate(109.223608 291.908065) scale(0.1 -0.1)">
     <defs>
      <path id="DejaVuSans-52" d="M 2841 2188 
Q 3044 2119 3236 1894 
Q 3428 1669 3622 1275 
L 4263 0 
L 3584 0 
L 2988 1197 
Q 2756 1666 2539 1819 
Q 2322 1972 1947 1972 
L 1259 1972 
L 1259 0 
L 628 0 
L 628 4666 
L 2053 4666 
Q 2853 4666 3247 4331 
Q 3641 3997 3641 3322 
Q 3641 2881 3436 2590 
Q 3231 2300 2841 2188 
z
M 1259 4147 
L 1259 2491 
L 2053 2491 
Q 2509 2491 2742 2702 
Q 2975 2913 2975 3322 
Q 2975 3731 2742 3939 
Q 2509 4147 2053 4147 
L 1259 4147 
z
" transform="scale(0.015625)"/>
     </defs>
     <use xlink:href="#DejaVuSans-52"/>
     <use xlink:href="#DejaVuSans-20" x="69.482422"/>
     <use xlink:href="#DejaVuSans-5b" x="101.269531"/>
     <use xlink:href="#DejaVuSans-31" x="140.283203"/>
     <use xlink:href="#DejaVuSans-33" x="203.90625"/>
     <use xlink:href="#DejaVuSans-5d" x="267.529297"/>
    </g>
   </g>
   <g id="text_16">
    <!-- S [22] -->
    <g transform="translate(186.305492 296.327848) scale(0.1 -0.1)">
     <defs>
      <path id="DejaVuSans-53" d="M 3425 4513 
L 3425 3897 
Q 3066 4069 2747 4153 
Q 2428 4238 2131 4238 
Q 1616 4238 1336 4038 
Q 1056 3838 1056 3469 
Q 1056 3159 1242 3001 
Q 1428 2844 1947 2747 
L 2328 2669 
Q 3034 2534 3370 2195 
Q 3706 1856 3706 1288 
Q 3706 609 3251 259 
Q 2797 -91 1919 -91 
Q 1588 -91 1214 -16 
Q 841 59 441 206 
L 441 856 
Q 825 641 1194 531 
Q 1563 422 1919 422 
Q 2459 422 2753 634 
Q 3047 847 3047 1241 
Q 3047 1584 2836 1778 
Q 2625 1972 2144 2069 
L 1759 2144 
Q 1053 2284 737 2584 
Q 422 2884 422 3419 
Q 422 4038 858 4394 
Q 1294 4750 2059 4750 
Q 2388 4750 2728 4690 
Q 3069 4631 3425 4513 
z
" transform="scale(0.015625)"/>
     </defs>
     <use xlink:href="#DejaVuSans-53"/>
     <use xlink:href="#DejaVuSans-20" x="63.476562"/>
     <use xlink:href="#DejaVuSans-5b" x="95.263672"/>
     <use xlink:href="#DejaVuSans-32" x="134.277344"/>
     <use xlink:href="#DejaVuSans-32" x="197.900391"/>
     <use xlink:href="#DejaVuSans-5d" x="261.523438"/>
    </g>
   </g>
   <g id="text_17">
    <!-- T [25] -->
    <g transform="translate(246.019619 278.233102) scale(0.1 -0.1)">
     <defs>
      <path id="DejaVuSans-54" d="M -19 4666 
L 3928 4666 
L 3928 4134 
L 2272 4134 
L 2272 0 
L 1638 0 
L 1638 4134 
L -19 4134 
L -19 4666 
z
" transform="scale(0.015625)"/>
     </defs>
     <use xlink:href="#DejaVuSans-54"/>
     <use xlink:href="#DejaVuSans-20" x="61.083984"/>
     <use xlink:href="#DejaVuSans-5b" x="92.871094"/>
     <use xlink:href="#DejaVuSans-32" x="131.884766"/>
     <use xlink:href="#DejaVuSans-35" x="195.507812"/>
     <use xlink:href="#DejaVuSans-5d" x="259.130859"/>
    </g>
   </g>
   <g id="text_18">
    <!-- V [23] -->
    <g transform="translate(292.842289 235.043291) scale(0.1 -0.1)">
     <defs>
      <path id="DejaVuSans-56" d="M 1831 0 
L 50 4666 
L 709 4666 
L 2188 738 
L 3669 4666 
L 4325 4666 
L 2547 0 
L 1831 0 
z
" transform="scale(0.015625)"/>
     </defs>
     <use xlink:href="#DejaVuSans-56"/>
     <use xlink:href="#DejaVuSans-20" x="68.408203"/>
     <use xlink:href="#DejaVuSans-5b" x="100.195312"/>
     <use xlink:href="#DejaVuSans-32" x="139.208984"/>
     <use xlink:href="#DejaVuSans-33" x="202.832031"/>
     <use xlink:href="#DejaVuSans-5d" x="266.455078"/>
    </g>
   </g>
   <g id="text_19">
    <!-- W [5] -->
    <g transform="translate(309.602881 201.640933) scale(0.1 -0.1)">
     <defs>
      <path id="DejaVuSans-57" d="M 213 4666 
L 850 4666 
L 1831 722 
L 2809 4666 
L 3519 4666 
L 4500 722 
L 5478 4666 
L 6119 4666 
L 4947 0 
L 4153 0 
L 3169 4050 
L 2175 0 
L 1381 0 
L 213 4666 
z
" transform="scale(0.015625)"/>
     </defs>
     <use xlink:href="#DejaVuSans-57"/>
     <use xlink:href="#DejaVuSans-20" x="98.876953"/>
     <use xlink:href="#DejaVuSans-5b" x="130.664062"/>
     <use xlink:href="#DejaVuSans-35" x="169.677734"/>
     <use xlink:href="#DejaVuSans-5d" x="233.300781"/>
    </g>
   </g>
   <g id="text_20">
    <!-- Y [15] -->
    <g transform="translate(315.88663 175.657431) scale(0.1 -0.1)">
     <defs>
      <path id="DejaVuSans-59" d="M -13 4666 
L 666 4666 
L 1959 2747 
L 3244 4666 
L 3922 4666 
L 2272 2222 
L 2272 0 
L 1638 0 
L 1638 2222 
L -13 4666 
z
" transform="scale(0.015625)"/>
     </defs>
     <use xlink:href="#DejaVuSans-59"/>
     <use xlink:href="#DejaVuSans-20" x="61.083984"/>
     <use xlink:href="#DejaVuSans-5b" x="92.871094"/>
     <use xlink:href="#DejaVuSans-31" x="131.884766"/>
     <use xlink:href="#DejaVuSans-35" x="195.507812"/>
     <use xlink:href="#DejaVuSans-5d" x="259.130859"/>
    </g>
   </g>
   <g id="text_21">
    <!-- A0A286ZWE5 [331] -->
    <g transform="translate(117.102949 152.886299) scale(0.12 -0.12)">
     <defs>
      <path id="DejaVuSans-5a" d="M 359 4666 
L 4025 4666 
L 4025 4184 
L 1075 531 
L 4097 531 
L 4097 0 
L 288 0 
L 288 481 
L 3238 4134 
L 359 4134 
L 359 4666 
z
" transform="scale(0.015625)"/>
     </defs>
     <use xlink:href="#DejaVuSans-41"/>
     <use xlink:href="#DejaVuSans-30" x="68.408203"/>
     <use xlink:href="#DejaVuSans-41" x="132.03125"/>
     <use xlink:href="#DejaVuSans-32" x="200.439453"/>
     <use xlink:href="#DejaVuSans-38" x="264.0625"/>
     <use xlink:href="#DejaVuSans-36" x="327.685547"/>
     <use xlink:href="#DejaVuSans-5a" x="391.308594"/>
     <use xlink:href="#DejaVuSans-57" x="459.814453"/>
     <use xlink:href="#DejaVuSans-45" x="558.691406"/>
     <use xlink:href="#DejaVuSans-35" x="621.875"/>
     <use xlink:href="#DejaVuSans-20" x="685.498047"/>
     <use xlink:href="#DejaVuSans-5b" x="717.285156"/>
     <use xlink:href="#DejaVuSans-33" x="756.298828"/>
     <use xlink:href="#DejaVuSans-33" x="819.921875"/>
     <use xlink:href="#DejaVuSans-31" x="883.544922"/>
     <use xlink:href="#DejaVuSans-5d" x="947.167969"/>
    </g>
   </g>
  </g>
 </g>
</svg>
