<?xml version="1.0" encoding="utf-8" standalone="no"?>
<!DOCTYPE svg PUBLIC "-//W3C//DTD SVG 1.1//EN"
  "http://www.w3.org/Graphics/SVG/1.1/DTD/svg11.dtd">
<svg xmlns:xlink="http://www.w3.org/1999/xlink" width="349.688499pt" height="305.485798pt" viewBox="0 0 349.688499 305.485798" xmlns="http://www.w3.org/2000/svg" version="1.1">
 <metadata>
  <rdf:RDF xmlns:dc="http://purl.org/dc/elements/1.1/" xmlns:cc="http://creativecommons.org/ns#" xmlns:rdf="http://www.w3.org/1999/02/22-rdf-syntax-ns#">
   <cc:Work>
    <dc:type rdf:resource="http://purl.org/dc/dcmitype/StillImage"/>
    <dc:date>2024-09-27T16:07:30.963638</dc:date>
    <dc:format>image/svg+xml</dc:format>
    <dc:creator>
     <cc:Agent>
      <dc:title>Matplotlib v3.8.3, https://matplotlib.org/</dc:title>
     </cc:Agent>
    </dc:creator>
   </cc:Work>
  </rdf:RDF>
 </metadata>
 <defs>
  <style type="text/css">*{stroke-linejoin: round; stroke-linecap: butt}</style>
 </defs>
 <g id="figure_1">
  <g id="patch_1">
   <path d="M 0 305.485798 
L 349.688499 305.485798 
L 349.688499 0 
L 0 0 
z
" style="fill: #ffffff"/>
  </g>
  <g id="axes_1">
   <g id="patch_2">
    <path d="M 305.671501 152.529866 
C 305.671501 131.164723 300.311101 110.137137 290.082884 91.379394 
C 279.854668 72.621651 265.081834 56.726475 247.121902 45.154518 
L 177.937741 152.529866 
z
" style="fill: #1f77b4"/>
   </g>
   <g id="patch_3">
    <path d="M 246.882897 44.928524 
C 242.260339 41.950115 237.450269 39.273316 232.482719 36.914841 
C 227.515169 34.556365 222.400498 32.521132 217.170642 30.821849 
L 177.698736 152.303872 
z
" style="fill: #ff7f0e"/>
   </g>
   <g id="patch_4">
    <path d="M 217.06272 30.784197 
C 213.576821 29.651559 210.043785 28.669487 206.473424 27.840707 
C 202.903062 27.011927 199.298682 26.337208 195.670291 25.818421 
L 177.590814 152.26622 
z
" style="fill: #aec7e8"/>
   </g>
   <g id="patch_5">
    <path d="M 195.58428 25.805745 
C 192.318824 25.338851 189.036507 24.998625 185.744713 24.785834 
C 182.452918 24.573042 179.154116 24.487843 175.855725 24.53043 
L 177.504802 152.253544 
z
" style="fill: #ffbb78"/>
   </g>
   <g id="patch_6">
    <path d="M 175.741529 24.535347 
C 169.876141 24.611077 164.02293 25.090749 158.223469 25.970955 
C 152.424008 26.851162 146.692061 28.129814 141.068341 29.79783 
L 177.390606 152.258462 
z
" style="fill: #98df8a"/>
   </g>
   <g id="patch_7">
    <path d="M 140.848481 29.884222 
C 128.17486 33.643264 116.161251 39.347041 105.23739 46.791524 
C 94.313528 54.236008 84.611239 63.331361 76.477579 73.752237 
L 177.170747 152.344854 
z
" style="fill: #2ca02c"/>
   </g>
   <g id="patch_8">
    <path d="M 76.346724 73.879209 
C 75.444762 75.034807 74.56276 76.205845 73.70111 77.391805 
C 72.83946 78.577764 71.998289 79.778468 71.177973 80.993384 
L 177.039891 152.471827 
z
" style="fill: #d62728"/>
   </g>
   <g id="patch_9">
    <path d="M 71.157469 81.023751 
C 70.337153 82.238667 69.537811 83.467614 68.7598 84.710047 
C 67.981789 85.952479 67.225223 87.208213 66.490439 88.47669 
L 177.019388 152.502193 
z
" style="fill: #9467bd"/>
   </g>
   <g id="patch_10">
    <path d="M 66.478705 88.496358 
C 66.295013 88.81347 66.112687 89.131371 65.931731 89.450052 
C 65.750776 89.768733 65.571193 90.088191 65.392987 90.408418 
L 177.007653 152.521861 
z
" style="fill: #ff9896"/>
   </g>
   <g id="patch_11">
    <path d="M 65.323757 90.684959 
C 54.209883 110.656019 48.657157 133.248678 49.247243 156.096287 
C 49.837329 178.943896 56.548878 201.219805 68.678834 220.590546 
L 176.938423 152.798401 
z
" style="fill: #c5b0d5"/>
   </g>
   <g id="patch_12">
    <path d="M 68.767242 220.870824 
C 69.350744 221.802638 69.946252 222.72688 70.553618 223.643319 
C 71.160983 224.559757 71.780156 225.468316 72.41098 226.368768 
L 177.026831 153.078679 
z
" style="fill: #c49c94"/>
   </g>
   <g id="patch_13">
    <path d="M 72.426748 226.391277 
C 73.057573 227.291729 73.699996 228.183998 74.353858 229.067863 
C 75.00772 229.951728 75.672966 230.827114 76.34943 231.693803 
L 177.0426 153.101188 
z
" style="fill: #8c564b"/>
   </g>
   <g id="patch_14">
    <path d="M 76.44088 231.789687 
C 82.309597 239.308711 89.002091 246.146785 96.393103 252.175924 
C 103.784115 258.205063 111.827244 263.387418 120.371953 267.625993 
L 177.134049 153.197072 
z
" style="fill: #e377c2"/>
   </g>
   <g id="patch_15">
    <path d="M 120.488417 267.698227 
C 121.801652 268.349652 123.126003 268.978423 124.460882 269.584259 
C 125.795762 270.190095 127.140972 270.772907 128.495914 271.332435 
L 177.250513 153.269306 
z
" style="fill: #7f7f7f"/>
   </g>
   <g id="patch_16">
    <path d="M 128.676968 271.37859 
C 141.236294 276.565009 154.54313 279.714307 168.094852 280.707529 
C 181.646573 281.700751 195.27038 280.525231 208.451677 277.225372 
L 177.431566 153.31546 
z
" style="fill: #f7b6d2"/>
   </g>
   <g id="patch_17">
    <path d="M 208.74336 277.162935 
C 219.066275 274.578655 229.025906 270.714473 238.390537 265.660291 
C 247.755169 260.606108 256.45161 254.401428 264.277535 247.190605 
L 177.72325 153.253024 
z
" style="fill: #c7c7c7"/>
   </g>
   <g id="patch_18">
    <path d="M 264.41771 247.081196 
C 267.113227 244.597541 269.700594 241.999015 272.172626 239.292834 
C 274.644658 236.586653 276.999065 233.775324 279.22931 230.866653 
L 177.863424 153.143615 
z
" style="fill: #dbdb8d"/>
   </g>
   <g id="patch_19">
    <path d="M 279.310049 230.750343 
C 283.996026 224.638922 288.119723 218.116223 291.630733 211.26198 
C 295.141742 204.407737 298.025698 197.249994 300.247347 189.876249 
L 177.944163 153.027304 
z
" style="fill: #bcbd22"/>
   </g>
   <g id="patch_20">
    <path d="M 300.293603 189.747246 
C 301.24521 186.588822 302.074113 183.394722 302.778447 180.172129 
C 303.482781 176.949536 304.062017 173.700868 304.514854 170.433433 
L 177.990419 152.898301 
z
" style="fill: #17becf"/>
   </g>
   <g id="patch_21">
    <path d="M 304.525867 170.356411 
C 304.928378 167.4521 305.230769 164.534791 305.432502 161.609669 
C 305.634236 158.684547 305.735192 155.753346 305.735192 152.821276 
L 178.001432 152.821278 
z
" style="fill: #9edae5"/>
   </g>
   <g id="patch_22">
    <path d="M 251.981829 152.78466 
C 251.981829 140.32166 248.85493 128.055568 242.88847 117.113551 
C 236.92201 106.171535 228.304524 96.899348 217.827897 90.14904 
L 177.470469 152.78466 
z
" style="fill: #ffffff"/>
   </g>
   <g id="patch_23">
    <path d="M 217.827897 90.14904 
C 215.131405 88.411635 212.32553 86.850169 209.427793 85.474391 
C 206.530055 84.098614 203.546497 82.911395 200.495748 81.920146 
L 177.470469 152.78466 
z
" style="fill: #ffffff"/>
   </g>
   <g id="patch_24">
    <path d="M 200.495748 81.920146 
C 198.462307 81.259441 196.40137 80.686566 194.318659 80.203111 
C 192.235948 79.719656 190.133393 79.326069 188.016831 79.023444 
L 177.470469 152.78466 
z
" style="fill: #ffffff"/>
   </g>
   <g id="patch_25">
    <path d="M 188.016831 79.023444 
C 186.111982 78.751089 184.197297 78.552624 182.277084 78.428495 
C 180.35687 78.304367 178.432569 78.254668 176.508508 78.27951 
L 177.470469 152.78466 
z
" style="fill: #ffffff"/>
   </g>
   <g id="patch_26">
    <path d="M 176.508508 78.27951 
C 173.087031 78.323686 169.672658 78.603494 166.289639 79.116948 
C 162.906621 79.630402 159.562985 80.376282 156.282481 81.349291 
L 177.470469 152.78466 
z
" style="fill: #ffffff"/>
   </g>
   <g id="patch_27">
    <path d="M 156.282481 81.349291 
C 148.889535 83.542066 141.881596 86.869269 135.509344 91.211884 
C 129.137092 95.554499 123.477423 100.860122 118.732788 106.938967 
L 177.470469 152.78466 
z
" style="fill: #ffffff"/>
   </g>
   <g id="patch_28">
    <path d="M 118.732788 106.938967 
C 118.206644 107.613065 117.692143 108.296171 117.189513 108.98798 
C 116.686884 109.67979 116.196202 110.380201 115.717684 111.088902 
L 177.470469 152.78466 
z
" style="fill: #ffffff"/>
   </g>
   <g id="patch_29">
    <path d="M 115.717684 111.088902 
C 115.239166 111.797603 114.772883 112.514489 114.319043 113.239241 
C 113.865203 113.963994 113.423873 114.696505 112.995249 115.43645 
L 177.470469 152.78466 
z
" style="fill: #ffffff"/>
   </g>
   <g id="patch_30">
    <path d="M 112.995249 115.43645 
C 112.888096 115.621432 112.781739 115.806874 112.676182 115.992771 
C 112.570624 116.178669 112.465868 116.365019 112.361914 116.551818 
L 177.470469 152.78466 
z
" style="fill: #ffffff"/>
   </g>
   <g id="patch_31">
    <path d="M 112.361914 116.551818 
C 105.878821 128.201604 102.639731 141.380655 102.983948 154.708427 
C 103.328165 168.036198 107.243235 181.030479 114.319042 192.330078 
L 177.470469 152.78466 
z
" style="fill: #ffffff"/>
   </g>
   <g id="patch_32">
    <path d="M 114.319042 192.330078 
C 114.659419 192.873636 115.006798 193.412777 115.361095 193.947366 
C 115.715392 194.481956 116.076575 195.011948 116.444556 195.537212 
L 177.470469 152.78466 
z
" style="fill: #ffffff"/>
   </g>
   <g id="patch_33">
    <path d="M 116.444556 195.537212 
C 116.812537 196.062475 117.187284 196.582966 117.568703 197.098554 
C 117.950123 197.614142 118.338183 198.124784 118.732787 198.630352 
L 177.470469 152.78466 
z
" style="fill: #ffffff"/>
   </g>
   <g id="patch_34">
    <path d="M 118.732787 198.630352 
C 122.156206 203.01645 126.060161 207.005326 130.371584 210.522324 
C 134.683008 214.039322 139.374833 217.062362 144.359247 219.534864 
L 177.470469 152.78466 
z
" style="fill: #ffffff"/>
   </g>
   <g id="patch_35">
    <path d="M 144.359247 219.534864 
C 145.125301 219.914862 145.897839 220.281645 146.676518 220.635049 
C 147.455198 220.988454 148.239904 221.328427 149.030287 221.654819 
L 177.470469 152.78466 
z
" style="fill: #ffffff"/>
   </g>
   <g id="patch_36">
    <path d="M 149.030287 221.654819 
C 156.356561 224.68023 164.118882 226.517321 172.024053 227.0967 
C 179.929223 227.676079 187.876444 226.99036 195.565534 225.065442 
L 177.470469 152.78466 
z
" style="fill: #ffffff"/>
   </g>
   <g id="patch_37">
    <path d="M 195.565534 225.065442 
C 201.587234 223.557945 207.397019 221.303839 212.85972 218.355566 
C 218.322422 215.407293 223.395346 211.787896 227.960469 207.581582 
L 177.470469 152.78466 
z
" style="fill: #ffffff"/>
   </g>
   <g id="patch_38">
    <path d="M 227.960469 207.581582 
C 229.532854 206.132783 231.042152 204.616977 232.48417 203.038371 
C 233.926189 201.459765 235.299593 199.819824 236.600569 198.123099 
L 177.470469 152.78466 
z
" style="fill: #ffffff"/>
   </g>
   <g id="patch_39">
    <path d="M 236.600569 198.123099 
C 239.334056 194.558104 241.739546 190.753196 243.787635 186.754887 
C 245.835724 182.756579 247.518031 178.581229 248.813993 174.279878 
L 177.470469 152.78466 
z
" style="fill: #ffffff"/>
   </g>
   <g id="patch_40">
    <path d="M 248.813993 174.279878 
C 249.369097 172.437464 249.852624 170.574239 250.263485 168.694393 
C 250.674347 166.814547 251.012235 164.919491 251.27639 163.013487 
L 177.470469 152.78466 
z
" style="fill: #ffffff"/>
   </g>
   <g id="patch_41">
    <path d="M 251.27639 163.013487 
C 251.511188 161.319306 251.687582 159.617543 251.80526 157.911221 
C 251.922938 156.2049 251.981829 154.495033 251.981829 152.784659 
L 177.470469 152.78466 
z
" style="fill: #ffffff"/>
   </g>
   <g id="matplotlib.axis_1"/>
   <g id="matplotlib.axis_2"/>
   <g id="text_1">
    <!-- A [58] -->
    <g transform="translate(301.297399 88.023722) scale(0.1 -0.1)">
     <defs>
      <path id="DejaVuSans-41" d="M 2188 4044 
L 1331 1722 
L 3047 1722 
L 2188 4044 
z
M 1831 4666 
L 2547 4666 
L 4325 0 
L 3669 0 
L 3244 1197 
L 1141 1197 
L 716 0 
L 50 0 
L 1831 4666 
z
" transform="scale(0.015625)"/>
      <path id="DejaVuSans-20" transform="scale(0.015625)"/>
      <path id="DejaVuSans-5b" d="M 550 4863 
L 1875 4863 
L 1875 4416 
L 1125 4416 
L 1125 -397 
L 1875 -397 
L 1875 -844 
L 550 -844 
L 550 4863 
z
" transform="scale(0.015625)"/>
      <path id="DejaVuSans-35" d="M 691 4666 
L 3169 4666 
L 3169 4134 
L 1269 4134 
L 1269 2991 
Q 1406 3038 1543 3061 
Q 1681 3084 1819 3084 
Q 2600 3084 3056 2656 
Q 3513 2228 3513 1497 
Q 3513 744 3044 326 
Q 2575 -91 1722 -91 
Q 1428 -91 1123 -41 
Q 819 9 494 109 
L 494 744 
Q 775 591 1075 516 
Q 1375 441 1709 441 
Q 2250 441 2565 725 
Q 2881 1009 2881 1497 
Q 2881 1984 2565 2268 
Q 2250 2553 1709 2553 
Q 1456 2553 1204 2497 
Q 953 2441 691 2322 
L 691 4666 
z
" transform="scale(0.015625)"/>
      <path id="DejaVuSans-38" d="M 2034 2216 
Q 1584 2216 1326 1975 
Q 1069 1734 1069 1313 
Q 1069 891 1326 650 
Q 1584 409 2034 409 
Q 2484 409 2743 651 
Q 3003 894 3003 1313 
Q 3003 1734 2745 1975 
Q 2488 2216 2034 2216 
z
M 1403 2484 
Q 997 2584 770 2862 
Q 544 3141 544 3541 
Q 544 4100 942 4425 
Q 1341 4750 2034 4750 
Q 2731 4750 3128 4425 
Q 3525 4100 3525 3541 
Q 3525 3141 3298 2862 
Q 3072 2584 2669 2484 
Q 3125 2378 3379 2068 
Q 3634 1759 3634 1313 
Q 3634 634 3220 271 
Q 2806 -91 2034 -91 
Q 1263 -91 848 271 
Q 434 634 434 1313 
Q 434 1759 690 2068 
Q 947 2378 1403 2484 
z
M 1172 3481 
Q 1172 3119 1398 2916 
Q 1625 2713 2034 2713 
Q 2441 2713 2670 2916 
Q 2900 3119 2900 3481 
Q 2900 3844 2670 4047 
Q 2441 4250 2034 4250 
Q 1625 4250 1398 4047 
Q 1172 3844 1172 3481 
z
" transform="scale(0.015625)"/>
      <path id="DejaVuSans-5d" d="M 1947 4863 
L 1947 -844 
L 622 -844 
L 622 -397 
L 1369 -397 
L 1369 4416 
L 622 4416 
L 622 4863 
L 1947 4863 
z
" transform="scale(0.015625)"/>
     </defs>
     <use xlink:href="#DejaVuSans-41"/>
     <use xlink:href="#DejaVuSans-20" x="68.408203"/>
     <use xlink:href="#DejaVuSans-5b" x="100.195312"/>
     <use xlink:href="#DejaVuSans-35" x="139.208984"/>
     <use xlink:href="#DejaVuSans-38" x="202.832031"/>
     <use xlink:href="#DejaVuSans-5d" x="266.455078"/>
    </g>
   </g>
   <g id="text_2">
    <!-- C [15] -->
    <g transform="translate(237.961117 28.135312) scale(0.1 -0.1)">
     <defs>
      <path id="DejaVuSans-43" d="M 4122 4306 
L 4122 3641 
Q 3803 3938 3442 4084 
Q 3081 4231 2675 4231 
Q 1875 4231 1450 3742 
Q 1025 3253 1025 2328 
Q 1025 1406 1450 917 
Q 1875 428 2675 428 
Q 3081 428 3442 575 
Q 3803 722 4122 1019 
L 4122 359 
Q 3791 134 3420 21 
Q 3050 -91 2638 -91 
Q 1578 -91 968 557 
Q 359 1206 359 2328 
Q 359 3453 968 4101 
Q 1578 4750 2638 4750 
Q 3056 4750 3426 4639 
Q 3797 4528 4122 4306 
z
" transform="scale(0.015625)"/>
      <path id="DejaVuSans-31" d="M 794 531 
L 1825 531 
L 1825 4091 
L 703 3866 
L 703 4441 
L 1819 4666 
L 2450 4666 
L 2450 531 
L 3481 531 
L 3481 0 
L 794 0 
L 794 531 
z
" transform="scale(0.015625)"/>
     </defs>
     <use xlink:href="#DejaVuSans-43"/>
     <use xlink:href="#DejaVuSans-20" x="69.824219"/>
     <use xlink:href="#DejaVuSans-5b" x="101.611328"/>
     <use xlink:href="#DejaVuSans-31" x="140.625"/>
     <use xlink:href="#DejaVuSans-35" x="204.248047"/>
     <use xlink:href="#DejaVuSans-5d" x="267.871094"/>
    </g>
   </g>
   <g id="text_3">
    <!-- D [10] -->
    <g transform="translate(209.361685 18.157531) scale(0.1 -0.1)">
     <defs>
      <path id="DejaVuSans-44" d="M 1259 4147 
L 1259 519 
L 2022 519 
Q 2988 519 3436 956 
Q 3884 1394 3884 2338 
Q 3884 3275 3436 3711 
Q 2988 4147 2022 4147 
L 1259 4147 
z
M 628 4666 
L 1925 4666 
Q 3281 4666 3915 4102 
Q 4550 3538 4550 2338 
Q 4550 1131 3912 565 
Q 3275 0 1925 0 
L 628 0 
L 628 4666 
z
" transform="scale(0.015625)"/>
      <path id="DejaVuSans-30" d="M 2034 4250 
Q 1547 4250 1301 3770 
Q 1056 3291 1056 2328 
Q 1056 1369 1301 889 
Q 1547 409 2034 409 
Q 2525 409 2770 889 
Q 3016 1369 3016 2328 
Q 3016 3291 2770 3770 
Q 2525 4250 2034 4250 
z
M 2034 4750 
Q 2819 4750 3233 4129 
Q 3647 3509 3647 2328 
Q 3647 1150 3233 529 
Q 2819 -91 2034 -91 
Q 1250 -91 836 529 
Q 422 1150 422 2328 
Q 422 3509 836 4129 
Q 1250 4750 2034 4750 
z
" transform="scale(0.015625)"/>
     </defs>
     <use xlink:href="#DejaVuSans-44"/>
     <use xlink:href="#DejaVuSans-20" x="77.001953"/>
     <use xlink:href="#DejaVuSans-5b" x="108.789062"/>
     <use xlink:href="#DejaVuSans-31" x="147.802734"/>
     <use xlink:href="#DejaVuSans-30" x="211.425781"/>
     <use xlink:href="#DejaVuSans-5d" x="275.048828"/>
    </g>
   </g>
   <g id="text_4">
    <!-- E [9] -->
    <g transform="translate(186.568704 14.798437) scale(0.1 -0.1)">
     <defs>
      <path id="DejaVuSans-45" d="M 628 4666 
L 3578 4666 
L 3578 4134 
L 1259 4134 
L 1259 2753 
L 3481 2753 
L 3481 2222 
L 1259 2222 
L 1259 531 
L 3634 531 
L 3634 0 
L 628 0 
L 628 4666 
z
" transform="scale(0.015625)"/>
      <path id="DejaVuSans-39" d="M 703 97 
L 703 672 
Q 941 559 1184 500 
Q 1428 441 1663 441 
Q 2288 441 2617 861 
Q 2947 1281 2994 2138 
Q 2813 1869 2534 1725 
Q 2256 1581 1919 1581 
Q 1219 1581 811 2004 
Q 403 2428 403 3163 
Q 403 3881 828 4315 
Q 1253 4750 1959 4750 
Q 2769 4750 3195 4129 
Q 3622 3509 3622 2328 
Q 3622 1225 3098 567 
Q 2575 -91 1691 -91 
Q 1453 -91 1209 -44 
Q 966 3 703 97 
z
M 1959 2075 
Q 2384 2075 2632 2365 
Q 2881 2656 2881 3163 
Q 2881 3666 2632 3958 
Q 2384 4250 1959 4250 
Q 1534 4250 1286 3958 
Q 1038 3666 1038 3163 
Q 1038 2656 1286 2365 
Q 1534 2075 1959 2075 
z
" transform="scale(0.015625)"/>
     </defs>
     <use xlink:href="#DejaVuSans-45"/>
     <use xlink:href="#DejaVuSans-20" x="63.183594"/>
     <use xlink:href="#DejaVuSans-5b" x="94.970703"/>
     <use xlink:href="#DejaVuSans-39" x="133.984375"/>
     <use xlink:href="#DejaVuSans-5d" x="197.607422"/>
    </g>
   </g>
   <g id="text_5">
    <!-- F [16] -->
    <g transform="translate(126.848943 16.10158) scale(0.1 -0.1)">
     <defs>
      <path id="DejaVuSans-46" d="M 628 4666 
L 3309 4666 
L 3309 4134 
L 1259 4134 
L 1259 2759 
L 3109 2759 
L 3109 2228 
L 1259 2228 
L 1259 0 
L 628 0 
L 628 4666 
z
" transform="scale(0.015625)"/>
      <path id="DejaVuSans-36" d="M 2113 2584 
Q 1688 2584 1439 2293 
Q 1191 2003 1191 1497 
Q 1191 994 1439 701 
Q 1688 409 2113 409 
Q 2538 409 2786 701 
Q 3034 994 3034 1497 
Q 3034 2003 2786 2293 
Q 2538 2584 2113 2584 
z
M 3366 4563 
L 3366 3988 
Q 3128 4100 2886 4159 
Q 2644 4219 2406 4219 
Q 1781 4219 1451 3797 
Q 1122 3375 1075 2522 
Q 1259 2794 1537 2939 
Q 1816 3084 2150 3084 
Q 2853 3084 3261 2657 
Q 3669 2231 3669 1497 
Q 3669 778 3244 343 
Q 2819 -91 2113 -91 
Q 1303 -91 875 529 
Q 447 1150 447 2328 
Q 447 3434 972 4092 
Q 1497 4750 2381 4750 
Q 2619 4750 2861 4703 
Q 3103 4656 3366 4563 
z
" transform="scale(0.015625)"/>
     </defs>
     <use xlink:href="#DejaVuSans-46"/>
     <use xlink:href="#DejaVuSans-20" x="57.519531"/>
     <use xlink:href="#DejaVuSans-5b" x="89.306641"/>
     <use xlink:href="#DejaVuSans-31" x="128.320312"/>
     <use xlink:href="#DejaVuSans-36" x="191.943359"/>
     <use xlink:href="#DejaVuSans-5d" x="255.566406"/>
    </g>
   </g>
   <g id="text_6">
    <!-- G [36] -->
    <g transform="translate(66.589366 38.995566) scale(0.1 -0.1)">
     <defs>
      <path id="DejaVuSans-47" d="M 3809 666 
L 3809 1919 
L 2778 1919 
L 2778 2438 
L 4434 2438 
L 4434 434 
Q 4069 175 3628 42 
Q 3188 -91 2688 -91 
Q 1594 -91 976 548 
Q 359 1188 359 2328 
Q 359 3472 976 4111 
Q 1594 4750 2688 4750 
Q 3144 4750 3555 4637 
Q 3966 4525 4313 4306 
L 4313 3634 
Q 3963 3931 3569 4081 
Q 3175 4231 2741 4231 
Q 1884 4231 1454 3753 
Q 1025 3275 1025 2328 
Q 1025 1384 1454 906 
Q 1884 428 2741 428 
Q 3075 428 3337 486 
Q 3600 544 3809 666 
z
" transform="scale(0.015625)"/>
      <path id="DejaVuSans-33" d="M 2597 2516 
Q 3050 2419 3304 2112 
Q 3559 1806 3559 1356 
Q 3559 666 3084 287 
Q 2609 -91 1734 -91 
Q 1441 -91 1130 -33 
Q 819 25 488 141 
L 488 750 
Q 750 597 1062 519 
Q 1375 441 1716 441 
Q 2309 441 2620 675 
Q 2931 909 2931 1356 
Q 2931 1769 2642 2001 
Q 2353 2234 1838 2234 
L 1294 2234 
L 1294 2753 
L 1863 2753 
Q 2328 2753 2575 2939 
Q 2822 3125 2822 3475 
Q 2822 3834 2567 4026 
Q 2313 4219 1838 4219 
Q 1578 4219 1281 4162 
Q 984 4106 628 3988 
L 628 4550 
Q 988 4650 1302 4700 
Q 1616 4750 1894 4750 
Q 2613 4750 3031 4423 
Q 3450 4097 3450 3541 
Q 3450 3153 3228 2886 
Q 3006 2619 2597 2516 
z
" transform="scale(0.015625)"/>
     </defs>
     <use xlink:href="#DejaVuSans-47"/>
     <use xlink:href="#DejaVuSans-20" x="77.490234"/>
     <use xlink:href="#DejaVuSans-5b" x="109.277344"/>
     <use xlink:href="#DejaVuSans-33" x="148.291016"/>
     <use xlink:href="#DejaVuSans-36" x="211.914062"/>
     <use xlink:href="#DejaVuSans-5d" x="275.537109"/>
    </g>
   </g>
   <g id="text_7">
    <!-- H [4] -->
    <g transform="translate(38.503169 72.643177) scale(0.1 -0.1)">
     <defs>
      <path id="DejaVuSans-48" d="M 628 4666 
L 1259 4666 
L 1259 2753 
L 3553 2753 
L 3553 4666 
L 4184 4666 
L 4184 0 
L 3553 0 
L 3553 2222 
L 1259 2222 
L 1259 0 
L 628 0 
L 628 4666 
z
" transform="scale(0.015625)"/>
      <path id="DejaVuSans-34" d="M 2419 4116 
L 825 1625 
L 2419 1625 
L 2419 4116 
z
M 2253 4666 
L 3047 4666 
L 3047 1625 
L 3713 1625 
L 3713 1100 
L 3047 1100 
L 3047 0 
L 2419 0 
L 2419 1100 
L 313 1100 
L 313 1709 
L 2253 4666 
z
" transform="scale(0.015625)"/>
     </defs>
     <use xlink:href="#DejaVuSans-48"/>
     <use xlink:href="#DejaVuSans-20" x="75.195312"/>
     <use xlink:href="#DejaVuSans-5b" x="106.982422"/>
     <use xlink:href="#DejaVuSans-34" x="145.996094"/>
     <use xlink:href="#DejaVuSans-5d" x="209.619141"/>
    </g>
   </g>
   <g id="text_8">
    <!-- I [4] -->
    <g transform="translate(37.640091 80.690207) scale(0.1 -0.1)">
     <defs>
      <path id="DejaVuSans-49" d="M 628 4666 
L 1259 4666 
L 1259 0 
L 628 0 
L 628 4666 
z
" transform="scale(0.015625)"/>
     </defs>
     <use xlink:href="#DejaVuSans-49"/>
     <use xlink:href="#DejaVuSans-20" x="29.492188"/>
     <use xlink:href="#DejaVuSans-5b" x="61.279297"/>
     <use xlink:href="#DejaVuSans-34" x="100.292969"/>
     <use xlink:href="#DejaVuSans-5d" x="163.916016"/>
    </g>
   </g>
   <g id="text_9">
    <!-- K [1] -->
    <g transform="translate(30.922577 85.902246) scale(0.1 -0.1)">
     <defs>
      <path id="DejaVuSans-4b" d="M 628 4666 
L 1259 4666 
L 1259 2694 
L 3353 4666 
L 4166 4666 
L 1850 2491 
L 4331 0 
L 3500 0 
L 1259 2247 
L 1259 0 
L 628 0 
L 628 4666 
z
" transform="scale(0.015625)"/>
     </defs>
     <use xlink:href="#DejaVuSans-4b"/>
     <use xlink:href="#DejaVuSans-20" x="65.576172"/>
     <use xlink:href="#DejaVuSans-5b" x="97.363281"/>
     <use xlink:href="#DejaVuSans-31" x="136.376953"/>
     <use xlink:href="#DejaVuSans-5d" x="200"/>
    </g>
   </g>
   <g id="text_10">
    <!-- L [62] -->
    <g transform="translate(7.2 159.18545) scale(0.1 -0.1)">
     <defs>
      <path id="DejaVuSans-4c" d="M 628 4666 
L 1259 4666 
L 1259 531 
L 3531 531 
L 3531 0 
L 628 0 
L 628 4666 
z
" transform="scale(0.015625)"/>
      <path id="DejaVuSans-32" d="M 1228 531 
L 3431 531 
L 3431 0 
L 469 0 
L 469 531 
Q 828 903 1448 1529 
Q 2069 2156 2228 2338 
Q 2531 2678 2651 2914 
Q 2772 3150 2772 3378 
Q 2772 3750 2511 3984 
Q 2250 4219 1831 4219 
Q 1534 4219 1204 4116 
Q 875 4013 500 3803 
L 500 4441 
Q 881 4594 1212 4672 
Q 1544 4750 1819 4750 
Q 2544 4750 2975 4387 
Q 3406 4025 3406 3419 
Q 3406 3131 3298 2873 
Q 3191 2616 2906 2266 
Q 2828 2175 2409 1742 
Q 1991 1309 1228 531 
z
" transform="scale(0.015625)"/>
     </defs>
     <use xlink:href="#DejaVuSans-4c"/>
     <use xlink:href="#DejaVuSans-20" x="55.712891"/>
     <use xlink:href="#DejaVuSans-5b" x="87.5"/>
     <use xlink:href="#DejaVuSans-36" x="126.513672"/>
     <use xlink:href="#DejaVuSans-32" x="190.136719"/>
     <use xlink:href="#DejaVuSans-5d" x="253.759766"/>
    </g>
   </g>
   <g id="text_11">
    <!-- M [3] -->
    <g transform="translate(33.934422 233.459158) scale(0.1 -0.1)">
     <defs>
      <path id="DejaVuSans-4d" d="M 628 4666 
L 1569 4666 
L 2759 1491 
L 3956 4666 
L 4897 4666 
L 4897 0 
L 4281 0 
L 4281 4097 
L 3078 897 
L 2444 897 
L 1241 4097 
L 1241 0 
L 628 0 
L 628 4666 
z
" transform="scale(0.015625)"/>
     </defs>
     <use xlink:href="#DejaVuSans-4d"/>
     <use xlink:href="#DejaVuSans-20" x="86.279297"/>
     <use xlink:href="#DejaVuSans-5b" x="118.066406"/>
     <use xlink:href="#DejaVuSans-33" x="157.080078"/>
     <use xlink:href="#DejaVuSans-5d" x="220.703125"/>
    </g>
   </g>
   <g id="text_12">
    <!-- N [3] -->
    <g transform="translate(39.259984 239.423906) scale(0.1 -0.1)">
     <defs>
      <path id="DejaVuSans-4e" d="M 628 4666 
L 1478 4666 
L 3547 763 
L 3547 4666 
L 4159 4666 
L 4159 0 
L 3309 0 
L 1241 3903 
L 1241 0 
L 628 0 
L 628 4666 
z
" transform="scale(0.015625)"/>
     </defs>
     <use xlink:href="#DejaVuSans-4e"/>
     <use xlink:href="#DejaVuSans-20" x="74.804688"/>
     <use xlink:href="#DejaVuSans-5b" x="106.591797"/>
     <use xlink:href="#DejaVuSans-33" x="145.605469"/>
     <use xlink:href="#DejaVuSans-5d" x="209.228516"/>
    </g>
   </g>
   <g id="text_13">
    <!-- P [26] -->
    <g transform="translate(58.583071 264.833184) scale(0.1 -0.1)">
     <defs>
      <path id="DejaVuSans-50" d="M 1259 4147 
L 1259 2394 
L 2053 2394 
Q 2494 2394 2734 2622 
Q 2975 2850 2975 3272 
Q 2975 3691 2734 3919 
Q 2494 4147 2053 4147 
L 1259 4147 
z
M 628 4666 
L 2053 4666 
Q 2838 4666 3239 4311 
Q 3641 3956 3641 3272 
Q 3641 2581 3239 2228 
Q 2838 1875 2053 1875 
L 1259 1875 
L 1259 0 
L 628 0 
L 628 4666 
z
" transform="scale(0.015625)"/>
     </defs>
     <use xlink:href="#DejaVuSans-50"/>
     <use xlink:href="#DejaVuSans-20" x="60.302734"/>
     <use xlink:href="#DejaVuSans-5b" x="92.089844"/>
     <use xlink:href="#DejaVuSans-32" x="131.103516"/>
     <use xlink:href="#DejaVuSans-36" x="194.726562"/>
     <use xlink:href="#DejaVuSans-5d" x="258.349609"/>
    </g>
   </g>
   <g id="text_14">
    <!-- Q [4] -->
    <g transform="translate(93.966294 283.975129) scale(0.1 -0.1)">
     <defs>
      <path id="DejaVuSans-51" d="M 2522 4238 
Q 1834 4238 1429 3725 
Q 1025 3213 1025 2328 
Q 1025 1447 1429 934 
Q 1834 422 2522 422 
Q 3209 422 3611 934 
Q 4013 1447 4013 2328 
Q 4013 3213 3611 3725 
Q 3209 4238 2522 4238 
z
M 3406 84 
L 4238 -825 
L 3475 -825 
L 2784 -78 
Q 2681 -84 2626 -87 
Q 2572 -91 2522 -91 
Q 1538 -91 948 567 
Q 359 1225 359 2328 
Q 359 3434 948 4092 
Q 1538 4750 2522 4750 
Q 3503 4750 4090 4092 
Q 4678 3434 4678 2328 
Q 4678 1516 4351 937 
Q 4025 359 3406 84 
z
" transform="scale(0.015625)"/>
     </defs>
     <use xlink:href="#DejaVuSans-51"/>
     <use xlink:href="#DejaVuSans-20" x="78.710938"/>
     <use xlink:href="#DejaVuSans-5b" x="110.498047"/>
     <use xlink:href="#DejaVuSans-34" x="149.511719"/>
     <use xlink:href="#DejaVuSans-5d" x="213.134766"/>
    </g>
   </g>
   <g id="text_15">
    <!-- R [37] -->
    <g transform="translate(136.506493 296.206111) scale(0.1 -0.1)">
     <defs>
      <path id="DejaVuSans-52" d="M 2841 2188 
Q 3044 2119 3236 1894 
Q 3428 1669 3622 1275 
L 4263 0 
L 3584 0 
L 2988 1197 
Q 2756 1666 2539 1819 
Q 2322 1972 1947 1972 
L 1259 1972 
L 1259 0 
L 628 0 
L 628 4666 
L 2053 4666 
Q 2853 4666 3247 4331 
Q 3641 3997 3641 3322 
Q 3641 2881 3436 2590 
Q 3231 2300 2841 2188 
z
M 1259 4147 
L 1259 2491 
L 2053 2491 
Q 2509 2491 2742 2702 
Q 2975 2913 2975 3322 
Q 2975 3731 2742 3939 
Q 2509 4147 2053 4147 
L 1259 4147 
z
" transform="scale(0.015625)"/>
      <path id="DejaVuSans-37" d="M 525 4666 
L 3525 4666 
L 3525 4397 
L 1831 0 
L 1172 0 
L 2766 4134 
L 525 4134 
L 525 4666 
z
" transform="scale(0.015625)"/>
     </defs>
     <use xlink:href="#DejaVuSans-52"/>
     <use xlink:href="#DejaVuSans-20" x="69.482422"/>
     <use xlink:href="#DejaVuSans-5b" x="101.269531"/>
     <use xlink:href="#DejaVuSans-33" x="140.283203"/>
     <use xlink:href="#DejaVuSans-37" x="203.90625"/>
     <use xlink:href="#DejaVuSans-5d" x="267.529297"/>
    </g>
   </g>
   <g id="text_16">
    <!-- S [29] -->
    <g transform="translate(244.457266 279.660392) scale(0.1 -0.1)">
     <defs>
      <path id="DejaVuSans-53" d="M 3425 4513 
L 3425 3897 
Q 3066 4069 2747 4153 
Q 2428 4238 2131 4238 
Q 1616 4238 1336 4038 
Q 1056 3838 1056 3469 
Q 1056 3159 1242 3001 
Q 1428 2844 1947 2747 
L 2328 2669 
Q 3034 2534 3370 2195 
Q 3706 1856 3706 1288 
Q 3706 609 3251 259 
Q 2797 -91 1919 -91 
Q 1588 -91 1214 -16 
Q 841 59 441 206 
L 441 856 
Q 825 641 1194 531 
Q 1563 422 1919 422 
Q 2459 422 2753 634 
Q 3047 847 3047 1241 
Q 3047 1584 2836 1778 
Q 2625 1972 2144 2069 
L 1759 2144 
Q 1053 2284 737 2584 
Q 422 2884 422 3419 
Q 422 4038 858 4394 
Q 1294 4750 2059 4750 
Q 2388 4750 2728 4690 
Q 3069 4631 3425 4513 
z
" transform="scale(0.015625)"/>
     </defs>
     <use xlink:href="#DejaVuSans-53"/>
     <use xlink:href="#DejaVuSans-20" x="63.476562"/>
     <use xlink:href="#DejaVuSans-5b" x="95.263672"/>
     <use xlink:href="#DejaVuSans-32" x="134.277344"/>
     <use xlink:href="#DejaVuSans-39" x="197.900391"/>
     <use xlink:href="#DejaVuSans-5d" x="261.523438"/>
    </g>
   </g>
   <g id="text_17">
    <!-- T [10] -->
    <g transform="translate(281.603546 250.667131) scale(0.1 -0.1)">
     <defs>
      <path id="DejaVuSans-54" d="M -19 4666 
L 3928 4666 
L 3928 4134 
L 2272 4134 
L 2272 0 
L 1638 0 
L 1638 4134 
L -19 4134 
L -19 4666 
z
" transform="scale(0.015625)"/>
     </defs>
     <use xlink:href="#DejaVuSans-54"/>
     <use xlink:href="#DejaVuSans-20" x="61.083984"/>
     <use xlink:href="#DejaVuSans-5b" x="92.871094"/>
     <use xlink:href="#DejaVuSans-31" x="131.884766"/>
     <use xlink:href="#DejaVuSans-30" x="195.507812"/>
     <use xlink:href="#DejaVuSans-5d" x="259.130859"/>
    </g>
   </g>
   <g id="text_18">
    <!-- V [21] -->
    <g transform="translate(302.99939 219.844822) scale(0.1 -0.1)">
     <defs>
      <path id="DejaVuSans-56" d="M 1831 0 
L 50 4666 
L 709 4666 
L 2188 738 
L 3669 4666 
L 4325 4666 
L 2547 0 
L 1831 0 
z
" transform="scale(0.015625)"/>
     </defs>
     <use xlink:href="#DejaVuSans-56"/>
     <use xlink:href="#DejaVuSans-20" x="68.408203"/>
     <use xlink:href="#DejaVuSans-5b" x="100.195312"/>
     <use xlink:href="#DejaVuSans-32" x="139.208984"/>
     <use xlink:href="#DejaVuSans-31" x="202.832031"/>
     <use xlink:href="#DejaVuSans-5d" x="266.455078"/>
    </g>
   </g>
   <g id="text_19">
    <!-- W [9] -->
    <g transform="translate(315.257249 185.658887) scale(0.1 -0.1)">
     <defs>
      <path id="DejaVuSans-57" d="M 213 4666 
L 850 4666 
L 1831 722 
L 2809 4666 
L 3519 4666 
L 4500 722 
L 5478 4666 
L 6119 4666 
L 4947 0 
L 4153 0 
L 3169 4050 
L 2175 0 
L 1381 0 
L 213 4666 
z
" transform="scale(0.015625)"/>
     </defs>
     <use xlink:href="#DejaVuSans-57"/>
     <use xlink:href="#DejaVuSans-20" x="98.876953"/>
     <use xlink:href="#DejaVuSans-5b" x="130.664062"/>
     <use xlink:href="#DejaVuSans-39" x="169.677734"/>
     <use xlink:href="#DejaVuSans-5d" x="233.300781"/>
    </g>
   </g>
   <g id="text_20">
    <!-- Y [8] -->
    <g transform="translate(318.175609 165.247883) scale(0.1 -0.1)">
     <defs>
      <path id="DejaVuSans-59" d="M -13 4666 
L 666 4666 
L 1959 2747 
L 3244 4666 
L 3922 4666 
L 2272 2222 
L 2272 0 
L 1638 0 
L 1638 2222 
L -13 4666 
z
" transform="scale(0.015625)"/>
     </defs>
     <use xlink:href="#DejaVuSans-59"/>
     <use xlink:href="#DejaVuSans-20" x="61.083984"/>
     <use xlink:href="#DejaVuSans-5b" x="92.871094"/>
     <use xlink:href="#DejaVuSans-38" x="131.884766"/>
     <use xlink:href="#DejaVuSans-5d" x="195.507812"/>
    </g>
   </g>
   <g id="text_21">
    <!-- A0A287AYU9 [365] -->
    <g transform="translate(120.437657 152.78466) scale(0.12 -0.12)">
     <defs>
      <path id="DejaVuSans-55" d="M 556 4666 
L 1191 4666 
L 1191 1831 
Q 1191 1081 1462 751 
Q 1734 422 2344 422 
Q 2950 422 3222 751 
Q 3494 1081 3494 1831 
L 3494 4666 
L 4128 4666 
L 4128 1753 
Q 4128 841 3676 375 
Q 3225 -91 2344 -91 
Q 1459 -91 1007 375 
Q 556 841 556 1753 
L 556 4666 
z
" transform="scale(0.015625)"/>
     </defs>
     <use xlink:href="#DejaVuSans-41"/>
     <use xlink:href="#DejaVuSans-30" x="68.408203"/>
     <use xlink:href="#DejaVuSans-41" x="132.03125"/>
     <use xlink:href="#DejaVuSans-32" x="200.439453"/>
     <use xlink:href="#DejaVuSans-38" x="264.0625"/>
     <use xlink:href="#DejaVuSans-37" x="327.685547"/>
     <use xlink:href="#DejaVuSans-41" x="391.308594"/>
     <use xlink:href="#DejaVuSans-59" x="451.966797"/>
     <use xlink:href="#DejaVuSans-55" x="513.050781"/>
     <use xlink:href="#DejaVuSans-39" x="586.244141"/>
     <use xlink:href="#DejaVuSans-20" x="649.867188"/>
     <use xlink:href="#DejaVuSans-5b" x="681.654297"/>
     <use xlink:href="#DejaVuSans-33" x="720.667969"/>
     <use xlink:href="#DejaVuSans-36" x="784.291016"/>
     <use xlink:href="#DejaVuSans-35" x="847.914062"/>
     <use xlink:href="#DejaVuSans-5d" x="911.537109"/>
    </g>
   </g>
  </g>
 </g>
</svg>
