<?xml version="1.0" encoding="utf-8" standalone="no"?>
<!DOCTYPE svg PUBLIC "-//W3C//DTD SVG 1.1//EN"
  "http://www.w3.org/Graphics/SVG/1.1/DTD/svg11.dtd">
<svg xmlns:xlink="http://www.w3.org/1999/xlink" width="351.398281pt" height="303.246287pt" viewBox="0 0 351.398281 303.246287" xmlns="http://www.w3.org/2000/svg" version="1.1">
 <metadata>
  <rdf:RDF xmlns:dc="http://purl.org/dc/elements/1.1/" xmlns:cc="http://creativecommons.org/ns#" xmlns:rdf="http://www.w3.org/1999/02/22-rdf-syntax-ns#">
   <cc:Work>
    <dc:type rdf:resource="http://purl.org/dc/dcmitype/StillImage"/>
    <dc:date>2024-09-27T16:07:31.963372</dc:date>
    <dc:format>image/svg+xml</dc:format>
    <dc:creator>
     <cc:Agent>
      <dc:title>Matplotlib v3.8.3, https://matplotlib.org/</dc:title>
     </cc:Agent>
    </dc:creator>
   </cc:Work>
  </rdf:RDF>
 </metadata>
 <defs>
  <style type="text/css">*{stroke-linejoin: round; stroke-linecap: butt}</style>
 </defs>
 <g id="figure_1">
  <g id="patch_1">
   <path d="M -0 303.246287 
L 351.398281 303.246287 
L 351.398281 0 
L -0 0 
z
" style="fill: #ffffff"/>
  </g>
  <g id="axes_1">
   <g id="patch_2">
    <path d="M 301.467353 151.529487 
C 301.467353 129.760039 295.902158 108.347731 285.302165 89.333288 
C 274.702173 70.318846 259.41518 54.326154 240.898133 42.879415 
L 173.733593 151.529487 
z
" style="fill: #1f77b4"/>
   </g>
   <g id="patch_3">
    <path d="M 240.675083 42.66445 
C 237.703959 40.827782 234.658748 39.113758 231.547128 37.526701 
C 228.435509 35.939643 225.260099 34.480889 222.028908 33.154115 
L 173.510543 151.314522 
z
" style="fill: #ff7f0e"/>
   </g>
   <g id="patch_4">
    <path d="M 221.972989 33.129529 
C 220.680665 32.598882 219.379722 32.089472 218.070685 31.601505 
C 216.761649 31.113537 215.444695 30.647078 214.120355 30.202316 
L 173.454624 151.289936 
z
" style="fill: #aec7e8"/>
   </g>
   <g id="patch_5">
    <path d="M 214.070447 30.186461 
C 211.42159 29.296876 208.744256 28.494448 206.042766 27.780473 
C 203.341277 27.066498 200.617087 26.44136 197.874594 25.906068 
L 173.404716 151.274081 
z
" style="fill: #ffbb78"/>
   </g>
   <g id="patch_6">
    <path d="M 197.810415 25.893268 
C 195.410784 25.424898 192.9982 25.02552 190.575646 24.695628 
C 188.153091 24.365736 185.721564 24.105466 183.28407 23.91514 
L 173.340537 151.261281 
z
" style="fill: #98df8a"/>
   </g>
   <g id="patch_7">
    <path d="M 183.106018 23.920984 
C 171.248426 22.995111 159.319417 23.729904 147.665096 26.104045 
C 136.010775 28.478185 124.744957 32.468488 114.194504 37.959178 
L 173.162485 151.267125 
z
" style="fill: #2ca02c"/>
   </g>
   <g id="patch_8">
    <path d="M 114.017187 38.030293 
C 110.91869 39.64282 107.88764 41.381765 104.931682 43.242742 
C 101.975724 45.10372 99.097344 47.085164 96.303801 49.182077 
L 172.985168 151.33824 
z
" style="fill: #d62728"/>
   </g>
   <g id="patch_9">
    <path d="M 96.247299 49.223058 
C 94.571324 50.481094 92.926561 51.780182 91.314505 53.119145 
C 89.70245 54.458108 88.123588 55.836539 86.579356 57.253187 
L 172.928665 151.379221 
z
" style="fill: #9467bd"/>
   </g>
   <g id="patch_10">
    <path d="M 86.553241 57.276367 
C 86.038519 57.748562 85.52768 58.224971 85.020774 58.705545 
C 84.513868 59.18612 84.010913 59.670845 83.511959 60.159671 
L 172.90255 151.402401 
z
" style="fill: #ff9896"/>
   </g>
   <g id="patch_11">
    <path d="M 83.361942 60.416257 
C 66.542622 76.894162 54.602537 97.706204 48.866708 120.542823 
C 43.130878 143.379441 43.819627 167.363443 50.856521 189.833267 
L 172.752533 151.658987 
z
" style="fill: #c5b0d5"/>
   </g>
   <g id="patch_12">
    <path d="M 50.871761 190.142668 
C 51.393659 191.809165 51.949678 193.464785 52.539466 195.108482 
C 53.129254 196.752179 53.752688 198.383608 54.409374 200.001741 
L 172.767773 151.968388 
z
" style="fill: #c49c94"/>
   </g>
   <g id="patch_13">
    <path d="M 54.431351 200.054037 
C 55.482107 202.643191 56.617538 205.197169 57.835812 207.711849 
C 59.054087 210.226528 60.354548 212.700555 61.735097 215.129936 
L 172.789749 152.020684 
z
" style="fill: #8c564b"/>
   </g>
   <g id="patch_14">
    <path d="M 61.826336 215.262476 
C 66.836269 224.078558 72.878224 232.26679 79.824487 239.654087 
C 86.77075 247.041385 94.572029 253.575327 103.06342 259.117801 
L 172.880989 152.153224 
z
" style="fill: #e377c2"/>
   </g>
   <g id="patch_15">
    <path d="M 103.213233 259.229297 
C 107.308829 261.902561 111.554583 264.338394 115.929517 266.524761 
C 120.304451 268.711128 124.801348 270.644422 129.39799 272.31509 
L 173.030802 152.264721 
z
" style="fill: #7f7f7f"/>
   </g>
   <g id="patch_16">
    <path d="M 129.555458 272.365115 
C 137.439606 275.230641 145.586899 277.312541 153.879243 278.580635 
C 162.171587 279.84873 170.568722 280.296863 178.948931 279.918539 
L 173.18827 152.314745 
z
" style="fill: #f7b6d2"/>
   </g>
   <g id="patch_17">
    <path d="M 179.182184 279.90225 
C 189.662189 279.429131 200.044108 277.666737 210.093154 274.654923 
C 220.1422 271.643109 229.782045 267.404752 238.794683 262.035703 
L 173.421522 152.298456 
z
" style="fill: #c7c7c7"/>
   </g>
   <g id="patch_18">
    <path d="M 238.975182 261.940824 
C 244.077983 258.900961 248.962545 255.508874 253.593297 251.789266 
C 258.224049 248.069657 262.589723 244.031578 266.658529 239.704434 
L 173.602021 152.203578 
z
" style="fill: #dbdb8d"/>
   </g>
   <g id="patch_19">
    <path d="M 266.783583 239.560004 
C 273.249781 232.683251 278.933826 225.110873 283.731516 216.98169 
C 288.529207 208.852507 292.411044 200.216501 295.305865 191.231989 
L 173.727076 152.059148 
z
" style="fill: #bcbd22"/>
   </g>
   <g id="patch_20">
    <path d="M 295.365762 191.082643 
C 296.436974 187.757974 297.371363 184.390763 298.166571 180.989503 
C 298.961779 177.588243 299.617136 174.155795 300.130992 170.700816 
L 173.786972 151.909803 
z
" style="fill: #17becf"/>
   </g>
   <g id="patch_21">
    <path d="M 300.143518 170.618905 
C 300.605975 167.509507 300.953489 164.384096 301.18535 161.249058 
C 301.41721 158.11402 301.533258 154.97149 301.533258 151.827889 
L 173.799498 151.827892 
z
" style="fill: #9edae5"/>
   </g>
   <g id="patch_22">
    <path d="M 247.780084 151.788637 
C 247.780084 139.089793 244.53372 126.59928 238.350391 115.507522 
C 232.167062 104.415764 223.24965 95.086693 212.448039 88.409429 
L 173.268724 151.788637 
z
" style="fill: #ffffff"/>
   </g>
   <g id="patch_23">
    <path d="M 212.448039 88.409429 
C 210.714883 87.338039 208.93851 86.338192 207.123399 85.412409 
C 205.308287 84.486625 203.455965 83.635685 201.571104 82.861734 
L 173.268724 151.788637 
z
" style="fill: #ffffff"/>
   </g>
   <g id="patch_24">
    <path d="M 201.571104 82.861734 
C 200.817248 82.55219 200.058364 82.255034 199.29476 81.970386 
C 198.531155 81.685738 197.762932 81.413637 196.990401 81.154192 
L 173.268724 151.788637 
z
" style="fill: #ffffff"/>
   </g>
   <g id="patch_25">
    <path d="M 196.990401 81.154192 
C 195.445234 80.635268 193.883456 80.167185 192.307587 79.7507 
C 190.731718 79.334214 189.142607 78.969551 187.542819 78.657297 
L 173.268724 151.788637 
z
" style="fill: #ffffff"/>
   </g>
   <g id="patch_26">
    <path d="M 187.542819 78.657297 
C 186.143035 78.384081 184.735694 78.15111 183.322537 77.958673 
C 181.909381 77.766236 180.49099 77.614412 179.069119 77.503389 
L 173.268724 151.788637 
z
" style="fill: #ffffff"/>
   </g>
   <g id="patch_27">
    <path d="M 179.069119 77.503389 
C 172.15219 76.963296 165.193601 77.391925 158.395247 78.776841 
C 151.596893 80.161756 145.025166 82.489433 138.870735 85.692336 
L 173.268724 151.788637 
z
" style="fill: #ffffff"/>
   </g>
   <g id="patch_28">
    <path d="M 138.870735 85.692336 
C 137.063279 86.632976 135.295166 87.647361 133.570857 88.732931 
C 131.846548 89.818501 130.167493 90.974343 128.537927 92.197543 
L 173.268724 151.788637 
z
" style="fill: #ffffff"/>
   </g>
   <g id="patch_29">
    <path d="M 128.537927 92.197543 
C 127.560275 92.931397 126.60083 93.689199 125.660464 94.47026 
C 124.720098 95.251322 123.799096 96.055407 122.898294 96.881785 
L 173.268724 151.788637 
z
" style="fill: #ffffff"/>
   </g>
   <g id="patch_30">
    <path d="M 122.898294 96.881785 
C 122.59804 97.157231 122.30005 97.435137 122.004355 97.715472 
C 121.70866 97.995807 121.415269 98.278564 121.124213 98.563712 
L 173.268724 151.788637 
z
" style="fill: #ffffff"/>
   </g>
   <g id="patch_31">
    <path d="M 121.124213 98.563712 
C 111.312942 108.175823 104.347893 120.316181 101.001992 133.637542 
C 97.656092 146.958902 98.057862 160.94957 102.162717 174.056968 
L 173.268724 151.788637 
z
" style="fill: #ffffff"/>
   </g>
   <g id="patch_32">
    <path d="M 102.162717 174.056968 
C 102.467158 175.029091 102.791502 175.994869 103.135545 176.953692 
C 103.479588 177.912515 103.843258 178.864183 104.226325 179.808093 
L 173.268724 151.788637 
z
" style="fill: #ffffff"/>
   </g>
   <g id="patch_33">
    <path d="M 104.226325 179.808093 
C 104.839266 181.318433 105.501601 182.808254 106.212261 184.27515 
C 106.922921 185.742047 107.681523 187.185229 108.486843 188.602368 
L 173.268724 151.788637 
z
" style="fill: #ffffff"/>
   </g>
   <g id="patch_34">
    <path d="M 108.486843 188.602368 
C 111.409304 193.745082 114.933778 198.521551 118.985765 202.830807 
C 123.037751 207.140064 127.588497 210.951531 132.541809 214.18464 
L 173.268724 151.788637 
z
" style="fill: #ffffff"/>
   </g>
   <g id="patch_35">
    <path d="M 132.541809 214.18464 
C 134.930907 215.744044 137.407596 217.164947 139.959641 218.440327 
C 142.511686 219.715708 145.134876 220.843463 147.81625 221.81802 
L 173.268724 151.788637 
z
" style="fill: #ffffff"/>
   </g>
   <g id="patch_36">
    <path d="M 147.81625 221.81802 
C 152.415337 223.489577 157.167925 224.704018 162.005125 225.44374 
C 166.842326 226.183462 171.740654 226.444873 176.62911 226.224184 
L 173.268724 151.788637 
z
" style="fill: #ffffff"/>
   </g>
   <g id="patch_37">
    <path d="M 176.62911 226.224184 
C 182.742446 225.948198 188.798566 224.920134 194.660509 223.163243 
C 200.522453 221.406351 206.145695 218.933977 211.403068 215.802031 
L 173.268724 151.788637 
z
" style="fill: #ffffff"/>
   </g>
   <g id="patch_38">
    <path d="M 211.403068 215.802031 
C 214.379702 214.028778 217.22903 212.05006 219.930302 209.880289 
C 222.631574 207.710517 225.178217 205.354971 227.551687 202.830804 
L 173.268724 151.788637 
z
" style="fill: #ffffff"/>
   </g>
   <g id="patch_39">
    <path d="M 227.551687 202.830804 
C 231.323635 198.819364 234.639328 194.402144 237.437981 189.660121 
C 240.236634 184.918097 242.501039 179.880426 244.189684 174.639461 
L 173.268724 151.788637 
z
" style="fill: #ffffff"/>
   </g>
   <g id="patch_40">
    <path d="M 244.189684 174.639461 
C 244.814559 172.70007 245.359619 170.735864 245.82349 168.751796 
C 246.287361 166.767727 246.669653 164.765466 246.969402 162.750062 
L 173.268724 151.788637 
z
" style="fill: #ffffff"/>
   </g>
   <g id="patch_41">
    <path d="M 246.969402 162.750062 
C 247.239169 160.936246 247.441885 159.11309 247.577137 157.284317 
C 247.712389 155.455545 247.780084 153.622403 247.780084 151.788636 
L 173.268724 151.788637 
z
" style="fill: #ffffff"/>
   </g>
   <g id="matplotlib.axis_1"/>
   <g id="matplotlib.axis_2"/>
   <g id="text_1">
    <!-- A [62] -->
    <g transform="translate(296.459023 85.873043) scale(0.1 -0.1)">
     <defs>
      <path id="DejaVuSans-41" d="M 2188 4044 
L 1331 1722 
L 3047 1722 
L 2188 4044 
z
M 1831 4666 
L 2547 4666 
L 4325 0 
L 3669 0 
L 3244 1197 
L 1141 1197 
L 716 0 
L 50 0 
L 1831 4666 
z
" transform="scale(0.015625)"/>
      <path id="DejaVuSans-20" transform="scale(0.015625)"/>
      <path id="DejaVuSans-5b" d="M 550 4863 
L 1875 4863 
L 1875 4416 
L 1125 4416 
L 1125 -397 
L 1875 -397 
L 1875 -844 
L 550 -844 
L 550 4863 
z
" transform="scale(0.015625)"/>
      <path id="DejaVuSans-36" d="M 2113 2584 
Q 1688 2584 1439 2293 
Q 1191 2003 1191 1497 
Q 1191 994 1439 701 
Q 1688 409 2113 409 
Q 2538 409 2786 701 
Q 3034 994 3034 1497 
Q 3034 2003 2786 2293 
Q 2538 2584 2113 2584 
z
M 3366 4563 
L 3366 3988 
Q 3128 4100 2886 4159 
Q 2644 4219 2406 4219 
Q 1781 4219 1451 3797 
Q 1122 3375 1075 2522 
Q 1259 2794 1537 2939 
Q 1816 3084 2150 3084 
Q 2853 3084 3261 2657 
Q 3669 2231 3669 1497 
Q 3669 778 3244 343 
Q 2819 -91 2113 -91 
Q 1303 -91 875 529 
Q 447 1150 447 2328 
Q 447 3434 972 4092 
Q 1497 4750 2381 4750 
Q 2619 4750 2861 4703 
Q 3103 4656 3366 4563 
z
" transform="scale(0.015625)"/>
      <path id="DejaVuSans-32" d="M 1228 531 
L 3431 531 
L 3431 0 
L 469 0 
L 469 531 
Q 828 903 1448 1529 
Q 2069 2156 2228 2338 
Q 2531 2678 2651 2914 
Q 2772 3150 2772 3378 
Q 2772 3750 2511 3984 
Q 2250 4219 1831 4219 
Q 1534 4219 1204 4116 
Q 875 4013 500 3803 
L 500 4441 
Q 881 4594 1212 4672 
Q 1544 4750 1819 4750 
Q 2544 4750 2975 4387 
Q 3406 4025 3406 3419 
Q 3406 3131 3298 2873 
Q 3191 2616 2906 2266 
Q 2828 2175 2409 1742 
Q 1991 1309 1228 531 
z
" transform="scale(0.015625)"/>
      <path id="DejaVuSans-5d" d="M 1947 4863 
L 1947 -844 
L 622 -844 
L 622 -397 
L 1369 -397 
L 1369 4416 
L 622 4416 
L 622 4863 
L 1947 4863 
z
" transform="scale(0.015625)"/>
     </defs>
     <use xlink:href="#DejaVuSans-41"/>
     <use xlink:href="#DejaVuSans-20" x="68.408203"/>
     <use xlink:href="#DejaVuSans-5b" x="100.195312"/>
     <use xlink:href="#DejaVuSans-36" x="139.208984"/>
     <use xlink:href="#DejaVuSans-32" x="202.832031"/>
     <use xlink:href="#DejaVuSans-5d" x="266.455078"/>
    </g>
   </g>
   <g id="text_2">
    <!-- C [10] -->
    <g transform="translate(237.350787 28.907293) scale(0.1 -0.1)">
     <defs>
      <path id="DejaVuSans-43" d="M 4122 4306 
L 4122 3641 
Q 3803 3938 3442 4084 
Q 3081 4231 2675 4231 
Q 1875 4231 1450 3742 
Q 1025 3253 1025 2328 
Q 1025 1406 1450 917 
Q 1875 428 2675 428 
Q 3081 428 3442 575 
Q 3803 722 4122 1019 
L 4122 359 
Q 3791 134 3420 21 
Q 3050 -91 2638 -91 
Q 1578 -91 968 557 
Q 359 1206 359 2328 
Q 359 3453 968 4101 
Q 1578 4750 2638 4750 
Q 3056 4750 3426 4639 
Q 3797 4528 4122 4306 
z
" transform="scale(0.015625)"/>
      <path id="DejaVuSans-31" d="M 794 531 
L 1825 531 
L 1825 4091 
L 703 3866 
L 703 4441 
L 1819 4666 
L 2450 4666 
L 2450 531 
L 3481 531 
L 3481 0 
L 794 0 
L 794 531 
z
" transform="scale(0.015625)"/>
      <path id="DejaVuSans-30" d="M 2034 4250 
Q 1547 4250 1301 3770 
Q 1056 3291 1056 2328 
Q 1056 1369 1301 889 
Q 1547 409 2034 409 
Q 2525 409 2770 889 
Q 3016 1369 3016 2328 
Q 3016 3291 2770 3770 
Q 2525 4250 2034 4250 
z
M 2034 4750 
Q 2819 4750 3233 4129 
Q 3647 3509 3647 2328 
Q 3647 1150 3233 529 
Q 2819 -91 2034 -91 
Q 1250 -91 836 529 
Q 422 1150 422 2328 
Q 422 3509 836 4129 
Q 1250 4750 2034 4750 
z
" transform="scale(0.015625)"/>
     </defs>
     <use xlink:href="#DejaVuSans-43"/>
     <use xlink:href="#DejaVuSans-20" x="69.824219"/>
     <use xlink:href="#DejaVuSans-5b" x="101.611328"/>
     <use xlink:href="#DejaVuSans-31" x="140.625"/>
     <use xlink:href="#DejaVuSans-30" x="204.248047"/>
     <use xlink:href="#DejaVuSans-5d" x="267.871094"/>
    </g>
   </g>
   <g id="text_3">
    <!-- D [4] -->
    <g transform="translate(222.532291 22.392036) scale(0.1 -0.1)">
     <defs>
      <path id="DejaVuSans-44" d="M 1259 4147 
L 1259 519 
L 2022 519 
Q 2988 519 3436 956 
Q 3884 1394 3884 2338 
Q 3884 3275 3436 3711 
Q 2988 4147 2022 4147 
L 1259 4147 
z
M 628 4666 
L 1925 4666 
Q 3281 4666 3915 4102 
Q 4550 3538 4550 2338 
Q 4550 1131 3912 565 
Q 3275 0 1925 0 
L 628 0 
L 628 4666 
z
" transform="scale(0.015625)"/>
      <path id="DejaVuSans-34" d="M 2419 4116 
L 825 1625 
L 2419 1625 
L 2419 4116 
z
M 2253 4666 
L 3047 4666 
L 3047 1625 
L 3713 1625 
L 3713 1100 
L 3047 1100 
L 3047 0 
L 2419 0 
L 2419 1100 
L 313 1100 
L 313 1709 
L 2253 4666 
z
" transform="scale(0.015625)"/>
     </defs>
     <use xlink:href="#DejaVuSans-44"/>
     <use xlink:href="#DejaVuSans-20" x="77.001953"/>
     <use xlink:href="#DejaVuSans-5b" x="108.789062"/>
     <use xlink:href="#DejaVuSans-34" x="147.802734"/>
     <use xlink:href="#DejaVuSans-5d" x="211.425781"/>
    </g>
   </g>
   <g id="text_4">
    <!-- E [8] -->
    <g transform="translate(209.306571 18.190487) scale(0.1 -0.1)">
     <defs>
      <path id="DejaVuSans-45" d="M 628 4666 
L 3578 4666 
L 3578 4134 
L 1259 4134 
L 1259 2753 
L 3481 2753 
L 3481 2222 
L 1259 2222 
L 1259 531 
L 3634 531 
L 3634 0 
L 628 0 
L 628 4666 
z
" transform="scale(0.015625)"/>
      <path id="DejaVuSans-38" d="M 2034 2216 
Q 1584 2216 1326 1975 
Q 1069 1734 1069 1313 
Q 1069 891 1326 650 
Q 1584 409 2034 409 
Q 2484 409 2743 651 
Q 3003 894 3003 1313 
Q 3003 1734 2745 1975 
Q 2488 2216 2034 2216 
z
M 1403 2484 
Q 997 2584 770 2862 
Q 544 3141 544 3541 
Q 544 4100 942 4425 
Q 1341 4750 2034 4750 
Q 2731 4750 3128 4425 
Q 3525 4100 3525 3541 
Q 3525 3141 3298 2862 
Q 3072 2584 2669 2484 
Q 3125 2378 3379 2068 
Q 3634 1759 3634 1313 
Q 3634 634 3220 271 
Q 2806 -91 2034 -91 
Q 1263 -91 848 271 
Q 434 634 434 1313 
Q 434 1759 690 2068 
Q 947 2378 1403 2484 
z
M 1172 3481 
Q 1172 3119 1398 2916 
Q 1625 2713 2034 2713 
Q 2441 2713 2670 2916 
Q 2900 3119 2900 3481 
Q 2900 3844 2670 4047 
Q 2441 4250 2034 4250 
Q 1625 4250 1398 4047 
Q 1172 3844 1172 3481 
z
" transform="scale(0.015625)"/>
     </defs>
     <use xlink:href="#DejaVuSans-45"/>
     <use xlink:href="#DejaVuSans-20" x="63.183594"/>
     <use xlink:href="#DejaVuSans-5b" x="94.970703"/>
     <use xlink:href="#DejaVuSans-38" x="133.984375"/>
     <use xlink:href="#DejaVuSans-5d" x="197.607422"/>
    </g>
   </g>
   <g id="text_5">
    <!-- F [7] -->
    <g transform="translate(192.299156 14.798437) scale(0.1 -0.1)">
     <defs>
      <path id="DejaVuSans-46" d="M 628 4666 
L 3309 4666 
L 3309 4134 
L 1259 4134 
L 1259 2759 
L 3109 2759 
L 3109 2228 
L 1259 2228 
L 1259 0 
L 628 0 
L 628 4666 
z
" transform="scale(0.015625)"/>
      <path id="DejaVuSans-37" d="M 525 4666 
L 3525 4666 
L 3525 4397 
L 1831 0 
L 1172 0 
L 2766 4134 
L 525 4134 
L 525 4666 
z
" transform="scale(0.015625)"/>
     </defs>
     <use xlink:href="#DejaVuSans-46"/>
     <use xlink:href="#DejaVuSans-20" x="57.519531"/>
     <use xlink:href="#DejaVuSans-5b" x="89.306641"/>
     <use xlink:href="#DejaVuSans-37" x="128.320312"/>
     <use xlink:href="#DejaVuSans-5d" x="191.943359"/>
    </g>
   </g>
   <g id="text_6">
    <!-- G [34] -->
    <g transform="translate(113.66067 16.347112) scale(0.1 -0.1)">
     <defs>
      <path id="DejaVuSans-47" d="M 3809 666 
L 3809 1919 
L 2778 1919 
L 2778 2438 
L 4434 2438 
L 4434 434 
Q 4069 175 3628 42 
Q 3188 -91 2688 -91 
Q 1594 -91 976 548 
Q 359 1188 359 2328 
Q 359 3472 976 4111 
Q 1594 4750 2688 4750 
Q 3144 4750 3555 4637 
Q 3966 4525 4313 4306 
L 4313 3634 
Q 3963 3931 3569 4081 
Q 3175 4231 2741 4231 
Q 1884 4231 1454 3753 
Q 1025 3275 1025 2328 
Q 1025 1384 1454 906 
Q 1884 428 2741 428 
Q 3075 428 3337 486 
Q 3600 544 3809 666 
z
" transform="scale(0.015625)"/>
      <path id="DejaVuSans-33" d="M 2597 2516 
Q 3050 2419 3304 2112 
Q 3559 1806 3559 1356 
Q 3559 666 3084 287 
Q 2609 -91 1734 -91 
Q 1441 -91 1130 -33 
Q 819 25 488 141 
L 488 750 
Q 750 597 1062 519 
Q 1375 441 1716 441 
Q 2309 441 2620 675 
Q 2931 909 2931 1356 
Q 2931 1769 2642 2001 
Q 2353 2234 1838 2234 
L 1294 2234 
L 1294 2753 
L 1863 2753 
Q 2328 2753 2575 2939 
Q 2822 3125 2822 3475 
Q 2822 3834 2567 4026 
Q 2313 4219 1838 4219 
Q 1578 4219 1281 4162 
Q 984 4106 628 3988 
L 628 4550 
Q 988 4650 1302 4700 
Q 1616 4750 1894 4750 
Q 2613 4750 3031 4423 
Q 3450 4097 3450 3541 
Q 3450 3153 3228 2886 
Q 3006 2619 2597 2516 
z
" transform="scale(0.015625)"/>
     </defs>
     <use xlink:href="#DejaVuSans-47"/>
     <use xlink:href="#DejaVuSans-20" x="77.490234"/>
     <use xlink:href="#DejaVuSans-5b" x="109.277344"/>
     <use xlink:href="#DejaVuSans-33" x="148.291016"/>
     <use xlink:href="#DejaVuSans-34" x="211.914062"/>
     <use xlink:href="#DejaVuSans-5d" x="275.537109"/>
    </g>
   </g>
   <g id="text_7">
    <!-- H [10] -->
    <g transform="translate(66.899771 35.192568) scale(0.1 -0.1)">
     <defs>
      <path id="DejaVuSans-48" d="M 628 4666 
L 1259 4666 
L 1259 2753 
L 3553 2753 
L 3553 4666 
L 4184 4666 
L 4184 0 
L 3553 0 
L 3553 2222 
L 1259 2222 
L 1259 0 
L 628 0 
L 628 4666 
z
" transform="scale(0.015625)"/>
     </defs>
     <use xlink:href="#DejaVuSans-48"/>
     <use xlink:href="#DejaVuSans-20" x="75.195312"/>
     <use xlink:href="#DejaVuSans-5b" x="106.982422"/>
     <use xlink:href="#DejaVuSans-31" x="145.996094"/>
     <use xlink:href="#DejaVuSans-30" x="209.619141"/>
     <use xlink:href="#DejaVuSans-5d" x="273.242188"/>
    </g>
   </g>
   <g id="text_8">
    <!-- I [6] -->
    <g transform="translate(62.859339 46.052513) scale(0.1 -0.1)">
     <defs>
      <path id="DejaVuSans-49" d="M 628 4666 
L 1259 4666 
L 1259 0 
L 628 0 
L 628 4666 
z
" transform="scale(0.015625)"/>
     </defs>
     <use xlink:href="#DejaVuSans-49"/>
     <use xlink:href="#DejaVuSans-20" x="29.492188"/>
     <use xlink:href="#DejaVuSans-5b" x="61.279297"/>
     <use xlink:href="#DejaVuSans-36" x="100.292969"/>
     <use xlink:href="#DejaVuSans-5d" x="163.916016"/>
    </g>
   </g>
   <g id="text_9">
    <!-- K [2] -->
    <g transform="translate(52.331034 52.195235) scale(0.1 -0.1)">
     <defs>
      <path id="DejaVuSans-4b" d="M 628 4666 
L 1259 4666 
L 1259 2694 
L 3353 4666 
L 4166 4666 
L 1850 2491 
L 4331 0 
L 3500 0 
L 1259 2247 
L 1259 0 
L 628 0 
L 628 4666 
z
" transform="scale(0.015625)"/>
     </defs>
     <use xlink:href="#DejaVuSans-4b"/>
     <use xlink:href="#DejaVuSans-20" x="65.576172"/>
     <use xlink:href="#DejaVuSans-5b" x="97.363281"/>
     <use xlink:href="#DejaVuSans-32" x="136.376953"/>
     <use xlink:href="#DejaVuSans-5d" x="200"/>
    </g>
   </g>
   <g id="text_10">
    <!-- L [67] -->
    <g transform="translate(7.2 120.190581) scale(0.1 -0.1)">
     <defs>
      <path id="DejaVuSans-4c" d="M 628 4666 
L 1259 4666 
L 1259 531 
L 3531 531 
L 3531 0 
L 628 0 
L 628 4666 
z
" transform="scale(0.015625)"/>
     </defs>
     <use xlink:href="#DejaVuSans-4c"/>
     <use xlink:href="#DejaVuSans-20" x="55.712891"/>
     <use xlink:href="#DejaVuSans-5b" x="87.5"/>
     <use xlink:href="#DejaVuSans-36" x="126.513672"/>
     <use xlink:href="#DejaVuSans-37" x="190.136719"/>
     <use xlink:href="#DejaVuSans-5d" x="253.759766"/>
    </g>
   </g>
   <g id="text_11">
    <!-- M [5] -->
    <g transform="translate(14.54476 202.181866) scale(0.1 -0.1)">
     <defs>
      <path id="DejaVuSans-4d" d="M 628 4666 
L 1569 4666 
L 2759 1491 
L 3956 4666 
L 4897 4666 
L 4897 0 
L 4281 0 
L 4281 4097 
L 3078 897 
L 2444 897 
L 1241 4097 
L 1241 0 
L 628 0 
L 628 4666 
z
" transform="scale(0.015625)"/>
      <path id="DejaVuSans-35" d="M 691 4666 
L 3169 4666 
L 3169 4134 
L 1269 4134 
L 1269 2991 
Q 1406 3038 1543 3061 
Q 1681 3084 1819 3084 
Q 2600 3084 3056 2656 
Q 3513 2228 3513 1497 
Q 3513 744 3044 326 
Q 2575 -91 1722 -91 
Q 1428 -91 1123 -41 
Q 819 9 494 109 
L 494 744 
Q 775 591 1075 516 
Q 1375 441 1709 441 
Q 2250 441 2565 725 
Q 2881 1009 2881 1497 
Q 2881 1984 2565 2268 
Q 2250 2553 1709 2553 
Q 1456 2553 1204 2497 
Q 953 2441 691 2322 
L 691 4666 
z
" transform="scale(0.015625)"/>
     </defs>
     <use xlink:href="#DejaVuSans-4d"/>
     <use xlink:href="#DejaVuSans-20" x="86.279297"/>
     <use xlink:href="#DejaVuSans-5b" x="118.066406"/>
     <use xlink:href="#DejaVuSans-35" x="157.080078"/>
     <use xlink:href="#DejaVuSans-5d" x="220.703125"/>
    </g>
   </g>
   <g id="text_12">
    <!-- N [8] -->
    <g transform="translate(21.515419 216.04034) scale(0.1 -0.1)">
     <defs>
      <path id="DejaVuSans-4e" d="M 628 4666 
L 1478 4666 
L 3547 763 
L 3547 4666 
L 4159 4666 
L 4159 0 
L 3309 0 
L 1241 3903 
L 1241 0 
L 628 0 
L 628 4666 
z
" transform="scale(0.015625)"/>
     </defs>
     <use xlink:href="#DejaVuSans-4e"/>
     <use xlink:href="#DejaVuSans-20" x="74.804688"/>
     <use xlink:href="#DejaVuSans-5b" x="106.591797"/>
     <use xlink:href="#DejaVuSans-38" x="145.605469"/>
     <use xlink:href="#DejaVuSans-5d" x="209.228516"/>
    </g>
   </g>
   <g id="text_13">
    <!-- P [29] -->
    <g transform="translate(40.782899 251.163548) scale(0.1 -0.1)">
     <defs>
      <path id="DejaVuSans-50" d="M 1259 4147 
L 1259 2394 
L 2053 2394 
Q 2494 2394 2734 2622 
Q 2975 2850 2975 3272 
Q 2975 3691 2734 3919 
Q 2494 4147 2053 4147 
L 1259 4147 
z
M 628 4666 
L 2053 4666 
Q 2838 4666 3239 4311 
Q 3641 3956 3641 3272 
Q 3641 2581 3239 2228 
Q 2838 1875 2053 1875 
L 1259 1875 
L 1259 0 
L 628 0 
L 628 4666 
z
" transform="scale(0.015625)"/>
      <path id="DejaVuSans-39" d="M 703 97 
L 703 672 
Q 941 559 1184 500 
Q 1428 441 1663 441 
Q 2288 441 2617 861 
Q 2947 1281 2994 2138 
Q 2813 1869 2534 1725 
Q 2256 1581 1919 1581 
Q 1219 1581 811 2004 
Q 403 2428 403 3163 
Q 403 3881 828 4315 
Q 1253 4750 1959 4750 
Q 2769 4750 3195 4129 
Q 3622 3509 3622 2328 
Q 3622 1225 3098 567 
Q 2575 -91 1691 -91 
Q 1453 -91 1209 -44 
Q 966 3 703 97 
z
M 1959 2075 
Q 2384 2075 2632 2365 
Q 2881 2656 2881 3163 
Q 2881 3666 2632 3958 
Q 2384 4250 1959 4250 
Q 1534 4250 1286 3958 
Q 1038 3666 1038 3163 
Q 1038 2656 1286 2365 
Q 1534 2075 1959 2075 
z
" transform="scale(0.015625)"/>
     </defs>
     <use xlink:href="#DejaVuSans-50"/>
     <use xlink:href="#DejaVuSans-20" x="60.302734"/>
     <use xlink:href="#DejaVuSans-5b" x="92.089844"/>
     <use xlink:href="#DejaVuSans-32" x="131.103516"/>
     <use xlink:href="#DejaVuSans-39" x="194.726562"/>
     <use xlink:href="#DejaVuSans-5d" x="258.349609"/>
    </g>
   </g>
   <g id="text_14">
    <!-- Q [14] -->
    <g transform="translate(78.641264 280.71014) scale(0.1 -0.1)">
     <defs>
      <path id="DejaVuSans-51" d="M 2522 4238 
Q 1834 4238 1429 3725 
Q 1025 3213 1025 2328 
Q 1025 1447 1429 934 
Q 1834 422 2522 422 
Q 3209 422 3611 934 
Q 4013 1447 4013 2328 
Q 4013 3213 3611 3725 
Q 3209 4238 2522 4238 
z
M 3406 84 
L 4238 -825 
L 3475 -825 
L 2784 -78 
Q 2681 -84 2626 -87 
Q 2572 -91 2522 -91 
Q 1538 -91 948 567 
Q 359 1225 359 2328 
Q 359 3434 948 4092 
Q 1538 4750 2522 4750 
Q 3503 4750 4090 4092 
Q 4678 3434 4678 2328 
Q 4678 1516 4351 937 
Q 4025 359 3406 84 
z
" transform="scale(0.015625)"/>
     </defs>
     <use xlink:href="#DejaVuSans-51"/>
     <use xlink:href="#DejaVuSans-20" x="78.710938"/>
     <use xlink:href="#DejaVuSans-5b" x="110.498047"/>
     <use xlink:href="#DejaVuSans-31" x="149.511719"/>
     <use xlink:href="#DejaVuSans-34" x="213.134766"/>
     <use xlink:href="#DejaVuSans-5d" x="276.757812"/>
    </g>
   </g>
   <g id="text_15">
    <!-- R [24] -->
    <g transform="translate(121.293653 293.966599) scale(0.1 -0.1)">
     <defs>
      <path id="DejaVuSans-52" d="M 2841 2188 
Q 3044 2119 3236 1894 
Q 3428 1669 3622 1275 
L 4263 0 
L 3584 0 
L 2988 1197 
Q 2756 1666 2539 1819 
Q 2322 1972 1947 1972 
L 1259 1972 
L 1259 0 
L 628 0 
L 628 4666 
L 2053 4666 
Q 2853 4666 3247 4331 
Q 3641 3997 3641 3322 
Q 3641 2881 3436 2590 
Q 3231 2300 2841 2188 
z
M 1259 4147 
L 1259 2491 
L 2053 2491 
Q 2509 2491 2742 2702 
Q 2975 2913 2975 3322 
Q 2975 3731 2742 3939 
Q 2509 4147 2053 4147 
L 1259 4147 
z
" transform="scale(0.015625)"/>
     </defs>
     <use xlink:href="#DejaVuSans-52"/>
     <use xlink:href="#DejaVuSans-20" x="69.482422"/>
     <use xlink:href="#DejaVuSans-5b" x="101.269531"/>
     <use xlink:href="#DejaVuSans-32" x="140.283203"/>
     <use xlink:href="#DejaVuSans-34" x="203.90625"/>
     <use xlink:href="#DejaVuSans-5d" x="267.529297"/>
    </g>
   </g>
   <g id="text_16">
    <!-- S [30] -->
    <g transform="translate(213.760317 289.649944) scale(0.1 -0.1)">
     <defs>
      <path id="DejaVuSans-53" d="M 3425 4513 
L 3425 3897 
Q 3066 4069 2747 4153 
Q 2428 4238 2131 4238 
Q 1616 4238 1336 4038 
Q 1056 3838 1056 3469 
Q 1056 3159 1242 3001 
Q 1428 2844 1947 2747 
L 2328 2669 
Q 3034 2534 3370 2195 
Q 3706 1856 3706 1288 
Q 3706 609 3251 259 
Q 2797 -91 1919 -91 
Q 1588 -91 1214 -16 
Q 841 59 441 206 
L 441 856 
Q 825 641 1194 531 
Q 1563 422 1919 422 
Q 2459 422 2753 634 
Q 3047 847 3047 1241 
Q 3047 1584 2836 1778 
Q 2625 1972 2144 2069 
L 1759 2144 
Q 1053 2284 737 2584 
Q 422 2884 422 3419 
Q 422 4038 858 4394 
Q 1294 4750 2059 4750 
Q 2388 4750 2728 4690 
Q 3069 4631 3425 4513 
z
" transform="scale(0.015625)"/>
     </defs>
     <use xlink:href="#DejaVuSans-53"/>
     <use xlink:href="#DejaVuSans-20" x="63.476562"/>
     <use xlink:href="#DejaVuSans-5b" x="95.263672"/>
     <use xlink:href="#DejaVuSans-33" x="134.277344"/>
     <use xlink:href="#DejaVuSans-30" x="197.900391"/>
     <use xlink:href="#DejaVuSans-5d" x="261.523438"/>
    </g>
   </g>
   <g id="text_17">
    <!-- T [17] -->
    <g transform="translate(261.592425 264.507209) scale(0.1 -0.1)">
     <defs>
      <path id="DejaVuSans-54" d="M -19 4666 
L 3928 4666 
L 3928 4134 
L 2272 4134 
L 2272 0 
L 1638 0 
L 1638 4134 
L -19 4134 
L -19 4666 
z
" transform="scale(0.015625)"/>
     </defs>
     <use xlink:href="#DejaVuSans-54"/>
     <use xlink:href="#DejaVuSans-20" x="61.083984"/>
     <use xlink:href="#DejaVuSans-5b" x="92.871094"/>
     <use xlink:href="#DejaVuSans-31" x="131.884766"/>
     <use xlink:href="#DejaVuSans-37" x="195.507812"/>
     <use xlink:href="#DejaVuSans-5d" x="259.130859"/>
    </g>
   </g>
   <g id="text_18">
    <!-- V [27] -->
    <g transform="translate(294.73196 226.23332) scale(0.1 -0.1)">
     <defs>
      <path id="DejaVuSans-56" d="M 1831 0 
L 50 4666 
L 709 4666 
L 2188 738 
L 3669 4666 
L 4325 4666 
L 2547 0 
L 1831 0 
z
" transform="scale(0.015625)"/>
     </defs>
     <use xlink:href="#DejaVuSans-56"/>
     <use xlink:href="#DejaVuSans-20" x="68.408203"/>
     <use xlink:href="#DejaVuSans-5b" x="100.195312"/>
     <use xlink:href="#DejaVuSans-32" x="139.208984"/>
     <use xlink:href="#DejaVuSans-37" x="202.832031"/>
     <use xlink:href="#DejaVuSans-5d" x="266.455078"/>
    </g>
   </g>
   <g id="text_19">
    <!-- W [10] -->
    <g transform="translate(310.604531 186.656848) scale(0.1 -0.1)">
     <defs>
      <path id="DejaVuSans-57" d="M 213 4666 
L 850 4666 
L 1831 722 
L 2809 4666 
L 3519 4666 
L 4500 722 
L 5478 4666 
L 6119 4666 
L 4947 0 
L 4153 0 
L 3169 4050 
L 2175 0 
L 1381 0 
L 213 4666 
z
" transform="scale(0.015625)"/>
     </defs>
     <use xlink:href="#DejaVuSans-57"/>
     <use xlink:href="#DejaVuSans-20" x="98.876953"/>
     <use xlink:href="#DejaVuSans-5b" x="130.664062"/>
     <use xlink:href="#DejaVuSans-31" x="169.677734"/>
     <use xlink:href="#DejaVuSans-30" x="233.300781"/>
     <use xlink:href="#DejaVuSans-5d" x="296.923828"/>
    </g>
   </g>
   <g id="text_20">
    <!-- Y [9] -->
    <g transform="translate(313.923935 164.950549) scale(0.1 -0.1)">
     <defs>
      <path id="DejaVuSans-59" d="M -13 4666 
L 666 4666 
L 1959 2747 
L 3244 4666 
L 3922 4666 
L 2272 2222 
L 2272 0 
L 1638 0 
L 1638 2222 
L -13 4666 
z
" transform="scale(0.015625)"/>
     </defs>
     <use xlink:href="#DejaVuSans-59"/>
     <use xlink:href="#DejaVuSans-20" x="61.083984"/>
     <use xlink:href="#DejaVuSans-5b" x="92.871094"/>
     <use xlink:href="#DejaVuSans-39" x="131.884766"/>
     <use xlink:href="#DejaVuSans-5d" x="195.507812"/>
    </g>
   </g>
   <g id="text_21">
    <!-- A0A287ANR1 [383] -->
    <g transform="translate(115.169037 151.788637) scale(0.12 -0.12)">
     <use xlink:href="#DejaVuSans-41"/>
     <use xlink:href="#DejaVuSans-30" x="68.408203"/>
     <use xlink:href="#DejaVuSans-41" x="132.03125"/>
     <use xlink:href="#DejaVuSans-32" x="200.439453"/>
     <use xlink:href="#DejaVuSans-38" x="264.0625"/>
     <use xlink:href="#DejaVuSans-37" x="327.685547"/>
     <use xlink:href="#DejaVuSans-41" x="391.308594"/>
     <use xlink:href="#DejaVuSans-4e" x="459.716797"/>
     <use xlink:href="#DejaVuSans-52" x="534.521484"/>
     <use xlink:href="#DejaVuSans-31" x="604.003906"/>
     <use xlink:href="#DejaVuSans-20" x="667.626953"/>
     <use xlink:href="#DejaVuSans-5b" x="699.414062"/>
     <use xlink:href="#DejaVuSans-33" x="738.427734"/>
     <use xlink:href="#DejaVuSans-38" x="802.050781"/>
     <use xlink:href="#DejaVuSans-33" x="865.673828"/>
     <use xlink:href="#DejaVuSans-5d" x="929.296875"/>
    </g>
   </g>
  </g>
 </g>
</svg>
