<?xml version="1.0" encoding="utf-8" standalone="no"?>
<!DOCTYPE svg PUBLIC "-//W3C//DTD SVG 1.1//EN"
  "http://www.w3.org/Graphics/SVG/1.1/DTD/svg11.dtd">
<svg xmlns:xlink="http://www.w3.org/1999/xlink" width="356.862489pt" height="305.02959pt" viewBox="0 0 356.862489 305.02959" xmlns="http://www.w3.org/2000/svg" version="1.1">
 <metadata>
  <rdf:RDF xmlns:dc="http://purl.org/dc/elements/1.1/" xmlns:cc="http://creativecommons.org/ns#" xmlns:rdf="http://www.w3.org/1999/02/22-rdf-syntax-ns#">
   <cc:Work>
    <dc:type rdf:resource="http://purl.org/dc/dcmitype/StillImage"/>
    <dc:date>2024-09-27T16:07:29.400154</dc:date>
    <dc:format>image/svg+xml</dc:format>
    <dc:creator>
     <cc:Agent>
      <dc:title>Matplotlib v3.8.3, https://matplotlib.org/</dc:title>
     </cc:Agent>
    </dc:creator>
   </cc:Work>
  </rdf:RDF>
 </metadata>
 <defs>
  <style type="text/css">*{stroke-linejoin: round; stroke-linecap: butt}</style>
 </defs>
 <g id="figure_1">
  <g id="patch_1">
   <path d="M 0 305.02959 
L 356.862489 305.02959 
L 356.862489 0 
L 0 0 
z
" style="fill: #ffffff"/>
  </g>
  <g id="axes_1">
   <g id="patch_2">
    <path d="M 307.806547 152.242172 
C 307.806547 141.752131 306.514317 131.301924 303.959076 121.127854 
C 301.403836 110.953783 297.604991 101.133118 292.648443 91.887926 
L 180.072787 152.242172 
z
" style="fill: #1f77b4"/>
   </g>
   <g id="patch_3">
    <path d="M 292.581328 91.731926 
C 291.08455 88.940063 289.484432 86.204845 287.784295 83.531947 
C 286.084158 80.85905 284.285178 78.250322 282.391087 75.711175 
L 180.005672 152.086172 
z
" style="fill: #ff7f0e"/>
   </g>
   <g id="patch_4">
    <path d="M 282.339763 75.643187 
C 280.15419 72.713291 277.843859 69.878559 275.415151 67.146819 
C 272.986442 64.41508 270.441594 61.78885 267.787634 59.275383 
L 179.954347 152.018184 
z
" style="fill: #aec7e8"/>
   </g>
   <g id="patch_5">
    <path d="M 267.686991 59.187439 
C 262.553848 54.326028 257.025948 49.899163 251.160273 45.952475 
C 245.294598 42.005787 239.111372 38.552885 232.674332 35.62936 
L 179.853705 151.93024 
z
" style="fill: #ffbb78"/>
   </g>
   <g id="patch_6">
    <path d="M 232.523043 35.559076 
C 226.752552 32.93828 220.795001 30.750585 214.69977 29.014124 
C 208.604539 27.277663 202.388515 25.997248 196.103219 25.183491 
L 179.702416 151.859957 
z
" style="fill: #98df8a"/>
   </g>
   <g id="patch_7">
    <path d="M 195.904188 25.165791 
C 186.228421 23.913069 176.440905 23.77304 166.73326 24.748444 
C 157.025615 25.723848 147.461608 27.808279 138.228483 30.960927 
L 179.503385 151.842257 
z
" style="fill: #2ca02c"/>
   </g>
   <g id="patch_8">
    <path d="M 138.081188 30.997473 
C 135.775264 31.78483 133.49234 32.638008 131.235221 33.555959 
C 128.978102 34.473909 126.747711 35.456257 124.546787 36.501796 
L 179.35609 151.878803 
z
" style="fill: #d62728"/>
   </g>
   <g id="patch_9">
    <path d="M 124.45018 36.553234 
C 118.725529 39.272702 113.211205 42.414463 107.952915 45.952475 
C 102.694626 49.490487 97.706938 53.414948 93.031193 57.693329 
L 179.259483 151.93024 
z
" style="fill: #9467bd"/>
   </g>
   <g id="patch_10">
    <path d="M 92.93055 57.781273 
C 89.694273 60.742519 86.612685 63.86851 83.698038 67.146818 
C 80.783392 70.425127 78.039554 73.851402 75.477435 77.412021 
L 179.158841 152.018184 
z
" style="fill: #ff9896"/>
   </g>
   <g id="patch_11">
    <path d="M 75.365469 77.612522 
C 67.092677 89.109356 60.789462 101.902543 56.714268 115.467537 
C 52.639074 129.032532 50.84837 143.181367 51.415578 157.333912 
L 179.046875 152.218685 
z
" style="fill: #c5b0d5"/>
   </g>
   <g id="patch_12">
    <path d="M 51.396912 157.550846 
C 51.533529 160.95963 51.806655 164.361573 52.215633 167.748492 
C 52.62461 171.13541 53.16911 174.504584 53.847823 177.847909 
L 179.028208 152.435618 
z
" style="fill: #c49c94"/>
   </g>
   <g id="patch_13">
    <path d="M 53.868275 177.943059 
C 54.740982 182.241995 55.834561 186.493123 57.144664 190.679542 
C 58.454766 194.865961 59.979654 198.982114 61.713265 203.011639 
L 179.048661 152.530768 
z
" style="fill: #8c564b"/>
   </g>
   <g id="patch_14">
    <path d="M 61.7657 203.127975 
C 64.077578 208.501597 66.755872 213.710061 69.781663 218.716575 
C 72.807454 223.723089 76.1736 228.515836 79.856322 233.060959 
L 179.101096 152.647104 
z
" style="fill: #e377c2"/>
   </g>
   <g id="patch_15">
    <path d="M 79.924345 233.150535 
C 81.9186 235.611794 84.003723 237.998015 86.175388 240.304249 
C 88.347054 242.610483 90.60376 244.835134 92.940824 246.973585 
L 179.16912 152.736679 
z
" style="fill: #7f7f7f"/>
   </g>
   <g id="patch_16">
    <path d="M 93.046521 247.060233 
C 98.802647 252.327182 105.029257 257.055683 111.648231 261.186413 
C 118.267204 265.317143 125.250747 268.832754 132.511242 271.689141 
L 179.274817 152.823327 
z
" style="fill: #f7b6d2"/>
   </g>
   <g id="patch_17">
    <path d="M 132.751945 271.768264 
C 144.563726 276.415194 157.002462 279.27566 169.657601 280.255248 
C 182.31274 281.234837 195.043503 280.322651 207.4297 277.548799 
L 179.515519 152.902451 
z
" style="fill: #c7c7c7"/>
   </g>
   <g id="patch_18">
    <path d="M 207.685301 277.505236 
C 215.775455 275.69347 223.670039 273.098364 231.257274 269.756662 
C 238.844508 266.41496 246.088414 262.342508 252.886425 257.596969 
L 179.77112 152.858889 
z
" style="fill: #dbdb8d"/>
   </g>
   <g id="patch_19">
    <path d="M 253.09298 257.4354 
C 263.701786 250.029631 273.124097 241.05483 281.036921 230.818649 
C 288.949746 220.582468 295.261622 209.203222 299.756182 197.070988 
L 179.977674 152.69732 
z
" style="fill: #bcbd22"/>
   </g>
   <g id="patch_20">
    <path d="M 299.846541 196.892769 
C 300.947002 193.922275 301.936582 190.911873 302.813226 187.867806 
C 303.689869 184.823739 304.452971 181.748115 305.100948 178.647313 
L 180.068032 152.519101 
z
" style="fill: #17becf"/>
   </g>
   <g id="patch_21">
    <path d="M 305.118913 178.55475 
C 306.016206 174.260878 306.691714 169.923633 307.142751 165.560259 
C 307.593789 161.196885 307.819757 156.813171 307.819757 152.426547 
L 180.085997 152.426538 
z
" style="fill: #9edae5"/>
   </g>
   <g id="patch_22">
    <path d="M 254.067954 152.371815 
C 254.067954 146.252624 253.314153 140.15667 251.823596 134.221796 
C 250.333039 128.286921 248.117047 122.5582 245.225727 117.165171 
L 179.556594 152.371815 
z
" style="fill: #ffffff"/>
   </g>
   <g id="patch_23">
    <path d="M 245.225727 117.165171 
C 244.352606 115.536584 243.419204 113.94104 242.427458 112.38185 
C 241.435711 110.82266 240.386306 109.300902 239.28142 107.819733 
L 179.556594 152.371815 
z
" style="fill: #ffffff"/>
   </g>
   <g id="patch_24">
    <path d="M 239.28142 107.819733 
C 238.006502 106.110627 236.658809 104.457033 235.242063 102.863519 
C 233.825316 101.270004 232.340821 99.738037 230.792678 98.271847 
L 179.556594 152.371815 
z
" style="fill: #ffffff"/>
   </g>
   <g id="patch_25">
    <path d="M 230.792678 98.271847 
C 227.798344 95.436024 224.573736 92.853686 221.152092 90.551451 
C 217.730448 88.249217 214.123567 86.235024 210.368626 84.529634 
L 179.556594 152.371815 
z
" style="fill: #ffffff"/>
   </g>
   <g id="patch_26">
    <path d="M 210.368626 84.529634 
C 207.002507 83.000836 203.527269 81.724681 199.971717 80.711745 
C 196.416166 79.69881 192.790151 78.951901 189.123729 78.477209 
L 179.556594 152.371815 
z
" style="fill: #ffffff"/>
   </g>
   <g id="patch_27">
    <path d="M 189.123729 78.477209 
C 183.479531 77.746455 177.770147 77.664771 172.107354 78.233757 
C 166.444561 78.802743 160.865557 80.018661 155.479568 81.857705 
L 179.556594 152.371815 
z
" style="fill: #ffffff"/>
   </g>
   <g id="patch_28">
    <path d="M 155.479568 81.857705 
C 154.134445 82.316997 152.80274 82.814684 151.486087 83.350156 
C 150.169434 83.885627 148.868373 84.458663 147.5845 85.068561 
L 179.556594 152.371815 
z
" style="fill: #ffffff"/>
   </g>
   <g id="patch_29">
    <path d="M 147.5845 85.068561 
C 144.24512 86.654917 141.028432 88.487611 137.961096 90.551451 
C 134.89376 92.615291 131.984276 94.90456 129.256758 97.400283 
L 179.556594 152.371815 
z
" style="fill: #ffffff"/>
   </g>
   <g id="patch_30">
    <path d="M 129.256758 97.400283 
C 127.368929 99.127677 125.571337 100.951171 123.871126 102.863518 
C 122.170916 104.775864 120.570344 106.774525 119.075774 108.851553 
L 179.556594 152.371815 
z
" style="fill: #ffffff"/>
   </g>
   <g id="patch_31">
    <path d="M 119.075774 108.851553 
C 114.249979 115.55804 110.573103 123.020732 108.195907 130.933645 
C 105.81871 138.846559 104.774133 147.100046 105.105004 155.355697 
L 179.556594 152.371815 
z
" style="fill: #ffffff"/>
   </g>
   <g id="patch_32">
    <path d="M 105.105004 155.355697 
C 105.184698 157.344155 105.344021 159.328622 105.582592 161.304324 
C 105.821162 163.280026 106.138787 165.245378 106.534702 167.195651 
L 179.556594 152.371815 
z
" style="fill: #ffffff"/>
   </g>
   <g id="patch_33">
    <path d="M 106.534702 167.195651 
C 107.043782 169.703364 107.681703 172.183189 108.445929 174.625266 
C 109.210156 177.067344 110.099674 179.468433 111.110946 181.818989 
L 179.556594 152.371815 
z
" style="fill: #ffffff"/>
   </g>
   <g id="patch_34">
    <path d="M 111.110946 181.818989 
C 112.459542 184.953602 114.02188 187.991873 115.786925 190.912339 
C 117.551969 193.832806 119.515554 196.628575 121.663809 199.279897 
L 179.556594 152.371815 
z
" style="fill: #ffffff"/>
   </g>
   <g id="patch_35">
    <path d="M 121.663809 199.279897 
C 122.827124 200.715631 124.043445 202.107594 125.31025 203.452897 
C 126.577055 204.7982 127.893467 206.095913 129.256755 207.343343 
L 179.556594 152.371815 
z
" style="fill: #ffffff"/>
   </g>
   <g id="patch_36">
    <path d="M 129.256755 207.343343 
C 132.614495 210.41573 136.246684 213.174022 140.107752 215.583614 
C 143.96882 217.993207 148.042553 220.04398 152.277842 221.710206 
L 179.556594 152.371815 
z
" style="fill: #ffffff"/>
   </g>
   <g id="patch_37">
    <path d="M 152.277842 221.710206 
C 159.168048 224.420915 166.423977 226.089519 173.806142 226.660946 
C 181.188306 227.232373 188.614585 226.700264 195.839866 225.082184 
L 179.556594 152.371815 
z
" style="fill: #ffffff"/>
   </g>
   <g id="patch_38">
    <path d="M 195.839866 225.082184 
C 200.559123 224.02532 205.164297 222.511508 209.590184 220.562182 
C 214.016071 218.612856 218.241683 216.237259 222.207189 213.469028 
L 179.556594 152.371815 
z
" style="fill: #ffffff"/>
   </g>
   <g id="patch_39">
    <path d="M 222.207189 213.469028 
C 228.395659 209.148996 233.892007 203.913695 238.507822 197.94259 
C 243.123636 191.971484 246.805564 185.333591 249.42739 178.256454 
L 179.556594 152.371815 
z
" style="fill: #ffffff"/>
   </g>
   <g id="patch_40">
    <path d="M 249.42739 178.256454 
C 250.069327 176.523666 250.646581 174.767598 251.157957 172.991893 
C 251.669332 171.216187 252.114475 169.422073 252.492461 167.613271 
L 179.556594 152.371815 
z
" style="fill: #ffffff"/>
   </g>
   <g id="patch_41">
    <path d="M 252.492461 167.613271 
C 253.015883 165.108513 253.409929 162.578453 253.673034 160.033152 
C 253.936139 157.48785 254.067954 154.930684 254.067954 152.37182 
L 179.556594 152.371815 
z
" style="fill: #ffffff"/>
   </g>
   <g id="matplotlib.axis_1"/>
   <g id="matplotlib.axis_2"/>
   <g id="text_1">
    <!-- A [43] -->
    <g transform="translate(316.347705 120.775797) scale(0.1 -0.1)">
     <defs>
      <path id="DejaVuSans-41" d="M 2188 4044 
L 1331 1722 
L 3047 1722 
L 2188 4044 
z
M 1831 4666 
L 2547 4666 
L 4325 0 
L 3669 0 
L 3244 1197 
L 1141 1197 
L 716 0 
L 50 0 
L 1831 4666 
z
" transform="scale(0.015625)"/>
      <path id="DejaVuSans-20" transform="scale(0.015625)"/>
      <path id="DejaVuSans-5b" d="M 550 4863 
L 1875 4863 
L 1875 4416 
L 1125 4416 
L 1125 -397 
L 1875 -397 
L 1875 -844 
L 550 -844 
L 550 4863 
z
" transform="scale(0.015625)"/>
      <path id="DejaVuSans-34" d="M 2419 4116 
L 825 1625 
L 2419 1625 
L 2419 4116 
z
M 2253 4666 
L 3047 4666 
L 3047 1625 
L 3713 1625 
L 3713 1100 
L 3047 1100 
L 3047 0 
L 2419 0 
L 2419 1100 
L 313 1100 
L 313 1709 
L 2253 4666 
z
" transform="scale(0.015625)"/>
      <path id="DejaVuSans-33" d="M 2597 2516 
Q 3050 2419 3304 2112 
Q 3559 1806 3559 1356 
Q 3559 666 3084 287 
Q 2609 -91 1734 -91 
Q 1441 -91 1130 -33 
Q 819 25 488 141 
L 488 750 
Q 750 597 1062 519 
Q 1375 441 1716 441 
Q 2309 441 2620 675 
Q 2931 909 2931 1356 
Q 2931 1769 2642 2001 
Q 2353 2234 1838 2234 
L 1294 2234 
L 1294 2753 
L 1863 2753 
Q 2328 2753 2575 2939 
Q 2822 3125 2822 3475 
Q 2822 3834 2567 4026 
Q 2313 4219 1838 4219 
Q 1578 4219 1281 4162 
Q 984 4106 628 3988 
L 628 4550 
Q 988 4650 1302 4700 
Q 1616 4750 1894 4750 
Q 2613 4750 3031 4423 
Q 3450 4097 3450 3541 
Q 3450 3153 3228 2886 
Q 3006 2619 2597 2516 
z
" transform="scale(0.015625)"/>
      <path id="DejaVuSans-5d" d="M 1947 4863 
L 1947 -844 
L 622 -844 
L 622 -397 
L 1369 -397 
L 1369 4416 
L 622 4416 
L 622 4863 
L 1947 4863 
z
" transform="scale(0.015625)"/>
     </defs>
     <use xlink:href="#DejaVuSans-41"/>
     <use xlink:href="#DejaVuSans-20" x="68.408203"/>
     <use xlink:href="#DejaVuSans-5b" x="100.195312"/>
     <use xlink:href="#DejaVuSans-34" x="139.208984"/>
     <use xlink:href="#DejaVuSans-33" x="202.832031"/>
     <use xlink:href="#DejaVuSans-5d" x="266.455078"/>
    </g>
   </g>
   <g id="text_2">
    <!-- C [13] -->
    <g transform="translate(298.562158 79.4359) scale(0.1 -0.1)">
     <defs>
      <path id="DejaVuSans-43" d="M 4122 4306 
L 4122 3641 
Q 3803 3938 3442 4084 
Q 3081 4231 2675 4231 
Q 1875 4231 1450 3742 
Q 1025 3253 1025 2328 
Q 1025 1406 1450 917 
Q 1875 428 2675 428 
Q 3081 428 3442 575 
Q 3803 722 4122 1019 
L 4122 359 
Q 3791 134 3420 21 
Q 3050 -91 2638 -91 
Q 1578 -91 968 557 
Q 359 1206 359 2328 
Q 359 3453 968 4101 
Q 1578 4750 2638 4750 
Q 3056 4750 3426 4639 
Q 3797 4528 4122 4306 
z
" transform="scale(0.015625)"/>
      <path id="DejaVuSans-31" d="M 794 531 
L 1825 531 
L 1825 4091 
L 703 3866 
L 703 4441 
L 1819 4666 
L 2450 4666 
L 2450 531 
L 3481 531 
L 3481 0 
L 794 0 
L 794 531 
z
" transform="scale(0.015625)"/>
     </defs>
     <use xlink:href="#DejaVuSans-43"/>
     <use xlink:href="#DejaVuSans-20" x="69.824219"/>
     <use xlink:href="#DejaVuSans-5b" x="101.611328"/>
     <use xlink:href="#DejaVuSans-31" x="140.625"/>
     <use xlink:href="#DejaVuSans-33" x="204.248047"/>
     <use xlink:href="#DejaVuSans-5d" x="267.871094"/>
    </g>
   </g>
   <g id="text_3">
    <!-- D [15] -->
    <g transform="translate(284.961231 61.419058) scale(0.1 -0.1)">
     <defs>
      <path id="DejaVuSans-44" d="M 1259 4147 
L 1259 519 
L 2022 519 
Q 2988 519 3436 956 
Q 3884 1394 3884 2338 
Q 3884 3275 3436 3711 
Q 2988 4147 2022 4147 
L 1259 4147 
z
M 628 4666 
L 1925 4666 
Q 3281 4666 3915 4102 
Q 4550 3538 4550 2338 
Q 4550 1131 3912 565 
Q 3275 0 1925 0 
L 628 0 
L 628 4666 
z
" transform="scale(0.015625)"/>
      <path id="DejaVuSans-35" d="M 691 4666 
L 3169 4666 
L 3169 4134 
L 1269 4134 
L 1269 2991 
Q 1406 3038 1543 3061 
Q 1681 3084 1819 3084 
Q 2600 3084 3056 2656 
Q 3513 2228 3513 1497 
Q 3513 744 3044 326 
Q 2575 -91 1722 -91 
Q 1428 -91 1123 -41 
Q 819 9 494 109 
L 494 744 
Q 775 591 1075 516 
Q 1375 441 1709 441 
Q 2250 441 2565 725 
Q 2881 1009 2881 1497 
Q 2881 1984 2565 2268 
Q 2250 2553 1709 2553 
Q 1456 2553 1204 2497 
Q 953 2441 691 2322 
L 691 4666 
z
" transform="scale(0.015625)"/>
     </defs>
     <use xlink:href="#DejaVuSans-44"/>
     <use xlink:href="#DejaVuSans-20" x="77.001953"/>
     <use xlink:href="#DejaVuSans-5b" x="108.789062"/>
     <use xlink:href="#DejaVuSans-31" x="147.802734"/>
     <use xlink:href="#DejaVuSans-35" x="211.425781"/>
     <use xlink:href="#DejaVuSans-5d" x="275.048828"/>
    </g>
   </g>
   <g id="text_4">
    <!-- E [29] -->
    <g transform="translate(258.290929 38.114073) scale(0.1 -0.1)">
     <defs>
      <path id="DejaVuSans-45" d="M 628 4666 
L 3578 4666 
L 3578 4134 
L 1259 4134 
L 1259 2753 
L 3481 2753 
L 3481 2222 
L 1259 2222 
L 1259 531 
L 3634 531 
L 3634 0 
L 628 0 
L 628 4666 
z
" transform="scale(0.015625)"/>
      <path id="DejaVuSans-32" d="M 1228 531 
L 3431 531 
L 3431 0 
L 469 0 
L 469 531 
Q 828 903 1448 1529 
Q 2069 2156 2228 2338 
Q 2531 2678 2651 2914 
Q 2772 3150 2772 3378 
Q 2772 3750 2511 3984 
Q 2250 4219 1831 4219 
Q 1534 4219 1204 4116 
Q 875 4013 500 3803 
L 500 4441 
Q 881 4594 1212 4672 
Q 1544 4750 1819 4750 
Q 2544 4750 2975 4387 
Q 3406 4025 3406 3419 
Q 3406 3131 3298 2873 
Q 3191 2616 2906 2266 
Q 2828 2175 2409 1742 
Q 1991 1309 1228 531 
z
" transform="scale(0.015625)"/>
      <path id="DejaVuSans-39" d="M 703 97 
L 703 672 
Q 941 559 1184 500 
Q 1428 441 1663 441 
Q 2288 441 2617 861 
Q 2947 1281 2994 2138 
Q 2813 1869 2534 1725 
Q 2256 1581 1919 1581 
Q 1219 1581 811 2004 
Q 403 2428 403 3163 
Q 403 3881 828 4315 
Q 1253 4750 1959 4750 
Q 2769 4750 3195 4129 
Q 3622 3509 3622 2328 
Q 3622 1225 3098 567 
Q 2575 -91 1691 -91 
Q 1453 -91 1209 -44 
Q 966 3 703 97 
z
M 1959 2075 
Q 2384 2075 2632 2365 
Q 2881 2656 2881 3163 
Q 2881 3666 2632 3958 
Q 2384 4250 1959 4250 
Q 1534 4250 1286 3958 
Q 1038 3666 1038 3163 
Q 1038 2656 1286 2365 
Q 1534 2075 1959 2075 
z
" transform="scale(0.015625)"/>
     </defs>
     <use xlink:href="#DejaVuSans-45"/>
     <use xlink:href="#DejaVuSans-20" x="63.183594"/>
     <use xlink:href="#DejaVuSans-5b" x="94.970703"/>
     <use xlink:href="#DejaVuSans-32" x="133.984375"/>
     <use xlink:href="#DejaVuSans-39" x="197.607422"/>
     <use xlink:href="#DejaVuSans-5d" x="261.230469"/>
    </g>
   </g>
   <g id="text_5">
    <!-- F [26] -->
    <g transform="translate(218.199506 19.488916) scale(0.1 -0.1)">
     <defs>
      <path id="DejaVuSans-46" d="M 628 4666 
L 3309 4666 
L 3309 4134 
L 1259 4134 
L 1259 2759 
L 3109 2759 
L 3109 2228 
L 1259 2228 
L 1259 0 
L 628 0 
L 628 4666 
z
" transform="scale(0.015625)"/>
      <path id="DejaVuSans-36" d="M 2113 2584 
Q 1688 2584 1439 2293 
Q 1191 2003 1191 1497 
Q 1191 994 1439 701 
Q 1688 409 2113 409 
Q 2538 409 2786 701 
Q 3034 994 3034 1497 
Q 3034 2003 2786 2293 
Q 2538 2584 2113 2584 
z
M 3366 4563 
L 3366 3988 
Q 3128 4100 2886 4159 
Q 2644 4219 2406 4219 
Q 1781 4219 1451 3797 
Q 1122 3375 1075 2522 
Q 1259 2794 1537 2939 
Q 1816 3084 2150 3084 
Q 2853 3084 3261 2657 
Q 3669 2231 3669 1497 
Q 3669 778 3244 343 
Q 2819 -91 2113 -91 
Q 1303 -91 875 529 
Q 447 1150 447 2328 
Q 447 3434 972 4092 
Q 1497 4750 2381 4750 
Q 2619 4750 2861 4703 
Q 3103 4656 3366 4563 
z
" transform="scale(0.015625)"/>
     </defs>
     <use xlink:href="#DejaVuSans-46"/>
     <use xlink:href="#DejaVuSans-20" x="57.519531"/>
     <use xlink:href="#DejaVuSans-5b" x="89.306641"/>
     <use xlink:href="#DejaVuSans-32" x="128.320312"/>
     <use xlink:href="#DejaVuSans-36" x="191.943359"/>
     <use xlink:href="#DejaVuSans-5d" x="255.566406"/>
    </g>
   </g>
   <g id="text_6">
    <!-- G [40] -->
    <g transform="translate(134.00156 14.798437) scale(0.1 -0.1)">
     <defs>
      <path id="DejaVuSans-47" d="M 3809 666 
L 3809 1919 
L 2778 1919 
L 2778 2438 
L 4434 2438 
L 4434 434 
Q 4069 175 3628 42 
Q 3188 -91 2688 -91 
Q 1594 -91 976 548 
Q 359 1188 359 2328 
Q 359 3472 976 4111 
Q 1594 4750 2688 4750 
Q 3144 4750 3555 4637 
Q 3966 4525 4313 4306 
L 4313 3634 
Q 3963 3931 3569 4081 
Q 3175 4231 2741 4231 
Q 1884 4231 1454 3753 
Q 1025 3275 1025 2328 
Q 1025 1384 1454 906 
Q 1884 428 2741 428 
Q 3075 428 3337 486 
Q 3600 544 3809 666 
z
" transform="scale(0.015625)"/>
      <path id="DejaVuSans-30" d="M 2034 4250 
Q 1547 4250 1301 3770 
Q 1056 3291 1056 2328 
Q 1056 1369 1301 889 
Q 1547 409 2034 409 
Q 2525 409 2770 889 
Q 3016 1369 3016 2328 
Q 3016 3291 2770 3770 
Q 2525 4250 2034 4250 
z
M 2034 4750 
Q 2819 4750 3233 4129 
Q 3647 3509 3647 2328 
Q 3647 1150 3233 529 
Q 2819 -91 2034 -91 
Q 1250 -91 836 529 
Q 422 1150 422 2328 
Q 422 3509 836 4129 
Q 1250 4750 2034 4750 
z
" transform="scale(0.015625)"/>
     </defs>
     <use xlink:href="#DejaVuSans-47"/>
     <use xlink:href="#DejaVuSans-20" x="77.490234"/>
     <use xlink:href="#DejaVuSans-5b" x="109.277344"/>
     <use xlink:href="#DejaVuSans-34" x="148.291016"/>
     <use xlink:href="#DejaVuSans-30" x="211.914062"/>
     <use xlink:href="#DejaVuSans-5d" x="275.537109"/>
    </g>
   </g>
   <g id="text_7">
    <!-- H [10] -->
    <g transform="translate(95.196572 24.483049) scale(0.1 -0.1)">
     <defs>
      <path id="DejaVuSans-48" d="M 628 4666 
L 1259 4666 
L 1259 2753 
L 3553 2753 
L 3553 4666 
L 4184 4666 
L 4184 0 
L 3553 0 
L 3553 2222 
L 1259 2222 
L 1259 0 
L 628 0 
L 628 4666 
z
" transform="scale(0.015625)"/>
     </defs>
     <use xlink:href="#DejaVuSans-48"/>
     <use xlink:href="#DejaVuSans-20" x="75.195312"/>
     <use xlink:href="#DejaVuSans-5b" x="106.982422"/>
     <use xlink:href="#DejaVuSans-31" x="145.996094"/>
     <use xlink:href="#DejaVuSans-30" x="209.619141"/>
     <use xlink:href="#DejaVuSans-5d" x="273.242188"/>
    </g>
   </g>
   <g id="text_8">
    <!-- I [26] -->
    <g transform="translate(74.166009 38.114073) scale(0.1 -0.1)">
     <defs>
      <path id="DejaVuSans-49" d="M 628 4666 
L 1259 4666 
L 1259 0 
L 628 0 
L 628 4666 
z
" transform="scale(0.015625)"/>
     </defs>
     <use xlink:href="#DejaVuSans-49"/>
     <use xlink:href="#DejaVuSans-20" x="29.492188"/>
     <use xlink:href="#DejaVuSans-5b" x="61.279297"/>
     <use xlink:href="#DejaVuSans-32" x="100.292969"/>
     <use xlink:href="#DejaVuSans-36" x="163.916016"/>
     <use xlink:href="#DejaVuSans-5d" x="227.539062"/>
    </g>
   </g>
   <g id="text_9">
    <!-- K [18] -->
    <g transform="translate(43.887896 61.419057) scale(0.1 -0.1)">
     <defs>
      <path id="DejaVuSans-4b" d="M 628 4666 
L 1259 4666 
L 1259 2694 
L 3353 4666 
L 4166 4666 
L 1850 2491 
L 4331 0 
L 3500 0 
L 1259 2247 
L 1259 0 
L 628 0 
L 628 4666 
z
" transform="scale(0.015625)"/>
      <path id="DejaVuSans-38" d="M 2034 2216 
Q 1584 2216 1326 1975 
Q 1069 1734 1069 1313 
Q 1069 891 1326 650 
Q 1584 409 2034 409 
Q 2484 409 2743 651 
Q 3003 894 3003 1313 
Q 3003 1734 2745 1975 
Q 2488 2216 2034 2216 
z
M 1403 2484 
Q 997 2584 770 2862 
Q 544 3141 544 3541 
Q 544 4100 942 4425 
Q 1341 4750 2034 4750 
Q 2731 4750 3128 4425 
Q 3525 4100 3525 3541 
Q 3525 3141 3298 2862 
Q 3072 2584 2669 2484 
Q 3125 2378 3379 2068 
Q 3634 1759 3634 1313 
Q 3634 634 3220 271 
Q 2806 -91 2034 -91 
Q 1263 -91 848 271 
Q 434 634 434 1313 
Q 434 1759 690 2068 
Q 947 2378 1403 2484 
z
M 1172 3481 
Q 1172 3119 1398 2916 
Q 1625 2713 2034 2713 
Q 2441 2713 2670 2916 
Q 2900 3119 2900 3481 
Q 2900 3844 2670 4047 
Q 2441 4250 2034 4250 
Q 1625 4250 1398 4047 
Q 1172 3844 1172 3481 
z
" transform="scale(0.015625)"/>
     </defs>
     <use xlink:href="#DejaVuSans-4b"/>
     <use xlink:href="#DejaVuSans-20" x="65.576172"/>
     <use xlink:href="#DejaVuSans-5b" x="97.363281"/>
     <use xlink:href="#DejaVuSans-31" x="136.376953"/>
     <use xlink:href="#DejaVuSans-38" x="200"/>
     <use xlink:href="#DejaVuSans-5d" x="263.623047"/>
    </g>
   </g>
   <g id="text_10">
    <!-- L [58] -->
    <g transform="translate(15.202883 114.551798) scale(0.1 -0.1)">
     <defs>
      <path id="DejaVuSans-4c" d="M 628 4666 
L 1259 4666 
L 1259 531 
L 3531 531 
L 3531 0 
L 628 0 
L 628 4666 
z
" transform="scale(0.015625)"/>
     </defs>
     <use xlink:href="#DejaVuSans-4c"/>
     <use xlink:href="#DejaVuSans-20" x="55.712891"/>
     <use xlink:href="#DejaVuSans-5b" x="87.5"/>
     <use xlink:href="#DejaVuSans-35" x="126.513672"/>
     <use xlink:href="#DejaVuSans-38" x="190.136719"/>
     <use xlink:href="#DejaVuSans-5d" x="253.759766"/>
    </g>
   </g>
   <g id="text_11">
    <!-- M [14] -->
    <g transform="translate(7.2 172.039154) scale(0.1 -0.1)">
     <defs>
      <path id="DejaVuSans-4d" d="M 628 4666 
L 1569 4666 
L 2759 1491 
L 3956 4666 
L 4897 4666 
L 4897 0 
L 4281 0 
L 4281 4097 
L 3078 897 
L 2444 897 
L 1241 4097 
L 1241 0 
L 628 0 
L 628 4666 
z
" transform="scale(0.015625)"/>
     </defs>
     <use xlink:href="#DejaVuSans-4d"/>
     <use xlink:href="#DejaVuSans-20" x="86.279297"/>
     <use xlink:href="#DejaVuSans-5b" x="118.066406"/>
     <use xlink:href="#DejaVuSans-31" x="157.080078"/>
     <use xlink:href="#DejaVuSans-34" x="220.703125"/>
     <use xlink:href="#DejaVuSans-5d" x="284.326172"/>
    </g>
   </g>
   <g id="text_12">
    <!-- N [18] -->
    <g transform="translate(13.766764 197.253794) scale(0.1 -0.1)">
     <defs>
      <path id="DejaVuSans-4e" d="M 628 4666 
L 1478 4666 
L 3547 763 
L 3547 4666 
L 4159 4666 
L 4159 0 
L 3309 0 
L 1241 3903 
L 1241 0 
L 628 0 
L 628 4666 
z
" transform="scale(0.015625)"/>
     </defs>
     <use xlink:href="#DejaVuSans-4e"/>
     <use xlink:href="#DejaVuSans-20" x="74.804688"/>
     <use xlink:href="#DejaVuSans-5b" x="106.591797"/>
     <use xlink:href="#DejaVuSans-31" x="145.605469"/>
     <use xlink:href="#DejaVuSans-38" x="209.228516"/>
     <use xlink:href="#DejaVuSans-5d" x="272.851562"/>
    </g>
   </g>
   <g id="text_13">
    <!-- P [24] -->
    <g transform="translate(29.113782 228.082897) scale(0.1 -0.1)">
     <defs>
      <path id="DejaVuSans-50" d="M 1259 4147 
L 1259 2394 
L 2053 2394 
Q 2494 2394 2734 2622 
Q 2975 2850 2975 3272 
Q 2975 3691 2734 3919 
Q 2494 4147 2053 4147 
L 1259 4147 
z
M 628 4666 
L 2053 4666 
Q 2838 4666 3239 4311 
Q 3641 3956 3641 3272 
Q 3641 2581 3239 2228 
Q 2838 1875 2053 1875 
L 1259 1875 
L 1259 0 
L 628 0 
L 628 4666 
z
" transform="scale(0.015625)"/>
     </defs>
     <use xlink:href="#DejaVuSans-50"/>
     <use xlink:href="#DejaVuSans-20" x="60.302734"/>
     <use xlink:href="#DejaVuSans-5b" x="92.089844"/>
     <use xlink:href="#DejaVuSans-32" x="131.103516"/>
     <use xlink:href="#DejaVuSans-34" x="194.726562"/>
     <use xlink:href="#DejaVuSans-5d" x="258.349609"/>
    </g>
   </g>
   <g id="text_14">
    <!-- Q [13] -->
    <g transform="translate(45.29789 251.820381) scale(0.1 -0.1)">
     <defs>
      <path id="DejaVuSans-51" d="M 2522 4238 
Q 1834 4238 1429 3725 
Q 1025 3213 1025 2328 
Q 1025 1447 1429 934 
Q 1834 422 2522 422 
Q 3209 422 3611 934 
Q 4013 1447 4013 2328 
Q 4013 3213 3611 3725 
Q 3209 4238 2522 4238 
z
M 3406 84 
L 4238 -825 
L 3475 -825 
L 2784 -78 
Q 2681 -84 2626 -87 
Q 2572 -91 2522 -91 
Q 1538 -91 948 567 
Q 359 1225 359 2328 
Q 359 3434 948 4092 
Q 1538 4750 2522 4750 
Q 3503 4750 4090 4092 
Q 4678 3434 4678 2328 
Q 4678 1516 4351 937 
Q 4025 359 3406 84 
z
" transform="scale(0.015625)"/>
     </defs>
     <use xlink:href="#DejaVuSans-51"/>
     <use xlink:href="#DejaVuSans-20" x="78.710938"/>
     <use xlink:href="#DejaVuSans-5b" x="110.498047"/>
     <use xlink:href="#DejaVuSans-31" x="149.511719"/>
     <use xlink:href="#DejaVuSans-33" x="213.134766"/>
     <use xlink:href="#DejaVuSans-5d" x="276.757812"/>
    </g>
   </g>
   <g id="text_15">
    <!-- R [32] -->
    <g transform="translate(74.230884 274.782096) scale(0.1 -0.1)">
     <defs>
      <path id="DejaVuSans-52" d="M 2841 2188 
Q 3044 2119 3236 1894 
Q 3428 1669 3622 1275 
L 4263 0 
L 3584 0 
L 2988 1197 
Q 2756 1666 2539 1819 
Q 2322 1972 1947 1972 
L 1259 1972 
L 1259 0 
L 628 0 
L 628 4666 
L 2053 4666 
Q 2853 4666 3247 4331 
Q 3641 3997 3641 3322 
Q 3641 2881 3436 2590 
Q 3231 2300 2841 2188 
z
M 1259 4147 
L 1259 2491 
L 2053 2491 
Q 2509 2491 2742 2702 
Q 2975 2913 2975 3322 
Q 2975 3731 2742 3939 
Q 2509 4147 2053 4147 
L 1259 4147 
z
" transform="scale(0.015625)"/>
     </defs>
     <use xlink:href="#DejaVuSans-52"/>
     <use xlink:href="#DejaVuSans-20" x="69.482422"/>
     <use xlink:href="#DejaVuSans-5b" x="101.269531"/>
     <use xlink:href="#DejaVuSans-33" x="140.283203"/>
     <use xlink:href="#DejaVuSans-32" x="203.90625"/>
     <use xlink:href="#DejaVuSans-5d" x="267.529297"/>
    </g>
   </g>
   <g id="text_16">
    <!-- S [52] -->
    <g transform="translate(138.617122 295.749903) scale(0.1 -0.1)">
     <defs>
      <path id="DejaVuSans-53" d="M 3425 4513 
L 3425 3897 
Q 3066 4069 2747 4153 
Q 2428 4238 2131 4238 
Q 1616 4238 1336 4038 
Q 1056 3838 1056 3469 
Q 1056 3159 1242 3001 
Q 1428 2844 1947 2747 
L 2328 2669 
Q 3034 2534 3370 2195 
Q 3706 1856 3706 1288 
Q 3706 609 3251 259 
Q 2797 -91 1919 -91 
Q 1588 -91 1214 -16 
Q 841 59 441 206 
L 441 856 
Q 825 641 1194 531 
Q 1563 422 1919 422 
Q 2459 422 2753 634 
Q 3047 847 3047 1241 
Q 3047 1584 2836 1778 
Q 2625 1972 2144 2069 
L 1759 2144 
Q 1053 2284 737 2584 
Q 422 2884 422 3419 
Q 422 4038 858 4394 
Q 1294 4750 2059 4750 
Q 2388 4750 2728 4690 
Q 3069 4631 3425 4513 
z
" transform="scale(0.015625)"/>
     </defs>
     <use xlink:href="#DejaVuSans-53"/>
     <use xlink:href="#DejaVuSans-20" x="63.476562"/>
     <use xlink:href="#DejaVuSans-5b" x="95.263672"/>
     <use xlink:href="#DejaVuSans-35" x="134.277344"/>
     <use xlink:href="#DejaVuSans-32" x="197.900391"/>
     <use xlink:href="#DejaVuSans-5d" x="261.523438"/>
    </g>
   </g>
   <g id="text_17">
    <!-- T [34] -->
    <g transform="translate(236.405889 284.205814) scale(0.1 -0.1)">
     <defs>
      <path id="DejaVuSans-54" d="M -19 4666 
L 3928 4666 
L 3928 4134 
L 2272 4134 
L 2272 0 
L 1638 0 
L 1638 4134 
L -19 4134 
L -19 4666 
z
" transform="scale(0.015625)"/>
     </defs>
     <use xlink:href="#DejaVuSans-54"/>
     <use xlink:href="#DejaVuSans-20" x="61.083984"/>
     <use xlink:href="#DejaVuSans-5b" x="92.871094"/>
     <use xlink:href="#DejaVuSans-33" x="131.884766"/>
     <use xlink:href="#DejaVuSans-34" x="195.507812"/>
     <use xlink:href="#DejaVuSans-5d" x="259.130859"/>
    </g>
   </g>
   <g id="text_18">
    <!-- V [53] -->
    <g transform="translate(291.142846 241.390157) scale(0.1 -0.1)">
     <defs>
      <path id="DejaVuSans-56" d="M 1831 0 
L 50 4666 
L 709 4666 
L 2188 738 
L 3669 4666 
L 4325 4666 
L 2547 0 
L 1831 0 
z
" transform="scale(0.015625)"/>
     </defs>
     <use xlink:href="#DejaVuSans-56"/>
     <use xlink:href="#DejaVuSans-20" x="68.408203"/>
     <use xlink:href="#DejaVuSans-5b" x="100.195312"/>
     <use xlink:href="#DejaVuSans-35" x="139.208984"/>
     <use xlink:href="#DejaVuSans-33" x="202.832031"/>
     <use xlink:href="#DejaVuSans-5d" x="266.455078"/>
    </g>
   </g>
   <g id="text_19">
    <!-- W [13] -->
    <g transform="translate(315.087745 194.162051) scale(0.1 -0.1)">
     <defs>
      <path id="DejaVuSans-57" d="M 213 4666 
L 850 4666 
L 1831 722 
L 2809 4666 
L 3519 4666 
L 4500 722 
L 5478 4666 
L 6119 4666 
L 4947 0 
L 4153 0 
L 3169 4050 
L 2175 0 
L 1381 0 
L 213 4666 
z
" transform="scale(0.015625)"/>
     </defs>
     <use xlink:href="#DejaVuSans-57"/>
     <use xlink:href="#DejaVuSans-20" x="98.876953"/>
     <use xlink:href="#DejaVuSans-5b" x="130.664062"/>
     <use xlink:href="#DejaVuSans-31" x="169.677734"/>
     <use xlink:href="#DejaVuSans-33" x="233.300781"/>
     <use xlink:href="#DejaVuSans-5d" x="296.923828"/>
    </g>
   </g>
   <g id="text_20">
    <!-- Y [18] -->
    <g transform="translate(319.848427 169.633006) scale(0.1 -0.1)">
     <defs>
      <path id="DejaVuSans-59" d="M -13 4666 
L 666 4666 
L 1959 2747 
L 3244 4666 
L 3922 4666 
L 2272 2222 
L 2272 0 
L 1638 0 
L 1638 2222 
L -13 4666 
z
" transform="scale(0.015625)"/>
     </defs>
     <use xlink:href="#DejaVuSans-59"/>
     <use xlink:href="#DejaVuSans-20" x="61.083984"/>
     <use xlink:href="#DejaVuSans-5b" x="92.871094"/>
     <use xlink:href="#DejaVuSans-31" x="131.884766"/>
     <use xlink:href="#DejaVuSans-38" x="195.507812"/>
     <use xlink:href="#DejaVuSans-5d" x="259.130859"/>
    </g>
   </g>
   <g id="text_21">
    <!-- A0A2I2U9P3 [549] -->
    <g transform="translate(124.440031 152.371815) scale(0.12 -0.12)">
     <defs>
      <path id="DejaVuSans-55" d="M 556 4666 
L 1191 4666 
L 1191 1831 
Q 1191 1081 1462 751 
Q 1734 422 2344 422 
Q 2950 422 3222 751 
Q 3494 1081 3494 1831 
L 3494 4666 
L 4128 4666 
L 4128 1753 
Q 4128 841 3676 375 
Q 3225 -91 2344 -91 
Q 1459 -91 1007 375 
Q 556 841 556 1753 
L 556 4666 
z
" transform="scale(0.015625)"/>
     </defs>
     <use xlink:href="#DejaVuSans-41"/>
     <use xlink:href="#DejaVuSans-30" x="68.408203"/>
     <use xlink:href="#DejaVuSans-41" x="132.03125"/>
     <use xlink:href="#DejaVuSans-32" x="200.439453"/>
     <use xlink:href="#DejaVuSans-49" x="264.0625"/>
     <use xlink:href="#DejaVuSans-32" x="293.554688"/>
     <use xlink:href="#DejaVuSans-55" x="357.177734"/>
     <use xlink:href="#DejaVuSans-39" x="430.371094"/>
     <use xlink:href="#DejaVuSans-50" x="493.994141"/>
     <use xlink:href="#DejaVuSans-33" x="554.296875"/>
     <use xlink:href="#DejaVuSans-20" x="617.919922"/>
     <use xlink:href="#DejaVuSans-5b" x="649.707031"/>
     <use xlink:href="#DejaVuSans-35" x="688.720703"/>
     <use xlink:href="#DejaVuSans-34" x="752.34375"/>
     <use xlink:href="#DejaVuSans-39" x="815.966797"/>
     <use xlink:href="#DejaVuSans-5d" x="879.589844"/>
    </g>
   </g>
  </g>
 </g>
</svg>
