<?xml version="1.0" encoding="utf-8" standalone="no"?>
<!DOCTYPE svg PUBLIC "-//W3C//DTD SVG 1.1//EN"
  "http://www.w3.org/Graphics/SVG/1.1/DTD/svg11.dtd">
<svg xmlns:xlink="http://www.w3.org/1999/xlink" width="350.111799pt" height="305.629616pt" viewBox="0 0 350.111799 305.629616" xmlns="http://www.w3.org/2000/svg" version="1.1">
 <metadata>
  <rdf:RDF xmlns:dc="http://purl.org/dc/elements/1.1/" xmlns:cc="http://creativecommons.org/ns#" xmlns:rdf="http://www.w3.org/1999/02/22-rdf-syntax-ns#">
   <cc:Work>
    <dc:type rdf:resource="http://purl.org/dc/dcmitype/StillImage"/>
    <dc:date>2024-09-27T16:07:15.032046</dc:date>
    <dc:format>image/svg+xml</dc:format>
    <dc:creator>
     <cc:Agent>
      <dc:title>Matplotlib v3.8.3, https://matplotlib.org/</dc:title>
     </cc:Agent>
    </dc:creator>
   </cc:Work>
  </rdf:RDF>
 </metadata>
 <defs>
  <style type="text/css">*{stroke-linejoin: round; stroke-linecap: butt}</style>
 </defs>
 <g id="figure_1">
  <g id="patch_1">
   <path d="M 0 305.629616 
L 350.111799 305.629616 
L 350.111799 0 
L 0 0 
z
" style="fill: #ffffff"/>
  </g>
  <g id="axes_1">
   <g id="patch_2">
    <path d="M 305.693005 152.689224 
C 305.693005 130.390164 299.853733 108.475026 288.758318 89.132331 
C 277.662904 69.789635 261.693406 53.685428 242.444593 42.427929 
L 177.959245 152.689224 
z
" style="fill: #1f77b4"/>
   </g>
   <g id="patch_3">
    <path d="M 242.19995 42.206781 
C 238.185451 39.858937 234.045723 37.732089 229.799261 35.835741 
C 225.5528 33.939393 221.205939 32.276373 216.778102 30.854112 
L 177.714601 152.468077 
z
" style="fill: #ff7f0e"/>
   </g>
   <g id="patch_4">
    <path d="M 216.676398 30.820499 
C 212.930031 29.617132 209.130058 28.58752 205.288639 27.734958 
C 201.44722 26.882395 197.568457 26.207793 193.664761 25.713308 
L 177.612898 152.434463 
z
" style="fill: #aec7e8"/>
   </g>
   <g id="patch_5">
    <path d="M 193.571792 25.701135 
C 190.023086 25.251618 186.457064 24.951366 182.883156 24.801174 
C 179.309248 24.650982 175.730608 24.650982 172.1567 24.801174 
L 177.519929 152.42229 
z
" style="fill: #ffbb78"/>
   </g>
   <g id="patch_6">
    <path d="M 172.04977 24.807469 
C 167.045593 25.017768 162.058114 25.522214 157.113175 26.318194 
C 152.168235 27.114175 147.27439 28.200312 142.456996 29.570979 
L 177.412999 152.428585 
z
" style="fill: #98df8a"/>
   </g>
   <g id="patch_7">
    <path d="M 142.250086 29.651137 
C 129.842523 33.181393 118.041035 38.570952 107.24782 45.636136 
C 96.454605 52.70132 86.793685 61.360945 78.594309 71.319887 
L 177.206089 152.508742 
z
" style="fill: #2ca02c"/>
   </g>
   <g id="patch_8">
    <path d="M 78.463787 71.440897 
C 77.554452 72.545372 76.663738 73.665047 75.79202 74.799447 
C 74.920302 75.933846 74.067704 77.082811 73.234586 78.245855 
L 177.075567 152.629752 
z
" style="fill: #d62728"/>
   </g>
   <g id="patch_9">
    <path d="M 73.213763 78.274925 
C 72.380646 79.437968 71.567127 80.614927 70.77355 81.805301 
C 69.979974 82.995676 69.206452 84.199299 68.453313 85.415661 
L 177.054744 152.658822 
z
" style="fill: #9467bd"/>
   </g>
   <g id="patch_10">
    <path d="M 68.441308 85.434515 
C 68.253027 85.738598 68.066025 86.043472 67.880305 86.349126 
C 67.694585 86.654781 67.51015 86.961214 67.327004 87.268418 
L 177.042739 152.677676 
z
" style="fill: #ff9896"/>
   </g>
   <g id="patch_11">
    <path d="M 67.249699 87.535846 
C 55.830908 106.689418 49.624304 128.503368 49.249698 150.799282 
C 48.875093 173.095196 54.345384 195.105335 65.114292 214.631695 
L 176.965433 152.945104 
z
" style="fill: #c5b0d5"/>
   </g>
   <g id="patch_12">
    <path d="M 65.18257 214.901569 
C 65.355292 215.214752 65.529329 215.527208 65.704676 215.838929 
C 65.880023 216.150651 66.056678 216.461634 66.234637 216.771871 
L 177.033711 153.214978 
z
" style="fill: #c49c94"/>
   </g>
   <g id="patch_13">
    <path d="M 66.243665 216.787307 
C 66.777548 217.718029 67.323138 218.641987 67.880304 219.558962 
C 68.43747 220.475936 69.006167 221.385854 69.586262 222.288498 
L 177.042739 153.230414 
z
" style="fill: #8c564b"/>
   </g>
   <g id="patch_14">
    <path d="M 69.672751 222.396288 
C 75.093125 230.830553 81.487707 238.597397 88.724341 245.536302 
C 95.960975 252.475207 103.989463 258.538039 112.643878 263.599498 
L 177.129228 153.338203 
z
" style="fill: #e377c2"/>
   </g>
   <g id="patch_15">
    <path d="M 112.771006 263.689757 
C 114.932278 264.953758 117.130247 266.15394 119.362064 267.288747 
C 121.593881 268.423554 123.858581 269.492496 126.153229 270.494187 
L 177.256356 153.428463 
z
" style="fill: #7f7f7f"/>
   </g>
   <g id="patch_16">
    <path d="M 126.354258 270.550473 
C 139.496349 276.287438 153.511177 279.770614 167.809929 280.853662 
C 182.108682 281.936709 196.488267 280.604245 210.344547 276.91225 
L 177.457384 153.484749 
z
" style="fill: #f7b6d2"/>
   </g>
   <g id="patch_17">
    <path d="M 210.657283 276.838695 
C 222.080183 273.795072 233.025465 269.180389 243.179376 263.12693 
C 253.333288 257.07347 262.597872 249.639632 270.707557 241.038509 
L 177.770121 153.411194 
z
" style="fill: #c7c7c7"/>
   </g>
   <g id="patch_18">
    <path d="M 270.851526 240.912697 
C 273.305446 238.310072 275.648957 235.605516 277.875861 232.806182 
C 280.102765 230.006847 282.211098 227.115204 284.195284 224.138901 
L 177.914089 153.285381 
z
" style="fill: #dbdb8d"/>
   </g>
   <g id="patch_19">
    <path d="M 284.262904 224.028658 
C 288.034302 218.371513 291.348008 212.422271 294.172425 206.237661 
C 296.996841 200.053051 299.322963 193.652794 301.128607 187.09792 
L 177.98171 153.175139 
z
" style="fill: #bcbd22"/>
   </g>
   <g id="patch_20">
    <path d="M 301.165925 186.983397 
C 301.925865 184.224653 302.592888 181.441152 303.165865 178.637606 
C 303.738842 175.83406 304.21745 173.012051 304.600878 170.176357 
L 178.019027 153.060616 
z
" style="fill: #17becf"/>
   </g>
   <g id="patch_21">
    <path d="M 304.610455 170.105525 
C 304.993883 167.269831 305.281914 164.422054 305.474062 161.567014 
C 305.66621 158.711974 305.762365 155.851283 305.762365 152.989784 
L 178.028605 152.989783 
z
" style="fill: #9edae5"/>
   </g>
   <g id="patch_22">
    <path d="M 252.008942 152.954045 
C 252.008942 139.946259 248.6027 127.162429 242.130375 115.87919 
C 235.65805 104.595951 226.34251 95.20183 215.114035 88.634956 
L 177.497582 152.954045 
z
" style="fill: #ffffff"/>
   </g>
   <g id="patch_23">
    <path d="M 215.114035 88.634956 
C 212.772244 87.26538 210.357403 86.024719 207.8803 84.918516 
C 205.403198 83.812313 202.867529 82.842218 200.284624 82.012565 
L 177.497582 152.954045 
z
" style="fill: #ffffff"/>
   </g>
   <g id="patch_24">
    <path d="M 200.284624 82.012565 
C 198.099243 81.310601 195.882592 80.709994 193.641765 80.212666 
C 191.400937 79.715338 189.138325 79.32182 186.861169 79.033371 
L 177.497582 152.954045 
z
" style="fill: #ffffff"/>
   </g>
   <g id="patch_25">
    <path d="M 186.861169 79.033371 
C 184.791091 78.771153 182.710911 78.596006 180.626131 78.508394 
C 178.541352 78.420782 176.453811 78.420782 174.369032 78.508394 
L 177.497582 152.954045 
z
" style="fill: #ffffff"/>
   </g>
   <g id="patch_26">
    <path d="M 174.369032 78.508394 
C 171.449928 78.631068 168.540566 78.925328 165.656018 79.38965 
C 162.771469 79.853972 159.916727 80.487552 157.10658 81.287108 
L 177.497582 152.954045 
z
" style="fill: #ffffff"/>
   </g>
   <g id="patch_27">
    <path d="M 157.10658 81.287108 
C 149.868835 83.346424 142.984634 86.490334 136.688592 90.611691 
C 130.39255 94.733048 124.757013 99.784496 119.974043 105.593879 
L 177.497582 152.954045 
z
" style="fill: #ffffff"/>
   </g>
   <g id="patch_28">
    <path d="M 119.974043 105.593879 
C 119.443598 106.238157 118.924015 106.8913 118.415513 107.553033 
C 117.90701 108.214767 117.409662 108.884996 116.923677 109.563438 
L 177.497582 152.954045 
z
" style="fill: #ffffff"/>
   </g>
   <g id="patch_29">
    <path d="M 116.923677 109.563438 
C 116.437691 110.24188 115.963139 110.928439 115.500219 111.622824 
C 115.0373 112.31721 114.586079 113.019323 114.146748 113.728867 
L 177.497582 152.954045 
z
" style="fill: #ffffff"/>
   </g>
   <g id="patch_30">
    <path d="M 114.146748 113.728867 
C 114.036917 113.90625 113.927832 114.084092 113.819496 114.262391 
C 113.711159 114.440689 113.603572 114.619442 113.496737 114.798644 
L 177.497582 152.954045 
z
" style="fill: #ffffff"/>
   </g>
   <g id="patch_31">
    <path d="M 113.496737 114.798644 
C 106.835776 125.971561 103.215257 138.696366 102.996737 151.702315 
C 102.778217 164.708265 105.96922 177.547513 112.251083 188.93789 
L 177.497582 152.954045 
z
" style="fill: #ffffff"/>
   </g>
   <g id="patch_32">
    <path d="M 112.251083 188.93789 
C 112.351838 189.12058 112.453359 189.302846 112.555645 189.484683 
C 112.65793 189.66652 112.760979 189.847927 112.864789 190.028899 
L 177.497582 152.954045 
z
" style="fill: #ffffff"/>
   </g>
   <g id="patch_33">
    <path d="M 112.864789 190.028899 
C 113.176221 190.57182 113.494482 191.110796 113.819495 191.645698 
C 114.144509 192.1806 114.476249 192.711385 114.814637 193.237927 
L 177.497582 152.954045 
z
" style="fill: #ffffff"/>
   </g>
   <g id="patch_34">
    <path d="M 114.814637 193.237927 
C 117.976522 198.157915 121.706695 202.688574 125.928064 206.736269 
C 130.149434 210.783963 134.832719 214.320615 139.881128 217.273133 
L 177.497582 152.954045 
z
" style="fill: #ffffff"/>
   </g>
   <g id="patch_35">
    <path d="M 139.881128 217.273133 
C 141.14187 218.010467 142.424018 218.710573 143.725912 219.372544 
C 145.027805 220.034515 146.34888 220.658064 147.687425 221.242384 
L 177.497582 152.954045 
z
" style="fill: #ffffff"/>
   </g>
   <g id="patch_36">
    <path d="M 147.687425 221.242384 
C 155.353645 224.588947 163.528961 226.6208 171.8699 227.252577 
C 180.210839 227.884355 188.59893 227.107084 196.68176 224.95342 
L 177.497582 152.954045 
z
" style="fill: #ffffff"/>
   </g>
   <g id="patch_37">
    <path d="M 196.68176 224.95342 
C 203.345119 223.177974 209.729866 220.486076 215.652981 216.954891 
C 221.576096 213.423706 226.980437 209.0873 231.711087 204.069979 
L 177.497582 152.954045 
z
" style="fill: #ffffff"/>
   </g>
   <g id="patch_38">
    <path d="M 231.711087 204.069979 
C 233.14254 202.551781 234.509588 200.974123 235.808615 199.341178 
C 237.107643 197.708233 238.337504 196.021441 239.494945 194.285264 
L 177.497582 152.954045 
z
" style="fill: #ffffff"/>
   </g>
   <g id="patch_39">
    <path d="M 239.494945 194.285264 
C 241.694927 190.985263 243.627923 187.514872 245.275499 183.907183 
C 246.923075 180.299494 248.279979 176.56601 249.333272 172.742334 
L 177.497582 152.954045 
z
" style="fill: #ffffff"/>
   </g>
   <g id="patch_40">
    <path d="M 249.333272 172.742334 
C 249.776571 171.133067 250.165667 169.509358 250.499904 167.873956 
C 250.834141 166.238554 251.113329 164.592382 251.336995 162.938227 
L 177.497582 152.954045 
z
" style="fill: #ffffff"/>
   </g>
   <g id="patch_41">
    <path d="M 251.336995 162.938227 
C 251.560661 161.284073 251.728679 159.622869 251.840765 157.957429 
C 251.952852 156.291989 252.008942 154.623253 252.008942 152.954045 
L 177.497582 152.954045 
z
" style="fill: #ffffff"/>
   </g>
   <g id="matplotlib.axis_1"/>
   <g id="matplotlib.axis_2"/>
   <g id="text_1">
    <!-- A [62] -->
    <g transform="translate(299.838226 85.536016) scale(0.1 -0.1)">
     <defs>
      <path id="DejaVuSans-41" d="M 2188 4044 
L 1331 1722 
L 3047 1722 
L 2188 4044 
z
M 1831 4666 
L 2547 4666 
L 4325 0 
L 3669 0 
L 3244 1197 
L 1141 1197 
L 716 0 
L 50 0 
L 1831 4666 
z
" transform="scale(0.015625)"/>
      <path id="DejaVuSans-20" transform="scale(0.015625)"/>
      <path id="DejaVuSans-5b" d="M 550 4863 
L 1875 4863 
L 1875 4416 
L 1125 4416 
L 1125 -397 
L 1875 -397 
L 1875 -844 
L 550 -844 
L 550 4863 
z
" transform="scale(0.015625)"/>
      <path id="DejaVuSans-36" d="M 2113 2584 
Q 1688 2584 1439 2293 
Q 1191 2003 1191 1497 
Q 1191 994 1439 701 
Q 1688 409 2113 409 
Q 2538 409 2786 701 
Q 3034 994 3034 1497 
Q 3034 2003 2786 2293 
Q 2538 2584 2113 2584 
z
M 3366 4563 
L 3366 3988 
Q 3128 4100 2886 4159 
Q 2644 4219 2406 4219 
Q 1781 4219 1451 3797 
Q 1122 3375 1075 2522 
Q 1259 2794 1537 2939 
Q 1816 3084 2150 3084 
Q 2853 3084 3261 2657 
Q 3669 2231 3669 1497 
Q 3669 778 3244 343 
Q 2819 -91 2113 -91 
Q 1303 -91 875 529 
Q 447 1150 447 2328 
Q 447 3434 972 4092 
Q 1497 4750 2381 4750 
Q 2619 4750 2861 4703 
Q 3103 4656 3366 4563 
z
" transform="scale(0.015625)"/>
      <path id="DejaVuSans-32" d="M 1228 531 
L 3431 531 
L 3431 0 
L 469 0 
L 469 531 
Q 828 903 1448 1529 
Q 2069 2156 2228 2338 
Q 2531 2678 2651 2914 
Q 2772 3150 2772 3378 
Q 2772 3750 2511 3984 
Q 2250 4219 1831 4219 
Q 1534 4219 1204 4116 
Q 875 4013 500 3803 
L 500 4441 
Q 881 4594 1212 4672 
Q 1544 4750 1819 4750 
Q 2544 4750 2975 4387 
Q 3406 4025 3406 3419 
Q 3406 3131 3298 2873 
Q 3191 2616 2906 2266 
Q 2828 2175 2409 1742 
Q 1991 1309 1228 531 
z
" transform="scale(0.015625)"/>
      <path id="DejaVuSans-5d" d="M 1947 4863 
L 1947 -844 
L 622 -844 
L 622 -397 
L 1369 -397 
L 1369 4416 
L 622 4416 
L 622 4863 
L 1947 4863 
z
" transform="scale(0.015625)"/>
     </defs>
     <use xlink:href="#DejaVuSans-41"/>
     <use xlink:href="#DejaVuSans-20" x="68.408203"/>
     <use xlink:href="#DejaVuSans-5b" x="100.195312"/>
     <use xlink:href="#DejaVuSans-36" x="139.208984"/>
     <use xlink:href="#DejaVuSans-32" x="202.832031"/>
     <use xlink:href="#DejaVuSans-5d" x="266.455078"/>
    </g>
   </g>
   <g id="text_2">
    <!-- C [13] -->
    <g transform="translate(235.007727 26.931883) scale(0.1 -0.1)">
     <defs>
      <path id="DejaVuSans-43" d="M 4122 4306 
L 4122 3641 
Q 3803 3938 3442 4084 
Q 3081 4231 2675 4231 
Q 1875 4231 1450 3742 
Q 1025 3253 1025 2328 
Q 1025 1406 1450 917 
Q 1875 428 2675 428 
Q 3081 428 3442 575 
Q 3803 722 4122 1019 
L 4122 359 
Q 3791 134 3420 21 
Q 3050 -91 2638 -91 
Q 1578 -91 968 557 
Q 359 1206 359 2328 
Q 359 3453 968 4101 
Q 1578 4750 2638 4750 
Q 3056 4750 3426 4639 
Q 3797 4528 4122 4306 
z
" transform="scale(0.015625)"/>
      <path id="DejaVuSans-31" d="M 794 531 
L 1825 531 
L 1825 4091 
L 703 3866 
L 703 4441 
L 1819 4666 
L 2450 4666 
L 2450 531 
L 3481 531 
L 3481 0 
L 794 0 
L 794 531 
z
" transform="scale(0.015625)"/>
      <path id="DejaVuSans-33" d="M 2597 2516 
Q 3050 2419 3304 2112 
Q 3559 1806 3559 1356 
Q 3559 666 3084 287 
Q 2609 -91 1734 -91 
Q 1441 -91 1130 -33 
Q 819 25 488 141 
L 488 750 
Q 750 597 1062 519 
Q 1375 441 1716 441 
Q 2309 441 2620 675 
Q 2931 909 2931 1356 
Q 2931 1769 2642 2001 
Q 2353 2234 1838 2234 
L 1294 2234 
L 1294 2753 
L 1863 2753 
Q 2328 2753 2575 2939 
Q 2822 3125 2822 3475 
Q 2822 3834 2567 4026 
Q 2313 4219 1838 4219 
Q 1578 4219 1281 4162 
Q 984 4106 628 3988 
L 628 4550 
Q 988 4650 1302 4700 
Q 1616 4750 1894 4750 
Q 2613 4750 3031 4423 
Q 3450 4097 3450 3541 
Q 3450 3153 3228 2886 
Q 3006 2619 2597 2516 
z
" transform="scale(0.015625)"/>
     </defs>
     <use xlink:href="#DejaVuSans-43"/>
     <use xlink:href="#DejaVuSans-20" x="69.824219"/>
     <use xlink:href="#DejaVuSans-5b" x="101.611328"/>
     <use xlink:href="#DejaVuSans-31" x="140.625"/>
     <use xlink:href="#DejaVuSans-33" x="204.248047"/>
     <use xlink:href="#DejaVuSans-5d" x="267.871094"/>
    </g>
   </g>
   <g id="text_3">
    <!-- D [11] -->
    <g transform="translate(208.056213 18.024382) scale(0.1 -0.1)">
     <defs>
      <path id="DejaVuSans-44" d="M 1259 4147 
L 1259 519 
L 2022 519 
Q 2988 519 3436 956 
Q 3884 1394 3884 2338 
Q 3884 3275 3436 3711 
Q 2988 4147 2022 4147 
L 1259 4147 
z
M 628 4666 
L 1925 4666 
Q 3281 4666 3915 4102 
Q 4550 3538 4550 2338 
Q 4550 1131 3912 565 
Q 3275 0 1925 0 
L 628 0 
L 628 4666 
z
" transform="scale(0.015625)"/>
     </defs>
     <use xlink:href="#DejaVuSans-44"/>
     <use xlink:href="#DejaVuSans-20" x="77.001953"/>
     <use xlink:href="#DejaVuSans-5b" x="108.789062"/>
     <use xlink:href="#DejaVuSans-31" x="147.802734"/>
     <use xlink:href="#DejaVuSans-31" x="211.425781"/>
     <use xlink:href="#DejaVuSans-5d" x="275.048828"/>
    </g>
   </g>
   <g id="text_4">
    <!-- E [10] -->
    <g transform="translate(183.419479 14.798437) scale(0.1 -0.1)">
     <defs>
      <path id="DejaVuSans-45" d="M 628 4666 
L 3578 4666 
L 3578 4134 
L 1259 4134 
L 1259 2753 
L 3481 2753 
L 3481 2222 
L 1259 2222 
L 1259 531 
L 3634 531 
L 3634 0 
L 628 0 
L 628 4666 
z
" transform="scale(0.015625)"/>
      <path id="DejaVuSans-30" d="M 2034 4250 
Q 1547 4250 1301 3770 
Q 1056 3291 1056 2328 
Q 1056 1369 1301 889 
Q 1547 409 2034 409 
Q 2525 409 2770 889 
Q 3016 1369 3016 2328 
Q 3016 3291 2770 3770 
Q 2525 4250 2034 4250 
z
M 2034 4750 
Q 2819 4750 3233 4129 
Q 3647 3509 3647 2328 
Q 3647 1150 3233 529 
Q 2819 -91 2034 -91 
Q 1250 -91 836 529 
Q 422 1150 422 2328 
Q 422 3509 836 4129 
Q 1250 4750 2034 4750 
z
" transform="scale(0.015625)"/>
     </defs>
     <use xlink:href="#DejaVuSans-45"/>
     <use xlink:href="#DejaVuSans-20" x="63.183594"/>
     <use xlink:href="#DejaVuSans-5b" x="94.970703"/>
     <use xlink:href="#DejaVuSans-31" x="133.984375"/>
     <use xlink:href="#DejaVuSans-30" x="197.607422"/>
     <use xlink:href="#DejaVuSans-5d" x="261.230469"/>
    </g>
   </g>
   <g id="text_5">
    <!-- F [14] -->
    <g transform="translate(125.62538 16.46653) scale(0.1 -0.1)">
     <defs>
      <path id="DejaVuSans-46" d="M 628 4666 
L 3309 4666 
L 3309 4134 
L 1259 4134 
L 1259 2759 
L 3109 2759 
L 3109 2228 
L 1259 2228 
L 1259 0 
L 628 0 
L 628 4666 
z
" transform="scale(0.015625)"/>
      <path id="DejaVuSans-34" d="M 2419 4116 
L 825 1625 
L 2419 1625 
L 2419 4116 
z
M 2253 4666 
L 3047 4666 
L 3047 1625 
L 3713 1625 
L 3713 1100 
L 3047 1100 
L 3047 0 
L 2419 0 
L 2419 1100 
L 313 1100 
L 313 1709 
L 2253 4666 
z
" transform="scale(0.015625)"/>
     </defs>
     <use xlink:href="#DejaVuSans-46"/>
     <use xlink:href="#DejaVuSans-20" x="57.519531"/>
     <use xlink:href="#DejaVuSans-5b" x="89.306641"/>
     <use xlink:href="#DejaVuSans-31" x="128.320312"/>
     <use xlink:href="#DejaVuSans-34" x="191.943359"/>
     <use xlink:href="#DejaVuSans-5d" x="255.566406"/>
    </g>
   </g>
   <g id="text_6">
    <!-- G [36] -->
    <g transform="translate(68.797306 37.70825) scale(0.1 -0.1)">
     <defs>
      <path id="DejaVuSans-47" d="M 3809 666 
L 3809 1919 
L 2778 1919 
L 2778 2438 
L 4434 2438 
L 4434 434 
Q 4069 175 3628 42 
Q 3188 -91 2688 -91 
Q 1594 -91 976 548 
Q 359 1188 359 2328 
Q 359 3472 976 4111 
Q 1594 4750 2688 4750 
Q 3144 4750 3555 4637 
Q 3966 4525 4313 4306 
L 4313 3634 
Q 3963 3931 3569 4081 
Q 3175 4231 2741 4231 
Q 1884 4231 1454 3753 
Q 1025 3275 1025 2328 
Q 1025 1384 1454 906 
Q 1884 428 2741 428 
Q 3075 428 3337 486 
Q 3600 544 3809 666 
z
" transform="scale(0.015625)"/>
     </defs>
     <use xlink:href="#DejaVuSans-47"/>
     <use xlink:href="#DejaVuSans-20" x="77.490234"/>
     <use xlink:href="#DejaVuSans-5b" x="109.277344"/>
     <use xlink:href="#DejaVuSans-33" x="148.291016"/>
     <use xlink:href="#DejaVuSans-36" x="211.914062"/>
     <use xlink:href="#DejaVuSans-5d" x="275.537109"/>
    </g>
   </g>
   <g id="text_7">
    <!-- H [4] -->
    <g transform="translate(40.799602 69.775791) scale(0.1 -0.1)">
     <defs>
      <path id="DejaVuSans-48" d="M 628 4666 
L 1259 4666 
L 1259 2753 
L 3553 2753 
L 3553 4666 
L 4184 4666 
L 4184 0 
L 3553 0 
L 3553 2222 
L 1259 2222 
L 1259 0 
L 628 0 
L 628 4666 
z
" transform="scale(0.015625)"/>
     </defs>
     <use xlink:href="#DejaVuSans-48"/>
     <use xlink:href="#DejaVuSans-20" x="75.195312"/>
     <use xlink:href="#DejaVuSans-5b" x="106.982422"/>
     <use xlink:href="#DejaVuSans-34" x="145.996094"/>
     <use xlink:href="#DejaVuSans-5d" x="209.619141"/>
    </g>
   </g>
   <g id="text_8">
    <!-- I [4] -->
    <g transform="translate(39.851681 77.479324) scale(0.1 -0.1)">
     <defs>
      <path id="DejaVuSans-49" d="M 628 4666 
L 1259 4666 
L 1259 0 
L 628 0 
L 628 4666 
z
" transform="scale(0.015625)"/>
     </defs>
     <use xlink:href="#DejaVuSans-49"/>
     <use xlink:href="#DejaVuSans-20" x="29.492188"/>
     <use xlink:href="#DejaVuSans-5b" x="61.279297"/>
     <use xlink:href="#DejaVuSans-34" x="100.292969"/>
     <use xlink:href="#DejaVuSans-5d" x="163.916016"/>
    </g>
   </g>
   <g id="text_9">
    <!-- K [1] -->
    <g transform="translate(33.062499 82.475646) scale(0.1 -0.1)">
     <defs>
      <path id="DejaVuSans-4b" d="M 628 4666 
L 1259 4666 
L 1259 2694 
L 3353 4666 
L 4166 4666 
L 1850 2491 
L 4331 0 
L 3500 0 
L 1259 2247 
L 1259 0 
L 628 0 
L 628 4666 
z
" transform="scale(0.015625)"/>
     </defs>
     <use xlink:href="#DejaVuSans-4b"/>
     <use xlink:href="#DejaVuSans-20" x="65.576172"/>
     <use xlink:href="#DejaVuSans-5b" x="97.363281"/>
     <use xlink:href="#DejaVuSans-31" x="136.376953"/>
     <use xlink:href="#DejaVuSans-5d" x="200"/>
    </g>
   </g>
   <g id="text_10">
    <!-- L [62] -->
    <g transform="translate(7.2 153.344075) scale(0.1 -0.1)">
     <defs>
      <path id="DejaVuSans-4c" d="M 628 4666 
L 1259 4666 
L 1259 531 
L 3531 531 
L 3531 0 
L 628 0 
L 628 4666 
z
" transform="scale(0.015625)"/>
     </defs>
     <use xlink:href="#DejaVuSans-4c"/>
     <use xlink:href="#DejaVuSans-20" x="55.712891"/>
     <use xlink:href="#DejaVuSans-5b" x="87.5"/>
     <use xlink:href="#DejaVuSans-36" x="126.513672"/>
     <use xlink:href="#DejaVuSans-32" x="190.136719"/>
     <use xlink:href="#DejaVuSans-5d" x="253.759766"/>
    </g>
   </g>
   <g id="text_11">
    <!-- M [1] -->
    <g transform="translate(28.599897 224.8607) scale(0.1 -0.1)">
     <defs>
      <path id="DejaVuSans-4d" d="M 628 4666 
L 1569 4666 
L 2759 1491 
L 3956 4666 
L 4897 4666 
L 4897 0 
L 4281 0 
L 4281 4097 
L 3078 897 
L 2444 897 
L 1241 4097 
L 1241 0 
L 628 0 
L 628 4666 
z
" transform="scale(0.015625)"/>
     </defs>
     <use xlink:href="#DejaVuSans-4d"/>
     <use xlink:href="#DejaVuSans-20" x="86.279297"/>
     <use xlink:href="#DejaVuSans-5b" x="118.066406"/>
     <use xlink:href="#DejaVuSans-31" x="157.080078"/>
     <use xlink:href="#DejaVuSans-5d" x="220.703125"/>
    </g>
   </g>
   <g id="text_12">
    <!-- N [3] -->
    <g transform="translate(32.13906 228.951192) scale(0.1 -0.1)">
     <defs>
      <path id="DejaVuSans-4e" d="M 628 4666 
L 1478 4666 
L 3547 763 
L 3547 4666 
L 4159 4666 
L 4159 0 
L 3309 0 
L 1241 3903 
L 1241 0 
L 628 0 
L 628 4666 
z
" transform="scale(0.015625)"/>
     </defs>
     <use xlink:href="#DejaVuSans-4e"/>
     <use xlink:href="#DejaVuSans-20" x="74.804688"/>
     <use xlink:href="#DejaVuSans-5b" x="106.591797"/>
     <use xlink:href="#DejaVuSans-33" x="145.605469"/>
     <use xlink:href="#DejaVuSans-5d" x="209.228516"/>
    </g>
   </g>
   <g id="text_13">
    <!-- P [28] -->
    <g transform="translate(50.147915 257.515487) scale(0.1 -0.1)">
     <defs>
      <path id="DejaVuSans-50" d="M 1259 4147 
L 1259 2394 
L 2053 2394 
Q 2494 2394 2734 2622 
Q 2975 2850 2975 3272 
Q 2975 3691 2734 3919 
Q 2494 4147 2053 4147 
L 1259 4147 
z
M 628 4666 
L 2053 4666 
Q 2838 4666 3239 4311 
Q 3641 3956 3641 3272 
Q 3641 2581 3239 2228 
Q 2838 1875 2053 1875 
L 1259 1875 
L 1259 0 
L 628 0 
L 628 4666 
z
" transform="scale(0.015625)"/>
      <path id="DejaVuSans-38" d="M 2034 2216 
Q 1584 2216 1326 1975 
Q 1069 1734 1069 1313 
Q 1069 891 1326 650 
Q 1584 409 2034 409 
Q 2484 409 2743 651 
Q 3003 894 3003 1313 
Q 3003 1734 2745 1975 
Q 2488 2216 2034 2216 
z
M 1403 2484 
Q 997 2584 770 2862 
Q 544 3141 544 3541 
Q 544 4100 942 4425 
Q 1341 4750 2034 4750 
Q 2731 4750 3128 4425 
Q 3525 4100 3525 3541 
Q 3525 3141 3298 2862 
Q 3072 2584 2669 2484 
Q 3125 2378 3379 2068 
Q 3634 1759 3634 1313 
Q 3634 634 3220 271 
Q 2806 -91 2034 -91 
Q 1263 -91 848 271 
Q 434 634 434 1313 
Q 434 1759 690 2068 
Q 947 2378 1403 2484 
z
M 1172 3481 
Q 1172 3119 1398 2916 
Q 1625 2713 2034 2713 
Q 2441 2713 2670 2916 
Q 2900 3119 2900 3481 
Q 2900 3844 2670 4047 
Q 2441 4250 2034 4250 
Q 1625 4250 1398 4047 
Q 1172 3844 1172 3481 
z
" transform="scale(0.015625)"/>
     </defs>
     <use xlink:href="#DejaVuSans-50"/>
     <use xlink:href="#DejaVuSans-20" x="60.302734"/>
     <use xlink:href="#DejaVuSans-5b" x="92.089844"/>
     <use xlink:href="#DejaVuSans-32" x="131.103516"/>
     <use xlink:href="#DejaVuSans-38" x="194.726562"/>
     <use xlink:href="#DejaVuSans-5d" x="258.349609"/>
    </g>
   </g>
   <g id="text_14">
    <!-- Q [7] -->
    <g transform="translate(88.35701 281.434151) scale(0.1 -0.1)">
     <defs>
      <path id="DejaVuSans-51" d="M 2522 4238 
Q 1834 4238 1429 3725 
Q 1025 3213 1025 2328 
Q 1025 1447 1429 934 
Q 1834 422 2522 422 
Q 3209 422 3611 934 
Q 4013 1447 4013 2328 
Q 4013 3213 3611 3725 
Q 3209 4238 2522 4238 
z
M 3406 84 
L 4238 -825 
L 3475 -825 
L 2784 -78 
Q 2681 -84 2626 -87 
Q 2572 -91 2522 -91 
Q 1538 -91 948 567 
Q 359 1225 359 2328 
Q 359 3434 948 4092 
Q 1538 4750 2522 4750 
Q 3503 4750 4090 4092 
Q 4678 3434 4678 2328 
Q 4678 1516 4351 937 
Q 4025 359 3406 84 
z
" transform="scale(0.015625)"/>
      <path id="DejaVuSans-37" d="M 525 4666 
L 3525 4666 
L 3525 4397 
L 1831 0 
L 1172 0 
L 2766 4134 
L 525 4134 
L 525 4666 
z
" transform="scale(0.015625)"/>
     </defs>
     <use xlink:href="#DejaVuSans-51"/>
     <use xlink:href="#DejaVuSans-20" x="78.710938"/>
     <use xlink:href="#DejaVuSans-5b" x="110.498047"/>
     <use xlink:href="#DejaVuSans-37" x="149.511719"/>
     <use xlink:href="#DejaVuSans-5d" x="213.134766"/>
    </g>
   </g>
   <g id="text_15">
    <!-- R [40] -->
    <g transform="translate(136.190496 296.349928) scale(0.1 -0.1)">
     <defs>
      <path id="DejaVuSans-52" d="M 2841 2188 
Q 3044 2119 3236 1894 
Q 3428 1669 3622 1275 
L 4263 0 
L 3584 0 
L 2988 1197 
Q 2756 1666 2539 1819 
Q 2322 1972 1947 1972 
L 1259 1972 
L 1259 0 
L 628 0 
L 628 4666 
L 2053 4666 
Q 2853 4666 3247 4331 
Q 3641 3997 3641 3322 
Q 3641 2881 3436 2590 
Q 3231 2300 2841 2188 
z
M 1259 4147 
L 1259 2491 
L 2053 2491 
Q 2509 2491 2742 2702 
Q 2975 2913 2975 3322 
Q 2975 3731 2742 3939 
Q 2509 4147 2053 4147 
L 1259 4147 
z
" transform="scale(0.015625)"/>
     </defs>
     <use xlink:href="#DejaVuSans-52"/>
     <use xlink:href="#DejaVuSans-20" x="69.482422"/>
     <use xlink:href="#DejaVuSans-5b" x="101.269531"/>
     <use xlink:href="#DejaVuSans-34" x="140.283203"/>
     <use xlink:href="#DejaVuSans-30" x="203.90625"/>
     <use xlink:href="#DejaVuSans-5d" x="267.529297"/>
    </g>
   </g>
   <g id="text_16">
    <!-- S [33] -->
    <g transform="translate(249.720302 276.857878) scale(0.1 -0.1)">
     <defs>
      <path id="DejaVuSans-53" d="M 3425 4513 
L 3425 3897 
Q 3066 4069 2747 4153 
Q 2428 4238 2131 4238 
Q 1616 4238 1336 4038 
Q 1056 3838 1056 3469 
Q 1056 3159 1242 3001 
Q 1428 2844 1947 2747 
L 2328 2669 
Q 3034 2534 3370 2195 
Q 3706 1856 3706 1288 
Q 3706 609 3251 259 
Q 2797 -91 1919 -91 
Q 1588 -91 1214 -16 
Q 841 59 441 206 
L 441 856 
Q 825 641 1194 531 
Q 1563 422 1919 422 
Q 2459 422 2753 634 
Q 3047 847 3047 1241 
Q 3047 1584 2836 1778 
Q 2625 1972 2144 2069 
L 1759 2144 
Q 1053 2284 737 2584 
Q 422 2884 422 3419 
Q 422 4038 858 4394 
Q 1294 4750 2059 4750 
Q 2388 4750 2728 4690 
Q 3069 4631 3425 4513 
z
" transform="scale(0.015625)"/>
     </defs>
     <use xlink:href="#DejaVuSans-53"/>
     <use xlink:href="#DejaVuSans-20" x="63.476562"/>
     <use xlink:href="#DejaVuSans-5b" x="95.263672"/>
     <use xlink:href="#DejaVuSans-33" x="134.277344"/>
     <use xlink:href="#DejaVuSans-33" x="197.900391"/>
     <use xlink:href="#DejaVuSans-5d" x="261.523438"/>
    </g>
   </g>
   <g id="text_17">
    <!-- T [10] -->
    <g transform="translate(287.872038 243.517637) scale(0.1 -0.1)">
     <defs>
      <path id="DejaVuSans-54" d="M -19 4666 
L 3928 4666 
L 3928 4134 
L 2272 4134 
L 2272 0 
L 1638 0 
L 1638 4134 
L -19 4134 
L -19 4666 
z
" transform="scale(0.015625)"/>
     </defs>
     <use xlink:href="#DejaVuSans-54"/>
     <use xlink:href="#DejaVuSans-20" x="61.083984"/>
     <use xlink:href="#DejaVuSans-5b" x="92.871094"/>
     <use xlink:href="#DejaVuSans-31" x="131.884766"/>
     <use xlink:href="#DejaVuSans-30" x="195.507812"/>
     <use xlink:href="#DejaVuSans-5d" x="259.130859"/>
    </g>
   </g>
   <g id="text_18">
    <!-- V [19] -->
    <g transform="translate(305.791496 214.303288) scale(0.1 -0.1)">
     <defs>
      <path id="DejaVuSans-56" d="M 1831 0 
L 50 4666 
L 709 4666 
L 2188 738 
L 3669 4666 
L 4325 4666 
L 2547 0 
L 1831 0 
z
" transform="scale(0.015625)"/>
      <path id="DejaVuSans-39" d="M 703 97 
L 703 672 
Q 941 559 1184 500 
Q 1428 441 1663 441 
Q 2288 441 2617 861 
Q 2947 1281 2994 2138 
Q 2813 1869 2534 1725 
Q 2256 1581 1919 1581 
Q 1219 1581 811 2004 
Q 403 2428 403 3163 
Q 403 3881 828 4315 
Q 1253 4750 1959 4750 
Q 2769 4750 3195 4129 
Q 3622 3509 3622 2328 
Q 3622 1225 3098 567 
Q 2575 -91 1691 -91 
Q 1453 -91 1209 -44 
Q 966 3 703 97 
z
M 1959 2075 
Q 2384 2075 2632 2365 
Q 2881 2656 2881 3163 
Q 2881 3666 2632 3958 
Q 2384 4250 1959 4250 
Q 1534 4250 1286 3958 
Q 1038 3666 1038 3163 
Q 1038 2656 1286 2365 
Q 1534 2075 1959 2075 
z
" transform="scale(0.015625)"/>
     </defs>
     <use xlink:href="#DejaVuSans-56"/>
     <use xlink:href="#DejaVuSans-20" x="68.408203"/>
     <use xlink:href="#DejaVuSans-5b" x="100.195312"/>
     <use xlink:href="#DejaVuSans-31" x="139.208984"/>
     <use xlink:href="#DejaVuSans-39" x="202.832031"/>
     <use xlink:href="#DejaVuSans-5d" x="266.455078"/>
    </g>
   </g>
   <g id="text_19">
    <!-- W [8] -->
    <g transform="translate(315.680549 183.95468) scale(0.1 -0.1)">
     <defs>
      <path id="DejaVuSans-57" d="M 213 4666 
L 850 4666 
L 1831 722 
L 2809 4666 
L 3519 4666 
L 4500 722 
L 5478 4666 
L 6119 4666 
L 4947 0 
L 4153 0 
L 3169 4050 
L 2175 0 
L 1381 0 
L 213 4666 
z
" transform="scale(0.015625)"/>
     </defs>
     <use xlink:href="#DejaVuSans-57"/>
     <use xlink:href="#DejaVuSans-20" x="98.876953"/>
     <use xlink:href="#DejaVuSans-5b" x="130.664062"/>
     <use xlink:href="#DejaVuSans-38" x="169.677734"/>
     <use xlink:href="#DejaVuSans-5d" x="233.300781"/>
    </g>
   </g>
   <g id="text_20">
    <!-- Y [8] -->
    <g transform="translate(318.218608 165.184112) scale(0.1 -0.1)">
     <defs>
      <path id="DejaVuSans-59" d="M -13 4666 
L 666 4666 
L 1959 2747 
L 3244 4666 
L 3922 4666 
L 2272 2222 
L 2272 0 
L 1638 0 
L 1638 2222 
L -13 4666 
z
" transform="scale(0.015625)"/>
     </defs>
     <use xlink:href="#DejaVuSans-59"/>
     <use xlink:href="#DejaVuSans-20" x="61.083984"/>
     <use xlink:href="#DejaVuSans-5b" x="92.871094"/>
     <use xlink:href="#DejaVuSans-38" x="131.884766"/>
     <use xlink:href="#DejaVuSans-5d" x="195.507812"/>
    </g>
   </g>
   <g id="text_21">
    <!-- A0A3Q1MCI3 [374] -->
    <g transform="translate(120.117895 152.954045) scale(0.12 -0.12)">
     <use xlink:href="#DejaVuSans-41"/>
     <use xlink:href="#DejaVuSans-30" x="68.408203"/>
     <use xlink:href="#DejaVuSans-41" x="132.03125"/>
     <use xlink:href="#DejaVuSans-33" x="200.439453"/>
     <use xlink:href="#DejaVuSans-51" x="264.0625"/>
     <use xlink:href="#DejaVuSans-31" x="342.773438"/>
     <use xlink:href="#DejaVuSans-4d" x="406.396484"/>
     <use xlink:href="#DejaVuSans-43" x="492.675781"/>
     <use xlink:href="#DejaVuSans-49" x="562.5"/>
     <use xlink:href="#DejaVuSans-33" x="591.992188"/>
     <use xlink:href="#DejaVuSans-20" x="655.615234"/>
     <use xlink:href="#DejaVuSans-5b" x="687.402344"/>
     <use xlink:href="#DejaVuSans-33" x="726.416016"/>
     <use xlink:href="#DejaVuSans-37" x="790.039062"/>
     <use xlink:href="#DejaVuSans-34" x="853.662109"/>
     <use xlink:href="#DejaVuSans-5d" x="917.285156"/>
    </g>
   </g>
  </g>
 </g>
</svg>
