<?xml version="1.0" encoding="utf-8" standalone="no"?>
<!DOCTYPE svg PUBLIC "-//W3C//DTD SVG 1.1//EN"
  "http://www.w3.org/Graphics/SVG/1.1/DTD/svg11.dtd">
<svg xmlns:xlink="http://www.w3.org/1999/xlink" width="356.199556pt" height="305.366326pt" viewBox="0 0 356.199556 305.366326" xmlns="http://www.w3.org/2000/svg" version="1.1">
 <metadata>
  <rdf:RDF xmlns:dc="http://purl.org/dc/elements/1.1/" xmlns:cc="http://creativecommons.org/ns#" xmlns:rdf="http://www.w3.org/1999/02/22-rdf-syntax-ns#">
   <cc:Work>
    <dc:type rdf:resource="http://purl.org/dc/dcmitype/StillImage"/>
    <dc:date>2024-09-27T16:07:22.996725</dc:date>
    <dc:format>image/svg+xml</dc:format>
    <dc:creator>
     <cc:Agent>
      <dc:title>Matplotlib v3.8.3, https://matplotlib.org/</dc:title>
     </cc:Agent>
    </dc:creator>
   </cc:Work>
  </rdf:RDF>
 </metadata>
 <defs>
  <style type="text/css">*{stroke-linejoin: round; stroke-linecap: butt}</style>
 </defs>
 <g id="figure_1">
  <g id="patch_1">
   <path d="M 0 305.366326 
L 356.199556 305.366326 
L 356.199556 0 
L 0 0 
z
" style="fill: #ffffff"/>
  </g>
  <g id="axes_1">
   <g id="patch_2">
    <path d="M 307.143613 152.643495 
C 307.143613 142.153454 305.851383 131.703248 303.296142 121.529177 
C 300.740902 111.355107 296.942057 101.534442 291.985509 92.289249 
L 179.409853 152.643495 
z
" style="fill: #1f77b4"/>
   </g>
   <g id="patch_3">
    <path d="M 291.918394 92.13325 
C 290.421616 89.341386 288.821498 86.606169 287.121361 83.933271 
C 285.421225 81.260374 283.622245 78.651646 281.728153 76.112499 
L 179.342738 152.487496 
z
" style="fill: #ff7f0e"/>
   </g>
   <g id="patch_4">
    <path d="M 281.674799 76.042241 
C 279.343471 72.916952 276.870268 69.900046 274.262959 67.001001 
C 271.65565 64.101957 268.916969 61.323813 266.05552 58.675299 
L 179.289383 152.417237 
z
" style="fill: #aec7e8"/>
   </g>
   <g id="patch_5">
    <path d="M 265.959429 58.591333 
C 261.308243 54.286265 256.343095 50.333327 251.105137 46.765283 
C 245.867179 43.19724 240.370924 40.023975 234.661929 37.271793 
L 179.193293 152.333272 
z
" style="fill: #ffbb78"/>
   </g>
   <g id="patch_6">
    <path d="M 234.522702 37.204183 
C 229.033473 34.557946 223.361909 32.307908 217.551477 30.471315 
C 211.741044 28.634723 205.806625 27.216279 199.793702 26.226855 
L 179.054066 152.265662 
z
" style="fill: #98df8a"/>
   </g>
   <g id="patch_7">
    <path d="M 199.598297 26.203259 
C 189.971235 24.61913 180.194295 24.143201 170.458888 24.78479 
C 160.723481 25.426379 151.093557 27.181272 141.757651 30.015111 
L 178.858661 152.242066 
z
" style="fill: #2ca02c"/>
   </g>
   <g id="patch_8">
    <path d="M 141.609189 30.046579 
C 139.277595 30.754316 136.96673 31.528623 134.67943 32.368552 
C 132.39213 33.20848 130.129332 34.113685 127.893814 35.083055 
L 178.710199 152.273534 
z
" style="fill: #d62728"/>
   </g>
   <g id="patch_9">
    <path d="M 127.792919 35.132766 
C 121.754431 37.751188 115.927344 40.832417 110.363738 44.348914 
C 104.800132 47.865411 99.51663 51.80667 94.560454 56.137465 
L 178.609304 152.323245 
z
" style="fill: #9467bd"/>
   </g>
   <g id="patch_10">
    <path d="M 94.453186 56.226952 
C 90.966381 59.273784 87.647829 62.507963 84.512228 65.915162 
C 81.376628 69.322362 78.428616 72.897544 75.681251 76.624872 
L 178.502036 152.412732 
z
" style="fill: #ff9896"/>
   </g>
   <g id="patch_11">
    <path d="M 75.560602 76.840922 
C 66.428571 89.230276 59.610549 103.168782 55.435924 117.983052 
C 51.261299 132.797322 49.798398 148.244888 51.117896 163.579457 
L 178.381387 152.628781 
z
" style="fill: #c5b0d5"/>
   </g>
   <g id="patch_12">
    <path d="M 51.104285 163.805719 
C 51.354966 166.71901 51.705608 169.622836 52.155593 172.512061 
C 52.605578 175.401287 53.15464 178.274209 53.801807 181.12575 
L 178.367776 152.855043 
z
" style="fill: #c49c94"/>
   </g>
   <g id="patch_13">
    <path d="M 53.824513 181.217265 
C 54.849347 185.732872 56.118964 190.189415 57.627742 194.567153 
C 59.136519 198.944891 60.882225 203.237351 62.857127 207.425519 
L 178.390482 152.946557 
z
" style="fill: #8c564b"/>
   </g>
   <g id="patch_14">
    <path d="M 62.9096 207.535168 
C 65.092506 212.164449 67.551674 216.658349 70.273801 220.992556 
C 72.995928 225.326762 75.976096 229.493445 79.198181 233.470063 
L 178.442955 153.056206 
z
" style="fill: #e377c2"/>
   </g>
   <g id="patch_15">
    <path d="M 79.263507 233.554071 
C 81.411205 236.204706 83.664231 238.768237 86.017165 241.238495 
C 88.3701 243.708754 90.821053 246.083757 93.36413 248.357792 
L 178.50828 153.140214 
z
" style="fill: #7f7f7f"/>
   </g>
   <g id="patch_16">
    <path d="M 93.470321 248.443834 
C 99.104356 253.481823 105.174438 258.009836 111.609087 261.974552 
C 118.043736 265.939269 124.817596 269.325065 131.850899 272.092071 
L 178.614471 153.226256 
z
" style="fill: #f7b6d2"/>
   </g>
   <g id="patch_17">
    <path d="M 132.085978 272.169346 
C 143.669801 276.726593 155.857835 279.566146 168.26304 280.597833 
C 180.668244 281.629519 193.1579 280.842302 205.335391 278.261179 
L 178.84955 153.303531 
z
" style="fill: #c7c7c7"/>
   </g>
   <g id="patch_18">
    <path d="M 205.599587 278.215373 
C 214.665883 276.293694 223.496171 273.391003 231.934376 269.558605 
C 240.37258 265.726207 248.36869 260.986815 255.781373 255.424199 
L 179.113746 153.257725 
z
" style="fill: #dbdb8d"/>
   </g>
   <g id="patch_19">
    <path d="M 255.987893 255.257841 
C 265.748424 247.933357 274.409156 239.247809 281.705683 229.466362 
C 289.002211 219.684914 294.859515 208.908133 299.098777 197.465027 
L 179.320266 153.091367 
z
" style="fill: #bcbd22"/>
   </g>
   <g id="patch_20">
    <path d="M 299.18361 197.294084 
C 300.284071 194.323591 301.273651 191.313188 302.150294 188.269121 
C 303.026938 185.225054 303.790039 182.14943 304.438016 179.048628 
L 179.405098 152.920425 
z
" style="fill: #17becf"/>
   </g>
   <g id="patch_21">
    <path d="M 304.455981 178.956065 
C 305.353274 174.662193 306.028781 170.324948 306.479818 165.961574 
C 306.930855 161.5982 307.156823 157.214486 307.156823 152.827862 
L 179.423063 152.827862 
z
" style="fill: #9edae5"/>
   </g>
   <g id="patch_22">
    <path d="M 253.40502 152.773138 
C 253.40502 146.653948 252.651219 140.557994 251.160662 134.62312 
C 249.670105 128.688245 247.454113 122.959524 244.562793 117.566495 
L 178.89366 152.773138 
z
" style="fill: #ffffff"/>
   </g>
   <g id="patch_23">
    <path d="M 244.562793 117.566495 
C 243.689672 115.937908 242.75627 114.342364 241.764524 112.783174 
C 240.772777 111.223984 239.723372 109.702226 238.618486 108.221057 
L 178.89366 152.773138 
z
" style="fill: #ffffff"/>
   </g>
   <g id="patch_24">
    <path d="M 238.618486 108.221057 
C 237.258545 106.397972 235.815843 104.63811 234.294913 102.947001 
C 232.773982 101.255891 231.176418 99.635308 229.50724 98.090341 
L 178.89366 152.773138 
z
" style="fill: #ffffff"/>
   </g>
   <g id="patch_25">
    <path d="M 229.50724 98.090341 
C 226.794048 95.579051 223.897711 93.273171 220.842236 91.191812 
C 217.78676 89.110453 214.580612 87.259382 211.250364 85.653942 
L 178.89366 152.773138 
z
" style="fill: #ffffff"/>
   </g>
   <g id="patch_26">
    <path d="M 211.250364 85.653942 
C 208.048314 84.110304 204.739902 82.797782 201.350483 81.726436 
C 197.961064 80.65509 194.49932 79.827665 190.991781 79.250501 
L 178.89366 152.773138 
z
" style="fill: #ffffff"/>
   </g>
   <g id="patch_27">
    <path d="M 190.991781 79.250501 
C 185.375995 78.326425 179.67278 78.0488 173.993792 78.423061 
C 168.314805 78.797321 162.697349 79.821008 157.251404 81.474081 
L 178.89366 152.773138 
z
" style="fill: #ffffff"/>
   </g>
   <g id="patch_28">
    <path d="M 157.251404 81.474081 
C 155.891308 81.886928 154.543303 82.338607 153.209045 82.828565 
C 151.874787 83.318523 150.554821 83.846559 149.250769 84.412025 
L 178.89366 152.773138 
z
" style="fill: #ffffff"/>
   </g>
   <g id="patch_29">
    <path d="M 149.250769 84.412025 
C 145.728318 85.939438 142.329184 87.736822 139.083747 89.788112 
C 135.83831 91.839402 132.756267 94.138469 129.865164 96.664767 
L 178.89366 152.773138 
z
" style="fill: #ffffff"/>
   </g>
   <g id="patch_30">
    <path d="M 129.865164 96.664767 
C 127.831195 98.442085 125.895373 100.32869 124.066272 102.316223 
C 122.237172 104.303756 120.517499 106.389279 118.914869 108.563554 
L 178.89366 152.773138 
z
" style="fill: #ffffff"/>
   </g>
   <g id="patch_31">
    <path d="M 118.914869 108.563554 
C 113.58785 115.790677 109.610671 123.921472 107.175473 132.56313 
C 104.740275 141.204787 103.886917 150.215867 104.656624 159.161033 
L 178.89366 152.773138 
z
" style="fill: #ffffff"/>
   </g>
   <g id="patch_32">
    <path d="M 104.656624 159.161033 
C 104.802854 160.860453 105.007396 162.554351 105.269887 164.239733 
C 105.532378 165.925114 105.852664 167.600985 106.230178 169.264384 
L 178.89366 152.773138 
z
" style="fill: #ffffff"/>
   </g>
   <g id="patch_33">
    <path d="M 106.230178 169.264384 
C 106.827998 171.898489 107.568608 174.498139 108.448728 177.051819 
C 109.328848 179.605499 110.347177 182.109434 111.499203 184.552533 
L 178.89366 152.773138 
z
" style="fill: #ffffff"/>
   </g>
   <g id="patch_34">
    <path d="M 111.499203 184.552533 
C 112.772565 187.252947 114.20708 189.874388 115.794987 192.402676 
C 117.382894 194.930963 119.121325 197.361528 121.000875 199.681221 
L 178.89366 152.773138 
z
" style="fill: #ffffff"/>
   </g>
   <g id="patch_35">
    <path d="M 121.000875 199.681221 
C 122.253699 201.227425 123.567965 202.722818 124.94051 204.163802 
C 126.313055 205.604786 127.742778 206.990205 129.226239 208.316725 
L 178.89366 152.773138 
z
" style="fill: #ffffff"/>
   </g>
   <g id="patch_36">
    <path d="M 129.226239 208.316725 
C 132.51276 211.255552 136.053641 213.896893 139.807186 216.209644 
C 143.560731 218.522396 147.512149 220.497443 151.61491 222.11153 
L 178.89366 152.773138 
z
" style="fill: #ffffff"/>
   </g>
   <g id="patch_37">
    <path d="M 151.61491 222.11153 
C 158.37214 224.769924 165.481827 226.42633 172.718196 227.028148 
C 179.954565 227.629965 187.240198 227.170754 194.343734 225.665099 
L 178.89366 152.773138 
z
" style="fill: #ffffff"/>
   </g>
   <g id="patch_38">
    <path d="M 194.343734 225.665099 
C 199.632407 224.54412 204.783408 222.850883 209.705694 220.615318 
C 214.62798 218.379752 219.292377 215.615107 223.616443 212.370248 
L 178.89366 152.773138 
z
" style="fill: #ffffff"/>
   </g>
   <g id="patch_39">
    <path d="M 223.616443 212.370248 
C 229.310085 208.097632 234.362179 203.031062 238.618487 197.325218 
C 242.874794 191.619374 246.291556 185.332918 248.764458 178.657773 
L 178.89366 152.773138 
z
" style="fill: #ffffff"/>
   </g>
   <g id="patch_40">
    <path d="M 248.764458 178.657773 
C 249.406394 176.924985 249.983649 175.168917 250.495024 173.393211 
C 251.0064 171.617506 251.451542 169.823391 251.829529 168.01459 
L 178.89366 152.773138 
z
" style="fill: #ffffff"/>
   </g>
   <g id="patch_41">
    <path d="M 251.829529 168.01459 
C 252.352949 165.509831 252.746996 162.979772 253.010101 160.43447 
C 253.273206 157.889168 253.40502 155.332002 253.40502 152.773138 
L 178.89366 152.773138 
z
" style="fill: #ffffff"/>
   </g>
   <g id="matplotlib.axis_1"/>
   <g id="matplotlib.axis_2"/>
   <g id="text_1">
    <!-- A [43] -->
    <g transform="translate(315.684771 121.177121) scale(0.1 -0.1)">
     <defs>
      <path id="DejaVuSans-41" d="M 2188 4044 
L 1331 1722 
L 3047 1722 
L 2188 4044 
z
M 1831 4666 
L 2547 4666 
L 4325 0 
L 3669 0 
L 3244 1197 
L 1141 1197 
L 716 0 
L 50 0 
L 1831 4666 
z
" transform="scale(0.015625)"/>
      <path id="DejaVuSans-20" transform="scale(0.015625)"/>
      <path id="DejaVuSans-5b" d="M 550 4863 
L 1875 4863 
L 1875 4416 
L 1125 4416 
L 1125 -397 
L 1875 -397 
L 1875 -844 
L 550 -844 
L 550 4863 
z
" transform="scale(0.015625)"/>
      <path id="DejaVuSans-34" d="M 2419 4116 
L 825 1625 
L 2419 1625 
L 2419 4116 
z
M 2253 4666 
L 3047 4666 
L 3047 1625 
L 3713 1625 
L 3713 1100 
L 3047 1100 
L 3047 0 
L 2419 0 
L 2419 1100 
L 313 1100 
L 313 1709 
L 2253 4666 
z
" transform="scale(0.015625)"/>
      <path id="DejaVuSans-33" d="M 2597 2516 
Q 3050 2419 3304 2112 
Q 3559 1806 3559 1356 
Q 3559 666 3084 287 
Q 2609 -91 1734 -91 
Q 1441 -91 1130 -33 
Q 819 25 488 141 
L 488 750 
Q 750 597 1062 519 
Q 1375 441 1716 441 
Q 2309 441 2620 675 
Q 2931 909 2931 1356 
Q 2931 1769 2642 2001 
Q 2353 2234 1838 2234 
L 1294 2234 
L 1294 2753 
L 1863 2753 
Q 2328 2753 2575 2939 
Q 2822 3125 2822 3475 
Q 2822 3834 2567 4026 
Q 2313 4219 1838 4219 
Q 1578 4219 1281 4162 
Q 984 4106 628 3988 
L 628 4550 
Q 988 4650 1302 4700 
Q 1616 4750 1894 4750 
Q 2613 4750 3031 4423 
Q 3450 4097 3450 3541 
Q 3450 3153 3228 2886 
Q 3006 2619 2597 2516 
z
" transform="scale(0.015625)"/>
      <path id="DejaVuSans-5d" d="M 1947 4863 
L 1947 -844 
L 622 -844 
L 622 -397 
L 1369 -397 
L 1369 4416 
L 622 4416 
L 622 4863 
L 1947 4863 
z
" transform="scale(0.015625)"/>
     </defs>
     <use xlink:href="#DejaVuSans-41"/>
     <use xlink:href="#DejaVuSans-20" x="68.408203"/>
     <use xlink:href="#DejaVuSans-5b" x="100.195312"/>
     <use xlink:href="#DejaVuSans-34" x="139.208984"/>
     <use xlink:href="#DejaVuSans-33" x="202.832031"/>
     <use xlink:href="#DejaVuSans-5d" x="266.455078"/>
    </g>
   </g>
   <g id="text_2">
    <!-- C [13] -->
    <g transform="translate(297.899224 79.837224) scale(0.1 -0.1)">
     <defs>
      <path id="DejaVuSans-43" d="M 4122 4306 
L 4122 3641 
Q 3803 3938 3442 4084 
Q 3081 4231 2675 4231 
Q 1875 4231 1450 3742 
Q 1025 3253 1025 2328 
Q 1025 1406 1450 917 
Q 1875 428 2675 428 
Q 3081 428 3442 575 
Q 3803 722 4122 1019 
L 4122 359 
Q 3791 134 3420 21 
Q 3050 -91 2638 -91 
Q 1578 -91 968 557 
Q 359 1206 359 2328 
Q 359 3453 968 4101 
Q 1578 4750 2638 4750 
Q 3056 4750 3426 4639 
Q 3797 4528 4122 4306 
z
" transform="scale(0.015625)"/>
      <path id="DejaVuSans-31" d="M 794 531 
L 1825 531 
L 1825 4091 
L 703 3866 
L 703 4441 
L 1819 4666 
L 2450 4666 
L 2450 531 
L 3481 531 
L 3481 0 
L 794 0 
L 794 531 
z
" transform="scale(0.015625)"/>
     </defs>
     <use xlink:href="#DejaVuSans-43"/>
     <use xlink:href="#DejaVuSans-20" x="69.824219"/>
     <use xlink:href="#DejaVuSans-5b" x="101.611328"/>
     <use xlink:href="#DejaVuSans-31" x="140.625"/>
     <use xlink:href="#DejaVuSans-33" x="204.248047"/>
     <use xlink:href="#DejaVuSans-5d" x="267.871094"/>
    </g>
   </g>
   <g id="text_3">
    <!-- D [16] -->
    <g transform="translate(283.760317 61.218753) scale(0.1 -0.1)">
     <defs>
      <path id="DejaVuSans-44" d="M 1259 4147 
L 1259 519 
L 2022 519 
Q 2988 519 3436 956 
Q 3884 1394 3884 2338 
Q 3884 3275 3436 3711 
Q 2988 4147 2022 4147 
L 1259 4147 
z
M 628 4666 
L 1925 4666 
Q 3281 4666 3915 4102 
Q 4550 3538 4550 2338 
Q 4550 1131 3912 565 
Q 3275 0 1925 0 
L 628 0 
L 628 4666 
z
" transform="scale(0.015625)"/>
      <path id="DejaVuSans-36" d="M 2113 2584 
Q 1688 2584 1439 2293 
Q 1191 2003 1191 1497 
Q 1191 994 1439 701 
Q 1688 409 2113 409 
Q 2538 409 2786 701 
Q 3034 994 3034 1497 
Q 3034 2003 2786 2293 
Q 2538 2584 2113 2584 
z
M 3366 4563 
L 3366 3988 
Q 3128 4100 2886 4159 
Q 2644 4219 2406 4219 
Q 1781 4219 1451 3797 
Q 1122 3375 1075 2522 
Q 1259 2794 1537 2939 
Q 1816 3084 2150 3084 
Q 2853 3084 3261 2657 
Q 3669 2231 3669 1497 
Q 3669 778 3244 343 
Q 2819 -91 2113 -91 
Q 1303 -91 875 529 
Q 447 1150 447 2328 
Q 447 3434 972 4092 
Q 1497 4750 2381 4750 
Q 2619 4750 2861 4703 
Q 3103 4656 3366 4563 
z
" transform="scale(0.015625)"/>
     </defs>
     <use xlink:href="#DejaVuSans-44"/>
     <use xlink:href="#DejaVuSans-20" x="77.001953"/>
     <use xlink:href="#DejaVuSans-5b" x="108.789062"/>
     <use xlink:href="#DejaVuSans-31" x="147.802734"/>
     <use xlink:href="#DejaVuSans-36" x="211.425781"/>
     <use xlink:href="#DejaVuSans-5d" x="275.048828"/>
    </g>
   </g>
   <g id="text_4">
    <!-- E [26] -->
    <g transform="translate(258.296321 38.96786) scale(0.1 -0.1)">
     <defs>
      <path id="DejaVuSans-45" d="M 628 4666 
L 3578 4666 
L 3578 4134 
L 1259 4134 
L 1259 2753 
L 3481 2753 
L 3481 2222 
L 1259 2222 
L 1259 531 
L 3634 531 
L 3634 0 
L 628 0 
L 628 4666 
z
" transform="scale(0.015625)"/>
      <path id="DejaVuSans-32" d="M 1228 531 
L 3431 531 
L 3431 0 
L 469 0 
L 469 531 
Q 828 903 1448 1529 
Q 2069 2156 2228 2338 
Q 2531 2678 2651 2914 
Q 2772 3150 2772 3378 
Q 2772 3750 2511 3984 
Q 2250 4219 1831 4219 
Q 1534 4219 1204 4116 
Q 875 4013 500 3803 
L 500 4441 
Q 881 4594 1212 4672 
Q 1544 4750 1819 4750 
Q 2544 4750 2975 4387 
Q 3406 4025 3406 3419 
Q 3406 3131 3298 2873 
Q 3191 2616 2906 2266 
Q 2828 2175 2409 1742 
Q 1991 1309 1228 531 
z
" transform="scale(0.015625)"/>
     </defs>
     <use xlink:href="#DejaVuSans-45"/>
     <use xlink:href="#DejaVuSans-20" x="63.183594"/>
     <use xlink:href="#DejaVuSans-5b" x="94.970703"/>
     <use xlink:href="#DejaVuSans-32" x="133.984375"/>
     <use xlink:href="#DejaVuSans-36" x="197.607422"/>
     <use xlink:href="#DejaVuSans-5d" x="261.230469"/>
    </g>
   </g>
   <g id="text_5">
    <!-- F [25] -->
    <g transform="translate(221.401218 21.051256) scale(0.1 -0.1)">
     <defs>
      <path id="DejaVuSans-46" d="M 628 4666 
L 3309 4666 
L 3309 4134 
L 1259 4134 
L 1259 2759 
L 3109 2759 
L 3109 2228 
L 1259 2228 
L 1259 0 
L 628 0 
L 628 4666 
z
" transform="scale(0.015625)"/>
      <path id="DejaVuSans-35" d="M 691 4666 
L 3169 4666 
L 3169 4134 
L 1269 4134 
L 1269 2991 
Q 1406 3038 1543 3061 
Q 1681 3084 1819 3084 
Q 2600 3084 3056 2656 
Q 3513 2228 3513 1497 
Q 3513 744 3044 326 
Q 2575 -91 1722 -91 
Q 1428 -91 1123 -41 
Q 819 9 494 109 
L 494 744 
Q 775 591 1075 516 
Q 1375 441 1709 441 
Q 2250 441 2565 725 
Q 2881 1009 2881 1497 
Q 2881 1984 2565 2268 
Q 2250 2553 1709 2553 
Q 1456 2553 1204 2497 
Q 953 2441 691 2322 
L 691 4666 
z
" transform="scale(0.015625)"/>
     </defs>
     <use xlink:href="#DejaVuSans-46"/>
     <use xlink:href="#DejaVuSans-20" x="57.519531"/>
     <use xlink:href="#DejaVuSans-5b" x="89.306641"/>
     <use xlink:href="#DejaVuSans-32" x="128.320312"/>
     <use xlink:href="#DejaVuSans-35" x="191.943359"/>
     <use xlink:href="#DejaVuSans-5d" x="255.566406"/>
    </g>
   </g>
   <g id="text_6">
    <!-- G [40] -->
    <g transform="translate(138.164223 14.798437) scale(0.1 -0.1)">
     <defs>
      <path id="DejaVuSans-47" d="M 3809 666 
L 3809 1919 
L 2778 1919 
L 2778 2438 
L 4434 2438 
L 4434 434 
Q 4069 175 3628 42 
Q 3188 -91 2688 -91 
Q 1594 -91 976 548 
Q 359 1188 359 2328 
Q 359 3472 976 4111 
Q 1594 4750 2688 4750 
Q 3144 4750 3555 4637 
Q 3966 4525 4313 4306 
L 4313 3634 
Q 3963 3931 3569 4081 
Q 3175 4231 2741 4231 
Q 1884 4231 1454 3753 
Q 1025 3275 1025 2328 
Q 1025 1384 1454 906 
Q 1884 428 2741 428 
Q 3075 428 3337 486 
Q 3600 544 3809 666 
z
" transform="scale(0.015625)"/>
      <path id="DejaVuSans-30" d="M 2034 4250 
Q 1547 4250 1301 3770 
Q 1056 3291 1056 2328 
Q 1056 1369 1301 889 
Q 1547 409 2034 409 
Q 2525 409 2770 889 
Q 3016 1369 3016 2328 
Q 3016 3291 2770 3770 
Q 2525 4250 2034 4250 
z
M 2034 4750 
Q 2819 4750 3233 4129 
Q 3647 3509 3647 2328 
Q 3647 1150 3233 529 
Q 2819 -91 2034 -91 
Q 1250 -91 836 529 
Q 422 1150 422 2328 
Q 422 3509 836 4129 
Q 1250 4750 2034 4750 
z
" transform="scale(0.015625)"/>
     </defs>
     <use xlink:href="#DejaVuSans-47"/>
     <use xlink:href="#DejaVuSans-20" x="77.490234"/>
     <use xlink:href="#DejaVuSans-5b" x="109.277344"/>
     <use xlink:href="#DejaVuSans-34" x="148.291016"/>
     <use xlink:href="#DejaVuSans-30" x="211.914062"/>
     <use xlink:href="#DejaVuSans-5d" x="275.537109"/>
    </g>
   </g>
   <g id="text_7">
    <!-- H [10] -->
    <g transform="translate(99.04979 23.137428) scale(0.1 -0.1)">
     <defs>
      <path id="DejaVuSans-48" d="M 628 4666 
L 1259 4666 
L 1259 2753 
L 3553 2753 
L 3553 4666 
L 4184 4666 
L 4184 0 
L 3553 0 
L 3553 2222 
L 1259 2222 
L 1259 0 
L 628 0 
L 628 4666 
z
" transform="scale(0.015625)"/>
     </defs>
     <use xlink:href="#DejaVuSans-48"/>
     <use xlink:href="#DejaVuSans-20" x="75.195312"/>
     <use xlink:href="#DejaVuSans-5b" x="106.982422"/>
     <use xlink:href="#DejaVuSans-31" x="145.996094"/>
     <use xlink:href="#DejaVuSans-30" x="209.619141"/>
     <use xlink:href="#DejaVuSans-5d" x="273.242188"/>
    </g>
   </g>
   <g id="text_8">
    <!-- I [27] -->
    <g transform="translate(76.882931 36.310856) scale(0.1 -0.1)">
     <defs>
      <path id="DejaVuSans-49" d="M 628 4666 
L 1259 4666 
L 1259 0 
L 628 0 
L 628 4666 
z
" transform="scale(0.015625)"/>
      <path id="DejaVuSans-37" d="M 525 4666 
L 3525 4666 
L 3525 4397 
L 1831 0 
L 1172 0 
L 2766 4134 
L 525 4134 
L 525 4666 
z
" transform="scale(0.015625)"/>
     </defs>
     <use xlink:href="#DejaVuSans-49"/>
     <use xlink:href="#DejaVuSans-20" x="29.492188"/>
     <use xlink:href="#DejaVuSans-5b" x="61.279297"/>
     <use xlink:href="#DejaVuSans-32" x="100.292969"/>
     <use xlink:href="#DejaVuSans-37" x="163.916016"/>
     <use xlink:href="#DejaVuSans-5d" x="227.539062"/>
    </g>
   </g>
   <g id="text_9">
    <!-- K [19] -->
    <g transform="translate(44.849185 60.02478) scale(0.1 -0.1)">
     <defs>
      <path id="DejaVuSans-4b" d="M 628 4666 
L 1259 4666 
L 1259 2694 
L 3353 4666 
L 4166 4666 
L 1850 2491 
L 4331 0 
L 3500 0 
L 1259 2247 
L 1259 0 
L 628 0 
L 628 4666 
z
" transform="scale(0.015625)"/>
      <path id="DejaVuSans-39" d="M 703 97 
L 703 672 
Q 941 559 1184 500 
Q 1428 441 1663 441 
Q 2288 441 2617 861 
Q 2947 1281 2994 2138 
Q 2813 1869 2534 1725 
Q 2256 1581 1919 1581 
Q 1219 1581 811 2004 
Q 403 2428 403 3163 
Q 403 3881 828 4315 
Q 1253 4750 1959 4750 
Q 2769 4750 3195 4129 
Q 3622 3509 3622 2328 
Q 3622 1225 3098 567 
Q 2575 -91 1691 -91 
Q 1453 -91 1209 -44 
Q 966 3 703 97 
z
M 1959 2075 
Q 2384 2075 2632 2365 
Q 2881 2656 2881 3163 
Q 2881 3666 2632 3958 
Q 2384 4250 1959 4250 
Q 1534 4250 1286 3958 
Q 1038 3666 1038 3163 
Q 1038 2656 1286 2365 
Q 1534 2075 1959 2075 
z
" transform="scale(0.015625)"/>
     </defs>
     <use xlink:href="#DejaVuSans-4b"/>
     <use xlink:href="#DejaVuSans-20" x="65.576172"/>
     <use xlink:href="#DejaVuSans-5b" x="97.363281"/>
     <use xlink:href="#DejaVuSans-31" x="136.376953"/>
     <use xlink:href="#DejaVuSans-39" x="200"/>
     <use xlink:href="#DejaVuSans-5d" x="263.623047"/>
    </g>
   </g>
   <g id="text_10">
    <!-- L [63] -->
    <g transform="translate(13.863253 117.277854) scale(0.1 -0.1)">
     <defs>
      <path id="DejaVuSans-4c" d="M 628 4666 
L 1259 4666 
L 1259 531 
L 3531 531 
L 3531 0 
L 628 0 
L 628 4666 
z
" transform="scale(0.015625)"/>
     </defs>
     <use xlink:href="#DejaVuSans-4c"/>
     <use xlink:href="#DejaVuSans-20" x="55.712891"/>
     <use xlink:href="#DejaVuSans-5b" x="87.5"/>
     <use xlink:href="#DejaVuSans-36" x="126.513672"/>
     <use xlink:href="#DejaVuSans-33" x="190.136719"/>
     <use xlink:href="#DejaVuSans-5d" x="253.759766"/>
    </g>
   </g>
   <g id="text_11">
    <!-- M [12] -->
    <g transform="translate(7.2 177.237138) scale(0.1 -0.1)">
     <defs>
      <path id="DejaVuSans-4d" d="M 628 4666 
L 1569 4666 
L 2759 1491 
L 3956 4666 
L 4897 4666 
L 4897 0 
L 4281 0 
L 4281 4097 
L 3078 897 
L 2444 897 
L 1241 4097 
L 1241 0 
L 628 0 
L 628 4666 
z
" transform="scale(0.015625)"/>
     </defs>
     <use xlink:href="#DejaVuSans-4d"/>
     <use xlink:href="#DejaVuSans-20" x="86.279297"/>
     <use xlink:href="#DejaVuSans-5b" x="118.066406"/>
     <use xlink:href="#DejaVuSans-31" x="157.080078"/>
     <use xlink:href="#DejaVuSans-32" x="220.703125"/>
     <use xlink:href="#DejaVuSans-5d" x="284.326172"/>
    </g>
   </g>
   <g id="text_12">
    <!-- N [19] -->
    <g transform="translate(14.363967 201.488587) scale(0.1 -0.1)">
     <defs>
      <path id="DejaVuSans-4e" d="M 628 4666 
L 1478 4666 
L 3547 763 
L 3547 4666 
L 4159 4666 
L 4159 0 
L 3309 0 
L 1241 3903 
L 1241 0 
L 628 0 
L 628 4666 
z
" transform="scale(0.015625)"/>
     </defs>
     <use xlink:href="#DejaVuSans-4e"/>
     <use xlink:href="#DejaVuSans-20" x="74.804688"/>
     <use xlink:href="#DejaVuSans-5b" x="106.591797"/>
     <use xlink:href="#DejaVuSans-31" x="145.605469"/>
     <use xlink:href="#DejaVuSans-39" x="209.228516"/>
     <use xlink:href="#DejaVuSans-5d" x="272.851562"/>
    </g>
   </g>
   <g id="text_13">
    <!-- P [21] -->
    <g transform="translate(29.720948 230.545566) scale(0.1 -0.1)">
     <defs>
      <path id="DejaVuSans-50" d="M 1259 4147 
L 1259 2394 
L 2053 2394 
Q 2494 2394 2734 2622 
Q 2975 2850 2975 3272 
Q 2975 3691 2734 3919 
Q 2494 4147 2053 4147 
L 1259 4147 
z
M 628 4666 
L 2053 4666 
Q 2838 4666 3239 4311 
Q 3641 3956 3641 3272 
Q 3641 2581 3239 2228 
Q 2838 1875 2053 1875 
L 1259 1875 
L 1259 0 
L 628 0 
L 628 4666 
z
" transform="scale(0.015625)"/>
     </defs>
     <use xlink:href="#DejaVuSans-50"/>
     <use xlink:href="#DejaVuSans-20" x="60.302734"/>
     <use xlink:href="#DejaVuSans-5b" x="92.089844"/>
     <use xlink:href="#DejaVuSans-32" x="131.103516"/>
     <use xlink:href="#DejaVuSans-31" x="194.726562"/>
     <use xlink:href="#DejaVuSans-5d" x="258.349609"/>
    </g>
   </g>
   <g id="text_14">
    <!-- Q [14] -->
    <g transform="translate(45.189929 252.807698) scale(0.1 -0.1)">
     <defs>
      <path id="DejaVuSans-51" d="M 2522 4238 
Q 1834 4238 1429 3725 
Q 1025 3213 1025 2328 
Q 1025 1447 1429 934 
Q 1834 422 2522 422 
Q 3209 422 3611 934 
Q 4013 1447 4013 2328 
Q 4013 3213 3611 3725 
Q 3209 4238 2522 4238 
z
M 3406 84 
L 4238 -825 
L 3475 -825 
L 2784 -78 
Q 2681 -84 2626 -87 
Q 2572 -91 2522 -91 
Q 1538 -91 948 567 
Q 359 1225 359 2328 
Q 359 3434 948 4092 
Q 1538 4750 2522 4750 
Q 3503 4750 4090 4092 
Q 4678 3434 4678 2328 
Q 4678 1516 4351 937 
Q 4025 359 3406 84 
z
" transform="scale(0.015625)"/>
     </defs>
     <use xlink:href="#DejaVuSans-51"/>
     <use xlink:href="#DejaVuSans-20" x="78.710938"/>
     <use xlink:href="#DejaVuSans-5b" x="110.498047"/>
     <use xlink:href="#DejaVuSans-31" x="149.511719"/>
     <use xlink:href="#DejaVuSans-34" x="213.134766"/>
     <use xlink:href="#DejaVuSans-5d" x="276.757812"/>
    </g>
   </g>
   <g id="text_15">
    <!-- R [31] -->
    <g transform="translate(74.253861 275.608757) scale(0.1 -0.1)">
     <defs>
      <path id="DejaVuSans-52" d="M 2841 2188 
Q 3044 2119 3236 1894 
Q 3428 1669 3622 1275 
L 4263 0 
L 3584 0 
L 2988 1197 
Q 2756 1666 2539 1819 
Q 2322 1972 1947 1972 
L 1259 1972 
L 1259 0 
L 628 0 
L 628 4666 
L 2053 4666 
Q 2853 4666 3247 4331 
Q 3641 3997 3641 3322 
Q 3641 2881 3436 2590 
Q 3231 2300 2841 2188 
z
M 1259 4147 
L 1259 2491 
L 2053 2491 
Q 2509 2491 2742 2702 
Q 2975 2913 2975 3322 
Q 2975 3731 2742 3939 
Q 2509 4147 2053 4147 
L 1259 4147 
z
" transform="scale(0.015625)"/>
     </defs>
     <use xlink:href="#DejaVuSans-52"/>
     <use xlink:href="#DejaVuSans-20" x="69.482422"/>
     <use xlink:href="#DejaVuSans-5b" x="101.269531"/>
     <use xlink:href="#DejaVuSans-33" x="140.283203"/>
     <use xlink:href="#DejaVuSans-31" x="203.90625"/>
     <use xlink:href="#DejaVuSans-5d" x="267.529297"/>
    </g>
   </g>
   <g id="text_16">
    <!-- S [51] -->
    <g transform="translate(137.149701 296.086638) scale(0.1 -0.1)">
     <defs>
      <path id="DejaVuSans-53" d="M 3425 4513 
L 3425 3897 
Q 3066 4069 2747 4153 
Q 2428 4238 2131 4238 
Q 1616 4238 1336 4038 
Q 1056 3838 1056 3469 
Q 1056 3159 1242 3001 
Q 1428 2844 1947 2747 
L 2328 2669 
Q 3034 2534 3370 2195 
Q 3706 1856 3706 1288 
Q 3706 609 3251 259 
Q 2797 -91 1919 -91 
Q 1588 -91 1214 -16 
Q 841 59 441 206 
L 441 856 
Q 825 641 1194 531 
Q 1563 422 1919 422 
Q 2459 422 2753 634 
Q 3047 847 3047 1241 
Q 3047 1584 2836 1778 
Q 2625 1972 2144 2069 
L 1759 2144 
Q 1053 2284 737 2584 
Q 422 2884 422 3419 
Q 422 4038 858 4394 
Q 1294 4750 2059 4750 
Q 2388 4750 2728 4690 
Q 3069 4631 3425 4513 
z
" transform="scale(0.015625)"/>
     </defs>
     <use xlink:href="#DejaVuSans-53"/>
     <use xlink:href="#DejaVuSans-20" x="63.476562"/>
     <use xlink:href="#DejaVuSans-5b" x="95.263672"/>
     <use xlink:href="#DejaVuSans-35" x="134.277344"/>
     <use xlink:href="#DejaVuSans-31" x="197.900391"/>
     <use xlink:href="#DejaVuSans-5d" x="261.523438"/>
    </g>
   </g>
   <g id="text_17">
    <!-- T [38] -->
    <g transform="translate(237.216439 283.948068) scale(0.1 -0.1)">
     <defs>
      <path id="DejaVuSans-54" d="M -19 4666 
L 3928 4666 
L 3928 4134 
L 2272 4134 
L 2272 0 
L 1638 0 
L 1638 4134 
L -19 4134 
L -19 4666 
z
" transform="scale(0.015625)"/>
      <path id="DejaVuSans-38" d="M 2034 2216 
Q 1584 2216 1326 1975 
Q 1069 1734 1069 1313 
Q 1069 891 1326 650 
Q 1584 409 2034 409 
Q 2484 409 2743 651 
Q 3003 894 3003 1313 
Q 3003 1734 2745 1975 
Q 2488 2216 2034 2216 
z
M 1403 2484 
Q 997 2584 770 2862 
Q 544 3141 544 3541 
Q 544 4100 942 4425 
Q 1341 4750 2034 4750 
Q 2731 4750 3128 4425 
Q 3525 4100 3525 3541 
Q 3525 3141 3298 2862 
Q 3072 2584 2669 2484 
Q 3125 2378 3379 2068 
Q 3634 1759 3634 1313 
Q 3634 634 3220 271 
Q 2806 -91 2034 -91 
Q 1263 -91 848 271 
Q 434 634 434 1313 
Q 434 1759 690 2068 
Q 947 2378 1403 2484 
z
M 1172 3481 
Q 1172 3119 1398 2916 
Q 1625 2713 2034 2713 
Q 2441 2713 2670 2916 
Q 2900 3119 2900 3481 
Q 2900 3844 2670 4047 
Q 2441 4250 2034 4250 
Q 1625 4250 1398 4047 
Q 1172 3844 1172 3481 
z
" transform="scale(0.015625)"/>
     </defs>
     <use xlink:href="#DejaVuSans-54"/>
     <use xlink:href="#DejaVuSans-20" x="61.083984"/>
     <use xlink:href="#DejaVuSans-5b" x="92.871094"/>
     <use xlink:href="#DejaVuSans-33" x="131.884766"/>
     <use xlink:href="#DejaVuSans-38" x="195.507812"/>
     <use xlink:href="#DejaVuSans-5d" x="259.130859"/>
    </g>
   </g>
   <g id="text_18">
    <!-- V [50] -->
    <g transform="translate(291.944225 239.863236) scale(0.1 -0.1)">
     <defs>
      <path id="DejaVuSans-56" d="M 1831 0 
L 50 4666 
L 709 4666 
L 2188 738 
L 3669 4666 
L 4325 4666 
L 2547 0 
L 1831 0 
z
" transform="scale(0.015625)"/>
     </defs>
     <use xlink:href="#DejaVuSans-56"/>
     <use xlink:href="#DejaVuSans-20" x="68.408203"/>
     <use xlink:href="#DejaVuSans-5b" x="100.195312"/>
     <use xlink:href="#DejaVuSans-35" x="139.208984"/>
     <use xlink:href="#DejaVuSans-30" x="202.832031"/>
     <use xlink:href="#DejaVuSans-5d" x="266.455078"/>
    </g>
   </g>
   <g id="text_19">
    <!-- W [13] -->
    <g transform="translate(314.424814 194.563366) scale(0.1 -0.1)">
     <defs>
      <path id="DejaVuSans-57" d="M 213 4666 
L 850 4666 
L 1831 722 
L 2809 4666 
L 3519 4666 
L 4500 722 
L 5478 4666 
L 6119 4666 
L 4947 0 
L 4153 0 
L 3169 4050 
L 2175 0 
L 1381 0 
L 213 4666 
z
" transform="scale(0.015625)"/>
     </defs>
     <use xlink:href="#DejaVuSans-57"/>
     <use xlink:href="#DejaVuSans-20" x="98.876953"/>
     <use xlink:href="#DejaVuSans-5b" x="130.664062"/>
     <use xlink:href="#DejaVuSans-31" x="169.677734"/>
     <use xlink:href="#DejaVuSans-33" x="233.300781"/>
     <use xlink:href="#DejaVuSans-5d" x="296.923828"/>
    </g>
   </g>
   <g id="text_20">
    <!-- Y [18] -->
    <g transform="translate(319.185494 170.03432) scale(0.1 -0.1)">
     <defs>
      <path id="DejaVuSans-59" d="M -13 4666 
L 666 4666 
L 1959 2747 
L 3244 4666 
L 3922 4666 
L 2272 2222 
L 2272 0 
L 1638 0 
L 1638 2222 
L -13 4666 
z
" transform="scale(0.015625)"/>
     </defs>
     <use xlink:href="#DejaVuSans-59"/>
     <use xlink:href="#DejaVuSans-20" x="61.083984"/>
     <use xlink:href="#DejaVuSans-5b" x="92.871094"/>
     <use xlink:href="#DejaVuSans-31" x="131.884766"/>
     <use xlink:href="#DejaVuSans-38" x="195.507812"/>
     <use xlink:href="#DejaVuSans-5d" x="259.130859"/>
    </g>
   </g>
   <g id="text_21">
    <!-- A0A384CHI8 [549] -->
    <g transform="translate(123.084285 152.773138) scale(0.12 -0.12)">
     <use xlink:href="#DejaVuSans-41"/>
     <use xlink:href="#DejaVuSans-30" x="68.408203"/>
     <use xlink:href="#DejaVuSans-41" x="132.03125"/>
     <use xlink:href="#DejaVuSans-33" x="200.439453"/>
     <use xlink:href="#DejaVuSans-38" x="264.0625"/>
     <use xlink:href="#DejaVuSans-34" x="327.685547"/>
     <use xlink:href="#DejaVuSans-43" x="391.308594"/>
     <use xlink:href="#DejaVuSans-48" x="461.132812"/>
     <use xlink:href="#DejaVuSans-49" x="536.328125"/>
     <use xlink:href="#DejaVuSans-38" x="565.820312"/>
     <use xlink:href="#DejaVuSans-20" x="629.443359"/>
     <use xlink:href="#DejaVuSans-5b" x="661.230469"/>
     <use xlink:href="#DejaVuSans-35" x="700.244141"/>
     <use xlink:href="#DejaVuSans-34" x="763.867188"/>
     <use xlink:href="#DejaVuSans-39" x="827.490234"/>
     <use xlink:href="#DejaVuSans-5d" x="891.113281"/>
    </g>
   </g>
  </g>
 </g>
</svg>
