<?xml version="1.0" encoding="utf-8" standalone="no"?>
<!DOCTYPE svg PUBLIC "-//W3C//DTD SVG 1.1//EN"
  "http://www.w3.org/Graphics/SVG/1.1/DTD/svg11.dtd">
<svg xmlns:xlink="http://www.w3.org/1999/xlink" width="355.451454pt" height="304.774851pt" viewBox="0 0 355.451454 304.774851" xmlns="http://www.w3.org/2000/svg" version="1.1">
 <metadata>
  <rdf:RDF xmlns:dc="http://purl.org/dc/elements/1.1/" xmlns:cc="http://creativecommons.org/ns#" xmlns:rdf="http://www.w3.org/1999/02/22-rdf-syntax-ns#">
   <cc:Work>
    <dc:type rdf:resource="http://purl.org/dc/dcmitype/StillImage"/>
    <dc:date>2024-09-27T16:07:23.308373</dc:date>
    <dc:format>image/svg+xml</dc:format>
    <dc:creator>
     <cc:Agent>
      <dc:title>Matplotlib v3.8.3, https://matplotlib.org/</dc:title>
     </cc:Agent>
    </dc:creator>
   </cc:Work>
  </rdf:RDF>
 </metadata>
 <defs>
  <style type="text/css">*{stroke-linejoin: round; stroke-linecap: butt}</style>
 </defs>
 <g id="figure_1">
  <g id="patch_1">
   <path d="M 0 304.774851 
L 355.451454 304.774851 
L 355.451454 0 
L 0 0 
z
" style="fill: #ffffff"/>
  </g>
  <g id="axes_1">
   <g id="patch_2">
    <path d="M 306.878086 151.961795 
C 306.878086 144.861538 306.28607 137.773627 305.108192 130.771752 
C 303.930315 123.769878 302.170672 116.878389 299.847558 110.168933 
L 179.144326 151.961795 
z
" style="fill: #1f77b4"/>
   </g>
   <g id="patch_3">
    <path d="M 299.809399 110.041831 
C 298.648346 106.688558 297.34806 103.385123 295.911926 100.140126 
C 294.475792 96.895128 292.905057 93.711386 291.203809 90.597186 
L 179.106168 151.834693 
z
" style="fill: #ff7f0e"/>
   </g>
   <g id="patch_4">
    <path d="M 291.168522 90.530627 
C 289.977736 88.350848 288.723624 86.206265 287.407785 84.099615 
C 286.091946 81.992964 284.71494 79.925142 283.278524 77.898787 
L 179.070881 151.768135 
z
" style="fill: #aec7e8"/>
   </g>
   <g id="patch_5">
    <path d="M 283.237036 77.841281 
C 281.390129 75.235847 279.446159 72.700593 277.409225 70.240867 
C 275.37229 67.781141 273.243823 65.398672 271.028312 63.098484 
L 179.029393 151.71063 
z
" style="fill: #ffbb78"/>
   </g>
   <g id="patch_6">
    <path d="M 270.927992 63.005029 
C 265.509144 57.379072 259.585639 52.262018 253.231965 47.718216 
C 246.878291 43.174413 240.121193 39.222988 233.045639 35.913628 
L 178.929072 151.617175 
z
" style="fill: #98df8a"/>
   </g>
   <g id="patch_7">
    <path d="M 232.903881 35.841473 
C 228.403129 33.736393 223.783381 31.895717 219.068193 30.328832 
C 214.353005 28.761946 209.550406 27.471518 204.684885 26.464129 
L 178.787314 151.545019 
z
" style="fill: #2ca02c"/>
   </g>
   <g id="patch_8">
    <path d="M 204.581201 26.440853 
C 201.106311 25.721389 197.602949 25.147041 194.080232 24.719306 
C 190.557516 24.291571 187.018504 24.010819 183.472409 23.877781 
L 178.68363 151.521743 
z
" style="fill: #d62728"/>
   </g>
   <g id="patch_9">
    <path d="M 183.253097 23.89702 
C 169.038022 23.363717 154.8332 25.208735 141.226039 29.355778 
C 127.618879 33.50282 114.799564 39.893925 103.298208 48.264802 
L 178.464318 151.540982 
z
" style="fill: #9467bd"/>
   </g>
   <g id="patch_10">
    <path d="M 103.070038 48.40469 
C 97.041895 52.792072 91.409442 57.698828 86.237227 63.068726 
C 81.065012 68.438625 76.372868 74.251075 72.214567 80.439464 
L 178.236148 151.68087 
z
" style="fill: #ff9896"/>
   </g>
   <g id="patch_11">
    <path d="M 72.08567 80.664161 
C 64.550247 91.87839 58.841566 104.217501 55.172836 117.220653 
C 51.504106 130.223804 49.921575 143.727074 50.484349 157.226141 
L 178.10725 151.905566 
z
" style="fill: #c5b0d5"/>
   </g>
   <g id="patch_12">
    <path d="M 50.471726 157.458954 
C 50.693484 162.77818 51.247577 168.078343 52.130762 173.328421 
C 53.013947 178.5785 54.224497 183.768232 55.755328 188.867241 
L 178.094628 152.138379 
z
" style="fill: #c49c94"/>
   </g>
   <g id="patch_13">
    <path d="M 55.80486 189.018398 
C 57.948693 196.159239 60.713622 203.098687 64.067962 209.757218 
C 67.422301 216.415749 71.353189 222.767828 75.815576 228.74066 
L 178.14416 152.289536 
z
" style="fill: #8c564b"/>
   </g>
   <g id="patch_14">
    <path d="M 75.886692 228.847453 
C 77.585723 231.121578 79.360091 233.338434 81.206841 235.494325 
C 83.05359 237.650217 84.971695 239.743947 86.957958 241.772028 
L 178.215275 152.396329 
z
" style="fill: #e377c2"/>
   </g>
   <g id="patch_15">
    <path d="M 87.017606 241.831427 
C 89.748944 244.620267 92.606688 247.282437 95.581838 249.809553 
C 98.556989 252.336669 101.646421 254.726075 104.840404 256.970248 
L 178.274923 152.455728 
z
" style="fill: #7f7f7f"/>
   </g>
   <g id="patch_16">
    <path d="M 104.959472 257.046705 
C 111.059896 261.333015 117.523906 265.076993 124.277423 268.235731 
C 131.03094 271.394469 138.048068 273.955855 145.24839 275.890535 
L 178.393991 152.532185 
z
" style="fill: #f7b6d2"/>
   </g>
   <g id="patch_17">
    <path d="M 145.511543 275.939327 
C 159.249351 279.630588 173.50777 281.001186 187.697176 279.994442 
C 201.886583 278.987698 215.808653 275.617685 228.887674 270.023759 
L 178.657144 152.580976 
z
" style="fill: #c7c7c7"/>
   </g>
   <g id="patch_18">
    <path d="M 229.145003 269.935859 
C 236.326915 266.86414 243.211946 263.140099 249.713519 258.810566 
C 256.215092 254.481032 262.305839 249.56423 267.90917 244.121988 
L 178.914473 152.493076 
z
" style="fill: #dbdb8d"/>
   </g>
   <g id="patch_19">
    <path d="M 268.058389 243.972146 
C 274.682341 237.538623 280.589178 230.405748 285.67525 222.698684 
C 290.761321 214.991619 294.996702 206.755711 298.307072 198.135479 
L 179.063692 152.343235 
z
" style="fill: #bcbd22"/>
   </g>
   <g id="patch_20">
    <path d="M 298.367221 198.012271 
C 299.003233 196.356092 299.604671 194.686843 300.171145 193.005609 
C 300.737618 191.324375 301.269004 189.631522 301.764957 187.928152 
L 179.123841 152.220027 
z
" style="fill: #17becf"/>
   </g>
   <g id="patch_21">
    <path d="M 301.787485 187.833356 
C 303.474367 182.039686 304.748584 176.133757 305.60056 170.159954 
C 306.452535 164.186151 306.88013 158.159478 306.88013 152.125227 
L 179.14637 152.125232 
z
" style="fill: #9edae5"/>
   </g>
   <g id="patch_22">
    <path d="M 253.130837 152.050087 
C 253.130837 147.90827 252.785494 143.773656 252.098399 139.689229 
C 251.411304 135.604802 250.384845 131.584766 249.029696 127.670918 
L 178.619477 152.050087 
z
" style="fill: #ffffff"/>
   </g>
   <g id="patch_23">
    <path d="M 249.029696 127.670918 
C 248.352414 125.714841 247.593914 123.787838 246.756169 121.894923 
C 245.918424 120.002008 245.002162 118.144825 244.009768 116.328208 
L 178.619477 152.050087 
z
" style="fill: #ffffff"/>
   </g>
   <g id="patch_24">
    <path d="M 244.009768 116.328208 
C 243.315143 115.05667 242.583577 113.805663 241.816005 112.576784 
C 241.048432 111.347904 240.245178 110.141675 239.407269 108.959634 
L 178.619477 152.050087 
z
" style="fill: #ffffff"/>
   </g>
   <g id="patch_25">
    <path d="M 239.407269 108.959634 
C 238.329907 107.439797 237.195924 105.960899 236.007712 104.526059 
C 234.8195 103.091219 233.577895 101.701445 232.285513 100.359669 
L 178.619477 152.050087 
z
" style="fill: #ffffff"/>
   </g>
   <g id="patch_26">
    <path d="M 232.285513 100.359669 
C 229.124519 97.07786 225.669141 94.092912 221.962831 91.442361 
C 218.256521 88.79181 214.31488 86.486811 210.187474 84.556352 
L 178.619477 152.050087 
z
" style="fill: #ffffff"/>
   </g>
   <g id="patch_27">
    <path d="M 210.187474 84.556352 
C 207.562036 83.328388 204.867183 82.254661 202.116657 81.340644 
C 199.36613 80.426627 196.564614 79.673878 193.726394 79.086234 
L 178.619477 152.050087 
z
" style="fill: #ffffff"/>
   </g>
   <g id="patch_28">
    <path d="M 193.726394 79.086234 
C 191.699375 78.666547 189.655746 78.331511 187.600828 78.081999 
C 185.545911 77.832486 183.481487 77.668714 181.412932 77.591109 
L 178.619477 152.050087 
z
" style="fill: #ffffff"/>
   </g>
   <g id="patch_29">
    <path d="M 181.412932 77.591109 
C 173.120804 77.280016 164.834659 78.356276 156.897148 80.775385 
C 148.959638 83.194493 141.481704 86.922637 134.77258 91.805649 
L 178.619477 152.050087 
z
" style="fill: #ffffff"/>
   </g>
   <g id="patch_30">
    <path d="M 134.77258 91.805649 
C 131.256163 94.364955 127.970565 97.227229 124.95344 100.35967 
C 121.936314 103.492111 119.19923 106.882706 116.773555 110.4926 
L 178.619477 152.050087 
z
" style="fill: #ffffff"/>
   </g>
   <g id="patch_31">
    <path d="M 116.773555 110.4926 
C 112.377892 117.034234 109.047828 124.232049 106.907735 131.817221 
C 104.767643 139.402392 103.8445 147.2793 104.172785 155.153756 
L 178.619477 152.050087 
z
" style="fill: #ffffff"/>
   </g>
   <g id="patch_32">
    <path d="M 104.172785 155.153756 
C 104.302143 158.256637 104.625364 161.348399 105.140555 164.410945 
C 105.655746 167.473491 106.361901 170.500834 107.254886 173.475257 
L 178.619477 152.050087 
z
" style="fill: #ffffff"/>
   </g>
   <g id="patch_33">
    <path d="M 107.254886 173.475257 
C 108.505455 177.640747 110.11833 181.688759 112.075028 185.572902 
C 114.031726 189.457044 116.324744 193.162424 118.927803 196.646576 
L 178.619477 152.050087 
z
" style="fill: #ffffff"/>
   </g>
   <g id="patch_34">
    <path d="M 118.927803 196.646576 
C 119.918905 197.973149 120.953953 199.266315 122.031224 200.523918 
C 123.108494 201.781522 124.227388 203.002865 125.386042 204.185911 
L 178.619477 152.050087 
z
" style="fill: #ffffff"/>
   </g>
   <g id="patch_35">
    <path d="M 125.386042 204.185911 
C 126.979323 205.812735 128.64634 207.365667 130.381845 208.839818 
C 132.117349 210.313969 133.919518 211.70779 135.782674 213.01689 
L 178.619477 152.050087 
z
" style="fill: #ffffff"/>
   </g>
   <g id="patch_36">
    <path d="M 135.782674 213.01689 
C 139.341255 215.517238 143.111927 217.701225 147.051479 219.543822 
C 150.991031 221.386419 155.084355 222.880561 159.284543 224.009125 
L 178.619477 152.050087 
z
" style="fill: #ffffff"/>
   </g>
   <g id="patch_37">
    <path d="M 159.284543 224.009125 
C 167.298265 226.16236 175.615676 226.961876 183.892829 226.374609 
C 192.169983 225.787341 200.291191 223.8215 207.92062 220.558377 
L 178.619477 152.050087 
z
" style="fill: #ffffff"/>
   </g>
   <g id="patch_38">
    <path d="M 207.92062 220.558377 
C 212.110068 218.766541 216.126337 216.594184 219.918921 214.068622 
C 223.711505 211.543061 227.264441 208.674926 230.53305 205.500285 
L 178.619477 152.050087 
z
" style="fill: #ffffff"/>
   </g>
   <g id="patch_39">
    <path d="M 230.53305 205.500285 
C 234.397023 201.747397 237.842677 197.586553 240.809552 193.090766 
C 243.776427 188.594978 246.247066 183.790698 248.178116 178.762229 
L 178.619477 152.050087 
z
" style="fill: #ffffff"/>
   </g>
   <g id="patch_40">
    <path d="M 248.178116 178.762229 
C 248.549122 177.796125 248.899961 176.822396 249.230404 175.841676 
C 249.560847 174.860957 249.870822 173.873459 250.160128 172.879826 
L 178.619477 152.050087 
z
" style="fill: #ffffff"/>
   </g>
   <g id="patch_41">
    <path d="M 250.160128 172.879826 
C 251.144142 169.500186 251.887436 166.05506 252.384421 162.570342 
C 252.881407 159.085623 253.130837 155.570064 253.130837 152.050084 
L 178.619477 152.050087 
z
" style="fill: #ffffff"/>
   </g>
   <g id="matplotlib.axis_1"/>
   <g id="matplotlib.axis_2"/>
   <g id="text_1">
    <!-- A [20] -->
    <g transform="translate(317.704579 131.412123) scale(0.1 -0.1)">
     <defs>
      <path id="DejaVuSans-41" d="M 2188 4044 
L 1331 1722 
L 3047 1722 
L 2188 4044 
z
M 1831 4666 
L 2547 4666 
L 4325 0 
L 3669 0 
L 3244 1197 
L 1141 1197 
L 716 0 
L 50 0 
L 1831 4666 
z
" transform="scale(0.015625)"/>
      <path id="DejaVuSans-20" transform="scale(0.015625)"/>
      <path id="DejaVuSans-5b" d="M 550 4863 
L 1875 4863 
L 1875 4416 
L 1125 4416 
L 1125 -397 
L 1875 -397 
L 1875 -844 
L 550 -844 
L 550 4863 
z
" transform="scale(0.015625)"/>
      <path id="DejaVuSans-32" d="M 1228 531 
L 3431 531 
L 3431 0 
L 469 0 
L 469 531 
Q 828 903 1448 1529 
Q 2069 2156 2228 2338 
Q 2531 2678 2651 2914 
Q 2772 3150 2772 3378 
Q 2772 3750 2511 3984 
Q 2250 4219 1831 4219 
Q 1534 4219 1204 4116 
Q 875 4013 500 3803 
L 500 4441 
Q 881 4594 1212 4672 
Q 1544 4750 1819 4750 
Q 2544 4750 2975 4387 
Q 3406 4025 3406 3419 
Q 3406 3131 3298 2873 
Q 3191 2616 2906 2266 
Q 2828 2175 2409 1742 
Q 1991 1309 1228 531 
z
" transform="scale(0.015625)"/>
      <path id="DejaVuSans-30" d="M 2034 4250 
Q 1547 4250 1301 3770 
Q 1056 3291 1056 2328 
Q 1056 1369 1301 889 
Q 1547 409 2034 409 
Q 2525 409 2770 889 
Q 3016 1369 3016 2328 
Q 3016 3291 2770 3770 
Q 2525 4250 2034 4250 
z
M 2034 4750 
Q 2819 4750 3233 4129 
Q 3647 3509 3647 2328 
Q 3647 1150 3233 529 
Q 2819 -91 2034 -91 
Q 1250 -91 836 529 
Q 422 1150 422 2328 
Q 422 3509 836 4129 
Q 1250 4750 2034 4750 
z
" transform="scale(0.015625)"/>
      <path id="DejaVuSans-5d" d="M 1947 4863 
L 1947 -844 
L 622 -844 
L 622 -397 
L 1369 -397 
L 1369 4416 
L 622 4416 
L 622 4863 
L 1947 4863 
z
" transform="scale(0.015625)"/>
     </defs>
     <use xlink:href="#DejaVuSans-41"/>
     <use xlink:href="#DejaVuSans-20" x="68.408203"/>
     <use xlink:href="#DejaVuSans-5b" x="100.195312"/>
     <use xlink:href="#DejaVuSans-32" x="139.208984"/>
     <use xlink:href="#DejaVuSans-30" x="202.832031"/>
     <use xlink:href="#DejaVuSans-5d" x="266.455078"/>
    </g>
   </g>
   <g id="text_2">
    <!-- C [10] -->
    <g transform="translate(307.592502 97.730044) scale(0.1 -0.1)">
     <defs>
      <path id="DejaVuSans-43" d="M 4122 4306 
L 4122 3641 
Q 3803 3938 3442 4084 
Q 3081 4231 2675 4231 
Q 1875 4231 1450 3742 
Q 1025 3253 1025 2328 
Q 1025 1406 1450 917 
Q 1875 428 2675 428 
Q 3081 428 3442 575 
Q 3803 722 4122 1019 
L 4122 359 
Q 3791 134 3420 21 
Q 3050 -91 2638 -91 
Q 1578 -91 968 557 
Q 359 1206 359 2328 
Q 359 3453 968 4101 
Q 1578 4750 2638 4750 
Q 3056 4750 3426 4639 
Q 3797 4528 4122 4306 
z
" transform="scale(0.015625)"/>
      <path id="DejaVuSans-31" d="M 794 531 
L 1825 531 
L 1825 4091 
L 703 3866 
L 703 4441 
L 1819 4666 
L 2450 4666 
L 2450 531 
L 3481 531 
L 3481 0 
L 794 0 
L 794 531 
z
" transform="scale(0.015625)"/>
     </defs>
     <use xlink:href="#DejaVuSans-43"/>
     <use xlink:href="#DejaVuSans-20" x="69.824219"/>
     <use xlink:href="#DejaVuSans-5b" x="101.611328"/>
     <use xlink:href="#DejaVuSans-31" x="140.625"/>
     <use xlink:href="#DejaVuSans-30" x="204.248047"/>
     <use xlink:href="#DejaVuSans-5d" x="267.871094"/>
    </g>
   </g>
   <g id="text_3">
    <!-- D [7] -->
    <g transform="translate(298.241476 80.092138) scale(0.1 -0.1)">
     <defs>
      <path id="DejaVuSans-44" d="M 1259 4147 
L 1259 519 
L 2022 519 
Q 2988 519 3436 956 
Q 3884 1394 3884 2338 
Q 3884 3275 3436 3711 
Q 2988 4147 2022 4147 
L 1259 4147 
z
M 628 4666 
L 1925 4666 
Q 3281 4666 3915 4102 
Q 4550 3538 4550 2338 
Q 4550 1131 3912 565 
Q 3275 0 1925 0 
L 628 0 
L 628 4666 
z
" transform="scale(0.015625)"/>
      <path id="DejaVuSans-37" d="M 525 4666 
L 3525 4666 
L 3525 4397 
L 1831 0 
L 1172 0 
L 2766 4134 
L 525 4134 
L 525 4666 
z
" transform="scale(0.015625)"/>
     </defs>
     <use xlink:href="#DejaVuSans-44"/>
     <use xlink:href="#DejaVuSans-20" x="77.001953"/>
     <use xlink:href="#DejaVuSans-5b" x="108.789062"/>
     <use xlink:href="#DejaVuSans-37" x="147.802734"/>
     <use xlink:href="#DejaVuSans-5d" x="211.425781"/>
    </g>
   </g>
   <g id="text_4">
    <!-- E [9] -->
    <g transform="translate(287.247208 64.853266) scale(0.1 -0.1)">
     <defs>
      <path id="DejaVuSans-45" d="M 628 4666 
L 3578 4666 
L 3578 4134 
L 1259 4134 
L 1259 2753 
L 3481 2753 
L 3481 2222 
L 1259 2222 
L 1259 531 
L 3634 531 
L 3634 0 
L 628 0 
L 628 4666 
z
" transform="scale(0.015625)"/>
      <path id="DejaVuSans-39" d="M 703 97 
L 703 672 
Q 941 559 1184 500 
Q 1428 441 1663 441 
Q 2288 441 2617 861 
Q 2947 1281 2994 2138 
Q 2813 1869 2534 1725 
Q 2256 1581 1919 1581 
Q 1219 1581 811 2004 
Q 403 2428 403 3163 
Q 403 3881 828 4315 
Q 1253 4750 1959 4750 
Q 2769 4750 3195 4129 
Q 3622 3509 3622 2328 
Q 3622 1225 3098 567 
Q 2575 -91 1691 -91 
Q 1453 -91 1209 -44 
Q 966 3 703 97 
z
M 1959 2075 
Q 2384 2075 2632 2365 
Q 2881 2656 2881 3163 
Q 2881 3666 2632 3958 
Q 2384 4250 1959 4250 
Q 1534 4250 1286 3958 
Q 1038 3666 1038 3163 
Q 1038 2656 1286 2365 
Q 1534 2075 1959 2075 
z
" transform="scale(0.015625)"/>
     </defs>
     <use xlink:href="#DejaVuSans-45"/>
     <use xlink:href="#DejaVuSans-20" x="63.183594"/>
     <use xlink:href="#DejaVuSans-5b" x="94.970703"/>
     <use xlink:href="#DejaVuSans-39" x="133.984375"/>
     <use xlink:href="#DejaVuSans-5d" x="197.607422"/>
    </g>
   </g>
   <g id="text_5">
    <!-- F [22] -->
    <g transform="translate(260.662254 40.087695) scale(0.1 -0.1)">
     <defs>
      <path id="DejaVuSans-46" d="M 628 4666 
L 3309 4666 
L 3309 4134 
L 1259 4134 
L 1259 2759 
L 3109 2759 
L 3109 2228 
L 1259 2228 
L 1259 0 
L 628 0 
L 628 4666 
z
" transform="scale(0.015625)"/>
     </defs>
     <use xlink:href="#DejaVuSans-46"/>
     <use xlink:href="#DejaVuSans-20" x="57.519531"/>
     <use xlink:href="#DejaVuSans-5b" x="89.306641"/>
     <use xlink:href="#DejaVuSans-32" x="128.320312"/>
     <use xlink:href="#DejaVuSans-32" x="191.943359"/>
     <use xlink:href="#DejaVuSans-5d" x="255.566406"/>
    </g>
   </g>
   <g id="text_6">
    <!-- G [14] -->
    <g transform="translate(223.096281 20.966588) scale(0.1 -0.1)">
     <defs>
      <path id="DejaVuSans-47" d="M 3809 666 
L 3809 1919 
L 2778 1919 
L 2778 2438 
L 4434 2438 
L 4434 434 
Q 4069 175 3628 42 
Q 3188 -91 2688 -91 
Q 1594 -91 976 548 
Q 359 1188 359 2328 
Q 359 3472 976 4111 
Q 1594 4750 2688 4750 
Q 3144 4750 3555 4637 
Q 3966 4525 4313 4306 
L 4313 3634 
Q 3963 3931 3569 4081 
Q 3175 4231 2741 4231 
Q 1884 4231 1454 3753 
Q 1025 3275 1025 2328 
Q 1025 1384 1454 906 
Q 1884 428 2741 428 
Q 3075 428 3337 486 
Q 3600 544 3809 666 
z
" transform="scale(0.015625)"/>
      <path id="DejaVuSans-34" d="M 2419 4116 
L 825 1625 
L 2419 1625 
L 2419 4116 
z
M 2253 4666 
L 3047 4666 
L 3047 1625 
L 3713 1625 
L 3713 1100 
L 3047 1100 
L 3047 0 
L 2419 0 
L 2419 1100 
L 313 1100 
L 313 1709 
L 2253 4666 
z
" transform="scale(0.015625)"/>
     </defs>
     <use xlink:href="#DejaVuSans-47"/>
     <use xlink:href="#DejaVuSans-20" x="77.490234"/>
     <use xlink:href="#DejaVuSans-5b" x="109.277344"/>
     <use xlink:href="#DejaVuSans-31" x="148.291016"/>
     <use xlink:href="#DejaVuSans-34" x="211.914062"/>
     <use xlink:href="#DejaVuSans-5d" x="275.537109"/>
    </g>
   </g>
   <g id="text_7">
    <!-- H [10] -->
    <g transform="translate(195.619892 14.798437) scale(0.1 -0.1)">
     <defs>
      <path id="DejaVuSans-48" d="M 628 4666 
L 1259 4666 
L 1259 2753 
L 3553 2753 
L 3553 4666 
L 4184 4666 
L 4184 0 
L 3553 0 
L 3553 2222 
L 1259 2222 
L 1259 0 
L 628 0 
L 628 4666 
z
" transform="scale(0.015625)"/>
     </defs>
     <use xlink:href="#DejaVuSans-48"/>
     <use xlink:href="#DejaVuSans-20" x="75.195312"/>
     <use xlink:href="#DejaVuSans-5b" x="106.982422"/>
     <use xlink:href="#DejaVuSans-31" x="145.996094"/>
     <use xlink:href="#DejaVuSans-30" x="209.619141"/>
     <use xlink:href="#DejaVuSans-5d" x="273.242188"/>
    </g>
   </g>
   <g id="text_8">
    <!-- I [40] -->
    <g transform="translate(110.845962 19.896632) scale(0.1 -0.1)">
     <defs>
      <path id="DejaVuSans-49" d="M 628 4666 
L 1259 4666 
L 1259 0 
L 628 0 
L 628 4666 
z
" transform="scale(0.015625)"/>
     </defs>
     <use xlink:href="#DejaVuSans-49"/>
     <use xlink:href="#DejaVuSans-20" x="29.492188"/>
     <use xlink:href="#DejaVuSans-5b" x="61.279297"/>
     <use xlink:href="#DejaVuSans-34" x="100.292969"/>
     <use xlink:href="#DejaVuSans-30" x="163.916016"/>
     <use xlink:href="#DejaVuSans-5d" x="227.539062"/>
    </g>
   </g>
   <g id="text_9">
    <!-- K [21] -->
    <g transform="translate(46.773272 56.966887) scale(0.1 -0.1)">
     <defs>
      <path id="DejaVuSans-4b" d="M 628 4666 
L 1259 4666 
L 1259 2694 
L 3353 4666 
L 4166 4666 
L 1850 2491 
L 4331 0 
L 3500 0 
L 1259 2247 
L 1259 0 
L 628 0 
L 628 4666 
z
" transform="scale(0.015625)"/>
     </defs>
     <use xlink:href="#DejaVuSans-4b"/>
     <use xlink:href="#DejaVuSans-20" x="65.576172"/>
     <use xlink:href="#DejaVuSans-5b" x="97.363281"/>
     <use xlink:href="#DejaVuSans-32" x="136.376953"/>
     <use xlink:href="#DejaVuSans-31" x="200"/>
     <use xlink:href="#DejaVuSans-5d" x="263.623047"/>
    </g>
   </g>
   <g id="text_10">
    <!-- L [38] -->
    <g transform="translate(13.60127 116.511536) scale(0.1 -0.1)">
     <defs>
      <path id="DejaVuSans-4c" d="M 628 4666 
L 1259 4666 
L 1259 531 
L 3531 531 
L 3531 0 
L 628 0 
L 628 4666 
z
" transform="scale(0.015625)"/>
      <path id="DejaVuSans-33" d="M 2597 2516 
Q 3050 2419 3304 2112 
Q 3559 1806 3559 1356 
Q 3559 666 3084 287 
Q 2609 -91 1734 -91 
Q 1441 -91 1130 -33 
Q 819 25 488 141 
L 488 750 
Q 750 597 1062 519 
Q 1375 441 1716 441 
Q 2309 441 2620 675 
Q 2931 909 2931 1356 
Q 2931 1769 2642 2001 
Q 2353 2234 1838 2234 
L 1294 2234 
L 1294 2753 
L 1863 2753 
Q 2328 2753 2575 2939 
Q 2822 3125 2822 3475 
Q 2822 3834 2567 4026 
Q 2313 4219 1838 4219 
Q 1578 4219 1281 4162 
Q 984 4106 628 3988 
L 628 4550 
Q 988 4650 1302 4700 
Q 1616 4750 1894 4750 
Q 2613 4750 3031 4423 
Q 3450 4097 3450 3541 
Q 3450 3153 3228 2886 
Q 3006 2619 2597 2516 
z
" transform="scale(0.015625)"/>
      <path id="DejaVuSans-38" d="M 2034 2216 
Q 1584 2216 1326 1975 
Q 1069 1734 1069 1313 
Q 1069 891 1326 650 
Q 1584 409 2034 409 
Q 2484 409 2743 651 
Q 3003 894 3003 1313 
Q 3003 1734 2745 1975 
Q 2488 2216 2034 2216 
z
M 1403 2484 
Q 997 2584 770 2862 
Q 544 3141 544 3541 
Q 544 4100 942 4425 
Q 1341 4750 2034 4750 
Q 2731 4750 3128 4425 
Q 3525 4100 3525 3541 
Q 3525 3141 3298 2862 
Q 3072 2584 2669 2484 
Q 3125 2378 3379 2068 
Q 3634 1759 3634 1313 
Q 3634 634 3220 271 
Q 2806 -91 2034 -91 
Q 1263 -91 848 271 
Q 434 634 434 1313 
Q 434 1759 690 2068 
Q 947 2378 1403 2484 
z
M 1172 3481 
Q 1172 3119 1398 2916 
Q 1625 2713 2034 2713 
Q 2441 2713 2670 2916 
Q 2900 3119 2900 3481 
Q 2900 3844 2670 4047 
Q 2441 4250 2034 4250 
Q 1625 4250 1398 4047 
Q 1172 3844 1172 3481 
z
" transform="scale(0.015625)"/>
     </defs>
     <use xlink:href="#DejaVuSans-4c"/>
     <use xlink:href="#DejaVuSans-20" x="55.712891"/>
     <use xlink:href="#DejaVuSans-5b" x="87.5"/>
     <use xlink:href="#DejaVuSans-33" x="126.513672"/>
     <use xlink:href="#DejaVuSans-38" x="190.136719"/>
     <use xlink:href="#DejaVuSans-5d" x="253.759766"/>
    </g>
   </g>
   <g id="text_11">
    <!-- M [15] -->
    <g transform="translate(7.2 178.206801) scale(0.1 -0.1)">
     <defs>
      <path id="DejaVuSans-4d" d="M 628 4666 
L 1569 4666 
L 2759 1491 
L 3956 4666 
L 4897 4666 
L 4897 0 
L 4281 0 
L 4281 4097 
L 3078 897 
L 2444 897 
L 1241 4097 
L 1241 0 
L 628 0 
L 628 4666 
z
" transform="scale(0.015625)"/>
      <path id="DejaVuSans-35" d="M 691 4666 
L 3169 4666 
L 3169 4134 
L 1269 4134 
L 1269 2991 
Q 1406 3038 1543 3061 
Q 1681 3084 1819 3084 
Q 2600 3084 3056 2656 
Q 3513 2228 3513 1497 
Q 3513 744 3044 326 
Q 2575 -91 1722 -91 
Q 1428 -91 1123 -41 
Q 819 9 494 109 
L 494 744 
Q 775 591 1075 516 
Q 1375 441 1709 441 
Q 2250 441 2565 725 
Q 2881 1009 2881 1497 
Q 2881 1984 2565 2268 
Q 2250 2553 1709 2553 
Q 1456 2553 1204 2497 
Q 953 2441 691 2322 
L 691 4666 
z
" transform="scale(0.015625)"/>
     </defs>
     <use xlink:href="#DejaVuSans-4d"/>
     <use xlink:href="#DejaVuSans-20" x="86.279297"/>
     <use xlink:href="#DejaVuSans-5b" x="118.066406"/>
     <use xlink:href="#DejaVuSans-31" x="157.080078"/>
     <use xlink:href="#DejaVuSans-35" x="220.703125"/>
     <use xlink:href="#DejaVuSans-5d" x="284.326172"/>
    </g>
   </g>
   <g id="text_12">
    <!-- N [21] -->
    <g transform="translate(21.472842 218.263361) scale(0.1 -0.1)">
     <defs>
      <path id="DejaVuSans-4e" d="M 628 4666 
L 1478 4666 
L 3547 763 
L 3547 4666 
L 4159 4666 
L 4159 0 
L 3309 0 
L 1241 3903 
L 1241 0 
L 628 0 
L 628 4666 
z
" transform="scale(0.015625)"/>
     </defs>
     <use xlink:href="#DejaVuSans-4e"/>
     <use xlink:href="#DejaVuSans-20" x="74.804688"/>
     <use xlink:href="#DejaVuSans-5b" x="106.591797"/>
     <use xlink:href="#DejaVuSans-32" x="145.605469"/>
     <use xlink:href="#DejaVuSans-31" x="209.228516"/>
     <use xlink:href="#DejaVuSans-5d" x="272.851562"/>
    </g>
   </g>
   <g id="text_13">
    <!-- P [8] -->
    <g transform="translate(48.13256 246.5635) scale(0.1 -0.1)">
     <defs>
      <path id="DejaVuSans-50" d="M 1259 4147 
L 1259 2394 
L 2053 2394 
Q 2494 2394 2734 2622 
Q 2975 2850 2975 3272 
Q 2975 3691 2734 3919 
Q 2494 4147 2053 4147 
L 1259 4147 
z
M 628 4666 
L 2053 4666 
Q 2838 4666 3239 4311 
Q 3641 3956 3641 3272 
Q 3641 2581 3239 2228 
Q 2838 1875 2053 1875 
L 1259 1875 
L 1259 0 
L 628 0 
L 628 4666 
z
" transform="scale(0.015625)"/>
     </defs>
     <use xlink:href="#DejaVuSans-50"/>
     <use xlink:href="#DejaVuSans-20" x="60.302734"/>
     <use xlink:href="#DejaVuSans-5b" x="92.089844"/>
     <use xlink:href="#DejaVuSans-38" x="131.103516"/>
     <use xlink:href="#DejaVuSans-5d" x="194.726562"/>
    </g>
   </g>
   <g id="text_14">
    <!-- Q [11] -->
    <g transform="translate(55.734405 262.304311) scale(0.1 -0.1)">
     <defs>
      <path id="DejaVuSans-51" d="M 2522 4238 
Q 1834 4238 1429 3725 
Q 1025 3213 1025 2328 
Q 1025 1447 1429 934 
Q 1834 422 2522 422 
Q 3209 422 3611 934 
Q 4013 1447 4013 2328 
Q 4013 3213 3611 3725 
Q 3209 4238 2522 4238 
z
M 3406 84 
L 4238 -825 
L 3475 -825 
L 2784 -78 
Q 2681 -84 2626 -87 
Q 2572 -91 2522 -91 
Q 1538 -91 948 567 
Q 359 1225 359 2328 
Q 359 3434 948 4092 
Q 1538 4750 2522 4750 
Q 3503 4750 4090 4092 
Q 4678 3434 4678 2328 
Q 4678 1516 4351 937 
Q 4025 359 3406 84 
z
" transform="scale(0.015625)"/>
     </defs>
     <use xlink:href="#DejaVuSans-51"/>
     <use xlink:href="#DejaVuSans-20" x="78.710938"/>
     <use xlink:href="#DejaVuSans-5b" x="110.498047"/>
     <use xlink:href="#DejaVuSans-31" x="149.511719"/>
     <use xlink:href="#DejaVuSans-31" x="213.134766"/>
     <use xlink:href="#DejaVuSans-5d" x="276.757812"/>
    </g>
   </g>
   <g id="text_15">
    <!-- R [21] -->
    <g transform="translate(88.211079 282.56546) scale(0.1 -0.1)">
     <defs>
      <path id="DejaVuSans-52" d="M 2841 2188 
Q 3044 2119 3236 1894 
Q 3428 1669 3622 1275 
L 4263 0 
L 3584 0 
L 2988 1197 
Q 2756 1666 2539 1819 
Q 2322 1972 1947 1972 
L 1259 1972 
L 1259 0 
L 628 0 
L 628 4666 
L 2053 4666 
Q 2853 4666 3247 4331 
Q 3641 3997 3641 3322 
Q 3641 2881 3436 2590 
Q 3231 2300 2841 2188 
z
M 1259 4147 
L 1259 2491 
L 2053 2491 
Q 2509 2491 2742 2702 
Q 2975 2913 2975 3322 
Q 2975 3731 2742 3939 
Q 2509 4147 2053 4147 
L 1259 4147 
z
" transform="scale(0.015625)"/>
     </defs>
     <use xlink:href="#DejaVuSans-52"/>
     <use xlink:href="#DejaVuSans-20" x="69.482422"/>
     <use xlink:href="#DejaVuSans-5b" x="101.269531"/>
     <use xlink:href="#DejaVuSans-32" x="140.283203"/>
     <use xlink:href="#DejaVuSans-31" x="203.90625"/>
     <use xlink:href="#DejaVuSans-5d" x="267.529297"/>
    </g>
   </g>
   <g id="text_16">
    <!-- S [40] -->
    <g transform="translate(188.601179 295.495164) scale(0.1 -0.1)">
     <defs>
      <path id="DejaVuSans-53" d="M 3425 4513 
L 3425 3897 
Q 3066 4069 2747 4153 
Q 2428 4238 2131 4238 
Q 1616 4238 1336 4038 
Q 1056 3838 1056 3469 
Q 1056 3159 1242 3001 
Q 1428 2844 1947 2747 
L 2328 2669 
Q 3034 2534 3370 2195 
Q 3706 1856 3706 1288 
Q 3706 609 3251 259 
Q 2797 -91 1919 -91 
Q 1588 -91 1214 -16 
Q 841 59 441 206 
L 441 856 
Q 825 641 1194 531 
Q 1563 422 1919 422 
Q 2459 422 2753 634 
Q 3047 847 3047 1241 
Q 3047 1584 2836 1778 
Q 2625 1972 2144 2069 
L 1759 2144 
Q 1053 2284 737 2584 
Q 422 2884 422 3419 
Q 422 4038 858 4394 
Q 1294 4750 2059 4750 
Q 2388 4750 2728 4690 
Q 3069 4631 3425 4513 
z
" transform="scale(0.015625)"/>
     </defs>
     <use xlink:href="#DejaVuSans-53"/>
     <use xlink:href="#DejaVuSans-20" x="63.476562"/>
     <use xlink:href="#DejaVuSans-5b" x="95.263672"/>
     <use xlink:href="#DejaVuSans-34" x="134.277344"/>
     <use xlink:href="#DejaVuSans-30" x="197.900391"/>
     <use xlink:href="#DejaVuSans-5d" x="261.523438"/>
    </g>
   </g>
   <g id="text_17">
    <!-- T [22] -->
    <g transform="translate(256.793424 272.201689) scale(0.1 -0.1)">
     <defs>
      <path id="DejaVuSans-54" d="M -19 4666 
L 3928 4666 
L 3928 4134 
L 2272 4134 
L 2272 0 
L 1638 0 
L 1638 4134 
L -19 4134 
L -19 4666 
z
" transform="scale(0.015625)"/>
     </defs>
     <use xlink:href="#DejaVuSans-54"/>
     <use xlink:href="#DejaVuSans-20" x="61.083984"/>
     <use xlink:href="#DejaVuSans-5b" x="92.871094"/>
     <use xlink:href="#DejaVuSans-32" x="131.884766"/>
     <use xlink:href="#DejaVuSans-32" x="195.507812"/>
     <use xlink:href="#DejaVuSans-5d" x="259.130859"/>
    </g>
   </g>
   <g id="text_18">
    <!-- V [26] -->
    <g transform="translate(296.336405 232.493604) scale(0.1 -0.1)">
     <defs>
      <path id="DejaVuSans-56" d="M 1831 0 
L 50 4666 
L 709 4666 
L 2188 738 
L 3669 4666 
L 4325 4666 
L 2547 0 
L 1831 0 
z
" transform="scale(0.015625)"/>
      <path id="DejaVuSans-36" d="M 2113 2584 
Q 1688 2584 1439 2293 
Q 1191 2003 1191 1497 
Q 1191 994 1439 701 
Q 1688 409 2113 409 
Q 2538 409 2786 701 
Q 3034 994 3034 1497 
Q 3034 2003 2786 2293 
Q 2538 2584 2113 2584 
z
M 3366 4563 
L 3366 3988 
Q 3128 4100 2886 4159 
Q 2644 4219 2406 4219 
Q 1781 4219 1451 3797 
Q 1122 3375 1075 2522 
Q 1259 2794 1537 2939 
Q 1816 3084 2150 3084 
Q 2853 3084 3261 2657 
Q 3669 2231 3669 1497 
Q 3669 778 3244 343 
Q 2819 -91 2113 -91 
Q 1303 -91 875 529 
Q 447 1150 447 2328 
Q 447 3434 972 4092 
Q 1497 4750 2381 4750 
Q 2619 4750 2861 4703 
Q 3103 4656 3366 4563 
z
" transform="scale(0.015625)"/>
     </defs>
     <use xlink:href="#DejaVuSans-56"/>
     <use xlink:href="#DejaVuSans-20" x="68.408203"/>
     <use xlink:href="#DejaVuSans-5b" x="100.195312"/>
     <use xlink:href="#DejaVuSans-32" x="139.208984"/>
     <use xlink:href="#DejaVuSans-36" x="202.832031"/>
     <use xlink:href="#DejaVuSans-5d" x="266.455078"/>
    </g>
   </g>
   <g id="text_19">
    <!-- W [5] -->
    <g transform="translate(312.275875 199.843542) scale(0.1 -0.1)">
     <defs>
      <path id="DejaVuSans-57" d="M 213 4666 
L 850 4666 
L 1831 722 
L 2809 4666 
L 3519 4666 
L 4500 722 
L 5478 4666 
L 6119 4666 
L 4947 0 
L 4153 0 
L 3169 4050 
L 2175 0 
L 1381 0 
L 213 4666 
z
" transform="scale(0.015625)"/>
     </defs>
     <use xlink:href="#DejaVuSans-57"/>
     <use xlink:href="#DejaVuSans-20" x="98.876953"/>
     <use xlink:href="#DejaVuSans-5b" x="130.664062"/>
     <use xlink:href="#DejaVuSans-35" x="169.677734"/>
     <use xlink:href="#DejaVuSans-5d" x="233.300781"/>
    </g>
   </g>
   <g id="text_20">
    <!-- Y [17] -->
    <g transform="translate(318.245979 174.722802) scale(0.1 -0.1)">
     <defs>
      <path id="DejaVuSans-59" d="M -13 4666 
L 666 4666 
L 1959 2747 
L 3244 4666 
L 3922 4666 
L 2272 2222 
L 2272 0 
L 1638 0 
L 1638 2222 
L -13 4666 
z
" transform="scale(0.015625)"/>
     </defs>
     <use xlink:href="#DejaVuSans-59"/>
     <use xlink:href="#DejaVuSans-20" x="61.083984"/>
     <use xlink:href="#DejaVuSans-5b" x="92.871094"/>
     <use xlink:href="#DejaVuSans-31" x="131.884766"/>
     <use xlink:href="#DejaVuSans-37" x="195.507812"/>
     <use xlink:href="#DejaVuSans-5d" x="259.130859"/>
    </g>
   </g>
   <g id="text_21">
    <!-- A0A384DJK0 [377] -->
    <g transform="translate(122.95729 152.050087) scale(0.12 -0.12)">
     <defs>
      <path id="DejaVuSans-4a" d="M 628 4666 
L 1259 4666 
L 1259 325 
Q 1259 -519 939 -900 
Q 619 -1281 -91 -1281 
L -331 -1281 
L -331 -750 
L -134 -750 
Q 284 -750 456 -515 
Q 628 -281 628 325 
L 628 4666 
z
" transform="scale(0.015625)"/>
     </defs>
     <use xlink:href="#DejaVuSans-41"/>
     <use xlink:href="#DejaVuSans-30" x="68.408203"/>
     <use xlink:href="#DejaVuSans-41" x="132.03125"/>
     <use xlink:href="#DejaVuSans-33" x="200.439453"/>
     <use xlink:href="#DejaVuSans-38" x="264.0625"/>
     <use xlink:href="#DejaVuSans-34" x="327.685547"/>
     <use xlink:href="#DejaVuSans-44" x="391.308594"/>
     <use xlink:href="#DejaVuSans-4a" x="468.310547"/>
     <use xlink:href="#DejaVuSans-4b" x="497.802734"/>
     <use xlink:href="#DejaVuSans-30" x="563.378906"/>
     <use xlink:href="#DejaVuSans-20" x="627.001953"/>
     <use xlink:href="#DejaVuSans-5b" x="658.789062"/>
     <use xlink:href="#DejaVuSans-33" x="697.802734"/>
     <use xlink:href="#DejaVuSans-37" x="761.425781"/>
     <use xlink:href="#DejaVuSans-37" x="825.048828"/>
     <use xlink:href="#DejaVuSans-5d" x="888.671875"/>
    </g>
   </g>
  </g>
 </g>
</svg>
