<?xml version="1.0" encoding="utf-8" standalone="no"?>
<!DOCTYPE svg PUBLIC "-//W3C//DTD SVG 1.1//EN"
  "http://www.w3.org/Graphics/SVG/1.1/DTD/svg11.dtd">
<svg xmlns:xlink="http://www.w3.org/1999/xlink" width="353.033965pt" height="304.973285pt" viewBox="0 0 353.033965 304.973285" xmlns="http://www.w3.org/2000/svg" version="1.1">
 <metadata>
  <rdf:RDF xmlns:dc="http://purl.org/dc/elements/1.1/" xmlns:cc="http://creativecommons.org/ns#" xmlns:rdf="http://www.w3.org/1999/02/22-rdf-syntax-ns#">
   <cc:Work>
    <dc:type rdf:resource="http://purl.org/dc/dcmitype/StillImage"/>
    <dc:date>2024-09-27T16:07:22.685235</dc:date>
    <dc:format>image/svg+xml</dc:format>
    <dc:creator>
     <cc:Agent>
      <dc:title>Matplotlib v3.8.3, https://matplotlib.org/</dc:title>
     </cc:Agent>
    </dc:creator>
   </cc:Work>
  </rdf:RDF>
 </metadata>
 <defs>
  <style type="text/css">*{stroke-linejoin: round; stroke-linecap: butt}</style>
 </defs>
 <g id="figure_1">
  <g id="patch_1">
   <path d="M 0 304.973285 
L 353.033965 304.973285 
L 353.033965 0 
L 0 0 
z
" style="fill: #ffffff"/>
  </g>
  <g id="axes_1">
   <g id="patch_2">
    <path d="M 304.860118 152.785875 
C 304.860118 144.697488 304.091855 136.627353 302.565687 128.684254 
C 301.039518 120.741155 298.762332 112.960942 295.764822 105.448489 
L 177.126358 152.785875 
z
" style="fill: #1f77b4"/>
   </g>
   <g id="patch_3">
    <path d="M 295.717855 105.310218 
C 294.369782 101.931634 292.878001 98.612178 291.246592 95.360926 
C 289.615184 92.109675 287.845636 88.929596 285.942788 85.829387 
L 177.07939 152.647604 
z
" style="fill: #ff7f0e"/>
   </g>
   <g id="patch_4">
    <path d="M 285.901204 85.760172 
C 284.421301 83.349043 282.861702 80.987745 281.224989 78.680185 
C 279.588276 76.372626 277.875352 74.120079 276.089052 71.926271 
L 177.037807 152.57839 
z
" style="fill: #aec7e8"/>
   </g>
   <g id="patch_5">
    <path d="M 276.033948 71.860529 
C 273.481847 68.726219 270.782413 65.714809 267.944761 62.836467 
C 265.107108 59.958125 262.134434 57.216094 259.036773 54.61963 
L 176.982702 152.512648 
z
" style="fill: #ffbb78"/>
   </g>
   <g id="patch_6">
    <path d="M 258.898714 54.518722 
C 251.457697 48.281651 243.329748 42.913274 234.672465 38.517682 
C 226.015182 34.12209 216.884883 30.727878 207.458603 28.400858 
L 176.844643 152.41174 
z
" style="fill: #98df8a"/>
   </g>
   <g id="patch_7">
    <path d="M 207.285662 28.347556 
C 202.576334 27.184987 197.804603 26.291617 192.993662 25.671789 
C 188.182721 25.05196 183.340376 24.706679 178.490162 24.637622 
L 176.671702 152.358438 
z
" style="fill: #2ca02c"/>
   </g>
   <g id="patch_8">
    <path d="M 178.394384 24.633985 
C 175.565597 24.593709 172.736252 24.647423 169.911031 24.795039 
C 167.085811 24.942654 164.266275 25.184089 161.457088 25.518944 
L 176.575923 152.3548 
z
" style="fill: #d62728"/>
   </g>
   <g id="patch_9">
    <path d="M 161.27131 25.56294 
C 148.809377 27.048403 136.634131 30.362411 125.138517 35.398009 
C 113.642904 40.433607 102.951938 47.136031 93.41066 55.288969 
L 176.390145 152.398795 
z
" style="fill: #9467bd"/>
   </g>
   <g id="patch_10">
    <path d="M 93.211495 55.440422 
C 87.37017 60.431782 81.991099 65.940026 77.139734 71.898131 
C 72.288369 77.856235 67.984469 84.239934 64.280403 90.971549 
L 176.19098 152.550248 
z
" style="fill: #ff9896"/>
   </g>
   <g id="patch_11">
    <path d="M 64.164341 91.247113 
C 56.151651 105.809044 51.057679 121.795886 49.168743 138.309061 
C 47.279806 154.822236 48.631973 171.54645 53.149241 187.541678 
L 176.074918 152.825812 
z
" style="fill: #c5b0d5"/>
   </g>
   <g id="patch_12">
    <path d="M 53.191532 187.818024 
C 54.839707 193.654057 56.901399 199.365316 59.36096 204.908449 
C 61.820522 210.451582 64.671713 215.812529 67.892893 220.950599 
L 176.117209 153.102158 
z
" style="fill: #c49c94"/>
   </g>
   <g id="patch_13">
    <path d="M 67.966664 221.07079 
C 70.758061 225.523316 73.821575 229.799338 77.139736 233.874469 
C 80.457897 237.9496 84.024384 241.816078 87.818857 245.451853 
L 176.19098 153.222349 
z
" style="fill: #8c564b"/>
   </g>
   <g id="patch_14">
    <path d="M 87.925725 245.551372 
C 92.596608 250.026901 97.600739 254.141142 102.894909 257.85857 
C 108.189079 261.575998 113.758007 264.885882 119.553609 267.759645 
L 176.297848 153.321868 
z
" style="fill: #e377c2"/>
   </g>
   <g id="patch_15">
    <path d="M 119.655198 267.815544 
C 122.18979 269.072328 124.765435 270.244559 127.377873 271.330299 
C 129.99031 272.416039 132.638097 273.414688 135.316853 274.324594 
L 176.399437 153.377768 
z
" style="fill: #7f7f7f"/>
   </g>
   <g id="patch_16">
    <path d="M 135.408314 274.353259 
C 140.001284 275.913375 144.679397 277.210597 149.419914 278.238621 
C 154.160432 279.266645 158.955662 280.023803 163.7823 280.506413 
L 176.490898 153.406433 
z
" style="fill: #f7b6d2"/>
   </g>
   <g id="patch_17">
    <path d="M 163.958091 280.514762 
C 173.215819 281.440433 182.547035 281.351865 191.785525 280.250637 
C 201.024015 279.149409 210.114596 277.042098 218.895342 273.966241 
L 176.666689 153.414781 
z
" style="fill: #c7c7c7"/>
   </g>
   <g id="patch_18">
    <path d="M 219.108601 273.892671 
C 227.506868 270.950795 235.574773 267.139351 243.180792 262.520475 
C 250.786811 257.901599 257.889388 252.500526 264.372736 246.405305 
L 176.879947 153.341212 
z
" style="fill: #dbdb8d"/>
   </g>
   <g id="patch_19">
    <path d="M 264.533499 246.254166 
C 271.016848 240.158945 276.845546 233.402876 281.924575 226.096098 
C 287.003603 218.78932 291.305212 210.971753 294.759277 202.77084 
L 177.04071 153.190074 
z
" style="fill: #bcbd22"/>
   </g>
   <g id="patch_20">
    <path d="M 294.822003 202.650151 
C 295.606343 200.787909 296.346383 198.907318 297.041498 197.009966 
C 297.736613 195.112613 298.386608 193.199033 298.990933 191.270842 
L 177.103436 153.069385 
z
" style="fill: #17becf"/>
   </g>
   <g id="patch_21">
    <path d="M 299.01729 191.168269 
C 300.95197 184.995383 302.414927 178.684436 303.393529 172.289919 
C 304.37213 165.895402 304.863553 159.435773 304.863553 152.966808 
L 177.129793 152.966812 
z
" style="fill: #9edae5"/>
   </g>
   <g id="patch_22">
    <path d="M 251.115054 152.886299 
C 251.115054 148.168073 250.666901 143.460494 249.776636 138.82702 
C 248.886371 134.193545 247.558012 129.655088 245.809465 125.272823 
L 176.603694 152.886299 
z
" style="fill: #ffffff"/>
   </g>
   <g id="patch_23">
    <path d="M 245.809465 125.272823 
C 245.023089 123.301983 244.152883 121.365633 243.201228 119.46907 
C 242.249573 117.572507 241.217337 115.717461 240.107342 113.909005 
L 176.603694 152.886299 
z
" style="fill: #ffffff"/>
   </g>
   <g id="patch_24">
    <path d="M 240.107342 113.909005 
C 239.244065 112.502513 238.334299 111.125089 237.37955 109.779013 
C 236.424801 108.432937 235.425595 107.118951 234.383587 105.83923 
L 176.603694 152.886299 
z
" style="fill: #ffffff"/>
   </g>
   <g id="patch_25">
    <path d="M 234.383587 105.83923 
C 232.894861 104.010882 231.320192 102.254226 229.664894 100.575193 
C 228.009597 98.89616 226.275537 97.296642 224.468568 95.782038 
L 176.603694 152.886299 
z
" style="fill: #ffffff"/>
   </g>
   <g id="patch_26">
    <path d="M 224.468568 95.782038 
C 220.127975 92.143747 215.386672 89.012194 210.33659 86.448098 
C 205.286508 83.884003 199.960501 81.904046 194.461837 80.546617 
L 176.603694 152.886299 
z
" style="fill: #ffffff"/>
   </g>
   <g id="patch_27">
    <path d="M 194.461837 80.546617 
C 191.714729 79.868452 188.931219 79.34732 186.124837 78.985753 
C 183.318455 78.624187 180.493754 78.422773 177.664462 78.38249 
L 176.603694 152.886299 
z
" style="fill: #ffffff"/>
   </g>
   <g id="patch_28">
    <path d="M 177.664462 78.38249 
C 176.014336 78.358996 174.363885 78.390329 172.71584 78.476438 
C 171.067795 78.562547 169.423065 78.703384 167.784373 78.898716 
L 176.603694 152.886299 
z
" style="fill: #ffffff"/>
   </g>
   <g id="patch_29">
    <path d="M 167.784373 78.898716 
C 160.514912 79.765236 153.412685 81.698408 146.706911 84.63584 
C 140.001136 87.573272 133.764739 91.48302 128.198994 96.2389 
L 176.603694 152.886299 
z
" style="fill: #ffffff"/>
   </g>
   <g id="patch_30">
    <path d="M 128.198994 96.2389 
C 124.791555 99.150527 121.653763 102.363669 118.8238 105.83923 
C 115.993837 109.314791 113.483229 113.038615 111.322524 116.965391 
L 176.603694 152.886299 
z
" style="fill: #ffffff"/>
   </g>
   <g id="patch_31">
    <path d="M 111.322524 116.965391 
C 106.648455 125.459851 103.676971 134.785509 102.575091 144.418194 
C 101.473212 154.050879 102.261976 163.806671 104.897049 173.13722 
L 176.603694 152.886299 
z
" style="fill: #ffffff"/>
   </g>
   <g id="patch_32">
    <path d="M 104.897049 173.13722 
C 105.858484 176.541573 107.061138 179.873141 108.495882 183.106635 
C 109.930626 186.340129 111.593821 189.467348 113.472843 192.464556 
L 176.603694 152.886299 
z
" style="fill: #ffffff"/>
   </g>
   <g id="patch_33">
    <path d="M 113.472843 192.464556 
C 115.101157 195.061863 116.888207 197.556209 118.823801 199.933369 
C 120.759395 202.310528 122.839846 204.565974 125.053289 206.686842 
L 176.603694 152.886299 
z
" style="fill: #ffffff"/>
   </g>
   <g id="patch_34">
    <path d="M 125.053289 206.686842 
C 127.77797 209.297568 130.697047 211.697542 133.785312 213.866041 
C 136.873578 216.034541 140.12212 217.965307 143.502887 219.641668 
L 176.603694 152.886299 
z
" style="fill: #ffffff"/>
   </g>
   <g id="patch_35">
    <path d="M 143.502887 219.641668 
C 144.981399 220.374792 146.483859 221.058594 148.007781 221.691942 
C 149.531703 222.32529 151.076245 222.907836 152.638853 223.438614 
L 176.603694 152.886299 
z
" style="fill: #ffffff"/>
   </g>
   <g id="patch_36">
    <path d="M 152.638853 223.438614 
C 155.318086 224.348682 158.046985 225.105395 160.812287 225.705075 
C 163.577589 226.304756 166.374806 226.746431 169.190345 227.027954 
L 176.603694 152.886299 
z
" style="fill: #ffffff"/>
   </g>
   <g id="patch_37">
    <path d="M 169.190345 227.027954 
C 174.590686 227.567929 180.033896 227.516264 185.423015 226.873881 
C 190.812134 226.231498 196.114973 225.002233 201.237075 223.207983 
L 176.603694 152.886299 
z
" style="fill: #ffffff"/>
   </g>
   <g id="patch_38">
    <path d="M 201.237075 223.207983 
C 206.136064 221.491888 210.842342 219.268546 215.279186 216.574202 
C 219.716031 213.879858 223.859201 210.729232 227.641154 207.173686 
L 176.603694 152.886299 
z
" style="fill: #ffffff"/>
   </g>
   <g id="patch_39">
    <path d="M 227.641154 207.173686 
C 231.423108 203.61814 234.823182 199.6771 237.785948 195.414813 
C 240.748715 191.152525 243.257987 186.592278 245.272858 181.808412 
L 176.603694 152.886299 
z
" style="fill: #ffffff"/>
   </g>
   <g id="patch_40">
    <path d="M 245.272858 181.808412 
C 245.73039 180.722105 246.16208 179.625094 246.567563 178.518305 
C 246.973047 177.411516 247.352211 176.295261 247.704734 175.170482 
L 176.603694 152.886299 
z
" style="fill: #ffffff"/>
   </g>
   <g id="patch_41">
    <path d="M 247.704734 175.170482 
C 248.833297 171.569632 249.686689 167.888246 250.25754 164.158111 
C 250.828391 160.427976 251.115054 156.659859 251.115054 152.886297 
L 176.603694 152.886299 
z
" style="fill: #ffffff"/>
   </g>
   <g id="matplotlib.axis_1"/>
   <g id="matplotlib.axis_2"/>
   <g id="text_1">
    <!-- A [20] -->
    <g transform="translate(315.10962 129.033467) scale(0.1 -0.1)">
     <defs>
      <path id="DejaVuSans-41" d="M 2188 4044 
L 1331 1722 
L 3047 1722 
L 2188 4044 
z
M 1831 4666 
L 2547 4666 
L 4325 0 
L 3669 0 
L 3244 1197 
L 1141 1197 
L 716 0 
L 50 0 
L 1831 4666 
z
" transform="scale(0.015625)"/>
      <path id="DejaVuSans-20" transform="scale(0.015625)"/>
      <path id="DejaVuSans-5b" d="M 550 4863 
L 1875 4863 
L 1875 4416 
L 1125 4416 
L 1125 -397 
L 1875 -397 
L 1875 -844 
L 550 -844 
L 550 4863 
z
" transform="scale(0.015625)"/>
      <path id="DejaVuSans-32" d="M 1228 531 
L 3431 531 
L 3431 0 
L 469 0 
L 469 531 
Q 828 903 1448 1529 
Q 2069 2156 2228 2338 
Q 2531 2678 2651 2914 
Q 2772 3150 2772 3378 
Q 2772 3750 2511 3984 
Q 2250 4219 1831 4219 
Q 1534 4219 1204 4116 
Q 875 4013 500 3803 
L 500 4441 
Q 881 4594 1212 4672 
Q 1544 4750 1819 4750 
Q 2544 4750 2975 4387 
Q 3406 4025 3406 3419 
Q 3406 3131 3298 2873 
Q 3191 2616 2906 2266 
Q 2828 2175 2409 1742 
Q 1991 1309 1228 531 
z
" transform="scale(0.015625)"/>
      <path id="DejaVuSans-30" d="M 2034 4250 
Q 1547 4250 1301 3770 
Q 1056 3291 1056 2328 
Q 1056 1369 1301 889 
Q 1547 409 2034 409 
Q 2525 409 2770 889 
Q 3016 1369 3016 2328 
Q 3016 3291 2770 3770 
Q 2525 4250 2034 4250 
z
M 2034 4750 
Q 2819 4750 3233 4129 
Q 3647 3509 3647 2328 
Q 3647 1150 3233 529 
Q 2819 -91 2034 -91 
Q 1250 -91 836 529 
Q 422 1150 422 2328 
Q 422 3509 836 4129 
Q 1250 4750 2034 4750 
z
" transform="scale(0.015625)"/>
      <path id="DejaVuSans-5d" d="M 1947 4863 
L 1947 -844 
L 622 -844 
L 622 -397 
L 1369 -397 
L 1369 4416 
L 622 4416 
L 622 4863 
L 1947 4863 
z
" transform="scale(0.015625)"/>
     </defs>
     <use xlink:href="#DejaVuSans-41"/>
     <use xlink:href="#DejaVuSans-20" x="68.408203"/>
     <use xlink:href="#DejaVuSans-5b" x="100.195312"/>
     <use xlink:href="#DejaVuSans-32" x="139.208984"/>
     <use xlink:href="#DejaVuSans-30" x="202.832031"/>
     <use xlink:href="#DejaVuSans-5d" x="266.455078"/>
    </g>
   </g>
   <g id="text_2">
    <!-- C [9] -->
    <g transform="translate(302.663313 92.391634) scale(0.1 -0.1)">
     <defs>
      <path id="DejaVuSans-43" d="M 4122 4306 
L 4122 3641 
Q 3803 3938 3442 4084 
Q 3081 4231 2675 4231 
Q 1875 4231 1450 3742 
Q 1025 3253 1025 2328 
Q 1025 1406 1450 917 
Q 1875 428 2675 428 
Q 3081 428 3442 575 
Q 3803 722 4122 1019 
L 4122 359 
Q 3791 134 3420 21 
Q 3050 -91 2638 -91 
Q 1578 -91 968 557 
Q 359 1206 359 2328 
Q 359 3453 968 4101 
Q 1578 4750 2638 4750 
Q 3056 4750 3426 4639 
Q 3797 4528 4122 4306 
z
" transform="scale(0.015625)"/>
      <path id="DejaVuSans-39" d="M 703 97 
L 703 672 
Q 941 559 1184 500 
Q 1428 441 1663 441 
Q 2288 441 2617 861 
Q 2947 1281 2994 2138 
Q 2813 1869 2534 1725 
Q 2256 1581 1919 1581 
Q 1219 1581 811 2004 
Q 403 2428 403 3163 
Q 403 3881 828 4315 
Q 1253 4750 1959 4750 
Q 2769 4750 3195 4129 
Q 3622 3509 3622 2328 
Q 3622 1225 3098 567 
Q 2575 -91 1691 -91 
Q 1453 -91 1209 -44 
Q 966 3 703 97 
z
M 1959 2075 
Q 2384 2075 2632 2365 
Q 2881 2656 2881 3163 
Q 2881 3666 2632 3958 
Q 2384 4250 1959 4250 
Q 1534 4250 1286 3958 
Q 1038 3666 1038 3163 
Q 1038 2656 1286 2365 
Q 1534 2075 1959 2075 
z
" transform="scale(0.015625)"/>
     </defs>
     <use xlink:href="#DejaVuSans-43"/>
     <use xlink:href="#DejaVuSans-20" x="69.824219"/>
     <use xlink:href="#DejaVuSans-5b" x="101.611328"/>
     <use xlink:href="#DejaVuSans-39" x="140.625"/>
     <use xlink:href="#DejaVuSans-5d" x="204.248047"/>
    </g>
   </g>
   <g id="text_3">
    <!-- D [7] -->
    <g transform="translate(291.643707 74.04974) scale(0.1 -0.1)">
     <defs>
      <path id="DejaVuSans-44" d="M 1259 4147 
L 1259 519 
L 2022 519 
Q 2988 519 3436 956 
Q 3884 1394 3884 2338 
Q 3884 3275 3436 3711 
Q 2988 4147 2022 4147 
L 1259 4147 
z
M 628 4666 
L 1925 4666 
Q 3281 4666 3915 4102 
Q 4550 3538 4550 2338 
Q 4550 1131 3912 565 
Q 3275 0 1925 0 
L 628 0 
L 628 4666 
z
" transform="scale(0.015625)"/>
      <path id="DejaVuSans-37" d="M 525 4666 
L 3525 4666 
L 3525 4397 
L 1831 0 
L 1172 0 
L 2766 4134 
L 525 4134 
L 525 4666 
z
" transform="scale(0.015625)"/>
     </defs>
     <use xlink:href="#DejaVuSans-44"/>
     <use xlink:href="#DejaVuSans-20" x="77.001953"/>
     <use xlink:href="#DejaVuSans-5b" x="108.789062"/>
     <use xlink:href="#DejaVuSans-37" x="147.802734"/>
     <use xlink:href="#DejaVuSans-5d" x="211.425781"/>
    </g>
   </g>
   <g id="text_4">
    <!-- E [10] -->
    <g transform="translate(277.040966 56.628224) scale(0.1 -0.1)">
     <defs>
      <path id="DejaVuSans-45" d="M 628 4666 
L 3578 4666 
L 3578 4134 
L 1259 4134 
L 1259 2753 
L 3481 2753 
L 3481 2222 
L 1259 2222 
L 1259 531 
L 3634 531 
L 3634 0 
L 628 0 
L 628 4666 
z
" transform="scale(0.015625)"/>
      <path id="DejaVuSans-31" d="M 794 531 
L 1825 531 
L 1825 4091 
L 703 3866 
L 703 4441 
L 1819 4666 
L 2450 4666 
L 2450 531 
L 3481 531 
L 3481 0 
L 794 0 
L 794 531 
z
" transform="scale(0.015625)"/>
     </defs>
     <use xlink:href="#DejaVuSans-45"/>
     <use xlink:href="#DejaVuSans-20" x="63.183594"/>
     <use xlink:href="#DejaVuSans-5b" x="94.970703"/>
     <use xlink:href="#DejaVuSans-31" x="133.984375"/>
     <use xlink:href="#DejaVuSans-30" x="197.607422"/>
     <use xlink:href="#DejaVuSans-5d" x="261.230469"/>
    </g>
   </g>
   <g id="text_5">
    <!-- F [24] -->
    <g transform="translate(240.455247 29.887651) scale(0.1 -0.1)">
     <defs>
      <path id="DejaVuSans-46" d="M 628 4666 
L 3309 4666 
L 3309 4134 
L 1259 4134 
L 1259 2759 
L 3109 2759 
L 3109 2228 
L 1259 2228 
L 1259 0 
L 628 0 
L 628 4666 
z
" transform="scale(0.015625)"/>
      <path id="DejaVuSans-34" d="M 2419 4116 
L 825 1625 
L 2419 1625 
L 2419 4116 
z
M 2253 4666 
L 3047 4666 
L 3047 1625 
L 3713 1625 
L 3713 1100 
L 3047 1100 
L 3047 0 
L 2419 0 
L 2419 1100 
L 313 1100 
L 313 1709 
L 2253 4666 
z
" transform="scale(0.015625)"/>
     </defs>
     <use xlink:href="#DejaVuSans-46"/>
     <use xlink:href="#DejaVuSans-20" x="57.519531"/>
     <use xlink:href="#DejaVuSans-5b" x="89.306641"/>
     <use xlink:href="#DejaVuSans-32" x="128.320312"/>
     <use xlink:href="#DejaVuSans-34" x="191.943359"/>
     <use xlink:href="#DejaVuSans-5d" x="255.566406"/>
    </g>
   </g>
   <g id="text_6">
    <!-- G [12] -->
    <g transform="translate(194.625858 15.762499) scale(0.1 -0.1)">
     <defs>
      <path id="DejaVuSans-47" d="M 3809 666 
L 3809 1919 
L 2778 1919 
L 2778 2438 
L 4434 2438 
L 4434 434 
Q 4069 175 3628 42 
Q 3188 -91 2688 -91 
Q 1594 -91 976 548 
Q 359 1188 359 2328 
Q 359 3472 976 4111 
Q 1594 4750 2688 4750 
Q 3144 4750 3555 4637 
Q 3966 4525 4313 4306 
L 4313 3634 
Q 3963 3931 3569 4081 
Q 3175 4231 2741 4231 
Q 1884 4231 1454 3753 
Q 1025 3275 1025 2328 
Q 1025 1384 1454 906 
Q 1884 428 2741 428 
Q 3075 428 3337 486 
Q 3600 544 3809 666 
z
" transform="scale(0.015625)"/>
     </defs>
     <use xlink:href="#DejaVuSans-47"/>
     <use xlink:href="#DejaVuSans-20" x="77.490234"/>
     <use xlink:href="#DejaVuSans-5b" x="109.277344"/>
     <use xlink:href="#DejaVuSans-31" x="148.291016"/>
     <use xlink:href="#DejaVuSans-32" x="211.914062"/>
     <use xlink:href="#DejaVuSans-5d" x="275.537109"/>
    </g>
   </g>
   <g id="text_7">
    <!-- H [7] -->
    <g transform="translate(144.38048 14.798437) scale(0.1 -0.1)">
     <defs>
      <path id="DejaVuSans-48" d="M 628 4666 
L 1259 4666 
L 1259 2753 
L 3553 2753 
L 3553 4666 
L 4184 4666 
L 4184 0 
L 3553 0 
L 3553 2222 
L 1259 2222 
L 1259 0 
L 628 0 
L 628 4666 
z
" transform="scale(0.015625)"/>
     </defs>
     <use xlink:href="#DejaVuSans-48"/>
     <use xlink:href="#DejaVuSans-20" x="75.195312"/>
     <use xlink:href="#DejaVuSans-5b" x="106.982422"/>
     <use xlink:href="#DejaVuSans-37" x="145.996094"/>
     <use xlink:href="#DejaVuSans-5d" x="209.619141"/>
    </g>
   </g>
   <g id="text_8">
    <!-- I [31] -->
    <g transform="translate(93.357105 26.457305) scale(0.1 -0.1)">
     <defs>
      <path id="DejaVuSans-49" d="M 628 4666 
L 1259 4666 
L 1259 0 
L 628 0 
L 628 4666 
z
" transform="scale(0.015625)"/>
      <path id="DejaVuSans-33" d="M 2597 2516 
Q 3050 2419 3304 2112 
Q 3559 1806 3559 1356 
Q 3559 666 3084 287 
Q 2609 -91 1734 -91 
Q 1441 -91 1130 -33 
Q 819 25 488 141 
L 488 750 
Q 750 597 1062 519 
Q 1375 441 1716 441 
Q 2309 441 2620 675 
Q 2931 909 2931 1356 
Q 2931 1769 2642 2001 
Q 2353 2234 1838 2234 
L 1294 2234 
L 1294 2753 
L 1863 2753 
Q 2328 2753 2575 2939 
Q 2822 3125 2822 3475 
Q 2822 3834 2567 4026 
Q 2313 4219 1838 4219 
Q 1578 4219 1281 4162 
Q 984 4106 628 3988 
L 628 4550 
Q 988 4650 1302 4700 
Q 1616 4750 1894 4750 
Q 2613 4750 3031 4423 
Q 3450 4097 3450 3541 
Q 3450 3153 3228 2886 
Q 3006 2619 2597 2516 
z
" transform="scale(0.015625)"/>
     </defs>
     <use xlink:href="#DejaVuSans-49"/>
     <use xlink:href="#DejaVuSans-20" x="29.492188"/>
     <use xlink:href="#DejaVuSans-5b" x="61.279297"/>
     <use xlink:href="#DejaVuSans-33" x="100.292969"/>
     <use xlink:href="#DejaVuSans-31" x="163.916016"/>
     <use xlink:href="#DejaVuSans-5d" x="227.539062"/>
    </g>
   </g>
   <g id="text_9">
    <!-- K [19] -->
    <g transform="translate(36.970547 66.592294) scale(0.1 -0.1)">
     <defs>
      <path id="DejaVuSans-4b" d="M 628 4666 
L 1259 4666 
L 1259 2694 
L 3353 4666 
L 4166 4666 
L 1850 2491 
L 4331 0 
L 3500 0 
L 1259 2247 
L 1259 0 
L 628 0 
L 628 4666 
z
" transform="scale(0.015625)"/>
     </defs>
     <use xlink:href="#DejaVuSans-4b"/>
     <use xlink:href="#DejaVuSans-20" x="65.576172"/>
     <use xlink:href="#DejaVuSans-5b" x="97.363281"/>
     <use xlink:href="#DejaVuSans-31" x="136.376953"/>
     <use xlink:href="#DejaVuSans-39" x="200"/>
     <use xlink:href="#DejaVuSans-5d" x="263.623047"/>
    </g>
   </g>
   <g id="text_10">
    <!-- L [41] -->
    <g transform="translate(7.2 139.616761) scale(0.1 -0.1)">
     <defs>
      <path id="DejaVuSans-4c" d="M 628 4666 
L 1259 4666 
L 1259 531 
L 3531 531 
L 3531 0 
L 628 0 
L 628 4666 
z
" transform="scale(0.015625)"/>
     </defs>
     <use xlink:href="#DejaVuSans-4c"/>
     <use xlink:href="#DejaVuSans-20" x="55.712891"/>
     <use xlink:href="#DejaVuSans-5b" x="87.5"/>
     <use xlink:href="#DejaVuSans-34" x="126.513672"/>
     <use xlink:href="#DejaVuSans-31" x="190.136719"/>
     <use xlink:href="#DejaVuSans-5d" x="253.759766"/>
    </g>
   </g>
   <g id="text_11">
    <!-- M [15] -->
    <g transform="translate(15.35096 212.848453) scale(0.1 -0.1)">
     <defs>
      <path id="DejaVuSans-4d" d="M 628 4666 
L 1569 4666 
L 2759 1491 
L 3956 4666 
L 4897 4666 
L 4897 0 
L 4281 0 
L 4281 4097 
L 3078 897 
L 2444 897 
L 1241 4097 
L 1241 0 
L 628 0 
L 628 4666 
z
" transform="scale(0.015625)"/>
      <path id="DejaVuSans-35" d="M 691 4666 
L 3169 4666 
L 3169 4134 
L 1269 4134 
L 1269 2991 
Q 1406 3038 1543 3061 
Q 1681 3084 1819 3084 
Q 2600 3084 3056 2656 
Q 3513 2228 3513 1497 
Q 3513 744 3044 326 
Q 2575 -91 1722 -91 
Q 1428 -91 1123 -41 
Q 819 9 494 109 
L 494 744 
Q 775 591 1075 516 
Q 1375 441 1709 441 
Q 2250 441 2565 725 
Q 2881 1009 2881 1497 
Q 2881 1984 2565 2268 
Q 2250 2553 1709 2553 
Q 1456 2553 1204 2497 
Q 953 2441 691 2322 
L 691 4666 
z
" transform="scale(0.015625)"/>
     </defs>
     <use xlink:href="#DejaVuSans-4d"/>
     <use xlink:href="#DejaVuSans-20" x="86.279297"/>
     <use xlink:href="#DejaVuSans-5b" x="118.066406"/>
     <use xlink:href="#DejaVuSans-31" x="157.080078"/>
     <use xlink:href="#DejaVuSans-35" x="220.703125"/>
     <use xlink:href="#DejaVuSans-5d" x="284.326172"/>
    </g>
   </g>
   <g id="text_12">
    <!-- N [13] -->
    <g transform="translate(36.047111 244.699056) scale(0.1 -0.1)">
     <defs>
      <path id="DejaVuSans-4e" d="M 628 4666 
L 1478 4666 
L 3547 763 
L 3547 4666 
L 4159 4666 
L 4159 0 
L 3309 0 
L 1241 3903 
L 1241 0 
L 628 0 
L 628 4666 
z
" transform="scale(0.015625)"/>
     </defs>
     <use xlink:href="#DejaVuSans-4e"/>
     <use xlink:href="#DejaVuSans-20" x="74.804688"/>
     <use xlink:href="#DejaVuSans-5b" x="106.591797"/>
     <use xlink:href="#DejaVuSans-31" x="145.605469"/>
     <use xlink:href="#DejaVuSans-33" x="209.228516"/>
     <use xlink:href="#DejaVuSans-5d" x="272.851562"/>
    </g>
   </g>
   <g id="text_13">
    <!-- P [16] -->
    <g transform="translate(65.818677 271.071615) scale(0.1 -0.1)">
     <defs>
      <path id="DejaVuSans-50" d="M 1259 4147 
L 1259 2394 
L 2053 2394 
Q 2494 2394 2734 2622 
Q 2975 2850 2975 3272 
Q 2975 3691 2734 3919 
Q 2494 4147 2053 4147 
L 1259 4147 
z
M 628 4666 
L 2053 4666 
Q 2838 4666 3239 4311 
Q 3641 3956 3641 3272 
Q 3641 2581 3239 2228 
Q 2838 1875 2053 1875 
L 1259 1875 
L 1259 0 
L 628 0 
L 628 4666 
z
" transform="scale(0.015625)"/>
      <path id="DejaVuSans-36" d="M 2113 2584 
Q 1688 2584 1439 2293 
Q 1191 2003 1191 1497 
Q 1191 994 1439 701 
Q 1688 409 2113 409 
Q 2538 409 2786 701 
Q 3034 994 3034 1497 
Q 3034 2003 2786 2293 
Q 2538 2584 2113 2584 
z
M 3366 4563 
L 3366 3988 
Q 3128 4100 2886 4159 
Q 2644 4219 2406 4219 
Q 1781 4219 1451 3797 
Q 1122 3375 1075 2522 
Q 1259 2794 1537 2939 
Q 1816 3084 2150 3084 
Q 2853 3084 3261 2657 
Q 3669 2231 3669 1497 
Q 3669 778 3244 343 
Q 2819 -91 2113 -91 
Q 1303 -91 875 529 
Q 447 1150 447 2328 
Q 447 3434 972 4092 
Q 1497 4750 2381 4750 
Q 2619 4750 2861 4703 
Q 3103 4656 3366 4563 
z
" transform="scale(0.015625)"/>
     </defs>
     <use xlink:href="#DejaVuSans-50"/>
     <use xlink:href="#DejaVuSans-20" x="60.302734"/>
     <use xlink:href="#DejaVuSans-5b" x="92.089844"/>
     <use xlink:href="#DejaVuSans-31" x="131.103516"/>
     <use xlink:href="#DejaVuSans-36" x="194.726562"/>
     <use xlink:href="#DejaVuSans-5d" x="258.349609"/>
    </g>
   </g>
   <g id="text_14">
    <!-- Q [7] -->
    <g transform="translate(97.260091 285.884927) scale(0.1 -0.1)">
     <defs>
      <path id="DejaVuSans-51" d="M 2522 4238 
Q 1834 4238 1429 3725 
Q 1025 3213 1025 2328 
Q 1025 1447 1429 934 
Q 1834 422 2522 422 
Q 3209 422 3611 934 
Q 4013 1447 4013 2328 
Q 4013 3213 3611 3725 
Q 3209 4238 2522 4238 
z
M 3406 84 
L 4238 -825 
L 3475 -825 
L 2784 -78 
Q 2681 -84 2626 -87 
Q 2572 -91 2522 -91 
Q 1538 -91 948 567 
Q 359 1225 359 2328 
Q 359 3434 948 4092 
Q 1538 4750 2522 4750 
Q 3503 4750 4090 4092 
Q 4678 3434 4678 2328 
Q 4678 1516 4351 937 
Q 4025 359 3406 84 
z
" transform="scale(0.015625)"/>
     </defs>
     <use xlink:href="#DejaVuSans-51"/>
     <use xlink:href="#DejaVuSans-20" x="78.710938"/>
     <use xlink:href="#DejaVuSans-5b" x="110.498047"/>
     <use xlink:href="#DejaVuSans-37" x="149.511719"/>
     <use xlink:href="#DejaVuSans-5d" x="213.134766"/>
    </g>
   </g>
   <g id="text_15">
    <!-- R [12] -->
    <g transform="translate(116.058128 293.481215) scale(0.1 -0.1)">
     <defs>
      <path id="DejaVuSans-52" d="M 2841 2188 
Q 3044 2119 3236 1894 
Q 3428 1669 3622 1275 
L 4263 0 
L 3584 0 
L 2988 1197 
Q 2756 1666 2539 1819 
Q 2322 1972 1947 1972 
L 1259 1972 
L 1259 0 
L 628 0 
L 628 4666 
L 2053 4666 
Q 2853 4666 3247 4331 
Q 3641 3997 3641 3322 
Q 3641 2881 3436 2590 
Q 3231 2300 2841 2188 
z
M 1259 4147 
L 1259 2491 
L 2053 2491 
Q 2509 2491 2742 2702 
Q 2975 2913 2975 3322 
Q 2975 3731 2742 3939 
Q 2509 4147 2053 4147 
L 1259 4147 
z
" transform="scale(0.015625)"/>
     </defs>
     <use xlink:href="#DejaVuSans-52"/>
     <use xlink:href="#DejaVuSans-20" x="69.482422"/>
     <use xlink:href="#DejaVuSans-5b" x="101.269531"/>
     <use xlink:href="#DejaVuSans-31" x="140.283203"/>
     <use xlink:href="#DejaVuSans-32" x="203.90625"/>
     <use xlink:href="#DejaVuSans-5d" x="267.529297"/>
    </g>
   </g>
   <g id="text_16">
    <!-- S [23] -->
    <g transform="translate(193.297408 295.693598) scale(0.1 -0.1)">
     <defs>
      <path id="DejaVuSans-53" d="M 3425 4513 
L 3425 3897 
Q 3066 4069 2747 4153 
Q 2428 4238 2131 4238 
Q 1616 4238 1336 4038 
Q 1056 3838 1056 3469 
Q 1056 3159 1242 3001 
Q 1428 2844 1947 2747 
L 2328 2669 
Q 3034 2534 3370 2195 
Q 3706 1856 3706 1288 
Q 3706 609 3251 259 
Q 2797 -91 1919 -91 
Q 1588 -91 1214 -16 
Q 841 59 441 206 
L 441 856 
Q 825 641 1194 531 
Q 1563 422 1919 422 
Q 2459 422 2753 634 
Q 3047 847 3047 1241 
Q 3047 1584 2836 1778 
Q 2625 1972 2144 2069 
L 1759 2144 
Q 1053 2284 737 2584 
Q 422 2884 422 3419 
Q 422 4038 858 4394 
Q 1294 4750 2059 4750 
Q 2388 4750 2728 4690 
Q 3069 4631 3425 4513 
z
" transform="scale(0.015625)"/>
     </defs>
     <use xlink:href="#DejaVuSans-53"/>
     <use xlink:href="#DejaVuSans-20" x="63.476562"/>
     <use xlink:href="#DejaVuSans-5b" x="95.263672"/>
     <use xlink:href="#DejaVuSans-32" x="134.277344"/>
     <use xlink:href="#DejaVuSans-33" x="197.900391"/>
     <use xlink:href="#DejaVuSans-5d" x="261.523438"/>
    </g>
   </g>
   <g id="text_17">
    <!-- T [22] -->
    <g transform="translate(249.810876 276.197777) scale(0.1 -0.1)">
     <defs>
      <path id="DejaVuSans-54" d="M -19 4666 
L 3928 4666 
L 3928 4134 
L 2272 4134 
L 2272 0 
L 1638 0 
L 1638 4134 
L -19 4134 
L -19 4666 
z
" transform="scale(0.015625)"/>
     </defs>
     <use xlink:href="#DejaVuSans-54"/>
     <use xlink:href="#DejaVuSans-20" x="61.083984"/>
     <use xlink:href="#DejaVuSans-5b" x="92.871094"/>
     <use xlink:href="#DejaVuSans-32" x="131.884766"/>
     <use xlink:href="#DejaVuSans-32" x="195.507812"/>
     <use xlink:href="#DejaVuSans-5d" x="259.130859"/>
    </g>
   </g>
   <g id="text_18">
    <!-- V [22] -->
    <g transform="translate(292.412961 236.146075) scale(0.1 -0.1)">
     <defs>
      <path id="DejaVuSans-56" d="M 1831 0 
L 50 4666 
L 709 4666 
L 2188 738 
L 3669 4666 
L 4325 4666 
L 2547 0 
L 1831 0 
z
" transform="scale(0.015625)"/>
     </defs>
     <use xlink:href="#DejaVuSans-56"/>
     <use xlink:href="#DejaVuSans-20" x="68.408203"/>
     <use xlink:href="#DejaVuSans-5b" x="100.195312"/>
     <use xlink:href="#DejaVuSans-32" x="139.208984"/>
     <use xlink:href="#DejaVuSans-32" x="202.832031"/>
     <use xlink:href="#DejaVuSans-5d" x="266.455078"/>
    </g>
   </g>
   <g id="text_19">
    <!-- W [5] -->
    <g transform="translate(309.035304 204.163399) scale(0.1 -0.1)">
     <defs>
      <path id="DejaVuSans-57" d="M 213 4666 
L 850 4666 
L 1831 722 
L 2809 4666 
L 3519 4666 
L 4500 722 
L 5478 4666 
L 6119 4666 
L 4947 0 
L 4153 0 
L 3169 4050 
L 2175 0 
L 1381 0 
L 213 4666 
z
" transform="scale(0.015625)"/>
     </defs>
     <use xlink:href="#DejaVuSans-57"/>
     <use xlink:href="#DejaVuSans-20" x="98.876953"/>
     <use xlink:href="#DejaVuSans-5b" x="130.664062"/>
     <use xlink:href="#DejaVuSans-35" x="169.677734"/>
     <use xlink:href="#DejaVuSans-5d" x="233.300781"/>
    </g>
   </g>
   <g id="text_20">
    <!-- Y [16] -->
    <g transform="translate(316.019902 176.981604) scale(0.1 -0.1)">
     <defs>
      <path id="DejaVuSans-59" d="M -13 4666 
L 666 4666 
L 1959 2747 
L 3244 4666 
L 3922 4666 
L 2272 2222 
L 2272 0 
L 1638 0 
L 1638 2222 
L -13 4666 
z
" transform="scale(0.015625)"/>
     </defs>
     <use xlink:href="#DejaVuSans-59"/>
     <use xlink:href="#DejaVuSans-20" x="61.083984"/>
     <use xlink:href="#DejaVuSans-5b" x="92.871094"/>
     <use xlink:href="#DejaVuSans-31" x="131.884766"/>
     <use xlink:href="#DejaVuSans-36" x="195.507812"/>
     <use xlink:href="#DejaVuSans-5d" x="259.130859"/>
    </g>
   </g>
   <g id="text_21">
    <!-- A0A384BKX5 [331] -->
    <g transform="translate(119.104944 152.886299) scale(0.12 -0.12)">
     <defs>
      <path id="DejaVuSans-38" d="M 2034 2216 
Q 1584 2216 1326 1975 
Q 1069 1734 1069 1313 
Q 1069 891 1326 650 
Q 1584 409 2034 409 
Q 2484 409 2743 651 
Q 3003 894 3003 1313 
Q 3003 1734 2745 1975 
Q 2488 2216 2034 2216 
z
M 1403 2484 
Q 997 2584 770 2862 
Q 544 3141 544 3541 
Q 544 4100 942 4425 
Q 1341 4750 2034 4750 
Q 2731 4750 3128 4425 
Q 3525 4100 3525 3541 
Q 3525 3141 3298 2862 
Q 3072 2584 2669 2484 
Q 3125 2378 3379 2068 
Q 3634 1759 3634 1313 
Q 3634 634 3220 271 
Q 2806 -91 2034 -91 
Q 1263 -91 848 271 
Q 434 634 434 1313 
Q 434 1759 690 2068 
Q 947 2378 1403 2484 
z
M 1172 3481 
Q 1172 3119 1398 2916 
Q 1625 2713 2034 2713 
Q 2441 2713 2670 2916 
Q 2900 3119 2900 3481 
Q 2900 3844 2670 4047 
Q 2441 4250 2034 4250 
Q 1625 4250 1398 4047 
Q 1172 3844 1172 3481 
z
" transform="scale(0.015625)"/>
      <path id="DejaVuSans-42" d="M 1259 2228 
L 1259 519 
L 2272 519 
Q 2781 519 3026 730 
Q 3272 941 3272 1375 
Q 3272 1813 3026 2020 
Q 2781 2228 2272 2228 
L 1259 2228 
z
M 1259 4147 
L 1259 2741 
L 2194 2741 
Q 2656 2741 2882 2914 
Q 3109 3088 3109 3444 
Q 3109 3797 2882 3972 
Q 2656 4147 2194 4147 
L 1259 4147 
z
M 628 4666 
L 2241 4666 
Q 2963 4666 3353 4366 
Q 3744 4066 3744 3513 
Q 3744 3084 3544 2831 
Q 3344 2578 2956 2516 
Q 3422 2416 3680 2098 
Q 3938 1781 3938 1306 
Q 3938 681 3513 340 
Q 3088 0 2303 0 
L 628 0 
L 628 4666 
z
" transform="scale(0.015625)"/>
      <path id="DejaVuSans-58" d="M 403 4666 
L 1081 4666 
L 2241 2931 
L 3406 4666 
L 4084 4666 
L 2584 2425 
L 4184 0 
L 3506 0 
L 2194 1984 
L 872 0 
L 191 0 
L 1856 2491 
L 403 4666 
z
" transform="scale(0.015625)"/>
     </defs>
     <use xlink:href="#DejaVuSans-41"/>
     <use xlink:href="#DejaVuSans-30" x="68.408203"/>
     <use xlink:href="#DejaVuSans-41" x="132.03125"/>
     <use xlink:href="#DejaVuSans-33" x="200.439453"/>
     <use xlink:href="#DejaVuSans-38" x="264.0625"/>
     <use xlink:href="#DejaVuSans-34" x="327.685547"/>
     <use xlink:href="#DejaVuSans-42" x="391.308594"/>
     <use xlink:href="#DejaVuSans-4b" x="459.912109"/>
     <use xlink:href="#DejaVuSans-58" x="525.488281"/>
     <use xlink:href="#DejaVuSans-35" x="593.994141"/>
     <use xlink:href="#DejaVuSans-20" x="657.617188"/>
     <use xlink:href="#DejaVuSans-5b" x="689.404297"/>
     <use xlink:href="#DejaVuSans-33" x="728.417969"/>
     <use xlink:href="#DejaVuSans-33" x="792.041016"/>
     <use xlink:href="#DejaVuSans-31" x="855.664062"/>
     <use xlink:href="#DejaVuSans-5d" x="919.287109"/>
    </g>
   </g>
  </g>
 </g>
</svg>
