<?xml version="1.0" encoding="utf-8" standalone="no"?>
<!DOCTYPE svg PUBLIC "-//W3C//DTD SVG 1.1//EN"
  "http://www.w3.org/Graphics/SVG/1.1/DTD/svg11.dtd">
<svg xmlns:xlink="http://www.w3.org/1999/xlink" width="349.858586pt" height="304.267387pt" viewBox="0 0 349.858586 304.267387" xmlns="http://www.w3.org/2000/svg" version="1.1">
 <metadata>
  <rdf:RDF xmlns:dc="http://purl.org/dc/elements/1.1/" xmlns:cc="http://creativecommons.org/ns#" xmlns:rdf="http://www.w3.org/1999/02/22-rdf-syntax-ns#">
   <cc:Work>
    <dc:type rdf:resource="http://purl.org/dc/dcmitype/StillImage"/>
    <dc:date>2024-09-27T16:07:20.757972</dc:date>
    <dc:format>image/svg+xml</dc:format>
    <dc:creator>
     <cc:Agent>
      <dc:title>Matplotlib v3.8.3, https://matplotlib.org/</dc:title>
     </cc:Agent>
    </dc:creator>
   </cc:Work>
  </rdf:RDF>
 </metadata>
 <defs>
  <style type="text/css">*{stroke-linejoin: round; stroke-linecap: butt}</style>
 </defs>
 <g id="figure_1">
  <g id="patch_1">
   <path d="M -0 304.267387 
L 349.858586 304.267387 
L 349.858586 0 
L -0 0 
z
" style="fill: #ffffff"/>
  </g>
  <g id="axes_1">
   <g id="patch_2">
    <path d="M 301.107902 151.620423 
C 301.107902 134.539608 297.681781 117.631032 291.03273 101.897489 
C 284.383679 86.163946 274.645795 71.922744 262.396599 60.018482 
L 173.374142 151.620423 
z
" style="fill: #1f77b4"/>
   </g>
   <g id="patch_3">
    <path d="M 262.22733 59.801117 
C 258.447248 56.127481 254.443391 52.69135 250.238733 49.51244 
C 246.034074 46.333531 241.636671 43.417933 237.071754 40.782377 
L 173.204872 151.403057 
z
" style="fill: #ff7f0e"/>
   </g>
   <g id="patch_4">
    <path d="M 236.985608 40.729304 
C 234.528133 39.31048 232.02406 37.97394 229.477558 36.72191 
C 226.931057 35.469879 224.343541 34.303054 221.719319 33.223375 
L 173.118726 151.349985 
z
" style="fill: #aec7e8"/>
   </g>
   <g id="patch_5">
    <path d="M 221.668108 33.201445 
C 220.168646 32.584525 218.657573 31.99621 217.135711 31.436823 
C 215.61385 30.877435 214.081475 30.347075 212.53942 29.846031 
L 173.067515 151.328055 
z
" style="fill: #ffbb78"/>
   </g>
   <g id="patch_6">
    <path d="M 212.461497 29.823954 
C 207.834215 28.320459 203.124808 27.082573 198.356302 26.116348 
C 193.587797 25.150123 188.767978 24.457138 183.920413 24.04078 
L 172.989593 151.305978 
z
" style="fill: #98df8a"/>
   </g>
   <g id="patch_7">
    <path d="M 183.743994 24.0349 
C 174.446085 23.236301 165.088596 23.459051 155.839217 24.699157 
C 146.589839 25.939262 137.504153 28.189272 128.744981 31.408864 
L 172.813173 151.300098 
z
" style="fill: #2ca02c"/>
   </g>
   <g id="patch_8">
    <path d="M 128.60387 31.448118 
C 126.320991 32.287232 124.062544 33.191377 121.831293 34.159449 
C 119.600041 35.127521 117.396894 36.159124 115.224548 37.252996 
L 172.672061 151.339352 
z
" style="fill: #d62728"/>
   </g>
   <g id="patch_9">
    <path d="M 115.127664 37.307709 
C 109.332335 40.225913 103.767777 43.581464 98.482331 47.345213 
C 93.196884 51.108963 88.205897 55.26998 83.552725 59.79212 
L 172.575178 151.394065 
z
" style="fill: #9467bd"/>
   </g>
   <g id="patch_10">
    <path d="M 83.476256 59.85838 
C 82.31349 60.988403 81.172345 62.140464 80.053442 63.313935 
C 78.93454 64.487406 77.838082 65.682076 76.764665 66.897294 
L 172.498709 151.460325 
z
" style="fill: #ff9896"/>
   </g>
   <g id="patch_11">
    <path d="M 76.635115 67.129269 
C 63.42684 82.082394 53.903843 99.924195 48.831855 119.220035 
C 43.759868 138.515875 43.278579 158.734325 47.426689 178.249644 
L 172.369159 151.6923 
z
" style="fill: #c5b0d5"/>
   </g>
   <g id="patch_12">
    <path d="M 47.432213 178.539744 
C 48.190805 182.108639 49.101963 185.643392 50.16318 189.134278 
C 51.224398 192.625164 52.4347 196.068978 53.790757 199.456245 
L 172.374683 151.982401 
z
" style="fill: #c49c94"/>
   </g>
   <g id="patch_13">
    <path d="M 53.824612 199.54081 
C 55.180669 202.928077 56.681236 206.255687 58.322184 209.514484 
C 59.963133 212.773281 61.742955 215.960273 63.656756 219.066692 
L 172.408538 152.066966 
z
" style="fill: #8c564b"/>
   </g>
   <g id="patch_14">
    <path d="M 63.726588 219.172015 
C 67.130022 224.69636 70.949452 229.953353 75.151697 234.897329 
C 79.353942 239.841304 83.9268 244.457904 88.830547 248.707024 
L 172.47837 152.172289 
z
" style="fill: #e377c2"/>
   </g>
   <g id="patch_15">
    <path d="M 88.9151 248.786881 
C 91.059652 250.645145 93.265531 252.431431 95.529065 254.142764 
C 97.7926 255.854097 100.112532 257.489527 102.485001 259.046332 
L 172.562924 152.252146 
z
" style="fill: #7f7f7f"/>
   </g>
   <g id="patch_16">
    <path d="M 102.566611 259.097148 
C 106.634429 261.766434 110.851438 264.201125 115.197017 266.389316 
C 119.542596 268.577507 124.009651 270.515625 128.576339 272.194194 
L 172.644533 152.302961 
z
" style="fill: #f7b6d2"/>
   </g>
   <g id="patch_17">
    <path d="M 128.765112 272.248648 
C 139.051487 276.029592 149.781819 278.471044 160.691439 279.512787 
C 171.601059 280.55453 182.599528 280.187926 193.415563 278.422019 
L 172.833307 152.357416 
z
" style="fill: #c7c7c7"/>
   </g>
   <g id="patch_18">
    <path d="M 193.645008 278.393477 
C 201.251022 277.151662 208.729069 275.224036 215.987601 272.634197 
C 223.246134 270.044358 230.255412 266.802917 236.929629 262.949556 
L 173.062752 152.328874 
z
" style="fill: #dbdb8d"/>
   </g>
   <g id="patch_19">
    <path d="M 237.153004 262.796816 
C 249.467593 255.686985 260.508961 246.570463 269.82086 235.823959 
C 279.132759 225.077455 286.585138 212.851056 291.870053 199.649977 
L 173.286126 152.176134 
z
" style="fill: #bcbd22"/>
   </g>
   <g id="patch_20">
    <path d="M 291.974 199.465911 
C 293.028647 196.831529 293.995216 194.162734 294.872098 191.46397 
C 295.74898 188.765206 296.535687 186.037971 297.23091 183.286805 
L 173.390073 151.992068 
z
" style="fill: #17becf"/>
   </g>
   <g id="patch_21">
    <path d="M 297.252888 183.188039 
C 298.544309 178.077574 299.518157 172.892067 300.168844 167.661271 
C 300.819532 162.430475 301.145811 157.164413 301.145811 151.893301 
L 173.412051 151.893301 
z
" style="fill: #9edae5"/>
   </g>
   <g id="patch_22">
    <path d="M 247.395258 151.827602 
C 247.395258 141.863793 245.396687 132.000457 241.518074 122.822557 
C 237.639461 113.644657 231.959029 105.337289 224.813665 98.393136 
L 172.883898 151.827602 
z
" style="fill: #ffffff"/>
   </g>
   <g id="patch_23">
    <path d="M 224.813665 98.393136 
C 222.608617 96.250182 220.273034 94.245772 217.820316 92.391408 
C 215.367599 90.537044 212.802447 88.836279 210.139579 87.298871 
L 172.883898 151.827602 
z
" style="fill: #ffffff"/>
   </g>
   <g id="patch_24">
    <path d="M 210.139579 87.298871 
C 208.706052 86.471224 207.245342 85.691576 205.759883 84.961225 
C 204.274424 84.230874 202.76504 83.550225 201.234244 82.920413 
L 172.883898 151.827602 
z
" style="fill: #ffffff"/>
   </g>
   <g id="patch_25">
    <path d="M 201.234244 82.920413 
C 200.359557 82.560542 199.478098 82.217359 198.590346 81.891049 
C 197.702593 81.56474 196.808708 81.255363 195.909176 80.963087 
L 172.883898 151.827602 
z
" style="fill: #ffffff"/>
   </g>
   <g id="patch_26">
    <path d="M 195.909176 80.963087 
C 193.209928 80.086049 190.462773 79.363948 187.681145 78.800317 
C 184.899517 78.236686 182.087956 77.832445 179.26021 77.589569 
L 172.883898 151.827602 
z
" style="fill: #ffffff"/>
   </g>
   <g id="patch_27">
    <path d="M 179.26021 77.589569 
C 173.83643 77.12372 168.377895 77.253658 162.982424 77.977053 
C 157.586953 78.700448 152.28697 80.012953 147.177453 81.891049 
L 172.883898 151.827602 
z
" style="fill: #ffffff"/>
   </g>
   <g id="patch_28">
    <path d="M 147.177453 81.891049 
C 145.845773 82.380531 144.528346 82.90795 143.226783 83.472658 
C 141.925219 84.037367 140.64005 84.639135 139.372848 85.277227 
L 172.883898 151.827602 
z
" style="fill: #ffffff"/>
   </g>
   <g id="patch_29">
    <path d="M 139.372848 85.277227 
C 135.992239 86.979513 132.746248 88.936918 129.66307 91.132438 
C 126.579893 93.327959 123.668484 95.755219 120.954134 98.393134 
L 172.883898 151.827602 
z
" style="fill: #ffffff"/>
   </g>
   <g id="patch_30">
    <path d="M 120.954134 98.393134 
C 120.275853 99.052314 119.610185 99.724349 118.957492 100.408874 
C 118.304799 101.093399 117.665199 101.790289 117.039039 102.499167 
L 172.883898 151.827602 
z
" style="fill: #ffffff"/>
   </g>
   <g id="patch_31">
    <path d="M 117.039039 102.499167 
C 109.334212 111.221823 103.77913 121.62954 100.820471 132.885447 
C 97.861812 144.141353 97.58106 155.935449 100.00079 167.319385 
L 172.883898 151.827602 
z
" style="fill: #ffffff"/>
   </g>
   <g id="patch_32">
    <path d="M 100.00079 167.319385 
C 100.443302 169.40124 100.974811 171.46318 101.593855 173.49953 
C 102.212898 175.53588 102.918908 177.544772 103.709941 179.520677 
L 172.883898 151.827602 
z
" style="fill: #ffffff"/>
   </g>
   <g id="patch_33">
    <path d="M 103.709941 179.520677 
C 104.500974 181.496583 105.376305 183.437689 106.333525 185.338654 
C 107.290745 187.239619 108.328975 189.098697 109.445358 190.910775 
L 172.883898 151.827602 
z
" style="fill: #ffffff"/>
   </g>
   <g id="patch_34">
    <path d="M 109.445358 190.910775 
C 111.430695 194.133309 113.658696 197.199889 116.110005 200.083875 
C 118.561315 202.96786 121.228815 205.660877 124.089334 208.13953 
L 172.883898 151.827602 
z
" style="fill: #ffffff"/>
   </g>
   <g id="patch_35">
    <path d="M 124.089334 208.13953 
C 125.340323 209.223518 126.627086 210.265518 127.947481 211.263796 
C 129.267876 212.262073 130.62117 213.216074 132.00511 214.12421 
L 172.883898 151.827602 
z
" style="fill: #ffffff"/>
   </g>
   <g id="patch_36">
    <path d="M 132.00511 214.12421 
C 134.378004 215.681294 136.837926 217.10153 139.372847 218.377975 
C 141.907768 219.65442 144.51355 220.784989 147.177451 221.764154 
L 172.883898 151.827602 
z
" style="fill: #ffffff"/>
   </g>
   <g id="patch_37">
    <path d="M 147.177451 221.764154 
C 153.177837 223.969704 159.437197 225.393885 165.801142 226.001568 
C 172.165087 226.609251 178.58086 226.395399 184.890214 225.365287 
L 172.883898 151.827602 
z
" style="fill: #ffffff"/>
   </g>
   <g id="patch_38">
    <path d="M 184.890214 225.365287 
C 189.327056 224.640895 193.68925 223.516446 197.923394 222.005707 
C 202.157538 220.494967 206.246283 218.604127 210.139577 216.356333 
L 172.883898 151.827602 
z
" style="fill: #ffffff"/>
   </g>
   <g id="patch_39">
    <path d="M 210.139577 216.356333 
C 217.323087 212.208931 223.763885 206.89096 229.195826 200.622166 
C 234.627767 194.353372 238.974988 187.221306 242.057855 179.520677 
L 172.883898 151.827602 
z
" style="fill: #ffffff"/>
   </g>
   <g id="patch_40">
    <path d="M 242.057855 179.520677 
C 242.673066 177.983954 243.236898 176.427157 243.748412 174.852878 
C 244.259927 173.278599 244.718839 171.687712 245.124386 170.082865 
L 172.883898 151.827602 
z
" style="fill: #ffffff"/>
   </g>
   <g id="patch_41">
    <path d="M 245.124386 170.082865 
C 245.877715 167.10176 246.445793 164.076881 246.825361 161.025584 
C 247.204928 157.974286 247.395258 154.902417 247.395258 151.827602 
L 172.883898 151.827602 
z
" style="fill: #ffffff"/>
   </g>
   <g id="matplotlib.axis_1"/>
   <g id="matplotlib.axis_2"/>
   <g id="text_1">
    <!-- A [42] -->
    <g transform="translate(302.798589 99.684571) scale(0.1 -0.1)">
     <defs>
      <path id="DejaVuSans-41" d="M 2188 4044 
L 1331 1722 
L 3047 1722 
L 2188 4044 
z
M 1831 4666 
L 2547 4666 
L 4325 0 
L 3669 0 
L 3244 1197 
L 1141 1197 
L 716 0 
L 50 0 
L 1831 4666 
z
" transform="scale(0.015625)"/>
      <path id="DejaVuSans-20" transform="scale(0.015625)"/>
      <path id="DejaVuSans-5b" d="M 550 4863 
L 1875 4863 
L 1875 4416 
L 1125 4416 
L 1125 -397 
L 1875 -397 
L 1875 -844 
L 550 -844 
L 550 4863 
z
" transform="scale(0.015625)"/>
      <path id="DejaVuSans-34" d="M 2419 4116 
L 825 1625 
L 2419 1625 
L 2419 4116 
z
M 2253 4666 
L 3047 4666 
L 3047 1625 
L 3713 1625 
L 3713 1100 
L 3047 1100 
L 3047 0 
L 2419 0 
L 2419 1100 
L 313 1100 
L 313 1709 
L 2253 4666 
z
" transform="scale(0.015625)"/>
      <path id="DejaVuSans-32" d="M 1228 531 
L 3431 531 
L 3431 0 
L 469 0 
L 469 531 
Q 828 903 1448 1529 
Q 2069 2156 2228 2338 
Q 2531 2678 2651 2914 
Q 2772 3150 2772 3378 
Q 2772 3750 2511 3984 
Q 2250 4219 1831 4219 
Q 1534 4219 1204 4116 
Q 875 4013 500 3803 
L 500 4441 
Q 881 4594 1212 4672 
Q 1544 4750 1819 4750 
Q 2544 4750 2975 4387 
Q 3406 4025 3406 3419 
Q 3406 3131 3298 2873 
Q 3191 2616 2906 2266 
Q 2828 2175 2409 1742 
Q 1991 1309 1228 531 
z
" transform="scale(0.015625)"/>
      <path id="DejaVuSans-5d" d="M 1947 4863 
L 1947 -844 
L 622 -844 
L 622 -397 
L 1369 -397 
L 1369 4416 
L 622 4416 
L 622 4863 
L 1947 4863 
z
" transform="scale(0.015625)"/>
     </defs>
     <use xlink:href="#DejaVuSans-41"/>
     <use xlink:href="#DejaVuSans-20" x="68.408203"/>
     <use xlink:href="#DejaVuSans-5b" x="100.195312"/>
     <use xlink:href="#DejaVuSans-34" x="139.208984"/>
     <use xlink:href="#DejaVuSans-32" x="202.832031"/>
     <use xlink:href="#DejaVuSans-5d" x="266.455078"/>
    </g>
   </g>
   <g id="text_2">
    <!-- C [13] -->
    <g transform="translate(257.942119 42.082754) scale(0.1 -0.1)">
     <defs>
      <path id="DejaVuSans-43" d="M 4122 4306 
L 4122 3641 
Q 3803 3938 3442 4084 
Q 3081 4231 2675 4231 
Q 1875 4231 1450 3742 
Q 1025 3253 1025 2328 
Q 1025 1406 1450 917 
Q 1875 428 2675 428 
Q 3081 428 3442 575 
Q 3803 722 4122 1019 
L 4122 359 
Q 3791 134 3420 21 
Q 3050 -91 2638 -91 
Q 1578 -91 968 557 
Q 359 1206 359 2328 
Q 359 3453 968 4101 
Q 1578 4750 2638 4750 
Q 3056 4750 3426 4639 
Q 3797 4528 4122 4306 
z
" transform="scale(0.015625)"/>
      <path id="DejaVuSans-31" d="M 794 531 
L 1825 531 
L 1825 4091 
L 703 3866 
L 703 4441 
L 1819 4666 
L 2450 4666 
L 2450 531 
L 3481 531 
L 3481 0 
L 794 0 
L 794 531 
z
" transform="scale(0.015625)"/>
      <path id="DejaVuSans-33" d="M 2597 2516 
Q 3050 2419 3304 2112 
Q 3559 1806 3559 1356 
Q 3559 666 3084 287 
Q 2609 -91 1734 -91 
Q 1441 -91 1130 -33 
Q 819 25 488 141 
L 488 750 
Q 750 597 1062 519 
Q 1375 441 1716 441 
Q 2309 441 2620 675 
Q 2931 909 2931 1356 
Q 2931 1769 2642 2001 
Q 2353 2234 1838 2234 
L 1294 2234 
L 1294 2753 
L 1863 2753 
Q 2328 2753 2575 2939 
Q 2822 3125 2822 3475 
Q 2822 3834 2567 4026 
Q 2313 4219 1838 4219 
Q 1578 4219 1281 4162 
Q 984 4106 628 3988 
L 628 4550 
Q 988 4650 1302 4700 
Q 1616 4750 1894 4750 
Q 2613 4750 3031 4423 
Q 3450 4097 3450 3541 
Q 3450 3153 3228 2886 
Q 3006 2619 2597 2516 
z
" transform="scale(0.015625)"/>
     </defs>
     <use xlink:href="#DejaVuSans-43"/>
     <use xlink:href="#DejaVuSans-20" x="69.824219"/>
     <use xlink:href="#DejaVuSans-5b" x="101.611328"/>
     <use xlink:href="#DejaVuSans-31" x="140.625"/>
     <use xlink:href="#DejaVuSans-33" x="204.248047"/>
     <use xlink:href="#DejaVuSans-5d" x="267.871094"/>
    </g>
   </g>
   <g id="text_3">
    <!-- D [7] -->
    <g transform="translate(235.113442 28.018477) scale(0.1 -0.1)">
     <defs>
      <path id="DejaVuSans-44" d="M 1259 4147 
L 1259 519 
L 2022 519 
Q 2988 519 3436 956 
Q 3884 1394 3884 2338 
Q 3884 3275 3436 3711 
Q 2988 4147 2022 4147 
L 1259 4147 
z
M 628 4666 
L 1925 4666 
Q 3281 4666 3915 4102 
Q 4550 3538 4550 2338 
Q 4550 1131 3912 565 
Q 3275 0 1925 0 
L 628 0 
L 628 4666 
z
" transform="scale(0.015625)"/>
      <path id="DejaVuSans-37" d="M 525 4666 
L 3525 4666 
L 3525 4397 
L 1831 0 
L 1172 0 
L 2766 4134 
L 525 4134 
L 525 4666 
z
" transform="scale(0.015625)"/>
     </defs>
     <use xlink:href="#DejaVuSans-44"/>
     <use xlink:href="#DejaVuSans-20" x="77.001953"/>
     <use xlink:href="#DejaVuSans-5b" x="108.789062"/>
     <use xlink:href="#DejaVuSans-37" x="147.802734"/>
     <use xlink:href="#DejaVuSans-5d" x="211.425781"/>
    </g>
   </g>
   <g id="text_4">
    <!-- E [4] -->
    <g transform="translate(221.542531 22.207074) scale(0.1 -0.1)">
     <defs>
      <path id="DejaVuSans-45" d="M 628 4666 
L 3578 4666 
L 3578 4134 
L 1259 4134 
L 1259 2753 
L 3481 2753 
L 3481 2222 
L 1259 2222 
L 1259 531 
L 3634 531 
L 3634 0 
L 628 0 
L 628 4666 
z
" transform="scale(0.015625)"/>
     </defs>
     <use xlink:href="#DejaVuSans-45"/>
     <use xlink:href="#DejaVuSans-20" x="63.183594"/>
     <use xlink:href="#DejaVuSans-5b" x="94.970703"/>
     <use xlink:href="#DejaVuSans-34" x="133.984375"/>
     <use xlink:href="#DejaVuSans-5d" x="197.607422"/>
    </g>
   </g>
   <g id="text_5">
    <!-- F [12] -->
    <g transform="translate(200.892973 16.35676) scale(0.1 -0.1)">
     <defs>
      <path id="DejaVuSans-46" d="M 628 4666 
L 3309 4666 
L 3309 4134 
L 1259 4134 
L 1259 2759 
L 3109 2759 
L 3109 2228 
L 1259 2228 
L 1259 0 
L 628 0 
L 628 4666 
z
" transform="scale(0.015625)"/>
     </defs>
     <use xlink:href="#DejaVuSans-46"/>
     <use xlink:href="#DejaVuSans-20" x="57.519531"/>
     <use xlink:href="#DejaVuSans-5b" x="89.306641"/>
     <use xlink:href="#DejaVuSans-31" x="128.320312"/>
     <use xlink:href="#DejaVuSans-32" x="191.943359"/>
     <use xlink:href="#DejaVuSans-5d" x="255.566406"/>
    </g>
   </g>
   <g id="text_6">
    <!-- G [23] -->
    <g transform="translate(122.687134 14.798437) scale(0.1 -0.1)">
     <defs>
      <path id="DejaVuSans-47" d="M 3809 666 
L 3809 1919 
L 2778 1919 
L 2778 2438 
L 4434 2438 
L 4434 434 
Q 4069 175 3628 42 
Q 3188 -91 2688 -91 
Q 1594 -91 976 548 
Q 359 1188 359 2328 
Q 359 3472 976 4111 
Q 1594 4750 2688 4750 
Q 3144 4750 3555 4637 
Q 3966 4525 4313 4306 
L 4313 3634 
Q 3963 3931 3569 4081 
Q 3175 4231 2741 4231 
Q 1884 4231 1454 3753 
Q 1025 3275 1025 2328 
Q 1025 1384 1454 906 
Q 1884 428 2741 428 
Q 3075 428 3337 486 
Q 3600 544 3809 666 
z
" transform="scale(0.015625)"/>
     </defs>
     <use xlink:href="#DejaVuSans-47"/>
     <use xlink:href="#DejaVuSans-20" x="77.490234"/>
     <use xlink:href="#DejaVuSans-5b" x="109.277344"/>
     <use xlink:href="#DejaVuSans-32" x="148.291016"/>
     <use xlink:href="#DejaVuSans-33" x="211.914062"/>
     <use xlink:href="#DejaVuSans-5d" x="275.537109"/>
    </g>
   </g>
   <g id="text_7">
    <!-- H [6] -->
    <g transform="translate(91.883153 25.200834) scale(0.1 -0.1)">
     <defs>
      <path id="DejaVuSans-48" d="M 628 4666 
L 1259 4666 
L 1259 2753 
L 3553 2753 
L 3553 4666 
L 4184 4666 
L 4184 0 
L 3553 0 
L 3553 2222 
L 1259 2222 
L 1259 0 
L 628 0 
L 628 4666 
z
" transform="scale(0.015625)"/>
      <path id="DejaVuSans-36" d="M 2113 2584 
Q 1688 2584 1439 2293 
Q 1191 2003 1191 1497 
Q 1191 994 1439 701 
Q 1688 409 2113 409 
Q 2538 409 2786 701 
Q 3034 994 3034 1497 
Q 3034 2003 2786 2293 
Q 2538 2584 2113 2584 
z
M 3366 4563 
L 3366 3988 
Q 3128 4100 2886 4159 
Q 2644 4219 2406 4219 
Q 1781 4219 1451 3797 
Q 1122 3375 1075 2522 
Q 1259 2794 1537 2939 
Q 1816 3084 2150 3084 
Q 2853 3084 3261 2657 
Q 3669 2231 3669 1497 
Q 3669 778 3244 343 
Q 2819 -91 2113 -91 
Q 1303 -91 875 529 
Q 447 1150 447 2328 
Q 447 3434 972 4092 
Q 1497 4750 2381 4750 
Q 2619 4750 2861 4703 
Q 3103 4656 3366 4563 
z
" transform="scale(0.015625)"/>
     </defs>
     <use xlink:href="#DejaVuSans-48"/>
     <use xlink:href="#DejaVuSans-20" x="75.195312"/>
     <use xlink:href="#DejaVuSans-5b" x="106.982422"/>
     <use xlink:href="#DejaVuSans-36" x="145.996094"/>
     <use xlink:href="#DejaVuSans-5d" x="209.619141"/>
    </g>
   </g>
   <g id="text_8">
    <!-- I [16] -->
    <g transform="translate(64.416796 39.699703) scale(0.1 -0.1)">
     <defs>
      <path id="DejaVuSans-49" d="M 628 4666 
L 1259 4666 
L 1259 0 
L 628 0 
L 628 4666 
z
" transform="scale(0.015625)"/>
     </defs>
     <use xlink:href="#DejaVuSans-49"/>
     <use xlink:href="#DejaVuSans-20" x="29.492188"/>
     <use xlink:href="#DejaVuSans-5b" x="61.279297"/>
     <use xlink:href="#DejaVuSans-31" x="100.292969"/>
     <use xlink:href="#DejaVuSans-36" x="163.916016"/>
     <use xlink:href="#DejaVuSans-5d" x="227.539062"/>
    </g>
   </g>
   <g id="text_9">
    <!-- K [4] -->
    <g transform="translate(46.907353 57.258671) scale(0.1 -0.1)">
     <defs>
      <path id="DejaVuSans-4b" d="M 628 4666 
L 1259 4666 
L 1259 2694 
L 3353 4666 
L 4166 4666 
L 1850 2491 
L 4331 0 
L 3500 0 
L 1259 2247 
L 1259 0 
L 628 0 
L 628 4666 
z
" transform="scale(0.015625)"/>
     </defs>
     <use xlink:href="#DejaVuSans-4b"/>
     <use xlink:href="#DejaVuSans-20" x="65.576172"/>
     <use xlink:href="#DejaVuSans-5b" x="97.363281"/>
     <use xlink:href="#DejaVuSans-34" x="136.376953"/>
     <use xlink:href="#DejaVuSans-5d" x="200"/>
    </g>
   </g>
   <g id="text_10">
    <!-- L [49] -->
    <g transform="translate(7.2 118.732184) scale(0.1 -0.1)">
     <defs>
      <path id="DejaVuSans-4c" d="M 628 4666 
L 1259 4666 
L 1259 531 
L 3531 531 
L 3531 0 
L 628 0 
L 628 4666 
z
" transform="scale(0.015625)"/>
      <path id="DejaVuSans-39" d="M 703 97 
L 703 672 
Q 941 559 1184 500 
Q 1428 441 1663 441 
Q 2288 441 2617 861 
Q 2947 1281 2994 2138 
Q 2813 1869 2534 1725 
Q 2256 1581 1919 1581 
Q 1219 1581 811 2004 
Q 403 2428 403 3163 
Q 403 3881 828 4315 
Q 1253 4750 1959 4750 
Q 2769 4750 3195 4129 
Q 3622 3509 3622 2328 
Q 3622 1225 3098 567 
Q 2575 -91 1691 -91 
Q 1453 -91 1209 -44 
Q 966 3 703 97 
z
M 1959 2075 
Q 2384 2075 2632 2365 
Q 2881 2656 2881 3163 
Q 2881 3666 2632 3958 
Q 2384 4250 1959 4250 
Q 1534 4250 1286 3958 
Q 1038 3666 1038 3163 
Q 1038 2656 1286 2365 
Q 1534 2075 1959 2075 
z
" transform="scale(0.015625)"/>
     </defs>
     <use xlink:href="#DejaVuSans-4c"/>
     <use xlink:href="#DejaVuSans-20" x="55.712891"/>
     <use xlink:href="#DejaVuSans-5b" x="87.5"/>
     <use xlink:href="#DejaVuSans-34" x="126.513672"/>
     <use xlink:href="#DejaVuSans-39" x="190.136719"/>
     <use xlink:href="#DejaVuSans-5d" x="253.759766"/>
    </g>
   </g>
   <g id="text_11">
    <!-- M [9] -->
    <g transform="translate(11.970155 195.608841) scale(0.1 -0.1)">
     <defs>
      <path id="DejaVuSans-4d" d="M 628 4666 
L 1569 4666 
L 2759 1491 
L 3956 4666 
L 4897 4666 
L 4897 0 
L 4281 0 
L 4281 4097 
L 3078 897 
L 2444 897 
L 1241 4097 
L 1241 0 
L 628 0 
L 628 4666 
z
" transform="scale(0.015625)"/>
     </defs>
     <use xlink:href="#DejaVuSans-4d"/>
     <use xlink:href="#DejaVuSans-20" x="86.279297"/>
     <use xlink:href="#DejaVuSans-5b" x="118.066406"/>
     <use xlink:href="#DejaVuSans-39" x="157.080078"/>
     <use xlink:href="#DejaVuSans-5d" x="220.703125"/>
    </g>
   </g>
   <g id="text_12">
    <!-- N [9] -->
    <g transform="translate(22.088549 218.018611) scale(0.1 -0.1)">
     <defs>
      <path id="DejaVuSans-4e" d="M 628 4666 
L 1478 4666 
L 3547 763 
L 3547 4666 
L 4159 4666 
L 4159 0 
L 3309 0 
L 1241 3903 
L 1241 0 
L 628 0 
L 628 4666 
z
" transform="scale(0.015625)"/>
     </defs>
     <use xlink:href="#DejaVuSans-4e"/>
     <use xlink:href="#DejaVuSans-20" x="74.804688"/>
     <use xlink:href="#DejaVuSans-5b" x="106.591797"/>
     <use xlink:href="#DejaVuSans-39" x="145.605469"/>
     <use xlink:href="#DejaVuSans-5d" x="209.228516"/>
    </g>
   </g>
   <g id="text_13">
    <!-- P [16] -->
    <g transform="translate(35.683092 245.929208) scale(0.1 -0.1)">
     <defs>
      <path id="DejaVuSans-50" d="M 1259 4147 
L 1259 2394 
L 2053 2394 
Q 2494 2394 2734 2622 
Q 2975 2850 2975 3272 
Q 2975 3691 2734 3919 
Q 2494 4147 2053 4147 
L 1259 4147 
z
M 628 4666 
L 2053 4666 
Q 2838 4666 3239 4311 
Q 3641 3956 3641 3272 
Q 3641 2581 3239 2228 
Q 2838 1875 2053 1875 
L 1259 1875 
L 1259 0 
L 628 0 
L 628 4666 
z
" transform="scale(0.015625)"/>
     </defs>
     <use xlink:href="#DejaVuSans-50"/>
     <use xlink:href="#DejaVuSans-20" x="60.302734"/>
     <use xlink:href="#DejaVuSans-5b" x="92.089844"/>
     <use xlink:href="#DejaVuSans-31" x="131.103516"/>
     <use xlink:href="#DejaVuSans-36" x="194.726562"/>
     <use xlink:href="#DejaVuSans-5d" x="258.349609"/>
    </g>
   </g>
   <g id="text_14">
    <!-- Q [7] -->
    <g transform="translate(62.610054 267.091201) scale(0.1 -0.1)">
     <defs>
      <path id="DejaVuSans-51" d="M 2522 4238 
Q 1834 4238 1429 3725 
Q 1025 3213 1025 2328 
Q 1025 1447 1429 934 
Q 1834 422 2522 422 
Q 3209 422 3611 934 
Q 4013 1447 4013 2328 
Q 4013 3213 3611 3725 
Q 3209 4238 2522 4238 
z
M 3406 84 
L 4238 -825 
L 3475 -825 
L 2784 -78 
Q 2681 -84 2626 -87 
Q 2572 -91 2522 -91 
Q 1538 -91 948 567 
Q 359 1225 359 2328 
Q 359 3434 948 4092 
Q 1538 4750 2522 4750 
Q 3503 4750 4090 4092 
Q 4678 3434 4678 2328 
Q 4678 1516 4351 937 
Q 4025 359 3406 84 
z
" transform="scale(0.015625)"/>
     </defs>
     <use xlink:href="#DejaVuSans-51"/>
     <use xlink:href="#DejaVuSans-20" x="78.710938"/>
     <use xlink:href="#DejaVuSans-5b" x="110.498047"/>
     <use xlink:href="#DejaVuSans-37" x="149.511719"/>
     <use xlink:href="#DejaVuSans-5d" x="213.134766"/>
    </g>
   </g>
   <g id="text_15">
    <!-- R [12] -->
    <g transform="translate(78.797578 280.557326) scale(0.1 -0.1)">
     <defs>
      <path id="DejaVuSans-52" d="M 2841 2188 
Q 3044 2119 3236 1894 
Q 3428 1669 3622 1275 
L 4263 0 
L 3584 0 
L 2988 1197 
Q 2756 1666 2539 1819 
Q 2322 1972 1947 1972 
L 1259 1972 
L 1259 0 
L 628 0 
L 628 4666 
L 2053 4666 
Q 2853 4666 3247 4331 
Q 3641 3997 3641 3322 
Q 3641 2881 3436 2590 
Q 3231 2300 2841 2188 
z
M 1259 4147 
L 1259 2491 
L 2053 2491 
Q 2509 2491 2742 2702 
Q 2975 2913 2975 3322 
Q 2975 3731 2742 3939 
Q 2509 4147 2053 4147 
L 1259 4147 
z
" transform="scale(0.015625)"/>
     </defs>
     <use xlink:href="#DejaVuSans-52"/>
     <use xlink:href="#DejaVuSans-20" x="69.482422"/>
     <use xlink:href="#DejaVuSans-5b" x="101.269531"/>
     <use xlink:href="#DejaVuSans-31" x="140.283203"/>
     <use xlink:href="#DejaVuSans-32" x="203.90625"/>
     <use xlink:href="#DejaVuSans-5d" x="267.529297"/>
    </g>
   </g>
   <g id="text_16">
    <!-- S [27] -->
    <g transform="translate(129.422565 294.987699) scale(0.1 -0.1)">
     <defs>
      <path id="DejaVuSans-53" d="M 3425 4513 
L 3425 3897 
Q 3066 4069 2747 4153 
Q 2428 4238 2131 4238 
Q 1616 4238 1336 4038 
Q 1056 3838 1056 3469 
Q 1056 3159 1242 3001 
Q 1428 2844 1947 2747 
L 2328 2669 
Q 3034 2534 3370 2195 
Q 3706 1856 3706 1288 
Q 3706 609 3251 259 
Q 2797 -91 1919 -91 
Q 1588 -91 1214 -16 
Q 841 59 441 206 
L 441 856 
Q 825 641 1194 531 
Q 1563 422 1919 422 
Q 2459 422 2753 634 
Q 3047 847 3047 1241 
Q 3047 1584 2836 1778 
Q 2625 1972 2144 2069 
L 1759 2144 
Q 1053 2284 737 2584 
Q 422 2884 422 3419 
Q 422 4038 858 4394 
Q 1294 4750 2059 4750 
Q 2388 4750 2728 4690 
Q 3069 4631 3425 4513 
z
" transform="scale(0.015625)"/>
     </defs>
     <use xlink:href="#DejaVuSans-53"/>
     <use xlink:href="#DejaVuSans-20" x="63.476562"/>
     <use xlink:href="#DejaVuSans-5b" x="95.263672"/>
     <use xlink:href="#DejaVuSans-32" x="134.277344"/>
     <use xlink:href="#DejaVuSans-37" x="197.900391"/>
     <use xlink:href="#DejaVuSans-5d" x="261.523438"/>
    </g>
   </g>
   <g id="text_17">
    <!-- T [19] -->
    <g transform="translate(220.280086 287.424104) scale(0.1 -0.1)">
     <defs>
      <path id="DejaVuSans-54" d="M -19 4666 
L 3928 4666 
L 3928 4134 
L 2272 4134 
L 2272 0 
L 1638 0 
L 1638 4134 
L -19 4134 
L -19 4666 
z
" transform="scale(0.015625)"/>
     </defs>
     <use xlink:href="#DejaVuSans-54"/>
     <use xlink:href="#DejaVuSans-20" x="61.083984"/>
     <use xlink:href="#DejaVuSans-5b" x="92.871094"/>
     <use xlink:href="#DejaVuSans-31" x="131.884766"/>
     <use xlink:href="#DejaVuSans-39" x="195.507812"/>
     <use xlink:href="#DejaVuSans-5d" x="259.130859"/>
    </g>
   </g>
   <g id="text_18">
    <!-- V [35] -->
    <g transform="translate(279.474333 246.948116) scale(0.1 -0.1)">
     <defs>
      <path id="DejaVuSans-56" d="M 1831 0 
L 50 4666 
L 709 4666 
L 2188 738 
L 3669 4666 
L 4325 4666 
L 2547 0 
L 1831 0 
z
" transform="scale(0.015625)"/>
      <path id="DejaVuSans-35" d="M 691 4666 
L 3169 4666 
L 3169 4134 
L 1269 4134 
L 1269 2991 
Q 1406 3038 1543 3061 
Q 1681 3084 1819 3084 
Q 2600 3084 3056 2656 
Q 3513 2228 3513 1497 
Q 3513 744 3044 326 
Q 2575 -91 1722 -91 
Q 1428 -91 1123 -41 
Q 819 9 494 109 
L 494 744 
Q 775 591 1075 516 
Q 1375 441 1709 441 
Q 2250 441 2565 725 
Q 2881 1009 2881 1497 
Q 2881 1984 2565 2268 
Q 2250 2553 1709 2553 
Q 1456 2553 1204 2497 
Q 953 2441 691 2322 
L 691 4666 
z
" transform="scale(0.015625)"/>
     </defs>
     <use xlink:href="#DejaVuSans-56"/>
     <use xlink:href="#DejaVuSans-20" x="68.408203"/>
     <use xlink:href="#DejaVuSans-5b" x="100.195312"/>
     <use xlink:href="#DejaVuSans-33" x="139.208984"/>
     <use xlink:href="#DejaVuSans-35" x="202.832031"/>
     <use xlink:href="#DejaVuSans-5d" x="266.455078"/>
    </g>
   </g>
   <g id="text_19">
    <!-- W [7] -->
    <g transform="translate(307.0203 198.170535) scale(0.1 -0.1)">
     <defs>
      <path id="DejaVuSans-57" d="M 213 4666 
L 850 4666 
L 1831 722 
L 2809 4666 
L 3519 4666 
L 4500 722 
L 5478 4666 
L 6119 4666 
L 4947 0 
L 4153 0 
L 3169 4050 
L 2175 0 
L 1381 0 
L 213 4666 
z
" transform="scale(0.015625)"/>
     </defs>
     <use xlink:href="#DejaVuSans-57"/>
     <use xlink:href="#DejaVuSans-20" x="98.876953"/>
     <use xlink:href="#DejaVuSans-5b" x="130.664062"/>
     <use xlink:href="#DejaVuSans-37" x="169.677734"/>
     <use xlink:href="#DejaVuSans-5d" x="233.300781"/>
    </g>
   </g>
   <g id="text_20">
    <!-- Y [13] -->
    <g transform="translate(312.844524 171.997443) scale(0.1 -0.1)">
     <defs>
      <path id="DejaVuSans-59" d="M -13 4666 
L 666 4666 
L 1959 2747 
L 3244 4666 
L 3922 4666 
L 2272 2222 
L 2272 0 
L 1638 0 
L 1638 2222 
L -13 4666 
z
" transform="scale(0.015625)"/>
     </defs>
     <use xlink:href="#DejaVuSans-59"/>
     <use xlink:href="#DejaVuSans-20" x="61.083984"/>
     <use xlink:href="#DejaVuSans-5b" x="92.871094"/>
     <use xlink:href="#DejaVuSans-31" x="131.884766"/>
     <use xlink:href="#DejaVuSans-33" x="195.507812"/>
     <use xlink:href="#DejaVuSans-5d" x="259.130859"/>
    </g>
   </g>
   <g id="text_21">
    <!-- A0A384CD49 [330] -->
    <g transform="translate(114.91921 151.827602) scale(0.12 -0.12)">
     <defs>
      <path id="DejaVuSans-30" d="M 2034 4250 
Q 1547 4250 1301 3770 
Q 1056 3291 1056 2328 
Q 1056 1369 1301 889 
Q 1547 409 2034 409 
Q 2525 409 2770 889 
Q 3016 1369 3016 2328 
Q 3016 3291 2770 3770 
Q 2525 4250 2034 4250 
z
M 2034 4750 
Q 2819 4750 3233 4129 
Q 3647 3509 3647 2328 
Q 3647 1150 3233 529 
Q 2819 -91 2034 -91 
Q 1250 -91 836 529 
Q 422 1150 422 2328 
Q 422 3509 836 4129 
Q 1250 4750 2034 4750 
z
" transform="scale(0.015625)"/>
      <path id="DejaVuSans-38" d="M 2034 2216 
Q 1584 2216 1326 1975 
Q 1069 1734 1069 1313 
Q 1069 891 1326 650 
Q 1584 409 2034 409 
Q 2484 409 2743 651 
Q 3003 894 3003 1313 
Q 3003 1734 2745 1975 
Q 2488 2216 2034 2216 
z
M 1403 2484 
Q 997 2584 770 2862 
Q 544 3141 544 3541 
Q 544 4100 942 4425 
Q 1341 4750 2034 4750 
Q 2731 4750 3128 4425 
Q 3525 4100 3525 3541 
Q 3525 3141 3298 2862 
Q 3072 2584 2669 2484 
Q 3125 2378 3379 2068 
Q 3634 1759 3634 1313 
Q 3634 634 3220 271 
Q 2806 -91 2034 -91 
Q 1263 -91 848 271 
Q 434 634 434 1313 
Q 434 1759 690 2068 
Q 947 2378 1403 2484 
z
M 1172 3481 
Q 1172 3119 1398 2916 
Q 1625 2713 2034 2713 
Q 2441 2713 2670 2916 
Q 2900 3119 2900 3481 
Q 2900 3844 2670 4047 
Q 2441 4250 2034 4250 
Q 1625 4250 1398 4047 
Q 1172 3844 1172 3481 
z
" transform="scale(0.015625)"/>
     </defs>
     <use xlink:href="#DejaVuSans-41"/>
     <use xlink:href="#DejaVuSans-30" x="68.408203"/>
     <use xlink:href="#DejaVuSans-41" x="132.03125"/>
     <use xlink:href="#DejaVuSans-33" x="200.439453"/>
     <use xlink:href="#DejaVuSans-38" x="264.0625"/>
     <use xlink:href="#DejaVuSans-34" x="327.685547"/>
     <use xlink:href="#DejaVuSans-43" x="391.308594"/>
     <use xlink:href="#DejaVuSans-44" x="461.132812"/>
     <use xlink:href="#DejaVuSans-34" x="538.134766"/>
     <use xlink:href="#DejaVuSans-39" x="601.757812"/>
     <use xlink:href="#DejaVuSans-20" x="665.380859"/>
     <use xlink:href="#DejaVuSans-5b" x="697.167969"/>
     <use xlink:href="#DejaVuSans-33" x="736.181641"/>
     <use xlink:href="#DejaVuSans-33" x="799.804688"/>
     <use xlink:href="#DejaVuSans-30" x="863.427734"/>
     <use xlink:href="#DejaVuSans-5d" x="927.050781"/>
    </g>
   </g>
  </g>
 </g>
</svg>
