<?xml version="1.0" encoding="utf-8" standalone="no"?>
<!DOCTYPE svg PUBLIC "-//W3C//DTD SVG 1.1//EN"
  "http://www.w3.org/Graphics/SVG/1.1/DTD/svg11.dtd">
<svg xmlns:xlink="http://www.w3.org/1999/xlink" width="350.860417pt" height="302.516594pt" viewBox="0 0 350.860417 302.516594" xmlns="http://www.w3.org/2000/svg" version="1.1">
 <metadata>
  <rdf:RDF xmlns:dc="http://purl.org/dc/elements/1.1/" xmlns:cc="http://creativecommons.org/ns#" xmlns:rdf="http://www.w3.org/1999/02/22-rdf-syntax-ns#">
   <cc:Work>
    <dc:type rdf:resource="http://purl.org/dc/dcmitype/StillImage"/>
    <dc:date>2024-09-27T16:07:28.778390</dc:date>
    <dc:format>image/svg+xml</dc:format>
    <dc:creator>
     <cc:Agent>
      <dc:title>Matplotlib v3.8.3, https://matplotlib.org/</dc:title>
     </cc:Agent>
    </dc:creator>
   </cc:Work>
  </rdf:RDF>
 </metadata>
 <defs>
  <style type="text/css">*{stroke-linejoin: round; stroke-linecap: butt}</style>
 </defs>
 <g id="figure_1">
  <g id="patch_1">
   <path d="M -0 302.516594 
L 350.860417 302.516594 
L 350.860417 0 
L -0 0 
z
" style="fill: #ffffff"/>
  </g>
  <g id="axes_1">
   <g id="patch_2">
    <path d="M 300.910655 151.457987 
C 300.910655 129.745829 295.374713 108.387991 284.827742 89.409604 
C 274.280771 70.431216 259.067002 54.451694 240.628991 42.986201 
L 173.176895 151.457987 
z
" style="fill: #1f77b4"/>
   </g>
   <g id="patch_3">
    <path d="M 240.406954 42.771314 
C 237.448433 40.931587 234.415883 39.213669 231.316912 37.621869 
C 228.217942 36.030069 225.055145 34.56572 221.836457 33.232495 
L 172.954859 151.2431 
z
" style="fill: #ff7f0e"/>
   </g>
   <g id="patch_4">
    <path d="M 221.780757 33.207805 
C 220.493432 32.674578 219.197469 32.16245 217.893387 31.671629 
C 216.589304 31.180807 215.277278 30.711356 213.957835 30.263466 
L 172.899159 151.21841 
z
" style="fill: #aec7e8"/>
   </g>
   <g id="patch_5">
    <path d="M 213.908109 30.247488 
C 211.269046 29.351647 208.60137 28.542416 205.909367 27.821096 
C 203.217363 27.099776 200.502474 26.466752 197.769057 25.923042 
L 172.849433 151.202433 
z
" style="fill: #ffbb78"/>
   </g>
   <g id="patch_6">
    <path d="M 197.705091 25.910046 
C 195.313402 25.434309 192.90858 25.027159 190.493582 24.689097 
C 188.078584 24.351034 185.6544 24.082197 183.224012 23.882916 
L 172.785467 151.189437 
z
" style="fill: #98df8a"/>
   </g>
   <g id="patch_7">
    <path d="M 183.05067 23.887171 
C 171.576536 22.946346 160.027698 23.561069 148.718272 25.714622 
C 137.408846 27.868174 126.442306 31.540852 116.116932 36.632763 
L 172.612126 151.193692 
z
" style="fill: #2ca02c"/>
   </g>
   <g id="patch_8">
    <path d="M 115.942872 36.699089 
C 112.818272 38.239971 109.75802 39.908041 106.769793 41.699115 
C 103.781566 43.490189 100.867866 45.402767 98.036003 47.432052 
L 172.438066 151.260018 
z
" style="fill: #d62728"/>
   </g>
   <g id="patch_9">
    <path d="M 97.978758 47.471672 
C 96.279792 48.689134 94.610964 49.948113 92.973782 51.247473 
C 91.3366 52.546833 89.731558 53.886182 88.160104 55.264309 
L 172.380821 151.299638 
z
" style="fill: #9467bd"/>
   </g>
   <g id="patch_10">
    <path d="M 88.133547 55.286841 
C 87.609753 55.746196 87.089725 56.209829 86.573517 56.677693 
C 86.057308 57.145557 85.544936 57.617637 85.036452 58.093884 
L 172.354264 151.32217 
z
" style="fill: #ff9896"/>
   </g>
   <g id="patch_11">
    <path d="M 84.879783 58.350486 
C 67.480727 74.646479 54.986185 95.492361 48.816259 118.518836 
C 42.646332 141.54531 43.043979 165.845645 49.964005 188.657917 
L 172.197595 151.578772 
z
" style="fill: #c5b0d5"/>
   </g>
   <g id="patch_12">
    <path d="M 49.974115 188.966744 
C 50.378595 190.300136 50.804865 191.62682 51.252756 192.946263 
C 51.700646 194.265706 52.170097 195.577732 52.660919 196.881815 
L 172.207705 151.887599 
z
" style="fill: #c49c94"/>
   </g>
   <g id="patch_13">
    <path d="M 52.680114 196.930389 
C 53.661823 199.538729 54.728635 202.11424 55.878835 204.652788 
C 57.029036 207.191335 58.26201 209.691559 59.575777 212.149445 
L 172.2269 151.936174 
z
" style="fill: #8c564b"/>
   </g>
   <g id="patch_14">
    <path d="M 59.663298 212.283974 
C 64.430856 221.203449 70.240924 229.525216 76.971326 237.074278 
C 83.701727 244.623341 91.304952 251.346411 99.621114 257.102111 
L 172.314421 152.070703 
z
" style="fill: #e377c2"/>
   </g>
   <g id="patch_15">
    <path d="M 99.767489 257.217309 
C 103.778586 259.993431 107.945421 262.537502 112.247512 264.837017 
C 116.549602 267.136533 120.979889 269.18772 125.516596 270.980496 
L 172.460795 152.185901 
z
" style="fill: #7f7f7f"/>
   </g>
   <g id="patch_16">
    <path d="M 125.672208 271.034742 
C 133.453535 274.109699 141.518197 276.412686 149.749903 277.910496 
C 157.981609 279.408307 166.340601 280.093705 174.706345 279.95681 
L 172.616406 152.240148 
z
" style="fill: #f7b6d2"/>
   </g>
   <g id="patch_17">
    <path d="M 174.943573 279.946128 
C 185.755109 279.769209 196.500556 278.220169 206.92185 275.336209 
C 217.343145 272.452249 227.356188 268.256643 236.720507 262.850152 
L 172.853634 152.229466 
z
" style="fill: #c7c7c7"/>
   </g>
   <g id="patch_18">
    <path d="M 236.909418 262.754091 
C 242.341951 259.617618 247.536065 256.085217 252.449582 252.185573 
C 257.363099 248.285929 261.982683 244.029626 266.270822 239.451227 
L 173.042546 152.133406 
z
" style="fill: #dbdb8d"/>
   </g>
   <g id="patch_19">
    <path d="M 266.398687 239.304217 
C 272.834521 232.432748 278.490972 224.870755 283.264881 216.756149 
C 288.038791 208.641543 291.90096 200.023955 294.780953 191.060547 
L 173.17041 151.986396 
z
" style="fill: #bcbd22"/>
   </g>
   <g id="patch_20">
    <path d="M 294.840547 190.911529 
C 295.906278 187.594653 296.835863 184.235565 297.62697 180.842691 
C 298.418078 177.449817 299.070046 174.025997 299.581238 170.579822 
L 173.230004 151.837377 
z
" style="fill: #17becf"/>
   </g>
   <g id="patch_21">
    <path d="M 299.593699 170.498119 
C 300.05376 167.396643 300.399469 164.279279 300.630125 161.152362 
C 300.86078 158.025446 300.976225 154.891096 300.976225 151.755684 
L 173.242465 151.755675 
z
" style="fill: #9edae5"/>
   </g>
   <g id="patch_22">
    <path d="M 247.223043 151.716522 
C 247.223043 139.051096 243.993744 126.592358 237.841344 115.521632 
C 231.688944 104.450906 222.814246 95.129518 212.058739 88.441313 
L 172.711683 151.716522 
z
" style="fill: #ffffff"/>
   </g>
   <g id="patch_23">
    <path d="M 212.058739 88.441313 
C 210.332935 87.368139 208.563948 86.36602 206.756215 85.43747 
C 204.948482 84.50892 203.103517 83.654717 201.225949 82.877002 
L 172.711683 151.716522 
z
" style="fill: #ffffff"/>
   </g>
   <g id="patch_24">
    <path d="M 201.225949 82.877002 
C 200.475009 82.565953 199.719031 82.267212 198.958316 81.980899 
C 198.197601 81.694586 197.432253 81.42074 196.662578 81.159471 
L 172.711683 151.716522 
z
" style="fill: #ffffff"/>
   </g>
   <g id="patch_25">
    <path d="M 196.662578 81.159471 
C 195.123124 80.636897 193.56698 80.164845 191.996645 79.744075 
C 190.426309 79.323305 188.842624 78.954041 187.248131 78.636877 
L 172.711683 151.716522 
z
" style="fill: #ffffff"/>
   </g>
   <g id="patch_26">
    <path d="M 187.248131 78.636877 
C 185.852979 78.359364 184.450166 78.12186 183.041417 77.924656 
C 181.632668 77.727453 180.218561 77.570632 178.800834 77.454385 
L 172.711683 151.716522 
z
" style="fill: #ffffff"/>
   </g>
   <g id="patch_27">
    <path d="M 178.800834 77.454385 
C 172.10759 76.905569 165.370767 77.264158 158.773602 78.520397 
C 152.176437 79.776636 145.779289 81.919032 139.756154 84.889313 
L 172.711683 151.716522 
z
" style="fill: #ffffff"/>
   </g>
   <g id="patch_28">
    <path d="M 139.756154 84.889313 
C 137.93347 85.788161 136.148323 86.761202 134.405191 87.805995 
C 132.662059 88.850788 130.962401 89.966459 129.31048 91.150208 
L 172.711683 151.716522 
z
" style="fill: #ffffff"/>
   </g>
   <g id="patch_29">
    <path d="M 129.31048 91.150208 
C 128.319417 91.860394 127.345934 92.594799 126.390911 93.352759 
C 125.435888 94.110719 124.499613 94.892006 123.582932 95.695913 
L 172.711683 151.716522 
z
" style="fill: #ffffff"/>
   </g>
   <g id="patch_30">
    <path d="M 123.582932 95.695913 
C 123.277385 95.963871 122.974036 96.234323 122.672914 96.507244 
C 122.371793 96.780164 122.072909 97.055544 121.776293 97.333355 
L 172.711683 151.716522 
z
" style="fill: #ffffff"/>
   </g>
   <g id="patch_31">
    <path d="M 121.776293 97.333355 
C 111.626844 106.839351 104.338361 118.999449 100.739237 132.431559 
C 97.140114 145.863669 97.372075 160.038864 101.408756 173.346023 
L 172.711683 151.716522 
z
" style="fill: #ffffff"/>
   </g>
   <g id="patch_32">
    <path d="M 101.408756 173.346023 
C 101.644703 174.123835 101.893361 174.897733 102.15463 175.667409 
C 102.4159 176.437084 102.689746 177.202433 102.976058 177.963147 
L 172.711683 151.716522 
z
" style="fill: #ffffff"/>
   </g>
   <g id="patch_33">
    <path d="M 102.976058 177.963147 
C 103.548722 179.484678 104.171029 180.98706 104.841979 182.467879 
C 105.51293 183.948699 106.232164 185.407163 106.998528 186.84093 
L 172.711683 151.716522 
z
" style="fill: #ffffff"/>
   </g>
   <g id="patch_34">
    <path d="M 106.998528 186.84093 
C 109.779604 192.043957 113.168811 196.89832 117.094878 201.30194 
C 121.020946 205.70556 125.45616 209.627351 130.307255 212.984843 
L 172.711683 151.716522 
z
" style="fill: #ffffff"/>
   </g>
   <g id="patch_35">
    <path d="M 130.307255 212.984843 
C 132.647062 214.604247 135.077715 216.088289 137.587268 217.429673 
C 140.096821 218.771057 142.681155 219.967582 145.327567 221.013368 
L 172.711683 151.716522 
z
" style="fill: #ffffff"/>
   </g>
   <g id="patch_36">
    <path d="M 145.327567 221.013368 
C 149.866675 222.807093 154.571061 224.150502 159.37289 225.024225 
C 164.174718 225.897947 169.050797 226.297763 173.930814 226.217907 
L 172.711683 151.716522 
z
" style="fill: #ffffff"/>
   </g>
   <g id="patch_37">
    <path d="M 173.930814 226.217907 
C 180.237544 226.114705 186.505721 225.211098 192.584809 223.528788 
C 198.663898 221.846478 204.50484 219.399041 209.967359 216.245255 
L 172.711683 151.716522 
z
" style="fill: #ffffff"/>
   </g>
   <g id="patch_38">
    <path d="M 209.967359 216.245255 
C 213.136336 214.415645 216.166236 212.355078 219.032454 210.080286 
C 221.898673 207.805494 224.59343 205.32265 227.094845 202.651918 
L 172.711683 151.716522 
z
" style="fill: #ffffff"/>
   </g>
   <g id="patch_39">
    <path d="M 227.094845 202.651918 
C 230.849081 198.643561 234.148677 194.232398 236.933458 189.498878 
C 239.718239 184.765358 241.971171 179.738431 243.651167 174.509777 
L 172.711683 151.716522 
z
" style="fill: #ffffff"/>
   </g>
   <g id="patch_40">
    <path d="M 243.651167 174.509777 
C 244.272843 172.574933 244.815101 170.615464 245.27658 168.636288 
C 245.73806 166.657112 246.118374 164.659883 246.41657 162.649614 
L 172.711683 151.716522 
z
" style="fill: #ffffff"/>
   </g>
   <g id="patch_41">
    <path d="M 246.41657 162.649614 
C 246.684938 160.84042 246.886602 159.021957 247.021151 157.197923 
C 247.1557 155.373888 247.223043 153.545518 247.223043 151.716527 
L 172.711683 151.716522 
z
" style="fill: #ffffff"/>
   </g>
   <g id="matplotlib.axis_1"/>
   <g id="matplotlib.axis_2"/>
   <g id="text_1">
    <!-- A [62] -->
    <g transform="translate(295.992827 85.96414) scale(0.1 -0.1)">
     <defs>
      <path id="DejaVuSans-41" d="M 2188 4044 
L 1331 1722 
L 3047 1722 
L 2188 4044 
z
M 1831 4666 
L 2547 4666 
L 4325 0 
L 3669 0 
L 3244 1197 
L 1141 1197 
L 716 0 
L 50 0 
L 1831 4666 
z
" transform="scale(0.015625)"/>
      <path id="DejaVuSans-20" transform="scale(0.015625)"/>
      <path id="DejaVuSans-5b" d="M 550 4863 
L 1875 4863 
L 1875 4416 
L 1125 4416 
L 1125 -397 
L 1875 -397 
L 1875 -844 
L 550 -844 
L 550 4863 
z
" transform="scale(0.015625)"/>
      <path id="DejaVuSans-36" d="M 2113 2584 
Q 1688 2584 1439 2293 
Q 1191 2003 1191 1497 
Q 1191 994 1439 701 
Q 1688 409 2113 409 
Q 2538 409 2786 701 
Q 3034 994 3034 1497 
Q 3034 2003 2786 2293 
Q 2538 2584 2113 2584 
z
M 3366 4563 
L 3366 3988 
Q 3128 4100 2886 4159 
Q 2644 4219 2406 4219 
Q 1781 4219 1451 3797 
Q 1122 3375 1075 2522 
Q 1259 2794 1537 2939 
Q 1816 3084 2150 3084 
Q 2853 3084 3261 2657 
Q 3669 2231 3669 1497 
Q 3669 778 3244 343 
Q 2819 -91 2113 -91 
Q 1303 -91 875 529 
Q 447 1150 447 2328 
Q 447 3434 972 4092 
Q 1497 4750 2381 4750 
Q 2619 4750 2861 4703 
Q 3103 4656 3366 4563 
z
" transform="scale(0.015625)"/>
      <path id="DejaVuSans-32" d="M 1228 531 
L 3431 531 
L 3431 0 
L 469 0 
L 469 531 
Q 828 903 1448 1529 
Q 2069 2156 2228 2338 
Q 2531 2678 2651 2914 
Q 2772 3150 2772 3378 
Q 2772 3750 2511 3984 
Q 2250 4219 1831 4219 
Q 1534 4219 1204 4116 
Q 875 4013 500 3803 
L 500 4441 
Q 881 4594 1212 4672 
Q 1544 4750 1819 4750 
Q 2544 4750 2975 4387 
Q 3406 4025 3406 3419 
Q 3406 3131 3298 2873 
Q 3191 2616 2906 2266 
Q 2828 2175 2409 1742 
Q 1991 1309 1228 531 
z
" transform="scale(0.015625)"/>
      <path id="DejaVuSans-5d" d="M 1947 4863 
L 1947 -844 
L 622 -844 
L 622 -397 
L 1369 -397 
L 1369 4416 
L 622 4416 
L 622 4863 
L 1947 4863 
z
" transform="scale(0.015625)"/>
     </defs>
     <use xlink:href="#DejaVuSans-41"/>
     <use xlink:href="#DejaVuSans-20" x="68.408203"/>
     <use xlink:href="#DejaVuSans-5b" x="100.195312"/>
     <use xlink:href="#DejaVuSans-36" x="139.208984"/>
     <use xlink:href="#DejaVuSans-32" x="202.832031"/>
     <use xlink:href="#DejaVuSans-5d" x="266.455078"/>
    </g>
   </g>
   <g id="text_2">
    <!-- C [10] -->
    <g transform="translate(237.153118 29.019121) scale(0.1 -0.1)">
     <defs>
      <path id="DejaVuSans-43" d="M 4122 4306 
L 4122 3641 
Q 3803 3938 3442 4084 
Q 3081 4231 2675 4231 
Q 1875 4231 1450 3742 
Q 1025 3253 1025 2328 
Q 1025 1406 1450 917 
Q 1875 428 2675 428 
Q 3081 428 3442 575 
Q 3803 722 4122 1019 
L 4122 359 
Q 3791 134 3420 21 
Q 3050 -91 2638 -91 
Q 1578 -91 968 557 
Q 359 1206 359 2328 
Q 359 3453 968 4101 
Q 1578 4750 2638 4750 
Q 3056 4750 3426 4639 
Q 3797 4528 4122 4306 
z
" transform="scale(0.015625)"/>
      <path id="DejaVuSans-31" d="M 794 531 
L 1825 531 
L 1825 4091 
L 703 3866 
L 703 4441 
L 1819 4666 
L 2450 4666 
L 2450 531 
L 3481 531 
L 3481 0 
L 794 0 
L 794 531 
z
" transform="scale(0.015625)"/>
      <path id="DejaVuSans-30" d="M 2034 4250 
Q 1547 4250 1301 3770 
Q 1056 3291 1056 2328 
Q 1056 1369 1301 889 
Q 1547 409 2034 409 
Q 2525 409 2770 889 
Q 3016 1369 3016 2328 
Q 3016 3291 2770 3770 
Q 2525 4250 2034 4250 
z
M 2034 4750 
Q 2819 4750 3233 4129 
Q 3647 3509 3647 2328 
Q 3647 1150 3233 529 
Q 2819 -91 2034 -91 
Q 1250 -91 836 529 
Q 422 1150 422 2328 
Q 422 3509 836 4129 
Q 1250 4750 2034 4750 
z
" transform="scale(0.015625)"/>
     </defs>
     <use xlink:href="#DejaVuSans-43"/>
     <use xlink:href="#DejaVuSans-20" x="69.824219"/>
     <use xlink:href="#DejaVuSans-5b" x="101.611328"/>
     <use xlink:href="#DejaVuSans-31" x="140.625"/>
     <use xlink:href="#DejaVuSans-30" x="204.248047"/>
     <use xlink:href="#DejaVuSans-5d" x="267.871094"/>
    </g>
   </g>
   <g id="text_3">
    <!-- D [4] -->
    <g transform="translate(222.392809 22.476325) scale(0.1 -0.1)">
     <defs>
      <path id="DejaVuSans-44" d="M 1259 4147 
L 1259 519 
L 2022 519 
Q 2988 519 3436 956 
Q 3884 1394 3884 2338 
Q 3884 3275 3436 3711 
Q 2988 4147 2022 4147 
L 1259 4147 
z
M 628 4666 
L 1925 4666 
Q 3281 4666 3915 4102 
Q 4550 3538 4550 2338 
Q 4550 1131 3912 565 
Q 3275 0 1925 0 
L 628 0 
L 628 4666 
z
" transform="scale(0.015625)"/>
      <path id="DejaVuSans-34" d="M 2419 4116 
L 825 1625 
L 2419 1625 
L 2419 4116 
z
M 2253 4666 
L 3047 4666 
L 3047 1625 
L 3713 1625 
L 3713 1100 
L 3047 1100 
L 3047 0 
L 2419 0 
L 2419 1100 
L 313 1100 
L 313 1709 
L 2253 4666 
z
" transform="scale(0.015625)"/>
     </defs>
     <use xlink:href="#DejaVuSans-44"/>
     <use xlink:href="#DejaVuSans-20" x="77.001953"/>
     <use xlink:href="#DejaVuSans-5b" x="108.789062"/>
     <use xlink:href="#DejaVuSans-34" x="147.802734"/>
     <use xlink:href="#DejaVuSans-5d" x="211.425781"/>
    </g>
   </g>
   <g id="text_4">
    <!-- E [8] -->
    <g transform="translate(209.21536 18.242337) scale(0.1 -0.1)">
     <defs>
      <path id="DejaVuSans-45" d="M 628 4666 
L 3578 4666 
L 3578 4134 
L 1259 4134 
L 1259 2753 
L 3481 2753 
L 3481 2222 
L 1259 2222 
L 1259 531 
L 3634 531 
L 3634 0 
L 628 0 
L 628 4666 
z
" transform="scale(0.015625)"/>
      <path id="DejaVuSans-38" d="M 2034 2216 
Q 1584 2216 1326 1975 
Q 1069 1734 1069 1313 
Q 1069 891 1326 650 
Q 1584 409 2034 409 
Q 2484 409 2743 651 
Q 3003 894 3003 1313 
Q 3003 1734 2745 1975 
Q 2488 2216 2034 2216 
z
M 1403 2484 
Q 997 2584 770 2862 
Q 544 3141 544 3541 
Q 544 4100 942 4425 
Q 1341 4750 2034 4750 
Q 2731 4750 3128 4425 
Q 3525 4100 3525 3541 
Q 3525 3141 3298 2862 
Q 3072 2584 2669 2484 
Q 3125 2378 3379 2068 
Q 3634 1759 3634 1313 
Q 3634 634 3220 271 
Q 2806 -91 2034 -91 
Q 1263 -91 848 271 
Q 434 634 434 1313 
Q 434 1759 690 2068 
Q 947 2378 1403 2484 
z
M 1172 3481 
Q 1172 3119 1398 2916 
Q 1625 2713 2034 2713 
Q 2441 2713 2670 2916 
Q 2900 3119 2900 3481 
Q 2900 3844 2670 4047 
Q 2441 4250 2034 4250 
Q 1625 4250 1398 4047 
Q 1172 3844 1172 3481 
z
" transform="scale(0.015625)"/>
     </defs>
     <use xlink:href="#DejaVuSans-45"/>
     <use xlink:href="#DejaVuSans-20" x="63.183594"/>
     <use xlink:href="#DejaVuSans-5b" x="94.970703"/>
     <use xlink:href="#DejaVuSans-38" x="133.984375"/>
     <use xlink:href="#DejaVuSans-5d" x="197.607422"/>
    </g>
   </g>
   <g id="text_5">
    <!-- F [7] -->
    <g transform="translate(192.264394 14.798437) scale(0.1 -0.1)">
     <defs>
      <path id="DejaVuSans-46" d="M 628 4666 
L 3309 4666 
L 3309 4134 
L 1259 4134 
L 1259 2759 
L 3109 2759 
L 3109 2228 
L 1259 2228 
L 1259 0 
L 628 0 
L 628 4666 
z
" transform="scale(0.015625)"/>
      <path id="DejaVuSans-37" d="M 525 4666 
L 3525 4666 
L 3525 4397 
L 1831 0 
L 1172 0 
L 2766 4134 
L 525 4134 
L 525 4666 
z
" transform="scale(0.015625)"/>
     </defs>
     <use xlink:href="#DejaVuSans-46"/>
     <use xlink:href="#DejaVuSans-20" x="57.519531"/>
     <use xlink:href="#DejaVuSans-5b" x="89.306641"/>
     <use xlink:href="#DejaVuSans-37" x="128.320312"/>
     <use xlink:href="#DejaVuSans-5d" x="191.943359"/>
    </g>
   </g>
   <g id="text_6">
    <!-- G [33] -->
    <g transform="translate(114.874199 15.926089) scale(0.1 -0.1)">
     <defs>
      <path id="DejaVuSans-47" d="M 3809 666 
L 3809 1919 
L 2778 1919 
L 2778 2438 
L 4434 2438 
L 4434 434 
Q 4069 175 3628 42 
Q 3188 -91 2688 -91 
Q 1594 -91 976 548 
Q 359 1188 359 2328 
Q 359 3472 976 4111 
Q 1594 4750 2688 4750 
Q 3144 4750 3555 4637 
Q 3966 4525 4313 4306 
L 4313 3634 
Q 3963 3931 3569 4081 
Q 3175 4231 2741 4231 
Q 1884 4231 1454 3753 
Q 1025 3275 1025 2328 
Q 1025 1384 1454 906 
Q 1884 428 2741 428 
Q 3075 428 3337 486 
Q 3600 544 3809 666 
z
" transform="scale(0.015625)"/>
      <path id="DejaVuSans-33" d="M 2597 2516 
Q 3050 2419 3304 2112 
Q 3559 1806 3559 1356 
Q 3559 666 3084 287 
Q 2609 -91 1734 -91 
Q 1441 -91 1130 -33 
Q 819 25 488 141 
L 488 750 
Q 750 597 1062 519 
Q 1375 441 1716 441 
Q 2309 441 2620 675 
Q 2931 909 2931 1356 
Q 2931 1769 2642 2001 
Q 2353 2234 1838 2234 
L 1294 2234 
L 1294 2753 
L 1863 2753 
Q 2328 2753 2575 2939 
Q 2822 3125 2822 3475 
Q 2822 3834 2567 4026 
Q 2313 4219 1838 4219 
Q 1578 4219 1281 4162 
Q 984 4106 628 3988 
L 628 4550 
Q 988 4650 1302 4700 
Q 1616 4750 1894 4750 
Q 2613 4750 3031 4423 
Q 3450 4097 3450 3541 
Q 3450 3153 3228 2886 
Q 3006 2619 2597 2516 
z
" transform="scale(0.015625)"/>
     </defs>
     <use xlink:href="#DejaVuSans-47"/>
     <use xlink:href="#DejaVuSans-20" x="77.490234"/>
     <use xlink:href="#DejaVuSans-5b" x="109.277344"/>
     <use xlink:href="#DejaVuSans-33" x="148.291016"/>
     <use xlink:href="#DejaVuSans-33" x="211.914062"/>
     <use xlink:href="#DejaVuSans-5d" x="275.537109"/>
    </g>
   </g>
   <g id="text_7">
    <!-- H [10] -->
    <g transform="translate(68.976403 33.5024) scale(0.1 -0.1)">
     <defs>
      <path id="DejaVuSans-48" d="M 628 4666 
L 1259 4666 
L 1259 2753 
L 3553 2753 
L 3553 4666 
L 4184 4666 
L 4184 0 
L 3553 0 
L 3553 2222 
L 1259 2222 
L 1259 0 
L 628 0 
L 628 4666 
z
" transform="scale(0.015625)"/>
     </defs>
     <use xlink:href="#DejaVuSans-48"/>
     <use xlink:href="#DejaVuSans-20" x="75.195312"/>
     <use xlink:href="#DejaVuSans-5b" x="106.982422"/>
     <use xlink:href="#DejaVuSans-31" x="145.996094"/>
     <use xlink:href="#DejaVuSans-30" x="209.619141"/>
     <use xlink:href="#DejaVuSans-5d" x="273.242188"/>
    </g>
   </g>
   <g id="text_8">
    <!-- I [6] -->
    <g transform="translate(64.739328 44.001632) scale(0.1 -0.1)">
     <defs>
      <path id="DejaVuSans-49" d="M 628 4666 
L 1259 4666 
L 1259 0 
L 628 0 
L 628 4666 
z
" transform="scale(0.015625)"/>
     </defs>
     <use xlink:href="#DejaVuSans-49"/>
     <use xlink:href="#DejaVuSans-20" x="29.492188"/>
     <use xlink:href="#DejaVuSans-5b" x="61.279297"/>
     <use xlink:href="#DejaVuSans-36" x="100.292969"/>
     <use xlink:href="#DejaVuSans-5d" x="163.916016"/>
    </g>
   </g>
   <g id="text_9">
    <!-- K [2] -->
    <g transform="translate(54.09388 49.972621) scale(0.1 -0.1)">
     <defs>
      <path id="DejaVuSans-4b" d="M 628 4666 
L 1259 4666 
L 1259 2694 
L 3353 4666 
L 4166 4666 
L 1850 2491 
L 4331 0 
L 3500 0 
L 1259 2247 
L 1259 0 
L 628 0 
L 628 4666 
z
" transform="scale(0.015625)"/>
     </defs>
     <use xlink:href="#DejaVuSans-4b"/>
     <use xlink:href="#DejaVuSans-20" x="65.576172"/>
     <use xlink:href="#DejaVuSans-5b" x="97.363281"/>
     <use xlink:href="#DejaVuSans-32" x="136.376953"/>
     <use xlink:href="#DejaVuSans-5d" x="200"/>
    </g>
   </g>
   <g id="text_10">
    <!-- L [68] -->
    <g transform="translate(7.2 117.972217) scale(0.1 -0.1)">
     <defs>
      <path id="DejaVuSans-4c" d="M 628 4666 
L 1259 4666 
L 1259 531 
L 3531 531 
L 3531 0 
L 628 0 
L 628 4666 
z
" transform="scale(0.015625)"/>
     </defs>
     <use xlink:href="#DejaVuSans-4c"/>
     <use xlink:href="#DejaVuSans-20" x="55.712891"/>
     <use xlink:href="#DejaVuSans-5b" x="87.5"/>
     <use xlink:href="#DejaVuSans-36" x="126.513672"/>
     <use xlink:href="#DejaVuSans-38" x="190.136719"/>
     <use xlink:href="#DejaVuSans-5d" x="253.759766"/>
    </g>
   </g>
   <g id="text_11">
    <!-- M [4] -->
    <g transform="translate(13.185386 199.811504) scale(0.1 -0.1)">
     <defs>
      <path id="DejaVuSans-4d" d="M 628 4666 
L 1569 4666 
L 2759 1491 
L 3956 4666 
L 4897 4666 
L 4897 0 
L 4281 0 
L 4281 4097 
L 3078 897 
L 2444 897 
L 1241 4097 
L 1241 0 
L 628 0 
L 628 4666 
z
" transform="scale(0.015625)"/>
     </defs>
     <use xlink:href="#DejaVuSans-4d"/>
     <use xlink:href="#DejaVuSans-20" x="86.279297"/>
     <use xlink:href="#DejaVuSans-5b" x="118.066406"/>
     <use xlink:href="#DejaVuSans-34" x="157.080078"/>
     <use xlink:href="#DejaVuSans-5d" x="220.703125"/>
    </g>
   </g>
   <g id="text_12">
    <!-- N [8] -->
    <g transform="translate(19.419029 212.683824) scale(0.1 -0.1)">
     <defs>
      <path id="DejaVuSans-4e" d="M 628 4666 
L 1478 4666 
L 3547 763 
L 3547 4666 
L 4159 4666 
L 4159 0 
L 3309 0 
L 1241 3903 
L 1241 0 
L 628 0 
L 628 4666 
z
" transform="scale(0.015625)"/>
     </defs>
     <use xlink:href="#DejaVuSans-4e"/>
     <use xlink:href="#DejaVuSans-20" x="74.804688"/>
     <use xlink:href="#DejaVuSans-5b" x="106.591797"/>
     <use xlink:href="#DejaVuSans-38" x="145.605469"/>
     <use xlink:href="#DejaVuSans-5d" x="209.228516"/>
    </g>
   </g>
   <g id="text_13">
    <!-- P [29] -->
    <g transform="translate(37.701079 248.334011) scale(0.1 -0.1)">
     <defs>
      <path id="DejaVuSans-50" d="M 1259 4147 
L 1259 2394 
L 2053 2394 
Q 2494 2394 2734 2622 
Q 2975 2850 2975 3272 
Q 2975 3691 2734 3919 
Q 2494 4147 2053 4147 
L 1259 4147 
z
M 628 4666 
L 2053 4666 
Q 2838 4666 3239 4311 
Q 3641 3956 3641 3272 
Q 3641 2581 3239 2228 
Q 2838 1875 2053 1875 
L 1259 1875 
L 1259 0 
L 628 0 
L 628 4666 
z
" transform="scale(0.015625)"/>
      <path id="DejaVuSans-39" d="M 703 97 
L 703 672 
Q 941 559 1184 500 
Q 1428 441 1663 441 
Q 2288 441 2617 861 
Q 2947 1281 2994 2138 
Q 2813 1869 2534 1725 
Q 2256 1581 1919 1581 
Q 1219 1581 811 2004 
Q 403 2428 403 3163 
Q 403 3881 828 4315 
Q 1253 4750 1959 4750 
Q 2769 4750 3195 4129 
Q 3622 3509 3622 2328 
Q 3622 1225 3098 567 
Q 2575 -91 1691 -91 
Q 1453 -91 1209 -44 
Q 966 3 703 97 
z
M 1959 2075 
Q 2384 2075 2632 2365 
Q 2881 2656 2881 3163 
Q 2881 3666 2632 3958 
Q 2384 4250 1959 4250 
Q 1534 4250 1286 3958 
Q 1038 3666 1038 3163 
Q 1038 2656 1286 2365 
Q 1534 2075 1959 2075 
z
" transform="scale(0.015625)"/>
     </defs>
     <use xlink:href="#DejaVuSans-50"/>
     <use xlink:href="#DejaVuSans-20" x="60.302734"/>
     <use xlink:href="#DejaVuSans-5b" x="92.089844"/>
     <use xlink:href="#DejaVuSans-32" x="131.103516"/>
     <use xlink:href="#DejaVuSans-39" x="194.726562"/>
     <use xlink:href="#DejaVuSans-5d" x="258.349609"/>
    </g>
   </g>
   <g id="text_14">
    <!-- Q [14] -->
    <g transform="translate(74.648058 278.861504) scale(0.1 -0.1)">
     <defs>
      <path id="DejaVuSans-51" d="M 2522 4238 
Q 1834 4238 1429 3725 
Q 1025 3213 1025 2328 
Q 1025 1447 1429 934 
Q 1834 422 2522 422 
Q 3209 422 3611 934 
Q 4013 1447 4013 2328 
Q 4013 3213 3611 3725 
Q 3209 4238 2522 4238 
z
M 3406 84 
L 4238 -825 
L 3475 -825 
L 2784 -78 
Q 2681 -84 2626 -87 
Q 2572 -91 2522 -91 
Q 1538 -91 948 567 
Q 359 1225 359 2328 
Q 359 3434 948 4092 
Q 1538 4750 2522 4750 
Q 3503 4750 4090 4092 
Q 4678 3434 4678 2328 
Q 4678 1516 4351 937 
Q 4025 359 3406 84 
z
" transform="scale(0.015625)"/>
     </defs>
     <use xlink:href="#DejaVuSans-51"/>
     <use xlink:href="#DejaVuSans-20" x="78.710938"/>
     <use xlink:href="#DejaVuSans-5b" x="110.498047"/>
     <use xlink:href="#DejaVuSans-31" x="149.511719"/>
     <use xlink:href="#DejaVuSans-34" x="213.134766"/>
     <use xlink:href="#DejaVuSans-5d" x="276.757812"/>
    </g>
   </g>
   <g id="text_15">
    <!-- R [24] -->
    <g transform="translate(116.808565 293.236906) scale(0.1 -0.1)">
     <defs>
      <path id="DejaVuSans-52" d="M 2841 2188 
Q 3044 2119 3236 1894 
Q 3428 1669 3622 1275 
L 4263 0 
L 3584 0 
L 2988 1197 
Q 2756 1666 2539 1819 
Q 2322 1972 1947 1972 
L 1259 1972 
L 1259 0 
L 628 0 
L 628 4666 
L 2053 4666 
Q 2853 4666 3247 4331 
Q 3641 3997 3641 3322 
Q 3641 2881 3436 2590 
Q 3231 2300 2841 2188 
z
M 1259 4147 
L 1259 2491 
L 2053 2491 
Q 2509 2491 2742 2702 
Q 2975 2913 2975 3322 
Q 2975 3731 2742 3939 
Q 2509 4147 2053 4147 
L 1259 4147 
z
" transform="scale(0.015625)"/>
     </defs>
     <use xlink:href="#DejaVuSans-52"/>
     <use xlink:href="#DejaVuSans-20" x="69.482422"/>
     <use xlink:href="#DejaVuSans-5b" x="101.269531"/>
     <use xlink:href="#DejaVuSans-32" x="140.283203"/>
     <use xlink:href="#DejaVuSans-34" x="203.90625"/>
     <use xlink:href="#DejaVuSans-5d" x="267.529297"/>
    </g>
   </g>
   <g id="text_16">
    <!-- S [31] -->
    <g transform="translate(210.328672 290.406258) scale(0.1 -0.1)">
     <defs>
      <path id="DejaVuSans-53" d="M 3425 4513 
L 3425 3897 
Q 3066 4069 2747 4153 
Q 2428 4238 2131 4238 
Q 1616 4238 1336 4038 
Q 1056 3838 1056 3469 
Q 1056 3159 1242 3001 
Q 1428 2844 1947 2747 
L 2328 2669 
Q 3034 2534 3370 2195 
Q 3706 1856 3706 1288 
Q 3706 609 3251 259 
Q 2797 -91 1919 -91 
Q 1588 -91 1214 -16 
Q 841 59 441 206 
L 441 856 
Q 825 641 1194 531 
Q 1563 422 1919 422 
Q 2459 422 2753 634 
Q 3047 847 3047 1241 
Q 3047 1584 2836 1778 
Q 2625 1972 2144 2069 
L 1759 2144 
Q 1053 2284 737 2584 
Q 422 2884 422 3419 
Q 422 4038 858 4394 
Q 1294 4750 2059 4750 
Q 2388 4750 2728 4690 
Q 3069 4631 3425 4513 
z
" transform="scale(0.015625)"/>
     </defs>
     <use xlink:href="#DejaVuSans-53"/>
     <use xlink:href="#DejaVuSans-20" x="63.476562"/>
     <use xlink:href="#DejaVuSans-5b" x="95.263672"/>
     <use xlink:href="#DejaVuSans-33" x="134.277344"/>
     <use xlink:href="#DejaVuSans-31" x="197.900391"/>
     <use xlink:href="#DejaVuSans-5d" x="261.523438"/>
    </g>
   </g>
   <g id="text_17">
    <!-- T [18] -->
    <g transform="translate(260.390285 264.950165) scale(0.1 -0.1)">
     <defs>
      <path id="DejaVuSans-54" d="M -19 4666 
L 3928 4666 
L 3928 4134 
L 2272 4134 
L 2272 0 
L 1638 0 
L 1638 4134 
L -19 4134 
L -19 4666 
z
" transform="scale(0.015625)"/>
     </defs>
     <use xlink:href="#DejaVuSans-54"/>
     <use xlink:href="#DejaVuSans-20" x="61.083984"/>
     <use xlink:href="#DejaVuSans-5b" x="92.871094"/>
     <use xlink:href="#DejaVuSans-31" x="131.884766"/>
     <use xlink:href="#DejaVuSans-38" x="195.507812"/>
     <use xlink:href="#DejaVuSans-5d" x="259.130859"/>
    </g>
   </g>
   <g id="text_18">
    <!-- V [27] -->
    <g transform="translate(294.274328 225.992499) scale(0.1 -0.1)">
     <defs>
      <path id="DejaVuSans-56" d="M 1831 0 
L 50 4666 
L 709 4666 
L 2188 738 
L 3669 4666 
L 4325 4666 
L 2547 0 
L 1831 0 
z
" transform="scale(0.015625)"/>
     </defs>
     <use xlink:href="#DejaVuSans-56"/>
     <use xlink:href="#DejaVuSans-20" x="68.408203"/>
     <use xlink:href="#DejaVuSans-5b" x="100.195312"/>
     <use xlink:href="#DejaVuSans-32" x="139.208984"/>
     <use xlink:href="#DejaVuSans-37" x="202.832031"/>
     <use xlink:href="#DejaVuSans-5d" x="266.455078"/>
    </g>
   </g>
   <g id="text_19">
    <!-- W [10] -->
    <g transform="translate(310.066667 186.502597) scale(0.1 -0.1)">
     <defs>
      <path id="DejaVuSans-57" d="M 213 4666 
L 850 4666 
L 1831 722 
L 2809 4666 
L 3519 4666 
L 4500 722 
L 5478 4666 
L 6119 4666 
L 4947 0 
L 4153 0 
L 3169 4050 
L 2175 0 
L 1381 0 
L 213 4666 
z
" transform="scale(0.015625)"/>
     </defs>
     <use xlink:href="#DejaVuSans-57"/>
     <use xlink:href="#DejaVuSans-20" x="98.876953"/>
     <use xlink:href="#DejaVuSans-5b" x="130.664062"/>
     <use xlink:href="#DejaVuSans-31" x="169.677734"/>
     <use xlink:href="#DejaVuSans-30" x="233.300781"/>
     <use xlink:href="#DejaVuSans-5d" x="296.923828"/>
    </g>
   </g>
   <g id="text_20">
    <!-- Y [9] -->
    <g transform="translate(313.36889 164.851406) scale(0.1 -0.1)">
     <defs>
      <path id="DejaVuSans-59" d="M -13 4666 
L 666 4666 
L 1959 2747 
L 3244 4666 
L 3922 4666 
L 2272 2222 
L 2272 0 
L 1638 0 
L 1638 2222 
L -13 4666 
z
" transform="scale(0.015625)"/>
     </defs>
     <use xlink:href="#DejaVuSans-59"/>
     <use xlink:href="#DejaVuSans-20" x="61.083984"/>
     <use xlink:href="#DejaVuSans-5b" x="92.871094"/>
     <use xlink:href="#DejaVuSans-39" x="131.884766"/>
     <use xlink:href="#DejaVuSans-5d" x="195.507812"/>
    </g>
   </g>
   <g id="text_21">
    <!-- A0A337SNH1 [384] -->
    <g transform="translate(114.564183 151.716522) scale(0.12 -0.12)">
     <use xlink:href="#DejaVuSans-41"/>
     <use xlink:href="#DejaVuSans-30" x="68.408203"/>
     <use xlink:href="#DejaVuSans-41" x="132.03125"/>
     <use xlink:href="#DejaVuSans-33" x="200.439453"/>
     <use xlink:href="#DejaVuSans-33" x="264.0625"/>
     <use xlink:href="#DejaVuSans-37" x="327.685547"/>
     <use xlink:href="#DejaVuSans-53" x="391.308594"/>
     <use xlink:href="#DejaVuSans-4e" x="454.785156"/>
     <use xlink:href="#DejaVuSans-48" x="529.589844"/>
     <use xlink:href="#DejaVuSans-31" x="604.785156"/>
     <use xlink:href="#DejaVuSans-20" x="668.408203"/>
     <use xlink:href="#DejaVuSans-5b" x="700.195312"/>
     <use xlink:href="#DejaVuSans-33" x="739.208984"/>
     <use xlink:href="#DejaVuSans-38" x="802.832031"/>
     <use xlink:href="#DejaVuSans-34" x="866.455078"/>
     <use xlink:href="#DejaVuSans-5d" x="930.078125"/>
    </g>
   </g>
  </g>
 </g>
</svg>
