<?xml version="1.0" encoding="utf-8" standalone="no"?>
<!DOCTYPE svg PUBLIC "-//W3C//DTD SVG 1.1//EN"
  "http://www.w3.org/Graphics/SVG/1.1/DTD/svg11.dtd">
<svg xmlns:xlink="http://www.w3.org/1999/xlink" width="353.994603pt" height="305.728342pt" viewBox="0 0 353.994603 305.728342" xmlns="http://www.w3.org/2000/svg" version="1.1">
 <metadata>
  <rdf:RDF xmlns:dc="http://purl.org/dc/elements/1.1/" xmlns:cc="http://creativecommons.org/ns#" xmlns:rdf="http://www.w3.org/1999/02/22-rdf-syntax-ns#">
   <cc:Work>
    <dc:type rdf:resource="http://purl.org/dc/dcmitype/StillImage"/>
    <dc:date>2024-09-27T16:07:23.621938</dc:date>
    <dc:format>image/svg+xml</dc:format>
    <dc:creator>
     <cc:Agent>
      <dc:title>Matplotlib v3.8.3, https://matplotlib.org/</dc:title>
     </cc:Agent>
    </dc:creator>
   </cc:Work>
  </rdf:RDF>
 </metadata>
 <defs>
  <style type="text/css">*{stroke-linejoin: round; stroke-linecap: butt}</style>
 </defs>
 <g id="figure_1">
  <g id="patch_1">
   <path d="M 0 305.728342 
L 353.994603 305.728342 
L 353.994603 0 
L 0 0 
z
" style="fill: #ffffff"/>
  </g>
  <g id="axes_1">
   <g id="patch_2">
    <path d="M 305.424164 152.941897 
C 305.424164 144.692399 304.624992 136.462269 303.037851 128.366888 
C 301.45071 120.271507 299.083053 112.348885 295.968073 104.710096 
L 177.690404 152.941897 
z
" style="fill: #1f77b4"/>
   </g>
   <g id="patch_3">
    <path d="M 295.907878 104.54841 
C 293.784913 99.342317 291.320537 94.282064 288.530832 89.400677 
C 285.741127 84.519291 282.632175 79.827412 279.224267 75.355662 
L 177.630209 152.780211 
z
" style="fill: #ff7f0e"/>
   </g>
   <g id="patch_4">
    <path d="M 279.161749 75.268164 
C 277.344669 72.883849 275.444216 70.564241 273.463921 68.313649 
C 271.483626 66.063057 269.424715 63.882876 267.291015 61.777156 
L 177.567691 152.692713 
z
" style="fill: #aec7e8"/>
   </g>
   <g id="patch_5">
    <path d="M 267.219609 61.709722 
C 263.751759 58.287348 260.090934 55.06619 256.255087 52.062042 
C 252.419239 49.057895 248.414647 46.275676 244.260948 43.729029 
L 177.496285 152.625279 
z
" style="fill: #ffbb78"/>
   </g>
   <g id="patch_6">
    <path d="M 244.114084 43.647649 
C 236.760969 39.13943 228.970105 35.387548 220.860845 32.44948 
C 212.751584 29.511413 204.36555 27.402241 195.831212 26.154276 
L 177.349421 152.543899 
z
" style="fill: #98df8a"/>
   </g>
   <g id="patch_7">
    <path d="M 195.661622 26.122574 
C 190.469593 25.363351 185.235711 24.924777 179.989735 24.809347 
C 174.743758 24.693918 169.495651 24.901851 164.275251 25.431966 
L 177.179831 152.512197 
z
" style="fill: #2ca02c"/>
   </g>
   <g id="patch_8">
    <path d="M 164.16805 25.440474 
C 160.812702 25.781199 157.472163 26.254678 154.15429 26.8598 
C 150.836416 27.464922 147.543809 28.201211 144.284212 29.066937 
L 177.07263 152.520706 
z
" style="fill: #d62728"/>
   </g>
   <g id="patch_9">
    <path d="M 144.089638 29.144291 
C 131.025753 32.613963 118.595027 38.135378 107.26213 45.502139 
C 95.929233 52.868901 85.83716 61.988059 77.363161 72.518731 
L 176.878057 152.59806 
z
" style="fill: #9467bd"/>
   </g>
   <g id="patch_10">
    <path d="M 77.177848 72.725637 
C 71.535042 79.737974 66.649197 87.327144 62.60179 95.366585 
C 58.554383 103.406026 55.36804 111.8508 53.095898 120.560076 
L 176.692744 152.804966 
z
" style="fill: #ff9896"/>
   </g>
   <g id="patch_11">
    <path d="M 53.040371 120.83684 
C 49.533022 134.280744 48.24254 148.207281 49.219861 162.066751 
C 50.197181 175.926221 53.429275 189.533842 58.788567 202.352502 
L 176.637218 153.08173 
z
" style="fill: #c5b0d5"/>
   </g>
   <g id="patch_12">
    <path d="M 58.855081 202.57507 
C 60.734447 207.070246 62.869469 211.454214 65.249677 215.705477 
C 67.629885 219.956741 70.251383 224.068339 73.101316 228.020113 
L 176.703731 153.304298 
z
" style="fill: #c49c94"/>
   </g>
   <g id="patch_13">
    <path d="M 73.188542 228.135618 
C 77.135589 233.608671 81.510128 238.76036 86.271071 243.542295 
C 91.032013 248.324231 96.164405 252.721395 101.620039 256.692483 
L 176.790957 153.419803 
z
" style="fill: #8c564b"/>
   </g>
   <g id="patch_14">
    <path d="M 101.73516 256.780217 
C 105.674356 259.647509 109.77438 262.287071 114.01513 264.685961 
C 118.25588 267.084851 122.630412 269.23914 127.117276 271.138266 
L 176.906078 153.507536 
z
" style="fill: #e377c2"/>
   </g>
   <g id="patch_15">
    <path d="M 127.22021 271.182907 
C 131.016493 272.789735 134.888338 274.211846 138.822147 275.444247 
C 142.755956 276.676647 146.74712 277.717892 150.781624 278.564326 
L 177.009011 153.552176 
z
" style="fill: #7f7f7f"/>
   </g>
   <g id="patch_16">
    <path d="M 150.900962 278.587178 
C 156.40348 279.741599 161.976219 280.531465 167.58281 280.95162 
C 173.189401 281.371775 178.81762 281.421304 184.430737 281.099883 
L 177.12835 153.575028 
z
" style="fill: #f7b6d2"/>
   </g>
   <g id="patch_17">
    <path d="M 184.598054 281.085863 
C 192.459152 280.635717 200.261815 279.459654 207.906348 277.5727 
C 215.550881 275.685746 223.004588 273.095972 230.172232 269.836467 
L 177.295668 153.561008 
z
" style="fill: #c7c7c7"/>
   </g>
   <g id="patch_18">
    <path d="M 230.361674 269.747282 
C 238.555047 266.021324 246.331694 261.43976 253.561928 256.078992 
C 260.792163 250.718224 267.435567 244.608219 273.381354 237.850872 
L 177.48511 153.471823 
z
" style="fill: #dbdb8d"/>
   </g>
   <g id="patch_19">
    <path d="M 273.526453 237.687423 
C 279.224067 231.212121 284.251201 224.176349 288.530842 216.68789 
C 292.810483 209.199431 296.320665 201.296722 299.007612 193.10083 
L 177.630209 153.308374 
z
" style="fill: #bcbd22"/>
   </g>
   <g id="patch_20">
    <path d="M 299.055466 192.989143 
C 299.405644 191.921008 299.741707 190.848298 300.063567 189.771293 
C 300.385428 188.694287 300.693057 187.61308 300.986376 186.527953 
L 177.678063 153.196687 
z
" style="fill: #17becf"/>
   </g>
   <g id="patch_21">
    <path d="M 301.004031 186.445609 
C 302.471135 181.018087 303.578295 175.499617 304.318284 169.926216 
C 305.058273 164.352814 305.429478 158.736631 305.429477 153.114319 
L 177.695717 153.114342 
z
" style="fill: #9edae5"/>
   </g>
   <g id="patch_22">
    <path d="M 251.679483 153.044293 
C 251.679483 148.232086 251.213299 143.431176 250.287467 138.708871 
C 249.361635 133.986565 247.980501 129.365036 246.16343 124.909075 
L 177.168123 153.044293 
z
" style="fill: #ffffff"/>
   </g>
   <g id="patch_23">
    <path d="M 246.16343 124.909075 
C 244.925034 121.872187 243.487481 118.920373 241.860153 116.072898 
C 240.232825 113.225422 238.41927 110.488493 236.431324 107.879972 
L 177.168123 153.044293 
z
" style="fill: #ffffff"/>
   </g>
   <g id="patch_24">
    <path d="M 236.431324 107.879972 
C 235.371361 106.489122 234.262763 105.136017 233.107591 103.823172 
C 231.952419 102.510327 230.751388 101.238554 229.506729 100.010218 
L 177.168123 153.044293 
z
" style="fill: #ffffff"/>
   </g>
   <g id="patch_25">
    <path d="M 229.506729 100.010218 
C 227.483816 98.013833 225.348335 96.134824 223.110758 94.382404 
C 220.87318 92.629985 218.537168 91.007024 216.114177 89.52148 
L 177.168123 153.044293 
z
" style="fill: #ffffff"/>
   </g>
   <g id="patch_26">
    <path d="M 216.114177 89.52148 
C 211.82486 86.891685 207.280189 84.703087 202.549787 82.989215 
C 197.819385 81.275343 192.927532 80.044992 187.949168 79.317012 
L 177.168123 153.044293 
z
" style="fill: #ffffff"/>
   </g>
   <g id="patch_27">
    <path d="M 187.949168 79.317012 
C 184.920484 78.874132 181.867386 78.618297 178.807234 78.550964 
C 175.747081 78.48363 172.685685 78.604924 169.640452 78.914158 
L 177.168123 153.044293 
z
" style="fill: #ffffff"/>
   </g>
   <g id="patch_28">
    <path d="M 169.640452 78.914158 
C 167.683165 79.112914 165.734518 79.38911 163.799091 79.742098 
C 161.863665 80.095086 159.942978 80.524588 158.041546 81.029594 
L 177.168123 153.044293 
z
" style="fill: #ffffff"/>
   </g>
   <g id="patch_29">
    <path d="M 158.041546 81.029594 
C 150.420946 83.05357 143.169689 86.274395 136.558833 90.571672 
C 129.947976 94.86895 124.060933 100.188459 119.117767 106.331351 
L 177.168123 153.044293 
z
" style="fill: #ffffff"/>
   </g>
   <g id="patch_30">
    <path d="M 119.117767 106.331351 
C 115.826131 110.421881 112.976054 114.848896 110.615067 119.53857 
C 108.254079 124.228245 106.395379 129.154362 105.069963 134.234773 
L 177.168123 153.044293 
z
" style="fill: #ffffff"/>
   </g>
   <g id="patch_31">
    <path d="M 105.069963 134.234773 
C 103.024009 142.077051 102.271228 150.200864 102.841332 158.285555 
C 103.411435 166.370246 105.296824 174.308024 108.423077 181.785576 
L 177.168123 153.044293 
z
" style="fill: #ffffff"/>
   </g>
   <g id="patch_32">
    <path d="M 108.423077 181.785576 
C 109.519374 184.407763 110.764804 186.965077 112.153258 189.444981 
C 113.541713 191.924884 115.07092 194.323317 116.733381 196.628518 
L 177.168123 153.044293 
z
" style="fill: #ffffff"/>
   </g>
   <g id="patch_33">
    <path d="M 116.733381 196.628518 
C 119.035825 199.821132 121.58764 202.826284 124.364856 205.615747 
C 127.142073 208.405209 130.135968 210.970221 133.318421 213.28669 
L 177.168123 153.044293 
z
" style="fill: #ffffff"/>
   </g>
   <g id="patch_34">
    <path d="M 133.318421 213.28669 
C 135.616285 214.959277 138.007967 216.499022 140.481737 217.898374 
C 142.955508 219.297726 145.507318 220.554395 148.124656 221.662219 
L 177.168123 153.044293 
z
" style="fill: #ffffff"/>
   </g>
   <g id="patch_35">
    <path d="M 148.124656 221.662219 
C 150.339154 222.599535 152.59773 223.4291 154.892453 224.148 
C 157.187175 224.866901 159.515354 225.474294 161.868814 225.968047 
L 177.168123 153.044293 
z
" style="fill: #ffffff"/>
   </g>
   <g id="patch_36">
    <path d="M 161.868814 225.968047 
C 165.078616 226.641459 168.32938 227.102214 171.599891 227.347304 
C 174.870403 227.592395 178.153531 227.621287 181.427849 227.433791 
L 177.168123 153.044293 
z
" style="fill: #ffffff"/>
   </g>
   <g id="patch_37">
    <path d="M 181.427849 227.433791 
C 186.013489 227.171206 190.565042 226.485169 195.024353 225.384446 
C 199.483664 224.283723 203.83166 222.773022 208.012785 220.871644 
L 177.168123 153.044293 
z
" style="fill: #ffffff"/>
   </g>
   <g id="patch_38">
    <path d="M 208.012785 220.871644 
C 212.792253 218.698169 217.328631 216.025589 221.546267 212.898475 
C 225.763904 209.77136 229.639223 206.207191 233.107599 202.265405 
L 177.168123 153.044293 
z
" style="fill: #ffffff"/>
   </g>
   <g id="patch_39">
    <path d="M 233.107599 202.265405 
C 236.431207 198.488145 239.363702 194.383944 241.860159 190.015677 
C 244.356616 185.647409 246.404222 181.037496 247.971608 176.256558 
L 177.168123 153.044293 
z
" style="fill: #ffffff"/>
   </g>
   <g id="patch_40">
    <path d="M 247.971608 176.256558 
C 248.175879 175.63348 248.371915 175.007733 248.559667 174.379479 
C 248.747419 173.751226 248.92687 173.120522 249.097973 172.487531 
L 177.168123 153.044293 
z
" style="fill: #ffffff"/>
   </g>
   <g id="patch_41">
    <path d="M 249.097973 172.487531 
C 249.953784 169.321477 250.599627 166.10237 251.031287 162.851219 
C 251.462947 159.600068 251.679484 156.323961 251.679483 153.044279 
L 177.168123 153.044293 
z
" style="fill: #ffffff"/>
   </g>
   <g id="matplotlib.axis_1"/>
   <g id="matplotlib.axis_2"/>
   <g id="text_1">
    <!-- A [22] -->
    <g transform="translate(315.572596 128.668762) scale(0.1 -0.1)">
     <defs>
      <path id="DejaVuSans-41" d="M 2188 4044 
L 1331 1722 
L 3047 1722 
L 2188 4044 
z
M 1831 4666 
L 2547 4666 
L 4325 0 
L 3669 0 
L 3244 1197 
L 1141 1197 
L 716 0 
L 50 0 
L 1831 4666 
z
" transform="scale(0.015625)"/>
      <path id="DejaVuSans-20" transform="scale(0.015625)"/>
      <path id="DejaVuSans-5b" d="M 550 4863 
L 1875 4863 
L 1875 4416 
L 1125 4416 
L 1125 -397 
L 1875 -397 
L 1875 -844 
L 550 -844 
L 550 4863 
z
" transform="scale(0.015625)"/>
      <path id="DejaVuSans-32" d="M 1228 531 
L 3431 531 
L 3431 0 
L 469 0 
L 469 531 
Q 828 903 1448 1529 
Q 2069 2156 2228 2338 
Q 2531 2678 2651 2914 
Q 2772 3150 2772 3378 
Q 2772 3750 2511 3984 
Q 2250 4219 1831 4219 
Q 1534 4219 1204 4116 
Q 875 4013 500 3803 
L 500 4441 
Q 881 4594 1212 4672 
Q 1544 4750 1819 4750 
Q 2544 4750 2975 4387 
Q 3406 4025 3406 3419 
Q 3406 3131 3298 2873 
Q 3191 2616 2906 2266 
Q 2828 2175 2409 1742 
Q 1991 1309 1228 531 
z
" transform="scale(0.015625)"/>
      <path id="DejaVuSans-5d" d="M 1947 4863 
L 1947 -844 
L 622 -844 
L 622 -397 
L 1369 -397 
L 1369 4416 
L 622 4416 
L 622 4863 
L 1947 4863 
z
" transform="scale(0.015625)"/>
     </defs>
     <use xlink:href="#DejaVuSans-41"/>
     <use xlink:href="#DejaVuSans-20" x="68.408203"/>
     <use xlink:href="#DejaVuSans-5b" x="100.195312"/>
     <use xlink:href="#DejaVuSans-32" x="139.208984"/>
     <use xlink:href="#DejaVuSans-32" x="202.832031"/>
     <use xlink:href="#DejaVuSans-5d" x="266.455078"/>
    </g>
   </g>
   <g id="text_2">
    <!-- C [15] -->
    <g transform="translate(299.620894 85.822099) scale(0.1 -0.1)">
     <defs>
      <path id="DejaVuSans-43" d="M 4122 4306 
L 4122 3641 
Q 3803 3938 3442 4084 
Q 3081 4231 2675 4231 
Q 1875 4231 1450 3742 
Q 1025 3253 1025 2328 
Q 1025 1406 1450 917 
Q 1875 428 2675 428 
Q 3081 428 3442 575 
Q 3803 722 4122 1019 
L 4122 359 
Q 3791 134 3420 21 
Q 3050 -91 2638 -91 
Q 1578 -91 968 557 
Q 359 1206 359 2328 
Q 359 3453 968 4101 
Q 1578 4750 2638 4750 
Q 3056 4750 3426 4639 
Q 3797 4528 4122 4306 
z
" transform="scale(0.015625)"/>
      <path id="DejaVuSans-31" d="M 794 531 
L 1825 531 
L 1825 4091 
L 703 3866 
L 703 4441 
L 1819 4666 
L 2450 4666 
L 2450 531 
L 3481 531 
L 3481 0 
L 794 0 
L 794 531 
z
" transform="scale(0.015625)"/>
      <path id="DejaVuSans-35" d="M 691 4666 
L 3169 4666 
L 3169 4134 
L 1269 4134 
L 1269 2991 
Q 1406 3038 1543 3061 
Q 1681 3084 1819 3084 
Q 2600 3084 3056 2656 
Q 3513 2228 3513 1497 
Q 3513 744 3044 326 
Q 2575 -91 1722 -91 
Q 1428 -91 1123 -41 
Q 819 9 494 109 
L 494 744 
Q 775 591 1075 516 
Q 1375 441 1709 441 
Q 2250 441 2565 725 
Q 2881 1009 2881 1497 
Q 2881 1984 2565 2268 
Q 2250 2553 1709 2553 
Q 1456 2553 1204 2497 
Q 953 2441 691 2322 
L 691 4666 
z
" transform="scale(0.015625)"/>
     </defs>
     <use xlink:href="#DejaVuSans-43"/>
     <use xlink:href="#DejaVuSans-20" x="69.824219"/>
     <use xlink:href="#DejaVuSans-5b" x="101.611328"/>
     <use xlink:href="#DejaVuSans-31" x="140.625"/>
     <use xlink:href="#DejaVuSans-35" x="204.248047"/>
     <use xlink:href="#DejaVuSans-5d" x="267.871094"/>
    </g>
   </g>
   <g id="text_3">
    <!-- D [8] -->
    <g transform="translate(283.053544 62.635118) scale(0.1 -0.1)">
     <defs>
      <path id="DejaVuSans-44" d="M 1259 4147 
L 1259 519 
L 2022 519 
Q 2988 519 3436 956 
Q 3884 1394 3884 2338 
Q 3884 3275 3436 3711 
Q 2988 4147 2022 4147 
L 1259 4147 
z
M 628 4666 
L 1925 4666 
Q 3281 4666 3915 4102 
Q 4550 3538 4550 2338 
Q 4550 1131 3912 565 
Q 3275 0 1925 0 
L 628 0 
L 628 4666 
z
" transform="scale(0.015625)"/>
      <path id="DejaVuSans-38" d="M 2034 2216 
Q 1584 2216 1326 1975 
Q 1069 1734 1069 1313 
Q 1069 891 1326 650 
Q 1584 409 2034 409 
Q 2484 409 2743 651 
Q 3003 894 3003 1313 
Q 3003 1734 2745 1975 
Q 2488 2216 2034 2216 
z
M 1403 2484 
Q 997 2584 770 2862 
Q 544 3141 544 3541 
Q 544 4100 942 4425 
Q 1341 4750 2034 4750 
Q 2731 4750 3128 4425 
Q 3525 4100 3525 3541 
Q 3525 3141 3298 2862 
Q 3072 2584 2669 2484 
Q 3125 2378 3379 2068 
Q 3634 1759 3634 1313 
Q 3634 634 3220 271 
Q 2806 -91 2034 -91 
Q 1263 -91 848 271 
Q 434 634 434 1313 
Q 434 1759 690 2068 
Q 947 2378 1403 2484 
z
M 1172 3481 
Q 1172 3119 1398 2916 
Q 1625 2713 2034 2713 
Q 2441 2713 2670 2916 
Q 2900 3119 2900 3481 
Q 2900 3844 2670 4047 
Q 2441 4250 2034 4250 
Q 1625 4250 1398 4047 
Q 1172 3844 1172 3481 
z
" transform="scale(0.015625)"/>
     </defs>
     <use xlink:href="#DejaVuSans-44"/>
     <use xlink:href="#DejaVuSans-20" x="77.001953"/>
     <use xlink:href="#DejaVuSans-5b" x="108.789062"/>
     <use xlink:href="#DejaVuSans-38" x="147.802734"/>
     <use xlink:href="#DejaVuSans-5d" x="211.425781"/>
    </g>
   </g>
   <g id="text_4">
    <!-- E [13] -->
    <g transform="translate(264.130967 44.765094) scale(0.1 -0.1)">
     <defs>
      <path id="DejaVuSans-45" d="M 628 4666 
L 3578 4666 
L 3578 4134 
L 1259 4134 
L 1259 2753 
L 3481 2753 
L 3481 2222 
L 1259 2222 
L 1259 531 
L 3634 531 
L 3634 0 
L 628 0 
L 628 4666 
z
" transform="scale(0.015625)"/>
      <path id="DejaVuSans-33" d="M 2597 2516 
Q 3050 2419 3304 2112 
Q 3559 1806 3559 1356 
Q 3559 666 3084 287 
Q 2609 -91 1734 -91 
Q 1441 -91 1130 -33 
Q 819 25 488 141 
L 488 750 
Q 750 597 1062 519 
Q 1375 441 1716 441 
Q 2309 441 2620 675 
Q 2931 909 2931 1356 
Q 2931 1769 2642 2001 
Q 2353 2234 1838 2234 
L 1294 2234 
L 1294 2753 
L 1863 2753 
Q 2328 2753 2575 2939 
Q 2822 3125 2822 3475 
Q 2822 3834 2567 4026 
Q 2313 4219 1838 4219 
Q 1578 4219 1281 4162 
Q 984 4106 628 3988 
L 628 4550 
Q 988 4650 1302 4700 
Q 1616 4750 1894 4750 
Q 2613 4750 3031 4423 
Q 3450 4097 3450 3541 
Q 3450 3153 3228 2886 
Q 3006 2619 2597 2516 
z
" transform="scale(0.015625)"/>
     </defs>
     <use xlink:href="#DejaVuSans-45"/>
     <use xlink:href="#DejaVuSans-20" x="63.183594"/>
     <use xlink:href="#DejaVuSans-5b" x="94.970703"/>
     <use xlink:href="#DejaVuSans-31" x="133.984375"/>
     <use xlink:href="#DejaVuSans-33" x="197.607422"/>
     <use xlink:href="#DejaVuSans-5d" x="261.230469"/>
    </g>
   </g>
   <g id="text_5">
    <!-- F [23] -->
    <g transform="translate(225.211987 23.199413) scale(0.1 -0.1)">
     <defs>
      <path id="DejaVuSans-46" d="M 628 4666 
L 3309 4666 
L 3309 4134 
L 1259 4134 
L 1259 2759 
L 3109 2759 
L 3109 2228 
L 1259 2228 
L 1259 0 
L 628 0 
L 628 4666 
z
" transform="scale(0.015625)"/>
     </defs>
     <use xlink:href="#DejaVuSans-46"/>
     <use xlink:href="#DejaVuSans-20" x="57.519531"/>
     <use xlink:href="#DejaVuSans-5b" x="89.306641"/>
     <use xlink:href="#DejaVuSans-32" x="128.320312"/>
     <use xlink:href="#DejaVuSans-33" x="191.943359"/>
     <use xlink:href="#DejaVuSans-5d" x="255.566406"/>
    </g>
   </g>
   <g id="text_6">
    <!-- G [14] -->
    <g transform="translate(180.270725 14.798437) scale(0.1 -0.1)">
     <defs>
      <path id="DejaVuSans-47" d="M 3809 666 
L 3809 1919 
L 2778 1919 
L 2778 2438 
L 4434 2438 
L 4434 434 
Q 4069 175 3628 42 
Q 3188 -91 2688 -91 
Q 1594 -91 976 548 
Q 359 1188 359 2328 
Q 359 3472 976 4111 
Q 1594 4750 2688 4750 
Q 3144 4750 3555 4637 
Q 3966 4525 4313 4306 
L 4313 3634 
Q 3963 3931 3569 4081 
Q 3175 4231 2741 4231 
Q 1884 4231 1454 3753 
Q 1025 3275 1025 2328 
Q 1025 1384 1454 906 
Q 1884 428 2741 428 
Q 3075 428 3337 486 
Q 3600 544 3809 666 
z
" transform="scale(0.015625)"/>
      <path id="DejaVuSans-34" d="M 2419 4116 
L 825 1625 
L 2419 1625 
L 2419 4116 
z
M 2253 4666 
L 3047 4666 
L 3047 1625 
L 3713 1625 
L 3713 1100 
L 3047 1100 
L 3047 0 
L 2419 0 
L 2419 1100 
L 313 1100 
L 313 1709 
L 2253 4666 
z
" transform="scale(0.015625)"/>
     </defs>
     <use xlink:href="#DejaVuSans-47"/>
     <use xlink:href="#DejaVuSans-20" x="77.490234"/>
     <use xlink:href="#DejaVuSans-5b" x="109.277344"/>
     <use xlink:href="#DejaVuSans-31" x="148.291016"/>
     <use xlink:href="#DejaVuSans-34" x="211.914062"/>
     <use xlink:href="#DejaVuSans-5d" x="275.537109"/>
    </g>
   </g>
   <g id="text_7">
    <!-- H [9] -->
    <g transform="translate(126.998393 17.053085) scale(0.1 -0.1)">
     <defs>
      <path id="DejaVuSans-48" d="M 628 4666 
L 1259 4666 
L 1259 2753 
L 3553 2753 
L 3553 4666 
L 4184 4666 
L 4184 0 
L 3553 0 
L 3553 2222 
L 1259 2222 
L 1259 0 
L 628 0 
L 628 4666 
z
" transform="scale(0.015625)"/>
      <path id="DejaVuSans-39" d="M 703 97 
L 703 672 
Q 941 559 1184 500 
Q 1428 441 1663 441 
Q 2288 441 2617 861 
Q 2947 1281 2994 2138 
Q 2813 1869 2534 1725 
Q 2256 1581 1919 1581 
Q 1219 1581 811 2004 
Q 403 2428 403 3163 
Q 403 3881 828 4315 
Q 1253 4750 1959 4750 
Q 2769 4750 3195 4129 
Q 3622 3509 3622 2328 
Q 3622 1225 3098 567 
Q 2575 -91 1691 -91 
Q 1453 -91 1209 -44 
Q 966 3 703 97 
z
M 1959 2075 
Q 2384 2075 2632 2365 
Q 2881 2656 2881 3163 
Q 2881 3666 2632 3958 
Q 2384 4250 1959 4250 
Q 1534 4250 1286 3958 
Q 1038 3666 1038 3163 
Q 1038 2656 1286 2365 
Q 1534 2075 1959 2075 
z
" transform="scale(0.015625)"/>
     </defs>
     <use xlink:href="#DejaVuSans-48"/>
     <use xlink:href="#DejaVuSans-20" x="75.195312"/>
     <use xlink:href="#DejaVuSans-5b" x="106.982422"/>
     <use xlink:href="#DejaVuSans-39" x="145.996094"/>
     <use xlink:href="#DejaVuSans-5d" x="209.619141"/>
    </g>
   </g>
   <g id="text_8">
    <!-- I [36] -->
    <g transform="translate(73.644287 37.551922) scale(0.1 -0.1)">
     <defs>
      <path id="DejaVuSans-49" d="M 628 4666 
L 1259 4666 
L 1259 0 
L 628 0 
L 628 4666 
z
" transform="scale(0.015625)"/>
      <path id="DejaVuSans-36" d="M 2113 2584 
Q 1688 2584 1439 2293 
Q 1191 2003 1191 1497 
Q 1191 994 1439 701 
Q 1688 409 2113 409 
Q 2538 409 2786 701 
Q 3034 994 3034 1497 
Q 3034 2003 2786 2293 
Q 2538 2584 2113 2584 
z
M 3366 4563 
L 3366 3988 
Q 3128 4100 2886 4159 
Q 2644 4219 2406 4219 
Q 1781 4219 1451 3797 
Q 1122 3375 1075 2522 
Q 1259 2794 1537 2939 
Q 1816 3084 2150 3084 
Q 2853 3084 3261 2657 
Q 3669 2231 3669 1497 
Q 3669 778 3244 343 
Q 2819 -91 2113 -91 
Q 1303 -91 875 529 
Q 447 1150 447 2328 
Q 447 3434 972 4092 
Q 1497 4750 2381 4750 
Q 2619 4750 2861 4703 
Q 3103 4656 3366 4563 
z
" transform="scale(0.015625)"/>
     </defs>
     <use xlink:href="#DejaVuSans-49"/>
     <use xlink:href="#DejaVuSans-20" x="29.492188"/>
     <use xlink:href="#DejaVuSans-5b" x="61.279297"/>
     <use xlink:href="#DejaVuSans-33" x="100.292969"/>
     <use xlink:href="#DejaVuSans-36" x="163.916016"/>
     <use xlink:href="#DejaVuSans-5d" x="227.539062"/>
    </g>
   </g>
   <g id="text_9">
    <!-- K [24] -->
    <g transform="translate(20.928632 92.382122) scale(0.1 -0.1)">
     <defs>
      <path id="DejaVuSans-4b" d="M 628 4666 
L 1259 4666 
L 1259 2694 
L 3353 4666 
L 4166 4666 
L 1850 2491 
L 4331 0 
L 3500 0 
L 1259 2247 
L 1259 0 
L 628 0 
L 628 4666 
z
" transform="scale(0.015625)"/>
     </defs>
     <use xlink:href="#DejaVuSans-4b"/>
     <use xlink:href="#DejaVuSans-20" x="65.576172"/>
     <use xlink:href="#DejaVuSans-5b" x="97.363281"/>
     <use xlink:href="#DejaVuSans-32" x="136.376953"/>
     <use xlink:href="#DejaVuSans-34" x="200"/>
     <use xlink:href="#DejaVuSans-5d" x="263.623047"/>
    </g>
   </g>
   <g id="text_10">
    <!-- L [37] -->
    <g transform="translate(7.2 165.724628) scale(0.1 -0.1)">
     <defs>
      <path id="DejaVuSans-4c" d="M 628 4666 
L 1259 4666 
L 1259 531 
L 3531 531 
L 3531 0 
L 628 0 
L 628 4666 
z
" transform="scale(0.015625)"/>
      <path id="DejaVuSans-37" d="M 525 4666 
L 3525 4666 
L 3525 4397 
L 1831 0 
L 1172 0 
L 2766 4134 
L 525 4134 
L 525 4666 
z
" transform="scale(0.015625)"/>
     </defs>
     <use xlink:href="#DejaVuSans-4c"/>
     <use xlink:href="#DejaVuSans-20" x="55.712891"/>
     <use xlink:href="#DejaVuSans-5b" x="87.5"/>
     <use xlink:href="#DejaVuSans-33" x="126.513672"/>
     <use xlink:href="#DejaVuSans-37" x="190.136719"/>
     <use xlink:href="#DejaVuSans-5d" x="253.759766"/>
    </g>
   </g>
   <g id="text_11">
    <!-- M [13] -->
    <g transform="translate(21.769897 224.70497) scale(0.1 -0.1)">
     <defs>
      <path id="DejaVuSans-4d" d="M 628 4666 
L 1569 4666 
L 2759 1491 
L 3956 4666 
L 4897 4666 
L 4897 0 
L 4281 0 
L 4281 4097 
L 3078 897 
L 2444 897 
L 1241 4097 
L 1241 0 
L 628 0 
L 628 4666 
z
" transform="scale(0.015625)"/>
     </defs>
     <use xlink:href="#DejaVuSans-4d"/>
     <use xlink:href="#DejaVuSans-20" x="86.279297"/>
     <use xlink:href="#DejaVuSans-5b" x="118.066406"/>
     <use xlink:href="#DejaVuSans-31" x="157.080078"/>
     <use xlink:href="#DejaVuSans-33" x="220.703125"/>
     <use xlink:href="#DejaVuSans-5d" x="284.326172"/>
    </g>
   </g>
   <g id="text_12">
    <!-- N [18] -->
    <g transform="translate(46.031582 255.31392) scale(0.1 -0.1)">
     <defs>
      <path id="DejaVuSans-4e" d="M 628 4666 
L 1478 4666 
L 3547 763 
L 3547 4666 
L 4159 4666 
L 4159 0 
L 3309 0 
L 1241 3903 
L 1241 0 
L 628 0 
L 628 4666 
z
" transform="scale(0.015625)"/>
     </defs>
     <use xlink:href="#DejaVuSans-4e"/>
     <use xlink:href="#DejaVuSans-20" x="74.804688"/>
     <use xlink:href="#DejaVuSans-5b" x="106.591797"/>
     <use xlink:href="#DejaVuSans-31" x="145.605469"/>
     <use xlink:href="#DejaVuSans-38" x="209.228516"/>
     <use xlink:href="#DejaVuSans-5d" x="272.851562"/>
    </g>
   </g>
   <g id="text_13">
    <!-- P [13] -->
    <g transform="translate(77.990098 278.563179) scale(0.1 -0.1)">
     <defs>
      <path id="DejaVuSans-50" d="M 1259 4147 
L 1259 2394 
L 2053 2394 
Q 2494 2394 2734 2622 
Q 2975 2850 2975 3272 
Q 2975 3691 2734 3919 
Q 2494 4147 2053 4147 
L 1259 4147 
z
M 628 4666 
L 2053 4666 
Q 2838 4666 3239 4311 
Q 3641 3956 3641 3272 
Q 3641 2581 3239 2228 
Q 2838 1875 2053 1875 
L 1259 1875 
L 1259 0 
L 628 0 
L 628 4666 
z
" transform="scale(0.015625)"/>
     </defs>
     <use xlink:href="#DejaVuSans-50"/>
     <use xlink:href="#DejaVuSans-20" x="60.302734"/>
     <use xlink:href="#DejaVuSans-5b" x="92.089844"/>
     <use xlink:href="#DejaVuSans-31" x="131.103516"/>
     <use xlink:href="#DejaVuSans-33" x="194.726562"/>
     <use xlink:href="#DejaVuSans-5d" x="258.349609"/>
    </g>
   </g>
   <g id="text_14">
    <!-- Q [11] -->
    <g transform="translate(103.425336 290.392829) scale(0.1 -0.1)">
     <defs>
      <path id="DejaVuSans-51" d="M 2522 4238 
Q 1834 4238 1429 3725 
Q 1025 3213 1025 2328 
Q 1025 1447 1429 934 
Q 1834 422 2522 422 
Q 3209 422 3611 934 
Q 4013 1447 4013 2328 
Q 4013 3213 3611 3725 
Q 3209 4238 2522 4238 
z
M 3406 84 
L 4238 -825 
L 3475 -825 
L 2784 -78 
Q 2681 -84 2626 -87 
Q 2572 -91 2522 -91 
Q 1538 -91 948 567 
Q 359 1225 359 2328 
Q 359 3434 948 4092 
Q 1538 4750 2522 4750 
Q 3503 4750 4090 4092 
Q 4678 3434 4678 2328 
Q 4678 1516 4351 937 
Q 4025 359 3406 84 
z
" transform="scale(0.015625)"/>
     </defs>
     <use xlink:href="#DejaVuSans-51"/>
     <use xlink:href="#DejaVuSans-20" x="78.710938"/>
     <use xlink:href="#DejaVuSans-5b" x="110.498047"/>
     <use xlink:href="#DejaVuSans-31" x="149.511719"/>
     <use xlink:href="#DejaVuSans-31" x="213.134766"/>
     <use xlink:href="#DejaVuSans-5d" x="276.757812"/>
    </g>
   </g>
   <g id="text_15">
    <!-- R [15] -->
    <g transform="translate(135.973568 296.448654) scale(0.1 -0.1)">
     <defs>
      <path id="DejaVuSans-52" d="M 2841 2188 
Q 3044 2119 3236 1894 
Q 3428 1669 3622 1275 
L 4263 0 
L 3584 0 
L 2988 1197 
Q 2756 1666 2539 1819 
Q 2322 1972 1947 1972 
L 1259 1972 
L 1259 0 
L 628 0 
L 628 4666 
L 2053 4666 
Q 2853 4666 3247 4331 
Q 3641 3997 3641 3322 
Q 3641 2881 3436 2590 
Q 3231 2300 2841 2188 
z
M 1259 4147 
L 1259 2491 
L 2053 2491 
Q 2509 2491 2742 2702 
Q 2975 2913 2975 3322 
Q 2975 3731 2742 3939 
Q 2509 4147 2053 4147 
L 1259 4147 
z
" transform="scale(0.015625)"/>
     </defs>
     <use xlink:href="#DejaVuSans-52"/>
     <use xlink:href="#DejaVuSans-20" x="69.482422"/>
     <use xlink:href="#DejaVuSans-5b" x="101.269531"/>
     <use xlink:href="#DejaVuSans-31" x="140.283203"/>
     <use xlink:href="#DejaVuSans-35" x="203.90625"/>
     <use xlink:href="#DejaVuSans-5d" x="267.529297"/>
    </g>
   </g>
   <g id="text_16">
    <!-- S [21] -->
    <g transform="translate(210.967416 292.733244) scale(0.1 -0.1)">
     <defs>
      <path id="DejaVuSans-53" d="M 3425 4513 
L 3425 3897 
Q 3066 4069 2747 4153 
Q 2428 4238 2131 4238 
Q 1616 4238 1336 4038 
Q 1056 3838 1056 3469 
Q 1056 3159 1242 3001 
Q 1428 2844 1947 2747 
L 2328 2669 
Q 3034 2534 3370 2195 
Q 3706 1856 3706 1288 
Q 3706 609 3251 259 
Q 2797 -91 1919 -91 
Q 1588 -91 1214 -16 
Q 841 59 441 206 
L 441 856 
Q 825 641 1194 531 
Q 1563 422 1919 422 
Q 2459 422 2753 634 
Q 3047 847 3047 1241 
Q 3047 1584 2836 1778 
Q 2625 1972 2144 2069 
L 1759 2144 
Q 1053 2284 737 2584 
Q 422 2884 422 3419 
Q 422 4038 858 4394 
Q 1294 4750 2059 4750 
Q 2388 4750 2728 4690 
Q 3069 4631 3425 4513 
z
" transform="scale(0.015625)"/>
     </defs>
     <use xlink:href="#DejaVuSans-53"/>
     <use xlink:href="#DejaVuSans-20" x="63.476562"/>
     <use xlink:href="#DejaVuSans-5b" x="95.263672"/>
     <use xlink:href="#DejaVuSans-32" x="134.277344"/>
     <use xlink:href="#DejaVuSans-31" x="197.900391"/>
     <use xlink:href="#DejaVuSans-5d" x="261.523438"/>
    </g>
   </g>
   <g id="text_17">
    <!-- T [24] -->
    <g transform="translate(261.16961 269.099084) scale(0.1 -0.1)">
     <defs>
      <path id="DejaVuSans-54" d="M -19 4666 
L 3928 4666 
L 3928 4134 
L 2272 4134 
L 2272 0 
L 1638 0 
L 1638 4134 
L -19 4134 
L -19 4666 
z
" transform="scale(0.015625)"/>
     </defs>
     <use xlink:href="#DejaVuSans-54"/>
     <use xlink:href="#DejaVuSans-20" x="61.083984"/>
     <use xlink:href="#DejaVuSans-5b" x="92.871094"/>
     <use xlink:href="#DejaVuSans-32" x="131.884766"/>
     <use xlink:href="#DejaVuSans-34" x="195.507812"/>
     <use xlink:href="#DejaVuSans-5d" x="259.130859"/>
    </g>
   </g>
   <g id="text_18">
    <!-- V [23] -->
    <g transform="translate(299.620906 225.785216) scale(0.1 -0.1)">
     <defs>
      <path id="DejaVuSans-56" d="M 1831 0 
L 50 4666 
L 709 4666 
L 2188 738 
L 3669 4666 
L 4325 4666 
L 2547 0 
L 1831 0 
z
" transform="scale(0.015625)"/>
     </defs>
     <use xlink:href="#DejaVuSans-56"/>
     <use xlink:href="#DejaVuSans-20" x="68.408203"/>
     <use xlink:href="#DejaVuSans-5b" x="100.195312"/>
     <use xlink:href="#DejaVuSans-32" x="139.208984"/>
     <use xlink:href="#DejaVuSans-33" x="202.832031"/>
     <use xlink:href="#DejaVuSans-5d" x="266.455078"/>
    </g>
   </g>
   <g id="text_19">
    <!-- W [3] -->
    <g transform="translate(312.302118 196.188128) scale(0.1 -0.1)">
     <defs>
      <path id="DejaVuSans-57" d="M 213 4666 
L 850 4666 
L 1831 722 
L 2809 4666 
L 3519 4666 
L 4500 722 
L 5478 4666 
L 6119 4666 
L 4947 0 
L 4153 0 
L 3169 4050 
L 2175 0 
L 1381 0 
L 213 4666 
z
" transform="scale(0.015625)"/>
     </defs>
     <use xlink:href="#DejaVuSans-57"/>
     <use xlink:href="#DejaVuSans-20" x="98.876953"/>
     <use xlink:href="#DejaVuSans-5b" x="130.664062"/>
     <use xlink:href="#DejaVuSans-33" x="169.677734"/>
     <use xlink:href="#DejaVuSans-5d" x="233.300781"/>
    </g>
   </g>
   <g id="text_20">
    <!-- Y [15] -->
    <g transform="translate(316.98054 174.366778) scale(0.1 -0.1)">
     <defs>
      <path id="DejaVuSans-59" d="M -13 4666 
L 666 4666 
L 1959 2747 
L 3244 4666 
L 3922 4666 
L 2272 2222 
L 2272 0 
L 1638 0 
L 1638 2222 
L -13 4666 
z
" transform="scale(0.015625)"/>
     </defs>
     <use xlink:href="#DejaVuSans-59"/>
     <use xlink:href="#DejaVuSans-20" x="61.083984"/>
     <use xlink:href="#DejaVuSans-5b" x="92.871094"/>
     <use xlink:href="#DejaVuSans-31" x="131.884766"/>
     <use xlink:href="#DejaVuSans-35" x="195.507812"/>
     <use xlink:href="#DejaVuSans-5d" x="259.130859"/>
    </g>
   </g>
   <g id="text_21">
    <!-- A0A384BLR4 [357] -->
    <g transform="translate(120.201873 153.044293) scale(0.12 -0.12)">
     <defs>
      <path id="DejaVuSans-30" d="M 2034 4250 
Q 1547 4250 1301 3770 
Q 1056 3291 1056 2328 
Q 1056 1369 1301 889 
Q 1547 409 2034 409 
Q 2525 409 2770 889 
Q 3016 1369 3016 2328 
Q 3016 3291 2770 3770 
Q 2525 4250 2034 4250 
z
M 2034 4750 
Q 2819 4750 3233 4129 
Q 3647 3509 3647 2328 
Q 3647 1150 3233 529 
Q 2819 -91 2034 -91 
Q 1250 -91 836 529 
Q 422 1150 422 2328 
Q 422 3509 836 4129 
Q 1250 4750 2034 4750 
z
" transform="scale(0.015625)"/>
      <path id="DejaVuSans-42" d="M 1259 2228 
L 1259 519 
L 2272 519 
Q 2781 519 3026 730 
Q 3272 941 3272 1375 
Q 3272 1813 3026 2020 
Q 2781 2228 2272 2228 
L 1259 2228 
z
M 1259 4147 
L 1259 2741 
L 2194 2741 
Q 2656 2741 2882 2914 
Q 3109 3088 3109 3444 
Q 3109 3797 2882 3972 
Q 2656 4147 2194 4147 
L 1259 4147 
z
M 628 4666 
L 2241 4666 
Q 2963 4666 3353 4366 
Q 3744 4066 3744 3513 
Q 3744 3084 3544 2831 
Q 3344 2578 2956 2516 
Q 3422 2416 3680 2098 
Q 3938 1781 3938 1306 
Q 3938 681 3513 340 
Q 3088 0 2303 0 
L 628 0 
L 628 4666 
z
" transform="scale(0.015625)"/>
     </defs>
     <use xlink:href="#DejaVuSans-41"/>
     <use xlink:href="#DejaVuSans-30" x="68.408203"/>
     <use xlink:href="#DejaVuSans-41" x="132.03125"/>
     <use xlink:href="#DejaVuSans-33" x="200.439453"/>
     <use xlink:href="#DejaVuSans-38" x="264.0625"/>
     <use xlink:href="#DejaVuSans-34" x="327.685547"/>
     <use xlink:href="#DejaVuSans-42" x="391.308594"/>
     <use xlink:href="#DejaVuSans-4c" x="459.912109"/>
     <use xlink:href="#DejaVuSans-52" x="515.625"/>
     <use xlink:href="#DejaVuSans-34" x="585.107422"/>
     <use xlink:href="#DejaVuSans-20" x="648.730469"/>
     <use xlink:href="#DejaVuSans-5b" x="680.517578"/>
     <use xlink:href="#DejaVuSans-33" x="719.53125"/>
     <use xlink:href="#DejaVuSans-35" x="783.154297"/>
     <use xlink:href="#DejaVuSans-37" x="846.777344"/>
     <use xlink:href="#DejaVuSans-5d" x="910.400391"/>
    </g>
   </g>
  </g>
 </g>
</svg>
