<?xml version="1.0" encoding="utf-8" standalone="no"?>
<!DOCTYPE svg PUBLIC "-//W3C//DTD SVG 1.1//EN"
  "http://www.w3.org/Graphics/SVG/1.1/DTD/svg11.dtd">
<svg xmlns:xlink="http://www.w3.org/1999/xlink" width="355.173866pt" height="304.163057pt" viewBox="0 0 355.173866 304.163057" xmlns="http://www.w3.org/2000/svg" version="1.1">
 <metadata>
  <rdf:RDF xmlns:dc="http://purl.org/dc/elements/1.1/" xmlns:cc="http://creativecommons.org/ns#" xmlns:rdf="http://www.w3.org/1999/02/22-rdf-syntax-ns#">
   <cc:Work>
    <dc:type rdf:resource="http://purl.org/dc/dcmitype/StillImage"/>
    <dc:date>2024-09-27T16:07:21.748890</dc:date>
    <dc:format>image/svg+xml</dc:format>
    <dc:creator>
     <cc:Agent>
      <dc:title>Matplotlib v3.8.3, https://matplotlib.org/</dc:title>
     </cc:Agent>
    </dc:creator>
   </cc:Work>
  </rdf:RDF>
 </metadata>
 <defs>
  <style type="text/css">*{stroke-linejoin: round; stroke-linecap: butt}</style>
 </defs>
 <g id="figure_1">
  <g id="patch_1">
   <path d="M -0 304.163057 
L 355.173866 304.163057 
L 355.173866 0 
L -0 0 
z
" style="fill: #ffffff"/>
  </g>
  <g id="axes_1">
   <g id="patch_2">
    <path d="M 305.644395 152.707289 
C 305.644395 140.705573 303.952894 128.763531 300.619857 117.233915 
C 297.28682 105.704299 292.345391 94.701762 285.941534 84.551304 
L 177.910635 152.707289 
z
" style="fill: #1f77b4"/>
   </g>
   <g id="patch_3">
    <path d="M 285.833445 84.351701 
C 282.460872 79.005992 278.696163 73.917977 274.570353 69.129601 
C 270.444543 64.341226 265.969001 59.865684 261.180625 55.739874 
L 177.802545 152.507686 
z
" style="fill: #ff7f0e"/>
   </g>
   <g id="patch_4">
    <path d="M 261.086281 55.653842 
C 258.115022 53.093716 255.027427 50.671796 251.83331 48.395783 
C 248.639193 46.119769 245.341942 43.992076 241.95204 42.019467 
L 177.708201 152.421653 
z
" style="fill: #aec7e8"/>
   </g>
   <g id="patch_5">
    <path d="M 241.827205 41.95351 
C 235.421154 38.225782 228.702791 35.062681 221.748205 32.500031 
C 214.793619 29.93738 207.629165 27.984892 200.335985 26.664678 
L 177.583366 152.355696 
z
" style="fill: #ffbb78"/>
   </g>
   <g id="patch_6">
    <path d="M 200.181904 26.632696 
C 195.035402 25.701075 189.836537 25.086423 184.614676 24.792213 
C 179.392815 24.498002 174.157809 24.524788 168.939232 24.872419 
L 177.429285 152.323713 
z
" style="fill: #98df8a"/>
   </g>
   <g id="patch_7">
    <path d="M 168.740688 24.898988 
C 157.857268 25.623977 147.111398 27.740038 136.765651 31.195465 
C 126.419904 34.650891 116.559239 39.417308 107.4246 45.378249 
L 177.230742 152.350283 
z
" style="fill: #2ca02c"/>
   </g>
   <g id="patch_8">
    <path d="M 107.282136 45.451205 
C 105.640064 46.522763 104.022883 47.631988 102.431879 48.778 
C 100.840875 49.924012 99.27647 51.106505 97.739907 52.324541 
L 177.088278 152.423239 
z
" style="fill: #d62728"/>
   </g>
   <g id="patch_9">
    <path d="M 97.66233 52.392779 
C 92.709131 56.319186 88.054193 60.607833 83.735892 65.223364 
C 79.417592 69.838896 75.447827 74.768592 71.859326 79.971813 
L 177.010701 152.491477 
z
" style="fill: #9467bd"/>
   </g>
   <g id="patch_10">
    <path d="M 71.781265 80.079602 
C 69.307031 83.667169 67.018019 87.37901 64.923211 91.20056 
C 62.828403 95.02211 60.930543 98.948363 59.237079 102.963913 
L 176.93264 152.599266 
z
" style="fill: #ff9896"/>
   </g>
   <g id="patch_11">
    <path d="M 59.172007 103.197962 
C 53.230382 117.286767 49.866507 132.32865 49.240802 147.606275 
C 48.615096 162.8839 50.737668 178.150485 55.507293 192.677976 
L 176.867568 152.833315 
z
" style="fill: #c5b0d5"/>
   </g>
   <g id="patch_12">
    <path d="M 55.544543 192.89649 
C 56.360084 195.380493 57.251696 197.838872 58.218121 200.268153 
C 59.184545 202.697433 60.225325 205.09647 61.33899 207.461872 
L 176.904818 153.051829 
z
" style="fill: #c49c94"/>
   </g>
   <g id="patch_13">
    <path d="M 61.376272 207.537513 
C 63.139784 211.283177 65.084358 214.94089 67.203106 218.497697 
C 69.321854 222.054504 71.612272 225.506201 74.066248 228.840563 
L 176.9421 153.12747 
z
" style="fill: #8c564b"/>
   </g>
   <g id="patch_14">
    <path d="M 74.159877 228.956832 
C 78.811884 235.277789 84.036571 241.156569 89.767615 246.518547 
C 95.49866 251.880525 101.711708 256.702914 108.327891 260.924501 
L 177.035729 153.243739 
z
" style="fill: #e377c2"/>
   </g>
   <g id="patch_15">
    <path d="M 108.450126 261.010194 
C 111.940223 263.23712 115.536524 265.29305 119.226292 267.170703 
C 122.916059 269.048356 126.694933 270.745513 130.549529 272.256163 
L 177.157964 153.329433 
z
" style="fill: #7f7f7f"/>
   </g>
   <g id="patch_16">
    <path d="M 130.706846 272.307368 
C 139.234041 275.649251 148.095985 278.064347 157.139687 279.510962 
C 166.183389 280.957577 175.356506 281.427339 184.500674 280.912138 
L 177.315281 153.380637 
z
" style="fill: #f7b6d2"/>
   </g>
   <g id="patch_17">
    <path d="M 184.748169 280.893105 
C 195.638438 280.279525 206.4054 278.273538 216.785964 274.924161 
C 227.166528 271.574784 237.075452 266.909521 246.270612 261.042368 
L 177.562776 153.361605 
z
" style="fill: #c7c7c7"/>
   </g>
   <g id="patch_18">
    <path d="M 246.476722 260.918875 
C 253.645131 256.344931 260.338921 251.066583 266.458409 245.162439 
C 272.577898 239.258295 278.092555 232.757807 282.920257 225.757782 
L 177.768886 153.238112 
z
" style="fill: #dbdb8d"/>
   </g>
   <g id="patch_19">
    <path d="M 283.029897 225.606388 
C 286.742259 220.223573 290.035819 214.563636 292.881521 208.676505 
C 295.727224 202.789374 298.116677 196.692413 300.028803 190.439405 
L 177.878525 153.086718 
z
" style="fill: #bcbd22"/>
   </g>
   <g id="patch_20">
    <path d="M 300.066532 190.33454 
C 300.767347 188.042743 301.403525 185.731677 301.97431 183.404087 
C 302.545096 181.076496 303.050262 178.733303 303.48921 176.37729 
L 177.916255 152.981854 
z
" style="fill: #17becf"/>
   </g>
   <g id="patch_21">
    <path d="M 303.50227 176.299478 
C 304.220627 172.443757 304.761019 168.556996 305.121726 164.651549 
C 305.482434 160.746103 305.663074 156.826115 305.663075 152.904046 
L 177.929315 152.904042 
z
" style="fill: #9edae5"/>
   </g>
   <g id="patch_22">
    <path d="M 251.910706 152.855094 
C 251.910706 145.854094 250.923997 138.887902 248.979726 132.162293 
C 247.035454 125.436684 244.152954 119.018537 240.417371 113.097437 
L 177.399346 152.855094 
z
" style="fill: #ffffff"/>
   </g>
   <g id="patch_23">
    <path d="M 240.417371 113.097437 
C 238.450037 109.979107 236.253956 107.011098 233.847234 104.217878 
C 231.440511 101.424659 228.829779 98.813927 226.036559 96.407204 
L 177.399346 152.855094 
z
" style="fill: #ffffff"/>
   </g>
   <g id="patch_24">
    <path d="M 226.036559 96.407204 
C 224.303325 94.913798 222.502228 93.501011 220.638993 92.173337 
C 218.775758 90.845662 216.852362 89.604508 214.874919 88.453819 
L 177.399346 152.855094 
z
" style="fill: #ffffff"/>
   </g>
   <g id="patch_25">
    <path d="M 214.874919 88.453819 
C 211.138056 86.279311 207.219011 84.434169 203.162169 82.93929 
C 199.105327 81.44441 194.926062 80.305459 190.671707 79.535334 
L 177.399346 152.855094 
z
" style="fill: #ffffff"/>
   </g>
   <g id="patch_26">
    <path d="M 190.671707 79.535334 
C 187.669581 78.991889 184.63691 78.633342 181.590824 78.461719 
C 178.544738 78.290096 175.490985 78.305721 172.446815 78.508506 
L 177.399346 152.855094 
z
" style="fill: #ffffff"/>
   </g>
   <g id="patch_27">
    <path d="M 172.446815 78.508506 
C 166.098153 78.931416 159.829729 80.165785 153.79471 82.181451 
C 147.759691 84.197116 142.007637 86.977526 136.679097 90.454741 
L 177.399346 152.855094 
z
" style="fill: #ffffff"/>
   </g>
   <g id="patch_28">
    <path d="M 136.679097 90.454741 
C 135.721222 91.079816 134.777866 91.726865 133.84978 92.395371 
C 132.921695 93.063878 132.009125 93.753666 131.112796 94.464187 
L 177.399346 152.855094 
z
" style="fill: #ffffff"/>
   </g>
   <g id="patch_29">
    <path d="M 131.112796 94.464187 
C 128.22343 96.754591 125.50805 99.256302 122.989041 101.948695 
C 120.470032 104.641088 118.154336 107.516745 116.061044 110.551957 
L 177.399346 152.855094 
z
" style="fill: #ffffff"/>
   </g>
   <g id="patch_30">
    <path d="M 116.061044 110.551957 
C 114.617741 112.644704 113.282484 114.809945 112.060512 117.039182 
C 110.838541 119.26842 109.731456 121.558734 108.743602 123.901138 
L 177.399346 152.855094 
z
" style="fill: #ffffff"/>
   </g>
   <g id="patch_31">
    <path d="M 108.743602 123.901138 
C 105.277655 132.119608 103.315394 140.89404 102.950399 149.805988 
C 102.585404 158.717936 103.823571 167.623443 106.605852 176.097813 
L 177.399346 152.855094 
z
" style="fill: #ffffff"/>
   </g>
   <g id="patch_32">
    <path d="M 106.605852 176.097813 
C 107.081584 177.546815 107.601692 178.98087 108.165439 180.39795 
C 108.729187 181.81503 109.336308 183.214468 109.985946 184.594286 
L 177.399346 152.855094 
z
" style="fill: #ffffff"/>
   </g>
   <g id="patch_33">
    <path d="M 109.985946 184.594286 
C 111.014662 186.779256 112.148996 188.912922 113.384933 190.987726 
C 114.620869 193.06253 115.956946 195.07602 117.388432 197.021065 
L 177.399346 152.855094 
z
" style="fill: #ffffff"/>
   </g>
   <g id="patch_34">
    <path d="M 117.388432 197.021065 
C 120.102103 200.70829 123.149837 204.137579 126.492946 207.265399 
C 129.836056 210.393219 133.460334 213.20628 137.319774 215.668872 
L 177.399346 152.855094 
z
" style="fill: #ffffff"/>
   </g>
   <g id="patch_35">
    <path d="M 137.319774 215.668872 
C 139.355664 216.967911 141.453506 218.167204 143.60587 219.262502 
C 145.758235 220.357799 147.962578 221.347808 150.211092 222.22902 
L 177.399346 152.855094 
z
" style="fill: #ffffff"/>
   </g>
   <g id="patch_36">
    <path d="M 150.211092 222.22902 
C 155.185289 224.178452 160.354757 225.587258 165.63025 226.431117 
C 170.905743 227.274976 176.256727 227.549004 181.590825 227.248469 
L 177.399346 152.855094 
z
" style="fill: #ffffff"/>
   </g>
   <g id="patch_37">
    <path d="M 181.590825 227.248469 
C 187.943482 226.890547 194.22421 225.720388 200.279539 223.766585 
C 206.334868 221.812782 212.115074 219.091379 217.478917 215.668873 
L 177.399346 152.855094 
z
" style="fill: #ffffff"/>
   </g>
   <g id="patch_38">
    <path d="M 217.478917 215.668873 
C 221.660489 213.000738 225.5652 209.921702 229.134902 206.477618 
C 232.704603 203.033534 235.921487 199.241583 238.737646 195.158235 
L 177.399346 152.855094 
z
" style="fill: #ffffff"/>
   </g>
   <g id="patch_39">
    <path d="M 238.737646 195.158235 
C 240.903191 192.01826 242.824434 188.716629 244.484427 185.28247 
C 246.14442 181.84831 247.538268 178.291749 248.653675 174.644161 
L 177.399346 152.855094 
z
" style="fill: #ffffff"/>
   </g>
   <g id="patch_40">
    <path d="M 248.653675 174.644161 
C 249.062484 173.30728 249.433587 171.959158 249.766545 170.601397 
C 250.099503 169.243636 250.394184 167.876773 250.650237 166.502432 
L 177.399346 152.855094 
z
" style="fill: #ffffff"/>
   </g>
   <g id="patch_41">
    <path d="M 250.650237 166.502432 
C 251.069278 164.253261 251.384507 161.985984 251.59492 159.707807 
C 251.805332 157.42963 251.910706 155.14297 251.910706 152.855096 
L 177.399346 152.855094 
z
" style="fill: #ffffff"/>
   </g>
   <g id="matplotlib.axis_1"/>
   <g id="matplotlib.axis_2"/>
   <g id="text_1">
    <!-- A [55] -->
    <g transform="translate(312.890779 116.445953) scale(0.1 -0.1)">
     <defs>
      <path id="DejaVuSans-41" d="M 2188 4044 
L 1331 1722 
L 3047 1722 
L 2188 4044 
z
M 1831 4666 
L 2547 4666 
L 4325 0 
L 3669 0 
L 3244 1197 
L 1141 1197 
L 716 0 
L 50 0 
L 1831 4666 
z
" transform="scale(0.015625)"/>
      <path id="DejaVuSans-20" transform="scale(0.015625)"/>
      <path id="DejaVuSans-5b" d="M 550 4863 
L 1875 4863 
L 1875 4416 
L 1125 4416 
L 1125 -397 
L 1875 -397 
L 1875 -844 
L 550 -844 
L 550 4863 
z
" transform="scale(0.015625)"/>
      <path id="DejaVuSans-35" d="M 691 4666 
L 3169 4666 
L 3169 4134 
L 1269 4134 
L 1269 2991 
Q 1406 3038 1543 3061 
Q 1681 3084 1819 3084 
Q 2600 3084 3056 2656 
Q 3513 2228 3513 1497 
Q 3513 744 3044 326 
Q 2575 -91 1722 -91 
Q 1428 -91 1123 -41 
Q 819 9 494 109 
L 494 744 
Q 775 591 1075 516 
Q 1375 441 1709 441 
Q 2250 441 2565 725 
Q 2881 1009 2881 1497 
Q 2881 1984 2565 2268 
Q 2250 2553 1709 2553 
Q 1456 2553 1204 2497 
Q 953 2441 691 2322 
L 691 4666 
z
" transform="scale(0.015625)"/>
      <path id="DejaVuSans-5d" d="M 1947 4863 
L 1947 -844 
L 622 -844 
L 622 -397 
L 1369 -397 
L 1369 4416 
L 622 4416 
L 622 4863 
L 1947 4863 
z
" transform="scale(0.015625)"/>
     </defs>
     <use xlink:href="#DejaVuSans-41"/>
     <use xlink:href="#DejaVuSans-20" x="68.408203"/>
     <use xlink:href="#DejaVuSans-5b" x="100.195312"/>
     <use xlink:href="#DejaVuSans-35" x="139.208984"/>
     <use xlink:href="#DejaVuSans-35" x="202.832031"/>
     <use xlink:href="#DejaVuSans-5d" x="266.455078"/>
    </g>
   </g>
   <g id="text_2">
    <!-- C [29] -->
    <g transform="translate(284.247133 63.551168) scale(0.1 -0.1)">
     <defs>
      <path id="DejaVuSans-43" d="M 4122 4306 
L 4122 3641 
Q 3803 3938 3442 4084 
Q 3081 4231 2675 4231 
Q 1875 4231 1450 3742 
Q 1025 3253 1025 2328 
Q 1025 1406 1450 917 
Q 1875 428 2675 428 
Q 3081 428 3442 575 
Q 3803 722 4122 1019 
L 4122 359 
Q 3791 134 3420 21 
Q 3050 -91 2638 -91 
Q 1578 -91 968 557 
Q 359 1206 359 2328 
Q 359 3453 968 4101 
Q 1578 4750 2638 4750 
Q 3056 4750 3426 4639 
Q 3797 4528 4122 4306 
z
" transform="scale(0.015625)"/>
      <path id="DejaVuSans-32" d="M 1228 531 
L 3431 531 
L 3431 0 
L 469 0 
L 469 531 
Q 828 903 1448 1529 
Q 2069 2156 2228 2338 
Q 2531 2678 2651 2914 
Q 2772 3150 2772 3378 
Q 2772 3750 2511 3984 
Q 2250 4219 1831 4219 
Q 1534 4219 1204 4116 
Q 875 4013 500 3803 
L 500 4441 
Q 881 4594 1212 4672 
Q 1544 4750 1819 4750 
Q 2544 4750 2975 4387 
Q 3406 4025 3406 3419 
Q 3406 3131 3298 2873 
Q 3191 2616 2906 2266 
Q 2828 2175 2409 1742 
Q 1991 1309 1228 531 
z
" transform="scale(0.015625)"/>
      <path id="DejaVuSans-39" d="M 703 97 
L 703 672 
Q 941 559 1184 500 
Q 1428 441 1663 441 
Q 2288 441 2617 861 
Q 2947 1281 2994 2138 
Q 2813 1869 2534 1725 
Q 2256 1581 1919 1581 
Q 1219 1581 811 2004 
Q 403 2428 403 3163 
Q 403 3881 828 4315 
Q 1253 4750 1959 4750 
Q 2769 4750 3195 4129 
Q 3622 3509 3622 2328 
Q 3622 1225 3098 567 
Q 2575 -91 1691 -91 
Q 1453 -91 1209 -44 
Q 966 3 703 97 
z
M 1959 2075 
Q 2384 2075 2632 2365 
Q 2881 2656 2881 3163 
Q 2881 3666 2632 3958 
Q 2384 4250 1959 4250 
Q 1534 4250 1286 3958 
Q 1038 3666 1038 3163 
Q 1038 2656 1286 2365 
Q 1534 2075 1959 2075 
z
" transform="scale(0.015625)"/>
     </defs>
     <use xlink:href="#DejaVuSans-43"/>
     <use xlink:href="#DejaVuSans-20" x="69.824219"/>
     <use xlink:href="#DejaVuSans-5b" x="101.611328"/>
     <use xlink:href="#DejaVuSans-32" x="140.625"/>
     <use xlink:href="#DejaVuSans-39" x="204.248047"/>
     <use xlink:href="#DejaVuSans-5d" x="267.871094"/>
    </g>
   </g>
   <g id="text_3">
    <!-- D [18] -->
    <g transform="translate(259.245821 40.752571) scale(0.1 -0.1)">
     <defs>
      <path id="DejaVuSans-44" d="M 1259 4147 
L 1259 519 
L 2022 519 
Q 2988 519 3436 956 
Q 3884 1394 3884 2338 
Q 3884 3275 3436 3711 
Q 2988 4147 2022 4147 
L 1259 4147 
z
M 628 4666 
L 1925 4666 
Q 3281 4666 3915 4102 
Q 4550 3538 4550 2338 
Q 4550 1131 3912 565 
Q 3275 0 1925 0 
L 628 0 
L 628 4666 
z
" transform="scale(0.015625)"/>
      <path id="DejaVuSans-31" d="M 794 531 
L 1825 531 
L 1825 4091 
L 703 3866 
L 703 4441 
L 1819 4666 
L 2450 4666 
L 2450 531 
L 3481 531 
L 3481 0 
L 794 0 
L 794 531 
z
" transform="scale(0.015625)"/>
      <path id="DejaVuSans-38" d="M 2034 2216 
Q 1584 2216 1326 1975 
Q 1069 1734 1069 1313 
Q 1069 891 1326 650 
Q 1584 409 2034 409 
Q 2484 409 2743 651 
Q 3003 894 3003 1313 
Q 3003 1734 2745 1975 
Q 2488 2216 2034 2216 
z
M 1403 2484 
Q 997 2584 770 2862 
Q 544 3141 544 3541 
Q 544 4100 942 4425 
Q 1341 4750 2034 4750 
Q 2731 4750 3128 4425 
Q 3525 4100 3525 3541 
Q 3525 3141 3298 2862 
Q 3072 2584 2669 2484 
Q 3125 2378 3379 2068 
Q 3634 1759 3634 1313 
Q 3634 634 3220 271 
Q 2806 -91 2034 -91 
Q 1263 -91 848 271 
Q 434 634 434 1313 
Q 434 1759 690 2068 
Q 947 2378 1403 2484 
z
M 1172 3481 
Q 1172 3119 1398 2916 
Q 1625 2713 2034 2713 
Q 2441 2713 2670 2916 
Q 2900 3119 2900 3481 
Q 2900 3844 2670 4047 
Q 2441 4250 2034 4250 
Q 1625 4250 1398 4047 
Q 1172 3844 1172 3481 
z
" transform="scale(0.015625)"/>
     </defs>
     <use xlink:href="#DejaVuSans-44"/>
     <use xlink:href="#DejaVuSans-20" x="77.001953"/>
     <use xlink:href="#DejaVuSans-5b" x="108.789062"/>
     <use xlink:href="#DejaVuSans-31" x="147.802734"/>
     <use xlink:href="#DejaVuSans-38" x="211.425781"/>
     <use xlink:href="#DejaVuSans-5d" x="275.048828"/>
    </g>
   </g>
   <g id="text_4">
    <!-- E [34] -->
    <g transform="translate(226.164689 23.273839) scale(0.1 -0.1)">
     <defs>
      <path id="DejaVuSans-45" d="M 628 4666 
L 3578 4666 
L 3578 4134 
L 1259 4134 
L 1259 2753 
L 3481 2753 
L 3481 2222 
L 1259 2222 
L 1259 531 
L 3634 531 
L 3634 0 
L 628 0 
L 628 4666 
z
" transform="scale(0.015625)"/>
      <path id="DejaVuSans-33" d="M 2597 2516 
Q 3050 2419 3304 2112 
Q 3559 1806 3559 1356 
Q 3559 666 3084 287 
Q 2609 -91 1734 -91 
Q 1441 -91 1130 -33 
Q 819 25 488 141 
L 488 750 
Q 750 597 1062 519 
Q 1375 441 1716 441 
Q 2309 441 2620 675 
Q 2931 909 2931 1356 
Q 2931 1769 2642 2001 
Q 2353 2234 1838 2234 
L 1294 2234 
L 1294 2753 
L 1863 2753 
Q 2328 2753 2575 2939 
Q 2822 3125 2822 3475 
Q 2822 3834 2567 4026 
Q 2313 4219 1838 4219 
Q 1578 4219 1281 4162 
Q 984 4106 628 3988 
L 628 4550 
Q 988 4650 1302 4700 
Q 1616 4750 1894 4750 
Q 2613 4750 3031 4423 
Q 3450 4097 3450 3541 
Q 3450 3153 3228 2886 
Q 3006 2619 2597 2516 
z
" transform="scale(0.015625)"/>
      <path id="DejaVuSans-34" d="M 2419 4116 
L 825 1625 
L 2419 1625 
L 2419 4116 
z
M 2253 4666 
L 3047 4666 
L 3047 1625 
L 3713 1625 
L 3713 1100 
L 3047 1100 
L 3047 0 
L 2419 0 
L 2419 1100 
L 313 1100 
L 313 1709 
L 2253 4666 
z
" transform="scale(0.015625)"/>
     </defs>
     <use xlink:href="#DejaVuSans-45"/>
     <use xlink:href="#DejaVuSans-20" x="63.183594"/>
     <use xlink:href="#DejaVuSans-5b" x="94.970703"/>
     <use xlink:href="#DejaVuSans-33" x="133.984375"/>
     <use xlink:href="#DejaVuSans-34" x="197.607422"/>
     <use xlink:href="#DejaVuSans-5d" x="261.230469"/>
    </g>
   </g>
   <g id="text_5">
    <!-- F [24] -->
    <g transform="translate(185.333215 14.798437) scale(0.1 -0.1)">
     <defs>
      <path id="DejaVuSans-46" d="M 628 4666 
L 3309 4666 
L 3309 4134 
L 1259 4134 
L 1259 2759 
L 3109 2759 
L 3109 2228 
L 1259 2228 
L 1259 0 
L 628 0 
L 628 4666 
z
" transform="scale(0.015625)"/>
     </defs>
     <use xlink:href="#DejaVuSans-46"/>
     <use xlink:href="#DejaVuSans-20" x="57.519531"/>
     <use xlink:href="#DejaVuSans-5b" x="89.306641"/>
     <use xlink:href="#DejaVuSans-32" x="128.320312"/>
     <use xlink:href="#DejaVuSans-34" x="191.943359"/>
     <use xlink:href="#DejaVuSans-5d" x="255.566406"/>
    </g>
   </g>
   <g id="text_6">
    <!-- G [50] -->
    <g transform="translate(101.264454 21.839358) scale(0.1 -0.1)">
     <defs>
      <path id="DejaVuSans-47" d="M 3809 666 
L 3809 1919 
L 2778 1919 
L 2778 2438 
L 4434 2438 
L 4434 434 
Q 4069 175 3628 42 
Q 3188 -91 2688 -91 
Q 1594 -91 976 548 
Q 359 1188 359 2328 
Q 359 3472 976 4111 
Q 1594 4750 2688 4750 
Q 3144 4750 3555 4637 
Q 3966 4525 4313 4306 
L 4313 3634 
Q 3963 3931 3569 4081 
Q 3175 4231 2741 4231 
Q 1884 4231 1454 3753 
Q 1025 3275 1025 2328 
Q 1025 1384 1454 906 
Q 1884 428 2741 428 
Q 3075 428 3337 486 
Q 3600 544 3809 666 
z
" transform="scale(0.015625)"/>
      <path id="DejaVuSans-30" d="M 2034 4250 
Q 1547 4250 1301 3770 
Q 1056 3291 1056 2328 
Q 1056 1369 1301 889 
Q 1547 409 2034 409 
Q 2525 409 2770 889 
Q 3016 1369 3016 2328 
Q 3016 3291 2770 3770 
Q 2525 4250 2034 4250 
z
M 2034 4750 
Q 2819 4750 3233 4129 
Q 3647 3509 3647 2328 
Q 3647 1150 3233 529 
Q 2819 -91 2034 -91 
Q 1250 -91 836 529 
Q 422 1150 422 2328 
Q 422 3509 836 4129 
Q 1250 4750 2034 4750 
z
" transform="scale(0.015625)"/>
     </defs>
     <use xlink:href="#DejaVuSans-47"/>
     <use xlink:href="#DejaVuSans-20" x="77.490234"/>
     <use xlink:href="#DejaVuSans-5b" x="109.277344"/>
     <use xlink:href="#DejaVuSans-35" x="148.291016"/>
     <use xlink:href="#DejaVuSans-30" x="211.914062"/>
     <use xlink:href="#DejaVuSans-5d" x="275.537109"/>
    </g>
   </g>
   <g id="text_7">
    <!-- H [9] -->
    <g transform="translate(70.102177 41.172851) scale(0.1 -0.1)">
     <defs>
      <path id="DejaVuSans-48" d="M 628 4666 
L 1259 4666 
L 1259 2753 
L 3553 2753 
L 3553 4666 
L 4184 4666 
L 4184 0 
L 3553 0 
L 3553 2222 
L 1259 2222 
L 1259 0 
L 628 0 
L 628 4666 
z
" transform="scale(0.015625)"/>
     </defs>
     <use xlink:href="#DejaVuSans-48"/>
     <use xlink:href="#DejaVuSans-20" x="75.195312"/>
     <use xlink:href="#DejaVuSans-5b" x="106.982422"/>
     <use xlink:href="#DejaVuSans-39" x="145.996094"/>
     <use xlink:href="#DejaVuSans-5d" x="209.619141"/>
    </g>
   </g>
   <g id="text_8">
    <!-- I [29] -->
    <g transform="translate(47.752162 59.255928) scale(0.1 -0.1)">
     <defs>
      <path id="DejaVuSans-49" d="M 628 4666 
L 1259 4666 
L 1259 0 
L 628 0 
L 628 4666 
z
" transform="scale(0.015625)"/>
     </defs>
     <use xlink:href="#DejaVuSans-49"/>
     <use xlink:href="#DejaVuSans-20" x="29.492188"/>
     <use xlink:href="#DejaVuSans-5b" x="61.279297"/>
     <use xlink:href="#DejaVuSans-32" x="100.292969"/>
     <use xlink:href="#DejaVuSans-39" x="163.916016"/>
     <use xlink:href="#DejaVuSans-5d" x="227.539062"/>
    </g>
   </g>
   <g id="text_9">
    <!-- K [20] -->
    <g transform="translate(23.458205 87.820064) scale(0.1 -0.1)">
     <defs>
      <path id="DejaVuSans-4b" d="M 628 4666 
L 1259 4666 
L 1259 2694 
L 3353 4666 
L 4166 4666 
L 1850 2491 
L 4331 0 
L 3500 0 
L 1259 2247 
L 1259 0 
L 628 0 
L 628 4666 
z
" transform="scale(0.015625)"/>
     </defs>
     <use xlink:href="#DejaVuSans-4b"/>
     <use xlink:href="#DejaVuSans-20" x="65.576172"/>
     <use xlink:href="#DejaVuSans-5b" x="97.363281"/>
     <use xlink:href="#DejaVuSans-32" x="136.376953"/>
     <use xlink:href="#DejaVuSans-30" x="200"/>
     <use xlink:href="#DejaVuSans-5d" x="263.623047"/>
    </g>
   </g>
   <g id="text_10">
    <!-- L [70] -->
    <g transform="translate(7.2 149.842946) scale(0.1 -0.1)">
     <defs>
      <path id="DejaVuSans-4c" d="M 628 4666 
L 1259 4666 
L 1259 531 
L 3531 531 
L 3531 0 
L 628 0 
L 628 4666 
z
" transform="scale(0.015625)"/>
      <path id="DejaVuSans-37" d="M 525 4666 
L 3525 4666 
L 3525 4397 
L 1831 0 
L 1172 0 
L 2766 4134 
L 525 4134 
L 525 4666 
z
" transform="scale(0.015625)"/>
     </defs>
     <use xlink:href="#DejaVuSans-4c"/>
     <use xlink:href="#DejaVuSans-20" x="55.712891"/>
     <use xlink:href="#DejaVuSans-5b" x="87.5"/>
     <use xlink:href="#DejaVuSans-37" x="126.513672"/>
     <use xlink:href="#DejaVuSans-30" x="190.136719"/>
     <use xlink:href="#DejaVuSans-5d" x="253.759766"/>
    </g>
   </g>
   <g id="text_11">
    <!-- M [12] -->
    <g transform="translate(14.015076 207.74916) scale(0.1 -0.1)">
     <defs>
      <path id="DejaVuSans-4d" d="M 628 4666 
L 1569 4666 
L 2759 1491 
L 3956 4666 
L 4897 4666 
L 4897 0 
L 4281 0 
L 4281 4097 
L 3078 897 
L 2444 897 
L 1241 4097 
L 1241 0 
L 628 0 
L 628 4666 
z
" transform="scale(0.015625)"/>
     </defs>
     <use xlink:href="#DejaVuSans-4d"/>
     <use xlink:href="#DejaVuSans-20" x="86.279297"/>
     <use xlink:href="#DejaVuSans-5b" x="118.066406"/>
     <use xlink:href="#DejaVuSans-31" x="157.080078"/>
     <use xlink:href="#DejaVuSans-32" x="220.703125"/>
     <use xlink:href="#DejaVuSans-5d" x="284.326172"/>
    </g>
   </g>
   <g id="text_12">
    <!-- N [19] -->
    <g transform="translate(25.041706 227.794094) scale(0.1 -0.1)">
     <defs>
      <path id="DejaVuSans-4e" d="M 628 4666 
L 1478 4666 
L 3547 763 
L 3547 4666 
L 4159 4666 
L 4159 0 
L 3309 0 
L 1241 3903 
L 1241 0 
L 628 0 
L 628 4666 
z
" transform="scale(0.015625)"/>
     </defs>
     <use xlink:href="#DejaVuSans-4e"/>
     <use xlink:href="#DejaVuSans-20" x="74.804688"/>
     <use xlink:href="#DejaVuSans-5b" x="106.591797"/>
     <use xlink:href="#DejaVuSans-31" x="145.605469"/>
     <use xlink:href="#DejaVuSans-39" x="209.228516"/>
     <use xlink:href="#DejaVuSans-5d" x="272.851562"/>
    </g>
   </g>
   <g id="text_13">
    <!-- P [36] -->
    <g transform="translate(51.304866 258.605403) scale(0.1 -0.1)">
     <defs>
      <path id="DejaVuSans-50" d="M 1259 4147 
L 1259 2394 
L 2053 2394 
Q 2494 2394 2734 2622 
Q 2975 2850 2975 3272 
Q 2975 3691 2734 3919 
Q 2494 4147 2053 4147 
L 1259 4147 
z
M 628 4666 
L 2053 4666 
Q 2838 4666 3239 4311 
Q 3641 3956 3641 3272 
Q 3641 2581 3239 2228 
Q 2838 1875 2053 1875 
L 1259 1875 
L 1259 0 
L 628 0 
L 628 4666 
z
" transform="scale(0.015625)"/>
      <path id="DejaVuSans-36" d="M 2113 2584 
Q 1688 2584 1439 2293 
Q 1191 2003 1191 1497 
Q 1191 994 1439 701 
Q 1688 409 2113 409 
Q 2538 409 2786 701 
Q 3034 994 3034 1497 
Q 3034 2003 2786 2293 
Q 2538 2584 2113 2584 
z
M 3366 4563 
L 3366 3988 
Q 3128 4100 2886 4159 
Q 2644 4219 2406 4219 
Q 1781 4219 1451 3797 
Q 1122 3375 1075 2522 
Q 1259 2794 1537 2939 
Q 1816 3084 2150 3084 
Q 2853 3084 3261 2657 
Q 3669 2231 3669 1497 
Q 3669 778 3244 343 
Q 2819 -91 2113 -91 
Q 1303 -91 875 529 
Q 447 1150 447 2328 
Q 447 3434 972 4092 
Q 1497 4750 2381 4750 
Q 2619 4750 2861 4703 
Q 3103 4656 3366 4563 
z
" transform="scale(0.015625)"/>
     </defs>
     <use xlink:href="#DejaVuSans-50"/>
     <use xlink:href="#DejaVuSans-20" x="60.302734"/>
     <use xlink:href="#DejaVuSans-5b" x="92.089844"/>
     <use xlink:href="#DejaVuSans-33" x="131.103516"/>
     <use xlink:href="#DejaVuSans-36" x="194.726562"/>
     <use xlink:href="#DejaVuSans-5d" x="258.349609"/>
    </g>
   </g>
   <g id="text_14">
    <!-- Q [19] -->
    <g transform="translate(81.854999 281.314205) scale(0.1 -0.1)">
     <defs>
      <path id="DejaVuSans-51" d="M 2522 4238 
Q 1834 4238 1429 3725 
Q 1025 3213 1025 2328 
Q 1025 1447 1429 934 
Q 1834 422 2522 422 
Q 3209 422 3611 934 
Q 4013 1447 4013 2328 
Q 4013 3213 3611 3725 
Q 3209 4238 2522 4238 
z
M 3406 84 
L 4238 -825 
L 3475 -825 
L 2784 -78 
Q 2681 -84 2626 -87 
Q 2572 -91 2522 -91 
Q 1538 -91 948 567 
Q 359 1225 359 2328 
Q 359 3434 948 4092 
Q 1538 4750 2522 4750 
Q 3503 4750 4090 4092 
Q 4678 3434 4678 2328 
Q 4678 1516 4351 937 
Q 4025 359 3406 84 
z
" transform="scale(0.015625)"/>
     </defs>
     <use xlink:href="#DejaVuSans-51"/>
     <use xlink:href="#DejaVuSans-20" x="78.710938"/>
     <use xlink:href="#DejaVuSans-5b" x="110.498047"/>
     <use xlink:href="#DejaVuSans-31" x="149.511719"/>
     <use xlink:href="#DejaVuSans-39" x="213.134766"/>
     <use xlink:href="#DejaVuSans-5d" x="276.757812"/>
    </g>
   </g>
   <g id="text_15">
    <!-- R [42] -->
    <g transform="translate(124.46744 294.88337) scale(0.1 -0.1)">
     <defs>
      <path id="DejaVuSans-52" d="M 2841 2188 
Q 3044 2119 3236 1894 
Q 3428 1669 3622 1275 
L 4263 0 
L 3584 0 
L 2988 1197 
Q 2756 1666 2539 1819 
Q 2322 1972 1947 1972 
L 1259 1972 
L 1259 0 
L 628 0 
L 628 4666 
L 2053 4666 
Q 2853 4666 3247 4331 
Q 3641 3997 3641 3322 
Q 3641 2881 3436 2590 
Q 3231 2300 2841 2188 
z
M 1259 4147 
L 1259 2491 
L 2053 2491 
Q 2509 2491 2742 2702 
Q 2975 2913 2975 3322 
Q 2975 3731 2742 3939 
Q 2509 4147 2053 4147 
L 1259 4147 
z
" transform="scale(0.015625)"/>
     </defs>
     <use xlink:href="#DejaVuSans-52"/>
     <use xlink:href="#DejaVuSans-20" x="69.482422"/>
     <use xlink:href="#DejaVuSans-5b" x="101.269531"/>
     <use xlink:href="#DejaVuSans-34" x="140.283203"/>
     <use xlink:href="#DejaVuSans-32" x="203.90625"/>
     <use xlink:href="#DejaVuSans-5d" x="267.529297"/>
    </g>
   </g>
   <g id="text_16">
    <!-- S [50] -->
    <g transform="translate(220.708283 289.839791) scale(0.1 -0.1)">
     <defs>
      <path id="DejaVuSans-53" d="M 3425 4513 
L 3425 3897 
Q 3066 4069 2747 4153 
Q 2428 4238 2131 4238 
Q 1616 4238 1336 4038 
Q 1056 3838 1056 3469 
Q 1056 3159 1242 3001 
Q 1428 2844 1947 2747 
L 2328 2669 
Q 3034 2534 3370 2195 
Q 3706 1856 3706 1288 
Q 3706 609 3251 259 
Q 2797 -91 1919 -91 
Q 1588 -91 1214 -16 
Q 841 59 441 206 
L 441 856 
Q 825 641 1194 531 
Q 1563 422 1919 422 
Q 2459 422 2753 634 
Q 3047 847 3047 1241 
Q 3047 1584 2836 1778 
Q 2625 1972 2144 2069 
L 1759 2144 
Q 1053 2284 737 2584 
Q 422 2884 422 3419 
Q 422 4038 858 4394 
Q 1294 4750 2059 4750 
Q 2388 4750 2728 4690 
Q 3069 4631 3425 4513 
z
" transform="scale(0.015625)"/>
     </defs>
     <use xlink:href="#DejaVuSans-53"/>
     <use xlink:href="#DejaVuSans-20" x="63.476562"/>
     <use xlink:href="#DejaVuSans-5b" x="95.263672"/>
     <use xlink:href="#DejaVuSans-35" x="134.277344"/>
     <use xlink:href="#DejaVuSans-30" x="197.900391"/>
     <use xlink:href="#DejaVuSans-5d" x="261.523438"/>
    </g>
   </g>
   <g id="text_17">
    <!-- T [39] -->
    <g transform="translate(275.327362 257.114247) scale(0.1 -0.1)">
     <defs>
      <path id="DejaVuSans-54" d="M -19 4666 
L 3928 4666 
L 3928 4134 
L 2272 4134 
L 2272 0 
L 1638 0 
L 1638 4134 
L -19 4134 
L -19 4666 
z
" transform="scale(0.015625)"/>
     </defs>
     <use xlink:href="#DejaVuSans-54"/>
     <use xlink:href="#DejaVuSans-20" x="61.083984"/>
     <use xlink:href="#DejaVuSans-5b" x="92.871094"/>
     <use xlink:href="#DejaVuSans-33" x="131.884766"/>
     <use xlink:href="#DejaVuSans-39" x="195.507812"/>
     <use xlink:href="#DejaVuSans-5d" x="259.130859"/>
    </g>
   </g>
   <g id="text_18">
    <!-- V [30] -->
    <g transform="translate(304.381821 216.994859) scale(0.1 -0.1)">
     <defs>
      <path id="DejaVuSans-56" d="M 1831 0 
L 50 4666 
L 709 4666 
L 2188 738 
L 3669 4666 
L 4325 4666 
L 2547 0 
L 1831 0 
z
" transform="scale(0.015625)"/>
     </defs>
     <use xlink:href="#DejaVuSans-56"/>
     <use xlink:href="#DejaVuSans-20" x="68.408203"/>
     <use xlink:href="#DejaVuSans-5b" x="100.195312"/>
     <use xlink:href="#DejaVuSans-33" x="139.208984"/>
     <use xlink:href="#DejaVuSans-30" x="202.832031"/>
     <use xlink:href="#DejaVuSans-5d" x="266.455078"/>
    </g>
   </g>
   <g id="text_19">
    <!-- W [11] -->
    <g transform="translate(314.380116 189.205685) scale(0.1 -0.1)">
     <defs>
      <path id="DejaVuSans-57" d="M 213 4666 
L 850 4666 
L 1831 722 
L 2809 4666 
L 3519 4666 
L 4500 722 
L 5478 4666 
L 6119 4666 
L 4947 0 
L 4153 0 
L 3169 4050 
L 2175 0 
L 1381 0 
L 213 4666 
z
" transform="scale(0.015625)"/>
     </defs>
     <use xlink:href="#DejaVuSans-57"/>
     <use xlink:href="#DejaVuSans-20" x="98.876953"/>
     <use xlink:href="#DejaVuSans-5b" x="130.664062"/>
     <use xlink:href="#DejaVuSans-31" x="169.677734"/>
     <use xlink:href="#DejaVuSans-31" x="233.300781"/>
     <use xlink:href="#DejaVuSans-5d" x="296.923828"/>
    </g>
   </g>
   <g id="text_20">
    <!-- Y [18] -->
    <g transform="translate(317.840967 168.585675) scale(0.1 -0.1)">
     <defs>
      <path id="DejaVuSans-59" d="M -13 4666 
L 666 4666 
L 1959 2747 
L 3244 4666 
L 3922 4666 
L 2272 2222 
L 2272 0 
L 1638 0 
L 1638 2222 
L -13 4666 
z
" transform="scale(0.015625)"/>
     </defs>
     <use xlink:href="#DejaVuSans-59"/>
     <use xlink:href="#DejaVuSans-20" x="61.083984"/>
     <use xlink:href="#DejaVuSans-5b" x="92.871094"/>
     <use xlink:href="#DejaVuSans-31" x="131.884766"/>
     <use xlink:href="#DejaVuSans-38" x="195.507812"/>
     <use xlink:href="#DejaVuSans-5d" x="259.130859"/>
    </g>
   </g>
   <g id="text_21">
    <!-- A0A384DBA7 [614] -->
    <g transform="translate(119.220909 152.855094) scale(0.12 -0.12)">
     <defs>
      <path id="DejaVuSans-42" d="M 1259 2228 
L 1259 519 
L 2272 519 
Q 2781 519 3026 730 
Q 3272 941 3272 1375 
Q 3272 1813 3026 2020 
Q 2781 2228 2272 2228 
L 1259 2228 
z
M 1259 4147 
L 1259 2741 
L 2194 2741 
Q 2656 2741 2882 2914 
Q 3109 3088 3109 3444 
Q 3109 3797 2882 3972 
Q 2656 4147 2194 4147 
L 1259 4147 
z
M 628 4666 
L 2241 4666 
Q 2963 4666 3353 4366 
Q 3744 4066 3744 3513 
Q 3744 3084 3544 2831 
Q 3344 2578 2956 2516 
Q 3422 2416 3680 2098 
Q 3938 1781 3938 1306 
Q 3938 681 3513 340 
Q 3088 0 2303 0 
L 628 0 
L 628 4666 
z
" transform="scale(0.015625)"/>
     </defs>
     <use xlink:href="#DejaVuSans-41"/>
     <use xlink:href="#DejaVuSans-30" x="68.408203"/>
     <use xlink:href="#DejaVuSans-41" x="132.03125"/>
     <use xlink:href="#DejaVuSans-33" x="200.439453"/>
     <use xlink:href="#DejaVuSans-38" x="264.0625"/>
     <use xlink:href="#DejaVuSans-34" x="327.685547"/>
     <use xlink:href="#DejaVuSans-44" x="391.308594"/>
     <use xlink:href="#DejaVuSans-42" x="468.310547"/>
     <use xlink:href="#DejaVuSans-41" x="536.914062"/>
     <use xlink:href="#DejaVuSans-37" x="605.322266"/>
     <use xlink:href="#DejaVuSans-20" x="668.945312"/>
     <use xlink:href="#DejaVuSans-5b" x="700.732422"/>
     <use xlink:href="#DejaVuSans-36" x="739.746094"/>
     <use xlink:href="#DejaVuSans-31" x="803.369141"/>
     <use xlink:href="#DejaVuSans-34" x="866.992188"/>
     <use xlink:href="#DejaVuSans-5d" x="930.615234"/>
    </g>
   </g>
  </g>
 </g>
</svg>
