<?xml version="1.0" encoding="utf-8" standalone="no"?>
<!DOCTYPE svg PUBLIC "-//W3C//DTD SVG 1.1//EN"
  "http://www.w3.org/Graphics/SVG/1.1/DTD/svg11.dtd">
<svg xmlns:xlink="http://www.w3.org/1999/xlink" width="352.567205pt" height="305.837401pt" viewBox="0 0 352.567205 305.837401" xmlns="http://www.w3.org/2000/svg" version="1.1">
 <metadata>
  <rdf:RDF xmlns:dc="http://purl.org/dc/elements/1.1/" xmlns:cc="http://creativecommons.org/ns#" xmlns:rdf="http://www.w3.org/1999/02/22-rdf-syntax-ns#">
   <cc:Work>
    <dc:type rdf:resource="http://purl.org/dc/dcmitype/StillImage"/>
    <dc:date>2024-09-27T16:07:35.459413</dc:date>
    <dc:format>image/svg+xml</dc:format>
    <dc:creator>
     <cc:Agent>
      <dc:title>Matplotlib v3.8.3, https://matplotlib.org/</dc:title>
     </cc:Agent>
    </dc:creator>
   </cc:Work>
  </rdf:RDF>
 </metadata>
 <defs>
  <style type="text/css">*{stroke-linejoin: round; stroke-linecap: butt}</style>
 </defs>
 <g id="figure_1">
  <g id="patch_1">
   <path d="M -0 305.837401 
L 352.567205 305.837401 
L 352.567205 0 
L -0 0 
z
" style="fill: #ffffff"/>
  </g>
  <g id="axes_1">
   <g id="patch_2">
    <path d="M 304.339209 152.976287 
C 304.339209 145.269565 303.64174 137.578632 302.25534 129.997638 
C 300.868941 122.416645 298.799291 114.976654 296.071727 107.768744 
L 176.605449 152.976287 
z
" style="fill: #1f77b4"/>
   </g>
   <g id="patch_3">
    <path d="M 296.025803 107.62966 
C 294.590949 103.83789 292.976387 100.116581 291.1876 96.478372 
C 289.398813 92.840162 287.437829 89.289177 285.311308 85.837477 
L 176.559525 152.837203 
z
" style="fill: #ff7f0e"/>
   </g>
   <g id="patch_4">
    <path d="M 285.264269 85.759472 
C 283.563168 82.9983 281.757525 80.302915 279.851268 77.679177 
C 277.945011 75.055439 275.939521 72.505251 273.839159 70.034159 
L 176.512486 152.759198 
z
" style="fill: #aec7e8"/>
   </g>
   <g id="patch_5">
    <path d="M 273.786707 69.972448 
C 271.686346 67.501356 269.492635 65.111151 267.210346 62.80703 
C 264.928056 60.502909 262.558843 58.286544 260.107858 56.162753 
L 176.460034 152.697488 
z
" style="fill: #ffbb78"/>
   </g>
   <g id="patch_6">
    <path d="M 259.978103 56.06658 
C 252.618049 49.689056 244.552721 44.174127 235.939452 39.629371 
C 227.326183 35.084616 218.221344 31.539779 208.802545 29.064011 
L 176.33028 152.601315 
z
" style="fill: #98df8a"/>
   </g>
   <g id="patch_7">
    <path d="M 208.634928 29.008666 
C 204.321678 27.874911 199.952008 26.967826 195.543877 26.29114 
C 191.135745 25.614453 186.695197 25.169093 182.24048 24.956889 
L 176.162663 152.54597 
z
" style="fill: #2ca02c"/>
   </g>
   <g id="patch_8">
    <path d="M 182.164792 24.95075 
C 180.545216 24.873601 178.924318 24.827295 177.302979 24.81186 
C 175.68164 24.796424 174.060155 24.811861 172.439403 24.858162 
L 176.086975 152.539831 
z
" style="fill: #d62728"/>
   </g>
   <g id="patch_9">
    <path d="M 172.265059 24.885776 
C 159.68187 25.245248 147.22066 27.462888 135.286028 31.466691 
C 123.351397 35.470493 112.073926 41.216652 101.819781 48.518595 
L 175.912631 152.567445 
z
" style="fill: #9467bd"/>
   </g>
   <g id="patch_10">
    <path d="M 101.60387 48.655905 
C 94.995268 53.361869 88.850016 58.686761 83.251449 64.558368 
C 77.652883 70.429975 72.626426 76.821636 68.240242 83.646671 
L 175.696719 152.704755 
z
" style="fill: #ff9896"/>
   </g>
   <g id="patch_11">
    <path d="M 68.098624 83.938204 
C 58.199602 99.341383 51.727241 116.694455 49.121486 134.817881 
C 46.515732 152.941307 47.836992 171.414933 52.995457 188.983051 
L 175.555101 152.996288 
z
" style="fill: #c5b0d5"/>
   </g>
   <g id="patch_12">
    <path d="M 53.036053 189.275269 
C 54.635413 194.722187 56.596111 200.056431 58.905103 205.242511 
C 61.214094 210.428591 63.866248 215.454979 66.843916 220.288235 
L 175.595697 153.288506 
z
" style="fill: #c49c94"/>
   </g>
   <g id="patch_13">
    <path d="M 66.91811 220.408664 
C 69.895779 225.241919 73.192345 229.871298 76.785876 234.266 
C 80.379406 238.660702 84.261913 242.81096 88.407566 246.689159 
L 175.669891 153.408936 
z
" style="fill: #8c564b"/>
   </g>
   <g id="patch_14">
    <path d="M 88.510863 246.785791 
C 92.656515 250.663991 97.056099 254.261512 101.680342 257.55442 
C 106.304585 260.847329 111.143209 263.828304 116.164021 266.477514 
L 175.773188 153.505568 
z
" style="fill: #e377c2"/>
   </g>
   <g id="patch_15">
    <path d="M 116.251647 266.528106 
C 118.402774 267.663139 120.585881 268.7365 122.798297 269.746876 
C 125.010714 270.757253 127.251537 271.704233 129.518026 272.586657 
L 175.860814 153.556159 
z
" style="fill: #7f7f7f"/>
   </g>
   <g id="patch_16">
    <path d="M 129.603819 272.617268 
C 134.137722 274.382477 138.768779 275.887199 143.474348 277.124075 
C 148.179916 278.360952 152.952312 279.327965 157.768201 280.020385 
L 175.946607 153.58677 
z
" style="fill: #f7b6d2"/>
   </g>
   <g id="patch_17">
    <path d="M 157.938944 280.036689 
C 166.773734 281.30694 175.717384 281.647678 184.623214 281.053314 
C 193.529043 280.458951 202.348096 278.932753 210.935736 276.499752 
L 176.117349 153.603074 
z
" style="fill: #c7c7c7"/>
   </g>
   <g id="patch_18">
    <path d="M 211.153137 276.43704 
C 220.131884 273.893232 228.80488 270.373096 237.0167 265.939714 
C 245.228521 261.506332 252.929817 256.186346 259.982579 250.075092 
L 176.33475 153.540362 
z
" style="fill: #dbdb8d"/>
   </g>
   <g id="patch_19">
    <path d="M 260.154282 249.927736 
C 266.89983 244.082684 273.014188 237.54666 278.397076 230.426858 
C 283.779963 223.307056 288.401792 215.642613 292.18676 207.55923 
L 176.506452 153.393006 
z
" style="fill: #bcbd22"/>
   </g>
   <g id="patch_20">
    <path d="M 292.25441 207.440758 
C 293.113886 205.605215 293.929552 203.749475 294.700716 201.875115 
C 295.47188 200.000756 296.198323 198.108307 296.879428 196.199377 
L 176.574102 153.274534 
z
" style="fill: #17becf"/>
   </g>
   <g id="patch_21">
    <path d="M 296.911662 196.08763 
C 299.365023 189.211605 301.224376 182.137888 302.469289 174.944218 
C 303.714202 167.750548 304.340098 160.463373 304.340097 153.162777 
L 176.606337 153.162787 
z
" style="fill: #9edae5"/>
   </g>
   <g id="patch_22">
    <path d="M 250.593268 153.072031 
C 250.593268 148.576444 250.186411 144.090066 249.377678 139.66782 
C 248.568945 135.245574 247.361649 130.905579 245.77057 126.700965 
L 176.081908 153.072031 
z
" style="fill: #ffffff"/>
   </g>
   <g id="patch_23">
    <path d="M 245.77057 126.700965 
C 244.933572 124.489099 243.991744 122.318335 242.948285 120.196046 
C 241.904826 118.073758 240.760918 116.00235 239.520448 113.988858 
L 176.081908 153.072031 
z
" style="fill: #ffffff"/>
   </g>
   <g id="patch_24">
    <path d="M 239.520448 113.988858 
C 238.528139 112.378174 237.474848 110.805866 236.362864 109.275352 
C 235.250881 107.744838 234.081012 106.257229 232.855801 104.815758 
L 176.081908 153.072031 
z
" style="fill: #ffffff"/>
   </g>
   <g id="patch_25">
    <path d="M 232.855801 104.815758 
C 231.63059 103.374288 230.350925 101.980001 229.01959 100.635931 
C 227.688254 99.29186 226.306213 97.998981 224.876472 96.760103 
L 176.081908 153.072031 
z
" style="fill: #ffffff"/>
   </g>
   <g id="patch_26">
    <path d="M 224.876472 96.760103 
C 220.583107 93.039881 215.878332 89.822838 210.853925 87.171731 
C 205.829518 84.520624 200.518362 82.452802 195.024063 81.008604 
L 176.081908 153.072031 
z
" style="fill: #ffffff"/>
   </g>
   <g id="patch_27">
    <path d="M 195.024063 81.008604 
C 192.508 80.347247 189.959026 79.818115 187.387616 79.423381 
C 184.816206 79.028647 182.225886 78.768853 179.627301 78.645067 
L 176.081908 153.072031 
z
" style="fill: #ffffff"/>
   </g>
   <g id="patch_28">
    <path d="M 179.627301 78.645067 
C 178.682549 78.600063 177.737025 78.573052 176.791244 78.564048 
C 175.845463 78.555044 174.899596 78.564049 173.954158 78.591058 
L 176.081908 153.072031 
z
" style="fill: #ffffff"/>
   </g>
   <g id="patch_29">
    <path d="M 173.954158 78.591058 
C 166.613965 78.80075 159.344925 80.094373 152.383057 82.429925 
C 145.421189 84.765476 138.842664 88.117402 132.861079 92.376869 
L 176.081908 153.072031 
z
" style="fill: #ffffff"/>
   </g>
   <g id="patch_30">
    <path d="M 132.861079 92.376869 
C 129.006061 95.122015 125.421331 98.228202 122.155501 101.653306 
C 118.88967 105.07841 115.95757 108.806879 113.398963 112.788149 
L 176.081908 153.072031 
z
" style="fill: #ffffff"/>
   </g>
   <g id="patch_31">
    <path d="M 113.398963 112.788149 
C 107.624534 121.773337 103.84899 131.895962 102.328966 142.467961 
C 100.808942 153.039959 101.579678 163.816241 104.588782 174.06431 
L 176.081908 153.072031 
z
" style="fill: #ffffff"/>
   </g>
   <g id="patch_32">
    <path d="M 104.588782 174.06431 
C 105.521742 177.241678 106.665483 180.353321 108.012395 183.378534 
C 109.359306 186.403747 110.906396 189.335807 112.643369 192.155206 
L 176.081908 153.072031 
z
" style="fill: #ffffff"/>
   </g>
   <g id="patch_33">
    <path d="M 112.643369 192.155206 
C 114.380343 194.974605 116.30334 197.675076 118.399566 200.238652 
C 120.495792 202.802229 122.760588 205.223212 125.178885 207.485495 
L 176.081908 153.072031 
z
" style="fill: #ffffff"/>
   </g>
   <g id="patch_34">
    <path d="M 125.178885 207.485495 
C 127.597182 209.747778 130.163606 211.846332 132.861081 213.767195 
C 135.558556 215.688058 138.381087 217.426961 141.309894 218.972333 
L 176.081908 153.072031 
z
" style="fill: #ffffff"/>
   </g>
   <g id="patch_35">
    <path d="M 141.309894 218.972333 
C 142.564718 219.634436 143.838197 220.260563 145.128773 220.84995 
C 146.419349 221.439336 147.726496 221.991741 149.048615 222.506489 
L 176.081908 153.072031 
z
" style="fill: #ffffff"/>
   </g>
   <g id="patch_36">
    <path d="M 149.048615 222.506489 
C 151.693392 223.536194 154.394842 224.413948 157.139757 225.135459 
C 159.884671 225.856971 162.668569 226.421062 165.477838 226.824973 
L 176.081908 153.072031 
z
" style="fill: #ffffff"/>
   </g>
   <g id="patch_37">
    <path d="M 165.477838 226.824973 
C 170.631466 227.565953 175.848595 227.764717 181.043662 227.418005 
C 186.238729 227.071293 191.383177 226.181011 196.392634 224.76176 
L 176.081908 153.072031 
z
" style="fill: #ffffff"/>
   </g>
   <g id="patch_38">
    <path d="M 196.392634 224.76176 
C 201.630237 223.277872 206.689484 221.224459 211.479713 218.63832 
C 216.269941 216.05218 220.762364 212.948855 224.876475 209.383957 
L 176.081908 153.072031 
z
" style="fill: #ffffff"/>
   </g>
   <g id="patch_39">
    <path d="M 224.876475 209.383957 
C 228.811379 205.974344 232.378087 202.161663 235.518105 198.008445 
C 238.658123 193.855227 241.354189 189.384302 243.562088 184.668996 
L 176.081908 153.072031 
z
" style="fill: #ffffff"/>
   </g>
   <g id="patch_40">
    <path d="M 243.562088 184.668996 
C 244.063449 183.598262 244.539254 182.515747 244.9891 181.422371 
C 245.438945 180.328994 245.862703 179.225066 246.260015 178.111523 
L 176.081908 153.072031 
z
" style="fill: #ffffff"/>
   </g>
   <g id="patch_41">
    <path d="M 246.260015 178.111523 
C 247.691141 174.100508 248.775764 169.974173 249.501963 165.777866 
C 250.228163 161.581558 250.593268 157.330706 250.593268 153.072025 
L 176.081908 153.072031 
z
" style="fill: #ffffff"/>
   </g>
   <g id="matplotlib.axis_1"/>
   <g id="matplotlib.axis_2"/>
   <g id="text_1">
    <!-- A [19] -->
    <g transform="translate(314.82033 130.459149) scale(0.1 -0.1)">
     <defs>
      <path id="DejaVuSans-41" d="M 2188 4044 
L 1331 1722 
L 3047 1722 
L 2188 4044 
z
M 1831 4666 
L 2547 4666 
L 4325 0 
L 3669 0 
L 3244 1197 
L 1141 1197 
L 716 0 
L 50 0 
L 1831 4666 
z
" transform="scale(0.015625)"/>
      <path id="DejaVuSans-20" transform="scale(0.015625)"/>
      <path id="DejaVuSans-5b" d="M 550 4863 
L 1875 4863 
L 1875 4416 
L 1125 4416 
L 1125 -397 
L 1875 -397 
L 1875 -844 
L 550 -844 
L 550 4863 
z
" transform="scale(0.015625)"/>
      <path id="DejaVuSans-31" d="M 794 531 
L 1825 531 
L 1825 4091 
L 703 3866 
L 703 4441 
L 1819 4666 
L 2450 4666 
L 2450 531 
L 3481 531 
L 3481 0 
L 794 0 
L 794 531 
z
" transform="scale(0.015625)"/>
      <path id="DejaVuSans-39" d="M 703 97 
L 703 672 
Q 941 559 1184 500 
Q 1428 441 1663 441 
Q 2288 441 2617 861 
Q 2947 1281 2994 2138 
Q 2813 1869 2534 1725 
Q 2256 1581 1919 1581 
Q 1219 1581 811 2004 
Q 403 2428 403 3163 
Q 403 3881 828 4315 
Q 1253 4750 1959 4750 
Q 2769 4750 3195 4129 
Q 3622 3509 3622 2328 
Q 3622 1225 3098 567 
Q 2575 -91 1691 -91 
Q 1453 -91 1209 -44 
Q 966 3 703 97 
z
M 1959 2075 
Q 2384 2075 2632 2365 
Q 2881 2656 2881 3163 
Q 2881 3666 2632 3958 
Q 2384 4250 1959 4250 
Q 1534 4250 1286 3958 
Q 1038 3666 1038 3163 
Q 1038 2656 1286 2365 
Q 1534 2075 1959 2075 
z
" transform="scale(0.015625)"/>
      <path id="DejaVuSans-5d" d="M 1947 4863 
L 1947 -844 
L 622 -844 
L 622 -397 
L 1369 -397 
L 1369 4416 
L 622 4416 
L 622 4863 
L 1947 4863 
z
" transform="scale(0.015625)"/>
     </defs>
     <use xlink:href="#DejaVuSans-41"/>
     <use xlink:href="#DejaVuSans-20" x="68.408203"/>
     <use xlink:href="#DejaVuSans-5b" x="100.195312"/>
     <use xlink:href="#DejaVuSans-31" x="139.208984"/>
     <use xlink:href="#DejaVuSans-39" x="202.832031"/>
     <use xlink:href="#DejaVuSans-5d" x="266.455078"/>
    </g>
   </g>
   <g id="text_2">
    <!-- C [10] -->
    <g transform="translate(302.650408 93.601863) scale(0.1 -0.1)">
     <defs>
      <path id="DejaVuSans-43" d="M 4122 4306 
L 4122 3641 
Q 3803 3938 3442 4084 
Q 3081 4231 2675 4231 
Q 1875 4231 1450 3742 
Q 1025 3253 1025 2328 
Q 1025 1406 1450 917 
Q 1875 428 2675 428 
Q 3081 428 3442 575 
Q 3803 722 4122 1019 
L 4122 359 
Q 3791 134 3420 21 
Q 3050 -91 2638 -91 
Q 1578 -91 968 557 
Q 359 1206 359 2328 
Q 359 3453 968 4101 
Q 1578 4750 2638 4750 
Q 3056 4750 3426 4639 
Q 3797 4528 4122 4306 
z
" transform="scale(0.015625)"/>
      <path id="DejaVuSans-30" d="M 2034 4250 
Q 1547 4250 1301 3770 
Q 1056 3291 1056 2328 
Q 1056 1369 1301 889 
Q 1547 409 2034 409 
Q 2525 409 2770 889 
Q 3016 1369 3016 2328 
Q 3016 3291 2770 3770 
Q 2525 4250 2034 4250 
z
M 2034 4750 
Q 2819 4750 3233 4129 
Q 3647 3509 3647 2328 
Q 3647 1150 3233 529 
Q 2819 -91 2034 -91 
Q 1250 -91 836 529 
Q 422 1150 422 2328 
Q 422 3509 836 4129 
Q 1250 4750 2034 4750 
z
" transform="scale(0.015625)"/>
     </defs>
     <use xlink:href="#DejaVuSans-43"/>
     <use xlink:href="#DejaVuSans-20" x="69.824219"/>
     <use xlink:href="#DejaVuSans-5b" x="101.611328"/>
     <use xlink:href="#DejaVuSans-31" x="140.625"/>
     <use xlink:href="#DejaVuSans-30" x="204.248047"/>
     <use xlink:href="#DejaVuSans-5d" x="267.871094"/>
    </g>
   </g>
   <g id="text_3">
    <!-- D [8] -->
    <g transform="translate(290.185146 72.930549) scale(0.1 -0.1)">
     <defs>
      <path id="DejaVuSans-44" d="M 1259 4147 
L 1259 519 
L 2022 519 
Q 2988 519 3436 956 
Q 3884 1394 3884 2338 
Q 3884 3275 3436 3711 
Q 2988 4147 2022 4147 
L 1259 4147 
z
M 628 4666 
L 1925 4666 
Q 3281 4666 3915 4102 
Q 4550 3538 4550 2338 
Q 4550 1131 3912 565 
Q 3275 0 1925 0 
L 628 0 
L 628 4666 
z
" transform="scale(0.015625)"/>
      <path id="DejaVuSans-38" d="M 2034 2216 
Q 1584 2216 1326 1975 
Q 1069 1734 1069 1313 
Q 1069 891 1326 650 
Q 1584 409 2034 409 
Q 2484 409 2743 651 
Q 3003 894 3003 1313 
Q 3003 1734 2745 1975 
Q 2488 2216 2034 2216 
z
M 1403 2484 
Q 997 2584 770 2862 
Q 544 3141 544 3541 
Q 544 4100 942 4425 
Q 1341 4750 2034 4750 
Q 2731 4750 3128 4425 
Q 3525 4100 3525 3541 
Q 3525 3141 3298 2862 
Q 3072 2584 2669 2484 
Q 3125 2378 3379 2068 
Q 3634 1759 3634 1313 
Q 3634 634 3220 271 
Q 2806 -91 2034 -91 
Q 1263 -91 848 271 
Q 434 634 434 1313 
Q 434 1759 690 2068 
Q 947 2378 1403 2484 
z
M 1172 3481 
Q 1172 3119 1398 2916 
Q 1625 2713 2034 2713 
Q 2441 2713 2670 2916 
Q 2900 3119 2900 3481 
Q 2900 3844 2670 4047 
Q 2441 4250 2034 4250 
Q 1625 4250 1398 4047 
Q 1172 3844 1172 3481 
z
" transform="scale(0.015625)"/>
     </defs>
     <use xlink:href="#DejaVuSans-44"/>
     <use xlink:href="#DejaVuSans-20" x="77.001953"/>
     <use xlink:href="#DejaVuSans-5b" x="108.789062"/>
     <use xlink:href="#DejaVuSans-38" x="147.802734"/>
     <use xlink:href="#DejaVuSans-5d" x="211.425781"/>
    </g>
   </g>
   <g id="text_4">
    <!-- E [8] -->
    <g transform="translate(276.285377 56.577359) scale(0.1 -0.1)">
     <defs>
      <path id="DejaVuSans-45" d="M 628 4666 
L 3578 4666 
L 3578 4134 
L 1259 4134 
L 1259 2753 
L 3481 2753 
L 3481 2222 
L 1259 2222 
L 1259 531 
L 3634 531 
L 3634 0 
L 628 0 
L 628 4666 
z
" transform="scale(0.015625)"/>
     </defs>
     <use xlink:href="#DejaVuSans-45"/>
     <use xlink:href="#DejaVuSans-20" x="63.183594"/>
     <use xlink:href="#DejaVuSans-5b" x="94.970703"/>
     <use xlink:href="#DejaVuSans-38" x="133.984375"/>
     <use xlink:href="#DejaVuSans-5d" x="197.607422"/>
    </g>
   </g>
   <g id="text_5">
    <!-- F [24] -->
    <g transform="translate(241.900369 31.091552) scale(0.1 -0.1)">
     <defs>
      <path id="DejaVuSans-46" d="M 628 4666 
L 3309 4666 
L 3309 4134 
L 1259 4134 
L 1259 2759 
L 3109 2759 
L 3109 2228 
L 1259 2228 
L 1259 0 
L 628 0 
L 628 4666 
z
" transform="scale(0.015625)"/>
      <path id="DejaVuSans-32" d="M 1228 531 
L 3431 531 
L 3431 0 
L 469 0 
L 469 531 
Q 828 903 1448 1529 
Q 2069 2156 2228 2338 
Q 2531 2678 2651 2914 
Q 2772 3150 2772 3378 
Q 2772 3750 2511 3984 
Q 2250 4219 1831 4219 
Q 1534 4219 1204 4116 
Q 875 4013 500 3803 
L 500 4441 
Q 881 4594 1212 4672 
Q 1544 4750 1819 4750 
Q 2544 4750 2975 4387 
Q 3406 4025 3406 3419 
Q 3406 3131 3298 2873 
Q 3191 2616 2906 2266 
Q 2828 2175 2409 1742 
Q 1991 1309 1228 531 
z
" transform="scale(0.015625)"/>
      <path id="DejaVuSans-34" d="M 2419 4116 
L 825 1625 
L 2419 1625 
L 2419 4116 
z
M 2253 4666 
L 3047 4666 
L 3047 1625 
L 3713 1625 
L 3713 1100 
L 3047 1100 
L 3047 0 
L 2419 0 
L 2419 1100 
L 313 1100 
L 313 1709 
L 2253 4666 
z
" transform="scale(0.015625)"/>
     </defs>
     <use xlink:href="#DejaVuSans-46"/>
     <use xlink:href="#DejaVuSans-20" x="57.519531"/>
     <use xlink:href="#DejaVuSans-5b" x="89.306641"/>
     <use xlink:href="#DejaVuSans-32" x="128.320312"/>
     <use xlink:href="#DejaVuSans-34" x="191.943359"/>
     <use xlink:href="#DejaVuSans-5d" x="255.566406"/>
    </g>
   </g>
   <g id="text_6">
    <!-- G [11] -->
    <g transform="translate(197.481998 16.425032) scale(0.1 -0.1)">
     <defs>
      <path id="DejaVuSans-47" d="M 3809 666 
L 3809 1919 
L 2778 1919 
L 2778 2438 
L 4434 2438 
L 4434 434 
Q 4069 175 3628 42 
Q 3188 -91 2688 -91 
Q 1594 -91 976 548 
Q 359 1188 359 2328 
Q 359 3472 976 4111 
Q 1594 4750 2688 4750 
Q 3144 4750 3555 4637 
Q 3966 4525 4313 4306 
L 4313 3634 
Q 3963 3931 3569 4081 
Q 3175 4231 2741 4231 
Q 1884 4231 1454 3753 
Q 1025 3275 1025 2328 
Q 1025 1384 1454 906 
Q 1884 428 2741 428 
Q 3075 428 3337 486 
Q 3600 544 3809 666 
z
" transform="scale(0.015625)"/>
     </defs>
     <use xlink:href="#DejaVuSans-47"/>
     <use xlink:href="#DejaVuSans-20" x="77.490234"/>
     <use xlink:href="#DejaVuSans-5b" x="109.277344"/>
     <use xlink:href="#DejaVuSans-31" x="148.291016"/>
     <use xlink:href="#DejaVuSans-31" x="211.914062"/>
     <use xlink:href="#DejaVuSans-5d" x="275.537109"/>
    </g>
   </g>
   <g id="text_7">
    <!-- H [4] -->
    <g transform="translate(177.42458 14.798437) scale(0.1 -0.1)">
     <defs>
      <path id="DejaVuSans-48" d="M 628 4666 
L 1259 4666 
L 1259 2753 
L 3553 2753 
L 3553 4666 
L 4184 4666 
L 4184 0 
L 3553 0 
L 3553 2222 
L 1259 2222 
L 1259 0 
L 628 0 
L 628 4666 
z
" transform="scale(0.015625)"/>
     </defs>
     <use xlink:href="#DejaVuSans-48"/>
     <use xlink:href="#DejaVuSans-20" x="75.195312"/>
     <use xlink:href="#DejaVuSans-5b" x="106.982422"/>
     <use xlink:href="#DejaVuSans-34" x="145.996094"/>
     <use xlink:href="#DejaVuSans-5d" x="209.619141"/>
    </g>
   </g>
   <g id="text_8">
    <!-- I [31] -->
    <g transform="translate(104.567118 22.11599) scale(0.1 -0.1)">
     <defs>
      <path id="DejaVuSans-49" d="M 628 4666 
L 1259 4666 
L 1259 0 
L 628 0 
L 628 4666 
z
" transform="scale(0.015625)"/>
      <path id="DejaVuSans-33" d="M 2597 2516 
Q 3050 2419 3304 2112 
Q 3559 1806 3559 1356 
Q 3559 666 3084 287 
Q 2609 -91 1734 -91 
Q 1441 -91 1130 -33 
Q 819 25 488 141 
L 488 750 
Q 750 597 1062 519 
Q 1375 441 1716 441 
Q 2309 441 2620 675 
Q 2931 909 2931 1356 
Q 2931 1769 2642 2001 
Q 2353 2234 1838 2234 
L 1294 2234 
L 1294 2753 
L 1863 2753 
Q 2328 2753 2575 2939 
Q 2822 3125 2822 3475 
Q 2822 3834 2567 4026 
Q 2313 4219 1838 4219 
Q 1578 4219 1281 4162 
Q 984 4106 628 3988 
L 628 4550 
Q 988 4650 1302 4700 
Q 1616 4750 1894 4750 
Q 2613 4750 3031 4423 
Q 3450 4097 3450 3541 
Q 3450 3153 3228 2886 
Q 3006 2619 2597 2516 
z
" transform="scale(0.015625)"/>
     </defs>
     <use xlink:href="#DejaVuSans-49"/>
     <use xlink:href="#DejaVuSans-20" x="29.492188"/>
     <use xlink:href="#DejaVuSans-5b" x="61.279297"/>
     <use xlink:href="#DejaVuSans-33" x="100.292969"/>
     <use xlink:href="#DejaVuSans-31" x="163.916016"/>
     <use xlink:href="#DejaVuSans-5d" x="227.539062"/>
    </g>
   </g>
   <g id="text_9">
    <!-- K [20] -->
    <g transform="translate(43.74286 58.503104) scale(0.1 -0.1)">
     <defs>
      <path id="DejaVuSans-4b" d="M 628 4666 
L 1259 4666 
L 1259 2694 
L 3353 4666 
L 4166 4666 
L 1850 2491 
L 4331 0 
L 3500 0 
L 1259 2247 
L 1259 0 
L 628 0 
L 628 4666 
z
" transform="scale(0.015625)"/>
     </defs>
     <use xlink:href="#DejaVuSans-4b"/>
     <use xlink:href="#DejaVuSans-20" x="65.576172"/>
     <use xlink:href="#DejaVuSans-5b" x="97.363281"/>
     <use xlink:href="#DejaVuSans-32" x="136.376953"/>
     <use xlink:href="#DejaVuSans-30" x="200"/>
     <use xlink:href="#DejaVuSans-5d" x="263.623047"/>
    </g>
   </g>
   <g id="text_10">
    <!-- L [45] -->
    <g transform="translate(7.2 135.759415) scale(0.1 -0.1)">
     <defs>
      <path id="DejaVuSans-4c" d="M 628 4666 
L 1259 4666 
L 1259 531 
L 3531 531 
L 3531 0 
L 628 0 
L 628 4666 
z
" transform="scale(0.015625)"/>
      <path id="DejaVuSans-35" d="M 691 4666 
L 3169 4666 
L 3169 4134 
L 1269 4134 
L 1269 2991 
Q 1406 3038 1543 3061 
Q 1681 3084 1819 3084 
Q 2600 3084 3056 2656 
Q 3513 2228 3513 1497 
Q 3513 744 3044 326 
Q 2575 -91 1722 -91 
Q 1428 -91 1123 -41 
Q 819 9 494 109 
L 494 744 
Q 775 591 1075 516 
Q 1375 441 1709 441 
Q 2250 441 2565 725 
Q 2881 1009 2881 1497 
Q 2881 1984 2565 2268 
Q 2250 2553 1709 2553 
Q 1456 2553 1204 2497 
Q 953 2441 691 2322 
L 691 4666 
z
" transform="scale(0.015625)"/>
     </defs>
     <use xlink:href="#DejaVuSans-4c"/>
     <use xlink:href="#DejaVuSans-20" x="55.712891"/>
     <use xlink:href="#DejaVuSans-5b" x="87.5"/>
     <use xlink:href="#DejaVuSans-34" x="126.513672"/>
     <use xlink:href="#DejaVuSans-35" x="190.136719"/>
     <use xlink:href="#DejaVuSans-5d" x="253.759766"/>
    </g>
   </g>
   <g id="text_11">
    <!-- M [14] -->
    <g transform="translate(14.901668 213.197286) scale(0.1 -0.1)">
     <defs>
      <path id="DejaVuSans-4d" d="M 628 4666 
L 1569 4666 
L 2759 1491 
L 3956 4666 
L 4897 4666 
L 4897 0 
L 4281 0 
L 4281 4097 
L 3078 897 
L 2444 897 
L 1241 4097 
L 1241 0 
L 628 0 
L 628 4666 
z
" transform="scale(0.015625)"/>
     </defs>
     <use xlink:href="#DejaVuSans-4d"/>
     <use xlink:href="#DejaVuSans-20" x="86.279297"/>
     <use xlink:href="#DejaVuSans-5b" x="118.066406"/>
     <use xlink:href="#DejaVuSans-31" x="157.080078"/>
     <use xlink:href="#DejaVuSans-34" x="220.703125"/>
     <use xlink:href="#DejaVuSans-5d" x="284.326172"/>
    </g>
   </g>
   <g id="text_12">
    <!-- N [14] -->
    <g transform="translate(35.709974 245.111082) scale(0.1 -0.1)">
     <defs>
      <path id="DejaVuSans-4e" d="M 628 4666 
L 1478 4666 
L 3547 763 
L 3547 4666 
L 4159 4666 
L 4159 0 
L 3309 0 
L 1241 3903 
L 1241 0 
L 628 0 
L 628 4666 
z
" transform="scale(0.015625)"/>
     </defs>
     <use xlink:href="#DejaVuSans-4e"/>
     <use xlink:href="#DejaVuSans-20" x="74.804688"/>
     <use xlink:href="#DejaVuSans-5b" x="106.591797"/>
     <use xlink:href="#DejaVuSans-31" x="145.605469"/>
     <use xlink:href="#DejaVuSans-34" x="209.228516"/>
     <use xlink:href="#DejaVuSans-5d" x="272.851562"/>
    </g>
   </g>
   <g id="text_13">
    <!-- P [14] -->
    <g transform="translate(64.53512 270.718681) scale(0.1 -0.1)">
     <defs>
      <path id="DejaVuSans-50" d="M 1259 4147 
L 1259 2394 
L 2053 2394 
Q 2494 2394 2734 2622 
Q 2975 2850 2975 3272 
Q 2975 3691 2734 3919 
Q 2494 4147 2053 4147 
L 1259 4147 
z
M 628 4666 
L 2053 4666 
Q 2838 4666 3239 4311 
Q 3641 3956 3641 3272 
Q 3641 2581 3239 2228 
Q 2838 1875 2053 1875 
L 1259 1875 
L 1259 0 
L 628 0 
L 628 4666 
z
" transform="scale(0.015625)"/>
     </defs>
     <use xlink:href="#DejaVuSans-50"/>
     <use xlink:href="#DejaVuSans-20" x="60.302734"/>
     <use xlink:href="#DejaVuSans-5b" x="92.089844"/>
     <use xlink:href="#DejaVuSans-31" x="131.103516"/>
     <use xlink:href="#DejaVuSans-34" x="194.726562"/>
     <use xlink:href="#DejaVuSans-5d" x="258.349609"/>
    </g>
   </g>
   <g id="text_14">
    <!-- Q [6] -->
    <g transform="translate(92.276421 284.125323) scale(0.1 -0.1)">
     <defs>
      <path id="DejaVuSans-51" d="M 2522 4238 
Q 1834 4238 1429 3725 
Q 1025 3213 1025 2328 
Q 1025 1447 1429 934 
Q 1834 422 2522 422 
Q 3209 422 3611 934 
Q 4013 1447 4013 2328 
Q 4013 3213 3611 3725 
Q 3209 4238 2522 4238 
z
M 3406 84 
L 4238 -825 
L 3475 -825 
L 2784 -78 
Q 2681 -84 2626 -87 
Q 2572 -91 2522 -91 
Q 1538 -91 948 567 
Q 359 1225 359 2328 
Q 359 3434 948 4092 
Q 1538 4750 2522 4750 
Q 3503 4750 4090 4092 
Q 4678 3434 4678 2328 
Q 4678 1516 4351 937 
Q 4025 359 3406 84 
z
" transform="scale(0.015625)"/>
      <path id="DejaVuSans-36" d="M 2113 2584 
Q 1688 2584 1439 2293 
Q 1191 2003 1191 1497 
Q 1191 994 1439 701 
Q 1688 409 2113 409 
Q 2538 409 2786 701 
Q 3034 994 3034 1497 
Q 3034 2003 2786 2293 
Q 2538 2584 2113 2584 
z
M 3366 4563 
L 3366 3988 
Q 3128 4100 2886 4159 
Q 2644 4219 2406 4219 
Q 1781 4219 1451 3797 
Q 1122 3375 1075 2522 
Q 1259 2794 1537 2939 
Q 1816 3084 2150 3084 
Q 2853 3084 3261 2657 
Q 3669 2231 3669 1497 
Q 3669 778 3244 343 
Q 2819 -91 2113 -91 
Q 1303 -91 875 529 
Q 447 1150 447 2328 
Q 447 3434 972 4092 
Q 1497 4750 2381 4750 
Q 2619 4750 2861 4703 
Q 3103 4656 3366 4563 
z
" transform="scale(0.015625)"/>
     </defs>
     <use xlink:href="#DejaVuSans-51"/>
     <use xlink:href="#DejaVuSans-20" x="78.710938"/>
     <use xlink:href="#DejaVuSans-5b" x="110.498047"/>
     <use xlink:href="#DejaVuSans-36" x="149.511719"/>
     <use xlink:href="#DejaVuSans-5d" x="213.134766"/>
    </g>
   </g>
   <g id="text_15">
    <!-- R [12] -->
    <g transform="translate(109.572434 292.237181) scale(0.1 -0.1)">
     <defs>
      <path id="DejaVuSans-52" d="M 2841 2188 
Q 3044 2119 3236 1894 
Q 3428 1669 3622 1275 
L 4263 0 
L 3584 0 
L 2988 1197 
Q 2756 1666 2539 1819 
Q 2322 1972 1947 1972 
L 1259 1972 
L 1259 0 
L 628 0 
L 628 4666 
L 2053 4666 
Q 2853 4666 3247 4331 
Q 3641 3997 3641 3322 
Q 3641 2881 3436 2590 
Q 3231 2300 2841 2188 
z
M 1259 4147 
L 1259 2491 
L 2053 2491 
Q 2509 2491 2742 2702 
Q 2975 2913 2975 3322 
Q 2975 3731 2742 3939 
Q 2509 4147 2053 4147 
L 1259 4147 
z
" transform="scale(0.015625)"/>
     </defs>
     <use xlink:href="#DejaVuSans-52"/>
     <use xlink:href="#DejaVuSans-20" x="69.482422"/>
     <use xlink:href="#DejaVuSans-5b" x="101.269531"/>
     <use xlink:href="#DejaVuSans-31" x="140.283203"/>
     <use xlink:href="#DejaVuSans-32" x="203.90625"/>
     <use xlink:href="#DejaVuSans-5d" x="267.529297"/>
    </g>
   </g>
   <g id="text_16">
    <!-- S [22] -->
    <g transform="translate(185.4738 296.557713) scale(0.1 -0.1)">
     <defs>
      <path id="DejaVuSans-53" d="M 3425 4513 
L 3425 3897 
Q 3066 4069 2747 4153 
Q 2428 4238 2131 4238 
Q 1616 4238 1336 4038 
Q 1056 3838 1056 3469 
Q 1056 3159 1242 3001 
Q 1428 2844 1947 2747 
L 2328 2669 
Q 3034 2534 3370 2195 
Q 3706 1856 3706 1288 
Q 3706 609 3251 259 
Q 2797 -91 1919 -91 
Q 1588 -91 1214 -16 
Q 841 59 441 206 
L 441 856 
Q 825 641 1194 531 
Q 1563 422 1919 422 
Q 2459 422 2753 634 
Q 3047 847 3047 1241 
Q 3047 1584 2836 1778 
Q 2625 1972 2144 2069 
L 1759 2144 
Q 1053 2284 737 2584 
Q 422 2884 422 3419 
Q 422 4038 858 4394 
Q 1294 4750 2059 4750 
Q 2388 4750 2728 4690 
Q 3069 4631 3425 4513 
z
" transform="scale(0.015625)"/>
     </defs>
     <use xlink:href="#DejaVuSans-53"/>
     <use xlink:href="#DejaVuSans-20" x="63.476562"/>
     <use xlink:href="#DejaVuSans-5b" x="95.263672"/>
     <use xlink:href="#DejaVuSans-32" x="134.277344"/>
     <use xlink:href="#DejaVuSans-32" x="197.900391"/>
     <use xlink:href="#DejaVuSans-5d" x="261.523438"/>
    </g>
   </g>
   <g id="text_17">
    <!-- T [23] -->
    <g transform="translate(243.084896 279.939024) scale(0.1 -0.1)">
     <defs>
      <path id="DejaVuSans-54" d="M -19 4666 
L 3928 4666 
L 3928 4134 
L 2272 4134 
L 2272 0 
L 1638 0 
L 1638 4134 
L -19 4134 
L -19 4666 
z
" transform="scale(0.015625)"/>
     </defs>
     <use xlink:href="#DejaVuSans-54"/>
     <use xlink:href="#DejaVuSans-20" x="61.083984"/>
     <use xlink:href="#DejaVuSans-5b" x="92.871094"/>
     <use xlink:href="#DejaVuSans-32" x="131.884766"/>
     <use xlink:href="#DejaVuSans-33" x="195.507812"/>
     <use xlink:href="#DejaVuSans-5d" x="259.130859"/>
    </g>
   </g>
   <g id="text_18">
    <!-- V [22] -->
    <g transform="translate(288.586138 240.889618) scale(0.1 -0.1)">
     <defs>
      <path id="DejaVuSans-56" d="M 1831 0 
L 50 4666 
L 709 4666 
L 2188 738 
L 3669 4666 
L 4325 4666 
L 2547 0 
L 1831 0 
z
" transform="scale(0.015625)"/>
     </defs>
     <use xlink:href="#DejaVuSans-56"/>
     <use xlink:href="#DejaVuSans-20" x="68.408203"/>
     <use xlink:href="#DejaVuSans-5b" x="100.195312"/>
     <use xlink:href="#DejaVuSans-32" x="139.208984"/>
     <use xlink:href="#DejaVuSans-32" x="202.832031"/>
     <use xlink:href="#DejaVuSans-5d" x="266.455078"/>
    </g>
   </g>
   <g id="text_19">
    <!-- W [5] -->
    <g transform="translate(306.513378 209.494548) scale(0.1 -0.1)">
     <defs>
      <path id="DejaVuSans-57" d="M 213 4666 
L 850 4666 
L 1831 722 
L 2809 4666 
L 3519 4666 
L 4500 722 
L 5478 4666 
L 6119 4666 
L 4947 0 
L 4153 0 
L 3169 4050 
L 2175 0 
L 1381 0 
L 213 4666 
z
" transform="scale(0.015625)"/>
     </defs>
     <use xlink:href="#DejaVuSans-57"/>
     <use xlink:href="#DejaVuSans-20" x="98.876953"/>
     <use xlink:href="#DejaVuSans-5b" x="130.664062"/>
     <use xlink:href="#DejaVuSans-35" x="169.677734"/>
     <use xlink:href="#DejaVuSans-5d" x="233.300781"/>
    </g>
   </g>
   <g id="text_20">
    <!-- Y [18] -->
    <g transform="translate(315.055584 179.881736) scale(0.1 -0.1)">
     <defs>
      <path id="DejaVuSans-59" d="M -13 4666 
L 666 4666 
L 1959 2747 
L 3244 4666 
L 3922 4666 
L 2272 2222 
L 2272 0 
L 1638 0 
L 1638 2222 
L -13 4666 
z
" transform="scale(0.015625)"/>
     </defs>
     <use xlink:href="#DejaVuSans-59"/>
     <use xlink:href="#DejaVuSans-20" x="61.083984"/>
     <use xlink:href="#DejaVuSans-5b" x="92.871094"/>
     <use xlink:href="#DejaVuSans-31" x="131.884766"/>
     <use xlink:href="#DejaVuSans-38" x="195.507812"/>
     <use xlink:href="#DejaVuSans-5d" x="259.130859"/>
    </g>
   </g>
   <g id="text_21">
    <!-- A0A452FQA3 [330] -->
    <g transform="translate(118.465971 153.072031) scale(0.12 -0.12)">
     <use xlink:href="#DejaVuSans-41"/>
     <use xlink:href="#DejaVuSans-30" x="68.408203"/>
     <use xlink:href="#DejaVuSans-41" x="132.03125"/>
     <use xlink:href="#DejaVuSans-34" x="200.439453"/>
     <use xlink:href="#DejaVuSans-35" x="264.0625"/>
     <use xlink:href="#DejaVuSans-32" x="327.685547"/>
     <use xlink:href="#DejaVuSans-46" x="391.308594"/>
     <use xlink:href="#DejaVuSans-51" x="448.828125"/>
     <use xlink:href="#DejaVuSans-41" x="527.539062"/>
     <use xlink:href="#DejaVuSans-33" x="595.947266"/>
     <use xlink:href="#DejaVuSans-20" x="659.570312"/>
     <use xlink:href="#DejaVuSans-5b" x="691.357422"/>
     <use xlink:href="#DejaVuSans-33" x="730.371094"/>
     <use xlink:href="#DejaVuSans-33" x="793.994141"/>
     <use xlink:href="#DejaVuSans-30" x="857.617188"/>
     <use xlink:href="#DejaVuSans-5d" x="921.240234"/>
    </g>
   </g>
  </g>
 </g>
</svg>
