<?xml version="1.0" encoding="utf-8" standalone="no"?>
<!DOCTYPE svg PUBLIC "-//W3C//DTD SVG 1.1//EN"
  "http://www.w3.org/Graphics/SVG/1.1/DTD/svg11.dtd">
<svg xmlns:xlink="http://www.w3.org/1999/xlink" width="351.398282pt" height="302.915298pt" viewBox="0 0 351.398282 302.915298" xmlns="http://www.w3.org/2000/svg" version="1.1">
 <metadata>
  <rdf:RDF xmlns:dc="http://purl.org/dc/elements/1.1/" xmlns:cc="http://creativecommons.org/ns#" xmlns:rdf="http://www.w3.org/1999/02/22-rdf-syntax-ns#">
   <cc:Work>
    <dc:type rdf:resource="http://purl.org/dc/dcmitype/StillImage"/>
    <dc:date>2024-09-27T16:07:35.149400</dc:date>
    <dc:format>image/svg+xml</dc:format>
    <dc:creator>
     <cc:Agent>
      <dc:title>Matplotlib v3.8.3, https://matplotlib.org/</dc:title>
     </cc:Agent>
    </dc:creator>
   </cc:Work>
  </rdf:RDF>
 </metadata>
 <defs>
  <style type="text/css">*{stroke-linejoin: round; stroke-linecap: butt}</style>
 </defs>
 <g id="figure_1">
  <g id="patch_1">
   <path d="M -0 302.915298 
L 351.398282 302.915298 
L 351.398282 -0 
L -0 -0 
z
" style="fill: #ffffff"/>
  </g>
  <g id="axes_1">
   <g id="patch_2">
    <path d="M 301.469464 151.20232 
C 301.469464 129.787622 296.084169 108.712842 285.810687 89.923355 
C 275.537205 71.133867 260.701679 55.226167 242.67355 43.668666 
L 173.735704 151.20232 
z
" style="fill: #1f77b4"/>
   </g>
   <g id="patch_3">
    <path d="M 242.456135 43.45391 
C 239.515541 41.568749 236.498857 39.805 233.413691 38.167112 
C 230.328525 36.529224 227.177473 35.018575 223.968481 33.638974 
L 173.518289 150.987564 
z
" style="fill: #ff7f0e"/>
   </g>
   <g id="patch_4">
    <path d="M 223.912973 33.613474 
C 222.629528 33.061698 221.337116 32.531016 220.036261 32.02164 
C 218.735405 31.512264 217.426281 31.024264 216.109416 30.557836 
L 173.462781 150.962064 
z
" style="fill: #aec7e8"/>
   </g>
   <g id="patch_5">
    <path d="M 216.059774 30.541165 
C 213.425867 29.608247 210.762056 28.762007 208.072642 28.003811 
C 205.383229 27.245616 202.66966 26.575873 199.936318 25.995664 
L 173.413139 150.945392 
z
" style="fill: #ffbb78"/>
   </g>
   <g id="patch_6">
    <path d="M 199.872357 25.981813 
C 197.480733 25.474141 195.075025 25.03524 192.658208 24.665651 
C 190.241391 24.296063 187.814461 23.99594 185.380418 23.765654 
L 173.349179 150.931541 
z
" style="fill: #98df8a"/>
   </g>
   <g id="patch_7">
    <path d="M 185.198006 23.769395 
C 173.007765 22.61607 160.71478 23.221565 148.696886 25.56727 
C 136.678992 27.912976 125.060591 31.97461 114.198786 37.627336 
L 173.166767 150.935282 
z
" style="fill: #2ca02c"/>
   </g>
   <g id="patch_8">
    <path d="M 114.020891 37.696994 
C 111.232318 39.14823 108.498269 40.701913 105.824329 42.354871 
C 103.150388 44.007829 100.53838 45.758934 97.993639 47.604609 
L 172.988872 151.00494 
z
" style="fill: #d62728"/>
   </g>
   <g id="patch_9">
    <path d="M 97.940194 47.642378 
C 96.243807 48.87275 94.577955 50.144683 92.944151 51.457021 
C 91.310348 52.769358 89.709086 54.121704 88.141822 55.512828 
L 172.935427 151.042708 
z
" style="fill: #9467bd"/>
   </g>
   <g id="patch_10">
    <path d="M 88.11533 55.535577 
C 87.592932 55.999264 87.074347 56.467229 86.559625 56.939424 
C 86.044904 57.411619 85.534065 57.888028 85.027159 58.368603 
L 172.908936 151.065457 
z
" style="fill: #ff9896"/>
   </g>
   <g id="patch_11">
    <path d="M 84.870757 58.631144 
C 67.266747 75.320725 54.775962 96.684744 48.866708 120.211835 
C 42.957454 143.738926 43.870721 168.469615 51.499153 191.49678 
L 172.752533 151.327998 
z
" style="fill: #c5b0d5"/>
   </g>
   <g id="patch_12">
    <path d="M 51.515883 191.810284 
C 51.955211 193.136437 52.416265 194.455292 52.89886 195.766319 
C 53.381454 197.077346 53.885524 198.380367 54.410867 199.674857 
L 172.769264 151.641502 
z
" style="fill: #c49c94"/>
   </g>
   <g id="patch_13">
    <path d="M 54.431352 199.72305 
C 55.482108 202.312204 56.617539 204.866182 57.835814 207.380862 
C 59.054088 209.895541 60.354549 212.369568 61.735098 214.798949 
L 172.78975 151.689695 
z
" style="fill: #8c564b"/>
   </g>
   <g id="patch_14">
    <path d="M 61.82336 214.928296 
C 66.660152 223.439698 72.459439 231.366905 79.106916 238.553668 
C 85.754393 245.74043 93.206095 252.139218 101.315144 257.623908 
L 172.878012 151.819043 
z
" style="fill: #e377c2"/>
   </g>
   <g id="patch_15">
    <path d="M 101.464038 257.73663 
C 105.804777 260.67256 110.322079 263.338586 114.990325 265.719588 
C 119.658572 268.100591 124.468922 270.19206 129.394095 271.982135 
L 173.026905 151.931765 
z
" style="fill: #7f7f7f"/>
   </g>
   <g id="patch_16">
    <path d="M 129.55546 272.034127 
C 137.439608 274.899653 145.586902 276.981552 153.879246 278.249647 
C 162.17159 279.517741 170.568725 279.965874 178.948934 279.58755 
L 173.18827 151.983757 
z
" style="fill: #f7b6d2"/>
   </g>
   <g id="patch_17">
    <path d="M 179.182187 279.571261 
C 189.662192 279.098142 200.044111 277.335747 210.093156 274.323933 
C 220.142202 271.312119 229.782047 267.073762 238.794686 261.704713 
L 173.421523 151.967467 
z
" style="fill: #c7c7c7"/>
   </g>
   <g id="patch_18">
    <path d="M 238.975184 261.609834 
C 244.077986 258.569971 248.962547 255.177884 253.593299 251.458275 
C 258.224051 247.738667 262.589725 243.700588 266.658531 239.373444 
L 173.602021 151.872589 
z
" style="fill: #dbdb8d"/>
   </g>
   <g id="patch_19">
    <path d="M 266.783585 239.229014 
C 273.249783 232.352261 278.933828 224.779883 283.731518 216.6507 
C 288.529208 208.521517 292.411045 199.88551 295.305866 190.900998 
L 173.727076 151.728159 
z
" style="fill: #bcbd22"/>
   </g>
   <g id="patch_20">
    <path d="M 295.365763 190.751653 
C 296.436975 187.426983 297.371364 184.059772 298.166572 180.658512 
C 298.961779 177.257252 299.617137 173.824804 300.130993 170.369825 
L 173.786973 151.578814 
z
" style="fill: #17becf"/>
   </g>
   <g id="patch_21">
    <path d="M 300.143519 170.287914 
C 300.605976 167.178516 300.95349 164.053105 301.18535 160.918067 
C 301.41721 157.783028 301.533259 154.640499 301.533259 151.496898 
L 173.799499 151.496904 
z
" style="fill: #9edae5"/>
   </g>
   <g id="patch_22">
    <path d="M 247.780084 151.457649 
C 247.780084 138.965742 244.638663 126.67212 238.645798 115.711586 
C 232.652933 104.751052 223.998877 95.47156 213.482468 88.729684 
L 173.268724 151.457649 
z
" style="fill: #ffffff"/>
   </g>
   <g id="patch_23">
    <path d="M 213.482468 88.729684 
C 211.767122 87.630007 210.007389 86.601153 208.207709 85.645719 
C 206.408029 84.690284 204.569915 83.809072 202.698004 83.004305 
L 173.268724 151.457649 
z
" style="fill: #ffffff"/>
   </g>
   <g id="patch_24">
    <path d="M 202.698004 83.004305 
C 201.949327 82.682436 201.19542 82.372871 200.436588 82.075735 
C 199.677756 81.778599 198.9141 81.493932 198.145928 81.221849 
L 173.268724 151.457649 
z
" style="fill: #ffffff"/>
   </g>
   <g id="patch_25">
    <path d="M 198.145928 81.221849 
C 196.609482 80.677647 195.055593 80.184007 193.486768 79.741727 
C 191.917943 79.299446 190.335029 78.908763 188.740579 78.570308 
L 173.268724 151.457649 
z
" style="fill: #ffffff"/>
   </g>
   <g id="patch_26">
    <path d="M 188.740579 78.570308 
C 187.345464 78.274166 185.942135 78.01814 184.532325 77.802547 
C 183.122515 77.586953 181.706806 77.411882 180.286947 77.277548 
L 173.268724 151.457649 
z
" style="fill: #ffffff"/>
   </g>
   <g id="patch_27">
    <path d="M 180.286947 77.277548 
C 173.175974 76.604775 166.005066 76.95798 158.994627 78.326309 
C 151.984189 79.694637 145.206788 82.063924 138.870736 85.361347 
L 173.268724 151.457649 
z
" style="fill: #ffffff"/>
   </g>
   <g id="patch_28">
    <path d="M 138.870736 85.361347 
C 137.244068 86.207901 135.649206 87.114216 134.089407 88.078442 
C 132.529609 89.042667 131.005937 90.064145 129.521505 91.140789 
L 173.268724 151.457649 
z
" style="fill: #ffffff"/>
   </g>
   <g id="patch_29">
    <path d="M 129.521505 91.140789 
C 128.531946 91.858506 127.560199 92.600467 126.607147 93.365998 
C 125.654094 94.131528 124.720025 94.920396 123.805788 95.731885 
L 173.268724 151.457649 
z
" style="fill: #ffffff"/>
   </g>
   <g id="patch_30">
    <path d="M 123.805788 95.731885 
C 123.501056 96.00237 123.198547 96.275349 122.898293 96.550796 
C 122.598039 96.826243 122.30005 97.104148 122.004355 97.384484 
L 173.268724 151.457649 
z
" style="fill: #ffffff"/>
   </g>
   <g id="patch_31">
    <path d="M 122.004355 97.384484 
C 111.735349 107.120073 104.449057 119.582417 101.001993 133.306554 
C 97.554928 147.03069 98.087667 161.456925 102.537586 174.889438 
L 173.268724 151.457649 
z
" style="fill: #ffffff"/>
   </g>
   <g id="patch_32">
    <path d="M 102.537586 174.889438 
C 102.79386 175.663027 103.062808 176.43236 103.344322 177.197125 
C 103.625835 177.961891 103.919876 178.721987 104.226326 179.477106 
L 173.268724 151.457649 
z
" style="fill: #ffffff"/>
   </g>
   <g id="patch_33">
    <path d="M 104.226326 179.477106 
C 104.839267 180.987446 105.501602 182.477266 106.212262 183.944163 
C 106.922922 185.411059 107.681524 186.854241 108.486845 188.27138 
L 173.268724 151.457649 
z
" style="fill: #ffffff"/>
   </g>
   <g id="patch_34">
    <path d="M 108.486845 188.27138 
C 111.308306 193.236364 114.691224 197.860568 118.568919 202.052846 
C 122.446614 206.245125 126.79344 209.977751 131.523719 213.177153 
L 173.268724 151.457649 
z
" style="fill: #ffffff"/>
   </g>
   <g id="patch_35">
    <path d="M 131.523719 213.177153 
C 134.055816 214.889779 136.690909 216.444961 139.414053 217.833879 
C 142.137197 219.222797 144.943234 220.442821 147.816252 221.487031 
L 173.268724 151.457649 
z
" style="fill: #ffffff"/>
   </g>
   <g id="patch_36">
    <path d="M 147.816252 221.487031 
C 152.415338 223.158588 157.167926 224.37303 162.005127 225.112751 
C 166.842328 225.852473 171.740656 226.113884 176.629112 225.893195 
L 173.268724 151.457649 
z
" style="fill: #ffffff"/>
   </g>
   <g id="patch_37">
    <path d="M 176.629112 225.893195 
C 182.742448 225.617209 188.798567 224.589145 194.660511 222.832254 
C 200.522454 221.075362 206.145697 218.602987 211.403069 215.471042 
L 173.268724 151.457649 
z
" style="fill: #ffffff"/>
   </g>
   <g id="patch_38">
    <path d="M 211.403069 215.471042 
C 214.379704 213.697788 217.229031 211.719071 219.930303 209.549299 
C 222.631575 207.379527 225.178218 205.023981 227.551688 202.499814 
L 173.268724 151.457649 
z
" style="fill: #ffffff"/>
   </g>
   <g id="patch_39">
    <path d="M 227.551688 202.499814 
C 231.323637 198.488375 234.63933 194.071154 237.437982 189.329131 
C 240.236635 184.587107 242.50104 179.549436 244.189685 174.308471 
L 173.268724 151.457649 
z
" style="fill: #ffffff"/>
   </g>
   <g id="patch_40">
    <path d="M 244.189685 174.308471 
C 244.814559 172.36908 245.359619 170.404874 245.82349 168.420806 
C 246.287362 166.436737 246.669654 164.434476 246.969403 162.419072 
L 173.268724 151.457649 
z
" style="fill: #ffffff"/>
   </g>
   <g id="patch_41">
    <path d="M 246.969403 162.419072 
C 247.23917 160.605256 247.441886 158.7821 247.577138 156.953327 
C 247.712389 155.124555 247.780084 153.291413 247.780084 151.457646 
L 173.268724 151.457649 
z
" style="fill: #ffffff"/>
   </g>
   <g id="matplotlib.axis_1"/>
   <g id="matplotlib.axis_2"/>
   <g id="text_1">
    <!-- A [61] -->
    <g transform="translate(297.018185 86.554833) scale(0.1 -0.1)">
     <defs>
      <path id="DejaVuSans-41" d="M 2188 4044 
L 1331 1722 
L 3047 1722 
L 2188 4044 
z
M 1831 4666 
L 2547 4666 
L 4325 0 
L 3669 0 
L 3244 1197 
L 1141 1197 
L 716 0 
L 50 0 
L 1831 4666 
z
" transform="scale(0.015625)"/>
      <path id="DejaVuSans-20" transform="scale(0.015625)"/>
      <path id="DejaVuSans-5b" d="M 550 4863 
L 1875 4863 
L 1875 4416 
L 1125 4416 
L 1125 -397 
L 1875 -397 
L 1875 -844 
L 550 -844 
L 550 4863 
z
" transform="scale(0.015625)"/>
      <path id="DejaVuSans-36" d="M 2113 2584 
Q 1688 2584 1439 2293 
Q 1191 2003 1191 1497 
Q 1191 994 1439 701 
Q 1688 409 2113 409 
Q 2538 409 2786 701 
Q 3034 994 3034 1497 
Q 3034 2003 2786 2293 
Q 2538 2584 2113 2584 
z
M 3366 4563 
L 3366 3988 
Q 3128 4100 2886 4159 
Q 2644 4219 2406 4219 
Q 1781 4219 1451 3797 
Q 1122 3375 1075 2522 
Q 1259 2794 1537 2939 
Q 1816 3084 2150 3084 
Q 2853 3084 3261 2657 
Q 3669 2231 3669 1497 
Q 3669 778 3244 343 
Q 2819 -91 2113 -91 
Q 1303 -91 875 529 
Q 447 1150 447 2328 
Q 447 3434 972 4092 
Q 1497 4750 2381 4750 
Q 2619 4750 2861 4703 
Q 3103 4656 3366 4563 
z
" transform="scale(0.015625)"/>
      <path id="DejaVuSans-31" d="M 794 531 
L 1825 531 
L 1825 4091 
L 703 3866 
L 703 4441 
L 1819 4666 
L 2450 4666 
L 2450 531 
L 3481 531 
L 3481 0 
L 794 0 
L 794 531 
z
" transform="scale(0.015625)"/>
      <path id="DejaVuSans-5d" d="M 1947 4863 
L 1947 -844 
L 622 -844 
L 622 -397 
L 1369 -397 
L 1369 4416 
L 622 4416 
L 622 4863 
L 1947 4863 
z
" transform="scale(0.015625)"/>
     </defs>
     <use xlink:href="#DejaVuSans-41"/>
     <use xlink:href="#DejaVuSans-20" x="68.408203"/>
     <use xlink:href="#DejaVuSans-5b" x="100.195312"/>
     <use xlink:href="#DejaVuSans-36" x="139.208984"/>
     <use xlink:href="#DejaVuSans-31" x="202.832031"/>
     <use xlink:href="#DejaVuSans-5d" x="266.455078"/>
    </g>
   </g>
   <g id="text_2">
    <!-- C [10] -->
    <g transform="translate(239.403231 29.644442) scale(0.1 -0.1)">
     <defs>
      <path id="DejaVuSans-43" d="M 4122 4306 
L 4122 3641 
Q 3803 3938 3442 4084 
Q 3081 4231 2675 4231 
Q 1875 4231 1450 3742 
Q 1025 3253 1025 2328 
Q 1025 1406 1450 917 
Q 1875 428 2675 428 
Q 3081 428 3442 575 
Q 3803 722 4122 1019 
L 4122 359 
Q 3791 134 3420 21 
Q 3050 -91 2638 -91 
Q 1578 -91 968 557 
Q 359 1206 359 2328 
Q 359 3453 968 4101 
Q 1578 4750 2638 4750 
Q 3056 4750 3426 4639 
Q 3797 4528 4122 4306 
z
" transform="scale(0.015625)"/>
      <path id="DejaVuSans-30" d="M 2034 4250 
Q 1547 4250 1301 3770 
Q 1056 3291 1056 2328 
Q 1056 1369 1301 889 
Q 1547 409 2034 409 
Q 2525 409 2770 889 
Q 3016 1369 3016 2328 
Q 3016 3291 2770 3770 
Q 2525 4250 2034 4250 
z
M 2034 4750 
Q 2819 4750 3233 4129 
Q 3647 3509 3647 2328 
Q 3647 1150 3233 529 
Q 2819 -91 2034 -91 
Q 1250 -91 836 529 
Q 422 1150 422 2328 
Q 422 3509 836 4129 
Q 1250 4750 2034 4750 
z
" transform="scale(0.015625)"/>
     </defs>
     <use xlink:href="#DejaVuSans-43"/>
     <use xlink:href="#DejaVuSans-20" x="69.824219"/>
     <use xlink:href="#DejaVuSans-5b" x="101.611328"/>
     <use xlink:href="#DejaVuSans-31" x="140.625"/>
     <use xlink:href="#DejaVuSans-30" x="204.248047"/>
     <use xlink:href="#DejaVuSans-5d" x="267.871094"/>
    </g>
   </g>
   <g id="text_3">
    <!-- D [4] -->
    <g transform="translate(224.693609 22.886973) scale(0.1 -0.1)">
     <defs>
      <path id="DejaVuSans-44" d="M 1259 4147 
L 1259 519 
L 2022 519 
Q 2988 519 3436 956 
Q 3884 1394 3884 2338 
Q 3884 3275 3436 3711 
Q 2988 4147 2022 4147 
L 1259 4147 
z
M 628 4666 
L 1925 4666 
Q 3281 4666 3915 4102 
Q 4550 3538 4550 2338 
Q 4550 1131 3912 565 
Q 3275 0 1925 0 
L 628 0 
L 628 4666 
z
" transform="scale(0.015625)"/>
      <path id="DejaVuSans-34" d="M 2419 4116 
L 825 1625 
L 2419 1625 
L 2419 4116 
z
M 2253 4666 
L 3047 4666 
L 3047 1625 
L 3713 1625 
L 3713 1100 
L 3047 1100 
L 3047 0 
L 2419 0 
L 2419 1100 
L 313 1100 
L 313 1709 
L 2253 4666 
z
" transform="scale(0.015625)"/>
     </defs>
     <use xlink:href="#DejaVuSans-44"/>
     <use xlink:href="#DejaVuSans-20" x="77.001953"/>
     <use xlink:href="#DejaVuSans-5b" x="108.789062"/>
     <use xlink:href="#DejaVuSans-34" x="147.802734"/>
     <use xlink:href="#DejaVuSans-5d" x="211.425781"/>
    </g>
   </g>
   <g id="text_4">
    <!-- E [8] -->
    <g transform="translate(211.538593 18.469028) scale(0.1 -0.1)">
     <defs>
      <path id="DejaVuSans-45" d="M 628 4666 
L 3578 4666 
L 3578 4134 
L 1259 4134 
L 1259 2753 
L 3481 2753 
L 3481 2222 
L 1259 2222 
L 1259 531 
L 3634 531 
L 3634 0 
L 628 0 
L 628 4666 
z
" transform="scale(0.015625)"/>
      <path id="DejaVuSans-38" d="M 2034 2216 
Q 1584 2216 1326 1975 
Q 1069 1734 1069 1313 
Q 1069 891 1326 650 
Q 1584 409 2034 409 
Q 2484 409 2743 651 
Q 3003 894 3003 1313 
Q 3003 1734 2745 1975 
Q 2488 2216 2034 2216 
z
M 1403 2484 
Q 997 2584 770 2862 
Q 544 3141 544 3541 
Q 544 4100 942 4425 
Q 1341 4750 2034 4750 
Q 2731 4750 3128 4425 
Q 3525 4100 3525 3541 
Q 3525 3141 3298 2862 
Q 3072 2584 2669 2484 
Q 3125 2378 3379 2068 
Q 3634 1759 3634 1313 
Q 3634 634 3220 271 
Q 2806 -91 2034 -91 
Q 1263 -91 848 271 
Q 434 634 434 1313 
Q 434 1759 690 2068 
Q 947 2378 1403 2484 
z
M 1172 3481 
Q 1172 3119 1398 2916 
Q 1625 2713 2034 2713 
Q 2441 2713 2670 2916 
Q 2900 3119 2900 3481 
Q 2900 3844 2670 4047 
Q 2441 4250 2034 4250 
Q 1625 4250 1398 4047 
Q 1172 3844 1172 3481 
z
" transform="scale(0.015625)"/>
     </defs>
     <use xlink:href="#DejaVuSans-45"/>
     <use xlink:href="#DejaVuSans-20" x="63.183594"/>
     <use xlink:href="#DejaVuSans-5b" x="94.970703"/>
     <use xlink:href="#DejaVuSans-38" x="133.984375"/>
     <use xlink:href="#DejaVuSans-5d" x="197.607422"/>
    </g>
   </g>
   <g id="text_5">
    <!-- F [7] -->
    <g transform="translate(194.589111 14.798437) scale(0.1 -0.1)">
     <defs>
      <path id="DejaVuSans-46" d="M 628 4666 
L 3309 4666 
L 3309 4134 
L 1259 4134 
L 1259 2759 
L 3109 2759 
L 3109 2228 
L 1259 2228 
L 1259 0 
L 628 0 
L 628 4666 
z
" transform="scale(0.015625)"/>
      <path id="DejaVuSans-37" d="M 525 4666 
L 3525 4666 
L 3525 4397 
L 1831 0 
L 1172 0 
L 2766 4134 
L 525 4134 
L 525 4666 
z
" transform="scale(0.015625)"/>
     </defs>
     <use xlink:href="#DejaVuSans-46"/>
     <use xlink:href="#DejaVuSans-20" x="57.519531"/>
     <use xlink:href="#DejaVuSans-5b" x="89.306641"/>
     <use xlink:href="#DejaVuSans-37" x="128.320312"/>
     <use xlink:href="#DejaVuSans-5d" x="191.943359"/>
    </g>
   </g>
   <g id="text_6">
    <!-- G [35] -->
    <g transform="translate(114.79521 15.789844) scale(0.1 -0.1)">
     <defs>
      <path id="DejaVuSans-47" d="M 3809 666 
L 3809 1919 
L 2778 1919 
L 2778 2438 
L 4434 2438 
L 4434 434 
Q 4069 175 3628 42 
Q 3188 -91 2688 -91 
Q 1594 -91 976 548 
Q 359 1188 359 2328 
Q 359 3472 976 4111 
Q 1594 4750 2688 4750 
Q 3144 4750 3555 4637 
Q 3966 4525 4313 4306 
L 4313 3634 
Q 3963 3931 3569 4081 
Q 3175 4231 2741 4231 
Q 1884 4231 1454 3753 
Q 1025 3275 1025 2328 
Q 1025 1384 1454 906 
Q 1884 428 2741 428 
Q 3075 428 3337 486 
Q 3600 544 3809 666 
z
" transform="scale(0.015625)"/>
      <path id="DejaVuSans-33" d="M 2597 2516 
Q 3050 2419 3304 2112 
Q 3559 1806 3559 1356 
Q 3559 666 3084 287 
Q 2609 -91 1734 -91 
Q 1441 -91 1130 -33 
Q 819 25 488 141 
L 488 750 
Q 750 597 1062 519 
Q 1375 441 1716 441 
Q 2309 441 2620 675 
Q 2931 909 2931 1356 
Q 2931 1769 2642 2001 
Q 2353 2234 1838 2234 
L 1294 2234 
L 1294 2753 
L 1863 2753 
Q 2328 2753 2575 2939 
Q 2822 3125 2822 3475 
Q 2822 3834 2567 4026 
Q 2313 4219 1838 4219 
Q 1578 4219 1281 4162 
Q 984 4106 628 3988 
L 628 4550 
Q 988 4650 1302 4700 
Q 1616 4750 1894 4750 
Q 2613 4750 3031 4423 
Q 3450 4097 3450 3541 
Q 3450 3153 3228 2886 
Q 3006 2619 2597 2516 
z
" transform="scale(0.015625)"/>
      <path id="DejaVuSans-35" d="M 691 4666 
L 3169 4666 
L 3169 4134 
L 1269 4134 
L 1269 2991 
Q 1406 3038 1543 3061 
Q 1681 3084 1819 3084 
Q 2600 3084 3056 2656 
Q 3513 2228 3513 1497 
Q 3513 744 3044 326 
Q 2575 -91 1722 -91 
Q 1428 -91 1123 -41 
Q 819 9 494 109 
L 494 744 
Q 775 591 1075 516 
Q 1375 441 1709 441 
Q 2250 441 2565 725 
Q 2881 1009 2881 1497 
Q 2881 1984 2565 2268 
Q 2250 2553 1709 2553 
Q 1456 2553 1204 2497 
Q 953 2441 691 2322 
L 691 4666 
z
" transform="scale(0.015625)"/>
     </defs>
     <use xlink:href="#DejaVuSans-47"/>
     <use xlink:href="#DejaVuSans-20" x="77.490234"/>
     <use xlink:href="#DejaVuSans-5b" x="109.277344"/>
     <use xlink:href="#DejaVuSans-33" x="148.291016"/>
     <use xlink:href="#DejaVuSans-35" x="211.914062"/>
     <use xlink:href="#DejaVuSans-5d" x="275.537109"/>
    </g>
   </g>
   <g id="text_7">
    <!-- H [9] -->
    <g transform="translate(74.243812 34.249239) scale(0.1 -0.1)">
     <defs>
      <path id="DejaVuSans-48" d="M 628 4666 
L 1259 4666 
L 1259 2753 
L 3553 2753 
L 3553 4666 
L 4184 4666 
L 4184 0 
L 3553 0 
L 3553 2222 
L 1259 2222 
L 1259 0 
L 628 0 
L 628 4666 
z
" transform="scale(0.015625)"/>
      <path id="DejaVuSans-39" d="M 703 97 
L 703 672 
Q 941 559 1184 500 
Q 1428 441 1663 441 
Q 2288 441 2617 861 
Q 2947 1281 2994 2138 
Q 2813 1869 2534 1725 
Q 2256 1581 1919 1581 
Q 1219 1581 811 2004 
Q 403 2428 403 3163 
Q 403 3881 828 4315 
Q 1253 4750 1959 4750 
Q 2769 4750 3195 4129 
Q 3622 3509 3622 2328 
Q 3622 1225 3098 567 
Q 2575 -91 1691 -91 
Q 1453 -91 1209 -44 
Q 966 3 703 97 
z
M 1959 2075 
Q 2384 2075 2632 2365 
Q 2881 2656 2881 3163 
Q 2881 3666 2632 3958 
Q 2384 4250 1959 4250 
Q 1534 4250 1286 3958 
Q 1038 3666 1038 3163 
Q 1038 2656 1286 2365 
Q 1534 2075 1959 2075 
z
" transform="scale(0.015625)"/>
     </defs>
     <use xlink:href="#DejaVuSans-48"/>
     <use xlink:href="#DejaVuSans-20" x="75.195312"/>
     <use xlink:href="#DejaVuSans-5b" x="106.982422"/>
     <use xlink:href="#DejaVuSans-39" x="145.996094"/>
     <use xlink:href="#DejaVuSans-5d" x="209.619141"/>
    </g>
   </g>
   <g id="text_8">
    <!-- I [6] -->
    <g transform="translate(64.651274 44.257827) scale(0.1 -0.1)">
     <defs>
      <path id="DejaVuSans-49" d="M 628 4666 
L 1259 4666 
L 1259 0 
L 628 0 
L 628 4666 
z
" transform="scale(0.015625)"/>
     </defs>
     <use xlink:href="#DejaVuSans-49"/>
     <use xlink:href="#DejaVuSans-20" x="29.492188"/>
     <use xlink:href="#DejaVuSans-5b" x="61.279297"/>
     <use xlink:href="#DejaVuSans-36" x="100.292969"/>
     <use xlink:href="#DejaVuSans-5d" x="163.916016"/>
    </g>
   </g>
   <g id="text_9">
    <!-- K [2] -->
    <g transform="translate(54.023132 50.286196) scale(0.1 -0.1)">
     <defs>
      <path id="DejaVuSans-4b" d="M 628 4666 
L 1259 4666 
L 1259 2694 
L 3353 4666 
L 4166 4666 
L 1850 2491 
L 4331 0 
L 3500 0 
L 1259 2247 
L 1259 0 
L 628 0 
L 628 4666 
z
" transform="scale(0.015625)"/>
      <path id="DejaVuSans-32" d="M 1228 531 
L 3431 531 
L 3431 0 
L 469 0 
L 469 531 
Q 828 903 1448 1529 
Q 2069 2156 2228 2338 
Q 2531 2678 2651 2914 
Q 2772 3150 2772 3378 
Q 2772 3750 2511 3984 
Q 2250 4219 1831 4219 
Q 1534 4219 1204 4116 
Q 875 4013 500 3803 
L 500 4441 
Q 881 4594 1212 4672 
Q 1544 4750 1819 4750 
Q 2544 4750 2975 4387 
Q 3406 4025 3406 3419 
Q 3406 3131 3298 2873 
Q 3191 2616 2906 2266 
Q 2828 2175 2409 1742 
Q 1991 1309 1228 531 
z
" transform="scale(0.015625)"/>
     </defs>
     <use xlink:href="#DejaVuSans-4b"/>
     <use xlink:href="#DejaVuSans-20" x="65.576172"/>
     <use xlink:href="#DejaVuSans-5b" x="97.363281"/>
     <use xlink:href="#DejaVuSans-32" x="136.376953"/>
     <use xlink:href="#DejaVuSans-5d" x="200"/>
    </g>
   </g>
   <g id="text_10">
    <!-- L [69] -->
    <g transform="translate(7.2 119.859594) scale(0.1 -0.1)">
     <defs>
      <path id="DejaVuSans-4c" d="M 628 4666 
L 1259 4666 
L 1259 531 
L 3531 531 
L 3531 0 
L 628 0 
L 628 4666 
z
" transform="scale(0.015625)"/>
     </defs>
     <use xlink:href="#DejaVuSans-4c"/>
     <use xlink:href="#DejaVuSans-20" x="55.712891"/>
     <use xlink:href="#DejaVuSans-5b" x="87.5"/>
     <use xlink:href="#DejaVuSans-36" x="126.513672"/>
     <use xlink:href="#DejaVuSans-39" x="190.136719"/>
     <use xlink:href="#DejaVuSans-5d" x="253.759766"/>
    </g>
   </g>
   <g id="text_11">
    <!-- M [4] -->
    <g transform="translate(14.939944 202.938176) scale(0.1 -0.1)">
     <defs>
      <path id="DejaVuSans-4d" d="M 628 4666 
L 1569 4666 
L 2759 1491 
L 3956 4666 
L 4897 4666 
L 4897 0 
L 4281 0 
L 4281 4097 
L 3078 897 
L 2444 897 
L 1241 4097 
L 1241 0 
L 628 0 
L 628 4666 
z
" transform="scale(0.015625)"/>
     </defs>
     <use xlink:href="#DejaVuSans-4d"/>
     <use xlink:href="#DejaVuSans-20" x="86.279297"/>
     <use xlink:href="#DejaVuSans-5b" x="118.066406"/>
     <use xlink:href="#DejaVuSans-34" x="157.080078"/>
     <use xlink:href="#DejaVuSans-5d" x="220.703125"/>
    </g>
   </g>
   <g id="text_12">
    <!-- N [8] -->
    <g transform="translate(21.51542 215.709353) scale(0.1 -0.1)">
     <defs>
      <path id="DejaVuSans-4e" d="M 628 4666 
L 1478 4666 
L 3547 763 
L 3547 4666 
L 4159 4666 
L 4159 0 
L 3309 0 
L 1241 3903 
L 1241 0 
L 628 0 
L 628 4666 
z
" transform="scale(0.015625)"/>
     </defs>
     <use xlink:href="#DejaVuSans-4e"/>
     <use xlink:href="#DejaVuSans-20" x="74.804688"/>
     <use xlink:href="#DejaVuSans-5b" x="106.591797"/>
     <use xlink:href="#DejaVuSans-38" x="145.605469"/>
     <use xlink:href="#DejaVuSans-5d" x="209.228516"/>
    </g>
   </g>
   <g id="text_13">
    <!-- P [28] -->
    <g transform="translate(39.993869 249.986505) scale(0.1 -0.1)">
     <defs>
      <path id="DejaVuSans-50" d="M 1259 4147 
L 1259 2394 
L 2053 2394 
Q 2494 2394 2734 2622 
Q 2975 2850 2975 3272 
Q 2975 3691 2734 3919 
Q 2494 4147 2053 4147 
L 1259 4147 
z
M 628 4666 
L 2053 4666 
Q 2838 4666 3239 4311 
Q 3641 3956 3641 3272 
Q 3641 2581 3239 2228 
Q 2838 1875 2053 1875 
L 1259 1875 
L 1259 0 
L 628 0 
L 628 4666 
z
" transform="scale(0.015625)"/>
     </defs>
     <use xlink:href="#DejaVuSans-50"/>
     <use xlink:href="#DejaVuSans-20" x="60.302734"/>
     <use xlink:href="#DejaVuSans-5b" x="92.089844"/>
     <use xlink:href="#DejaVuSans-32" x="131.103516"/>
     <use xlink:href="#DejaVuSans-38" x="194.726562"/>
     <use xlink:href="#DejaVuSans-5d" x="258.349609"/>
    </g>
   </g>
   <g id="text_14">
    <!-- Q [15] -->
    <g transform="translate(77.608542 279.857746) scale(0.1 -0.1)">
     <defs>
      <path id="DejaVuSans-51" d="M 2522 4238 
Q 1834 4238 1429 3725 
Q 1025 3213 1025 2328 
Q 1025 1447 1429 934 
Q 1834 422 2522 422 
Q 3209 422 3611 934 
Q 4013 1447 4013 2328 
Q 4013 3213 3611 3725 
Q 3209 4238 2522 4238 
z
M 3406 84 
L 4238 -825 
L 3475 -825 
L 2784 -78 
Q 2681 -84 2626 -87 
Q 2572 -91 2522 -91 
Q 1538 -91 948 567 
Q 359 1225 359 2328 
Q 359 3434 948 4092 
Q 1538 4750 2522 4750 
Q 3503 4750 4090 4092 
Q 4678 3434 4678 2328 
Q 4678 1516 4351 937 
Q 4025 359 3406 84 
z
" transform="scale(0.015625)"/>
     </defs>
     <use xlink:href="#DejaVuSans-51"/>
     <use xlink:href="#DejaVuSans-20" x="78.710938"/>
     <use xlink:href="#DejaVuSans-5b" x="110.498047"/>
     <use xlink:href="#DejaVuSans-31" x="149.511719"/>
     <use xlink:href="#DejaVuSans-35" x="213.134766"/>
     <use xlink:href="#DejaVuSans-5d" x="276.757812"/>
    </g>
   </g>
   <g id="text_15">
    <!-- R [24] -->
    <g transform="translate(121.293656 293.635611) scale(0.1 -0.1)">
     <defs>
      <path id="DejaVuSans-52" d="M 2841 2188 
Q 3044 2119 3236 1894 
Q 3428 1669 3622 1275 
L 4263 0 
L 3584 0 
L 2988 1197 
Q 2756 1666 2539 1819 
Q 2322 1972 1947 1972 
L 1259 1972 
L 1259 0 
L 628 0 
L 628 4666 
L 2053 4666 
Q 2853 4666 3247 4331 
Q 3641 3997 3641 3322 
Q 3641 2881 3436 2590 
Q 3231 2300 2841 2188 
z
M 1259 4147 
L 1259 2491 
L 2053 2491 
Q 2509 2491 2742 2702 
Q 2975 2913 2975 3322 
Q 2975 3731 2742 3939 
Q 2509 4147 2053 4147 
L 1259 4147 
z
" transform="scale(0.015625)"/>
     </defs>
     <use xlink:href="#DejaVuSans-52"/>
     <use xlink:href="#DejaVuSans-20" x="69.482422"/>
     <use xlink:href="#DejaVuSans-5b" x="101.269531"/>
     <use xlink:href="#DejaVuSans-32" x="140.283203"/>
     <use xlink:href="#DejaVuSans-34" x="203.90625"/>
     <use xlink:href="#DejaVuSans-5d" x="267.529297"/>
    </g>
   </g>
   <g id="text_16">
    <!-- S [30] -->
    <g transform="translate(213.76032 289.318955) scale(0.1 -0.1)">
     <defs>
      <path id="DejaVuSans-53" d="M 3425 4513 
L 3425 3897 
Q 3066 4069 2747 4153 
Q 2428 4238 2131 4238 
Q 1616 4238 1336 4038 
Q 1056 3838 1056 3469 
Q 1056 3159 1242 3001 
Q 1428 2844 1947 2747 
L 2328 2669 
Q 3034 2534 3370 2195 
Q 3706 1856 3706 1288 
Q 3706 609 3251 259 
Q 2797 -91 1919 -91 
Q 1588 -91 1214 -16 
Q 841 59 441 206 
L 441 856 
Q 825 641 1194 531 
Q 1563 422 1919 422 
Q 2459 422 2753 634 
Q 3047 847 3047 1241 
Q 3047 1584 2836 1778 
Q 2625 1972 2144 2069 
L 1759 2144 
Q 1053 2284 737 2584 
Q 422 2884 422 3419 
Q 422 4038 858 4394 
Q 1294 4750 2059 4750 
Q 2388 4750 2728 4690 
Q 3069 4631 3425 4513 
z
" transform="scale(0.015625)"/>
     </defs>
     <use xlink:href="#DejaVuSans-53"/>
     <use xlink:href="#DejaVuSans-20" x="63.476562"/>
     <use xlink:href="#DejaVuSans-5b" x="95.263672"/>
     <use xlink:href="#DejaVuSans-33" x="134.277344"/>
     <use xlink:href="#DejaVuSans-30" x="197.900391"/>
     <use xlink:href="#DejaVuSans-5d" x="261.523438"/>
    </g>
   </g>
   <g id="text_17">
    <!-- T [17] -->
    <g transform="translate(261.592427 264.176219) scale(0.1 -0.1)">
     <defs>
      <path id="DejaVuSans-54" d="M -19 4666 
L 3928 4666 
L 3928 4134 
L 2272 4134 
L 2272 0 
L 1638 0 
L 1638 4134 
L -19 4134 
L -19 4666 
z
" transform="scale(0.015625)"/>
     </defs>
     <use xlink:href="#DejaVuSans-54"/>
     <use xlink:href="#DejaVuSans-20" x="61.083984"/>
     <use xlink:href="#DejaVuSans-5b" x="92.871094"/>
     <use xlink:href="#DejaVuSans-31" x="131.884766"/>
     <use xlink:href="#DejaVuSans-37" x="195.507812"/>
     <use xlink:href="#DejaVuSans-5d" x="259.130859"/>
    </g>
   </g>
   <g id="text_18">
    <!-- V [27] -->
    <g transform="translate(294.731962 225.902329) scale(0.1 -0.1)">
     <defs>
      <path id="DejaVuSans-56" d="M 1831 0 
L 50 4666 
L 709 4666 
L 2188 738 
L 3669 4666 
L 4325 4666 
L 2547 0 
L 1831 0 
z
" transform="scale(0.015625)"/>
     </defs>
     <use xlink:href="#DejaVuSans-56"/>
     <use xlink:href="#DejaVuSans-20" x="68.408203"/>
     <use xlink:href="#DejaVuSans-5b" x="100.195312"/>
     <use xlink:href="#DejaVuSans-32" x="139.208984"/>
     <use xlink:href="#DejaVuSans-37" x="202.832031"/>
     <use xlink:href="#DejaVuSans-5d" x="266.455078"/>
    </g>
   </g>
   <g id="text_19">
    <!-- W [10] -->
    <g transform="translate(310.604532 186.325856) scale(0.1 -0.1)">
     <defs>
      <path id="DejaVuSans-57" d="M 213 4666 
L 850 4666 
L 1831 722 
L 2809 4666 
L 3519 4666 
L 4500 722 
L 5478 4666 
L 6119 4666 
L 4947 0 
L 4153 0 
L 3169 4050 
L 2175 0 
L 1381 0 
L 213 4666 
z
" transform="scale(0.015625)"/>
     </defs>
     <use xlink:href="#DejaVuSans-57"/>
     <use xlink:href="#DejaVuSans-20" x="98.876953"/>
     <use xlink:href="#DejaVuSans-5b" x="130.664062"/>
     <use xlink:href="#DejaVuSans-31" x="169.677734"/>
     <use xlink:href="#DejaVuSans-30" x="233.300781"/>
     <use xlink:href="#DejaVuSans-5d" x="296.923828"/>
    </g>
   </g>
   <g id="text_20">
    <!-- Y [9] -->
    <g transform="translate(313.923935 164.619558) scale(0.1 -0.1)">
     <defs>
      <path id="DejaVuSans-59" d="M -13 4666 
L 666 4666 
L 1959 2747 
L 3244 4666 
L 3922 4666 
L 2272 2222 
L 2272 0 
L 1638 0 
L 1638 2222 
L -13 4666 
z
" transform="scale(0.015625)"/>
     </defs>
     <use xlink:href="#DejaVuSans-59"/>
     <use xlink:href="#DejaVuSans-20" x="61.083984"/>
     <use xlink:href="#DejaVuSans-5b" x="92.871094"/>
     <use xlink:href="#DejaVuSans-39" x="131.884766"/>
     <use xlink:href="#DejaVuSans-5d" x="195.507812"/>
    </g>
   </g>
   <g id="text_21">
    <!-- A0A452DPD7 [383] -->
    <g transform="translate(115.073412 151.457649) scale(0.12 -0.12)">
     <use xlink:href="#DejaVuSans-41"/>
     <use xlink:href="#DejaVuSans-30" x="68.408203"/>
     <use xlink:href="#DejaVuSans-41" x="132.03125"/>
     <use xlink:href="#DejaVuSans-34" x="200.439453"/>
     <use xlink:href="#DejaVuSans-35" x="264.0625"/>
     <use xlink:href="#DejaVuSans-32" x="327.685547"/>
     <use xlink:href="#DejaVuSans-44" x="391.308594"/>
     <use xlink:href="#DejaVuSans-50" x="468.310547"/>
     <use xlink:href="#DejaVuSans-44" x="528.613281"/>
     <use xlink:href="#DejaVuSans-37" x="605.615234"/>
     <use xlink:href="#DejaVuSans-20" x="669.238281"/>
     <use xlink:href="#DejaVuSans-5b" x="701.025391"/>
     <use xlink:href="#DejaVuSans-33" x="740.039062"/>
     <use xlink:href="#DejaVuSans-38" x="803.662109"/>
     <use xlink:href="#DejaVuSans-33" x="867.285156"/>
     <use xlink:href="#DejaVuSans-5d" x="930.908203"/>
    </g>
   </g>
  </g>
 </g>
</svg>
