<?xml version="1.0" encoding="utf-8" standalone="no"?>
<!DOCTYPE svg PUBLIC "-//W3C//DTD SVG 1.1//EN"
  "http://www.w3.org/Graphics/SVG/1.1/DTD/svg11.dtd">
<svg xmlns:xlink="http://www.w3.org/1999/xlink" width="355.051884pt" height="304.687341pt" viewBox="0 0 355.051884 304.687341" xmlns="http://www.w3.org/2000/svg" version="1.1">
 <metadata>
  <rdf:RDF xmlns:dc="http://purl.org/dc/elements/1.1/" xmlns:cc="http://creativecommons.org/ns#" xmlns:rdf="http://www.w3.org/1999/02/22-rdf-syntax-ns#">
   <cc:Work>
    <dc:type rdf:resource="http://purl.org/dc/dcmitype/StillImage"/>
    <dc:date>2024-09-27T16:07:34.460307</dc:date>
    <dc:format>image/svg+xml</dc:format>
    <dc:creator>
     <cc:Agent>
      <dc:title>Matplotlib v3.8.3, https://matplotlib.org/</dc:title>
     </cc:Agent>
    </dc:creator>
   </cc:Work>
  </rdf:RDF>
 </metadata>
 <defs>
  <style type="text/css">*{stroke-linejoin: round; stroke-linecap: butt}</style>
 </defs>
 <g id="figure_1">
  <g id="patch_1">
   <path d="M 0 304.687341 
L 355.051884 304.687341 
L 355.051884 0 
L 0 0 
z
" style="fill: #ffffff"/>
  </g>
  <g id="axes_1">
   <g id="patch_2">
    <path d="M 305.698285 152.715154 
C 305.698285 141.370054 304.186805 130.075353 301.203779 119.129448 
C 298.220753 108.183542 293.792682 97.683684 288.036554 87.907269 
L 177.964525 152.715154 
z
" style="fill: #1f77b4"/>
   </g>
   <g id="patch_3">
    <path d="M 287.93673 87.712341 
C 284.729832 82.265631 281.123071 77.064456 277.146183 72.151695 
C 273.169296 67.238935 268.833239 62.628127 264.17376 58.357283 
L 177.864701 152.520225 
z
" style="fill: #ff7f0e"/>
   </g>
   <g id="patch_4">
    <path d="M 264.077747 58.265122 
C 260.865086 55.32042 257.503827 52.542062 254.00716 49.940949 
C 250.510493 47.339836 246.882999 44.919377 243.138912 42.689068 
L 177.768688 152.428065 
z
" style="fill: #aec7e8"/>
   </g>
   <g id="patch_5">
    <path d="M 243.007825 42.617647 
C 236.452728 38.712854 229.560923 35.403239 222.415113 32.728521 
C 215.269304 30.053802 207.898188 28.024721 200.390221 26.665627 
L 177.637601 152.356644 
z
" style="fill: #ffbb78"/>
   </g>
   <g id="patch_6">
    <path d="M 200.233587 26.632696 
C 195.087086 25.701075 189.88822 25.086423 184.666359 24.792213 
C 179.444498 24.498002 174.209492 24.524788 168.990915 24.872418 
L 177.480967 152.323713 
z
" style="fill: #98df8a"/>
   </g>
   <g id="patch_7">
    <path d="M 168.80014 24.896459 
C 158.571342 25.577842 148.461666 27.488144 138.689499 30.586102 
C 128.917332 33.684059 119.55355 37.947202 110.800427 43.28344 
L 177.290192 152.347754 
z
" style="fill: #2ca02c"/>
   </g>
   <g id="patch_8">
    <path d="M 110.661344 43.351109 
C 108.801114 44.485176 106.970203 45.66665 105.170408 46.894372 
C 103.370613 48.122094 101.602523 49.395662 99.867874 50.713825 
L 177.151108 152.415423 
z
" style="fill: #d62728"/>
   </g>
   <g id="patch_9">
    <path d="M 99.782889 50.785921 
C 94.402953 54.874145 89.355884 59.382823 84.689218 64.26949 
C 80.022551 69.156158 75.750985 74.405425 71.914751 79.967852 
L 177.066124 152.487519 
z
" style="fill: #9467bd"/>
   </g>
   <g id="patch_10">
    <path d="M 71.829077 80.086793 
C 68.983507 84.212784 66.38325 88.502685 64.041797 92.934238 
C 61.700343 97.365791 59.62175 101.931318 57.816801 106.607131 
L 176.98045 152.60646 
z
" style="fill: #ff9896"/>
   </g>
   <g id="patch_11">
    <path d="M 57.755406 106.839429 
C 52.565211 120.284898 49.687869 134.512337 49.245482 148.917998 
C 48.803095 163.323658 50.80201 177.700844 55.157402 191.43945 
L 176.919055 152.838758 
z
" style="fill: #c5b0d5"/>
   </g>
   <g id="patch_12">
    <path d="M 55.191886 191.644908 
C 55.916117 193.929413 56.704497 196.193084 57.55609 198.433231 
C 58.407684 200.673379 59.322154 202.889117 60.298414 205.077813 
L 176.953538 153.044215 
z
" style="fill: #c49c94"/>
   </g>
   <g id="patch_13">
    <path d="M 60.331839 205.149282 
C 61.929532 208.731181 63.691351 212.237594 65.611696 215.657375 
C 67.53204 219.077155 69.608872 222.406676 71.835591 225.635351 
L 176.986964 153.115685 
z
" style="fill: #8c564b"/>
   </g>
   <g id="patch_14">
    <path d="M 71.93803 225.765262 
C 77.261831 233.484615 83.419518 240.594305 90.299682 246.965697 
C 97.179845 253.337088 104.740738 258.931522 112.845564 263.647779 
L 177.089404 153.245595 
z
" style="fill: #e377c2"/>
   </g>
   <g id="patch_15">
    <path d="M 112.985418 263.741098 
C 116.56372 265.823338 120.24114 267.73038 124.004654 269.455471 
C 127.768167 271.180561 131.613326 272.721659 135.52651 274.073309 
L 177.229259 153.338913 
z
" style="fill: #7f7f7f"/>
   </g>
   <g id="patch_16">
    <path d="M 135.677686 274.117011 
C 143.715087 276.893202 152.009661 278.859882 160.437884 279.987763 
C 168.866107 281.115645 177.385933 281.399101 185.870484 280.83391 
L 177.380434 153.382616 
z
" style="fill: #f7b6d2"/>
   </g>
   <g id="patch_17">
    <path d="M 186.099317 280.814545 
C 196.109975 280.147694 206.007297 278.303729 215.586451 275.320812 
C 225.165604 272.337895 234.360047 268.236747 242.979494 263.102245 
L 177.609266 153.363251 
z
" style="fill: #c7c7c7"/>
   </g>
   <g id="patch_18">
    <path d="M 243.176843 262.990093 
C 250.294654 258.750097 256.983093 253.827635 263.147587 248.292311 
C 269.312081 242.756987 274.923436 236.635015 279.902308 230.012959 
L 177.806615 153.251099 
z
" style="fill: #dbdb8d"/>
   </g>
   <g id="patch_19">
    <path d="M 280.021059 229.858335 
C 284.475141 223.934266 288.40517 217.633751 291.766636 211.028149 
C 295.128103 204.422546 297.908268 197.536888 300.075645 190.449157 
L 177.925366 153.096476 
z
" style="fill: #bcbd22"/>
   </g>
   <g id="patch_20">
    <path d="M 300.11756 190.337178 
C 300.754657 188.25375 301.338347 186.154364 301.868056 184.04108 
C 302.397766 181.927795 302.873321 179.801304 303.294256 177.663694 
L 177.967281 152.984497 
z
" style="fill: #17becf"/>
   </g>
   <g id="patch_21">
    <path d="M 303.307714 177.585951 
C 304.107604 173.523914 304.709536 169.425389 305.111379 165.304892 
C 305.513221 161.184396 305.714499 157.046798 305.714499 152.906753 
L 177.980739 152.906753 
z
" style="fill: #9edae5"/>
   </g>
   <g id="patch_22">
    <path d="M 251.962388 152.855094 
C 251.962388 146.237119 251.080692 139.648544 249.340593 133.263432 
C 247.600494 126.878321 245.017453 120.753403 241.659711 115.050495 
L 177.451028 152.855094 
z
" style="fill: #ffffff"/>
   </g>
   <g id="patch_23">
    <path d="M 241.659711 115.050495 
C 239.789021 111.873247 237.685077 108.839229 235.365226 105.973452 
C 233.045375 103.107675 230.516008 100.418037 227.797979 97.926711 
L 177.451028 152.855094 
z
" style="fill: #ffffff"/>
   </g>
   <g id="patch_24">
    <path d="M 227.797979 97.926711 
C 225.923926 96.208968 223.963192 94.588259 221.92347 93.070943 
C 219.883748 91.553628 217.767709 90.141693 215.583658 88.84068 
L 177.451028 152.855094 
z
" style="fill: #ffffff"/>
   </g>
   <g id="patch_25">
    <path d="M 215.583658 88.84068 
C 211.759852 86.562883 207.739632 84.632275 203.571244 83.072022 
C 199.402855 81.51177 195.103037 80.328139 190.723389 79.535334 
L 177.451028 152.855094 
z
" style="fill: #ffffff"/>
   </g>
   <g id="patch_26">
    <path d="M 190.723389 79.535334 
C 187.721264 78.991889 184.688592 78.633342 181.642506 78.461719 
C 178.596421 78.290096 175.542668 78.305721 172.498498 78.508506 
L 177.451028 152.855094 
z
" style="fill: #ffffff"/>
   </g>
   <g id="patch_27">
    <path d="M 172.498498 78.508506 
C 166.531699 78.905979 160.634388 80.020322 154.933957 81.827464 
C 149.233526 83.634605 143.77132 86.121439 138.665332 89.234244 
L 177.451028 152.855094 
z
" style="fill: #ffffff"/>
   </g>
   <g id="patch_28">
    <path d="M 138.665332 89.234244 
C 137.580198 89.895783 136.512166 90.584977 135.462286 91.301148 
C 134.412406 92.017319 133.38102 92.760233 132.369141 93.529162 
L 177.451028 152.855094 
z
" style="fill: #ffffff"/>
   </g>
   <g id="patch_29">
    <path d="M 132.369141 93.529162 
C 129.230845 95.913959 126.286721 98.544021 123.564499 101.394577 
C 120.842277 104.245133 118.35053 107.307206 116.112727 110.551955 
L 177.451028 152.855094 
z
" style="fill: #ffffff"/>
   </g>
   <g id="patch_30">
    <path d="M 116.112727 110.551955 
C 114.452811 112.958783 112.935995 115.461226 111.570147 118.046298 
C 110.204299 120.631371 108.991786 123.294595 107.938899 126.022152 
L 177.451028 152.855094 
z
" style="fill: #ffffff"/>
   </g>
   <g id="patch_31">
    <path d="M 107.938899 126.022152 
C 104.911286 133.865343 103.232836 142.164682 102.974777 150.567984 
C 102.716718 158.971286 103.882752 167.357978 106.423397 175.372165 
L 177.451028 152.855094 
z
" style="fill: #ffffff"/>
   </g>
   <g id="patch_32">
    <path d="M 106.423397 175.372165 
C 106.845865 176.704793 107.305753 178.025267 107.802516 179.33202 
C 108.299279 180.638773 108.83272 181.931287 109.402205 183.208026 
L 177.451028 152.855094 
z
" style="fill: #ffffff"/>
   </g>
   <g id="patch_33">
    <path d="M 109.402205 183.208026 
C 110.334193 185.297467 111.36192 187.342875 112.482121 189.337747 
C 113.602322 191.332619 114.813808 193.274839 116.112727 195.158233 
L 177.451028 152.855094 
z
" style="fill: #ffffff"/>
   </g>
   <g id="patch_34">
    <path d="M 116.112727 195.158233 
C 119.218277 199.66119 122.810261 203.808509 126.82369 207.525154 
C 130.837118 211.241799 135.24764 214.505219 139.975454 217.256369 
L 177.451028 152.855094 
z
" style="fill: #ffffff"/>
   </g>
   <g id="patch_35">
    <path d="M 139.975454 217.256369 
C 142.062797 218.471009 144.207959 219.58345 146.403342 220.589753 
C 148.598725 221.596055 150.841734 222.495029 153.124425 223.283491 
L 177.451028 152.855094 
z
" style="fill: #ffffff"/>
   </g>
   <g id="patch_36">
    <path d="M 153.124425 223.283491 
C 157.812909 224.902936 162.65141 226.050166 167.567874 226.708097 
C 172.484337 227.366028 177.454235 227.531377 182.403557 227.201683 
L 177.451028 152.855094 
z
" style="fill: #ffffff"/>
   </g>
   <g id="patch_37">
    <path d="M 182.403557 227.201683 
C 188.243108 226.812686 194.016546 225.73704 199.604386 223.997005 
C 205.192225 222.25697 210.55565 219.864634 215.583661 216.869507 
L 177.451028 152.855094 
z
" style="fill: #ffffff"/>
   </g>
   <g id="patch_38">
    <path d="M 215.583661 216.869507 
C 219.735717 214.396176 223.637307 211.52474 227.233261 208.295801 
C 230.829216 205.066862 234.102507 201.495712 237.006848 197.632845 
L 177.451028 152.855094 
z
" style="fill: #ffffff"/>
   </g>
   <g id="patch_39">
    <path d="M 237.006848 197.632845 
C 239.605063 194.177138 241.89758 190.501838 243.858435 186.64857 
C 245.819291 182.795302 247.441054 178.778668 248.705357 174.644158 
L 177.451028 152.855094 
z
" style="fill: #ffffff"/>
   </g>
   <g id="patch_40">
    <path d="M 248.705357 174.644158 
C 249.076997 173.428826 249.417483 172.204184 249.72648 170.971434 
C 250.035477 169.738685 250.312885 168.498232 250.55843 167.251293 
L 177.451028 152.855094 
z
" style="fill: #ffffff"/>
   </g>
   <g id="patch_41">
    <path d="M 250.55843 167.251293 
C 251.025032 164.881771 251.37616 162.490965 251.610568 160.087342 
C 251.844976 157.683719 251.962388 155.27012 251.962388 152.855094 
L 177.451028 152.855094 
z
" style="fill: #ffffff"/>
   </g>
   <g id="matplotlib.axis_1"/>
   <g id="matplotlib.axis_2"/>
   <g id="text_1">
    <!-- A [52] -->
    <g transform="translate(313.527704 118.530252) scale(0.1 -0.1)">
     <defs>
      <path id="DejaVuSans-41" d="M 2188 4044 
L 1331 1722 
L 3047 1722 
L 2188 4044 
z
M 1831 4666 
L 2547 4666 
L 4325 0 
L 3669 0 
L 3244 1197 
L 1141 1197 
L 716 0 
L 50 0 
L 1831 4666 
z
" transform="scale(0.015625)"/>
      <path id="DejaVuSans-20" transform="scale(0.015625)"/>
      <path id="DejaVuSans-5b" d="M 550 4863 
L 1875 4863 
L 1875 4416 
L 1125 4416 
L 1125 -397 
L 1875 -397 
L 1875 -844 
L 550 -844 
L 550 4863 
z
" transform="scale(0.015625)"/>
      <path id="DejaVuSans-35" d="M 691 4666 
L 3169 4666 
L 3169 4134 
L 1269 4134 
L 1269 2991 
Q 1406 3038 1543 3061 
Q 1681 3084 1819 3084 
Q 2600 3084 3056 2656 
Q 3513 2228 3513 1497 
Q 3513 744 3044 326 
Q 2575 -91 1722 -91 
Q 1428 -91 1123 -41 
Q 819 9 494 109 
L 494 744 
Q 775 591 1075 516 
Q 1375 441 1709 441 
Q 2250 441 2565 725 
Q 2881 1009 2881 1497 
Q 2881 1984 2565 2268 
Q 2250 2553 1709 2553 
Q 1456 2553 1204 2497 
Q 953 2441 691 2322 
L 691 4666 
z
" transform="scale(0.015625)"/>
      <path id="DejaVuSans-32" d="M 1228 531 
L 3431 531 
L 3431 0 
L 469 0 
L 469 531 
Q 828 903 1448 1529 
Q 2069 2156 2228 2338 
Q 2531 2678 2651 2914 
Q 2772 3150 2772 3378 
Q 2772 3750 2511 3984 
Q 2250 4219 1831 4219 
Q 1534 4219 1204 4116 
Q 875 4013 500 3803 
L 500 4441 
Q 881 4594 1212 4672 
Q 1544 4750 1819 4750 
Q 2544 4750 2975 4387 
Q 3406 4025 3406 3419 
Q 3406 3131 3298 2873 
Q 3191 2616 2906 2266 
Q 2828 2175 2409 1742 
Q 1991 1309 1228 531 
z
" transform="scale(0.015625)"/>
      <path id="DejaVuSans-5d" d="M 1947 4863 
L 1947 -844 
L 622 -844 
L 622 -397 
L 1369 -397 
L 1369 4416 
L 622 4416 
L 622 4863 
L 1947 4863 
z
" transform="scale(0.015625)"/>
     </defs>
     <use xlink:href="#DejaVuSans-41"/>
     <use xlink:href="#DejaVuSans-20" x="68.408203"/>
     <use xlink:href="#DejaVuSans-5b" x="100.195312"/>
     <use xlink:href="#DejaVuSans-35" x="139.208984"/>
     <use xlink:href="#DejaVuSans-32" x="202.832031"/>
     <use xlink:href="#DejaVuSans-5d" x="266.455078"/>
    </g>
   </g>
   <g id="text_2">
    <!-- C [29] -->
    <g transform="translate(287.074332 66.874217) scale(0.1 -0.1)">
     <defs>
      <path id="DejaVuSans-43" d="M 4122 4306 
L 4122 3641 
Q 3803 3938 3442 4084 
Q 3081 4231 2675 4231 
Q 1875 4231 1450 3742 
Q 1025 3253 1025 2328 
Q 1025 1406 1450 917 
Q 1875 428 2675 428 
Q 3081 428 3442 575 
Q 3803 722 4122 1019 
L 4122 359 
Q 3791 134 3420 21 
Q 3050 -91 2638 -91 
Q 1578 -91 968 557 
Q 359 1206 359 2328 
Q 359 3453 968 4101 
Q 1578 4750 2638 4750 
Q 3056 4750 3426 4639 
Q 3797 4528 4122 4306 
z
" transform="scale(0.015625)"/>
      <path id="DejaVuSans-39" d="M 703 97 
L 703 672 
Q 941 559 1184 500 
Q 1428 441 1663 441 
Q 2288 441 2617 861 
Q 2947 1281 2994 2138 
Q 2813 1869 2534 1725 
Q 2256 1581 1919 1581 
Q 1219 1581 811 2004 
Q 403 2428 403 3163 
Q 403 3881 828 4315 
Q 1253 4750 1959 4750 
Q 2769 4750 3195 4129 
Q 3622 3509 3622 2328 
Q 3622 1225 3098 567 
Q 2575 -91 1691 -91 
Q 1453 -91 1209 -44 
Q 966 3 703 97 
z
M 1959 2075 
Q 2384 2075 2632 2365 
Q 2881 2656 2881 3163 
Q 2881 3666 2632 3958 
Q 2384 4250 1959 4250 
Q 1534 4250 1286 3958 
Q 1038 3666 1038 3163 
Q 1038 2656 1286 2365 
Q 1534 2075 1959 2075 
z
" transform="scale(0.015625)"/>
     </defs>
     <use xlink:href="#DejaVuSans-43"/>
     <use xlink:href="#DejaVuSans-20" x="69.824219"/>
     <use xlink:href="#DejaVuSans-5b" x="101.611328"/>
     <use xlink:href="#DejaVuSans-32" x="140.625"/>
     <use xlink:href="#DejaVuSans-39" x="204.248047"/>
     <use xlink:href="#DejaVuSans-5d" x="267.871094"/>
    </g>
   </g>
   <g id="text_3">
    <!-- D [20] -->
    <g transform="translate(261.631007 42.451612) scale(0.1 -0.1)">
     <defs>
      <path id="DejaVuSans-44" d="M 1259 4147 
L 1259 519 
L 2022 519 
Q 2988 519 3436 956 
Q 3884 1394 3884 2338 
Q 3884 3275 3436 3711 
Q 2988 4147 2022 4147 
L 1259 4147 
z
M 628 4666 
L 1925 4666 
Q 3281 4666 3915 4102 
Q 4550 3538 4550 2338 
Q 4550 1131 3912 565 
Q 3275 0 1925 0 
L 628 0 
L 628 4666 
z
" transform="scale(0.015625)"/>
      <path id="DejaVuSans-30" d="M 2034 4250 
Q 1547 4250 1301 3770 
Q 1056 3291 1056 2328 
Q 1056 1369 1301 889 
Q 1547 409 2034 409 
Q 2525 409 2770 889 
Q 3016 1369 3016 2328 
Q 3016 3291 2770 3770 
Q 2525 4250 2034 4250 
z
M 2034 4750 
Q 2819 4750 3233 4129 
Q 3647 3509 3647 2328 
Q 3647 1150 3233 529 
Q 2819 -91 2034 -91 
Q 1250 -91 836 529 
Q 422 1150 422 2328 
Q 422 3509 836 4129 
Q 1250 4750 2034 4750 
z
" transform="scale(0.015625)"/>
     </defs>
     <use xlink:href="#DejaVuSans-44"/>
     <use xlink:href="#DejaVuSans-20" x="77.001953"/>
     <use xlink:href="#DejaVuSans-5b" x="108.789062"/>
     <use xlink:href="#DejaVuSans-32" x="147.802734"/>
     <use xlink:href="#DejaVuSans-30" x="211.425781"/>
     <use xlink:href="#DejaVuSans-5d" x="275.048828"/>
    </g>
   </g>
   <g id="text_4">
    <!-- E [35] -->
    <g transform="translate(226.892865 23.525083) scale(0.1 -0.1)">
     <defs>
      <path id="DejaVuSans-45" d="M 628 4666 
L 3578 4666 
L 3578 4134 
L 1259 4134 
L 1259 2753 
L 3481 2753 
L 3481 2222 
L 1259 2222 
L 1259 531 
L 3634 531 
L 3634 0 
L 628 0 
L 628 4666 
z
" transform="scale(0.015625)"/>
      <path id="DejaVuSans-33" d="M 2597 2516 
Q 3050 2419 3304 2112 
Q 3559 1806 3559 1356 
Q 3559 666 3084 287 
Q 2609 -91 1734 -91 
Q 1441 -91 1130 -33 
Q 819 25 488 141 
L 488 750 
Q 750 597 1062 519 
Q 1375 441 1716 441 
Q 2309 441 2620 675 
Q 2931 909 2931 1356 
Q 2931 1769 2642 2001 
Q 2353 2234 1838 2234 
L 1294 2234 
L 1294 2753 
L 1863 2753 
Q 2328 2753 2575 2939 
Q 2822 3125 2822 3475 
Q 2822 3834 2567 4026 
Q 2313 4219 1838 4219 
Q 1578 4219 1281 4162 
Q 984 4106 628 3988 
L 628 4550 
Q 988 4650 1302 4700 
Q 1616 4750 1894 4750 
Q 2613 4750 3031 4423 
Q 3450 4097 3450 3541 
Q 3450 3153 3228 2886 
Q 3006 2619 2597 2516 
z
" transform="scale(0.015625)"/>
     </defs>
     <use xlink:href="#DejaVuSans-45"/>
     <use xlink:href="#DejaVuSans-20" x="63.183594"/>
     <use xlink:href="#DejaVuSans-5b" x="94.970703"/>
     <use xlink:href="#DejaVuSans-33" x="133.984375"/>
     <use xlink:href="#DejaVuSans-35" x="197.607422"/>
     <use xlink:href="#DejaVuSans-5d" x="261.230469"/>
    </g>
   </g>
   <g id="text_5">
    <!-- F [24] -->
    <g transform="translate(185.384898 14.798437) scale(0.1 -0.1)">
     <defs>
      <path id="DejaVuSans-46" d="M 628 4666 
L 3309 4666 
L 3309 4134 
L 1259 4134 
L 1259 2759 
L 3109 2759 
L 3109 2228 
L 1259 2228 
L 1259 0 
L 628 0 
L 628 4666 
z
" transform="scale(0.015625)"/>
      <path id="DejaVuSans-34" d="M 2419 4116 
L 825 1625 
L 2419 1625 
L 2419 4116 
z
M 2253 4666 
L 3047 4666 
L 3047 1625 
L 3713 1625 
L 3713 1100 
L 3047 1100 
L 3047 0 
L 2419 0 
L 2419 1100 
L 313 1100 
L 313 1709 
L 2253 4666 
z
" transform="scale(0.015625)"/>
     </defs>
     <use xlink:href="#DejaVuSans-46"/>
     <use xlink:href="#DejaVuSans-20" x="57.519531"/>
     <use xlink:href="#DejaVuSans-5b" x="89.306641"/>
     <use xlink:href="#DejaVuSans-32" x="128.320312"/>
     <use xlink:href="#DejaVuSans-34" x="191.943359"/>
     <use xlink:href="#DejaVuSans-5d" x="255.566406"/>
    </g>
   </g>
   <g id="text_6">
    <!-- G [47] -->
    <g transform="translate(103.374742 21.169311) scale(0.1 -0.1)">
     <defs>
      <path id="DejaVuSans-47" d="M 3809 666 
L 3809 1919 
L 2778 1919 
L 2778 2438 
L 4434 2438 
L 4434 434 
Q 4069 175 3628 42 
Q 3188 -91 2688 -91 
Q 1594 -91 976 548 
Q 359 1188 359 2328 
Q 359 3472 976 4111 
Q 1594 4750 2688 4750 
Q 3144 4750 3555 4637 
Q 3966 4525 4313 4306 
L 4313 3634 
Q 3963 3931 3569 4081 
Q 3175 4231 2741 4231 
Q 1884 4231 1454 3753 
Q 1025 3275 1025 2328 
Q 1025 1384 1454 906 
Q 1884 428 2741 428 
Q 3075 428 3337 486 
Q 3600 544 3809 666 
z
" transform="scale(0.015625)"/>
      <path id="DejaVuSans-37" d="M 525 4666 
L 3525 4666 
L 3525 4397 
L 1831 0 
L 1172 0 
L 2766 4134 
L 525 4134 
L 525 4666 
z
" transform="scale(0.015625)"/>
     </defs>
     <use xlink:href="#DejaVuSans-47"/>
     <use xlink:href="#DejaVuSans-20" x="77.490234"/>
     <use xlink:href="#DejaVuSans-5b" x="109.277344"/>
     <use xlink:href="#DejaVuSans-34" x="148.291016"/>
     <use xlink:href="#DejaVuSans-37" x="211.914062"/>
     <use xlink:href="#DejaVuSans-5d" x="275.537109"/>
    </g>
   </g>
   <g id="text_7">
    <!-- H [10] -->
    <g transform="translate(66.745775 39.101642) scale(0.1 -0.1)">
     <defs>
      <path id="DejaVuSans-48" d="M 628 4666 
L 1259 4666 
L 1259 2753 
L 3553 2753 
L 3553 4666 
L 4184 4666 
L 4184 0 
L 3553 0 
L 3553 2222 
L 1259 2222 
L 1259 0 
L 628 0 
L 628 4666 
z
" transform="scale(0.015625)"/>
      <path id="DejaVuSans-31" d="M 794 531 
L 1825 531 
L 1825 4091 
L 703 3866 
L 703 4441 
L 1819 4666 
L 2450 4666 
L 2450 531 
L 3481 531 
L 3481 0 
L 794 0 
L 794 531 
z
" transform="scale(0.015625)"/>
     </defs>
     <use xlink:href="#DejaVuSans-48"/>
     <use xlink:href="#DejaVuSans-20" x="75.195312"/>
     <use xlink:href="#DejaVuSans-5b" x="106.982422"/>
     <use xlink:href="#DejaVuSans-31" x="145.996094"/>
     <use xlink:href="#DejaVuSans-30" x="209.619141"/>
     <use xlink:href="#DejaVuSans-5d" x="273.242188"/>
    </g>
   </g>
   <g id="text_8">
    <!-- I [31] -->
    <g transform="translate(48.795277 58.207062) scale(0.1 -0.1)">
     <defs>
      <path id="DejaVuSans-49" d="M 628 4666 
L 1259 4666 
L 1259 0 
L 628 0 
L 628 4666 
z
" transform="scale(0.015625)"/>
     </defs>
     <use xlink:href="#DejaVuSans-49"/>
     <use xlink:href="#DejaVuSans-20" x="29.492188"/>
     <use xlink:href="#DejaVuSans-5b" x="61.279297"/>
     <use xlink:href="#DejaVuSans-33" x="100.292969"/>
     <use xlink:href="#DejaVuSans-31" x="163.916016"/>
     <use xlink:href="#DejaVuSans-5d" x="227.539062"/>
    </g>
   </g>
   <g id="text_9">
    <!-- K [23] -->
    <g transform="translate(22.483869 89.726391) scale(0.1 -0.1)">
     <defs>
      <path id="DejaVuSans-4b" d="M 628 4666 
L 1259 4666 
L 1259 2694 
L 3353 4666 
L 4166 4666 
L 1850 2491 
L 4331 0 
L 3500 0 
L 1259 2247 
L 1259 0 
L 628 0 
L 628 4666 
z
" transform="scale(0.015625)"/>
     </defs>
     <use xlink:href="#DejaVuSans-4b"/>
     <use xlink:href="#DejaVuSans-20" x="65.576172"/>
     <use xlink:href="#DejaVuSans-5b" x="97.363281"/>
     <use xlink:href="#DejaVuSans-32" x="136.376953"/>
     <use xlink:href="#DejaVuSans-33" x="200"/>
     <use xlink:href="#DejaVuSans-5d" x="263.623047"/>
    </g>
   </g>
   <g id="text_10">
    <!-- L [66] -->
    <g transform="translate(7.2 151.285297) scale(0.1 -0.1)">
     <defs>
      <path id="DejaVuSans-4c" d="M 628 4666 
L 1259 4666 
L 1259 531 
L 3531 531 
L 3531 0 
L 628 0 
L 628 4666 
z
" transform="scale(0.015625)"/>
      <path id="DejaVuSans-36" d="M 2113 2584 
Q 1688 2584 1439 2293 
Q 1191 2003 1191 1497 
Q 1191 994 1439 701 
Q 1688 409 2113 409 
Q 2538 409 2786 701 
Q 3034 994 3034 1497 
Q 3034 2003 2786 2293 
Q 2538 2584 2113 2584 
z
M 3366 4563 
L 3366 3988 
Q 3128 4100 2886 4159 
Q 2644 4219 2406 4219 
Q 1781 4219 1451 3797 
Q 1122 3375 1075 2522 
Q 1259 2794 1537 2939 
Q 1816 3084 2150 3084 
Q 2853 3084 3261 2657 
Q 3669 2231 3669 1497 
Q 3669 778 3244 343 
Q 2819 -91 2113 -91 
Q 1303 -91 875 529 
Q 447 1150 447 2328 
Q 447 3434 972 4092 
Q 1497 4750 2381 4750 
Q 2619 4750 2861 4703 
Q 3103 4656 3366 4563 
z
" transform="scale(0.015625)"/>
     </defs>
     <use xlink:href="#DejaVuSans-4c"/>
     <use xlink:href="#DejaVuSans-20" x="55.712891"/>
     <use xlink:href="#DejaVuSans-5b" x="87.5"/>
     <use xlink:href="#DejaVuSans-36" x="126.513672"/>
     <use xlink:href="#DejaVuSans-36" x="190.136719"/>
     <use xlink:href="#DejaVuSans-5d" x="253.759766"/>
    </g>
   </g>
   <g id="text_11">
    <!-- M [11] -->
    <g transform="translate(13.28197 205.731508) scale(0.1 -0.1)">
     <defs>
      <path id="DejaVuSans-4d" d="M 628 4666 
L 1569 4666 
L 2759 1491 
L 3956 4666 
L 4897 4666 
L 4897 0 
L 4281 0 
L 4281 4097 
L 3078 897 
L 2444 897 
L 1241 4097 
L 1241 0 
L 628 0 
L 628 4666 
z
" transform="scale(0.015625)"/>
     </defs>
     <use xlink:href="#DejaVuSans-4d"/>
     <use xlink:href="#DejaVuSans-20" x="86.279297"/>
     <use xlink:href="#DejaVuSans-5b" x="118.066406"/>
     <use xlink:href="#DejaVuSans-31" x="157.080078"/>
     <use xlink:href="#DejaVuSans-31" x="220.703125"/>
     <use xlink:href="#DejaVuSans-5d" x="284.326172"/>
    </g>
   </g>
   <g id="text_12">
    <!-- N [18] -->
    <g transform="translate(23.286669 224.670919) scale(0.1 -0.1)">
     <defs>
      <path id="DejaVuSans-4e" d="M 628 4666 
L 1478 4666 
L 3547 763 
L 3547 4666 
L 4159 4666 
L 4159 0 
L 3309 0 
L 1241 3903 
L 1241 0 
L 628 0 
L 628 4666 
z
" transform="scale(0.015625)"/>
      <path id="DejaVuSans-38" d="M 2034 2216 
Q 1584 2216 1326 1975 
Q 1069 1734 1069 1313 
Q 1069 891 1326 650 
Q 1584 409 2034 409 
Q 2484 409 2743 651 
Q 3003 894 3003 1313 
Q 3003 1734 2745 1975 
Q 2488 2216 2034 2216 
z
M 1403 2484 
Q 997 2584 770 2862 
Q 544 3141 544 3541 
Q 544 4100 942 4425 
Q 1341 4750 2034 4750 
Q 2731 4750 3128 4425 
Q 3525 4100 3525 3541 
Q 3525 3141 3298 2862 
Q 3072 2584 2669 2484 
Q 3125 2378 3379 2068 
Q 3634 1759 3634 1313 
Q 3634 634 3220 271 
Q 2806 -91 2034 -91 
Q 1263 -91 848 271 
Q 434 634 434 1313 
Q 434 1759 690 2068 
Q 947 2378 1403 2484 
z
M 1172 3481 
Q 1172 3119 1398 2916 
Q 1625 2713 2034 2713 
Q 2441 2713 2670 2916 
Q 2900 3119 2900 3481 
Q 2900 3844 2670 4047 
Q 2441 4250 2034 4250 
Q 1625 4250 1398 4047 
Q 1172 3844 1172 3481 
z
" transform="scale(0.015625)"/>
     </defs>
     <use xlink:href="#DejaVuSans-4e"/>
     <use xlink:href="#DejaVuSans-20" x="74.804688"/>
     <use xlink:href="#DejaVuSans-5b" x="106.591797"/>
     <use xlink:href="#DejaVuSans-31" x="145.605469"/>
     <use xlink:href="#DejaVuSans-38" x="209.228516"/>
     <use xlink:href="#DejaVuSans-5d" x="272.851562"/>
    </g>
   </g>
   <g id="text_13">
    <!-- P [43] -->
    <g transform="translate(51.884772 259.097082) scale(0.1 -0.1)">
     <defs>
      <path id="DejaVuSans-50" d="M 1259 4147 
L 1259 2394 
L 2053 2394 
Q 2494 2394 2734 2622 
Q 2975 2850 2975 3272 
Q 2975 3691 2734 3919 
Q 2494 4147 2053 4147 
L 1259 4147 
z
M 628 4666 
L 2053 4666 
Q 2838 4666 3239 4311 
Q 3641 3956 3641 3272 
Q 3641 2581 3239 2228 
Q 2838 1875 2053 1875 
L 1259 1875 
L 1259 0 
L 628 0 
L 628 4666 
z
" transform="scale(0.015625)"/>
     </defs>
     <use xlink:href="#DejaVuSans-50"/>
     <use xlink:href="#DejaVuSans-20" x="60.302734"/>
     <use xlink:href="#DejaVuSans-5b" x="92.089844"/>
     <use xlink:href="#DejaVuSans-34" x="131.103516"/>
     <use xlink:href="#DejaVuSans-33" x="194.726562"/>
     <use xlink:href="#DejaVuSans-5d" x="258.349609"/>
    </g>
   </g>
   <g id="text_14">
    <!-- Q [19] -->
    <g transform="translate(87.104068 283.826501) scale(0.1 -0.1)">
     <defs>
      <path id="DejaVuSans-51" d="M 2522 4238 
Q 1834 4238 1429 3725 
Q 1025 3213 1025 2328 
Q 1025 1447 1429 934 
Q 1834 422 2522 422 
Q 3209 422 3611 934 
Q 4013 1447 4013 2328 
Q 4013 3213 3611 3725 
Q 3209 4238 2522 4238 
z
M 3406 84 
L 4238 -825 
L 3475 -825 
L 2784 -78 
Q 2681 -84 2626 -87 
Q 2572 -91 2522 -91 
Q 1538 -91 948 567 
Q 359 1225 359 2328 
Q 359 3434 948 4092 
Q 1538 4750 2522 4750 
Q 3503 4750 4090 4092 
Q 4678 3434 4678 2328 
Q 4678 1516 4351 937 
Q 4025 359 3406 84 
z
" transform="scale(0.015625)"/>
     </defs>
     <use xlink:href="#DejaVuSans-51"/>
     <use xlink:href="#DejaVuSans-20" x="78.710938"/>
     <use xlink:href="#DejaVuSans-5b" x="110.498047"/>
     <use xlink:href="#DejaVuSans-31" x="149.511719"/>
     <use xlink:href="#DejaVuSans-39" x="213.134766"/>
     <use xlink:href="#DejaVuSans-5d" x="276.757812"/>
    </g>
   </g>
   <g id="text_15">
    <!-- R [39] -->
    <g transform="translate(128.088941 295.407653) scale(0.1 -0.1)">
     <defs>
      <path id="DejaVuSans-52" d="M 2841 2188 
Q 3044 2119 3236 1894 
Q 3428 1669 3622 1275 
L 4263 0 
L 3584 0 
L 2988 1197 
Q 2756 1666 2539 1819 
Q 2322 1972 1947 1972 
L 1259 1972 
L 1259 0 
L 628 0 
L 628 4666 
L 2053 4666 
Q 2853 4666 3247 4331 
Q 3641 3997 3641 3322 
Q 3641 2881 3436 2590 
Q 3231 2300 2841 2188 
z
M 1259 4147 
L 1259 2491 
L 2053 2491 
Q 2509 2491 2742 2702 
Q 2975 2913 2975 3322 
Q 2975 3731 2742 3939 
Q 2509 4147 2053 4147 
L 1259 4147 
z
" transform="scale(0.015625)"/>
     </defs>
     <use xlink:href="#DejaVuSans-52"/>
     <use xlink:href="#DejaVuSans-20" x="69.482422"/>
     <use xlink:href="#DejaVuSans-5b" x="101.269531"/>
     <use xlink:href="#DejaVuSans-33" x="140.283203"/>
     <use xlink:href="#DejaVuSans-39" x="203.90625"/>
     <use xlink:href="#DejaVuSans-5d" x="267.529297"/>
    </g>
   </g>
   <g id="text_16">
    <!-- S [46] -->
    <g transform="translate(219.384169 290.275944) scale(0.1 -0.1)">
     <defs>
      <path id="DejaVuSans-53" d="M 3425 4513 
L 3425 3897 
Q 3066 4069 2747 4153 
Q 2428 4238 2131 4238 
Q 1616 4238 1336 4038 
Q 1056 3838 1056 3469 
Q 1056 3159 1242 3001 
Q 1428 2844 1947 2747 
L 2328 2669 
Q 3034 2534 3370 2195 
Q 3706 1856 3706 1288 
Q 3706 609 3251 259 
Q 2797 -91 1919 -91 
Q 1588 -91 1214 -16 
Q 841 59 441 206 
L 441 856 
Q 825 641 1194 531 
Q 1563 422 1919 422 
Q 2459 422 2753 634 
Q 3047 847 3047 1241 
Q 3047 1584 2836 1778 
Q 2625 1972 2144 2069 
L 1759 2144 
Q 1053 2284 737 2584 
Q 422 2884 422 3419 
Q 422 4038 858 4394 
Q 1294 4750 2059 4750 
Q 2388 4750 2728 4690 
Q 3069 4631 3425 4513 
z
" transform="scale(0.015625)"/>
     </defs>
     <use xlink:href="#DejaVuSans-53"/>
     <use xlink:href="#DejaVuSans-20" x="63.476562"/>
     <use xlink:href="#DejaVuSans-5b" x="95.263672"/>
     <use xlink:href="#DejaVuSans-34" x="134.277344"/>
     <use xlink:href="#DejaVuSans-36" x="197.900391"/>
     <use xlink:href="#DejaVuSans-5d" x="261.523438"/>
    </g>
   </g>
   <g id="text_17">
    <!-- T [38] -->
    <g transform="translate(271.681684 260.555808) scale(0.1 -0.1)">
     <defs>
      <path id="DejaVuSans-54" d="M -19 4666 
L 3928 4666 
L 3928 4134 
L 2272 4134 
L 2272 0 
L 1638 0 
L 1638 4134 
L -19 4134 
L -19 4666 
z
" transform="scale(0.015625)"/>
     </defs>
     <use xlink:href="#DejaVuSans-54"/>
     <use xlink:href="#DejaVuSans-20" x="61.083984"/>
     <use xlink:href="#DejaVuSans-5b" x="92.871094"/>
     <use xlink:href="#DejaVuSans-33" x="131.884766"/>
     <use xlink:href="#DejaVuSans-38" x="195.507812"/>
     <use xlink:href="#DejaVuSans-5d" x="259.130859"/>
    </g>
   </g>
   <g id="text_18">
    <!-- V [34] -->
    <g transform="translate(303.150763 219.580691) scale(0.1 -0.1)">
     <defs>
      <path id="DejaVuSans-56" d="M 1831 0 
L 50 4666 
L 709 4666 
L 2188 738 
L 3669 4666 
L 4325 4666 
L 2547 0 
L 1831 0 
z
" transform="scale(0.015625)"/>
     </defs>
     <use xlink:href="#DejaVuSans-56"/>
     <use xlink:href="#DejaVuSans-20" x="68.408203"/>
     <use xlink:href="#DejaVuSans-5b" x="100.195312"/>
     <use xlink:href="#DejaVuSans-33" x="139.208984"/>
     <use xlink:href="#DejaVuSans-34" x="202.832031"/>
     <use xlink:href="#DejaVuSans-5d" x="266.455078"/>
    </g>
   </g>
   <g id="text_19">
    <!-- W [10] -->
    <g transform="translate(314.258134 189.906113) scale(0.1 -0.1)">
     <defs>
      <path id="DejaVuSans-57" d="M 213 4666 
L 850 4666 
L 1831 722 
L 2809 4666 
L 3519 4666 
L 4500 722 
L 5478 4666 
L 6119 4666 
L 4947 0 
L 4153 0 
L 3169 4050 
L 2175 0 
L 1381 0 
L 213 4666 
z
" transform="scale(0.015625)"/>
     </defs>
     <use xlink:href="#DejaVuSans-57"/>
     <use xlink:href="#DejaVuSans-20" x="98.876953"/>
     <use xlink:href="#DejaVuSans-5b" x="130.664062"/>
     <use xlink:href="#DejaVuSans-31" x="169.677734"/>
     <use xlink:href="#DejaVuSans-30" x="233.300781"/>
     <use xlink:href="#DejaVuSans-5d" x="296.923828"/>
    </g>
   </g>
   <g id="text_20">
    <!-- Y [19] -->
    <g transform="translate(317.824443 169.304081) scale(0.1 -0.1)">
     <defs>
      <path id="DejaVuSans-59" d="M -13 4666 
L 666 4666 
L 1959 2747 
L 3244 4666 
L 3922 4666 
L 2272 2222 
L 2272 0 
L 1638 0 
L 1638 2222 
L -13 4666 
z
" transform="scale(0.015625)"/>
     </defs>
     <use xlink:href="#DejaVuSans-59"/>
     <use xlink:href="#DejaVuSans-20" x="61.083984"/>
     <use xlink:href="#DejaVuSans-5b" x="92.871094"/>
     <use xlink:href="#DejaVuSans-31" x="131.884766"/>
     <use xlink:href="#DejaVuSans-39" x="195.507812"/>
     <use xlink:href="#DejaVuSans-5d" x="259.130859"/>
    </g>
   </g>
   <g id="text_21">
    <!-- A0A452FEC9 [614] -->
    <g transform="translate(120.681653 152.855094) scale(0.12 -0.12)">
     <use xlink:href="#DejaVuSans-41"/>
     <use xlink:href="#DejaVuSans-30" x="68.408203"/>
     <use xlink:href="#DejaVuSans-41" x="132.03125"/>
     <use xlink:href="#DejaVuSans-34" x="200.439453"/>
     <use xlink:href="#DejaVuSans-35" x="264.0625"/>
     <use xlink:href="#DejaVuSans-32" x="327.685547"/>
     <use xlink:href="#DejaVuSans-46" x="391.308594"/>
     <use xlink:href="#DejaVuSans-45" x="448.828125"/>
     <use xlink:href="#DejaVuSans-43" x="512.011719"/>
     <use xlink:href="#DejaVuSans-39" x="581.835938"/>
     <use xlink:href="#DejaVuSans-20" x="645.458984"/>
     <use xlink:href="#DejaVuSans-5b" x="677.246094"/>
     <use xlink:href="#DejaVuSans-36" x="716.259766"/>
     <use xlink:href="#DejaVuSans-31" x="779.882812"/>
     <use xlink:href="#DejaVuSans-34" x="843.505859"/>
     <use xlink:href="#DejaVuSans-5d" x="907.128906"/>
    </g>
   </g>
  </g>
 </g>
</svg>
