<?xml version="1.0" encoding="utf-8" standalone="no"?>
<!DOCTYPE svg PUBLIC "-//W3C//DTD SVG 1.1//EN"
  "http://www.w3.org/Graphics/SVG/1.1/DTD/svg11.dtd">
<svg xmlns:xlink="http://www.w3.org/1999/xlink" width="354.293173pt" height="305.452753pt" viewBox="0 0 354.293173 305.452753" xmlns="http://www.w3.org/2000/svg" version="1.1">
 <metadata>
  <rdf:RDF xmlns:dc="http://purl.org/dc/elements/1.1/" xmlns:cc="http://creativecommons.org/ns#" xmlns:rdf="http://www.w3.org/1999/02/22-rdf-syntax-ns#">
   <cc:Work>
    <dc:type rdf:resource="http://purl.org/dc/dcmitype/StillImage"/>
    <dc:date>2024-09-27T16:07:31.652727</dc:date>
    <dc:format>image/svg+xml</dc:format>
    <dc:creator>
     <cc:Agent>
      <dc:title>Matplotlib v3.8.3, https://matplotlib.org/</dc:title>
     </cc:Agent>
    </dc:creator>
   </cc:Work>
  </rdf:RDF>
 </metadata>
 <defs>
  <style type="text/css">*{stroke-linejoin: round; stroke-linecap: butt}</style>
 </defs>
 <g id="figure_1">
  <g id="patch_1">
   <path d="M 0 305.452753 
L 354.293173 305.452753 
L 354.293173 0 
L 0 0 
z
" style="fill: #ffffff"/>
  </g>
  <g id="axes_1">
   <g id="patch_2">
    <path d="M 304.785375 152.527244 
C 304.785375 147.41126 304.478017 142.299892 303.864963 137.220771 
C 303.251909 132.141651 302.334266 127.103945 301.116993 122.134886 
L 177.051615 152.527244 
z
" style="fill: #1f77b4"/>
   </g>
   <g id="patch_3">
    <path d="M 301.099143 122.048289 
C 300.631081 120.137602 300.118943 118.237982 299.563138 116.350951 
C 299.007333 114.463919 298.40801 112.589978 297.765649 110.730629 
L 177.033765 152.440648 
z
" style="fill: #ff7f0e"/>
   </g>
   <g id="patch_4">
    <path d="M 297.743951 110.670534 
C 296.716101 107.695369 295.578629 104.759213 294.333863 101.868082 
C 293.089096 98.976951 291.737888 96.132819 290.283003 93.341511 
L 177.012067 152.380553 
z
" style="fill: #aec7e8"/>
   </g>
   <g id="patch_5">
    <path d="M 290.246668 93.2718 
C 288.791784 90.480493 287.234219 87.743918 285.577163 85.067681 
C 283.920106 82.391443 282.164692 79.777371 280.314513 77.23082 
L 176.975732 152.310842 
z
" style="fill: #ffbb78"/>
   </g>
   <g id="patch_6">
    <path d="M 280.190538 77.092275 
C 273.242073 67.528534 264.999476 58.97552 255.699022 51.678406 
C 246.398569 44.381293 236.129984 38.410478 225.187619 33.937117 
L 176.851756 152.172297 
z
" style="fill: #98df8a"/>
   </g>
   <g id="patch_7">
    <path d="M 225.009463 33.845302 
C 221.002802 32.207335 216.91547 30.774087 212.763292 29.551108 
C 208.611113 28.328129 204.399451 27.316999 200.144612 26.521631 
L 176.6736 152.080482 
z
" style="fill: #2ca02c"/>
   </g>
   <g id="patch_8">
    <path d="M 200.038446 26.501786 
C 195.783607 25.706419 191.491087 25.127842 187.177505 24.768297 
C 182.863922 24.408751 178.53485 24.2687 174.207048 24.348687 
L 176.567435 152.060637 
z
" style="fill: #d62728"/>
   </g>
   <g id="patch_9">
    <path d="M 174.021926 24.365841 
C 163.387672 24.562385 152.819482 26.086392 142.56298 28.902443 
C 132.306478 31.718494 122.441744 35.804602 113.198054 41.065796 
L 176.382312 152.077791 
z
" style="fill: #9467bd"/>
   </g>
   <g id="patch_10">
    <path d="M 112.998958 41.169569 
C 106.498383 44.869476 100.335337 49.133228 94.580905 53.911648 
C 88.826473 58.690069 83.502863 63.964715 78.671478 69.67475 
L 176.183216 152.181563 
z
" style="fill: #ff9896"/>
   </g>
   <g id="patch_11">
    <path d="M 78.502359 69.929124 
C 67.2827 83.189222 58.884804 98.599585 53.823415 115.21564 
C 48.762027 131.831696 47.142715 149.306872 49.064735 166.570035 
L 176.014098 152.435937 
z
" style="fill: #c5b0d5"/>
   </g>
   <g id="patch_12">
    <path d="M 49.056924 166.851754 
C 49.666597 172.327706 50.62994 177.758477 51.940912 183.110028 
C 53.251885 188.461579 54.907744 193.722705 56.898109 198.860427 
L 176.006287 152.717656 
z
" style="fill: #c49c94"/>
   </g>
   <g id="patch_13">
    <path d="M 56.952498 198.99706 
C 59.227443 204.869369 61.933555 210.565406 65.048685 216.038554 
C 68.163816 221.511702 71.679444 226.74699 75.566797 231.70157 
L 176.060676 152.854289 
z
" style="fill: #8c564b"/>
   </g>
   <g id="patch_14">
    <path d="M 75.639359 231.800479 
C 77.825315 234.586564 80.126188 237.280539 82.536014 239.875422 
C 84.945839 242.470305 87.462533 244.963851 90.079572 247.349596 
L 176.133238 152.953197 
z
" style="fill: #e377c2"/>
   </g>
   <g id="patch_15">
    <path d="M 90.144914 247.409163 
C 92.761953 249.794908 95.477073 252.070791 98.283238 254.23091 
C 101.089403 256.391029 103.984185 258.433518 106.96008 260.353081 
L 176.198579 153.012764 
z
" style="fill: #7f7f7f"/>
   </g>
   <g id="patch_16">
    <path d="M 107.043103 260.405554 
C 110.680567 262.751853 114.434945 264.911742 118.291704 266.876858 
C 122.148462 268.841974 126.102618 270.609778 130.138862 272.173427 
L 176.281602 153.065237 
z
" style="fill: #f7b6d2"/>
   </g>
   <g id="patch_17">
    <path d="M 130.350996 272.230618 
C 142.849567 277.072589 156.032739 279.917223 169.415838 280.659939 
C 182.798937 281.402655 196.215919 280.034239 209.173514 276.604999 
L 176.493735 153.122428 
z
" style="fill: #c7c7c7"/>
   </g>
   <g id="patch_18">
    <path d="M 209.474775 276.531199 
C 220.902773 273.506769 231.85579 268.910479 242.019856 262.874085 
C 252.183922 256.83769 261.460981 249.419426 269.585103 240.831938 
L 176.794996 153.048627 
z
" style="fill: #dbdb8d"/>
   </g>
   <g id="patch_19">
    <path d="M 269.757899 240.666946 
C 274.898263 235.233397 279.551445 229.358824 283.663777 223.110983 
C 287.776109 216.863142 291.331719 210.266146 294.289598 203.396085 
L 176.967793 152.883635 
z
" style="fill: #bcbd22"/>
   </g>
   <g id="patch_20">
    <path d="M 294.34808 203.277263 
C 295.592846 200.386131 296.730318 197.449975 297.758167 194.47481 
C 298.786016 191.499644 299.703539 188.487502 300.508858 185.444552 
L 177.026276 152.764813 
z
" style="fill: #17becf"/>
   </g>
   <g id="patch_21">
    <path d="M 300.533586 185.339416 
C 301.943224 180.013004 303.006754 174.600961 303.717512 169.13721 
C 304.428269 163.67346 304.784764 158.169441 304.784763 152.659655 
L 177.051003 152.659678 
z
" style="fill: #9edae5"/>
   </g>
   <g id="patch_22">
    <path d="M 251.034586 152.591021 
C 251.034586 149.606697 250.855294 146.625066 250.497679 143.662245 
C 250.140065 140.699425 249.604772 137.760764 248.894697 134.862146 
L 176.523226 152.591021 
z
" style="fill: #ffffff"/>
   </g>
   <g id="patch_23">
    <path d="M 248.894697 134.862146 
C 248.62166 133.747578 248.322913 132.639467 247.998694 131.538698 
C 247.674474 130.43793 247.324869 129.344798 246.950158 128.260177 
L 176.523226 152.591021 
z
" style="fill: #ffffff"/>
   </g>
   <g id="patch_24">
    <path d="M 246.950158 128.260177 
C 246.350579 126.524664 245.687054 124.811907 244.96094 123.125413 
C 244.234827 121.43892 243.446621 119.779843 242.597939 118.151581 
L 176.523226 152.591021 
z
" style="fill: #ffffff"/>
   </g>
   <g id="patch_25">
    <path d="M 242.597939 118.151581 
C 241.749257 116.523318 240.840677 114.926983 239.874061 113.365844 
C 238.907444 111.804706 237.883452 110.27983 236.804182 108.794342 
L 176.523226 152.591021 
z
" style="fill: #ffffff"/>
   </g>
   <g id="patch_26">
    <path d="M 236.804182 108.794342 
C 232.750911 103.215493 227.942729 98.226235 222.517465 93.969585 
C 217.0922 89.712936 211.102192 86.22996 204.719146 83.6205 
L 176.523226 152.591021 
z
" style="fill: #ffffff"/>
   </g>
   <g id="patch_27">
    <path d="M 204.719146 83.6205 
C 202.381927 82.665019 199.997651 81.828957 197.575546 81.115553 
C 195.153442 80.402149 192.696639 79.812323 190.21465 79.348358 
L 176.523226 152.591021 
z
" style="fill: #ffffff"/>
   </g>
   <g id="patch_28">
    <path d="M 190.21465 79.348358 
C 187.73266 78.884394 185.22869 78.546891 182.712433 78.337156 
C 180.196177 78.127421 177.670885 78.045725 175.146334 78.092384 
L 176.523226 152.591021 
z
" style="fill: #ffffff"/>
   </g>
   <g id="patch_29">
    <path d="M 175.146334 78.092384 
C 168.943019 78.207035 162.778242 79.096039 156.795282 80.738735 
C 150.812323 82.381432 145.057895 84.764994 139.665742 87.834025 
L 176.523226 152.591021 
z
" style="fill: #ffffff"/>
   </g>
   <g id="patch_30">
    <path d="M 139.665742 87.834025 
C 135.87374 89.992304 132.27863 92.479492 128.921878 95.266904 
C 125.565126 98.054316 122.459687 101.131193 119.641378 104.462047 
L 176.523226 152.591021 
z
" style="fill: #ffffff"/>
   </g>
   <g id="patch_31">
    <path d="M 119.641378 104.462047 
C 113.096577 112.197104 108.197804 121.186483 105.245328 130.879182 
C 102.292851 140.571881 101.348253 150.765733 102.469431 160.835912 
L 176.523226 152.591021 
z
" style="fill: #ffffff"/>
   </g>
   <g id="patch_32">
    <path d="M 102.469431 160.835912 
C 102.825074 164.030217 103.387023 167.198167 104.151758 170.319905 
C 104.916492 173.441643 105.882409 176.510633 107.043455 179.507638 
L 176.523226 152.591021 
z
" style="fill: #ffffff"/>
   </g>
   <g id="patch_33">
    <path d="M 107.043455 179.507638 
C 108.370507 182.933151 109.949072 186.25584 111.766231 189.448509 
C 113.583391 192.641179 115.634174 195.695097 117.901797 198.585269 
L 176.523226 152.591021 
z
" style="fill: #ffffff"/>
   </g>
   <g id="patch_34">
    <path d="M 117.901797 198.585269 
C 119.176938 200.210485 120.519114 201.781971 121.924846 203.295652 
C 123.330577 204.809334 124.798649 206.263903 126.325255 207.655588 
L 176.523226 152.591021 
z
" style="fill: #ffffff"/>
   </g>
   <g id="patch_35">
    <path d="M 126.325255 207.655588 
C 127.851861 209.047272 129.435681 210.37487 131.072611 211.63494 
C 132.70954 212.89501 134.398163 214.086461 136.134102 215.206206 
L 176.523226 152.591021 
z
" style="fill: #ffffff"/>
   </g>
   <g id="patch_36">
    <path d="M 136.134102 215.206206 
C 138.255956 216.574881 140.44601 217.834816 142.695786 218.981134 
C 144.945562 220.127452 147.252152 221.158671 149.606628 222.070799 
L 176.523226 152.591021 
z
" style="fill: #ffffff"/>
   </g>
   <g id="patch_37">
    <path d="M 149.606628 222.070799 
C 156.897462 224.895282 164.587645 226.554652 172.394453 226.987903 
C 180.20126 227.421154 188.027833 226.622911 195.586431 224.622522 
L 176.523226 152.591021 
z
" style="fill: #ffffff"/>
   </g>
   <g id="patch_38">
    <path d="M 195.586431 224.622522 
C 202.252762 222.858271 208.642023 220.177102 214.571061 216.655872 
C 220.5001 213.134641 225.911717 208.80732 230.650788 203.797952 
L 176.523226 152.591021 
z
" style="fill: #ffffff"/>
   </g>
   <g id="patch_39">
    <path d="M 230.650788 203.797952 
C 233.649334 200.628382 236.36369 197.201548 238.76255 193.556974 
C 241.161411 189.9124 243.235516 186.064153 244.960946 182.056617 
L 176.523226 152.591021 
z
" style="fill: #ffffff"/>
   </g>
   <g id="patch_40">
    <path d="M 244.960946 182.056617 
C 245.687059 180.370124 246.350584 178.657366 246.950163 176.921853 
C 247.549741 175.18634 248.084963 173.429256 248.554732 171.654202 
L 176.523226 152.591021 
z
" style="fill: #ffffff"/>
   </g>
   <g id="patch_41">
    <path d="M 248.554732 171.654202 
C 249.377021 168.547128 249.997414 165.390103 250.412023 162.202915 
C 250.826631 159.015727 251.034587 155.80505 251.034586 152.591008 
L 176.523226 152.591021 
z
" style="fill: #ffffff"/>
   </g>
   <g id="matplotlib.axis_1"/>
   <g id="matplotlib.axis_2"/>
   <g id="text_1">
    <!-- A [13] -->
    <g transform="translate(316.546298 138.449499) scale(0.1 -0.1)">
     <defs>
      <path id="DejaVuSans-41" d="M 2188 4044 
L 1331 1722 
L 3047 1722 
L 2188 4044 
z
M 1831 4666 
L 2547 4666 
L 4325 0 
L 3669 0 
L 3244 1197 
L 1141 1197 
L 716 0 
L 50 0 
L 1831 4666 
z
" transform="scale(0.015625)"/>
      <path id="DejaVuSans-20" transform="scale(0.015625)"/>
      <path id="DejaVuSans-5b" d="M 550 4863 
L 1875 4863 
L 1875 4416 
L 1125 4416 
L 1125 -397 
L 1875 -397 
L 1875 -844 
L 550 -844 
L 550 4863 
z
" transform="scale(0.015625)"/>
      <path id="DejaVuSans-31" d="M 794 531 
L 1825 531 
L 1825 4091 
L 703 3866 
L 703 4441 
L 1819 4666 
L 2450 4666 
L 2450 531 
L 3481 531 
L 3481 0 
L 794 0 
L 794 531 
z
" transform="scale(0.015625)"/>
      <path id="DejaVuSans-33" d="M 2597 2516 
Q 3050 2419 3304 2112 
Q 3559 1806 3559 1356 
Q 3559 666 3084 287 
Q 2609 -91 1734 -91 
Q 1441 -91 1130 -33 
Q 819 25 488 141 
L 488 750 
Q 750 597 1062 519 
Q 1375 441 1716 441 
Q 2309 441 2620 675 
Q 2931 909 2931 1356 
Q 2931 1769 2642 2001 
Q 2353 2234 1838 2234 
L 1294 2234 
L 1294 2753 
L 1863 2753 
Q 2328 2753 2575 2939 
Q 2822 3125 2822 3475 
Q 2822 3834 2567 4026 
Q 2313 4219 1838 4219 
Q 1578 4219 1281 4162 
Q 984 4106 628 3988 
L 628 4550 
Q 988 4650 1302 4700 
Q 1616 4750 1894 4750 
Q 2613 4750 3031 4423 
Q 3450 4097 3450 3541 
Q 3450 3153 3228 2886 
Q 3006 2619 2597 2516 
z
" transform="scale(0.015625)"/>
      <path id="DejaVuSans-5d" d="M 1947 4863 
L 1947 -844 
L 622 -844 
L 622 -397 
L 1369 -397 
L 1369 4416 
L 622 4416 
L 622 4863 
L 1947 4863 
z
" transform="scale(0.015625)"/>
     </defs>
     <use xlink:href="#DejaVuSans-41"/>
     <use xlink:href="#DejaVuSans-20" x="68.408203"/>
     <use xlink:href="#DejaVuSans-5b" x="100.195312"/>
     <use xlink:href="#DejaVuSans-31" x="139.208984"/>
     <use xlink:href="#DejaVuSans-33" x="202.832031"/>
     <use xlink:href="#DejaVuSans-5d" x="266.455078"/>
    </g>
   </g>
   <g id="text_2">
    <!-- C [5] -->
    <g transform="translate(311.816075 115.501356) scale(0.1 -0.1)">
     <defs>
      <path id="DejaVuSans-43" d="M 4122 4306 
L 4122 3641 
Q 3803 3938 3442 4084 
Q 3081 4231 2675 4231 
Q 1875 4231 1450 3742 
Q 1025 3253 1025 2328 
Q 1025 1406 1450 917 
Q 1875 428 2675 428 
Q 3081 428 3442 575 
Q 3803 722 4122 1019 
L 4122 359 
Q 3791 134 3420 21 
Q 3050 -91 2638 -91 
Q 1578 -91 968 557 
Q 359 1206 359 2328 
Q 359 3453 968 4101 
Q 1578 4750 2638 4750 
Q 3056 4750 3426 4639 
Q 3797 4528 4122 4306 
z
" transform="scale(0.015625)"/>
      <path id="DejaVuSans-35" d="M 691 4666 
L 3169 4666 
L 3169 4134 
L 1269 4134 
L 1269 2991 
Q 1406 3038 1543 3061 
Q 1681 3084 1819 3084 
Q 2600 3084 3056 2656 
Q 3513 2228 3513 1497 
Q 3513 744 3044 326 
Q 2575 -91 1722 -91 
Q 1428 -91 1123 -41 
Q 819 9 494 109 
L 494 744 
Q 775 591 1075 516 
Q 1375 441 1709 441 
Q 2250 441 2565 725 
Q 2881 1009 2881 1497 
Q 2881 1984 2565 2268 
Q 2250 2553 1709 2553 
Q 1456 2553 1204 2497 
Q 953 2441 691 2322 
L 691 4666 
z
" transform="scale(0.015625)"/>
     </defs>
     <use xlink:href="#DejaVuSans-43"/>
     <use xlink:href="#DejaVuSans-20" x="69.824219"/>
     <use xlink:href="#DejaVuSans-5b" x="101.611328"/>
     <use xlink:href="#DejaVuSans-35" x="140.625"/>
     <use xlink:href="#DejaVuSans-5d" x="204.248047"/>
    </g>
   </g>
   <g id="text_3">
    <!-- D [8] -->
    <g transform="translate(306.066042 99.57621) scale(0.1 -0.1)">
     <defs>
      <path id="DejaVuSans-44" d="M 1259 4147 
L 1259 519 
L 2022 519 
Q 2988 519 3436 956 
Q 3884 1394 3884 2338 
Q 3884 3275 3436 3711 
Q 2988 4147 2022 4147 
L 1259 4147 
z
M 628 4666 
L 1925 4666 
Q 3281 4666 3915 4102 
Q 4550 3538 4550 2338 
Q 4550 1131 3912 565 
Q 3275 0 1925 0 
L 628 0 
L 628 4666 
z
" transform="scale(0.015625)"/>
      <path id="DejaVuSans-38" d="M 2034 2216 
Q 1584 2216 1326 1975 
Q 1069 1734 1069 1313 
Q 1069 891 1326 650 
Q 1584 409 2034 409 
Q 2484 409 2743 651 
Q 3003 894 3003 1313 
Q 3003 1734 2745 1975 
Q 2488 2216 2034 2216 
z
M 1403 2484 
Q 997 2584 770 2862 
Q 544 3141 544 3541 
Q 544 4100 942 4425 
Q 1341 4750 2034 4750 
Q 2731 4750 3128 4425 
Q 3525 4100 3525 3541 
Q 3525 3141 3298 2862 
Q 3072 2584 2669 2484 
Q 3125 2378 3379 2068 
Q 3634 1759 3634 1313 
Q 3634 634 3220 271 
Q 2806 -91 2034 -91 
Q 1263 -91 848 271 
Q 434 634 434 1313 
Q 434 1759 690 2068 
Q 947 2378 1403 2484 
z
M 1172 3481 
Q 1172 3119 1398 2916 
Q 1625 2713 2034 2713 
Q 2441 2713 2670 2916 
Q 2900 3119 2900 3481 
Q 2900 3844 2670 4047 
Q 2441 4250 2034 4250 
Q 1625 4250 1398 4047 
Q 1172 3844 1172 3481 
z
" transform="scale(0.015625)"/>
     </defs>
     <use xlink:href="#DejaVuSans-44"/>
     <use xlink:href="#DejaVuSans-20" x="77.001953"/>
     <use xlink:href="#DejaVuSans-5b" x="108.789062"/>
     <use xlink:href="#DejaVuSans-38" x="147.802734"/>
     <use xlink:href="#DejaVuSans-5d" x="211.425781"/>
    </g>
   </g>
   <g id="text_4">
    <!-- E [8] -->
    <g transform="translate(296.437306 81.102739) scale(0.1 -0.1)">
     <defs>
      <path id="DejaVuSans-45" d="M 628 4666 
L 3578 4666 
L 3578 4134 
L 1259 4134 
L 1259 2753 
L 3481 2753 
L 3481 2222 
L 1259 2222 
L 1259 531 
L 3634 531 
L 3634 0 
L 628 0 
L 628 4666 
z
" transform="scale(0.015625)"/>
     </defs>
     <use xlink:href="#DejaVuSans-45"/>
     <use xlink:href="#DejaVuSans-20" x="63.183594"/>
     <use xlink:href="#DejaVuSans-5b" x="94.970703"/>
     <use xlink:href="#DejaVuSans-38" x="133.984375"/>
     <use xlink:href="#DejaVuSans-5d" x="197.607422"/>
    </g>
   </g>
   <g id="text_5">
    <!-- F [30] -->
    <g transform="translate(263.583749 44.388392) scale(0.1 -0.1)">
     <defs>
      <path id="DejaVuSans-46" d="M 628 4666 
L 3309 4666 
L 3309 4134 
L 1259 4134 
L 1259 2759 
L 3109 2759 
L 3109 2228 
L 1259 2228 
L 1259 0 
L 628 0 
L 628 4666 
z
" transform="scale(0.015625)"/>
      <path id="DejaVuSans-30" d="M 2034 4250 
Q 1547 4250 1301 3770 
Q 1056 3291 1056 2328 
Q 1056 1369 1301 889 
Q 1547 409 2034 409 
Q 2525 409 2770 889 
Q 3016 1369 3016 2328 
Q 3016 3291 2770 3770 
Q 2525 4250 2034 4250 
z
M 2034 4750 
Q 2819 4750 3233 4129 
Q 3647 3509 3647 2328 
Q 3647 1150 3233 529 
Q 2819 -91 2034 -91 
Q 1250 -91 836 529 
Q 422 1150 422 2328 
Q 422 3509 836 4129 
Q 1250 4750 2034 4750 
z
" transform="scale(0.015625)"/>
     </defs>
     <use xlink:href="#DejaVuSans-46"/>
     <use xlink:href="#DejaVuSans-20" x="57.519531"/>
     <use xlink:href="#DejaVuSans-5b" x="89.306641"/>
     <use xlink:href="#DejaVuSans-33" x="128.320312"/>
     <use xlink:href="#DejaVuSans-30" x="191.943359"/>
     <use xlink:href="#DejaVuSans-5d" x="255.566406"/>
    </g>
   </g>
   <g id="text_6">
    <!-- G [11] -->
    <g transform="translate(216.372261 20.057545) scale(0.1 -0.1)">
     <defs>
      <path id="DejaVuSans-47" d="M 3809 666 
L 3809 1919 
L 2778 1919 
L 2778 2438 
L 4434 2438 
L 4434 434 
Q 4069 175 3628 42 
Q 3188 -91 2688 -91 
Q 1594 -91 976 548 
Q 359 1188 359 2328 
Q 359 3472 976 4111 
Q 1594 4750 2688 4750 
Q 3144 4750 3555 4637 
Q 3966 4525 4313 4306 
L 4313 3634 
Q 3963 3931 3569 4081 
Q 3175 4231 2741 4231 
Q 1884 4231 1454 3753 
Q 1025 3275 1025 2328 
Q 1025 1384 1454 906 
Q 1884 428 2741 428 
Q 3075 428 3337 486 
Q 3600 544 3809 666 
z
" transform="scale(0.015625)"/>
     </defs>
     <use xlink:href="#DejaVuSans-47"/>
     <use xlink:href="#DejaVuSans-20" x="77.490234"/>
     <use xlink:href="#DejaVuSans-5b" x="109.277344"/>
     <use xlink:href="#DejaVuSans-31" x="148.291016"/>
     <use xlink:href="#DejaVuSans-31" x="211.914062"/>
     <use xlink:href="#DejaVuSans-5d" x="275.537109"/>
    </g>
   </g>
   <g id="text_7">
    <!-- H [11] -->
    <g transform="translate(188.238512 14.798437) scale(0.1 -0.1)">
     <defs>
      <path id="DejaVuSans-48" d="M 628 4666 
L 1259 4666 
L 1259 2753 
L 3553 2753 
L 3553 4666 
L 4184 4666 
L 4184 0 
L 3553 0 
L 3553 2222 
L 1259 2222 
L 1259 0 
L 628 0 
L 628 4666 
z
" transform="scale(0.015625)"/>
     </defs>
     <use xlink:href="#DejaVuSans-48"/>
     <use xlink:href="#DejaVuSans-20" x="75.195312"/>
     <use xlink:href="#DejaVuSans-5b" x="106.982422"/>
     <use xlink:href="#DejaVuSans-31" x="145.996094"/>
     <use xlink:href="#DejaVuSans-31" x="209.619141"/>
     <use xlink:href="#DejaVuSans-5d" x="273.242188"/>
    </g>
   </g>
   <g id="text_8">
    <!-- I [27] -->
    <g transform="translate(112.524797 19.344284) scale(0.1 -0.1)">
     <defs>
      <path id="DejaVuSans-49" d="M 628 4666 
L 1259 4666 
L 1259 0 
L 628 0 
L 628 4666 
z
" transform="scale(0.015625)"/>
      <path id="DejaVuSans-32" d="M 1228 531 
L 3431 531 
L 3431 0 
L 469 0 
L 469 531 
Q 828 903 1448 1529 
Q 2069 2156 2228 2338 
Q 2531 2678 2651 2914 
Q 2772 3150 2772 3378 
Q 2772 3750 2511 3984 
Q 2250 4219 1831 4219 
Q 1534 4219 1204 4116 
Q 875 4013 500 3803 
L 500 4441 
Q 881 4594 1212 4672 
Q 1544 4750 1819 4750 
Q 2544 4750 2975 4387 
Q 3406 4025 3406 3419 
Q 3406 3131 3298 2873 
Q 3191 2616 2906 2266 
Q 2828 2175 2409 1742 
Q 1991 1309 1228 531 
z
" transform="scale(0.015625)"/>
      <path id="DejaVuSans-37" d="M 525 4666 
L 3525 4666 
L 3525 4397 
L 1831 0 
L 1172 0 
L 2766 4134 
L 525 4134 
L 525 4666 
z
" transform="scale(0.015625)"/>
     </defs>
     <use xlink:href="#DejaVuSans-49"/>
     <use xlink:href="#DejaVuSans-20" x="29.492188"/>
     <use xlink:href="#DejaVuSans-5b" x="61.279297"/>
     <use xlink:href="#DejaVuSans-32" x="100.292969"/>
     <use xlink:href="#DejaVuSans-37" x="163.916016"/>
     <use xlink:href="#DejaVuSans-5d" x="227.539062"/>
    </g>
   </g>
   <g id="text_9">
    <!-- K [19] -->
    <g transform="translate(56.156611 46.844032) scale(0.1 -0.1)">
     <defs>
      <path id="DejaVuSans-4b" d="M 628 4666 
L 1259 4666 
L 1259 2694 
L 3353 4666 
L 4166 4666 
L 1850 2491 
L 4331 0 
L 3500 0 
L 1259 2247 
L 1259 0 
L 628 0 
L 628 4666 
z
" transform="scale(0.015625)"/>
      <path id="DejaVuSans-39" d="M 703 97 
L 703 672 
Q 941 559 1184 500 
Q 1428 441 1663 441 
Q 2288 441 2617 861 
Q 2947 1281 2994 2138 
Q 2813 1869 2534 1725 
Q 2256 1581 1919 1581 
Q 1219 1581 811 2004 
Q 403 2428 403 3163 
Q 403 3881 828 4315 
Q 1253 4750 1959 4750 
Q 2769 4750 3195 4129 
Q 3622 3509 3622 2328 
Q 3622 1225 3098 567 
Q 2575 -91 1691 -91 
Q 1453 -91 1209 -44 
Q 966 3 703 97 
z
M 1959 2075 
Q 2384 2075 2632 2365 
Q 2881 2656 2881 3163 
Q 2881 3666 2632 3958 
Q 2384 4250 1959 4250 
Q 1534 4250 1286 3958 
Q 1038 3666 1038 3163 
Q 1038 2656 1286 2365 
Q 1534 2075 1959 2075 
z
" transform="scale(0.015625)"/>
     </defs>
     <use xlink:href="#DejaVuSans-4b"/>
     <use xlink:href="#DejaVuSans-20" x="65.576172"/>
     <use xlink:href="#DejaVuSans-5b" x="97.363281"/>
     <use xlink:href="#DejaVuSans-31" x="136.376953"/>
     <use xlink:href="#DejaVuSans-39" x="200"/>
     <use xlink:href="#DejaVuSans-5d" x="263.623047"/>
    </g>
   </g>
   <g id="text_10">
    <!-- L [44] -->
    <g transform="translate(12.326222 114.252986) scale(0.1 -0.1)">
     <defs>
      <path id="DejaVuSans-4c" d="M 628 4666 
L 1259 4666 
L 1259 531 
L 3531 531 
L 3531 0 
L 628 0 
L 628 4666 
z
" transform="scale(0.015625)"/>
      <path id="DejaVuSans-34" d="M 2419 4116 
L 825 1625 
L 2419 1625 
L 2419 4116 
z
M 2253 4666 
L 3047 4666 
L 3047 1625 
L 3713 1625 
L 3713 1100 
L 3047 1100 
L 3047 0 
L 2419 0 
L 2419 1100 
L 313 1100 
L 313 1709 
L 2253 4666 
z
" transform="scale(0.015625)"/>
     </defs>
     <use xlink:href="#DejaVuSans-4c"/>
     <use xlink:href="#DejaVuSans-20" x="55.712891"/>
     <use xlink:href="#DejaVuSans-5b" x="87.5"/>
     <use xlink:href="#DejaVuSans-34" x="126.513672"/>
     <use xlink:href="#DejaVuSans-34" x="190.136719"/>
     <use xlink:href="#DejaVuSans-5d" x="253.759766"/>
    </g>
   </g>
   <g id="text_11">
    <!-- M [14] -->
    <g transform="translate(7.2 188.908641) scale(0.1 -0.1)">
     <defs>
      <path id="DejaVuSans-4d" d="M 628 4666 
L 1569 4666 
L 2759 1491 
L 3956 4666 
L 4897 4666 
L 4897 0 
L 4281 0 
L 4281 4097 
L 3078 897 
L 2444 897 
L 1241 4097 
L 1241 0 
L 628 0 
L 628 4666 
z
" transform="scale(0.015625)"/>
     </defs>
     <use xlink:href="#DejaVuSans-4d"/>
     <use xlink:href="#DejaVuSans-20" x="86.279297"/>
     <use xlink:href="#DejaVuSans-5b" x="118.066406"/>
     <use xlink:href="#DejaVuSans-31" x="157.080078"/>
     <use xlink:href="#DejaVuSans-34" x="220.703125"/>
     <use xlink:href="#DejaVuSans-5d" x="284.326172"/>
    </g>
   </g>
   <g id="text_12">
    <!-- N [16] -->
    <g transform="translate(22.759986 225.116356) scale(0.1 -0.1)">
     <defs>
      <path id="DejaVuSans-4e" d="M 628 4666 
L 1478 4666 
L 3547 763 
L 3547 4666 
L 4159 4666 
L 4159 0 
L 3309 0 
L 1241 3903 
L 1241 0 
L 628 0 
L 628 4666 
z
" transform="scale(0.015625)"/>
      <path id="DejaVuSans-36" d="M 2113 2584 
Q 1688 2584 1439 2293 
Q 1191 2003 1191 1497 
Q 1191 994 1439 701 
Q 1688 409 2113 409 
Q 2538 409 2786 701 
Q 3034 994 3034 1497 
Q 3034 2003 2786 2293 
Q 2538 2584 2113 2584 
z
M 3366 4563 
L 3366 3988 
Q 3128 4100 2886 4159 
Q 2644 4219 2406 4219 
Q 1781 4219 1451 3797 
Q 1122 3375 1075 2522 
Q 1259 2794 1537 2939 
Q 1816 3084 2150 3084 
Q 2853 3084 3261 2657 
Q 3669 2231 3669 1497 
Q 3669 778 3244 343 
Q 2819 -91 2113 -91 
Q 1303 -91 875 529 
Q 447 1150 447 2328 
Q 447 3434 972 4092 
Q 1497 4750 2381 4750 
Q 2619 4750 2861 4703 
Q 3103 4656 3366 4563 
z
" transform="scale(0.015625)"/>
     </defs>
     <use xlink:href="#DejaVuSans-4e"/>
     <use xlink:href="#DejaVuSans-20" x="74.804688"/>
     <use xlink:href="#DejaVuSans-5b" x="106.591797"/>
     <use xlink:href="#DejaVuSans-31" x="145.605469"/>
     <use xlink:href="#DejaVuSans-36" x="209.228516"/>
     <use xlink:href="#DejaVuSans-5d" x="272.851562"/>
    </g>
   </g>
   <g id="text_13">
    <!-- P [9] -->
    <g transform="translate(49.802854 251.327019) scale(0.1 -0.1)">
     <defs>
      <path id="DejaVuSans-50" d="M 1259 4147 
L 1259 2394 
L 2053 2394 
Q 2494 2394 2734 2622 
Q 2975 2850 2975 3272 
Q 2975 3691 2734 3919 
Q 2494 4147 2053 4147 
L 1259 4147 
z
M 628 4666 
L 2053 4666 
Q 2838 4666 3239 4311 
Q 3641 3956 3641 3272 
Q 3641 2581 3239 2228 
Q 2838 1875 2053 1875 
L 1259 1875 
L 1259 0 
L 628 0 
L 628 4666 
z
" transform="scale(0.015625)"/>
     </defs>
     <use xlink:href="#DejaVuSans-50"/>
     <use xlink:href="#DejaVuSans-20" x="60.302734"/>
     <use xlink:href="#DejaVuSans-5b" x="92.089844"/>
     <use xlink:href="#DejaVuSans-39" x="131.103516"/>
     <use xlink:href="#DejaVuSans-5d" x="194.726562"/>
    </g>
   </g>
   <g id="text_14">
    <!-- Q [9] -->
    <g transform="translate(65.276079 267.1121) scale(0.1 -0.1)">
     <defs>
      <path id="DejaVuSans-51" d="M 2522 4238 
Q 1834 4238 1429 3725 
Q 1025 3213 1025 2328 
Q 1025 1447 1429 934 
Q 1834 422 2522 422 
Q 3209 422 3611 934 
Q 4013 1447 4013 2328 
Q 4013 3213 3611 3725 
Q 3209 4238 2522 4238 
z
M 3406 84 
L 4238 -825 
L 3475 -825 
L 2784 -78 
Q 2681 -84 2626 -87 
Q 2572 -91 2522 -91 
Q 1538 -91 948 567 
Q 359 1225 359 2328 
Q 359 3434 948 4092 
Q 1538 4750 2522 4750 
Q 3503 4750 4090 4092 
Q 4678 3434 4678 2328 
Q 4678 1516 4351 937 
Q 4025 359 3406 84 
z
" transform="scale(0.015625)"/>
     </defs>
     <use xlink:href="#DejaVuSans-51"/>
     <use xlink:href="#DejaVuSans-20" x="78.710938"/>
     <use xlink:href="#DejaVuSans-5b" x="110.498047"/>
     <use xlink:href="#DejaVuSans-39" x="149.511719"/>
     <use xlink:href="#DejaVuSans-5d" x="213.134766"/>
    </g>
   </g>
   <g id="text_15">
    <!-- R [11] -->
    <g transform="translate(81.838027 281.017395) scale(0.1 -0.1)">
     <defs>
      <path id="DejaVuSans-52" d="M 2841 2188 
Q 3044 2119 3236 1894 
Q 3428 1669 3622 1275 
L 4263 0 
L 3584 0 
L 2988 1197 
Q 2756 1666 2539 1819 
Q 2322 1972 1947 1972 
L 1259 1972 
L 1259 0 
L 628 0 
L 628 4666 
L 2053 4666 
Q 2853 4666 3247 4331 
Q 3641 3997 3641 3322 
Q 3641 2881 3436 2590 
Q 3231 2300 2841 2188 
z
M 1259 4147 
L 1259 2491 
L 2053 2491 
Q 2509 2491 2742 2702 
Q 2975 2913 2975 3322 
Q 2975 3731 2742 3939 
Q 2509 4147 2053 4147 
L 1259 4147 
z
" transform="scale(0.015625)"/>
     </defs>
     <use xlink:href="#DejaVuSans-52"/>
     <use xlink:href="#DejaVuSans-20" x="69.482422"/>
     <use xlink:href="#DejaVuSans-5b" x="101.269531"/>
     <use xlink:href="#DejaVuSans-31" x="140.283203"/>
     <use xlink:href="#DejaVuSans-31" x="203.90625"/>
     <use xlink:href="#DejaVuSans-5d" x="267.529297"/>
    </g>
   </g>
   <g id="text_16">
    <!-- S [34] -->
    <g transform="translate(138.653361 296.173065) scale(0.1 -0.1)">
     <defs>
      <path id="DejaVuSans-53" d="M 3425 4513 
L 3425 3897 
Q 3066 4069 2747 4153 
Q 2428 4238 2131 4238 
Q 1616 4238 1336 4038 
Q 1056 3838 1056 3469 
Q 1056 3159 1242 3001 
Q 1428 2844 1947 2747 
L 2328 2669 
Q 3034 2534 3370 2195 
Q 3706 1856 3706 1288 
Q 3706 609 3251 259 
Q 2797 -91 1919 -91 
Q 1588 -91 1214 -16 
Q 841 59 441 206 
L 441 856 
Q 825 641 1194 531 
Q 1563 422 1919 422 
Q 2459 422 2753 634 
Q 3047 847 3047 1241 
Q 3047 1584 2836 1778 
Q 2625 1972 2144 2069 
L 1759 2144 
Q 1053 2284 737 2584 
Q 422 2884 422 3419 
Q 422 4038 858 4394 
Q 1294 4750 2059 4750 
Q 2388 4750 2728 4690 
Q 3069 4631 3425 4513 
z
" transform="scale(0.015625)"/>
     </defs>
     <use xlink:href="#DejaVuSans-53"/>
     <use xlink:href="#DejaVuSans-20" x="63.476562"/>
     <use xlink:href="#DejaVuSans-5b" x="95.263672"/>
     <use xlink:href="#DejaVuSans-33" x="134.277344"/>
     <use xlink:href="#DejaVuSans-34" x="197.900391"/>
     <use xlink:href="#DejaVuSans-5d" x="261.523438"/>
    </g>
   </g>
   <g id="text_17">
    <!-- T [30] -->
    <g transform="translate(248.542342 276.616006) scale(0.1 -0.1)">
     <defs>
      <path id="DejaVuSans-54" d="M -19 4666 
L 3928 4666 
L 3928 4134 
L 2272 4134 
L 2272 0 
L 1638 0 
L 1638 4134 
L -19 4134 
L -19 4666 
z
" transform="scale(0.015625)"/>
     </defs>
     <use xlink:href="#DejaVuSans-54"/>
     <use xlink:href="#DejaVuSans-20" x="61.083984"/>
     <use xlink:href="#DejaVuSans-5b" x="92.871094"/>
     <use xlink:href="#DejaVuSans-33" x="131.884766"/>
     <use xlink:href="#DejaVuSans-30" x="195.507812"/>
     <use xlink:href="#DejaVuSans-5d" x="259.130859"/>
    </g>
   </g>
   <g id="text_18">
    <!-- V [19] -->
    <g transform="translate(294.333376 232.893093) scale(0.1 -0.1)">
     <defs>
      <path id="DejaVuSans-56" d="M 1831 0 
L 50 4666 
L 709 4666 
L 2188 738 
L 3669 4666 
L 4325 4666 
L 2547 0 
L 1831 0 
z
" transform="scale(0.015625)"/>
     </defs>
     <use xlink:href="#DejaVuSans-56"/>
     <use xlink:href="#DejaVuSans-20" x="68.408203"/>
     <use xlink:href="#DejaVuSans-5b" x="100.195312"/>
     <use xlink:href="#DejaVuSans-31" x="139.208984"/>
     <use xlink:href="#DejaVuSans-39" x="202.832031"/>
     <use xlink:href="#DejaVuSans-5d" x="266.455078"/>
    </g>
   </g>
   <g id="text_19">
    <!-- W [8] -->
    <g transform="translate(309.831356 201.405185) scale(0.1 -0.1)">
     <defs>
      <path id="DejaVuSans-57" d="M 213 4666 
L 850 4666 
L 1831 722 
L 2809 4666 
L 3519 4666 
L 4500 722 
L 5478 4666 
L 6119 4666 
L 4947 0 
L 4153 0 
L 3169 4050 
L 2175 0 
L 1381 0 
L 213 4666 
z
" transform="scale(0.015625)"/>
     </defs>
     <use xlink:href="#DejaVuSans-57"/>
     <use xlink:href="#DejaVuSans-20" x="98.876953"/>
     <use xlink:href="#DejaVuSans-5b" x="130.664062"/>
     <use xlink:href="#DejaVuSans-38" x="169.677734"/>
     <use xlink:href="#DejaVuSans-5d" x="233.300781"/>
    </g>
   </g>
   <g id="text_20">
    <!-- Y [14] -->
    <g transform="translate(316.384163 173.544339) scale(0.1 -0.1)">
     <defs>
      <path id="DejaVuSans-59" d="M -13 4666 
L 666 4666 
L 1959 2747 
L 3244 4666 
L 3922 4666 
L 2272 2222 
L 2272 0 
L 1638 0 
L 1638 2222 
L -13 4666 
z
" transform="scale(0.015625)"/>
     </defs>
     <use xlink:href="#DejaVuSans-59"/>
     <use xlink:href="#DejaVuSans-20" x="61.083984"/>
     <use xlink:href="#DejaVuSans-5b" x="92.871094"/>
     <use xlink:href="#DejaVuSans-31" x="131.884766"/>
     <use xlink:href="#DejaVuSans-34" x="195.507812"/>
     <use xlink:href="#DejaVuSans-5d" x="259.130859"/>
    </g>
   </g>
   <g id="text_21">
    <!-- A0A4X1T5A5 [340] -->
    <g transform="translate(119.306664 152.591021) scale(0.12 -0.12)">
     <defs>
      <path id="DejaVuSans-58" d="M 403 4666 
L 1081 4666 
L 2241 2931 
L 3406 4666 
L 4084 4666 
L 2584 2425 
L 4184 0 
L 3506 0 
L 2194 1984 
L 872 0 
L 191 0 
L 1856 2491 
L 403 4666 
z
" transform="scale(0.015625)"/>
     </defs>
     <use xlink:href="#DejaVuSans-41"/>
     <use xlink:href="#DejaVuSans-30" x="68.408203"/>
     <use xlink:href="#DejaVuSans-41" x="132.03125"/>
     <use xlink:href="#DejaVuSans-34" x="200.439453"/>
     <use xlink:href="#DejaVuSans-58" x="264.0625"/>
     <use xlink:href="#DejaVuSans-31" x="332.568359"/>
     <use xlink:href="#DejaVuSans-54" x="396.191406"/>
     <use xlink:href="#DejaVuSans-35" x="457.275391"/>
     <use xlink:href="#DejaVuSans-41" x="520.898438"/>
     <use xlink:href="#DejaVuSans-35" x="589.306641"/>
     <use xlink:href="#DejaVuSans-20" x="652.929688"/>
     <use xlink:href="#DejaVuSans-5b" x="684.716797"/>
     <use xlink:href="#DejaVuSans-33" x="723.730469"/>
     <use xlink:href="#DejaVuSans-34" x="787.353516"/>
     <use xlink:href="#DejaVuSans-30" x="850.976562"/>
     <use xlink:href="#DejaVuSans-5d" x="914.599609"/>
    </g>
   </g>
  </g>
 </g>
</svg>
