<?xml version="1.0" encoding="utf-8" standalone="no"?>
<!DOCTYPE svg PUBLIC "-//W3C//DTD SVG 1.1//EN"
  "http://www.w3.org/Graphics/SVG/1.1/DTD/svg11.dtd">
<svg xmlns:xlink="http://www.w3.org/1999/xlink" width="353.020088pt" height="301.99905pt" viewBox="0 0 353.020088 301.99905" xmlns="http://www.w3.org/2000/svg" version="1.1">
 <metadata>
  <rdf:RDF xmlns:dc="http://purl.org/dc/elements/1.1/" xmlns:cc="http://creativecommons.org/ns#" xmlns:rdf="http://www.w3.org/1999/02/22-rdf-syntax-ns#">
   <cc:Work>
    <dc:type rdf:resource="http://purl.org/dc/dcmitype/StillImage"/>
    <dc:date>2024-09-27T16:07:33.835567</dc:date>
    <dc:format>image/svg+xml</dc:format>
    <dc:creator>
     <cc:Agent>
      <dc:title>Matplotlib v3.8.3, https://matplotlib.org/</dc:title>
     </cc:Agent>
    </dc:creator>
   </cc:Work>
  </rdf:RDF>
 </metadata>
 <defs>
  <style type="text/css">*{stroke-linejoin: round; stroke-linecap: butt}</style>
 </defs>
 <g id="figure_1">
  <g id="patch_1">
   <path d="M -0 301.99905 
L 353.020088 301.99905 
L 353.020088 0 
L -0 0 
z
" style="fill: #ffffff"/>
  </g>
  <g id="axes_1">
   <g id="patch_2">
    <path d="M 304.40022 151.55735 
C 304.40022 138.228012 302.313795 124.980446 298.216813 112.296362 
C 294.11983 99.612279 288.062558 87.647304 280.265251 76.83651 
L 176.66646 151.55735 
z
" style="fill: #1f77b4"/>
   </g>
   <g id="patch_3">
    <path d="M 280.158812 76.649033 
C 277.780674 73.351799 275.246481 70.169977 272.564886 67.114433 
C 269.883292 64.05889 267.057353 61.133109 264.09672 58.347082 
L 176.56002 151.369873 
z
" style="fill: #ff7f0e"/>
   </g>
   <g id="patch_4">
    <path d="M 264.019168 58.274736 
C 260.78927 55.235324 257.403264 52.366194 253.874909 49.679007 
C 250.346554 46.99182 246.680637 44.49022 242.892057 42.184375 
L 176.482468 151.297527 
z
" style="fill: #aec7e8"/>
   </g>
   <g id="patch_5">
    <path d="M 242.793353 42.124886 
C 238.688897 39.626789 234.446754 37.362273 230.087155 35.342139 
C 225.727555 33.322005 221.257441 31.549469 216.69813 30.032983 
L 176.383764 151.238038 
z
" style="fill: #ffbb78"/>
   </g>
   <g id="patch_6">
    <path d="M 216.548031 29.988781 
C 209.17985 27.538029 201.603518 25.764253 193.913188 24.689496 
C 186.222858 23.61474 178.450519 23.243473 170.692761 23.580311 
L 176.233664 151.193836 
z
" style="fill: #98df8a"/>
   </g>
   <g id="patch_7">
    <path d="M 170.518097 23.584859 
C 164.239502 23.857472 157.989578 24.593074 151.819263 25.785671 
C 145.648948 26.978268 139.575052 28.624611 133.647077 30.711281 
L 176.059001 151.198384 
z
" style="fill: #2ca02c"/>
   </g>
   <g id="patch_8">
    <path d="M 133.520129 30.752894 
C 129.336628 32.225503 125.23266 33.914999 121.224906 35.814518 
C 117.217152 37.714036 113.311047 39.820999 109.522467 42.126844 
L 175.932053 151.239998 
z
" style="fill: #d62728"/>
   </g>
   <g id="patch_9">
    <path d="M 109.417032 42.192911 
C 104.680705 45.075584 100.137094 48.263588 95.815039 51.736689 
C 91.492983 55.20979 87.401648 58.960623 83.567002 62.96538 
L 175.826618 151.306065 
z
" style="fill: #9467bd"/>
   </g>
   <g id="patch_10">
    <path d="M 83.482633 63.050484 
C 80.671018 65.986827 78.001187 69.055725 75.482259 72.246695 
C 72.963331 75.437666 70.598177 78.747073 68.394874 82.163614 
L 175.74225 151.391169 
z
" style="fill: #ff9896"/>
   </g>
   <g id="patch_11">
    <path d="M 68.285523 82.419718 
C 58.233299 98.00715 51.695723 115.59862 49.128559 133.967749 
C 46.561394 152.336879 48.025716 171.046648 53.41944 188.792717 
L 175.632898 151.647273 
z
" style="fill: #c5b0d5"/>
   </g>
   <g id="patch_12">
    <path d="M 53.449282 189.056108 
C 54.309007 191.884715 55.266673 194.682623 56.320552 197.444776 
C 57.37443 200.206928 58.523886 202.93166 59.76684 205.614049 
L 175.662741 151.910663 
z
" style="fill: #c49c94"/>
   </g>
   <g id="patch_13">
    <path d="M 59.81188 205.704966 
C 61.987501 210.400118 64.446427 214.958727 67.175059 219.355583 
C 69.903691 223.75244 72.896991 227.979423 76.138404 232.013158 
L 175.70778 152.001579 
z
" style="fill: #8c564b"/>
   </g>
   <g id="patch_14">
    <path d="M 76.229265 232.123262 
C 80.165841 237.022083 84.458588 241.623712 89.07252 245.890643 
C 93.686452 250.157575 98.608999 254.078186 103.800042 257.620523 
L 175.798641 152.111683 
z
" style="fill: #e377c2"/>
   </g>
   <g id="patch_15">
    <path d="M 103.892627 257.689149 
C 106.334609 259.355543 108.833708 260.936656 111.385408 262.429631 
C 113.937108 263.922606 116.539871 265.326543 119.188993 266.638906 
L 175.891226 152.180309 
z
" style="fill: #7f7f7f"/>
   </g>
   <g id="patch_16">
    <path d="M 119.334196 266.697214 
C 127.952101 270.966482 137.02467 274.248826 146.379283 276.481795 
C 155.733896 278.714763 165.310845 279.884104 174.927911 279.967567 
L 176.036428 152.238617 
z
" style="fill: #f7b6d2"/>
   </g>
   <g id="patch_17">
    <path d="M 175.157012 279.971544 
C 184.032916 280.048575 192.892724 279.200215 201.592726 277.440224 
C 210.292728 275.680233 218.78563 273.01818 226.933673 269.497243 
L 176.26553 152.242594 
z
" style="fill: #c7c7c7"/>
   </g>
   <g id="patch_18">
    <path d="M 227.092921 269.437274 
C 231.503631 267.531315 235.803287 265.378 239.971384 262.987599 
C 244.13948 260.597197 248.169381 257.973515 252.041866 255.129064 
L 176.424777 152.182625 
z
" style="fill: #dbdb8d"/>
   </g>
   <g id="patch_19">
    <path d="M 252.194839 254.997145 
C 261.440679 248.205812 269.729604 240.199745 276.837739 231.195181 
C 283.945874 222.190617 289.808642 212.26936 294.267695 201.699374 
L 176.57775 152.050706 
z
" style="fill: #bcbd22"/>
   </g>
   <g id="patch_20">
    <path d="M 294.353489 201.541958 
C 295.502599 198.818046 296.556795 196.055061 297.514173 193.257996 
C 298.471551 190.460931 299.331535 187.631472 300.09257 184.77473 
L 176.663544 151.89329 
z
" style="fill: #17becf"/>
   </g>
   <g id="patch_21">
    <path d="M 300.116746 184.671465 
C 301.544047 179.313722 302.620985 173.868726 303.340725 168.371039 
C 304.060465 162.873352 304.42148 157.33463 304.421481 151.790029 
L 176.687721 151.790025 
z
" style="fill: #9edae5"/>
   </g>
   <g id="patch_22">
    <path d="M 250.67136 151.720937 
C 250.67136 143.94549 249.454279 136.217743 247.064372 128.818695 
C 244.674466 121.419646 241.141057 114.440077 236.592628 108.133781 
L 176.16 151.720937 
z
" style="fill: #ffffff"/>
   </g>
   <g id="patch_23">
    <path d="M 236.592628 108.133781 
C 235.205381 106.210394 233.727102 104.354331 232.162838 102.571931 
C 230.598575 100.789531 228.95011 99.082825 227.223075 97.457643 
L 176.16 151.720937 
z
" style="fill: #ffffff"/>
   </g>
   <g id="patch_24">
    <path d="M 227.223075 97.457643 
C 225.338968 95.684652 223.363797 94.010993 221.30559 92.443467 
C 219.247383 90.875941 217.108932 89.416675 214.898927 88.071599 
L 176.16 151.720937 
z
" style="fill: #ffffff"/>
   </g>
   <g id="patch_25">
    <path d="M 214.898927 88.071599 
C 212.504661 86.614375 210.030077 85.293408 207.486978 84.114997 
C 204.943878 82.936585 202.336311 81.902605 199.676713 81.017989 
L 176.16 151.720937 
z
" style="fill: #ffffff"/>
   </g>
   <g id="patch_26">
    <path d="M 199.676713 81.017989 
C 195.378608 79.588383 190.959081 78.553681 186.473055 77.926739 
C 181.987029 77.299798 177.453165 77.083226 172.927806 77.279714 
L 176.16 151.720937 
z
" style="fill: #ffffff"/>
   </g>
   <g id="patch_27">
    <path d="M 172.927806 77.279714 
C 169.265292 77.438738 165.619503 77.86784 162.020153 78.563521 
C 158.420802 79.259203 154.877696 80.219569 151.419711 81.436793 
L 176.16 151.720937 
z
" style="fill: #ffffff"/>
   </g>
   <g id="patch_28">
    <path d="M 151.419711 81.436793 
C 148.979335 82.295815 146.585354 83.281355 144.247497 84.389407 
C 141.909641 85.497459 139.63108 86.726521 137.421074 88.071598 
L 176.16 151.720937 
z
" style="fill: #ffffff"/>
   </g>
   <g id="patch_29">
    <path d="M 137.421074 88.071598 
C 134.658217 89.753157 132.007777 91.612826 129.486578 93.638801 
C 126.965379 95.664777 124.578767 97.852763 122.34189 100.188871 
L 176.16 151.720937 
z
" style="fill: #ffffff"/>
   </g>
   <g id="patch_30">
    <path d="M 122.34189 100.188871 
C 120.701781 101.901738 119.14438 103.691928 117.675005 105.553328 
C 116.20563 107.414727 114.825957 109.345215 113.540697 111.338197 
L 176.16 151.720937 
z
" style="fill: #ffffff"/>
   </g>
   <g id="patch_31">
    <path d="M 113.540697 111.338197 
C 107.6769 120.430866 103.863314 130.692557 102.365802 141.407882 
C 100.868289 152.123207 101.722477 163.037239 104.868816 173.389113 
L 176.16 151.720937 
z
" style="fill: #ffffff"/>
   </g>
   <g id="patch_32">
    <path d="M 104.868816 173.389113 
C 105.370322 175.039135 105.928961 176.671247 106.543723 178.282503 
C 107.158485 179.893759 107.829001 181.483186 108.554058 183.047913 
L 176.16 151.720937 
z
" style="fill: #ffffff"/>
   </g>
   <g id="patch_33">
    <path d="M 108.554058 183.047913 
C 109.82317 185.786752 111.257544 188.44594 112.849246 191.010773 
C 114.440948 193.575606 116.187039 196.041346 118.077864 198.394359 
L 176.16 151.720937 
z
" style="fill: #ffffff"/>
   </g>
   <g id="patch_34">
    <path d="M 118.077864 198.394359 
C 120.3742 201.252004 122.878302 203.936287 125.569763 206.425331 
C 128.261223 208.914374 131.132709 211.201397 134.160817 213.26776 
L 176.16 151.720937 
z
" style="fill: #ffffff"/>
   </g>
   <g id="patch_35">
    <path d="M 134.160817 213.26776 
C 135.585307 214.239824 137.043115 215.16214 138.531606 216.033042 
C 140.020098 216.903944 141.538376 217.722907 143.083698 218.488452 
L 176.16 151.720937 
z
" style="fill: #ffffff"/>
   </g>
   <g id="patch_36">
    <path d="M 143.083698 218.488452 
C 148.110809 220.978858 153.403141 222.893559 158.859998 224.196124 
C 164.316856 225.498689 169.903409 226.180804 175.513365 226.229491 
L 176.16 151.720937 
z
" style="fill: #ffffff"/>
   </g>
   <g id="patch_37">
    <path d="M 175.513365 226.229491 
C 180.690975 226.274426 185.859196 225.779549 190.934198 224.752888 
C 196.009199 223.726227 200.963392 222.173362 205.716417 220.119482 
L 176.16 151.720937 
z
" style="fill: #ffffff"/>
   </g>
   <g id="patch_38">
    <path d="M 205.716417 220.119482 
C 208.289331 219.007673 210.797464 217.751573 213.228854 216.357172 
C 215.660243 214.962771 218.011018 213.43229 220.269968 211.773027 
L 176.16 151.720937 
z
" style="fill: #ffffff"/>
   </g>
   <g id="patch_39">
    <path d="M 220.269968 211.773027 
C 225.663375 207.811416 230.498582 203.14121 234.644994 197.888548 
C 238.791406 192.635885 242.211354 186.848485 244.812468 180.68266 
L 176.16 151.720937 
z
" style="fill: #ffffff"/>
   </g>
   <g id="patch_40">
    <path d="M 244.812468 180.68266 
C 245.482782 179.093712 246.097729 177.481971 246.6562 175.850349 
C 247.214671 174.218728 247.716328 172.56821 248.160265 170.901777 
L 176.16 151.720937 
z
" style="fill: #ffffff"/>
   </g>
   <g id="patch_41">
    <path d="M 248.160265 170.901777 
C 248.992857 167.776427 249.62107 164.60018 250.040919 161.393196 
C 250.460767 158.186211 250.67136 154.95529 250.67136 151.72094 
L 176.16 151.720937 
z
" style="fill: #ffffff"/>
   </g>
   <g id="matplotlib.axis_1"/>
   <g id="matplotlib.axis_2"/>
   <g id="text_1">
    <!-- A [36] -->
    <g transform="translate(310.371848 111.129639) scale(0.1 -0.1)">
     <defs>
      <path id="DejaVuSans-41" d="M 2188 4044 
L 1331 1722 
L 3047 1722 
L 2188 4044 
z
M 1831 4666 
L 2547 4666 
L 4325 0 
L 3669 0 
L 3244 1197 
L 1141 1197 
L 716 0 
L 50 0 
L 1831 4666 
z
" transform="scale(0.015625)"/>
      <path id="DejaVuSans-20" transform="scale(0.015625)"/>
      <path id="DejaVuSans-5b" d="M 550 4863 
L 1875 4863 
L 1875 4416 
L 1125 4416 
L 1125 -397 
L 1875 -397 
L 1875 -844 
L 550 -844 
L 550 4863 
z
" transform="scale(0.015625)"/>
      <path id="DejaVuSans-33" d="M 2597 2516 
Q 3050 2419 3304 2112 
Q 3559 1806 3559 1356 
Q 3559 666 3084 287 
Q 2609 -91 1734 -91 
Q 1441 -91 1130 -33 
Q 819 25 488 141 
L 488 750 
Q 750 597 1062 519 
Q 1375 441 1716 441 
Q 2309 441 2620 675 
Q 2931 909 2931 1356 
Q 2931 1769 2642 2001 
Q 2353 2234 1838 2234 
L 1294 2234 
L 1294 2753 
L 1863 2753 
Q 2328 2753 2575 2939 
Q 2822 3125 2822 3475 
Q 2822 3834 2567 4026 
Q 2313 4219 1838 4219 
Q 1578 4219 1281 4162 
Q 984 4106 628 3988 
L 628 4550 
Q 988 4650 1302 4700 
Q 1616 4750 1894 4750 
Q 2613 4750 3031 4423 
Q 3450 4097 3450 3541 
Q 3450 3153 3228 2886 
Q 3006 2619 2597 2516 
z
" transform="scale(0.015625)"/>
      <path id="DejaVuSans-36" d="M 2113 2584 
Q 1688 2584 1439 2293 
Q 1191 2003 1191 1497 
Q 1191 994 1439 701 
Q 1688 409 2113 409 
Q 2538 409 2786 701 
Q 3034 994 3034 1497 
Q 3034 2003 2786 2293 
Q 2538 2584 2113 2584 
z
M 3366 4563 
L 3366 3988 
Q 3128 4100 2886 4159 
Q 2644 4219 2406 4219 
Q 1781 4219 1451 3797 
Q 1122 3375 1075 2522 
Q 1259 2794 1537 2939 
Q 1816 3084 2150 3084 
Q 2853 3084 3261 2657 
Q 3669 2231 3669 1497 
Q 3669 778 3244 343 
Q 2819 -91 2113 -91 
Q 1303 -91 875 529 
Q 447 1150 447 2328 
Q 447 3434 972 4092 
Q 1497 4750 2381 4750 
Q 2619 4750 2861 4703 
Q 3103 4656 3366 4563 
z
" transform="scale(0.015625)"/>
      <path id="DejaVuSans-5d" d="M 1947 4863 
L 1947 -844 
L 622 -844 
L 622 -397 
L 1369 -397 
L 1369 4416 
L 622 4416 
L 622 4863 
L 1947 4863 
z
" transform="scale(0.015625)"/>
     </defs>
     <use xlink:href="#DejaVuSans-41"/>
     <use xlink:href="#DejaVuSans-20" x="68.408203"/>
     <use xlink:href="#DejaVuSans-5b" x="100.195312"/>
     <use xlink:href="#DejaVuSans-33" x="139.208984"/>
     <use xlink:href="#DejaVuSans-36" x="202.832031"/>
     <use xlink:href="#DejaVuSans-5d" x="266.455078"/>
    </g>
   </g>
   <g id="text_2">
    <!-- C [11] -->
    <g transform="translate(282.165373 61.448265) scale(0.1 -0.1)">
     <defs>
      <path id="DejaVuSans-43" d="M 4122 4306 
L 4122 3641 
Q 3803 3938 3442 4084 
Q 3081 4231 2675 4231 
Q 1875 4231 1450 3742 
Q 1025 3253 1025 2328 
Q 1025 1406 1450 917 
Q 1875 428 2675 428 
Q 3081 428 3442 575 
Q 3803 722 4122 1019 
L 4122 359 
Q 3791 134 3420 21 
Q 3050 -91 2638 -91 
Q 1578 -91 968 557 
Q 359 1206 359 2328 
Q 359 3453 968 4101 
Q 1578 4750 2638 4750 
Q 3056 4750 3426 4639 
Q 3797 4528 4122 4306 
z
" transform="scale(0.015625)"/>
      <path id="DejaVuSans-31" d="M 794 531 
L 1825 531 
L 1825 4091 
L 703 3866 
L 703 4441 
L 1819 4666 
L 2450 4666 
L 2450 531 
L 3481 531 
L 3481 0 
L 794 0 
L 794 531 
z
" transform="scale(0.015625)"/>
     </defs>
     <use xlink:href="#DejaVuSans-43"/>
     <use xlink:href="#DejaVuSans-20" x="69.824219"/>
     <use xlink:href="#DejaVuSans-5b" x="101.611328"/>
     <use xlink:href="#DejaVuSans-31" x="140.625"/>
     <use xlink:href="#DejaVuSans-31" x="204.248047"/>
     <use xlink:href="#DejaVuSans-5d" x="267.871094"/>
    </g>
   </g>
   <g id="text_3">
    <!-- D [12] -->
    <g transform="translate(261.614153 42.27653) scale(0.1 -0.1)">
     <defs>
      <path id="DejaVuSans-44" d="M 1259 4147 
L 1259 519 
L 2022 519 
Q 2988 519 3436 956 
Q 3884 1394 3884 2338 
Q 3884 3275 3436 3711 
Q 2988 4147 2022 4147 
L 1259 4147 
z
M 628 4666 
L 1925 4666 
Q 3281 4666 3915 4102 
Q 4550 3538 4550 2338 
Q 4550 1131 3912 565 
Q 3275 0 1925 0 
L 628 0 
L 628 4666 
z
" transform="scale(0.015625)"/>
      <path id="DejaVuSans-32" d="M 1228 531 
L 3431 531 
L 3431 0 
L 469 0 
L 469 531 
Q 828 903 1448 1529 
Q 2069 2156 2228 2338 
Q 2531 2678 2651 2914 
Q 2772 3150 2772 3378 
Q 2772 3750 2511 3984 
Q 2250 4219 1831 4219 
Q 1534 4219 1204 4116 
Q 875 4013 500 3803 
L 500 4441 
Q 881 4594 1212 4672 
Q 1544 4750 1819 4750 
Q 2544 4750 2975 4387 
Q 3406 4025 3406 3419 
Q 3406 3131 3298 2873 
Q 3191 2616 2906 2266 
Q 2828 2175 2409 1742 
Q 1991 1309 1228 531 
z
" transform="scale(0.015625)"/>
     </defs>
     <use xlink:href="#DejaVuSans-44"/>
     <use xlink:href="#DejaVuSans-20" x="77.001953"/>
     <use xlink:href="#DejaVuSans-5b" x="108.789062"/>
     <use xlink:href="#DejaVuSans-31" x="147.802734"/>
     <use xlink:href="#DejaVuSans-32" x="211.425781"/>
     <use xlink:href="#DejaVuSans-5d" x="275.048828"/>
    </g>
   </g>
   <g id="text_4">
    <!-- E [13] -->
    <g transform="translate(235.457494 26.511924) scale(0.1 -0.1)">
     <defs>
      <path id="DejaVuSans-45" d="M 628 4666 
L 3578 4666 
L 3578 4134 
L 1259 4134 
L 1259 2753 
L 3481 2753 
L 3481 2222 
L 1259 2222 
L 1259 531 
L 3634 531 
L 3634 0 
L 628 0 
L 628 4666 
z
" transform="scale(0.015625)"/>
     </defs>
     <use xlink:href="#DejaVuSans-45"/>
     <use xlink:href="#DejaVuSans-20" x="63.183594"/>
     <use xlink:href="#DejaVuSans-5b" x="94.970703"/>
     <use xlink:href="#DejaVuSans-31" x="133.984375"/>
     <use xlink:href="#DejaVuSans-33" x="197.607422"/>
     <use xlink:href="#DejaVuSans-5d" x="261.230469"/>
    </g>
   </g>
   <g id="text_5">
    <!-- F [21] -->
    <g transform="translate(195.68114 14.798437) scale(0.1 -0.1)">
     <defs>
      <path id="DejaVuSans-46" d="M 628 4666 
L 3309 4666 
L 3309 4134 
L 1259 4134 
L 1259 2759 
L 3109 2759 
L 3109 2228 
L 1259 2228 
L 1259 0 
L 628 0 
L 628 4666 
z
" transform="scale(0.015625)"/>
     </defs>
     <use xlink:href="#DejaVuSans-46"/>
     <use xlink:href="#DejaVuSans-20" x="57.519531"/>
     <use xlink:href="#DejaVuSans-5b" x="89.306641"/>
     <use xlink:href="#DejaVuSans-32" x="128.320312"/>
     <use xlink:href="#DejaVuSans-31" x="191.943359"/>
     <use xlink:href="#DejaVuSans-5d" x="255.566406"/>
    </g>
   </g>
   <g id="text_6">
    <!-- G [17] -->
    <g transform="translate(117.940602 16.003775) scale(0.1 -0.1)">
     <defs>
      <path id="DejaVuSans-47" d="M 3809 666 
L 3809 1919 
L 2778 1919 
L 2778 2438 
L 4434 2438 
L 4434 434 
Q 4069 175 3628 42 
Q 3188 -91 2688 -91 
Q 1594 -91 976 548 
Q 359 1188 359 2328 
Q 359 3472 976 4111 
Q 1594 4750 2688 4750 
Q 3144 4750 3555 4637 
Q 3966 4525 4313 4306 
L 4313 3634 
Q 3963 3931 3569 4081 
Q 3175 4231 2741 4231 
Q 1884 4231 1454 3753 
Q 1025 3275 1025 2328 
Q 1025 1384 1454 906 
Q 1884 428 2741 428 
Q 3075 428 3337 486 
Q 3600 544 3809 666 
z
" transform="scale(0.015625)"/>
      <path id="DejaVuSans-37" d="M 525 4666 
L 3525 4666 
L 3525 4397 
L 1831 0 
L 1172 0 
L 2766 4134 
L 525 4134 
L 525 4666 
z
" transform="scale(0.015625)"/>
     </defs>
     <use xlink:href="#DejaVuSans-47"/>
     <use xlink:href="#DejaVuSans-20" x="77.490234"/>
     <use xlink:href="#DejaVuSans-5b" x="109.277344"/>
     <use xlink:href="#DejaVuSans-31" x="148.291016"/>
     <use xlink:href="#DejaVuSans-37" x="211.914062"/>
     <use xlink:href="#DejaVuSans-5d" x="275.537109"/>
    </g>
   </g>
   <g id="text_7">
    <!-- H [12] -->
    <g transform="translate(84.527629 27.031345) scale(0.1 -0.1)">
     <defs>
      <path id="DejaVuSans-48" d="M 628 4666 
L 1259 4666 
L 1259 2753 
L 3553 2753 
L 3553 4666 
L 4184 4666 
L 4184 0 
L 3553 0 
L 3553 2222 
L 1259 2222 
L 1259 0 
L 628 0 
L 628 4666 
z
" transform="scale(0.015625)"/>
     </defs>
     <use xlink:href="#DejaVuSans-48"/>
     <use xlink:href="#DejaVuSans-20" x="75.195312"/>
     <use xlink:href="#DejaVuSans-5b" x="106.982422"/>
     <use xlink:href="#DejaVuSans-31" x="145.996094"/>
     <use xlink:href="#DejaVuSans-32" x="209.619141"/>
     <use xlink:href="#DejaVuSans-5d" x="273.242188"/>
    </g>
   </g>
   <g id="text_8">
    <!-- I [15] -->
    <g transform="translate(61.157631 44.539126) scale(0.1 -0.1)">
     <defs>
      <path id="DejaVuSans-49" d="M 628 4666 
L 1259 4666 
L 1259 0 
L 628 0 
L 628 4666 
z
" transform="scale(0.015625)"/>
      <path id="DejaVuSans-35" d="M 691 4666 
L 3169 4666 
L 3169 4134 
L 1269 4134 
L 1269 2991 
Q 1406 3038 1543 3061 
Q 1681 3084 1819 3084 
Q 2600 3084 3056 2656 
Q 3513 2228 3513 1497 
Q 3513 744 3044 326 
Q 2575 -91 1722 -91 
Q 1428 -91 1123 -41 
Q 819 9 494 109 
L 494 744 
Q 775 591 1075 516 
Q 1375 441 1709 441 
Q 2250 441 2565 725 
Q 2881 1009 2881 1497 
Q 2881 1984 2565 2268 
Q 2250 2553 1709 2553 
Q 1456 2553 1204 2497 
Q 953 2441 691 2322 
L 691 4666 
z
" transform="scale(0.015625)"/>
     </defs>
     <use xlink:href="#DejaVuSans-49"/>
     <use xlink:href="#DejaVuSans-20" x="29.492188"/>
     <use xlink:href="#DejaVuSans-5b" x="61.279297"/>
     <use xlink:href="#DejaVuSans-31" x="100.292969"/>
     <use xlink:href="#DejaVuSans-35" x="163.916016"/>
     <use xlink:href="#DejaVuSans-5d" x="227.539062"/>
    </g>
   </g>
   <g id="text_9">
    <!-- K [11] -->
    <g transform="translate(35.192197 67.091623) scale(0.1 -0.1)">
     <defs>
      <path id="DejaVuSans-4b" d="M 628 4666 
L 1259 4666 
L 1259 2694 
L 3353 4666 
L 4166 4666 
L 1850 2491 
L 4331 0 
L 3500 0 
L 1259 2247 
L 1259 0 
L 628 0 
L 628 4666 
z
" transform="scale(0.015625)"/>
     </defs>
     <use xlink:href="#DejaVuSans-4b"/>
     <use xlink:href="#DejaVuSans-20" x="65.576172"/>
     <use xlink:href="#DejaVuSans-5b" x="97.363281"/>
     <use xlink:href="#DejaVuSans-31" x="136.376953"/>
     <use xlink:href="#DejaVuSans-31" x="200"/>
     <use xlink:href="#DejaVuSans-5d" x="263.623047"/>
    </g>
   </g>
   <g id="text_10">
    <!-- L [50] -->
    <g transform="translate(7.2 134.959172) scale(0.1 -0.1)">
     <defs>
      <path id="DejaVuSans-4c" d="M 628 4666 
L 1259 4666 
L 1259 531 
L 3531 531 
L 3531 0 
L 628 0 
L 628 4666 
z
" transform="scale(0.015625)"/>
      <path id="DejaVuSans-30" d="M 2034 4250 
Q 1547 4250 1301 3770 
Q 1056 3291 1056 2328 
Q 1056 1369 1301 889 
Q 1547 409 2034 409 
Q 2525 409 2770 889 
Q 3016 1369 3016 2328 
Q 3016 3291 2770 3770 
Q 2525 4250 2034 4250 
z
M 2034 4750 
Q 2819 4750 3233 4129 
Q 3647 3509 3647 2328 
Q 3647 1150 3233 529 
Q 2819 -91 2034 -91 
Q 1250 -91 836 529 
Q 422 1150 422 2328 
Q 422 3509 836 4129 
Q 1250 4750 2034 4750 
z
" transform="scale(0.015625)"/>
     </defs>
     <use xlink:href="#DejaVuSans-4c"/>
     <use xlink:href="#DejaVuSans-20" x="55.712891"/>
     <use xlink:href="#DejaVuSans-5b" x="87.5"/>
     <use xlink:href="#DejaVuSans-35" x="126.513672"/>
     <use xlink:href="#DejaVuSans-30" x="190.136719"/>
     <use xlink:href="#DejaVuSans-5d" x="253.759766"/>
    </g>
   </g>
   <g id="text_11">
    <!-- M [8] -->
    <g transform="translate(18.414458 204.757562) scale(0.1 -0.1)">
     <defs>
      <path id="DejaVuSans-4d" d="M 628 4666 
L 1569 4666 
L 2759 1491 
L 3956 4666 
L 4897 4666 
L 4897 0 
L 4281 0 
L 4281 4097 
L 3078 897 
L 2444 897 
L 1241 4097 
L 1241 0 
L 628 0 
L 628 4666 
z
" transform="scale(0.015625)"/>
      <path id="DejaVuSans-38" d="M 2034 2216 
Q 1584 2216 1326 1975 
Q 1069 1734 1069 1313 
Q 1069 891 1326 650 
Q 1584 409 2034 409 
Q 2484 409 2743 651 
Q 3003 894 3003 1313 
Q 3003 1734 2745 1975 
Q 2488 2216 2034 2216 
z
M 1403 2484 
Q 997 2584 770 2862 
Q 544 3141 544 3541 
Q 544 4100 942 4425 
Q 1341 4750 2034 4750 
Q 2731 4750 3128 4425 
Q 3525 4100 3525 3541 
Q 3525 3141 3298 2862 
Q 3072 2584 2669 2484 
Q 3125 2378 3379 2068 
Q 3634 1759 3634 1313 
Q 3634 634 3220 271 
Q 2806 -91 2034 -91 
Q 1263 -91 848 271 
Q 434 634 434 1313 
Q 434 1759 690 2068 
Q 947 2378 1403 2484 
z
M 1172 3481 
Q 1172 3119 1398 2916 
Q 1625 2713 2034 2713 
Q 2441 2713 2670 2916 
Q 2900 3119 2900 3481 
Q 2900 3844 2670 4047 
Q 2441 4250 2034 4250 
Q 1625 4250 1398 4047 
Q 1172 3844 1172 3481 
z
" transform="scale(0.015625)"/>
     </defs>
     <use xlink:href="#DejaVuSans-4d"/>
     <use xlink:href="#DejaVuSans-20" x="86.279297"/>
     <use xlink:href="#DejaVuSans-5b" x="118.066406"/>
     <use xlink:href="#DejaVuSans-38" x="157.080078"/>
     <use xlink:href="#DejaVuSans-5d" x="220.703125"/>
    </g>
   </g>
   <g id="text_12">
    <!-- N [14] -->
    <g transform="translate(25.134287 228.850359) scale(0.1 -0.1)">
     <defs>
      <path id="DejaVuSans-4e" d="M 628 4666 
L 1478 4666 
L 3547 763 
L 3547 4666 
L 4159 4666 
L 4159 0 
L 3309 0 
L 1241 3903 
L 1241 0 
L 628 0 
L 628 4666 
z
" transform="scale(0.015625)"/>
      <path id="DejaVuSans-34" d="M 2419 4116 
L 825 1625 
L 2419 1625 
L 2419 4116 
z
M 2253 4666 
L 3047 4666 
L 3047 1625 
L 3713 1625 
L 3713 1100 
L 3047 1100 
L 3047 0 
L 2419 0 
L 2419 1100 
L 313 1100 
L 313 1709 
L 2253 4666 
z
" transform="scale(0.015625)"/>
     </defs>
     <use xlink:href="#DejaVuSans-4e"/>
     <use xlink:href="#DejaVuSans-20" x="74.804688"/>
     <use xlink:href="#DejaVuSans-5b" x="106.591797"/>
     <use xlink:href="#DejaVuSans-31" x="145.605469"/>
     <use xlink:href="#DejaVuSans-34" x="209.228516"/>
     <use xlink:href="#DejaVuSans-5d" x="272.851562"/>
    </g>
   </g>
   <g id="text_13">
    <!-- P [17] -->
    <g transform="translate(50.663971 258.027914) scale(0.1 -0.1)">
     <defs>
      <path id="DejaVuSans-50" d="M 1259 4147 
L 1259 2394 
L 2053 2394 
Q 2494 2394 2734 2622 
Q 2975 2850 2975 3272 
Q 2975 3691 2734 3919 
Q 2494 4147 2053 4147 
L 1259 4147 
z
M 628 4666 
L 2053 4666 
Q 2838 4666 3239 4311 
Q 3641 3956 3641 3272 
Q 3641 2581 3239 2228 
Q 2838 1875 2053 1875 
L 1259 1875 
L 1259 0 
L 628 0 
L 628 4666 
z
" transform="scale(0.015625)"/>
     </defs>
     <use xlink:href="#DejaVuSans-50"/>
     <use xlink:href="#DejaVuSans-20" x="60.302734"/>
     <use xlink:href="#DejaVuSans-5b" x="92.089844"/>
     <use xlink:href="#DejaVuSans-31" x="131.103516"/>
     <use xlink:href="#DejaVuSans-37" x="194.726562"/>
     <use xlink:href="#DejaVuSans-5d" x="258.349609"/>
    </g>
   </g>
   <g id="text_14">
    <!-- Q [8] -->
    <g transform="translate(79.719201 276.213938) scale(0.1 -0.1)">
     <defs>
      <path id="DejaVuSans-51" d="M 2522 4238 
Q 1834 4238 1429 3725 
Q 1025 3213 1025 2328 
Q 1025 1447 1429 934 
Q 1834 422 2522 422 
Q 3209 422 3611 934 
Q 4013 1447 4013 2328 
Q 4013 3213 3611 3725 
Q 3209 4238 2522 4238 
z
M 3406 84 
L 4238 -825 
L 3475 -825 
L 2784 -78 
Q 2681 -84 2626 -87 
Q 2572 -91 2522 -91 
Q 1538 -91 948 567 
Q 359 1225 359 2328 
Q 359 3434 948 4092 
Q 1538 4750 2522 4750 
Q 3503 4750 4090 4092 
Q 4678 3434 4678 2328 
Q 4678 1516 4351 937 
Q 4025 359 3406 84 
z
" transform="scale(0.015625)"/>
     </defs>
     <use xlink:href="#DejaVuSans-51"/>
     <use xlink:href="#DejaVuSans-20" x="78.710938"/>
     <use xlink:href="#DejaVuSans-5b" x="110.498047"/>
     <use xlink:href="#DejaVuSans-38" x="149.511719"/>
     <use xlink:href="#DejaVuSans-5d" x="213.134766"/>
    </g>
   </g>
   <g id="text_15">
    <!-- R [26] -->
    <g transform="translate(112.758881 291.665488) scale(0.1 -0.1)">
     <defs>
      <path id="DejaVuSans-52" d="M 2841 2188 
Q 3044 2119 3236 1894 
Q 3428 1669 3622 1275 
L 4263 0 
L 3584 0 
L 2988 1197 
Q 2756 1666 2539 1819 
Q 2322 1972 1947 1972 
L 1259 1972 
L 1259 0 
L 628 0 
L 628 4666 
L 2053 4666 
Q 2853 4666 3247 4331 
Q 3641 3997 3641 3322 
Q 3641 2881 3436 2590 
Q 3231 2300 2841 2188 
z
M 1259 4147 
L 1259 2491 
L 2053 2491 
Q 2509 2491 2742 2702 
Q 2975 2913 2975 3322 
Q 2975 3731 2742 3939 
Q 2509 4147 2053 4147 
L 1259 4147 
z
" transform="scale(0.015625)"/>
     </defs>
     <use xlink:href="#DejaVuSans-52"/>
     <use xlink:href="#DejaVuSans-20" x="69.482422"/>
     <use xlink:href="#DejaVuSans-5b" x="101.269531"/>
     <use xlink:href="#DejaVuSans-32" x="140.283203"/>
     <use xlink:href="#DejaVuSans-36" x="203.90625"/>
     <use xlink:href="#DejaVuSans-5d" x="267.529297"/>
    </g>
   </g>
   <g id="text_16">
    <!-- S [24] -->
    <g transform="translate(204.125446 292.719362) scale(0.1 -0.1)">
     <defs>
      <path id="DejaVuSans-53" d="M 3425 4513 
L 3425 3897 
Q 3066 4069 2747 4153 
Q 2428 4238 2131 4238 
Q 1616 4238 1336 4038 
Q 1056 3838 1056 3469 
Q 1056 3159 1242 3001 
Q 1428 2844 1947 2747 
L 2328 2669 
Q 3034 2534 3370 2195 
Q 3706 1856 3706 1288 
Q 3706 609 3251 259 
Q 2797 -91 1919 -91 
Q 1588 -91 1214 -16 
Q 841 59 441 206 
L 441 856 
Q 825 641 1194 531 
Q 1563 422 1919 422 
Q 2459 422 2753 634 
Q 3047 847 3047 1241 
Q 3047 1584 2836 1778 
Q 2625 1972 2144 2069 
L 1759 2144 
Q 1053 2284 737 2584 
Q 422 2884 422 3419 
Q 422 4038 858 4394 
Q 1294 4750 2059 4750 
Q 2388 4750 2728 4690 
Q 3069 4631 3425 4513 
z
" transform="scale(0.015625)"/>
     </defs>
     <use xlink:href="#DejaVuSans-53"/>
     <use xlink:href="#DejaVuSans-20" x="63.476562"/>
     <use xlink:href="#DejaVuSans-5b" x="95.263672"/>
     <use xlink:href="#DejaVuSans-32" x="134.277344"/>
     <use xlink:href="#DejaVuSans-34" x="197.900391"/>
     <use xlink:href="#DejaVuSans-5d" x="261.523438"/>
    </g>
   </g>
   <g id="text_17">
    <!-- T [13] -->
    <g transform="translate(246.326044 276.827471) scale(0.1 -0.1)">
     <defs>
      <path id="DejaVuSans-54" d="M -19 4666 
L 3928 4666 
L 3928 4134 
L 2272 4134 
L 2272 0 
L 1638 0 
L 1638 4134 
L -19 4134 
L -19 4666 
z
" transform="scale(0.015625)"/>
     </defs>
     <use xlink:href="#DejaVuSans-54"/>
     <use xlink:href="#DejaVuSans-20" x="61.083984"/>
     <use xlink:href="#DejaVuSans-5b" x="92.871094"/>
     <use xlink:href="#DejaVuSans-31" x="131.884766"/>
     <use xlink:href="#DejaVuSans-33" x="195.507812"/>
     <use xlink:href="#DejaVuSans-5d" x="259.130859"/>
    </g>
   </g>
   <g id="text_18">
    <!-- V [31] -->
    <g transform="translate(286.863738 241.869004) scale(0.1 -0.1)">
     <defs>
      <path id="DejaVuSans-56" d="M 1831 0 
L 50 4666 
L 709 4666 
L 2188 738 
L 3669 4666 
L 4325 4666 
L 2547 0 
L 1831 0 
z
" transform="scale(0.015625)"/>
     </defs>
     <use xlink:href="#DejaVuSans-56"/>
     <use xlink:href="#DejaVuSans-20" x="68.408203"/>
     <use xlink:href="#DejaVuSans-5b" x="100.195312"/>
     <use xlink:href="#DejaVuSans-33" x="139.208984"/>
     <use xlink:href="#DejaVuSans-31" x="202.832031"/>
     <use xlink:href="#DejaVuSans-5d" x="266.455078"/>
    </g>
   </g>
   <g id="text_19">
    <!-- W [8] -->
    <g transform="translate(309.599236 200.153842) scale(0.1 -0.1)">
     <defs>
      <path id="DejaVuSans-57" d="M 213 4666 
L 850 4666 
L 1831 722 
L 2809 4666 
L 3519 4666 
L 4500 722 
L 5478 4666 
L 6119 4666 
L 4947 0 
L 4153 0 
L 3169 4050 
L 2175 0 
L 1381 0 
L 213 4666 
z
" transform="scale(0.015625)"/>
     </defs>
     <use xlink:href="#DejaVuSans-57"/>
     <use xlink:href="#DejaVuSans-20" x="98.876953"/>
     <use xlink:href="#DejaVuSans-5b" x="130.664062"/>
     <use xlink:href="#DejaVuSans-38" x="169.677734"/>
     <use xlink:href="#DejaVuSans-5d" x="233.300781"/>
    </g>
   </g>
   <g id="text_20">
    <!-- Y [15] -->
    <g transform="translate(316.006025 172.788515) scale(0.1 -0.1)">
     <defs>
      <path id="DejaVuSans-59" d="M -13 4666 
L 666 4666 
L 1959 2747 
L 3244 4666 
L 3922 4666 
L 2272 2222 
L 2272 0 
L 1638 0 
L 1638 2222 
L -13 4666 
z
" transform="scale(0.015625)"/>
     </defs>
     <use xlink:href="#DejaVuSans-59"/>
     <use xlink:href="#DejaVuSans-20" x="61.083984"/>
     <use xlink:href="#DejaVuSans-5b" x="92.871094"/>
     <use xlink:href="#DejaVuSans-31" x="131.884766"/>
     <use xlink:href="#DejaVuSans-35" x="195.507812"/>
     <use xlink:href="#DejaVuSans-5d" x="259.130859"/>
    </g>
   </g>
   <g id="text_21">
    <!-- A0A452DRU2 [362] -->
    <g transform="translate(117.642187 151.720937) scale(0.12 -0.12)">
     <defs>
      <path id="DejaVuSans-55" d="M 556 4666 
L 1191 4666 
L 1191 1831 
Q 1191 1081 1462 751 
Q 1734 422 2344 422 
Q 2950 422 3222 751 
Q 3494 1081 3494 1831 
L 3494 4666 
L 4128 4666 
L 4128 1753 
Q 4128 841 3676 375 
Q 3225 -91 2344 -91 
Q 1459 -91 1007 375 
Q 556 841 556 1753 
L 556 4666 
z
" transform="scale(0.015625)"/>
     </defs>
     <use xlink:href="#DejaVuSans-41"/>
     <use xlink:href="#DejaVuSans-30" x="68.408203"/>
     <use xlink:href="#DejaVuSans-41" x="132.03125"/>
     <use xlink:href="#DejaVuSans-34" x="200.439453"/>
     <use xlink:href="#DejaVuSans-35" x="264.0625"/>
     <use xlink:href="#DejaVuSans-32" x="327.685547"/>
     <use xlink:href="#DejaVuSans-44" x="391.308594"/>
     <use xlink:href="#DejaVuSans-52" x="468.310547"/>
     <use xlink:href="#DejaVuSans-55" x="537.792969"/>
     <use xlink:href="#DejaVuSans-32" x="610.986328"/>
     <use xlink:href="#DejaVuSans-20" x="674.609375"/>
     <use xlink:href="#DejaVuSans-5b" x="706.396484"/>
     <use xlink:href="#DejaVuSans-33" x="745.410156"/>
     <use xlink:href="#DejaVuSans-36" x="809.033203"/>
     <use xlink:href="#DejaVuSans-32" x="872.65625"/>
     <use xlink:href="#DejaVuSans-5d" x="936.279297"/>
    </g>
   </g>
  </g>
 </g>
</svg>
