<?xml version="1.0" encoding="utf-8" standalone="no"?>
<!DOCTYPE svg PUBLIC "-//W3C//DTD SVG 1.1//EN"
  "http://www.w3.org/Graphics/SVG/1.1/DTD/svg11.dtd">
<svg xmlns:xlink="http://www.w3.org/1999/xlink" width="353.965098pt" height="302.642522pt" viewBox="0 0 353.965098 302.642522" xmlns="http://www.w3.org/2000/svg" version="1.1">
 <metadata>
  <rdf:RDF xmlns:dc="http://purl.org/dc/elements/1.1/" xmlns:cc="http://creativecommons.org/ns#" xmlns:rdf="http://www.w3.org/1999/02/22-rdf-syntax-ns#">
   <cc:Work>
    <dc:type rdf:resource="http://purl.org/dc/dcmitype/StillImage"/>
    <dc:date>2024-09-27T16:07:21.126768</dc:date>
    <dc:format>image/svg+xml</dc:format>
    <dc:creator>
     <cc:Agent>
      <dc:title>Matplotlib v3.8.3, https://matplotlib.org/</dc:title>
     </cc:Agent>
    </dc:creator>
   </cc:Work>
  </rdf:RDF>
 </metadata>
 <defs>
  <style type="text/css">*{stroke-linejoin: round; stroke-linecap: butt}</style>
 </defs>
 <g id="figure_1">
  <g id="patch_1">
   <path d="M 0 302.642522 
L 353.965098 302.642522 
L 353.965098 0 
L 0 0 
z
" style="fill: #ffffff"/>
  </g>
  <g id="axes_1">
   <g id="patch_2">
    <path d="M 305.231813 152.627462 
C 305.231813 137.954899 302.703693 123.391439 297.758595 109.577312 
C 292.813496 95.763185 285.52496 82.90383 276.213401 71.564563 
L 177.498053 152.627462 
z
" style="fill: #1f77b4"/>
   </g>
   <g id="patch_3">
    <path d="M 276.089551 71.368499 
C 273.508853 68.225821 270.779551 65.208173 267.910973 62.325866 
C 265.042395 59.44356 262.037812 56.699881 258.907491 54.104207 
L 177.374204 152.431398 
z
" style="fill: #ff7f0e"/>
   </g>
   <g id="patch_4">
    <path d="M 258.82515 54.03659 
C 255.38166 51.181235 251.790551 48.50874 248.066669 46.030154 
C 244.342788 43.551569 240.491273 41.270313 236.528048 39.195819 
L 177.291862 152.363781 
z
" style="fill: #aec7e8"/>
   </g>
   <g id="patch_5">
    <path d="M 236.424439 39.142214 
C 232.100732 36.879031 227.650875 34.865493 223.096759 33.111508 
C 218.542643 31.357523 213.891747 29.865971 209.166952 28.64419 
L 177.188252 152.310177 
z
" style="fill: #ffbb78"/>
   </g>
   <g id="patch_6">
    <path d="M 209.008679 28.609652 
C 201.130196 26.572361 193.075023 25.292604 184.953062 24.787842 
C 176.8311 24.28308 168.679455 24.55562 160.609345 25.601741 
L 177.02998 152.275638 
z
" style="fill: #98df8a"/>
   </g>
   <g id="patch_7">
    <path d="M 160.443088 25.617666 
C 155.199814 26.297347 150.003794 27.301917 144.885023 28.625576 
C 139.766252 29.949235 134.734599 31.589432 129.819109 33.536699 
L 176.863722 152.291563 
z
" style="fill: #2ca02c"/>
   </g>
   <g id="patch_8">
    <path d="M 129.705536 33.58044 
C 125.546654 35.227977 121.477188 37.092848 117.513963 39.167342 
C 113.550738 41.241837 109.699224 43.523093 105.975342 46.001678 
L 176.75015 152.335304 
z
" style="fill: #d62728"/>
   </g>
   <g id="patch_9">
    <path d="M 105.870842 46.073413 
C 101.130683 49.228426 96.60679 52.696872 92.329446 56.455535 
C 88.052103 60.214198 84.030873 64.254672 80.292675 68.549913 
L 176.64565 152.40704 
z
" style="fill: #9467bd"/>
   </g>
   <g id="patch_10">
    <path d="M 80.208101 68.644324 
C 77.271363 72.018675 74.51391 75.544969 71.947142 79.208625 
C 69.380373 82.872282 67.007832 86.668245 64.839326 90.580823 
L 176.561076 152.501451 
z
" style="fill: #ff9896"/>
   </g>
   <g id="patch_11">
    <path d="M 64.744958 90.840526 
C 56.041161 106.544556 50.745495 123.908722 49.20436 141.797197 
C 47.663225 159.685673 49.910973 177.699722 55.800574 194.661008 
L 176.466707 152.761154 
z
" style="fill: #c5b0d5"/>
   </g>
   <g id="patch_12">
    <path d="M 55.842848 194.919135 
C 56.909906 197.992123 58.093964 201.023228 59.392431 204.00582 
C 60.690898 206.988411 62.102828 209.920313 63.625131 212.795111 
L 176.508981 153.019282 
z
" style="fill: #c49c94"/>
   </g>
   <g id="patch_13">
    <path d="M 63.674329 212.883877 
C 65.95813 217.196729 68.487222 221.375156 71.249162 225.398603 
C 74.011103 229.42205 77.001355 233.283909 80.205209 236.96518 
L 176.558179 153.108048 
z
" style="fill: #8c564b"/>
   </g>
   <g id="patch_14">
    <path d="M 80.304275 237.073666 
C 84.844316 242.290235 89.800509 247.129501 95.123963 251.54373 
C 100.447417 255.957958 106.120571 259.932586 112.087464 263.428407 
L 176.657245 153.216534 
z
" style="fill: #e377c2"/>
   </g>
   <g id="patch_15">
    <path d="M 112.184882 263.492579 
C 114.289834 264.725805 116.429683 265.898475 118.601798 267.009144 
C 120.773913 268.119814 122.977401 269.168027 125.209551 270.152494 
L 176.754663 153.280706 
z
" style="fill: #7f7f7f"/>
   </g>
   <g id="patch_16">
    <path d="M 125.338383 270.198613 
C 133.156912 273.646895 141.301773 276.301922 149.650482 278.123765 
C 157.99919 279.945609 166.509686 280.925091 175.053986 281.047482 
L 176.883496 153.326825 
z
" style="fill: #f7b6d2"/>
   </g>
   <g id="patch_17">
    <path d="M 175.285888 281.046375 
C 185.46122 281.19213 195.617608 280.121381 205.538841 277.856924 
C 215.460073 275.592467 225.075243 272.150485 234.179659 267.604253 
L 177.115398 153.325718 
z
" style="fill: #c7c7c7"/>
   </g>
   <g id="patch_18">
    <path d="M 234.351879 267.531225 
C 238.718016 265.351022 242.955622 262.92239 247.04385 260.257277 
C 251.132078 257.592163 255.064213 254.694945 258.820912 251.579876 
L 177.287618 153.25269 
z
" style="fill: #dbdb8d"/>
   </g>
   <g id="patch_19">
    <path d="M 258.957226 251.45177 
C 266.790819 244.956123 273.820171 237.547551 279.895637 229.383769 
C 285.971103 221.219987 291.049262 212.359342 295.022009 202.990463 
L 177.423932 153.124584 
z
" style="fill: #bcbd22"/>
   </g>
   <g id="patch_20">
    <path d="M 295.099463 202.84249 
C 296.369391 199.847636 297.524451 196.805362 298.562116 193.722325 
C 299.599782 190.639288 300.519296 187.517736 301.318647 184.364498 
L 177.501387 152.976611 
z
" style="fill: #17becf"/>
   </g>
   <g id="patch_21">
    <path d="M 301.342356 184.260623 
C 302.641561 179.135591 303.62131 173.934834 304.27595 168.688375 
C 304.930589 163.441915 305.258856 158.159868 305.258856 152.872724 
L 177.525096 152.872736 
z
" style="fill: #9edae5"/>
   </g>
   <g id="patch_22">
    <path d="M 251.508327 152.806838 
C 251.508327 144.247842 250.033591 135.752491 247.14895 127.69425 
C 244.264309 119.636009 240.012663 112.134719 234.58092 105.520147 
L 176.996967 152.806838 
z
" style="fill: #ffffff"/>
   </g>
   <g id="patch_23">
    <path d="M 234.58092 105.520147 
C 233.075512 103.686918 231.48342 101.926623 229.810083 100.245278 
C 228.136745 98.563932 226.384072 96.963453 224.558052 95.44931 
L 176.996967 152.806838 
z
" style="fill: #ffffff"/>
   </g>
   <g id="patch_24">
    <path d="M 224.558052 95.44931 
C 222.549349 93.783686 220.454535 92.22473 218.282271 90.778889 
C 216.110007 89.333047 213.86329 88.002315 211.551409 86.792193 
L 176.996967 152.806838 
z
" style="fill: #ffffff"/>
   </g>
   <g id="patch_25">
    <path d="M 211.551409 86.792193 
C 209.029247 85.472003 206.433497 84.297439 203.776929 83.274281 
C 201.120361 82.251123 198.407339 81.381051 195.651208 80.668345 
L 176.996967 152.806838 
z
" style="fill: #ffffff"/>
   </g>
   <g id="patch_26">
    <path d="M 195.651208 80.668345 
C 191.055427 79.479926 186.356576 78.733401 181.618765 78.438956 
C 176.880954 78.144512 172.125828 78.303493 167.418263 78.913731 
L 176.996967 152.806838 
z
" style="fill: #ffffff"/>
   </g>
   <g id="patch_27">
    <path d="M 167.418263 78.913731 
C 164.359687 79.310212 161.328675 79.896211 158.342726 80.668345 
C 155.356776 81.44048 152.421645 82.397262 149.554276 83.533167 
L 176.996967 152.806838 
z
" style="fill: #ffffff"/>
   </g>
   <g id="patch_28">
    <path d="M 149.554276 83.533167 
C 147.128261 84.49423 144.754406 85.582071 142.442525 86.792193 
C 140.130644 88.002315 137.883927 89.333047 135.711663 90.778889 
L 176.996967 152.806838 
z
" style="fill: #ffffff"/>
   </g>
   <g id="patch_29">
    <path d="M 135.711663 90.778889 
C 132.94657 92.619313 130.307632 94.642573 127.812515 96.835126 
C 125.317398 99.02768 122.971681 101.384623 120.791065 103.89018 
L 176.996967 152.806838 
z
" style="fill: #ffffff"/>
   </g>
   <g id="patch_30">
    <path d="M 120.791065 103.89018 
C 119.077968 105.858552 117.469454 107.915556 115.972172 110.052689 
C 114.474891 112.189822 113.090908 114.404134 111.825947 116.686471 
L 176.996967 152.806838 
z
" style="fill: #ffffff"/>
   </g>
   <g id="patch_31">
    <path d="M 111.825947 116.686471 
C 106.748732 125.847155 103.659593 135.976252 102.760598 146.411196 
C 101.861602 156.84614 103.172789 167.354335 106.608389 177.248419 
L 176.996967 152.806838 
z
" style="fill: #ffffff"/>
   </g>
   <g id="patch_32">
    <path d="M 106.608389 177.248419 
C 107.23084 179.040995 107.92154 180.80914 108.678979 182.548985 
C 109.436419 184.28883 110.260044 185.999106 111.148054 187.676071 
L 176.996967 152.806838 
z
" style="fill: #ffffff"/>
   </g>
   <g id="patch_33">
    <path d="M 111.148054 187.676071 
C 112.480272 190.191902 113.955575 192.629317 115.566707 194.976328 
C 117.177839 197.323339 118.922153 199.576089 120.791068 201.723498 
L 176.996967 152.806838 
z
" style="fill: #ffffff"/>
   </g>
   <g id="patch_34">
    <path d="M 120.791068 201.723498 
C 123.439425 204.766496 126.330538 207.589402 129.435886 210.164368 
C 132.541234 212.739335 135.850574 215.057868 139.331261 217.097097 
L 176.996967 152.806838 
z
" style="fill: #ffffff"/>
   </g>
   <g id="patch_35">
    <path d="M 139.331261 217.097097 
C 140.55915 217.816479 141.807395 218.500536 143.074462 219.148427 
C 144.341529 219.796317 145.626897 220.407775 146.928985 220.982047 
L 176.996967 152.806838 
z
" style="fill: #ffffff"/>
   </g>
   <g id="patch_36">
    <path d="M 146.928985 220.982047 
C 151.489793 222.993545 156.240962 224.542311 161.111042 225.605053 
C 165.981122 226.667795 170.945578 227.23916 175.929753 227.310554 
L 176.996967 152.806838 
z
" style="fill: #ffffff"/>
   </g>
   <g id="patch_37">
    <path d="M 175.929753 227.310554 
C 181.865363 227.395578 187.789923 226.770975 193.577309 225.450041 
C 199.364694 224.129108 204.973543 222.121285 210.284452 219.469316 
L 176.996967 152.806838 
z
" style="fill: #ffffff"/>
   </g>
   <g id="patch_38">
    <path d="M 210.284452 219.469316 
C 212.831366 218.197531 215.303303 216.780829 217.688102 215.22618 
C 220.072902 213.67153 222.366648 211.981486 224.558055 210.164363 
L 176.996967 152.806838 
z
" style="fill: #ffffff"/>
   </g>
   <g id="patch_39">
    <path d="M 224.558055 210.164363 
C 229.127651 206.375235 233.228106 202.053568 236.772128 197.291362 
C 240.31615 192.529156 243.278409 187.360446 245.595845 181.895267 
L 176.996967 152.806838 
z
" style="fill: #ffffff"/>
   </g>
   <g id="patch_40">
    <path d="M 245.595845 181.895267 
C 246.336636 180.148269 247.010421 178.373609 247.615726 176.575171 
C 248.221031 174.776732 248.757414 172.955827 249.223702 171.116438 
L 176.996967 152.806838 
z
" style="fill: #ffffff"/>
   </g>
   <g id="patch_41">
    <path d="M 249.223702 171.116438 
C 249.981572 168.126836 250.553092 165.093061 250.934965 162.032627 
C 251.316838 158.972192 251.508327 155.890998 251.508327 152.806831 
L 176.996967 152.806838 
z
" style="fill: #ffffff"/>
   </g>
   <g id="matplotlib.axis_1"/>
   <g id="matplotlib.axis_2"/>
   <g id="text_1">
    <!-- A [36] -->
    <g transform="translate(309.784649 108.031672) scale(0.1 -0.1)">
     <defs>
      <path id="DejaVuSans-41" d="M 2188 4044 
L 1331 1722 
L 3047 1722 
L 2188 4044 
z
M 1831 4666 
L 2547 4666 
L 4325 0 
L 3669 0 
L 3244 1197 
L 1141 1197 
L 716 0 
L 50 0 
L 1831 4666 
z
" transform="scale(0.015625)"/>
      <path id="DejaVuSans-20" transform="scale(0.015625)"/>
      <path id="DejaVuSans-5b" d="M 550 4863 
L 1875 4863 
L 1875 4416 
L 1125 4416 
L 1125 -397 
L 1875 -397 
L 1875 -844 
L 550 -844 
L 550 4863 
z
" transform="scale(0.015625)"/>
      <path id="DejaVuSans-33" d="M 2597 2516 
Q 3050 2419 3304 2112 
Q 3559 1806 3559 1356 
Q 3559 666 3084 287 
Q 2609 -91 1734 -91 
Q 1441 -91 1130 -33 
Q 819 25 488 141 
L 488 750 
Q 750 597 1062 519 
Q 1375 441 1716 441 
Q 2309 441 2620 675 
Q 2931 909 2931 1356 
Q 2931 1769 2642 2001 
Q 2353 2234 1838 2234 
L 1294 2234 
L 1294 2753 
L 1863 2753 
Q 2328 2753 2575 2939 
Q 2822 3125 2822 3475 
Q 2822 3834 2567 4026 
Q 2313 4219 1838 4219 
Q 1578 4219 1281 4162 
Q 984 4106 628 3988 
L 628 4550 
Q 988 4650 1302 4700 
Q 1616 4750 1894 4750 
Q 2613 4750 3031 4423 
Q 3450 4097 3450 3541 
Q 3450 3153 3228 2886 
Q 3006 2619 2597 2516 
z
" transform="scale(0.015625)"/>
      <path id="DejaVuSans-36" d="M 2113 2584 
Q 1688 2584 1439 2293 
Q 1191 2003 1191 1497 
Q 1191 994 1439 701 
Q 1688 409 2113 409 
Q 2538 409 2786 701 
Q 3034 994 3034 1497 
Q 3034 2003 2786 2293 
Q 2538 2584 2113 2584 
z
M 3366 4563 
L 3366 3988 
Q 3128 4100 2886 4159 
Q 2644 4219 2406 4219 
Q 1781 4219 1451 3797 
Q 1122 3375 1075 2522 
Q 1259 2794 1537 2939 
Q 1816 3084 2150 3084 
Q 2853 3084 3261 2657 
Q 3669 2231 3669 1497 
Q 3669 778 3244 343 
Q 2819 -91 2113 -91 
Q 1303 -91 875 529 
Q 447 1150 447 2328 
Q 447 3434 972 4092 
Q 1497 4750 2381 4750 
Q 2619 4750 2861 4703 
Q 3103 4656 3366 4563 
z
" transform="scale(0.015625)"/>
      <path id="DejaVuSans-5d" d="M 1947 4863 
L 1947 -844 
L 622 -844 
L 622 -397 
L 1369 -397 
L 1369 4416 
L 622 4416 
L 622 4863 
L 1947 4863 
z
" transform="scale(0.015625)"/>
     </defs>
     <use xlink:href="#DejaVuSans-41"/>
     <use xlink:href="#DejaVuSans-20" x="68.408203"/>
     <use xlink:href="#DejaVuSans-5b" x="100.195312"/>
     <use xlink:href="#DejaVuSans-33" x="139.208984"/>
     <use xlink:href="#DejaVuSans-36" x="202.832031"/>
     <use xlink:href="#DejaVuSans-5d" x="266.455078"/>
    </g>
   </g>
   <g id="text_2">
    <!-- C [10] -->
    <g transform="translate(276.96465 56.074688) scale(0.1 -0.1)">
     <defs>
      <path id="DejaVuSans-43" d="M 4122 4306 
L 4122 3641 
Q 3803 3938 3442 4084 
Q 3081 4231 2675 4231 
Q 1875 4231 1450 3742 
Q 1025 3253 1025 2328 
Q 1025 1406 1450 917 
Q 1875 428 2675 428 
Q 3081 428 3442 575 
Q 3803 722 4122 1019 
L 4122 359 
Q 3791 134 3420 21 
Q 3050 -91 2638 -91 
Q 1578 -91 968 557 
Q 359 1206 359 2328 
Q 359 3453 968 4101 
Q 1578 4750 2638 4750 
Q 3056 4750 3426 4639 
Q 3797 4528 4122 4306 
z
" transform="scale(0.015625)"/>
      <path id="DejaVuSans-31" d="M 794 531 
L 1825 531 
L 1825 4091 
L 703 3866 
L 703 4441 
L 1819 4666 
L 2450 4666 
L 2450 531 
L 3481 531 
L 3481 0 
L 794 0 
L 794 531 
z
" transform="scale(0.015625)"/>
      <path id="DejaVuSans-30" d="M 2034 4250 
Q 1547 4250 1301 3770 
Q 1056 3291 1056 2328 
Q 1056 1369 1301 889 
Q 1547 409 2034 409 
Q 2525 409 2770 889 
Q 3016 1369 3016 2328 
Q 3016 3291 2770 3770 
Q 2525 4250 2034 4250 
z
M 2034 4750 
Q 2819 4750 3233 4129 
Q 3647 3509 3647 2328 
Q 3647 1150 3233 529 
Q 2819 -91 2034 -91 
Q 1250 -91 836 529 
Q 422 1150 422 2328 
Q 422 3509 836 4129 
Q 1250 4750 2034 4750 
z
" transform="scale(0.015625)"/>
     </defs>
     <use xlink:href="#DejaVuSans-43"/>
     <use xlink:href="#DejaVuSans-20" x="69.824219"/>
     <use xlink:href="#DejaVuSans-5b" x="101.611328"/>
     <use xlink:href="#DejaVuSans-31" x="140.625"/>
     <use xlink:href="#DejaVuSans-30" x="204.248047"/>
     <use xlink:href="#DejaVuSans-5d" x="267.871094"/>
    </g>
   </g>
   <g id="text_3">
    <!-- D [11] -->
    <g transform="translate(255.14415 38.156167) scale(0.1 -0.1)">
     <defs>
      <path id="DejaVuSans-44" d="M 1259 4147 
L 1259 519 
L 2022 519 
Q 2988 519 3436 956 
Q 3884 1394 3884 2338 
Q 3884 3275 3436 3711 
Q 2988 4147 2022 4147 
L 1259 4147 
z
M 628 4666 
L 1925 4666 
Q 3281 4666 3915 4102 
Q 4550 3538 4550 2338 
Q 4550 1131 3912 565 
Q 3275 0 1925 0 
L 628 0 
L 628 4666 
z
" transform="scale(0.015625)"/>
     </defs>
     <use xlink:href="#DejaVuSans-44"/>
     <use xlink:href="#DejaVuSans-20" x="77.001953"/>
     <use xlink:href="#DejaVuSans-5b" x="108.789062"/>
     <use xlink:href="#DejaVuSans-31" x="147.802734"/>
     <use xlink:href="#DejaVuSans-31" x="211.425781"/>
     <use xlink:href="#DejaVuSans-5d" x="275.048828"/>
    </g>
   </g>
   <g id="text_4">
    <!-- E [12] -->
    <g transform="translate(227.68761 23.951017) scale(0.1 -0.1)">
     <defs>
      <path id="DejaVuSans-45" d="M 628 4666 
L 3578 4666 
L 3578 4134 
L 1259 4134 
L 1259 2753 
L 3481 2753 
L 3481 2222 
L 1259 2222 
L 1259 531 
L 3634 531 
L 3634 0 
L 628 0 
L 628 4666 
z
" transform="scale(0.015625)"/>
      <path id="DejaVuSans-32" d="M 1228 531 
L 3431 531 
L 3431 0 
L 469 0 
L 469 531 
Q 828 903 1448 1529 
Q 2069 2156 2228 2338 
Q 2531 2678 2651 2914 
Q 2772 3150 2772 3378 
Q 2772 3750 2511 3984 
Q 2250 4219 1831 4219 
Q 1534 4219 1204 4116 
Q 875 4013 500 3803 
L 500 4441 
Q 881 4594 1212 4672 
Q 1544 4750 1819 4750 
Q 2544 4750 2975 4387 
Q 3406 4025 3406 3419 
Q 3406 3131 3298 2873 
Q 3191 2616 2906 2266 
Q 2828 2175 2409 1742 
Q 1991 1309 1228 531 
z
" transform="scale(0.015625)"/>
     </defs>
     <use xlink:href="#DejaVuSans-45"/>
     <use xlink:href="#DejaVuSans-20" x="63.183594"/>
     <use xlink:href="#DejaVuSans-5b" x="94.970703"/>
     <use xlink:href="#DejaVuSans-31" x="133.984375"/>
     <use xlink:href="#DejaVuSans-32" x="197.607422"/>
     <use xlink:href="#DejaVuSans-5d" x="261.230469"/>
    </g>
   </g>
   <g id="text_5">
    <!-- F [20] -->
    <g transform="translate(185.74537 14.798437) scale(0.1 -0.1)">
     <defs>
      <path id="DejaVuSans-46" d="M 628 4666 
L 3309 4666 
L 3309 4134 
L 1259 4134 
L 1259 2759 
L 3109 2759 
L 3109 2228 
L 1259 2228 
L 1259 0 
L 628 0 
L 628 4666 
z
" transform="scale(0.015625)"/>
     </defs>
     <use xlink:href="#DejaVuSans-46"/>
     <use xlink:href="#DejaVuSans-20" x="57.519531"/>
     <use xlink:href="#DejaVuSans-5b" x="89.306641"/>
     <use xlink:href="#DejaVuSans-32" x="128.320312"/>
     <use xlink:href="#DejaVuSans-30" x="191.943359"/>
     <use xlink:href="#DejaVuSans-5d" x="255.566406"/>
    </g>
   </g>
   <g id="text_6">
    <!-- G [13] -->
    <g transform="translate(110.232466 19.018352) scale(0.1 -0.1)">
     <defs>
      <path id="DejaVuSans-47" d="M 3809 666 
L 3809 1919 
L 2778 1919 
L 2778 2438 
L 4434 2438 
L 4434 434 
Q 4069 175 3628 42 
Q 3188 -91 2688 -91 
Q 1594 -91 976 548 
Q 359 1188 359 2328 
Q 359 3472 976 4111 
Q 1594 4750 2688 4750 
Q 3144 4750 3555 4637 
Q 3966 4525 4313 4306 
L 4313 3634 
Q 3963 3931 3569 4081 
Q 3175 4231 2741 4231 
Q 1884 4231 1454 3753 
Q 1025 3275 1025 2328 
Q 1025 1384 1454 906 
Q 1884 428 2741 428 
Q 3075 428 3337 486 
Q 3600 544 3809 666 
z
" transform="scale(0.015625)"/>
     </defs>
     <use xlink:href="#DejaVuSans-47"/>
     <use xlink:href="#DejaVuSans-20" x="77.490234"/>
     <use xlink:href="#DejaVuSans-5b" x="109.277344"/>
     <use xlink:href="#DejaVuSans-31" x="148.291016"/>
     <use xlink:href="#DejaVuSans-33" x="211.914062"/>
     <use xlink:href="#DejaVuSans-5d" x="275.537109"/>
    </g>
   </g>
   <g id="text_7">
    <!-- H [11] -->
    <g transform="translate(80.363782 30.609921) scale(0.1 -0.1)">
     <defs>
      <path id="DejaVuSans-48" d="M 628 4666 
L 1259 4666 
L 1259 2753 
L 3553 2753 
L 3553 4666 
L 4184 4666 
L 4184 0 
L 3553 0 
L 3553 2222 
L 1259 2222 
L 1259 0 
L 628 0 
L 628 4666 
z
" transform="scale(0.015625)"/>
     </defs>
     <use xlink:href="#DejaVuSans-48"/>
     <use xlink:href="#DejaVuSans-20" x="75.195312"/>
     <use xlink:href="#DejaVuSans-5b" x="106.982422"/>
     <use xlink:href="#DejaVuSans-31" x="145.996094"/>
     <use xlink:href="#DejaVuSans-31" x="209.619141"/>
     <use xlink:href="#DejaVuSans-5d" x="273.242188"/>
    </g>
   </g>
   <g id="text_8">
    <!-- I [14] -->
    <g transform="translate(57.241576 49.619759) scale(0.1 -0.1)">
     <defs>
      <path id="DejaVuSans-49" d="M 628 4666 
L 1259 4666 
L 1259 0 
L 628 0 
L 628 4666 
z
" transform="scale(0.015625)"/>
      <path id="DejaVuSans-34" d="M 2419 4116 
L 825 1625 
L 2419 1625 
L 2419 4116 
z
M 2253 4666 
L 3047 4666 
L 3047 1625 
L 3713 1625 
L 3713 1100 
L 3047 1100 
L 3047 0 
L 2419 0 
L 2419 1100 
L 313 1100 
L 313 1709 
L 2253 4666 
z
" transform="scale(0.015625)"/>
     </defs>
     <use xlink:href="#DejaVuSans-49"/>
     <use xlink:href="#DejaVuSans-20" x="29.492188"/>
     <use xlink:href="#DejaVuSans-5b" x="61.279297"/>
     <use xlink:href="#DejaVuSans-31" x="100.292969"/>
     <use xlink:href="#DejaVuSans-34" x="163.916016"/>
     <use xlink:href="#DejaVuSans-5d" x="227.539062"/>
    </g>
   </g>
   <g id="text_9">
    <!-- K [11] -->
    <g transform="translate(31.221686 74.638718) scale(0.1 -0.1)">
     <defs>
      <path id="DejaVuSans-4b" d="M 628 4666 
L 1259 4666 
L 1259 2694 
L 3353 4666 
L 4166 4666 
L 1850 2491 
L 4331 0 
L 3500 0 
L 1259 2247 
L 1259 0 
L 628 0 
L 628 4666 
z
" transform="scale(0.015625)"/>
     </defs>
     <use xlink:href="#DejaVuSans-4b"/>
     <use xlink:href="#DejaVuSans-20" x="65.576172"/>
     <use xlink:href="#DejaVuSans-5b" x="97.363281"/>
     <use xlink:href="#DejaVuSans-31" x="136.376953"/>
     <use xlink:href="#DejaVuSans-31" x="200"/>
     <use xlink:href="#DejaVuSans-5d" x="263.623047"/>
    </g>
   </g>
   <g id="text_10">
    <!-- L [44] -->
    <g transform="translate(7.2 143.460177) scale(0.1 -0.1)">
     <defs>
      <path id="DejaVuSans-4c" d="M 628 4666 
L 1259 4666 
L 1259 531 
L 3531 531 
L 3531 0 
L 628 0 
L 628 4666 
z
" transform="scale(0.015625)"/>
     </defs>
     <use xlink:href="#DejaVuSans-4c"/>
     <use xlink:href="#DejaVuSans-20" x="55.712891"/>
     <use xlink:href="#DejaVuSans-5b" x="87.5"/>
     <use xlink:href="#DejaVuSans-34" x="126.513672"/>
     <use xlink:href="#DejaVuSans-34" x="190.136719"/>
     <use xlink:href="#DejaVuSans-5d" x="253.759766"/>
    </g>
   </g>
   <g id="text_11">
    <!-- M [8] -->
    <g transform="translate(21.708901 211.863849) scale(0.1 -0.1)">
     <defs>
      <path id="DejaVuSans-4d" d="M 628 4666 
L 1569 4666 
L 2759 1491 
L 3956 4666 
L 4897 4666 
L 4897 0 
L 4281 0 
L 4281 4097 
L 3078 897 
L 2444 897 
L 1241 4097 
L 1241 0 
L 628 0 
L 628 4666 
z
" transform="scale(0.015625)"/>
      <path id="DejaVuSans-38" d="M 2034 2216 
Q 1584 2216 1326 1975 
Q 1069 1734 1069 1313 
Q 1069 891 1326 650 
Q 1584 409 2034 409 
Q 2484 409 2743 651 
Q 3003 894 3003 1313 
Q 3003 1734 2745 1975 
Q 2488 2216 2034 2216 
z
M 1403 2484 
Q 997 2584 770 2862 
Q 544 3141 544 3541 
Q 544 4100 942 4425 
Q 1341 4750 2034 4750 
Q 2731 4750 3128 4425 
Q 3525 4100 3525 3541 
Q 3525 3141 3298 2862 
Q 3072 2584 2669 2484 
Q 3125 2378 3379 2068 
Q 3634 1759 3634 1313 
Q 3634 634 3220 271 
Q 2806 -91 2034 -91 
Q 1263 -91 848 271 
Q 434 634 434 1313 
Q 434 1759 690 2068 
Q 947 2378 1403 2484 
z
M 1172 3481 
Q 1172 3119 1398 2916 
Q 1625 2713 2034 2713 
Q 2441 2713 2670 2916 
Q 2900 3119 2900 3481 
Q 2900 3844 2670 4047 
Q 2441 4250 2034 4250 
Q 1625 4250 1398 4047 
Q 1172 3844 1172 3481 
z
" transform="scale(0.015625)"/>
     </defs>
     <use xlink:href="#DejaVuSans-4d"/>
     <use xlink:href="#DejaVuSans-20" x="86.279297"/>
     <use xlink:href="#DejaVuSans-5b" x="118.066406"/>
     <use xlink:href="#DejaVuSans-38" x="157.080078"/>
     <use xlink:href="#DejaVuSans-5d" x="220.703125"/>
    </g>
   </g>
   <g id="text_12">
    <!-- N [12] -->
    <g transform="translate(29.530761 235.387034) scale(0.1 -0.1)">
     <defs>
      <path id="DejaVuSans-4e" d="M 628 4666 
L 1478 4666 
L 3547 763 
L 3547 4666 
L 4159 4666 
L 4159 0 
L 3309 0 
L 1241 3903 
L 1241 0 
L 628 0 
L 628 4666 
z
" transform="scale(0.015625)"/>
     </defs>
     <use xlink:href="#DejaVuSans-4e"/>
     <use xlink:href="#DejaVuSans-20" x="74.804688"/>
     <use xlink:href="#DejaVuSans-5b" x="106.591797"/>
     <use xlink:href="#DejaVuSans-31" x="145.605469"/>
     <use xlink:href="#DejaVuSans-32" x="209.228516"/>
     <use xlink:href="#DejaVuSans-5d" x="272.851562"/>
    </g>
   </g>
   <g id="text_13">
    <!-- P [17] -->
    <g transform="translate(57.234697 264.135824) scale(0.1 -0.1)">
     <defs>
      <path id="DejaVuSans-50" d="M 1259 4147 
L 1259 2394 
L 2053 2394 
Q 2494 2394 2734 2622 
Q 2975 2850 2975 3272 
Q 2975 3691 2734 3919 
Q 2494 4147 2053 4147 
L 1259 4147 
z
M 628 4666 
L 2053 4666 
Q 2838 4666 3239 4311 
Q 3641 3956 3641 3272 
Q 3641 2581 3239 2228 
Q 2838 1875 2053 1875 
L 1259 1875 
L 1259 0 
L 628 0 
L 628 4666 
z
" transform="scale(0.015625)"/>
      <path id="DejaVuSans-37" d="M 525 4666 
L 3525 4666 
L 3525 4397 
L 1831 0 
L 1172 0 
L 2766 4134 
L 525 4134 
L 525 4666 
z
" transform="scale(0.015625)"/>
     </defs>
     <use xlink:href="#DejaVuSans-50"/>
     <use xlink:href="#DejaVuSans-20" x="60.302734"/>
     <use xlink:href="#DejaVuSans-5b" x="92.089844"/>
     <use xlink:href="#DejaVuSans-31" x="131.103516"/>
     <use xlink:href="#DejaVuSans-37" x="194.726562"/>
     <use xlink:href="#DejaVuSans-5d" x="258.349609"/>
    </g>
   </g>
   <g id="text_14">
    <!-- Q [6] -->
    <g transform="translate(87.570886 281.141363) scale(0.1 -0.1)">
     <defs>
      <path id="DejaVuSans-51" d="M 2522 4238 
Q 1834 4238 1429 3725 
Q 1025 3213 1025 2328 
Q 1025 1447 1429 934 
Q 1834 422 2522 422 
Q 3209 422 3611 934 
Q 4013 1447 4013 2328 
Q 4013 3213 3611 3725 
Q 3209 4238 2522 4238 
z
M 3406 84 
L 4238 -825 
L 3475 -825 
L 2784 -78 
Q 2681 -84 2626 -87 
Q 2572 -91 2522 -91 
Q 1538 -91 948 567 
Q 359 1225 359 2328 
Q 359 3434 948 4092 
Q 1538 4750 2522 4750 
Q 3503 4750 4090 4092 
Q 4678 3434 4678 2328 
Q 4678 1516 4351 937 
Q 4025 359 3406 84 
z
" transform="scale(0.015625)"/>
     </defs>
     <use xlink:href="#DejaVuSans-51"/>
     <use xlink:href="#DejaVuSans-20" x="78.710938"/>
     <use xlink:href="#DejaVuSans-5b" x="110.498047"/>
     <use xlink:href="#DejaVuSans-36" x="149.511719"/>
     <use xlink:href="#DejaVuSans-5d" x="213.134766"/>
    </g>
   </g>
   <g id="text_15">
    <!-- R [21] -->
    <g transform="translate(116.272493 293.362835) scale(0.1 -0.1)">
     <defs>
      <path id="DejaVuSans-52" d="M 2841 2188 
Q 3044 2119 3236 1894 
Q 3428 1669 3622 1275 
L 4263 0 
L 3584 0 
L 2988 1197 
Q 2756 1666 2539 1819 
Q 2322 1972 1947 1972 
L 1259 1972 
L 1259 0 
L 628 0 
L 628 4666 
L 2053 4666 
Q 2853 4666 3247 4331 
Q 3641 3997 3641 3322 
Q 3641 2881 3436 2590 
Q 3231 2300 2841 2188 
z
M 1259 4147 
L 1259 2491 
L 2053 2491 
Q 2509 2491 2742 2702 
Q 2975 2913 2975 3322 
Q 2975 3731 2742 3939 
Q 2509 4147 2053 4147 
L 1259 4147 
z
" transform="scale(0.015625)"/>
     </defs>
     <use xlink:href="#DejaVuSans-52"/>
     <use xlink:href="#DejaVuSans-20" x="69.482422"/>
     <use xlink:href="#DejaVuSans-5b" x="101.269531"/>
     <use xlink:href="#DejaVuSans-32" x="140.283203"/>
     <use xlink:href="#DejaVuSans-31" x="203.90625"/>
     <use xlink:href="#DejaVuSans-5d" x="267.529297"/>
    </g>
   </g>
   <g id="text_16">
    <!-- S [25] -->
    <g transform="translate(208.381185 293.06942) scale(0.1 -0.1)">
     <defs>
      <path id="DejaVuSans-53" d="M 3425 4513 
L 3425 3897 
Q 3066 4069 2747 4153 
Q 2428 4238 2131 4238 
Q 1616 4238 1336 4038 
Q 1056 3838 1056 3469 
Q 1056 3159 1242 3001 
Q 1428 2844 1947 2747 
L 2328 2669 
Q 3034 2534 3370 2195 
Q 3706 1856 3706 1288 
Q 3706 609 3251 259 
Q 2797 -91 1919 -91 
Q 1588 -91 1214 -16 
Q 841 59 441 206 
L 441 856 
Q 825 641 1194 531 
Q 1563 422 1919 422 
Q 2459 422 2753 634 
Q 3047 847 3047 1241 
Q 3047 1584 2836 1778 
Q 2625 1972 2144 2069 
L 1759 2144 
Q 1053 2284 737 2584 
Q 422 2884 422 3419 
Q 422 4038 858 4394 
Q 1294 4750 2059 4750 
Q 2388 4750 2728 4690 
Q 3069 4631 3425 4513 
z
" transform="scale(0.015625)"/>
      <path id="DejaVuSans-35" d="M 691 4666 
L 3169 4666 
L 3169 4134 
L 1269 4134 
L 1269 2991 
Q 1406 3038 1543 3061 
Q 1681 3084 1819 3084 
Q 2600 3084 3056 2656 
Q 3513 2228 3513 1497 
Q 3513 744 3044 326 
Q 2575 -91 1722 -91 
Q 1428 -91 1123 -41 
Q 819 9 494 109 
L 494 744 
Q 775 591 1075 516 
Q 1375 441 1709 441 
Q 2250 441 2565 725 
Q 2881 1009 2881 1497 
Q 2881 1984 2565 2268 
Q 2250 2553 1709 2553 
Q 1456 2553 1204 2497 
Q 953 2441 691 2322 
L 691 4666 
z
" transform="scale(0.015625)"/>
     </defs>
     <use xlink:href="#DejaVuSans-53"/>
     <use xlink:href="#DejaVuSans-20" x="63.476562"/>
     <use xlink:href="#DejaVuSans-5b" x="95.263672"/>
     <use xlink:href="#DejaVuSans-32" x="134.277344"/>
     <use xlink:href="#DejaVuSans-35" x="197.900391"/>
     <use xlink:href="#DejaVuSans-5d" x="261.523438"/>
    </g>
   </g>
   <g id="text_17">
    <!-- T [12] -->
    <g transform="translate(254.019473 273.71711) scale(0.1 -0.1)">
     <defs>
      <path id="DejaVuSans-54" d="M -19 4666 
L 3928 4666 
L 3928 4134 
L 2272 4134 
L 2272 0 
L 1638 0 
L 1638 4134 
L -19 4134 
L -19 4666 
z
" transform="scale(0.015625)"/>
     </defs>
     <use xlink:href="#DejaVuSans-54"/>
     <use xlink:href="#DejaVuSans-20" x="61.083984"/>
     <use xlink:href="#DejaVuSans-5b" x="92.871094"/>
     <use xlink:href="#DejaVuSans-31" x="131.884766"/>
     <use xlink:href="#DejaVuSans-32" x="195.507812"/>
     <use xlink:href="#DejaVuSans-5d" x="259.130859"/>
    </g>
   </g>
   <g id="text_18">
    <!-- V [25] -->
    <g transform="translate(290.142807 239.769062) scale(0.1 -0.1)">
     <defs>
      <path id="DejaVuSans-56" d="M 1831 0 
L 50 4666 
L 709 4666 
L 2188 738 
L 3669 4666 
L 4325 4666 
L 2547 0 
L 1831 0 
z
" transform="scale(0.015625)"/>
     </defs>
     <use xlink:href="#DejaVuSans-56"/>
     <use xlink:href="#DejaVuSans-20" x="68.408203"/>
     <use xlink:href="#DejaVuSans-5b" x="100.195312"/>
     <use xlink:href="#DejaVuSans-32" x="139.208984"/>
     <use xlink:href="#DejaVuSans-35" x="202.832031"/>
     <use xlink:href="#DejaVuSans-5d" x="266.455078"/>
    </g>
   </g>
   <g id="text_19">
    <!-- W [8] -->
    <g transform="translate(310.668189 200.556271) scale(0.1 -0.1)">
     <defs>
      <path id="DejaVuSans-57" d="M 213 4666 
L 850 4666 
L 1831 722 
L 2809 4666 
L 3519 4666 
L 4500 722 
L 5478 4666 
L 6119 4666 
L 4947 0 
L 4153 0 
L 3169 4050 
L 2175 0 
L 1381 0 
L 213 4666 
z
" transform="scale(0.015625)"/>
     </defs>
     <use xlink:href="#DejaVuSans-57"/>
     <use xlink:href="#DejaVuSans-20" x="98.876953"/>
     <use xlink:href="#DejaVuSans-5b" x="130.664062"/>
     <use xlink:href="#DejaVuSans-38" x="169.677734"/>
     <use xlink:href="#DejaVuSans-5d" x="233.300781"/>
    </g>
   </g>
   <g id="text_20">
    <!-- Y [13] -->
    <g transform="translate(316.951035 173.029313) scale(0.1 -0.1)">
     <defs>
      <path id="DejaVuSans-59" d="M -13 4666 
L 666 4666 
L 1959 2747 
L 3244 4666 
L 3922 4666 
L 2272 2222 
L 2272 0 
L 1638 0 
L 1638 2222 
L -13 4666 
z
" transform="scale(0.015625)"/>
     </defs>
     <use xlink:href="#DejaVuSans-59"/>
     <use xlink:href="#DejaVuSans-20" x="61.083984"/>
     <use xlink:href="#DejaVuSans-5b" x="92.871094"/>
     <use xlink:href="#DejaVuSans-31" x="131.884766"/>
     <use xlink:href="#DejaVuSans-33" x="195.507812"/>
     <use xlink:href="#DejaVuSans-5d" x="259.130859"/>
    </g>
   </g>
   <g id="text_21">
    <!-- A0A452VGG0 [329] -->
    <g transform="translate(118.256967 152.806838) scale(0.12 -0.12)">
     <defs>
      <path id="DejaVuSans-39" d="M 703 97 
L 703 672 
Q 941 559 1184 500 
Q 1428 441 1663 441 
Q 2288 441 2617 861 
Q 2947 1281 2994 2138 
Q 2813 1869 2534 1725 
Q 2256 1581 1919 1581 
Q 1219 1581 811 2004 
Q 403 2428 403 3163 
Q 403 3881 828 4315 
Q 1253 4750 1959 4750 
Q 2769 4750 3195 4129 
Q 3622 3509 3622 2328 
Q 3622 1225 3098 567 
Q 2575 -91 1691 -91 
Q 1453 -91 1209 -44 
Q 966 3 703 97 
z
M 1959 2075 
Q 2384 2075 2632 2365 
Q 2881 2656 2881 3163 
Q 2881 3666 2632 3958 
Q 2384 4250 1959 4250 
Q 1534 4250 1286 3958 
Q 1038 3666 1038 3163 
Q 1038 2656 1286 2365 
Q 1534 2075 1959 2075 
z
" transform="scale(0.015625)"/>
     </defs>
     <use xlink:href="#DejaVuSans-41"/>
     <use xlink:href="#DejaVuSans-30" x="68.408203"/>
     <use xlink:href="#DejaVuSans-41" x="132.03125"/>
     <use xlink:href="#DejaVuSans-34" x="200.439453"/>
     <use xlink:href="#DejaVuSans-35" x="264.0625"/>
     <use xlink:href="#DejaVuSans-32" x="327.685547"/>
     <use xlink:href="#DejaVuSans-56" x="391.308594"/>
     <use xlink:href="#DejaVuSans-47" x="459.716797"/>
     <use xlink:href="#DejaVuSans-47" x="537.207031"/>
     <use xlink:href="#DejaVuSans-30" x="614.697266"/>
     <use xlink:href="#DejaVuSans-20" x="678.320312"/>
     <use xlink:href="#DejaVuSans-5b" x="710.107422"/>
     <use xlink:href="#DejaVuSans-33" x="749.121094"/>
     <use xlink:href="#DejaVuSans-32" x="812.744141"/>
     <use xlink:href="#DejaVuSans-39" x="876.367188"/>
     <use xlink:href="#DejaVuSans-5d" x="939.990234"/>
    </g>
   </g>
  </g>
 </g>
</svg>
