<?xml version="1.0" encoding="utf-8" standalone="no"?>
<!DOCTYPE svg PUBLIC "-//W3C//DTD SVG 1.1//EN"
  "http://www.w3.org/Graphics/SVG/1.1/DTD/svg11.dtd">
<svg xmlns:xlink="http://www.w3.org/1999/xlink" width="354.408035pt" height="305.355594pt" viewBox="0 0 354.408035 305.355594" xmlns="http://www.w3.org/2000/svg" version="1.1">
 <metadata>
  <rdf:RDF xmlns:dc="http://purl.org/dc/elements/1.1/" xmlns:cc="http://creativecommons.org/ns#" xmlns:rdf="http://www.w3.org/1999/02/22-rdf-syntax-ns#">
   <cc:Work>
    <dc:type rdf:resource="http://purl.org/dc/dcmitype/StillImage"/>
    <dc:date>2024-09-27T16:07:36.399105</dc:date>
    <dc:format>image/svg+xml</dc:format>
    <dc:creator>
     <cc:Agent>
      <dc:title>Matplotlib v3.8.3, https://matplotlib.org/</dc:title>
     </cc:Agent>
    </dc:creator>
   </cc:Work>
  </rdf:RDF>
 </metadata>
 <defs>
  <style type="text/css">*{stroke-linejoin: round; stroke-linecap: butt}</style>
 </defs>
 <g id="figure_1">
  <g id="patch_1">
   <path d="M -0 305.355594 
L 354.408035 305.355594 
L 354.408035 0 
L -0 0 
z
" style="fill: #ffffff"/>
  </g>
  <g id="axes_1">
   <g id="patch_2">
    <path d="M 305.685612 152.838471 
C 305.685612 144.565765 304.881936 136.312589 303.285915 128.1953 
C 301.689895 120.07801 299.309065 112.134934 296.176991 104.478056 
L 177.951852 152.838471 
z
" style="fill: #1f77b4"/>
   </g>
   <g id="patch_3">
    <path d="M 296.114112 104.311917 
C 293.837081 98.745333 291.16974 93.346514 288.132004 88.155765 
C 285.094267 82.965016 281.693713 77.995288 277.955731 73.283685 
L 177.888972 152.672332 
z
" style="fill: #ff7f0e"/>
   </g>
   <g id="patch_4">
    <path d="M 277.888958 73.193131 
C 276.020548 70.838063 274.069581 68.549688 272.039701 66.332281 
C 270.009822 64.114875 267.902295 61.969819 265.721058 59.901122 
L 177.822199 152.581778 
z
" style="fill: #aec7e8"/>
   </g>
   <g id="patch_5">
    <path d="M 265.648118 59.83494 
C 262.103005 56.472735 258.3679 53.316702 254.461219 50.382406 
C 250.554539 47.448109 246.482716 44.740378 242.265827 42.272565 
L 177.74926 152.515596 
z
" style="fill: #ffbb78"/>
   </g>
   <g id="patch_6">
    <path d="M 242.121343 42.195541 
C 234.981427 38.017111 227.452443 34.542172 219.640535 31.819717 
C 211.828627 29.097261 203.770681 27.140143 195.5803 25.975954 
L 177.604775 152.438573 
z
" style="fill: #98df8a"/>
   </g>
   <g id="patch_7">
    <path d="M 195.428627 25.946826 
C 191.335844 25.365074 187.217232 24.98235 183.087333 24.800006 
C 178.957435 24.617663 174.821119 24.635913 170.692991 24.854695 
L 177.453102 152.409445 
z
" style="fill: #2ca02c"/>
   </g>
   <g id="patch_8">
    <path d="M 170.594617 24.859473 
C 166.841901 25.058359 163.099789 25.422757 159.379204 25.951605 
C 155.658619 26.480453 151.963183 27.173235 148.303685 28.027929 
L 177.354728 152.414224 
z
" style="fill: #d62728"/>
   </g>
   <g id="patch_9">
    <path d="M 148.097699 28.102787 
C 134.529752 31.271649 121.57125 36.639237 109.73654 43.9925 
C 97.901829 51.345763 87.349589 60.586109 78.498658 71.346773 
L 177.148742 152.489082 
z
" style="fill: #9467bd"/>
   </g>
   <g id="patch_10">
    <path d="M 78.310996 71.546401 
C 73.055795 77.935496 68.433688 84.82004 64.509839 92.10297 
C 60.58599 99.385901 57.378925 107.032831 54.933859 114.935952 
L 176.96108 152.688711 
z
" style="fill: #ff9896"/>
   </g>
   <g id="patch_11">
    <path d="M 54.870513 115.207175 
C 50.640666 128.879194 48.738475 143.165375 49.243544 157.467843 
C 49.748613 171.770311 52.653799 185.886727 57.837518 199.22632 
L 176.897734 152.959934 
z
" style="fill: #c5b0d5"/>
   </g>
   <g id="patch_12">
    <path d="M 57.898654 199.455833 
C 59.668382 204.009987 61.697954 208.458851 63.977362 212.780488 
C 66.256769 217.102126 68.782259 221.289422 71.54138 225.32173 
L 176.95887 153.189447 
z
" style="fill: #c49c94"/>
   </g>
   <g id="patch_13">
    <path d="M 71.62275 225.436257 
C 75.231532 230.7103 79.231023 235.706094 83.587519 240.381539 
C 87.944014 245.056985 92.645244 249.398911 97.651589 253.37073 
L 177.04024 153.303974 
z
" style="fill: #8c564b"/>
   </g>
   <g id="patch_14">
    <path d="M 97.764092 253.462437 
C 101.886344 256.732854 106.206747 259.745424 110.700598 262.482921 
C 115.194449 265.220419 119.853166 267.677616 124.650111 269.840463 
L 177.152742 153.395681 
z
" style="fill: #e377c2"/>
   </g>
   <g id="patch_15">
    <path d="M 124.756288 269.890037 
C 128.524858 271.58921 132.373694 273.104436 136.289205 274.430362 
C 140.204716 275.756289 144.182287 276.891354 148.207873 277.83155 
L 177.258919 153.445256 
z
" style="fill: #7f7f7f"/>
   </g>
   <g id="patch_16">
    <path d="M 148.326997 277.857164 
C 153.817358 279.139465 159.3866 280.056847 164.998173 280.60329 
C 170.609747 281.149732 176.251348 281.324037 181.885952 281.12506 
L 177.378044 153.47087 
z
" style="fill: #f7b6d2"/>
   </g>
   <g id="patch_17">
    <path d="M 182.06315 281.112529 
C 190.70713 280.80728 199.297797 279.624841 207.702808 277.583428 
C 216.107818 275.542015 224.283788 272.652164 232.104763 268.958396 
L 177.555241 153.458339 
z
" style="fill: #c7c7c7"/>
   </g>
   <g id="patch_18">
    <path d="M 232.298781 268.866763 
C 240.119756 265.172995 247.545367 260.694375 254.461217 255.499899 
C 261.377068 250.305423 267.747461 244.421902 273.474258 237.939977 
L 177.74926 153.366706 
z
" style="fill: #dbdb8d"/>
   </g>
   <g id="patch_19">
    <path d="M 273.618644 237.775092 
C 279.594887 231.010829 284.837352 223.632125 289.258124 215.762722 
C 293.678896 207.893319 297.253123 199.577453 299.920865 190.954583 
L 177.893645 153.201822 
z
" style="fill: #bcbd22"/>
   </g>
   <g id="patch_20">
    <path d="M 299.969279 190.837702 
C 300.302441 189.760833 300.621333 188.679601 300.925872 187.59429 
C 301.230411 186.508979 301.52057 185.419684 301.796273 184.326692 
L 177.942059 153.08494 
z
" style="fill: #17becf"/>
   </g>
   <g id="patch_21">
    <path d="M 301.812008 184.24849 
C 303.099012 179.146313 304.069512 173.969481 304.717957 168.747594 
C 305.366402 163.525706 305.691554 158.268736 305.691554 153.006741 
L 177.957794 153.006738 
z
" style="fill: #9edae5"/>
   </g>
   <g id="patch_22">
    <path d="M 251.940986 152.941151 
C 251.940986 148.115406 251.472176 143.301053 250.541164 138.565968 
C 249.610151 133.830882 248.221334 129.197421 246.394291 124.730909 
L 177.429626 152.941151 
z
" style="fill: #ffffff"/>
   </g>
   <g id="patch_23">
    <path d="M 246.394291 124.730909 
C 245.066023 121.483735 243.510074 118.334424 241.738061 115.306487 
C 239.966048 112.27855 237.982392 109.379542 235.801902 106.631107 
L 177.429626 152.941151 
z
" style="fill: #ffffff"/>
   </g>
   <g id="patch_24">
    <path d="M 235.801902 106.631107 
C 234.711996 105.257317 233.573932 103.922432 232.389836 102.628945 
C 231.205739 101.335458 229.976349 100.084175 228.703961 98.877435 
L 177.429626 152.941151 
z
" style="fill: #ffffff"/>
   </g>
   <g id="patch_25">
    <path d="M 228.703961 98.877435 
C 226.635978 96.916149 224.457167 95.07513 222.17827 93.363457 
C 219.899373 91.651783 217.524142 90.072274 215.064291 88.632716 
L 177.429626 152.941151 
z
" style="fill: #ffffff"/>
   </g>
   <g id="patch_26">
    <path d="M 215.064291 88.632716 
C 210.89934 86.195299 206.507432 84.168251 201.950486 82.580152 
C 197.39354 80.992053 192.693071 79.850401 187.915349 79.17129 
L 177.429626 152.941151 
z
" style="fill: #ffffff"/>
   </g>
   <g id="patch_27">
    <path d="M 187.915349 79.17129 
C 185.527892 78.831935 183.125368 78.608679 180.716261 78.502312 
C 178.307154 78.395945 175.894303 78.406591 173.486228 78.534214 
L 177.429626 152.941151 
z
" style="fill: #ffffff"/>
   </g>
   <g id="patch_28">
    <path d="M 173.486228 78.534214 
C 171.297143 78.65023 169.114245 78.862796 166.943904 79.17129 
C 164.773562 79.479785 162.617892 79.883908 160.483184 80.382479 
L 177.429626 152.941151 
z
" style="fill: #ffffff"/>
   </g>
   <g id="patch_29">
    <path d="M 160.483184 80.382479 
C 152.568549 82.230982 145.009423 85.362075 138.105842 89.651478 
C 131.20226 93.940882 125.046787 99.331084 119.883744 105.608137 
L 177.429626 152.941151 
z
" style="fill: #ffffff"/>
   </g>
   <g id="patch_30">
    <path d="M 119.883744 105.608137 
C 116.818211 109.33511 114.121982 113.351093 111.833069 117.599469 
C 109.544157 121.847845 107.673369 126.308555 106.247081 130.918709 
L 177.429626 152.941151 
z
" style="fill: #ffffff"/>
   </g>
   <g id="patch_31">
    <path d="M 106.247081 130.918709 
C 103.77967 138.894053 102.670058 147.227658 102.964682 155.570765 
C 103.259306 163.913871 104.953997 172.148447 107.977834 179.929876 
L 177.429626 152.941151 
z
" style="fill: #ffffff"/>
   </g>
   <g id="patch_32">
    <path d="M 107.977834 179.929876 
C 109.010175 182.586466 110.194092 185.181637 111.523746 187.702592 
C 112.853401 190.223547 114.326603 192.666137 115.93609 195.018316 
L 177.429626 152.941151 
z
" style="fill: #ffffff"/>
   </g>
   <g id="patch_33">
    <path d="M 115.93609 195.018316 
C 118.041213 198.094841 120.37425 201.009054 122.915539 203.736397 
C 125.456828 206.463741 128.199212 208.996531 131.11958 211.313425 
L 177.429626 152.941151 
z
" style="fill: #ffffff"/>
   </g>
   <g id="patch_34">
    <path d="M 131.11958 211.313425 
C 133.524227 213.221169 136.044462 214.978501 138.665875 216.575375 
C 141.287288 218.172248 144.004873 219.605613 146.803091 220.867274 
L 177.429626 152.941151 
z
" style="fill: #ffffff"/>
   </g>
   <g id="patch_35">
    <path d="M 146.803091 220.867274 
C 149.001424 221.858458 151.246578 222.742339 153.530626 223.515797 
C 155.814674 224.289254 158.134924 224.951375 160.483183 225.499823 
L 177.429626 152.941151 
z
" style="fill: #ffffff"/>
   </g>
   <g id="patch_36">
    <path d="M 160.483183 225.499823 
C 163.685893 226.247832 166.934618 226.782972 170.208035 227.10173 
C 173.481453 227.420488 176.772387 227.522165 180.05924 227.406095 
L 177.429626 152.941151 
z
" style="fill: #ffffff"/>
   </g>
   <g id="patch_37">
    <path d="M 180.05924 227.406095 
C 185.101562 227.228034 190.112784 226.538277 195.015707 225.347453 
C 199.91863 224.156629 204.687946 222.470882 209.250181 220.316184 
L 177.429626 152.941151 
z
" style="fill: #ffffff"/>
   </g>
   <g id="patch_38">
    <path d="M 209.250181 220.316184 
C 213.812416 218.161486 218.144022 215.548958 222.178268 212.518847 
C 226.212514 209.488736 229.928577 206.056682 233.269209 202.275559 
L 177.429626 152.941151 
z
" style="fill: #ffffff"/>
   </g>
   <g id="patch_39">
    <path d="M 233.269209 202.275559 
C 236.755351 198.329739 239.813456 194.025495 242.392239 189.43501 
C 244.971023 184.844524 247.055989 179.993603 248.612171 174.963596 
L 177.429626 152.941151 
z
" style="fill: #ffffff"/>
   </g>
   <g id="patch_40">
    <path d="M 248.612171 174.963596 
C 248.806516 174.335422 248.992536 173.704703 249.170184 173.071605 
C 249.347832 172.438507 249.517091 171.803085 249.677918 171.165507 
L 177.429626 152.941151 
z
" style="fill: #ffffff"/>
   </g>
   <g id="patch_41">
    <path d="M 249.677918 171.165507 
C 250.428671 168.189237 250.994795 165.169418 251.373055 162.123317 
C 251.751314 159.077216 251.940986 156.01065 251.940986 152.941153 
L 177.429626 152.941151 
z
" style="fill: #ffffff"/>
   </g>
   <g id="matplotlib.axis_1"/>
   <g id="matplotlib.axis_2"/>
   <g id="text_1">
    <!-- A [22] -->
    <g transform="translate(315.819322 128.490357) scale(0.1 -0.1)">
     <defs>
      <path id="DejaVuSans-41" d="M 2188 4044 
L 1331 1722 
L 3047 1722 
L 2188 4044 
z
M 1831 4666 
L 2547 4666 
L 4325 0 
L 3669 0 
L 3244 1197 
L 1141 1197 
L 716 0 
L 50 0 
L 1831 4666 
z
" transform="scale(0.015625)"/>
      <path id="DejaVuSans-20" transform="scale(0.015625)"/>
      <path id="DejaVuSans-5b" d="M 550 4863 
L 1875 4863 
L 1875 4416 
L 1125 4416 
L 1125 -397 
L 1875 -397 
L 1875 -844 
L 550 -844 
L 550 4863 
z
" transform="scale(0.015625)"/>
      <path id="DejaVuSans-32" d="M 1228 531 
L 3431 531 
L 3431 0 
L 469 0 
L 469 531 
Q 828 903 1448 1529 
Q 2069 2156 2228 2338 
Q 2531 2678 2651 2914 
Q 2772 3150 2772 3378 
Q 2772 3750 2511 3984 
Q 2250 4219 1831 4219 
Q 1534 4219 1204 4116 
Q 875 4013 500 3803 
L 500 4441 
Q 881 4594 1212 4672 
Q 1544 4750 1819 4750 
Q 2544 4750 2975 4387 
Q 3406 4025 3406 3419 
Q 3406 3131 3298 2873 
Q 3191 2616 2906 2266 
Q 2828 2175 2409 1742 
Q 1991 1309 1228 531 
z
" transform="scale(0.015625)"/>
      <path id="DejaVuSans-5d" d="M 1947 4863 
L 1947 -844 
L 622 -844 
L 622 -397 
L 1369 -397 
L 1369 4416 
L 622 4416 
L 622 4863 
L 1947 4863 
z
" transform="scale(0.015625)"/>
     </defs>
     <use xlink:href="#DejaVuSans-41"/>
     <use xlink:href="#DejaVuSans-20" x="68.408203"/>
     <use xlink:href="#DejaVuSans-5b" x="100.195312"/>
     <use xlink:href="#DejaVuSans-32" x="139.208984"/>
     <use xlink:href="#DejaVuSans-32" x="202.832031"/>
     <use xlink:href="#DejaVuSans-5d" x="266.455078"/>
    </g>
   </g>
   <g id="text_2">
    <!-- C [16] -->
    <g transform="translate(299.156307 84.463483) scale(0.1 -0.1)">
     <defs>
      <path id="DejaVuSans-43" d="M 4122 4306 
L 4122 3641 
Q 3803 3938 3442 4084 
Q 3081 4231 2675 4231 
Q 1875 4231 1450 3742 
Q 1025 3253 1025 2328 
Q 1025 1406 1450 917 
Q 1875 428 2675 428 
Q 3081 428 3442 575 
Q 3803 722 4122 1019 
L 4122 359 
Q 3791 134 3420 21 
Q 3050 -91 2638 -91 
Q 1578 -91 968 557 
Q 359 1206 359 2328 
Q 359 3453 968 4101 
Q 1578 4750 2638 4750 
Q 3056 4750 3426 4639 
Q 3797 4528 4122 4306 
z
" transform="scale(0.015625)"/>
      <path id="DejaVuSans-31" d="M 794 531 
L 1825 531 
L 1825 4091 
L 703 3866 
L 703 4441 
L 1819 4666 
L 2450 4666 
L 2450 531 
L 3481 531 
L 3481 0 
L 794 0 
L 794 531 
z
" transform="scale(0.015625)"/>
      <path id="DejaVuSans-36" d="M 2113 2584 
Q 1688 2584 1439 2293 
Q 1191 2003 1191 1497 
Q 1191 994 1439 701 
Q 1688 409 2113 409 
Q 2538 409 2786 701 
Q 3034 994 3034 1497 
Q 3034 2003 2786 2293 
Q 2538 2584 2113 2584 
z
M 3366 4563 
L 3366 3988 
Q 3128 4100 2886 4159 
Q 2644 4219 2406 4219 
Q 1781 4219 1451 3797 
Q 1122 3375 1075 2522 
Q 1259 2794 1537 2939 
Q 1816 3084 2150 3084 
Q 2853 3084 3261 2657 
Q 3669 2231 3669 1497 
Q 3669 778 3244 343 
Q 2819 -91 2113 -91 
Q 1303 -91 875 529 
Q 447 1150 447 2328 
Q 447 3434 972 4092 
Q 1497 4750 2381 4750 
Q 2619 4750 2861 4703 
Q 3103 4656 3366 4563 
z
" transform="scale(0.015625)"/>
     </defs>
     <use xlink:href="#DejaVuSans-43"/>
     <use xlink:href="#DejaVuSans-20" x="69.824219"/>
     <use xlink:href="#DejaVuSans-5b" x="101.611328"/>
     <use xlink:href="#DejaVuSans-31" x="140.625"/>
     <use xlink:href="#DejaVuSans-36" x="204.248047"/>
     <use xlink:href="#DejaVuSans-5d" x="267.871094"/>
    </g>
   </g>
   <g id="text_3">
    <!-- D [8] -->
    <g transform="translate(281.461452 60.466707) scale(0.1 -0.1)">
     <defs>
      <path id="DejaVuSans-44" d="M 1259 4147 
L 1259 519 
L 2022 519 
Q 2988 519 3436 956 
Q 3884 1394 3884 2338 
Q 3884 3275 3436 3711 
Q 2988 4147 2022 4147 
L 1259 4147 
z
M 628 4666 
L 1925 4666 
Q 3281 4666 3915 4102 
Q 4550 3538 4550 2338 
Q 4550 1131 3912 565 
Q 3275 0 1925 0 
L 628 0 
L 628 4666 
z
" transform="scale(0.015625)"/>
      <path id="DejaVuSans-38" d="M 2034 2216 
Q 1584 2216 1326 1975 
Q 1069 1734 1069 1313 
Q 1069 891 1326 650 
Q 1584 409 2034 409 
Q 2484 409 2743 651 
Q 3003 894 3003 1313 
Q 3003 1734 2745 1975 
Q 2488 2216 2034 2216 
z
M 1403 2484 
Q 997 2584 770 2862 
Q 544 3141 544 3541 
Q 544 4100 942 4425 
Q 1341 4750 2034 4750 
Q 2731 4750 3128 4425 
Q 3525 4100 3525 3541 
Q 3525 3141 3298 2862 
Q 3072 2584 2669 2484 
Q 3125 2378 3379 2068 
Q 3634 1759 3634 1313 
Q 3634 634 3220 271 
Q 2806 -91 2034 -91 
Q 1263 -91 848 271 
Q 434 634 434 1313 
Q 434 1759 690 2068 
Q 947 2378 1403 2484 
z
M 1172 3481 
Q 1172 3119 1398 2916 
Q 1625 2713 2034 2713 
Q 2441 2713 2670 2916 
Q 2900 3119 2900 3481 
Q 2900 3844 2670 4047 
Q 2441 4250 2034 4250 
Q 1625 4250 1398 4047 
Q 1172 3844 1172 3481 
z
" transform="scale(0.015625)"/>
     </defs>
     <use xlink:href="#DejaVuSans-44"/>
     <use xlink:href="#DejaVuSans-20" x="77.001953"/>
     <use xlink:href="#DejaVuSans-5b" x="108.789062"/>
     <use xlink:href="#DejaVuSans-38" x="147.802734"/>
     <use xlink:href="#DejaVuSans-5d" x="211.425781"/>
    </g>
   </g>
   <g id="text_4">
    <!-- E [13] -->
    <g transform="translate(262.132415 42.928461) scale(0.1 -0.1)">
     <defs>
      <path id="DejaVuSans-45" d="M 628 4666 
L 3578 4666 
L 3578 4134 
L 1259 4134 
L 1259 2753 
L 3481 2753 
L 3481 2222 
L 1259 2222 
L 1259 531 
L 3634 531 
L 3634 0 
L 628 0 
L 628 4666 
z
" transform="scale(0.015625)"/>
      <path id="DejaVuSans-33" d="M 2597 2516 
Q 3050 2419 3304 2112 
Q 3559 1806 3559 1356 
Q 3559 666 3084 287 
Q 2609 -91 1734 -91 
Q 1441 -91 1130 -33 
Q 819 25 488 141 
L 488 750 
Q 750 597 1062 519 
Q 1375 441 1716 441 
Q 2309 441 2620 675 
Q 2931 909 2931 1356 
Q 2931 1769 2642 2001 
Q 2353 2234 1838 2234 
L 1294 2234 
L 1294 2753 
L 1863 2753 
Q 2328 2753 2575 2939 
Q 2822 3125 2822 3475 
Q 2822 3834 2567 4026 
Q 2313 4219 1838 4219 
Q 1578 4219 1281 4162 
Q 984 4106 628 3988 
L 628 4550 
Q 988 4650 1302 4700 
Q 1616 4750 1894 4750 
Q 2613 4750 3031 4423 
Q 3450 4097 3450 3541 
Q 3450 3153 3228 2886 
Q 3006 2619 2597 2516 
z
" transform="scale(0.015625)"/>
     </defs>
     <use xlink:href="#DejaVuSans-45"/>
     <use xlink:href="#DejaVuSans-20" x="63.183594"/>
     <use xlink:href="#DejaVuSans-5b" x="94.970703"/>
     <use xlink:href="#DejaVuSans-31" x="133.984375"/>
     <use xlink:href="#DejaVuSans-33" x="197.607422"/>
     <use xlink:href="#DejaVuSans-5d" x="261.230469"/>
    </g>
   </g>
   <g id="text_5">
    <!-- F [22] -->
    <g transform="translate(223.844111 22.517206) scale(0.1 -0.1)">
     <defs>
      <path id="DejaVuSans-46" d="M 628 4666 
L 3309 4666 
L 3309 4134 
L 1259 4134 
L 1259 2759 
L 3109 2759 
L 3109 2228 
L 1259 2228 
L 1259 0 
L 628 0 
L 628 4666 
z
" transform="scale(0.015625)"/>
     </defs>
     <use xlink:href="#DejaVuSans-46"/>
     <use xlink:href="#DejaVuSans-20" x="57.519531"/>
     <use xlink:href="#DejaVuSans-5b" x="89.306641"/>
     <use xlink:href="#DejaVuSans-32" x="128.320312"/>
     <use xlink:href="#DejaVuSans-32" x="191.943359"/>
     <use xlink:href="#DejaVuSans-5d" x="255.566406"/>
    </g>
   </g>
   <g id="text_6">
    <!-- G [11] -->
    <g transform="translate(183.650757 14.798437) scale(0.1 -0.1)">
     <defs>
      <path id="DejaVuSans-47" d="M 3809 666 
L 3809 1919 
L 2778 1919 
L 2778 2438 
L 4434 2438 
L 4434 434 
Q 4069 175 3628 42 
Q 3188 -91 2688 -91 
Q 1594 -91 976 548 
Q 359 1188 359 2328 
Q 359 3472 976 4111 
Q 1594 4750 2688 4750 
Q 3144 4750 3555 4637 
Q 3966 4525 4313 4306 
L 4313 3634 
Q 3963 3931 3569 4081 
Q 3175 4231 2741 4231 
Q 1884 4231 1454 3753 
Q 1025 3275 1025 2328 
Q 1025 1384 1454 906 
Q 1884 428 2741 428 
Q 3075 428 3337 486 
Q 3600 544 3809 666 
z
" transform="scale(0.015625)"/>
     </defs>
     <use xlink:href="#DejaVuSans-47"/>
     <use xlink:href="#DejaVuSans-20" x="77.490234"/>
     <use xlink:href="#DejaVuSans-5b" x="109.277344"/>
     <use xlink:href="#DejaVuSans-31" x="148.291016"/>
     <use xlink:href="#DejaVuSans-31" x="211.914062"/>
     <use xlink:href="#DejaVuSans-5d" x="275.537109"/>
    </g>
   </g>
   <g id="text_7">
    <!-- H [10] -->
    <g transform="translate(126.355089 16.064718) scale(0.1 -0.1)">
     <defs>
      <path id="DejaVuSans-48" d="M 628 4666 
L 1259 4666 
L 1259 2753 
L 3553 2753 
L 3553 4666 
L 4184 4666 
L 4184 0 
L 3553 0 
L 3553 2222 
L 1259 2222 
L 1259 0 
L 628 0 
L 628 4666 
z
" transform="scale(0.015625)"/>
      <path id="DejaVuSans-30" d="M 2034 4250 
Q 1547 4250 1301 3770 
Q 1056 3291 1056 2328 
Q 1056 1369 1301 889 
Q 1547 409 2034 409 
Q 2525 409 2770 889 
Q 3016 1369 3016 2328 
Q 3016 3291 2770 3770 
Q 2525 4250 2034 4250 
z
M 2034 4750 
Q 2819 4750 3233 4129 
Q 3647 3509 3647 2328 
Q 3647 1150 3233 529 
Q 2819 -91 2034 -91 
Q 1250 -91 836 529 
Q 422 1150 422 2328 
Q 422 3509 836 4129 
Q 1250 4750 2034 4750 
z
" transform="scale(0.015625)"/>
     </defs>
     <use xlink:href="#DejaVuSans-48"/>
     <use xlink:href="#DejaVuSans-20" x="75.195312"/>
     <use xlink:href="#DejaVuSans-5b" x="106.982422"/>
     <use xlink:href="#DejaVuSans-31" x="145.996094"/>
     <use xlink:href="#DejaVuSans-30" x="209.619141"/>
     <use xlink:href="#DejaVuSans-5d" x="273.242188"/>
    </g>
   </g>
   <g id="text_8">
    <!-- I [37] -->
    <g transform="translate(76.339069 35.902216) scale(0.1 -0.1)">
     <defs>
      <path id="DejaVuSans-49" d="M 628 4666 
L 1259 4666 
L 1259 0 
L 628 0 
L 628 4666 
z
" transform="scale(0.015625)"/>
      <path id="DejaVuSans-37" d="M 525 4666 
L 3525 4666 
L 3525 4397 
L 1831 0 
L 1172 0 
L 2766 4134 
L 525 4134 
L 525 4666 
z
" transform="scale(0.015625)"/>
     </defs>
     <use xlink:href="#DejaVuSans-49"/>
     <use xlink:href="#DejaVuSans-20" x="29.492188"/>
     <use xlink:href="#DejaVuSans-5b" x="61.279297"/>
     <use xlink:href="#DejaVuSans-33" x="100.292969"/>
     <use xlink:href="#DejaVuSans-37" x="163.916016"/>
     <use xlink:href="#DejaVuSans-5d" x="227.539062"/>
    </g>
   </g>
   <g id="text_9">
    <!-- K [22] -->
    <g transform="translate(23.000652 88.803771) scale(0.1 -0.1)">
     <defs>
      <path id="DejaVuSans-4b" d="M 628 4666 
L 1259 4666 
L 1259 2694 
L 3353 4666 
L 4166 4666 
L 1850 2491 
L 4331 0 
L 3500 0 
L 1259 2247 
L 1259 0 
L 628 0 
L 628 4666 
z
" transform="scale(0.015625)"/>
     </defs>
     <use xlink:href="#DejaVuSans-4b"/>
     <use xlink:href="#DejaVuSans-20" x="65.576172"/>
     <use xlink:href="#DejaVuSans-5b" x="97.363281"/>
     <use xlink:href="#DejaVuSans-32" x="136.376953"/>
     <use xlink:href="#DejaVuSans-32" x="200"/>
     <use xlink:href="#DejaVuSans-5d" x="263.623047"/>
    </g>
   </g>
   <g id="text_10">
    <!-- L [38] -->
    <g transform="translate(7.2 160.678009) scale(0.1 -0.1)">
     <defs>
      <path id="DejaVuSans-4c" d="M 628 4666 
L 1259 4666 
L 1259 531 
L 3531 531 
L 3531 0 
L 628 0 
L 628 4666 
z
" transform="scale(0.015625)"/>
     </defs>
     <use xlink:href="#DejaVuSans-4c"/>
     <use xlink:href="#DejaVuSans-20" x="55.712891"/>
     <use xlink:href="#DejaVuSans-5b" x="87.5"/>
     <use xlink:href="#DejaVuSans-33" x="126.513672"/>
     <use xlink:href="#DejaVuSans-38" x="190.136719"/>
     <use xlink:href="#DejaVuSans-5d" x="253.759766"/>
    </g>
   </g>
   <g id="text_11">
    <!-- M [13] -->
    <g transform="translate(20.344836 221.498967) scale(0.1 -0.1)">
     <defs>
      <path id="DejaVuSans-4d" d="M 628 4666 
L 1569 4666 
L 2759 1491 
L 3956 4666 
L 4897 4666 
L 4897 0 
L 4281 0 
L 4281 4097 
L 3078 897 
L 2444 897 
L 1241 4097 
L 1241 0 
L 628 0 
L 628 4666 
z
" transform="scale(0.015625)"/>
     </defs>
     <use xlink:href="#DejaVuSans-4d"/>
     <use xlink:href="#DejaVuSans-20" x="86.279297"/>
     <use xlink:href="#DejaVuSans-5b" x="118.066406"/>
     <use xlink:href="#DejaVuSans-31" x="157.080078"/>
     <use xlink:href="#DejaVuSans-33" x="220.703125"/>
     <use xlink:href="#DejaVuSans-5d" x="284.326172"/>
    </g>
   </g>
   <g id="text_12">
    <!-- N [17] -->
    <g transform="translate(43.054747 251.848671) scale(0.1 -0.1)">
     <defs>
      <path id="DejaVuSans-4e" d="M 628 4666 
L 1478 4666 
L 3547 763 
L 3547 4666 
L 4159 4666 
L 4159 0 
L 3309 0 
L 1241 3903 
L 1241 0 
L 628 0 
L 628 4666 
z
" transform="scale(0.015625)"/>
     </defs>
     <use xlink:href="#DejaVuSans-4e"/>
     <use xlink:href="#DejaVuSans-20" x="74.804688"/>
     <use xlink:href="#DejaVuSans-5b" x="106.591797"/>
     <use xlink:href="#DejaVuSans-31" x="145.605469"/>
     <use xlink:href="#DejaVuSans-37" x="209.228516"/>
     <use xlink:href="#DejaVuSans-5d" x="272.851562"/>
    </g>
   </g>
   <g id="text_13">
    <!-- P [14] -->
    <g transform="translate(74.319446 276.15102) scale(0.1 -0.1)">
     <defs>
      <path id="DejaVuSans-50" d="M 1259 4147 
L 1259 2394 
L 2053 2394 
Q 2494 2394 2734 2622 
Q 2975 2850 2975 3272 
Q 2975 3691 2734 3919 
Q 2494 4147 2053 4147 
L 1259 4147 
z
M 628 4666 
L 2053 4666 
Q 2838 4666 3239 4311 
Q 3641 3956 3641 3272 
Q 3641 2581 3239 2228 
Q 2838 1875 2053 1875 
L 1259 1875 
L 1259 0 
L 628 0 
L 628 4666 
z
" transform="scale(0.015625)"/>
      <path id="DejaVuSans-34" d="M 2419 4116 
L 825 1625 
L 2419 1625 
L 2419 4116 
z
M 2253 4666 
L 3047 4666 
L 3047 1625 
L 3713 1625 
L 3713 1100 
L 3047 1100 
L 3047 0 
L 2419 0 
L 2419 1100 
L 313 1100 
L 313 1709 
L 2253 4666 
z
" transform="scale(0.015625)"/>
     </defs>
     <use xlink:href="#DejaVuSans-50"/>
     <use xlink:href="#DejaVuSans-20" x="60.302734"/>
     <use xlink:href="#DejaVuSans-5b" x="92.089844"/>
     <use xlink:href="#DejaVuSans-31" x="131.103516"/>
     <use xlink:href="#DejaVuSans-34" x="194.726562"/>
     <use xlink:href="#DejaVuSans-5d" x="258.349609"/>
    </g>
   </g>
   <g id="text_14">
    <!-- Q [11] -->
    <g transform="translate(100.614108 289.288248) scale(0.1 -0.1)">
     <defs>
      <path id="DejaVuSans-51" d="M 2522 4238 
Q 1834 4238 1429 3725 
Q 1025 3213 1025 2328 
Q 1025 1447 1429 934 
Q 1834 422 2522 422 
Q 3209 422 3611 934 
Q 4013 1447 4013 2328 
Q 4013 3213 3611 3725 
Q 3209 4238 2522 4238 
z
M 3406 84 
L 4238 -825 
L 3475 -825 
L 2784 -78 
Q 2681 -84 2626 -87 
Q 2572 -91 2522 -91 
Q 1538 -91 948 567 
Q 359 1225 359 2328 
Q 359 3434 948 4092 
Q 1538 4750 2522 4750 
Q 3503 4750 4090 4092 
Q 4678 3434 4678 2328 
Q 4678 1516 4351 937 
Q 4025 359 3406 84 
z
" transform="scale(0.015625)"/>
     </defs>
     <use xlink:href="#DejaVuSans-51"/>
     <use xlink:href="#DejaVuSans-20" x="78.710938"/>
     <use xlink:href="#DejaVuSans-5b" x="110.498047"/>
     <use xlink:href="#DejaVuSans-31" x="149.511719"/>
     <use xlink:href="#DejaVuSans-31" x="213.134766"/>
     <use xlink:href="#DejaVuSans-5d" x="276.757812"/>
    </g>
   </g>
   <g id="text_15">
    <!-- R [15] -->
    <g transform="translate(133.105499 296.075907) scale(0.1 -0.1)">
     <defs>
      <path id="DejaVuSans-52" d="M 2841 2188 
Q 3044 2119 3236 1894 
Q 3428 1669 3622 1275 
L 4263 0 
L 3584 0 
L 2988 1197 
Q 2756 1666 2539 1819 
Q 2322 1972 1947 1972 
L 1259 1972 
L 1259 0 
L 628 0 
L 628 4666 
L 2053 4666 
Q 2853 4666 3247 4331 
Q 3641 3997 3641 3322 
Q 3641 2881 3436 2590 
Q 3231 2300 2841 2188 
z
M 1259 4147 
L 1259 2491 
L 2053 2491 
Q 2509 2491 2742 2702 
Q 2975 2913 2975 3322 
Q 2975 3731 2742 3939 
Q 2509 4147 2053 4147 
L 1259 4147 
z
" transform="scale(0.015625)"/>
      <path id="DejaVuSans-35" d="M 691 4666 
L 3169 4666 
L 3169 4134 
L 1269 4134 
L 1269 2991 
Q 1406 3038 1543 3061 
Q 1681 3084 1819 3084 
Q 2600 3084 3056 2656 
Q 3513 2228 3513 1497 
Q 3513 744 3044 326 
Q 2575 -91 1722 -91 
Q 1428 -91 1123 -41 
Q 819 9 494 109 
L 494 744 
Q 775 591 1075 516 
Q 1375 441 1709 441 
Q 2250 441 2565 725 
Q 2881 1009 2881 1497 
Q 2881 1984 2565 2268 
Q 2250 2553 1709 2553 
Q 1456 2553 1204 2497 
Q 953 2441 691 2322 
L 691 4666 
z
" transform="scale(0.015625)"/>
     </defs>
     <use xlink:href="#DejaVuSans-52"/>
     <use xlink:href="#DejaVuSans-20" x="69.482422"/>
     <use xlink:href="#DejaVuSans-5b" x="101.269531"/>
     <use xlink:href="#DejaVuSans-31" x="140.283203"/>
     <use xlink:href="#DejaVuSans-35" x="203.90625"/>
     <use xlink:href="#DejaVuSans-5d" x="267.529297"/>
    </g>
   </g>
   <g id="text_16">
    <!-- S [23] -->
    <g transform="translate(210.717564 292.755312) scale(0.1 -0.1)">
     <defs>
      <path id="DejaVuSans-53" d="M 3425 4513 
L 3425 3897 
Q 3066 4069 2747 4153 
Q 2428 4238 2131 4238 
Q 1616 4238 1336 4038 
Q 1056 3838 1056 3469 
Q 1056 3159 1242 3001 
Q 1428 2844 1947 2747 
L 2328 2669 
Q 3034 2534 3370 2195 
Q 3706 1856 3706 1288 
Q 3706 609 3251 259 
Q 2797 -91 1919 -91 
Q 1588 -91 1214 -16 
Q 841 59 441 206 
L 441 856 
Q 825 641 1194 531 
Q 1563 422 1919 422 
Q 2459 422 2753 634 
Q 3047 847 3047 1241 
Q 3047 1584 2836 1778 
Q 2625 1972 2144 2069 
L 1759 2144 
Q 1053 2284 737 2584 
Q 422 2884 422 3419 
Q 422 4038 858 4394 
Q 1294 4750 2059 4750 
Q 2388 4750 2728 4690 
Q 3069 4631 3425 4513 
z
" transform="scale(0.015625)"/>
     </defs>
     <use xlink:href="#DejaVuSans-53"/>
     <use xlink:href="#DejaVuSans-20" x="63.476562"/>
     <use xlink:href="#DejaVuSans-5b" x="95.263672"/>
     <use xlink:href="#DejaVuSans-32" x="134.277344"/>
     <use xlink:href="#DejaVuSans-33" x="197.900391"/>
     <use xlink:href="#DejaVuSans-5d" x="261.523438"/>
    </g>
   </g>
   <g id="text_17">
    <!-- T [23] -->
    <g transform="translate(262.132413 268.472593) scale(0.1 -0.1)">
     <defs>
      <path id="DejaVuSans-54" d="M -19 4666 
L 3928 4666 
L 3928 4134 
L 2272 4134 
L 2272 0 
L 1638 0 
L 1638 4134 
L -19 4134 
L -19 4666 
z
" transform="scale(0.015625)"/>
     </defs>
     <use xlink:href="#DejaVuSans-54"/>
     <use xlink:href="#DejaVuSans-20" x="61.083984"/>
     <use xlink:href="#DejaVuSans-5b" x="92.871094"/>
     <use xlink:href="#DejaVuSans-32" x="131.884766"/>
     <use xlink:href="#DejaVuSans-33" x="195.507812"/>
     <use xlink:href="#DejaVuSans-5d" x="259.130859"/>
    </g>
   </g>
   <g id="text_18">
    <!-- V [24] -->
    <g transform="translate(300.394572 224.778187) scale(0.1 -0.1)">
     <defs>
      <path id="DejaVuSans-56" d="M 1831 0 
L 50 4666 
L 709 4666 
L 2188 738 
L 3669 4666 
L 4325 4666 
L 2547 0 
L 1831 0 
z
" transform="scale(0.015625)"/>
     </defs>
     <use xlink:href="#DejaVuSans-56"/>
     <use xlink:href="#DejaVuSans-20" x="68.408203"/>
     <use xlink:href="#DejaVuSans-5b" x="100.195312"/>
     <use xlink:href="#DejaVuSans-32" x="139.208984"/>
     <use xlink:href="#DejaVuSans-34" x="202.832031"/>
     <use xlink:href="#DejaVuSans-5d" x="266.455078"/>
    </g>
   </g>
   <g id="text_19">
    <!-- W [3] -->
    <g transform="translate(313.224253 193.8046) scale(0.1 -0.1)">
     <defs>
      <path id="DejaVuSans-57" d="M 213 4666 
L 850 4666 
L 1831 722 
L 2809 4666 
L 3519 4666 
L 4500 722 
L 5478 4666 
L 6119 4666 
L 4947 0 
L 4153 0 
L 3169 4050 
L 2175 0 
L 1381 0 
L 213 4666 
z
" transform="scale(0.015625)"/>
     </defs>
     <use xlink:href="#DejaVuSans-57"/>
     <use xlink:href="#DejaVuSans-20" x="98.876953"/>
     <use xlink:href="#DejaVuSans-5b" x="130.664062"/>
     <use xlink:href="#DejaVuSans-33" x="169.677734"/>
     <use xlink:href="#DejaVuSans-5d" x="233.300781"/>
    </g>
   </g>
   <g id="text_20">
    <!-- Y [14] -->
    <g transform="translate(317.393973 173.081054) scale(0.1 -0.1)">
     <defs>
      <path id="DejaVuSans-59" d="M -13 4666 
L 666 4666 
L 1959 2747 
L 3244 4666 
L 3922 4666 
L 2272 2222 
L 2272 0 
L 1638 0 
L 1638 2222 
L -13 4666 
z
" transform="scale(0.015625)"/>
     </defs>
     <use xlink:href="#DejaVuSans-59"/>
     <use xlink:href="#DejaVuSans-20" x="61.083984"/>
     <use xlink:href="#DejaVuSans-5b" x="92.871094"/>
     <use xlink:href="#DejaVuSans-31" x="131.884766"/>
     <use xlink:href="#DejaVuSans-34" x="195.507812"/>
     <use xlink:href="#DejaVuSans-5d" x="259.130859"/>
    </g>
   </g>
   <g id="text_21">
    <!-- A0A452EDR4 [356] -->
    <g transform="translate(119.511814 152.941151) scale(0.12 -0.12)">
     <use xlink:href="#DejaVuSans-41"/>
     <use xlink:href="#DejaVuSans-30" x="68.408203"/>
     <use xlink:href="#DejaVuSans-41" x="132.03125"/>
     <use xlink:href="#DejaVuSans-34" x="200.439453"/>
     <use xlink:href="#DejaVuSans-35" x="264.0625"/>
     <use xlink:href="#DejaVuSans-32" x="327.685547"/>
     <use xlink:href="#DejaVuSans-45" x="391.308594"/>
     <use xlink:href="#DejaVuSans-44" x="454.492188"/>
     <use xlink:href="#DejaVuSans-52" x="531.494141"/>
     <use xlink:href="#DejaVuSans-34" x="600.976562"/>
     <use xlink:href="#DejaVuSans-20" x="664.599609"/>
     <use xlink:href="#DejaVuSans-5b" x="696.386719"/>
     <use xlink:href="#DejaVuSans-33" x="735.400391"/>
     <use xlink:href="#DejaVuSans-35" x="799.023438"/>
     <use xlink:href="#DejaVuSans-36" x="862.646484"/>
     <use xlink:href="#DejaVuSans-5d" x="926.269531"/>
    </g>
   </g>
  </g>
 </g>
</svg>
