<?xml version="1.0" encoding="utf-8" standalone="no"?>
<!DOCTYPE svg PUBLIC "-//W3C//DTD SVG 1.1//EN"
  "http://www.w3.org/Graphics/SVG/1.1/DTD/svg11.dtd">
<svg xmlns:xlink="http://www.w3.org/1999/xlink" width="354.343439pt" height="305.051548pt" viewBox="0 0 354.343439 305.051548" xmlns="http://www.w3.org/2000/svg" version="1.1">
 <metadata>
  <rdf:RDF xmlns:dc="http://purl.org/dc/elements/1.1/" xmlns:cc="http://creativecommons.org/ns#" xmlns:rdf="http://www.w3.org/1999/02/22-rdf-syntax-ns#">
   <cc:Work>
    <dc:type rdf:resource="http://purl.org/dc/dcmitype/StillImage"/>
    <dc:date>2024-09-27T16:07:36.086699</dc:date>
    <dc:format>image/svg+xml</dc:format>
    <dc:creator>
     <cc:Agent>
      <dc:title>Matplotlib v3.8.3, https://matplotlib.org/</dc:title>
     </cc:Agent>
    </dc:creator>
   </cc:Work>
  </rdf:RDF>
 </metadata>
 <defs>
  <style type="text/css">*{stroke-linejoin: round; stroke-linecap: butt}</style>
 </defs>
 <g id="figure_1">
  <g id="patch_1">
   <path d="M 0 305.051548 
L 354.343439 305.051548 
L 354.343439 0 
L 0 0 
z
" style="fill: #ffffff"/>
  </g>
  <g id="axes_1">
   <g id="patch_2">
    <path d="M 305.124806 151.932796 
C 305.124806 146.130555 304.729461 140.335051 303.941517 134.586561 
C 303.153573 128.838071 301.974861 123.149942 300.413572 117.561707 
L 177.391046 151.932796 
z
" style="fill: #1f77b4"/>
   </g>
   <g id="patch_3">
    <path d="M 300.384837 117.4477 
C 299.409261 113.955876 298.285461 110.507169 297.016491 107.11095 
C 295.74752 103.714731 294.33453 100.374078 292.781357 97.098068 
L 177.362312 151.818789 
z
" style="fill: #ff7f0e"/>
   </g>
   <g id="patch_4">
    <path d="M 292.751442 97.032089 
C 291.819628 95.066673 290.837765 93.125378 289.806812 91.210104 
C 288.775859 89.294831 287.696152 87.406203 286.568749 85.546069 
L 177.332396 151.752811 
z
" style="fill: #aec7e8"/>
   </g>
   <g id="patch_5">
    <path d="M 286.538018 85.495849 
C 285.222688 83.325649 283.842978 81.19513 282.400723 79.107126 
C 280.958469 77.019122 279.454311 74.974562 277.890252 72.976168 
L 177.301666 151.702591 
z
" style="fill: #ffbb78"/>
   </g>
   <g id="patch_6">
    <path d="M 277.789212 72.866606 
C 271.974359 65.43698 265.354218 58.674412 258.050032 52.702752 
C 250.745846 46.731092 242.802477 41.587019 234.365402 37.364741 
L 177.200625 151.593029 
z
" style="fill: #98df8a"/>
   </g>
   <g id="patch_7">
    <path d="M 234.199875 37.272896 
C 229.011114 34.676216 223.651447 32.436095 218.158124 30.568102 
C 212.664801 28.70011 207.050576 27.208584 201.354469 26.103889 
L 177.035099 151.501184 
z
" style="fill: #2ca02c"/>
   </g>
   <g id="patch_8">
    <path d="M 201.248659 26.079603 
C 198.40143 25.527415 195.53622 25.072361 192.658012 24.715229 
C 189.779804 24.358098 186.890268 24.099098 183.994428 23.93868 
L 176.929289 151.476898 
z
" style="fill: #d62728"/>
   </g>
   <g id="patch_9">
    <path d="M 183.77047 23.958754 
C 168.5284 23.1144 153.257668 25.00921 138.684178 29.553111 
C 124.110688 34.097013 110.469079 41.216848 98.407812 50.574171 
L 176.705331 151.496973 
z
" style="fill: #9467bd"/>
   </g>
   <g id="patch_10">
    <path d="M 98.167396 50.729863 
C 91.861725 55.621903 86.028392 61.094163 80.743956 67.074822 
C 75.459521 73.055481 70.747204 79.518258 66.668855 86.378332 
L 176.464915 151.652664 
z
" style="fill: #ff9896"/>
   </g>
   <g id="patch_11">
    <path d="M 66.547478 86.618312 
C 59.492883 98.484641 54.408415 111.416527 51.492233 124.909969 
C 48.576051 138.40341 47.866538 152.280805 49.391346 166.001302 
L 176.343539 151.892644 
z
" style="fill: #c5b0d5"/>
   </g>
   <g id="patch_12">
    <path d="M 49.393336 166.234999 
C 49.954054 171.280438 50.815054 176.287967 51.971753 181.230933 
C 53.128451 186.173898 54.578793 191.043516 56.315059 195.813866 
L 176.345529 152.126341 
z
" style="fill: #c49c94"/>
   </g>
   <g id="patch_13">
    <path d="M 56.371235 195.956744 
C 58.852378 202.773627 61.909743 209.366769 65.510155 215.664626 
C 69.110566 221.962483 73.240953 227.942191 77.856495 233.538863 
L 176.401705 152.269219 
z
" style="fill: #8c564b"/>
   </g>
   <g id="patch_14">
    <path d="M 77.925764 233.633863 
C 79.309666 235.311943 80.736205 236.9544 82.203986 238.559628 
C 83.671767 240.164856 85.180311 241.732331 86.728141 243.26052 
L 176.470974 152.364219 
z
" style="fill: #e377c2"/>
   </g>
   <g id="patch_15">
    <path d="M 86.780552 243.310532 
C 89.360518 245.857759 92.047764 248.293988 94.834989 250.6126 
C 97.622215 252.931213 100.506893 255.130107 103.481186 257.203309 
L 176.523385 152.414232 
z
" style="fill: #7f7f7f"/>
   </g>
   <g id="patch_16">
    <path d="M 103.579325 257.268055 
C 108.339315 260.58596 113.31985 263.575682 118.486316 266.216444 
C 123.652782 268.857206 128.993183 271.142876 134.470403 273.057569 
L 176.621523 152.478978 
z
" style="fill: #f7b6d2"/>
   </g>
   <g id="patch_17">
    <path d="M 134.723961 273.115766 
C 149.134287 278.153239 164.33165 280.566896 179.593631 280.242003 
C 194.855613 279.917109 209.936492 276.858896 224.119387 271.212737 
L 176.87508 152.537175 
z
" style="fill: #c7c7c7"/>
   </g>
   <g id="patch_18">
    <path d="M 224.381981 271.136955 
C 230.784542 268.588119 236.970351 265.525329 242.878817 261.978587 
C 248.787283 258.431844 254.39905 254.412767 259.659151 249.960724 
L 177.137674 152.461394 
z
" style="fill: #dbdb8d"/>
   </g>
   <g id="patch_19">
    <path d="M 259.809873 249.825245 
C 267.011322 243.730083 273.515357 236.855775 279.202865 229.328218 
C 284.890372 221.80066 289.726417 213.666088 293.622432 205.073479 
L 177.288396 152.325915 
z
" style="fill: #bcbd22"/>
   </g>
   <g id="patch_20">
    <path d="M 293.691428 204.951591 
C 294.439926 203.300787 295.153203 201.634238 295.830771 199.953077 
C 296.50834 198.271915 297.150048 196.576522 297.755459 194.868049 
L 177.357392 152.204026 
z
" style="fill: #17becf"/>
   </g>
   <g id="patch_21">
    <path d="M 297.786347 194.759282 
C 300.209362 187.921522 302.045475 180.889759 303.27476 173.740296 
C 304.504045 166.590833 305.12204 159.349625 305.12204 152.09525 
L 177.38828 152.09526 
z
" style="fill: #9edae5"/>
   </g>
   <g id="patch_22">
    <path d="M 251.375113 152.005072 
C 251.375113 148.620432 251.144494 145.239721 250.684861 141.886435 
C 250.225227 138.533149 249.537644 135.215074 248.626892 131.95527 
L 176.863753 152.005072 
z
" style="fill: #ffffff"/>
   </g>
   <g id="patch_23">
    <path d="M 248.626892 131.95527 
C 248.057807 129.918372 247.402257 127.906627 246.662024 125.925499 
C 245.921791 123.944371 245.097547 121.995657 244.191529 120.084651 
L 176.863753 152.005072 
z
" style="fill: #ffffff"/>
   </g>
   <g id="patch_24">
    <path d="M 244.191529 120.084651 
C 243.647972 118.938158 243.075218 117.805736 242.473829 116.688493 
C 241.872439 115.57125 241.24261 114.469551 240.584959 113.384472 
L 176.863753 152.005072 
z
" style="fill: #ffffff"/>
   </g>
   <g id="patch_25">
    <path d="M 240.584959 113.384472 
C 239.817683 112.118523 239.012852 110.87572 238.171536 109.657717 
C 237.330221 108.439715 236.452796 107.247055 235.540429 106.081325 
L 176.863753 152.005072 
z
" style="fill: #ffffff"/>
   </g>
   <g id="patch_26">
    <path d="M 235.540429 106.081325 
C 232.148431 101.747377 228.286682 97.802545 224.025907 94.319077 
C 219.765131 90.835609 215.1315 87.834899 210.209873 85.371904 
L 176.863753 152.005072 
z
" style="fill: #ffffff"/>
   </g>
   <g id="patch_27">
    <path d="M 210.209873 85.371904 
C 207.183095 83.857174 204.056623 82.550437 200.852184 81.460774 
C 197.647746 80.371112 194.372781 79.501055 191.050052 78.85665 
L 176.863753 152.005072 
z
" style="fill: #ffffff"/>
   </g>
   <g id="patch_28">
    <path d="M 191.050052 78.85665 
C 189.389168 78.53454 187.717796 78.269092 186.038841 78.060765 
C 184.359887 77.852439 182.674324 77.701355 180.985084 77.607778 
L 176.863753 152.005072 
z
" style="fill: #ffffff"/>
   </g>
   <g id="patch_29">
    <path d="M 180.985084 77.607778 
C 172.093876 77.115238 163.185949 78.220544 154.684747 80.871153 
C 146.183544 83.521762 138.225939 87.674999 131.1902 93.133438 
L 176.863753 152.005072 
z
" style="fill: #ffffff"/>
   </g>
   <g id="patch_30">
    <path d="M 131.1902 93.133438 
C 127.511892 95.987128 124.109114 99.17928 121.026527 102.667997 
C 117.943939 106.156715 115.195088 109.926669 112.816051 113.928378 
L 176.863753 152.005072 
z
" style="fill: #ffffff"/>
   </g>
   <g id="patch_31">
    <path d="M 112.816051 113.928378 
C 108.70087 120.850403 105.73493 128.394004 104.033824 136.265178 
C 102.332718 144.136352 101.918835 152.231499 102.808307 160.235123 
L 176.863753 152.005072 
z
" style="fill: #ffffff"/>
   </g>
   <g id="patch_32">
    <path d="M 102.808307 160.235123 
C 103.135393 163.178295 103.637642 166.099354 104.312383 168.98275 
C 104.987124 171.866147 105.833157 174.706757 106.845979 177.489461 
L 176.863753 152.005072 
z
" style="fill: #ffffff"/>
   </g>
   <g id="patch_33">
    <path d="M 106.845979 177.489461 
C 108.293312 181.465976 110.076775 185.311976 112.177015 188.985726 
C 114.277255 192.659476 116.686648 196.147639 119.379047 199.412364 
L 176.863753 152.005072 
z
" style="fill: #ffffff"/>
   </g>
   <g id="patch_34">
    <path d="M 119.379047 199.412364 
C 120.186323 200.391244 121.018471 201.349344 121.874677 202.285727 
C 122.730882 203.22211 123.610866 204.136471 124.513767 205.027914 
L 176.863753 152.005072 
z
" style="fill: #ffffff"/>
   </g>
   <g id="patch_35">
    <path d="M 124.513767 205.027914 
C 126.018747 206.513796 127.586308 207.93493 129.212189 209.287453 
C 130.83807 210.639977 132.520799 211.922666 134.255804 213.132034 
L 176.863753 152.005072 
z
" style="fill: #ffffff"/>
   </g>
   <g id="patch_36">
    <path d="M 134.255804 213.132034 
C 137.032465 215.067478 139.937777 216.811483 142.951549 218.351927 
C 145.965321 219.892372 149.080554 221.225679 152.2756 222.342583 
L 176.863753 152.005072 
z
" style="fill: #ffffff"/>
   </g>
   <g id="patch_37">
    <path d="M 152.2756 222.342583 
C 160.681624 225.281109 169.546752 226.689076 178.449574 226.499555 
C 187.352397 226.310033 196.149576 224.526076 204.422932 221.232483 
L 176.863753 152.005072 
z
" style="fill: #ffffff"/>
   </g>
   <g id="patch_38">
    <path d="M 204.422932 221.232483 
C 208.157759 219.745662 211.766148 217.959034 215.212753 215.890101 
C 218.659358 213.821168 221.932889 211.476707 225.001281 208.879681 
L 176.863753 152.005072 
z
" style="fill: #ffffff"/>
   </g>
   <g id="patch_39">
    <path d="M 225.001281 208.879681 
C 229.202126 205.32417 232.996147 201.314157 236.313859 196.923082 
C 239.631572 192.532007 242.452598 187.78684 244.725274 182.774485 
L 176.863753 152.005072 
z
" style="fill: #ffffff"/>
   </g>
   <g id="patch_40">
    <path d="M 244.725274 182.774485 
C 245.161898 181.811516 245.577976 180.839362 245.973224 179.858685 
C 246.368473 178.878007 246.742802 177.889028 247.095959 176.892418 
L 176.863753 152.005072 
z
" style="fill: #ffffff"/>
   </g>
   <g id="patch_41">
    <path d="M 247.095959 176.892418 
C 248.509384 172.903725 249.58045 168.801863 250.297533 164.631343 
C 251.014616 160.460823 251.375113 156.236785 251.375113 152.005066 
L 176.863753 152.005072 
z
" style="fill: #ffffff"/>
   </g>
   <g id="matplotlib.axis_1"/>
   <g id="matplotlib.axis_2"/>
   <g id="text_1">
    <!-- A [16] -->
    <g transform="translate(316.596564 135.611312) scale(0.1 -0.1)">
     <defs>
      <path id="DejaVuSans-41" d="M 2188 4044 
L 1331 1722 
L 3047 1722 
L 2188 4044 
z
M 1831 4666 
L 2547 4666 
L 4325 0 
L 3669 0 
L 3244 1197 
L 1141 1197 
L 716 0 
L 50 0 
L 1831 4666 
z
" transform="scale(0.015625)"/>
      <path id="DejaVuSans-20" transform="scale(0.015625)"/>
      <path id="DejaVuSans-5b" d="M 550 4863 
L 1875 4863 
L 1875 4416 
L 1125 4416 
L 1125 -397 
L 1875 -397 
L 1875 -844 
L 550 -844 
L 550 4863 
z
" transform="scale(0.015625)"/>
      <path id="DejaVuSans-31" d="M 794 531 
L 1825 531 
L 1825 4091 
L 703 3866 
L 703 4441 
L 1819 4666 
L 2450 4666 
L 2450 531 
L 3481 531 
L 3481 0 
L 794 0 
L 794 531 
z
" transform="scale(0.015625)"/>
      <path id="DejaVuSans-36" d="M 2113 2584 
Q 1688 2584 1439 2293 
Q 1191 2003 1191 1497 
Q 1191 994 1439 701 
Q 1688 409 2113 409 
Q 2538 409 2786 701 
Q 3034 994 3034 1497 
Q 3034 2003 2786 2293 
Q 2538 2584 2113 2584 
z
M 3366 4563 
L 3366 3988 
Q 3128 4100 2886 4159 
Q 2644 4219 2406 4219 
Q 1781 4219 1451 3797 
Q 1122 3375 1075 2522 
Q 1259 2794 1537 2939 
Q 1816 3084 2150 3084 
Q 2853 3084 3261 2657 
Q 3669 2231 3669 1497 
Q 3669 778 3244 343 
Q 2819 -91 2113 -91 
Q 1303 -91 875 529 
Q 447 1150 447 2328 
Q 447 3434 972 4092 
Q 1497 4750 2381 4750 
Q 2619 4750 2861 4703 
Q 3103 4656 3366 4563 
z
" transform="scale(0.015625)"/>
      <path id="DejaVuSans-5d" d="M 1947 4863 
L 1947 -844 
L 622 -844 
L 622 -397 
L 1369 -397 
L 1369 4416 
L 622 4416 
L 622 4863 
L 1947 4863 
z
" transform="scale(0.015625)"/>
     </defs>
     <use xlink:href="#DejaVuSans-41"/>
     <use xlink:href="#DejaVuSans-20" x="68.408203"/>
     <use xlink:href="#DejaVuSans-5b" x="100.195312"/>
     <use xlink:href="#DejaVuSans-31" x="139.208984"/>
     <use xlink:href="#DejaVuSans-36" x="202.832031"/>
     <use xlink:href="#DejaVuSans-5d" x="266.455078"/>
    </g>
   </g>
   <g id="text_2">
    <!-- C [10] -->
    <g transform="translate(308.981909 105.399541) scale(0.1 -0.1)">
     <defs>
      <path id="DejaVuSans-43" d="M 4122 4306 
L 4122 3641 
Q 3803 3938 3442 4084 
Q 3081 4231 2675 4231 
Q 1875 4231 1450 3742 
Q 1025 3253 1025 2328 
Q 1025 1406 1450 917 
Q 1875 428 2675 428 
Q 3081 428 3442 575 
Q 3803 722 4122 1019 
L 4122 359 
Q 3791 134 3420 21 
Q 3050 -91 2638 -91 
Q 1578 -91 968 557 
Q 359 1206 359 2328 
Q 359 3453 968 4101 
Q 1578 4750 2638 4750 
Q 3056 4750 3426 4639 
Q 3797 4528 4122 4306 
z
" transform="scale(0.015625)"/>
      <path id="DejaVuSans-30" d="M 2034 4250 
Q 1547 4250 1301 3770 
Q 1056 3291 1056 2328 
Q 1056 1369 1301 889 
Q 1547 409 2034 409 
Q 2525 409 2770 889 
Q 3016 1369 3016 2328 
Q 3016 3291 2770 3770 
Q 2525 4250 2034 4250 
z
M 2034 4750 
Q 2819 4750 3233 4129 
Q 3647 3509 3647 2328 
Q 3647 1150 3233 529 
Q 2819 -91 2034 -91 
Q 1250 -91 836 529 
Q 422 1150 422 2328 
Q 422 3509 836 4129 
Q 1250 4750 2034 4750 
z
" transform="scale(0.015625)"/>
     </defs>
     <use xlink:href="#DejaVuSans-43"/>
     <use xlink:href="#DejaVuSans-20" x="69.824219"/>
     <use xlink:href="#DejaVuSans-5b" x="101.611328"/>
     <use xlink:href="#DejaVuSans-31" x="140.625"/>
     <use xlink:href="#DejaVuSans-30" x="204.248047"/>
     <use xlink:href="#DejaVuSans-5d" x="267.871094"/>
    </g>
   </g>
   <g id="text_3">
    <!-- D [6] -->
    <g transform="translate(301.054253 87.915209) scale(0.1 -0.1)">
     <defs>
      <path id="DejaVuSans-44" d="M 1259 4147 
L 1259 519 
L 2022 519 
Q 2988 519 3436 956 
Q 3884 1394 3884 2338 
Q 3884 3275 3436 3711 
Q 2988 4147 2022 4147 
L 1259 4147 
z
M 628 4666 
L 1925 4666 
Q 3281 4666 3915 4102 
Q 4550 3538 4550 2338 
Q 4550 1131 3912 565 
Q 3275 0 1925 0 
L 628 0 
L 628 4666 
z
" transform="scale(0.015625)"/>
     </defs>
     <use xlink:href="#DejaVuSans-44"/>
     <use xlink:href="#DejaVuSans-20" x="77.001953"/>
     <use xlink:href="#DejaVuSans-5b" x="108.789062"/>
     <use xlink:href="#DejaVuSans-36" x="147.802734"/>
     <use xlink:href="#DejaVuSans-5d" x="211.425781"/>
    </g>
   </g>
   <g id="text_4">
    <!-- E [7] -->
    <g transform="translate(292.910629 74.606954) scale(0.1 -0.1)">
     <defs>
      <path id="DejaVuSans-45" d="M 628 4666 
L 3578 4666 
L 3578 4134 
L 1259 4134 
L 1259 2753 
L 3481 2753 
L 3481 2222 
L 1259 2222 
L 1259 531 
L 3634 531 
L 3634 0 
L 628 0 
L 628 4666 
z
" transform="scale(0.015625)"/>
      <path id="DejaVuSans-37" d="M 525 4666 
L 3525 4666 
L 3525 4397 
L 1831 0 
L 1172 0 
L 2766 4134 
L 525 4134 
L 525 4666 
z
" transform="scale(0.015625)"/>
     </defs>
     <use xlink:href="#DejaVuSans-45"/>
     <use xlink:href="#DejaVuSans-20" x="63.183594"/>
     <use xlink:href="#DejaVuSans-5b" x="94.970703"/>
     <use xlink:href="#DejaVuSans-37" x="133.984375"/>
     <use xlink:href="#DejaVuSans-5d" x="197.607422"/>
    </g>
   </g>
   <g id="text_5">
    <!-- F [26] -->
    <g transform="translate(266.134973 45.573099) scale(0.1 -0.1)">
     <defs>
      <path id="DejaVuSans-46" d="M 628 4666 
L 3309 4666 
L 3309 4134 
L 1259 4134 
L 1259 2759 
L 3109 2759 
L 3109 2228 
L 1259 2228 
L 1259 0 
L 628 0 
L 628 4666 
z
" transform="scale(0.015625)"/>
      <path id="DejaVuSans-32" d="M 1228 531 
L 3431 531 
L 3431 0 
L 469 0 
L 469 531 
Q 828 903 1448 1529 
Q 2069 2156 2228 2338 
Q 2531 2678 2651 2914 
Q 2772 3150 2772 3378 
Q 2772 3750 2511 3984 
Q 2250 4219 1831 4219 
Q 1534 4219 1204 4116 
Q 875 4013 500 3803 
L 500 4441 
Q 881 4594 1212 4672 
Q 1544 4750 1819 4750 
Q 2544 4750 2975 4387 
Q 3406 4025 3406 3419 
Q 3406 3131 3298 2873 
Q 3191 2616 2906 2266 
Q 2828 2175 2409 1742 
Q 1991 1309 1228 531 
z
" transform="scale(0.015625)"/>
     </defs>
     <use xlink:href="#DejaVuSans-46"/>
     <use xlink:href="#DejaVuSans-20" x="57.519531"/>
     <use xlink:href="#DejaVuSans-5b" x="89.306641"/>
     <use xlink:href="#DejaVuSans-32" x="128.320312"/>
     <use xlink:href="#DejaVuSans-36" x="191.943359"/>
     <use xlink:href="#DejaVuSans-5d" x="255.566406"/>
    </g>
   </g>
   <g id="text_6">
    <!-- G [16] -->
    <g transform="translate(222.270427 21.234169) scale(0.1 -0.1)">
     <defs>
      <path id="DejaVuSans-47" d="M 3809 666 
L 3809 1919 
L 2778 1919 
L 2778 2438 
L 4434 2438 
L 4434 434 
Q 4069 175 3628 42 
Q 3188 -91 2688 -91 
Q 1594 -91 976 548 
Q 359 1188 359 2328 
Q 359 3472 976 4111 
Q 1594 4750 2688 4750 
Q 3144 4750 3555 4637 
Q 3966 4525 4313 4306 
L 4313 3634 
Q 3963 3931 3569 4081 
Q 3175 4231 2741 4231 
Q 1884 4231 1454 3753 
Q 1025 3275 1025 2328 
Q 1025 1384 1454 906 
Q 1884 428 2741 428 
Q 3075 428 3337 486 
Q 3600 544 3809 666 
z
" transform="scale(0.015625)"/>
     </defs>
     <use xlink:href="#DejaVuSans-47"/>
     <use xlink:href="#DejaVuSans-20" x="77.490234"/>
     <use xlink:href="#DejaVuSans-5b" x="109.277344"/>
     <use xlink:href="#DejaVuSans-31" x="148.291016"/>
     <use xlink:href="#DejaVuSans-36" x="211.914062"/>
     <use xlink:href="#DejaVuSans-5d" x="275.537109"/>
    </g>
   </g>
   <g id="text_7">
    <!-- H [8] -->
    <g transform="translate(194.230885 14.798437) scale(0.1 -0.1)">
     <defs>
      <path id="DejaVuSans-48" d="M 628 4666 
L 1259 4666 
L 1259 2753 
L 3553 2753 
L 3553 4666 
L 4184 4666 
L 4184 0 
L 3553 0 
L 3553 2222 
L 1259 2222 
L 1259 0 
L 628 0 
L 628 4666 
z
" transform="scale(0.015625)"/>
      <path id="DejaVuSans-38" d="M 2034 2216 
Q 1584 2216 1326 1975 
Q 1069 1734 1069 1313 
Q 1069 891 1326 650 
Q 1584 409 2034 409 
Q 2484 409 2743 651 
Q 3003 894 3003 1313 
Q 3003 1734 2745 1975 
Q 2488 2216 2034 2216 
z
M 1403 2484 
Q 997 2584 770 2862 
Q 544 3141 544 3541 
Q 544 4100 942 4425 
Q 1341 4750 2034 4750 
Q 2731 4750 3128 4425 
Q 3525 4100 3525 3541 
Q 3525 3141 3298 2862 
Q 3072 2584 2669 2484 
Q 3125 2378 3379 2068 
Q 3634 1759 3634 1313 
Q 3634 634 3220 271 
Q 2806 -91 2034 -91 
Q 1263 -91 848 271 
Q 434 634 434 1313 
Q 434 1759 690 2068 
Q 947 2378 1403 2484 
z
M 1172 3481 
Q 1172 3119 1398 2916 
Q 1625 2713 2034 2713 
Q 2441 2713 2670 2916 
Q 2900 3119 2900 3481 
Q 2900 3844 2670 4047 
Q 2441 4250 2034 4250 
Q 1625 4250 1398 4047 
Q 1172 3844 1172 3481 
z
" transform="scale(0.015625)"/>
     </defs>
     <use xlink:href="#DejaVuSans-48"/>
     <use xlink:href="#DejaVuSans-20" x="75.195312"/>
     <use xlink:href="#DejaVuSans-5b" x="106.982422"/>
     <use xlink:href="#DejaVuSans-38" x="145.996094"/>
     <use xlink:href="#DejaVuSans-5d" x="209.619141"/>
    </g>
   </g>
   <g id="text_8">
    <!-- I [42] -->
    <g transform="translate(108.225812 20.1181) scale(0.1 -0.1)">
     <defs>
      <path id="DejaVuSans-49" d="M 628 4666 
L 1259 4666 
L 1259 0 
L 628 0 
L 628 4666 
z
" transform="scale(0.015625)"/>
      <path id="DejaVuSans-34" d="M 2419 4116 
L 825 1625 
L 2419 1625 
L 2419 4116 
z
M 2253 4666 
L 3047 4666 
L 3047 1625 
L 3713 1625 
L 3713 1100 
L 3047 1100 
L 3047 0 
L 2419 0 
L 2419 1100 
L 313 1100 
L 313 1709 
L 2253 4666 
z
" transform="scale(0.015625)"/>
     </defs>
     <use xlink:href="#DejaVuSans-49"/>
     <use xlink:href="#DejaVuSans-20" x="29.492188"/>
     <use xlink:href="#DejaVuSans-5b" x="61.279297"/>
     <use xlink:href="#DejaVuSans-34" x="100.292969"/>
     <use xlink:href="#DejaVuSans-32" x="163.916016"/>
     <use xlink:href="#DejaVuSans-5d" x="227.539062"/>
    </g>
   </g>
   <g id="text_9">
    <!-- K [22] -->
    <g transform="translate(40.907798 61.376413) scale(0.1 -0.1)">
     <defs>
      <path id="DejaVuSans-4b" d="M 628 4666 
L 1259 4666 
L 1259 2694 
L 3353 4666 
L 4166 4666 
L 1850 2491 
L 4331 0 
L 3500 0 
L 1259 2247 
L 1259 0 
L 628 0 
L 628 4666 
z
" transform="scale(0.015625)"/>
     </defs>
     <use xlink:href="#DejaVuSans-4b"/>
     <use xlink:href="#DejaVuSans-20" x="65.576172"/>
     <use xlink:href="#DejaVuSans-5b" x="97.363281"/>
     <use xlink:href="#DejaVuSans-32" x="136.376953"/>
     <use xlink:href="#DejaVuSans-32" x="200"/>
     <use xlink:href="#DejaVuSans-5d" x="263.623047"/>
    </g>
   </g>
   <g id="text_10">
    <!-- L [38] -->
    <g transform="translate(9.728977 124.971076) scale(0.1 -0.1)">
     <defs>
      <path id="DejaVuSans-4c" d="M 628 4666 
L 1259 4666 
L 1259 531 
L 3531 531 
L 3531 0 
L 628 0 
L 628 4666 
z
" transform="scale(0.015625)"/>
      <path id="DejaVuSans-33" d="M 2597 2516 
Q 3050 2419 3304 2112 
Q 3559 1806 3559 1356 
Q 3559 666 3084 287 
Q 2609 -91 1734 -91 
Q 1441 -91 1130 -33 
Q 819 25 488 141 
L 488 750 
Q 750 597 1062 519 
Q 1375 441 1716 441 
Q 2309 441 2620 675 
Q 2931 909 2931 1356 
Q 2931 1769 2642 2001 
Q 2353 2234 1838 2234 
L 1294 2234 
L 1294 2753 
L 1863 2753 
Q 2328 2753 2575 2939 
Q 2822 3125 2822 3475 
Q 2822 3834 2567 4026 
Q 2313 4219 1838 4219 
Q 1578 4219 1281 4162 
Q 984 4106 628 3988 
L 628 4550 
Q 988 4650 1302 4700 
Q 1616 4750 1894 4750 
Q 2613 4750 3031 4423 
Q 3450 4097 3450 3541 
Q 3450 3153 3228 2886 
Q 3006 2619 2597 2516 
z
" transform="scale(0.015625)"/>
     </defs>
     <use xlink:href="#DejaVuSans-4c"/>
     <use xlink:href="#DejaVuSans-20" x="55.712891"/>
     <use xlink:href="#DejaVuSans-5b" x="87.5"/>
     <use xlink:href="#DejaVuSans-33" x="126.513672"/>
     <use xlink:href="#DejaVuSans-38" x="190.136719"/>
     <use xlink:href="#DejaVuSans-5d" x="253.759766"/>
    </g>
   </g>
   <g id="text_11">
    <!-- M [14] -->
    <g transform="translate(7.2 186.900767) scale(0.1 -0.1)">
     <defs>
      <path id="DejaVuSans-4d" d="M 628 4666 
L 1569 4666 
L 2759 1491 
L 3956 4666 
L 4897 4666 
L 4897 0 
L 4281 0 
L 4281 4097 
L 3078 897 
L 2444 897 
L 1241 4097 
L 1241 0 
L 628 0 
L 628 4666 
z
" transform="scale(0.015625)"/>
     </defs>
     <use xlink:href="#DejaVuSans-4d"/>
     <use xlink:href="#DejaVuSans-20" x="86.279297"/>
     <use xlink:href="#DejaVuSans-5b" x="118.066406"/>
     <use xlink:href="#DejaVuSans-31" x="157.080078"/>
     <use xlink:href="#DejaVuSans-34" x="220.703125"/>
     <use xlink:href="#DejaVuSans-5d" x="284.326172"/>
    </g>
   </g>
   <g id="text_12">
    <!-- N [20] -->
    <g transform="translate(23.2335 224.763542) scale(0.1 -0.1)">
     <defs>
      <path id="DejaVuSans-4e" d="M 628 4666 
L 1478 4666 
L 3547 763 
L 3547 4666 
L 4159 4666 
L 4159 0 
L 3309 0 
L 1241 3903 
L 1241 0 
L 628 0 
L 628 4666 
z
" transform="scale(0.015625)"/>
     </defs>
     <use xlink:href="#DejaVuSans-4e"/>
     <use xlink:href="#DejaVuSans-20" x="74.804688"/>
     <use xlink:href="#DejaVuSans-5b" x="106.591797"/>
     <use xlink:href="#DejaVuSans-32" x="145.605469"/>
     <use xlink:href="#DejaVuSans-30" x="209.228516"/>
     <use xlink:href="#DejaVuSans-5d" x="272.851562"/>
    </g>
   </g>
   <g id="text_13">
    <!-- P [6] -->
    <g transform="translate(49.40385 249.938544) scale(0.1 -0.1)">
     <defs>
      <path id="DejaVuSans-50" d="M 1259 4147 
L 1259 2394 
L 2053 2394 
Q 2494 2394 2734 2622 
Q 2975 2850 2975 3272 
Q 2975 3691 2734 3919 
Q 2494 4147 2053 4147 
L 1259 4147 
z
M 628 4666 
L 2053 4666 
Q 2838 4666 3239 4311 
Q 3641 3956 3641 3272 
Q 3641 2581 3239 2228 
Q 2838 1875 2053 1875 
L 1259 1875 
L 1259 0 
L 628 0 
L 628 4666 
z
" transform="scale(0.015625)"/>
     </defs>
     <use xlink:href="#DejaVuSans-50"/>
     <use xlink:href="#DejaVuSans-20" x="60.302734"/>
     <use xlink:href="#DejaVuSans-5b" x="92.089844"/>
     <use xlink:href="#DejaVuSans-36" x="131.103516"/>
     <use xlink:href="#DejaVuSans-5d" x="194.726562"/>
    </g>
   </g>
   <g id="text_14">
    <!-- Q [10] -->
    <g transform="translate(55.088025 263.191812) scale(0.1 -0.1)">
     <defs>
      <path id="DejaVuSans-51" d="M 2522 4238 
Q 1834 4238 1429 3725 
Q 1025 3213 1025 2328 
Q 1025 1447 1429 934 
Q 1834 422 2522 422 
Q 3209 422 3611 934 
Q 4013 1447 4013 2328 
Q 4013 3213 3611 3725 
Q 3209 4238 2522 4238 
z
M 3406 84 
L 4238 -825 
L 3475 -825 
L 2784 -78 
Q 2681 -84 2626 -87 
Q 2572 -91 2522 -91 
Q 1538 -91 948 567 
Q 359 1225 359 2328 
Q 359 3434 948 4092 
Q 1538 4750 2522 4750 
Q 3503 4750 4090 4092 
Q 4678 3434 4678 2328 
Q 4678 1516 4351 937 
Q 4025 359 3406 84 
z
" transform="scale(0.015625)"/>
     </defs>
     <use xlink:href="#DejaVuSans-51"/>
     <use xlink:href="#DejaVuSans-20" x="78.710938"/>
     <use xlink:href="#DejaVuSans-5b" x="110.498047"/>
     <use xlink:href="#DejaVuSans-31" x="149.511719"/>
     <use xlink:href="#DejaVuSans-30" x="213.134766"/>
     <use xlink:href="#DejaVuSans-5d" x="276.757812"/>
    </g>
   </g>
   <g id="text_15">
    <!-- R [16] -->
    <g transform="translate(82.018108 280.349566) scale(0.1 -0.1)">
     <defs>
      <path id="DejaVuSans-52" d="M 2841 2188 
Q 3044 2119 3236 1894 
Q 3428 1669 3622 1275 
L 4263 0 
L 3584 0 
L 2988 1197 
Q 2756 1666 2539 1819 
Q 2322 1972 1947 1972 
L 1259 1972 
L 1259 0 
L 628 0 
L 628 4666 
L 2053 4666 
Q 2853 4666 3247 4331 
Q 3641 3997 3641 3322 
Q 3641 2881 3436 2590 
Q 3231 2300 2841 2188 
z
M 1259 4147 
L 1259 2491 
L 2053 2491 
Q 2509 2491 2742 2702 
Q 2975 2913 2975 3322 
Q 2975 3731 2742 3939 
Q 2509 4147 2053 4147 
L 1259 4147 
z
" transform="scale(0.015625)"/>
     </defs>
     <use xlink:href="#DejaVuSans-52"/>
     <use xlink:href="#DejaVuSans-20" x="69.482422"/>
     <use xlink:href="#DejaVuSans-5b" x="101.269531"/>
     <use xlink:href="#DejaVuSans-31" x="140.283203"/>
     <use xlink:href="#DejaVuSans-36" x="203.90625"/>
     <use xlink:href="#DejaVuSans-5d" x="267.529297"/>
    </g>
   </g>
   <g id="text_16">
    <!-- S [42] -->
    <g transform="translate(179.865486 295.77186) scale(0.1 -0.1)">
     <defs>
      <path id="DejaVuSans-53" d="M 3425 4513 
L 3425 3897 
Q 3066 4069 2747 4153 
Q 2428 4238 2131 4238 
Q 1616 4238 1336 4038 
Q 1056 3838 1056 3469 
Q 1056 3159 1242 3001 
Q 1428 2844 1947 2747 
L 2328 2669 
Q 3034 2534 3370 2195 
Q 3706 1856 3706 1288 
Q 3706 609 3251 259 
Q 2797 -91 1919 -91 
Q 1588 -91 1214 -16 
Q 841 59 441 206 
L 441 856 
Q 825 641 1194 531 
Q 1563 422 1919 422 
Q 2459 422 2753 634 
Q 3047 847 3047 1241 
Q 3047 1584 2836 1778 
Q 2625 1972 2144 2069 
L 1759 2144 
Q 1053 2284 737 2584 
Q 422 2884 422 3419 
Q 422 4038 858 4394 
Q 1294 4750 2059 4750 
Q 2388 4750 2728 4690 
Q 3069 4631 3425 4513 
z
" transform="scale(0.015625)"/>
     </defs>
     <use xlink:href="#DejaVuSans-53"/>
     <use xlink:href="#DejaVuSans-20" x="63.476562"/>
     <use xlink:href="#DejaVuSans-5b" x="95.263672"/>
     <use xlink:href="#DejaVuSans-34" x="134.277344"/>
     <use xlink:href="#DejaVuSans-32" x="197.900391"/>
     <use xlink:href="#DejaVuSans-5d" x="261.523438"/>
    </g>
   </g>
   <g id="text_17">
    <!-- T [19] -->
    <g transform="translate(249.452931 275.689681) scale(0.1 -0.1)">
     <defs>
      <path id="DejaVuSans-54" d="M -19 4666 
L 3928 4666 
L 3928 4134 
L 2272 4134 
L 2272 0 
L 1638 0 
L 1638 4134 
L -19 4134 
L -19 4666 
z
" transform="scale(0.015625)"/>
      <path id="DejaVuSans-39" d="M 703 97 
L 703 672 
Q 941 559 1184 500 
Q 1428 441 1663 441 
Q 2288 441 2617 861 
Q 2947 1281 2994 2138 
Q 2813 1869 2534 1725 
Q 2256 1581 1919 1581 
Q 1219 1581 811 2004 
Q 403 2428 403 3163 
Q 403 3881 828 4315 
Q 1253 4750 1959 4750 
Q 2769 4750 3195 4129 
Q 3622 3509 3622 2328 
Q 3622 1225 3098 567 
Q 2575 -91 1691 -91 
Q 1453 -91 1209 -44 
Q 966 3 703 97 
z
M 1959 2075 
Q 2384 2075 2632 2365 
Q 2881 2656 2881 3163 
Q 2881 3666 2632 3958 
Q 2384 4250 1959 4250 
Q 1534 4250 1286 3958 
Q 1038 3666 1038 3163 
Q 1038 2656 1286 2365 
Q 1534 2075 1959 2075 
z
" transform="scale(0.015625)"/>
     </defs>
     <use xlink:href="#DejaVuSans-54"/>
     <use xlink:href="#DejaVuSans-20" x="61.083984"/>
     <use xlink:href="#DejaVuSans-5b" x="92.871094"/>
     <use xlink:href="#DejaVuSans-31" x="131.884766"/>
     <use xlink:href="#DejaVuSans-39" x="195.507812"/>
     <use xlink:href="#DejaVuSans-5d" x="259.130859"/>
    </g>
   </g>
   <g id="text_18">
    <!-- V [26] -->
    <g transform="translate(289.394311 239.787823) scale(0.1 -0.1)">
     <defs>
      <path id="DejaVuSans-56" d="M 1831 0 
L 50 4666 
L 709 4666 
L 2188 738 
L 3669 4666 
L 4325 4666 
L 2547 0 
L 1831 0 
z
" transform="scale(0.015625)"/>
     </defs>
     <use xlink:href="#DejaVuSans-56"/>
     <use xlink:href="#DejaVuSans-20" x="68.408203"/>
     <use xlink:href="#DejaVuSans-5b" x="100.195312"/>
     <use xlink:href="#DejaVuSans-32" x="139.208984"/>
     <use xlink:href="#DejaVuSans-36" x="202.832031"/>
     <use xlink:href="#DejaVuSans-5d" x="266.455078"/>
    </g>
   </g>
   <g id="text_19">
    <!-- W [5] -->
    <g transform="translate(307.678109 207.487357) scale(0.1 -0.1)">
     <defs>
      <path id="DejaVuSans-57" d="M 213 4666 
L 850 4666 
L 1831 722 
L 2809 4666 
L 3519 4666 
L 4500 722 
L 5478 4666 
L 6119 4666 
L 4947 0 
L 4153 0 
L 3169 4050 
L 2175 0 
L 1381 0 
L 213 4666 
z
" transform="scale(0.015625)"/>
      <path id="DejaVuSans-35" d="M 691 4666 
L 3169 4666 
L 3169 4134 
L 1269 4134 
L 1269 2991 
Q 1406 3038 1543 3061 
Q 1681 3084 1819 3084 
Q 2600 3084 3056 2656 
Q 3513 2228 3513 1497 
Q 3513 744 3044 326 
Q 2575 -91 1722 -91 
Q 1428 -91 1123 -41 
Q 819 9 494 109 
L 494 744 
Q 775 591 1075 516 
Q 1375 441 1709 441 
Q 2250 441 2565 725 
Q 2881 1009 2881 1497 
Q 2881 1984 2565 2268 
Q 2250 2553 1709 2553 
Q 1456 2553 1204 2497 
Q 953 2441 691 2322 
L 691 4666 
z
" transform="scale(0.015625)"/>
     </defs>
     <use xlink:href="#DejaVuSans-57"/>
     <use xlink:href="#DejaVuSans-20" x="98.876953"/>
     <use xlink:href="#DejaVuSans-5b" x="130.664062"/>
     <use xlink:href="#DejaVuSans-35" x="169.677734"/>
     <use xlink:href="#DejaVuSans-5d" x="233.300781"/>
    </g>
   </g>
   <g id="text_20">
    <!-- Y [20] -->
    <g transform="translate(315.863408 178.664174) scale(0.1 -0.1)">
     <defs>
      <path id="DejaVuSans-59" d="M -13 4666 
L 666 4666 
L 1959 2747 
L 3244 4666 
L 3922 4666 
L 2272 2222 
L 2272 0 
L 1638 0 
L 1638 2222 
L -13 4666 
z
" transform="scale(0.015625)"/>
     </defs>
     <use xlink:href="#DejaVuSans-59"/>
     <use xlink:href="#DejaVuSans-20" x="61.083984"/>
     <use xlink:href="#DejaVuSans-5b" x="92.871094"/>
     <use xlink:href="#DejaVuSans-32" x="131.884766"/>
     <use xlink:href="#DejaVuSans-30" x="195.507812"/>
     <use xlink:href="#DejaVuSans-5d" x="259.130859"/>
    </g>
   </g>
   <g id="text_21">
    <!-- A0A452DUG2 [369] -->
    <g transform="translate(117.86594 152.005072) scale(0.12 -0.12)">
     <defs>
      <path id="DejaVuSans-55" d="M 556 4666 
L 1191 4666 
L 1191 1831 
Q 1191 1081 1462 751 
Q 1734 422 2344 422 
Q 2950 422 3222 751 
Q 3494 1081 3494 1831 
L 3494 4666 
L 4128 4666 
L 4128 1753 
Q 4128 841 3676 375 
Q 3225 -91 2344 -91 
Q 1459 -91 1007 375 
Q 556 841 556 1753 
L 556 4666 
z
" transform="scale(0.015625)"/>
     </defs>
     <use xlink:href="#DejaVuSans-41"/>
     <use xlink:href="#DejaVuSans-30" x="68.408203"/>
     <use xlink:href="#DejaVuSans-41" x="132.03125"/>
     <use xlink:href="#DejaVuSans-34" x="200.439453"/>
     <use xlink:href="#DejaVuSans-35" x="264.0625"/>
     <use xlink:href="#DejaVuSans-32" x="327.685547"/>
     <use xlink:href="#DejaVuSans-44" x="391.308594"/>
     <use xlink:href="#DejaVuSans-55" x="468.310547"/>
     <use xlink:href="#DejaVuSans-47" x="541.503906"/>
     <use xlink:href="#DejaVuSans-32" x="618.994141"/>
     <use xlink:href="#DejaVuSans-20" x="682.617188"/>
     <use xlink:href="#DejaVuSans-5b" x="714.404297"/>
     <use xlink:href="#DejaVuSans-33" x="753.417969"/>
     <use xlink:href="#DejaVuSans-36" x="817.041016"/>
     <use xlink:href="#DejaVuSans-39" x="880.664062"/>
     <use xlink:href="#DejaVuSans-5d" x="944.287109"/>
    </g>
   </g>
  </g>
 </g>
</svg>
