<?xml version="1.0" encoding="utf-8" standalone="no"?>
<!DOCTYPE svg PUBLIC "-//W3C//DTD SVG 1.1//EN"
  "http://www.w3.org/Graphics/SVG/1.1/DTD/svg11.dtd">
<svg xmlns:xlink="http://www.w3.org/1999/xlink" width="353.037353pt" height="305.508021pt" viewBox="0 0 353.037353 305.508021" xmlns="http://www.w3.org/2000/svg" version="1.1">
 <metadata>
  <rdf:RDF xmlns:dc="http://purl.org/dc/elements/1.1/" xmlns:cc="http://creativecommons.org/ns#" xmlns:rdf="http://www.w3.org/1999/02/22-rdf-syntax-ns#">
   <cc:Work>
    <dc:type rdf:resource="http://purl.org/dc/dcmitype/StillImage"/>
    <dc:date>2024-09-27T16:07:35.772516</dc:date>
    <dc:format>image/svg+xml</dc:format>
    <dc:creator>
     <cc:Agent>
      <dc:title>Matplotlib v3.8.3, https://matplotlib.org/</dc:title>
     </cc:Agent>
    </dc:creator>
   </cc:Work>
  </rdf:RDF>
 </metadata>
 <defs>
  <style type="text/css">*{stroke-linejoin: round; stroke-linecap: butt}</style>
 </defs>
 <g id="figure_1">
  <g id="patch_1">
   <path d="M -0 305.508021 
L 353.037353 305.508021 
L 353.037353 0 
L -0 0 
z
" style="fill: #ffffff"/>
  </g>
  <g id="axes_1">
   <g id="patch_2">
    <path d="M 303.843151 152.429394 
C 303.843151 143.041745 302.808248 133.682639 300.75721 124.521787 
C 298.706172 115.360935 295.65147 106.454045 291.648496 97.962628 
L 176.109391 152.429394 
z
" style="fill: #1f77b4"/>
   </g>
   <g id="patch_3">
    <path d="M 291.590562 97.813688 
C 290.117068 94.687998 288.517341 91.623389 286.795329 88.627425 
C 285.073318 85.63146 283.230441 82.706608 281.271246 79.860088 
L 176.051458 152.280455 
z
" style="fill: #ff7f0e"/>
   </g>
   <g id="patch_4">
    <path d="M 281.2184 79.784253 
C 278.979226 76.53095 276.590372 73.383246 274.059539 70.351289 
C 271.528706 67.319331 268.858616 64.406381 266.057876 61.621828 
L 175.998612 152.204621 
z
" style="fill: #aec7e8"/>
   </g>
   <g id="patch_5">
    <path d="M 265.963618 61.533396 
C 261.411078 57.007168 256.523788 52.830577 251.343308 49.039142 
C 246.162828 45.247706 240.703885 41.852203 235.012899 38.881506 
L 175.904354 152.116188 
z
" style="fill: #ffbb78"/>
   </g>
   <g id="patch_6">
    <path d="M 234.862449 38.804628 
C 228.51408 35.490777 221.898258 32.716658 215.08495 30.511609 
C 208.271642 28.30656 201.28495 26.678382 194.198761 25.644292 
L 175.753904 152.039311 
z
" style="fill: #98df8a"/>
   </g>
   <g id="patch_7">
    <path d="M 193.988666 25.620444 
C 184.209433 24.193358 174.297536 23.906016 164.452054 24.76419 
C 154.606573 25.622363 144.893867 27.620268 135.509017 30.717776 
L 175.543809 152.015463 
z
" style="fill: #2ca02c"/>
   </g>
   <g id="patch_8">
    <path d="M 135.359422 30.753095 
C 133.015667 31.52666 130.694825 32.367994 128.399819 33.276036 
C 126.104813 34.184077 123.836607 35.158446 121.598059 36.197913 
L 175.394215 152.050781 
z
" style="fill: #d62728"/>
   </g>
   <g id="patch_9">
    <path d="M 121.489581 36.256149 
C 114.770178 39.376296 108.334946 43.07512 102.256705 47.310764 
C 96.178463 51.546407 90.480226 56.302835 85.226474 61.526223 
L 175.285737 152.109017 
z
" style="fill: #9467bd"/>
   </g>
   <g id="patch_10">
    <path d="M 85.110563 61.63624 
C 81.258931 65.465611 77.655458 69.536747 74.322092 73.82485 
C 70.988727 78.112953 67.932252 82.609298 65.171283 87.286499 
L 175.169826 152.219034 
z
" style="fill: #ff9896"/>
   </g>
   <g id="patch_11">
    <path d="M 65.06676 87.524099 
C 57.141135 100.950452 51.740288 115.715146 49.131864 131.086503 
C 46.523439 146.45786 46.751247 162.177702 49.803999 177.467018 
L 175.065302 152.456634 
z
" style="fill: #c5b0d5"/>
   </g>
   <g id="patch_12">
    <path d="M 49.815304 177.696291 
C 50.395233 180.600791 51.076008 183.484241 51.856396 186.341412 
C 52.636784 189.198584 53.516312 192.027748 54.493384 194.823774 
L 175.076607 152.685907 
z
" style="fill: #c49c94"/>
   </g>
   <g id="patch_13">
    <path d="M 54.522791 194.904892 
C 55.825656 198.633219 57.300736 202.299116 58.943276 205.890765 
C 60.585815 209.482415 62.394047 212.995954 64.362142 216.420057 
L 175.106013 152.767025 
z
" style="fill: #8c564b"/>
   </g>
   <g id="patch_14">
    <path d="M 64.418495 216.515521 
C 66.878862 220.796081 69.585345 224.930392 72.524316 228.897639 
C 75.463286 232.864886 78.629804 236.658399 82.007926 240.259078 
L 175.162366 152.862489 
z
" style="fill: #e377c2"/>
   </g>
   <g id="patch_15">
    <path d="M 82.080529 240.338747 
C 84.61381 243.038925 87.263296 245.627683 90.021478 248.097685 
C 92.779661 250.567687 95.643933 252.916599 98.606179 255.137764 
L 175.234969 152.942158 
z
" style="fill: #7f7f7f"/>
   </g>
   <g id="patch_16">
    <path d="M 98.712219 255.211659 
C 104.046142 259.211166 109.68501 262.78695 115.577117 265.906223 
C 121.469225 269.025496 127.596508 271.678695 133.902783 273.841492 
L 175.341009 153.016052 
z
" style="fill: #f7b6d2"/>
   </g>
   <g id="patch_17">
    <path d="M 134.13021 273.902902 
C 145.822931 277.913031 158.036087 280.204686 170.387178 280.706095 
C 182.738269 281.207505 195.096995 279.913379 207.076296 276.864247 
L 175.568436 153.077462 
z
" style="fill: #c7c7c7"/>
   </g>
   <g id="patch_18">
    <path d="M 207.335929 276.808484 
C 216.193628 274.553904 224.783802 271.35509 232.958752 267.267042 
C 241.133702 263.178994 248.846303 258.225277 255.963942 252.491067 
L 175.828069 153.021698 
z
" style="fill: #dbdb8d"/>
   </g>
   <g id="patch_19">
    <path d="M 256.160786 252.321859 
C 265.4005 244.878034 273.558128 236.182965 280.39811 226.487734 
C 287.238091 216.792503 292.693948 206.191336 296.608136 194.990355 
L 176.024913 152.85249 
z
" style="fill: #bcbd22"/>
   </g>
   <g id="patch_20">
    <path d="M 296.68747 194.820795 
C 297.745984 191.791713 298.689985 188.723822 299.517464 185.62365 
C 300.344944 182.523479 301.055314 179.393228 301.647062 176.23956 
L 176.104247 152.682929 
z
" style="fill: #17becf"/>
   </g>
   <g id="patch_21">
    <path d="M 301.662777 176.151595 
C 302.391128 172.269922 302.939059 168.356556 303.304806 164.424113 
C 303.670553 160.491669 303.853722 156.544378 303.853722 152.594963 
L 176.119962 152.594964 
z
" style="fill: #9edae5"/>
   </g>
   <g id="patch_22">
    <path d="M 250.101385 152.545676 
C 250.101385 147.069547 249.497692 141.610069 248.301253 136.266238 
C 247.104814 130.922408 245.322904 125.726722 242.987836 120.773396 
L 175.590025 152.545676 
z
" style="fill: #ffffff"/>
   </g>
   <g id="patch_23">
    <path d="M 242.987836 120.773396 
C 242.128298 118.950076 241.195123 117.162387 240.190617 115.414742 
C 239.18611 113.667096 238.111098 111.960932 236.968234 110.300462 
L 175.590025 152.545676 
z
" style="fill: #ffffff"/>
   </g>
   <g id="patch_24">
    <path d="M 236.968234 110.300462 
C 235.66205 108.402701 234.268552 106.566541 232.792232 104.797899 
C 231.315913 103.029257 229.758361 101.330036 228.124596 99.705714 
L 175.590025 152.545676 
z
" style="fill: #ffffff"/>
   </g>
   <g id="patch_25">
    <path d="M 228.124596 99.705714 
C 225.468948 97.065414 222.618028 94.62907 219.596082 92.417399 
C 216.574135 90.205728 213.389751 88.225018 210.07001 86.492111 
L 175.590025 152.545676 
z
" style="fill: #ffffff"/>
   </g>
   <g id="patch_26">
    <path d="M 210.07001 86.492111 
C 206.366794 84.559031 202.507565 82.940795 198.533135 81.654517 
C 194.558705 80.368238 190.483135 79.418467 186.349525 78.815249 
L 175.590025 152.545676 
z
" style="fill: #ffffff"/>
   </g>
   <g id="patch_27">
    <path d="M 186.349525 78.815249 
C 180.644972 77.982782 174.863032 77.815166 169.119834 78.315767 
C 163.376637 78.816368 157.710892 79.981813 152.236396 81.788692 
L 175.590025 152.545676 
z
" style="fill: #ffffff"/>
   </g>
   <g id="patch_28">
    <path d="M 152.236396 81.788692 
C 150.869205 82.239939 149.515381 82.730717 148.176627 83.260408 
C 146.837874 83.790099 145.514754 84.35848 144.208934 84.964836 
L 175.590025 152.545676 
z
" style="fill: #ffffff"/>
   </g>
   <g id="patch_29">
    <path d="M 144.208934 84.964836 
C 140.289282 86.784923 136.535397 88.942569 132.989756 91.413362 
C 129.444115 93.884154 126.120144 96.658737 123.055455 99.705713 
L 175.590025 152.545676 
z
" style="fill: #ffffff"/>
   </g>
   <g id="patch_30">
    <path d="M 123.055455 99.705713 
C 120.808669 101.939513 118.706643 104.314342 116.76218 106.815735 
C 114.817717 109.317129 113.034773 111.939997 111.424208 114.668364 
L 175.590025 152.545676 
z
" style="fill: #ffffff"/>
   </g>
   <g id="patch_31">
    <path d="M 111.424208 114.668364 
C 106.800927 122.500404 103.650433 131.113142 102.128852 140.079766 
C 100.607271 149.046391 100.740159 158.216299 102.520931 167.135067 
L 175.590025 152.545676 
z
" style="fill: #ffffff"/>
   </g>
   <g id="patch_32">
    <path d="M 102.520931 167.135067 
C 102.859223 168.829358 103.256342 170.511371 103.711568 172.178054 
C 104.166795 173.844737 104.679852 175.495083 105.249812 177.126099 
L 175.590025 152.545676 
z
" style="fill: #ffffff"/>
   </g>
   <g id="patch_33">
    <path d="M 105.249812 177.126099 
C 106.009817 179.300956 106.87028 181.439396 107.828428 183.534525 
C 108.786576 185.629654 109.841378 187.679218 110.989433 189.676611 
L 175.590025 152.545676 
z
" style="fill: #ffffff"/>
   </g>
   <g id="patch_34">
    <path d="M 110.989433 189.676611 
C 112.424648 192.173605 114.003429 194.585286 115.717829 196.899514 
C 117.432228 199.213741 119.279364 201.426624 121.249935 203.52702 
L 175.590025 152.545676 
z
" style="fill: #ffffff"/>
   </g>
   <g id="patch_35">
    <path d="M 121.249935 203.52702 
C 122.727682 205.102124 124.273216 206.612233 125.882155 208.053067 
C 127.491095 209.493902 129.161921 210.8641 130.889898 212.15978 
L 175.590025 152.545676 
z
" style="fill: #ffffff"/>
   </g>
   <g id="patch_36">
    <path d="M 130.889898 212.15978 
C 134.001353 214.492826 137.290692 216.5787 140.727755 218.398276 
C 144.164818 220.217852 147.739066 221.765551 151.417726 223.027183 
L 175.590025 152.545676 
z
" style="fill: #ffffff"/>
   </g>
   <g id="patch_37">
    <path d="M 151.417726 223.027183 
C 158.23848 225.366425 165.362821 226.703223 172.567624 226.995712 
C 179.772427 227.288201 186.981684 226.533294 193.96961 224.754634 
L 175.590025 152.545676 
z
" style="fill: #ffffff"/>
   </g>
   <g id="patch_38">
    <path d="M 193.96961 224.754634 
C 199.1366 223.439463 204.147536 221.573488 208.916257 219.188793 
C 213.684977 216.804098 218.183994 213.91443 222.33595 210.569475 
L 175.590025 152.545676 
z
" style="fill: #ffffff"/>
   </g>
   <g id="patch_39">
    <path d="M 222.33595 210.569475 
C 227.725784 206.227243 232.4844 201.15512 236.47439 195.499569 
C 240.464379 189.844017 243.646962 183.660003 245.930238 177.126098 
L 175.590025 152.545676 
z
" style="fill: #ffffff"/>
   </g>
   <g id="patch_40">
    <path d="M 245.930238 177.126098 
C 246.547705 175.359134 247.098372 173.56953 247.581069 171.761097 
C 248.063765 169.952663 248.478147 168.126684 248.823334 166.287044 
L 175.590025 152.545676 
z
" style="fill: #ffffff"/>
   </g>
   <g id="patch_41">
    <path d="M 248.823334 166.287044 
C 249.248205 164.022735 249.567832 161.739938 249.781184 159.446013 
C 249.994536 157.152088 250.101385 154.849501 250.101385 152.545675 
L 175.590025 152.545676 
z
" style="fill: #ffffff"/>
   </g>
   <g id="matplotlib.axis_1"/>
   <g id="matplotlib.axis_2"/>
   <g id="text_1">
    <!-- A [38] -->
    <g transform="translate(313.221992 124.490401) scale(0.1 -0.1)">
     <defs>
      <path id="DejaVuSans-41" d="M 2188 4044 
L 1331 1722 
L 3047 1722 
L 2188 4044 
z
M 1831 4666 
L 2547 4666 
L 4325 0 
L 3669 0 
L 3244 1197 
L 1141 1197 
L 716 0 
L 50 0 
L 1831 4666 
z
" transform="scale(0.015625)"/>
      <path id="DejaVuSans-20" transform="scale(0.015625)"/>
      <path id="DejaVuSans-5b" d="M 550 4863 
L 1875 4863 
L 1875 4416 
L 1125 4416 
L 1125 -397 
L 1875 -397 
L 1875 -844 
L 550 -844 
L 550 4863 
z
" transform="scale(0.015625)"/>
      <path id="DejaVuSans-33" d="M 2597 2516 
Q 3050 2419 3304 2112 
Q 3559 1806 3559 1356 
Q 3559 666 3084 287 
Q 2609 -91 1734 -91 
Q 1441 -91 1130 -33 
Q 819 25 488 141 
L 488 750 
Q 750 597 1062 519 
Q 1375 441 1716 441 
Q 2309 441 2620 675 
Q 2931 909 2931 1356 
Q 2931 1769 2642 2001 
Q 2353 2234 1838 2234 
L 1294 2234 
L 1294 2753 
L 1863 2753 
Q 2328 2753 2575 2939 
Q 2822 3125 2822 3475 
Q 2822 3834 2567 4026 
Q 2313 4219 1838 4219 
Q 1578 4219 1281 4162 
Q 984 4106 628 3988 
L 628 4550 
Q 988 4650 1302 4700 
Q 1616 4750 1894 4750 
Q 2613 4750 3031 4423 
Q 3450 4097 3450 3541 
Q 3450 3153 3228 2886 
Q 3006 2619 2597 2516 
z
" transform="scale(0.015625)"/>
      <path id="DejaVuSans-38" d="M 2034 2216 
Q 1584 2216 1326 1975 
Q 1069 1734 1069 1313 
Q 1069 891 1326 650 
Q 1584 409 2034 409 
Q 2484 409 2743 651 
Q 3003 894 3003 1313 
Q 3003 1734 2745 1975 
Q 2488 2216 2034 2216 
z
M 1403 2484 
Q 997 2584 770 2862 
Q 544 3141 544 3541 
Q 544 4100 942 4425 
Q 1341 4750 2034 4750 
Q 2731 4750 3128 4425 
Q 3525 4100 3525 3541 
Q 3525 3141 3298 2862 
Q 3072 2584 2669 2484 
Q 3125 2378 3379 2068 
Q 3634 1759 3634 1313 
Q 3634 634 3220 271 
Q 2806 -91 2034 -91 
Q 1263 -91 848 271 
Q 434 634 434 1313 
Q 434 1759 690 2068 
Q 947 2378 1403 2484 
z
M 1172 3481 
Q 1172 3119 1398 2916 
Q 1625 2713 2034 2713 
Q 2441 2713 2670 2916 
Q 2900 3119 2900 3481 
Q 2900 3844 2670 4047 
Q 2441 4250 2034 4250 
Q 1625 4250 1398 4047 
Q 1172 3844 1172 3481 
z
" transform="scale(0.015625)"/>
      <path id="DejaVuSans-5d" d="M 1947 4863 
L 1947 -844 
L 622 -844 
L 622 -397 
L 1369 -397 
L 1369 4416 
L 622 4416 
L 622 4863 
L 1947 4863 
z
" transform="scale(0.015625)"/>
     </defs>
     <use xlink:href="#DejaVuSans-41"/>
     <use xlink:href="#DejaVuSans-20" x="68.408203"/>
     <use xlink:href="#DejaVuSans-5b" x="100.195312"/>
     <use xlink:href="#DejaVuSans-33" x="139.208984"/>
     <use xlink:href="#DejaVuSans-38" x="202.832031"/>
     <use xlink:href="#DejaVuSans-5d" x="266.455078"/>
    </g>
   </g>
   <g id="text_2">
    <!-- C [14] -->
    <g transform="translate(297.869717 85.021497) scale(0.1 -0.1)">
     <defs>
      <path id="DejaVuSans-43" d="M 4122 4306 
L 4122 3641 
Q 3803 3938 3442 4084 
Q 3081 4231 2675 4231 
Q 1875 4231 1450 3742 
Q 1025 3253 1025 2328 
Q 1025 1406 1450 917 
Q 1875 428 2675 428 
Q 3081 428 3442 575 
Q 3803 722 4122 1019 
L 4122 359 
Q 3791 134 3420 21 
Q 3050 -91 2638 -91 
Q 1578 -91 968 557 
Q 359 1206 359 2328 
Q 359 3453 968 4101 
Q 1578 4750 2638 4750 
Q 3056 4750 3426 4639 
Q 3797 4528 4122 4306 
z
" transform="scale(0.015625)"/>
      <path id="DejaVuSans-31" d="M 794 531 
L 1825 531 
L 1825 4091 
L 703 3866 
L 703 4441 
L 1819 4666 
L 2450 4666 
L 2450 531 
L 3481 531 
L 3481 0 
L 794 0 
L 794 531 
z
" transform="scale(0.015625)"/>
      <path id="DejaVuSans-34" d="M 2419 4116 
L 825 1625 
L 2419 1625 
L 2419 4116 
z
M 2253 4666 
L 3047 4666 
L 3047 1625 
L 3713 1625 
L 3713 1100 
L 3047 1100 
L 3047 0 
L 2419 0 
L 2419 1100 
L 313 1100 
L 313 1709 
L 2253 4666 
z
" transform="scale(0.015625)"/>
     </defs>
     <use xlink:href="#DejaVuSans-43"/>
     <use xlink:href="#DejaVuSans-20" x="69.824219"/>
     <use xlink:href="#DejaVuSans-5b" x="101.611328"/>
     <use xlink:href="#DejaVuSans-31" x="140.625"/>
     <use xlink:href="#DejaVuSans-34" x="204.248047"/>
     <use xlink:href="#DejaVuSans-5d" x="267.871094"/>
    </g>
   </g>
   <g id="text_3">
    <!-- D [16] -->
    <g transform="translate(283.865632 64.92533) scale(0.1 -0.1)">
     <defs>
      <path id="DejaVuSans-44" d="M 1259 4147 
L 1259 519 
L 2022 519 
Q 2988 519 3436 956 
Q 3884 1394 3884 2338 
Q 3884 3275 3436 3711 
Q 2988 4147 2022 4147 
L 1259 4147 
z
M 628 4666 
L 1925 4666 
Q 3281 4666 3915 4102 
Q 4550 3538 4550 2338 
Q 4550 1131 3912 565 
Q 3275 0 1925 0 
L 628 0 
L 628 4666 
z
" transform="scale(0.015625)"/>
      <path id="DejaVuSans-36" d="M 2113 2584 
Q 1688 2584 1439 2293 
Q 1191 2003 1191 1497 
Q 1191 994 1439 701 
Q 1688 409 2113 409 
Q 2538 409 2786 701 
Q 3034 994 3034 1497 
Q 3034 2003 2786 2293 
Q 2538 2584 2113 2584 
z
M 3366 4563 
L 3366 3988 
Q 3128 4100 2886 4159 
Q 2644 4219 2406 4219 
Q 1781 4219 1451 3797 
Q 1122 3375 1075 2522 
Q 1259 2794 1537 2939 
Q 1816 3084 2150 3084 
Q 2853 3084 3261 2657 
Q 3669 2231 3669 1497 
Q 3669 778 3244 343 
Q 2819 -91 2113 -91 
Q 1303 -91 875 529 
Q 447 1150 447 2328 
Q 447 3434 972 4092 
Q 1497 4750 2381 4750 
Q 2619 4750 2861 4703 
Q 3103 4656 3366 4563 
z
" transform="scale(0.015625)"/>
     </defs>
     <use xlink:href="#DejaVuSans-44"/>
     <use xlink:href="#DejaVuSans-20" x="77.001953"/>
     <use xlink:href="#DejaVuSans-5b" x="108.789062"/>
     <use xlink:href="#DejaVuSans-31" x="147.802734"/>
     <use xlink:href="#DejaVuSans-36" x="211.425781"/>
     <use xlink:href="#DejaVuSans-5d" x="275.048828"/>
    </g>
   </g>
   <g id="text_4">
    <!-- E [26] -->
    <g transform="translate(258.887204 41.490812) scale(0.1 -0.1)">
     <defs>
      <path id="DejaVuSans-45" d="M 628 4666 
L 3578 4666 
L 3578 4134 
L 1259 4134 
L 1259 2753 
L 3481 2753 
L 3481 2222 
L 1259 2222 
L 1259 531 
L 3634 531 
L 3634 0 
L 628 0 
L 628 4666 
z
" transform="scale(0.015625)"/>
      <path id="DejaVuSans-32" d="M 1228 531 
L 3431 531 
L 3431 0 
L 469 0 
L 469 531 
Q 828 903 1448 1529 
Q 2069 2156 2228 2338 
Q 2531 2678 2651 2914 
Q 2772 3150 2772 3378 
Q 2772 3750 2511 3984 
Q 2250 4219 1831 4219 
Q 1534 4219 1204 4116 
Q 875 4013 500 3803 
L 500 4441 
Q 881 4594 1212 4672 
Q 1544 4750 1819 4750 
Q 2544 4750 2975 4387 
Q 3406 4025 3406 3419 
Q 3406 3131 3298 2873 
Q 3191 2616 2906 2266 
Q 2828 2175 2409 1742 
Q 1991 1309 1228 531 
z
" transform="scale(0.015625)"/>
     </defs>
     <use xlink:href="#DejaVuSans-45"/>
     <use xlink:href="#DejaVuSans-20" x="63.183594"/>
     <use xlink:href="#DejaVuSans-5b" x="94.970703"/>
     <use xlink:href="#DejaVuSans-32" x="133.984375"/>
     <use xlink:href="#DejaVuSans-36" x="197.607422"/>
     <use xlink:href="#DejaVuSans-5d" x="261.230469"/>
    </g>
   </g>
   <g id="text_5">
    <!-- F [29] -->
    <g transform="translate(219.018054 21.118214) scale(0.1 -0.1)">
     <defs>
      <path id="DejaVuSans-46" d="M 628 4666 
L 3309 4666 
L 3309 4134 
L 1259 4134 
L 1259 2759 
L 3109 2759 
L 3109 2228 
L 1259 2228 
L 1259 0 
L 628 0 
L 628 4666 
z
" transform="scale(0.015625)"/>
      <path id="DejaVuSans-39" d="M 703 97 
L 703 672 
Q 941 559 1184 500 
Q 1428 441 1663 441 
Q 2288 441 2617 861 
Q 2947 1281 2994 2138 
Q 2813 1869 2534 1725 
Q 2256 1581 1919 1581 
Q 1219 1581 811 2004 
Q 403 2428 403 3163 
Q 403 3881 828 4315 
Q 1253 4750 1959 4750 
Q 2769 4750 3195 4129 
Q 3622 3509 3622 2328 
Q 3622 1225 3098 567 
Q 2575 -91 1691 -91 
Q 1453 -91 1209 -44 
Q 966 3 703 97 
z
M 1959 2075 
Q 2384 2075 2632 2365 
Q 2881 2656 2881 3163 
Q 2881 3666 2632 3958 
Q 2384 4250 1959 4250 
Q 1534 4250 1286 3958 
Q 1038 3666 1038 3163 
Q 1038 2656 1286 2365 
Q 1534 2075 1959 2075 
z
" transform="scale(0.015625)"/>
     </defs>
     <use xlink:href="#DejaVuSans-46"/>
     <use xlink:href="#DejaVuSans-20" x="57.519531"/>
     <use xlink:href="#DejaVuSans-5b" x="89.306641"/>
     <use xlink:href="#DejaVuSans-32" x="128.320312"/>
     <use xlink:href="#DejaVuSans-39" x="191.943359"/>
     <use xlink:href="#DejaVuSans-5d" x="255.566406"/>
    </g>
   </g>
   <g id="text_6">
    <!-- G [40] -->
    <g transform="translate(131.888191 14.798437) scale(0.1 -0.1)">
     <defs>
      <path id="DejaVuSans-47" d="M 3809 666 
L 3809 1919 
L 2778 1919 
L 2778 2438 
L 4434 2438 
L 4434 434 
Q 4069 175 3628 42 
Q 3188 -91 2688 -91 
Q 1594 -91 976 548 
Q 359 1188 359 2328 
Q 359 3472 976 4111 
Q 1594 4750 2688 4750 
Q 3144 4750 3555 4637 
Q 3966 4525 4313 4306 
L 4313 3634 
Q 3963 3931 3569 4081 
Q 3175 4231 2741 4231 
Q 1884 4231 1454 3753 
Q 1025 3275 1025 2328 
Q 1025 1384 1454 906 
Q 1884 428 2741 428 
Q 3075 428 3337 486 
Q 3600 544 3809 666 
z
" transform="scale(0.015625)"/>
      <path id="DejaVuSans-30" d="M 2034 4250 
Q 1547 4250 1301 3770 
Q 1056 3291 1056 2328 
Q 1056 1369 1301 889 
Q 1547 409 2034 409 
Q 2525 409 2770 889 
Q 3016 1369 3016 2328 
Q 3016 3291 2770 3770 
Q 2525 4250 2034 4250 
z
M 2034 4750 
Q 2819 4750 3233 4129 
Q 3647 3509 3647 2328 
Q 3647 1150 3233 529 
Q 2819 -91 2034 -91 
Q 1250 -91 836 529 
Q 422 1150 422 2328 
Q 422 3509 836 4129 
Q 1250 4750 2034 4750 
z
" transform="scale(0.015625)"/>
     </defs>
     <use xlink:href="#DejaVuSans-47"/>
     <use xlink:href="#DejaVuSans-20" x="77.490234"/>
     <use xlink:href="#DejaVuSans-5b" x="109.277344"/>
     <use xlink:href="#DejaVuSans-34" x="148.291016"/>
     <use xlink:href="#DejaVuSans-30" x="211.914062"/>
     <use xlink:href="#DejaVuSans-5d" x="275.537109"/>
    </g>
   </g>
   <g id="text_7">
    <!-- H [10] -->
    <g transform="translate(92.473817 24.157936) scale(0.1 -0.1)">
     <defs>
      <path id="DejaVuSans-48" d="M 628 4666 
L 1259 4666 
L 1259 2753 
L 3553 2753 
L 3553 4666 
L 4184 4666 
L 4184 0 
L 3553 0 
L 3553 2222 
L 1259 2222 
L 1259 0 
L 628 0 
L 628 4666 
z
" transform="scale(0.015625)"/>
     </defs>
     <use xlink:href="#DejaVuSans-48"/>
     <use xlink:href="#DejaVuSans-20" x="75.195312"/>
     <use xlink:href="#DejaVuSans-5b" x="106.982422"/>
     <use xlink:href="#DejaVuSans-31" x="145.996094"/>
     <use xlink:href="#DejaVuSans-30" x="209.619141"/>
     <use xlink:href="#DejaVuSans-5d" x="273.242188"/>
    </g>
   </g>
   <g id="text_8">
    <!-- I [30] -->
    <g transform="translate(68.297552 39.590313) scale(0.1 -0.1)">
     <defs>
      <path id="DejaVuSans-49" d="M 628 4666 
L 1259 4666 
L 1259 0 
L 628 0 
L 628 4666 
z
" transform="scale(0.015625)"/>
     </defs>
     <use xlink:href="#DejaVuSans-49"/>
     <use xlink:href="#DejaVuSans-20" x="29.492188"/>
     <use xlink:href="#DejaVuSans-5b" x="61.279297"/>
     <use xlink:href="#DejaVuSans-33" x="100.292969"/>
     <use xlink:href="#DejaVuSans-30" x="163.916016"/>
     <use xlink:href="#DejaVuSans-5d" x="227.539062"/>
    </g>
   </g>
   <g id="text_9">
    <!-- K [22] -->
    <g transform="translate(33.973257 68.744806) scale(0.1 -0.1)">
     <defs>
      <path id="DejaVuSans-4b" d="M 628 4666 
L 1259 4666 
L 1259 2694 
L 3353 4666 
L 4166 4666 
L 1850 2491 
L 4331 0 
L 3500 0 
L 1259 2247 
L 1259 0 
L 628 0 
L 628 4666 
z
" transform="scale(0.015625)"/>
     </defs>
     <use xlink:href="#DejaVuSans-4b"/>
     <use xlink:href="#DejaVuSans-20" x="65.576172"/>
     <use xlink:href="#DejaVuSans-5b" x="97.363281"/>
     <use xlink:href="#DejaVuSans-32" x="136.376953"/>
     <use xlink:href="#DejaVuSans-32" x="200"/>
     <use xlink:href="#DejaVuSans-5d" x="263.623047"/>
    </g>
   </g>
   <g id="text_10">
    <!-- L [63] -->
    <g transform="translate(7.260395 131.708865) scale(0.1 -0.1)">
     <defs>
      <path id="DejaVuSans-4c" d="M 628 4666 
L 1259 4666 
L 1259 531 
L 3531 531 
L 3531 0 
L 628 0 
L 628 4666 
z
" transform="scale(0.015625)"/>
     </defs>
     <use xlink:href="#DejaVuSans-4c"/>
     <use xlink:href="#DejaVuSans-20" x="55.712891"/>
     <use xlink:href="#DejaVuSans-5b" x="87.5"/>
     <use xlink:href="#DejaVuSans-36" x="126.513672"/>
     <use xlink:href="#DejaVuSans-33" x="190.136719"/>
     <use xlink:href="#DejaVuSans-5d" x="253.759766"/>
    </g>
   </g>
   <g id="text_11">
    <!-- M [12] -->
    <g transform="translate(7.2 192.466338) scale(0.1 -0.1)">
     <defs>
      <path id="DejaVuSans-4d" d="M 628 4666 
L 1569 4666 
L 2759 1491 
L 3956 4666 
L 4897 4666 
L 4897 0 
L 4281 0 
L 4281 4097 
L 3078 897 
L 2444 897 
L 1241 4097 
L 1241 0 
L 628 0 
L 628 4666 
z
" transform="scale(0.015625)"/>
     </defs>
     <use xlink:href="#DejaVuSans-4d"/>
     <use xlink:href="#DejaVuSans-20" x="86.279297"/>
     <use xlink:href="#DejaVuSans-5b" x="118.066406"/>
     <use xlink:href="#DejaVuSans-31" x="157.080078"/>
     <use xlink:href="#DejaVuSans-32" x="220.703125"/>
     <use xlink:href="#DejaVuSans-5d" x="284.326172"/>
    </g>
   </g>
   <g id="text_12">
    <!-- N [16] -->
    <g transform="translate(16.139502 213.962514) scale(0.1 -0.1)">
     <defs>
      <path id="DejaVuSans-4e" d="M 628 4666 
L 1478 4666 
L 3547 763 
L 3547 4666 
L 4159 4666 
L 4159 0 
L 3309 0 
L 1241 3903 
L 1241 0 
L 628 0 
L 628 4666 
z
" transform="scale(0.015625)"/>
     </defs>
     <use xlink:href="#DejaVuSans-4e"/>
     <use xlink:href="#DejaVuSans-20" x="74.804688"/>
     <use xlink:href="#DejaVuSans-5b" x="106.591797"/>
     <use xlink:href="#DejaVuSans-31" x="145.605469"/>
     <use xlink:href="#DejaVuSans-36" x="209.228516"/>
     <use xlink:href="#DejaVuSans-5d" x="272.851562"/>
    </g>
   </g>
   <g id="text_13">
    <!-- P [20] -->
    <g transform="translate(32.524573 239.260529) scale(0.1 -0.1)">
     <defs>
      <path id="DejaVuSans-50" d="M 1259 4147 
L 1259 2394 
L 2053 2394 
Q 2494 2394 2734 2622 
Q 2975 2850 2975 3272 
Q 2975 3691 2734 3919 
Q 2494 4147 2053 4147 
L 1259 4147 
z
M 628 4666 
L 2053 4666 
Q 2838 4666 3239 4311 
Q 3641 3956 3641 3272 
Q 3641 2581 3239 2228 
Q 2838 1875 2053 1875 
L 1259 1875 
L 1259 0 
L 628 0 
L 628 4666 
z
" transform="scale(0.015625)"/>
     </defs>
     <use xlink:href="#DejaVuSans-50"/>
     <use xlink:href="#DejaVuSans-20" x="60.302734"/>
     <use xlink:href="#DejaVuSans-5b" x="92.089844"/>
     <use xlink:href="#DejaVuSans-32" x="131.103516"/>
     <use xlink:href="#DejaVuSans-30" x="194.726562"/>
     <use xlink:href="#DejaVuSans-5d" x="258.349609"/>
    </g>
   </g>
   <g id="text_14">
    <!-- Q [15] -->
    <g transform="translate(49.922004 260.372613) scale(0.1 -0.1)">
     <defs>
      <path id="DejaVuSans-51" d="M 2522 4238 
Q 1834 4238 1429 3725 
Q 1025 3213 1025 2328 
Q 1025 1447 1429 934 
Q 1834 422 2522 422 
Q 3209 422 3611 934 
Q 4013 1447 4013 2328 
Q 4013 3213 3611 3725 
Q 3209 4238 2522 4238 
z
M 3406 84 
L 4238 -825 
L 3475 -825 
L 2784 -78 
Q 2681 -84 2626 -87 
Q 2572 -91 2522 -91 
Q 1538 -91 948 567 
Q 359 1225 359 2328 
Q 359 3434 948 4092 
Q 1538 4750 2522 4750 
Q 3503 4750 4090 4092 
Q 4678 3434 4678 2328 
Q 4678 1516 4351 937 
Q 4025 359 3406 84 
z
" transform="scale(0.015625)"/>
      <path id="DejaVuSans-35" d="M 691 4666 
L 3169 4666 
L 3169 4134 
L 1269 4134 
L 1269 2991 
Q 1406 3038 1543 3061 
Q 1681 3084 1819 3084 
Q 2600 3084 3056 2656 
Q 3513 2228 3513 1497 
Q 3513 744 3044 326 
Q 2575 -91 1722 -91 
Q 1428 -91 1123 -41 
Q 819 9 494 109 
L 494 744 
Q 775 591 1075 516 
Q 1375 441 1709 441 
Q 2250 441 2565 725 
Q 2881 1009 2881 1497 
Q 2881 1984 2565 2268 
Q 2250 2553 1709 2553 
Q 1456 2553 1204 2497 
Q 953 2441 691 2322 
L 691 4666 
z
" transform="scale(0.015625)"/>
     </defs>
     <use xlink:href="#DejaVuSans-51"/>
     <use xlink:href="#DejaVuSans-20" x="78.710938"/>
     <use xlink:href="#DejaVuSans-5b" x="110.498047"/>
     <use xlink:href="#DejaVuSans-31" x="149.511719"/>
     <use xlink:href="#DejaVuSans-35" x="213.134766"/>
     <use xlink:href="#DejaVuSans-5d" x="276.757812"/>
    </g>
   </g>
   <g id="text_15">
    <!-- R [27] -->
    <g transform="translate(78.946041 279.954615) scale(0.1 -0.1)">
     <defs>
      <path id="DejaVuSans-52" d="M 2841 2188 
Q 3044 2119 3236 1894 
Q 3428 1669 3622 1275 
L 4263 0 
L 3584 0 
L 2988 1197 
Q 2756 1666 2539 1819 
Q 2322 1972 1947 1972 
L 1259 1972 
L 1259 0 
L 628 0 
L 628 4666 
L 2053 4666 
Q 2853 4666 3247 4331 
Q 3641 3997 3641 3322 
Q 3641 2881 3436 2590 
Q 3231 2300 2841 2188 
z
M 1259 4147 
L 1259 2491 
L 2053 2491 
Q 2509 2491 2742 2702 
Q 2975 2913 2975 3322 
Q 2975 3731 2742 3939 
Q 2509 4147 2053 4147 
L 1259 4147 
z
" transform="scale(0.015625)"/>
      <path id="DejaVuSans-37" d="M 525 4666 
L 3525 4666 
L 3525 4397 
L 1831 0 
L 1172 0 
L 2766 4134 
L 525 4134 
L 525 4666 
z
" transform="scale(0.015625)"/>
     </defs>
     <use xlink:href="#DejaVuSans-52"/>
     <use xlink:href="#DejaVuSans-20" x="69.482422"/>
     <use xlink:href="#DejaVuSans-5b" x="101.269531"/>
     <use xlink:href="#DejaVuSans-32" x="140.283203"/>
     <use xlink:href="#DejaVuSans-37" x="203.90625"/>
     <use xlink:href="#DejaVuSans-5d" x="267.529297"/>
    </g>
   </g>
   <g id="text_16">
    <!-- S [50] -->
    <g transform="translate(139.814365 296.228334) scale(0.1 -0.1)">
     <defs>
      <path id="DejaVuSans-53" d="M 3425 4513 
L 3425 3897 
Q 3066 4069 2747 4153 
Q 2428 4238 2131 4238 
Q 1616 4238 1336 4038 
Q 1056 3838 1056 3469 
Q 1056 3159 1242 3001 
Q 1428 2844 1947 2747 
L 2328 2669 
Q 3034 2534 3370 2195 
Q 3706 1856 3706 1288 
Q 3706 609 3251 259 
Q 2797 -91 1919 -91 
Q 1588 -91 1214 -16 
Q 841 59 441 206 
L 441 856 
Q 825 641 1194 531 
Q 1563 422 1919 422 
Q 2459 422 2753 634 
Q 3047 847 3047 1241 
Q 3047 1584 2836 1778 
Q 2625 1972 2144 2069 
L 1759 2144 
Q 1053 2284 737 2584 
Q 422 2884 422 3419 
Q 422 4038 858 4394 
Q 1294 4750 2059 4750 
Q 2388 4750 2728 4690 
Q 3069 4631 3425 4513 
z
" transform="scale(0.015625)"/>
     </defs>
     <use xlink:href="#DejaVuSans-53"/>
     <use xlink:href="#DejaVuSans-20" x="63.476562"/>
     <use xlink:href="#DejaVuSans-5b" x="95.263672"/>
     <use xlink:href="#DejaVuSans-35" x="134.277344"/>
     <use xlink:href="#DejaVuSans-30" x="197.900391"/>
     <use xlink:href="#DejaVuSans-5d" x="261.523438"/>
    </g>
   </g>
   <g id="text_17">
    <!-- T [37] -->
    <g transform="translate(238.671821 281.450951) scale(0.1 -0.1)">
     <defs>
      <path id="DejaVuSans-54" d="M -19 4666 
L 3928 4666 
L 3928 4134 
L 2272 4134 
L 2272 0 
L 1638 0 
L 1638 4134 
L -19 4134 
L -19 4666 
z
" transform="scale(0.015625)"/>
     </defs>
     <use xlink:href="#DejaVuSans-54"/>
     <use xlink:href="#DejaVuSans-20" x="61.083984"/>
     <use xlink:href="#DejaVuSans-5b" x="92.871094"/>
     <use xlink:href="#DejaVuSans-33" x="131.884766"/>
     <use xlink:href="#DejaVuSans-37" x="195.507812"/>
     <use xlink:href="#DejaVuSans-5d" x="259.130859"/>
    </g>
   </g>
   <g id="text_18">
    <!-- V [48] -->
    <g transform="translate(290.835429 236.610634) scale(0.1 -0.1)">
     <defs>
      <path id="DejaVuSans-56" d="M 1831 0 
L 50 4666 
L 709 4666 
L 2188 738 
L 3669 4666 
L 4325 4666 
L 2547 0 
L 1831 0 
z
" transform="scale(0.015625)"/>
     </defs>
     <use xlink:href="#DejaVuSans-56"/>
     <use xlink:href="#DejaVuSans-20" x="68.408203"/>
     <use xlink:href="#DejaVuSans-5b" x="100.195312"/>
     <use xlink:href="#DejaVuSans-34" x="139.208984"/>
     <use xlink:href="#DejaVuSans-38" x="202.832031"/>
     <use xlink:href="#DejaVuSans-5d" x="266.455078"/>
    </g>
   </g>
   <g id="text_19">
    <!-- W [13] -->
    <g transform="translate(311.858786 191.677097) scale(0.1 -0.1)">
     <defs>
      <path id="DejaVuSans-57" d="M 213 4666 
L 850 4666 
L 1831 722 
L 2809 4666 
L 3519 4666 
L 4500 722 
L 5478 4666 
L 6119 4666 
L 4947 0 
L 4153 0 
L 3169 4050 
L 2175 0 
L 1381 0 
L 213 4666 
z
" transform="scale(0.015625)"/>
     </defs>
     <use xlink:href="#DejaVuSans-57"/>
     <use xlink:href="#DejaVuSans-20" x="98.876953"/>
     <use xlink:href="#DejaVuSans-5b" x="130.664062"/>
     <use xlink:href="#DejaVuSans-31" x="169.677734"/>
     <use xlink:href="#DejaVuSans-33" x="233.300781"/>
     <use xlink:href="#DejaVuSans-5d" x="296.923828"/>
    </g>
   </g>
   <g id="text_20">
    <!-- Y [16] -->
    <g transform="translate(316.023291 168.366403) scale(0.1 -0.1)">
     <defs>
      <path id="DejaVuSans-59" d="M -13 4666 
L 666 4666 
L 1959 2747 
L 3244 4666 
L 3922 4666 
L 2272 2222 
L 2272 0 
L 1638 0 
L 1638 2222 
L -13 4666 
z
" transform="scale(0.015625)"/>
     </defs>
     <use xlink:href="#DejaVuSans-59"/>
     <use xlink:href="#DejaVuSans-20" x="61.083984"/>
     <use xlink:href="#DejaVuSans-5b" x="92.871094"/>
     <use xlink:href="#DejaVuSans-31" x="131.884766"/>
     <use xlink:href="#DejaVuSans-36" x="195.507812"/>
     <use xlink:href="#DejaVuSans-5d" x="259.130859"/>
    </g>
   </g>
   <g id="text_21">
    <!-- A0A452FHE0 [542] -->
    <g transform="translate(118.49815 152.545676) scale(0.12 -0.12)">
     <use xlink:href="#DejaVuSans-41"/>
     <use xlink:href="#DejaVuSans-30" x="68.408203"/>
     <use xlink:href="#DejaVuSans-41" x="132.03125"/>
     <use xlink:href="#DejaVuSans-34" x="200.439453"/>
     <use xlink:href="#DejaVuSans-35" x="264.0625"/>
     <use xlink:href="#DejaVuSans-32" x="327.685547"/>
     <use xlink:href="#DejaVuSans-46" x="391.308594"/>
     <use xlink:href="#DejaVuSans-48" x="448.828125"/>
     <use xlink:href="#DejaVuSans-45" x="524.023438"/>
     <use xlink:href="#DejaVuSans-30" x="587.207031"/>
     <use xlink:href="#DejaVuSans-20" x="650.830078"/>
     <use xlink:href="#DejaVuSans-5b" x="682.617188"/>
     <use xlink:href="#DejaVuSans-35" x="721.630859"/>
     <use xlink:href="#DejaVuSans-34" x="785.253906"/>
     <use xlink:href="#DejaVuSans-32" x="848.876953"/>
     <use xlink:href="#DejaVuSans-5d" x="912.5"/>
    </g>
   </g>
  </g>
 </g>
</svg>
