<?xml version="1.0" encoding="utf-8" standalone="no"?>
<!DOCTYPE svg PUBLIC "-//W3C//DTD SVG 1.1//EN"
  "http://www.w3.org/Graphics/SVG/1.1/DTD/svg11.dtd">
<svg xmlns:xlink="http://www.w3.org/1999/xlink" width="352.567326pt" height="303.948639pt" viewBox="0 0 352.567326 303.948639" xmlns="http://www.w3.org/2000/svg" version="1.1">
 <metadata>
  <rdf:RDF xmlns:dc="http://purl.org/dc/elements/1.1/" xmlns:cc="http://creativecommons.org/ns#" xmlns:rdf="http://www.w3.org/1999/02/22-rdf-syntax-ns#">
   <cc:Work>
    <dc:type rdf:resource="http://purl.org/dc/dcmitype/StillImage"/>
    <dc:date>2024-09-27T16:07:33.520708</dc:date>
    <dc:format>image/svg+xml</dc:format>
    <dc:creator>
     <cc:Agent>
      <dc:title>Matplotlib v3.8.3, https://matplotlib.org/</dc:title>
     </cc:Agent>
    </dc:creator>
   </cc:Work>
  </rdf:RDF>
 </metadata>
 <defs>
  <style type="text/css">*{stroke-linejoin: round; stroke-linecap: butt}</style>
 </defs>
 <g id="figure_1">
  <g id="patch_1">
   <path d="M -0 303.948639 
L 352.567326 303.948639 
L 352.567326 0 
L -0 0 
z
" style="fill: #ffffff"/>
  </g>
  <g id="axes_1">
   <g id="patch_2">
    <path d="M 303.814649 151.43101 
C 303.814649 133.940732 300.222296 116.635403 293.260791 100.59024 
C 286.299287 84.545077 276.115857 70.099414 263.343221 58.150793 
L 176.080889 151.43101 
z
" style="fill: #1f77b4"/>
   </g>
   <g id="patch_3">
    <path d="M 263.167804 57.932051 
C 259.318466 54.331049 255.249915 50.97177 250.985496 47.873488 
C 246.721077 44.775206 242.268962 41.943858 237.654695 39.39569 
L 175.905473 151.212268 
z
" style="fill: #ff7f0e"/>
   </g>
   <g id="patch_4">
    <path d="M 237.567554 39.344267 
C 235.083511 37.972488 232.554446 36.683864 229.984569 35.480543 
C 227.414692 34.277222 224.80543 33.159871 222.161128 32.13035 
L 175.818332 151.160845 
z
" style="fill: #aec7e8"/>
   </g>
   <g id="patch_5">
    <path d="M 222.114289 32.111079 
C 220.981102 31.669889 219.841673 31.244904 218.696349 30.836253 
C 217.551026 30.427603 216.399925 30.035329 215.243399 29.659551 
L 175.771493 151.141574 
z
" style="fill: #ffbb78"/>
   </g>
   <g id="patch_6">
    <path d="M 215.170241 29.639199 
C 210.542959 28.135704 205.833551 26.897818 201.065045 25.931593 
C 196.29654 24.965368 191.476721 24.272383 186.629157 23.856025 
L 175.698334 151.121223 
z
" style="fill: #98df8a"/>
   </g>
   <g id="patch_7">
    <path d="M 186.447719 23.850842 
C 176.744695 23.017448 166.978114 23.296456 157.338493 24.682424 
C 147.698871 26.068392 138.249299 28.552248 129.17411 32.085541 
L 175.516896 151.116039 
z
" style="fill: #2ca02c"/>
   </g>
   <g id="patch_8">
    <path d="M 129.02876 32.128219 
C 126.76227 33.010644 124.521447 33.957624 122.30903 34.968 
C 120.096614 35.978377 117.913507 37.051738 115.76238 38.186771 
L 175.371545 151.158718 
z
" style="fill: #d62728"/>
   </g>
   <g id="patch_9">
    <path d="M 115.678895 38.234443 
C 111.01695 40.694298 106.511736 43.440369 102.189102 46.4569 
C 97.866468 49.47343 93.734697 52.75464 89.817498 56.281702 
L 175.28806 151.20639 
z
" style="fill: #9467bd"/>
   </g>
   <g id="patch_10">
    <path d="M 89.75115 56.336483 
C 88.546206 57.42142 87.362028 58.529201 86.199262 59.659224 
C 85.036495 60.789247 83.895351 61.941307 82.776448 63.114779 
L 175.221712 151.261171 
z
" style="fill: #ff9896"/>
   </g>
   <g id="patch_11">
    <path d="M 82.639657 63.336813 
C 69.155096 77.479012 59.093826 94.528712 53.232638 113.169571 
C 47.371451 131.810431 45.86517 151.550049 48.83009 170.864407 
L 175.084921 151.483206 
z
" style="fill: #c5b0d5"/>
   </g>
   <g id="patch_12">
    <path d="M 48.82438 171.164242 
C 49.562615 175.973322 50.575016 180.736296 51.856633 185.429876 
C 53.13825 190.123456 54.68699 194.73998 56.49528 199.256872 
L 175.079212 151.783041 
z
" style="fill: #c49c94"/>
   </g>
   <g id="patch_13">
    <path d="M 56.533348 199.356042 
C 57.889405 202.743309 59.389971 206.070919 61.030919 209.329716 
C 62.671867 212.588513 64.451689 215.775506 66.365489 218.881924 
L 175.117279 151.882211 
z
" style="fill: #8c564b"/>
   </g>
   <g id="patch_14">
    <path d="M 66.441957 218.994906 
C 70.271312 225.210591 74.626511 231.086551 79.459692 236.558211 
C 84.292873 242.02987 89.586267 247.077112 95.2817 251.644468 
L 175.193747 151.995192 
z
" style="fill: #e377c2"/>
   </g>
   <g id="patch_15">
    <path d="M 95.376013 251.728578 
C 97.589755 253.503851 99.86204 255.204863 102.189085 256.828781 
C 104.51613 258.452699 106.896643 259.998623 109.32666 261.463977 
L 175.28806 152.079302 
z
" style="fill: #7f7f7f"/>
   </g>
   <g id="patch_16">
    <path d="M 109.405546 261.509523 
C 113.224664 263.812536 117.161776 265.913955 121.200703 267.805146 
C 125.239629 269.696336 129.374831 271.374704 133.589315 272.833352 
L 175.366946 152.124847 
z
" style="fill: #f7b6d2"/>
   </g>
   <g id="patch_17">
    <path d="M 133.759375 272.880659 
C 142.9625 276.065892 152.499783 278.188197 162.185181 279.206174 
C 171.870579 280.224152 181.640702 280.131138 191.304963 278.928949 
L 175.537007 152.172155 
z
" style="fill: #c7c7c7"/>
   </g>
   <g id="patch_18">
    <path d="M 191.529873 278.904227 
C 199.983954 277.852579 208.311657 275.957793 216.388507 273.248191 
C 224.465356 270.538589 232.250907 267.027739 239.628785 262.768121 
L 175.761917 152.147433 
z
" style="fill: #dbdb8d"/>
   </g>
   <g id="patch_19">
    <path d="M 239.861735 262.612067 
C 252.176326 255.502237 263.217694 246.385715 272.529594 235.639212 
C 281.841494 224.892709 289.293874 212.666311 294.57879 199.465232 
L 175.994867 151.991379 
z
" style="fill: #bcbd22"/>
   </g>
   <g id="patch_20">
    <path d="M 294.682737 199.281166 
C 295.737384 196.646784 296.703954 193.97799 297.580836 191.279226 
C 298.457717 188.580462 299.244425 185.853226 299.939648 183.102061 
L 176.098814 151.807312 
z
" style="fill: #17becf"/>
   </g>
   <g id="patch_21">
    <path d="M 299.961626 183.003294 
C 301.253048 177.892829 302.226896 172.707323 302.877584 167.476527 
C 303.528272 162.245731 303.854552 156.979669 303.854552 151.708557 
L 176.120792 151.708546 
z
" style="fill: #9edae5"/>
   </g>
   <g id="patch_22">
    <path d="M 250.103999 151.642846 
C 250.103999 141.440184 248.00846 131.345409 243.947582 121.985731 
C 239.886705 112.626052 233.946371 104.199416 226.495666 97.229386 
L 175.592639 151.642846 
z
" style="fill: #ffffff"/>
   </g>
   <g id="patch_23">
    <path d="M 226.495666 97.229386 
C 224.250219 95.128802 221.876897 93.169222 219.38932 91.361891 
C 216.901742 89.55456 214.304674 87.90294 211.613019 86.416509 
L 175.592639 151.642846 
z
" style="fill: #ffffff"/>
   </g>
   <g id="patch_24">
    <path d="M 211.613019 86.416509 
C 210.163994 85.616304 208.688706 84.864608 207.189611 84.16267 
C 205.690516 83.460733 204.168447 82.808945 202.625937 82.208391 
L 175.592639 151.642846 
z
" style="fill: #ffffff"/>
   </g>
   <g id="patch_25">
    <path d="M 202.625937 82.208391 
C 201.964911 81.95103 201.300244 81.703122 200.632139 81.464743 
C 199.964033 81.226363 199.292558 80.997536 198.617918 80.778332 
L 175.592639 151.642846 
z
" style="fill: #ffffff"/>
   </g>
   <g id="patch_26">
    <path d="M 198.617918 80.778332 
C 195.91867 79.901294 193.171516 79.179193 190.389888 78.615562 
C 187.608259 78.051931 184.796698 77.64769 181.968952 77.404814 
L 175.592639 151.642846 
z
" style="fill: #ffffff"/>
   </g>
   <g id="patch_27">
    <path d="M 181.968952 77.404814 
C 176.308855 76.918668 170.611683 77.081423 164.988571 77.889904 
C 159.365458 78.698385 153.853208 80.147301 148.559347 82.208388 
L 175.592639 151.642846 
z
" style="fill: #ffffff"/>
   </g>
   <g id="patch_28">
    <path d="M 148.559347 82.208388 
C 147.237229 82.723136 145.930082 83.275541 144.639505 83.864927 
C 143.348929 84.454314 142.07545 85.080441 140.820626 85.742544 
L 175.592639 151.642846 
z
" style="fill: #ffffff"/>
   </g>
   <g id="patch_29">
    <path d="M 140.820626 85.742544 
C 138.101158 87.177459 135.473116 88.779334 132.95158 90.538977 
C 130.430044 92.29862 128.019844 94.212659 125.734811 96.270111 
L 175.592639 151.642846 
z
" style="fill: #ffffff"/>
   </g>
   <g id="patch_30">
    <path d="M 125.734811 96.270111 
C 125.031927 96.902991 124.341157 97.549197 123.662876 98.208377 
C 122.984596 98.867557 122.318928 99.539592 121.666235 100.224117 
L 175.592639 151.642846 
z
" style="fill: #ffffff"/>
   </g>
   <g id="patch_31">
    <path d="M 121.666235 100.224117 
C 113.800241 108.473733 107.931167 118.419391 104.512141 129.293226 
C 101.093115 140.167061 100.214451 151.681838 101.943987 162.948547 
L 175.592639 151.642846 
z
" style="fill: #ffffff"/>
   </g>
   <g id="patch_32">
    <path d="M 101.943987 162.948547 
C 102.374624 165.753843 102.965192 168.532245 103.712801 171.270167 
C 104.460411 174.008088 105.363843 176.70106 106.418679 179.335914 
L 175.592639 151.642846 
z
" style="fill: #ffffff"/>
   </g>
   <g id="patch_33">
    <path d="M 106.418679 179.335914 
C 107.209712 181.31182 108.085043 183.252926 109.042262 185.153891 
C 109.999482 187.054856 111.037712 188.913935 112.154095 190.726012 
L 175.592639 151.642846 
z
" style="fill: #ffffff"/>
   </g>
   <g id="patch_34">
    <path d="M 112.154095 190.726012 
C 114.387885 194.351829 116.928418 197.779472 119.747774 200.971274 
C 122.567129 204.163075 125.654942 207.107299 128.977278 209.77159 
L 175.592639 151.642846 
z
" style="fill: #ffffff"/>
   </g>
   <g id="patch_35">
    <path d="M 128.977278 209.77159 
C 130.268628 210.807166 131.594127 211.799423 132.95157 212.746709 
C 134.309013 213.693994 135.697646 214.595783 137.115156 215.450573 
L 175.592639 151.642846 
z
" style="fill: #ffffff"/>
   </g>
   <g id="patch_36">
    <path d="M 137.115156 215.450573 
C 139.342975 216.793998 141.639623 218.019826 143.995664 219.12302 
C 146.351704 220.226215 148.763905 221.205262 151.222354 222.05614 
L 175.592639 151.642846 
z
" style="fill: #ffffff"/>
   </g>
   <g id="patch_37">
    <path d="M 151.222354 222.05614 
C 156.590844 223.914193 162.154259 225.152204 167.804074 225.746024 
C 173.45389 226.339844 179.153128 226.285587 184.790614 225.58431 
L 175.592639 151.642846 
z
" style="fill: #ffffff"/>
   </g>
   <g id="patch_38">
    <path d="M 184.790614 225.58431 
C 189.722161 224.970848 194.579988 223.865556 199.291483 222.284955 
C 204.002979 220.704354 208.54455 218.656358 212.848312 216.171581 
L 175.592639 151.642846 
z
" style="fill: #ffffff"/>
   </g>
   <g id="patch_39">
    <path d="M 212.848312 216.171581 
C 220.031823 212.02418 226.472621 206.706209 231.904563 200.437416 
C 237.336505 194.168622 241.683726 187.036556 244.766594 179.335927 
L 175.592639 151.642846 
z
" style="fill: #ffffff"/>
   </g>
   <g id="patch_40">
    <path d="M 244.766594 179.335927 
C 245.381805 177.799205 245.945637 176.242408 246.457152 174.668129 
C 246.968666 173.09385 247.427579 171.502963 247.833126 169.898116 
L 175.592639 151.642846 
z
" style="fill: #ffffff"/>
   </g>
   <g id="patch_41">
    <path d="M 247.833126 169.898116 
C 248.586455 166.917011 249.154533 163.892132 249.534101 160.840835 
C 249.913669 157.789537 250.103999 154.717668 250.103999 151.642853 
L 175.592639 151.642846 
z
" style="fill: #ffffff"/>
   </g>
   <g id="matplotlib.axis_1"/>
   <g id="matplotlib.axis_2"/>
   <g id="text_1">
    <!-- A [43] -->
    <g transform="translate(304.978782 98.265538) scale(0.1 -0.1)">
     <defs>
      <path id="DejaVuSans-41" d="M 2188 4044 
L 1331 1722 
L 3047 1722 
L 2188 4044 
z
M 1831 4666 
L 2547 4666 
L 4325 0 
L 3669 0 
L 3244 1197 
L 1141 1197 
L 716 0 
L 50 0 
L 1831 4666 
z
" transform="scale(0.015625)"/>
      <path id="DejaVuSans-20" transform="scale(0.015625)"/>
      <path id="DejaVuSans-5b" d="M 550 4863 
L 1875 4863 
L 1875 4416 
L 1125 4416 
L 1125 -397 
L 1875 -397 
L 1875 -844 
L 550 -844 
L 550 4863 
z
" transform="scale(0.015625)"/>
      <path id="DejaVuSans-34" d="M 2419 4116 
L 825 1625 
L 2419 1625 
L 2419 4116 
z
M 2253 4666 
L 3047 4666 
L 3047 1625 
L 3713 1625 
L 3713 1100 
L 3047 1100 
L 3047 0 
L 2419 0 
L 2419 1100 
L 313 1100 
L 313 1709 
L 2253 4666 
z
" transform="scale(0.015625)"/>
      <path id="DejaVuSans-33" d="M 2597 2516 
Q 3050 2419 3304 2112 
Q 3559 1806 3559 1356 
Q 3559 666 3084 287 
Q 2609 -91 1734 -91 
Q 1441 -91 1130 -33 
Q 819 25 488 141 
L 488 750 
Q 750 597 1062 519 
Q 1375 441 1716 441 
Q 2309 441 2620 675 
Q 2931 909 2931 1356 
Q 2931 1769 2642 2001 
Q 2353 2234 1838 2234 
L 1294 2234 
L 1294 2753 
L 1863 2753 
Q 2328 2753 2575 2939 
Q 2822 3125 2822 3475 
Q 2822 3834 2567 4026 
Q 2313 4219 1838 4219 
Q 1578 4219 1281 4162 
Q 984 4106 628 3988 
L 628 4550 
Q 988 4650 1302 4700 
Q 1616 4750 1894 4750 
Q 2613 4750 3031 4423 
Q 3450 4097 3450 3541 
Q 3450 3153 3228 2886 
Q 3006 2619 2597 2516 
z
" transform="scale(0.015625)"/>
      <path id="DejaVuSans-5d" d="M 1947 4863 
L 1947 -844 
L 622 -844 
L 622 -397 
L 1369 -397 
L 1369 4416 
L 622 4416 
L 622 4863 
L 1947 4863 
z
" transform="scale(0.015625)"/>
     </defs>
     <use xlink:href="#DejaVuSans-41"/>
     <use xlink:href="#DejaVuSans-20" x="68.408203"/>
     <use xlink:href="#DejaVuSans-5b" x="100.195312"/>
     <use xlink:href="#DejaVuSans-34" x="139.208984"/>
     <use xlink:href="#DejaVuSans-33" x="202.832031"/>
     <use xlink:href="#DejaVuSans-5d" x="266.455078"/>
    </g>
   </g>
   <g id="text_2">
    <!-- C [13] -->
    <g transform="translate(258.493499 40.298985) scale(0.1 -0.1)">
     <defs>
      <path id="DejaVuSans-43" d="M 4122 4306 
L 4122 3641 
Q 3803 3938 3442 4084 
Q 3081 4231 2675 4231 
Q 1875 4231 1450 3742 
Q 1025 3253 1025 2328 
Q 1025 1406 1450 917 
Q 1875 428 2675 428 
Q 3081 428 3442 575 
Q 3803 722 4122 1019 
L 4122 359 
Q 3791 134 3420 21 
Q 3050 -91 2638 -91 
Q 1578 -91 968 557 
Q 359 1206 359 2328 
Q 359 3453 968 4101 
Q 1578 4750 2638 4750 
Q 3056 4750 3426 4639 
Q 3797 4528 4122 4306 
z
" transform="scale(0.015625)"/>
      <path id="DejaVuSans-31" d="M 794 531 
L 1825 531 
L 1825 4091 
L 703 3866 
L 703 4441 
L 1819 4666 
L 2450 4666 
L 2450 531 
L 3481 531 
L 3481 0 
L 794 0 
L 794 531 
z
" transform="scale(0.015625)"/>
     </defs>
     <use xlink:href="#DejaVuSans-43"/>
     <use xlink:href="#DejaVuSans-20" x="69.824219"/>
     <use xlink:href="#DejaVuSans-5b" x="101.611328"/>
     <use xlink:href="#DejaVuSans-31" x="140.625"/>
     <use xlink:href="#DejaVuSans-33" x="204.248047"/>
     <use xlink:href="#DejaVuSans-5d" x="267.871094"/>
    </g>
   </g>
   <g id="text_3">
    <!-- D [7] -->
    <g transform="translate(235.401193 26.671888) scale(0.1 -0.1)">
     <defs>
      <path id="DejaVuSans-44" d="M 1259 4147 
L 1259 519 
L 2022 519 
Q 2988 519 3436 956 
Q 3884 1394 3884 2338 
Q 3884 3275 3436 3711 
Q 2988 4147 2022 4147 
L 1259 4147 
z
M 628 4666 
L 1925 4666 
Q 3281 4666 3915 4102 
Q 4550 3538 4550 2338 
Q 4550 1131 3912 565 
Q 3275 0 1925 0 
L 628 0 
L 628 4666 
z
" transform="scale(0.015625)"/>
      <path id="DejaVuSans-37" d="M 525 4666 
L 3525 4666 
L 3525 4397 
L 1831 0 
L 1172 0 
L 2766 4134 
L 525 4134 
L 525 4666 
z
" transform="scale(0.015625)"/>
     </defs>
     <use xlink:href="#DejaVuSans-44"/>
     <use xlink:href="#DejaVuSans-20" x="77.001953"/>
     <use xlink:href="#DejaVuSans-5b" x="108.789062"/>
     <use xlink:href="#DejaVuSans-37" x="147.802734"/>
     <use xlink:href="#DejaVuSans-5d" x="211.425781"/>
    </g>
   </g>
   <g id="text_4">
    <!-- E [3] -->
    <g transform="translate(222.988835 21.565096) scale(0.1 -0.1)">
     <defs>
      <path id="DejaVuSans-45" d="M 628 4666 
L 3578 4666 
L 3578 4134 
L 1259 4134 
L 1259 2753 
L 3481 2753 
L 3481 2222 
L 1259 2222 
L 1259 531 
L 3634 531 
L 3634 0 
L 628 0 
L 628 4666 
z
" transform="scale(0.015625)"/>
     </defs>
     <use xlink:href="#DejaVuSans-45"/>
     <use xlink:href="#DejaVuSans-20" x="63.183594"/>
     <use xlink:href="#DejaVuSans-5b" x="94.970703"/>
     <use xlink:href="#DejaVuSans-33" x="133.984375"/>
     <use xlink:href="#DejaVuSans-5d" x="197.607422"/>
    </g>
   </g>
   <g id="text_5">
    <!-- F [12] -->
    <g transform="translate(203.601717 16.172005) scale(0.1 -0.1)">
     <defs>
      <path id="DejaVuSans-46" d="M 628 4666 
L 3309 4666 
L 3309 4134 
L 1259 4134 
L 1259 2759 
L 3109 2759 
L 3109 2228 
L 1259 2228 
L 1259 0 
L 628 0 
L 628 4666 
z
" transform="scale(0.015625)"/>
      <path id="DejaVuSans-32" d="M 1228 531 
L 3431 531 
L 3431 0 
L 469 0 
L 469 531 
Q 828 903 1448 1529 
Q 2069 2156 2228 2338 
Q 2531 2678 2651 2914 
Q 2772 3150 2772 3378 
Q 2772 3750 2511 3984 
Q 2250 4219 1831 4219 
Q 1534 4219 1204 4116 
Q 875 4013 500 3803 
L 500 4441 
Q 881 4594 1212 4672 
Q 1544 4750 1819 4750 
Q 2544 4750 2975 4387 
Q 3406 4025 3406 3419 
Q 3406 3131 3298 2873 
Q 3191 2616 2906 2266 
Q 2828 2175 2409 1742 
Q 1991 1309 1228 531 
z
" transform="scale(0.015625)"/>
     </defs>
     <use xlink:href="#DejaVuSans-46"/>
     <use xlink:href="#DejaVuSans-20" x="57.519531"/>
     <use xlink:href="#DejaVuSans-5b" x="89.306641"/>
     <use xlink:href="#DejaVuSans-31" x="128.320312"/>
     <use xlink:href="#DejaVuSans-32" x="191.943359"/>
     <use xlink:href="#DejaVuSans-5d" x="255.566406"/>
    </g>
   </g>
   <g id="text_6">
    <!-- G [24] -->
    <g transform="translate(124.065965 14.798437) scale(0.1 -0.1)">
     <defs>
      <path id="DejaVuSans-47" d="M 3809 666 
L 3809 1919 
L 2778 1919 
L 2778 2438 
L 4434 2438 
L 4434 434 
Q 4069 175 3628 42 
Q 3188 -91 2688 -91 
Q 1594 -91 976 548 
Q 359 1188 359 2328 
Q 359 3472 976 4111 
Q 1594 4750 2688 4750 
Q 3144 4750 3555 4637 
Q 3966 4525 4313 4306 
L 4313 3634 
Q 3963 3931 3569 4081 
Q 3175 4231 2741 4231 
Q 1884 4231 1454 3753 
Q 1025 3275 1025 2328 
Q 1025 1384 1454 906 
Q 1884 428 2741 428 
Q 3075 428 3337 486 
Q 3600 544 3809 666 
z
" transform="scale(0.015625)"/>
     </defs>
     <use xlink:href="#DejaVuSans-47"/>
     <use xlink:href="#DejaVuSans-20" x="77.490234"/>
     <use xlink:href="#DejaVuSans-5b" x="109.277344"/>
     <use xlink:href="#DejaVuSans-32" x="148.291016"/>
     <use xlink:href="#DejaVuSans-34" x="211.914062"/>
     <use xlink:href="#DejaVuSans-5d" x="275.537109"/>
    </g>
   </g>
   <g id="text_7">
    <!-- H [6] -->
    <g transform="translate(92.138716 26.108303) scale(0.1 -0.1)">
     <defs>
      <path id="DejaVuSans-48" d="M 628 4666 
L 1259 4666 
L 1259 2753 
L 3553 2753 
L 3553 4666 
L 4184 4666 
L 4184 0 
L 3553 0 
L 3553 2222 
L 1259 2222 
L 1259 0 
L 628 0 
L 628 4666 
z
" transform="scale(0.015625)"/>
      <path id="DejaVuSans-36" d="M 2113 2584 
Q 1688 2584 1439 2293 
Q 1191 2003 1191 1497 
Q 1191 994 1439 701 
Q 1688 409 2113 409 
Q 2538 409 2786 701 
Q 3034 994 3034 1497 
Q 3034 2003 2786 2293 
Q 2538 2584 2113 2584 
z
M 3366 4563 
L 3366 3988 
Q 3128 4100 2886 4159 
Q 2644 4219 2406 4219 
Q 1781 4219 1451 3797 
Q 1122 3375 1075 2522 
Q 1259 2794 1537 2939 
Q 1816 3084 2150 3084 
Q 2853 3084 3261 2657 
Q 3669 2231 3669 1497 
Q 3669 778 3244 343 
Q 2819 -91 2113 -91 
Q 1303 -91 875 529 
Q 447 1150 447 2328 
Q 447 3434 972 4092 
Q 1497 4750 2381 4750 
Q 2619 4750 2861 4703 
Q 3103 4656 3366 4563 
z
" transform="scale(0.015625)"/>
     </defs>
     <use xlink:href="#DejaVuSans-48"/>
     <use xlink:href="#DejaVuSans-20" x="75.195312"/>
     <use xlink:href="#DejaVuSans-5b" x="106.982422"/>
     <use xlink:href="#DejaVuSans-36" x="145.996094"/>
     <use xlink:href="#DejaVuSans-5d" x="209.619141"/>
    </g>
   </g>
   <g id="text_8">
    <!-- I [13] -->
    <g transform="translate(68.222956 38.741326) scale(0.1 -0.1)">
     <defs>
      <path id="DejaVuSans-49" d="M 628 4666 
L 1259 4666 
L 1259 0 
L 628 0 
L 628 4666 
z
" transform="scale(0.015625)"/>
     </defs>
     <use xlink:href="#DejaVuSans-49"/>
     <use xlink:href="#DejaVuSans-20" x="29.492188"/>
     <use xlink:href="#DejaVuSans-5b" x="61.279297"/>
     <use xlink:href="#DejaVuSans-31" x="100.292969"/>
     <use xlink:href="#DejaVuSans-33" x="163.916016"/>
     <use xlink:href="#DejaVuSans-5d" x="227.539062"/>
    </g>
   </g>
   <g id="text_9">
    <!-- K [4] -->
    <g transform="translate(53.395454 53.258404) scale(0.1 -0.1)">
     <defs>
      <path id="DejaVuSans-4b" d="M 628 4666 
L 1259 4666 
L 1259 2694 
L 3353 4666 
L 4166 4666 
L 1850 2491 
L 4331 0 
L 3500 0 
L 1259 2247 
L 1259 0 
L 628 0 
L 628 4666 
z
" transform="scale(0.015625)"/>
     </defs>
     <use xlink:href="#DejaVuSans-4b"/>
     <use xlink:href="#DejaVuSans-20" x="65.576172"/>
     <use xlink:href="#DejaVuSans-5b" x="97.363281"/>
     <use xlink:href="#DejaVuSans-34" x="136.376953"/>
     <use xlink:href="#DejaVuSans-5d" x="200"/>
    </g>
   </g>
   <g id="text_10">
    <!-- L [48] -->
    <g transform="translate(11.769285 112.097583) scale(0.1 -0.1)">
     <defs>
      <path id="DejaVuSans-4c" d="M 628 4666 
L 1259 4666 
L 1259 531 
L 3531 531 
L 3531 0 
L 628 0 
L 628 4666 
z
" transform="scale(0.015625)"/>
      <path id="DejaVuSans-38" d="M 2034 2216 
Q 1584 2216 1326 1975 
Q 1069 1734 1069 1313 
Q 1069 891 1326 650 
Q 1584 409 2034 409 
Q 2484 409 2743 651 
Q 3003 894 3003 1313 
Q 3003 1734 2745 1975 
Q 2488 2216 2034 2216 
z
M 1403 2484 
Q 997 2584 770 2862 
Q 544 3141 544 3541 
Q 544 4100 942 4425 
Q 1341 4750 2034 4750 
Q 2731 4750 3128 4425 
Q 3525 4100 3525 3541 
Q 3525 3141 3298 2862 
Q 3072 2584 2669 2484 
Q 3125 2378 3379 2068 
Q 3634 1759 3634 1313 
Q 3634 634 3220 271 
Q 2806 -91 2034 -91 
Q 1263 -91 848 271 
Q 434 634 434 1313 
Q 434 1759 690 2068 
Q 947 2378 1403 2484 
z
M 1172 3481 
Q 1172 3119 1398 2916 
Q 1625 2713 2034 2713 
Q 2441 2713 2670 2916 
Q 2900 3119 2900 3481 
Q 2900 3844 2670 4047 
Q 2441 4250 2034 4250 
Q 1625 4250 1398 4047 
Q 1172 3844 1172 3481 
z
" transform="scale(0.015625)"/>
     </defs>
     <use xlink:href="#DejaVuSans-4c"/>
     <use xlink:href="#DejaVuSans-20" x="55.712891"/>
     <use xlink:href="#DejaVuSans-5b" x="87.5"/>
     <use xlink:href="#DejaVuSans-34" x="126.513672"/>
     <use xlink:href="#DejaVuSans-38" x="190.136719"/>
     <use xlink:href="#DejaVuSans-5d" x="253.759766"/>
    </g>
   </g>
   <g id="text_11">
    <!-- M [12] -->
    <g transform="translate(7.2 191.553935) scale(0.1 -0.1)">
     <defs>
      <path id="DejaVuSans-4d" d="M 628 4666 
L 1569 4666 
L 2759 1491 
L 3956 4666 
L 4897 4666 
L 4897 0 
L 4281 0 
L 4281 4097 
L 3078 897 
L 2444 897 
L 1241 4097 
L 1241 0 
L 628 0 
L 628 4666 
z
" transform="scale(0.015625)"/>
     </defs>
     <use xlink:href="#DejaVuSans-4d"/>
     <use xlink:href="#DejaVuSans-20" x="86.279297"/>
     <use xlink:href="#DejaVuSans-5b" x="118.066406"/>
     <use xlink:href="#DejaVuSans-31" x="157.080078"/>
     <use xlink:href="#DejaVuSans-32" x="220.703125"/>
     <use xlink:href="#DejaVuSans-5d" x="284.326172"/>
    </g>
   </g>
   <g id="text_12">
    <!-- N [9] -->
    <g transform="translate(24.797283 217.833842) scale(0.1 -0.1)">
     <defs>
      <path id="DejaVuSans-4e" d="M 628 4666 
L 1478 4666 
L 3547 763 
L 3547 4666 
L 4159 4666 
L 4159 0 
L 3309 0 
L 1241 3903 
L 1241 0 
L 628 0 
L 628 4666 
z
" transform="scale(0.015625)"/>
      <path id="DejaVuSans-39" d="M 703 97 
L 703 672 
Q 941 559 1184 500 
Q 1428 441 1663 441 
Q 2288 441 2617 861 
Q 2947 1281 2994 2138 
Q 2813 1869 2534 1725 
Q 2256 1581 1919 1581 
Q 1219 1581 811 2004 
Q 403 2428 403 3163 
Q 403 3881 828 4315 
Q 1253 4750 1959 4750 
Q 2769 4750 3195 4129 
Q 3622 3509 3622 2328 
Q 3622 1225 3098 567 
Q 2575 -91 1691 -91 
Q 1453 -91 1209 -44 
Q 966 3 703 97 
z
M 1959 2075 
Q 2384 2075 2632 2365 
Q 2881 2656 2881 3163 
Q 2881 3666 2632 3958 
Q 2384 4250 1959 4250 
Q 1534 4250 1286 3958 
Q 1038 3666 1038 3163 
Q 1038 2656 1286 2365 
Q 1534 2075 1959 2075 
z
" transform="scale(0.015625)"/>
     </defs>
     <use xlink:href="#DejaVuSans-4e"/>
     <use xlink:href="#DejaVuSans-20" x="74.804688"/>
     <use xlink:href="#DejaVuSans-5b" x="106.591797"/>
     <use xlink:href="#DejaVuSans-39" x="145.605469"/>
     <use xlink:href="#DejaVuSans-5d" x="209.228516"/>
    </g>
   </g>
   <g id="text_13">
    <!-- P [18] -->
    <g transform="translate(40.150349 247.773887) scale(0.1 -0.1)">
     <defs>
      <path id="DejaVuSans-50" d="M 1259 4147 
L 1259 2394 
L 2053 2394 
Q 2494 2394 2734 2622 
Q 2975 2850 2975 3272 
Q 2975 3691 2734 3919 
Q 2494 4147 2053 4147 
L 1259 4147 
z
M 628 4666 
L 2053 4666 
Q 2838 4666 3239 4311 
Q 3641 3956 3641 3272 
Q 3641 2581 3239 2228 
Q 2838 1875 2053 1875 
L 1259 1875 
L 1259 0 
L 628 0 
L 628 4666 
z
" transform="scale(0.015625)"/>
     </defs>
     <use xlink:href="#DejaVuSans-50"/>
     <use xlink:href="#DejaVuSans-20" x="60.302734"/>
     <use xlink:href="#DejaVuSans-5b" x="92.089844"/>
     <use xlink:href="#DejaVuSans-31" x="131.103516"/>
     <use xlink:href="#DejaVuSans-38" x="194.726562"/>
     <use xlink:href="#DejaVuSans-5d" x="258.349609"/>
    </g>
   </g>
   <g id="text_14">
    <!-- Q [7] -->
    <g transform="translate(69.663563 270.063104) scale(0.1 -0.1)">
     <defs>
      <path id="DejaVuSans-51" d="M 2522 4238 
Q 1834 4238 1429 3725 
Q 1025 3213 1025 2328 
Q 1025 1447 1429 934 
Q 1834 422 2522 422 
Q 3209 422 3611 934 
Q 4013 1447 4013 2328 
Q 4013 3213 3611 3725 
Q 3209 4238 2522 4238 
z
M 3406 84 
L 4238 -825 
L 3475 -825 
L 2784 -78 
Q 2681 -84 2626 -87 
Q 2572 -91 2522 -91 
Q 1538 -91 948 567 
Q 359 1225 359 2328 
Q 359 3434 948 4092 
Q 1538 4750 2522 4750 
Q 3503 4750 4090 4092 
Q 4678 3434 4678 2328 
Q 4678 1516 4351 937 
Q 4025 359 3406 84 
z
" transform="scale(0.015625)"/>
     </defs>
     <use xlink:href="#DejaVuSans-51"/>
     <use xlink:href="#DejaVuSans-20" x="78.710938"/>
     <use xlink:href="#DejaVuSans-5b" x="110.498047"/>
     <use xlink:href="#DejaVuSans-37" x="149.511719"/>
     <use xlink:href="#DejaVuSans-5d" x="213.134766"/>
    </g>
   </g>
   <g id="text_15">
    <!-- R [11] -->
    <g transform="translate(85.129391 282.132551) scale(0.1 -0.1)">
     <defs>
      <path id="DejaVuSans-52" d="M 2841 2188 
Q 3044 2119 3236 1894 
Q 3428 1669 3622 1275 
L 4263 0 
L 3584 0 
L 2988 1197 
Q 2756 1666 2539 1819 
Q 2322 1972 1947 1972 
L 1259 1972 
L 1259 0 
L 628 0 
L 628 4666 
L 2053 4666 
Q 2853 4666 3247 4331 
Q 3641 3997 3641 3322 
Q 3641 2881 3436 2590 
Q 3231 2300 2841 2188 
z
M 1259 4147 
L 1259 2491 
L 2053 2491 
Q 2509 2491 2742 2702 
Q 2975 2913 2975 3322 
Q 2975 3731 2742 3939 
Q 2509 4147 2053 4147 
L 1259 4147 
z
" transform="scale(0.015625)"/>
     </defs>
     <use xlink:href="#DejaVuSans-52"/>
     <use xlink:href="#DejaVuSans-20" x="69.482422"/>
     <use xlink:href="#DejaVuSans-5b" x="101.269531"/>
     <use xlink:href="#DejaVuSans-31" x="140.283203"/>
     <use xlink:href="#DejaVuSans-31" x="203.90625"/>
     <use xlink:href="#DejaVuSans-5d" x="267.529297"/>
    </g>
   </g>
   <g id="text_16">
    <!-- S [24] -->
    <g transform="translate(130.795311 294.668951) scale(0.1 -0.1)">
     <defs>
      <path id="DejaVuSans-53" d="M 3425 4513 
L 3425 3897 
Q 3066 4069 2747 4153 
Q 2428 4238 2131 4238 
Q 1616 4238 1336 4038 
Q 1056 3838 1056 3469 
Q 1056 3159 1242 3001 
Q 1428 2844 1947 2747 
L 2328 2669 
Q 3034 2534 3370 2195 
Q 3706 1856 3706 1288 
Q 3706 609 3251 259 
Q 2797 -91 1919 -91 
Q 1588 -91 1214 -16 
Q 841 59 441 206 
L 441 856 
Q 825 641 1194 531 
Q 1563 422 1919 422 
Q 2459 422 2753 634 
Q 3047 847 3047 1241 
Q 3047 1584 2836 1778 
Q 2625 1972 2144 2069 
L 1759 2144 
Q 1053 2284 737 2584 
Q 422 2884 422 3419 
Q 422 4038 858 4394 
Q 1294 4750 2059 4750 
Q 2388 4750 2728 4690 
Q 3069 4631 3425 4513 
z
" transform="scale(0.015625)"/>
     </defs>
     <use xlink:href="#DejaVuSans-53"/>
     <use xlink:href="#DejaVuSans-20" x="63.476562"/>
     <use xlink:href="#DejaVuSans-5b" x="95.263672"/>
     <use xlink:href="#DejaVuSans-32" x="134.277344"/>
     <use xlink:href="#DejaVuSans-34" x="197.900391"/>
     <use xlink:href="#DejaVuSans-5d" x="261.523438"/>
    </g>
   </g>
   <g id="text_17">
    <!-- T [21] -->
    <g transform="translate(220.451166 288.117642) scale(0.1 -0.1)">
     <defs>
      <path id="DejaVuSans-54" d="M -19 4666 
L 3928 4666 
L 3928 4134 
L 2272 4134 
L 2272 0 
L 1638 0 
L 1638 4134 
L -19 4134 
L -19 4666 
z
" transform="scale(0.015625)"/>
     </defs>
     <use xlink:href="#DejaVuSans-54"/>
     <use xlink:href="#DejaVuSans-20" x="61.083984"/>
     <use xlink:href="#DejaVuSans-5b" x="92.871094"/>
     <use xlink:href="#DejaVuSans-32" x="131.884766"/>
     <use xlink:href="#DejaVuSans-31" x="195.507812"/>
     <use xlink:href="#DejaVuSans-5d" x="259.130859"/>
    </g>
   </g>
   <g id="text_18">
    <!-- V [35] -->
    <g transform="translate(282.183066 246.76337) scale(0.1 -0.1)">
     <defs>
      <path id="DejaVuSans-56" d="M 1831 0 
L 50 4666 
L 709 4666 
L 2188 738 
L 3669 4666 
L 4325 4666 
L 2547 0 
L 1831 0 
z
" transform="scale(0.015625)"/>
      <path id="DejaVuSans-35" d="M 691 4666 
L 3169 4666 
L 3169 4134 
L 1269 4134 
L 1269 2991 
Q 1406 3038 1543 3061 
Q 1681 3084 1819 3084 
Q 2600 3084 3056 2656 
Q 3513 2228 3513 1497 
Q 3513 744 3044 326 
Q 2575 -91 1722 -91 
Q 1428 -91 1123 -41 
Q 819 9 494 109 
L 494 744 
Q 775 591 1075 516 
Q 1375 441 1709 441 
Q 2250 441 2565 725 
Q 2881 1009 2881 1497 
Q 2881 1984 2565 2268 
Q 2250 2553 1709 2553 
Q 1456 2553 1204 2497 
Q 953 2441 691 2322 
L 691 4666 
z
" transform="scale(0.015625)"/>
     </defs>
     <use xlink:href="#DejaVuSans-56"/>
     <use xlink:href="#DejaVuSans-20" x="68.408203"/>
     <use xlink:href="#DejaVuSans-5b" x="100.195312"/>
     <use xlink:href="#DejaVuSans-33" x="139.208984"/>
     <use xlink:href="#DejaVuSans-35" x="202.832031"/>
     <use xlink:href="#DejaVuSans-5d" x="266.455078"/>
    </g>
   </g>
   <g id="text_19">
    <!-- W [7] -->
    <g transform="translate(309.729038 197.985792) scale(0.1 -0.1)">
     <defs>
      <path id="DejaVuSans-57" d="M 213 4666 
L 850 4666 
L 1831 722 
L 2809 4666 
L 3519 4666 
L 4500 722 
L 5478 4666 
L 6119 4666 
L 4947 0 
L 4153 0 
L 3169 4050 
L 2175 0 
L 1381 0 
L 213 4666 
z
" transform="scale(0.015625)"/>
     </defs>
     <use xlink:href="#DejaVuSans-57"/>
     <use xlink:href="#DejaVuSans-20" x="98.876953"/>
     <use xlink:href="#DejaVuSans-5b" x="130.664062"/>
     <use xlink:href="#DejaVuSans-37" x="169.677734"/>
     <use xlink:href="#DejaVuSans-5d" x="233.300781"/>
    </g>
   </g>
   <g id="text_20">
    <!-- Y [13] -->
    <g transform="translate(315.553263 171.8127) scale(0.1 -0.1)">
     <defs>
      <path id="DejaVuSans-59" d="M -13 4666 
L 666 4666 
L 1959 2747 
L 3244 4666 
L 3922 4666 
L 2272 2222 
L 2272 0 
L 1638 0 
L 1638 2222 
L -13 4666 
z
" transform="scale(0.015625)"/>
     </defs>
     <use xlink:href="#DejaVuSans-59"/>
     <use xlink:href="#DejaVuSans-20" x="61.083984"/>
     <use xlink:href="#DejaVuSans-5b" x="92.871094"/>
     <use xlink:href="#DejaVuSans-31" x="131.884766"/>
     <use xlink:href="#DejaVuSans-33" x="195.507812"/>
     <use xlink:href="#DejaVuSans-5d" x="259.130859"/>
    </g>
   </g>
   <g id="text_21">
    <!-- A0A452E7L2 [330] -->
    <g transform="translate(119.303264 151.642846) scale(0.12 -0.12)">
     <defs>
      <path id="DejaVuSans-30" d="M 2034 4250 
Q 1547 4250 1301 3770 
Q 1056 3291 1056 2328 
Q 1056 1369 1301 889 
Q 1547 409 2034 409 
Q 2525 409 2770 889 
Q 3016 1369 3016 2328 
Q 3016 3291 2770 3770 
Q 2525 4250 2034 4250 
z
M 2034 4750 
Q 2819 4750 3233 4129 
Q 3647 3509 3647 2328 
Q 3647 1150 3233 529 
Q 2819 -91 2034 -91 
Q 1250 -91 836 529 
Q 422 1150 422 2328 
Q 422 3509 836 4129 
Q 1250 4750 2034 4750 
z
" transform="scale(0.015625)"/>
     </defs>
     <use xlink:href="#DejaVuSans-41"/>
     <use xlink:href="#DejaVuSans-30" x="68.408203"/>
     <use xlink:href="#DejaVuSans-41" x="132.03125"/>
     <use xlink:href="#DejaVuSans-34" x="200.439453"/>
     <use xlink:href="#DejaVuSans-35" x="264.0625"/>
     <use xlink:href="#DejaVuSans-32" x="327.685547"/>
     <use xlink:href="#DejaVuSans-45" x="391.308594"/>
     <use xlink:href="#DejaVuSans-37" x="454.492188"/>
     <use xlink:href="#DejaVuSans-4c" x="518.115234"/>
     <use xlink:href="#DejaVuSans-32" x="573.828125"/>
     <use xlink:href="#DejaVuSans-20" x="637.451172"/>
     <use xlink:href="#DejaVuSans-5b" x="669.238281"/>
     <use xlink:href="#DejaVuSans-33" x="708.251953"/>
     <use xlink:href="#DejaVuSans-33" x="771.875"/>
     <use xlink:href="#DejaVuSans-30" x="835.498047"/>
     <use xlink:href="#DejaVuSans-5d" x="899.121094"/>
    </g>
   </g>
  </g>
 </g>
</svg>
