<?xml version="1.0" encoding="utf-8" standalone="no"?>
<!DOCTYPE svg PUBLIC "-//W3C//DTD SVG 1.1//EN"
  "http://www.w3.org/Graphics/SVG/1.1/DTD/svg11.dtd">
<svg xmlns:xlink="http://www.w3.org/1999/xlink" width="353.067039pt" height="304.755405pt" viewBox="0 0 353.067039 304.755405" xmlns="http://www.w3.org/2000/svg" version="1.1">
 <metadata>
  <rdf:RDF xmlns:dc="http://purl.org/dc/elements/1.1/" xmlns:cc="http://creativecommons.org/ns#" xmlns:rdf="http://www.w3.org/1999/02/22-rdf-syntax-ns#">
   <cc:Work>
    <dc:type rdf:resource="http://purl.org/dc/dcmitype/StillImage"/>
    <dc:date>2024-09-27T16:07:34.771529</dc:date>
    <dc:format>image/svg+xml</dc:format>
    <dc:creator>
     <cc:Agent>
      <dc:title>Matplotlib v3.8.3, https://matplotlib.org/</dc:title>
     </cc:Agent>
    </dc:creator>
   </cc:Work>
  </rdf:RDF>
 </metadata>
 <defs>
  <style type="text/css">*{stroke-linejoin: round; stroke-linecap: butt}</style>
 </defs>
 <g id="figure_1">
  <g id="patch_1">
   <path d="M 0 304.755405 
L 353.067039 304.755405 
L 353.067039 -0 
L 0 -0 
z
" style="fill: #ffffff"/>
  </g>
  <g id="axes_1">
   <g id="patch_2">
    <path d="M 304.139149 152.61001 
C 304.139149 145.91845 303.613325 139.237223 302.566534 132.628047 
C 301.519743 126.018871 299.955219 119.502159 297.887413 113.138107 
L 176.405389 152.61001 
z
" style="fill: #1f77b4"/>
   </g>
   <g id="patch_3">
    <path d="M 297.859781 113.033697 
C 297.251888 111.162795 296.600857 109.306186 295.907208 107.465355 
C 295.213559 105.624524 294.477477 103.799962 293.699553 101.99313 
L 176.377757 152.5056 
z
" style="fill: #ff7f0e"/>
   </g>
   <g id="patch_4">
    <path d="M 293.671182 101.930452 
C 292.270778 98.677831 290.735716 95.484853 289.069976 92.359795 
C 287.404236 89.234738 285.609257 86.180303 283.689694 83.204408 
L 176.349386 152.442922 
z
" style="fill: #aec7e8"/>
   </g>
   <g id="patch_5">
    <path d="M 283.635696 83.122369 
C 281.289396 79.484905 278.759716 75.969056 276.05645 72.588431 
C 273.353184 69.207807 270.479824 65.966776 267.447495 62.877885 
L 176.295388 152.360883 
z
" style="fill: #ffbb78"/>
   </g>
   <g id="patch_6">
    <path d="M 267.286499 62.742934 
C 258.451043 53.742672 248.331093 46.100441 237.256472 40.065311 
C 226.181851 34.030182 214.274194 29.66844 201.921588 27.122239 
L 176.134393 152.225932 
z
" style="fill: #98df8a"/>
   </g>
   <g id="patch_7">
    <path d="M 201.725805 27.060619 
C 197.871935 26.266234 193.983415 25.650354 190.072689 25.214948 
C 186.161962 24.779542 182.233204 24.525075 178.298985 24.452363 
L 175.938609 152.164312 
z
" style="fill: #2ca02c"/>
   </g>
   <g id="patch_8">
    <path d="M 178.200787 24.450548 
C 174.266569 24.377836 170.331091 24.486955 166.406946 24.777557 
C 162.482801 25.068158 158.57418 25.539932 154.693588 26.191369 
L 175.840411 152.162498 
z
" style="fill: #d62728"/>
   </g>
   <g id="patch_9">
    <path d="M 154.545227 26.2241 
C 146.391047 27.592945 138.389007 29.750299 130.651801 32.665779 
C 122.914595 35.581258 115.478716 39.241113 108.448887 43.593799 
L 175.69205 152.195229 
z
" style="fill: #9467bd"/>
   </g>
   <g id="patch_10">
    <path d="M 108.281647 43.695224 
C 101.922228 47.63281 95.920943 52.121384 90.347011 57.109176 
C 84.773078 62.096967 79.64801 67.564726 75.030918 73.449389 
L 175.52481 152.296654 
z
" style="fill: #ff9896"/>
   </g>
   <g id="patch_11">
    <path d="M 74.870079 73.714598 
C 63.902663 87.692993 55.971464 103.807144 51.584707 121.024464 
C 47.197951 138.241785 46.451383 156.186489 49.392842 173.708691 
L 175.36397 152.561862 
z
" style="fill: #c5b0d5"/>
   </g>
   <g id="patch_12">
    <path d="M 49.394079 173.976263 
C 50.045515 177.856854 50.875919 181.705273 51.882632 185.509203 
C 52.889346 189.313134 54.071295 193.068516 55.424696 196.763332 
L 175.365206 152.829434 
z
" style="fill: #c49c94"/>
   </g>
   <g id="patch_13">
    <path d="M 55.469538 196.877513 
C 57.500091 202.420968 59.912518 207.816987 62.689463 213.02675 
C 65.466408 218.236512 68.601195 223.247493 72.071272 228.023644 
L 175.410048 152.943615 
z
" style="fill: #8c564b"/>
   </g>
   <g id="patch_14">
    <path d="M 72.137836 228.120815 
C 74.219349 230.985772 76.419104 233.762929 78.731399 236.445086 
C 81.043694 239.127243 83.466529 241.712082 85.993624 244.192902 
L 175.476612 153.040786 
z
" style="fill: #e377c2"/>
   </g>
   <g id="patch_15">
    <path d="M 86.045501 244.245261 
C 87.730096 245.899009 89.460213 247.505739 91.233856 249.0636 
C 93.0075 250.621461 94.823989 252.129854 96.681231 253.587041 
L 175.52849 153.093145 
z
" style="fill: #7f7f7f"/>
   </g>
   <g id="patch_16">
    <path d="M 96.760688 253.644771 
C 101.095485 257.045841 105.645802 260.16288 110.383115 262.976348 
C 115.120429 265.789817 120.034822 268.293824 125.095489 270.472676 
L 175.607947 153.150874 
z
" style="fill: #f7b6d2"/>
   </g>
   <g id="patch_17">
    <path d="M 125.303483 270.543458 
C 136.524455 275.374606 148.380712 278.571056 160.509481 280.035007 
C 172.638251 281.498958 184.914556 281.215324 196.962774 279.192784 
L 175.81594 153.221657 
z
" style="fill: #c7c7c7"/>
   </g>
   <g id="patch_18">
    <path d="M 197.254939 279.145125 
C 208.913246 277.18804 220.243632 273.621975 230.921308 268.549152 
C 241.598985 263.47633 251.520941 256.94569 260.40276 249.144435 
L 176.108106 153.173998 
z
" style="fill: #dbdb8d"/>
   </g>
   <g id="patch_19">
    <path d="M 260.610657 248.968528 
C 268.305181 242.210121 275.159065 234.5508 281.024547 226.15569 
C 286.890029 217.76058 291.724654 208.690447 295.424193 199.140831 
L 176.316003 152.998091 
z
" style="fill: #bcbd22"/>
   </g>
   <g id="patch_20">
    <path d="M 295.497036 198.991092 
C 296.63412 196.055939 297.66232 193.079757 298.57953 190.068643 
C 299.49674 187.057529 300.302334 184.013539 300.994661 180.94291 
L 176.388845 152.848353 
z
" style="fill: #17becf"/>
   </g>
   <g id="patch_21">
    <path d="M 301.014489 180.846717 
C 302.053127 176.240117 302.835512 171.579463 303.35804 166.886224 
C 303.880567 162.192984 304.142434 157.474378 304.142433 152.75214 
L 176.408673 152.75216 
z
" style="fill: #9edae5"/>
   </g>
   <g id="patch_22">
    <path d="M 250.391077 152.693268 
C 250.391077 148.789858 250.084347 144.892476 249.473719 141.037123 
C 248.863091 137.181771 247.950452 133.380355 246.744232 129.667991 
L 175.879717 152.693268 
z
" style="fill: #ffffff"/>
   </g>
   <g id="patch_23">
    <path d="M 246.744232 129.667991 
C 246.389627 128.576632 246.009859 127.49361 245.60523 126.419791 
C 245.200602 125.345973 244.771221 124.281646 244.317432 123.227661 
L 175.879717 152.693268 
z
" style="fill: #ffffff"/>
   </g>
   <g id="patch_24">
    <path d="M 244.317432 123.227661 
C 243.500529 121.330298 242.605076 119.467728 241.633395 117.644778 
C 240.661713 115.821827 239.614642 114.040074 238.494897 112.304135 
L 175.879717 152.693268 
z
" style="fill: #ffffff"/>
   </g>
   <g id="patch_25">
    <path d="M 238.494897 112.304135 
C 237.126221 110.182281 235.650575 108.131369 234.07367 106.159338 
C 232.496765 104.187307 230.820638 102.296706 229.051779 100.494853 
L 175.879717 152.693268 
z
" style="fill: #ffffff"/>
   </g>
   <g id="patch_26">
    <path d="M 229.051779 100.494853 
C 223.897763 95.2447 217.994459 90.786731 211.534263 87.266239 
C 205.074068 83.745747 198.127935 81.201397 190.922248 79.716114 
L 175.879717 152.693268 
z
" style="fill: #ffffff"/>
   </g>
   <g id="patch_27">
    <path d="M 190.922248 79.716114 
C 188.674157 79.252723 186.405854 78.893459 184.124597 78.639472 
C 181.84334 78.385485 179.551564 78.237046 177.256603 78.194631 
L 175.879717 152.693268 
z
" style="fill: #ffffff"/>
   </g>
   <g id="patch_28">
    <path d="M 177.256603 78.194631 
C 174.961643 78.152215 172.665947 78.215868 170.376863 78.385386 
C 168.087778 78.554904 165.807749 78.830105 163.54407 79.21011 
L 175.879717 152.693268 
z
" style="fill: #ffffff"/>
   </g>
   <g id="patch_29">
    <path d="M 163.54407 79.21011 
C 158.787466 80.008603 154.119609 81.267059 149.606239 82.967756 
C 145.092868 84.668452 140.755273 86.803367 136.654539 89.342434 
L 175.879717 152.693268 
z
" style="fill: #ffffff"/>
   </g>
   <g id="patch_30">
    <path d="M 136.654539 89.342434 
C 132.944878 91.639359 129.444128 94.257694 126.192668 97.167239 
C 122.941207 100.076784 119.951584 103.266311 117.25828 106.69903 
L 175.879717 152.693268 
z
" style="fill: #ffffff"/>
   </g>
   <g id="patch_31">
    <path d="M 117.25828 106.69903 
C 110.860621 114.853095 106.234088 124.253016 103.675147 134.296453 
C 101.116206 144.33989 100.680708 154.807634 102.396559 165.028918 
L 175.879717 152.693268 
z
" style="fill: #ffffff"/>
   </g>
   <g id="patch_32">
    <path d="M 102.396559 165.028918 
C 102.776564 167.292597 103.260966 169.537507 103.848216 171.756467 
C 104.435465 173.975427 105.124935 176.166066 105.914419 178.321375 
L 175.879717 152.693268 
z
" style="fill: #ffffff"/>
   </g>
   <g id="patch_33">
    <path d="M 105.914419 178.321375 
C 107.098909 181.555058 108.506158 184.702736 110.126043 187.741764 
C 111.745927 190.780792 113.574553 193.703864 115.598764 196.489952 
L 175.879717 152.693268 
z
" style="fill: #ffffff"/>
   </g>
   <g id="patch_34">
    <path d="M 115.598764 196.489952 
C 116.812981 198.161177 118.096171 199.781185 119.44501 201.345776 
C 120.793848 202.910368 122.207169 204.418191 123.681307 205.865336 
L 175.879717 152.693268 
z
" style="fill: #ffffff"/>
   </g>
   <g id="patch_35">
    <path d="M 123.681307 205.865336 
C 124.663988 206.830022 125.673222 207.767281 126.707848 208.676033 
C 127.742473 209.584786 128.802092 210.464682 129.885483 211.314708 
L 175.879717 152.693268 
z
" style="fill: #ffffff"/>
   </g>
   <g id="patch_36">
    <path d="M 129.885483 211.314708 
C 132.414114 213.298666 135.068466 215.116938 137.831899 216.758128 
C 140.595332 218.399318 143.462061 219.859989 146.414117 221.130986 
L 175.879717 152.693268 
z
" style="fill: #ffffff"/>
   </g>
   <g id="patch_37">
    <path d="M 146.414117 221.130986 
C 152.959684 223.949155 159.875834 225.813751 166.95095 226.667722 
C 174.026065 227.521694 181.187243 227.356241 188.21537 226.176426 
L 175.879717 152.693268 
z
" style="fill: #ffffff"/>
   </g>
   <g id="patch_38">
    <path d="M 188.21537 226.176426 
C 195.016049 225.034792 201.625441 222.954588 207.854085 219.995442 
C 214.08273 217.036295 219.870538 213.226755 225.051599 208.676023 
L 175.879717 152.693268 
z
" style="fill: #ffffff"/>
   </g>
   <g id="patch_39">
    <path d="M 225.051599 208.676023 
C 229.540071 204.733619 233.53817 200.265682 236.959701 195.368534 
C 240.381233 190.471386 243.20143 185.180475 245.359495 179.609866 
L 175.879717 152.693268 
z
" style="fill: #ffffff"/>
   </g>
   <g id="patch_40">
    <path d="M 245.359495 179.609866 
C 246.022794 177.897693 246.622577 176.161587 247.157617 174.405104 
C 247.692656 172.648621 248.162586 170.87296 248.566443 169.08176 
L 175.879717 152.693268 
z
" style="fill: #ffffff"/>
   </g>
   <g id="patch_41">
    <path d="M 248.566443 169.08176 
C 249.172315 166.394577 249.628707 163.675862 249.933514 160.938139 
C 250.238322 158.200416 250.391078 155.447895 250.391077 152.693256 
L 175.879717 152.693268 
z
" style="fill: #ffffff"/>
   </g>
   <g id="matplotlib.axis_1"/>
   <g id="matplotlib.axis_2"/>
   <g id="text_1">
    <!-- A [17] -->
    <g transform="translate(315.182649 133.389226) scale(0.1 -0.1)">
     <defs>
      <path id="DejaVuSans-41" d="M 2188 4044 
L 1331 1722 
L 3047 1722 
L 2188 4044 
z
M 1831 4666 
L 2547 4666 
L 4325 0 
L 3669 0 
L 3244 1197 
L 1141 1197 
L 716 0 
L 50 0 
L 1831 4666 
z
" transform="scale(0.015625)"/>
      <path id="DejaVuSans-20" transform="scale(0.015625)"/>
      <path id="DejaVuSans-5b" d="M 550 4863 
L 1875 4863 
L 1875 4416 
L 1125 4416 
L 1125 -397 
L 1875 -397 
L 1875 -844 
L 550 -844 
L 550 4863 
z
" transform="scale(0.015625)"/>
      <path id="DejaVuSans-31" d="M 794 531 
L 1825 531 
L 1825 4091 
L 703 3866 
L 703 4441 
L 1819 4666 
L 2450 4666 
L 2450 531 
L 3481 531 
L 3481 0 
L 794 0 
L 794 531 
z
" transform="scale(0.015625)"/>
      <path id="DejaVuSans-37" d="M 525 4666 
L 3525 4666 
L 3525 4397 
L 1831 0 
L 1172 0 
L 2766 4134 
L 525 4134 
L 525 4666 
z
" transform="scale(0.015625)"/>
      <path id="DejaVuSans-5d" d="M 1947 4863 
L 1947 -844 
L 622 -844 
L 622 -397 
L 1369 -397 
L 1369 4416 
L 622 4416 
L 622 4863 
L 1947 4863 
z
" transform="scale(0.015625)"/>
     </defs>
     <use xlink:href="#DejaVuSans-41"/>
     <use xlink:href="#DejaVuSans-20" x="68.408203"/>
     <use xlink:href="#DejaVuSans-5b" x="100.195312"/>
     <use xlink:href="#DejaVuSans-31" x="139.208984"/>
     <use xlink:href="#DejaVuSans-37" x="202.832031"/>
     <use xlink:href="#DejaVuSans-5d" x="266.455078"/>
    </g>
   </g>
   <g id="text_2">
    <!-- C [5] -->
    <g transform="translate(307.860153 105.720705) scale(0.1 -0.1)">
     <defs>
      <path id="DejaVuSans-43" d="M 4122 4306 
L 4122 3641 
Q 3803 3938 3442 4084 
Q 3081 4231 2675 4231 
Q 1875 4231 1450 3742 
Q 1025 3253 1025 2328 
Q 1025 1406 1450 917 
Q 1875 428 2675 428 
Q 3081 428 3442 575 
Q 3803 722 4122 1019 
L 4122 359 
Q 3791 134 3420 21 
Q 3050 -91 2638 -91 
Q 1578 -91 968 557 
Q 359 1206 359 2328 
Q 359 3453 968 4101 
Q 1578 4750 2638 4750 
Q 3056 4750 3426 4639 
Q 3797 4528 4122 4306 
z
" transform="scale(0.015625)"/>
      <path id="DejaVuSans-35" d="M 691 4666 
L 3169 4666 
L 3169 4134 
L 1269 4134 
L 1269 2991 
Q 1406 3038 1543 3061 
Q 1681 3084 1819 3084 
Q 2600 3084 3056 2656 
Q 3513 2228 3513 1497 
Q 3513 744 3044 326 
Q 2575 -91 1722 -91 
Q 1428 -91 1123 -41 
Q 819 9 494 109 
L 494 744 
Q 775 591 1075 516 
Q 1375 441 1709 441 
Q 2250 441 2565 725 
Q 2881 1009 2881 1497 
Q 2881 1984 2565 2268 
Q 2250 2553 1709 2553 
Q 1456 2553 1204 2497 
Q 953 2441 691 2322 
L 691 4666 
z
" transform="scale(0.015625)"/>
     </defs>
     <use xlink:href="#DejaVuSans-43"/>
     <use xlink:href="#DejaVuSans-20" x="69.824219"/>
     <use xlink:href="#DejaVuSans-5b" x="101.611328"/>
     <use xlink:href="#DejaVuSans-35" x="140.625"/>
     <use xlink:href="#DejaVuSans-5d" x="204.248047"/>
    </g>
   </g>
   <g id="text_3">
    <!-- D [9] -->
    <g transform="translate(300.342035 89.110858) scale(0.1 -0.1)">
     <defs>
      <path id="DejaVuSans-44" d="M 1259 4147 
L 1259 519 
L 2022 519 
Q 2988 519 3436 956 
Q 3884 1394 3884 2338 
Q 3884 3275 3436 3711 
Q 2988 4147 2022 4147 
L 1259 4147 
z
M 628 4666 
L 1925 4666 
Q 3281 4666 3915 4102 
Q 4550 3538 4550 2338 
Q 4550 1131 3912 565 
Q 3275 0 1925 0 
L 628 0 
L 628 4666 
z
" transform="scale(0.015625)"/>
      <path id="DejaVuSans-39" d="M 703 97 
L 703 672 
Q 941 559 1184 500 
Q 1428 441 1663 441 
Q 2288 441 2617 861 
Q 2947 1281 2994 2138 
Q 2813 1869 2534 1725 
Q 2256 1581 1919 1581 
Q 1219 1581 811 2004 
Q 403 2428 403 3163 
Q 403 3881 828 4315 
Q 1253 4750 1959 4750 
Q 2769 4750 3195 4129 
Q 3622 3509 3622 2328 
Q 3622 1225 3098 567 
Q 2575 -91 1691 -91 
Q 1453 -91 1209 -44 
Q 966 3 703 97 
z
M 1959 2075 
Q 2384 2075 2632 2365 
Q 2881 2656 2881 3163 
Q 2881 3666 2632 3958 
Q 2384 4250 1959 4250 
Q 1534 4250 1286 3958 
Q 1038 3666 1038 3163 
Q 1038 2656 1286 2365 
Q 1534 2075 1959 2075 
z
" transform="scale(0.015625)"/>
     </defs>
     <use xlink:href="#DejaVuSans-44"/>
     <use xlink:href="#DejaVuSans-20" x="77.001953"/>
     <use xlink:href="#DejaVuSans-5b" x="108.789062"/>
     <use xlink:href="#DejaVuSans-39" x="147.802734"/>
     <use xlink:href="#DejaVuSans-5d" x="211.425781"/>
    </g>
   </g>
   <g id="text_4">
    <!-- E [11] -->
    <g transform="translate(286.032556 67.370561) scale(0.1 -0.1)">
     <defs>
      <path id="DejaVuSans-45" d="M 628 4666 
L 3578 4666 
L 3578 4134 
L 1259 4134 
L 1259 2753 
L 3481 2753 
L 3481 2222 
L 1259 2222 
L 1259 531 
L 3634 531 
L 3634 0 
L 628 0 
L 628 4666 
z
" transform="scale(0.015625)"/>
     </defs>
     <use xlink:href="#DejaVuSans-45"/>
     <use xlink:href="#DejaVuSans-20" x="63.183594"/>
     <use xlink:href="#DejaVuSans-5b" x="94.970703"/>
     <use xlink:href="#DejaVuSans-31" x="133.984375"/>
     <use xlink:href="#DejaVuSans-31" x="197.607422"/>
     <use xlink:href="#DejaVuSans-5d" x="261.230469"/>
    </g>
   </g>
   <g id="text_5">
    <!-- F [32] -->
    <g transform="translate(243.36868 31.608624) scale(0.1 -0.1)">
     <defs>
      <path id="DejaVuSans-46" d="M 628 4666 
L 3309 4666 
L 3309 4134 
L 1259 4134 
L 1259 2759 
L 3109 2759 
L 3109 2228 
L 1259 2228 
L 1259 0 
L 628 0 
L 628 4666 
z
" transform="scale(0.015625)"/>
      <path id="DejaVuSans-33" d="M 2597 2516 
Q 3050 2419 3304 2112 
Q 3559 1806 3559 1356 
Q 3559 666 3084 287 
Q 2609 -91 1734 -91 
Q 1441 -91 1130 -33 
Q 819 25 488 141 
L 488 750 
Q 750 597 1062 519 
Q 1375 441 1716 441 
Q 2309 441 2620 675 
Q 2931 909 2931 1356 
Q 2931 1769 2642 2001 
Q 2353 2234 1838 2234 
L 1294 2234 
L 1294 2753 
L 1863 2753 
Q 2328 2753 2575 2939 
Q 2822 3125 2822 3475 
Q 2822 3834 2567 4026 
Q 2313 4219 1838 4219 
Q 1578 4219 1281 4162 
Q 984 4106 628 3988 
L 628 4550 
Q 988 4650 1302 4700 
Q 1616 4750 1894 4750 
Q 2613 4750 3031 4423 
Q 3450 4097 3450 3541 
Q 3450 3153 3228 2886 
Q 3006 2619 2597 2516 
z
" transform="scale(0.015625)"/>
      <path id="DejaVuSans-32" d="M 1228 531 
L 3431 531 
L 3431 0 
L 469 0 
L 469 531 
Q 828 903 1448 1529 
Q 2069 2156 2228 2338 
Q 2531 2678 2651 2914 
Q 2772 3150 2772 3378 
Q 2772 3750 2511 3984 
Q 2250 4219 1831 4219 
Q 1534 4219 1204 4116 
Q 875 4013 500 3803 
L 500 4441 
Q 881 4594 1212 4672 
Q 1544 4750 1819 4750 
Q 2544 4750 2975 4387 
Q 3406 4025 3406 3419 
Q 3406 3131 3298 2873 
Q 3191 2616 2906 2266 
Q 2828 2175 2409 1742 
Q 1991 1309 1228 531 
z
" transform="scale(0.015625)"/>
     </defs>
     <use xlink:href="#DejaVuSans-46"/>
     <use xlink:href="#DejaVuSans-20" x="57.519531"/>
     <use xlink:href="#DejaVuSans-5b" x="89.306641"/>
     <use xlink:href="#DejaVuSans-33" x="128.320312"/>
     <use xlink:href="#DejaVuSans-32" x="191.943359"/>
     <use xlink:href="#DejaVuSans-5d" x="255.566406"/>
    </g>
   </g>
   <g id="text_6">
    <!-- G [10] -->
    <g transform="translate(191.486096 15.279386) scale(0.1 -0.1)">
     <defs>
      <path id="DejaVuSans-47" d="M 3809 666 
L 3809 1919 
L 2778 1919 
L 2778 2438 
L 4434 2438 
L 4434 434 
Q 4069 175 3628 42 
Q 3188 -91 2688 -91 
Q 1594 -91 976 548 
Q 359 1188 359 2328 
Q 359 3472 976 4111 
Q 1594 4750 2688 4750 
Q 3144 4750 3555 4637 
Q 3966 4525 4313 4306 
L 4313 3634 
Q 3963 3931 3569 4081 
Q 3175 4231 2741 4231 
Q 1884 4231 1454 3753 
Q 1025 3275 1025 2328 
Q 1025 1384 1454 906 
Q 1884 428 2741 428 
Q 3075 428 3337 486 
Q 3600 544 3809 666 
z
" transform="scale(0.015625)"/>
      <path id="DejaVuSans-30" d="M 2034 4250 
Q 1547 4250 1301 3770 
Q 1056 3291 1056 2328 
Q 1056 1369 1301 889 
Q 1547 409 2034 409 
Q 2525 409 2770 889 
Q 3016 1369 3016 2328 
Q 3016 3291 2770 3770 
Q 2525 4250 2034 4250 
z
M 2034 4750 
Q 2819 4750 3233 4129 
Q 3647 3509 3647 2328 
Q 3647 1150 3233 529 
Q 2819 -91 2034 -91 
Q 1250 -91 836 529 
Q 422 1150 422 2328 
Q 422 3509 836 4129 
Q 1250 4750 2034 4750 
z
" transform="scale(0.015625)"/>
     </defs>
     <use xlink:href="#DejaVuSans-47"/>
     <use xlink:href="#DejaVuSans-20" x="77.490234"/>
     <use xlink:href="#DejaVuSans-5b" x="109.277344"/>
     <use xlink:href="#DejaVuSans-31" x="148.291016"/>
     <use xlink:href="#DejaVuSans-30" x="211.914062"/>
     <use xlink:href="#DejaVuSans-5d" x="275.537109"/>
    </g>
   </g>
   <g id="text_7">
    <!-- H [10] -->
    <g transform="translate(134.237037 14.798437) scale(0.1 -0.1)">
     <defs>
      <path id="DejaVuSans-48" d="M 628 4666 
L 1259 4666 
L 1259 2753 
L 3553 2753 
L 3553 4666 
L 4184 4666 
L 4184 0 
L 3553 0 
L 3553 2222 
L 1259 2222 
L 1259 0 
L 628 0 
L 628 4666 
z
" transform="scale(0.015625)"/>
     </defs>
     <use xlink:href="#DejaVuSans-48"/>
     <use xlink:href="#DejaVuSans-20" x="75.195312"/>
     <use xlink:href="#DejaVuSans-5b" x="106.982422"/>
     <use xlink:href="#DejaVuSans-31" x="145.996094"/>
     <use xlink:href="#DejaVuSans-30" x="209.619141"/>
     <use xlink:href="#DejaVuSans-5d" x="273.242188"/>
    </g>
   </g>
   <g id="text_8">
    <!-- I [21] -->
    <g transform="translate(99.491526 23.472209) scale(0.1 -0.1)">
     <defs>
      <path id="DejaVuSans-49" d="M 628 4666 
L 1259 4666 
L 1259 0 
L 628 0 
L 628 4666 
z
" transform="scale(0.015625)"/>
     </defs>
     <use xlink:href="#DejaVuSans-49"/>
     <use xlink:href="#DejaVuSans-20" x="29.492188"/>
     <use xlink:href="#DejaVuSans-5b" x="61.279297"/>
     <use xlink:href="#DejaVuSans-32" x="100.292969"/>
     <use xlink:href="#DejaVuSans-31" x="163.916016"/>
     <use xlink:href="#DejaVuSans-5d" x="227.539062"/>
    </g>
   </g>
   <g id="text_9">
    <!-- K [19] -->
    <g transform="translate(51.565168 50.349803) scale(0.1 -0.1)">
     <defs>
      <path id="DejaVuSans-4b" d="M 628 4666 
L 1259 4666 
L 1259 2694 
L 3353 4666 
L 4166 4666 
L 1850 2491 
L 4331 0 
L 3500 0 
L 1259 2247 
L 1259 0 
L 628 0 
L 628 4666 
z
" transform="scale(0.015625)"/>
     </defs>
     <use xlink:href="#DejaVuSans-4b"/>
     <use xlink:href="#DejaVuSans-20" x="65.576172"/>
     <use xlink:href="#DejaVuSans-5b" x="97.363281"/>
     <use xlink:href="#DejaVuSans-31" x="136.376953"/>
     <use xlink:href="#DejaVuSans-39" x="200"/>
     <use xlink:href="#DejaVuSans-5d" x="263.623047"/>
    </g>
   </g>
   <g id="text_10">
    <!-- L [45] -->
    <g transform="translate(9.928656 120.6301) scale(0.1 -0.1)">
     <defs>
      <path id="DejaVuSans-4c" d="M 628 4666 
L 1259 4666 
L 1259 531 
L 3531 531 
L 3531 0 
L 628 0 
L 628 4666 
z
" transform="scale(0.015625)"/>
      <path id="DejaVuSans-34" d="M 2419 4116 
L 825 1625 
L 2419 1625 
L 2419 4116 
z
M 2253 4666 
L 3047 4666 
L 3047 1625 
L 3713 1625 
L 3713 1100 
L 3047 1100 
L 3047 0 
L 2419 0 
L 2419 1100 
L 313 1100 
L 313 1709 
L 2253 4666 
z
" transform="scale(0.015625)"/>
     </defs>
     <use xlink:href="#DejaVuSans-4c"/>
     <use xlink:href="#DejaVuSans-20" x="55.712891"/>
     <use xlink:href="#DejaVuSans-5b" x="87.5"/>
     <use xlink:href="#DejaVuSans-34" x="126.513672"/>
     <use xlink:href="#DejaVuSans-35" x="190.136719"/>
     <use xlink:href="#DejaVuSans-5d" x="253.759766"/>
    </g>
   </g>
   <g id="text_11">
    <!-- M [10] -->
    <g transform="translate(7.2 191.536555) scale(0.1 -0.1)">
     <defs>
      <path id="DejaVuSans-4d" d="M 628 4666 
L 1569 4666 
L 2759 1491 
L 3956 4666 
L 4897 4666 
L 4897 0 
L 4281 0 
L 4281 4097 
L 3078 897 
L 2444 897 
L 1241 4097 
L 1241 0 
L 628 0 
L 628 4666 
z
" transform="scale(0.015625)"/>
     </defs>
     <use xlink:href="#DejaVuSans-4d"/>
     <use xlink:href="#DejaVuSans-20" x="86.279297"/>
     <use xlink:href="#DejaVuSans-5b" x="118.066406"/>
     <use xlink:href="#DejaVuSans-31" x="157.080078"/>
     <use xlink:href="#DejaVuSans-30" x="220.703125"/>
     <use xlink:href="#DejaVuSans-5d" x="284.326172"/>
    </g>
   </g>
   <g id="text_12">
    <!-- N [15] -->
    <g transform="translate(20.229904 221.794438) scale(0.1 -0.1)">
     <defs>
      <path id="DejaVuSans-4e" d="M 628 4666 
L 1478 4666 
L 3547 763 
L 3547 4666 
L 4159 4666 
L 4159 0 
L 3309 0 
L 1241 3903 
L 1241 0 
L 628 0 
L 628 4666 
z
" transform="scale(0.015625)"/>
     </defs>
     <use xlink:href="#DejaVuSans-4e"/>
     <use xlink:href="#DejaVuSans-20" x="74.804688"/>
     <use xlink:href="#DejaVuSans-5b" x="106.591797"/>
     <use xlink:href="#DejaVuSans-31" x="145.605469"/>
     <use xlink:href="#DejaVuSans-35" x="209.228516"/>
     <use xlink:href="#DejaVuSans-5d" x="272.851562"/>
    </g>
   </g>
   <g id="text_13">
    <!-- P [9] -->
    <g transform="translate(45.683441 247.544891) scale(0.1 -0.1)">
     <defs>
      <path id="DejaVuSans-50" d="M 1259 4147 
L 1259 2394 
L 2053 2394 
Q 2494 2394 2734 2622 
Q 2975 2850 2975 3272 
Q 2975 3691 2734 3919 
Q 2494 4147 2053 4147 
L 1259 4147 
z
M 628 4666 
L 2053 4666 
Q 2838 4666 3239 4311 
Q 3641 3956 3641 3272 
Q 3641 2581 3239 2228 
Q 2838 1875 2053 1875 
L 1259 1875 
L 1259 0 
L 628 0 
L 628 4666 
z
" transform="scale(0.015625)"/>
     </defs>
     <use xlink:href="#DejaVuSans-50"/>
     <use xlink:href="#DejaVuSans-20" x="60.302734"/>
     <use xlink:href="#DejaVuSans-5b" x="92.089844"/>
     <use xlink:href="#DejaVuSans-39" x="131.103516"/>
     <use xlink:href="#DejaVuSans-5d" x="194.726562"/>
    </g>
   </g>
   <g id="text_14">
    <!-- Q [6] -->
    <g transform="translate(57.588768 261.42002) scale(0.1 -0.1)">
     <defs>
      <path id="DejaVuSans-51" d="M 2522 4238 
Q 1834 4238 1429 3725 
Q 1025 3213 1025 2328 
Q 1025 1447 1429 934 
Q 1834 422 2522 422 
Q 3209 422 3611 934 
Q 4013 1447 4013 2328 
Q 4013 3213 3611 3725 
Q 3209 4238 2522 4238 
z
M 3406 84 
L 4238 -825 
L 3475 -825 
L 2784 -78 
Q 2681 -84 2626 -87 
Q 2572 -91 2522 -91 
Q 1538 -91 948 567 
Q 359 1225 359 2328 
Q 359 3434 948 4092 
Q 1538 4750 2522 4750 
Q 3503 4750 4090 4092 
Q 4678 3434 4678 2328 
Q 4678 1516 4351 937 
Q 4025 359 3406 84 
z
" transform="scale(0.015625)"/>
      <path id="DejaVuSans-36" d="M 2113 2584 
Q 1688 2584 1439 2293 
Q 1191 2003 1191 1497 
Q 1191 994 1439 701 
Q 1688 409 2113 409 
Q 2538 409 2786 701 
Q 3034 994 3034 1497 
Q 3034 2003 2786 2293 
Q 2538 2584 2113 2584 
z
M 3366 4563 
L 3366 3988 
Q 3128 4100 2886 4159 
Q 2644 4219 2406 4219 
Q 1781 4219 1451 3797 
Q 1122 3375 1075 2522 
Q 1259 2794 1537 2939 
Q 1816 3084 2150 3084 
Q 2853 3084 3261 2657 
Q 3669 2231 3669 1497 
Q 3669 778 3244 343 
Q 2819 -91 2113 -91 
Q 1303 -91 875 529 
Q 447 1150 447 2328 
Q 447 3434 972 4092 
Q 1497 4750 2381 4750 
Q 2619 4750 2861 4703 
Q 3103 4656 3366 4563 
z
" transform="scale(0.015625)"/>
     </defs>
     <use xlink:href="#DejaVuSans-51"/>
     <use xlink:href="#DejaVuSans-20" x="78.710938"/>
     <use xlink:href="#DejaVuSans-5b" x="110.498047"/>
     <use xlink:href="#DejaVuSans-36" x="149.511719"/>
     <use xlink:href="#DejaVuSans-5d" x="213.134766"/>
    </g>
   </g>
   <g id="text_15">
    <!-- R [14] -->
    <g transform="translate(73.205945 276.718271) scale(0.1 -0.1)">
     <defs>
      <path id="DejaVuSans-52" d="M 2841 2188 
Q 3044 2119 3236 1894 
Q 3428 1669 3622 1275 
L 4263 0 
L 3584 0 
L 2988 1197 
Q 2756 1666 2539 1819 
Q 2322 1972 1947 1972 
L 1259 1972 
L 1259 0 
L 628 0 
L 628 4666 
L 2053 4666 
Q 2853 4666 3247 4331 
Q 3641 3997 3641 3322 
Q 3641 2881 3436 2590 
Q 3231 2300 2841 2188 
z
M 1259 4147 
L 1259 2491 
L 2053 2491 
Q 2509 2491 2742 2702 
Q 2975 2913 2975 3322 
Q 2975 3731 2742 3939 
Q 2509 4147 2053 4147 
L 1259 4147 
z
" transform="scale(0.015625)"/>
     </defs>
     <use xlink:href="#DejaVuSans-52"/>
     <use xlink:href="#DejaVuSans-20" x="69.482422"/>
     <use xlink:href="#DejaVuSans-5b" x="101.269531"/>
     <use xlink:href="#DejaVuSans-31" x="140.283203"/>
     <use xlink:href="#DejaVuSans-34" x="203.90625"/>
     <use xlink:href="#DejaVuSans-5d" x="267.529297"/>
    </g>
   </g>
   <g id="text_16">
    <!-- S [31] -->
    <g transform="translate(128.924148 295.475717) scale(0.1 -0.1)">
     <defs>
      <path id="DejaVuSans-53" d="M 3425 4513 
L 3425 3897 
Q 3066 4069 2747 4153 
Q 2428 4238 2131 4238 
Q 1616 4238 1336 4038 
Q 1056 3838 1056 3469 
Q 1056 3159 1242 3001 
Q 1428 2844 1947 2747 
L 2328 2669 
Q 3034 2534 3370 2195 
Q 3706 1856 3706 1288 
Q 3706 609 3251 259 
Q 2797 -91 1919 -91 
Q 1588 -91 1214 -16 
Q 841 59 441 206 
L 441 856 
Q 825 641 1194 531 
Q 1563 422 1919 422 
Q 2459 422 2753 634 
Q 3047 847 3047 1241 
Q 3047 1584 2836 1778 
Q 2625 1972 2144 2069 
L 1759 2144 
Q 1053 2284 737 2584 
Q 422 2884 422 3419 
Q 422 4038 858 4394 
Q 1294 4750 2059 4750 
Q 2388 4750 2728 4690 
Q 3069 4631 3425 4513 
z
" transform="scale(0.015625)"/>
     </defs>
     <use xlink:href="#DejaVuSans-53"/>
     <use xlink:href="#DejaVuSans-20" x="63.476562"/>
     <use xlink:href="#DejaVuSans-5b" x="95.263672"/>
     <use xlink:href="#DejaVuSans-33" x="134.277344"/>
     <use xlink:href="#DejaVuSans-31" x="197.900391"/>
     <use xlink:href="#DejaVuSans-5d" x="261.523438"/>
    </g>
   </g>
   <g id="text_17">
    <!-- T [30] -->
    <g transform="translate(236.402629 282.846043) scale(0.1 -0.1)">
     <defs>
      <path id="DejaVuSans-54" d="M -19 4666 
L 3928 4666 
L 3928 4134 
L 2272 4134 
L 2272 0 
L 1638 0 
L 1638 4134 
L -19 4134 
L -19 4666 
z
" transform="scale(0.015625)"/>
     </defs>
     <use xlink:href="#DejaVuSans-54"/>
     <use xlink:href="#DejaVuSans-20" x="61.083984"/>
     <use xlink:href="#DejaVuSans-5b" x="92.871094"/>
     <use xlink:href="#DejaVuSans-33" x="131.884766"/>
     <use xlink:href="#DejaVuSans-30" x="195.507812"/>
     <use xlink:href="#DejaVuSans-5d" x="259.130859"/>
    </g>
   </g>
   <g id="text_18">
    <!-- V [26] -->
    <g transform="translate(291.495401 236.230825) scale(0.1 -0.1)">
     <defs>
      <path id="DejaVuSans-56" d="M 1831 0 
L 50 4666 
L 709 4666 
L 2188 738 
L 3669 4666 
L 4325 4666 
L 2547 0 
L 1831 0 
z
" transform="scale(0.015625)"/>
     </defs>
     <use xlink:href="#DejaVuSans-56"/>
     <use xlink:href="#DejaVuSans-20" x="68.408203"/>
     <use xlink:href="#DejaVuSans-5b" x="100.195312"/>
     <use xlink:href="#DejaVuSans-32" x="139.208984"/>
     <use xlink:href="#DejaVuSans-36" x="202.832031"/>
     <use xlink:href="#DejaVuSans-5d" x="266.455078"/>
    </g>
   </g>
   <g id="text_19">
    <!-- W [8] -->
    <g transform="translate(310.798598 196.550047) scale(0.1 -0.1)">
     <defs>
      <path id="DejaVuSans-57" d="M 213 4666 
L 850 4666 
L 1831 722 
L 2809 4666 
L 3519 4666 
L 4500 722 
L 5478 4666 
L 6119 4666 
L 4947 0 
L 4153 0 
L 3169 4050 
L 2175 0 
L 1381 0 
L 213 4666 
z
" transform="scale(0.015625)"/>
      <path id="DejaVuSans-38" d="M 2034 2216 
Q 1584 2216 1326 1975 
Q 1069 1734 1069 1313 
Q 1069 891 1326 650 
Q 1584 409 2034 409 
Q 2484 409 2743 651 
Q 3003 894 3003 1313 
Q 3003 1734 2745 1975 
Q 2488 2216 2034 2216 
z
M 1403 2484 
Q 997 2584 770 2862 
Q 544 3141 544 3541 
Q 544 4100 942 4425 
Q 1341 4750 2034 4750 
Q 2731 4750 3128 4425 
Q 3525 4100 3525 3541 
Q 3525 3141 3298 2862 
Q 3072 2584 2669 2484 
Q 3125 2378 3379 2068 
Q 3634 1759 3634 1313 
Q 3634 634 3220 271 
Q 2806 -91 2034 -91 
Q 1263 -91 848 271 
Q 434 634 434 1313 
Q 434 1759 690 2068 
Q 947 2378 1403 2484 
z
M 1172 3481 
Q 1172 3119 1398 2916 
Q 1625 2713 2034 2713 
Q 2441 2713 2670 2916 
Q 2900 3119 2900 3481 
Q 2900 3844 2670 4047 
Q 2441 4250 2034 4250 
Q 1625 4250 1398 4047 
Q 1172 3844 1172 3481 
z
" transform="scale(0.015625)"/>
     </defs>
     <use xlink:href="#DejaVuSans-57"/>
     <use xlink:href="#DejaVuSans-20" x="98.876953"/>
     <use xlink:href="#DejaVuSans-5b" x="130.664062"/>
     <use xlink:href="#DejaVuSans-38" x="169.677734"/>
     <use xlink:href="#DejaVuSans-5d" x="233.300781"/>
    </g>
   </g>
   <g id="text_20">
    <!-- Y [12] -->
    <g transform="translate(316.052976 171.059005) scale(0.1 -0.1)">
     <defs>
      <path id="DejaVuSans-59" d="M -13 4666 
L 666 4666 
L 1959 2747 
L 3244 4666 
L 3922 4666 
L 2272 2222 
L 2272 0 
L 1638 0 
L 1638 2222 
L -13 4666 
z
" transform="scale(0.015625)"/>
     </defs>
     <use xlink:href="#DejaVuSans-59"/>
     <use xlink:href="#DejaVuSans-20" x="61.083984"/>
     <use xlink:href="#DejaVuSans-5b" x="92.871094"/>
     <use xlink:href="#DejaVuSans-31" x="131.884766"/>
     <use xlink:href="#DejaVuSans-32" x="195.507812"/>
     <use xlink:href="#DejaVuSans-5d" x="259.130859"/>
    </g>
   </g>
   <g id="text_21">
    <!-- A0A452DVD8 [340] -->
    <g transform="translate(117.302842 152.693268) scale(0.12 -0.12)">
     <use xlink:href="#DejaVuSans-41"/>
     <use xlink:href="#DejaVuSans-30" x="68.408203"/>
     <use xlink:href="#DejaVuSans-41" x="132.03125"/>
     <use xlink:href="#DejaVuSans-34" x="200.439453"/>
     <use xlink:href="#DejaVuSans-35" x="264.0625"/>
     <use xlink:href="#DejaVuSans-32" x="327.685547"/>
     <use xlink:href="#DejaVuSans-44" x="391.308594"/>
     <use xlink:href="#DejaVuSans-56" x="466.560547"/>
     <use xlink:href="#DejaVuSans-44" x="534.96875"/>
     <use xlink:href="#DejaVuSans-38" x="611.970703"/>
     <use xlink:href="#DejaVuSans-20" x="675.59375"/>
     <use xlink:href="#DejaVuSans-5b" x="707.380859"/>
     <use xlink:href="#DejaVuSans-33" x="746.394531"/>
     <use xlink:href="#DejaVuSans-34" x="810.017578"/>
     <use xlink:href="#DejaVuSans-30" x="873.640625"/>
     <use xlink:href="#DejaVuSans-5d" x="937.263672"/>
    </g>
   </g>
  </g>
 </g>
</svg>
