<?xml version="1.0" encoding="utf-8" standalone="no"?>
<!DOCTYPE svg PUBLIC "-//W3C//DTD SVG 1.1//EN"
  "http://www.w3.org/Graphics/SVG/1.1/DTD/svg11.dtd">
<svg xmlns:xlink="http://www.w3.org/1999/xlink" width="353.653345pt" height="305.487989pt" viewBox="0 0 353.653345 305.487989" xmlns="http://www.w3.org/2000/svg" version="1.1">
 <metadata>
  <rdf:RDF xmlns:dc="http://purl.org/dc/elements/1.1/" xmlns:cc="http://creativecommons.org/ns#" xmlns:rdf="http://www.w3.org/1999/02/22-rdf-syntax-ns#">
   <cc:Work>
    <dc:type rdf:resource="http://purl.org/dc/dcmitype/StillImage"/>
    <dc:date>2024-09-27T16:07:28.463190</dc:date>
    <dc:format>image/svg+xml</dc:format>
    <dc:creator>
     <cc:Agent>
      <dc:title>Matplotlib v3.8.3, https://matplotlib.org/</dc:title>
     </cc:Agent>
    </dc:creator>
   </cc:Work>
  </rdf:RDF>
 </metadata>
 <defs>
  <style type="text/css">*{stroke-linejoin: round; stroke-linecap: butt}</style>
 </defs>
 <g id="figure_1">
  <g id="patch_1">
   <path d="M 0 305.487989 
L 353.653345 305.487989 
L 353.653345 0 
L 0 0 
z
" style="fill: #ffffff"/>
  </g>
  <g id="axes_1">
   <g id="patch_2">
    <path d="M 304.589861 152.86257 
C 304.589861 145.360719 303.928981 137.87343 302.614889 130.487569 
C 301.300797 123.101709 299.338594 115.845951 296.751046 108.804477 
L 176.856101 152.86257 
z
" style="fill: #1f77b4"/>
   </g>
   <g id="patch_3">
    <path d="M 296.717574 108.691188 
C 296.037049 106.839281 295.313708 105.003389 294.548134 103.184991 
C 293.78256 101.366594 292.974958 99.566178 292.125978 97.785192 
L 176.822629 152.749281 
z
" style="fill: #ff7f0e"/>
   </g>
   <g id="patch_4">
    <path d="M 292.100029 97.732031 
C 290.911406 95.238545 289.642212 92.784272 288.294449 90.373083 
C 286.946686 87.961894 285.521062 85.595059 284.019828 83.27631 
L 176.79668 152.69612 
z
" style="fill: #aec7e8"/>
   </g>
   <g id="patch_5">
    <path d="M 283.979365 83.214443 
C 282.263623 80.564374 280.450224 77.978824 278.542904 75.46312 
C 276.635584 72.947415 274.635655 70.503286 272.547236 68.135767 
L 176.756217 152.634253 
z
" style="fill: #ffbb78"/>
   </g>
   <g id="patch_6">
    <path d="M 272.406136 68.006573 
C 264.300552 58.817744 254.914809 50.84284 244.537773 44.327306 
C 234.160738 37.811772 222.899971 32.823144 211.102049 29.514958 
L 176.615117 152.505059 
z
" style="fill: #98df8a"/>
   </g>
   <g id="patch_7">
    <path d="M 210.904974 29.440458 
C 206.344687 28.161735 201.716808 27.137633 197.042781 26.372899 
C 192.368753 25.608165 187.655808 25.103981 182.925785 24.862684 
L 176.418042 152.430559 
z
" style="fill: #2ca02c"/>
   </g>
   <g id="patch_8">
    <path d="M 182.817659 24.856163 
C 178.876283 24.655098 174.927705 24.636801 170.984634 24.801333 
C 167.041564 24.965865 163.108236 25.313047 159.197311 25.841764 
L 176.309917 152.424038 
z
" style="fill: #d62728"/>
   </g>
   <g id="patch_9">
    <path d="M 159.001674 25.887918 
C 146.859169 27.529458 135.015795 30.909659 123.836057 35.924489 
C 112.656319 40.939319 102.2561 47.536796 92.955488 55.513868 
L 176.11428 152.470192 
z
" style="fill: #9467bd"/>
   </g>
   <g id="patch_10">
    <path d="M 92.767728 55.654856 
C 87.6735 60.024141 82.931539 64.788126 78.585906 69.902545 
C 74.240272 75.016964 70.304468 80.465927 66.815064 86.198803 
L 175.92652 152.61118 
z
" style="fill: #ff9896"/>
   </g>
   <g id="patch_11">
    <path d="M 66.6929 86.474565 
C 57.427695 101.696727 51.449676 118.690664 49.144146 136.361056 
C 46.838616 154.031448 48.256197 171.990319 53.30552 189.080157 
L 175.804355 152.886941 
z
" style="fill: #c5b0d5"/>
   </g>
   <g id="patch_12">
    <path d="M 53.339005 189.346407 
C 54.457241 193.131168 55.750281 196.862074 57.21396 200.527114 
C 58.677639 204.192154 60.310387 207.787392 62.106948 211.301257 
L 175.83784 153.153191 
z
" style="fill: #c49c94"/>
   </g>
   <g id="patch_13">
    <path d="M 62.177103 211.425412 
C 65.59216 218.10487 69.589019 224.47051 74.121308 230.44848 
C 78.653598 236.42645 83.703722 241.993541 89.21309 247.085165 
L 175.907995 153.277346 
z
" style="fill: #8c564b"/>
   </g>
   <g id="patch_14">
    <path d="M 89.313693 247.186235 
C 92.212009 249.864788 95.232904 252.407581 98.366655 254.80643 
C 101.500406 257.20528 104.743648 259.457609 108.085941 261.556169 
L 176.008598 153.378416 
z
" style="fill: #e377c2"/>
   </g>
   <g id="patch_15">
    <path d="M 108.160602 261.604017 
C 110.834264 263.282756 113.569244 264.861798 116.359907 266.337888 
C 119.150569 267.813977 121.994995 269.186101 124.887326 270.451432 
L 176.083258 153.426264 
z
" style="fill: #7f7f7f"/>
   </g>
   <g id="patch_16">
    <path d="M 124.983005 270.490675 
C 129.683924 272.547223 134.504493 274.31865 139.418501 275.795322 
C 144.332509 277.271995 149.331033 278.451232 154.386894 279.326622 
L 176.178937 153.465507 
z
" style="fill: #f7b6d2"/>
   </g>
   <g id="patch_17">
    <path d="M 154.586858 279.347077 
C 165.488361 281.234602 176.589045 281.697798 187.609899 280.725021 
C 198.630754 279.752244 209.478665 277.351714 219.880977 273.583767 
L 176.378902 153.485962 
z
" style="fill: #c7c7c7"/>
   </g>
   <g id="patch_18">
    <path d="M 220.133703 273.493547 
C 230.163522 269.860525 239.698842 264.985329 248.516741 258.981933 
C 257.334641 252.978537 265.365863 245.894093 272.422648 237.894225 
L 176.631627 153.395742 
z
" style="fill: #dbdb8d"/>
   </g>
   <g id="patch_19">
    <path d="M 272.580303 237.726776 
C 277.804485 231.804424 282.468198 225.41033 286.511501 218.626671 
C 290.554805 211.843013 293.960303 204.698978 296.684228 197.286383 
L 176.789282 153.228292 
z
" style="fill: #bcbd22"/>
   </g>
   <g id="patch_20">
    <path d="M 296.738839 197.159958 
C 297.827755 194.1967 298.806439 191.19409 299.672875 188.158316 
C 300.539312 185.122542 301.292904 182.055689 301.9321 178.964077 
L 176.843893 153.101868 
z
" style="fill: #17becf"/>
   </g>
   <g id="patch_21">
    <path d="M 301.949774 178.872169 
C 302.828759 174.620769 303.490432 170.327321 303.932218 166.008543 
C 304.374003 161.689765 304.595327 157.351272 304.595327 153.009957 
L 176.861567 153.00996 
z
" style="fill: #9edae5"/>
   </g>
   <g id="patch_22">
    <path d="M 250.843466 152.955799 
C 250.843466 148.579719 250.457953 144.212134 249.691399 139.903716 
C 248.924845 135.595297 247.780227 131.362772 246.270824 127.255245 
L 176.332106 152.955799 
z
" style="fill: #ffffff"/>
   </g>
   <g id="patch_23">
    <path d="M 246.270824 127.255245 
C 245.873851 126.174966 245.451902 125.104029 245.005317 124.043297 
C 244.558732 122.982565 244.087631 121.932322 243.592393 120.893414 
L 176.332106 152.955799 
z
" style="fill: #ffffff"/>
   </g>
   <g id="patch_24">
    <path d="M 243.592393 120.893414 
C 242.89903 119.43888 242.158666 118.007221 241.372471 116.600694 
C 240.586276 115.194167 239.754662 113.813513 238.878942 112.46091 
L 176.332106 152.955799 
z
" style="fill: #ffffff"/>
   </g>
   <g id="patch_25">
    <path d="M 238.878942 112.46091 
C 237.878093 110.915037 236.820276 109.406799 235.707673 107.939305 
C 234.59507 106.471811 233.428445 105.046068 232.2102 103.665016 
L 176.332106 152.955799 
z
" style="fill: #ffffff"/>
   </g>
   <g id="patch_26">
    <path d="M 232.2102 103.665016 
C 227.481943 98.304866 222.006926 93.652838 215.953655 89.85211 
C 209.900385 86.051382 203.331604 83.141349 196.449483 81.211574 
L 176.332106 152.955799 
z
" style="fill: #ffffff"/>
   </g>
   <g id="patch_27">
    <path d="M 196.449483 81.211574 
C 193.789316 80.465652 191.089719 79.868259 188.363203 79.422164 
C 185.636687 78.976069 182.887469 78.681962 180.128289 78.541205 
L 176.332106 152.955799 
z
" style="fill: #ffffff"/>
   </g>
   <g id="patch_28">
    <path d="M 180.128289 78.541205 
C 177.829153 78.423917 175.525815 78.413245 173.225691 78.509221 
C 170.925566 78.605198 168.631125 78.807721 166.349752 79.116139 
L 176.332106 152.955799 
z
" style="fill: #ffffff"/>
   </g>
   <g id="patch_29">
    <path d="M 166.349752 79.116139 
C 159.266625 80.073704 152.35799 82.045488 145.836476 84.970806 
C 139.314962 87.896123 133.248167 91.744651 127.822811 96.397943 
L 176.332106 152.955799 
z
" style="fill: #ffffff"/>
   </g>
   <g id="patch_30">
    <path d="M 127.822811 96.397943 
C 124.851178 98.946693 122.085034 101.725684 119.550081 104.709096 
C 117.015128 107.692507 114.719242 110.871068 112.683757 114.215246 
L 176.332106 152.955799 
z
" style="fill: #ffffff"/>
   </g>
   <g id="patch_31">
    <path d="M 112.683757 114.215246 
C 107.279054 123.094841 103.791876 133.00797 102.446984 143.315699 
C 101.102092 153.623428 101.929014 164.099436 104.874452 174.068509 
L 176.332106 152.955799 
z
" style="fill: #ffffff"/>
   </g>
   <g id="patch_32">
    <path d="M 104.874452 174.068509 
C 105.526757 176.276286 106.28103 178.452648 107.134843 180.590588 
C 107.988656 182.728528 108.941092 184.82575 109.989085 186.875505 
L 176.332106 152.955799 
z
" style="fill: #ffffff"/>
   </g>
   <g id="patch_33">
    <path d="M 109.989085 186.875505 
C 111.981202 190.771855 114.312703 194.485145 116.956539 197.972294 
C 119.600374 201.459443 122.54628 204.706913 125.760078 207.677027 
L 176.332106 152.955799 
z
" style="fill: #ffffff"/>
   </g>
   <g id="patch_34">
    <path d="M 125.760078 207.677027 
C 127.450762 209.239516 129.212951 210.722812 131.040972 212.122141 
C 132.868994 213.52147 134.760885 214.835329 136.710556 216.059488 
L 176.332106 152.955799 
z
" style="fill: #ffffff"/>
   </g>
   <g id="patch_35">
    <path d="M 136.710556 216.059488 
C 138.270193 217.038753 139.865598 217.95986 141.493484 218.820913 
C 143.12137 219.681965 144.780619 220.482371 146.467812 221.22048 
L 176.332106 152.955799 
z
" style="fill: #ffffff"/>
   </g>
   <g id="patch_36">
    <path d="M 146.467812 221.22048 
C 149.210015 222.420134 152.022013 223.453466 154.888518 224.314858 
C 157.755023 225.176251 160.670828 225.864139 163.62008 226.374783 
L 176.332106 152.955799 
z
" style="fill: #ffffff"/>
   </g>
   <g id="patch_37">
    <path d="M 163.62008 226.374783 
C 169.979291 227.475839 176.454689 227.746037 182.883521 227.178584 
C 189.312353 226.611131 195.640301 225.210821 201.708317 223.012852 
L 176.332106 152.955799 
z
" style="fill: #ffffff"/>
   </g>
   <g id="patch_38">
    <path d="M 201.708317 223.012852 
C 207.559044 220.89359 213.121314 218.049725 218.265089 214.547744 
C 223.408864 211.045763 228.093743 206.913171 232.210202 202.246581 
L 176.332106 152.955799 
z
" style="fill: #ffffff"/>
   </g>
   <g id="patch_39">
    <path d="M 232.210202 202.246581 
C 235.257641 198.791876 237.97814 195.061988 240.336734 191.104854 
C 242.695328 187.147719 244.681868 182.980366 246.270824 178.656352 
L 176.332106 152.955799 
z
" style="fill: #ffffff"/>
   </g>
   <g id="patch_40">
    <path d="M 246.270824 178.656352 
C 246.906025 176.927785 247.476924 175.176262 247.982345 173.405394 
C 248.487766 171.634526 248.927362 169.845528 249.300227 168.042088 
L 176.332106 152.955799 
z
" style="fill: #ffffff"/>
   </g>
   <g id="patch_41">
    <path d="M 249.300227 168.042088 
C 249.812968 165.562105 250.198944 163.057593 250.456652 160.538306 
C 250.71436 158.019019 250.843466 155.488231 250.843466 152.955797 
L 176.332106 152.955799 
z
" style="fill: #ffffff"/>
   </g>
   <g id="matplotlib.axis_1"/>
   <g id="matplotlib.axis_2"/>
   <g id="text_1">
    <!-- A [19] -->
    <g transform="translate(315.190768 131.009444) scale(0.1 -0.1)">
     <defs>
      <path id="DejaVuSans-41" d="M 2188 4044 
L 1331 1722 
L 3047 1722 
L 2188 4044 
z
M 1831 4666 
L 2547 4666 
L 4325 0 
L 3669 0 
L 3244 1197 
L 1141 1197 
L 716 0 
L 50 0 
L 1831 4666 
z
" transform="scale(0.015625)"/>
      <path id="DejaVuSans-20" transform="scale(0.015625)"/>
      <path id="DejaVuSans-5b" d="M 550 4863 
L 1875 4863 
L 1875 4416 
L 1125 4416 
L 1125 -397 
L 1875 -397 
L 1875 -844 
L 550 -844 
L 550 4863 
z
" transform="scale(0.015625)"/>
      <path id="DejaVuSans-31" d="M 794 531 
L 1825 531 
L 1825 4091 
L 703 3866 
L 703 4441 
L 1819 4666 
L 2450 4666 
L 2450 531 
L 3481 531 
L 3481 0 
L 794 0 
L 794 531 
z
" transform="scale(0.015625)"/>
      <path id="DejaVuSans-39" d="M 703 97 
L 703 672 
Q 941 559 1184 500 
Q 1428 441 1663 441 
Q 2288 441 2617 861 
Q 2947 1281 2994 2138 
Q 2813 1869 2534 1725 
Q 2256 1581 1919 1581 
Q 1219 1581 811 2004 
Q 403 2428 403 3163 
Q 403 3881 828 4315 
Q 1253 4750 1959 4750 
Q 2769 4750 3195 4129 
Q 3622 3509 3622 2328 
Q 3622 1225 3098 567 
Q 2575 -91 1691 -91 
Q 1453 -91 1209 -44 
Q 966 3 703 97 
z
M 1959 2075 
Q 2384 2075 2632 2365 
Q 2881 2656 2881 3163 
Q 2881 3666 2632 3958 
Q 2384 4250 1959 4250 
Q 1534 4250 1286 3958 
Q 1038 3666 1038 3163 
Q 1038 2656 1286 2365 
Q 1534 2075 1959 2075 
z
" transform="scale(0.015625)"/>
      <path id="DejaVuSans-5d" d="M 1947 4863 
L 1947 -844 
L 622 -844 
L 622 -397 
L 1369 -397 
L 1369 4416 
L 622 4416 
L 622 4863 
L 1947 4863 
z
" transform="scale(0.015625)"/>
     </defs>
     <use xlink:href="#DejaVuSans-41"/>
     <use xlink:href="#DejaVuSans-20" x="68.408203"/>
     <use xlink:href="#DejaVuSans-5b" x="100.195312"/>
     <use xlink:href="#DejaVuSans-31" x="139.208984"/>
     <use xlink:href="#DejaVuSans-39" x="202.832031"/>
     <use xlink:href="#DejaVuSans-5d" x="266.455078"/>
    </g>
   </g>
   <g id="text_2">
    <!-- C [5] -->
    <g transform="translate(306.320685 100.987938) scale(0.1 -0.1)">
     <defs>
      <path id="DejaVuSans-43" d="M 4122 4306 
L 4122 3641 
Q 3803 3938 3442 4084 
Q 3081 4231 2675 4231 
Q 1875 4231 1450 3742 
Q 1025 3253 1025 2328 
Q 1025 1406 1450 917 
Q 1875 428 2675 428 
Q 3081 428 3442 575 
Q 3803 722 4122 1019 
L 4122 359 
Q 3791 134 3420 21 
Q 3050 -91 2638 -91 
Q 1578 -91 968 557 
Q 359 1206 359 2328 
Q 359 3453 968 4101 
Q 1578 4750 2638 4750 
Q 3056 4750 3426 4639 
Q 3797 4528 4122 4306 
z
" transform="scale(0.015625)"/>
      <path id="DejaVuSans-35" d="M 691 4666 
L 3169 4666 
L 3169 4134 
L 1269 4134 
L 1269 2991 
Q 1406 3038 1543 3061 
Q 1681 3084 1819 3084 
Q 2600 3084 3056 2656 
Q 3513 2228 3513 1497 
Q 3513 744 3044 326 
Q 2575 -91 1722 -91 
Q 1428 -91 1123 -41 
Q 819 9 494 109 
L 494 744 
Q 775 591 1075 516 
Q 1375 441 1709 441 
Q 2250 441 2565 725 
Q 2881 1009 2881 1497 
Q 2881 1984 2565 2268 
Q 2250 2553 1709 2553 
Q 1456 2553 1204 2497 
Q 953 2441 691 2322 
L 691 4666 
z
" transform="scale(0.015625)"/>
     </defs>
     <use xlink:href="#DejaVuSans-43"/>
     <use xlink:href="#DejaVuSans-20" x="69.824219"/>
     <use xlink:href="#DejaVuSans-5b" x="101.611328"/>
     <use xlink:href="#DejaVuSans-35" x="140.625"/>
     <use xlink:href="#DejaVuSans-5d" x="204.248047"/>
    </g>
   </g>
   <g id="text_3">
    <!-- D [7] -->
    <g transform="translate(299.444226 86.900154) scale(0.1 -0.1)">
     <defs>
      <path id="DejaVuSans-44" d="M 1259 4147 
L 1259 519 
L 2022 519 
Q 2988 519 3436 956 
Q 3884 1394 3884 2338 
Q 3884 3275 3436 3711 
Q 2988 4147 2022 4147 
L 1259 4147 
z
M 628 4666 
L 1925 4666 
Q 3281 4666 3915 4102 
Q 4550 3538 4550 2338 
Q 4550 1131 3912 565 
Q 3275 0 1925 0 
L 628 0 
L 628 4666 
z
" transform="scale(0.015625)"/>
      <path id="DejaVuSans-37" d="M 525 4666 
L 3525 4666 
L 3525 4397 
L 1831 0 
L 1172 0 
L 2766 4134 
L 525 4134 
L 525 4666 
z
" transform="scale(0.015625)"/>
     </defs>
     <use xlink:href="#DejaVuSans-44"/>
     <use xlink:href="#DejaVuSans-20" x="77.001953"/>
     <use xlink:href="#DejaVuSans-5b" x="108.789062"/>
     <use xlink:href="#DejaVuSans-37" x="147.802734"/>
     <use xlink:href="#DejaVuSans-5d" x="211.425781"/>
    </g>
   </g>
   <g id="text_4">
    <!-- E [8] -->
    <g transform="translate(288.721573 70.505381) scale(0.1 -0.1)">
     <defs>
      <path id="DejaVuSans-45" d="M 628 4666 
L 3578 4666 
L 3578 4134 
L 1259 4134 
L 1259 2753 
L 3481 2753 
L 3481 2222 
L 1259 2222 
L 1259 531 
L 3634 531 
L 3634 0 
L 628 0 
L 628 4666 
z
" transform="scale(0.015625)"/>
      <path id="DejaVuSans-38" d="M 2034 2216 
Q 1584 2216 1326 1975 
Q 1069 1734 1069 1313 
Q 1069 891 1326 650 
Q 1584 409 2034 409 
Q 2484 409 2743 651 
Q 3003 894 3003 1313 
Q 3003 1734 2745 1975 
Q 2488 2216 2034 2216 
z
M 1403 2484 
Q 997 2584 770 2862 
Q 544 3141 544 3541 
Q 544 4100 942 4425 
Q 1341 4750 2034 4750 
Q 2731 4750 3128 4425 
Q 3525 4100 3525 3541 
Q 3525 3141 3298 2862 
Q 3072 2584 2669 2484 
Q 3125 2378 3379 2068 
Q 3634 1759 3634 1313 
Q 3634 634 3220 271 
Q 2806 -91 2034 -91 
Q 1263 -91 848 271 
Q 434 634 434 1313 
Q 434 1759 690 2068 
Q 947 2378 1403 2484 
z
M 1172 3481 
Q 1172 3119 1398 2916 
Q 1625 2713 2034 2713 
Q 2441 2713 2670 2916 
Q 2900 3119 2900 3481 
Q 2900 3844 2670 4047 
Q 2441 4250 2034 4250 
Q 1625 4250 1398 4047 
Q 1172 3844 1172 3481 
z
" transform="scale(0.015625)"/>
     </defs>
     <use xlink:href="#DejaVuSans-45"/>
     <use xlink:href="#DejaVuSans-20" x="63.183594"/>
     <use xlink:href="#DejaVuSans-5b" x="94.970703"/>
     <use xlink:href="#DejaVuSans-38" x="133.984375"/>
     <use xlink:href="#DejaVuSans-5d" x="197.607422"/>
    </g>
   </g>
   <g id="text_5">
    <!-- F [31] -->
    <g transform="translate(251.330039 36.268906) scale(0.1 -0.1)">
     <defs>
      <path id="DejaVuSans-46" d="M 628 4666 
L 3309 4666 
L 3309 4134 
L 1259 4134 
L 1259 2759 
L 3109 2759 
L 3109 2228 
L 1259 2228 
L 1259 0 
L 628 0 
L 628 4666 
z
" transform="scale(0.015625)"/>
      <path id="DejaVuSans-33" d="M 2597 2516 
Q 3050 2419 3304 2112 
Q 3559 1806 3559 1356 
Q 3559 666 3084 287 
Q 2609 -91 1734 -91 
Q 1441 -91 1130 -33 
Q 819 25 488 141 
L 488 750 
Q 750 597 1062 519 
Q 1375 441 1716 441 
Q 2309 441 2620 675 
Q 2931 909 2931 1356 
Q 2931 1769 2642 2001 
Q 2353 2234 1838 2234 
L 1294 2234 
L 1294 2753 
L 1863 2753 
Q 2328 2753 2575 2939 
Q 2822 3125 2822 3475 
Q 2822 3834 2567 4026 
Q 2313 4219 1838 4219 
Q 1578 4219 1281 4162 
Q 984 4106 628 3988 
L 628 4550 
Q 988 4650 1302 4700 
Q 1616 4750 1894 4750 
Q 2613 4750 3031 4423 
Q 3450 4097 3450 3541 
Q 3450 3153 3228 2886 
Q 3006 2619 2597 2516 
z
" transform="scale(0.015625)"/>
     </defs>
     <use xlink:href="#DejaVuSans-46"/>
     <use xlink:href="#DejaVuSans-20" x="57.519531"/>
     <use xlink:href="#DejaVuSans-5b" x="89.306641"/>
     <use xlink:href="#DejaVuSans-33" x="128.320312"/>
     <use xlink:href="#DejaVuSans-31" x="191.943359"/>
     <use xlink:href="#DejaVuSans-5d" x="255.566406"/>
    </g>
   </g>
   <g id="text_6">
    <!-- G [12] -->
    <g transform="translate(199.105255 16.526508) scale(0.1 -0.1)">
     <defs>
      <path id="DejaVuSans-47" d="M 3809 666 
L 3809 1919 
L 2778 1919 
L 2778 2438 
L 4434 2438 
L 4434 434 
Q 4069 175 3628 42 
Q 3188 -91 2688 -91 
Q 1594 -91 976 548 
Q 359 1188 359 2328 
Q 359 3472 976 4111 
Q 1594 4750 2688 4750 
Q 3144 4750 3555 4637 
Q 3966 4525 4313 4306 
L 4313 3634 
Q 3963 3931 3569 4081 
Q 3175 4231 2741 4231 
Q 1884 4231 1454 3753 
Q 1025 3275 1025 2328 
Q 1025 1384 1454 906 
Q 1884 428 2741 428 
Q 3075 428 3337 486 
Q 3600 544 3809 666 
z
" transform="scale(0.015625)"/>
      <path id="DejaVuSans-32" d="M 1228 531 
L 3431 531 
L 3431 0 
L 469 0 
L 469 531 
Q 828 903 1448 1529 
Q 2069 2156 2228 2338 
Q 2531 2678 2651 2914 
Q 2772 3150 2772 3378 
Q 2772 3750 2511 3984 
Q 2250 4219 1831 4219 
Q 1534 4219 1204 4116 
Q 875 4013 500 3803 
L 500 4441 
Q 881 4594 1212 4672 
Q 1544 4750 1819 4750 
Q 2544 4750 2975 4387 
Q 3406 4025 3406 3419 
Q 3406 3131 3298 2873 
Q 3191 2616 2906 2266 
Q 2828 2175 2409 1742 
Q 1991 1309 1228 531 
z
" transform="scale(0.015625)"/>
     </defs>
     <use xlink:href="#DejaVuSans-47"/>
     <use xlink:href="#DejaVuSans-20" x="77.490234"/>
     <use xlink:href="#DejaVuSans-5b" x="109.277344"/>
     <use xlink:href="#DejaVuSans-31" x="148.291016"/>
     <use xlink:href="#DejaVuSans-32" x="211.914062"/>
     <use xlink:href="#DejaVuSans-5d" x="275.537109"/>
    </g>
   </g>
   <g id="text_7">
    <!-- H [10] -->
    <g transform="translate(139.225543 14.798437) scale(0.1 -0.1)">
     <defs>
      <path id="DejaVuSans-48" d="M 628 4666 
L 1259 4666 
L 1259 2753 
L 3553 2753 
L 3553 4666 
L 4184 4666 
L 4184 0 
L 3553 0 
L 3553 2222 
L 1259 2222 
L 1259 0 
L 628 0 
L 628 4666 
z
" transform="scale(0.015625)"/>
      <path id="DejaVuSans-30" d="M 2034 4250 
Q 1547 4250 1301 3770 
Q 1056 3291 1056 2328 
Q 1056 1369 1301 889 
Q 1547 409 2034 409 
Q 2525 409 2770 889 
Q 3016 1369 3016 2328 
Q 3016 3291 2770 3770 
Q 2525 4250 2034 4250 
z
M 2034 4750 
Q 2819 4750 3233 4129 
Q 3647 3509 3647 2328 
Q 3647 1150 3233 529 
Q 2819 -91 2034 -91 
Q 1250 -91 836 529 
Q 422 1150 422 2328 
Q 422 3509 836 4129 
Q 1250 4750 2034 4750 
z
" transform="scale(0.015625)"/>
     </defs>
     <use xlink:href="#DejaVuSans-48"/>
     <use xlink:href="#DejaVuSans-20" x="75.195312"/>
     <use xlink:href="#DejaVuSans-5b" x="106.982422"/>
     <use xlink:href="#DejaVuSans-31" x="145.996094"/>
     <use xlink:href="#DejaVuSans-30" x="209.619141"/>
     <use xlink:href="#DejaVuSans-5d" x="273.242188"/>
    </g>
   </g>
   <g id="text_8">
    <!-- I [31] -->
    <g transform="translate(91.951985 27.029294) scale(0.1 -0.1)">
     <defs>
      <path id="DejaVuSans-49" d="M 628 4666 
L 1259 4666 
L 1259 0 
L 628 0 
L 628 4666 
z
" transform="scale(0.015625)"/>
     </defs>
     <use xlink:href="#DejaVuSans-49"/>
     <use xlink:href="#DejaVuSans-20" x="29.492188"/>
     <use xlink:href="#DejaVuSans-5b" x="61.279297"/>
     <use xlink:href="#DejaVuSans-33" x="100.292969"/>
     <use xlink:href="#DejaVuSans-31" x="163.916016"/>
     <use xlink:href="#DejaVuSans-5d" x="227.539062"/>
    </g>
   </g>
   <g id="text_9">
    <!-- K [17] -->
    <g transform="translate(38.587782 64.391057) scale(0.1 -0.1)">
     <defs>
      <path id="DejaVuSans-4b" d="M 628 4666 
L 1259 4666 
L 1259 2694 
L 3353 4666 
L 4166 4666 
L 1850 2491 
L 4331 0 
L 3500 0 
L 1259 2247 
L 1259 0 
L 628 0 
L 628 4666 
z
" transform="scale(0.015625)"/>
     </defs>
     <use xlink:href="#DejaVuSans-4b"/>
     <use xlink:href="#DejaVuSans-20" x="65.576172"/>
     <use xlink:href="#DejaVuSans-5b" x="97.363281"/>
     <use xlink:href="#DejaVuSans-31" x="136.376953"/>
     <use xlink:href="#DejaVuSans-37" x="200"/>
     <use xlink:href="#DejaVuSans-5d" x="263.623047"/>
    </g>
   </g>
   <g id="text_10">
    <!-- L [45] -->
    <g transform="translate(7.2 137.467842) scale(0.1 -0.1)">
     <defs>
      <path id="DejaVuSans-4c" d="M 628 4666 
L 1259 4666 
L 1259 531 
L 3531 531 
L 3531 0 
L 628 0 
L 628 4666 
z
" transform="scale(0.015625)"/>
      <path id="DejaVuSans-34" d="M 2419 4116 
L 825 1625 
L 2419 1625 
L 2419 4116 
z
M 2253 4666 
L 3047 4666 
L 3047 1625 
L 3713 1625 
L 3713 1100 
L 3047 1100 
L 3047 0 
L 2419 0 
L 2419 1100 
L 313 1100 
L 313 1709 
L 2253 4666 
z
" transform="scale(0.015625)"/>
     </defs>
     <use xlink:href="#DejaVuSans-4c"/>
     <use xlink:href="#DejaVuSans-20" x="55.712891"/>
     <use xlink:href="#DejaVuSans-5b" x="87.5"/>
     <use xlink:href="#DejaVuSans-34" x="126.513672"/>
     <use xlink:href="#DejaVuSans-35" x="190.136719"/>
     <use xlink:href="#DejaVuSans-5d" x="253.759766"/>
    </g>
   </g>
   <g id="text_11">
    <!-- M [10] -->
    <g transform="translate(13.017197 208.023881) scale(0.1 -0.1)">
     <defs>
      <path id="DejaVuSans-4d" d="M 628 4666 
L 1569 4666 
L 2759 1491 
L 3956 4666 
L 4897 4666 
L 4897 0 
L 4281 0 
L 4281 4097 
L 3078 897 
L 2444 897 
L 1241 4097 
L 1241 0 
L 628 0 
L 628 4666 
z
" transform="scale(0.015625)"/>
     </defs>
     <use xlink:href="#DejaVuSans-4d"/>
     <use xlink:href="#DejaVuSans-20" x="86.279297"/>
     <use xlink:href="#DejaVuSans-5b" x="118.066406"/>
     <use xlink:href="#DejaVuSans-31" x="157.080078"/>
     <use xlink:href="#DejaVuSans-30" x="220.703125"/>
     <use xlink:href="#DejaVuSans-5d" x="284.326172"/>
    </g>
   </g>
   <g id="text_12">
    <!-- N [19] -->
    <g transform="translate(32.75514 240.924968) scale(0.1 -0.1)">
     <defs>
      <path id="DejaVuSans-4e" d="M 628 4666 
L 1478 4666 
L 3547 763 
L 3547 4666 
L 4159 4666 
L 4159 0 
L 3309 0 
L 1241 3903 
L 1241 0 
L 628 0 
L 628 4666 
z
" transform="scale(0.015625)"/>
     </defs>
     <use xlink:href="#DejaVuSans-4e"/>
     <use xlink:href="#DejaVuSans-20" x="74.804688"/>
     <use xlink:href="#DejaVuSans-5b" x="106.591797"/>
     <use xlink:href="#DejaVuSans-31" x="145.605469"/>
     <use xlink:href="#DejaVuSans-39" x="209.228516"/>
     <use xlink:href="#DejaVuSans-5d" x="272.851562"/>
    </g>
   </g>
   <g id="text_13">
    <!-- P [10] -->
    <g transform="translate(60.866523 267.708607) scale(0.1 -0.1)">
     <defs>
      <path id="DejaVuSans-50" d="M 1259 4147 
L 1259 2394 
L 2053 2394 
Q 2494 2394 2734 2622 
Q 2975 2850 2975 3272 
Q 2975 3691 2734 3919 
Q 2494 4147 2053 4147 
L 1259 4147 
z
M 628 4666 
L 2053 4666 
Q 2838 4666 3239 4311 
Q 3641 3956 3641 3272 
Q 3641 2581 3239 2228 
Q 2838 1875 2053 1875 
L 1259 1875 
L 1259 0 
L 628 0 
L 628 4666 
z
" transform="scale(0.015625)"/>
     </defs>
     <use xlink:href="#DejaVuSans-50"/>
     <use xlink:href="#DejaVuSans-20" x="60.302734"/>
     <use xlink:href="#DejaVuSans-5b" x="92.089844"/>
     <use xlink:href="#DejaVuSans-31" x="131.103516"/>
     <use xlink:href="#DejaVuSans-30" x="194.726562"/>
     <use xlink:href="#DejaVuSans-5d" x="258.349609"/>
    </g>
   </g>
   <g id="text_14">
    <!-- Q [8] -->
    <g transform="translate(85.171946 280.388425) scale(0.1 -0.1)">
     <defs>
      <path id="DejaVuSans-51" d="M 2522 4238 
Q 1834 4238 1429 3725 
Q 1025 3213 1025 2328 
Q 1025 1447 1429 934 
Q 1834 422 2522 422 
Q 3209 422 3611 934 
Q 4013 1447 4013 2328 
Q 4013 3213 3611 3725 
Q 3209 4238 2522 4238 
z
M 3406 84 
L 4238 -825 
L 3475 -825 
L 2784 -78 
Q 2681 -84 2626 -87 
Q 2572 -91 2522 -91 
Q 1538 -91 948 567 
Q 359 1225 359 2328 
Q 359 3434 948 4092 
Q 1538 4750 2522 4750 
Q 3503 4750 4090 4092 
Q 4678 3434 4678 2328 
Q 4678 1516 4351 937 
Q 4025 359 3406 84 
z
" transform="scale(0.015625)"/>
     </defs>
     <use xlink:href="#DejaVuSans-51"/>
     <use xlink:href="#DejaVuSans-20" x="78.710938"/>
     <use xlink:href="#DejaVuSans-5b" x="110.498047"/>
     <use xlink:href="#DejaVuSans-38" x="149.511719"/>
     <use xlink:href="#DejaVuSans-5d" x="213.134766"/>
    </g>
   </g>
   <g id="text_15">
    <!-- R [13] -->
    <g transform="translate(105.08777 290.787679) scale(0.1 -0.1)">
     <defs>
      <path id="DejaVuSans-52" d="M 2841 2188 
Q 3044 2119 3236 1894 
Q 3428 1669 3622 1275 
L 4263 0 
L 3584 0 
L 2988 1197 
Q 2756 1666 2539 1819 
Q 2322 1972 1947 1972 
L 1259 1972 
L 1259 0 
L 628 0 
L 628 4666 
L 2053 4666 
Q 2853 4666 3247 4331 
Q 3641 3997 3641 3322 
Q 3641 2881 3436 2590 
Q 3231 2300 2841 2188 
z
M 1259 4147 
L 1259 2491 
L 2053 2491 
Q 2509 2491 2742 2702 
Q 2975 2913 2975 3322 
Q 2975 3731 2742 3939 
Q 2509 4147 2053 4147 
L 1259 4147 
z
" transform="scale(0.015625)"/>
     </defs>
     <use xlink:href="#DejaVuSans-52"/>
     <use xlink:href="#DejaVuSans-20" x="69.482422"/>
     <use xlink:href="#DejaVuSans-5b" x="101.269531"/>
     <use xlink:href="#DejaVuSans-31" x="140.283203"/>
     <use xlink:href="#DejaVuSans-33" x="203.90625"/>
     <use xlink:href="#DejaVuSans-5d" x="267.529297"/>
    </g>
   </g>
   <g id="text_16">
    <!-- S [28] -->
    <g transform="translate(188.732999 296.208302) scale(0.1 -0.1)">
     <defs>
      <path id="DejaVuSans-53" d="M 3425 4513 
L 3425 3897 
Q 3066 4069 2747 4153 
Q 2428 4238 2131 4238 
Q 1616 4238 1336 4038 
Q 1056 3838 1056 3469 
Q 1056 3159 1242 3001 
Q 1428 2844 1947 2747 
L 2328 2669 
Q 3034 2534 3370 2195 
Q 3706 1856 3706 1288 
Q 3706 609 3251 259 
Q 2797 -91 1919 -91 
Q 1588 -91 1214 -16 
Q 841 59 441 206 
L 441 856 
Q 825 641 1194 531 
Q 1563 422 1919 422 
Q 2459 422 2753 634 
Q 3047 847 3047 1241 
Q 3047 1584 2836 1778 
Q 2625 1972 2144 2069 
L 1759 2144 
Q 1053 2284 737 2584 
Q 422 2884 422 3419 
Q 422 4038 858 4394 
Q 1294 4750 2059 4750 
Q 2388 4750 2728 4690 
Q 3069 4631 3425 4513 
z
" transform="scale(0.015625)"/>
     </defs>
     <use xlink:href="#DejaVuSans-53"/>
     <use xlink:href="#DejaVuSans-20" x="63.476562"/>
     <use xlink:href="#DejaVuSans-5b" x="95.263672"/>
     <use xlink:href="#DejaVuSans-32" x="134.277344"/>
     <use xlink:href="#DejaVuSans-38" x="197.900391"/>
     <use xlink:href="#DejaVuSans-5d" x="261.523438"/>
    </g>
   </g>
   <g id="text_17">
    <!-- T [27] -->
    <g transform="translate(255.705253 272.299927) scale(0.1 -0.1)">
     <defs>
      <path id="DejaVuSans-54" d="M -19 4666 
L 3928 4666 
L 3928 4134 
L 2272 4134 
L 2272 0 
L 1638 0 
L 1638 4134 
L -19 4134 
L -19 4666 
z
" transform="scale(0.015625)"/>
     </defs>
     <use xlink:href="#DejaVuSans-54"/>
     <use xlink:href="#DejaVuSans-20" x="61.083984"/>
     <use xlink:href="#DejaVuSans-5b" x="92.871094"/>
     <use xlink:href="#DejaVuSans-32" x="131.884766"/>
     <use xlink:href="#DejaVuSans-37" x="195.507812"/>
     <use xlink:href="#DejaVuSans-5d" x="259.130859"/>
    </g>
   </g>
   <g id="text_18">
    <!-- V [20] -->
    <g transform="translate(297.483723 227.925884) scale(0.1 -0.1)">
     <defs>
      <path id="DejaVuSans-56" d="M 1831 0 
L 50 4666 
L 709 4666 
L 2188 738 
L 3669 4666 
L 4325 4666 
L 2547 0 
L 1831 0 
z
" transform="scale(0.015625)"/>
     </defs>
     <use xlink:href="#DejaVuSans-56"/>
     <use xlink:href="#DejaVuSans-20" x="68.408203"/>
     <use xlink:href="#DejaVuSans-5b" x="100.195312"/>
     <use xlink:href="#DejaVuSans-32" x="139.208984"/>
     <use xlink:href="#DejaVuSans-30" x="202.832031"/>
     <use xlink:href="#DejaVuSans-5d" x="266.455078"/>
    </g>
   </g>
   <g id="text_19">
    <!-- W [8] -->
    <g transform="translate(311.955774 194.423336) scale(0.1 -0.1)">
     <defs>
      <path id="DejaVuSans-57" d="M 213 4666 
L 850 4666 
L 1831 722 
L 2809 4666 
L 3519 4666 
L 4500 722 
L 5478 4666 
L 6119 4666 
L 4947 0 
L 4153 0 
L 3169 4050 
L 2175 0 
L 1381 0 
L 213 4666 
z
" transform="scale(0.015625)"/>
     </defs>
     <use xlink:href="#DejaVuSans-57"/>
     <use xlink:href="#DejaVuSans-20" x="98.876953"/>
     <use xlink:href="#DejaVuSans-5b" x="130.664062"/>
     <use xlink:href="#DejaVuSans-38" x="169.677734"/>
     <use xlink:href="#DejaVuSans-5d" x="233.300781"/>
    </g>
   </g>
   <g id="text_20">
    <!-- Y [11] -->
    <g transform="translate(316.639283 170.067776) scale(0.1 -0.1)">
     <defs>
      <path id="DejaVuSans-59" d="M -13 4666 
L 666 4666 
L 1959 2747 
L 3244 4666 
L 3922 4666 
L 2272 2222 
L 2272 0 
L 1638 0 
L 1638 2222 
L -13 4666 
z
" transform="scale(0.015625)"/>
     </defs>
     <use xlink:href="#DejaVuSans-59"/>
     <use xlink:href="#DejaVuSans-20" x="61.083984"/>
     <use xlink:href="#DejaVuSans-5b" x="92.871094"/>
     <use xlink:href="#DejaVuSans-31" x="131.884766"/>
     <use xlink:href="#DejaVuSans-31" x="195.507812"/>
     <use xlink:href="#DejaVuSans-5d" x="259.130859"/>
    </g>
   </g>
   <g id="text_21">
    <!-- A0A5F5XF72 [339] -->
    <g transform="translate(119.982731 152.955799) scale(0.12 -0.12)">
     <defs>
      <path id="DejaVuSans-58" d="M 403 4666 
L 1081 4666 
L 2241 2931 
L 3406 4666 
L 4084 4666 
L 2584 2425 
L 4184 0 
L 3506 0 
L 2194 1984 
L 872 0 
L 191 0 
L 1856 2491 
L 403 4666 
z
" transform="scale(0.015625)"/>
     </defs>
     <use xlink:href="#DejaVuSans-41"/>
     <use xlink:href="#DejaVuSans-30" x="68.408203"/>
     <use xlink:href="#DejaVuSans-41" x="132.03125"/>
     <use xlink:href="#DejaVuSans-35" x="200.439453"/>
     <use xlink:href="#DejaVuSans-46" x="264.0625"/>
     <use xlink:href="#DejaVuSans-35" x="321.582031"/>
     <use xlink:href="#DejaVuSans-58" x="385.205078"/>
     <use xlink:href="#DejaVuSans-46" x="453.710938"/>
     <use xlink:href="#DejaVuSans-37" x="511.230469"/>
     <use xlink:href="#DejaVuSans-32" x="574.853516"/>
     <use xlink:href="#DejaVuSans-20" x="638.476562"/>
     <use xlink:href="#DejaVuSans-5b" x="670.263672"/>
     <use xlink:href="#DejaVuSans-33" x="709.277344"/>
     <use xlink:href="#DejaVuSans-33" x="772.900391"/>
     <use xlink:href="#DejaVuSans-39" x="836.523438"/>
     <use xlink:href="#DejaVuSans-5d" x="900.146484"/>
    </g>
   </g>
  </g>
 </g>
</svg>
