<?xml version="1.0" encoding="utf-8" standalone="no"?>
<!DOCTYPE svg PUBLIC "-//W3C//DTD SVG 1.1//EN"
  "http://www.w3.org/Graphics/SVG/1.1/DTD/svg11.dtd">
<svg xmlns:xlink="http://www.w3.org/1999/xlink" width="354.340031pt" height="304.09973pt" viewBox="0 0 354.340031 304.09973" xmlns="http://www.w3.org/2000/svg" version="1.1">
 <metadata>
  <rdf:RDF xmlns:dc="http://purl.org/dc/elements/1.1/" xmlns:cc="http://creativecommons.org/ns#" xmlns:rdf="http://www.w3.org/1999/02/22-rdf-syntax-ns#">
   <cc:Work>
    <dc:type rdf:resource="http://purl.org/dc/dcmitype/StillImage"/>
    <dc:date>2024-09-27T16:07:30.027661</dc:date>
    <dc:format>image/svg+xml</dc:format>
    <dc:creator>
     <cc:Agent>
      <dc:title>Matplotlib v3.8.3, https://matplotlib.org/</dc:title>
     </cc:Agent>
    </dc:creator>
   </cc:Work>
  </rdf:RDF>
 </metadata>
 <defs>
  <style type="text/css">*{stroke-linejoin: round; stroke-linecap: butt}</style>
 </defs>
 <g id="figure_1">
  <g id="patch_1">
   <path d="M -0 304.09973 
L 354.340031 304.09973 
L 354.340031 0 
L -0 0 
z
" style="fill: #ffffff"/>
  </g>
  <g id="axes_1">
   <g id="patch_2">
    <path d="M 305.584312 152.646728 
C 305.584312 145.2519 304.942154 137.87102 303.665079 130.587302 
C 302.388003 123.303584 300.480828 116.144503 297.965054 109.190774 
L 177.850552 152.646728 
z
" style="fill: #1f77b4"/>
   </g>
   <g id="patch_3">
    <path d="M 297.913565 109.038187 
C 296.027252 103.82432 293.803457 98.7388 291.256296 93.813908 
C 288.709135 88.889016 285.844009 84.135193 282.679104 79.582615 
L 177.799063 152.494141 
z
" style="fill: #ff7f0e"/>
   </g>
   <g id="patch_4">
    <path d="M 282.618329 79.490147 
C 280.719814 76.759217 278.71536 74.10348 276.609548 71.529011 
C 274.503737 68.954541 272.298175 66.463302 269.997907 64.06099 
L 177.738288 152.401672 
z
" style="fill: #aec7e8"/>
   </g>
   <g id="patch_5">
    <path d="M 269.919325 63.983087 
C 266.084679 59.97833 261.993343 56.227496 257.671288 52.754396 
C 253.349233 49.281295 248.805622 46.09329 244.069295 43.210617 
L 177.659706 152.323769 
z
" style="fill: #ffbb78"/>
   </g>
   <g id="patch_6">
    <path d="M 243.921317 43.126603 
C 236.971885 38.896967 229.634241 35.340904 222.00844 32.506902 
C 214.382638 29.672901 206.5035 27.573902 198.478465 26.238527 
L 177.511728 152.239755 
z
" style="fill: #98df8a"/>
   </g>
   <g id="patch_7">
    <path d="M 198.329984 26.206472 
C 194.319748 25.539165 190.279939 25.063688 186.224356 24.781666 
C 182.168773 24.499644 178.102037 24.411398 174.038037 24.517229 
L 177.363246 152.2077 
z
" style="fill: #2ca02c"/>
   </g>
   <g id="patch_8">
    <path d="M 173.941198 24.51933 
C 170.246774 24.615537 166.558266 24.872033 162.886085 25.288094 
C 159.213904 25.704155 155.561509 26.279389 151.93921 27.012171 
L 177.266407 152.209801 
z
" style="fill: #d62728"/>
   </g>
   <g id="patch_9">
    <path d="M 151.750534 27.070413 
C 139.778437 29.492341 128.215398 33.619053 117.415089 39.324328 
C 106.61478 45.029603 96.688451 52.254673 87.939715 60.778548 
L 177.07773 152.268043 
z
" style="fill: #9467bd"/>
   </g>
   <g id="patch_10">
    <path d="M 87.743549 60.956828 
C 81.120522 67.409629 75.21772 74.562567 70.13901 82.28978 
C 65.060299 90.016993 60.835642 98.272892 57.539377 106.912207 
L 176.881564 152.446323 
z
" style="fill: #ff9896"/>
   </g>
   <g id="patch_11">
    <path d="M 57.452635 107.176825 
C 52.701036 119.630481 49.927942 132.751499 49.234188 146.062771 
C 48.540435 159.374043 49.934535 172.712246 53.365795 185.592374 
L 176.794822 152.710941 
z
" style="fill: #c5b0d5"/>
   </g>
   <g id="patch_12">
    <path d="M 53.406922 185.826944 
C 54.92945 191.542147 56.847092 197.144708 59.146002 202.594172 
C 61.444911 208.043636 64.119542 213.326854 67.150581 218.405677 
L 176.83595 152.945511 
z
" style="fill: #c49c94"/>
   </g>
   <g id="patch_13">
    <path d="M 67.231932 218.539339 
C 70.642214 224.253624 74.493833 229.692682 78.751603 234.806826 
C 83.009372 239.920969 87.660287 244.694576 92.661858 249.084037 
L 176.917301 153.079174 
z
" style="fill: #8c564b"/>
   </g>
   <g id="patch_14">
    <path d="M 92.770887 249.183125 
C 96.660217 252.596465 100.753377 255.770308 105.027731 258.687101 
C 109.302084 261.603894 113.749738 264.258251 118.346095 266.635493 
L 177.026331 153.178262 
z
" style="fill: #e377c2"/>
   </g>
   <g id="patch_15">
    <path d="M 118.452055 266.691467 
C 122.391469 268.728937 126.434327 270.559852 130.564198 272.176769 
C 134.69407 273.793686 138.905354 275.194414 143.180934 276.373258 
L 177.132291 153.234236 
z
" style="fill: #7f7f7f"/>
   </g>
   <g id="patch_16">
    <path d="M 143.292166 276.403408 
C 147.924226 277.680539 152.624661 278.695291 157.371054 279.442824 
C 162.117446 280.190357 166.902239 280.669481 171.702615 280.87791 
L 177.243523 153.264385 
z
" style="fill: #f7b6d2"/>
   </g>
   <g id="patch_17">
    <path d="M 171.872778 280.877172 
C 180.740661 281.262211 189.624575 280.721857 198.380419 279.264875 
C 207.136264 277.807894 215.71644 275.442205 223.981774 272.206182 
L 177.413686 153.263647 
z
" style="fill: #c7c7c7"/>
   </g>
   <g id="patch_18">
    <path d="M 224.194407 272.120797 
C 233.14992 268.614557 241.680861 264.108078 249.624914 258.687104 
C 257.568967 253.266131 264.875427 246.965263 271.405277 239.904385 
L 177.626319 153.178262 
z
" style="fill: #dbdb8d"/>
   </g>
   <g id="patch_19">
    <path d="M 271.56697 239.729542 
C 278.09682 232.668665 283.808382 224.892846 288.592982 216.550032 
C 293.377583 208.207219 297.204684 199.350662 300.001468 190.148873 
L 177.788012 153.003419 
z
" style="fill: #bcbd22"/>
   </g>
   <g id="patch_20">
    <path d="M 300.05286 190.025559 
C 300.375228 188.964923 300.683777 187.900135 300.978425 186.831466 
C 301.273074 185.762798 301.553799 184.690338 301.820528 183.614361 
L 177.839404 152.880106 
z
" style="fill: #17becf"/>
   </g>
   <g id="patch_21">
    <path d="M 301.835749 183.537403 
C 303.080849 178.514703 304.019581 173.42098 304.646755 168.284402 
C 305.273929 163.147824 305.588385 157.977877 305.588385 152.803152 
L 177.854625 152.803147 
z
" style="fill: #9edae5"/>
   </g>
   <g id="patch_22">
    <path d="M 251.837685 152.738642 
C 251.837685 148.424993 251.463093 144.119479 250.718132 139.870644 
C 249.973171 135.621808 248.860652 131.445678 247.393117 127.389336 
L 177.326325 152.738642 
z
" style="fill: #ffffff"/>
   </g>
   <g id="patch_23">
    <path d="M 247.393117 127.389336 
C 246.292768 124.347913 244.995554 121.38136 243.509711 118.508506 
C 242.023867 115.635652 240.352543 112.862589 238.506348 110.206919 
L 177.326325 152.738642 
z
" style="fill: #ffffff"/>
   </g>
   <g id="patch_24">
    <path d="M 238.506348 110.206919 
C 237.398882 108.613876 236.229616 107.064697 235.001226 105.562922 
C 233.772836 104.061148 232.486259 102.607926 231.144436 101.206577 
L 177.326325 152.738642 
z
" style="fill: #ffffff"/>
   </g>
   <g id="patch_25">
    <path d="M 231.144436 101.206577 
C 228.907559 98.870469 226.520946 96.682483 223.999747 94.656507 
C 221.478549 92.630532 218.828109 90.770862 216.065252 89.089303 
L 177.326325 152.738642 
z
" style="fill: #ffffff"/>
   </g>
   <g id="patch_26">
    <path d="M 216.065252 89.089303 
C 212.011417 86.622016 207.731124 84.547645 203.28274 82.894478 
C 198.834356 81.24131 194.238192 80.016894 189.556922 79.237926 
L 177.326325 152.738642 
z
" style="fill: #ffffff"/>
   </g>
   <g id="patch_27">
    <path d="M 189.556922 79.237926 
C 187.217617 78.848663 184.861062 78.571302 182.495306 78.406789 
C 180.129549 78.242276 177.757286 78.190799 175.386619 78.252534 
L 177.326325 152.738642 
z
" style="fill: #ffffff"/>
   </g>
   <g id="patch_28">
    <path d="M 175.386619 78.252534 
C 173.231539 78.308654 171.079909 78.458277 168.937804 78.700979 
C 166.795698 78.943681 164.665134 79.279234 162.552127 79.706691 
L 177.326325 152.738642 
z
" style="fill: #ffffff"/>
   </g>
   <g id="patch_29">
    <path d="M 162.552127 79.706691 
C 155.568404 81.119482 148.823297 83.526731 142.523117 86.854808 
C 136.222937 90.182885 130.432579 94.39751 125.329149 99.36977 
L 177.326325 152.738642 
z
" style="fill: #ffffff"/>
   </g>
   <g id="patch_30">
    <path d="M 125.329149 99.36977 
C 121.465717 103.133904 118.022416 107.306451 115.059835 111.813992 
C 112.097253 116.321533 109.63287 121.137474 107.710049 126.177074 
L 177.326325 152.738642 
z
" style="fill: #ffffff"/>
   </g>
   <g id="patch_31">
    <path d="M 107.710049 126.177074 
C 104.938283 133.441707 103.320644 141.095634 102.915955 148.860543 
C 102.511266 156.625451 103.32449 164.406069 105.326059 171.919478 
L 177.326325 152.738642 
z
" style="fill: #ffffff"/>
   </g>
   <g id="patch_32">
    <path d="M 105.326059 171.919478 
C 106.2142 175.253346 107.332824 178.521507 108.673855 181.700361 
C 110.014886 184.879214 111.575087 187.961092 113.343193 190.923738 
L 177.326325 152.738642 
z
" style="fill: #ffffff"/>
   </g>
   <g id="patch_33">
    <path d="M 113.343193 190.923738 
C 115.332524 194.257071 117.579302 197.429855 120.063001 200.413106 
C 122.5467 203.396356 125.259733 206.18096 128.177316 208.741479 
L 177.326325 152.738642 
z
" style="fill: #ffffff"/>
   </g>
   <g id="patch_34">
    <path d="M 128.177316 208.741479 
C 130.446092 210.732594 132.833769 212.584002 135.327141 214.285464 
C 137.820514 215.986927 140.414979 217.535302 143.096187 218.922027 
L 177.326325 152.738642 
z
" style="fill: #ffffff"/>
   </g>
   <g id="patch_35">
    <path d="M 143.096187 218.922027 
C 145.394178 220.110551 147.752512 221.178584 150.161604 222.121786 
C 152.570696 223.064988 155.027278 223.882079 157.521367 224.569738 
L 177.326325 152.738642 
z
" style="fill: #ffffff"/>
   </g>
   <g id="patch_36">
    <path d="M 157.521367 224.569738 
C 160.223402 225.314732 162.965322 225.90667 165.734051 226.342731 
C 168.50278 226.778792 171.293909 227.058281 174.094128 227.179865 
L 177.326325 152.738642 
z
" style="fill: #ffffff"/>
   </g>
   <g id="patch_37">
    <path d="M 174.094128 227.179865 
C 179.26706 227.404471 184.449343 227.089264 189.556919 226.239358 
C 194.664495 225.389453 199.669598 224.009468 204.491043 222.121787 
L 177.326325 152.738642 
z
" style="fill: #ffffff"/>
   </g>
   <g id="patch_38">
    <path d="M 204.491043 222.121787 
C 209.715092 220.07648 214.691474 217.447701 219.325505 214.285466 
C 223.959536 211.123232 228.221638 207.447726 232.030717 203.32888 
L 177.326325 152.738642 
z
" style="fill: #ffffff"/>
   </g>
   <g id="patch_39">
    <path d="M 232.030717 203.32888 
C 235.839796 199.210035 239.17154 194.67414 241.962557 189.807499 
C 244.753574 184.940858 246.98605 179.774534 248.617507 174.406823 
L 177.326325 152.738642 
z
" style="fill: #ffffff"/>
   </g>
   <g id="patch_40">
    <path d="M 248.617507 174.406823 
C 248.805556 173.788119 248.985542 173.166992 249.15742 172.543602 
C 249.329299 171.920212 249.493055 171.294611 249.648647 170.666958 
L 177.326325 152.738642 
z
" style="fill: #ffffff"/>
   </g>
   <g id="patch_41">
    <path d="M 249.648647 170.666958 
C 250.374955 167.73705 250.922549 164.765711 251.2884 161.769374 
C 251.654252 158.773037 251.837685 155.757235 251.837685 152.738645 
L 177.326325 152.738642 
z
" style="fill: #ffffff"/>
   </g>
   <g id="matplotlib.axis_1"/>
   <g id="matplotlib.axis_2"/>
   <g id="text_1">
    <!-- A [20] -->
    <g transform="translate(316.246532 131.140735) scale(0.1 -0.1)">
     <defs>
      <path id="DejaVuSans-41" d="M 2188 4044 
L 1331 1722 
L 3047 1722 
L 2188 4044 
z
M 1831 4666 
L 2547 4666 
L 4325 0 
L 3669 0 
L 3244 1197 
L 1141 1197 
L 716 0 
L 50 0 
L 1831 4666 
z
" transform="scale(0.015625)"/>
      <path id="DejaVuSans-20" transform="scale(0.015625)"/>
      <path id="DejaVuSans-5b" d="M 550 4863 
L 1875 4863 
L 1875 4416 
L 1125 4416 
L 1125 -397 
L 1875 -397 
L 1875 -844 
L 550 -844 
L 550 4863 
z
" transform="scale(0.015625)"/>
      <path id="DejaVuSans-32" d="M 1228 531 
L 3431 531 
L 3431 0 
L 469 0 
L 469 531 
Q 828 903 1448 1529 
Q 2069 2156 2228 2338 
Q 2531 2678 2651 2914 
Q 2772 3150 2772 3378 
Q 2772 3750 2511 3984 
Q 2250 4219 1831 4219 
Q 1534 4219 1204 4116 
Q 875 4013 500 3803 
L 500 4441 
Q 881 4594 1212 4672 
Q 1544 4750 1819 4750 
Q 2544 4750 2975 4387 
Q 3406 4025 3406 3419 
Q 3406 3131 3298 2873 
Q 3191 2616 2906 2266 
Q 2828 2175 2409 1742 
Q 1991 1309 1228 531 
z
" transform="scale(0.015625)"/>
      <path id="DejaVuSans-30" d="M 2034 4250 
Q 1547 4250 1301 3770 
Q 1056 3291 1056 2328 
Q 1056 1369 1301 889 
Q 1547 409 2034 409 
Q 2525 409 2770 889 
Q 3016 1369 3016 2328 
Q 3016 3291 2770 3770 
Q 2525 4250 2034 4250 
z
M 2034 4750 
Q 2819 4750 3233 4129 
Q 3647 3509 3647 2328 
Q 3647 1150 3233 529 
Q 2819 -91 2034 -91 
Q 1250 -91 836 529 
Q 422 1150 422 2328 
Q 422 3509 836 4129 
Q 1250 4750 2034 4750 
z
" transform="scale(0.015625)"/>
      <path id="DejaVuSans-5d" d="M 1947 4863 
L 1947 -844 
L 622 -844 
L 622 -397 
L 1369 -397 
L 1369 4416 
L 622 4416 
L 622 4863 
L 1947 4863 
z
" transform="scale(0.015625)"/>
     </defs>
     <use xlink:href="#DejaVuSans-41"/>
     <use xlink:href="#DejaVuSans-20" x="68.408203"/>
     <use xlink:href="#DejaVuSans-5b" x="100.195312"/>
     <use xlink:href="#DejaVuSans-32" x="139.208984"/>
     <use xlink:href="#DejaVuSans-30" x="202.832031"/>
     <use xlink:href="#DejaVuSans-5d" x="266.455078"/>
    </g>
   </g>
   <g id="text_2">
    <!-- C [15] -->
    <g transform="translate(302.602019 90.705259) scale(0.1 -0.1)">
     <defs>
      <path id="DejaVuSans-43" d="M 4122 4306 
L 4122 3641 
Q 3803 3938 3442 4084 
Q 3081 4231 2675 4231 
Q 1875 4231 1450 3742 
Q 1025 3253 1025 2328 
Q 1025 1406 1450 917 
Q 1875 428 2675 428 
Q 3081 428 3442 575 
Q 3803 722 4122 1019 
L 4122 359 
Q 3791 134 3420 21 
Q 3050 -91 2638 -91 
Q 1578 -91 968 557 
Q 359 1206 359 2328 
Q 359 3453 968 4101 
Q 1578 4750 2638 4750 
Q 3056 4750 3426 4639 
Q 3797 4528 4122 4306 
z
" transform="scale(0.015625)"/>
      <path id="DejaVuSans-31" d="M 794 531 
L 1825 531 
L 1825 4091 
L 703 3866 
L 703 4441 
L 1819 4666 
L 2450 4666 
L 2450 531 
L 3481 531 
L 3481 0 
L 794 0 
L 794 531 
z
" transform="scale(0.015625)"/>
      <path id="DejaVuSans-35" d="M 691 4666 
L 3169 4666 
L 3169 4134 
L 1269 4134 
L 1269 2991 
Q 1406 3038 1543 3061 
Q 1681 3084 1819 3084 
Q 2600 3084 3056 2656 
Q 3513 2228 3513 1497 
Q 3513 744 3044 326 
Q 2575 -91 1722 -91 
Q 1428 -91 1123 -41 
Q 819 9 494 109 
L 494 744 
Q 775 591 1075 516 
Q 1375 441 1709 441 
Q 2250 441 2565 725 
Q 2881 1009 2881 1497 
Q 2881 1984 2565 2268 
Q 2250 2553 1709 2553 
Q 1456 2553 1204 2497 
Q 953 2441 691 2322 
L 691 4666 
z
" transform="scale(0.015625)"/>
     </defs>
     <use xlink:href="#DejaVuSans-43"/>
     <use xlink:href="#DejaVuSans-20" x="69.824219"/>
     <use xlink:href="#DejaVuSans-5b" x="101.611328"/>
     <use xlink:href="#DejaVuSans-31" x="140.625"/>
     <use xlink:href="#DejaVuSans-35" x="204.248047"/>
     <use xlink:href="#DejaVuSans-5d" x="267.871094"/>
    </g>
   </g>
   <g id="text_3">
    <!-- D [9] -->
    <g transform="translate(286.496674 66.201119) scale(0.1 -0.1)">
     <defs>
      <path id="DejaVuSans-44" d="M 1259 4147 
L 1259 519 
L 2022 519 
Q 2988 519 3436 956 
Q 3884 1394 3884 2338 
Q 3884 3275 3436 3711 
Q 2988 4147 2022 4147 
L 1259 4147 
z
M 628 4666 
L 1925 4666 
Q 3281 4666 3915 4102 
Q 4550 3538 4550 2338 
Q 4550 1131 3912 565 
Q 3275 0 1925 0 
L 628 0 
L 628 4666 
z
" transform="scale(0.015625)"/>
      <path id="DejaVuSans-39" d="M 703 97 
L 703 672 
Q 941 559 1184 500 
Q 1428 441 1663 441 
Q 2288 441 2617 861 
Q 2947 1281 2994 2138 
Q 2813 1869 2534 1725 
Q 2256 1581 1919 1581 
Q 1219 1581 811 2004 
Q 403 2428 403 3163 
Q 403 3881 828 4315 
Q 1253 4750 1959 4750 
Q 2769 4750 3195 4129 
Q 3622 3509 3622 2328 
Q 3622 1225 3098 567 
Q 2575 -91 1691 -91 
Q 1453 -91 1209 -44 
Q 966 3 703 97 
z
M 1959 2075 
Q 2384 2075 2632 2365 
Q 2881 2656 2881 3163 
Q 2881 3666 2632 3958 
Q 2384 4250 1959 4250 
Q 1534 4250 1286 3958 
Q 1038 3666 1038 3163 
Q 1038 2656 1286 2365 
Q 1534 2075 1959 2075 
z
" transform="scale(0.015625)"/>
     </defs>
     <use xlink:href="#DejaVuSans-44"/>
     <use xlink:href="#DejaVuSans-20" x="77.001953"/>
     <use xlink:href="#DejaVuSans-5b" x="108.789062"/>
     <use xlink:href="#DejaVuSans-39" x="147.802734"/>
     <use xlink:href="#DejaVuSans-5d" x="211.425781"/>
    </g>
   </g>
   <g id="text_4">
    <!-- E [15] -->
    <g transform="translate(265.672446 45.556833) scale(0.1 -0.1)">
     <defs>
      <path id="DejaVuSans-45" d="M 628 4666 
L 3578 4666 
L 3578 4134 
L 1259 4134 
L 1259 2753 
L 3481 2753 
L 3481 2222 
L 1259 2222 
L 1259 531 
L 3634 531 
L 3634 0 
L 628 0 
L 628 4666 
z
" transform="scale(0.015625)"/>
     </defs>
     <use xlink:href="#DejaVuSans-45"/>
     <use xlink:href="#DejaVuSans-20" x="63.183594"/>
     <use xlink:href="#DejaVuSans-5b" x="94.970703"/>
     <use xlink:href="#DejaVuSans-31" x="133.984375"/>
     <use xlink:href="#DejaVuSans-35" x="197.607422"/>
     <use xlink:href="#DejaVuSans-5d" x="261.230469"/>
    </g>
   </g>
   <g id="text_5">
    <!-- F [22] -->
    <g transform="translate(226.458111 23.292992) scale(0.1 -0.1)">
     <defs>
      <path id="DejaVuSans-46" d="M 628 4666 
L 3309 4666 
L 3309 4134 
L 1259 4134 
L 1259 2759 
L 3109 2759 
L 3109 2228 
L 1259 2228 
L 1259 0 
L 628 0 
L 628 4666 
z
" transform="scale(0.015625)"/>
     </defs>
     <use xlink:href="#DejaVuSans-46"/>
     <use xlink:href="#DejaVuSans-20" x="57.519531"/>
     <use xlink:href="#DejaVuSans-5b" x="89.306641"/>
     <use xlink:href="#DejaVuSans-32" x="128.320312"/>
     <use xlink:href="#DejaVuSans-32" x="191.943359"/>
     <use xlink:href="#DejaVuSans-5d" x="255.566406"/>
    </g>
   </g>
   <g id="text_6">
    <!-- G [11] -->
    <g transform="translate(187.110467 14.798438) scale(0.1 -0.1)">
     <defs>
      <path id="DejaVuSans-47" d="M 3809 666 
L 3809 1919 
L 2778 1919 
L 2778 2438 
L 4434 2438 
L 4434 434 
Q 4069 175 3628 42 
Q 3188 -91 2688 -91 
Q 1594 -91 976 548 
Q 359 1188 359 2328 
Q 359 3472 976 4111 
Q 1594 4750 2688 4750 
Q 3144 4750 3555 4637 
Q 3966 4525 4313 4306 
L 4313 3634 
Q 3963 3931 3569 4081 
Q 3175 4231 2741 4231 
Q 1884 4231 1454 3753 
Q 1025 3275 1025 2328 
Q 1025 1384 1454 906 
Q 1884 428 2741 428 
Q 3075 428 3337 486 
Q 3600 544 3809 666 
z
" transform="scale(0.015625)"/>
     </defs>
     <use xlink:href="#DejaVuSans-47"/>
     <use xlink:href="#DejaVuSans-20" x="77.490234"/>
     <use xlink:href="#DejaVuSans-5b" x="109.277344"/>
     <use xlink:href="#DejaVuSans-31" x="148.291016"/>
     <use xlink:href="#DejaVuSans-31" x="211.914062"/>
     <use xlink:href="#DejaVuSans-5d" x="275.537109"/>
    </g>
   </g>
   <g id="text_7">
    <!-- H [10] -->
    <g transform="translate(130.221491 15.355298) scale(0.1 -0.1)">
     <defs>
      <path id="DejaVuSans-48" d="M 628 4666 
L 1259 4666 
L 1259 2753 
L 3553 2753 
L 3553 4666 
L 4184 4666 
L 4184 0 
L 3553 0 
L 3553 2222 
L 1259 2222 
L 1259 0 
L 628 0 
L 628 4666 
z
" transform="scale(0.015625)"/>
     </defs>
     <use xlink:href="#DejaVuSans-48"/>
     <use xlink:href="#DejaVuSans-20" x="75.195312"/>
     <use xlink:href="#DejaVuSans-5b" x="106.982422"/>
     <use xlink:href="#DejaVuSans-31" x="145.996094"/>
     <use xlink:href="#DejaVuSans-30" x="209.619141"/>
     <use xlink:href="#DejaVuSans-5d" x="273.242188"/>
    </g>
   </g>
   <g id="text_8">
    <!-- I [33] -->
    <g transform="translate(84.792575 30.789332) scale(0.1 -0.1)">
     <defs>
      <path id="DejaVuSans-49" d="M 628 4666 
L 1259 4666 
L 1259 0 
L 628 0 
L 628 4666 
z
" transform="scale(0.015625)"/>
      <path id="DejaVuSans-33" d="M 2597 2516 
Q 3050 2419 3304 2112 
Q 3559 1806 3559 1356 
Q 3559 666 3084 287 
Q 2609 -91 1734 -91 
Q 1441 -91 1130 -33 
Q 819 25 488 141 
L 488 750 
Q 750 597 1062 519 
Q 1375 441 1716 441 
Q 2309 441 2620 675 
Q 2931 909 2931 1356 
Q 2931 1769 2642 2001 
Q 2353 2234 1838 2234 
L 1294 2234 
L 1294 2753 
L 1863 2753 
Q 2328 2753 2575 2939 
Q 2822 3125 2822 3475 
Q 2822 3834 2567 4026 
Q 2313 4219 1838 4219 
Q 1578 4219 1281 4162 
Q 984 4106 628 3988 
L 628 4550 
Q 988 4650 1302 4700 
Q 1616 4750 1894 4750 
Q 2613 4750 3031 4423 
Q 3450 4097 3450 3541 
Q 3450 3153 3228 2886 
Q 3006 2619 2597 2516 
z
" transform="scale(0.015625)"/>
     </defs>
     <use xlink:href="#DejaVuSans-49"/>
     <use xlink:href="#DejaVuSans-20" x="29.492188"/>
     <use xlink:href="#DejaVuSans-5b" x="61.279297"/>
     <use xlink:href="#DejaVuSans-33" x="100.292969"/>
     <use xlink:href="#DejaVuSans-33" x="163.916016"/>
     <use xlink:href="#DejaVuSans-5d" x="227.539062"/>
    </g>
   </g>
   <g id="text_9">
    <!-- K [25] -->
    <g transform="translate(29.200692 78.033501) scale(0.1 -0.1)">
     <defs>
      <path id="DejaVuSans-4b" d="M 628 4666 
L 1259 4666 
L 1259 2694 
L 3353 4666 
L 4166 4666 
L 1850 2491 
L 4331 0 
L 3500 0 
L 1259 2247 
L 1259 0 
L 628 0 
L 628 4666 
z
" transform="scale(0.015625)"/>
     </defs>
     <use xlink:href="#DejaVuSans-4b"/>
     <use xlink:href="#DejaVuSans-20" x="65.576172"/>
     <use xlink:href="#DejaVuSans-5b" x="97.363281"/>
     <use xlink:href="#DejaVuSans-32" x="136.376953"/>
     <use xlink:href="#DejaVuSans-35" x="200"/>
     <use xlink:href="#DejaVuSans-5d" x="263.623047"/>
    </g>
   </g>
   <g id="text_10">
    <!-- L [36] -->
    <g transform="translate(7.2 148.157329) scale(0.1 -0.1)">
     <defs>
      <path id="DejaVuSans-4c" d="M 628 4666 
L 1259 4666 
L 1259 531 
L 3531 531 
L 3531 0 
L 628 0 
L 628 4666 
z
" transform="scale(0.015625)"/>
      <path id="DejaVuSans-36" d="M 2113 2584 
Q 1688 2584 1439 2293 
Q 1191 2003 1191 1497 
Q 1191 994 1439 701 
Q 1688 409 2113 409 
Q 2538 409 2786 701 
Q 3034 994 3034 1497 
Q 3034 2003 2786 2293 
Q 2538 2584 2113 2584 
z
M 3366 4563 
L 3366 3988 
Q 3128 4100 2886 4159 
Q 2644 4219 2406 4219 
Q 1781 4219 1451 3797 
Q 1122 3375 1075 2522 
Q 1259 2794 1537 2939 
Q 1816 3084 2150 3084 
Q 2853 3084 3261 2657 
Q 3669 2231 3669 1497 
Q 3669 778 3244 343 
Q 2819 -91 2113 -91 
Q 1303 -91 875 529 
Q 447 1150 447 2328 
Q 447 3434 972 4092 
Q 1497 4750 2381 4750 
Q 2619 4750 2861 4703 
Q 3103 4656 3366 4563 
z
" transform="scale(0.015625)"/>
     </defs>
     <use xlink:href="#DejaVuSans-4c"/>
     <use xlink:href="#DejaVuSans-20" x="55.712891"/>
     <use xlink:href="#DejaVuSans-5b" x="87.5"/>
     <use xlink:href="#DejaVuSans-33" x="126.513672"/>
     <use xlink:href="#DejaVuSans-36" x="190.136719"/>
     <use xlink:href="#DejaVuSans-5d" x="253.759766"/>
    </g>
   </g>
   <g id="text_11">
    <!-- M [16] -->
    <g transform="translate(15.042632 210.318413) scale(0.1 -0.1)">
     <defs>
      <path id="DejaVuSans-4d" d="M 628 4666 
L 1569 4666 
L 2759 1491 
L 3956 4666 
L 4897 4666 
L 4897 0 
L 4281 0 
L 4281 4097 
L 3078 897 
L 2444 897 
L 1241 4097 
L 1241 0 
L 628 0 
L 628 4666 
z
" transform="scale(0.015625)"/>
     </defs>
     <use xlink:href="#DejaVuSans-4d"/>
     <use xlink:href="#DejaVuSans-20" x="86.279297"/>
     <use xlink:href="#DejaVuSans-5b" x="118.066406"/>
     <use xlink:href="#DejaVuSans-31" x="157.080078"/>
     <use xlink:href="#DejaVuSans-36" x="220.703125"/>
     <use xlink:href="#DejaVuSans-5d" x="284.326172"/>
    </g>
   </g>
   <g id="text_12">
    <!-- N [18] -->
    <g transform="translate(37.747533 245.738966) scale(0.1 -0.1)">
     <defs>
      <path id="DejaVuSans-4e" d="M 628 4666 
L 1478 4666 
L 3547 763 
L 3547 4666 
L 4159 4666 
L 4159 0 
L 3309 0 
L 1241 3903 
L 1241 0 
L 628 0 
L 628 4666 
z
" transform="scale(0.015625)"/>
      <path id="DejaVuSans-38" d="M 2034 2216 
Q 1584 2216 1326 1975 
Q 1069 1734 1069 1313 
Q 1069 891 1326 650 
Q 1584 409 2034 409 
Q 2484 409 2743 651 
Q 3003 894 3003 1313 
Q 3003 1734 2745 1975 
Q 2488 2216 2034 2216 
z
M 1403 2484 
Q 997 2584 770 2862 
Q 544 3141 544 3541 
Q 544 4100 942 4425 
Q 1341 4750 2034 4750 
Q 2731 4750 3128 4425 
Q 3525 4100 3525 3541 
Q 3525 3141 3298 2862 
Q 3072 2584 2669 2484 
Q 3125 2378 3379 2068 
Q 3634 1759 3634 1313 
Q 3634 634 3220 271 
Q 2806 -91 2034 -91 
Q 1263 -91 848 271 
Q 434 634 434 1313 
Q 434 1759 690 2068 
Q 947 2378 1403 2484 
z
M 1172 3481 
Q 1172 3119 1398 2916 
Q 1625 2713 2034 2713 
Q 2441 2713 2670 2916 
Q 2900 3119 2900 3481 
Q 2900 3844 2670 4047 
Q 2441 4250 2034 4250 
Q 1625 4250 1398 4047 
Q 1172 3844 1172 3481 
z
" transform="scale(0.015625)"/>
     </defs>
     <use xlink:href="#DejaVuSans-4e"/>
     <use xlink:href="#DejaVuSans-20" x="74.804688"/>
     <use xlink:href="#DejaVuSans-5b" x="106.591797"/>
     <use xlink:href="#DejaVuSans-31" x="145.605469"/>
     <use xlink:href="#DejaVuSans-38" x="209.228516"/>
     <use xlink:href="#DejaVuSans-5d" x="272.851562"/>
    </g>
   </g>
   <g id="text_13">
    <!-- P [14] -->
    <g transform="translate(68.091933 271.99736) scale(0.1 -0.1)">
     <defs>
      <path id="DejaVuSans-50" d="M 1259 4147 
L 1259 2394 
L 2053 2394 
Q 2494 2394 2734 2622 
Q 2975 2850 2975 3272 
Q 2975 3691 2734 3919 
Q 2494 4147 2053 4147 
L 1259 4147 
z
M 628 4666 
L 2053 4666 
Q 2838 4666 3239 4311 
Q 3641 3956 3641 3272 
Q 3641 2581 3239 2228 
Q 2838 1875 2053 1875 
L 1259 1875 
L 1259 0 
L 628 0 
L 628 4666 
z
" transform="scale(0.015625)"/>
      <path id="DejaVuSans-34" d="M 2419 4116 
L 825 1625 
L 2419 1625 
L 2419 4116 
z
M 2253 4666 
L 3047 4666 
L 3047 1625 
L 3713 1625 
L 3713 1100 
L 3047 1100 
L 3047 0 
L 2419 0 
L 2419 1100 
L 313 1100 
L 313 1709 
L 2253 4666 
z
" transform="scale(0.015625)"/>
     </defs>
     <use xlink:href="#DejaVuSans-50"/>
     <use xlink:href="#DejaVuSans-20" x="60.302734"/>
     <use xlink:href="#DejaVuSans-5b" x="92.089844"/>
     <use xlink:href="#DejaVuSans-31" x="131.103516"/>
     <use xlink:href="#DejaVuSans-34" x="194.726562"/>
     <use xlink:href="#DejaVuSans-5d" x="258.349609"/>
    </g>
   </g>
   <g id="text_14">
    <!-- Q [12] -->
    <g transform="translate(94.329264 286.830397) scale(0.1 -0.1)">
     <defs>
      <path id="DejaVuSans-51" d="M 2522 4238 
Q 1834 4238 1429 3725 
Q 1025 3213 1025 2328 
Q 1025 1447 1429 934 
Q 1834 422 2522 422 
Q 3209 422 3611 934 
Q 4013 1447 4013 2328 
Q 4013 3213 3611 3725 
Q 3209 4238 2522 4238 
z
M 3406 84 
L 4238 -825 
L 3475 -825 
L 2784 -78 
Q 2681 -84 2626 -87 
Q 2572 -91 2522 -91 
Q 1538 -91 948 567 
Q 359 1225 359 2328 
Q 359 3434 948 4092 
Q 1538 4750 2522 4750 
Q 3503 4750 4090 4092 
Q 4678 3434 4678 2328 
Q 4678 1516 4351 937 
Q 4025 359 3406 84 
z
" transform="scale(0.015625)"/>
     </defs>
     <use xlink:href="#DejaVuSans-51"/>
     <use xlink:href="#DejaVuSans-20" x="78.710938"/>
     <use xlink:href="#DejaVuSans-5b" x="110.498047"/>
     <use xlink:href="#DejaVuSans-31" x="149.511719"/>
     <use xlink:href="#DejaVuSans-32" x="213.134766"/>
     <use xlink:href="#DejaVuSans-5d" x="276.757812"/>
    </g>
   </g>
   <g id="text_15">
    <!-- R [13] -->
    <g transform="translate(124.729119 294.820043) scale(0.1 -0.1)">
     <defs>
      <path id="DejaVuSans-52" d="M 2841 2188 
Q 3044 2119 3236 1894 
Q 3428 1669 3622 1275 
L 4263 0 
L 3584 0 
L 2988 1197 
Q 2756 1666 2539 1819 
Q 2322 1972 1947 1972 
L 1259 1972 
L 1259 0 
L 628 0 
L 628 4666 
L 2053 4666 
Q 2853 4666 3247 4331 
Q 3641 3997 3641 3322 
Q 3641 2881 3436 2590 
Q 3231 2300 2841 2188 
z
M 1259 4147 
L 1259 2491 
L 2053 2491 
Q 2509 2491 2742 2702 
Q 2975 2913 2975 3322 
Q 2975 3731 2742 3939 
Q 2509 4147 2053 4147 
L 1259 4147 
z
" transform="scale(0.015625)"/>
     </defs>
     <use xlink:href="#DejaVuSans-52"/>
     <use xlink:href="#DejaVuSans-20" x="69.482422"/>
     <use xlink:href="#DejaVuSans-5b" x="101.269531"/>
     <use xlink:href="#DejaVuSans-31" x="140.283203"/>
     <use xlink:href="#DejaVuSans-33" x="203.90625"/>
     <use xlink:href="#DejaVuSans-5d" x="267.529297"/>
    </g>
   </g>
   <g id="text_16">
    <!-- S [24] -->
    <g transform="translate(200.477093 294.624373) scale(0.1 -0.1)">
     <defs>
      <path id="DejaVuSans-53" d="M 3425 4513 
L 3425 3897 
Q 3066 4069 2747 4153 
Q 2428 4238 2131 4238 
Q 1616 4238 1336 4038 
Q 1056 3838 1056 3469 
Q 1056 3159 1242 3001 
Q 1428 2844 1947 2747 
L 2328 2669 
Q 3034 2534 3370 2195 
Q 3706 1856 3706 1288 
Q 3706 609 3251 259 
Q 2797 -91 1919 -91 
Q 1588 -91 1214 -16 
Q 841 59 441 206 
L 441 856 
Q 825 641 1194 531 
Q 1563 422 1919 422 
Q 2459 422 2753 634 
Q 3047 847 3047 1241 
Q 3047 1584 2836 1778 
Q 2625 1972 2144 2069 
L 1759 2144 
Q 1053 2284 737 2584 
Q 422 2884 422 3419 
Q 422 4038 858 4394 
Q 1294 4750 2059 4750 
Q 2388 4750 2728 4690 
Q 3069 4631 3425 4513 
z
" transform="scale(0.015625)"/>
     </defs>
     <use xlink:href="#DejaVuSans-53"/>
     <use xlink:href="#DejaVuSans-20" x="63.476562"/>
     <use xlink:href="#DejaVuSans-5b" x="95.263672"/>
     <use xlink:href="#DejaVuSans-32" x="134.277344"/>
     <use xlink:href="#DejaVuSans-34" x="197.900391"/>
     <use xlink:href="#DejaVuSans-5d" x="261.523438"/>
    </g>
   </g>
   <g id="text_17">
    <!-- T [26] -->
    <g transform="translate(256.824773 271.997363) scale(0.1 -0.1)">
     <defs>
      <path id="DejaVuSans-54" d="M -19 4666 
L 3928 4666 
L 3928 4134 
L 2272 4134 
L 2272 0 
L 1638 0 
L 1638 4134 
L -19 4134 
L -19 4666 
z
" transform="scale(0.015625)"/>
     </defs>
     <use xlink:href="#DejaVuSans-54"/>
     <use xlink:href="#DejaVuSans-20" x="61.083984"/>
     <use xlink:href="#DejaVuSans-5b" x="92.871094"/>
     <use xlink:href="#DejaVuSans-32" x="131.884766"/>
     <use xlink:href="#DejaVuSans-36" x="195.507812"/>
     <use xlink:href="#DejaVuSans-5d" x="259.130859"/>
    </g>
   </g>
   <g id="text_18">
    <!-- V [26] -->
    <g transform="translate(299.673479 225.664069) scale(0.1 -0.1)">
     <defs>
      <path id="DejaVuSans-56" d="M 1831 0 
L 50 4666 
L 709 4666 
L 2188 738 
L 3669 4666 
L 4325 4666 
L 2547 0 
L 1831 0 
z
" transform="scale(0.015625)"/>
     </defs>
     <use xlink:href="#DejaVuSans-56"/>
     <use xlink:href="#DejaVuSans-20" x="68.408203"/>
     <use xlink:href="#DejaVuSans-5b" x="100.195312"/>
     <use xlink:href="#DejaVuSans-32" x="139.208984"/>
     <use xlink:href="#DejaVuSans-36" x="202.832031"/>
     <use xlink:href="#DejaVuSans-5d" x="266.455078"/>
    </g>
   </g>
   <g id="text_19">
    <!-- W [3] -->
    <g transform="translate(313.292327 192.985977) scale(0.1 -0.1)">
     <defs>
      <path id="DejaVuSans-57" d="M 213 4666 
L 850 4666 
L 1831 722 
L 2809 4666 
L 3519 4666 
L 4500 722 
L 5478 4666 
L 6119 4666 
L 4947 0 
L 4153 0 
L 3169 4050 
L 2175 0 
L 1381 0 
L 213 4666 
z
" transform="scale(0.015625)"/>
     </defs>
     <use xlink:href="#DejaVuSans-57"/>
     <use xlink:href="#DejaVuSans-20" x="98.876953"/>
     <use xlink:href="#DejaVuSans-5b" x="130.664062"/>
     <use xlink:href="#DejaVuSans-33" x="169.677734"/>
     <use xlink:href="#DejaVuSans-5d" x="233.300781"/>
    </g>
   </g>
   <g id="text_20">
    <!-- Y [14] -->
    <g transform="translate(317.325968 172.591903) scale(0.1 -0.1)">
     <defs>
      <path id="DejaVuSans-59" d="M -13 4666 
L 666 4666 
L 1959 2747 
L 3244 4666 
L 3922 4666 
L 2272 2222 
L 2272 0 
L 1638 0 
L 1638 2222 
L -13 4666 
z
" transform="scale(0.015625)"/>
     </defs>
     <use xlink:href="#DejaVuSans-59"/>
     <use xlink:href="#DejaVuSans-20" x="61.083984"/>
     <use xlink:href="#DejaVuSans-5b" x="92.871094"/>
     <use xlink:href="#DejaVuSans-31" x="131.884766"/>
     <use xlink:href="#DejaVuSans-34" x="195.507812"/>
     <use xlink:href="#DejaVuSans-5d" x="259.130859"/>
    </g>
   </g>
   <g id="text_21">
    <!-- A0A5F5XJU1 [362] -->
    <g transform="translate(122.084137 152.738642) scale(0.12 -0.12)">
     <defs>
      <path id="DejaVuSans-58" d="M 403 4666 
L 1081 4666 
L 2241 2931 
L 3406 4666 
L 4084 4666 
L 2584 2425 
L 4184 0 
L 3506 0 
L 2194 1984 
L 872 0 
L 191 0 
L 1856 2491 
L 403 4666 
z
" transform="scale(0.015625)"/>
      <path id="DejaVuSans-4a" d="M 628 4666 
L 1259 4666 
L 1259 325 
Q 1259 -519 939 -900 
Q 619 -1281 -91 -1281 
L -331 -1281 
L -331 -750 
L -134 -750 
Q 284 -750 456 -515 
Q 628 -281 628 325 
L 628 4666 
z
" transform="scale(0.015625)"/>
      <path id="DejaVuSans-55" d="M 556 4666 
L 1191 4666 
L 1191 1831 
Q 1191 1081 1462 751 
Q 1734 422 2344 422 
Q 2950 422 3222 751 
Q 3494 1081 3494 1831 
L 3494 4666 
L 4128 4666 
L 4128 1753 
Q 4128 841 3676 375 
Q 3225 -91 2344 -91 
Q 1459 -91 1007 375 
Q 556 841 556 1753 
L 556 4666 
z
" transform="scale(0.015625)"/>
     </defs>
     <use xlink:href="#DejaVuSans-41"/>
     <use xlink:href="#DejaVuSans-30" x="68.408203"/>
     <use xlink:href="#DejaVuSans-41" x="132.03125"/>
     <use xlink:href="#DejaVuSans-35" x="200.439453"/>
     <use xlink:href="#DejaVuSans-46" x="264.0625"/>
     <use xlink:href="#DejaVuSans-35" x="321.582031"/>
     <use xlink:href="#DejaVuSans-58" x="385.205078"/>
     <use xlink:href="#DejaVuSans-4a" x="453.710938"/>
     <use xlink:href="#DejaVuSans-55" x="483.203125"/>
     <use xlink:href="#DejaVuSans-31" x="556.396484"/>
     <use xlink:href="#DejaVuSans-20" x="620.019531"/>
     <use xlink:href="#DejaVuSans-5b" x="651.806641"/>
     <use xlink:href="#DejaVuSans-33" x="690.820312"/>
     <use xlink:href="#DejaVuSans-36" x="754.443359"/>
     <use xlink:href="#DejaVuSans-32" x="818.066406"/>
     <use xlink:href="#DejaVuSans-5d" x="881.689453"/>
    </g>
   </g>
  </g>
 </g>
</svg>
