<?xml version="1.0" encoding="utf-8" standalone="no"?>
<!DOCTYPE svg PUBLIC "-//W3C//DTD SVG 1.1//EN"
  "http://www.w3.org/Graphics/SVG/1.1/DTD/svg11.dtd">
<svg xmlns:xlink="http://www.w3.org/1999/xlink" width="355.119439pt" height="305.034693pt" viewBox="0 0 355.119439 305.034693" xmlns="http://www.w3.org/2000/svg" version="1.1">
 <metadata>
  <rdf:RDF xmlns:dc="http://purl.org/dc/elements/1.1/" xmlns:cc="http://creativecommons.org/ns#" xmlns:rdf="http://www.w3.org/1999/02/22-rdf-syntax-ns#">
   <cc:Work>
    <dc:type rdf:resource="http://purl.org/dc/dcmitype/StillImage"/>
    <dc:date>2024-09-27T16:07:29.713306</dc:date>
    <dc:format>image/svg+xml</dc:format>
    <dc:creator>
     <cc:Agent>
      <dc:title>Matplotlib v3.8.3, https://matplotlib.org/</dc:title>
     </cc:Agent>
    </dc:creator>
   </cc:Work>
  </rdf:RDF>
 </metadata>
 <defs>
  <style type="text/css">*{stroke-linejoin: round; stroke-linecap: butt}</style>
 </defs>
 <g id="figure_1">
  <g id="patch_1">
   <path d="M 0 305.034693 
L 355.119439 305.034693 
L 355.119439 0 
L 0 0 
z
" style="fill: #ffffff"/>
  </g>
  <g id="axes_1">
   <g id="patch_2">
    <path d="M 306.711453 152.67812 
C 306.711453 145.281344 306.068957 137.898526 304.791212 130.612947 
C 303.513467 123.327368 301.605297 116.166525 299.088224 109.211193 
L 178.977693 152.67812 
z
" style="fill: #1f77b4"/>
   </g>
   <g id="patch_3">
    <path d="M 299.047796 109.08131 
C 297.849772 105.770853 296.515396 102.51134 295.048088 99.311122 
C 293.580779 96.110904 291.981793 92.972716 290.255224 89.904598 
L 178.937265 152.548237 
z
" style="fill: #ff7f0e"/>
   </g>
   <g id="patch_4">
    <path d="M 290.214567 89.831647 
C 288.660698 87.070415 287.004628 84.367955 285.249794 81.729874 
C 283.494961 79.091793 281.642579 76.519917 279.696492 74.019586 
L 178.896608 152.475285 
z
" style="fill: #aec7e8"/>
   </g>
   <g id="patch_5">
    <path d="M 279.65083 73.960416 
C 277.921018 71.737953 276.118176 69.573306 274.245261 67.470026 
C 272.372346 65.366746 270.430383 63.325983 268.422556 61.351084 
L 178.850946 152.416116 
z
" style="fill: #ffbb78"/>
   </g>
   <g id="patch_6">
    <path d="M 268.316179 61.259466 
C 262.288312 55.330453 255.686622 50.014565 248.608313 45.390075 
C 241.530004 40.765585 234.009987 36.855301 226.158989 33.716799 
L 178.744569 152.324498 
z
" style="fill: #98df8a"/>
   </g>
   <g id="patch_7">
    <path d="M 226.007056 33.648652 
C 221.42978 31.818847 216.750417 30.255544 211.992452 28.966587 
C 207.234487 27.677631 202.405895 26.665181 197.530909 25.934321 
L 178.592636 152.256351 
z
" style="fill: #2ca02c"/>
   </g>
   <g id="patch_8">
    <path d="M 197.426919 25.916968 
C 193.945262 25.394996 190.443513 25.017187 186.930644 24.784511 
C 183.417775 24.551835 179.896788 24.464489 176.376702 24.522698 
L 178.488645 152.238997 
z
" style="fill: #d62728"/>
   </g>
   <g id="patch_9">
    <path d="M 176.156284 24.554812 
C 161.691537 24.794004 147.37198 27.488815 133.809802 32.524037 
C 120.247625 37.559258 107.638888 44.862098 96.522641 54.120347 
L 178.268227 152.271112 
z
" style="fill: #9467bd"/>
   </g>
   <g id="patch_10">
    <path d="M 96.307495 54.268649 
C 91.165693 58.551037 86.368342 63.230855 81.959757 68.264875 
C 77.551171 73.298895 73.544968 78.671568 69.978154 84.333265 
L 178.053081 152.419414 
z
" style="fill: #ff9896"/>
   </g>
   <g id="patch_11">
    <path d="M 69.863703 84.548995 
C 62.907864 95.59018 57.684911 107.632386 54.376956 120.255734 
C 51.069 132.879082 49.714939 145.935133 50.361986 158.968659 
L 177.93863 152.635144 
z
" style="fill: #c5b0d5"/>
   </g>
   <g id="patch_12">
    <path d="M 50.352603 159.195512 
C 50.614494 164.470804 51.203333 169.724777 52.115727 174.927164 
C 53.028121 180.129551 54.262316 185.270342 55.8112 190.319921 
L 177.929247 152.861996 
z
" style="fill: #c49c94"/>
   </g>
   <g id="patch_13">
    <path d="M 55.863222 190.47352 
C 58.135756 197.882297 61.077807 205.068919 64.65296 211.944431 
C 68.228112 218.819944 72.421554 225.355863 77.181381 231.47129 
L 177.981269 153.015595 
z
" style="fill: #8c564b"/>
   </g>
   <g id="patch_14">
    <path d="M 77.271072 231.595818 
C 80.082438 235.207861 83.085922 238.666182 86.268525 241.955811 
C 89.451129 245.245441 92.808253 248.361627 96.325367 251.290882 
L 178.07096 153.140123 
z
" style="fill: #e377c2"/>
   </g>
   <g id="patch_15">
    <path d="M 96.402206 251.356509 
C 99.107413 253.609561 101.904611 255.749809 104.786634 257.771772 
C 107.668657 259.793734 110.633042 261.695682 113.672193 263.472743 
L 178.147798 153.20575 
z
" style="fill: #7f7f7f"/>
   </g>
   <g id="patch_16">
    <path d="M 113.784397 263.532866 
C 119.56093 266.910535 125.593959 269.829068 131.827757 272.261503 
C 138.061555 274.693939 144.476867 276.632766 151.014433 278.060073 
L 178.260002 153.265873 
z
" style="fill: #f7b6d2"/>
   </g>
   <g id="patch_17">
    <path d="M 151.264992 278.093411 
C 164.706297 281.027971 178.533859 281.77175 192.212395 280.295956 
C 205.890932 278.820162 219.24163 275.144087 231.747668 269.410037 
L 178.510561 153.299211 
z
" style="fill: #c7c7c7"/>
   </g>
   <g id="patch_18">
    <path d="M 231.99984 269.314033 
C 239.364833 265.937166 246.391852 261.867194 252.985853 257.159169 
C 259.579854 252.451143 265.710973 247.126386 271.296283 241.256916 
L 178.762733 153.203208 
z
" style="fill: #dbdb8d"/>
   </g>
   <g id="patch_19">
    <path d="M 271.434971 241.111172 
C 277.020281 235.241703 282.034486 228.854104 286.409766 222.034773 
C 290.785046 215.215442 294.501586 207.995262 297.509117 200.471891 
L 178.901421 153.057463 
z
" style="fill: #bcbd22"/>
   </g>
   <g id="patch_20">
    <path d="M 297.564552 200.357299 
C 298.348576 198.396056 299.083833 196.415668 299.769646 194.417963 
C 300.45546 192.420258 301.091618 190.405849 301.677534 188.376596 
L 178.956857 152.942871 
z
" style="fill: #17becf"/>
   </g>
   <g id="patch_21">
    <path d="M 301.701123 188.278338 
C 303.361816 182.526717 304.61611 176.665455 305.454726 170.737911 
C 306.293341 164.810367 306.714206 158.831193 306.714206 152.844621 
L 178.980446 152.844613 
z
" style="fill: #9edae5"/>
   </g>
   <g id="patch_22">
    <path d="M 252.96483 152.770058 
C 252.96483 148.455272 252.590041 144.148628 251.844689 139.898707 
C 251.099338 135.648786 249.986239 131.471628 248.517947 127.414351 
L 178.45347 152.770058 
z
" style="fill: #ffffff"/>
   </g>
   <g id="patch_23">
    <path d="M 248.517947 127.414351 
C 247.819099 125.483251 247.040713 123.581868 246.184783 121.715075 
C 245.328853 119.848281 244.396111 118.017671 243.388946 116.227936 
L 178.45347 152.770058 
z
" style="fill: #ffffff"/>
   </g>
   <g id="patch_24">
    <path d="M 243.388946 116.227936 
C 242.482522 114.617217 241.516481 113.040782 240.492828 111.501901 
C 239.469176 109.96302 238.388619 108.46276 237.253402 107.004233 
L 178.45347 152.770058 
z
" style="fill: #ffffff"/>
   </g>
   <g id="patch_25">
    <path d="M 237.253402 107.004233 
C 236.244345 105.707796 235.192687 104.445085 234.100154 103.218172 
C 233.00762 101.991259 231.874808 100.800814 230.703576 99.648789 
L 178.45347 152.770058 
z
" style="fill: #ffffff"/>
   </g>
   <g id="patch_26">
    <path d="M 230.703576 99.648789 
C 227.18732 96.190198 223.336334 93.089264 219.207321 90.391645 
C 215.078307 87.694025 210.691631 85.413026 206.111882 83.582233 
L 178.45347 152.770058 
z
" style="fill: #ffffff"/>
   </g>
   <g id="patch_27">
    <path d="M 206.111882 83.582233 
C 203.441804 82.514848 200.712175 81.602921 197.936696 80.851029 
C 195.161217 80.099138 192.344538 79.508542 189.500796 79.082207 
L 178.45347 152.770058 
z
" style="fill: #ffffff"/>
   </g>
   <g id="patch_28">
    <path d="M 189.500796 79.082207 
C 187.46983 78.777723 185.427143 78.557335 183.377969 78.421607 
C 181.328796 78.28588 179.274886 78.234928 177.221503 78.268883 
L 178.45347 152.770058 
z
" style="fill: #ffffff"/>
   </g>
   <g id="patch_29">
    <path d="M 177.221503 78.268883 
C 168.783734 78.408412 160.43066 79.980385 152.519389 82.917597 
C 144.608119 85.85481 137.253023 90.1148 130.768545 95.515445 
L 178.45347 152.770058 
z
" style="fill: #ffffff"/>
   </g>
   <g id="patch_30">
    <path d="M 130.768545 95.515445 
C 127.76916 98.013505 124.970705 100.743399 122.399031 103.67991 
C 119.827356 106.616422 117.490404 109.750481 115.409763 113.053138 
L 178.45347 152.770058 
z
" style="fill: #ffffff"/>
   </g>
   <g id="patch_31">
    <path d="M 115.409763 113.053138 
C 111.35219 119.493829 108.305468 126.518449 106.375827 133.882069 
C 104.446186 141.245688 103.656317 148.861718 104.033761 156.464609 
L 178.45347 152.770058 
z
" style="fill: #ffffff"/>
   </g>
   <g id="patch_32">
    <path d="M 104.033761 156.464609 
C 104.186531 159.541862 104.53002 162.60668 105.06225 165.641406 
C 105.59448 168.676132 106.314427 171.674926 107.217943 174.620514 
L 178.45347 152.770058 
z
" style="fill: #ffffff"/>
   </g>
   <g id="patch_33">
    <path d="M 107.217943 174.620514 
C 108.543588 178.942301 110.259784 183.134497 112.34529 187.145213 
C 114.430795 191.155928 116.87697 194.968548 119.653535 198.53588 
L 178.45347 152.770058 
z
" style="fill: #ffffff"/>
   </g>
   <g id="patch_34">
    <path d="M 119.653535 198.53588 
C 121.293499 200.642905 123.045531 202.660259 124.90205 204.579209 
C 126.758568 206.49816 128.716891 208.315935 130.768541 210.024667 
L 178.45347 152.770058 
z
" style="fill: #ffffff"/>
   </g>
   <g id="patch_35">
    <path d="M 130.768541 210.024667 
C 132.346578 211.338948 133.978277 212.587426 135.659457 213.766904 
C 137.340637 214.946382 139.069862 216.055852 140.8427 217.092471 
L 178.45347 152.770058 
z
" style="fill: #ffffff"/>
   </g>
   <g id="patch_36">
    <path d="M 140.8427 217.092471 
C 144.212344 219.062778 147.731612 220.765255 151.367994 222.184176 
C 155.004376 223.603096 158.746641 224.734079 162.560221 225.566675 
L 178.45347 152.770058 
z
" style="fill: #ffffff"/>
   </g>
   <g id="patch_37">
    <path d="M 162.560221 225.566675 
C 170.400983 227.278501 178.467061 227.712372 186.446207 226.851492 
C 194.425353 225.990612 202.21326 223.846235 209.508449 220.501373 
L 178.45347 152.770058 
z
" style="fill: #ffffff"/>
   </g>
   <g id="patch_38">
    <path d="M 209.508449 220.501373 
C 213.804695 218.531533 217.90379 216.157383 221.75029 213.411035 
C 225.596791 210.664687 229.173277 207.558578 232.431374 204.134721 
L 178.45347 152.770058 
z
" style="fill: #ffffff"/>
   </g>
   <g id="patch_39">
    <path d="M 232.431374 204.134721 
C 235.689471 200.710864 238.614424 196.984765 241.166671 193.006822 
C 243.718918 189.028879 245.886899 184.817107 247.641292 180.428474 
L 178.45347 152.770058 
z
" style="fill: #ffffff"/>
   </g>
   <g id="patch_40">
    <path d="M 247.641292 180.428474 
C 248.098639 179.284416 248.52754 178.12919 248.927597 176.963862 
C 249.327655 175.798533 249.698747 174.623462 250.040532 173.439731 
L 178.45347 152.770058 
z
" style="fill: #ffffff"/>
   </g>
   <g id="patch_41">
    <path d="M 250.040532 173.439731 
C 251.009269 170.084618 251.74094 166.665549 252.230133 163.207815 
C 252.719325 159.750081 252.96483 156.26223 252.96483 152.770062 
L 178.45347 152.770058 
z
" style="fill: #ffffff"/>
   </g>
   <g id="matplotlib.axis_1"/>
   <g id="matplotlib.axis_2"/>
   <g id="text_1">
    <!-- A [21] -->
    <g transform="translate(317.372564 131.165805) scale(0.1 -0.1)">
     <defs>
      <path id="DejaVuSans-41" d="M 2188 4044 
L 1331 1722 
L 3047 1722 
L 2188 4044 
z
M 1831 4666 
L 2547 4666 
L 4325 0 
L 3669 0 
L 3244 1197 
L 1141 1197 
L 716 0 
L 50 0 
L 1831 4666 
z
" transform="scale(0.015625)"/>
      <path id="DejaVuSans-20" transform="scale(0.015625)"/>
      <path id="DejaVuSans-5b" d="M 550 4863 
L 1875 4863 
L 1875 4416 
L 1125 4416 
L 1125 -397 
L 1875 -397 
L 1875 -844 
L 550 -844 
L 550 4863 
z
" transform="scale(0.015625)"/>
      <path id="DejaVuSans-32" d="M 1228 531 
L 3431 531 
L 3431 0 
L 469 0 
L 469 531 
Q 828 903 1448 1529 
Q 2069 2156 2228 2338 
Q 2531 2678 2651 2914 
Q 2772 3150 2772 3378 
Q 2772 3750 2511 3984 
Q 2250 4219 1831 4219 
Q 1534 4219 1204 4116 
Q 875 4013 500 3803 
L 500 4441 
Q 881 4594 1212 4672 
Q 1544 4750 1819 4750 
Q 2544 4750 2975 4387 
Q 3406 4025 3406 3419 
Q 3406 3131 3298 2873 
Q 3191 2616 2906 2266 
Q 2828 2175 2409 1742 
Q 1991 1309 1228 531 
z
" transform="scale(0.015625)"/>
      <path id="DejaVuSans-31" d="M 794 531 
L 1825 531 
L 1825 4091 
L 703 3866 
L 703 4441 
L 1819 4666 
L 2450 4666 
L 2450 531 
L 3481 531 
L 3481 0 
L 794 0 
L 794 531 
z
" transform="scale(0.015625)"/>
      <path id="DejaVuSans-5d" d="M 1947 4863 
L 1947 -844 
L 622 -844 
L 622 -397 
L 1369 -397 
L 1369 4416 
L 622 4416 
L 622 4863 
L 1947 4863 
z
" transform="scale(0.015625)"/>
     </defs>
     <use xlink:href="#DejaVuSans-41"/>
     <use xlink:href="#DejaVuSans-20" x="68.408203"/>
     <use xlink:href="#DejaVuSans-5b" x="100.195312"/>
     <use xlink:href="#DejaVuSans-32" x="139.208984"/>
     <use xlink:href="#DejaVuSans-31" x="202.832031"/>
     <use xlink:href="#DejaVuSans-5d" x="266.455078"/>
    </g>
   </g>
   <g id="text_2">
    <!-- C [10] -->
    <g transform="translate(306.65917 96.746786) scale(0.1 -0.1)">
     <defs>
      <path id="DejaVuSans-43" d="M 4122 4306 
L 4122 3641 
Q 3803 3938 3442 4084 
Q 3081 4231 2675 4231 
Q 1875 4231 1450 3742 
Q 1025 3253 1025 2328 
Q 1025 1406 1450 917 
Q 1875 428 2675 428 
Q 3081 428 3442 575 
Q 3803 722 4122 1019 
L 4122 359 
Q 3791 134 3420 21 
Q 3050 -91 2638 -91 
Q 1578 -91 968 557 
Q 359 1206 359 2328 
Q 359 3453 968 4101 
Q 1578 4750 2638 4750 
Q 3056 4750 3426 4639 
Q 3797 4528 4122 4306 
z
" transform="scale(0.015625)"/>
      <path id="DejaVuSans-30" d="M 2034 4250 
Q 1547 4250 1301 3770 
Q 1056 3291 1056 2328 
Q 1056 1369 1301 889 
Q 1547 409 2034 409 
Q 2525 409 2770 889 
Q 3016 1369 3016 2328 
Q 3016 3291 2770 3770 
Q 2525 4250 2034 4250 
z
M 2034 4750 
Q 2819 4750 3233 4129 
Q 3647 3509 3647 2328 
Q 3647 1150 3233 529 
Q 2819 -91 2034 -91 
Q 1250 -91 836 529 
Q 422 1150 422 2328 
Q 422 3509 836 4129 
Q 1250 4750 2034 4750 
z
" transform="scale(0.015625)"/>
     </defs>
     <use xlink:href="#DejaVuSans-43"/>
     <use xlink:href="#DejaVuSans-20" x="69.824219"/>
     <use xlink:href="#DejaVuSans-5b" x="101.611328"/>
     <use xlink:href="#DejaVuSans-31" x="140.625"/>
     <use xlink:href="#DejaVuSans-30" x="204.248047"/>
     <use xlink:href="#DejaVuSans-5d" x="267.871094"/>
    </g>
   </g>
   <g id="text_3">
    <!-- D [9] -->
    <g transform="translate(295.885113 77.414707) scale(0.1 -0.1)">
     <defs>
      <path id="DejaVuSans-44" d="M 1259 4147 
L 1259 519 
L 2022 519 
Q 2988 519 3436 956 
Q 3884 1394 3884 2338 
Q 3884 3275 3436 3711 
Q 2988 4147 2022 4147 
L 1259 4147 
z
M 628 4666 
L 1925 4666 
Q 3281 4666 3915 4102 
Q 4550 3538 4550 2338 
Q 4550 1131 3912 565 
Q 3275 0 1925 0 
L 628 0 
L 628 4666 
z
" transform="scale(0.015625)"/>
      <path id="DejaVuSans-39" d="M 703 97 
L 703 672 
Q 941 559 1184 500 
Q 1428 441 1663 441 
Q 2288 441 2617 861 
Q 2947 1281 2994 2138 
Q 2813 1869 2534 1725 
Q 2256 1581 1919 1581 
Q 1219 1581 811 2004 
Q 403 2428 403 3163 
Q 403 3881 828 4315 
Q 1253 4750 1959 4750 
Q 2769 4750 3195 4129 
Q 3622 3509 3622 2328 
Q 3622 1225 3098 567 
Q 2575 -91 1691 -91 
Q 1453 -91 1209 -44 
Q 966 3 703 97 
z
M 1959 2075 
Q 2384 2075 2632 2365 
Q 2881 2656 2881 3163 
Q 2881 3666 2632 3958 
Q 2384 4250 1959 4250 
Q 1534 4250 1286 3958 
Q 1038 3666 1038 3163 
Q 1038 2656 1286 2365 
Q 1534 2075 1959 2075 
z
" transform="scale(0.015625)"/>
     </defs>
     <use xlink:href="#DejaVuSans-44"/>
     <use xlink:href="#DejaVuSans-20" x="77.001953"/>
     <use xlink:href="#DejaVuSans-5b" x="108.789062"/>
     <use xlink:href="#DejaVuSans-39" x="147.802734"/>
     <use xlink:href="#DejaVuSans-5d" x="211.425781"/>
    </g>
   </g>
   <g id="text_4">
    <!-- E [8] -->
    <g transform="translate(283.784692 61.734792) scale(0.1 -0.1)">
     <defs>
      <path id="DejaVuSans-45" d="M 628 4666 
L 3578 4666 
L 3578 4134 
L 1259 4134 
L 1259 2753 
L 3481 2753 
L 3481 2222 
L 1259 2222 
L 1259 531 
L 3634 531 
L 3634 0 
L 628 0 
L 628 4666 
z
" transform="scale(0.015625)"/>
      <path id="DejaVuSans-38" d="M 2034 2216 
Q 1584 2216 1326 1975 
Q 1069 1734 1069 1313 
Q 1069 891 1326 650 
Q 1584 409 2034 409 
Q 2484 409 2743 651 
Q 3003 894 3003 1313 
Q 3003 1734 2745 1975 
Q 2488 2216 2034 2216 
z
M 1403 2484 
Q 997 2584 770 2862 
Q 544 3141 544 3541 
Q 544 4100 942 4425 
Q 1341 4750 2034 4750 
Q 2731 4750 3128 4425 
Q 3525 4100 3525 3541 
Q 3525 3141 3298 2862 
Q 3072 2584 2669 2484 
Q 3125 2378 3379 2068 
Q 3634 1759 3634 1313 
Q 3634 634 3220 271 
Q 2806 -91 2034 -91 
Q 1263 -91 848 271 
Q 434 634 434 1313 
Q 434 1759 690 2068 
Q 947 2378 1403 2484 
z
M 1172 3481 
Q 1172 3119 1398 2916 
Q 1625 2713 2034 2713 
Q 2441 2713 2670 2916 
Q 2900 3119 2900 3481 
Q 2900 3844 2670 4047 
Q 2441 4250 2034 4250 
Q 1625 4250 1398 4047 
Q 1172 3844 1172 3481 
z
" transform="scale(0.015625)"/>
     </defs>
     <use xlink:href="#DejaVuSans-45"/>
     <use xlink:href="#DejaVuSans-20" x="63.183594"/>
     <use xlink:href="#DejaVuSans-5b" x="94.970703"/>
     <use xlink:href="#DejaVuSans-38" x="133.984375"/>
     <use xlink:href="#DejaVuSans-5d" x="197.607422"/>
    </g>
   </g>
   <g id="text_5">
    <!-- F [24] -->
    <g transform="translate(255.594687 37.456008) scale(0.1 -0.1)">
     <defs>
      <path id="DejaVuSans-46" d="M 628 4666 
L 3309 4666 
L 3309 4134 
L 1259 4134 
L 1259 2759 
L 3109 2759 
L 3109 2228 
L 1259 2228 
L 1259 0 
L 628 0 
L 628 4666 
z
" transform="scale(0.015625)"/>
      <path id="DejaVuSans-34" d="M 2419 4116 
L 825 1625 
L 2419 1625 
L 2419 4116 
z
M 2253 4666 
L 3047 4666 
L 3047 1625 
L 3713 1625 
L 3713 1100 
L 3047 1100 
L 3047 0 
L 2419 0 
L 2419 1100 
L 313 1100 
L 313 1709 
L 2253 4666 
z
" transform="scale(0.015625)"/>
     </defs>
     <use xlink:href="#DejaVuSans-46"/>
     <use xlink:href="#DejaVuSans-20" x="57.519531"/>
     <use xlink:href="#DejaVuSans-5b" x="89.306641"/>
     <use xlink:href="#DejaVuSans-32" x="128.320312"/>
     <use xlink:href="#DejaVuSans-34" x="191.943359"/>
     <use xlink:href="#DejaVuSans-5d" x="255.566406"/>
    </g>
   </g>
   <g id="text_6">
    <!-- G [14] -->
    <g transform="translate(215.332433 19.396986) scale(0.1 -0.1)">
     <defs>
      <path id="DejaVuSans-47" d="M 3809 666 
L 3809 1919 
L 2778 1919 
L 2778 2438 
L 4434 2438 
L 4434 434 
Q 4069 175 3628 42 
Q 3188 -91 2688 -91 
Q 1594 -91 976 548 
Q 359 1188 359 2328 
Q 359 3472 976 4111 
Q 1594 4750 2688 4750 
Q 3144 4750 3555 4637 
Q 3966 4525 4313 4306 
L 4313 3634 
Q 3963 3931 3569 4081 
Q 3175 4231 2741 4231 
Q 1884 4231 1454 3753 
Q 1025 3275 1025 2328 
Q 1025 1384 1454 906 
Q 1884 428 2741 428 
Q 3075 428 3337 486 
Q 3600 544 3809 666 
z
" transform="scale(0.015625)"/>
     </defs>
     <use xlink:href="#DejaVuSans-47"/>
     <use xlink:href="#DejaVuSans-20" x="77.490234"/>
     <use xlink:href="#DejaVuSans-5b" x="109.277344"/>
     <use xlink:href="#DejaVuSans-31" x="148.291016"/>
     <use xlink:href="#DejaVuSans-34" x="211.914062"/>
     <use xlink:href="#DejaVuSans-5d" x="275.537109"/>
    </g>
   </g>
   <g id="text_7">
    <!-- H [10] -->
    <g transform="translate(187.774844 14.798437) scale(0.1 -0.1)">
     <defs>
      <path id="DejaVuSans-48" d="M 628 4666 
L 1259 4666 
L 1259 2753 
L 3553 2753 
L 3553 4666 
L 4184 4666 
L 4184 0 
L 3553 0 
L 3553 2222 
L 1259 2222 
L 1259 0 
L 628 0 
L 628 4666 
z
" transform="scale(0.015625)"/>
     </defs>
     <use xlink:href="#DejaVuSans-48"/>
     <use xlink:href="#DejaVuSans-20" x="75.195312"/>
     <use xlink:href="#DejaVuSans-5b" x="106.982422"/>
     <use xlink:href="#DejaVuSans-31" x="145.996094"/>
     <use xlink:href="#DejaVuSans-30" x="209.619141"/>
     <use xlink:href="#DejaVuSans-5d" x="273.242188"/>
    </g>
   </g>
   <g id="text_8">
    <!-- I [41] -->
    <g transform="translate(102.70771 23.308704) scale(0.1 -0.1)">
     <defs>
      <path id="DejaVuSans-49" d="M 628 4666 
L 1259 4666 
L 1259 0 
L 628 0 
L 628 4666 
z
" transform="scale(0.015625)"/>
     </defs>
     <use xlink:href="#DejaVuSans-49"/>
     <use xlink:href="#DejaVuSans-20" x="29.492188"/>
     <use xlink:href="#DejaVuSans-5b" x="61.279297"/>
     <use xlink:href="#DejaVuSans-34" x="100.292969"/>
     <use xlink:href="#DejaVuSans-31" x="163.916016"/>
     <use xlink:href="#DejaVuSans-5d" x="227.539062"/>
    </g>
   </g>
   <g id="text_9">
    <!-- K [19] -->
    <g transform="translate(42.086362 62.608796) scale(0.1 -0.1)">
     <defs>
      <path id="DejaVuSans-4b" d="M 628 4666 
L 1259 4666 
L 1259 2694 
L 3353 4666 
L 4166 4666 
L 1850 2491 
L 4331 0 
L 3500 0 
L 1259 2247 
L 1259 0 
L 628 0 
L 628 4666 
z
" transform="scale(0.015625)"/>
     </defs>
     <use xlink:href="#DejaVuSans-4b"/>
     <use xlink:href="#DejaVuSans-20" x="65.576172"/>
     <use xlink:href="#DejaVuSans-5b" x="97.363281"/>
     <use xlink:href="#DejaVuSans-31" x="136.376953"/>
     <use xlink:href="#DejaVuSans-39" x="200"/>
     <use xlink:href="#DejaVuSans-5d" x="263.623047"/>
    </g>
   </g>
   <g id="text_10">
    <!-- L [37] -->
    <g transform="translate(12.742663 119.777168) scale(0.1 -0.1)">
     <defs>
      <path id="DejaVuSans-4c" d="M 628 4666 
L 1259 4666 
L 1259 531 
L 3531 531 
L 3531 0 
L 628 0 
L 628 4666 
z
" transform="scale(0.015625)"/>
      <path id="DejaVuSans-33" d="M 2597 2516 
Q 3050 2419 3304 2112 
Q 3559 1806 3559 1356 
Q 3559 666 3084 287 
Q 2609 -91 1734 -91 
Q 1441 -91 1130 -33 
Q 819 25 488 141 
L 488 750 
Q 750 597 1062 519 
Q 1375 441 1716 441 
Q 2309 441 2620 675 
Q 2931 909 2931 1356 
Q 2931 1769 2642 2001 
Q 2353 2234 1838 2234 
L 1294 2234 
L 1294 2753 
L 1863 2753 
Q 2328 2753 2575 2939 
Q 2822 3125 2822 3475 
Q 2822 3834 2567 4026 
Q 2313 4219 1838 4219 
Q 1578 4219 1281 4162 
Q 984 4106 628 3988 
L 628 4550 
Q 988 4650 1302 4700 
Q 1616 4750 1894 4750 
Q 2613 4750 3031 4423 
Q 3450 4097 3450 3541 
Q 3450 3153 3228 2886 
Q 3006 2619 2597 2516 
z
" transform="scale(0.015625)"/>
      <path id="DejaVuSans-37" d="M 525 4666 
L 3525 4666 
L 3525 4397 
L 1831 0 
L 1172 0 
L 2766 4134 
L 525 4134 
L 525 4666 
z
" transform="scale(0.015625)"/>
     </defs>
     <use xlink:href="#DejaVuSans-4c"/>
     <use xlink:href="#DejaVuSans-20" x="55.712891"/>
     <use xlink:href="#DejaVuSans-5b" x="87.5"/>
     <use xlink:href="#DejaVuSans-33" x="126.513672"/>
     <use xlink:href="#DejaVuSans-37" x="190.136719"/>
     <use xlink:href="#DejaVuSans-5d" x="253.759766"/>
    </g>
   </g>
   <g id="text_11">
    <!-- M [15] -->
    <g transform="translate(7.2 179.893056) scale(0.1 -0.1)">
     <defs>
      <path id="DejaVuSans-4d" d="M 628 4666 
L 1569 4666 
L 2759 1491 
L 3956 4666 
L 4897 4666 
L 4897 0 
L 4281 0 
L 4281 4097 
L 3078 897 
L 2444 897 
L 1241 4097 
L 1241 0 
L 628 0 
L 628 4666 
z
" transform="scale(0.015625)"/>
      <path id="DejaVuSans-35" d="M 691 4666 
L 3169 4666 
L 3169 4134 
L 1269 4134 
L 1269 2991 
Q 1406 3038 1543 3061 
Q 1681 3084 1819 3084 
Q 2600 3084 3056 2656 
Q 3513 2228 3513 1497 
Q 3513 744 3044 326 
Q 2575 -91 1722 -91 
Q 1428 -91 1123 -41 
Q 819 9 494 109 
L 494 744 
Q 775 591 1075 516 
Q 1375 441 1709 441 
Q 2250 441 2565 725 
Q 2881 1009 2881 1497 
Q 2881 1984 2565 2268 
Q 2250 2553 1709 2553 
Q 1456 2553 1204 2497 
Q 953 2441 691 2322 
L 691 4666 
z
" transform="scale(0.015625)"/>
     </defs>
     <use xlink:href="#DejaVuSans-4d"/>
     <use xlink:href="#DejaVuSans-20" x="86.279297"/>
     <use xlink:href="#DejaVuSans-5b" x="118.066406"/>
     <use xlink:href="#DejaVuSans-31" x="157.080078"/>
     <use xlink:href="#DejaVuSans-35" x="220.703125"/>
     <use xlink:href="#DejaVuSans-5d" x="284.326172"/>
    </g>
   </g>
   <g id="text_12">
    <!-- N [22] -->
    <g transform="translate(22.132629 220.59669) scale(0.1 -0.1)">
     <defs>
      <path id="DejaVuSans-4e" d="M 628 4666 
L 1478 4666 
L 3547 763 
L 3547 4666 
L 4159 4666 
L 4159 0 
L 3309 0 
L 1241 3903 
L 1241 0 
L 628 0 
L 628 4666 
z
" transform="scale(0.015625)"/>
     </defs>
     <use xlink:href="#DejaVuSans-4e"/>
     <use xlink:href="#DejaVuSans-20" x="74.804688"/>
     <use xlink:href="#DejaVuSans-5b" x="106.591797"/>
     <use xlink:href="#DejaVuSans-32" x="145.605469"/>
     <use xlink:href="#DejaVuSans-32" x="209.228516"/>
     <use xlink:href="#DejaVuSans-5d" x="272.851562"/>
    </g>
   </g>
   <g id="text_13">
    <!-- P [13] -->
    <g transform="translate(47.352344 253.596755) scale(0.1 -0.1)">
     <defs>
      <path id="DejaVuSans-50" d="M 1259 4147 
L 1259 2394 
L 2053 2394 
Q 2494 2394 2734 2622 
Q 2975 2850 2975 3272 
Q 2975 3691 2734 3919 
Q 2494 4147 2053 4147 
L 1259 4147 
z
M 628 4666 
L 2053 4666 
Q 2838 4666 3239 4311 
Q 3641 3956 3641 3272 
Q 3641 2581 3239 2228 
Q 2838 1875 2053 1875 
L 1259 1875 
L 1259 0 
L 628 0 
L 628 4666 
z
" transform="scale(0.015625)"/>
     </defs>
     <use xlink:href="#DejaVuSans-50"/>
     <use xlink:href="#DejaVuSans-20" x="60.302734"/>
     <use xlink:href="#DejaVuSans-5b" x="92.089844"/>
     <use xlink:href="#DejaVuSans-31" x="131.103516"/>
     <use xlink:href="#DejaVuSans-33" x="194.726562"/>
     <use xlink:href="#DejaVuSans-5d" x="258.349609"/>
    </g>
   </g>
   <g id="text_14">
    <!-- Q [10] -->
    <g transform="translate(65.872393 270.987749) scale(0.1 -0.1)">
     <defs>
      <path id="DejaVuSans-51" d="M 2522 4238 
Q 1834 4238 1429 3725 
Q 1025 3213 1025 2328 
Q 1025 1447 1429 934 
Q 1834 422 2522 422 
Q 3209 422 3611 934 
Q 4013 1447 4013 2328 
Q 4013 3213 3611 3725 
Q 3209 4238 2522 4238 
z
M 3406 84 
L 4238 -825 
L 3475 -825 
L 2784 -78 
Q 2681 -84 2626 -87 
Q 2572 -91 2522 -91 
Q 1538 -91 948 567 
Q 359 1225 359 2328 
Q 359 3434 948 4092 
Q 1538 4750 2522 4750 
Q 3503 4750 4090 4092 
Q 4678 3434 4678 2328 
Q 4678 1516 4351 937 
Q 4025 359 3406 84 
z
" transform="scale(0.015625)"/>
     </defs>
     <use xlink:href="#DejaVuSans-51"/>
     <use xlink:href="#DejaVuSans-20" x="78.710938"/>
     <use xlink:href="#DejaVuSans-5b" x="110.498047"/>
     <use xlink:href="#DejaVuSans-31" x="149.511719"/>
     <use xlink:href="#DejaVuSans-30" x="213.134766"/>
     <use xlink:href="#DejaVuSans-5d" x="276.757812"/>
    </g>
   </g>
   <g id="text_15">
    <!-- R [19] -->
    <g transform="translate(96.529845 286.920441) scale(0.1 -0.1)">
     <defs>
      <path id="DejaVuSans-52" d="M 2841 2188 
Q 3044 2119 3236 1894 
Q 3428 1669 3622 1275 
L 4263 0 
L 3584 0 
L 2988 1197 
Q 2756 1666 2539 1819 
Q 2322 1972 1947 1972 
L 1259 1972 
L 1259 0 
L 628 0 
L 628 4666 
L 2053 4666 
Q 2853 4666 3247 4331 
Q 3641 3997 3641 3322 
Q 3641 2881 3436 2590 
Q 3231 2300 2841 2188 
z
M 1259 4147 
L 1259 2491 
L 2053 2491 
Q 2509 2491 2742 2702 
Q 2975 2913 2975 3322 
Q 2975 3731 2742 3939 
Q 2509 4147 2053 4147 
L 1259 4147 
z
" transform="scale(0.015625)"/>
     </defs>
     <use xlink:href="#DejaVuSans-52"/>
     <use xlink:href="#DejaVuSans-20" x="69.482422"/>
     <use xlink:href="#DejaVuSans-5b" x="101.269531"/>
     <use xlink:href="#DejaVuSans-31" x="140.283203"/>
     <use xlink:href="#DejaVuSans-39" x="203.90625"/>
     <use xlink:href="#DejaVuSans-5d" x="267.529297"/>
    </g>
   </g>
   <g id="text_16">
    <!-- S [39] -->
    <g transform="translate(193.582579 295.755005) scale(0.1 -0.1)">
     <defs>
      <path id="DejaVuSans-53" d="M 3425 4513 
L 3425 3897 
Q 3066 4069 2747 4153 
Q 2428 4238 2131 4238 
Q 1616 4238 1336 4038 
Q 1056 3838 1056 3469 
Q 1056 3159 1242 3001 
Q 1428 2844 1947 2747 
L 2328 2669 
Q 3034 2534 3370 2195 
Q 3706 1856 3706 1288 
Q 3706 609 3251 259 
Q 2797 -91 1919 -91 
Q 1588 -91 1214 -16 
Q 841 59 441 206 
L 441 856 
Q 825 641 1194 531 
Q 1563 422 1919 422 
Q 2459 422 2753 634 
Q 3047 847 3047 1241 
Q 3047 1584 2836 1778 
Q 2625 1972 2144 2069 
L 1759 2144 
Q 1053 2284 737 2584 
Q 422 2884 422 3419 
Q 422 4038 858 4394 
Q 1294 4750 2059 4750 
Q 2388 4750 2728 4690 
Q 3069 4631 3425 4513 
z
" transform="scale(0.015625)"/>
     </defs>
     <use xlink:href="#DejaVuSans-53"/>
     <use xlink:href="#DejaVuSans-20" x="63.476562"/>
     <use xlink:href="#DejaVuSans-5b" x="95.263672"/>
     <use xlink:href="#DejaVuSans-33" x="134.277344"/>
     <use xlink:href="#DejaVuSans-39" x="197.900391"/>
     <use xlink:href="#DejaVuSans-5d" x="261.523438"/>
    </g>
   </g>
   <g id="text_17">
    <!-- T [23] -->
    <g transform="translate(260.408165 270.31414) scale(0.1 -0.1)">
     <defs>
      <path id="DejaVuSans-54" d="M -19 4666 
L 3928 4666 
L 3928 4134 
L 2272 4134 
L 2272 0 
L 1638 0 
L 1638 4134 
L -19 4134 
L -19 4666 
z
" transform="scale(0.015625)"/>
     </defs>
     <use xlink:href="#DejaVuSans-54"/>
     <use xlink:href="#DejaVuSans-20" x="61.083984"/>
     <use xlink:href="#DejaVuSans-5b" x="92.871094"/>
     <use xlink:href="#DejaVuSans-32" x="131.884766"/>
     <use xlink:href="#DejaVuSans-33" x="195.507812"/>
     <use xlink:href="#DejaVuSans-5d" x="259.130859"/>
    </g>
   </g>
   <g id="text_18">
    <!-- V [23] -->
    <g transform="translate(297.1606 231.691879) scale(0.1 -0.1)">
     <defs>
      <path id="DejaVuSans-56" d="M 1831 0 
L 50 4666 
L 709 4666 
L 2188 738 
L 3669 4666 
L 4325 4666 
L 2547 0 
L 1831 0 
z
" transform="scale(0.015625)"/>
     </defs>
     <use xlink:href="#DejaVuSans-56"/>
     <use xlink:href="#DejaVuSans-20" x="68.408203"/>
     <use xlink:href="#DejaVuSans-5b" x="100.195312"/>
     <use xlink:href="#DejaVuSans-32" x="139.208984"/>
     <use xlink:href="#DejaVuSans-33" x="202.832031"/>
     <use xlink:href="#DejaVuSans-5d" x="266.455078"/>
    </g>
   </g>
   <g id="text_19">
    <!-- W [6] -->
    <g transform="translate(311.850925 201.324847) scale(0.1 -0.1)">
     <defs>
      <path id="DejaVuSans-57" d="M 213 4666 
L 850 4666 
L 1831 722 
L 2809 4666 
L 3519 4666 
L 4500 722 
L 5478 4666 
L 6119 4666 
L 4947 0 
L 4153 0 
L 3169 4050 
L 2175 0 
L 1381 0 
L 213 4666 
z
" transform="scale(0.015625)"/>
      <path id="DejaVuSans-36" d="M 2113 2584 
Q 1688 2584 1439 2293 
Q 1191 2003 1191 1497 
Q 1191 994 1439 701 
Q 1688 409 2113 409 
Q 2538 409 2786 701 
Q 3034 994 3034 1497 
Q 3034 2003 2786 2293 
Q 2538 2584 2113 2584 
z
M 3366 4563 
L 3366 3988 
Q 3128 4100 2886 4159 
Q 2644 4219 2406 4219 
Q 1781 4219 1451 3797 
Q 1122 3375 1075 2522 
Q 1259 2794 1537 2939 
Q 1816 3084 2150 3084 
Q 2853 3084 3261 2657 
Q 3669 2231 3669 1497 
Q 3669 778 3244 343 
Q 2819 -91 2113 -91 
Q 1303 -91 875 529 
Q 447 1150 447 2328 
Q 447 3434 972 4092 
Q 1497 4750 2381 4750 
Q 2619 4750 2861 4703 
Q 3103 4656 3366 4563 
z
" transform="scale(0.015625)"/>
     </defs>
     <use xlink:href="#DejaVuSans-57"/>
     <use xlink:href="#DejaVuSans-20" x="98.876953"/>
     <use xlink:href="#DejaVuSans-5b" x="130.664062"/>
     <use xlink:href="#DejaVuSans-36" x="169.677734"/>
     <use xlink:href="#DejaVuSans-5d" x="233.300781"/>
    </g>
   </g>
   <g id="text_20">
    <!-- Y [17] -->
    <g transform="translate(318.102153 175.286616) scale(0.1 -0.1)">
     <defs>
      <path id="DejaVuSans-59" d="M -13 4666 
L 666 4666 
L 1959 2747 
L 3244 4666 
L 3922 4666 
L 2272 2222 
L 2272 0 
L 1638 0 
L 1638 2222 
L -13 4666 
z
" transform="scale(0.015625)"/>
     </defs>
     <use xlink:href="#DejaVuSans-59"/>
     <use xlink:href="#DejaVuSans-20" x="61.083984"/>
     <use xlink:href="#DejaVuSans-5b" x="92.871094"/>
     <use xlink:href="#DejaVuSans-31" x="131.884766"/>
     <use xlink:href="#DejaVuSans-37" x="195.507812"/>
     <use xlink:href="#DejaVuSans-5d" x="259.130859"/>
    </g>
   </g>
   <g id="text_21">
    <!-- A0A5F5XBZ1 [380] -->
    <g transform="translate(121.14597 152.770058) scale(0.12 -0.12)">
     <defs>
      <path id="DejaVuSans-58" d="M 403 4666 
L 1081 4666 
L 2241 2931 
L 3406 4666 
L 4084 4666 
L 2584 2425 
L 4184 0 
L 3506 0 
L 2194 1984 
L 872 0 
L 191 0 
L 1856 2491 
L 403 4666 
z
" transform="scale(0.015625)"/>
      <path id="DejaVuSans-42" d="M 1259 2228 
L 1259 519 
L 2272 519 
Q 2781 519 3026 730 
Q 3272 941 3272 1375 
Q 3272 1813 3026 2020 
Q 2781 2228 2272 2228 
L 1259 2228 
z
M 1259 4147 
L 1259 2741 
L 2194 2741 
Q 2656 2741 2882 2914 
Q 3109 3088 3109 3444 
Q 3109 3797 2882 3972 
Q 2656 4147 2194 4147 
L 1259 4147 
z
M 628 4666 
L 2241 4666 
Q 2963 4666 3353 4366 
Q 3744 4066 3744 3513 
Q 3744 3084 3544 2831 
Q 3344 2578 2956 2516 
Q 3422 2416 3680 2098 
Q 3938 1781 3938 1306 
Q 3938 681 3513 340 
Q 3088 0 2303 0 
L 628 0 
L 628 4666 
z
" transform="scale(0.015625)"/>
      <path id="DejaVuSans-5a" d="M 359 4666 
L 4025 4666 
L 4025 4184 
L 1075 531 
L 4097 531 
L 4097 0 
L 288 0 
L 288 481 
L 3238 4134 
L 359 4134 
L 359 4666 
z
" transform="scale(0.015625)"/>
     </defs>
     <use xlink:href="#DejaVuSans-41"/>
     <use xlink:href="#DejaVuSans-30" x="68.408203"/>
     <use xlink:href="#DejaVuSans-41" x="132.03125"/>
     <use xlink:href="#DejaVuSans-35" x="200.439453"/>
     <use xlink:href="#DejaVuSans-46" x="264.0625"/>
     <use xlink:href="#DejaVuSans-35" x="321.582031"/>
     <use xlink:href="#DejaVuSans-58" x="385.205078"/>
     <use xlink:href="#DejaVuSans-42" x="453.710938"/>
     <use xlink:href="#DejaVuSans-5a" x="522.314453"/>
     <use xlink:href="#DejaVuSans-31" x="590.820312"/>
     <use xlink:href="#DejaVuSans-20" x="654.443359"/>
     <use xlink:href="#DejaVuSans-5b" x="686.230469"/>
     <use xlink:href="#DejaVuSans-33" x="725.244141"/>
     <use xlink:href="#DejaVuSans-38" x="788.867188"/>
     <use xlink:href="#DejaVuSans-30" x="852.490234"/>
     <use xlink:href="#DejaVuSans-5d" x="916.113281"/>
    </g>
   </g>
  </g>
 </g>
</svg>
