<?xml version="1.0" encoding="utf-8" standalone="no"?>
<!DOCTYPE svg PUBLIC "-//W3C//DTD SVG 1.1//EN"
  "http://www.w3.org/Graphics/SVG/1.1/DTD/svg11.dtd">
<svg xmlns:xlink="http://www.w3.org/1999/xlink" width="355.266878pt" height="305.153253pt" viewBox="0 0 355.266878 305.153253" xmlns="http://www.w3.org/2000/svg" version="1.1">
 <metadata>
  <rdf:RDF xmlns:dc="http://purl.org/dc/elements/1.1/" xmlns:cc="http://creativecommons.org/ns#" xmlns:rdf="http://www.w3.org/1999/02/22-rdf-syntax-ns#">
   <cc:Work>
    <dc:type rdf:resource="http://purl.org/dc/dcmitype/StillImage"/>
    <dc:date>2024-09-27T16:07:31.277956</dc:date>
    <dc:format>image/svg+xml</dc:format>
    <dc:creator>
     <cc:Agent>
      <dc:title>Matplotlib v3.8.3, https://matplotlib.org/</dc:title>
     </cc:Agent>
    </dc:creator>
   </cc:Work>
  </rdf:RDF>
 </metadata>
 <defs>
  <style type="text/css">*{stroke-linejoin: round; stroke-linecap: butt}</style>
 </defs>
 <g id="figure_1">
  <g id="patch_1">
   <path d="M -0 305.153253 
L 355.266878 305.153253 
L 355.266878 -0 
L -0 -0 
z
" style="fill: #ffffff"/>
  </g>
  <g id="axes_1">
   <g id="patch_2">
    <path d="M 305.400837 152.664851 
C 305.400837 140.663135 303.709336 128.721093 300.3763 117.191477 
C 297.043263 105.661862 292.101834 94.659324 285.697977 84.508867 
L 177.667077 152.664851 
z
" style="fill: #1f77b4"/>
   </g>
   <g id="patch_3">
    <path d="M 285.593422 84.313408 
C 282.453632 79.336672 278.973691 74.582844 275.178473 70.085901 
C 271.383254 65.588958 267.281822 61.359641 262.903491 57.428178 
L 177.562522 152.469392 
z
" style="fill: #ff7f0e"/>
   </g>
   <g id="patch_4">
    <path d="M 262.81223 57.342793 
C 259.7318 54.576763 256.518714 51.96213 253.184352 49.508154 
C 249.849989 47.054178 246.398292 44.76376 242.841485 42.645012 
L 177.47126 152.384007 
z
" style="fill: #aec7e8"/>
   </g>
   <g id="patch_5">
    <path d="M 242.715135 42.576172 
C 236.347565 38.783086 229.661922 35.551401 222.733924 32.917718 
C 215.805926 30.284035 208.661827 28.258335 201.382538 26.86356 
L 177.34491 152.315167 
z
" style="fill: #ffbb78"/>
   </g>
   <g id="patch_6">
    <path d="M 201.226075 26.829828 
C 195.875204 25.804554 190.464215 25.122675 185.02627 24.788369 
C 179.588326 24.454063 174.134559 24.468016 168.698396 24.830141 
L 177.188446 152.281435 
z
" style="fill: #98df8a"/>
   </g>
   <g id="patch_7">
    <path d="M 168.504902 24.854022 
C 158.276104 25.535404 148.166428 27.445706 138.394261 30.543664 
C 128.622094 33.641621 119.258312 37.904764 110.505189 43.241001 
L 176.994953 152.305316 
z
" style="fill: #2ca02c"/>
   </g>
   <g id="patch_8">
    <path d="M 110.36836 43.307142 
C 108.69417 44.327791 107.043704 45.386855 105.418273 46.483491 
C 103.792841 47.580127 102.192877 48.714045 100.61965 49.884342 
L 176.858123 152.371457 
z
" style="fill: #d62728"/>
   </g>
   <g id="patch_9">
    <path d="M 100.536194 49.954047 
C 95.114704 53.987004 90.021762 58.443799 85.305335 63.282456 
C 80.588908 68.121114 76.263849 73.326395 72.370895 78.849275 
L 176.774667 152.441162 
z
" style="fill: #9467bd"/>
   </g>
   <g id="patch_10">
    <path d="M 72.287953 78.960179 
C 69.777137 82.522238 67.450262 86.210461 65.316457 90.010375 
C 63.182653 93.810288 61.244715 97.716916 59.510248 101.714926 
L 176.691725 152.552066 
z
" style="fill: #ff9896"/>
   </g>
   <g id="patch_11">
    <path d="M 59.443452 101.937425 
C 53.707398 115.159241 50.25026 129.257019 49.218744 143.632509 
C 48.187228 158.008 49.596134 172.454941 53.385675 186.360269 
L 176.62493 152.774565 
z
" style="fill: #c5b0d5"/>
   </g>
   <g id="patch_12">
    <path d="M 53.413474 186.572122 
C 54.158203 189.304827 54.993618 192.012005 55.918334 194.689167 
C 56.84305 197.366329 57.856555 200.011993 58.957168 202.621772 
L 176.652729 152.986418 
z
" style="fill: #c49c94"/>
   </g>
   <g id="patch_13">
    <path d="M 58.994837 202.706223 
C 60.773014 206.922645 62.776487 211.040468 64.996587 215.041878 
C 67.216686 219.043288 69.650208 222.922507 72.286624 226.662753 
L 176.690398 153.070869 
z
" style="fill: #8c564b"/>
   </g>
   <g id="patch_14">
    <path d="M 72.394406 226.798721 
C 77.79692 234.463192 84.027038 241.509498 90.972039 247.810151 
C 97.917041 254.110804 105.534786 259.627575 113.687449 264.260649 
L 176.79818 153.206837 
z
" style="fill: #e377c2"/>
   </g>
   <g id="patch_15">
    <path d="M 113.830741 264.353634 
C 117.619687 266.506853 121.516347 268.464754 125.505431 270.219655 
C 129.494515 271.974555 133.570797 273.524156 137.718281 274.862377 
L 176.941472 153.299823 
z
" style="fill: #7f7f7f"/>
   </g>
   <g id="patch_16">
    <path d="M 137.87823 274.904651 
C 146.386505 277.649919 155.159536 279.494363 164.05297 280.407636 
C 172.946405 281.320909 181.911198 281.297974 190.799843 280.339209 
L 177.10142 153.342096 
z
" style="fill: #f7b6d2"/>
   </g>
   <g id="patch_17">
    <path d="M 191.038232 280.309168 
C 201.447975 279.186331 211.680283 276.787837 221.504653 273.167718 
C 231.329023 269.547599 240.671126 264.733244 249.320511 258.833105 
L 177.339809 153.312055 
z
" style="fill: #c7c7c7"/>
   </g>
   <g id="patch_18">
    <path d="M 249.513792 258.709082 
C 256.177638 254.163369 262.395922 248.996609 268.085272 243.278074 
C 273.774622 237.559539 278.909498 231.314901 283.421054 224.627883 
L 177.53309 153.188032 
z
" style="fill: #dbdb8d"/>
   </g>
   <g id="patch_19">
    <path d="M 283.525278 224.479216 
C 287.182363 219.058694 290.417832 213.36535 293.203142 207.449407 
C 295.988452 201.533464 298.31539 195.41237 300.163428 189.140123 
L 177.637313 153.039365 
z
" style="fill: #bcbd22"/>
   </g>
   <g id="patch_20">
    <path d="M 300.200082 189.034877 
C 300.877408 186.736029 301.489904 184.418574 302.03684 182.085265 
C 302.583777 179.751955 303.064939 177.403715 303.479755 175.043334 
L 177.673967 152.93412 
z
" style="fill: #17becf"/>
   </g>
   <g id="patch_21">
    <path d="M 303.491788 174.968106 
C 304.132925 171.31991 304.61507 167.645551 304.936855 163.955449 
C 305.25864 160.265348 305.419761 156.562995 305.419761 152.85889 
L 177.686001 152.858892 
z
" style="fill: #9edae5"/>
   </g>
   <g id="patch_22">
    <path d="M 251.667149 152.812657 
C 251.667149 145.811656 250.68044 138.845465 248.736168 132.119855 
C 246.791897 125.394246 243.909397 118.9761 240.173814 113.054999 
L 177.155789 152.812657 
z
" style="fill: #ffffff"/>
   </g>
   <g id="patch_23">
    <path d="M 240.173814 113.054999 
C 238.34227 110.151903 236.312304 107.378837 234.098427 104.75562 
C 231.884549 102.132403 229.492047 99.665302 226.938021 97.371948 
L 177.155789 152.812657 
z
" style="fill: #ffffff"/>
   </g>
   <g id="patch_24">
    <path d="M 226.938021 97.371948 
C 225.141104 95.758431 223.266804 94.233228 221.321759 92.801742 
C 219.376714 91.370256 217.363224 90.034179 215.28842 88.798243 
L 177.155789 152.812657 
z
" style="fill: #ffffff"/>
   </g>
   <g id="patch_25">
    <path d="M 215.28842 88.798243 
C 211.574005 86.585609 207.674046 84.70046 203.632714 83.164145 
C 199.591382 81.62783 195.42399 80.446171 191.177739 79.632552 
L 177.155789 152.812657 
z
" style="fill: #ffffff"/>
   </g>
   <g id="patch_26">
    <path d="M 191.177739 79.632552 
C 188.056398 79.034476 184.899987 78.636713 181.727853 78.441701 
C 178.555718 78.24669 175.374354 78.254829 172.203259 78.466068 
L 177.155789 152.812657 
z
" style="fill: #ffffff"/>
   </g>
   <g id="patch_27">
    <path d="M 172.203259 78.466068 
C 166.236461 78.863541 160.33915 79.977884 154.638719 81.785026 
C 148.938288 83.592168 143.476082 86.079001 138.370094 89.191806 
L 177.155789 152.812657 
z
" style="fill: #ffffff"/>
   </g>
   <g id="patch_28">
    <path d="M 138.370094 89.191806 
C 137.393483 89.787185 136.430711 90.404972 135.482543 91.044677 
C 134.534375 91.684381 133.601062 92.345833 132.683347 93.028506 
L 177.155789 152.812657 
z
" style="fill: #ffffff"/>
   </g>
   <g id="patch_29">
    <path d="M 132.683347 93.028506 
C 129.520811 95.381064 126.549928 97.980861 123.798679 100.803412 
C 121.047429 103.625962 118.524479 106.662376 116.253589 109.884056 
L 177.155789 152.812657 
z
" style="fill: #ffffff"/>
   </g>
   <g id="patch_30">
    <path d="M 116.253589 109.884056 
C 114.788946 111.961924 113.431602 114.113387 112.186883 116.330003 
C 110.942163 118.54662 109.8117 120.825485 108.799927 123.157658 
L 177.155789 152.812657 
z
" style="fill: #ffffff"/>
   </g>
   <g id="patch_31">
    <path d="M 108.799927 123.157658 
C 105.453895 130.870384 103.437231 139.094088 102.835514 147.479791 
C 102.233796 155.865494 103.055658 164.292876 105.266224 172.404317 
L 177.155789 152.812657 
z
" style="fill: #ffffff"/>
   </g>
   <g id="patch_32">
    <path d="M 105.266224 172.404317 
C 105.700649 173.998395 106.187974 175.577582 106.727392 177.13926 
C 107.266809 178.700938 107.858021 180.244242 108.500045 181.766613 
L 177.155789 152.812657 
z
" style="fill: #ffffff"/>
   </g>
   <g id="patch_33">
    <path d="M 108.500045 181.766613 
C 109.537315 184.226193 110.706007 186.628256 112.001066 188.962412 
C 113.296124 191.296568 114.715678 193.559445 116.253587 195.741255 
L 177.155789 152.812657 
z
" style="fill: #ffffff"/>
   </g>
   <g id="patch_34">
    <path d="M 116.253587 195.741255 
C 119.405054 200.212197 123.039289 204.322542 127.09054 207.997923 
C 131.141791 211.673304 135.585476 214.89142 140.341196 217.594047 
L 177.155789 152.812657 
z
" style="fill: #ffffff"/>
   </g>
   <g id="patch_35">
    <path d="M 140.341196 217.594047 
C 142.551414 218.850091 144.824466 219.9922 147.151432 221.015892 
C 149.478397 222.039584 151.856228 222.943518 154.275594 223.724147 
L 177.155789 152.812657 
z
" style="fill: #ffffff"/>
   </g>
   <g id="patch_36">
    <path d="M 154.275594 223.724147 
C 159.238755 225.325553 164.356356 226.401479 169.544193 226.934221 
C 174.73203 227.466964 179.961492 227.453585 185.146535 226.894306 
L 177.155789 152.812657 
z
" style="fill: #ffffff"/>
   </g>
   <g id="patch_37">
    <path d="M 185.146535 226.894306 
C 191.218885 226.239317 197.187732 224.840196 202.918614 222.72846 
C 208.649497 220.616724 214.099057 217.80835 219.144532 214.366602 
L 177.155789 152.812657 
z
" style="fill: #ffffff"/>
   </g>
   <g id="patch_38">
    <path d="M 219.144532 214.366602 
C 223.031775 211.714937 226.659108 208.700993 229.977895 205.365181 
C 233.296683 202.029369 236.292027 198.386663 238.923768 194.485903 
L 177.155789 152.812657 
z
" style="fill: #ffffff"/>
   </g>
   <g id="patch_39">
    <path d="M 238.923768 194.485903 
C 241.057068 191.323932 242.944425 188.002814 244.569189 184.551848 
C 246.193953 181.100881 247.551334 177.530243 248.629356 173.871432 
L 177.155789 152.812657 
z
" style="fill: #ffffff"/>
   </g>
   <g id="patch_40">
    <path d="M 248.629356 173.871432 
C 249.024463 172.530437 249.381752 171.178588 249.700798 169.817491 
C 250.019845 168.456394 250.300522 167.086587 250.542498 165.709698 
L 177.155789 152.812657 
z
" style="fill: #ffffff"/>
   </g>
   <g id="patch_41">
    <path d="M 250.542498 165.709698 
C 250.916495 163.581583 251.197746 161.438207 251.385454 159.285648 
C 251.573162 157.133089 251.667149 154.973383 251.667149 152.812655 
L 177.155789 152.812657 
z
" style="fill: #ffffff"/>
   </g>
   <g id="matplotlib.axis_1"/>
   <g id="matplotlib.axis_2"/>
   <g id="text_1">
    <!-- A [55] -->
    <g transform="translate(312.647222 116.403515) scale(0.1 -0.1)">
     <defs>
      <path id="DejaVuSans-41" d="M 2188 4044 
L 1331 1722 
L 3047 1722 
L 2188 4044 
z
M 1831 4666 
L 2547 4666 
L 4325 0 
L 3669 0 
L 3244 1197 
L 1141 1197 
L 716 0 
L 50 0 
L 1831 4666 
z
" transform="scale(0.015625)"/>
      <path id="DejaVuSans-20" transform="scale(0.015625)"/>
      <path id="DejaVuSans-5b" d="M 550 4863 
L 1875 4863 
L 1875 4416 
L 1125 4416 
L 1125 -397 
L 1875 -397 
L 1875 -844 
L 550 -844 
L 550 4863 
z
" transform="scale(0.015625)"/>
      <path id="DejaVuSans-35" d="M 691 4666 
L 3169 4666 
L 3169 4134 
L 1269 4134 
L 1269 2991 
Q 1406 3038 1543 3061 
Q 1681 3084 1819 3084 
Q 2600 3084 3056 2656 
Q 3513 2228 3513 1497 
Q 3513 744 3044 326 
Q 2575 -91 1722 -91 
Q 1428 -91 1123 -41 
Q 819 9 494 109 
L 494 744 
Q 775 591 1075 516 
Q 1375 441 1709 441 
Q 2250 441 2565 725 
Q 2881 1009 2881 1497 
Q 2881 1984 2565 2268 
Q 2250 2553 1709 2553 
Q 1456 2553 1204 2497 
Q 953 2441 691 2322 
L 691 4666 
z
" transform="scale(0.015625)"/>
      <path id="DejaVuSans-5d" d="M 1947 4863 
L 1947 -844 
L 622 -844 
L 622 -397 
L 1369 -397 
L 1369 4416 
L 622 4416 
L 622 4863 
L 1947 4863 
z
" transform="scale(0.015625)"/>
     </defs>
     <use xlink:href="#DejaVuSans-41"/>
     <use xlink:href="#DejaVuSans-20" x="68.408203"/>
     <use xlink:href="#DejaVuSans-5b" x="100.195312"/>
     <use xlink:href="#DejaVuSans-35" x="139.208984"/>
     <use xlink:href="#DejaVuSans-35" x="202.832031"/>
     <use xlink:href="#DejaVuSans-5d" x="266.455078"/>
    </g>
   </g>
   <g id="text_2">
    <!-- C [27] -->
    <g transform="translate(284.940068 64.606927) scale(0.1 -0.1)">
     <defs>
      <path id="DejaVuSans-43" d="M 4122 4306 
L 4122 3641 
Q 3803 3938 3442 4084 
Q 3081 4231 2675 4231 
Q 1875 4231 1450 3742 
Q 1025 3253 1025 2328 
Q 1025 1406 1450 917 
Q 1875 428 2675 428 
Q 3081 428 3442 575 
Q 3803 722 4122 1019 
L 4122 359 
Q 3791 134 3420 21 
Q 3050 -91 2638 -91 
Q 1578 -91 968 557 
Q 359 1206 359 2328 
Q 359 3453 968 4101 
Q 1578 4750 2638 4750 
Q 3056 4750 3426 4639 
Q 3797 4528 4122 4306 
z
" transform="scale(0.015625)"/>
      <path id="DejaVuSans-32" d="M 1228 531 
L 3431 531 
L 3431 0 
L 469 0 
L 469 531 
Q 828 903 1448 1529 
Q 2069 2156 2228 2338 
Q 2531 2678 2651 2914 
Q 2772 3150 2772 3378 
Q 2772 3750 2511 3984 
Q 2250 4219 1831 4219 
Q 1534 4219 1204 4116 
Q 875 4013 500 3803 
L 500 4441 
Q 881 4594 1212 4672 
Q 1544 4750 1819 4750 
Q 2544 4750 2975 4387 
Q 3406 4025 3406 3419 
Q 3406 3131 3298 2873 
Q 3191 2616 2906 2266 
Q 2828 2175 2409 1742 
Q 1991 1309 1228 531 
z
" transform="scale(0.015625)"/>
      <path id="DejaVuSans-37" d="M 525 4666 
L 3525 4666 
L 3525 4397 
L 1831 0 
L 1172 0 
L 2766 4134 
L 525 4134 
L 525 4666 
z
" transform="scale(0.015625)"/>
     </defs>
     <use xlink:href="#DejaVuSans-43"/>
     <use xlink:href="#DejaVuSans-20" x="69.824219"/>
     <use xlink:href="#DejaVuSans-5b" x="101.611328"/>
     <use xlink:href="#DejaVuSans-32" x="140.625"/>
     <use xlink:href="#DejaVuSans-37" x="204.248047"/>
     <use xlink:href="#DejaVuSans-5d" x="267.871094"/>
    </g>
   </g>
   <g id="text_3">
    <!-- D [19] -->
    <g transform="translate(260.755661 41.979943) scale(0.1 -0.1)">
     <defs>
      <path id="DejaVuSans-44" d="M 1259 4147 
L 1259 519 
L 2022 519 
Q 2988 519 3436 956 
Q 3884 1394 3884 2338 
Q 3884 3275 3436 3711 
Q 2988 4147 2022 4147 
L 1259 4147 
z
M 628 4666 
L 1925 4666 
Q 3281 4666 3915 4102 
Q 4550 3538 4550 2338 
Q 4550 1131 3912 565 
Q 3275 0 1925 0 
L 628 0 
L 628 4666 
z
" transform="scale(0.015625)"/>
      <path id="DejaVuSans-31" d="M 794 531 
L 1825 531 
L 1825 4091 
L 703 3866 
L 703 4441 
L 1819 4666 
L 2450 4666 
L 2450 531 
L 3481 531 
L 3481 0 
L 794 0 
L 794 531 
z
" transform="scale(0.015625)"/>
      <path id="DejaVuSans-39" d="M 703 97 
L 703 672 
Q 941 559 1184 500 
Q 1428 441 1663 441 
Q 2288 441 2617 861 
Q 2947 1281 2994 2138 
Q 2813 1869 2534 1725 
Q 2256 1581 1919 1581 
Q 1219 1581 811 2004 
Q 403 2428 403 3163 
Q 403 3881 828 4315 
Q 1253 4750 1959 4750 
Q 2769 4750 3195 4129 
Q 3622 3509 3622 2328 
Q 3622 1225 3098 567 
Q 2575 -91 1691 -91 
Q 1453 -91 1209 -44 
Q 966 3 703 97 
z
M 1959 2075 
Q 2384 2075 2632 2365 
Q 2881 2656 2881 3163 
Q 2881 3666 2632 3958 
Q 2384 4250 1959 4250 
Q 1534 4250 1286 3958 
Q 1038 3666 1038 3163 
Q 1038 2656 1286 2365 
Q 1534 2075 1959 2075 
z
" transform="scale(0.015625)"/>
     </defs>
     <use xlink:href="#DejaVuSans-44"/>
     <use xlink:href="#DejaVuSans-20" x="77.001953"/>
     <use xlink:href="#DejaVuSans-5b" x="108.789062"/>
     <use xlink:href="#DejaVuSans-31" x="147.802734"/>
     <use xlink:href="#DejaVuSans-39" x="211.425781"/>
     <use xlink:href="#DejaVuSans-5d" x="275.048828"/>
    </g>
   </g>
   <g id="text_4">
    <!-- E [34] -->
    <g transform="translate(227.272825 23.737348) scale(0.1 -0.1)">
     <defs>
      <path id="DejaVuSans-45" d="M 628 4666 
L 3578 4666 
L 3578 4134 
L 1259 4134 
L 1259 2753 
L 3481 2753 
L 3481 2222 
L 1259 2222 
L 1259 531 
L 3634 531 
L 3634 0 
L 628 0 
L 628 4666 
z
" transform="scale(0.015625)"/>
      <path id="DejaVuSans-33" d="M 2597 2516 
Q 3050 2419 3304 2112 
Q 3559 1806 3559 1356 
Q 3559 666 3084 287 
Q 2609 -91 1734 -91 
Q 1441 -91 1130 -33 
Q 819 25 488 141 
L 488 750 
Q 750 597 1062 519 
Q 1375 441 1716 441 
Q 2309 441 2620 675 
Q 2931 909 2931 1356 
Q 2931 1769 2642 2001 
Q 2353 2234 1838 2234 
L 1294 2234 
L 1294 2753 
L 1863 2753 
Q 2328 2753 2575 2939 
Q 2822 3125 2822 3475 
Q 2822 3834 2567 4026 
Q 2313 4219 1838 4219 
Q 1578 4219 1281 4162 
Q 984 4106 628 3988 
L 628 4550 
Q 988 4650 1302 4700 
Q 1616 4750 1894 4750 
Q 2613 4750 3031 4423 
Q 3450 4097 3450 3541 
Q 3450 3153 3228 2886 
Q 3006 2619 2597 2516 
z
" transform="scale(0.015625)"/>
      <path id="DejaVuSans-34" d="M 2419 4116 
L 825 1625 
L 2419 1625 
L 2419 4116 
z
M 2253 4666 
L 3047 4666 
L 3047 1625 
L 3713 1625 
L 3713 1100 
L 3047 1100 
L 3047 0 
L 2419 0 
L 2419 1100 
L 313 1100 
L 313 1709 
L 2253 4666 
z
" transform="scale(0.015625)"/>
     </defs>
     <use xlink:href="#DejaVuSans-45"/>
     <use xlink:href="#DejaVuSans-20" x="63.183594"/>
     <use xlink:href="#DejaVuSans-5b" x="94.970703"/>
     <use xlink:href="#DejaVuSans-33" x="133.984375"/>
     <use xlink:href="#DejaVuSans-34" x="197.607422"/>
     <use xlink:href="#DejaVuSans-5d" x="261.230469"/>
    </g>
   </g>
   <g id="text_5">
    <!-- F [25] -->
    <g transform="translate(185.810053 14.798437) scale(0.1 -0.1)">
     <defs>
      <path id="DejaVuSans-46" d="M 628 4666 
L 3309 4666 
L 3309 4134 
L 1259 4134 
L 1259 2759 
L 3109 2759 
L 3109 2228 
L 1259 2228 
L 1259 0 
L 628 0 
L 628 4666 
z
" transform="scale(0.015625)"/>
     </defs>
     <use xlink:href="#DejaVuSans-46"/>
     <use xlink:href="#DejaVuSans-20" x="57.519531"/>
     <use xlink:href="#DejaVuSans-5b" x="89.306641"/>
     <use xlink:href="#DejaVuSans-32" x="128.320312"/>
     <use xlink:href="#DejaVuSans-35" x="191.943359"/>
     <use xlink:href="#DejaVuSans-5d" x="255.566406"/>
    </g>
   </g>
   <g id="text_6">
    <!-- G [47] -->
    <g transform="translate(103.079505 21.126873) scale(0.1 -0.1)">
     <defs>
      <path id="DejaVuSans-47" d="M 3809 666 
L 3809 1919 
L 2778 1919 
L 2778 2438 
L 4434 2438 
L 4434 434 
Q 4069 175 3628 42 
Q 3188 -91 2688 -91 
Q 1594 -91 976 548 
Q 359 1188 359 2328 
Q 359 3472 976 4111 
Q 1594 4750 2688 4750 
Q 3144 4750 3555 4637 
Q 3966 4525 4313 4306 
L 4313 3634 
Q 3963 3931 3569 4081 
Q 3175 4231 2741 4231 
Q 1884 4231 1454 3753 
Q 1025 3275 1025 2328 
Q 1025 1384 1454 906 
Q 1884 428 2741 428 
Q 3075 428 3337 486 
Q 3600 544 3809 666 
z
" transform="scale(0.015625)"/>
     </defs>
     <use xlink:href="#DejaVuSans-47"/>
     <use xlink:href="#DejaVuSans-20" x="77.490234"/>
     <use xlink:href="#DejaVuSans-5b" x="109.277344"/>
     <use xlink:href="#DejaVuSans-34" x="148.291016"/>
     <use xlink:href="#DejaVuSans-37" x="211.914062"/>
     <use xlink:href="#DejaVuSans-5d" x="275.537109"/>
    </g>
   </g>
   <g id="text_7">
    <!-- H [9] -->
    <g transform="translate(73.410225 38.65407) scale(0.1 -0.1)">
     <defs>
      <path id="DejaVuSans-48" d="M 628 4666 
L 1259 4666 
L 1259 2753 
L 3553 2753 
L 3553 4666 
L 4184 4666 
L 4184 0 
L 3553 0 
L 3553 2222 
L 1259 2222 
L 1259 0 
L 628 0 
L 628 4666 
z
" transform="scale(0.015625)"/>
     </defs>
     <use xlink:href="#DejaVuSans-48"/>
     <use xlink:href="#DejaVuSans-20" x="75.195312"/>
     <use xlink:href="#DejaVuSans-5b" x="106.982422"/>
     <use xlink:href="#DejaVuSans-39" x="145.996094"/>
     <use xlink:href="#DejaVuSans-5d" x="209.619141"/>
    </g>
   </g>
   <g id="text_8">
    <!-- I [31] -->
    <g transform="translate(49.502152 57.125961) scale(0.1 -0.1)">
     <defs>
      <path id="DejaVuSans-49" d="M 628 4666 
L 1259 4666 
L 1259 0 
L 628 0 
L 628 4666 
z
" transform="scale(0.015625)"/>
     </defs>
     <use xlink:href="#DejaVuSans-49"/>
     <use xlink:href="#DejaVuSans-20" x="29.492188"/>
     <use xlink:href="#DejaVuSans-5b" x="61.279297"/>
     <use xlink:href="#DejaVuSans-33" x="100.292969"/>
     <use xlink:href="#DejaVuSans-31" x="163.916016"/>
     <use xlink:href="#DejaVuSans-5d" x="227.539062"/>
    </g>
   </g>
   <g id="text_9">
    <!-- K [20] -->
    <g transform="translate(23.914868 86.515581) scale(0.1 -0.1)">
     <defs>
      <path id="DejaVuSans-4b" d="M 628 4666 
L 1259 4666 
L 1259 2694 
L 3353 4666 
L 4166 4666 
L 1850 2491 
L 4331 0 
L 3500 0 
L 1259 2247 
L 1259 0 
L 628 0 
L 628 4666 
z
" transform="scale(0.015625)"/>
      <path id="DejaVuSans-30" d="M 2034 4250 
Q 1547 4250 1301 3770 
Q 1056 3291 1056 2328 
Q 1056 1369 1301 889 
Q 1547 409 2034 409 
Q 2525 409 2770 889 
Q 3016 1369 3016 2328 
Q 3016 3291 2770 3770 
Q 2525 4250 2034 4250 
z
M 2034 4750 
Q 2819 4750 3233 4129 
Q 3647 3509 3647 2328 
Q 3647 1150 3233 529 
Q 2819 -91 2034 -91 
Q 1250 -91 836 529 
Q 422 1150 422 2328 
Q 422 3509 836 4129 
Q 1250 4750 2034 4750 
z
" transform="scale(0.015625)"/>
     </defs>
     <use xlink:href="#DejaVuSans-4b"/>
     <use xlink:href="#DejaVuSans-20" x="65.576172"/>
     <use xlink:href="#DejaVuSans-5b" x="97.363281"/>
     <use xlink:href="#DejaVuSans-32" x="136.376953"/>
     <use xlink:href="#DejaVuSans-30" x="200"/>
     <use xlink:href="#DejaVuSans-5d" x="263.623047"/>
    </g>
   </g>
   <g id="text_10">
    <!-- L [66] -->
    <g transform="translate(7.2 145.477679) scale(0.1 -0.1)">
     <defs>
      <path id="DejaVuSans-4c" d="M 628 4666 
L 1259 4666 
L 1259 531 
L 3531 531 
L 3531 0 
L 628 0 
L 628 4666 
z
" transform="scale(0.015625)"/>
      <path id="DejaVuSans-36" d="M 2113 2584 
Q 1688 2584 1439 2293 
Q 1191 2003 1191 1497 
Q 1191 994 1439 701 
Q 1688 409 2113 409 
Q 2538 409 2786 701 
Q 3034 994 3034 1497 
Q 3034 2003 2786 2293 
Q 2538 2584 2113 2584 
z
M 3366 4563 
L 3366 3988 
Q 3128 4100 2886 4159 
Q 2644 4219 2406 4219 
Q 1781 4219 1451 3797 
Q 1122 3375 1075 2522 
Q 1259 2794 1537 2939 
Q 1816 3084 2150 3084 
Q 2853 3084 3261 2657 
Q 3669 2231 3669 1497 
Q 3669 778 3244 343 
Q 2819 -91 2113 -91 
Q 1303 -91 875 529 
Q 447 1150 447 2328 
Q 447 3434 972 4092 
Q 1497 4750 2381 4750 
Q 2619 4750 2861 4703 
Q 3103 4656 3366 4563 
z
" transform="scale(0.015625)"/>
     </defs>
     <use xlink:href="#DejaVuSans-4c"/>
     <use xlink:href="#DejaVuSans-20" x="55.712891"/>
     <use xlink:href="#DejaVuSans-5b" x="87.5"/>
     <use xlink:href="#DejaVuSans-36" x="126.513672"/>
     <use xlink:href="#DejaVuSans-36" x="190.136719"/>
     <use xlink:href="#DejaVuSans-5d" x="253.759766"/>
    </g>
   </g>
   <g id="text_11">
    <!-- M [13] -->
    <g transform="translate(11.510519 201.618817) scale(0.1 -0.1)">
     <defs>
      <path id="DejaVuSans-4d" d="M 628 4666 
L 1569 4666 
L 2759 1491 
L 3956 4666 
L 4897 4666 
L 4897 0 
L 4281 0 
L 4281 4097 
L 3078 897 
L 2444 897 
L 1241 4097 
L 1241 0 
L 628 0 
L 628 4666 
z
" transform="scale(0.015625)"/>
     </defs>
     <use xlink:href="#DejaVuSans-4d"/>
     <use xlink:href="#DejaVuSans-20" x="86.279297"/>
     <use xlink:href="#DejaVuSans-5b" x="118.066406"/>
     <use xlink:href="#DejaVuSans-31" x="157.080078"/>
     <use xlink:href="#DejaVuSans-33" x="220.703125"/>
     <use xlink:href="#DejaVuSans-5d" x="284.326172"/>
    </g>
   </g>
   <g id="text_12">
    <!-- N [21] -->
    <g transform="translate(22.639705 223.998354) scale(0.1 -0.1)">
     <defs>
      <path id="DejaVuSans-4e" d="M 628 4666 
L 1478 4666 
L 3547 763 
L 3547 4666 
L 4159 4666 
L 4159 0 
L 3309 0 
L 1241 3903 
L 1241 0 
L 628 0 
L 628 4666 
z
" transform="scale(0.015625)"/>
     </defs>
     <use xlink:href="#DejaVuSans-4e"/>
     <use xlink:href="#DejaVuSans-20" x="74.804688"/>
     <use xlink:href="#DejaVuSans-5b" x="106.591797"/>
     <use xlink:href="#DejaVuSans-32" x="145.605469"/>
     <use xlink:href="#DejaVuSans-31" x="209.228516"/>
     <use xlink:href="#DejaVuSans-5d" x="272.851562"/>
    </g>
   </g>
   <g id="text_13">
    <!-- P [43] -->
    <g transform="translate(52.653488 260.029858) scale(0.1 -0.1)">
     <defs>
      <path id="DejaVuSans-50" d="M 1259 4147 
L 1259 2394 
L 2053 2394 
Q 2494 2394 2734 2622 
Q 2975 2850 2975 3272 
Q 2975 3691 2734 3919 
Q 2494 4147 2053 4147 
L 1259 4147 
z
M 628 4666 
L 2053 4666 
Q 2838 4666 3239 4311 
Q 3641 3956 3641 3272 
Q 3641 2581 3239 2228 
Q 2838 1875 2053 1875 
L 1259 1875 
L 1259 0 
L 628 0 
L 628 4666 
z
" transform="scale(0.015625)"/>
     </defs>
     <use xlink:href="#DejaVuSans-50"/>
     <use xlink:href="#DejaVuSans-20" x="60.302734"/>
     <use xlink:href="#DejaVuSans-5b" x="92.089844"/>
     <use xlink:href="#DejaVuSans-34" x="131.103516"/>
     <use xlink:href="#DejaVuSans-33" x="194.726562"/>
     <use xlink:href="#DejaVuSans-5d" x="258.349609"/>
    </g>
   </g>
   <g id="text_14">
    <!-- Q [20] -->
    <g transform="translate(88.783702 284.671013) scale(0.1 -0.1)">
     <defs>
      <path id="DejaVuSans-51" d="M 2522 4238 
Q 1834 4238 1429 3725 
Q 1025 3213 1025 2328 
Q 1025 1447 1429 934 
Q 1834 422 2522 422 
Q 3209 422 3611 934 
Q 4013 1447 4013 2328 
Q 4013 3213 3611 3725 
Q 3209 4238 2522 4238 
z
M 3406 84 
L 4238 -825 
L 3475 -825 
L 2784 -78 
Q 2681 -84 2626 -87 
Q 2572 -91 2522 -91 
Q 1538 -91 948 567 
Q 359 1225 359 2328 
Q 359 3434 948 4092 
Q 1538 4750 2522 4750 
Q 3503 4750 4090 4092 
Q 4678 3434 4678 2328 
Q 4678 1516 4351 937 
Q 4025 359 3406 84 
z
" transform="scale(0.015625)"/>
     </defs>
     <use xlink:href="#DejaVuSans-51"/>
     <use xlink:href="#DejaVuSans-20" x="78.710938"/>
     <use xlink:href="#DejaVuSans-5b" x="110.498047"/>
     <use xlink:href="#DejaVuSans-32" x="149.511719"/>
     <use xlink:href="#DejaVuSans-30" x="213.134766"/>
     <use xlink:href="#DejaVuSans-5d" x="276.757812"/>
    </g>
   </g>
   <g id="text_15">
    <!-- R [41] -->
    <g transform="translate(132.093438 295.873565) scale(0.1 -0.1)">
     <defs>
      <path id="DejaVuSans-52" d="M 2841 2188 
Q 3044 2119 3236 1894 
Q 3428 1669 3622 1275 
L 4263 0 
L 3584 0 
L 2988 1197 
Q 2756 1666 2539 1819 
Q 2322 1972 1947 1972 
L 1259 1972 
L 1259 0 
L 628 0 
L 628 4666 
L 2053 4666 
Q 2853 4666 3247 4331 
Q 3641 3997 3641 3322 
Q 3641 2881 3436 2590 
Q 3231 2300 2841 2188 
z
M 1259 4147 
L 1259 2491 
L 2053 2491 
Q 2509 2491 2742 2702 
Q 2975 2913 2975 3322 
Q 2975 3731 2742 3939 
Q 2509 4147 2053 4147 
L 1259 4147 
z
" transform="scale(0.015625)"/>
     </defs>
     <use xlink:href="#DejaVuSans-52"/>
     <use xlink:href="#DejaVuSans-20" x="69.482422"/>
     <use xlink:href="#DejaVuSans-5b" x="101.269531"/>
     <use xlink:href="#DejaVuSans-34" x="140.283203"/>
     <use xlink:href="#DejaVuSans-31" x="203.90625"/>
     <use xlink:href="#DejaVuSans-5d" x="267.529297"/>
    </g>
   </g>
   <g id="text_16">
    <!-- S [48] -->
    <g transform="translate(225.921137 287.91266) scale(0.1 -0.1)">
     <defs>
      <path id="DejaVuSans-53" d="M 3425 4513 
L 3425 3897 
Q 3066 4069 2747 4153 
Q 2428 4238 2131 4238 
Q 1616 4238 1336 4038 
Q 1056 3838 1056 3469 
Q 1056 3159 1242 3001 
Q 1428 2844 1947 2747 
L 2328 2669 
Q 3034 2534 3370 2195 
Q 3706 1856 3706 1288 
Q 3706 609 3251 259 
Q 2797 -91 1919 -91 
Q 1588 -91 1214 -16 
Q 841 59 441 206 
L 441 856 
Q 825 641 1194 531 
Q 1563 422 1919 422 
Q 2459 422 2753 634 
Q 3047 847 3047 1241 
Q 3047 1584 2836 1778 
Q 2625 1972 2144 2069 
L 1759 2144 
Q 1053 2284 737 2584 
Q 422 2884 422 3419 
Q 422 4038 858 4394 
Q 1294 4750 2059 4750 
Q 2388 4750 2728 4690 
Q 3069 4631 3425 4513 
z
" transform="scale(0.015625)"/>
      <path id="DejaVuSans-38" d="M 2034 2216 
Q 1584 2216 1326 1975 
Q 1069 1734 1069 1313 
Q 1069 891 1326 650 
Q 1584 409 2034 409 
Q 2484 409 2743 651 
Q 3003 894 3003 1313 
Q 3003 1734 2745 1975 
Q 2488 2216 2034 2216 
z
M 1403 2484 
Q 997 2584 770 2862 
Q 544 3141 544 3541 
Q 544 4100 942 4425 
Q 1341 4750 2034 4750 
Q 2731 4750 3128 4425 
Q 3525 4100 3525 3541 
Q 3525 3141 3298 2862 
Q 3072 2584 2669 2484 
Q 3125 2378 3379 2068 
Q 3634 1759 3634 1313 
Q 3634 634 3220 271 
Q 2806 -91 2034 -91 
Q 1263 -91 848 271 
Q 434 634 434 1313 
Q 434 1759 690 2068 
Q 947 2378 1403 2484 
z
M 1172 3481 
Q 1172 3119 1398 2916 
Q 1625 2713 2034 2713 
Q 2441 2713 2670 2916 
Q 2900 3119 2900 3481 
Q 2900 3844 2670 4047 
Q 2441 4250 2034 4250 
Q 1625 4250 1398 4047 
Q 1172 3844 1172 3481 
z
" transform="scale(0.015625)"/>
     </defs>
     <use xlink:href="#DejaVuSans-53"/>
     <use xlink:href="#DejaVuSans-20" x="63.476562"/>
     <use xlink:href="#DejaVuSans-5b" x="95.263672"/>
     <use xlink:href="#DejaVuSans-34" x="134.277344"/>
     <use xlink:href="#DejaVuSans-38" x="197.900391"/>
     <use xlink:href="#DejaVuSans-5d" x="261.523438"/>
    </g>
   </g>
   <g id="text_17">
    <!-- T [37] -->
    <g transform="translate(277.14049 255.046453) scale(0.1 -0.1)">
     <defs>
      <path id="DejaVuSans-54" d="M -19 4666 
L 3928 4666 
L 3928 4134 
L 2272 4134 
L 2272 0 
L 1638 0 
L 1638 4134 
L -19 4134 
L -19 4666 
z
" transform="scale(0.015625)"/>
     </defs>
     <use xlink:href="#DejaVuSans-54"/>
     <use xlink:href="#DejaVuSans-20" x="61.083984"/>
     <use xlink:href="#DejaVuSans-5b" x="92.871094"/>
     <use xlink:href="#DejaVuSans-33" x="131.884766"/>
     <use xlink:href="#DejaVuSans-37" x="195.507812"/>
     <use xlink:href="#DejaVuSans-5d" x="259.130859"/>
    </g>
   </g>
   <g id="text_18">
    <!-- V [30] -->
    <g transform="translate(304.759725 215.649786) scale(0.1 -0.1)">
     <defs>
      <path id="DejaVuSans-56" d="M 1831 0 
L 50 4666 
L 709 4666 
L 2188 738 
L 3669 4666 
L 4325 4666 
L 2547 0 
L 1831 0 
z
" transform="scale(0.015625)"/>
     </defs>
     <use xlink:href="#DejaVuSans-56"/>
     <use xlink:href="#DejaVuSans-20" x="68.408203"/>
     <use xlink:href="#DejaVuSans-5b" x="100.195312"/>
     <use xlink:href="#DejaVuSans-33" x="139.208984"/>
     <use xlink:href="#DejaVuSans-30" x="202.832031"/>
     <use xlink:href="#DejaVuSans-5d" x="266.455078"/>
    </g>
   </g>
   <g id="text_19">
    <!-- W [11] -->
    <g transform="translate(314.473128 187.759754) scale(0.1 -0.1)">
     <defs>
      <path id="DejaVuSans-57" d="M 213 4666 
L 850 4666 
L 1831 722 
L 2809 4666 
L 3519 4666 
L 4500 722 
L 5478 4666 
L 6119 4666 
L 4947 0 
L 4153 0 
L 3169 4050 
L 2175 0 
L 1381 0 
L 213 4666 
z
" transform="scale(0.015625)"/>
     </defs>
     <use xlink:href="#DejaVuSans-57"/>
     <use xlink:href="#DejaVuSans-20" x="98.876953"/>
     <use xlink:href="#DejaVuSans-5b" x="130.664062"/>
     <use xlink:href="#DejaVuSans-31" x="169.677734"/>
     <use xlink:href="#DejaVuSans-31" x="233.300781"/>
     <use xlink:href="#DejaVuSans-5d" x="296.923828"/>
    </g>
   </g>
   <g id="text_20">
    <!-- Y [17] -->
    <g transform="translate(317.66194 167.82448) scale(0.1 -0.1)">
     <defs>
      <path id="DejaVuSans-59" d="M -13 4666 
L 666 4666 
L 1959 2747 
L 3244 4666 
L 3922 4666 
L 2272 2222 
L 2272 0 
L 1638 0 
L 1638 2222 
L -13 4666 
z
" transform="scale(0.015625)"/>
     </defs>
     <use xlink:href="#DejaVuSans-59"/>
     <use xlink:href="#DejaVuSans-20" x="61.083984"/>
     <use xlink:href="#DejaVuSans-5b" x="92.871094"/>
     <use xlink:href="#DejaVuSans-31" x="131.884766"/>
     <use xlink:href="#DejaVuSans-37" x="195.507812"/>
     <use xlink:href="#DejaVuSans-5d" x="259.130859"/>
    </g>
   </g>
   <g id="text_21">
    <!-- A0A5G2R7J7 [614] -->
    <g transform="translate(121.230164 152.812657) scale(0.12 -0.12)">
     <defs>
      <path id="DejaVuSans-4a" d="M 628 4666 
L 1259 4666 
L 1259 325 
Q 1259 -519 939 -900 
Q 619 -1281 -91 -1281 
L -331 -1281 
L -331 -750 
L -134 -750 
Q 284 -750 456 -515 
Q 628 -281 628 325 
L 628 4666 
z
" transform="scale(0.015625)"/>
     </defs>
     <use xlink:href="#DejaVuSans-41"/>
     <use xlink:href="#DejaVuSans-30" x="68.408203"/>
     <use xlink:href="#DejaVuSans-41" x="132.03125"/>
     <use xlink:href="#DejaVuSans-35" x="200.439453"/>
     <use xlink:href="#DejaVuSans-47" x="264.0625"/>
     <use xlink:href="#DejaVuSans-32" x="341.552734"/>
     <use xlink:href="#DejaVuSans-52" x="405.175781"/>
     <use xlink:href="#DejaVuSans-37" x="474.658203"/>
     <use xlink:href="#DejaVuSans-4a" x="538.28125"/>
     <use xlink:href="#DejaVuSans-37" x="567.773438"/>
     <use xlink:href="#DejaVuSans-20" x="631.396484"/>
     <use xlink:href="#DejaVuSans-5b" x="663.183594"/>
     <use xlink:href="#DejaVuSans-36" x="702.197266"/>
     <use xlink:href="#DejaVuSans-31" x="765.820312"/>
     <use xlink:href="#DejaVuSans-34" x="829.443359"/>
     <use xlink:href="#DejaVuSans-5d" x="893.066406"/>
    </g>
   </g>
  </g>
 </g>
</svg>
