<?xml version="1.0" encoding="utf-8" standalone="no"?>
<!DOCTYPE svg PUBLIC "-//W3C//DTD SVG 1.1//EN"
  "http://www.w3.org/Graphics/SVG/1.1/DTD/svg11.dtd">
<svg xmlns:xlink="http://www.w3.org/1999/xlink" width="349.191246pt" height="304.977013pt" viewBox="0 0 349.191246 304.977013" xmlns="http://www.w3.org/2000/svg" version="1.1">
 <metadata>
  <rdf:RDF xmlns:dc="http://purl.org/dc/elements/1.1/" xmlns:cc="http://creativecommons.org/ns#" xmlns:rdf="http://www.w3.org/1999/02/22-rdf-syntax-ns#">
   <cc:Work>
    <dc:type rdf:resource="http://purl.org/dc/dcmitype/StillImage"/>
    <dc:date>2024-09-27T16:07:27.748108</dc:date>
    <dc:format>image/svg+xml</dc:format>
    <dc:creator>
     <cc:Agent>
      <dc:title>Matplotlib v3.8.3, https://matplotlib.org/</dc:title>
     </cc:Agent>
    </dc:creator>
   </cc:Work>
  </rdf:RDF>
 </metadata>
 <defs>
  <style type="text/css">*{stroke-linejoin: round; stroke-linecap: butt}</style>
 </defs>
 <g id="figure_1">
  <g id="patch_1">
   <path d="M 0 304.977013 
L 349.191246 304.977013 
L 349.191246 0 
L 0 0 
z
" style="fill: #ffffff"/>
  </g>
  <g id="axes_1">
   <g id="patch_2">
    <path d="M 305.685102 152.476075 
C 305.685102 133.445465 301.432145 114.653213 293.23803 97.477049 
C 285.043916 80.300885 273.113907 65.171071 258.322637 53.196831 
L 177.951342 152.476075 
z
" style="fill: #1f77b4"/>
   </g>
   <g id="patch_3">
    <path d="M 258.11754 52.970481 
C 253.583237 49.299745 248.802779 45.943955 243.809752 42.926688 
C 238.816726 39.90942 233.622852 37.237758 228.264621 34.930472 
L 177.746245 152.249725 
z
" style="fill: #ff7f0e"/>
   </g>
   <g id="patch_4">
    <path d="M 228.152956 34.879529 
C 224.469931 33.293596 220.714266 31.881975 216.898442 30.649357 
C 213.082617 29.416739 209.210865 28.364491 205.296051 27.496109 
L 177.63458 152.198781 
z
" style="fill: #aec7e8"/>
   </g>
   <g id="patch_5">
    <path d="M 205.202861 27.475019 
C 201.644053 26.685606 198.053082 26.048899 194.439812 25.566646 
C 190.826542 25.084393 187.194284 24.757036 183.553012 24.585474 
L 177.54139 152.177691 
z
" style="fill: #ffbb78"/>
   </g>
   <g id="patch_6">
    <path d="M 183.443911 24.582205 
C 178.345385 24.341983 173.23704 24.407579 168.146363 24.778641 
C 163.055686 25.149702 157.991824 25.825562 152.982022 26.802583 
L 177.432289 152.174422 
z
" style="fill: #98df8a"/>
   </g>
   <g id="patch_7">
    <path d="M 152.769198 26.864355 
C 140.225072 29.310736 128.118845 33.625981 116.855564 39.665714 
C 105.592283 45.705446 95.298979 53.401547 86.320043 62.496522 
L 177.219464 152.236194 
z
" style="fill: #2ca02c"/>
   </g>
   <g id="patch_8">
    <path d="M 86.180233 62.604836 
C 85.155955 63.642351 84.149516 64.697326 83.161357 65.769298 
C 82.173198 66.84127 81.203465 67.930081 80.252584 69.035253 
L 177.079654 152.344507 
z
" style="fill: #d62728"/>
   </g>
   <g id="patch_9">
    <path d="M 80.223175 69.070031 
C 78.796809 70.72784 77.413254 72.422008 76.073879 74.150858 
C 74.734504 75.879708 73.43975 77.642671 72.190898 79.438004 
L 177.050246 152.379286 
z
" style="fill: #9467bd"/>
   </g>
   <g id="patch_10">
    <path d="M 72.16958 79.467558 
C 71.753316 80.065972 71.342182 80.66794 70.936224 81.273393 
C 70.530266 81.878846 70.129498 82.487764 69.733965 83.100078 
L 177.028927 152.40884 
z
" style="fill: #ff9896"/>
   </g>
   <g id="patch_11">
    <path d="M 69.643969 83.38281 
C 56.908368 103.098438 49.849979 125.948102 49.247289 149.411655 
C 48.644599 172.875207 54.520611 196.057107 66.227245 216.400564 
L 176.938932 152.691571 
z
" style="fill: #c5b0d5"/>
   </g>
   <g id="patch_12">
    <path d="M 66.300284 216.683624 
C 66.482072 216.999529 66.66521 217.314655 66.849695 217.628992 
C 67.03418 217.94333 67.22001 218.256876 67.407179 218.569623 
L 177.011971 152.974631 
z
" style="fill: #c49c94"/>
   </g>
   <g id="patch_13">
    <path d="M 67.421614 218.592832 
C 68.357494 220.156623 69.326733 221.700206 70.328666 223.22252 
C 71.3306 224.744835 72.364998 226.245532 73.431151 227.723582 
L 177.026406 152.99784 
z
" style="fill: #8c564b"/>
   </g>
   <g id="patch_14">
    <path d="M 73.533812 227.838849 
C 79.725189 236.4222 86.959391 244.202898 95.069934 251.001881 
C 103.180477 257.800864 112.104662 263.565573 121.637112 268.163341 
L 177.129067 153.113107 
z
" style="fill: #e377c2"/>
   </g>
   <g id="patch_15">
    <path d="M 121.760194 268.240626 
C 122.745061 268.715655 123.735986 269.178018 124.732725 269.627601 
C 125.729464 270.077184 126.731935 270.513949 127.73989 270.93779 
L 177.252149 153.190392 
z
" style="fill: #7f7f7f"/>
   </g>
   <g id="patch_16">
    <path d="M 127.901881 270.981815 
C 139.345334 275.793736 151.429389 278.911835 163.772382 280.23763 
C 176.115375 281.563424 188.585977 281.082807 200.790318 278.810959 
L 177.41414 153.234417 
z
" style="fill: #f7b6d2"/>
   </g>
   <g id="patch_17">
    <path d="M 201.065989 278.766934 
C 211.110943 276.897057 220.895352 273.828663 230.209244 269.627597 
C 239.523135 265.426532 248.299406 260.123064 256.349717 253.831004 
L 177.689811 153.190392 
z
" style="fill: #c7c7c7"/>
   </g>
   <g id="patch_18">
    <path d="M 256.489938 253.738715 
C 259.074768 251.718432 261.580807 249.599317 264.002478 247.386084 
C 266.424148 245.17285 268.759654 242.867142 271.003799 240.474089 
L 177.830032 153.098104 
z
" style="fill: #dbdb8d"/>
   </g>
   <g id="patch_19">
    <path d="M 271.103756 240.350615 
C 277.592722 233.431078 283.290723 225.810172 288.092269 217.628985 
C 292.893816 209.447799 296.769093 200.757134 299.646356 191.717885 
L 177.92999 152.974631 
z
" style="fill: #bcbd22"/>
   </g>
   <g id="patch_20">
    <path d="M 299.705418 191.57041 
C 300.700491 188.444275 301.574758 185.280964 302.326274 182.087515 
C 303.077791 178.894067 303.705998 175.672851 304.2095 172.431034 
L 177.989052 152.827156 
z
" style="fill: #17becf"/>
   </g>
   <g id="patch_21">
    <path d="M 304.222073 172.350078 
C 304.725575 169.108261 305.103996 165.84825 305.356496 162.577297 
C 305.608996 159.306344 305.735386 156.026877 305.735386 152.746192 
L 178.001626 152.7462 
z
" style="fill: #9edae5"/>
   </g>
   <g id="patch_22">
    <path d="M 251.98234 152.705237 
C 251.98234 141.604048 249.501449 130.641901 244.721549 120.622472 
C 239.941649 110.603043 232.982477 101.777319 224.354236 94.792345 
L 177.47098 152.705237 
z
" style="fill: #ffffff"/>
   </g>
   <g id="patch_23">
    <path d="M 224.354236 94.792345 
C 221.709225 92.651082 218.920625 90.693538 216.008026 88.933466 
C 213.095428 87.173393 210.065668 85.614924 206.940033 84.269007 
L 177.47098 152.705237 
z
" style="fill: #ffffff"/>
   </g>
   <g id="patch_24">
    <path d="M 206.940033 84.269007 
C 204.791602 83.343879 202.600797 82.520433 200.3749 81.801406 
C 198.149002 81.082379 195.89048 80.468568 193.606838 79.962012 
L 177.47098 152.705237 
z
" style="fill: #ffffff"/>
   </g>
   <g id="patch_25">
    <path d="M 193.606838 79.962012 
C 191.530867 79.501521 189.436134 79.130109 187.328393 78.848794 
C 185.220652 78.56748 183.101835 78.376522 180.97776 78.276444 
L 177.47098 152.705237 
z
" style="fill: #ffffff"/>
   </g>
   <g id="patch_26">
    <path d="M 180.97776 78.276444 
C 178.003619 78.136315 175.023752 78.174579 172.05419 78.391032 
C 169.084629 78.607484 166.130709 79.001736 163.208325 79.571665 
L 177.47098 152.705237 
z
" style="fill: #ffffff"/>
   </g>
   <g id="patch_27">
    <path d="M 163.208325 79.571665 
C 155.890918 80.99872 148.828952 83.515947 142.258705 87.039124 
C 135.688458 90.562301 129.684031 95.051694 124.446318 100.357096 
L 177.47098 152.705237 
z
" style="fill: #ffffff"/>
   </g>
   <g id="patch_28">
    <path d="M 124.446318 100.357096 
C 123.848823 100.962313 123.261733 101.577715 122.685307 102.203032 
C 122.108881 102.828349 121.543203 103.463489 120.988523 104.108172 
L 177.47098 152.705237 
z
" style="fill: #ffffff"/>
   </g>
   <g id="patch_29">
    <path d="M 120.988523 104.108172 
C 120.156476 105.075228 119.349402 106.063492 118.5681 107.071988 
C 117.786798 108.080484 117.031525 109.108879 116.303028 110.156156 
L 177.47098 152.705237 
z
" style="fill: #ffffff"/>
   </g>
   <g id="patch_30">
    <path d="M 116.303028 110.156156 
C 116.060207 110.505231 115.820379 110.856379 115.58357 111.20956 
C 115.346761 111.562741 115.11298 111.917943 114.882252 112.275127 
L 177.47098 152.705237 
z
" style="fill: #ffffff"/>
   </g>
   <g id="patch_31">
    <path d="M 114.882252 112.275127 
C 107.453152 123.77591 103.335758 137.10488 102.984189 150.791953 
C 102.63262 164.479025 106.060293 178.0018 112.889163 189.868817 
L 177.47098 152.705237 
z
" style="fill: #ffffff"/>
   </g>
   <g id="patch_32">
    <path d="M 112.889163 189.868817 
C 112.995206 190.053095 113.102037 190.236918 113.209653 190.420282 
C 113.317269 190.603645 113.42567 190.786547 113.534852 190.968983 
L 177.47098 152.705237 
z
" style="fill: #ffffff"/>
   </g>
   <g id="patch_33">
    <path d="M 113.534852 190.968983 
C 114.080781 191.881194 114.646171 192.781617 115.230632 193.669634 
C 115.815093 194.557651 116.418492 195.433058 117.040414 196.295253 
L 177.47098 152.705237 
z
" style="fill: #ffffff"/>
   </g>
   <g id="patch_34">
    <path d="M 117.040414 196.295253 
C 120.652051 201.302208 124.872003 205.840949 129.603153 209.807022 
C 134.334303 213.773096 139.540077 217.135843 145.100673 219.817874 
L 177.47098 152.705237 
z
" style="fill: #ffffff"/>
   </g>
   <g id="patch_35">
    <path d="M 145.100673 219.817874 
C 145.675179 220.094974 146.253218 220.364686 146.83465 220.626942 
C 147.416081 220.889199 148.000856 221.143979 148.588829 221.391219 
L 177.47098 152.705237 
z
" style="fill: #ffffff"/>
   </g>
   <g id="patch_36">
    <path d="M 148.588829 221.391219 
C 155.264177 224.198173 162.313209 226.017064 169.513288 226.790444 
C 176.713368 227.563824 183.987886 227.283465 191.107084 225.95822 
L 177.47098 152.705237 
z
" style="fill: #ffffff"/>
   </g>
   <g id="patch_37">
    <path d="M 191.107084 225.95822 
C 196.966641 224.867459 202.674212 223.077562 208.107316 220.62694 
C 213.540419 218.176319 218.65991 215.082629 223.355925 211.412261 
L 177.47098 152.705237 
z
" style="fill: #ffffff"/>
   </g>
   <g id="patch_38">
    <path d="M 223.355925 211.412261 
C 224.863743 210.233762 226.325599 208.997612 227.73824 207.706559 
C 229.150881 206.415506 230.51326 205.07051 231.822344 203.674562 
L 177.47098 152.705237 
z
" style="fill: #ffffff"/>
   </g>
   <g id="patch_39">
    <path d="M 231.822344 203.674562 
C 235.607574 199.638165 238.931408 195.192636 241.73231 190.420278 
C 244.533212 185.647919 246.793791 180.578364 248.472194 175.305469 
L 177.47098 152.705237 
z
" style="fill: #ffffff"/>
   </g>
   <g id="patch_40">
    <path d="M 248.472194 175.305469 
C 249.052653 173.48189 249.562642 171.636626 250.001027 169.773781 
C 250.439411 167.910936 250.805866 166.031893 251.099575 164.140833 
L 177.47098 152.705237 
z
" style="fill: #ffffff"/>
   </g>
   <g id="patch_41">
    <path d="M 251.099575 164.140833 
C 251.393284 162.249773 251.61403 160.3481 251.761321 158.440044 
C 251.908613 156.531988 251.982341 154.618965 251.98234 152.705233 
L 177.47098 152.705237 
z
" style="fill: #ffffff"/>
   </g>
   <g id="matplotlib.axis_1"/>
   <g id="matplotlib.axis_2"/>
   <g id="text_1">
    <!-- A [52] -->
    <g transform="translate(304.766699 94.736521) scale(0.1 -0.1)">
     <defs>
      <path id="DejaVuSans-41" d="M 2188 4044 
L 1331 1722 
L 3047 1722 
L 2188 4044 
z
M 1831 4666 
L 2547 4666 
L 4325 0 
L 3669 0 
L 3244 1197 
L 1141 1197 
L 716 0 
L 50 0 
L 1831 4666 
z
" transform="scale(0.015625)"/>
      <path id="DejaVuSans-20" transform="scale(0.015625)"/>
      <path id="DejaVuSans-5b" d="M 550 4863 
L 1875 4863 
L 1875 4416 
L 1125 4416 
L 1125 -397 
L 1875 -397 
L 1875 -844 
L 550 -844 
L 550 4863 
z
" transform="scale(0.015625)"/>
      <path id="DejaVuSans-35" d="M 691 4666 
L 3169 4666 
L 3169 4134 
L 1269 4134 
L 1269 2991 
Q 1406 3038 1543 3061 
Q 1681 3084 1819 3084 
Q 2600 3084 3056 2656 
Q 3513 2228 3513 1497 
Q 3513 744 3044 326 
Q 2575 -91 1722 -91 
Q 1428 -91 1123 -41 
Q 819 9 494 109 
L 494 744 
Q 775 591 1075 516 
Q 1375 441 1709 441 
Q 2250 441 2565 725 
Q 2881 1009 2881 1497 
Q 2881 1984 2565 2268 
Q 2250 2553 1709 2553 
Q 1456 2553 1204 2497 
Q 953 2441 691 2322 
L 691 4666 
z
" transform="scale(0.015625)"/>
      <path id="DejaVuSans-32" d="M 1228 531 
L 3431 531 
L 3431 0 
L 469 0 
L 469 531 
Q 828 903 1448 1529 
Q 2069 2156 2228 2338 
Q 2531 2678 2651 2914 
Q 2772 3150 2772 3378 
Q 2772 3750 2511 3984 
Q 2250 4219 1831 4219 
Q 1534 4219 1204 4116 
Q 875 4013 500 3803 
L 500 4441 
Q 881 4594 1212 4672 
Q 1544 4750 1819 4750 
Q 2544 4750 2975 4387 
Q 3406 4025 3406 3419 
Q 3406 3131 3298 2873 
Q 3191 2616 2906 2266 
Q 2828 2175 2409 1742 
Q 1991 1309 1228 531 
z
" transform="scale(0.015625)"/>
      <path id="DejaVuSans-5d" d="M 1947 4863 
L 1947 -844 
L 622 -844 
L 622 -397 
L 1369 -397 
L 1369 4416 
L 622 4416 
L 622 4863 
L 1947 4863 
z
" transform="scale(0.015625)"/>
     </defs>
     <use xlink:href="#DejaVuSans-41"/>
     <use xlink:href="#DejaVuSans-20" x="68.408203"/>
     <use xlink:href="#DejaVuSans-5b" x="100.195312"/>
     <use xlink:href="#DejaVuSans-35" x="139.208984"/>
     <use xlink:href="#DejaVuSans-32" x="202.832031"/>
     <use xlink:href="#DejaVuSans-5d" x="266.455078"/>
    </g>
   </g>
   <g id="text_2">
    <!-- C [16] -->
    <g transform="translate(250.416103 34.753759) scale(0.1 -0.1)">
     <defs>
      <path id="DejaVuSans-43" d="M 4122 4306 
L 4122 3641 
Q 3803 3938 3442 4084 
Q 3081 4231 2675 4231 
Q 1875 4231 1450 3742 
Q 1025 3253 1025 2328 
Q 1025 1406 1450 917 
Q 1875 428 2675 428 
Q 3081 428 3442 575 
Q 3803 722 4122 1019 
L 4122 359 
Q 3791 134 3420 21 
Q 3050 -91 2638 -91 
Q 1578 -91 968 557 
Q 359 1206 359 2328 
Q 359 3453 968 4101 
Q 1578 4750 2638 4750 
Q 3056 4750 3426 4639 
Q 3797 4528 4122 4306 
z
" transform="scale(0.015625)"/>
      <path id="DejaVuSans-31" d="M 794 531 
L 1825 531 
L 1825 4091 
L 703 3866 
L 703 4441 
L 1819 4666 
L 2450 4666 
L 2450 531 
L 3481 531 
L 3481 0 
L 794 0 
L 794 531 
z
" transform="scale(0.015625)"/>
      <path id="DejaVuSans-36" d="M 2113 2584 
Q 1688 2584 1439 2293 
Q 1191 2003 1191 1497 
Q 1191 994 1439 701 
Q 1688 409 2113 409 
Q 2538 409 2786 701 
Q 3034 994 3034 1497 
Q 3034 2003 2786 2293 
Q 2538 2584 2113 2584 
z
M 3366 4563 
L 3366 3988 
Q 3128 4100 2886 4159 
Q 2644 4219 2406 4219 
Q 1781 4219 1451 3797 
Q 1122 3375 1075 2522 
Q 1259 2794 1537 2939 
Q 1816 3084 2150 3084 
Q 2853 3084 3261 2657 
Q 3669 2231 3669 1497 
Q 3669 778 3244 343 
Q 2819 -91 2113 -91 
Q 1303 -91 875 529 
Q 447 1150 447 2328 
Q 447 3434 972 4092 
Q 1497 4750 2381 4750 
Q 2619 4750 2861 4703 
Q 3103 4656 3366 4563 
z
" transform="scale(0.015625)"/>
     </defs>
     <use xlink:href="#DejaVuSans-43"/>
     <use xlink:href="#DejaVuSans-20" x="69.824219"/>
     <use xlink:href="#DejaVuSans-5b" x="101.611328"/>
     <use xlink:href="#DejaVuSans-31" x="140.625"/>
     <use xlink:href="#DejaVuSans-36" x="204.248047"/>
     <use xlink:href="#DejaVuSans-5d" x="267.871094"/>
    </g>
   </g>
   <g id="text_3">
    <!-- D [11] -->
    <g transform="translate(220.824828 21.253789) scale(0.1 -0.1)">
     <defs>
      <path id="DejaVuSans-44" d="M 1259 4147 
L 1259 519 
L 2022 519 
Q 2988 519 3436 956 
Q 3884 1394 3884 2338 
Q 3884 3275 3436 3711 
Q 2988 4147 2022 4147 
L 1259 4147 
z
M 628 4666 
L 1925 4666 
Q 3281 4666 3915 4102 
Q 4550 3538 4550 2338 
Q 4550 1131 3912 565 
Q 3275 0 1925 0 
L 628 0 
L 628 4666 
z
" transform="scale(0.015625)"/>
     </defs>
     <use xlink:href="#DejaVuSans-44"/>
     <use xlink:href="#DejaVuSans-20" x="77.001953"/>
     <use xlink:href="#DejaVuSans-5b" x="108.789062"/>
     <use xlink:href="#DejaVuSans-31" x="147.802734"/>
     <use xlink:href="#DejaVuSans-31" x="211.425781"/>
     <use xlink:href="#DejaVuSans-5d" x="275.048828"/>
    </g>
   </g>
   <g id="text_4">
    <!-- E [10] -->
    <g transform="translate(196.129654 15.664917) scale(0.1 -0.1)">
     <defs>
      <path id="DejaVuSans-45" d="M 628 4666 
L 3578 4666 
L 3578 4134 
L 1259 4134 
L 1259 2753 
L 3481 2753 
L 3481 2222 
L 1259 2222 
L 1259 531 
L 3634 531 
L 3634 0 
L 628 0 
L 628 4666 
z
" transform="scale(0.015625)"/>
      <path id="DejaVuSans-30" d="M 2034 4250 
Q 1547 4250 1301 3770 
Q 1056 3291 1056 2328 
Q 1056 1369 1301 889 
Q 1547 409 2034 409 
Q 2525 409 2770 889 
Q 3016 1369 3016 2328 
Q 3016 3291 2770 3770 
Q 2525 4250 2034 4250 
z
M 2034 4750 
Q 2819 4750 3233 4129 
Q 3647 3509 3647 2328 
Q 3647 1150 3233 529 
Q 2819 -91 2034 -91 
Q 1250 -91 836 529 
Q 422 1150 422 2328 
Q 422 3509 836 4129 
Q 1250 4750 2034 4750 
z
" transform="scale(0.015625)"/>
     </defs>
     <use xlink:href="#DejaVuSans-45"/>
     <use xlink:href="#DejaVuSans-20" x="63.183594"/>
     <use xlink:href="#DejaVuSans-5b" x="94.970703"/>
     <use xlink:href="#DejaVuSans-31" x="133.984375"/>
     <use xlink:href="#DejaVuSans-30" x="197.607422"/>
     <use xlink:href="#DejaVuSans-5d" x="261.230469"/>
    </g>
   </g>
   <g id="text_5">
    <!-- F [14] -->
    <g transform="translate(137.759958 14.798437) scale(0.1 -0.1)">
     <defs>
      <path id="DejaVuSans-46" d="M 628 4666 
L 3309 4666 
L 3309 4134 
L 1259 4134 
L 1259 2759 
L 3109 2759 
L 3109 2228 
L 1259 2228 
L 1259 0 
L 628 0 
L 628 4666 
z
" transform="scale(0.015625)"/>
      <path id="DejaVuSans-34" d="M 2419 4116 
L 825 1625 
L 2419 1625 
L 2419 4116 
z
M 2253 4666 
L 3047 4666 
L 3047 1625 
L 3713 1625 
L 3713 1100 
L 3047 1100 
L 3047 0 
L 2419 0 
L 2419 1100 
L 313 1100 
L 313 1709 
L 2253 4666 
z
" transform="scale(0.015625)"/>
     </defs>
     <use xlink:href="#DejaVuSans-46"/>
     <use xlink:href="#DejaVuSans-20" x="57.519531"/>
     <use xlink:href="#DejaVuSans-5b" x="89.306641"/>
     <use xlink:href="#DejaVuSans-31" x="128.320312"/>
     <use xlink:href="#DejaVuSans-34" x="191.943359"/>
     <use xlink:href="#DejaVuSans-5d" x="255.566406"/>
    </g>
   </g>
   <g id="text_6">
    <!-- G [35] -->
    <g transform="translate(79.364486 31.168041) scale(0.1 -0.1)">
     <defs>
      <path id="DejaVuSans-47" d="M 3809 666 
L 3809 1919 
L 2778 1919 
L 2778 2438 
L 4434 2438 
L 4434 434 
Q 4069 175 3628 42 
Q 3188 -91 2688 -91 
Q 1594 -91 976 548 
Q 359 1188 359 2328 
Q 359 3472 976 4111 
Q 1594 4750 2688 4750 
Q 3144 4750 3555 4637 
Q 3966 4525 4313 4306 
L 4313 3634 
Q 3963 3931 3569 4081 
Q 3175 4231 2741 4231 
Q 1884 4231 1454 3753 
Q 1025 3275 1025 2328 
Q 1025 1384 1454 906 
Q 1884 428 2741 428 
Q 3075 428 3337 486 
Q 3600 544 3809 666 
z
" transform="scale(0.015625)"/>
      <path id="DejaVuSans-33" d="M 2597 2516 
Q 3050 2419 3304 2112 
Q 3559 1806 3559 1356 
Q 3559 666 3084 287 
Q 2609 -91 1734 -91 
Q 1441 -91 1130 -33 
Q 819 25 488 141 
L 488 750 
Q 750 597 1062 519 
Q 1375 441 1716 441 
Q 2309 441 2620 675 
Q 2931 909 2931 1356 
Q 2931 1769 2642 2001 
Q 2353 2234 1838 2234 
L 1294 2234 
L 1294 2753 
L 1863 2753 
Q 2328 2753 2575 2939 
Q 2822 3125 2822 3475 
Q 2822 3834 2567 4026 
Q 2313 4219 1838 4219 
Q 1578 4219 1281 4162 
Q 984 4106 628 3988 
L 628 4550 
Q 988 4650 1302 4700 
Q 1616 4750 1894 4750 
Q 2613 4750 3031 4423 
Q 3450 4097 3450 3541 
Q 3450 3153 3228 2886 
Q 3006 2619 2597 2516 
z
" transform="scale(0.015625)"/>
     </defs>
     <use xlink:href="#DejaVuSans-47"/>
     <use xlink:href="#DejaVuSans-20" x="77.490234"/>
     <use xlink:href="#DejaVuSans-5b" x="109.277344"/>
     <use xlink:href="#DejaVuSans-33" x="148.291016"/>
     <use xlink:href="#DejaVuSans-35" x="211.914062"/>
     <use xlink:href="#DejaVuSans-5d" x="275.537109"/>
    </g>
   </g>
   <g id="text_7">
    <!-- H [4] -->
    <g transform="translate(48.905465 59.871152) scale(0.1 -0.1)">
     <defs>
      <path id="DejaVuSans-48" d="M 628 4666 
L 1259 4666 
L 1259 2753 
L 3553 2753 
L 3553 4666 
L 4184 4666 
L 4184 0 
L 3553 0 
L 3553 2222 
L 1259 2222 
L 1259 0 
L 628 0 
L 628 4666 
z
" transform="scale(0.015625)"/>
     </defs>
     <use xlink:href="#DejaVuSans-48"/>
     <use xlink:href="#DejaVuSans-20" x="75.195312"/>
     <use xlink:href="#DejaVuSans-5b" x="106.982422"/>
     <use xlink:href="#DejaVuSans-34" x="145.996094"/>
     <use xlink:href="#DejaVuSans-5d" x="209.619141"/>
    </g>
   </g>
   <g id="text_8">
    <!-- I [6] -->
    <g transform="translate(45.682493 69.08739) scale(0.1 -0.1)">
     <defs>
      <path id="DejaVuSans-49" d="M 628 4666 
L 1259 4666 
L 1259 0 
L 628 0 
L 628 4666 
z
" transform="scale(0.015625)"/>
     </defs>
     <use xlink:href="#DejaVuSans-49"/>
     <use xlink:href="#DejaVuSans-20" x="29.492188"/>
     <use xlink:href="#DejaVuSans-5b" x="61.279297"/>
     <use xlink:href="#DejaVuSans-36" x="100.292969"/>
     <use xlink:href="#DejaVuSans-5d" x="163.916016"/>
    </g>
   </g>
   <g id="text_9">
    <!-- K [2] -->
    <g transform="translate(36.425391 76.919223) scale(0.1 -0.1)">
     <defs>
      <path id="DejaVuSans-4b" d="M 628 4666 
L 1259 4666 
L 1259 2694 
L 3353 4666 
L 4166 4666 
L 1850 2491 
L 4331 0 
L 3500 0 
L 1259 2247 
L 1259 0 
L 628 0 
L 628 4666 
z
" transform="scale(0.015625)"/>
     </defs>
     <use xlink:href="#DejaVuSans-4b"/>
     <use xlink:href="#DejaVuSans-20" x="65.576172"/>
     <use xlink:href="#DejaVuSans-5b" x="97.363281"/>
     <use xlink:href="#DejaVuSans-32" x="136.376953"/>
     <use xlink:href="#DejaVuSans-5d" x="200"/>
    </g>
   </g>
   <g id="text_10">
    <!-- L [64] -->
    <g transform="translate(7.2 151.843038) scale(0.1 -0.1)">
     <defs>
      <path id="DejaVuSans-4c" d="M 628 4666 
L 1259 4666 
L 1259 531 
L 3531 531 
L 3531 0 
L 628 0 
L 628 4666 
z
" transform="scale(0.015625)"/>
     </defs>
     <use xlink:href="#DejaVuSans-4c"/>
     <use xlink:href="#DejaVuSans-20" x="55.712891"/>
     <use xlink:href="#DejaVuSans-5b" x="87.5"/>
     <use xlink:href="#DejaVuSans-36" x="126.513672"/>
     <use xlink:href="#DejaVuSans-34" x="190.136719"/>
     <use xlink:href="#DejaVuSans-5d" x="253.759766"/>
    </g>
   </g>
   <g id="text_11">
    <!-- M [1] -->
    <g transform="translate(29.861593 226.853803) scale(0.1 -0.1)">
     <defs>
      <path id="DejaVuSans-4d" d="M 628 4666 
L 1569 4666 
L 2759 1491 
L 3956 4666 
L 4897 4666 
L 4897 0 
L 4281 0 
L 4281 4097 
L 3078 897 
L 2444 897 
L 1241 4097 
L 1241 0 
L 628 0 
L 628 4666 
z
" transform="scale(0.015625)"/>
     </defs>
     <use xlink:href="#DejaVuSans-4d"/>
     <use xlink:href="#DejaVuSans-20" x="86.279297"/>
     <use xlink:href="#DejaVuSans-5b" x="118.066406"/>
     <use xlink:href="#DejaVuSans-31" x="157.080078"/>
     <use xlink:href="#DejaVuSans-5d" x="220.703125"/>
    </g>
   </g>
   <g id="text_12">
    <!-- N [5] -->
    <g transform="translate(34.833892 233.004363) scale(0.1 -0.1)">
     <defs>
      <path id="DejaVuSans-4e" d="M 628 4666 
L 1478 4666 
L 3547 763 
L 3547 4666 
L 4159 4666 
L 4159 0 
L 3309 0 
L 1241 3903 
L 1241 0 
L 628 0 
L 628 4666 
z
" transform="scale(0.015625)"/>
     </defs>
     <use xlink:href="#DejaVuSans-4e"/>
     <use xlink:href="#DejaVuSans-20" x="74.804688"/>
     <use xlink:href="#DejaVuSans-5b" x="106.591797"/>
     <use xlink:href="#DejaVuSans-35" x="145.605469"/>
     <use xlink:href="#DejaVuSans-5d" x="209.228516"/>
    </g>
   </g>
   <g id="text_13">
    <!-- P [29] -->
    <g transform="translate(57.128083 263.550134) scale(0.1 -0.1)">
     <defs>
      <path id="DejaVuSans-50" d="M 1259 4147 
L 1259 2394 
L 2053 2394 
Q 2494 2394 2734 2622 
Q 2975 2850 2975 3272 
Q 2975 3691 2734 3919 
Q 2494 4147 2053 4147 
L 1259 4147 
z
M 628 4666 
L 2053 4666 
Q 2838 4666 3239 4311 
Q 3641 3956 3641 3272 
Q 3641 2581 3239 2228 
Q 2838 1875 2053 1875 
L 1259 1875 
L 1259 0 
L 628 0 
L 628 4666 
z
" transform="scale(0.015625)"/>
      <path id="DejaVuSans-39" d="M 703 97 
L 703 672 
Q 941 559 1184 500 
Q 1428 441 1663 441 
Q 2288 441 2617 861 
Q 2947 1281 2994 2138 
Q 2813 1869 2534 1725 
Q 2256 1581 1919 1581 
Q 1219 1581 811 2004 
Q 403 2428 403 3163 
Q 403 3881 828 4315 
Q 1253 4750 1959 4750 
Q 2769 4750 3195 4129 
Q 3622 3509 3622 2328 
Q 3622 1225 3098 567 
Q 2575 -91 1691 -91 
Q 1453 -91 1209 -44 
Q 966 3 703 97 
z
M 1959 2075 
Q 2384 2075 2632 2365 
Q 2881 2656 2881 3163 
Q 2881 3666 2632 3958 
Q 2384 4250 1959 4250 
Q 1534 4250 1286 3958 
Q 1038 3666 1038 3163 
Q 1038 2656 1286 2365 
Q 1534 2075 1959 2075 
z
" transform="scale(0.015625)"/>
     </defs>
     <use xlink:href="#DejaVuSans-50"/>
     <use xlink:href="#DejaVuSans-20" x="60.302734"/>
     <use xlink:href="#DejaVuSans-5b" x="92.089844"/>
     <use xlink:href="#DejaVuSans-32" x="131.103516"/>
     <use xlink:href="#DejaVuSans-39" x="194.726562"/>
     <use xlink:href="#DejaVuSans-5d" x="258.349609"/>
    </g>
   </g>
   <g id="text_14">
    <!-- Q [3] -->
    <g transform="translate(94.265158 284.030697) scale(0.1 -0.1)">
     <defs>
      <path id="DejaVuSans-51" d="M 2522 4238 
Q 1834 4238 1429 3725 
Q 1025 3213 1025 2328 
Q 1025 1447 1429 934 
Q 1834 422 2522 422 
Q 3209 422 3611 934 
Q 4013 1447 4013 2328 
Q 4013 3213 3611 3725 
Q 3209 4238 2522 4238 
z
M 3406 84 
L 4238 -825 
L 3475 -825 
L 2784 -78 
Q 2681 -84 2626 -87 
Q 2572 -91 2522 -91 
Q 1538 -91 948 567 
Q 359 1225 359 2328 
Q 359 3434 948 4092 
Q 1538 4750 2522 4750 
Q 3503 4750 4090 4092 
Q 4678 3434 4678 2328 
Q 4678 1516 4351 937 
Q 4025 359 3406 84 
z
" transform="scale(0.015625)"/>
     </defs>
     <use xlink:href="#DejaVuSans-51"/>
     <use xlink:href="#DejaVuSans-20" x="78.710938"/>
     <use xlink:href="#DejaVuSans-5b" x="110.498047"/>
     <use xlink:href="#DejaVuSans-33" x="149.511719"/>
     <use xlink:href="#DejaVuSans-5d" x="213.134766"/>
    </g>
   </g>
   <g id="text_15">
    <!-- R [34] -->
    <g transform="translate(131.753519 295.697326) scale(0.1 -0.1)">
     <defs>
      <path id="DejaVuSans-52" d="M 2841 2188 
Q 3044 2119 3236 1894 
Q 3428 1669 3622 1275 
L 4263 0 
L 3584 0 
L 2988 1197 
Q 2756 1666 2539 1819 
Q 2322 1972 1947 1972 
L 1259 1972 
L 1259 0 
L 628 0 
L 628 4666 
L 2053 4666 
Q 2853 4666 3247 4331 
Q 3641 3997 3641 3322 
Q 3641 2881 3436 2590 
Q 3231 2300 2841 2188 
z
M 1259 4147 
L 1259 2491 
L 2053 2491 
Q 2509 2491 2742 2702 
Q 2975 2913 2975 3322 
Q 2975 3731 2742 3939 
Q 2509 4147 2053 4147 
L 1259 4147 
z
" transform="scale(0.015625)"/>
     </defs>
     <use xlink:href="#DejaVuSans-52"/>
     <use xlink:href="#DejaVuSans-20" x="69.482422"/>
     <use xlink:href="#DejaVuSans-5b" x="101.269531"/>
     <use xlink:href="#DejaVuSans-33" x="140.283203"/>
     <use xlink:href="#DejaVuSans-34" x="203.90625"/>
     <use xlink:href="#DejaVuSans-5d" x="267.529297"/>
    </g>
   </g>
   <g id="text_16">
    <!-- S [28] -->
    <g transform="translate(235.461187 284.030693) scale(0.1 -0.1)">
     <defs>
      <path id="DejaVuSans-53" d="M 3425 4513 
L 3425 3897 
Q 3066 4069 2747 4153 
Q 2428 4238 2131 4238 
Q 1616 4238 1336 4038 
Q 1056 3838 1056 3469 
Q 1056 3159 1242 3001 
Q 1428 2844 1947 2747 
L 2328 2669 
Q 3034 2534 3370 2195 
Q 3706 1856 3706 1288 
Q 3706 609 3251 259 
Q 2797 -91 1919 -91 
Q 1588 -91 1214 -16 
Q 841 59 441 206 
L 441 856 
Q 825 641 1194 531 
Q 1563 422 1919 422 
Q 2459 422 2753 634 
Q 3047 847 3047 1241 
Q 3047 1584 2836 1778 
Q 2625 1972 2144 2069 
L 1759 2144 
Q 1053 2284 737 2584 
Q 422 2884 422 3419 
Q 422 4038 858 4394 
Q 1294 4750 2059 4750 
Q 2388 4750 2728 4690 
Q 3069 4631 3425 4513 
z
" transform="scale(0.015625)"/>
      <path id="DejaVuSans-38" d="M 2034 2216 
Q 1584 2216 1326 1975 
Q 1069 1734 1069 1313 
Q 1069 891 1326 650 
Q 1584 409 2034 409 
Q 2484 409 2743 651 
Q 3003 894 3003 1313 
Q 3003 1734 2745 1975 
Q 2488 2216 2034 2216 
z
M 1403 2484 
Q 997 2584 770 2862 
Q 544 3141 544 3541 
Q 544 4100 942 4425 
Q 1341 4750 2034 4750 
Q 2731 4750 3128 4425 
Q 3525 4100 3525 3541 
Q 3525 3141 3298 2862 
Q 3072 2584 2669 2484 
Q 3125 2378 3379 2068 
Q 3634 1759 3634 1313 
Q 3634 634 3220 271 
Q 2806 -91 2034 -91 
Q 1263 -91 848 271 
Q 434 634 434 1313 
Q 434 1759 690 2068 
Q 947 2378 1403 2484 
z
M 1172 3481 
Q 1172 3119 1398 2916 
Q 1625 2713 2034 2713 
Q 2441 2713 2670 2916 
Q 2900 3119 2900 3481 
Q 2900 3844 2670 4047 
Q 2441 4250 2034 4250 
Q 1625 4250 1398 4047 
Q 1172 3844 1172 3481 
z
" transform="scale(0.015625)"/>
     </defs>
     <use xlink:href="#DejaVuSans-53"/>
     <use xlink:href="#DejaVuSans-20" x="63.476562"/>
     <use xlink:href="#DejaVuSans-5b" x="95.263672"/>
     <use xlink:href="#DejaVuSans-32" x="134.277344"/>
     <use xlink:href="#DejaVuSans-38" x="197.900391"/>
     <use xlink:href="#DejaVuSans-5d" x="261.523438"/>
    </g>
   </g>
   <g id="text_17">
    <!-- T [9] -->
    <g transform="translate(272.619722 259.574257) scale(0.1 -0.1)">
     <defs>
      <path id="DejaVuSans-54" d="M -19 4666 
L 3928 4666 
L 3928 4134 
L 2272 4134 
L 2272 0 
L 1638 0 
L 1638 4134 
L -19 4134 
L -19 4666 
z
" transform="scale(0.015625)"/>
     </defs>
     <use xlink:href="#DejaVuSans-54"/>
     <use xlink:href="#DejaVuSans-20" x="61.083984"/>
     <use xlink:href="#DejaVuSans-5b" x="92.871094"/>
     <use xlink:href="#DejaVuSans-39" x="131.884766"/>
     <use xlink:href="#DejaVuSans-5d" x="195.507812"/>
    </g>
   </g>
   <g id="text_18">
    <!-- V [26] -->
    <g transform="translate(299.108497 226.853796) scale(0.1 -0.1)">
     <defs>
      <path id="DejaVuSans-56" d="M 1831 0 
L 50 4666 
L 709 4666 
L 2188 738 
L 3669 4666 
L 4325 4666 
L 2547 0 
L 1831 0 
z
" transform="scale(0.015625)"/>
     </defs>
     <use xlink:href="#DejaVuSans-56"/>
     <use xlink:href="#DejaVuSans-20" x="68.408203"/>
     <use xlink:href="#DejaVuSans-5b" x="100.195312"/>
     <use xlink:href="#DejaVuSans-32" x="139.208984"/>
     <use xlink:href="#DejaVuSans-36" x="202.832031"/>
     <use xlink:href="#DejaVuSans-5d" x="266.455078"/>
    </g>
   </g>
   <g id="text_19">
    <!-- W [9] -->
    <g transform="translate(314.759996 187.772926) scale(0.1 -0.1)">
     <defs>
      <path id="DejaVuSans-57" d="M 213 4666 
L 850 4666 
L 1831 722 
L 2809 4666 
L 3519 4666 
L 4500 722 
L 5478 4666 
L 6119 4666 
L 4947 0 
L 4153 0 
L 3169 4050 
L 2175 0 
L 1381 0 
L 213 4666 
z
" transform="scale(0.015625)"/>
     </defs>
     <use xlink:href="#DejaVuSans-57"/>
     <use xlink:href="#DejaVuSans-20" x="98.876953"/>
     <use xlink:href="#DejaVuSans-5b" x="130.664062"/>
     <use xlink:href="#DejaVuSans-39" x="169.677734"/>
     <use xlink:href="#DejaVuSans-5d" x="233.300781"/>
    </g>
   </g>
   <g id="text_20">
    <!-- Y [9] -->
    <g transform="translate(318.091983 166.319781) scale(0.1 -0.1)">
     <defs>
      <path id="DejaVuSans-59" d="M -13 4666 
L 666 4666 
L 1959 2747 
L 3244 4666 
L 3922 4666 
L 2272 2222 
L 2272 0 
L 1638 0 
L 1638 2222 
L -13 4666 
z
" transform="scale(0.015625)"/>
     </defs>
     <use xlink:href="#DejaVuSans-59"/>
     <use xlink:href="#DejaVuSans-20" x="61.083984"/>
     <use xlink:href="#DejaVuSans-5b" x="92.871094"/>
     <use xlink:href="#DejaVuSans-39" x="131.884766"/>
     <use xlink:href="#DejaVuSans-5d" x="195.507812"/>
    </g>
   </g>
   <g id="text_21">
    <!-- A0A5F5Y653 [367] -->
    <g transform="translate(121.200355 152.705237) scale(0.12 -0.12)">
     <defs>
      <path id="DejaVuSans-37" d="M 525 4666 
L 3525 4666 
L 3525 4397 
L 1831 0 
L 1172 0 
L 2766 4134 
L 525 4134 
L 525 4666 
z
" transform="scale(0.015625)"/>
     </defs>
     <use xlink:href="#DejaVuSans-41"/>
     <use xlink:href="#DejaVuSans-30" x="68.408203"/>
     <use xlink:href="#DejaVuSans-41" x="132.03125"/>
     <use xlink:href="#DejaVuSans-35" x="200.439453"/>
     <use xlink:href="#DejaVuSans-46" x="264.0625"/>
     <use xlink:href="#DejaVuSans-35" x="321.582031"/>
     <use xlink:href="#DejaVuSans-59" x="385.205078"/>
     <use xlink:href="#DejaVuSans-36" x="446.289062"/>
     <use xlink:href="#DejaVuSans-35" x="509.912109"/>
     <use xlink:href="#DejaVuSans-33" x="573.535156"/>
     <use xlink:href="#DejaVuSans-20" x="637.158203"/>
     <use xlink:href="#DejaVuSans-5b" x="668.945312"/>
     <use xlink:href="#DejaVuSans-33" x="707.958984"/>
     <use xlink:href="#DejaVuSans-36" x="771.582031"/>
     <use xlink:href="#DejaVuSans-37" x="835.205078"/>
     <use xlink:href="#DejaVuSans-5d" x="898.828125"/>
    </g>
   </g>
  </g>
 </g>
</svg>
