<?xml version="1.0" encoding="utf-8" standalone="no"?>
<!DOCTYPE svg PUBLIC "-//W3C//DTD SVG 1.1//EN"
  "http://www.w3.org/Graphics/SVG/1.1/DTD/svg11.dtd">
<svg xmlns:xlink="http://www.w3.org/1999/xlink" width="356.280244pt" height="305.504801pt" viewBox="0 0 356.280244 305.504801" xmlns="http://www.w3.org/2000/svg" version="1.1">
 <metadata>
  <rdf:RDF xmlns:dc="http://purl.org/dc/elements/1.1/" xmlns:cc="http://creativecommons.org/ns#" xmlns:rdf="http://www.w3.org/1999/02/22-rdf-syntax-ns#">
   <cc:Work>
    <dc:type rdf:resource="http://purl.org/dc/dcmitype/StillImage"/>
    <dc:date>2024-09-27T16:07:19.826871</dc:date>
    <dc:format>image/svg+xml</dc:format>
    <dc:creator>
     <cc:Agent>
      <dc:title>Matplotlib v3.8.3, https://matplotlib.org/</dc:title>
     </cc:Agent>
    </dc:creator>
   </cc:Work>
  </rdf:RDF>
 </metadata>
 <defs>
  <style type="text/css">*{stroke-linejoin: round; stroke-linecap: butt}</style>
 </defs>
 <g id="figure_1">
  <g id="patch_1">
   <path d="M 0 305.504801 
L 356.280244 305.504801 
L 356.280244 0 
L 0 0 
z
" style="fill: #ffffff"/>
  </g>
  <g id="axes_1">
   <g id="patch_2">
    <path d="M 307.145763 152.790852 
C 307.145763 143.034326 306.027932 133.309845 303.814156 123.807794 
C 301.60038 114.305742 298.3052 105.088537 293.993129 96.336633 
L 179.412003 152.790852 
z
" style="fill: #1f77b4"/>
   </g>
   <g id="patch_3">
    <path d="M 293.931853 96.184717 
C 292.42407 93.124477 290.794293 90.125871 289.046442 87.196111 
C 287.298591 84.266351 285.434069 81.407789 283.457362 78.627303 
L 179.350726 152.638936 
z
" style="fill: #ff7f0e"/>
   </g>
   <g id="patch_4">
    <path d="M 283.404061 78.553231 
C 281.144875 75.375402 278.741369 72.302681 276.201095 69.344721 
C 273.660821 66.38676 270.986443 63.546663 268.186361 60.83335 
L 179.297426 152.564864 
z
" style="fill: #aec7e8"/>
   </g>
   <g id="patch_5">
    <path d="M 268.092218 60.747208 
C 263.540783 56.336813 258.667408 52.27127 253.512486 48.584276 
C 248.357565 44.897283 242.935378 41.599054 237.290869 38.716927 
L 179.203282 152.478721 
z
" style="fill: #ffbb78"/>
   </g>
   <g id="patch_6">
    <path d="M 237.153226 38.646149 
C 231.726002 35.874969 226.107421 33.495712 220.340546 31.526614 
C 214.57367 29.557515 208.673271 28.003618 202.684569 26.876832 
L 179.065639 152.407942 
z
" style="fill: #98df8a"/>
   </g>
   <g id="patch_7">
    <path d="M 202.486712 26.84891 
C 192.658181 24.999652 182.646386 24.311072 172.657225 24.797331 
C 162.668064 25.283591 152.770485 26.941333 143.168036 29.736465 
L 178.867783 152.38002 
z
" style="fill: #2ca02c"/>
   </g>
   <g id="patch_8">
    <path d="M 143.016182 29.766389 
C 140.676641 30.447395 138.357065 31.195205 136.060303 32.008901 
C 133.76354 32.822597 131.49053 33.701846 129.244065 34.645568 
L 178.715929 152.409943 
z
" style="fill: #d62728"/>
   </g>
   <g id="patch_9">
    <path d="M 129.142607 34.694121 
C 123.074548 37.243264 117.21258 40.257602 111.609093 43.710196 
C 106.005607 47.162791 100.677345 51.043324 95.671929 55.317114 
L 178.614471 152.458497 
z
" style="fill: #9467bd"/>
   </g>
   <g id="patch_10">
    <path d="M 95.563645 55.405367 
C 92.042198 58.412095 88.68685 61.608082 85.512461 64.979173 
C 82.338072 68.350264 79.349337 71.891473 76.559494 75.587115 
L 178.506186 152.54675 
z
" style="fill: #ff9896"/>
   </g>
   <g id="patch_11">
    <path d="M 76.435529 75.804694 
C 67.014302 88.284782 59.964337 102.389432 55.637028 117.415626 
C 51.309718 132.44182 49.778174 148.135689 51.118731 163.715003 
L 178.382222 152.764328 
z
" style="fill: #c5b0d5"/>
   </g>
   <g id="patch_12">
    <path d="M 51.104285 163.944193 
C 51.354966 166.857485 51.705609 169.76131 52.155593 172.650536 
C 52.605578 175.539761 53.15464 178.412684 53.801807 181.264224 
L 178.367776 152.993519 
z
" style="fill: #c49c94"/>
   </g>
   <g id="patch_13">
    <path d="M 53.823529 181.352857 
C 54.7944 185.630693 55.98499 189.855678 57.390566 194.011015 
C 58.796142 198.166352 60.414839 202.246527 62.240222 206.235317 
L 178.389498 153.082151 
z
" style="fill: #8c564b"/>
   </g>
   <g id="patch_14">
    <path d="M 62.290469 206.342672 
C 64.420252 210.996632 66.827829 215.518382 69.500174 219.883458 
C 72.17252 224.248534 75.104806 228.449051 78.28117 232.462284 
L 178.439745 153.189506 
z
" style="fill: #e377c2"/>
   </g>
   <g id="patch_15">
    <path d="M 78.34553 232.547034 
C 80.462752 235.222075 82.686292 237.811223 85.010801 240.308247 
C 87.335311 242.805272 89.758923 245.20817 92.275808 247.511161 
L 178.504105 153.274256 
z
" style="fill: #7f7f7f"/>
   </g>
   <g id="patch_16">
    <path d="M 92.381007 247.598412 
C 97.957015 252.700551 103.974878 257.297736 110.363732 261.335835 
C 116.752585 265.373933 123.487252 268.837031 130.488428 271.684349 
L 178.609304 153.361507 
z
" style="fill: #f7b6d2"/>
   </g>
   <g id="patch_17">
    <path d="M 130.728674 271.764849 
C 142.713466 276.63896 155.369534 279.664012 168.263035 280.736309 
C 181.156536 281.808605 194.13844 280.915752 206.763732 278.088354 
L 178.84955 153.442007 
z
" style="fill: #c7c7c7"/>
   </g>
   <g id="patch_18">
    <path d="M 207.03346 278.039998 
C 216.07717 276.014686 224.87366 273.011127 233.267452 269.082409 
C 241.661244 265.153691 249.60259 260.323098 256.951127 254.676012 
L 179.119278 153.393651 
z
" style="fill: #dbdb8d"/>
   </g>
   <g id="patch_19">
    <path d="M 257.155729 254.507302 
C 266.831796 247.071593 275.392559 238.287496 282.576665 228.423184 
C 289.760771 218.558873 295.494357 207.715763 299.602381 196.22489 
L 179.32388 153.22494 
z
" style="fill: #bcbd22"/>
   </g>
   <g id="patch_20">
    <path d="M 299.685252 196.052988 
C 300.751645 193.070095 301.706707 190.048564 302.548456 186.994664 
C 303.390204 183.940764 304.118057 180.856607 304.730504 177.748592 
L 179.406751 153.053038 
z
" style="fill: #17becf"/>
   </g>
   <g id="patch_21">
    <path d="M 304.747121 177.658862 
C 305.548078 173.594203 306.150817 169.492982 306.553198 165.369745 
C 306.95558 161.246509 307.157128 157.106136 307.157128 152.963312 
L 179.423368 152.963308 
z
" style="fill: #9edae5"/>
   </g>
   <g id="patch_22">
    <path d="M 253.40502 152.911614 
C 253.40502 147.220308 252.752953 141.547694 251.461583 136.004831 
C 250.170214 130.461967 248.248026 125.085264 245.732651 119.979987 
L 178.89366 152.911614 
z
" style="fill: #ffffff"/>
   </g>
   <g id="patch_23">
    <path d="M 245.732651 119.979987 
C 244.853111 118.194847 243.902408 116.44566 242.882828 114.736633 
C 241.863248 113.027606 240.77561 111.360112 239.622531 109.738162 
L 178.89366 152.911614 
z
" style="fill: #ffffff"/>
   </g>
   <g id="patch_24">
    <path d="M 239.622531 109.738162 
C 238.304672 107.884428 236.902627 106.092008 235.420801 104.366531 
C 233.938975 102.641054 232.37892 100.98433 230.74554 99.401565 
L 178.89366 152.911614 
z
" style="fill: #ffffff"/>
   </g>
   <g id="patch_25">
    <path d="M 230.74554 99.401565 
C 228.090536 96.828835 225.247734 94.457268 222.240696 92.306522 
C 219.233659 90.155776 216.070716 88.231809 212.778086 86.550568 
L 178.89366 152.911614 
z
" style="fill: #ffffff"/>
   </g>
   <g id="patch_26">
    <path d="M 212.778086 86.550568 
C 209.612205 84.934047 206.3347 83.546147 202.970689 82.397506 
C 199.606678 81.248865 196.164779 80.342425 192.671369 79.685134 
L 178.89366 152.911614 
z
" style="fill: #ffffff"/>
   </g>
   <g id="patch_27">
    <path d="M 192.671369 79.685134 
C 186.938059 78.6064 181.097846 78.204728 175.270835 78.488379 
C 169.443824 78.772031 163.670236 79.739047 158.068808 81.369541 
L 178.89366 152.911614 
z
" style="fill: #ffffff"/>
   </g>
   <g id="patch_28">
    <path d="M 158.068808 81.369541 
C 156.704076 81.766794 155.35099 82.203017 154.011212 82.677673 
C 152.671434 83.152329 151.345511 83.665224 150.035073 84.215729 
L 178.89366 152.911614 
z
" style="fill: #ffffff"/>
   </g>
   <g id="patch_29">
    <path d="M 150.035073 84.215729 
C 146.495372 85.702729 143.07589 87.461093 139.80719 89.475106 
C 136.538489 91.489119 133.430337 93.752764 130.510511 96.245808 
L 178.89366 152.911614 
z
" style="fill: #ffffff"/>
   </g>
   <g id="patch_30">
    <path d="M 130.510511 96.245808 
C 128.456334 97.999733 126.499047 99.864059 124.64732 101.830528 
C 122.795594 103.796998 121.052165 105.862703 119.424756 108.018495 
L 178.89366 152.911614 
z
" style="fill: #ffffff"/>
   </g>
   <g id="patch_31">
    <path d="M 119.424756 108.018495 
C 113.92904 115.298546 109.816561 123.526258 107.292297 132.291538 
C 104.768033 141.056818 103.874632 150.211575 104.656624 159.299508 
L 178.89366 152.911614 
z
" style="fill: #ffffff"/>
   </g>
   <g id="patch_32">
    <path d="M 104.656624 159.299508 
C 104.802854 160.998928 105.007396 162.692826 105.269887 164.378208 
C 105.532378 166.063589 105.852664 167.739461 106.230178 169.402859 
L 178.89366 152.911614 
z
" style="fill: #ffffff"/>
   </g>
   <g id="patch_33">
    <path d="M 106.230178 169.402859 
C 106.79652 171.898264 107.491031 174.362838 108.31095 176.786785 
C 109.130869 179.210732 110.075109 181.590834 111.139916 183.917628 
L 178.89366 152.911614 
z
" style="fill: #ffffff"/>
   </g>
   <g id="patch_34">
    <path d="M 111.139916 183.917628 
C 112.382289 186.632438 113.786709 189.270125 115.345577 191.81642 
C 116.904445 194.362714 118.614946 196.813016 120.467825 199.154068 
L 178.89366 152.911614 
z
" style="fill: #ffffff"/>
   </g>
   <g id="patch_35">
    <path d="M 120.467825 199.154068 
C 121.702871 200.714509 122.999936 202.224845 124.3559 203.681443 
C 125.711864 205.138041 127.125638 206.539731 128.593821 207.883142 
L 178.89366 152.911614 
z
" style="fill: #ffffff"/>
   </g>
   <g id="patch_36">
    <path d="M 128.593821 207.883142 
C 131.846492 210.85939 135.356912 213.541081 139.083743 215.896639 
C 142.810574 218.252196 146.73913 220.272337 150.82315 221.933272 
L 178.89366 152.911614 
z
" style="fill: #ffffff"/>
   </g>
   <g id="patch_37">
    <path d="M 150.82315 221.933272 
C 157.814278 224.776503 165.196985 226.541117 172.718194 227.166624 
C 180.239402 227.79213 187.812179 227.271299 195.176933 225.621984 
L 178.89366 152.911614 
z
" style="fill: #ffffff"/>
   </g>
   <g id="patch_38">
    <path d="M 195.176933 225.621984 
C 200.452431 224.440552 205.583717 222.688475 210.480095 220.396723 
C 215.376474 218.104971 220.008926 215.287125 224.295572 211.992992 
L 178.89366 152.911614 
z
" style="fill: #ffffff"/>
   </g>
   <g id="patch_39">
    <path d="M 224.295572 211.992992 
C 229.939944 207.655495 234.933723 202.531438 239.124451 196.777257 
C 243.31518 191.023075 246.659772 184.697928 249.056119 177.994919 
L 178.89366 152.911614 
z
" style="fill: #ffffff"/>
   </g>
   <g id="patch_40">
    <path d="M 249.056119 177.994919 
C 249.678182 176.254898 250.235302 174.492338 250.726321 172.710896 
C 251.217341 170.929454 251.641922 169.130363 251.999183 167.317355 
L 178.89366 152.911614 
z
" style="fill: #ffffff"/>
   </g>
   <g id="patch_41">
    <path d="M 251.999183 167.317355 
C 252.466408 164.946303 252.818006 162.553924 253.052728 160.148703 
C 253.28745 157.743482 253.40502 155.328264 253.40502 152.911617 
L 178.89366 152.911614 
z
" style="fill: #ffffff"/>
   </g>
   <g id="matplotlib.axis_1"/>
   <g id="matplotlib.axis_2"/>
   <g id="text_1">
    <!-- A [40] -->
    <g transform="translate(316.254371 123.668863) scale(0.1 -0.1)">
     <defs>
      <path id="DejaVuSans-41" d="M 2188 4044 
L 1331 1722 
L 3047 1722 
L 2188 4044 
z
M 1831 4666 
L 2547 4666 
L 4325 0 
L 3669 0 
L 3244 1197 
L 1141 1197 
L 716 0 
L 50 0 
L 1831 4666 
z
" transform="scale(0.015625)"/>
      <path id="DejaVuSans-20" transform="scale(0.015625)"/>
      <path id="DejaVuSans-5b" d="M 550 4863 
L 1875 4863 
L 1875 4416 
L 1125 4416 
L 1125 -397 
L 1875 -397 
L 1875 -844 
L 550 -844 
L 550 4863 
z
" transform="scale(0.015625)"/>
      <path id="DejaVuSans-34" d="M 2419 4116 
L 825 1625 
L 2419 1625 
L 2419 4116 
z
M 2253 4666 
L 3047 4666 
L 3047 1625 
L 3713 1625 
L 3713 1100 
L 3047 1100 
L 3047 0 
L 2419 0 
L 2419 1100 
L 313 1100 
L 313 1709 
L 2253 4666 
z
" transform="scale(0.015625)"/>
      <path id="DejaVuSans-30" d="M 2034 4250 
Q 1547 4250 1301 3770 
Q 1056 3291 1056 2328 
Q 1056 1369 1301 889 
Q 1547 409 2034 409 
Q 2525 409 2770 889 
Q 3016 1369 3016 2328 
Q 3016 3291 2770 3770 
Q 2525 4250 2034 4250 
z
M 2034 4750 
Q 2819 4750 3233 4129 
Q 3647 3509 3647 2328 
Q 3647 1150 3233 529 
Q 2819 -91 2034 -91 
Q 1250 -91 836 529 
Q 422 1150 422 2328 
Q 422 3509 836 4129 
Q 1250 4750 2034 4750 
z
" transform="scale(0.015625)"/>
      <path id="DejaVuSans-5d" d="M 1947 4863 
L 1947 -844 
L 622 -844 
L 622 -397 
L 1369 -397 
L 1369 4416 
L 622 4416 
L 622 4863 
L 1947 4863 
z
" transform="scale(0.015625)"/>
     </defs>
     <use xlink:href="#DejaVuSans-41"/>
     <use xlink:href="#DejaVuSans-20" x="68.408203"/>
     <use xlink:href="#DejaVuSans-5b" x="100.195312"/>
     <use xlink:href="#DejaVuSans-34" x="139.208984"/>
     <use xlink:href="#DejaVuSans-30" x="202.832031"/>
     <use xlink:href="#DejaVuSans-5d" x="266.455078"/>
    </g>
   </g>
   <g id="text_2">
    <!-- C [14] -->
    <g transform="translate(300.016013 83.411203) scale(0.1 -0.1)">
     <defs>
      <path id="DejaVuSans-43" d="M 4122 4306 
L 4122 3641 
Q 3803 3938 3442 4084 
Q 3081 4231 2675 4231 
Q 1875 4231 1450 3742 
Q 1025 3253 1025 2328 
Q 1025 1406 1450 917 
Q 1875 428 2675 428 
Q 3081 428 3442 575 
Q 3803 722 4122 1019 
L 4122 359 
Q 3791 134 3420 21 
Q 3050 -91 2638 -91 
Q 1578 -91 968 557 
Q 359 1206 359 2328 
Q 359 3453 968 4101 
Q 1578 4750 2638 4750 
Q 3056 4750 3426 4639 
Q 3797 4528 4122 4306 
z
" transform="scale(0.015625)"/>
      <path id="DejaVuSans-31" d="M 794 531 
L 1825 531 
L 1825 4091 
L 703 3866 
L 703 4441 
L 1819 4666 
L 2450 4666 
L 2450 531 
L 3481 531 
L 3481 0 
L 794 0 
L 794 531 
z
" transform="scale(0.015625)"/>
     </defs>
     <use xlink:href="#DejaVuSans-43"/>
     <use xlink:href="#DejaVuSans-20" x="69.824219"/>
     <use xlink:href="#DejaVuSans-5b" x="101.611328"/>
     <use xlink:href="#DejaVuSans-31" x="140.625"/>
     <use xlink:href="#DejaVuSans-34" x="204.248047"/>
     <use xlink:href="#DejaVuSans-5d" x="267.871094"/>
    </g>
   </g>
   <g id="text_3">
    <!-- D [16] -->
    <g transform="translate(285.891462 63.782081) scale(0.1 -0.1)">
     <defs>
      <path id="DejaVuSans-44" d="M 1259 4147 
L 1259 519 
L 2022 519 
Q 2988 519 3436 956 
Q 3884 1394 3884 2338 
Q 3884 3275 3436 3711 
Q 2988 4147 2022 4147 
L 1259 4147 
z
M 628 4666 
L 1925 4666 
Q 3281 4666 3915 4102 
Q 4550 3538 4550 2338 
Q 4550 1131 3912 565 
Q 3275 0 1925 0 
L 628 0 
L 628 4666 
z
" transform="scale(0.015625)"/>
      <path id="DejaVuSans-36" d="M 2113 2584 
Q 1688 2584 1439 2293 
Q 1191 2003 1191 1497 
Q 1191 994 1439 701 
Q 1688 409 2113 409 
Q 2538 409 2786 701 
Q 3034 994 3034 1497 
Q 3034 2003 2786 2293 
Q 2538 2584 2113 2584 
z
M 3366 4563 
L 3366 3988 
Q 3128 4100 2886 4159 
Q 2644 4219 2406 4219 
Q 1781 4219 1451 3797 
Q 1122 3375 1075 2522 
Q 1259 2794 1537 2939 
Q 1816 3084 2150 3084 
Q 2853 3084 3261 2657 
Q 3669 2231 3669 1497 
Q 3669 778 3244 343 
Q 2819 -91 2113 -91 
Q 1303 -91 875 529 
Q 447 1150 447 2328 
Q 447 3434 972 4092 
Q 1497 4750 2381 4750 
Q 2619 4750 2861 4703 
Q 3103 4656 3366 4563 
z
" transform="scale(0.015625)"/>
     </defs>
     <use xlink:href="#DejaVuSans-44"/>
     <use xlink:href="#DejaVuSans-20" x="77.001953"/>
     <use xlink:href="#DejaVuSans-5b" x="108.789062"/>
     <use xlink:href="#DejaVuSans-31" x="147.802734"/>
     <use xlink:href="#DejaVuSans-36" x="211.425781"/>
     <use xlink:href="#DejaVuSans-5d" x="275.048828"/>
    </g>
   </g>
   <g id="text_4">
    <!-- E [26] -->
    <g transform="translate(260.943407 40.954207) scale(0.1 -0.1)">
     <defs>
      <path id="DejaVuSans-45" d="M 628 4666 
L 3578 4666 
L 3578 4134 
L 1259 4134 
L 1259 2753 
L 3481 2753 
L 3481 2222 
L 1259 2222 
L 1259 531 
L 3634 531 
L 3634 0 
L 628 0 
L 628 4666 
z
" transform="scale(0.015625)"/>
      <path id="DejaVuSans-32" d="M 1228 531 
L 3431 531 
L 3431 0 
L 469 0 
L 469 531 
Q 828 903 1448 1529 
Q 2069 2156 2228 2338 
Q 2531 2678 2651 2914 
Q 2772 3150 2772 3378 
Q 2772 3750 2511 3984 
Q 2250 4219 1831 4219 
Q 1534 4219 1204 4116 
Q 875 4013 500 3803 
L 500 4441 
Q 881 4594 1212 4672 
Q 1544 4750 1819 4750 
Q 2544 4750 2975 4387 
Q 3406 4025 3406 3419 
Q 3406 3131 3298 2873 
Q 3191 2616 2906 2266 
Q 2828 2175 2409 1742 
Q 1991 1309 1228 531 
z
" transform="scale(0.015625)"/>
     </defs>
     <use xlink:href="#DejaVuSans-45"/>
     <use xlink:href="#DejaVuSans-20" x="63.183594"/>
     <use xlink:href="#DejaVuSans-5b" x="94.970703"/>
     <use xlink:href="#DejaVuSans-32" x="133.984375"/>
     <use xlink:href="#DejaVuSans-36" x="197.607422"/>
     <use xlink:href="#DejaVuSans-5d" x="261.230469"/>
    </g>
   </g>
   <g id="text_5">
    <!-- F [25] -->
    <g transform="translate(224.468036 22.197856) scale(0.1 -0.1)">
     <defs>
      <path id="DejaVuSans-46" d="M 628 4666 
L 3309 4666 
L 3309 4134 
L 1259 4134 
L 1259 2759 
L 3109 2759 
L 3109 2228 
L 1259 2228 
L 1259 0 
L 628 0 
L 628 4666 
z
" transform="scale(0.015625)"/>
      <path id="DejaVuSans-35" d="M 691 4666 
L 3169 4666 
L 3169 4134 
L 1269 4134 
L 1269 2991 
Q 1406 3038 1543 3061 
Q 1681 3084 1819 3084 
Q 2600 3084 3056 2656 
Q 3513 2228 3513 1497 
Q 3513 744 3044 326 
Q 2575 -91 1722 -91 
Q 1428 -91 1123 -41 
Q 819 9 494 109 
L 494 744 
Q 775 591 1075 516 
Q 1375 441 1709 441 
Q 2250 441 2565 725 
Q 2881 1009 2881 1497 
Q 2881 1984 2565 2268 
Q 2250 2553 1709 2553 
Q 1456 2553 1204 2497 
Q 953 2441 691 2322 
L 691 4666 
z
" transform="scale(0.015625)"/>
     </defs>
     <use xlink:href="#DejaVuSans-46"/>
     <use xlink:href="#DejaVuSans-20" x="57.519531"/>
     <use xlink:href="#DejaVuSans-5b" x="89.306641"/>
     <use xlink:href="#DejaVuSans-32" x="128.320312"/>
     <use xlink:href="#DejaVuSans-35" x="191.943359"/>
     <use xlink:href="#DejaVuSans-5d" x="255.566406"/>
    </g>
   </g>
   <g id="text_6">
    <!-- G [41] -->
    <g transform="translate(140.581482 14.798437) scale(0.1 -0.1)">
     <defs>
      <path id="DejaVuSans-47" d="M 3809 666 
L 3809 1919 
L 2778 1919 
L 2778 2438 
L 4434 2438 
L 4434 434 
Q 4069 175 3628 42 
Q 3188 -91 2688 -91 
Q 1594 -91 976 548 
Q 359 1188 359 2328 
Q 359 3472 976 4111 
Q 1594 4750 2688 4750 
Q 3144 4750 3555 4637 
Q 3966 4525 4313 4306 
L 4313 3634 
Q 3963 3931 3569 4081 
Q 3175 4231 2741 4231 
Q 1884 4231 1454 3753 
Q 1025 3275 1025 2328 
Q 1025 1384 1454 906 
Q 1884 428 2741 428 
Q 3075 428 3337 486 
Q 3600 544 3809 666 
z
" transform="scale(0.015625)"/>
     </defs>
     <use xlink:href="#DejaVuSans-47"/>
     <use xlink:href="#DejaVuSans-20" x="77.490234"/>
     <use xlink:href="#DejaVuSans-5b" x="109.277344"/>
     <use xlink:href="#DejaVuSans-34" x="148.291016"/>
     <use xlink:href="#DejaVuSans-31" x="211.914062"/>
     <use xlink:href="#DejaVuSans-5d" x="275.537109"/>
    </g>
   </g>
   <g id="text_7">
    <!-- H [10] -->
    <g transform="translate(100.568178 22.728172) scale(0.1 -0.1)">
     <defs>
      <path id="DejaVuSans-48" d="M 628 4666 
L 1259 4666 
L 1259 2753 
L 3553 2753 
L 3553 4666 
L 4184 4666 
L 4184 0 
L 3553 0 
L 3553 2222 
L 1259 2222 
L 1259 0 
L 628 0 
L 628 4666 
z
" transform="scale(0.015625)"/>
     </defs>
     <use xlink:href="#DejaVuSans-48"/>
     <use xlink:href="#DejaVuSans-20" x="75.195312"/>
     <use xlink:href="#DejaVuSans-5b" x="106.982422"/>
     <use xlink:href="#DejaVuSans-31" x="145.996094"/>
     <use xlink:href="#DejaVuSans-30" x="209.619141"/>
     <use xlink:href="#DejaVuSans-5d" x="273.242188"/>
    </g>
   </g>
   <g id="text_8">
    <!-- I [27] -->
    <g transform="translate(78.252306 35.594741) scale(0.1 -0.1)">
     <defs>
      <path id="DejaVuSans-49" d="M 628 4666 
L 1259 4666 
L 1259 0 
L 628 0 
L 628 4666 
z
" transform="scale(0.015625)"/>
      <path id="DejaVuSans-37" d="M 525 4666 
L 3525 4666 
L 3525 4397 
L 1831 0 
L 1172 0 
L 2766 4134 
L 525 4134 
L 525 4666 
z
" transform="scale(0.015625)"/>
     </defs>
     <use xlink:href="#DejaVuSans-49"/>
     <use xlink:href="#DejaVuSans-20" x="29.492188"/>
     <use xlink:href="#DejaVuSans-5b" x="61.279297"/>
     <use xlink:href="#DejaVuSans-32" x="100.292969"/>
     <use xlink:href="#DejaVuSans-37" x="163.916016"/>
     <use xlink:href="#DejaVuSans-5d" x="227.539062"/>
    </g>
   </g>
   <g id="text_9">
    <!-- K [19] -->
    <g transform="translate(45.949026 58.98179) scale(0.1 -0.1)">
     <defs>
      <path id="DejaVuSans-4b" d="M 628 4666 
L 1259 4666 
L 1259 2694 
L 3353 4666 
L 4166 4666 
L 1850 2491 
L 4331 0 
L 3500 0 
L 1259 2247 
L 1259 0 
L 628 0 
L 628 4666 
z
" transform="scale(0.015625)"/>
      <path id="DejaVuSans-39" d="M 703 97 
L 703 672 
Q 941 559 1184 500 
Q 1428 441 1663 441 
Q 2288 441 2617 861 
Q 2947 1281 2994 2138 
Q 2813 1869 2534 1725 
Q 2256 1581 1919 1581 
Q 1219 1581 811 2004 
Q 403 2428 403 3163 
Q 403 3881 828 4315 
Q 1253 4750 1959 4750 
Q 2769 4750 3195 4129 
Q 3622 3509 3622 2328 
Q 3622 1225 3098 567 
Q 2575 -91 1691 -91 
Q 1453 -91 1209 -44 
Q 966 3 703 97 
z
M 1959 2075 
Q 2384 2075 2632 2365 
Q 2881 2656 2881 3163 
Q 2881 3666 2632 3958 
Q 2384 4250 1959 4250 
Q 1534 4250 1286 3958 
Q 1038 3666 1038 3163 
Q 1038 2656 1286 2365 
Q 1534 2075 1959 2075 
z
" transform="scale(0.015625)"/>
     </defs>
     <use xlink:href="#DejaVuSans-4b"/>
     <use xlink:href="#DejaVuSans-20" x="65.576172"/>
     <use xlink:href="#DejaVuSans-5b" x="97.363281"/>
     <use xlink:href="#DejaVuSans-31" x="136.376953"/>
     <use xlink:href="#DejaVuSans-39" x="200"/>
     <use xlink:href="#DejaVuSans-5d" x="263.623047"/>
    </g>
   </g>
   <g id="text_10">
    <!-- L [64] -->
    <g transform="translate(14.084383 116.640131) scale(0.1 -0.1)">
     <defs>
      <path id="DejaVuSans-4c" d="M 628 4666 
L 1259 4666 
L 1259 531 
L 3531 531 
L 3531 0 
L 628 0 
L 628 4666 
z
" transform="scale(0.015625)"/>
     </defs>
     <use xlink:href="#DejaVuSans-4c"/>
     <use xlink:href="#DejaVuSans-20" x="55.712891"/>
     <use xlink:href="#DejaVuSans-5b" x="87.5"/>
     <use xlink:href="#DejaVuSans-36" x="126.513672"/>
     <use xlink:href="#DejaVuSans-34" x="190.136719"/>
     <use xlink:href="#DejaVuSans-5d" x="253.759766"/>
    </g>
   </g>
   <g id="text_11">
    <!-- M [12] -->
    <g transform="translate(7.2 177.375613) scale(0.1 -0.1)">
     <defs>
      <path id="DejaVuSans-4d" d="M 628 4666 
L 1569 4666 
L 2759 1491 
L 3956 4666 
L 4897 4666 
L 4897 0 
L 4281 0 
L 4281 4097 
L 3078 897 
L 2444 897 
L 1241 4097 
L 1241 0 
L 628 0 
L 628 4666 
z
" transform="scale(0.015625)"/>
     </defs>
     <use xlink:href="#DejaVuSans-4d"/>
     <use xlink:href="#DejaVuSans-20" x="86.279297"/>
     <use xlink:href="#DejaVuSans-5b" x="118.066406"/>
     <use xlink:href="#DejaVuSans-31" x="157.080078"/>
     <use xlink:href="#DejaVuSans-32" x="220.703125"/>
     <use xlink:href="#DejaVuSans-5d" x="284.326172"/>
    </g>
   </g>
   <g id="text_12">
    <!-- N [18] -->
    <g transform="translate(14.103173 200.863277) scale(0.1 -0.1)">
     <defs>
      <path id="DejaVuSans-4e" d="M 628 4666 
L 1478 4666 
L 3547 763 
L 3547 4666 
L 4159 4666 
L 4159 0 
L 3309 0 
L 1241 3903 
L 1241 0 
L 628 0 
L 628 4666 
z
" transform="scale(0.015625)"/>
      <path id="DejaVuSans-38" d="M 2034 2216 
Q 1584 2216 1326 1975 
Q 1069 1734 1069 1313 
Q 1069 891 1326 650 
Q 1584 409 2034 409 
Q 2484 409 2743 651 
Q 3003 894 3003 1313 
Q 3003 1734 2745 1975 
Q 2488 2216 2034 2216 
z
M 1403 2484 
Q 997 2584 770 2862 
Q 544 3141 544 3541 
Q 544 4100 942 4425 
Q 1341 4750 2034 4750 
Q 2731 4750 3128 4425 
Q 3525 4100 3525 3541 
Q 3525 3141 3298 2862 
Q 3072 2584 2669 2484 
Q 3125 2378 3379 2068 
Q 3634 1759 3634 1313 
Q 3634 634 3220 271 
Q 2806 -91 2034 -91 
Q 1263 -91 848 271 
Q 434 634 434 1313 
Q 434 1759 690 2068 
Q 947 2378 1403 2484 
z
M 1172 3481 
Q 1172 3119 1398 2916 
Q 1625 2713 2034 2713 
Q 2441 2713 2670 2916 
Q 2900 3119 2900 3481 
Q 2900 3844 2670 4047 
Q 2441 4250 2034 4250 
Q 1625 4250 1398 4047 
Q 1172 3844 1172 3481 
z
" transform="scale(0.015625)"/>
     </defs>
     <use xlink:href="#DejaVuSans-4e"/>
     <use xlink:href="#DejaVuSans-20" x="74.804688"/>
     <use xlink:href="#DejaVuSans-5b" x="106.591797"/>
     <use xlink:href="#DejaVuSans-31" x="145.605469"/>
     <use xlink:href="#DejaVuSans-38" x="209.228516"/>
     <use xlink:href="#DejaVuSans-5d" x="272.851562"/>
    </g>
   </g>
   <g id="text_13">
    <!-- P [21] -->
    <g transform="translate(28.87028 229.312228) scale(0.1 -0.1)">
     <defs>
      <path id="DejaVuSans-50" d="M 1259 4147 
L 1259 2394 
L 2053 2394 
Q 2494 2394 2734 2622 
Q 2975 2850 2975 3272 
Q 2975 3691 2734 3919 
Q 2494 4147 2053 4147 
L 1259 4147 
z
M 628 4666 
L 2053 4666 
Q 2838 4666 3239 4311 
Q 3641 3956 3641 3272 
Q 3641 2581 3239 2228 
Q 2838 1875 2053 1875 
L 1259 1875 
L 1259 0 
L 628 0 
L 628 4666 
z
" transform="scale(0.015625)"/>
     </defs>
     <use xlink:href="#DejaVuSans-50"/>
     <use xlink:href="#DejaVuSans-20" x="60.302734"/>
     <use xlink:href="#DejaVuSans-5b" x="92.089844"/>
     <use xlink:href="#DejaVuSans-32" x="131.103516"/>
     <use xlink:href="#DejaVuSans-31" x="194.726562"/>
     <use xlink:href="#DejaVuSans-5d" x="258.349609"/>
    </g>
   </g>
   <g id="text_14">
    <!-- Q [14] -->
    <g transform="translate(44.083346 251.771022) scale(0.1 -0.1)">
     <defs>
      <path id="DejaVuSans-51" d="M 2522 4238 
Q 1834 4238 1429 3725 
Q 1025 3213 1025 2328 
Q 1025 1447 1429 934 
Q 1834 422 2522 422 
Q 3209 422 3611 934 
Q 4013 1447 4013 2328 
Q 4013 3213 3611 3725 
Q 3209 4238 2522 4238 
z
M 3406 84 
L 4238 -825 
L 3475 -825 
L 2784 -78 
Q 2681 -84 2626 -87 
Q 2572 -91 2522 -91 
Q 1538 -91 948 567 
Q 359 1225 359 2328 
Q 359 3434 948 4092 
Q 1538 4750 2522 4750 
Q 3503 4750 4090 4092 
Q 4678 3434 4678 2328 
Q 4678 1516 4351 937 
Q 4025 359 3406 84 
z
" transform="scale(0.015625)"/>
     </defs>
     <use xlink:href="#DejaVuSans-51"/>
     <use xlink:href="#DejaVuSans-20" x="78.710938"/>
     <use xlink:href="#DejaVuSans-5b" x="110.498047"/>
     <use xlink:href="#DejaVuSans-31" x="149.511719"/>
     <use xlink:href="#DejaVuSans-34" x="213.134766"/>
     <use xlink:href="#DejaVuSans-5d" x="276.757812"/>
    </g>
   </g>
   <g id="text_15">
    <!-- R [31] -->
    <g transform="translate(72.884487 274.892642) scale(0.1 -0.1)">
     <defs>
      <path id="DejaVuSans-52" d="M 2841 2188 
Q 3044 2119 3236 1894 
Q 3428 1669 3622 1275 
L 4263 0 
L 3584 0 
L 2988 1197 
Q 2756 1666 2539 1819 
Q 2322 1972 1947 1972 
L 1259 1972 
L 1259 0 
L 628 0 
L 628 4666 
L 2053 4666 
Q 2853 4666 3247 4331 
Q 3641 3997 3641 3322 
Q 3641 2881 3436 2590 
Q 3231 2300 2841 2188 
z
M 1259 4147 
L 1259 2491 
L 2053 2491 
Q 2509 2491 2742 2702 
Q 2975 2913 2975 3322 
Q 2975 3731 2742 3939 
Q 2509 4147 2053 4147 
L 1259 4147 
z
" transform="scale(0.015625)"/>
      <path id="DejaVuSans-33" d="M 2597 2516 
Q 3050 2419 3304 2112 
Q 3559 1806 3559 1356 
Q 3559 666 3084 287 
Q 2609 -91 1734 -91 
Q 1441 -91 1130 -33 
Q 819 25 488 141 
L 488 750 
Q 750 597 1062 519 
Q 1375 441 1716 441 
Q 2309 441 2620 675 
Q 2931 909 2931 1356 
Q 2931 1769 2642 2001 
Q 2353 2234 1838 2234 
L 1294 2234 
L 1294 2753 
L 1863 2753 
Q 2328 2753 2575 2939 
Q 2822 3125 2822 3475 
Q 2822 3834 2567 4026 
Q 2313 4219 1838 4219 
Q 1578 4219 1281 4162 
Q 984 4106 628 3988 
L 628 4550 
Q 988 4650 1302 4700 
Q 1616 4750 1894 4750 
Q 2613 4750 3031 4423 
Q 3450 4097 3450 3541 
Q 3450 3153 3228 2886 
Q 3006 2619 2597 2516 
z
" transform="scale(0.015625)"/>
     </defs>
     <use xlink:href="#DejaVuSans-52"/>
     <use xlink:href="#DejaVuSans-20" x="69.482422"/>
     <use xlink:href="#DejaVuSans-5b" x="101.269531"/>
     <use xlink:href="#DejaVuSans-33" x="140.283203"/>
     <use xlink:href="#DejaVuSans-31" x="203.90625"/>
     <use xlink:href="#DejaVuSans-5d" x="267.529297"/>
    </g>
   </g>
   <g id="text_16">
    <!-- S [53] -->
    <g transform="translate(137.149696 296.225114) scale(0.1 -0.1)">
     <defs>
      <path id="DejaVuSans-53" d="M 3425 4513 
L 3425 3897 
Q 3066 4069 2747 4153 
Q 2428 4238 2131 4238 
Q 1616 4238 1336 4038 
Q 1056 3838 1056 3469 
Q 1056 3159 1242 3001 
Q 1428 2844 1947 2747 
L 2328 2669 
Q 3034 2534 3370 2195 
Q 3706 1856 3706 1288 
Q 3706 609 3251 259 
Q 2797 -91 1919 -91 
Q 1588 -91 1214 -16 
Q 841 59 441 206 
L 441 856 
Q 825 641 1194 531 
Q 1563 422 1919 422 
Q 2459 422 2753 634 
Q 3047 847 3047 1241 
Q 3047 1584 2836 1778 
Q 2625 1972 2144 2069 
L 1759 2144 
Q 1053 2284 737 2584 
Q 422 2884 422 3419 
Q 422 4038 858 4394 
Q 1294 4750 2059 4750 
Q 2388 4750 2728 4690 
Q 3069 4631 3425 4513 
z
" transform="scale(0.015625)"/>
     </defs>
     <use xlink:href="#DejaVuSans-53"/>
     <use xlink:href="#DejaVuSans-20" x="63.476562"/>
     <use xlink:href="#DejaVuSans-5b" x="95.263672"/>
     <use xlink:href="#DejaVuSans-35" x="134.277344"/>
     <use xlink:href="#DejaVuSans-33" x="197.900391"/>
     <use xlink:href="#DejaVuSans-5d" x="261.523438"/>
    </g>
   </g>
   <g id="text_17">
    <!-- T [38] -->
    <g transform="translate(238.682269 283.410659) scale(0.1 -0.1)">
     <defs>
      <path id="DejaVuSans-54" d="M -19 4666 
L 3928 4666 
L 3928 4134 
L 2272 4134 
L 2272 0 
L 1638 0 
L 1638 4134 
L -19 4134 
L -19 4666 
z
" transform="scale(0.015625)"/>
     </defs>
     <use xlink:href="#DejaVuSans-54"/>
     <use xlink:href="#DejaVuSans-20" x="61.083984"/>
     <use xlink:href="#DejaVuSans-5b" x="92.871094"/>
     <use xlink:href="#DejaVuSans-33" x="131.884766"/>
     <use xlink:href="#DejaVuSans-38" x="195.507812"/>
     <use xlink:href="#DejaVuSans-5d" x="259.130859"/>
    </g>
   </g>
   <g id="text_18">
    <!-- V [50] -->
    <g transform="translate(292.901943 238.702384) scale(0.1 -0.1)">
     <defs>
      <path id="DejaVuSans-56" d="M 1831 0 
L 50 4666 
L 709 4666 
L 2188 738 
L 3669 4666 
L 4325 4666 
L 2547 0 
L 1831 0 
z
" transform="scale(0.015625)"/>
     </defs>
     <use xlink:href="#DejaVuSans-56"/>
     <use xlink:href="#DejaVuSans-20" x="68.408203"/>
     <use xlink:href="#DejaVuSans-5b" x="100.195312"/>
     <use xlink:href="#DejaVuSans-35" x="139.208984"/>
     <use xlink:href="#DejaVuSans-30" x="202.832031"/>
     <use xlink:href="#DejaVuSans-5d" x="266.455078"/>
    </g>
   </g>
   <g id="text_19">
    <!-- W [13] -->
    <g transform="translate(314.862626 193.148201) scale(0.1 -0.1)">
     <defs>
      <path id="DejaVuSans-57" d="M 213 4666 
L 850 4666 
L 1831 722 
L 2809 4666 
L 3519 4666 
L 4500 722 
L 5478 4666 
L 6119 4666 
L 4947 0 
L 4153 0 
L 3169 4050 
L 2175 0 
L 1381 0 
L 213 4666 
z
" transform="scale(0.015625)"/>
     </defs>
     <use xlink:href="#DejaVuSans-57"/>
     <use xlink:href="#DejaVuSans-20" x="98.876953"/>
     <use xlink:href="#DejaVuSans-5b" x="130.664062"/>
     <use xlink:href="#DejaVuSans-31" x="169.677734"/>
     <use xlink:href="#DejaVuSans-33" x="233.300781"/>
     <use xlink:href="#DejaVuSans-5d" x="296.923828"/>
    </g>
   </g>
   <g id="text_20">
    <!-- Y [17] -->
    <g transform="translate(319.266181 169.369764) scale(0.1 -0.1)">
     <defs>
      <path id="DejaVuSans-59" d="M -13 4666 
L 666 4666 
L 1959 2747 
L 3244 4666 
L 3922 4666 
L 2272 2222 
L 2272 0 
L 1638 0 
L 1638 2222 
L -13 4666 
z
" transform="scale(0.015625)"/>
     </defs>
     <use xlink:href="#DejaVuSans-59"/>
     <use xlink:href="#DejaVuSans-20" x="61.083984"/>
     <use xlink:href="#DejaVuSans-5b" x="92.871094"/>
     <use xlink:href="#DejaVuSans-31" x="131.884766"/>
     <use xlink:href="#DejaVuSans-37" x="195.507812"/>
     <use xlink:href="#DejaVuSans-5d" x="259.130859"/>
    </g>
   </g>
   <g id="text_21">
    <!-- A0A7N5KFK4 [549] -->
    <g transform="translate(121.564598 152.911614) scale(0.12 -0.12)">
     <use xlink:href="#DejaVuSans-41"/>
     <use xlink:href="#DejaVuSans-30" x="68.408203"/>
     <use xlink:href="#DejaVuSans-41" x="132.03125"/>
     <use xlink:href="#DejaVuSans-37" x="200.439453"/>
     <use xlink:href="#DejaVuSans-4e" x="264.0625"/>
     <use xlink:href="#DejaVuSans-35" x="338.867188"/>
     <use xlink:href="#DejaVuSans-4b" x="402.490234"/>
     <use xlink:href="#DejaVuSans-46" x="468.066406"/>
     <use xlink:href="#DejaVuSans-4b" x="525.585938"/>
     <use xlink:href="#DejaVuSans-34" x="591.162109"/>
     <use xlink:href="#DejaVuSans-20" x="654.785156"/>
     <use xlink:href="#DejaVuSans-5b" x="686.572266"/>
     <use xlink:href="#DejaVuSans-35" x="725.585938"/>
     <use xlink:href="#DejaVuSans-34" x="789.208984"/>
     <use xlink:href="#DejaVuSans-39" x="852.832031"/>
     <use xlink:href="#DejaVuSans-5d" x="916.455078"/>
    </g>
   </g>
  </g>
 </g>
</svg>
