<?xml version="1.0" encoding="utf-8" standalone="no"?>
<!DOCTYPE svg PUBLIC "-//W3C//DTD SVG 1.1//EN"
  "http://www.w3.org/Graphics/SVG/1.1/DTD/svg11.dtd">
<svg xmlns:xlink="http://www.w3.org/1999/xlink" width="354.699185pt" height="305.476776pt" viewBox="0 0 354.699185 305.476776" xmlns="http://www.w3.org/2000/svg" version="1.1">
 <metadata>
  <rdf:RDF xmlns:dc="http://purl.org/dc/elements/1.1/" xmlns:cc="http://creativecommons.org/ns#" xmlns:rdf="http://www.w3.org/1999/02/22-rdf-syntax-ns#">
   <cc:Work>
    <dc:type rdf:resource="http://purl.org/dc/dcmitype/StillImage"/>
    <dc:date>2024-09-27T16:07:17.948416</dc:date>
    <dc:format>image/svg+xml</dc:format>
    <dc:creator>
     <cc:Agent>
      <dc:title>Matplotlib v3.8.3, https://matplotlib.org/</dc:title>
     </cc:Agent>
    </dc:creator>
   </cc:Work>
  </rdf:RDF>
 </metadata>
 <defs>
  <style type="text/css">*{stroke-linejoin: round; stroke-linecap: butt}</style>
 </defs>
 <g id="figure_1">
  <g id="patch_1">
   <path d="M -0 305.476776 
L 354.699185 305.476776 
L 354.699185 0 
L -0 0 
z
" style="fill: #ffffff"/>
  </g>
  <g id="axes_1">
   <g id="patch_2">
    <path d="M 305.487345 152.619041 
C 305.487345 139.215349 303.377578 125.894806 299.23561 113.147138 
C 295.093641 100.399469 288.97086 88.382834 281.092367 77.53902 
L 177.753585 152.619041 
z
" style="fill: #1f77b4"/>
   </g>
   <g id="patch_3">
    <path d="M 280.969421 77.334165 
C 277.499345 72.558015 273.70232 68.028177 269.605664 63.777241 
C 265.509009 59.526304 261.12257 55.564489 256.477906 51.920296 
L 177.630639 152.414187 
z
" style="fill: #ff7f0e"/>
   </g>
   <g id="patch_4">
    <path d="M 256.387291 51.84505 
C 253.601205 49.659094 250.725419 47.589945 247.767388 45.642967 
C 244.809356 43.695988 241.771637 41.872864 238.662104 40.17832 
L 177.540024 152.338941 
z
" style="fill: #aec7e8"/>
   </g>
   <g id="patch_5">
    <path d="M 238.597878 40.142157 
C 236.525022 39.012551 234.421249 37.940625 232.288985 36.927615 
C 230.15672 35.914605 227.996783 34.960899 225.811662 34.067598 
L 177.475798 152.302777 
z
" style="fill: #ffbb78"/>
   </g>
   <g id="patch_6">
    <path d="M 225.709908 34.031388 
C 219.88064 31.648318 213.883109 29.699602 207.766399 28.201189 
C 201.649688 26.702776 195.430531 25.658764 189.159826 25.077697 
L 177.374045 152.266568 
z
" style="fill: #98df8a"/>
   </g>
   <g id="patch_7">
    <path d="M 188.998791 25.063525 
C 182.335775 24.446106 175.634533 24.353222 168.956965 24.785729 
C 162.279397 25.218237 155.646127 26.174801 149.11843 27.646585 
L 177.21301 152.252396 
z
" style="fill: #2ca02c"/>
   </g>
   <g id="patch_8">
    <path d="M 148.997746 27.668569 
C 145.927116 28.360896 142.883127 29.166491 139.872013 30.083701 
C 136.860899 31.000912 133.884718 32.029113 130.949565 33.166197 
L 177.092325 152.274379 
z
" style="fill: #d62728"/>
   </g>
   <g id="patch_9">
    <path d="M 130.867417 33.198898 
C 127.198241 34.620344 123.596706 36.210577 120.074337 37.964509 
C 116.551968 39.718441 113.112525 41.634198 109.767014 43.705651 
L 177.010177 152.30708 
z
" style="fill: #9467bd"/>
   </g>
   <g id="patch_10">
    <path d="M 109.711632 43.737512 
C 108.708141 44.358847 107.71331 44.994061 106.727426 45.642971 
C 105.741542 46.291881 104.764699 46.954424 103.797179 47.630409 
L 176.954796 152.338941 
z
" style="fill: #ff9896"/>
   </g>
   <g id="patch_11">
    <path d="M 103.686688 47.727458 
C 94.967871 53.819109 87.043947 60.97597 80.099081 69.031702 
C 73.154215 77.087435 67.242632 85.97914 62.501729 95.50016 
L 176.844305 152.435989 
z
" style="fill: #c5b0d5"/>
   </g>
   <g id="patch_12">
    <path d="M 62.419966 95.628212 
C 61.718498 97.036949 61.043124 98.45853 60.39419 99.892225 
C 59.745257 101.325921 59.122874 102.771486 58.52736 104.228182 
L 176.762542 152.564041 
z
" style="fill: #c49c94"/>
   </g>
   <g id="patch_13">
    <path d="M 58.504555 104.287866 
C 57.164495 107.565809 55.961331 110.898063 54.898181 114.27599 
C 53.835031 117.653916 52.912815 121.074594 52.133924 124.529157 
L 176.739737 152.623725 
z
" style="fill: #8c564b"/>
   </g>
   <g id="patch_14">
    <path d="M 52.112119 124.742941 
C 49.076948 138.204617 48.243216 152.069622 49.643392 165.798004 
C 51.043567 179.526387 54.659235 192.937592 60.349588 205.50934 
L 176.717933 152.837509 
z
" style="fill: #e377c2"/>
   </g>
   <g id="patch_15">
    <path d="M 60.40485 205.696963 
C 61.216031 207.489111 62.068503 209.262281 62.961585 211.015053 
C 63.854668 212.767826 64.788122 214.499734 65.7612 216.20939 
L 176.773195 153.025132 
z
" style="fill: #7f7f7f"/>
   </g>
   <g id="patch_16">
    <path d="M 65.880508 216.36438 
C 72.706562 228.35746 81.43122 239.165504 91.714713 248.367609 
C 101.998207 257.569714 113.705288 265.044854 126.380042 270.501922 
L 176.892503 153.180122 
z
" style="fill: #f7b6d2"/>
   </g>
   <g id="patch_17">
    <path d="M 126.695643 270.636078 
C 139.734168 276.249766 153.617764 279.650836 167.774653 280.69922 
C 181.931542 281.747604 196.164674 280.428709 209.887874 276.796852 
L 177.208104 153.314278 
z
" style="fill: #c7c7c7"/>
   </g>
   <g id="patch_18">
    <path d="M 210.173176 276.738043 
C 219.310329 274.319888 228.15092 270.895024 236.532457 266.526401 
C 244.913994 262.157778 252.784809 256.872326 260.000236 250.767194 
L 177.493406 153.255469 
z
" style="fill: #dbdb8d"/>
   </g>
   <g id="patch_19">
    <path d="M 260.163698 250.635241 
C 265.873733 245.803855 271.148378 240.480244 275.926797 234.725811 
C 280.705217 228.971378 284.968968 222.808332 288.668874 216.307756 
L 177.656868 153.123517 
z
" style="fill: #bcbd22"/>
   </g>
   <g id="patch_20">
    <path d="M 288.759168 216.150804 
C 292.264111 209.992768 295.25059 203.553757 297.687681 196.900441 
C 300.124772 190.247124 302.004036 183.402544 303.306015 176.437568 
L 177.747162 152.966565 
z
" style="fill: #17becf"/>
   </g>
   <g id="patch_21">
    <path d="M 303.336216 176.303617 
C 304.05925 172.435726 304.60317 168.53649 304.966235 164.618385 
C 305.329301 160.70028 305.511124 156.767491 305.511124 152.8326 
L 177.777364 152.832615 
z
" style="fill: #9edae5"/>
   </g>
   <g id="patch_22">
    <path d="M 251.75877 152.783507 
C 251.75877 144.964687 250.528073 137.19437 248.111924 129.75823 
C 245.695776 122.32209 242.124153 115.312387 237.528366 108.986828 
L 177.24741 152.783507 
z
" style="fill: #ffffff"/>
   </g>
   <g id="patch_23">
    <path d="M 237.528366 108.986828 
C 235.504155 106.20074 233.289224 103.558335 230.899508 101.078622 
C 228.509792 98.598909 225.951036 96.28785 223.241649 94.162071 
L 177.24741 152.783507 
z
" style="fill: #ffffff"/>
   </g>
   <g id="patch_24">
    <path d="M 223.241649 94.162071 
C 221.616432 92.88693 219.938891 91.679927 218.213372 90.544189 
C 216.487854 89.408452 214.715851 88.344963 212.901957 87.356479 
L 177.24741 152.783507 
z
" style="fill: #ffffff"/>
   </g>
   <g id="patch_25">
    <path d="M 212.901957 87.356479 
C 211.69279 86.697542 210.46559 86.072252 209.221769 85.481329 
C 207.977948 84.890407 206.717984 84.334078 205.44333 83.812986 
L 177.24741 152.783507 
z
" style="fill: #ffffff"/>
   </g>
   <g id="patch_26">
    <path d="M 205.44333 83.812986 
C 202.042924 82.422862 198.544364 81.286111 194.976283 80.412036 
C 191.408202 79.537962 187.78036 78.928955 184.122449 78.589999 
L 177.24741 152.783507 
z
" style="fill: #ffffff"/>
   </g>
   <g id="patch_27">
    <path d="M 184.122449 78.589999 
C 180.23569 78.229838 176.326632 78.175655 172.431384 78.427952 
C 168.536136 78.680248 164.666729 79.238243 160.858905 80.096784 
L 177.24741 152.783507 
z
" style="fill: #ffffff"/>
   </g>
   <g id="patch_28">
    <path d="M 160.858905 80.096784 
C 159.067705 80.500642 157.292044 80.970572 155.535561 81.505612 
C 153.779078 82.040651 152.042972 82.640435 150.3308 83.303734 
L 177.24741 152.783507 
z
" style="fill: #ffffff"/>
   </g>
   <g id="patch_29">
    <path d="M 150.3308 83.303734 
C 148.190447 84.132911 146.089552 85.060547 144.034836 86.083674 
C 141.980121 87.106801 139.973779 88.224326 138.022231 89.432674 
L 177.24741 152.783507 
z
" style="fill: #ffffff"/>
   </g>
   <g id="patch_30">
    <path d="M 138.022231 89.432674 
C 137.436862 89.795119 136.856543 90.165661 136.281444 90.544191 
C 135.706345 90.922722 135.13652 91.309206 134.572133 91.703531 
L 177.24741 152.783507 
z
" style="fill: #ffffff"/>
   </g>
   <g id="patch_31">
    <path d="M 134.572133 91.703531 
C 129.486157 95.256994 124.863868 99.431829 120.812696 104.131007 
C 116.761524 108.830184 113.313101 114.017012 110.547574 119.57094 
L 177.24741 152.783507 
z
" style="fill: #ffffff"/>
   </g>
   <g id="patch_32">
    <path d="M 110.547574 119.57094 
C 110.138384 120.392703 109.744416 121.221959 109.365872 122.058281 
C 108.987327 122.894603 108.62427 123.73785 108.276887 124.587589 
L 177.24741 152.783507 
z
" style="fill: #ffffff"/>
   </g>
   <g id="patch_33">
    <path d="M 108.276887 124.587589 
C 107.495186 126.499723 106.79334 128.443538 106.173169 130.413995 
C 105.552999 132.384452 105.015039 134.379848 104.560686 136.395009 
L 177.24741 152.783507 
z
" style="fill: #ffffff"/>
   </g>
   <g id="patch_34">
    <path d="M 104.560686 136.395009 
C 102.790169 144.247653 102.303825 152.335573 103.120594 160.343796 
C 103.937363 168.352019 106.046503 176.175222 109.365876 183.508742 
L 177.24741 152.783507 
z
" style="fill: #ffffff"/>
   </g>
   <g id="patch_35">
    <path d="M 109.365876 183.508742 
C 109.839064 184.554162 110.33634 185.588511 110.857304 186.610961 
C 111.378269 187.633412 111.922784 188.643691 112.490413 189.640991 
L 177.24741 152.783507 
z
" style="fill: #ffffff"/>
   </g>
   <g id="patch_36">
    <path d="M 112.490413 189.640991 
C 116.472278 196.636954 121.561662 202.941647 127.560366 208.309541 
C 133.559071 213.677436 140.388202 218.037934 147.781808 221.221224 
L 177.24741 152.783507 
z
" style="fill: #ffffff"/>
   </g>
   <g id="patch_37">
    <path d="M 147.781808 221.221224 
C 155.387614 224.495875 163.486379 226.479833 171.744564 227.09139 
C 180.002749 227.702947 188.305409 226.933592 196.310609 224.815009 
L 177.24741 152.783507 
z
" style="fill: #ffffff"/>
   </g>
   <g id="patch_38">
    <path d="M 196.310609 224.815009 
C 201.640615 223.404418 206.797626 221.406581 211.686856 218.858217 
C 216.576086 216.309854 221.167395 213.226674 225.376394 209.665346 
L 177.24741 152.783507 
z
" style="fill: #ffffff"/>
   </g>
   <g id="patch_39">
    <path d="M 225.376394 209.665346 
C 228.707248 206.847038 231.784124 203.741598 234.571536 200.384845 
C 237.358947 197.028093 239.846135 193.432983 242.004413 189.64098 
L 177.24741 152.783507 
z
" style="fill: #ffffff"/>
   </g>
   <g id="patch_40">
    <path d="M 242.004413 189.64098 
C 244.048964 186.048792 245.791076 182.292703 247.212713 178.411601 
C 248.634349 174.5305 249.730586 170.537828 250.490074 166.474926 
L 177.24741 152.783507 
z
" style="fill: #ffffff"/>
   </g>
   <g id="patch_41">
    <path d="M 250.490074 166.474926 
C 250.911844 164.218656 251.22913 161.944101 251.440918 159.65854 
C 251.652707 157.372979 251.75877 155.078852 251.75877 152.783499 
L 177.24741 152.783507 
z
" style="fill: #ffffff"/>
   </g>
   <g id="matplotlib.axis_1"/>
   <g id="matplotlib.axis_2"/>
   <g id="text_1">
    <!-- A [34] -->
    <g transform="translate(311.383812 111.959322) scale(0.1 -0.1)">
     <defs>
      <path id="DejaVuSans-41" d="M 2188 4044 
L 1331 1722 
L 3047 1722 
L 2188 4044 
z
M 1831 4666 
L 2547 4666 
L 4325 0 
L 3669 0 
L 3244 1197 
L 1141 1197 
L 716 0 
L 50 0 
L 1831 4666 
z
" transform="scale(0.015625)"/>
      <path id="DejaVuSans-20" transform="scale(0.015625)"/>
      <path id="DejaVuSans-5b" d="M 550 4863 
L 1875 4863 
L 1875 4416 
L 1125 4416 
L 1125 -397 
L 1875 -397 
L 1875 -844 
L 550 -844 
L 550 4863 
z
" transform="scale(0.015625)"/>
      <path id="DejaVuSans-33" d="M 2597 2516 
Q 3050 2419 3304 2112 
Q 3559 1806 3559 1356 
Q 3559 666 3084 287 
Q 2609 -91 1734 -91 
Q 1441 -91 1130 -33 
Q 819 25 488 141 
L 488 750 
Q 750 597 1062 519 
Q 1375 441 1716 441 
Q 2309 441 2620 675 
Q 2931 909 2931 1356 
Q 2931 1769 2642 2001 
Q 2353 2234 1838 2234 
L 1294 2234 
L 1294 2753 
L 1863 2753 
Q 2328 2753 2575 2939 
Q 2822 3125 2822 3475 
Q 2822 3834 2567 4026 
Q 2313 4219 1838 4219 
Q 1578 4219 1281 4162 
Q 984 4106 628 3988 
L 628 4550 
Q 988 4650 1302 4700 
Q 1616 4750 1894 4750 
Q 2613 4750 3031 4423 
Q 3450 4097 3450 3541 
Q 3450 3153 3228 2886 
Q 3006 2619 2597 2516 
z
" transform="scale(0.015625)"/>
      <path id="DejaVuSans-34" d="M 2419 4116 
L 825 1625 
L 2419 1625 
L 2419 4116 
z
M 2253 4666 
L 3047 4666 
L 3047 1625 
L 3713 1625 
L 3713 1100 
L 3047 1100 
L 3047 0 
L 2419 0 
L 2419 1100 
L 313 1100 
L 313 1709 
L 2253 4666 
z
" transform="scale(0.015625)"/>
      <path id="DejaVuSans-5d" d="M 1947 4863 
L 1947 -844 
L 622 -844 
L 622 -397 
L 1369 -397 
L 1369 4416 
L 622 4416 
L 622 4863 
L 1947 4863 
z
" transform="scale(0.015625)"/>
     </defs>
     <use xlink:href="#DejaVuSans-41"/>
     <use xlink:href="#DejaVuSans-20" x="68.408203"/>
     <use xlink:href="#DejaVuSans-5b" x="100.195312"/>
     <use xlink:href="#DejaVuSans-33" x="139.208984"/>
     <use xlink:href="#DejaVuSans-34" x="202.832031"/>
     <use xlink:href="#DejaVuSans-5d" x="266.455078"/>
    </g>
   </g>
   <g id="text_2">
    <!-- C [15] -->
    <g transform="translate(278.803167 57.672921) scale(0.1 -0.1)">
     <defs>
      <path id="DejaVuSans-43" d="M 4122 4306 
L 4122 3641 
Q 3803 3938 3442 4084 
Q 3081 4231 2675 4231 
Q 1875 4231 1450 3742 
Q 1025 3253 1025 2328 
Q 1025 1406 1450 917 
Q 1875 428 2675 428 
Q 3081 428 3442 575 
Q 3803 722 4122 1019 
L 4122 359 
Q 3791 134 3420 21 
Q 3050 -91 2638 -91 
Q 1578 -91 968 557 
Q 359 1206 359 2328 
Q 359 3453 968 4101 
Q 1578 4750 2638 4750 
Q 3056 4750 3426 4639 
Q 3797 4528 4122 4306 
z
" transform="scale(0.015625)"/>
      <path id="DejaVuSans-31" d="M 794 531 
L 1825 531 
L 1825 4091 
L 703 3866 
L 703 4441 
L 1819 4666 
L 2450 4666 
L 2450 531 
L 3481 531 
L 3481 0 
L 794 0 
L 794 531 
z
" transform="scale(0.015625)"/>
      <path id="DejaVuSans-35" d="M 691 4666 
L 3169 4666 
L 3169 4134 
L 1269 4134 
L 1269 2991 
Q 1406 3038 1543 3061 
Q 1681 3084 1819 3084 
Q 2600 3084 3056 2656 
Q 3513 2228 3513 1497 
Q 3513 744 3044 326 
Q 2575 -91 1722 -91 
Q 1428 -91 1123 -41 
Q 819 9 494 109 
L 494 744 
Q 775 591 1075 516 
Q 1375 441 1709 441 
Q 2250 441 2565 725 
Q 2881 1009 2881 1497 
Q 2881 1984 2565 2268 
Q 2250 2553 1709 2553 
Q 1456 2553 1204 2497 
Q 953 2441 691 2322 
L 691 4666 
z
" transform="scale(0.015625)"/>
     </defs>
     <use xlink:href="#DejaVuSans-43"/>
     <use xlink:href="#DejaVuSans-20" x="69.824219"/>
     <use xlink:href="#DejaVuSans-5b" x="101.611328"/>
     <use xlink:href="#DejaVuSans-31" x="140.625"/>
     <use xlink:href="#DejaVuSans-35" x="204.248047"/>
     <use xlink:href="#DejaVuSans-5d" x="267.871094"/>
    </g>
   </g>
   <g id="text_3">
    <!-- D [9] -->
    <g transform="translate(254.790124 37.732745) scale(0.1 -0.1)">
     <defs>
      <path id="DejaVuSans-44" d="M 1259 4147 
L 1259 519 
L 2022 519 
Q 2988 519 3436 956 
Q 3884 1394 3884 2338 
Q 3884 3275 3436 3711 
Q 2988 4147 2022 4147 
L 1259 4147 
z
M 628 4666 
L 1925 4666 
Q 3281 4666 3915 4102 
Q 4550 3538 4550 2338 
Q 4550 1131 3912 565 
Q 3275 0 1925 0 
L 628 0 
L 628 4666 
z
" transform="scale(0.015625)"/>
      <path id="DejaVuSans-39" d="M 703 97 
L 703 672 
Q 941 559 1184 500 
Q 1428 441 1663 441 
Q 2288 441 2617 861 
Q 2947 1281 2994 2138 
Q 2813 1869 2534 1725 
Q 2256 1581 1919 1581 
Q 1219 1581 811 2004 
Q 403 2428 403 3163 
Q 403 3881 828 4315 
Q 1253 4750 1959 4750 
Q 2769 4750 3195 4129 
Q 3622 3509 3622 2328 
Q 3622 1225 3098 567 
Q 2575 -91 1691 -91 
Q 1453 -91 1209 -44 
Q 966 3 703 97 
z
M 1959 2075 
Q 2384 2075 2632 2365 
Q 2881 2656 2881 3163 
Q 2881 3666 2632 3958 
Q 2384 4250 1959 4250 
Q 1534 4250 1286 3958 
Q 1038 3666 1038 3163 
Q 1038 2656 1286 2365 
Q 1534 2075 1959 2075 
z
" transform="scale(0.015625)"/>
     </defs>
     <use xlink:href="#DejaVuSans-44"/>
     <use xlink:href="#DejaVuSans-20" x="77.001953"/>
     <use xlink:href="#DejaVuSans-5b" x="108.789062"/>
     <use xlink:href="#DejaVuSans-39" x="147.802734"/>
     <use xlink:href="#DejaVuSans-5d" x="211.425781"/>
    </g>
   </g>
   <g id="text_4">
    <!-- E [6] -->
    <g transform="translate(237.770303 28.149474) scale(0.1 -0.1)">
     <defs>
      <path id="DejaVuSans-45" d="M 628 4666 
L 3578 4666 
L 3578 4134 
L 1259 4134 
L 1259 2753 
L 3481 2753 
L 3481 2222 
L 1259 2222 
L 1259 531 
L 3634 531 
L 3634 0 
L 628 0 
L 628 4666 
z
" transform="scale(0.015625)"/>
      <path id="DejaVuSans-36" d="M 2113 2584 
Q 1688 2584 1439 2293 
Q 1191 2003 1191 1497 
Q 1191 994 1439 701 
Q 1688 409 2113 409 
Q 2538 409 2786 701 
Q 3034 994 3034 1497 
Q 3034 2003 2786 2293 
Q 2538 2584 2113 2584 
z
M 3366 4563 
L 3366 3988 
Q 3128 4100 2886 4159 
Q 2644 4219 2406 4219 
Q 1781 4219 1451 3797 
Q 1122 3375 1075 2522 
Q 1259 2794 1537 2939 
Q 1816 3084 2150 3084 
Q 2853 3084 3261 2657 
Q 3669 2231 3669 1497 
Q 3669 778 3244 343 
Q 2819 -91 2113 -91 
Q 1303 -91 875 529 
Q 447 1150 447 2328 
Q 447 3434 972 4092 
Q 1497 4750 2381 4750 
Q 2619 4750 2861 4703 
Q 3103 4656 3366 4563 
z
" transform="scale(0.015625)"/>
     </defs>
     <use xlink:href="#DejaVuSans-45"/>
     <use xlink:href="#DejaVuSans-20" x="63.183594"/>
     <use xlink:href="#DejaVuSans-5b" x="94.970703"/>
     <use xlink:href="#DejaVuSans-36" x="133.984375"/>
     <use xlink:href="#DejaVuSans-5d" x="197.607422"/>
    </g>
   </g>
   <g id="text_5">
    <!-- F [16] -->
    <g transform="translate(210.805634 18.554026) scale(0.1 -0.1)">
     <defs>
      <path id="DejaVuSans-46" d="M 628 4666 
L 3309 4666 
L 3309 4134 
L 1259 4134 
L 1259 2759 
L 3109 2759 
L 3109 2228 
L 1259 2228 
L 1259 0 
L 628 0 
L 628 4666 
z
" transform="scale(0.015625)"/>
     </defs>
     <use xlink:href="#DejaVuSans-46"/>
     <use xlink:href="#DejaVuSans-20" x="57.519531"/>
     <use xlink:href="#DejaVuSans-5b" x="89.306641"/>
     <use xlink:href="#DejaVuSans-31" x="128.320312"/>
     <use xlink:href="#DejaVuSans-36" x="191.943359"/>
     <use xlink:href="#DejaVuSans-5d" x="255.566406"/>
    </g>
   </g>
   <g id="text_6">
    <!-- G [17] -->
    <g transform="translate(136.676673 14.798437) scale(0.1 -0.1)">
     <defs>
      <path id="DejaVuSans-47" d="M 3809 666 
L 3809 1919 
L 2778 1919 
L 2778 2438 
L 4434 2438 
L 4434 434 
Q 4069 175 3628 42 
Q 3188 -91 2688 -91 
Q 1594 -91 976 548 
Q 359 1188 359 2328 
Q 359 3472 976 4111 
Q 1594 4750 2688 4750 
Q 3144 4750 3555 4637 
Q 3966 4525 4313 4306 
L 4313 3634 
Q 3963 3931 3569 4081 
Q 3175 4231 2741 4231 
Q 1884 4231 1454 3753 
Q 1025 3275 1025 2328 
Q 1025 1384 1454 906 
Q 1884 428 2741 428 
Q 3075 428 3337 486 
Q 3600 544 3809 666 
z
" transform="scale(0.015625)"/>
      <path id="DejaVuSans-37" d="M 525 4666 
L 3525 4666 
L 3525 4397 
L 1831 0 
L 1172 0 
L 2766 4134 
L 525 4134 
L 525 4666 
z
" transform="scale(0.015625)"/>
     </defs>
     <use xlink:href="#DejaVuSans-47"/>
     <use xlink:href="#DejaVuSans-20" x="77.490234"/>
     <use xlink:href="#DejaVuSans-5b" x="109.277344"/>
     <use xlink:href="#DejaVuSans-31" x="148.291016"/>
     <use xlink:href="#DejaVuSans-37" x="211.914062"/>
     <use xlink:href="#DejaVuSans-5d" x="275.537109"/>
    </g>
   </g>
   <g id="text_7">
    <!-- H [8] -->
    <g transform="translate(111.285919 20.624009) scale(0.1 -0.1)">
     <defs>
      <path id="DejaVuSans-48" d="M 628 4666 
L 1259 4666 
L 1259 2753 
L 3553 2753 
L 3553 4666 
L 4184 4666 
L 4184 0 
L 3553 0 
L 3553 2222 
L 1259 2222 
L 1259 0 
L 628 0 
L 628 4666 
z
" transform="scale(0.015625)"/>
      <path id="DejaVuSans-38" d="M 2034 2216 
Q 1584 2216 1326 1975 
Q 1069 1734 1069 1313 
Q 1069 891 1326 650 
Q 1584 409 2034 409 
Q 2484 409 2743 651 
Q 3003 894 3003 1313 
Q 3003 1734 2745 1975 
Q 2488 2216 2034 2216 
z
M 1403 2484 
Q 997 2584 770 2862 
Q 544 3141 544 3541 
Q 544 4100 942 4425 
Q 1341 4750 2034 4750 
Q 2731 4750 3128 4425 
Q 3525 4100 3525 3541 
Q 3525 3141 3298 2862 
Q 3072 2584 2669 2484 
Q 3125 2378 3379 2068 
Q 3634 1759 3634 1313 
Q 3634 634 3220 271 
Q 2806 -91 2034 -91 
Q 1263 -91 848 271 
Q 434 634 434 1313 
Q 434 1759 690 2068 
Q 947 2378 1403 2484 
z
M 1172 3481 
Q 1172 3119 1398 2916 
Q 1625 2713 2034 2713 
Q 2441 2713 2670 2916 
Q 2900 3119 2900 3481 
Q 2900 3844 2670 4047 
Q 2441 4250 2034 4250 
Q 1625 4250 1398 4047 
Q 1172 3844 1172 3481 
z
" transform="scale(0.015625)"/>
     </defs>
     <use xlink:href="#DejaVuSans-48"/>
     <use xlink:href="#DejaVuSans-20" x="75.195312"/>
     <use xlink:href="#DejaVuSans-5b" x="106.982422"/>
     <use xlink:href="#DejaVuSans-38" x="145.996094"/>
     <use xlink:href="#DejaVuSans-5d" x="209.619141"/>
    </g>
   </g>
   <g id="text_8">
    <!-- I [10] -->
    <g transform="translate(87.724503 29.289627) scale(0.1 -0.1)">
     <defs>
      <path id="DejaVuSans-49" d="M 628 4666 
L 1259 4666 
L 1259 0 
L 628 0 
L 628 4666 
z
" transform="scale(0.015625)"/>
      <path id="DejaVuSans-30" d="M 2034 4250 
Q 1547 4250 1301 3770 
Q 1056 3291 1056 2328 
Q 1056 1369 1301 889 
Q 1547 409 2034 409 
Q 2525 409 2770 889 
Q 3016 1369 3016 2328 
Q 3016 3291 2770 3770 
Q 2525 4250 2034 4250 
z
M 2034 4750 
Q 2819 4750 3233 4129 
Q 3647 3509 3647 2328 
Q 3647 1150 3233 529 
Q 2819 -91 2034 -91 
Q 1250 -91 836 529 
Q 422 1150 422 2328 
Q 422 3509 836 4129 
Q 1250 4750 2034 4750 
z
" transform="scale(0.015625)"/>
     </defs>
     <use xlink:href="#DejaVuSans-49"/>
     <use xlink:href="#DejaVuSans-20" x="29.492188"/>
     <use xlink:href="#DejaVuSans-5b" x="61.279297"/>
     <use xlink:href="#DejaVuSans-31" x="100.292969"/>
     <use xlink:href="#DejaVuSans-30" x="163.916016"/>
     <use xlink:href="#DejaVuSans-5d" x="227.539062"/>
    </g>
   </g>
   <g id="text_9">
    <!-- K [3] -->
    <g transform="translate(75.803127 37.732749) scale(0.1 -0.1)">
     <defs>
      <path id="DejaVuSans-4b" d="M 628 4666 
L 1259 4666 
L 1259 2694 
L 3353 4666 
L 4166 4666 
L 1850 2491 
L 4331 0 
L 3500 0 
L 1259 2247 
L 1259 0 
L 628 0 
L 628 4666 
z
" transform="scale(0.015625)"/>
     </defs>
     <use xlink:href="#DejaVuSans-4b"/>
     <use xlink:href="#DejaVuSans-20" x="65.576172"/>
     <use xlink:href="#DejaVuSans-5b" x="97.363281"/>
     <use xlink:href="#DejaVuSans-33" x="136.376953"/>
     <use xlink:href="#DejaVuSans-5d" x="200"/>
    </g>
   </g>
   <g id="text_10">
    <!-- L [27] -->
    <g transform="translate(41.146433 63.450649) scale(0.1 -0.1)">
     <defs>
      <path id="DejaVuSans-4c" d="M 628 4666 
L 1259 4666 
L 1259 531 
L 3531 531 
L 3531 0 
L 628 0 
L 628 4666 
z
" transform="scale(0.015625)"/>
      <path id="DejaVuSans-32" d="M 1228 531 
L 3431 531 
L 3431 0 
L 469 0 
L 469 531 
Q 828 903 1448 1529 
Q 2069 2156 2228 2338 
Q 2531 2678 2651 2914 
Q 2772 3150 2772 3378 
Q 2772 3750 2511 3984 
Q 2250 4219 1831 4219 
Q 1534 4219 1204 4116 
Q 875 4013 500 3803 
L 500 4441 
Q 881 4594 1212 4672 
Q 1544 4750 1819 4750 
Q 2544 4750 2975 4387 
Q 3406 4025 3406 3419 
Q 3406 3131 3298 2873 
Q 3191 2616 2906 2266 
Q 2828 2175 2409 1742 
Q 1991 1309 1228 531 
z
" transform="scale(0.015625)"/>
     </defs>
     <use xlink:href="#DejaVuSans-4c"/>
     <use xlink:href="#DejaVuSans-20" x="55.712891"/>
     <use xlink:href="#DejaVuSans-5b" x="87.5"/>
     <use xlink:href="#DejaVuSans-32" x="126.513672"/>
     <use xlink:href="#DejaVuSans-37" x="190.136719"/>
     <use xlink:href="#DejaVuSans-5d" x="253.759766"/>
    </g>
   </g>
   <g id="text_11">
    <!-- M [4] -->
    <g transform="translate(22.78548 97.384418) scale(0.1 -0.1)">
     <defs>
      <path id="DejaVuSans-4d" d="M 628 4666 
L 1569 4666 
L 2759 1491 
L 3956 4666 
L 4897 4666 
L 4897 0 
L 4281 0 
L 4281 4097 
L 3078 897 
L 2444 897 
L 1241 4097 
L 1241 0 
L 628 0 
L 628 4666 
z
" transform="scale(0.015625)"/>
     </defs>
     <use xlink:href="#DejaVuSans-4d"/>
     <use xlink:href="#DejaVuSans-20" x="86.279297"/>
     <use xlink:href="#DejaVuSans-5b" x="118.066406"/>
     <use xlink:href="#DejaVuSans-34" x="157.080078"/>
     <use xlink:href="#DejaVuSans-5d" x="220.703125"/>
    </g>
   </g>
   <g id="text_12">
    <!-- N [9] -->
    <g transform="translate(17.889026 113.200591) scale(0.1 -0.1)">
     <defs>
      <path id="DejaVuSans-4e" d="M 628 4666 
L 1478 4666 
L 3547 763 
L 3547 4666 
L 4159 4666 
L 4159 0 
L 3309 0 
L 1241 3903 
L 1241 0 
L 628 0 
L 628 4666 
z
" transform="scale(0.015625)"/>
     </defs>
     <use xlink:href="#DejaVuSans-4e"/>
     <use xlink:href="#DejaVuSans-20" x="74.804688"/>
     <use xlink:href="#DejaVuSans-5b" x="106.591797"/>
     <use xlink:href="#DejaVuSans-39" x="145.605469"/>
     <use xlink:href="#DejaVuSans-5d" x="209.228516"/>
    </g>
   </g>
   <g id="text_13">
    <!-- P [35] -->
    <g transform="translate(7.2 169.853429) scale(0.1 -0.1)">
     <defs>
      <path id="DejaVuSans-50" d="M 1259 4147 
L 1259 2394 
L 2053 2394 
Q 2494 2394 2734 2622 
Q 2975 2850 2975 3272 
Q 2975 3691 2734 3919 
Q 2494 4147 2053 4147 
L 1259 4147 
z
M 628 4666 
L 2053 4666 
Q 2838 4666 3239 4311 
Q 3641 3956 3641 3272 
Q 3641 2581 3239 2228 
Q 2838 1875 2053 1875 
L 1259 1875 
L 1259 0 
L 628 0 
L 628 4666 
z
" transform="scale(0.015625)"/>
     </defs>
     <use xlink:href="#DejaVuSans-50"/>
     <use xlink:href="#DejaVuSans-20" x="60.302734"/>
     <use xlink:href="#DejaVuSans-5b" x="92.089844"/>
     <use xlink:href="#DejaVuSans-33" x="131.103516"/>
     <use xlink:href="#DejaVuSans-35" x="194.726562"/>
     <use xlink:href="#DejaVuSans-5d" x="258.349609"/>
    </g>
   </g>
   <g id="text_14">
    <!-- Q [5] -->
    <g transform="translate(26.364799 219.57342) scale(0.1 -0.1)">
     <defs>
      <path id="DejaVuSans-51" d="M 2522 4238 
Q 1834 4238 1429 3725 
Q 1025 3213 1025 2328 
Q 1025 1447 1429 934 
Q 1834 422 2522 422 
Q 3209 422 3611 934 
Q 4013 1447 4013 2328 
Q 4013 3213 3611 3725 
Q 3209 4238 2522 4238 
z
M 3406 84 
L 4238 -825 
L 3475 -825 
L 2784 -78 
Q 2681 -84 2626 -87 
Q 2572 -91 2522 -91 
Q 1538 -91 948 567 
Q 359 1225 359 2328 
Q 359 3434 948 4092 
Q 1538 4750 2522 4750 
Q 3503 4750 4090 4092 
Q 4678 3434 4678 2328 
Q 4678 1516 4351 937 
Q 4025 359 3406 84 
z
" transform="scale(0.015625)"/>
     </defs>
     <use xlink:href="#DejaVuSans-51"/>
     <use xlink:href="#DejaVuSans-20" x="78.710938"/>
     <use xlink:href="#DejaVuSans-5b" x="110.498047"/>
     <use xlink:href="#DejaVuSans-35" x="149.511719"/>
     <use xlink:href="#DejaVuSans-5d" x="213.134766"/>
    </g>
   </g>
   <g id="text_15">
    <!-- R [35] -->
    <g transform="translate(52.542247 260.645732) scale(0.1 -0.1)">
     <defs>
      <path id="DejaVuSans-52" d="M 2841 2188 
Q 3044 2119 3236 1894 
Q 3428 1669 3622 1275 
L 4263 0 
L 3584 0 
L 2988 1197 
Q 2756 1666 2539 1819 
Q 2322 1972 1947 1972 
L 1259 1972 
L 1259 0 
L 628 0 
L 628 4666 
L 2053 4666 
Q 2853 4666 3247 4331 
Q 3641 3997 3641 3322 
Q 3641 2881 3436 2590 
Q 3231 2300 2841 2188 
z
M 1259 4147 
L 1259 2491 
L 2053 2491 
Q 2509 2491 2742 2702 
Q 2975 2913 2975 3322 
Q 2975 3731 2742 3939 
Q 2509 4147 2053 4147 
L 1259 4147 
z
" transform="scale(0.015625)"/>
     </defs>
     <use xlink:href="#DejaVuSans-52"/>
     <use xlink:href="#DejaVuSans-20" x="69.482422"/>
     <use xlink:href="#DejaVuSans-5b" x="101.269531"/>
     <use xlink:href="#DejaVuSans-33" x="140.283203"/>
     <use xlink:href="#DejaVuSans-35" x="203.90625"/>
     <use xlink:href="#DejaVuSans-5d" x="267.529297"/>
    </g>
   </g>
   <g id="text_16">
    <!-- S [36] -->
    <g transform="translate(136.776621 296.197089) scale(0.1 -0.1)">
     <defs>
      <path id="DejaVuSans-53" d="M 3425 4513 
L 3425 3897 
Q 3066 4069 2747 4153 
Q 2428 4238 2131 4238 
Q 1616 4238 1336 4038 
Q 1056 3838 1056 3469 
Q 1056 3159 1242 3001 
Q 1428 2844 1947 2747 
L 2328 2669 
Q 3034 2534 3370 2195 
Q 3706 1856 3706 1288 
Q 3706 609 3251 259 
Q 2797 -91 1919 -91 
Q 1588 -91 1214 -16 
Q 841 59 441 206 
L 441 856 
Q 825 641 1194 531 
Q 1563 422 1919 422 
Q 2459 422 2753 634 
Q 3047 847 3047 1241 
Q 3047 1584 2836 1778 
Q 2625 1972 2144 2069 
L 1759 2144 
Q 1053 2284 737 2584 
Q 422 2884 422 3419 
Q 422 4038 858 4394 
Q 1294 4750 2059 4750 
Q 2388 4750 2728 4690 
Q 3069 4631 3425 4513 
z
" transform="scale(0.015625)"/>
     </defs>
     <use xlink:href="#DejaVuSans-53"/>
     <use xlink:href="#DejaVuSans-20" x="63.476562"/>
     <use xlink:href="#DejaVuSans-5b" x="95.263672"/>
     <use xlink:href="#DejaVuSans-33" x="134.277344"/>
     <use xlink:href="#DejaVuSans-36" x="197.900391"/>
     <use xlink:href="#DejaVuSans-5d" x="261.523438"/>
    </g>
   </g>
   <g id="text_17">
    <!-- T [24] -->
    <g transform="translate(242.436362 280.612869) scale(0.1 -0.1)">
     <defs>
      <path id="DejaVuSans-54" d="M -19 4666 
L 3928 4666 
L 3928 4134 
L 2272 4134 
L 2272 0 
L 1638 0 
L 1638 4134 
L -19 4134 
L -19 4666 
z
" transform="scale(0.015625)"/>
     </defs>
     <use xlink:href="#DejaVuSans-54"/>
     <use xlink:href="#DejaVuSans-20" x="61.083984"/>
     <use xlink:href="#DejaVuSans-5b" x="92.871094"/>
     <use xlink:href="#DejaVuSans-32" x="131.884766"/>
     <use xlink:href="#DejaVuSans-34" x="195.507812"/>
     <use xlink:href="#DejaVuSans-5d" x="259.130859"/>
    </g>
   </g>
   <g id="text_18">
    <!-- V [19] -->
    <g transform="translate(285.75379 245.645415) scale(0.1 -0.1)">
     <defs>
      <path id="DejaVuSans-56" d="M 1831 0 
L 50 4666 
L 709 4666 
L 2188 738 
L 3669 4666 
L 4325 4666 
L 2547 0 
L 1831 0 
z
" transform="scale(0.015625)"/>
     </defs>
     <use xlink:href="#DejaVuSans-56"/>
     <use xlink:href="#DejaVuSans-20" x="68.408203"/>
     <use xlink:href="#DejaVuSans-5b" x="100.195312"/>
     <use xlink:href="#DejaVuSans-31" x="139.208984"/>
     <use xlink:href="#DejaVuSans-39" x="202.832031"/>
     <use xlink:href="#DejaVuSans-5d" x="266.455078"/>
    </g>
   </g>
   <g id="text_19">
    <!-- W [18] -->
    <g transform="translate(309.681733 204.053203) scale(0.1 -0.1)">
     <defs>
      <path id="DejaVuSans-57" d="M 213 4666 
L 850 4666 
L 1831 722 
L 2809 4666 
L 3519 4666 
L 4500 722 
L 5478 4666 
L 6119 4666 
L 4947 0 
L 4153 0 
L 3169 4050 
L 2175 0 
L 1381 0 
L 213 4666 
z
" transform="scale(0.015625)"/>
     </defs>
     <use xlink:href="#DejaVuSans-57"/>
     <use xlink:href="#DejaVuSans-20" x="98.876953"/>
     <use xlink:href="#DejaVuSans-5b" x="130.664062"/>
     <use xlink:href="#DejaVuSans-31" x="169.677734"/>
     <use xlink:href="#DejaVuSans-38" x="233.300781"/>
     <use xlink:href="#DejaVuSans-5d" x="296.923828"/>
    </g>
   </g>
   <g id="text_20">
    <!-- Y [10] -->
    <g transform="translate(317.685122 168.556337) scale(0.1 -0.1)">
     <defs>
      <path id="DejaVuSans-59" d="M -13 4666 
L 666 4666 
L 1959 2747 
L 3244 4666 
L 3922 4666 
L 2272 2222 
L 2272 0 
L 1638 0 
L 1638 2222 
L -13 4666 
z
" transform="scale(0.015625)"/>
     </defs>
     <use xlink:href="#DejaVuSans-59"/>
     <use xlink:href="#DejaVuSans-20" x="61.083984"/>
     <use xlink:href="#DejaVuSans-5b" x="92.871094"/>
     <use xlink:href="#DejaVuSans-31" x="131.884766"/>
     <use xlink:href="#DejaVuSans-30" x="195.507812"/>
     <use xlink:href="#DejaVuSans-5d" x="259.130859"/>
    </g>
   </g>
   <g id="text_21">
    <!-- A0A7N5PAT7 [340] -->
    <g transform="translate(120.699285 152.783507) scale(0.12 -0.12)">
     <use xlink:href="#DejaVuSans-41"/>
     <use xlink:href="#DejaVuSans-30" x="68.408203"/>
     <use xlink:href="#DejaVuSans-41" x="132.03125"/>
     <use xlink:href="#DejaVuSans-37" x="200.439453"/>
     <use xlink:href="#DejaVuSans-4e" x="264.0625"/>
     <use xlink:href="#DejaVuSans-35" x="338.867188"/>
     <use xlink:href="#DejaVuSans-50" x="402.490234"/>
     <use xlink:href="#DejaVuSans-41" x="456.417969"/>
     <use xlink:href="#DejaVuSans-54" x="517.076172"/>
     <use xlink:href="#DejaVuSans-37" x="578.160156"/>
     <use xlink:href="#DejaVuSans-20" x="641.783203"/>
     <use xlink:href="#DejaVuSans-5b" x="673.570312"/>
     <use xlink:href="#DejaVuSans-33" x="712.583984"/>
     <use xlink:href="#DejaVuSans-34" x="776.207031"/>
     <use xlink:href="#DejaVuSans-30" x="839.830078"/>
     <use xlink:href="#DejaVuSans-5d" x="903.453125"/>
    </g>
   </g>
  </g>
 </g>
</svg>
