<?xml version="1.0" encoding="utf-8" standalone="no"?>
<!DOCTYPE svg PUBLIC "-//W3C//DTD SVG 1.1//EN"
  "http://www.w3.org/Graphics/SVG/1.1/DTD/svg11.dtd">
<svg xmlns:xlink="http://www.w3.org/1999/xlink" width="346.308047pt" height="303.27501pt" viewBox="0 0 346.308047 303.27501" xmlns="http://www.w3.org/2000/svg" version="1.1">
 <metadata>
  <rdf:RDF xmlns:dc="http://purl.org/dc/elements/1.1/" xmlns:cc="http://creativecommons.org/ns#" xmlns:rdf="http://www.w3.org/1999/02/22-rdf-syntax-ns#">
   <cc:Work>
    <dc:type rdf:resource="http://purl.org/dc/dcmitype/StillImage"/>
    <dc:date>2024-09-27T16:07:18.262448</dc:date>
    <dc:format>image/svg+xml</dc:format>
    <dc:creator>
     <cc:Agent>
      <dc:title>Matplotlib v3.8.3, https://matplotlib.org/</dc:title>
     </cc:Agent>
    </dc:creator>
   </cc:Work>
  </rdf:RDF>
 </metadata>
 <defs>
  <style type="text/css">*{stroke-linejoin: round; stroke-linecap: butt}</style>
 </defs>
 <g id="figure_1">
  <g id="patch_1">
   <path d="M -0 303.27501 
L 346.308047 303.27501 
L 346.308047 0 
L -0 0 
z
" style="fill: #ffffff"/>
  </g>
  <g id="axes_1">
   <g id="patch_2">
    <path d="M 302.794709 152.257541 
C 302.794709 135.85059 299.633587 119.596258 293.484549 104.385165 
C 287.335512 89.174072 278.312956 75.289206 266.911253 63.491359 
L 175.060949 152.257541 
z
" style="fill: #1f77b4"/>
   </g>
   <g id="patch_3">
    <path d="M 266.753702 63.277975 
C 263.216291 59.617658 259.46324 56.172066 255.514634 52.959637 
C 251.566028 49.747208 247.428923 46.773682 243.125458 44.054972 
L 174.903398 152.044157 
z
" style="fill: #ff7f0e"/>
   </g>
   <g id="patch_4">
    <path d="M 243.034435 43.995271 
C 239.96098 42.053618 236.806033 40.244059 233.578213 38.571538 
C 230.350394 36.899017 227.052644 35.365057 223.69397 33.973849 
L 174.812375 151.984455 
z
" style="fill: #aec7e8"/>
   </g>
   <g id="patch_5">
    <path d="M 223.605782 33.93776 
C 219.911123 32.407383 216.146633 31.051357 212.324752 29.874164 
C 208.502871 28.696971 204.627815 27.69991 200.712389 26.886275 
L 174.724187 151.948366 
z
" style="fill: #ffbb78"/>
   </g>
   <g id="patch_6">
    <path d="M 200.605626 26.865038 
C 195.977969 25.9034 191.300501 25.199357 186.594808 24.75616 
C 181.889116 24.312962 177.16245 24.131292 172.436621 24.211988 
L 174.617423 151.92713 
z
" style="fill: #98df8a"/>
   </g>
   <g id="patch_7">
    <path d="M 172.221385 24.235973 
C 159.477653 24.453579 146.837962 26.577366 134.722928 30.536661 
C 122.607893 34.495955 111.153407 40.246347 100.740643 47.596478 
L 174.402187 151.951115 
z
" style="fill: #2ca02c"/>
   </g>
   <g id="patch_8">
    <path d="M 100.591672 47.672864 
C 99.997756 48.092096 99.407429 48.51639 98.820757 48.945701 
C 98.234085 49.375012 97.651088 49.809323 97.071832 50.248587 
L 174.253216 152.027501 
z
" style="fill: #d62728"/>
   </g>
   <g id="patch_9">
    <path d="M 97.043254 50.271037 
C 95.305398 51.588894 93.601581 52.951046 91.933479 54.356151 
C 90.265376 55.761257 88.633535 57.208856 87.03956 58.697524 
L 174.224638 152.049951 
z
" style="fill: #9467bd"/>
   </g>
   <g id="patch_10">
    <path d="M 87.012581 58.721872 
C 86.481282 59.218071 85.954228 59.718796 85.431478 60.223993 
C 84.908728 60.729191 84.390301 61.238841 83.876252 61.75289 
L 174.197659 152.074299 
z
" style="fill: #ff9896"/>
   </g>
   <g id="patch_11">
    <path d="M 83.725019 62.027315 
C 66.125714 79.62662 54.048187 101.991925 48.984334 126.360521 
C 43.920481 150.729118 46.087763 176.054528 55.218462 199.208392 
L 174.046426 152.348725 
z
" style="fill: #c5b0d5"/>
   </g>
   <g id="patch_12">
    <path d="M 55.246122 199.516144 
C 55.379468 199.854287 55.514257 200.191859 55.650485 200.528851 
C 55.786713 200.865843 55.924379 201.202252 56.063479 201.538069 
L 174.074086 152.656477 
z
" style="fill: #c49c94"/>
   </g>
   <g id="patch_13">
    <path d="M 56.076272 201.567182 
C 56.910916 203.582191 57.797032 205.575491 58.733748 207.545124 
C 59.670464 209.514756 60.657473 211.460074 61.693804 213.379164 
L 174.08688 152.68559 
z
" style="fill: #8c564b"/>
   </g>
   <g id="patch_14">
    <path d="M 61.782386 213.51052 
C 66.797433 222.797443 72.944254 231.427082 80.082154 239.201914 
C 87.220053 246.976746 95.294153 253.836994 104.119643 259.625634 
L 174.175462 152.816946 
z
" style="fill: #e377c2"/>
   </g>
   <g id="patch_15">
    <path d="M 104.231292 259.718061 
C 105.143123 260.316132 106.062576 260.902501 106.989424 261.477025 
C 107.916272 262.051549 108.850438 262.61418 109.791695 263.164781 
L 174.287111 152.909374 
z
" style="fill: #7f7f7f"/>
   </g>
   <g id="patch_16">
    <path d="M 109.977197 263.23611 
C 122.8736 270.780038 136.994164 276.003089 151.695528 278.667289 
C 166.396891 281.331489 181.452337 281.395753 196.175909 278.857152 
L 174.472613 152.980703 
z
" style="fill: #f7b6d2"/>
   </g>
   <g id="patch_17">
    <path d="M 196.487012 278.819792 
C 206.888051 277.026471 217.026837 273.950904 226.671301 269.663487 
C 236.315765 265.37607 245.391756 259.909766 253.691533 253.389696 
L 174.783716 152.943343 
z
" style="fill: #c7c7c7"/>
   </g>
   <g id="patch_18">
    <path d="M 253.835272 253.295417 
C 256.408101 251.274276 258.902326 249.15503 261.312428 246.942368 
C 263.72253 244.729707 266.04673 242.425264 268.279885 240.034139 
L 174.927455 152.849064 
z
" style="fill: #dbdb8d"/>
   </g>
   <g id="patch_19">
    <path d="M 268.379345 239.910815 
C 274.836502 232.996887 280.505624 225.386958 285.282324 217.221152 
C 290.059025 209.055345 293.913804 200.384091 296.775682 191.367056 
L 175.026915 152.72574 
z
" style="fill: #bcbd22"/>
   </g>
   <g id="patch_20">
    <path d="M 296.834432 191.219918 
C 297.824189 188.10145 298.693767 184.946106 299.44124 181.760868 
C 300.188713 178.575629 300.813531 175.362847 301.31431 172.129632 
L 175.085666 152.578602 
z
" style="fill: #17becf"/>
   </g>
   <g id="patch_21">
    <path d="M 301.326816 172.048891 
C 301.827595 168.815676 302.203966 165.564413 302.455097 162.302298 
C 302.706227 159.040183 302.831932 155.769624 302.831932 152.497856 
L 175.098172 152.497861 
z
" style="fill: #9edae5"/>
   </g>
   <g id="patch_22">
    <path d="M 249.078878 152.457009 
C 249.078878 142.886288 247.23489 133.404594 243.647951 124.531456 
C 240.061012 115.658319 234.797855 107.558814 228.146862 100.676736 
L 174.567518 152.457009 
z
" style="fill: #ffffff"/>
   </g>
   <g id="patch_23">
    <path d="M 228.146862 100.676736 
C 226.083372 98.541552 223.894092 96.531623 221.590739 94.657706 
C 219.287385 92.783789 216.874074 91.049232 214.363719 89.463318 
L 174.567518 152.457009 
z
" style="fill: #ffffff"/>
   </g>
   <g id="patch_24">
    <path d="M 214.363719 89.463318 
C 212.57087 88.330687 210.730485 87.275111 208.84759 86.299474 
C 206.964695 85.323837 205.041008 84.429027 203.081781 83.617489 
L 174.567518 152.457009 
z
" style="fill: #ffffff"/>
   </g>
   <g id="patch_25">
    <path d="M 203.081781 83.617489 
C 200.926564 82.724768 198.730611 81.933753 196.501181 81.247057 
C 194.27175 80.560362 192.011301 79.978742 189.727303 79.504122 
L 174.567518 152.457009 
z
" style="fill: #ffffff"/>
   </g>
   <g id="patch_26">
    <path d="M 189.727303 79.504122 
C 187.027836 78.943166 184.299313 78.532475 181.554326 78.273943 
C 178.809338 78.015411 176.052116 77.909437 173.295383 77.956509 
L 174.567518 152.457009 
z
" style="fill: #ffffff"/>
   </g>
   <g id="patch_27">
    <path d="M 173.295383 77.956509 
C 165.861539 78.083446 158.488386 79.322322 151.421283 81.63191 
C 144.354179 83.941499 137.672396 87.295894 131.598284 91.58347 
L 174.567518 152.457009 
z
" style="fill: #ffffff"/>
   </g>
   <g id="patch_28">
    <path d="M 131.598284 91.58347 
C 131.251833 91.828022 130.907475 92.075527 130.56525 92.325959 
C 130.223025 92.57639 129.882943 92.829738 129.545044 93.085976 
L 174.567518 152.457009 
z
" style="fill: #ffffff"/>
   </g>
   <g id="patch_29">
    <path d="M 129.545044 93.085976 
C 128.531295 93.854726 127.537401 94.649314 126.564342 95.468959 
C 125.591282 96.288604 124.639374 97.133036 123.709556 98.001426 
L 174.567518 152.457009 
z
" style="fill: #ffffff"/>
   </g>
   <g id="patch_30">
    <path d="M 123.709556 98.001426 
C 123.399631 98.290876 123.092183 98.582965 122.787246 98.877664 
C 122.482308 99.172362 122.179892 99.469658 121.880031 99.76952 
L 174.567518 152.457009 
z
" style="fill: #ffffff"/>
   </g>
   <g id="patch_31">
    <path d="M 121.880031 99.76952 
C 111.613769 110.035781 104.568545 123.082209 101.614631 137.297224 
C 98.660717 151.512238 99.924964 166.285394 105.251205 179.791815 
L 174.567518 152.457009 
z
" style="fill: #ffffff"/>
   </g>
   <g id="patch_32">
    <path d="M 105.251205 179.791815 
C 105.328991 179.989065 105.407617 180.185982 105.487084 180.38256 
C 105.56655 180.579139 105.646855 180.775378 105.727997 180.971271 
L 174.567518 152.457009 
z
" style="fill: #ffffff"/>
   </g>
   <g id="patch_33">
    <path d="M 105.727997 180.971271 
C 106.214872 182.146692 106.731773 183.309451 107.278191 184.458403 
C 107.824608 185.607356 108.400364 186.742124 109.00489 187.861594 
L 174.567518 152.457009 
z
" style="fill: #ffffff"/>
   </g>
   <g id="patch_34">
    <path d="M 109.00489 187.861594 
C 111.930334 193.278965 115.515979 198.312922 119.679754 202.84824 
C 123.843529 207.383559 128.553421 211.38537 133.701623 214.762077 
L 174.567518 152.457009 
z
" style="fill: #ffffff"/>
   </g>
   <g id="patch_35">
    <path d="M 133.701623 214.762077 
C 134.233525 215.110951 134.769872 215.453 135.310534 215.788138 
C 135.851195 216.123277 136.396126 216.451479 136.945192 216.772663 
L 174.567518 152.457009 
z
" style="fill: #ffffff"/>
   </g>
   <g id="patch_36">
    <path d="M 136.945192 216.772663 
C 144.468093 221.173288 152.705089 224.220067 161.280884 225.774184 
C 169.85668 227.328301 178.639023 227.365788 187.227774 225.884937 
L 174.567518 152.457009 
z
" style="fill: #ffffff"/>
   </g>
   <g id="patch_37">
    <path d="M 187.227774 225.884937 
C 193.295047 224.838834 199.209338 223.044753 204.835276 220.543759 
C 210.461213 218.042766 215.755541 214.854089 220.597078 211.050715 
L 174.567518 152.457009 
z
" style="fill: #ffffff"/>
   </g>
   <g id="patch_38">
    <path d="M 220.597078 211.050715 
C 222.097895 209.871716 223.552859 208.635489 224.958752 207.34477 
C 226.364645 206.054051 227.720428 204.709792 229.023102 203.314969 
L 174.567518 152.457009 
z
" style="fill: #ffffff"/>
   </g>
   <g id="patch_39">
    <path d="M 229.023102 203.314969 
C 232.789776 199.281845 236.096765 194.84272 238.883173 190.079333 
C 241.669582 185.315945 243.918203 180.257714 245.587631 174.997777 
L 174.567518 152.457009 
z
" style="fill: #ffffff"/>
   </g>
   <g id="patch_40">
    <path d="M 245.587631 174.997777 
C 246.16499 173.178671 246.672243 171.338053 247.108269 169.479997 
C 247.544295 167.621941 247.908772 165.747819 248.200894 163.861777 
L 174.567518 152.457009 
z
" style="fill: #ffffff"/>
   </g>
   <g id="patch_41">
    <path d="M 248.200894 163.861777 
C 248.493015 161.975734 248.712565 160.079165 248.859057 158.176264 
C 249.00555 156.273364 249.078878 154.365537 249.078878 152.457006 
L 174.567518 152.457009 
z
" style="fill: #ffffff"/>
   </g>
   <g id="matplotlib.axis_1"/>
   <g id="matplotlib.axis_2"/>
   <g id="text_1">
    <!-- A [45] -->
    <g transform="translate(305.326909 102.357302) scale(0.1 -0.1)">
     <defs>
      <path id="DejaVuSans-41" d="M 2188 4044 
L 1331 1722 
L 3047 1722 
L 2188 4044 
z
M 1831 4666 
L 2547 4666 
L 4325 0 
L 3669 0 
L 3244 1197 
L 1141 1197 
L 716 0 
L 50 0 
L 1831 4666 
z
" transform="scale(0.015625)"/>
      <path id="DejaVuSans-20" transform="scale(0.015625)"/>
      <path id="DejaVuSans-5b" d="M 550 4863 
L 1875 4863 
L 1875 4416 
L 1125 4416 
L 1125 -397 
L 1875 -397 
L 1875 -844 
L 550 -844 
L 550 4863 
z
" transform="scale(0.015625)"/>
      <path id="DejaVuSans-34" d="M 2419 4116 
L 825 1625 
L 2419 1625 
L 2419 4116 
z
M 2253 4666 
L 3047 4666 
L 3047 1625 
L 3713 1625 
L 3713 1100 
L 3047 1100 
L 3047 0 
L 2419 0 
L 2419 1100 
L 313 1100 
L 313 1709 
L 2253 4666 
z
" transform="scale(0.015625)"/>
      <path id="DejaVuSans-35" d="M 691 4666 
L 3169 4666 
L 3169 4134 
L 1269 4134 
L 1269 2991 
Q 1406 3038 1543 3061 
Q 1681 3084 1819 3084 
Q 2600 3084 3056 2656 
Q 3513 2228 3513 1497 
Q 3513 744 3044 326 
Q 2575 -91 1722 -91 
Q 1428 -91 1123 -41 
Q 819 9 494 109 
L 494 744 
Q 775 591 1075 516 
Q 1375 441 1709 441 
Q 2250 441 2565 725 
Q 2881 1009 2881 1497 
Q 2881 1984 2565 2268 
Q 2250 2553 1709 2553 
Q 1456 2553 1204 2497 
Q 953 2441 691 2322 
L 691 4666 
z
" transform="scale(0.015625)"/>
      <path id="DejaVuSans-5d" d="M 1947 4863 
L 1947 -844 
L 622 -844 
L 622 -397 
L 1369 -397 
L 1369 4416 
L 622 4416 
L 622 4863 
L 1947 4863 
z
" transform="scale(0.015625)"/>
     </defs>
     <use xlink:href="#DejaVuSans-41"/>
     <use xlink:href="#DejaVuSans-20" x="68.408203"/>
     <use xlink:href="#DejaVuSans-5b" x="100.195312"/>
     <use xlink:href="#DejaVuSans-34" x="139.208984"/>
     <use xlink:href="#DejaVuSans-35" x="202.832031"/>
     <use xlink:href="#DejaVuSans-5d" x="266.455078"/>
    </g>
   </g>
   <g id="text_2">
    <!-- C [14] -->
    <g transform="translate(263.575758 45.81056) scale(0.1 -0.1)">
     <defs>
      <path id="DejaVuSans-43" d="M 4122 4306 
L 4122 3641 
Q 3803 3938 3442 4084 
Q 3081 4231 2675 4231 
Q 1875 4231 1450 3742 
Q 1025 3253 1025 2328 
Q 1025 1406 1450 917 
Q 1875 428 2675 428 
Q 3081 428 3442 575 
Q 3803 722 4122 1019 
L 4122 359 
Q 3791 134 3420 21 
Q 3050 -91 2638 -91 
Q 1578 -91 968 557 
Q 359 1206 359 2328 
Q 359 3453 968 4101 
Q 1578 4750 2638 4750 
Q 3056 4750 3426 4639 
Q 3797 4528 4122 4306 
z
" transform="scale(0.015625)"/>
      <path id="DejaVuSans-31" d="M 794 531 
L 1825 531 
L 1825 4091 
L 703 3866 
L 703 4441 
L 1819 4666 
L 2450 4666 
L 2450 531 
L 3481 531 
L 3481 0 
L 794 0 
L 794 531 
z
" transform="scale(0.015625)"/>
     </defs>
     <use xlink:href="#DejaVuSans-43"/>
     <use xlink:href="#DejaVuSans-20" x="69.824219"/>
     <use xlink:href="#DejaVuSans-5b" x="101.611328"/>
     <use xlink:href="#DejaVuSans-31" x="140.625"/>
     <use xlink:href="#DejaVuSans-34" x="204.248047"/>
     <use xlink:href="#DejaVuSans-5d" x="267.871094"/>
    </g>
   </g>
   <g id="text_3">
    <!-- D [10] -->
    <g transform="translate(239.454797 29.989622) scale(0.1 -0.1)">
     <defs>
      <path id="DejaVuSans-44" d="M 1259 4147 
L 1259 519 
L 2022 519 
Q 2988 519 3436 956 
Q 3884 1394 3884 2338 
Q 3884 3275 3436 3711 
Q 2988 4147 2022 4147 
L 1259 4147 
z
M 628 4666 
L 1925 4666 
Q 3281 4666 3915 4102 
Q 4550 3538 4550 2338 
Q 4550 1131 3912 565 
Q 3275 0 1925 0 
L 628 0 
L 628 4666 
z
" transform="scale(0.015625)"/>
      <path id="DejaVuSans-30" d="M 2034 4250 
Q 1547 4250 1301 3770 
Q 1056 3291 1056 2328 
Q 1056 1369 1301 889 
Q 1547 409 2034 409 
Q 2525 409 2770 889 
Q 3016 1369 3016 2328 
Q 3016 3291 2770 3770 
Q 2525 4250 2034 4250 
z
M 2034 4750 
Q 2819 4750 3233 4129 
Q 3647 3509 3647 2328 
Q 3647 1150 3233 529 
Q 2819 -91 2034 -91 
Q 1250 -91 836 529 
Q 422 1150 422 2328 
Q 422 3509 836 4129 
Q 1250 4750 2034 4750 
z
" transform="scale(0.015625)"/>
     </defs>
     <use xlink:href="#DejaVuSans-44"/>
     <use xlink:href="#DejaVuSans-20" x="77.001953"/>
     <use xlink:href="#DejaVuSans-5b" x="108.789062"/>
     <use xlink:href="#DejaVuSans-31" x="147.802734"/>
     <use xlink:href="#DejaVuSans-30" x="211.425781"/>
     <use xlink:href="#DejaVuSans-5d" x="275.048828"/>
    </g>
   </g>
   <g id="text_4">
    <!-- E [11] -->
    <g transform="translate(216.084809 20.426119) scale(0.1 -0.1)">
     <defs>
      <path id="DejaVuSans-45" d="M 628 4666 
L 3578 4666 
L 3578 4134 
L 1259 4134 
L 1259 2753 
L 3481 2753 
L 3481 2222 
L 1259 2222 
L 1259 531 
L 3634 531 
L 3634 0 
L 628 0 
L 628 4666 
z
" transform="scale(0.015625)"/>
     </defs>
     <use xlink:href="#DejaVuSans-45"/>
     <use xlink:href="#DejaVuSans-20" x="63.183594"/>
     <use xlink:href="#DejaVuSans-5b" x="94.970703"/>
     <use xlink:href="#DejaVuSans-31" x="133.984375"/>
     <use xlink:href="#DejaVuSans-31" x="197.607422"/>
     <use xlink:href="#DejaVuSans-5d" x="261.230469"/>
    </g>
   </g>
   <g id="text_5">
    <!-- F [13] -->
    <g transform="translate(187.792547 14.798437) scale(0.1 -0.1)">
     <defs>
      <path id="DejaVuSans-46" d="M 628 4666 
L 3309 4666 
L 3309 4134 
L 1259 4134 
L 1259 2759 
L 3109 2759 
L 3109 2228 
L 1259 2228 
L 1259 0 
L 628 0 
L 628 4666 
z
" transform="scale(0.015625)"/>
      <path id="DejaVuSans-33" d="M 2597 2516 
Q 3050 2419 3304 2112 
Q 3559 1806 3559 1356 
Q 3559 666 3084 287 
Q 2609 -91 1734 -91 
Q 1441 -91 1130 -33 
Q 819 25 488 141 
L 488 750 
Q 750 597 1062 519 
Q 1375 441 1716 441 
Q 2309 441 2620 675 
Q 2931 909 2931 1356 
Q 2931 1769 2642 2001 
Q 2353 2234 1838 2234 
L 1294 2234 
L 1294 2753 
L 1863 2753 
Q 2328 2753 2575 2939 
Q 2822 3125 2822 3475 
Q 2822 3834 2567 4026 
Q 2313 4219 1838 4219 
Q 1578 4219 1281 4162 
Q 984 4106 628 3988 
L 628 4550 
Q 988 4650 1302 4700 
Q 1616 4750 1894 4750 
Q 2613 4750 3031 4423 
Q 3450 4097 3450 3541 
Q 3450 3153 3228 2886 
Q 3006 2619 2597 2516 
z
" transform="scale(0.015625)"/>
     </defs>
     <use xlink:href="#DejaVuSans-46"/>
     <use xlink:href="#DejaVuSans-20" x="57.519531"/>
     <use xlink:href="#DejaVuSans-5b" x="89.306641"/>
     <use xlink:href="#DejaVuSans-31" x="128.320312"/>
     <use xlink:href="#DejaVuSans-33" x="191.943359"/>
     <use xlink:href="#DejaVuSans-5d" x="255.566406"/>
    </g>
   </g>
   <g id="text_6">
    <!-- G [35] -->
    <g transform="translate(99.300314 21.15459) scale(0.1 -0.1)">
     <defs>
      <path id="DejaVuSans-47" d="M 3809 666 
L 3809 1919 
L 2778 1919 
L 2778 2438 
L 4434 2438 
L 4434 434 
Q 4069 175 3628 42 
Q 3188 -91 2688 -91 
Q 1594 -91 976 548 
Q 359 1188 359 2328 
Q 359 3472 976 4111 
Q 1594 4750 2688 4750 
Q 3144 4750 3555 4637 
Q 3966 4525 4313 4306 
L 4313 3634 
Q 3963 3931 3569 4081 
Q 3175 4231 2741 4231 
Q 1884 4231 1454 3753 
Q 1025 3275 1025 2328 
Q 1025 1384 1454 906 
Q 1884 428 2741 428 
Q 3075 428 3337 486 
Q 3600 544 3809 666 
z
" transform="scale(0.015625)"/>
     </defs>
     <use xlink:href="#DejaVuSans-47"/>
     <use xlink:href="#DejaVuSans-20" x="77.490234"/>
     <use xlink:href="#DejaVuSans-5b" x="109.277344"/>
     <use xlink:href="#DejaVuSans-33" x="148.291016"/>
     <use xlink:href="#DejaVuSans-35" x="211.914062"/>
     <use xlink:href="#DejaVuSans-5d" x="275.537109"/>
    </g>
   </g>
   <g id="text_7">
    <!-- H [2] -->
    <g transform="translate(66.413449 41.396896) scale(0.1 -0.1)">
     <defs>
      <path id="DejaVuSans-48" d="M 628 4666 
L 1259 4666 
L 1259 2753 
L 3553 2753 
L 3553 4666 
L 4184 4666 
L 4184 0 
L 3553 0 
L 3553 2222 
L 1259 2222 
L 1259 0 
L 628 0 
L 628 4666 
z
" transform="scale(0.015625)"/>
      <path id="DejaVuSans-32" d="M 1228 531 
L 3431 531 
L 3431 0 
L 469 0 
L 469 531 
Q 828 903 1448 1529 
Q 2069 2156 2228 2338 
Q 2531 2678 2651 2914 
Q 2772 3150 2772 3378 
Q 2772 3750 2511 3984 
Q 2250 4219 1831 4219 
Q 1534 4219 1204 4116 
Q 875 4013 500 3803 
L 500 4441 
Q 881 4594 1212 4672 
Q 1544 4750 1819 4750 
Q 2544 4750 2975 4387 
Q 3406 4025 3406 3419 
Q 3406 3131 3298 2873 
Q 3191 2616 2906 2266 
Q 2828 2175 2409 1742 
Q 1991 1309 1228 531 
z
" transform="scale(0.015625)"/>
     </defs>
     <use xlink:href="#DejaVuSans-48"/>
     <use xlink:href="#DejaVuSans-20" x="75.195312"/>
     <use xlink:href="#DejaVuSans-5b" x="106.982422"/>
     <use xlink:href="#DejaVuSans-32" x="145.996094"/>
     <use xlink:href="#DejaVuSans-5d" x="209.619141"/>
    </g>
   </g>
   <g id="text_8">
    <!-- I [6] -->
    <g transform="translate(63.410613 47.346146) scale(0.1 -0.1)">
     <defs>
      <path id="DejaVuSans-49" d="M 628 4666 
L 1259 4666 
L 1259 0 
L 628 0 
L 628 4666 
z
" transform="scale(0.015625)"/>
      <path id="DejaVuSans-36" d="M 2113 2584 
Q 1688 2584 1439 2293 
Q 1191 2003 1191 1497 
Q 1191 994 1439 701 
Q 1688 409 2113 409 
Q 2538 409 2786 701 
Q 3034 994 3034 1497 
Q 3034 2003 2786 2293 
Q 2538 2584 2113 2584 
z
M 3366 4563 
L 3366 3988 
Q 3128 4100 2886 4159 
Q 2644 4219 2406 4219 
Q 1781 4219 1451 3797 
Q 1122 3375 1075 2522 
Q 1259 2794 1537 2939 
Q 1816 3084 2150 3084 
Q 2853 3084 3261 2657 
Q 3669 2231 3669 1497 
Q 3669 778 3244 343 
Q 2819 -91 2113 -91 
Q 1303 -91 875 529 
Q 447 1150 447 2328 
Q 447 3434 972 4092 
Q 1497 4750 2381 4750 
Q 2619 4750 2861 4703 
Q 3103 4656 3366 4563 
z
" transform="scale(0.015625)"/>
     </defs>
     <use xlink:href="#DejaVuSans-49"/>
     <use xlink:href="#DejaVuSans-20" x="29.492188"/>
     <use xlink:href="#DejaVuSans-5b" x="61.279297"/>
     <use xlink:href="#DejaVuSans-36" x="100.292969"/>
     <use xlink:href="#DejaVuSans-5d" x="163.916016"/>
    </g>
   </g>
   <g id="text_9">
    <!-- K [2] -->
    <g transform="translate(52.653298 53.798338) scale(0.1 -0.1)">
     <defs>
      <path id="DejaVuSans-4b" d="M 628 4666 
L 1259 4666 
L 1259 2694 
L 3353 4666 
L 4166 4666 
L 1850 2491 
L 4331 0 
L 3500 0 
L 1259 2247 
L 1259 0 
L 628 0 
L 628 4666 
z
" transform="scale(0.015625)"/>
     </defs>
     <use xlink:href="#DejaVuSans-4b"/>
     <use xlink:href="#DejaVuSans-20" x="65.576172"/>
     <use xlink:href="#DejaVuSans-5b" x="97.363281"/>
     <use xlink:href="#DejaVuSans-32" x="136.376953"/>
     <use xlink:href="#DejaVuSans-5d" x="200"/>
    </g>
   </g>
   <g id="text_10">
    <!-- L [68] -->
    <g transform="translate(7.2 126.521076) scale(0.1 -0.1)">
     <defs>
      <path id="DejaVuSans-4c" d="M 628 4666 
L 1259 4666 
L 1259 531 
L 3531 531 
L 3531 0 
L 628 0 
L 628 4666 
z
" transform="scale(0.015625)"/>
      <path id="DejaVuSans-38" d="M 2034 2216 
Q 1584 2216 1326 1975 
Q 1069 1734 1069 1313 
Q 1069 891 1326 650 
Q 1584 409 2034 409 
Q 2484 409 2743 651 
Q 3003 894 3003 1313 
Q 3003 1734 2745 1975 
Q 2488 2216 2034 2216 
z
M 1403 2484 
Q 997 2584 770 2862 
Q 544 3141 544 3541 
Q 544 4100 942 4425 
Q 1341 4750 2034 4750 
Q 2731 4750 3128 4425 
Q 3525 4100 3525 3541 
Q 3525 3141 3298 2862 
Q 3072 2584 2669 2484 
Q 3125 2378 3379 2068 
Q 3634 1759 3634 1313 
Q 3634 634 3220 271 
Q 2806 -91 2034 -91 
Q 1263 -91 848 271 
Q 434 634 434 1313 
Q 434 1759 690 2068 
Q 947 2378 1403 2484 
z
M 1172 3481 
Q 1172 3119 1398 2916 
Q 1625 2713 2034 2713 
Q 2441 2713 2670 2916 
Q 2900 3119 2900 3481 
Q 2900 3844 2670 4047 
Q 2441 4250 2034 4250 
Q 1625 4250 1398 4047 
Q 1172 3844 1172 3481 
z
" transform="scale(0.015625)"/>
     </defs>
     <use xlink:href="#DejaVuSans-4c"/>
     <use xlink:href="#DejaVuSans-20" x="55.712891"/>
     <use xlink:href="#DejaVuSans-5b" x="87.5"/>
     <use xlink:href="#DejaVuSans-36" x="126.513672"/>
     <use xlink:href="#DejaVuSans-38" x="190.136719"/>
     <use xlink:href="#DejaVuSans-5d" x="253.759766"/>
    </g>
   </g>
   <g id="text_11">
    <!-- M [1] -->
    <g transform="translate(17.83625 208.075464) scale(0.1 -0.1)">
     <defs>
      <path id="DejaVuSans-4d" d="M 628 4666 
L 1569 4666 
L 2759 1491 
L 3956 4666 
L 4897 4666 
L 4897 0 
L 4281 0 
L 4281 4097 
L 3078 897 
L 2444 897 
L 1241 4097 
L 1241 0 
L 628 0 
L 628 4666 
z
" transform="scale(0.015625)"/>
     </defs>
     <use xlink:href="#DejaVuSans-4d"/>
     <use xlink:href="#DejaVuSans-20" x="86.279297"/>
     <use xlink:href="#DejaVuSans-5b" x="118.066406"/>
     <use xlink:href="#DejaVuSans-31" x="157.080078"/>
     <use xlink:href="#DejaVuSans-5d" x="220.703125"/>
    </g>
   </g>
   <g id="text_12">
    <!-- N [6] -->
    <g transform="translate(22.373435 215.790452) scale(0.1 -0.1)">
     <defs>
      <path id="DejaVuSans-4e" d="M 628 4666 
L 1478 4666 
L 3547 763 
L 3547 4666 
L 4159 4666 
L 4159 0 
L 3309 0 
L 1241 3903 
L 1241 0 
L 628 0 
L 628 4666 
z
" transform="scale(0.015625)"/>
     </defs>
     <use xlink:href="#DejaVuSans-4e"/>
     <use xlink:href="#DejaVuSans-20" x="74.804688"/>
     <use xlink:href="#DejaVuSans-5b" x="106.591797"/>
     <use xlink:href="#DejaVuSans-36" x="145.605469"/>
     <use xlink:href="#DejaVuSans-5d" x="209.228516"/>
    </g>
   </g>
   <g id="text_13">
    <!-- P [29] -->
    <g transform="translate(40.936885 250.599786) scale(0.1 -0.1)">
     <defs>
      <path id="DejaVuSans-50" d="M 1259 4147 
L 1259 2394 
L 2053 2394 
Q 2494 2394 2734 2622 
Q 2975 2850 2975 3272 
Q 2975 3691 2734 3919 
Q 2494 4147 2053 4147 
L 1259 4147 
z
M 628 4666 
L 2053 4666 
Q 2838 4666 3239 4311 
Q 3641 3956 3641 3272 
Q 3641 2581 3239 2228 
Q 2838 1875 2053 1875 
L 1259 1875 
L 1259 0 
L 628 0 
L 628 4666 
z
" transform="scale(0.015625)"/>
      <path id="DejaVuSans-39" d="M 703 97 
L 703 672 
Q 941 559 1184 500 
Q 1428 441 1663 441 
Q 2288 441 2617 861 
Q 2947 1281 2994 2138 
Q 2813 1869 2534 1725 
Q 2256 1581 1919 1581 
Q 1219 1581 811 2004 
Q 403 2428 403 3163 
Q 403 3881 828 4315 
Q 1253 4750 1959 4750 
Q 2769 4750 3195 4129 
Q 3622 3509 3622 2328 
Q 3622 1225 3098 567 
Q 2575 -91 1691 -91 
Q 1453 -91 1209 -44 
Q 966 3 703 97 
z
M 1959 2075 
Q 2384 2075 2632 2365 
Q 2881 2656 2881 3163 
Q 2881 3666 2632 3958 
Q 2384 4250 1959 4250 
Q 1534 4250 1286 3958 
Q 1038 3666 1038 3163 
Q 1038 2656 1286 2365 
Q 1534 2075 1959 2075 
z
" transform="scale(0.015625)"/>
     </defs>
     <use xlink:href="#DejaVuSans-50"/>
     <use xlink:href="#DejaVuSans-20" x="60.302734"/>
     <use xlink:href="#DejaVuSans-5b" x="92.089844"/>
     <use xlink:href="#DejaVuSans-32" x="131.103516"/>
     <use xlink:href="#DejaVuSans-39" x="194.726562"/>
     <use xlink:href="#DejaVuSans-5d" x="258.349609"/>
    </g>
   </g>
   <g id="text_14">
    <!-- Q [3] -->
    <g transform="translate(75.04403 275.093165) scale(0.1 -0.1)">
     <defs>
      <path id="DejaVuSans-51" d="M 2522 4238 
Q 1834 4238 1429 3725 
Q 1025 3213 1025 2328 
Q 1025 1447 1429 934 
Q 1834 422 2522 422 
Q 3209 422 3611 934 
Q 4013 1447 4013 2328 
Q 4013 3213 3611 3725 
Q 3209 4238 2522 4238 
z
M 3406 84 
L 4238 -825 
L 3475 -825 
L 2784 -78 
Q 2681 -84 2626 -87 
Q 2572 -91 2522 -91 
Q 1538 -91 948 567 
Q 359 1225 359 2328 
Q 359 3434 948 4092 
Q 1538 4750 2522 4750 
Q 3503 4750 4090 4092 
Q 4678 3434 4678 2328 
Q 4678 1516 4351 937 
Q 4025 359 3406 84 
z
" transform="scale(0.015625)"/>
     </defs>
     <use xlink:href="#DejaVuSans-51"/>
     <use xlink:href="#DejaVuSans-20" x="78.710938"/>
     <use xlink:href="#DejaVuSans-5b" x="110.498047"/>
     <use xlink:href="#DejaVuSans-33" x="149.511719"/>
     <use xlink:href="#DejaVuSans-5d" x="213.134766"/>
    </g>
   </g>
   <g id="text_15">
    <!-- R [41] -->
    <g transform="translate(118.763132 293.995322) scale(0.1 -0.1)">
     <defs>
      <path id="DejaVuSans-52" d="M 2841 2188 
Q 3044 2119 3236 1894 
Q 3428 1669 3622 1275 
L 4263 0 
L 3584 0 
L 2988 1197 
Q 2756 1666 2539 1819 
Q 2322 1972 1947 1972 
L 1259 1972 
L 1259 0 
L 628 0 
L 628 4666 
L 2053 4666 
Q 2853 4666 3247 4331 
Q 3641 3997 3641 3322 
Q 3641 2881 3436 2590 
Q 3231 2300 2841 2188 
z
M 1259 4147 
L 1259 2491 
L 2053 2491 
Q 2509 2491 2742 2702 
Q 2975 2913 2975 3322 
Q 2975 3731 2742 3939 
Q 2509 4147 2053 4147 
L 1259 4147 
z
" transform="scale(0.015625)"/>
     </defs>
     <use xlink:href="#DejaVuSans-52"/>
     <use xlink:href="#DejaVuSans-20" x="69.482422"/>
     <use xlink:href="#DejaVuSans-5b" x="101.269531"/>
     <use xlink:href="#DejaVuSans-34" x="140.283203"/>
     <use xlink:href="#DejaVuSans-31" x="203.90625"/>
     <use xlink:href="#DejaVuSans-5d" x="267.529297"/>
    </g>
   </g>
   <g id="text_16">
    <!-- S [29] -->
    <g transform="translate(231.860059 284.094876) scale(0.1 -0.1)">
     <defs>
      <path id="DejaVuSans-53" d="M 3425 4513 
L 3425 3897 
Q 3066 4069 2747 4153 
Q 2428 4238 2131 4238 
Q 1616 4238 1336 4038 
Q 1056 3838 1056 3469 
Q 1056 3159 1242 3001 
Q 1428 2844 1947 2747 
L 2328 2669 
Q 3034 2534 3370 2195 
Q 3706 1856 3706 1288 
Q 3706 609 3251 259 
Q 2797 -91 1919 -91 
Q 1588 -91 1214 -16 
Q 841 59 441 206 
L 441 856 
Q 825 641 1194 531 
Q 1563 422 1919 422 
Q 2459 422 2753 634 
Q 3047 847 3047 1241 
Q 3047 1584 2836 1778 
Q 2625 1972 2144 2069 
L 1759 2144 
Q 1053 2284 737 2584 
Q 422 2884 422 3419 
Q 422 4038 858 4394 
Q 1294 4750 2059 4750 
Q 2388 4750 2728 4690 
Q 3069 4631 3425 4513 
z
" transform="scale(0.015625)"/>
     </defs>
     <use xlink:href="#DejaVuSans-53"/>
     <use xlink:href="#DejaVuSans-20" x="63.476562"/>
     <use xlink:href="#DejaVuSans-5b" x="95.263672"/>
     <use xlink:href="#DejaVuSans-32" x="134.277344"/>
     <use xlink:href="#DejaVuSans-39" x="197.900391"/>
     <use xlink:href="#DejaVuSans-5d" x="261.523438"/>
    </g>
   </g>
   <g id="text_17">
    <!-- T [9] -->
    <g transform="translate(269.950925 259.111074) scale(0.1 -0.1)">
     <defs>
      <path id="DejaVuSans-54" d="M -19 4666 
L 3928 4666 
L 3928 4134 
L 2272 4134 
L 2272 0 
L 1638 0 
L 1638 4134 
L -19 4134 
L -19 4666 
z
" transform="scale(0.015625)"/>
     </defs>
     <use xlink:href="#DejaVuSans-54"/>
     <use xlink:href="#DejaVuSans-20" x="61.083984"/>
     <use xlink:href="#DejaVuSans-5b" x="92.871094"/>
     <use xlink:href="#DejaVuSans-39" x="131.884766"/>
     <use xlink:href="#DejaVuSans-5d" x="195.507812"/>
    </g>
   </g>
   <g id="text_18">
    <!-- V [26] -->
    <g transform="translate(296.307865 226.430068) scale(0.1 -0.1)">
     <defs>
      <path id="DejaVuSans-56" d="M 1831 0 
L 50 4666 
L 709 4666 
L 2188 738 
L 3669 4666 
L 4325 4666 
L 2547 0 
L 1831 0 
z
" transform="scale(0.015625)"/>
     </defs>
     <use xlink:href="#DejaVuSans-56"/>
     <use xlink:href="#DejaVuSans-20" x="68.408203"/>
     <use xlink:href="#DejaVuSans-5b" x="100.195312"/>
     <use xlink:href="#DejaVuSans-32" x="139.208984"/>
     <use xlink:href="#DejaVuSans-36" x="202.832031"/>
     <use xlink:href="#DejaVuSans-5d" x="266.455078"/>
    </g>
   </g>
   <g id="text_19">
    <!-- W [9] -->
    <g transform="translate(311.876797 187.438469) scale(0.1 -0.1)">
     <defs>
      <path id="DejaVuSans-57" d="M 213 4666 
L 850 4666 
L 1831 722 
L 2809 4666 
L 3519 4666 
L 4500 722 
L 5478 4666 
L 6119 4666 
L 4947 0 
L 4153 0 
L 3169 4050 
L 2175 0 
L 1381 0 
L 213 4666 
z
" transform="scale(0.015625)"/>
     </defs>
     <use xlink:href="#DejaVuSans-57"/>
     <use xlink:href="#DejaVuSans-20" x="98.876953"/>
     <use xlink:href="#DejaVuSans-5b" x="130.664062"/>
     <use xlink:href="#DejaVuSans-39" x="169.677734"/>
     <use xlink:href="#DejaVuSans-5d" x="233.300781"/>
    </g>
   </g>
   <g id="text_20">
    <!-- Y [9] -->
    <g transform="translate(315.190789 166.042117) scale(0.1 -0.1)">
     <defs>
      <path id="DejaVuSans-59" d="M -13 4666 
L 666 4666 
L 1959 2747 
L 3244 4666 
L 3922 4666 
L 2272 2222 
L 2272 0 
L 1638 0 
L 1638 2222 
L -13 4666 
z
" transform="scale(0.015625)"/>
     </defs>
     <use xlink:href="#DejaVuSans-59"/>
     <use xlink:href="#DejaVuSans-20" x="61.083984"/>
     <use xlink:href="#DejaVuSans-5b" x="92.871094"/>
     <use xlink:href="#DejaVuSans-39" x="131.884766"/>
     <use xlink:href="#DejaVuSans-5d" x="195.507812"/>
    </g>
   </g>
   <g id="text_21">
    <!-- A0A7N5KK79 [368] -->
    <g transform="translate(116.871893 152.457009) scale(0.12 -0.12)">
     <defs>
      <path id="DejaVuSans-37" d="M 525 4666 
L 3525 4666 
L 3525 4397 
L 1831 0 
L 1172 0 
L 2766 4134 
L 525 4134 
L 525 4666 
z
" transform="scale(0.015625)"/>
     </defs>
     <use xlink:href="#DejaVuSans-41"/>
     <use xlink:href="#DejaVuSans-30" x="68.408203"/>
     <use xlink:href="#DejaVuSans-41" x="132.03125"/>
     <use xlink:href="#DejaVuSans-37" x="200.439453"/>
     <use xlink:href="#DejaVuSans-4e" x="264.0625"/>
     <use xlink:href="#DejaVuSans-35" x="338.867188"/>
     <use xlink:href="#DejaVuSans-4b" x="402.490234"/>
     <use xlink:href="#DejaVuSans-4b" x="468.066406"/>
     <use xlink:href="#DejaVuSans-37" x="533.642578"/>
     <use xlink:href="#DejaVuSans-39" x="597.265625"/>
     <use xlink:href="#DejaVuSans-20" x="660.888672"/>
     <use xlink:href="#DejaVuSans-5b" x="692.675781"/>
     <use xlink:href="#DejaVuSans-33" x="731.689453"/>
     <use xlink:href="#DejaVuSans-36" x="795.3125"/>
     <use xlink:href="#DejaVuSans-38" x="858.935547"/>
     <use xlink:href="#DejaVuSans-5d" x="922.558594"/>
    </g>
   </g>
  </g>
 </g>
</svg>
