<?xml version="1.0" encoding="utf-8" standalone="no"?>
<!DOCTYPE svg PUBLIC "-//W3C//DTD SVG 1.1//EN"
  "http://www.w3.org/Graphics/SVG/1.1/DTD/svg11.dtd">
<svg xmlns:xlink="http://www.w3.org/1999/xlink" width="348.90517pt" height="300.771957pt" viewBox="0 0 348.90517 300.771957" xmlns="http://www.w3.org/2000/svg" version="1.1">
 <metadata>
  <rdf:RDF xmlns:dc="http://purl.org/dc/elements/1.1/" xmlns:cc="http://creativecommons.org/ns#" xmlns:rdf="http://www.w3.org/1999/02/22-rdf-syntax-ns#">
   <cc:Work>
    <dc:type rdf:resource="http://purl.org/dc/dcmitype/StillImage"/>
    <dc:date>2024-09-27T16:07:19.207150</dc:date>
    <dc:format>image/svg+xml</dc:format>
    <dc:creator>
     <cc:Agent>
      <dc:title>Matplotlib v3.8.3, https://matplotlib.org/</dc:title>
     </cc:Agent>
    </dc:creator>
   </cc:Work>
  </rdf:RDF>
 </metadata>
 <defs>
  <style type="text/css">*{stroke-linejoin: round; stroke-linecap: butt}</style>
 </defs>
 <g id="figure_1">
  <g id="patch_1">
   <path d="M 0 300.771957 
L 348.90517 300.771957 
L 348.90517 0 
L 0 0 
z
" style="fill: #ffffff"/>
  </g>
  <g id="axes_1">
   <g id="patch_2">
    <path d="M 298.959575 151.12702 
C 298.959575 130.122284 293.778498 109.438266 283.876934 90.913742 
C 273.97537 72.389219 259.655689 56.589886 242.19089 44.92028 
L 171.225815 151.12702 
z
" style="fill: #1f77b4"/>
   </g>
   <g id="patch_3">
    <path d="M 241.980045 44.705957 
C 239.083301 42.770415 236.108584 40.954194 233.063355 39.261851 
C 230.018126 37.569508 226.904935 36.002459 223.731591 34.564636 
L 171.01497 150.912697 
z
" style="fill: #ff7f0e"/>
   </g>
   <g id="patch_4">
    <path d="M 223.676729 34.538137 
C 222.407541 33.963075 221.129027 33.408819 219.841702 32.875591 
C 218.554378 32.342364 217.258414 31.830237 215.954332 31.339415 
L 170.960108 150.886198 
z
" style="fill: #aec7e8"/>
   </g>
   <g id="patch_5">
    <path d="M 215.905155 31.321819 
C 213.296816 30.34011 210.657046 29.444029 207.990085 28.635015 
C 205.323124 27.826001 202.630399 27.104488 199.916236 26.471634 
L 170.910932 150.868602 
z
" style="fill: #ffbb78"/>
   </g>
   <g id="patch_6">
    <path d="M 199.85273 26.456552 
C 197.477887 25.902816 195.087674 25.417201 192.68503 25.000302 
C 190.282386 24.583404 187.868296 24.235394 185.445729 23.9567 
L 170.847425 150.85352 
z
" style="fill: #98df8a"/>
   </g>
   <g id="patch_7">
    <path d="M 185.272341 23.955282 
C 173.835134 22.639537 162.272365 22.876064 150.898532 24.65843 
C 139.524699 26.440796 128.443865 29.752693 117.957417 34.50404 
L 170.674037 150.852102 
z
" style="fill: #2ca02c"/>
   </g>
   <g id="patch_8">
    <path d="M 117.785094 34.562536 
C 114.929161 35.856543 112.12184 37.255265 109.368838 38.755861 
C 106.615836 40.256457 103.919018 41.857909 101.283866 43.556963 
L 170.501715 150.910597 
z
" style="fill: #d62728"/>
   </g>
   <g id="patch_9">
    <path d="M 101.228578 43.591658 
C 99.47192 44.724289 97.743327 45.899867 96.04436 47.117329 
C 94.345394 48.334791 92.676566 49.59377 91.039384 50.89313 
L 170.446426 150.945292 
z
" style="fill: #9467bd"/>
   </g>
   <g id="patch_10">
    <path d="M 91.011753 50.914332 
C 90.46605 51.347433 89.9239 51.784991 89.385356 52.226962 
C 88.846813 52.668933 88.311894 53.115303 87.780654 53.566027 
L 170.418796 150.966494 
z
" style="fill: #ff9896"/>
   </g>
   <g id="patch_11">
    <path d="M 87.611583 53.814633 
C 69.433879 69.237266 55.931529 89.44496 48.639179 112.140955 
C 41.34683 134.836949 40.551639 159.127525 46.343984 182.251868 
L 170.249724 151.2151 
z
" style="fill: #c5b0d5"/>
   </g>
   <g id="patch_12">
    <path d="M 46.338928 182.560819 
C 46.677495 183.912451 47.038155 185.258453 47.420764 186.598284 
C 47.803373 187.938115 48.20788 189.271596 48.634122 190.598191 
L 170.244669 151.524051 
z
" style="fill: #c49c94"/>
   </g>
   <g id="patch_13">
    <path d="M 48.650911 190.647649 
C 49.503452 193.301016 50.442605 195.925771 51.466859 198.517699 
C 52.491114 201.109626 53.599923 203.667338 54.791505 206.186726 
L 170.261458 151.573509 
z
" style="fill: #8c564b"/>
   </g>
   <g id="patch_14">
    <path d="M 54.872319 206.325388 
C 59.196477 215.468052 64.591217 224.06488 70.943097 231.935095 
C 77.294977 239.805309 84.559158 246.893353 92.582884 253.050175 
L 170.342272 151.712171 
z
" style="fill: #e377c2"/>
   </g>
   <g id="patch_15">
    <path d="M 92.72343 253.172417 
C 96.593478 256.142009 100.630462 258.887473 104.814539 261.395312 
C 108.998616 263.903151 113.322919 266.169251 117.766194 268.182473 
L 170.482817 151.834412 
z
" style="fill: #7f7f7f"/>
   </g>
   <g id="patch_16">
    <path d="M 117.918957 268.24429 
C 125.540031 271.697353 133.481976 274.393281 141.630272 276.293197 
C 149.778569 278.193114 158.093861 279.287843 166.456246 279.561599 
L 170.63558 151.896229 
z
" style="fill: #f7b6d2"/>
   </g>
   <g id="patch_17">
    <path d="M 166.697957 279.561599 
C 177.854746 279.926835 189.011433 278.827997 199.882594 276.293198 
C 210.753755 273.758399 221.245887 269.80944 231.090568 264.547349 
L 170.87729 151.896229 
z
" style="fill: #c7c7c7"/>
   </g>
   <g id="patch_18">
    <path d="M 231.290245 264.453906 
C 237.130139 261.332418 242.718472 257.761535 248.004691 253.773561 
C 253.29091 249.785587 258.259027 245.392583 262.8641 240.634289 
L 171.076967 151.802787 
z
" style="fill: #dbdb8d"/>
   </g>
   <g id="patch_19">
    <path d="M 263.000071 240.483029 
C 269.790487 233.46668 275.754055 225.694807 280.773839 217.319803 
C 285.793623 208.9448 289.836596 200.021767 292.823484 190.725671 
L 171.212939 151.651526 
z
" style="fill: #bcbd22"/>
   </g>
   <g id="patch_20">
    <path d="M 292.885301 190.572908 
C 293.951031 187.256033 294.880616 183.896945 295.671724 180.504071 
C 296.462831 177.111197 297.114798 173.687377 297.62599 170.241201 
L 171.274756 151.498764 
z
" style="fill: #17becf"/>
   </g>
   <g id="patch_21">
    <path d="M 297.638452 170.159499 
C 298.098512 167.058022 298.444221 163.940658 298.674877 160.813742 
C 298.905532 157.686825 299.020977 154.552476 299.020977 151.417063 
L 171.287217 151.417062 
z
" style="fill: #9edae5"/>
   </g>
   <g id="patch_22">
    <path d="M 245.267795 151.377909 
C 245.267795 139.125146 242.2455 127.059469 236.469588 116.253497 
C 230.693675 105.447525 222.340529 96.231247 212.152729 89.423977 
L 170.756435 151.377909 
z
" style="fill: #ffffff"/>
   </g>
   <g id="patch_23">
    <path d="M 212.152729 89.423977 
C 210.462962 88.294911 208.72771 87.235449 206.951326 86.248249 
C 205.174943 85.261048 203.358914 84.346937 201.507797 83.508206 
L 170.756435 151.377909 
z
" style="fill: #ffffff"/>
   </g>
   <g id="patch_24">
    <path d="M 201.507797 83.508206 
C 200.767437 83.172754 200.021638 82.849438 199.270698 82.538388 
C 198.519759 82.227339 197.76378 81.928598 197.003065 81.642285 
L 170.756435 151.377909 
z
" style="fill: #ffffff"/>
   </g>
   <g id="patch_25">
    <path d="M 197.003065 81.642285 
C 195.481534 81.069622 193.941669 80.546908 192.385941 80.074983 
C 190.830214 79.603058 189.259458 79.182175 187.676196 78.81301 
L 170.756435 151.377909 
z
" style="fill: #ffffff"/>
   </g>
   <g id="patch_26">
    <path d="M 187.676196 78.81301 
C 186.290871 78.489998 184.89658 78.206722 183.495038 77.963532 
C 182.093496 77.720341 180.685277 77.517335 179.272112 77.354764 
L 170.756435 151.377909 
z
" style="fill: #ffffff"/>
   </g>
   <g id="patch_27">
    <path d="M 179.272112 77.354764 
C 172.600408 76.587246 165.85546 76.72522 159.220724 77.764933 
C 152.585988 78.804647 146.122168 80.736587 140.005073 83.508206 
L 170.756435 151.377909 
z
" style="fill: #ffffff"/>
   </g>
   <g id="patch_28">
    <path d="M 140.005073 83.508206 
C 138.339112 84.263043 136.701508 85.078965 135.09559 85.954313 
C 133.489672 86.82966 131.916529 87.763841 130.379357 88.754955 
L 170.756435 151.377909 
z
" style="fill: #ffffff"/>
   </g>
   <g id="patch_29">
    <path d="M 130.379357 88.754955 
C 129.354639 89.415657 128.346293 90.10141 127.35523 90.811597 
C 126.364166 91.521783 125.390683 92.256188 124.43566 93.014148 
L 170.756435 151.377909 
z
" style="fill: #ffffff"/>
   </g>
   <g id="patch_30">
    <path d="M 124.43566 93.014148 
C 124.117334 93.26679 123.801079 93.522032 123.486929 93.779848 
C 123.172778 94.037665 122.860742 94.298047 122.550852 94.56097 
L 170.756435 151.377909 
z
" style="fill: #ffffff"/>
   </g>
   <g id="patch_31">
    <path d="M 122.550852 94.56097 
C 111.947192 103.557505 104.070821 115.345327 99.81695 128.584657 
C 95.56308 141.823987 95.099218 155.99349 98.478087 169.48269 
L 170.756435 151.377909 
z
" style="fill: #ffffff"/>
   </g>
   <g id="patch_32">
    <path d="M 98.478087 169.48269 
C 98.675583 170.271142 98.885968 171.05631 99.109157 171.837878 
C 99.332346 172.619446 99.568308 173.39731 99.816949 174.171157 
L 170.756435 151.377909 
z
" style="fill: #ffffff"/>
   </g>
   <g id="patch_33">
    <path d="M 99.816949 174.171157 
C 100.314265 175.718954 100.862104 177.250061 101.459586 178.762019 
C 102.057068 180.273977 102.703873 181.765975 103.398963 183.235618 
L 170.756435 151.377909 
z
" style="fill: #ffffff"/>
   </g>
   <g id="patch_34">
    <path d="M 103.398963 183.235618 
C 105.921388 188.568839 109.06832 193.583656 112.773583 198.174614 
C 116.478846 202.765573 120.716285 206.900265 125.396792 210.491745 
L 170.756435 151.377909 
z
" style="fill: #ffffff"/>
   </g>
   <g id="patch_35">
    <path d="M 125.396792 210.491745 
C 127.654321 212.224007 130.009228 213.825527 132.449939 215.288433 
C 134.890651 216.75134 137.413161 218.073231 140.005072 219.24761 
L 170.756435 151.377909 
z
" style="fill: #ffffff"/>
   </g>
   <g id="patch_36">
    <path d="M 140.005072 219.24761 
C 144.450698 221.261898 149.0835 222.834522 153.836673 223.942807 
C 158.589845 225.051091 163.440433 225.689683 168.31849 225.849374 
L 170.756435 151.377909 
z
" style="fill: #ffffff"/>
   </g>
   <g id="patch_37">
    <path d="M 168.31849 225.849374 
C 174.826618 226.062428 181.334685 225.42144 187.676195 223.942807 
C 194.017706 222.464174 200.138116 220.160615 205.880847 217.091062 
L 170.756435 151.377909 
z
" style="fill: #ffffff"/>
   </g>
   <g id="patch_38">
    <path d="M 205.880847 217.091062 
C 209.287452 215.270193 212.547313 213.187178 215.630941 210.86086 
C 218.714568 208.534542 221.612637 205.971956 224.298929 203.196285 
L 170.756435 151.377909 
z
" style="fill: #ffffff"/>
   </g>
   <g id="patch_39">
    <path d="M 224.298929 203.196285 
C 228.260005 199.103415 231.738753 194.569822 234.66696 189.684404 
C 237.595167 184.798985 239.953569 179.593882 241.69592 174.171159 
L 170.756435 151.377909 
z
" style="fill: #ffffff"/>
   </g>
   <g id="patch_40">
    <path d="M 241.69592 174.171159 
C 242.317596 172.236315 242.859854 170.276847 243.321333 168.297671 
C 243.782812 166.318494 244.163127 164.321266 244.461322 162.310997 
L 170.756435 151.377909 
z
" style="fill: #ffffff"/>
   </g>
   <g id="patch_41">
    <path d="M 244.461322 162.310997 
C 244.729691 160.501803 244.931354 158.68334 245.065903 156.859305 
C 245.200452 155.035271 245.267795 153.2069 245.267795 151.37791 
L 170.756435 151.377909 
z
" style="fill: #ffffff"/>
   </g>
   <g id="matplotlib.axis_1"/>
   <g id="matplotlib.axis_2"/>
   <g id="text_1">
    <!-- A [60] -->
    <g transform="translate(295.142046 87.65179) scale(0.1 -0.1)">
     <defs>
      <path id="DejaVuSans-41" d="M 2188 4044 
L 1331 1722 
L 3047 1722 
L 2188 4044 
z
M 1831 4666 
L 2547 4666 
L 4325 0 
L 3669 0 
L 3244 1197 
L 1141 1197 
L 716 0 
L 50 0 
L 1831 4666 
z
" transform="scale(0.015625)"/>
      <path id="DejaVuSans-20" transform="scale(0.015625)"/>
      <path id="DejaVuSans-5b" d="M 550 4863 
L 1875 4863 
L 1875 4416 
L 1125 4416 
L 1125 -397 
L 1875 -397 
L 1875 -844 
L 550 -844 
L 550 4863 
z
" transform="scale(0.015625)"/>
      <path id="DejaVuSans-36" d="M 2113 2584 
Q 1688 2584 1439 2293 
Q 1191 2003 1191 1497 
Q 1191 994 1439 701 
Q 1688 409 2113 409 
Q 2538 409 2786 701 
Q 3034 994 3034 1497 
Q 3034 2003 2786 2293 
Q 2538 2584 2113 2584 
z
M 3366 4563 
L 3366 3988 
Q 3128 4100 2886 4159 
Q 2644 4219 2406 4219 
Q 1781 4219 1451 3797 
Q 1122 3375 1075 2522 
Q 1259 2794 1537 2939 
Q 1816 3084 2150 3084 
Q 2853 3084 3261 2657 
Q 3669 2231 3669 1497 
Q 3669 778 3244 343 
Q 2819 -91 2113 -91 
Q 1303 -91 875 529 
Q 447 1150 447 2328 
Q 447 3434 972 4092 
Q 1497 4750 2381 4750 
Q 2619 4750 2861 4703 
Q 3103 4656 3366 4563 
z
" transform="scale(0.015625)"/>
      <path id="DejaVuSans-30" d="M 2034 4250 
Q 1547 4250 1301 3770 
Q 1056 3291 1056 2328 
Q 1056 1369 1301 889 
Q 1547 409 2034 409 
Q 2525 409 2770 889 
Q 3016 1369 3016 2328 
Q 3016 3291 2770 3770 
Q 2525 4250 2034 4250 
z
M 2034 4750 
Q 2819 4750 3233 4129 
Q 3647 3509 3647 2328 
Q 3647 1150 3233 529 
Q 2819 -91 2034 -91 
Q 1250 -91 836 529 
Q 422 1150 422 2328 
Q 422 3509 836 4129 
Q 1250 4750 2034 4750 
z
" transform="scale(0.015625)"/>
      <path id="DejaVuSans-5d" d="M 1947 4863 
L 1947 -844 
L 622 -844 
L 622 -397 
L 1369 -397 
L 1369 4416 
L 622 4416 
L 622 4863 
L 1947 4863 
z
" transform="scale(0.015625)"/>
     </defs>
     <use xlink:href="#DejaVuSans-41"/>
     <use xlink:href="#DejaVuSans-20" x="68.408203"/>
     <use xlink:href="#DejaVuSans-5b" x="100.195312"/>
     <use xlink:href="#DejaVuSans-36" x="139.208984"/>
     <use xlink:href="#DejaVuSans-30" x="202.832031"/>
     <use xlink:href="#DejaVuSans-5d" x="266.455078"/>
    </g>
   </g>
   <g id="text_2">
    <!-- C [10] -->
    <g transform="translate(239.268193 30.856141) scale(0.1 -0.1)">
     <defs>
      <path id="DejaVuSans-43" d="M 4122 4306 
L 4122 3641 
Q 3803 3938 3442 4084 
Q 3081 4231 2675 4231 
Q 1875 4231 1450 3742 
Q 1025 3253 1025 2328 
Q 1025 1406 1450 917 
Q 1875 428 2675 428 
Q 3081 428 3442 575 
Q 3803 722 4122 1019 
L 4122 359 
Q 3791 134 3420 21 
Q 3050 -91 2638 -91 
Q 1578 -91 968 557 
Q 359 1206 359 2328 
Q 359 3453 968 4101 
Q 1578 4750 2638 4750 
Q 3056 4750 3426 4639 
Q 3797 4528 4122 4306 
z
" transform="scale(0.015625)"/>
      <path id="DejaVuSans-31" d="M 794 531 
L 1825 531 
L 1825 4091 
L 703 3866 
L 703 4441 
L 1819 4666 
L 2450 4666 
L 2450 531 
L 3481 531 
L 3481 0 
L 794 0 
L 794 531 
z
" transform="scale(0.015625)"/>
     </defs>
     <use xlink:href="#DejaVuSans-43"/>
     <use xlink:href="#DejaVuSans-20" x="69.824219"/>
     <use xlink:href="#DejaVuSans-5b" x="101.611328"/>
     <use xlink:href="#DejaVuSans-31" x="140.625"/>
     <use xlink:href="#DejaVuSans-30" x="204.248047"/>
     <use xlink:href="#DejaVuSans-5d" x="267.871094"/>
    </g>
   </g>
   <g id="text_3">
    <!-- D [4] -->
    <g transform="translate(224.729862 23.833906) scale(0.1 -0.1)">
     <defs>
      <path id="DejaVuSans-44" d="M 1259 4147 
L 1259 519 
L 2022 519 
Q 2988 519 3436 956 
Q 3884 1394 3884 2338 
Q 3884 3275 3436 3711 
Q 2988 4147 2022 4147 
L 1259 4147 
z
M 628 4666 
L 1925 4666 
Q 3281 4666 3915 4102 
Q 4550 3538 4550 2338 
Q 4550 1131 3912 565 
Q 3275 0 1925 0 
L 628 0 
L 628 4666 
z
" transform="scale(0.015625)"/>
      <path id="DejaVuSans-34" d="M 2419 4116 
L 825 1625 
L 2419 1625 
L 2419 4116 
z
M 2253 4666 
L 3047 4666 
L 3047 1625 
L 3713 1625 
L 3713 1100 
L 3047 1100 
L 3047 0 
L 2419 0 
L 2419 1100 
L 313 1100 
L 313 1709 
L 2253 4666 
z
" transform="scale(0.015625)"/>
     </defs>
     <use xlink:href="#DejaVuSans-44"/>
     <use xlink:href="#DejaVuSans-20" x="77.001953"/>
     <use xlink:href="#DejaVuSans-5b" x="108.789062"/>
     <use xlink:href="#DejaVuSans-34" x="147.802734"/>
     <use xlink:href="#DejaVuSans-5d" x="211.425781"/>
    </g>
   </g>
   <g id="text_4">
    <!-- E [8] -->
    <g transform="translate(211.698 19.171031) scale(0.1 -0.1)">
     <defs>
      <path id="DejaVuSans-45" d="M 628 4666 
L 3578 4666 
L 3578 4134 
L 1259 4134 
L 1259 2753 
L 3481 2753 
L 3481 2222 
L 1259 2222 
L 1259 531 
L 3634 531 
L 3634 0 
L 628 0 
L 628 4666 
z
" transform="scale(0.015625)"/>
      <path id="DejaVuSans-38" d="M 2034 2216 
Q 1584 2216 1326 1975 
Q 1069 1734 1069 1313 
Q 1069 891 1326 650 
Q 1584 409 2034 409 
Q 2484 409 2743 651 
Q 3003 894 3003 1313 
Q 3003 1734 2745 1975 
Q 2488 2216 2034 2216 
z
M 1403 2484 
Q 997 2584 770 2862 
Q 544 3141 544 3541 
Q 544 4100 942 4425 
Q 1341 4750 2034 4750 
Q 2731 4750 3128 4425 
Q 3525 4100 3525 3541 
Q 3525 3141 3298 2862 
Q 3072 2584 2669 2484 
Q 3125 2378 3379 2068 
Q 3634 1759 3634 1313 
Q 3634 634 3220 271 
Q 2806 -91 2034 -91 
Q 1263 -91 848 271 
Q 434 634 434 1313 
Q 434 1759 690 2068 
Q 947 2378 1403 2484 
z
M 1172 3481 
Q 1172 3119 1398 2916 
Q 1625 2713 2034 2713 
Q 2441 2713 2670 2916 
Q 2900 3119 2900 3481 
Q 2900 3844 2670 4047 
Q 2441 4250 2034 4250 
Q 1625 4250 1398 4047 
Q 1172 3844 1172 3481 
z
" transform="scale(0.015625)"/>
     </defs>
     <use xlink:href="#DejaVuSans-45"/>
     <use xlink:href="#DejaVuSans-20" x="63.183594"/>
     <use xlink:href="#DejaVuSans-5b" x="94.970703"/>
     <use xlink:href="#DejaVuSans-38" x="133.984375"/>
     <use xlink:href="#DejaVuSans-5d" x="197.607422"/>
    </g>
   </g>
   <g id="text_5">
    <!-- F [7] -->
    <g transform="translate(194.86879 15.174356) scale(0.1 -0.1)">
     <defs>
      <path id="DejaVuSans-46" d="M 628 4666 
L 3309 4666 
L 3309 4134 
L 1259 4134 
L 1259 2759 
L 3109 2759 
L 3109 2228 
L 1259 2228 
L 1259 0 
L 628 0 
L 628 4666 
z
" transform="scale(0.015625)"/>
      <path id="DejaVuSans-37" d="M 525 4666 
L 3525 4666 
L 3525 4397 
L 1831 0 
L 1172 0 
L 2766 4134 
L 525 4134 
L 525 4666 
z
" transform="scale(0.015625)"/>
     </defs>
     <use xlink:href="#DejaVuSans-46"/>
     <use xlink:href="#DejaVuSans-20" x="57.519531"/>
     <use xlink:href="#DejaVuSans-5b" x="89.306641"/>
     <use xlink:href="#DejaVuSans-37" x="128.320312"/>
     <use xlink:href="#DejaVuSans-5d" x="191.943359"/>
    </g>
   </g>
   <g id="text_6">
    <!-- G [33] -->
    <g transform="translate(117.466294 14.798437) scale(0.1 -0.1)">
     <defs>
      <path id="DejaVuSans-47" d="M 3809 666 
L 3809 1919 
L 2778 1919 
L 2778 2438 
L 4434 2438 
L 4434 434 
Q 4069 175 3628 42 
Q 3188 -91 2688 -91 
Q 1594 -91 976 548 
Q 359 1188 359 2328 
Q 359 3472 976 4111 
Q 1594 4750 2688 4750 
Q 3144 4750 3555 4637 
Q 3966 4525 4313 4306 
L 4313 3634 
Q 3963 3931 3569 4081 
Q 3175 4231 2741 4231 
Q 1884 4231 1454 3753 
Q 1025 3275 1025 2328 
Q 1025 1384 1454 906 
Q 1884 428 2741 428 
Q 3075 428 3337 486 
Q 3600 544 3809 666 
z
" transform="scale(0.015625)"/>
      <path id="DejaVuSans-33" d="M 2597 2516 
Q 3050 2419 3304 2112 
Q 3559 1806 3559 1356 
Q 3559 666 3084 287 
Q 2609 -91 1734 -91 
Q 1441 -91 1130 -33 
Q 819 25 488 141 
L 488 750 
Q 750 597 1062 519 
Q 1375 441 1716 441 
Q 2309 441 2620 675 
Q 2931 909 2931 1356 
Q 2931 1769 2642 2001 
Q 2353 2234 1838 2234 
L 1294 2234 
L 1294 2753 
L 1863 2753 
Q 2328 2753 2575 2939 
Q 2822 3125 2822 3475 
Q 2822 3834 2567 4026 
Q 2313 4219 1838 4219 
Q 1578 4219 1281 4162 
Q 984 4106 628 3988 
L 628 4550 
Q 988 4650 1302 4700 
Q 1616 4750 1894 4750 
Q 2613 4750 3031 4423 
Q 3450 4097 3450 3541 
Q 3450 3153 3228 2886 
Q 3006 2619 2597 2516 
z
" transform="scale(0.015625)"/>
     </defs>
     <use xlink:href="#DejaVuSans-47"/>
     <use xlink:href="#DejaVuSans-20" x="77.490234"/>
     <use xlink:href="#DejaVuSans-5b" x="109.277344"/>
     <use xlink:href="#DejaVuSans-33" x="148.291016"/>
     <use xlink:href="#DejaVuSans-33" x="211.914062"/>
     <use xlink:href="#DejaVuSans-5d" x="275.537109"/>
    </g>
   </g>
   <g id="text_7">
    <!-- H [9] -->
    <g transform="translate(78.391488 30.299763) scale(0.1 -0.1)">
     <defs>
      <path id="DejaVuSans-48" d="M 628 4666 
L 1259 4666 
L 1259 2753 
L 3553 2753 
L 3553 4666 
L 4184 4666 
L 4184 0 
L 3553 0 
L 3553 2222 
L 1259 2222 
L 1259 0 
L 628 0 
L 628 4666 
z
" transform="scale(0.015625)"/>
      <path id="DejaVuSans-39" d="M 703 97 
L 703 672 
Q 941 559 1184 500 
Q 1428 441 1663 441 
Q 2288 441 2617 861 
Q 2947 1281 2994 2138 
Q 2813 1869 2534 1725 
Q 2256 1581 1919 1581 
Q 1219 1581 811 2004 
Q 403 2428 403 3163 
Q 403 3881 828 4315 
Q 1253 4750 1959 4750 
Q 2769 4750 3195 4129 
Q 3622 3509 3622 2328 
Q 3622 1225 3098 567 
Q 2575 -91 1691 -91 
Q 1453 -91 1209 -44 
Q 966 3 703 97 
z
M 1959 2075 
Q 2384 2075 2632 2365 
Q 2881 2656 2881 3163 
Q 2881 3666 2632 3958 
Q 2384 4250 1959 4250 
Q 1534 4250 1286 3958 
Q 1038 3666 1038 3163 
Q 1038 2656 1286 2365 
Q 1534 2075 1959 2075 
z
" transform="scale(0.015625)"/>
     </defs>
     <use xlink:href="#DejaVuSans-48"/>
     <use xlink:href="#DejaVuSans-20" x="75.195312"/>
     <use xlink:href="#DejaVuSans-5b" x="106.982422"/>
     <use xlink:href="#DejaVuSans-39" x="145.996094"/>
     <use xlink:href="#DejaVuSans-5d" x="209.619141"/>
    </g>
   </g>
   <g id="text_8">
    <!-- I [6] -->
    <g transform="translate(68.310404 39.493907) scale(0.1 -0.1)">
     <defs>
      <path id="DejaVuSans-49" d="M 628 4666 
L 1259 4666 
L 1259 0 
L 628 0 
L 628 4666 
z
" transform="scale(0.015625)"/>
     </defs>
     <use xlink:href="#DejaVuSans-49"/>
     <use xlink:href="#DejaVuSans-20" x="29.492188"/>
     <use xlink:href="#DejaVuSans-5b" x="61.279297"/>
     <use xlink:href="#DejaVuSans-36" x="100.292969"/>
     <use xlink:href="#DejaVuSans-5d" x="163.916016"/>
    </g>
   </g>
   <g id="text_9">
    <!-- K [2] -->
    <g transform="translate(57.38045 45.112384) scale(0.1 -0.1)">
     <defs>
      <path id="DejaVuSans-4b" d="M 628 4666 
L 1259 4666 
L 1259 2694 
L 3353 4666 
L 4166 4666 
L 1850 2491 
L 4331 0 
L 3500 0 
L 1259 2247 
L 1259 0 
L 628 0 
L 628 4666 
z
" transform="scale(0.015625)"/>
      <path id="DejaVuSans-32" d="M 1228 531 
L 3431 531 
L 3431 0 
L 469 0 
L 469 531 
Q 828 903 1448 1529 
Q 2069 2156 2228 2338 
Q 2531 2678 2651 2914 
Q 2772 3150 2772 3378 
Q 2772 3750 2511 3984 
Q 2250 4219 1831 4219 
Q 1534 4219 1204 4116 
Q 875 4013 500 3803 
L 500 4441 
Q 881 4594 1212 4672 
Q 1544 4750 1819 4750 
Q 2544 4750 2975 4387 
Q 3406 4025 3406 3419 
Q 3406 3131 3298 2873 
Q 3191 2616 2906 2266 
Q 2828 2175 2409 1742 
Q 1991 1309 1228 531 
z
" transform="scale(0.015625)"/>
     </defs>
     <use xlink:href="#DejaVuSans-4b"/>
     <use xlink:href="#DejaVuSans-20" x="65.576172"/>
     <use xlink:href="#DejaVuSans-5b" x="97.363281"/>
     <use xlink:href="#DejaVuSans-32" x="136.376953"/>
     <use xlink:href="#DejaVuSans-5d" x="200"/>
    </g>
   </g>
   <g id="text_10">
    <!-- L [68] -->
    <g transform="translate(7.2 110.992915) scale(0.1 -0.1)">
     <defs>
      <path id="DejaVuSans-4c" d="M 628 4666 
L 1259 4666 
L 1259 531 
L 3531 531 
L 3531 0 
L 628 0 
L 628 4666 
z
" transform="scale(0.015625)"/>
     </defs>
     <use xlink:href="#DejaVuSans-4c"/>
     <use xlink:href="#DejaVuSans-20" x="55.712891"/>
     <use xlink:href="#DejaVuSans-5b" x="87.5"/>
     <use xlink:href="#DejaVuSans-36" x="126.513672"/>
     <use xlink:href="#DejaVuSans-38" x="190.136719"/>
     <use xlink:href="#DejaVuSans-5d" x="253.759766"/>
    </g>
   </g>
   <g id="text_11">
    <!-- M [4] -->
    <g transform="translate(9.166498 192.865082) scale(0.1 -0.1)">
     <defs>
      <path id="DejaVuSans-4d" d="M 628 4666 
L 1569 4666 
L 2759 1491 
L 3956 4666 
L 4897 4666 
L 4897 0 
L 4281 0 
L 4281 4097 
L 3078 897 
L 2444 897 
L 1241 4097 
L 1241 0 
L 628 0 
L 628 4666 
z
" transform="scale(0.015625)"/>
     </defs>
     <use xlink:href="#DejaVuSans-4d"/>
     <use xlink:href="#DejaVuSans-20" x="86.279297"/>
     <use xlink:href="#DejaVuSans-5b" x="118.066406"/>
     <use xlink:href="#DejaVuSans-34" x="157.080078"/>
     <use xlink:href="#DejaVuSans-5d" x="220.703125"/>
    </g>
   </g>
   <g id="text_12">
    <!-- N [8] -->
    <g transform="translate(14.7624 205.971492) scale(0.1 -0.1)">
     <defs>
      <path id="DejaVuSans-4e" d="M 628 4666 
L 1478 4666 
L 3547 763 
L 3547 4666 
L 4159 4666 
L 4159 0 
L 3309 0 
L 1241 3903 
L 1241 0 
L 628 0 
L 628 4666 
z
" transform="scale(0.015625)"/>
     </defs>
     <use xlink:href="#DejaVuSans-4e"/>
     <use xlink:href="#DejaVuSans-20" x="74.804688"/>
     <use xlink:href="#DejaVuSans-5b" x="106.591797"/>
     <use xlink:href="#DejaVuSans-38" x="145.605469"/>
     <use xlink:href="#DejaVuSans-5d" x="209.228516"/>
    </g>
   </g>
   <g id="text_13">
    <!-- P [29] -->
    <g transform="translate(31.267242 242.716762) scale(0.1 -0.1)">
     <defs>
      <path id="DejaVuSans-50" d="M 1259 4147 
L 1259 2394 
L 2053 2394 
Q 2494 2394 2734 2622 
Q 2975 2850 2975 3272 
Q 2975 3691 2734 3919 
Q 2494 4147 2053 4147 
L 1259 4147 
z
M 628 4666 
L 2053 4666 
Q 2838 4666 3239 4311 
Q 3641 3956 3641 3272 
Q 3641 2581 3239 2228 
Q 2838 1875 2053 1875 
L 1259 1875 
L 1259 0 
L 628 0 
L 628 4666 
z
" transform="scale(0.015625)"/>
     </defs>
     <use xlink:href="#DejaVuSans-50"/>
     <use xlink:href="#DejaVuSans-20" x="60.302734"/>
     <use xlink:href="#DejaVuSans-5b" x="92.089844"/>
     <use xlink:href="#DejaVuSans-32" x="131.103516"/>
     <use xlink:href="#DejaVuSans-39" x="194.726562"/>
     <use xlink:href="#DejaVuSans-5d" x="258.349609"/>
    </g>
   </g>
   <g id="text_14">
    <!-- Q [14] -->
    <g transform="translate(66.669586 275.110777) scale(0.1 -0.1)">
     <defs>
      <path id="DejaVuSans-51" d="M 2522 4238 
Q 1834 4238 1429 3725 
Q 1025 3213 1025 2328 
Q 1025 1447 1429 934 
Q 1834 422 2522 422 
Q 3209 422 3611 934 
Q 4013 1447 4013 2328 
Q 4013 3213 3611 3725 
Q 3209 4238 2522 4238 
z
M 3406 84 
L 4238 -825 
L 3475 -825 
L 2784 -78 
Q 2681 -84 2626 -87 
Q 2572 -91 2522 -91 
Q 1538 -91 948 567 
Q 359 1225 359 2328 
Q 359 3434 948 4092 
Q 1538 4750 2522 4750 
Q 3503 4750 4090 4092 
Q 4678 3434 4678 2328 
Q 4678 1516 4351 937 
Q 4025 359 3406 84 
z
" transform="scale(0.015625)"/>
     </defs>
     <use xlink:href="#DejaVuSans-51"/>
     <use xlink:href="#DejaVuSans-20" x="78.710938"/>
     <use xlink:href="#DejaVuSans-5b" x="110.498047"/>
     <use xlink:href="#DejaVuSans-31" x="149.511719"/>
     <use xlink:href="#DejaVuSans-34" x="213.134766"/>
     <use xlink:href="#DejaVuSans-5d" x="276.757812"/>
    </g>
   </g>
   <g id="text_15">
    <!-- R [24] -->
    <g transform="translate(108.075054 291.492269) scale(0.1 -0.1)">
     <defs>
      <path id="DejaVuSans-52" d="M 2841 2188 
Q 3044 2119 3236 1894 
Q 3428 1669 3622 1275 
L 4263 0 
L 3584 0 
L 2988 1197 
Q 2756 1666 2539 1819 
Q 2322 1972 1947 1972 
L 1259 1972 
L 1259 0 
L 628 0 
L 628 4666 
L 2053 4666 
Q 2853 4666 3247 4331 
Q 3641 3997 3641 3322 
Q 3641 2881 3436 2590 
Q 3231 2300 2841 2188 
z
M 1259 4147 
L 1259 2491 
L 2053 2491 
Q 2509 2491 2742 2702 
Q 2975 2913 2975 3322 
Q 2975 3731 2742 3939 
Q 2509 4147 2053 4147 
L 1259 4147 
z
" transform="scale(0.015625)"/>
     </defs>
     <use xlink:href="#DejaVuSans-52"/>
     <use xlink:href="#DejaVuSans-20" x="69.482422"/>
     <use xlink:href="#DejaVuSans-5b" x="101.269531"/>
     <use xlink:href="#DejaVuSans-32" x="140.283203"/>
     <use xlink:href="#DejaVuSans-34" x="203.90625"/>
     <use xlink:href="#DejaVuSans-5d" x="267.529297"/>
    </g>
   </g>
   <g id="text_16">
    <!-- S [32] -->
    <g transform="translate(202.783124 291.49227) scale(0.1 -0.1)">
     <defs>
      <path id="DejaVuSans-53" d="M 3425 4513 
L 3425 3897 
Q 3066 4069 2747 4153 
Q 2428 4238 2131 4238 
Q 1616 4238 1336 4038 
Q 1056 3838 1056 3469 
Q 1056 3159 1242 3001 
Q 1428 2844 1947 2747 
L 2328 2669 
Q 3034 2534 3370 2195 
Q 3706 1856 3706 1288 
Q 3706 609 3251 259 
Q 2797 -91 1919 -91 
Q 1588 -91 1214 -16 
Q 841 59 441 206 
L 441 856 
Q 825 641 1194 531 
Q 1563 422 1919 422 
Q 2459 422 2753 634 
Q 3047 847 3047 1241 
Q 3047 1584 2836 1778 
Q 2625 1972 2144 2069 
L 1759 2144 
Q 1053 2284 737 2584 
Q 422 2884 422 3419 
Q 422 4038 858 4394 
Q 1294 4750 2059 4750 
Q 2388 4750 2728 4690 
Q 3069 4631 3425 4513 
z
" transform="scale(0.015625)"/>
     </defs>
     <use xlink:href="#DejaVuSans-53"/>
     <use xlink:href="#DejaVuSans-20" x="63.476562"/>
     <use xlink:href="#DejaVuSans-5b" x="95.263672"/>
     <use xlink:href="#DejaVuSans-33" x="134.277344"/>
     <use xlink:href="#DejaVuSans-32" x="197.900391"/>
     <use xlink:href="#DejaVuSans-5d" x="261.523438"/>
    </g>
   </g>
   <g id="text_17">
    <!-- T [19] -->
    <g transform="translate(255.697463 266.730013) scale(0.1 -0.1)">
     <defs>
      <path id="DejaVuSans-54" d="M -19 4666 
L 3928 4666 
L 3928 4134 
L 2272 4134 
L 2272 0 
L 1638 0 
L 1638 4134 
L -19 4134 
L -19 4666 
z
" transform="scale(0.015625)"/>
     </defs>
     <use xlink:href="#DejaVuSans-54"/>
     <use xlink:href="#DejaVuSans-20" x="61.083984"/>
     <use xlink:href="#DejaVuSans-5b" x="92.871094"/>
     <use xlink:href="#DejaVuSans-31" x="131.884766"/>
     <use xlink:href="#DejaVuSans-39" x="195.507812"/>
     <use xlink:href="#DejaVuSans-5d" x="259.130859"/>
    </g>
   </g>
   <g id="text_18">
    <!-- V [28] -->
    <g transform="translate(291.729929 226.646006) scale(0.1 -0.1)">
     <defs>
      <path id="DejaVuSans-56" d="M 1831 0 
L 50 4666 
L 709 4666 
L 2188 738 
L 3669 4666 
L 4325 4666 
L 2547 0 
L 1831 0 
z
" transform="scale(0.015625)"/>
     </defs>
     <use xlink:href="#DejaVuSans-56"/>
     <use xlink:href="#DejaVuSans-20" x="68.408203"/>
     <use xlink:href="#DejaVuSans-5b" x="100.195312"/>
     <use xlink:href="#DejaVuSans-32" x="139.208984"/>
     <use xlink:href="#DejaVuSans-38" x="202.832031"/>
     <use xlink:href="#DejaVuSans-5d" x="266.455078"/>
    </g>
   </g>
   <g id="text_19">
    <!-- W [10] -->
    <g transform="translate(308.11142 186.163976) scale(0.1 -0.1)">
     <defs>
      <path id="DejaVuSans-57" d="M 213 4666 
L 850 4666 
L 1831 722 
L 2809 4666 
L 3519 4666 
L 4500 722 
L 5478 4666 
L 6119 4666 
L 4947 0 
L 4153 0 
L 3169 4050 
L 2175 0 
L 1381 0 
L 213 4666 
z
" transform="scale(0.015625)"/>
     </defs>
     <use xlink:href="#DejaVuSans-57"/>
     <use xlink:href="#DejaVuSans-20" x="98.876953"/>
     <use xlink:href="#DejaVuSans-5b" x="130.664062"/>
     <use xlink:href="#DejaVuSans-31" x="169.677734"/>
     <use xlink:href="#DejaVuSans-30" x="233.300781"/>
     <use xlink:href="#DejaVuSans-5d" x="296.923828"/>
    </g>
   </g>
   <g id="text_20">
    <!-- Y [9] -->
    <g transform="translate(311.413643 164.512785) scale(0.1 -0.1)">
     <defs>
      <path id="DejaVuSans-59" d="M -13 4666 
L 666 4666 
L 1959 2747 
L 3244 4666 
L 3922 4666 
L 2272 2222 
L 2272 0 
L 1638 0 
L 1638 2222 
L -13 4666 
z
" transform="scale(0.015625)"/>
     </defs>
     <use xlink:href="#DejaVuSans-59"/>
     <use xlink:href="#DejaVuSans-20" x="61.083984"/>
     <use xlink:href="#DejaVuSans-5b" x="92.871094"/>
     <use xlink:href="#DejaVuSans-39" x="131.884766"/>
     <use xlink:href="#DejaVuSans-5d" x="195.507812"/>
    </g>
   </g>
   <g id="text_21">
    <!-- A0A7N5K2R3 [384] -->
    <g transform="translate(112.826435 151.377909) scale(0.12 -0.12)">
     <defs>
      <path id="DejaVuSans-35" d="M 691 4666 
L 3169 4666 
L 3169 4134 
L 1269 4134 
L 1269 2991 
Q 1406 3038 1543 3061 
Q 1681 3084 1819 3084 
Q 2600 3084 3056 2656 
Q 3513 2228 3513 1497 
Q 3513 744 3044 326 
Q 2575 -91 1722 -91 
Q 1428 -91 1123 -41 
Q 819 9 494 109 
L 494 744 
Q 775 591 1075 516 
Q 1375 441 1709 441 
Q 2250 441 2565 725 
Q 2881 1009 2881 1497 
Q 2881 1984 2565 2268 
Q 2250 2553 1709 2553 
Q 1456 2553 1204 2497 
Q 953 2441 691 2322 
L 691 4666 
z
" transform="scale(0.015625)"/>
     </defs>
     <use xlink:href="#DejaVuSans-41"/>
     <use xlink:href="#DejaVuSans-30" x="68.408203"/>
     <use xlink:href="#DejaVuSans-41" x="132.03125"/>
     <use xlink:href="#DejaVuSans-37" x="200.439453"/>
     <use xlink:href="#DejaVuSans-4e" x="264.0625"/>
     <use xlink:href="#DejaVuSans-35" x="338.867188"/>
     <use xlink:href="#DejaVuSans-4b" x="402.490234"/>
     <use xlink:href="#DejaVuSans-32" x="468.066406"/>
     <use xlink:href="#DejaVuSans-52" x="531.689453"/>
     <use xlink:href="#DejaVuSans-33" x="601.171875"/>
     <use xlink:href="#DejaVuSans-20" x="664.794922"/>
     <use xlink:href="#DejaVuSans-5b" x="696.582031"/>
     <use xlink:href="#DejaVuSans-33" x="735.595703"/>
     <use xlink:href="#DejaVuSans-38" x="799.21875"/>
     <use xlink:href="#DejaVuSans-34" x="862.841797"/>
     <use xlink:href="#DejaVuSans-5d" x="926.464844"/>
    </g>
   </g>
  </g>
 </g>
</svg>
