<?xml version="1.0" encoding="utf-8" standalone="no"?>
<!DOCTYPE svg PUBLIC "-//W3C//DTD SVG 1.1//EN"
  "http://www.w3.org/Graphics/SVG/1.1/DTD/svg11.dtd">
<svg xmlns:xlink="http://www.w3.org/1999/xlink" width="351.410124pt" height="304.491247pt" viewBox="0 0 351.410124 304.491247" xmlns="http://www.w3.org/2000/svg" version="1.1">
 <metadata>
  <rdf:RDF xmlns:dc="http://purl.org/dc/elements/1.1/" xmlns:cc="http://creativecommons.org/ns#" xmlns:rdf="http://www.w3.org/1999/02/22-rdf-syntax-ns#">
   <cc:Work>
    <dc:type rdf:resource="http://purl.org/dc/dcmitype/StillImage"/>
    <dc:date>2024-09-27T16:07:23.933146</dc:date>
    <dc:format>image/svg+xml</dc:format>
    <dc:creator>
     <cc:Agent>
      <dc:title>Matplotlib v3.8.3, https://matplotlib.org/</dc:title>
     </cc:Agent>
    </dc:creator>
   </cc:Work>
  </rdf:RDF>
 </metadata>
 <defs>
  <style type="text/css">*{stroke-linejoin: round; stroke-linecap: butt}</style>
 </defs>
 <g id="figure_1">
  <g id="patch_1">
   <path d="M 0 304.491247 
L 351.410124 304.491247 
L 351.410124 0 
L 0 0 
z
" style="fill: #ffffff"/>
  </g>
  <g id="axes_1">
   <g id="patch_2">
    <path d="M 302.66139 151.440343 
C 302.66139 134.7688 299.397487 118.25739 293.05424 102.839752 
C 286.710992 87.422113 277.410256 73.394426 265.677941 61.549885 
L 174.92763 151.440343 
z
" style="fill: #1f77b4"/>
   </g>
   <g id="patch_3">
    <path d="M 265.514746 61.334031 
C 261.805291 57.589093 257.86758 54.077357 253.724206 50.818971 
C 249.580832 47.560586 245.239735 44.561796 240.725824 41.839807 
L 174.764435 151.224489 
z
" style="fill: #ff7f0e"/>
   </g>
   <g id="patch_4">
    <path d="M 240.640704 41.785104 
C 238.210686 40.31975 235.732513 38.935777 233.210311 37.635492 
C 230.688108 36.335206 228.123277 35.119328 225.520086 33.989884 
L 174.679315 151.169786 
z
" style="fill: #aec7e8"/>
   </g>
   <g id="patch_5">
    <path d="M 225.469301 33.966983 
C 223.981856 33.321626 222.482258 32.704649 220.971323 32.116389 
C 219.460387 31.528128 217.938387 30.968689 216.406151 30.438377 
L 174.628531 151.146885 
z
" style="fill: #ffbb78"/>
   </g>
   <g id="patch_6">
    <path d="M 216.328663 30.414821 
C 211.730844 28.8235 207.045858 27.496177 202.296613 26.439341 
C 197.547367 25.382505 192.741615 24.597882 187.902856 24.089308 
L 174.551042 151.123329 
z
" style="fill: #98df8a"/>
   </g>
   <g id="patch_7">
    <path d="M 187.711507 24.082018 
C 177.217018 22.979002 166.626172 23.180676 156.181284 24.682424 
C 145.736396 26.184172 135.517735 28.974454 125.759102 32.989428 
L 174.359692 151.116039 
z
" style="fill: #2ca02c"/>
   </g>
   <g id="patch_8">
    <path d="M 125.604575 33.036404 
C 123.355297 33.96182 121.132909 34.951291 118.94013 36.003606 
C 116.747351 37.055921 114.585075 38.170652 112.455948 39.346434 
L 174.205165 151.163014 
z
" style="fill: #d62728"/>
   </g>
   <g id="patch_9">
    <path d="M 112.361217 39.404795 
C 106.681188 42.541516 101.248413 46.106482 96.110086 50.068723 
C 90.97176 54.030965 86.142804 58.378976 81.665166 63.074987 
L 174.110434 151.221376 
z
" style="fill: #9467bd"/>
   </g>
   <g id="patch_10">
    <path d="M 81.58794 63.147924 
C 80.189287 64.614788 78.825746 66.114734 77.498475 67.646487 
C 76.171203 69.17824 74.880576 70.741367 73.627692 72.334539 
L 174.033208 151.294313 
z
" style="fill: #ff9896"/>
   </g>
   <g id="patch_11">
    <path d="M 73.509326 72.572416 
C 61.430126 87.932367 53.035092 105.86125 48.972372 124.974843 
C 44.909652 144.088437 45.286562 163.881854 50.074004 182.826921 
L 173.914842 151.53219 
z
" style="fill: #c5b0d5"/>
   </g>
   <g id="patch_12">
    <path d="M 50.091645 183.11165 
C 50.985557 186.649077 52.030625 190.146579 53.223974 193.594534 
C 54.417322 197.042488 55.757855 200.437729 57.241885 203.770914 
L 173.932483 151.816919 
z
" style="fill: #c49c94"/>
   </g>
   <g id="patch_13">
    <path d="M 57.278934 203.854129 
C 58.762964 207.187314 60.389127 210.455384 62.152951 213.649347 
C 63.916774 216.843309 65.816637 219.960232 67.847313 222.991539 
L 173.969533 151.900134 
z
" style="fill: #8c564b"/>
   </g>
   <g id="patch_14">
    <path d="M 67.928027 223.101527 
C 71.991241 229.16692 76.566985 234.872814 81.604973 240.156504 
C 86.642961 245.440194 92.124669 250.282253 97.989856 254.629469 
L 174.050247 152.010122 
z
" style="fill: #e377c2"/>
   </g>
   <g id="patch_15">
    <path d="M 98.087303 254.709928 
C 100.367026 256.399635 102.702422 258.012906 105.089604 259.547054 
C 107.476786 261.081203 109.914427 262.535378 112.39847 263.907157 
L 174.147694 152.090581 
z
" style="fill: #7f7f7f"/>
   </g>
   <g id="patch_16">
    <path d="M 112.479033 263.949666 
C 116.38306 266.105613 120.39732 268.055621 124.505318 269.791675 
C 128.613315 271.52773 132.809416 273.04745 137.076377 274.344592 
L 174.228257 152.133089 
z
" style="fill: #f7b6d2"/>
   </g>
   <g id="patch_17">
    <path d="M 137.253172 274.385704 
C 146.960022 277.336553 156.983961 279.120448 167.11288 279.699641 
C 177.241798 280.278833 187.403747 279.64921 197.383697 277.824093 
L 174.405052 152.174201 
z
" style="fill: #c7c7c7"/>
   </g>
   <g id="patch_18">
    <path d="M 197.597699 277.792284 
C 204.779192 276.478944 211.834887 274.552334 218.687245 272.033626 
C 225.539603 269.514918 232.163429 266.413372 238.485931 262.763074 
L 174.619053 152.142392 
z
" style="fill: #dbdb8d"/>
   </g>
   <g id="patch_19">
    <path d="M 238.704541 262.61206 
C 251.019131 255.502229 262.060498 246.385707 271.372398 235.639203 
C 280.684297 224.892698 288.136676 212.6663 293.42159 199.465221 
L 174.837664 151.991378 
z
" style="fill: #bcbd22"/>
   </g>
   <g id="patch_20">
    <path d="M 293.525537 199.281154 
C 294.580185 196.646773 295.546754 193.977978 296.423636 191.279214 
C 297.300517 188.58045 298.087224 185.853215 298.782447 183.102049 
L 174.941611 151.807312 
z
" style="fill: #17becf"/>
   </g>
   <g id="patch_21">
    <path d="M 298.804426 183.003283 
C 300.095847 177.892818 301.069695 172.707311 301.720382 167.476515 
C 302.371069 162.245719 302.697349 156.979657 302.697349 151.708545 
L 174.963589 151.708545 
z
" style="fill: #9edae5"/>
   </g>
   <g id="patch_22">
    <path d="M 248.946796 151.642845 
C 248.946796 141.917778 247.042852 132.286123 243.342625 123.2925 
C 239.642397 114.298878 234.216968 106.116061 227.373117 99.206745 
L 174.435436 151.642845 
z
" style="fill: #ffffff"/>
   </g>
   <g id="patch_23">
    <path d="M 227.373117 99.206745 
C 225.209268 97.022198 222.91227 94.973685 220.495302 93.07296 
C 218.078334 91.172235 215.546028 89.422941 212.912913 87.835114 
L 174.435436 151.642845 
z
" style="fill: #ffffff"/>
   </g>
   <g id="patch_24">
    <path d="M 212.912913 87.835114 
C 211.495402 86.980324 210.049802 86.173007 208.578517 85.414507 
C 207.107232 84.656007 205.61108 83.946745 204.092552 83.287902 
L 174.435436 151.642845 
z
" style="fill: #ffffff"/>
   </g>
   <g id="patch_25">
    <path d="M 204.092552 83.287902 
C 203.224876 82.911444 202.35011 82.551541 201.468731 82.208389 
C 200.587352 81.865237 199.699519 81.538898 198.805714 81.229549 
L 174.435436 151.642845 
z
" style="fill: #ffffff"/>
   </g>
   <g id="patch_26">
    <path d="M 198.805714 81.229549 
C 196.123653 80.301279 193.390745 79.527007 190.620352 78.910519 
C 187.849958 78.294032 185.046603 77.836335 182.223994 77.539666 
L 174.435436 151.642845 
z
" style="fill: #ffffff"/>
   </g>
   <g id="patch_27">
    <path d="M 182.223994 77.539666 
C 176.102209 76.896241 169.924215 77.013884 163.831364 77.889903 
C 157.738513 78.765923 151.777627 80.393587 146.085092 82.735656 
L 174.435436 151.642845 
z
" style="fill: #ffffff"/>
   </g>
   <g id="patch_28">
    <path d="M 146.085092 82.735656 
C 144.773013 83.275482 143.47662 83.852673 142.197499 84.466524 
C 140.918378 85.080374 139.65705 85.730634 138.415059 86.416507 
L 174.435436 151.642845 
z
" style="fill: #ffffff"/>
   </g>
   <g id="patch_29">
    <path d="M 138.415059 86.416507 
C 135.101708 88.246261 131.93259 90.325824 128.935233 92.637131 
C 125.937876 94.948439 123.120985 97.484779 120.509029 100.224118 
L 174.435436 151.642845 
z
" style="fill: #ffffff"/>
   </g>
   <g id="patch_30">
    <path d="M 120.509029 100.224118 
C 119.693149 101.079789 118.89775 101.954758 118.123508 102.84828 
C 117.349266 103.741803 116.596401 104.653627 115.865551 105.582977 
L 174.435436 151.642845 
z
" style="fill: #ffffff"/>
   </g>
   <g id="patch_31">
    <path d="M 115.865551 105.582977 
C 108.819352 114.542949 103.922248 125.001464 101.552328 136.15106 
C 99.182408 147.300656 99.402272 158.846816 102.194947 169.898105 
L 174.435436 151.642845 
z
" style="fill: #ffffff"/>
   </g>
   <g id="patch_32">
    <path d="M 102.194947 169.898105 
C 102.716395 171.961604 103.326018 174.001814 104.022138 176.013121 
C 104.718258 178.024427 105.500236 180.004984 106.36592 181.949342 
L 174.435436 151.642845 
z
" style="fill: #ffffff"/>
   </g>
   <g id="patch_33">
    <path d="M 106.36592 181.949342 
C 107.231604 183.893701 108.180199 185.800075 109.209096 187.66322 
C 110.237993 189.526364 111.346246 191.344569 112.530807 193.112832 
L 174.435436 151.642845 
z
" style="fill: #ffffff"/>
   </g>
   <g id="patch_34">
    <path d="M 112.530807 193.112832 
C 114.901016 196.650978 117.5702 199.979416 120.509026 203.061568 
C 123.447852 206.143721 126.645515 208.968255 130.066874 211.504131 
L 174.435436 151.642845 
z
" style="fill: #ffffff"/>
   </g>
   <g id="patch_35">
    <path d="M 130.066874 211.504131 
C 131.396713 212.489794 132.759027 213.430868 134.15155 214.325788 
C 135.544073 215.220708 136.96603 216.068977 138.415055 216.869182 
L 174.435436 151.642845 
z
" style="fill: #ffffff"/>
   </g>
   <g id="patch_36">
    <path d="M 138.415055 216.869182 
C 140.692404 218.126818 143.034056 219.264322 145.430388 220.27702 
C 147.82672 221.289719 150.274445 222.176222 152.763506 222.932888 
L 174.435436 151.642845 
z
" style="fill: #ffffff"/>
   </g>
   <g id="patch_37">
    <path d="M 152.763506 222.932888 
C 158.425835 224.654217 164.273133 225.694822 170.181669 226.032685 
C 176.090205 226.370547 182.018008 226.003267 187.839646 224.938615 
L 174.435436 151.642845 
z
" style="fill: #ffffff"/>
   </g>
   <g id="patch_38">
    <path d="M 187.839646 224.938615 
C 192.02885 224.172501 196.144672 223.048645 200.141881 221.579398 
C 204.13909 220.110152 208.002988 218.300917 211.691114 216.171577 
L 174.435436 151.642845 
z
" style="fill: #ffffff"/>
   </g>
   <g id="patch_39">
    <path d="M 211.691114 216.171577 
C 218.874625 212.024175 225.315423 206.706204 230.747364 200.43741 
C 236.179305 194.168616 240.526526 187.03655 243.609393 179.33592 
L 174.435436 151.642845 
z
" style="fill: #ffffff"/>
   </g>
   <g id="patch_40">
    <path d="M 243.609393 179.33592 
C 244.224604 177.799198 244.788436 176.242401 245.29995 174.668122 
C 245.811464 173.093843 246.270377 171.502956 246.675924 169.898109 
L 174.435436 151.642845 
z
" style="fill: #ffffff"/>
   </g>
   <g id="patch_41">
    <path d="M 246.675924 169.898109 
C 247.429253 166.917004 247.997331 163.892125 248.376898 160.840827 
C 248.756466 157.78953 248.946796 154.717661 248.946796 151.642845 
L 174.435436 151.642845 
z
" style="fill: #ffffff"/>
   </g>
   <g id="matplotlib.axis_1"/>
   <g id="matplotlib.axis_2"/>
   <g id="text_1">
    <!-- A [41] -->
    <g transform="translate(304.866901 100.739068) scale(0.1 -0.1)">
     <defs>
      <path id="DejaVuSans-41" d="M 2188 4044 
L 1331 1722 
L 3047 1722 
L 2188 4044 
z
M 1831 4666 
L 2547 4666 
L 4325 0 
L 3669 0 
L 3244 1197 
L 1141 1197 
L 716 0 
L 50 0 
L 1831 4666 
z
" transform="scale(0.015625)"/>
      <path id="DejaVuSans-20" transform="scale(0.015625)"/>
      <path id="DejaVuSans-5b" d="M 550 4863 
L 1875 4863 
L 1875 4416 
L 1125 4416 
L 1125 -397 
L 1875 -397 
L 1875 -844 
L 550 -844 
L 550 4863 
z
" transform="scale(0.015625)"/>
      <path id="DejaVuSans-34" d="M 2419 4116 
L 825 1625 
L 2419 1625 
L 2419 4116 
z
M 2253 4666 
L 3047 4666 
L 3047 1625 
L 3713 1625 
L 3713 1100 
L 3047 1100 
L 3047 0 
L 2419 0 
L 2419 1100 
L 313 1100 
L 313 1709 
L 2253 4666 
z
" transform="scale(0.015625)"/>
      <path id="DejaVuSans-31" d="M 794 531 
L 1825 531 
L 1825 4091 
L 703 3866 
L 703 4441 
L 1819 4666 
L 2450 4666 
L 2450 531 
L 3481 531 
L 3481 0 
L 794 0 
L 794 531 
z
" transform="scale(0.015625)"/>
      <path id="DejaVuSans-5d" d="M 1947 4863 
L 1947 -844 
L 622 -844 
L 622 -397 
L 1369 -397 
L 1369 4416 
L 622 4416 
L 622 4863 
L 1947 4863 
z
" transform="scale(0.015625)"/>
     </defs>
     <use xlink:href="#DejaVuSans-41"/>
     <use xlink:href="#DejaVuSans-20" x="68.408203"/>
     <use xlink:href="#DejaVuSans-5b" x="100.195312"/>
     <use xlink:href="#DejaVuSans-34" x="139.208984"/>
     <use xlink:href="#DejaVuSans-31" x="202.832031"/>
     <use xlink:href="#DejaVuSans-5d" x="266.455078"/>
    </g>
   </g>
   <g id="text_2">
    <!-- C [13] -->
    <g transform="translate(261.620183 43.537795) scale(0.1 -0.1)">
     <defs>
      <path id="DejaVuSans-43" d="M 4122 4306 
L 4122 3641 
Q 3803 3938 3442 4084 
Q 3081 4231 2675 4231 
Q 1875 4231 1450 3742 
Q 1025 3253 1025 2328 
Q 1025 1406 1450 917 
Q 1875 428 2675 428 
Q 3081 428 3442 575 
Q 3803 722 4122 1019 
L 4122 359 
Q 3791 134 3420 21 
Q 3050 -91 2638 -91 
Q 1578 -91 968 557 
Q 359 1206 359 2328 
Q 359 3453 968 4101 
Q 1578 4750 2638 4750 
Q 3056 4750 3426 4639 
Q 3797 4528 4122 4306 
z
" transform="scale(0.015625)"/>
      <path id="DejaVuSans-33" d="M 2597 2516 
Q 3050 2419 3304 2112 
Q 3559 1806 3559 1356 
Q 3559 666 3084 287 
Q 2609 -91 1734 -91 
Q 1441 -91 1130 -33 
Q 819 25 488 141 
L 488 750 
Q 750 597 1062 519 
Q 1375 441 1716 441 
Q 2309 441 2620 675 
Q 2931 909 2931 1356 
Q 2931 1769 2642 2001 
Q 2353 2234 1838 2234 
L 1294 2234 
L 1294 2753 
L 1863 2753 
Q 2328 2753 2575 2939 
Q 2822 3125 2822 3475 
Q 2822 3834 2567 4026 
Q 2313 4219 1838 4219 
Q 1578 4219 1281 4162 
Q 984 4106 628 3988 
L 628 4550 
Q 988 4650 1302 4700 
Q 1616 4750 1894 4750 
Q 2613 4750 3031 4423 
Q 3450 4097 3450 3541 
Q 3450 3153 3228 2886 
Q 3006 2619 2597 2516 
z
" transform="scale(0.015625)"/>
     </defs>
     <use xlink:href="#DejaVuSans-43"/>
     <use xlink:href="#DejaVuSans-20" x="69.824219"/>
     <use xlink:href="#DejaVuSans-5b" x="101.611328"/>
     <use xlink:href="#DejaVuSans-31" x="140.625"/>
     <use xlink:href="#DejaVuSans-33" x="204.248047"/>
     <use xlink:href="#DejaVuSans-5d" x="267.871094"/>
    </g>
   </g>
   <g id="text_3">
    <!-- D [7] -->
    <g transform="translate(239.063411 29.041437) scale(0.1 -0.1)">
     <defs>
      <path id="DejaVuSans-44" d="M 1259 4147 
L 1259 519 
L 2022 519 
Q 2988 519 3436 956 
Q 3884 1394 3884 2338 
Q 3884 3275 3436 3711 
Q 2988 4147 2022 4147 
L 1259 4147 
z
M 628 4666 
L 1925 4666 
Q 3281 4666 3915 4102 
Q 4550 3538 4550 2338 
Q 4550 1131 3912 565 
Q 3275 0 1925 0 
L 628 0 
L 628 4666 
z
" transform="scale(0.015625)"/>
      <path id="DejaVuSans-37" d="M 525 4666 
L 3525 4666 
L 3525 4397 
L 1831 0 
L 1172 0 
L 2766 4134 
L 525 4134 
L 525 4666 
z
" transform="scale(0.015625)"/>
     </defs>
     <use xlink:href="#DejaVuSans-44"/>
     <use xlink:href="#DejaVuSans-20" x="77.001953"/>
     <use xlink:href="#DejaVuSans-5b" x="108.789062"/>
     <use xlink:href="#DejaVuSans-37" x="147.802734"/>
     <use xlink:href="#DejaVuSans-5d" x="211.425781"/>
    </g>
   </g>
   <g id="text_4">
    <!-- E [4] -->
    <g transform="translate(225.605602 22.972714) scale(0.1 -0.1)">
     <defs>
      <path id="DejaVuSans-45" d="M 628 4666 
L 3578 4666 
L 3578 4134 
L 1259 4134 
L 1259 2753 
L 3481 2753 
L 3481 2222 
L 1259 2222 
L 1259 531 
L 3634 531 
L 3634 0 
L 628 0 
L 628 4666 
z
" transform="scale(0.015625)"/>
     </defs>
     <use xlink:href="#DejaVuSans-45"/>
     <use xlink:href="#DejaVuSans-20" x="63.183594"/>
     <use xlink:href="#DejaVuSans-5b" x="94.970703"/>
     <use xlink:href="#DejaVuSans-34" x="133.984375"/>
     <use xlink:href="#DejaVuSans-5d" x="197.607422"/>
    </g>
   </g>
   <g id="text_5">
    <!-- F [12] -->
    <g transform="translate(205.07117 16.730317) scale(0.1 -0.1)">
     <defs>
      <path id="DejaVuSans-46" d="M 628 4666 
L 3309 4666 
L 3309 4134 
L 1259 4134 
L 1259 2759 
L 3109 2759 
L 3109 2228 
L 1259 2228 
L 1259 0 
L 628 0 
L 628 4666 
z
" transform="scale(0.015625)"/>
      <path id="DejaVuSans-32" d="M 1228 531 
L 3431 531 
L 3431 0 
L 469 0 
L 469 531 
Q 828 903 1448 1529 
Q 2069 2156 2228 2338 
Q 2531 2678 2651 2914 
Q 2772 3150 2772 3378 
Q 2772 3750 2511 3984 
Q 2250 4219 1831 4219 
Q 1534 4219 1204 4116 
Q 875 4013 500 3803 
L 500 4441 
Q 881 4594 1212 4672 
Q 1544 4750 1819 4750 
Q 2544 4750 2975 4387 
Q 3406 4025 3406 3419 
Q 3406 3131 3298 2873 
Q 3191 2616 2906 2266 
Q 2828 2175 2409 1742 
Q 1991 1309 1228 531 
z
" transform="scale(0.015625)"/>
     </defs>
     <use xlink:href="#DejaVuSans-46"/>
     <use xlink:href="#DejaVuSans-20" x="57.519531"/>
     <use xlink:href="#DejaVuSans-5b" x="89.306641"/>
     <use xlink:href="#DejaVuSans-31" x="128.320312"/>
     <use xlink:href="#DejaVuSans-32" x="191.943359"/>
     <use xlink:href="#DejaVuSans-5d" x="255.566406"/>
    </g>
   </g>
   <g id="text_6">
    <!-- G [26] -->
    <g transform="translate(122.908755 14.798437) scale(0.1 -0.1)">
     <defs>
      <path id="DejaVuSans-47" d="M 3809 666 
L 3809 1919 
L 2778 1919 
L 2778 2438 
L 4434 2438 
L 4434 434 
Q 4069 175 3628 42 
Q 3188 -91 2688 -91 
Q 1594 -91 976 548 
Q 359 1188 359 2328 
Q 359 3472 976 4111 
Q 1594 4750 2688 4750 
Q 3144 4750 3555 4637 
Q 3966 4525 4313 4306 
L 4313 3634 
Q 3963 3931 3569 4081 
Q 3175 4231 2741 4231 
Q 1884 4231 1454 3753 
Q 1025 3275 1025 2328 
Q 1025 1384 1454 906 
Q 1884 428 2741 428 
Q 3075 428 3337 486 
Q 3600 544 3809 666 
z
" transform="scale(0.015625)"/>
      <path id="DejaVuSans-36" d="M 2113 2584 
Q 1688 2584 1439 2293 
Q 1191 2003 1191 1497 
Q 1191 994 1439 701 
Q 1688 409 2113 409 
Q 2538 409 2786 701 
Q 3034 994 3034 1497 
Q 3034 2003 2786 2293 
Q 2538 2584 2113 2584 
z
M 3366 4563 
L 3366 3988 
Q 3128 4100 2886 4159 
Q 2644 4219 2406 4219 
Q 1781 4219 1451 3797 
Q 1122 3375 1075 2522 
Q 1259 2794 1537 2939 
Q 1816 3084 2150 3084 
Q 2853 3084 3261 2657 
Q 3669 2231 3669 1497 
Q 3669 778 3244 343 
Q 2819 -91 2113 -91 
Q 1303 -91 875 529 
Q 447 1150 447 2328 
Q 447 3434 972 4092 
Q 1497 4750 2381 4750 
Q 2619 4750 2861 4703 
Q 3103 4656 3366 4563 
z
" transform="scale(0.015625)"/>
     </defs>
     <use xlink:href="#DejaVuSans-47"/>
     <use xlink:href="#DejaVuSans-20" x="77.490234"/>
     <use xlink:href="#DejaVuSans-5b" x="109.277344"/>
     <use xlink:href="#DejaVuSans-32" x="148.291016"/>
     <use xlink:href="#DejaVuSans-36" x="211.914062"/>
     <use xlink:href="#DejaVuSans-5d" x="275.537109"/>
    </g>
   </g>
   <g id="text_7">
    <!-- H [6] -->
    <g transform="translate(88.549564 27.24704) scale(0.1 -0.1)">
     <defs>
      <path id="DejaVuSans-48" d="M 628 4666 
L 1259 4666 
L 1259 2753 
L 3553 2753 
L 3553 4666 
L 4184 4666 
L 4184 0 
L 3553 0 
L 3553 2222 
L 1259 2222 
L 1259 0 
L 628 0 
L 628 4666 
z
" transform="scale(0.015625)"/>
     </defs>
     <use xlink:href="#DejaVuSans-48"/>
     <use xlink:href="#DejaVuSans-20" x="75.195312"/>
     <use xlink:href="#DejaVuSans-5b" x="106.982422"/>
     <use xlink:href="#DejaVuSans-36" x="145.996094"/>
     <use xlink:href="#DejaVuSans-5d" x="209.619141"/>
    </g>
   </g>
   <g id="text_8">
    <!-- I [16] -->
    <g transform="translate(61.653801 42.712833) scale(0.1 -0.1)">
     <defs>
      <path id="DejaVuSans-49" d="M 628 4666 
L 1259 4666 
L 1259 0 
L 628 0 
L 628 4666 
z
" transform="scale(0.015625)"/>
     </defs>
     <use xlink:href="#DejaVuSans-49"/>
     <use xlink:href="#DejaVuSans-20" x="29.492188"/>
     <use xlink:href="#DejaVuSans-5b" x="61.279297"/>
     <use xlink:href="#DejaVuSans-31" x="100.292969"/>
     <use xlink:href="#DejaVuSans-36" x="163.916016"/>
     <use xlink:href="#DejaVuSans-5d" x="227.539062"/>
    </g>
   </g>
   <g id="text_9">
    <!-- K [5] -->
    <g transform="translate(43.943439 62.041079) scale(0.1 -0.1)">
     <defs>
      <path id="DejaVuSans-4b" d="M 628 4666 
L 1259 4666 
L 1259 2694 
L 3353 4666 
L 4166 4666 
L 1850 2491 
L 4331 0 
L 3500 0 
L 1259 2247 
L 1259 0 
L 628 0 
L 628 4666 
z
" transform="scale(0.015625)"/>
      <path id="DejaVuSans-35" d="M 691 4666 
L 3169 4666 
L 3169 4134 
L 1269 4134 
L 1269 2991 
Q 1406 3038 1543 3061 
Q 1681 3084 1819 3084 
Q 2600 3084 3056 2656 
Q 3513 2228 3513 1497 
Q 3513 744 3044 326 
Q 2575 -91 1722 -91 
Q 1428 -91 1123 -41 
Q 819 9 494 109 
L 494 744 
Q 775 591 1075 516 
Q 1375 441 1709 441 
Q 2250 441 2565 725 
Q 2881 1009 2881 1497 
Q 2881 1984 2565 2268 
Q 2250 2553 1709 2553 
Q 1456 2553 1204 2497 
Q 953 2441 691 2322 
L 691 4666 
z
" transform="scale(0.015625)"/>
     </defs>
     <use xlink:href="#DejaVuSans-4b"/>
     <use xlink:href="#DejaVuSans-20" x="65.576172"/>
     <use xlink:href="#DejaVuSans-5b" x="97.363281"/>
     <use xlink:href="#DejaVuSans-35" x="136.376953"/>
     <use xlink:href="#DejaVuSans-5d" x="200"/>
    </g>
   </g>
   <g id="text_10">
    <!-- L [48] -->
    <g transform="translate(7.2 125.078484) scale(0.1 -0.1)">
     <defs>
      <path id="DejaVuSans-4c" d="M 628 4666 
L 1259 4666 
L 1259 531 
L 3531 531 
L 3531 0 
L 628 0 
L 628 4666 
z
" transform="scale(0.015625)"/>
      <path id="DejaVuSans-38" d="M 2034 2216 
Q 1584 2216 1326 1975 
Q 1069 1734 1069 1313 
Q 1069 891 1326 650 
Q 1584 409 2034 409 
Q 2484 409 2743 651 
Q 3003 894 3003 1313 
Q 3003 1734 2745 1975 
Q 2488 2216 2034 2216 
z
M 1403 2484 
Q 997 2584 770 2862 
Q 544 3141 544 3541 
Q 544 4100 942 4425 
Q 1341 4750 2034 4750 
Q 2731 4750 3128 4425 
Q 3525 4100 3525 3541 
Q 3525 3141 3298 2862 
Q 3072 2584 2669 2484 
Q 3125 2378 3379 2068 
Q 3634 1759 3634 1313 
Q 3634 634 3220 271 
Q 2806 -91 2034 -91 
Q 1263 -91 848 271 
Q 434 634 434 1313 
Q 434 1759 690 2068 
Q 947 2378 1403 2484 
z
M 1172 3481 
Q 1172 3119 1398 2916 
Q 1625 2713 2034 2713 
Q 2441 2713 2670 2916 
Q 2900 3119 2900 3481 
Q 2900 3844 2670 4047 
Q 2441 4250 2034 4250 
Q 1625 4250 1398 4047 
Q 1172 3844 1172 3481 
z
" transform="scale(0.015625)"/>
     </defs>
     <use xlink:href="#DejaVuSans-4c"/>
     <use xlink:href="#DejaVuSans-20" x="55.712891"/>
     <use xlink:href="#DejaVuSans-5b" x="87.5"/>
     <use xlink:href="#DejaVuSans-34" x="126.513672"/>
     <use xlink:href="#DejaVuSans-38" x="190.136719"/>
     <use xlink:href="#DejaVuSans-5d" x="253.759766"/>
    </g>
   </g>
   <g id="text_11">
    <!-- M [9] -->
    <g transform="translate(15.181248 200.53167) scale(0.1 -0.1)">
     <defs>
      <path id="DejaVuSans-4d" d="M 628 4666 
L 1569 4666 
L 2759 1491 
L 3956 4666 
L 4897 4666 
L 4897 0 
L 4281 0 
L 4281 4097 
L 3078 897 
L 2444 897 
L 1241 4097 
L 1241 0 
L 628 0 
L 628 4666 
z
" transform="scale(0.015625)"/>
      <path id="DejaVuSans-39" d="M 703 97 
L 703 672 
Q 941 559 1184 500 
Q 1428 441 1663 441 
Q 2288 441 2617 861 
Q 2947 1281 2994 2138 
Q 2813 1869 2534 1725 
Q 2256 1581 1919 1581 
Q 1219 1581 811 2004 
Q 403 2428 403 3163 
Q 403 3881 828 4315 
Q 1253 4750 1959 4750 
Q 2769 4750 3195 4129 
Q 3622 3509 3622 2328 
Q 3622 1225 3098 567 
Q 2575 -91 1691 -91 
Q 1453 -91 1209 -44 
Q 966 3 703 97 
z
M 1959 2075 
Q 2384 2075 2632 2365 
Q 2881 2656 2881 3163 
Q 2881 3666 2632 3958 
Q 2384 4250 1959 4250 
Q 1534 4250 1286 3958 
Q 1038 3666 1038 3163 
Q 1038 2656 1286 2365 
Q 1534 2075 1959 2075 
z
" transform="scale(0.015625)"/>
     </defs>
     <use xlink:href="#DejaVuSans-4d"/>
     <use xlink:href="#DejaVuSans-20" x="86.279297"/>
     <use xlink:href="#DejaVuSans-5b" x="118.066406"/>
     <use xlink:href="#DejaVuSans-39" x="157.080078"/>
     <use xlink:href="#DejaVuSans-5d" x="220.703125"/>
    </g>
   </g>
   <g id="text_12">
    <!-- N [9] -->
    <g transform="translate(26.146292 222.583643) scale(0.1 -0.1)">
     <defs>
      <path id="DejaVuSans-4e" d="M 628 4666 
L 1478 4666 
L 3547 763 
L 3547 4666 
L 4159 4666 
L 4159 0 
L 3309 0 
L 1241 3903 
L 1241 0 
L 628 0 
L 628 4666 
z
" transform="scale(0.015625)"/>
     </defs>
     <use xlink:href="#DejaVuSans-4e"/>
     <use xlink:href="#DejaVuSans-20" x="74.804688"/>
     <use xlink:href="#DejaVuSans-5b" x="106.591797"/>
     <use xlink:href="#DejaVuSans-39" x="145.605469"/>
     <use xlink:href="#DejaVuSans-5d" x="209.228516"/>
    </g>
   </g>
   <g id="text_13">
    <!-- P [18] -->
    <g transform="translate(42.624508 251.730518) scale(0.1 -0.1)">
     <defs>
      <path id="DejaVuSans-50" d="M 1259 4147 
L 1259 2394 
L 2053 2394 
Q 2494 2394 2734 2622 
Q 2975 2850 2975 3272 
Q 2975 3691 2734 3919 
Q 2494 4147 2053 4147 
L 1259 4147 
z
M 628 4666 
L 2053 4666 
Q 2838 4666 3239 4311 
Q 3641 3956 3641 3272 
Q 3641 2581 3239 2228 
Q 2838 1875 2053 1875 
L 1259 1875 
L 1259 0 
L 628 0 
L 628 4666 
z
" transform="scale(0.015625)"/>
     </defs>
     <use xlink:href="#DejaVuSans-50"/>
     <use xlink:href="#DejaVuSans-20" x="60.302734"/>
     <use xlink:href="#DejaVuSans-5b" x="92.089844"/>
     <use xlink:href="#DejaVuSans-31" x="131.103516"/>
     <use xlink:href="#DejaVuSans-38" x="194.726562"/>
     <use xlink:href="#DejaVuSans-5d" x="258.349609"/>
    </g>
   </g>
   <g id="text_14">
    <!-- Q [7] -->
    <g transform="translate(72.96817 273.052077) scale(0.1 -0.1)">
     <defs>
      <path id="DejaVuSans-51" d="M 2522 4238 
Q 1834 4238 1429 3725 
Q 1025 3213 1025 2328 
Q 1025 1447 1429 934 
Q 1834 422 2522 422 
Q 3209 422 3611 934 
Q 4013 1447 4013 2328 
Q 4013 3213 3611 3725 
Q 3209 4238 2522 4238 
z
M 3406 84 
L 4238 -825 
L 3475 -825 
L 2784 -78 
Q 2681 -84 2626 -87 
Q 2572 -91 2522 -91 
Q 1538 -91 948 567 
Q 359 1225 359 2328 
Q 359 3434 948 4092 
Q 1538 4750 2522 4750 
Q 3503 4750 4090 4092 
Q 4678 3434 4678 2328 
Q 4678 1516 4351 937 
Q 4025 359 3406 84 
z
" transform="scale(0.015625)"/>
     </defs>
     <use xlink:href="#DejaVuSans-51"/>
     <use xlink:href="#DejaVuSans-20" x="78.710938"/>
     <use xlink:href="#DejaVuSans-5b" x="110.498047"/>
     <use xlink:href="#DejaVuSans-37" x="149.511719"/>
     <use xlink:href="#DejaVuSans-5d" x="213.134766"/>
    </g>
   </g>
   <g id="text_15">
    <!-- R [11] -->
    <g transform="translate(88.878336 284.316909) scale(0.1 -0.1)">
     <defs>
      <path id="DejaVuSans-52" d="M 2841 2188 
Q 3044 2119 3236 1894 
Q 3428 1669 3622 1275 
L 4263 0 
L 3584 0 
L 2988 1197 
Q 2756 1666 2539 1819 
Q 2322 1972 1947 1972 
L 1259 1972 
L 1259 0 
L 628 0 
L 628 4666 
L 2053 4666 
Q 2853 4666 3247 4331 
Q 3641 3997 3641 3322 
Q 3641 2881 3436 2590 
Q 3231 2300 2841 2188 
z
M 1259 4147 
L 1259 2491 
L 2053 2491 
Q 2509 2491 2742 2702 
Q 2975 2913 2975 3322 
Q 2975 3731 2742 3939 
Q 2509 4147 2053 4147 
L 1259 4147 
z
" transform="scale(0.015625)"/>
     </defs>
     <use xlink:href="#DejaVuSans-52"/>
     <use xlink:href="#DejaVuSans-20" x="69.482422"/>
     <use xlink:href="#DejaVuSans-5b" x="101.269531"/>
     <use xlink:href="#DejaVuSans-31" x="140.283203"/>
     <use xlink:href="#DejaVuSans-31" x="203.90625"/>
     <use xlink:href="#DejaVuSans-5d" x="267.529297"/>
    </g>
   </g>
   <g id="text_16">
    <!-- S [25] -->
    <g transform="translate(136.328975 295.21156) scale(0.1 -0.1)">
     <defs>
      <path id="DejaVuSans-53" d="M 3425 4513 
L 3425 3897 
Q 3066 4069 2747 4153 
Q 2428 4238 2131 4238 
Q 1616 4238 1336 4038 
Q 1056 3838 1056 3469 
Q 1056 3159 1242 3001 
Q 1428 2844 1947 2747 
L 2328 2669 
Q 3034 2534 3370 2195 
Q 3706 1856 3706 1288 
Q 3706 609 3251 259 
Q 2797 -91 1919 -91 
Q 1588 -91 1214 -16 
Q 841 59 441 206 
L 441 856 
Q 825 641 1194 531 
Q 1563 422 1919 422 
Q 2459 422 2753 634 
Q 3047 847 3047 1241 
Q 3047 1584 2836 1778 
Q 2625 1972 2144 2069 
L 1759 2144 
Q 1053 2284 737 2584 
Q 422 2884 422 3419 
Q 422 4038 858 4394 
Q 1294 4750 2059 4750 
Q 2388 4750 2728 4690 
Q 3069 4631 3425 4513 
z
" transform="scale(0.015625)"/>
     </defs>
     <use xlink:href="#DejaVuSans-53"/>
     <use xlink:href="#DejaVuSans-20" x="63.476562"/>
     <use xlink:href="#DejaVuSans-5b" x="95.263672"/>
     <use xlink:href="#DejaVuSans-32" x="134.277344"/>
     <use xlink:href="#DejaVuSans-35" x="197.900391"/>
     <use xlink:href="#DejaVuSans-5d" x="261.523438"/>
    </g>
   </g>
   <g id="text_17">
    <!-- T [18] -->
    <g transform="translate(223.094064 286.782124) scale(0.1 -0.1)">
     <defs>
      <path id="DejaVuSans-54" d="M -19 4666 
L 3928 4666 
L 3928 4134 
L 2272 4134 
L 2272 0 
L 1638 0 
L 1638 4134 
L -19 4134 
L -19 4666 
z
" transform="scale(0.015625)"/>
     </defs>
     <use xlink:href="#DejaVuSans-54"/>
     <use xlink:href="#DejaVuSans-20" x="61.083984"/>
     <use xlink:href="#DejaVuSans-5b" x="92.871094"/>
     <use xlink:href="#DejaVuSans-31" x="131.884766"/>
     <use xlink:href="#DejaVuSans-38" x="195.507812"/>
     <use xlink:href="#DejaVuSans-5d" x="259.130859"/>
    </g>
   </g>
   <g id="text_18">
    <!-- V [35] -->
    <g transform="translate(281.025871 246.76336) scale(0.1 -0.1)">
     <defs>
      <path id="DejaVuSans-56" d="M 1831 0 
L 50 4666 
L 709 4666 
L 2188 738 
L 3669 4666 
L 4325 4666 
L 2547 0 
L 1831 0 
z
" transform="scale(0.015625)"/>
     </defs>
     <use xlink:href="#DejaVuSans-56"/>
     <use xlink:href="#DejaVuSans-20" x="68.408203"/>
     <use xlink:href="#DejaVuSans-5b" x="100.195312"/>
     <use xlink:href="#DejaVuSans-33" x="139.208984"/>
     <use xlink:href="#DejaVuSans-35" x="202.832031"/>
     <use xlink:href="#DejaVuSans-5d" x="266.455078"/>
    </g>
   </g>
   <g id="text_19">
    <!-- W [7] -->
    <g transform="translate(308.571838 197.985779) scale(0.1 -0.1)">
     <defs>
      <path id="DejaVuSans-57" d="M 213 4666 
L 850 4666 
L 1831 722 
L 2809 4666 
L 3519 4666 
L 4500 722 
L 5478 4666 
L 6119 4666 
L 4947 0 
L 4153 0 
L 3169 4050 
L 2175 0 
L 1381 0 
L 213 4666 
z
" transform="scale(0.015625)"/>
     </defs>
     <use xlink:href="#DejaVuSans-57"/>
     <use xlink:href="#DejaVuSans-20" x="98.876953"/>
     <use xlink:href="#DejaVuSans-5b" x="130.664062"/>
     <use xlink:href="#DejaVuSans-37" x="169.677734"/>
     <use xlink:href="#DejaVuSans-5d" x="233.300781"/>
    </g>
   </g>
   <g id="text_20">
    <!-- Y [13] -->
    <g transform="translate(314.396061 171.812687) scale(0.1 -0.1)">
     <defs>
      <path id="DejaVuSans-59" d="M -13 4666 
L 666 4666 
L 1959 2747 
L 3244 4666 
L 3922 4666 
L 2272 2222 
L 2272 0 
L 1638 0 
L 1638 2222 
L -13 4666 
z
" transform="scale(0.015625)"/>
     </defs>
     <use xlink:href="#DejaVuSans-59"/>
     <use xlink:href="#DejaVuSans-20" x="61.083984"/>
     <use xlink:href="#DejaVuSans-5b" x="92.871094"/>
     <use xlink:href="#DejaVuSans-31" x="131.884766"/>
     <use xlink:href="#DejaVuSans-33" x="195.507812"/>
     <use xlink:href="#DejaVuSans-5d" x="259.130859"/>
    </g>
   </g>
   <g id="text_21">
    <!-- A0A8C8X0F9 [330] -->
    <g transform="translate(117.347311 151.642845) scale(0.12 -0.12)">
     <defs>
      <path id="DejaVuSans-30" d="M 2034 4250 
Q 1547 4250 1301 3770 
Q 1056 3291 1056 2328 
Q 1056 1369 1301 889 
Q 1547 409 2034 409 
Q 2525 409 2770 889 
Q 3016 1369 3016 2328 
Q 3016 3291 2770 3770 
Q 2525 4250 2034 4250 
z
M 2034 4750 
Q 2819 4750 3233 4129 
Q 3647 3509 3647 2328 
Q 3647 1150 3233 529 
Q 2819 -91 2034 -91 
Q 1250 -91 836 529 
Q 422 1150 422 2328 
Q 422 3509 836 4129 
Q 1250 4750 2034 4750 
z
" transform="scale(0.015625)"/>
      <path id="DejaVuSans-58" d="M 403 4666 
L 1081 4666 
L 2241 2931 
L 3406 4666 
L 4084 4666 
L 2584 2425 
L 4184 0 
L 3506 0 
L 2194 1984 
L 872 0 
L 191 0 
L 1856 2491 
L 403 4666 
z
" transform="scale(0.015625)"/>
     </defs>
     <use xlink:href="#DejaVuSans-41"/>
     <use xlink:href="#DejaVuSans-30" x="68.408203"/>
     <use xlink:href="#DejaVuSans-41" x="132.03125"/>
     <use xlink:href="#DejaVuSans-38" x="200.439453"/>
     <use xlink:href="#DejaVuSans-43" x="264.0625"/>
     <use xlink:href="#DejaVuSans-38" x="333.886719"/>
     <use xlink:href="#DejaVuSans-58" x="397.509766"/>
     <use xlink:href="#DejaVuSans-30" x="466.015625"/>
     <use xlink:href="#DejaVuSans-46" x="529.638672"/>
     <use xlink:href="#DejaVuSans-39" x="587.158203"/>
     <use xlink:href="#DejaVuSans-20" x="650.78125"/>
     <use xlink:href="#DejaVuSans-5b" x="682.568359"/>
     <use xlink:href="#DejaVuSans-33" x="721.582031"/>
     <use xlink:href="#DejaVuSans-33" x="785.205078"/>
     <use xlink:href="#DejaVuSans-30" x="848.828125"/>
     <use xlink:href="#DejaVuSans-5d" x="912.451172"/>
    </g>
   </g>
  </g>
 </g>
</svg>
