<?xml version="1.0" encoding="utf-8" standalone="no"?>
<!DOCTYPE svg PUBLIC "-//W3C//DTD SVG 1.1//EN"
  "http://www.w3.org/Graphics/SVG/1.1/DTD/svg11.dtd">
<svg xmlns:xlink="http://www.w3.org/1999/xlink" width="353.363913pt" height="304.858811pt" viewBox="0 0 353.363913 304.858811" xmlns="http://www.w3.org/2000/svg" version="1.1">
 <metadata>
  <rdf:RDF xmlns:dc="http://purl.org/dc/elements/1.1/" xmlns:cc="http://creativecommons.org/ns#" xmlns:rdf="http://www.w3.org/1999/02/22-rdf-syntax-ns#">
   <cc:Work>
    <dc:type rdf:resource="http://purl.org/dc/dcmitype/StillImage"/>
    <dc:date>2024-09-27T16:07:25.861071</dc:date>
    <dc:format>image/svg+xml</dc:format>
    <dc:creator>
     <cc:Agent>
      <dc:title>Matplotlib v3.8.3, https://matplotlib.org/</dc:title>
     </cc:Agent>
    </dc:creator>
   </cc:Work>
  </rdf:RDF>
 </metadata>
 <defs>
  <style type="text/css">*{stroke-linejoin: round; stroke-linecap: butt}</style>
 </defs>
 <g id="figure_1">
  <g id="patch_1">
   <path d="M -0 304.858811 
L 353.363913 304.858811 
L 353.363913 0 
L -0 0 
z
" style="fill: #ffffff"/>
  </g>
  <g id="axes_1">
   <g id="patch_2">
    <path d="M 305.367536 152.51927 
C 305.367536 144.430882 304.599274 136.360748 303.073105 128.417648 
C 301.546937 120.474549 299.26975 112.694336 296.272241 105.181883 
L 177.633776 152.51927 
z
" style="fill: #1f77b4"/>
   </g>
   <g id="patch_3">
    <path d="M 296.225273 105.043612 
C 294.8772 101.665028 293.38542 98.345572 291.754011 95.094321 
C 290.122602 91.84307 288.353054 88.662991 286.450206 85.562781 
L 177.586809 152.380998 
z
" style="fill: #ff7f0e"/>
   </g>
   <g id="patch_4">
    <path d="M 286.408623 85.493567 
C 284.928719 83.082437 283.36912 80.721139 281.732407 78.41358 
C 280.095695 76.10602 278.382771 73.853473 276.596471 71.659665 
L 177.545225 152.311784 
z
" style="fill: #aec7e8"/>
   </g>
   <g id="patch_5">
    <path d="M 276.537803 71.590343 
C 273.730381 68.142466 270.744847 64.843524 267.593395 61.706992 
C 264.441943 58.570461 261.12887 55.600616 257.667708 52.809588 
L 177.486557 152.242462 
z
" style="fill: #ffbb78"/>
   </g>
   <g id="patch_6">
    <path d="M 257.519604 52.705593 
C 249.6459 46.356358 241.045834 40.964769 231.900292 36.644228 
C 222.75475 32.323687 213.128303 29.104699 203.223425 27.054968 
L 177.338453 152.138467 
z
" style="fill: #98df8a"/>
   </g>
   <g id="patch_7">
    <path d="M 203.044008 27.006132 
C 198.293947 26.023147 193.491746 25.311536 188.660745 24.874757 
C 183.829745 24.437978 178.977784 24.276741 174.128444 24.391828 
L 177.159036 152.089631 
z
" style="fill: #2ca02c"/>
   </g>
   <g id="patch_8">
    <path d="M 174.03763 24.391397 
C 171.613451 24.448929 169.191402 24.575479 166.774427 24.770893 
C 164.357453 24.966308 161.946533 25.230507 159.544599 25.563171 
L 177.068221 152.0892 
z
" style="fill: #d62728"/>
   </g>
   <g id="patch_9">
    <path d="M 159.355591 25.614617 
C 146.118907 27.447874 133.25152 31.346986 121.223661 37.169464 
C 109.195802 42.991942 98.155793 50.665984 88.507085 59.911149 
L 176.879214 152.140646 
z
" style="fill: #9467bd"/>
   </g>
   <g id="patch_10">
    <path d="M 88.310792 60.074102 
C 83.05538 65.109714 78.239978 70.585321 73.917189 76.441108 
C 69.594399 82.296895 65.78002 88.511464 62.515716 95.016929 
L 176.682922 152.303599 
z
" style="fill: #ff9896"/>
   </g>
   <g id="patch_11">
    <path d="M 62.413216 95.29265 
C 54.95901 110.148216 50.475501 126.316884 49.214697 142.889856 
C 47.953893 159.462828 49.939867 176.123668 55.060991 191.935913 
L 176.580422 152.57932 
z
" style="fill: #c5b0d5"/>
   </g>
   <g id="patch_12">
    <path d="M 55.11154 192.205908 
C 56.855377 197.590268 58.955148 202.852779 61.396966 207.95864 
C 63.838785 213.064501 66.617257 218.002432 69.714008 222.739776 
L 176.630971 152.849315 
z
" style="fill: #c49c94"/>
   </g>
   <g id="patch_13">
    <path d="M 69.784644 222.850107 
C 72.438743 226.910291 75.321968 230.815997 78.420305 234.548242 
C 81.518641 238.280486 84.827063 241.833213 88.32949 245.189155 
L 176.701607 152.959645 
z
" style="fill: #8c564b"/>
   </g>
   <g id="patch_14">
    <path d="M 88.42903 245.28185 
C 92.807729 249.477414 97.479658 253.355833 102.409355 256.887666 
C 107.339053 260.419499 112.514015 263.595788 117.894962 266.392425 
L 176.801146 153.05234 
z
" style="fill: #e377c2"/>
   </g>
   <g id="patch_15">
    <path d="M 117.991379 266.447281 
C 120.501659 267.751948 123.05459 268.972857 125.645948 270.107988 
C 128.237306 271.24312 130.865661 272.291847 133.526663 273.252435 
L 176.897564 153.107196 
z
" style="fill: #7f7f7f"/>
   </g>
   <g id="patch_16">
    <path d="M 133.622484 273.283972 
C 138.565457 275.068322 143.613838 276.54593 148.738838 277.708368 
C 153.863838 278.870807 159.055693 279.715862 164.284796 280.238714 
L 176.993385 153.138733 
z
" style="fill: #f7b6d2"/>
   </g>
   <g id="patch_17">
    <path d="M 164.460499 280.248731 
C 173.314973 281.13408 182.237774 281.091735 191.083446 280.122385 
C 199.929117 279.153036 208.649328 277.261978 217.101924 274.480041 
L 177.169089 153.14875 
z
" style="fill: #c7c7c7"/>
   </g>
   <g id="patch_18">
    <path d="M 217.320201 274.405897 
C 226.5428 271.370534 235.389318 267.293505 243.688221 262.253863 
C 251.987123 257.214221 259.684425 251.244751 266.630877 244.461198 
L 177.387366 153.074606 
z
" style="fill: #dbdb8d"/>
   </g>
   <g id="patch_19">
    <path d="M 266.79164 244.31006 
C 272.578443 238.658961 277.815427 232.470965 282.431999 225.829483 
C 287.048571 219.188002 291.023895 212.123011 294.304384 204.729743 
L 177.548128 152.923468 
z
" style="fill: #bcbd22"/>
   </g>
   <g id="patch_20">
    <path d="M 294.363545 204.618507 
C 295.183091 202.771489 295.958693 200.905283 296.689697 199.021467 
C 297.420701 197.13765 298.106901 195.236753 298.747717 193.320379 
L 177.607289 152.812231 
z
" style="fill: #17becf"/>
   </g>
   <g id="patch_21">
    <path d="M 298.776852 193.213344 
C 300.956705 186.694448 302.606807 180.01022 303.711076 173.225801 
C 304.815346 166.441382 305.370184 159.578883 305.370183 152.705183 
L 177.636423 152.705195 
z
" style="fill: #9edae5"/>
   </g>
   <g id="patch_22">
    <path d="M 251.622472 152.619693 
C 251.622472 147.901467 251.174319 143.193888 250.284054 138.560414 
C 249.393789 133.926939 248.06543 129.388482 246.316883 125.006217 
L 177.111112 152.619693 
z
" style="fill: #ffffff"/>
   </g>
   <g id="patch_23">
    <path d="M 246.316883 125.006217 
C 245.530507 123.035377 244.660302 121.099027 243.708647 119.202464 
C 242.756992 117.305901 241.724755 115.450855 240.614761 113.6424 
L 177.111112 152.619693 
z
" style="fill: #ffffff"/>
   </g>
   <g id="patch_24">
    <path d="M 240.614761 113.6424 
C 239.751483 112.235907 238.841718 110.858484 237.886968 109.512407 
C 236.932219 108.166331 235.933014 106.852345 234.891005 105.572624 
L 177.111112 152.619693 
z
" style="fill: #ffffff"/>
   </g>
   <g id="patch_25">
    <path d="M 234.891005 105.572624 
C 233.253343 103.561362 231.511781 101.636979 229.673434 99.807336 
C 227.835087 97.977692 225.902461 96.245283 223.88345 94.617183 
L 177.111112 152.619693 
z
" style="fill: #ffffff"/>
   </g>
   <g id="patch_26">
    <path d="M 223.88345 94.617183 
C 219.290456 90.913462 214.273751 87.768369 208.938851 85.248054 
C 203.603952 82.727738 197.988525 80.849995 192.210679 79.654319 
L 177.111112 152.619693 
z
" style="fill: #ffffff"/>
   </g>
   <g id="patch_27">
    <path d="M 192.210679 79.654319 
C 189.43981 79.080911 186.638526 78.665804 183.820443 78.411017 
C 181.002359 78.156229 178.172049 78.062174 175.343267 78.129308 
L 177.111112 152.619693 
z
" style="fill: #ffffff"/>
   </g>
   <g id="patch_28">
    <path d="M 175.343267 78.129308 
C 173.929163 78.162868 172.516301 78.236689 171.106399 78.350681 
C 169.696497 78.464672 168.290127 78.618789 166.888999 78.812842 
L 177.111112 152.619693 
z
" style="fill: #ffffff"/>
   </g>
   <g id="patch_29">
    <path d="M 166.888999 78.812842 
C 159.1676 79.882242 151.661624 82.156724 144.645373 85.55317 
C 137.629122 88.949615 131.189117 93.42614 125.560703 98.819153 
L 177.111112 152.619693 
z
" style="fill: #ffffff"/>
   </g>
   <g id="patch_30">
    <path d="M 125.560703 98.819153 
C 122.495046 101.756593 119.686062 104.950697 117.164435 108.366573 
C 114.642808 111.782449 112.417753 115.407614 110.513576 119.202468 
L 177.111112 152.619693 
z
" style="fill: #ffffff"/>
   </g>
   <g id="patch_31">
    <path d="M 110.513576 119.202468 
C 106.165289 127.868215 103.549909 137.299938 102.81444 146.967505 
C 102.078971 156.635072 103.237455 166.353896 106.224778 175.577706 
L 177.111112 152.619693 
z
" style="fill: #ffffff"/>
   </g>
   <g id="patch_32">
    <path d="M 106.224778 175.577706 
C 107.242016 178.718582 108.466882 181.78838 109.891276 184.766799 
C 111.315671 187.745218 112.936446 190.625678 114.742884 193.389129 
L 177.111112 152.619693 
z
" style="fill: #ffffff"/>
   </g>
   <g id="patch_33">
    <path d="M 114.742884 193.389129 
C 116.291108 195.75757 117.972989 198.035898 119.780353 200.213041 
C 121.587716 202.390183 123.517629 204.462607 125.560711 206.42024 
L 177.111112 152.619693 
z
" style="fill: #ffffff"/>
   </g>
   <g id="patch_34">
    <path d="M 125.560711 206.42024 
C 128.114952 208.867653 130.840244 211.130064 133.715901 213.1903 
C 136.591558 215.250536 139.610286 217.103371 142.749171 218.734742 
L 177.111112 152.619693 
z
" style="fill: #ffffff"/>
   </g>
   <g id="patch_35">
    <path d="M 142.749171 218.734742 
C 144.213501 219.495798 145.702711 220.207995 147.214336 220.870155 
C 148.725962 221.532315 150.259169 222.144073 151.81142 222.704416 
L 177.111112 152.619693 
z
" style="fill: #ffffff"/>
   </g>
   <g id="patch_36">
    <path d="M 151.81142 222.704416 
C 154.694821 223.745286 157.63971 224.607224 160.629293 225.285313 
C 163.618876 225.963403 166.647459 226.456351 169.697768 226.761349 
L 177.111112 152.619693 
z
" style="fill: #ffffff"/>
   </g>
   <g id="patch_37">
    <path d="M 169.697768 226.761349 
C 174.862878 227.277802 180.067846 227.253101 185.227821 226.687647 
C 190.387795 226.122193 195.474585 225.019076 200.405266 223.396279 
L 177.111112 152.619693 
z
" style="fill: #ffffff"/>
   </g>
   <g id="patch_38">
    <path d="M 200.405266 223.396279 
C 205.785116 221.625651 210.945584 219.247384 215.786611 216.307593 
C 220.627638 213.367802 225.11773 209.88561 229.169827 205.928538 
L 177.111112 152.619693 
z
" style="fill: #ffffff"/>
   </g>
   <g id="patch_39">
    <path d="M 229.169827 205.928538 
C 232.545462 202.632064 235.60037 199.022399 238.29337 195.148202 
C 240.986371 191.274004 243.305309 187.15276 245.218928 182.84002 
L 177.111112 152.619693 
z
" style="fill: #ffffff"/>
   </g>
   <g id="patch_40">
    <path d="M 245.218928 182.84002 
C 245.696997 181.762593 246.149431 180.673973 246.575851 179.57508 
C 247.00227 178.476187 247.402553 177.36733 247.776362 176.249446 
L 177.111112 152.619693 
z
" style="fill: #ffffff"/>
   </g>
   <g id="patch_41">
    <path d="M 247.776362 176.249446 
C 249.047943 172.446757 250.010503 168.547624 250.65466 164.590046 
C 251.298817 160.632468 251.622473 156.629344 251.622472 152.619686 
L 177.111112 152.619693 
z
" style="fill: #ffffff"/>
   </g>
   <g id="matplotlib.axis_1"/>
   <g id="matplotlib.axis_2"/>
   <g id="text_1">
    <!-- A [20] -->
    <g transform="translate(315.617038 128.766861) scale(0.1 -0.1)">
     <defs>
      <path id="DejaVuSans-41" d="M 2188 4044 
L 1331 1722 
L 3047 1722 
L 2188 4044 
z
M 1831 4666 
L 2547 4666 
L 4325 0 
L 3669 0 
L 3244 1197 
L 1141 1197 
L 716 0 
L 50 0 
L 1831 4666 
z
" transform="scale(0.015625)"/>
      <path id="DejaVuSans-20" transform="scale(0.015625)"/>
      <path id="DejaVuSans-5b" d="M 550 4863 
L 1875 4863 
L 1875 4416 
L 1125 4416 
L 1125 -397 
L 1875 -397 
L 1875 -844 
L 550 -844 
L 550 4863 
z
" transform="scale(0.015625)"/>
      <path id="DejaVuSans-32" d="M 1228 531 
L 3431 531 
L 3431 0 
L 469 0 
L 469 531 
Q 828 903 1448 1529 
Q 2069 2156 2228 2338 
Q 2531 2678 2651 2914 
Q 2772 3150 2772 3378 
Q 2772 3750 2511 3984 
Q 2250 4219 1831 4219 
Q 1534 4219 1204 4116 
Q 875 4013 500 3803 
L 500 4441 
Q 881 4594 1212 4672 
Q 1544 4750 1819 4750 
Q 2544 4750 2975 4387 
Q 3406 4025 3406 3419 
Q 3406 3131 3298 2873 
Q 3191 2616 2906 2266 
Q 2828 2175 2409 1742 
Q 1991 1309 1228 531 
z
" transform="scale(0.015625)"/>
      <path id="DejaVuSans-30" d="M 2034 4250 
Q 1547 4250 1301 3770 
Q 1056 3291 1056 2328 
Q 1056 1369 1301 889 
Q 1547 409 2034 409 
Q 2525 409 2770 889 
Q 3016 1369 3016 2328 
Q 3016 3291 2770 3770 
Q 2525 4250 2034 4250 
z
M 2034 4750 
Q 2819 4750 3233 4129 
Q 3647 3509 3647 2328 
Q 3647 1150 3233 529 
Q 2819 -91 2034 -91 
Q 1250 -91 836 529 
Q 422 1150 422 2328 
Q 422 3509 836 4129 
Q 1250 4750 2034 4750 
z
" transform="scale(0.015625)"/>
      <path id="DejaVuSans-5d" d="M 1947 4863 
L 1947 -844 
L 622 -844 
L 622 -397 
L 1369 -397 
L 1369 4416 
L 622 4416 
L 622 4863 
L 1947 4863 
z
" transform="scale(0.015625)"/>
     </defs>
     <use xlink:href="#DejaVuSans-41"/>
     <use xlink:href="#DejaVuSans-20" x="68.408203"/>
     <use xlink:href="#DejaVuSans-5b" x="100.195312"/>
     <use xlink:href="#DejaVuSans-32" x="139.208984"/>
     <use xlink:href="#DejaVuSans-30" x="202.832031"/>
     <use xlink:href="#DejaVuSans-5d" x="266.455078"/>
    </g>
   </g>
   <g id="text_2">
    <!-- C [9] -->
    <g transform="translate(303.170731 92.125028) scale(0.1 -0.1)">
     <defs>
      <path id="DejaVuSans-43" d="M 4122 4306 
L 4122 3641 
Q 3803 3938 3442 4084 
Q 3081 4231 2675 4231 
Q 1875 4231 1450 3742 
Q 1025 3253 1025 2328 
Q 1025 1406 1450 917 
Q 1875 428 2675 428 
Q 3081 428 3442 575 
Q 3803 722 4122 1019 
L 4122 359 
Q 3791 134 3420 21 
Q 3050 -91 2638 -91 
Q 1578 -91 968 557 
Q 359 1206 359 2328 
Q 359 3453 968 4101 
Q 1578 4750 2638 4750 
Q 3056 4750 3426 4639 
Q 3797 4528 4122 4306 
z
" transform="scale(0.015625)"/>
      <path id="DejaVuSans-39" d="M 703 97 
L 703 672 
Q 941 559 1184 500 
Q 1428 441 1663 441 
Q 2288 441 2617 861 
Q 2947 1281 2994 2138 
Q 2813 1869 2534 1725 
Q 2256 1581 1919 1581 
Q 1219 1581 811 2004 
Q 403 2428 403 3163 
Q 403 3881 828 4315 
Q 1253 4750 1959 4750 
Q 2769 4750 3195 4129 
Q 3622 3509 3622 2328 
Q 3622 1225 3098 567 
Q 2575 -91 1691 -91 
Q 1453 -91 1209 -44 
Q 966 3 703 97 
z
M 1959 2075 
Q 2384 2075 2632 2365 
Q 2881 2656 2881 3163 
Q 2881 3666 2632 3958 
Q 2384 4250 1959 4250 
Q 1534 4250 1286 3958 
Q 1038 3666 1038 3163 
Q 1038 2656 1286 2365 
Q 1534 2075 1959 2075 
z
" transform="scale(0.015625)"/>
     </defs>
     <use xlink:href="#DejaVuSans-43"/>
     <use xlink:href="#DejaVuSans-20" x="69.824219"/>
     <use xlink:href="#DejaVuSans-5b" x="101.611328"/>
     <use xlink:href="#DejaVuSans-39" x="140.625"/>
     <use xlink:href="#DejaVuSans-5d" x="204.248047"/>
    </g>
   </g>
   <g id="text_3">
    <!-- D [7] -->
    <g transform="translate(292.151126 73.783134) scale(0.1 -0.1)">
     <defs>
      <path id="DejaVuSans-44" d="M 1259 4147 
L 1259 519 
L 2022 519 
Q 2988 519 3436 956 
Q 3884 1394 3884 2338 
Q 3884 3275 3436 3711 
Q 2988 4147 2022 4147 
L 1259 4147 
z
M 628 4666 
L 1925 4666 
Q 3281 4666 3915 4102 
Q 4550 3538 4550 2338 
Q 4550 1131 3912 565 
Q 3275 0 1925 0 
L 628 0 
L 628 4666 
z
" transform="scale(0.015625)"/>
      <path id="DejaVuSans-37" d="M 525 4666 
L 3525 4666 
L 3525 4397 
L 1831 0 
L 1172 0 
L 2766 4134 
L 525 4134 
L 525 4666 
z
" transform="scale(0.015625)"/>
     </defs>
     <use xlink:href="#DejaVuSans-44"/>
     <use xlink:href="#DejaVuSans-20" x="77.001953"/>
     <use xlink:href="#DejaVuSans-5b" x="108.789062"/>
     <use xlink:href="#DejaVuSans-37" x="147.802734"/>
     <use xlink:href="#DejaVuSans-5d" x="211.425781"/>
    </g>
   </g>
   <g id="text_4">
    <!-- E [11] -->
    <g transform="translate(276.604079 55.41282) scale(0.1 -0.1)">
     <defs>
      <path id="DejaVuSans-45" d="M 628 4666 
L 3578 4666 
L 3578 4134 
L 1259 4134 
L 1259 2753 
L 3481 2753 
L 3481 2222 
L 1259 2222 
L 1259 531 
L 3634 531 
L 3634 0 
L 628 0 
L 628 4666 
z
" transform="scale(0.015625)"/>
      <path id="DejaVuSans-31" d="M 794 531 
L 1825 531 
L 1825 4091 
L 703 3866 
L 703 4441 
L 1819 4666 
L 2450 4666 
L 2450 531 
L 3481 531 
L 3481 0 
L 794 0 
L 794 531 
z
" transform="scale(0.015625)"/>
     </defs>
     <use xlink:href="#DejaVuSans-45"/>
     <use xlink:href="#DejaVuSans-20" x="63.183594"/>
     <use xlink:href="#DejaVuSans-5b" x="94.970703"/>
     <use xlink:href="#DejaVuSans-31" x="133.984375"/>
     <use xlink:href="#DejaVuSans-31" x="197.607422"/>
     <use xlink:href="#DejaVuSans-5d" x="261.230469"/>
    </g>
   </g>
   <g id="text_5">
    <!-- F [25] -->
    <g transform="translate(237.356476 27.854179) scale(0.1 -0.1)">
     <defs>
      <path id="DejaVuSans-46" d="M 628 4666 
L 3309 4666 
L 3309 4134 
L 1259 4134 
L 1259 2759 
L 3109 2759 
L 3109 2228 
L 1259 2228 
L 1259 0 
L 628 0 
L 628 4666 
z
" transform="scale(0.015625)"/>
      <path id="DejaVuSans-35" d="M 691 4666 
L 3169 4666 
L 3169 4134 
L 1269 4134 
L 1269 2991 
Q 1406 3038 1543 3061 
Q 1681 3084 1819 3084 
Q 2600 3084 3056 2656 
Q 3513 2228 3513 1497 
Q 3513 744 3044 326 
Q 2575 -91 1722 -91 
Q 1428 -91 1123 -41 
Q 819 9 494 109 
L 494 744 
Q 775 591 1075 516 
Q 1375 441 1709 441 
Q 2250 441 2565 725 
Q 2881 1009 2881 1497 
Q 2881 1984 2565 2268 
Q 2250 2553 1709 2553 
Q 1456 2553 1204 2497 
Q 953 2441 691 2322 
L 691 4666 
z
" transform="scale(0.015625)"/>
     </defs>
     <use xlink:href="#DejaVuSans-46"/>
     <use xlink:href="#DejaVuSans-20" x="57.519531"/>
     <use xlink:href="#DejaVuSans-5b" x="89.306641"/>
     <use xlink:href="#DejaVuSans-32" x="128.320312"/>
     <use xlink:href="#DejaVuSans-35" x="191.943359"/>
     <use xlink:href="#DejaVuSans-5d" x="255.566406"/>
    </g>
   </g>
   <g id="text_6">
    <!-- G [12] -->
    <g transform="translate(189.810916 14.912645) scale(0.1 -0.1)">
     <defs>
      <path id="DejaVuSans-47" d="M 3809 666 
L 3809 1919 
L 2778 1919 
L 2778 2438 
L 4434 2438 
L 4434 434 
Q 4069 175 3628 42 
Q 3188 -91 2688 -91 
Q 1594 -91 976 548 
Q 359 1188 359 2328 
Q 359 3472 976 4111 
Q 1594 4750 2688 4750 
Q 3144 4750 3555 4637 
Q 3966 4525 4313 4306 
L 4313 3634 
Q 3963 3931 3569 4081 
Q 3175 4231 2741 4231 
Q 1884 4231 1454 3753 
Q 1025 3275 1025 2328 
Q 1025 1384 1454 906 
Q 1884 428 2741 428 
Q 3075 428 3337 486 
Q 3600 544 3809 666 
z
" transform="scale(0.015625)"/>
     </defs>
     <use xlink:href="#DejaVuSans-47"/>
     <use xlink:href="#DejaVuSans-20" x="77.490234"/>
     <use xlink:href="#DejaVuSans-5b" x="109.277344"/>
     <use xlink:href="#DejaVuSans-31" x="148.291016"/>
     <use xlink:href="#DejaVuSans-32" x="211.914062"/>
     <use xlink:href="#DejaVuSans-5d" x="275.537109"/>
    </g>
   </g>
   <g id="text_7">
    <!-- H [6] -->
    <g transform="translate(140.880985 14.798437) scale(0.1 -0.1)">
     <defs>
      <path id="DejaVuSans-48" d="M 628 4666 
L 1259 4666 
L 1259 2753 
L 3553 2753 
L 3553 4666 
L 4184 4666 
L 4184 0 
L 3553 0 
L 3553 2222 
L 1259 2222 
L 1259 0 
L 628 0 
L 628 4666 
z
" transform="scale(0.015625)"/>
      <path id="DejaVuSans-36" d="M 2113 2584 
Q 1688 2584 1439 2293 
Q 1191 2003 1191 1497 
Q 1191 994 1439 701 
Q 1688 409 2113 409 
Q 2538 409 2786 701 
Q 3034 994 3034 1497 
Q 3034 2003 2786 2293 
Q 2538 2584 2113 2584 
z
M 3366 4563 
L 3366 3988 
Q 3128 4100 2886 4159 
Q 2644 4219 2406 4219 
Q 1781 4219 1451 3797 
Q 1122 3375 1075 2522 
Q 1259 2794 1537 2939 
Q 1816 3084 2150 3084 
Q 2853 3084 3261 2657 
Q 3669 2231 3669 1497 
Q 3669 778 3244 343 
Q 2819 -91 2113 -91 
Q 1303 -91 875 529 
Q 447 1150 447 2328 
Q 447 3434 972 4092 
Q 1497 4750 2381 4750 
Q 2619 4750 2861 4703 
Q 3103 4656 3366 4563 
z
" transform="scale(0.015625)"/>
     </defs>
     <use xlink:href="#DejaVuSans-48"/>
     <use xlink:href="#DejaVuSans-20" x="75.195312"/>
     <use xlink:href="#DejaVuSans-5b" x="106.982422"/>
     <use xlink:href="#DejaVuSans-36" x="145.996094"/>
     <use xlink:href="#DejaVuSans-5d" x="209.619141"/>
    </g>
   </g>
   <g id="text_8">
    <!-- I [33] -->
    <g transform="translate(89.001856 28.43172) scale(0.1 -0.1)">
     <defs>
      <path id="DejaVuSans-49" d="M 628 4666 
L 1259 4666 
L 1259 0 
L 628 0 
L 628 4666 
z
" transform="scale(0.015625)"/>
      <path id="DejaVuSans-33" d="M 2597 2516 
Q 3050 2419 3304 2112 
Q 3559 1806 3559 1356 
Q 3559 666 3084 287 
Q 2609 -91 1734 -91 
Q 1441 -91 1130 -33 
Q 819 25 488 141 
L 488 750 
Q 750 597 1062 519 
Q 1375 441 1716 441 
Q 2309 441 2620 675 
Q 2931 909 2931 1356 
Q 2931 1769 2642 2001 
Q 2353 2234 1838 2234 
L 1294 2234 
L 1294 2753 
L 1863 2753 
Q 2328 2753 2575 2939 
Q 2822 3125 2822 3475 
Q 2822 3834 2567 4026 
Q 2313 4219 1838 4219 
Q 1578 4219 1281 4162 
Q 984 4106 628 3988 
L 628 4550 
Q 988 4650 1302 4700 
Q 1616 4750 1894 4750 
Q 2613 4750 3031 4423 
Q 3450 4097 3450 3541 
Q 3450 3153 3228 2886 
Q 3006 2619 2597 2516 
z
" transform="scale(0.015625)"/>
     </defs>
     <use xlink:href="#DejaVuSans-49"/>
     <use xlink:href="#DejaVuSans-20" x="29.492188"/>
     <use xlink:href="#DejaVuSans-5b" x="61.279297"/>
     <use xlink:href="#DejaVuSans-33" x="100.292969"/>
     <use xlink:href="#DejaVuSans-33" x="163.916016"/>
     <use xlink:href="#DejaVuSans-5d" x="227.539062"/>
    </g>
   </g>
   <g id="text_9">
    <!-- K [18] -->
    <g transform="translate(33.376553 71.614234) scale(0.1 -0.1)">
     <defs>
      <path id="DejaVuSans-4b" d="M 628 4666 
L 1259 4666 
L 1259 2694 
L 3353 4666 
L 4166 4666 
L 1850 2491 
L 4331 0 
L 3500 0 
L 1259 2247 
L 1259 0 
L 628 0 
L 628 4666 
z
" transform="scale(0.015625)"/>
      <path id="DejaVuSans-38" d="M 2034 2216 
Q 1584 2216 1326 1975 
Q 1069 1734 1069 1313 
Q 1069 891 1326 650 
Q 1584 409 2034 409 
Q 2484 409 2743 651 
Q 3003 894 3003 1313 
Q 3003 1734 2745 1975 
Q 2488 2216 2034 2216 
z
M 1403 2484 
Q 997 2584 770 2862 
Q 544 3141 544 3541 
Q 544 4100 942 4425 
Q 1341 4750 2034 4750 
Q 2731 4750 3128 4425 
Q 3525 4100 3525 3541 
Q 3525 3141 3298 2862 
Q 3072 2584 2669 2484 
Q 3125 2378 3379 2068 
Q 3634 1759 3634 1313 
Q 3634 634 3220 271 
Q 2806 -91 2034 -91 
Q 1263 -91 848 271 
Q 434 634 434 1313 
Q 434 1759 690 2068 
Q 947 2378 1403 2484 
z
M 1172 3481 
Q 1172 3119 1398 2916 
Q 1625 2713 2034 2713 
Q 2441 2713 2670 2916 
Q 2900 3119 2900 3481 
Q 2900 3844 2670 4047 
Q 2441 4250 2034 4250 
Q 1625 4250 1398 4047 
Q 1172 3844 1172 3481 
z
" transform="scale(0.015625)"/>
     </defs>
     <use xlink:href="#DejaVuSans-4b"/>
     <use xlink:href="#DejaVuSans-20" x="65.576172"/>
     <use xlink:href="#DejaVuSans-5b" x="97.363281"/>
     <use xlink:href="#DejaVuSans-31" x="136.376953"/>
     <use xlink:href="#DejaVuSans-38" x="200"/>
     <use xlink:href="#DejaVuSans-5d" x="263.623047"/>
    </g>
   </g>
   <g id="text_10">
    <!-- L [41] -->
    <g transform="translate(7.2 144.680284) scale(0.1 -0.1)">
     <defs>
      <path id="DejaVuSans-4c" d="M 628 4666 
L 1259 4666 
L 1259 531 
L 3531 531 
L 3531 0 
L 628 0 
L 628 4666 
z
" transform="scale(0.015625)"/>
      <path id="DejaVuSans-34" d="M 2419 4116 
L 825 1625 
L 2419 1625 
L 2419 4116 
z
M 2253 4666 
L 3047 4666 
L 3047 1625 
L 3713 1625 
L 3713 1100 
L 3047 1100 
L 3047 0 
L 2419 0 
L 2419 1100 
L 313 1100 
L 313 1709 
L 2253 4666 
z
" transform="scale(0.015625)"/>
     </defs>
     <use xlink:href="#DejaVuSans-4c"/>
     <use xlink:href="#DejaVuSans-20" x="55.712891"/>
     <use xlink:href="#DejaVuSans-5b" x="87.5"/>
     <use xlink:href="#DejaVuSans-34" x="126.513672"/>
     <use xlink:href="#DejaVuSans-31" x="190.136719"/>
     <use xlink:href="#DejaVuSans-5d" x="253.759766"/>
    </g>
   </g>
   <g id="text_11">
    <!-- M [14] -->
    <g transform="translate(17.539191 216.228948) scale(0.1 -0.1)">
     <defs>
      <path id="DejaVuSans-4d" d="M 628 4666 
L 1569 4666 
L 2759 1491 
L 3956 4666 
L 4897 4666 
L 4897 0 
L 4281 0 
L 4281 4097 
L 3078 897 
L 2444 897 
L 1241 4097 
L 1241 0 
L 628 0 
L 628 4666 
z
" transform="scale(0.015625)"/>
     </defs>
     <use xlink:href="#DejaVuSans-4d"/>
     <use xlink:href="#DejaVuSans-20" x="86.279297"/>
     <use xlink:href="#DejaVuSans-5b" x="118.066406"/>
     <use xlink:href="#DejaVuSans-31" x="157.080078"/>
     <use xlink:href="#DejaVuSans-34" x="220.703125"/>
     <use xlink:href="#DejaVuSans-5d" x="284.326172"/>
    </g>
   </g>
   <g id="text_12">
    <!-- N [12] -->
    <g transform="translate(37.404674 245.466476) scale(0.1 -0.1)">
     <defs>
      <path id="DejaVuSans-4e" d="M 628 4666 
L 1478 4666 
L 3547 763 
L 3547 4666 
L 4159 4666 
L 4159 0 
L 3309 0 
L 1241 3903 
L 1241 0 
L 628 0 
L 628 4666 
z
" transform="scale(0.015625)"/>
     </defs>
     <use xlink:href="#DejaVuSans-4e"/>
     <use xlink:href="#DejaVuSans-20" x="74.804688"/>
     <use xlink:href="#DejaVuSans-5b" x="106.591797"/>
     <use xlink:href="#DejaVuSans-31" x="145.605469"/>
     <use xlink:href="#DejaVuSans-32" x="209.228516"/>
     <use xlink:href="#DejaVuSans-5d" x="272.851562"/>
    </g>
   </g>
   <g id="text_13">
    <!-- P [15] -->
    <g transform="translate(65.234239 270.030573) scale(0.1 -0.1)">
     <defs>
      <path id="DejaVuSans-50" d="M 1259 4147 
L 1259 2394 
L 2053 2394 
Q 2494 2394 2734 2622 
Q 2975 2850 2975 3272 
Q 2975 3691 2734 3919 
Q 2494 4147 2053 4147 
L 1259 4147 
z
M 628 4666 
L 2053 4666 
Q 2838 4666 3239 4311 
Q 3641 3956 3641 3272 
Q 3641 2581 3239 2228 
Q 2838 1875 2053 1875 
L 1259 1875 
L 1259 0 
L 628 0 
L 628 4666 
z
" transform="scale(0.015625)"/>
     </defs>
     <use xlink:href="#DejaVuSans-50"/>
     <use xlink:href="#DejaVuSans-20" x="60.302734"/>
     <use xlink:href="#DejaVuSans-5b" x="92.089844"/>
     <use xlink:href="#DejaVuSans-31" x="131.103516"/>
     <use xlink:href="#DejaVuSans-35" x="194.726562"/>
     <use xlink:href="#DejaVuSans-5d" x="258.349609"/>
    </g>
   </g>
   <g id="text_14">
    <!-- Q [7] -->
    <g transform="translate(95.305162 284.567443) scale(0.1 -0.1)">
     <defs>
      <path id="DejaVuSans-51" d="M 2522 4238 
Q 1834 4238 1429 3725 
Q 1025 3213 1025 2328 
Q 1025 1447 1429 934 
Q 1834 422 2522 422 
Q 3209 422 3611 934 
Q 4013 1447 4013 2328 
Q 4013 3213 3611 3725 
Q 3209 4238 2522 4238 
z
M 3406 84 
L 4238 -825 
L 3475 -825 
L 2784 -78 
Q 2681 -84 2626 -87 
Q 2572 -91 2522 -91 
Q 1538 -91 948 567 
Q 359 1225 359 2328 
Q 359 3434 948 4092 
Q 1538 4750 2522 4750 
Q 3503 4750 4090 4092 
Q 4678 3434 4678 2328 
Q 4678 1516 4351 937 
Q 4025 359 3406 84 
z
" transform="scale(0.015625)"/>
     </defs>
     <use xlink:href="#DejaVuSans-51"/>
     <use xlink:href="#DejaVuSans-20" x="78.710938"/>
     <use xlink:href="#DejaVuSans-5b" x="110.498047"/>
     <use xlink:href="#DejaVuSans-37" x="149.511719"/>
     <use xlink:href="#DejaVuSans-5d" x="213.134766"/>
    </g>
   </g>
   <g id="text_15">
    <!-- R [13] -->
    <g transform="translate(115.258696 292.924707) scale(0.1 -0.1)">
     <defs>
      <path id="DejaVuSans-52" d="M 2841 2188 
Q 3044 2119 3236 1894 
Q 3428 1669 3622 1275 
L 4263 0 
L 3584 0 
L 2988 1197 
Q 2756 1666 2539 1819 
Q 2322 1972 1947 1972 
L 1259 1972 
L 1259 0 
L 628 0 
L 628 4666 
L 2053 4666 
Q 2853 4666 3247 4331 
Q 3641 3997 3641 3322 
Q 3641 2881 3436 2590 
Q 3231 2300 2841 2188 
z
M 1259 4147 
L 1259 2491 
L 2053 2491 
Q 2509 2491 2742 2702 
Q 2975 2913 2975 3322 
Q 2975 3731 2742 3939 
Q 2509 4147 2053 4147 
L 1259 4147 
z
" transform="scale(0.015625)"/>
     </defs>
     <use xlink:href="#DejaVuSans-52"/>
     <use xlink:href="#DejaVuSans-20" x="69.482422"/>
     <use xlink:href="#DejaVuSans-5b" x="101.269531"/>
     <use xlink:href="#DejaVuSans-31" x="140.283203"/>
     <use xlink:href="#DejaVuSans-33" x="203.90625"/>
     <use xlink:href="#DejaVuSans-5d" x="267.529297"/>
    </g>
   </g>
   <g id="text_16">
    <!-- S [22] -->
    <g transform="translate(192.474882 295.579124) scale(0.1 -0.1)">
     <defs>
      <path id="DejaVuSans-53" d="M 3425 4513 
L 3425 3897 
Q 3066 4069 2747 4153 
Q 2428 4238 2131 4238 
Q 1616 4238 1336 4038 
Q 1056 3838 1056 3469 
Q 1056 3159 1242 3001 
Q 1428 2844 1947 2747 
L 2328 2669 
Q 3034 2534 3370 2195 
Q 3706 1856 3706 1288 
Q 3706 609 3251 259 
Q 2797 -91 1919 -91 
Q 1588 -91 1214 -16 
Q 841 59 441 206 
L 441 856 
Q 825 641 1194 531 
Q 1563 422 1919 422 
Q 2459 422 2753 634 
Q 3047 847 3047 1241 
Q 3047 1584 2836 1778 
Q 2625 1972 2144 2069 
L 1759 2144 
Q 1053 2284 737 2584 
Q 422 2884 422 3419 
Q 422 4038 858 4394 
Q 1294 4750 2059 4750 
Q 2388 4750 2728 4690 
Q 3069 4631 3425 4513 
z
" transform="scale(0.015625)"/>
     </defs>
     <use xlink:href="#DejaVuSans-53"/>
     <use xlink:href="#DejaVuSans-20" x="63.476562"/>
     <use xlink:href="#DejaVuSans-5b" x="95.263672"/>
     <use xlink:href="#DejaVuSans-32" x="134.277344"/>
     <use xlink:href="#DejaVuSans-32" x="197.900391"/>
     <use xlink:href="#DejaVuSans-5d" x="261.523438"/>
    </g>
   </g>
   <g id="text_17">
    <!-- T [24] -->
    <g transform="translate(250.318306 275.931164) scale(0.1 -0.1)">
     <defs>
      <path id="DejaVuSans-54" d="M -19 4666 
L 3928 4666 
L 3928 4134 
L 2272 4134 
L 2272 0 
L 1638 0 
L 1638 4134 
L -19 4134 
L -19 4666 
z
" transform="scale(0.015625)"/>
     </defs>
     <use xlink:href="#DejaVuSans-54"/>
     <use xlink:href="#DejaVuSans-20" x="61.083984"/>
     <use xlink:href="#DejaVuSans-5b" x="92.871094"/>
     <use xlink:href="#DejaVuSans-32" x="131.884766"/>
     <use xlink:href="#DejaVuSans-34" x="195.507812"/>
     <use xlink:href="#DejaVuSans-5d" x="259.130859"/>
    </g>
   </g>
   <g id="text_18">
    <!-- V [20] -->
    <g transform="translate(292.920386 235.87946) scale(0.1 -0.1)">
     <defs>
      <path id="DejaVuSans-56" d="M 1831 0 
L 50 4666 
L 709 4666 
L 2188 738 
L 3669 4666 
L 4325 4666 
L 2547 0 
L 1831 0 
z
" transform="scale(0.015625)"/>
     </defs>
     <use xlink:href="#DejaVuSans-56"/>
     <use xlink:href="#DejaVuSans-20" x="68.408203"/>
     <use xlink:href="#DejaVuSans-5b" x="100.195312"/>
     <use xlink:href="#DejaVuSans-32" x="139.208984"/>
     <use xlink:href="#DejaVuSans-30" x="202.832031"/>
     <use xlink:href="#DejaVuSans-5d" x="266.455078"/>
    </g>
   </g>
   <g id="text_19">
    <!-- W [5] -->
    <g transform="translate(308.597938 206.401765) scale(0.1 -0.1)">
     <defs>
      <path id="DejaVuSans-57" d="M 213 4666 
L 850 4666 
L 1831 722 
L 2809 4666 
L 3519 4666 
L 4500 722 
L 5478 4666 
L 6119 4666 
L 4947 0 
L 4153 0 
L 3169 4050 
L 2175 0 
L 1381 0 
L 213 4666 
z
" transform="scale(0.015625)"/>
     </defs>
     <use xlink:href="#DejaVuSans-57"/>
     <use xlink:href="#DejaVuSans-20" x="98.876953"/>
     <use xlink:href="#DejaVuSans-5b" x="130.664062"/>
     <use xlink:href="#DejaVuSans-35" x="169.677734"/>
     <use xlink:href="#DejaVuSans-5d" x="233.300781"/>
    </g>
   </g>
   <g id="text_20">
    <!-- Y [17] -->
    <g transform="translate(316.318542 178.037237) scale(0.1 -0.1)">
     <defs>
      <path id="DejaVuSans-59" d="M -13 4666 
L 666 4666 
L 1959 2747 
L 3244 4666 
L 3922 4666 
L 2272 2222 
L 2272 0 
L 1638 0 
L 1638 2222 
L -13 4666 
z
" transform="scale(0.015625)"/>
     </defs>
     <use xlink:href="#DejaVuSans-59"/>
     <use xlink:href="#DejaVuSans-20" x="61.083984"/>
     <use xlink:href="#DejaVuSans-5b" x="92.871094"/>
     <use xlink:href="#DejaVuSans-31" x="131.884766"/>
     <use xlink:href="#DejaVuSans-37" x="195.507812"/>
     <use xlink:href="#DejaVuSans-5d" x="259.130859"/>
    </g>
   </g>
   <g id="text_21">
    <!-- A0A8C8WAU7 [331] -->
    <g transform="translate(117.3033 152.619693) scale(0.12 -0.12)">
     <defs>
      <path id="DejaVuSans-55" d="M 556 4666 
L 1191 4666 
L 1191 1831 
Q 1191 1081 1462 751 
Q 1734 422 2344 422 
Q 2950 422 3222 751 
Q 3494 1081 3494 1831 
L 3494 4666 
L 4128 4666 
L 4128 1753 
Q 4128 841 3676 375 
Q 3225 -91 2344 -91 
Q 1459 -91 1007 375 
Q 556 841 556 1753 
L 556 4666 
z
" transform="scale(0.015625)"/>
     </defs>
     <use xlink:href="#DejaVuSans-41"/>
     <use xlink:href="#DejaVuSans-30" x="68.408203"/>
     <use xlink:href="#DejaVuSans-41" x="132.03125"/>
     <use xlink:href="#DejaVuSans-38" x="200.439453"/>
     <use xlink:href="#DejaVuSans-43" x="264.0625"/>
     <use xlink:href="#DejaVuSans-38" x="333.886719"/>
     <use xlink:href="#DejaVuSans-57" x="397.509766"/>
     <use xlink:href="#DejaVuSans-41" x="490.886719"/>
     <use xlink:href="#DejaVuSans-55" x="559.294922"/>
     <use xlink:href="#DejaVuSans-37" x="632.488281"/>
     <use xlink:href="#DejaVuSans-20" x="696.111328"/>
     <use xlink:href="#DejaVuSans-5b" x="727.898438"/>
     <use xlink:href="#DejaVuSans-33" x="766.912109"/>
     <use xlink:href="#DejaVuSans-33" x="830.535156"/>
     <use xlink:href="#DejaVuSans-31" x="894.158203"/>
     <use xlink:href="#DejaVuSans-5d" x="957.78125"/>
    </g>
   </g>
  </g>
 </g>
</svg>
