<?xml version="1.0" encoding="utf-8" standalone="no"?>
<!DOCTYPE svg PUBLIC "-//W3C//DTD SVG 1.1//EN"
  "http://www.w3.org/Graphics/SVG/1.1/DTD/svg11.dtd">
<svg xmlns:xlink="http://www.w3.org/1999/xlink" width="354.315102pt" height="304.884176pt" viewBox="0 0 354.315102 304.884176" xmlns="http://www.w3.org/2000/svg" version="1.1">
 <metadata>
  <rdf:RDF xmlns:dc="http://purl.org/dc/elements/1.1/" xmlns:cc="http://creativecommons.org/ns#" xmlns:rdf="http://www.w3.org/1999/02/22-rdf-syntax-ns#">
   <cc:Work>
    <dc:type rdf:resource="http://purl.org/dc/dcmitype/StillImage"/>
    <dc:date>2024-09-27T16:07:39.612504</dc:date>
    <dc:format>image/svg+xml</dc:format>
    <dc:creator>
     <cc:Agent>
      <dc:title>Matplotlib v3.8.3, https://matplotlib.org/</dc:title>
     </cc:Agent>
    </dc:creator>
   </cc:Work>
  </rdf:RDF>
 </metadata>
 <defs>
  <style type="text/css">*{stroke-linejoin: round; stroke-linecap: butt}</style>
 </defs>
 <g id="figure_1">
  <g id="patch_1">
   <path d="M -0 304.884176 
L 354.315102 304.884176 
L 354.315102 0 
L -0 0 
z
" style="fill: #ffffff"/>
  </g>
  <g id="axes_1">
   <g id="patch_2">
    <path d="M 305.75239 152.782699 
C 305.75239 144.886574 305.020217 137.007431 303.565279 129.246507 
C 302.110341 121.485583 299.938896 113.87626 297.078844 106.516309 
L 178.01863 152.782699 
z
" style="fill: #1f77b4"/>
   </g>
   <g id="patch_3">
    <path d="M 297.022034 106.357811 
C 294.979854 101.102541 292.591965 95.988244 289.874038 91.048484 
C 287.15611 86.108724 284.114104 81.354332 280.767984 76.816509 
L 177.961819 152.624201 
z
" style="fill: #ff7f0e"/>
   </g>
   <g id="patch_4">
    <path d="M 280.706694 76.72778 
C 278.922562 74.30824 277.05357 71.952438 275.103211 69.664775 
C 273.152851 67.377113 271.122339 65.159016 269.015468 63.014628 
L 177.90053 152.535472 
z
" style="fill: #aec7e8"/>
   </g>
   <g id="patch_5">
    <path d="M 268.941243 62.942978 
C 265.25343 59.189496 261.337202 55.667478 257.214949 52.397061 
C 253.092697 49.126644 248.772294 46.114075 244.278443 43.376577 
L 177.826305 152.463821 
z
" style="fill: #ffbb78"/>
   </g>
   <g id="patch_6">
    <path d="M 244.131648 43.294113 
C 237.066588 38.990325 229.600103 35.383053 221.837459 32.523153 
C 214.074815 29.663254 206.052664 27.56423 197.884105 26.255674 
L 177.67951 152.381357 
z
" style="fill: #98df8a"/>
   </g>
   <g id="patch_7">
    <path d="M 197.72828 26.223606 
C 193.275156 25.510241 188.787375 25.033217 184.283794 24.794538 
C 179.780214 24.555858 175.267151 24.555858 170.763571 24.794538 
L 177.523686 152.349288 
z
" style="fill: #2ca02c"/>
   </g>
   <g id="patch_8">
    <path d="M 170.660506 24.799088 
C 166.90779 24.997974 163.165678 25.362372 159.445093 25.89122 
C 155.724508 26.420068 152.029073 27.11285 148.369574 27.967545 
L 177.420621 152.353839 
z
" style="fill: #d62728"/>
   </g>
   <g id="patch_9">
    <path d="M 148.17161 28.037516 
C 135.340044 31.034393 123.049136 35.998841 111.73575 42.754405 
C 100.422364 49.509968 90.222147 57.975649 81.497654 67.850544 
L 177.222656 152.42381 
z
" style="fill: #9467bd"/>
   </g>
   <g id="patch_10">
    <path d="M 81.308816 68.042745 
C 75.582019 74.524671 70.528377 81.571546 66.225746 89.074807 
C 61.923115 96.578069 58.393702 104.498988 55.69188 112.715541 
L 177.033818 152.616011 
z
" style="fill: #ff9896"/>
   </g>
   <g id="patch_11">
    <path d="M 55.62144 112.989689 
C 51.150962 126.584928 48.996937 140.835312 49.249512 155.144467 
C 49.502086 169.453621 52.157686 183.61911 57.105175 197.048111 
L 176.963377 152.890159 
z
" style="fill: #c5b0d5"/>
   </g>
   <g id="patch_12">
    <path d="M 57.162251 197.278667 
C 58.85133 201.863344 60.80207 206.347334 63.004852 210.708527 
C 65.207634 215.069719 67.658832 219.300934 70.346359 223.381308 
L 177.020454 153.120715 
z
" style="fill: #c49c94"/>
   </g>
   <g id="patch_13">
    <path d="M 70.425695 223.497254 
C 73.940836 228.834165 77.851536 233.899765 82.124839 238.651368 
C 86.398142 243.40297 91.02201 247.82719 95.95748 251.886745 
L 177.09979 153.236661 
z
" style="fill: #8c564b"/>
   </g>
   <g id="patch_14">
    <path d="M 96.068346 251.980423 
C 100.132238 255.323082 104.398802 258.411431 108.84364 261.227812 
C 113.288479 264.044192 117.903104 266.583226 122.661131 268.830394 
L 177.210656 153.330339 
z
" style="fill: #e377c2"/>
   </g>
   <g id="patch_15">
    <path d="M 122.766417 268.881835 
C 126.504412 270.647253 130.325907 272.230168 134.217408 273.624991 
C 138.108908 275.019814 142.065828 276.2249 146.074194 277.235995 
L 177.315941 153.38178 
z
" style="fill: #7f7f7f"/>
   </g>
   <g id="patch_16">
    <path d="M 146.188184 277.263149 
C 151.290361 278.550153 156.467193 279.520652 161.689081 280.169097 
C 166.910968 280.817542 172.167939 281.142694 177.429933 281.142694 
L 177.429932 153.408934 
z
" style="fill: #f7b6d2"/>
   </g>
   <g id="patch_17">
    <path d="M 177.5982 281.136751 
C 185.870906 281.136751 194.124082 280.333076 202.241372 278.737055 
C 210.358661 277.141034 218.301737 274.760204 225.958616 271.62813 
L 177.598198 153.402991 
z
" style="fill: #c7c7c7"/>
   </g>
   <g id="patch_18">
    <path d="M 226.160351 271.542475 
C 234.863334 267.982489 243.146673 263.472375 250.859678 258.094181 
C 258.572683 252.715987 265.668297 246.502526 272.017437 239.566833 
L 177.799934 153.317336 
z
" style="fill: #dbdb8d"/>
   </g>
   <g id="patch_19">
    <path d="M 272.172367 239.399082 
C 278.267058 232.741344 283.63893 225.45631 288.197896 217.666153 
C 292.756862 209.875995 296.477295 201.624504 299.296802 193.050059 
L 177.954865 153.149585 
z
" style="fill: #bcbd22"/>
   </g>
   <g id="patch_20">
    <path d="M 299.347271 192.93405 
C 299.699385 191.863228 300.03731 190.787792 300.360956 189.708025 
C 300.684601 188.628258 300.99394 187.544254 301.288889 186.456298 
L 178.005334 153.033576 
z
" style="fill: #17becf"/>
   </g>
   <g id="patch_21">
    <path d="M 301.306642 186.373733 
C 302.781908 180.932047 303.895265 175.398649 304.639408 169.809856 
C 305.38355 164.221063 305.756847 158.589128 305.756847 152.951011 
L 178.023087 152.951011 
z
" style="fill: #9edae5"/>
   </g>
   <g id="patch_22">
    <path d="M 252.006879 152.880766 
C 252.006879 148.274693 251.579778 143.678527 250.731064 139.151321 
C 249.88235 134.624115 248.615674 130.185344 246.94731 125.892039 
L 177.495519 152.880766 
z
" style="fill: #ffffff"/>
   </g>
   <g id="patch_23">
    <path d="M 246.94731 125.892039 
C 245.756039 122.826465 244.363103 119.843125 242.777646 116.961598 
C 241.192188 114.080072 239.417685 111.306676 237.465781 108.659613 
L 177.495519 152.880766 
z
" style="fill: #ffffff"/>
   </g>
   <g id="patch_24">
    <path d="M 237.465781 108.659613 
C 236.425037 107.248214 235.334792 105.873996 234.197082 104.539527 
C 233.059373 103.205057 231.874907 101.911167 230.645899 100.660274 
L 177.495519 152.880766 
z
" style="fill: #ffffff"/>
   </g>
   <g id="patch_25">
    <path d="M 230.645899 100.660274 
C 228.494675 98.470743 226.210208 96.416232 223.805561 94.508489 
C 221.400914 92.600746 218.880679 90.843414 216.259266 89.246541 
L 177.495519 152.880766 
z
" style="fill: #ffffff"/>
   </g>
   <g id="patch_26">
    <path d="M 216.259266 89.246541 
C 212.137981 86.735998 207.782531 84.631755 203.254322 82.963481 
C 198.726113 81.295206 194.046525 80.070775 189.281532 79.307451 
L 177.495519 152.880766 
z
" style="fill: #ffffff"/>
   </g>
   <g id="patch_27">
    <path d="M 189.281532 79.307451 
C 186.683876 78.891322 184.066004 78.613058 181.438915 78.473828 
C 178.811827 78.334599 176.179207 78.334599 173.552118 78.473829 
L 177.495519 152.880766 
z
" style="fill: #ffffff"/>
   </g>
   <g id="patch_28">
    <path d="M 173.552118 78.473829 
C 171.363034 78.589845 169.180135 78.802411 167.009794 79.110905 
C 164.839453 79.4194 162.683782 79.823523 160.549075 80.322095 
L 177.495519 152.880766 
z
" style="fill: #ffffff"/>
   </g>
   <g id="patch_29">
    <path d="M 160.549075 80.322095 
C 153.063995 82.070273 145.894298 84.966201 139.294823 88.906946 
C 132.695348 92.847692 126.745222 97.786005 121.655934 103.546361 
L 177.495519 152.880766 
z
" style="fill: #ffffff"/>
   </g>
   <g id="patch_30">
    <path d="M 121.655934 103.546361 
C 118.315302 107.327485 115.367345 111.438161 112.857477 115.815064 
C 110.347608 120.191966 108.288784 124.812503 106.712721 129.605492 
L 177.495519 152.880766 
z
" style="fill: #ffffff"/>
   </g>
   <g id="patch_31">
    <path d="M 106.712721 129.605492 
C 104.104943 137.536048 102.848428 145.848772 102.995763 154.195779 
C 103.143098 162.542786 104.692198 170.805988 107.578234 178.639571 
L 177.495519 152.880766 
z
" style="fill: #ffffff"/>
   </g>
   <g id="patch_32">
    <path d="M 107.578234 178.639571 
C 108.56353 181.313966 109.701461 183.929627 110.986418 186.473656 
C 112.271374 189.017685 113.701239 191.485894 115.268963 193.866112 
L 177.495519 152.880766 
z
" style="fill: #ffffff"/>
   </g>
   <g id="patch_33">
    <path d="M 115.268963 193.866112 
C 117.319462 196.97931 119.600704 199.934244 122.093464 202.706012 
C 124.586224 205.47778 127.283481 208.058575 130.162505 210.426648 
L 177.495519 152.880766 
z
" style="fill: #ffffff"/>
   </g>
   <g id="patch_34">
    <path d="M 130.162505 210.426648 
C 132.533108 212.376533 135.021937 214.17807 137.614759 215.820958 
C 140.207582 217.463847 142.899447 218.94495 145.674963 220.255798 
L 177.495519 152.880766 
z
" style="fill: #ffffff"/>
   </g>
   <g id="patch_35">
    <path d="M 145.674963 220.255798 
C 147.85546 221.285626 150.084665 222.208993 152.354707 223.022639 
C 154.624749 223.836286 156.932953 224.539253 159.271166 225.129058 
L 177.495519 152.880766 
z
" style="fill: #ffffff"/>
   </g>
   <g id="patch_36">
    <path d="M 159.271166 225.129058 
C 162.247436 225.879811 165.267255 226.445935 168.313355 226.824195 
C 171.359456 227.202454 174.426023 227.392126 177.495519 227.392126 
L 177.495519 152.880766 
z
" style="fill: #ffffff"/>
   </g>
   <g id="patch_37">
    <path d="M 177.495519 227.392126 
C 182.321265 227.392126 187.135617 226.923315 191.870703 225.992303 
C 196.605789 225.061291 201.23925 223.672474 205.705762 221.845431 
L 177.495519 152.880766 
z
" style="fill: #ffffff"/>
   </g>
   <g id="patch_38">
    <path d="M 205.705762 221.845431 
C 210.782502 219.768772 215.61445 217.137872 220.113703 214.000592 
C 224.612956 210.863313 228.752064 207.238794 232.455728 203.192972 
L 177.495519 152.880766 
z
" style="fill: #ffffff"/>
   </g>
   <g id="patch_39">
    <path d="M 232.455728 203.192972 
C 236.010965 199.309292 239.144557 195.059689 241.803954 190.51543 
C 244.463351 185.971172 246.633603 181.157802 248.278315 176.156042 
L 177.495519 152.880766 
z
" style="fill: #ffffff"/>
   </g>
   <g id="patch_40">
    <path d="M 248.278315 176.156042 
C 248.483715 175.531396 248.680838 174.904059 248.869631 174.274195 
C 249.058425 173.64433 249.238872 173.011995 249.410926 172.377354 
L 177.495519 152.880766 
z
" style="fill: #ffffff"/>
   </g>
   <g id="patch_41">
    <path d="M 249.410926 172.377354 
C 250.271498 169.203037 250.920956 165.975222 251.355039 162.715092 
C 251.789122 159.454963 252.006879 156.169667 252.006879 152.880766 
L 177.495519 152.880766 
z
" style="fill: #ffffff"/>
   </g>
   <g id="matplotlib.axis_1"/>
   <g id="matplotlib.axis_2"/>
   <g id="text_1">
    <!-- A [21] -->
    <g transform="translate(316.119944 129.652263) scale(0.1 -0.1)">
     <defs>
      <path id="DejaVuSans-41" d="M 2188 4044 
L 1331 1722 
L 3047 1722 
L 2188 4044 
z
M 1831 4666 
L 2547 4666 
L 4325 0 
L 3669 0 
L 3244 1197 
L 1141 1197 
L 716 0 
L 50 0 
L 1831 4666 
z
" transform="scale(0.015625)"/>
      <path id="DejaVuSans-20" transform="scale(0.015625)"/>
      <path id="DejaVuSans-5b" d="M 550 4863 
L 1875 4863 
L 1875 4416 
L 1125 4416 
L 1125 -397 
L 1875 -397 
L 1875 -844 
L 550 -844 
L 550 4863 
z
" transform="scale(0.015625)"/>
      <path id="DejaVuSans-32" d="M 1228 531 
L 3431 531 
L 3431 0 
L 469 0 
L 469 531 
Q 828 903 1448 1529 
Q 2069 2156 2228 2338 
Q 2531 2678 2651 2914 
Q 2772 3150 2772 3378 
Q 2772 3750 2511 3984 
Q 2250 4219 1831 4219 
Q 1534 4219 1204 4116 
Q 875 4013 500 3803 
L 500 4441 
Q 881 4594 1212 4672 
Q 1544 4750 1819 4750 
Q 2544 4750 2975 4387 
Q 3406 4025 3406 3419 
Q 3406 3131 3298 2873 
Q 3191 2616 2906 2266 
Q 2828 2175 2409 1742 
Q 1991 1309 1228 531 
z
" transform="scale(0.015625)"/>
      <path id="DejaVuSans-31" d="M 794 531 
L 1825 531 
L 1825 4091 
L 703 3866 
L 703 4441 
L 1819 4666 
L 2450 4666 
L 2450 531 
L 3481 531 
L 3481 0 
L 794 0 
L 794 531 
z
" transform="scale(0.015625)"/>
      <path id="DejaVuSans-5d" d="M 1947 4863 
L 1947 -844 
L 622 -844 
L 622 -397 
L 1369 -397 
L 1369 4416 
L 622 4416 
L 622 4863 
L 1947 4863 
z
" transform="scale(0.015625)"/>
     </defs>
     <use xlink:href="#DejaVuSans-41"/>
     <use xlink:href="#DejaVuSans-20" x="68.408203"/>
     <use xlink:href="#DejaVuSans-5b" x="100.195312"/>
     <use xlink:href="#DejaVuSans-32" x="139.208984"/>
     <use xlink:href="#DejaVuSans-31" x="202.832031"/>
     <use xlink:href="#DejaVuSans-5d" x="266.455078"/>
    </g>
   </g>
   <g id="text_2">
    <!-- C [15] -->
    <g transform="translate(301.065259 87.650287) scale(0.1 -0.1)">
     <defs>
      <path id="DejaVuSans-43" d="M 4122 4306 
L 4122 3641 
Q 3803 3938 3442 4084 
Q 3081 4231 2675 4231 
Q 1875 4231 1450 3742 
Q 1025 3253 1025 2328 
Q 1025 1406 1450 917 
Q 1875 428 2675 428 
Q 3081 428 3442 575 
Q 3803 722 4122 1019 
L 4122 359 
Q 3791 134 3420 21 
Q 3050 -91 2638 -91 
Q 1578 -91 968 557 
Q 359 1206 359 2328 
Q 359 3453 968 4101 
Q 1578 4750 2638 4750 
Q 3056 4750 3426 4639 
Q 3797 4528 4122 4306 
z
" transform="scale(0.015625)"/>
      <path id="DejaVuSans-35" d="M 691 4666 
L 3169 4666 
L 3169 4134 
L 1269 4134 
L 1269 2991 
Q 1406 3038 1543 3061 
Q 1681 3084 1819 3084 
Q 2600 3084 3056 2656 
Q 3513 2228 3513 1497 
Q 3513 744 3044 326 
Q 2575 -91 1722 -91 
Q 1428 -91 1123 -41 
Q 819 9 494 109 
L 494 744 
Q 775 591 1075 516 
Q 1375 441 1709 441 
Q 2250 441 2565 725 
Q 2881 1009 2881 1497 
Q 2881 1984 2565 2268 
Q 2250 2553 1709 2553 
Q 1456 2553 1204 2497 
Q 953 2441 691 2322 
L 691 4666 
z
" transform="scale(0.015625)"/>
     </defs>
     <use xlink:href="#DejaVuSans-43"/>
     <use xlink:href="#DejaVuSans-20" x="69.824219"/>
     <use xlink:href="#DejaVuSans-5b" x="101.611328"/>
     <use xlink:href="#DejaVuSans-31" x="140.625"/>
     <use xlink:href="#DejaVuSans-35" x="204.248047"/>
     <use xlink:href="#DejaVuSans-5d" x="267.871094"/>
    </g>
   </g>
   <g id="text_3">
    <!-- D [8] -->
    <g transform="translate(284.823479 64.137081) scale(0.1 -0.1)">
     <defs>
      <path id="DejaVuSans-44" d="M 1259 4147 
L 1259 519 
L 2022 519 
Q 2988 519 3436 956 
Q 3884 1394 3884 2338 
Q 3884 3275 3436 3711 
Q 2988 4147 2022 4147 
L 1259 4147 
z
M 628 4666 
L 1925 4666 
Q 3281 4666 3915 4102 
Q 4550 3538 4550 2338 
Q 4550 1131 3912 565 
Q 3275 0 1925 0 
L 628 0 
L 628 4666 
z
" transform="scale(0.015625)"/>
      <path id="DejaVuSans-38" d="M 2034 2216 
Q 1584 2216 1326 1975 
Q 1069 1734 1069 1313 
Q 1069 891 1326 650 
Q 1584 409 2034 409 
Q 2484 409 2743 651 
Q 3003 894 3003 1313 
Q 3003 1734 2745 1975 
Q 2488 2216 2034 2216 
z
M 1403 2484 
Q 997 2584 770 2862 
Q 544 3141 544 3541 
Q 544 4100 942 4425 
Q 1341 4750 2034 4750 
Q 2731 4750 3128 4425 
Q 3525 4100 3525 3541 
Q 3525 3141 3298 2862 
Q 3072 2584 2669 2484 
Q 3125 2378 3379 2068 
Q 3634 1759 3634 1313 
Q 3634 634 3220 271 
Q 2806 -91 2034 -91 
Q 1263 -91 848 271 
Q 434 634 434 1313 
Q 434 1759 690 2068 
Q 947 2378 1403 2484 
z
M 1172 3481 
Q 1172 3119 1398 2916 
Q 1625 2713 2034 2713 
Q 2441 2713 2670 2916 
Q 2900 3119 2900 3481 
Q 2900 3844 2670 4047 
Q 2441 4250 2034 4250 
Q 1625 4250 1398 4047 
Q 1172 3844 1172 3481 
z
" transform="scale(0.015625)"/>
     </defs>
     <use xlink:href="#DejaVuSans-44"/>
     <use xlink:href="#DejaVuSans-20" x="77.001953"/>
     <use xlink:href="#DejaVuSans-5b" x="108.789062"/>
     <use xlink:href="#DejaVuSans-38" x="147.802734"/>
     <use xlink:href="#DejaVuSans-5d" x="211.425781"/>
    </g>
   </g>
   <g id="text_4">
    <!-- E [14] -->
    <g transform="translate(265.153814 45.14976) scale(0.1 -0.1)">
     <defs>
      <path id="DejaVuSans-45" d="M 628 4666 
L 3578 4666 
L 3578 4134 
L 1259 4134 
L 1259 2753 
L 3481 2753 
L 3481 2222 
L 1259 2222 
L 1259 531 
L 3634 531 
L 3634 0 
L 628 0 
L 628 4666 
z
" transform="scale(0.015625)"/>
      <path id="DejaVuSans-34" d="M 2419 4116 
L 825 1625 
L 2419 1625 
L 2419 4116 
z
M 2253 4666 
L 3047 4666 
L 3047 1625 
L 3713 1625 
L 3713 1100 
L 3047 1100 
L 3047 0 
L 2419 0 
L 2419 1100 
L 313 1100 
L 313 1709 
L 2253 4666 
z
" transform="scale(0.015625)"/>
     </defs>
     <use xlink:href="#DejaVuSans-45"/>
     <use xlink:href="#DejaVuSans-20" x="63.183594"/>
     <use xlink:href="#DejaVuSans-5b" x="94.970703"/>
     <use xlink:href="#DejaVuSans-31" x="133.984375"/>
     <use xlink:href="#DejaVuSans-34" x="197.607422"/>
     <use xlink:href="#DejaVuSans-5d" x="261.230469"/>
    </g>
   </g>
   <g id="text_5">
    <!-- F [22] -->
    <g transform="translate(226.253254 23.296708) scale(0.1 -0.1)">
     <defs>
      <path id="DejaVuSans-46" d="M 628 4666 
L 3309 4666 
L 3309 4134 
L 1259 4134 
L 1259 2759 
L 3109 2759 
L 3109 2228 
L 1259 2228 
L 1259 0 
L 628 0 
L 628 4666 
z
" transform="scale(0.015625)"/>
     </defs>
     <use xlink:href="#DejaVuSans-46"/>
     <use xlink:href="#DejaVuSans-20" x="57.519531"/>
     <use xlink:href="#DejaVuSans-5b" x="89.306641"/>
     <use xlink:href="#DejaVuSans-32" x="128.320312"/>
     <use xlink:href="#DejaVuSans-32" x="191.943359"/>
     <use xlink:href="#DejaVuSans-5d" x="255.566406"/>
    </g>
   </g>
   <g id="text_6">
    <!-- G [12] -->
    <g transform="translate(184.959805 14.798437) scale(0.1 -0.1)">
     <defs>
      <path id="DejaVuSans-47" d="M 3809 666 
L 3809 1919 
L 2778 1919 
L 2778 2438 
L 4434 2438 
L 4434 434 
Q 4069 175 3628 42 
Q 3188 -91 2688 -91 
Q 1594 -91 976 548 
Q 359 1188 359 2328 
Q 359 3472 976 4111 
Q 1594 4750 2688 4750 
Q 3144 4750 3555 4637 
Q 3966 4525 4313 4306 
L 4313 3634 
Q 3963 3931 3569 4081 
Q 3175 4231 2741 4231 
Q 1884 4231 1454 3753 
Q 1025 3275 1025 2328 
Q 1025 1384 1454 906 
Q 1884 428 2741 428 
Q 3075 428 3337 486 
Q 3600 544 3809 666 
z
" transform="scale(0.015625)"/>
     </defs>
     <use xlink:href="#DejaVuSans-47"/>
     <use xlink:href="#DejaVuSans-20" x="77.490234"/>
     <use xlink:href="#DejaVuSans-5b" x="109.277344"/>
     <use xlink:href="#DejaVuSans-31" x="148.291016"/>
     <use xlink:href="#DejaVuSans-32" x="211.914062"/>
     <use xlink:href="#DejaVuSans-5d" x="275.537109"/>
    </g>
   </g>
   <g id="text_7">
    <!-- H [10] -->
    <g transform="translate(126.420978 16.004333) scale(0.1 -0.1)">
     <defs>
      <path id="DejaVuSans-48" d="M 628 4666 
L 1259 4666 
L 1259 2753 
L 3553 2753 
L 3553 4666 
L 4184 4666 
L 4184 0 
L 3553 0 
L 3553 2222 
L 1259 2222 
L 1259 0 
L 628 0 
L 628 4666 
z
" transform="scale(0.015625)"/>
      <path id="DejaVuSans-30" d="M 2034 4250 
Q 1547 4250 1301 3770 
Q 1056 3291 1056 2328 
Q 1056 1369 1301 889 
Q 1547 409 2034 409 
Q 2525 409 2770 889 
Q 3016 1369 3016 2328 
Q 3016 3291 2770 3770 
Q 2525 4250 2034 4250 
z
M 2034 4750 
Q 2819 4750 3233 4129 
Q 3647 3509 3647 2328 
Q 3647 1150 3233 529 
Q 2819 -91 2034 -91 
Q 1250 -91 836 529 
Q 422 1150 422 2328 
Q 422 3509 836 4129 
Q 1250 4750 2034 4750 
z
" transform="scale(0.015625)"/>
     </defs>
     <use xlink:href="#DejaVuSans-48"/>
     <use xlink:href="#DejaVuSans-20" x="75.195312"/>
     <use xlink:href="#DejaVuSans-5b" x="106.982422"/>
     <use xlink:href="#DejaVuSans-31" x="145.996094"/>
     <use xlink:href="#DejaVuSans-30" x="209.619141"/>
     <use xlink:href="#DejaVuSans-5d" x="273.242188"/>
    </g>
   </g>
   <g id="text_8">
    <!-- I [35] -->
    <g transform="translate(78.530809 34.546839) scale(0.1 -0.1)">
     <defs>
      <path id="DejaVuSans-49" d="M 628 4666 
L 1259 4666 
L 1259 0 
L 628 0 
L 628 4666 
z
" transform="scale(0.015625)"/>
      <path id="DejaVuSans-33" d="M 2597 2516 
Q 3050 2419 3304 2112 
Q 3559 1806 3559 1356 
Q 3559 666 3084 287 
Q 2609 -91 1734 -91 
Q 1441 -91 1130 -33 
Q 819 25 488 141 
L 488 750 
Q 750 597 1062 519 
Q 1375 441 1716 441 
Q 2309 441 2620 675 
Q 2931 909 2931 1356 
Q 2931 1769 2642 2001 
Q 2353 2234 1838 2234 
L 1294 2234 
L 1294 2753 
L 1863 2753 
Q 2328 2753 2575 2939 
Q 2822 3125 2822 3475 
Q 2822 3834 2567 4026 
Q 2313 4219 1838 4219 
Q 1578 4219 1281 4162 
Q 984 4106 628 3988 
L 628 4550 
Q 988 4650 1302 4700 
Q 1616 4750 1894 4750 
Q 2613 4750 3031 4423 
Q 3450 4097 3450 3541 
Q 3450 3153 3228 2886 
Q 3006 2619 2597 2516 
z
" transform="scale(0.015625)"/>
     </defs>
     <use xlink:href="#DejaVuSans-49"/>
     <use xlink:href="#DejaVuSans-20" x="29.492188"/>
     <use xlink:href="#DejaVuSans-5b" x="61.279297"/>
     <use xlink:href="#DejaVuSans-33" x="100.292969"/>
     <use xlink:href="#DejaVuSans-35" x="163.916016"/>
     <use xlink:href="#DejaVuSans-5d" x="227.539062"/>
    </g>
   </g>
   <g id="text_9">
    <!-- K [23] -->
    <g transform="translate(24.880877 85.480062) scale(0.1 -0.1)">
     <defs>
      <path id="DejaVuSans-4b" d="M 628 4666 
L 1259 4666 
L 1259 2694 
L 3353 4666 
L 4166 4666 
L 1850 2491 
L 4331 0 
L 3500 0 
L 1259 2247 
L 1259 0 
L 628 0 
L 628 4666 
z
" transform="scale(0.015625)"/>
     </defs>
     <use xlink:href="#DejaVuSans-4b"/>
     <use xlink:href="#DejaVuSans-20" x="65.576172"/>
     <use xlink:href="#DejaVuSans-5b" x="97.363281"/>
     <use xlink:href="#DejaVuSans-32" x="136.376953"/>
     <use xlink:href="#DejaVuSans-33" x="200"/>
     <use xlink:href="#DejaVuSans-5d" x="263.623047"/>
    </g>
   </g>
   <g id="text_10">
    <!-- L [38] -->
    <g transform="translate(7.2 158.129273) scale(0.1 -0.1)">
     <defs>
      <path id="DejaVuSans-4c" d="M 628 4666 
L 1259 4666 
L 1259 531 
L 3531 531 
L 3531 0 
L 628 0 
L 628 4666 
z
" transform="scale(0.015625)"/>
     </defs>
     <use xlink:href="#DejaVuSans-4c"/>
     <use xlink:href="#DejaVuSans-20" x="55.712891"/>
     <use xlink:href="#DejaVuSans-5b" x="87.5"/>
     <use xlink:href="#DejaVuSans-33" x="126.513672"/>
     <use xlink:href="#DejaVuSans-38" x="190.136719"/>
     <use xlink:href="#DejaVuSans-5d" x="253.759766"/>
    </g>
   </g>
   <g id="text_11">
    <!-- M [13] -->
    <g transform="translate(19.268917 219.226683) scale(0.1 -0.1)">
     <defs>
      <path id="DejaVuSans-4d" d="M 628 4666 
L 1569 4666 
L 2759 1491 
L 3956 4666 
L 4897 4666 
L 4897 0 
L 4281 0 
L 4281 4097 
L 3078 897 
L 2444 897 
L 1241 4097 
L 1241 0 
L 628 0 
L 628 4666 
z
" transform="scale(0.015625)"/>
     </defs>
     <use xlink:href="#DejaVuSans-4d"/>
     <use xlink:href="#DejaVuSans-20" x="86.279297"/>
     <use xlink:href="#DejaVuSans-5b" x="118.066406"/>
     <use xlink:href="#DejaVuSans-31" x="157.080078"/>
     <use xlink:href="#DejaVuSans-33" x="220.703125"/>
     <use xlink:href="#DejaVuSans-5d" x="284.326172"/>
    </g>
   </g>
   <g id="text_12">
    <!-- N [17] -->
    <g transform="translate(41.439844 249.952214) scale(0.1 -0.1)">
     <defs>
      <path id="DejaVuSans-4e" d="M 628 4666 
L 1478 4666 
L 3547 763 
L 3547 4666 
L 4159 4666 
L 4159 0 
L 3309 0 
L 1241 3903 
L 1241 0 
L 628 0 
L 628 4666 
z
" transform="scale(0.015625)"/>
      <path id="DejaVuSans-37" d="M 525 4666 
L 3525 4666 
L 3525 4397 
L 1831 0 
L 1172 0 
L 2766 4134 
L 525 4134 
L 525 4666 
z
" transform="scale(0.015625)"/>
     </defs>
     <use xlink:href="#DejaVuSans-4e"/>
     <use xlink:href="#DejaVuSans-20" x="74.804688"/>
     <use xlink:href="#DejaVuSans-5b" x="106.591797"/>
     <use xlink:href="#DejaVuSans-31" x="145.605469"/>
     <use xlink:href="#DejaVuSans-37" x="209.228516"/>
     <use xlink:href="#DejaVuSans-5d" x="272.851562"/>
    </g>
   </g>
   <g id="text_13">
    <!-- P [14] -->
    <g transform="translate(72.271001 274.776934) scale(0.1 -0.1)">
     <defs>
      <path id="DejaVuSans-50" d="M 1259 4147 
L 1259 2394 
L 2053 2394 
Q 2494 2394 2734 2622 
Q 2975 2850 2975 3272 
Q 2975 3691 2734 3919 
Q 2494 4147 2053 4147 
L 1259 4147 
z
M 628 4666 
L 2053 4666 
Q 2838 4666 3239 4311 
Q 3641 3956 3641 3272 
Q 3641 2581 3239 2228 
Q 2838 1875 2053 1875 
L 1259 1875 
L 1259 0 
L 628 0 
L 628 4666 
z
" transform="scale(0.015625)"/>
     </defs>
     <use xlink:href="#DejaVuSans-50"/>
     <use xlink:href="#DejaVuSans-20" x="60.302734"/>
     <use xlink:href="#DejaVuSans-5b" x="92.089844"/>
     <use xlink:href="#DejaVuSans-31" x="131.103516"/>
     <use xlink:href="#DejaVuSans-34" x="194.726562"/>
     <use xlink:href="#DejaVuSans-5d" x="258.349609"/>
    </g>
   </g>
   <g id="text_14">
    <!-- Q [11] -->
    <g transform="translate(98.329429 288.408687) scale(0.1 -0.1)">
     <defs>
      <path id="DejaVuSans-51" d="M 2522 4238 
Q 1834 4238 1429 3725 
Q 1025 3213 1025 2328 
Q 1025 1447 1429 934 
Q 1834 422 2522 422 
Q 3209 422 3611 934 
Q 4013 1447 4013 2328 
Q 4013 3213 3611 3725 
Q 3209 4238 2522 4238 
z
M 3406 84 
L 4238 -825 
L 3475 -825 
L 2784 -78 
Q 2681 -84 2626 -87 
Q 2572 -91 2522 -91 
Q 1538 -91 948 567 
Q 359 1225 359 2328 
Q 359 3434 948 4092 
Q 1538 4750 2522 4750 
Q 3503 4750 4090 4092 
Q 4678 3434 4678 2328 
Q 4678 1516 4351 937 
Q 4025 359 3406 84 
z
" transform="scale(0.015625)"/>
     </defs>
     <use xlink:href="#DejaVuSans-51"/>
     <use xlink:href="#DejaVuSans-20" x="78.710938"/>
     <use xlink:href="#DejaVuSans-5b" x="110.498047"/>
     <use xlink:href="#DejaVuSans-31" x="149.511719"/>
     <use xlink:href="#DejaVuSans-31" x="213.134766"/>
     <use xlink:href="#DejaVuSans-5d" x="276.757812"/>
    </g>
   </g>
   <g id="text_15">
    <!-- R [14] -->
    <g transform="translate(129.460308 295.604488) scale(0.1 -0.1)">
     <defs>
      <path id="DejaVuSans-52" d="M 2841 2188 
Q 3044 2119 3236 1894 
Q 3428 1669 3622 1275 
L 4263 0 
L 3584 0 
L 2988 1197 
Q 2756 1666 2539 1819 
Q 2322 1972 1947 1972 
L 1259 1972 
L 1259 0 
L 628 0 
L 628 4666 
L 2053 4666 
Q 2853 4666 3247 4331 
Q 3641 3997 3641 3322 
Q 3641 2881 3436 2590 
Q 3231 2300 2841 2188 
z
M 1259 4147 
L 1259 2491 
L 2053 2491 
Q 2509 2491 2742 2702 
Q 2975 2913 2975 3322 
Q 2975 3731 2742 3939 
Q 2509 4147 2053 4147 
L 1259 4147 
z
" transform="scale(0.015625)"/>
     </defs>
     <use xlink:href="#DejaVuSans-52"/>
     <use xlink:href="#DejaVuSans-20" x="69.482422"/>
     <use xlink:href="#DejaVuSans-5b" x="101.269531"/>
     <use xlink:href="#DejaVuSans-31" x="140.283203"/>
     <use xlink:href="#DejaVuSans-34" x="203.90625"/>
     <use xlink:href="#DejaVuSans-5d" x="267.529297"/>
    </g>
   </g>
   <g id="text_16">
    <!-- S [22] -->
    <g transform="translate(204.705689 294.029836) scale(0.1 -0.1)">
     <defs>
      <path id="DejaVuSans-53" d="M 3425 4513 
L 3425 3897 
Q 3066 4069 2747 4153 
Q 2428 4238 2131 4238 
Q 1616 4238 1336 4038 
Q 1056 3838 1056 3469 
Q 1056 3159 1242 3001 
Q 1428 2844 1947 2747 
L 2328 2669 
Q 3034 2534 3370 2195 
Q 3706 1856 3706 1288 
Q 3706 609 3251 259 
Q 2797 -91 1919 -91 
Q 1588 -91 1214 -16 
Q 841 59 441 206 
L 441 856 
Q 825 641 1194 531 
Q 1563 422 1919 422 
Q 2459 422 2753 634 
Q 3047 847 3047 1241 
Q 3047 1584 2836 1778 
Q 2625 1972 2144 2069 
L 1759 2144 
Q 1053 2284 737 2584 
Q 422 2884 422 3419 
Q 422 4038 858 4394 
Q 1294 4750 2059 4750 
Q 2388 4750 2728 4690 
Q 3069 4631 3425 4513 
z
" transform="scale(0.015625)"/>
     </defs>
     <use xlink:href="#DejaVuSans-53"/>
     <use xlink:href="#DejaVuSans-20" x="63.476562"/>
     <use xlink:href="#DejaVuSans-5b" x="95.263672"/>
     <use xlink:href="#DejaVuSans-32" x="134.277344"/>
     <use xlink:href="#DejaVuSans-32" x="197.900391"/>
     <use xlink:href="#DejaVuSans-5d" x="261.523438"/>
    </g>
   </g>
   <g id="text_17">
    <!-- T [25] -->
    <g transform="translate(258.165653 271.331241) scale(0.1 -0.1)">
     <defs>
      <path id="DejaVuSans-54" d="M -19 4666 
L 3928 4666 
L 3928 4134 
L 2272 4134 
L 2272 0 
L 1638 0 
L 1638 4134 
L -19 4134 
L -19 4666 
z
" transform="scale(0.015625)"/>
     </defs>
     <use xlink:href="#DejaVuSans-54"/>
     <use xlink:href="#DejaVuSans-20" x="61.083984"/>
     <use xlink:href="#DejaVuSans-5b" x="92.871094"/>
     <use xlink:href="#DejaVuSans-32" x="131.884766"/>
     <use xlink:href="#DejaVuSans-35" x="195.507812"/>
     <use xlink:href="#DejaVuSans-5d" x="259.130859"/>
    </g>
   </g>
   <g id="text_18">
    <!-- V [24] -->
    <g transform="translate(299.222199 226.877184) scale(0.1 -0.1)">
     <defs>
      <path id="DejaVuSans-56" d="M 1831 0 
L 50 4666 
L 709 4666 
L 2188 738 
L 3669 4666 
L 4325 4666 
L 2547 0 
L 1831 0 
z
" transform="scale(0.015625)"/>
     </defs>
     <use xlink:href="#DejaVuSans-56"/>
     <use xlink:href="#DejaVuSans-20" x="68.408203"/>
     <use xlink:href="#DejaVuSans-5b" x="100.195312"/>
     <use xlink:href="#DejaVuSans-32" x="139.208984"/>
     <use xlink:href="#DejaVuSans-34" x="202.832031"/>
     <use xlink:href="#DejaVuSans-5d" x="266.455078"/>
    </g>
   </g>
   <g id="text_19">
    <!-- W [3] -->
    <g transform="translate(312.596518 196.134845) scale(0.1 -0.1)">
     <defs>
      <path id="DejaVuSans-57" d="M 213 4666 
L 850 4666 
L 1831 722 
L 2809 4666 
L 3519 4666 
L 4500 722 
L 5478 4666 
L 6119 4666 
L 4947 0 
L 4153 0 
L 3169 4050 
L 2175 0 
L 1381 0 
L 213 4666 
z
" transform="scale(0.015625)"/>
     </defs>
     <use xlink:href="#DejaVuSans-57"/>
     <use xlink:href="#DejaVuSans-20" x="98.876953"/>
     <use xlink:href="#DejaVuSans-5b" x="130.664062"/>
     <use xlink:href="#DejaVuSans-33" x="169.677734"/>
     <use xlink:href="#DejaVuSans-5d" x="233.300781"/>
    </g>
   </g>
   <g id="text_20">
    <!-- Y [15] -->
    <g transform="translate(317.30104 174.255116) scale(0.1 -0.1)">
     <defs>
      <path id="DejaVuSans-59" d="M -13 4666 
L 666 4666 
L 1959 2747 
L 3244 4666 
L 3922 4666 
L 2272 2222 
L 2272 0 
L 1638 0 
L 1638 2222 
L -13 4666 
z
" transform="scale(0.015625)"/>
     </defs>
     <use xlink:href="#DejaVuSans-59"/>
     <use xlink:href="#DejaVuSans-20" x="61.083984"/>
     <use xlink:href="#DejaVuSans-5b" x="92.871094"/>
     <use xlink:href="#DejaVuSans-31" x="131.884766"/>
     <use xlink:href="#DejaVuSans-35" x="195.507812"/>
     <use xlink:href="#DejaVuSans-5d" x="259.130859"/>
    </g>
   </g>
   <g id="text_21">
    <!-- A0A8I3PIK0 [356] -->
    <g transform="translate(124.883019 152.880766) scale(0.12 -0.12)">
     <defs>
      <path id="DejaVuSans-36" d="M 2113 2584 
Q 1688 2584 1439 2293 
Q 1191 2003 1191 1497 
Q 1191 994 1439 701 
Q 1688 409 2113 409 
Q 2538 409 2786 701 
Q 3034 994 3034 1497 
Q 3034 2003 2786 2293 
Q 2538 2584 2113 2584 
z
M 3366 4563 
L 3366 3988 
Q 3128 4100 2886 4159 
Q 2644 4219 2406 4219 
Q 1781 4219 1451 3797 
Q 1122 3375 1075 2522 
Q 1259 2794 1537 2939 
Q 1816 3084 2150 3084 
Q 2853 3084 3261 2657 
Q 3669 2231 3669 1497 
Q 3669 778 3244 343 
Q 2819 -91 2113 -91 
Q 1303 -91 875 529 
Q 447 1150 447 2328 
Q 447 3434 972 4092 
Q 1497 4750 2381 4750 
Q 2619 4750 2861 4703 
Q 3103 4656 3366 4563 
z
" transform="scale(0.015625)"/>
     </defs>
     <use xlink:href="#DejaVuSans-41"/>
     <use xlink:href="#DejaVuSans-30" x="68.408203"/>
     <use xlink:href="#DejaVuSans-41" x="132.03125"/>
     <use xlink:href="#DejaVuSans-38" x="200.439453"/>
     <use xlink:href="#DejaVuSans-49" x="264.0625"/>
     <use xlink:href="#DejaVuSans-33" x="293.554688"/>
     <use xlink:href="#DejaVuSans-50" x="357.177734"/>
     <use xlink:href="#DejaVuSans-49" x="417.480469"/>
     <use xlink:href="#DejaVuSans-4b" x="446.972656"/>
     <use xlink:href="#DejaVuSans-30" x="512.548828"/>
     <use xlink:href="#DejaVuSans-20" x="576.171875"/>
     <use xlink:href="#DejaVuSans-5b" x="607.958984"/>
     <use xlink:href="#DejaVuSans-33" x="646.972656"/>
     <use xlink:href="#DejaVuSans-35" x="710.595703"/>
     <use xlink:href="#DejaVuSans-36" x="774.21875"/>
     <use xlink:href="#DejaVuSans-5d" x="837.841797"/>
    </g>
   </g>
  </g>
 </g>
</svg>
