<?xml version="1.0" encoding="utf-8" standalone="no"?>
<!DOCTYPE svg PUBLIC "-//W3C//DTD SVG 1.1//EN"
  "http://www.w3.org/Graphics/SVG/1.1/DTD/svg11.dtd">
<svg xmlns:xlink="http://www.w3.org/1999/xlink" width="355.94203pt" height="304.97439pt" viewBox="0 0 355.94203 304.97439" xmlns="http://www.w3.org/2000/svg" version="1.1">
 <metadata>
  <rdf:RDF xmlns:dc="http://purl.org/dc/elements/1.1/" xmlns:cc="http://creativecommons.org/ns#" xmlns:rdf="http://www.w3.org/1999/02/22-rdf-syntax-ns#">
   <cc:Work>
    <dc:type rdf:resource="http://purl.org/dc/dcmitype/StillImage"/>
    <dc:date>2024-09-27T16:07:26.174862</dc:date>
    <dc:format>image/svg+xml</dc:format>
    <dc:creator>
     <cc:Agent>
      <dc:title>Matplotlib v3.8.3, https://matplotlib.org/</dc:title>
     </cc:Agent>
    </dc:creator>
   </cc:Work>
  </rdf:RDF>
 </metadata>
 <defs>
  <style type="text/css">*{stroke-linejoin: round; stroke-linecap: butt}</style>
 </defs>
 <g id="figure_1">
  <g id="patch_1">
   <path d="M 0 304.97439 
L 355.94203 304.97439 
L 355.94203 0 
L 0 0 
z
" style="fill: #ffffff"/>
  </g>
  <g id="axes_1">
   <g id="patch_2">
    <path d="M 306.885338 152.068658 
C 306.885338 141.334029 305.532145 130.642088 302.857792 120.24593 
C 300.183439 109.849772 296.209195 99.832081 291.029138 90.429993 
L 179.151578 152.068658 
z
" style="fill: #1f77b4"/>
   </g>
   <g id="patch_3">
    <path d="M 290.959474 90.271824 
C 289.430842 87.497273 287.799526 84.780548 286.068911 82.127282 
C 284.338295 79.474017 282.509578 76.886048 280.586551 74.368745 
L 179.081914 151.910489 
z
" style="fill: #ff7f0e"/>
   </g>
   <g id="patch_4">
    <path d="M 280.534452 74.301349 
C 278.315491 71.396657 275.972869 68.588551 273.513057 65.884786 
C 271.053244 63.181021 268.478507 60.584088 265.795955 58.101158 
L 179.029815 151.843093 
z
" style="fill: #aec7e8"/>
   </g>
   <g id="patch_5">
    <path d="M 265.694313 58.014372 
C 260.505868 53.212025 254.927667 48.848714 249.017209 44.969414 
C 243.10675 41.090115 236.884412 37.708202 230.414335 34.858538 
L 178.928173 151.756307 
z
" style="fill: #ffbb78"/>
   </g>
   <g id="patch_6">
    <path d="M 230.262252 34.78999 
C 224.462146 32.235406 218.479948 30.116035 212.365243 28.449445 
C 206.250538 26.782855 200.020267 25.573662 193.72607 24.831891 
L 178.77609 151.68776 
z
" style="fill: #98df8a"/>
   </g>
   <g id="patch_7">
    <path d="M 193.52685 24.81647 
C 183.837379 23.674564 174.048902 23.646557 164.353055 24.732997 
C 154.657209 25.819436 145.117684 28.013186 135.921244 31.271296 
L 178.576869 151.672339 
z
" style="fill: #2ca02c"/>
   </g>
   <g id="patch_8">
    <path d="M 135.771573 31.310713 
C 133.245097 32.205791 130.747421 33.180171 128.282254 34.232404 
C 125.817088 35.284637 123.385651 36.414202 120.991557 37.619422 
L 178.427198 151.711755 
z
" style="fill: #d62728"/>
   </g>
   <g id="patch_9">
    <path d="M 120.893355 37.674261 
C 115.232445 40.52404 109.791473 43.791187 104.615537 47.448621 
C 99.439601 51.106056 94.543041 55.143645 89.966443 59.527922 
L 178.328996 151.766594 
z
" style="fill: #9467bd"/>
   </g>
   <g id="patch_10">
    <path d="M 89.865875 59.620473 
C 86.522156 62.82368 83.355086 66.206338 80.378695 69.753462 
C 77.402304 73.300587 74.620992 77.006933 72.047079 80.856085 
L 178.228428 151.859146 
z
" style="fill: #ff9896"/>
   </g>
   <g id="patch_11">
    <path d="M 71.939344 81.065597 
C 63.929706 93.04359 58.004306 106.291003 54.414481 120.245921 
C 50.824655 134.200839 49.62189 148.663124 50.857201 163.019328 
L 178.120693 152.068658 
z
" style="fill: #c5b0d5"/>
   </g>
   <g id="patch_12">
    <path d="M 50.847731 163.23984 
C 51.140202 166.638801 51.568726 170.024681 52.13227 173.389335 
C 52.695815 176.753988 53.393928 180.094715 54.224931 183.403478 
L 178.111223 152.28917 
z
" style="fill: #c49c94"/>
   </g>
   <g id="patch_13">
    <path d="M 54.249716 183.497592 
C 55.318242 187.752086 56.60522 191.948715 58.105533 196.070793 
C 59.605846 200.192872 61.317505 204.23493 63.233702 208.180897 
L 178.136008 152.383284 
z
" style="fill: #8c564b"/>
   </g>
   <g id="patch_14">
    <path d="M 63.289721 208.292175 
C 65.738539 213.334949 68.516674 218.211049 71.606102 222.888838 
C 74.69553 227.566627 78.089555 232.035965 81.766155 236.267855 
L 178.192027 152.494562 
z
" style="fill: #e377c2"/>
   </g>
   <g id="patch_15">
    <path d="M 81.833386 236.350346 
C 83.751108 238.557709 85.744061 240.698571 87.808721 242.769147 
C 89.873382 244.839724 92.008532 246.838795 94.210399 248.762825 
L 178.259258 152.577053 
z
" style="fill: #7f7f7f"/>
   </g>
   <g id="patch_16">
    <path d="M 94.313291 248.843308 
C 100.004614 253.816489 106.126119 258.274736 112.605721 262.165552 
C 119.085323 266.056367 125.897488 269.364418 132.961998 272.05075 
L 178.36215 152.657536 
z
" style="fill: #f7b6d2"/>
   </g>
   <g id="patch_17">
    <path d="M 133.200984 272.125539 
C 145.065173 276.636985 157.535831 279.354908 170.201352 280.1896 
C 182.866874 281.024293 195.586363 279.96647 207.940004 277.051045 
L 178.601136 152.732325 
z
" style="fill: #c7c7c7"/>
   </g>
   <g id="patch_18">
    <path d="M 208.192312 277.005812 
C 216.023525 275.157668 223.662618 272.573683 231.007684 269.28833 
C 238.352749 266.002976 245.370979 262.030928 251.968748 257.425173 
L 178.853444 152.687091 
z
" style="fill: #dbdb8d"/>
   </g>
   <g id="patch_19">
    <path d="M 252.172519 257.26484 
C 262.781325 249.859071 272.203636 240.88427 280.116461 230.648089 
C 288.029285 220.411908 294.341162 209.032663 298.835723 196.900429 
L 179.057215 152.526758 
z
" style="fill: #bcbd22"/>
   </g>
   <g id="patch_20">
    <path d="M 298.926081 196.72221 
C 300.026543 193.751716 301.016122 190.741314 301.892766 187.697247 
C 302.76941 184.65318 303.532512 181.577556 304.180488 178.476754 
L 179.147573 152.348539 
z
" style="fill: #17becf"/>
   </g>
   <g id="patch_21">
    <path d="M 304.198453 178.384191 
C 305.095747 174.09032 305.771255 169.753075 306.222292 165.3897 
C 306.67333 161.026326 306.899298 156.642612 306.899298 152.255988 
L 179.165538 152.255977 
z
" style="fill: #9edae5"/>
   </g>
   <g id="patch_22">
    <path d="M 253.147495 152.201253 
C 253.147495 145.939386 252.358133 139.70242 250.798093 133.637995 
C 249.238054 127.573569 246.919745 121.729916 243.898045 116.245365 
L 178.636135 152.201253 
z
" style="fill: #ffffff"/>
   </g>
   <g id="patch_23">
    <path d="M 243.898045 116.245365 
C 243.006343 114.626877 242.054742 113.04212 241.045217 111.494382 
C 240.035691 109.946644 238.968939 108.436995 237.847173 106.968568 
L 178.636135 152.201253 
z
" style="fill: #ffffff"/>
   </g>
   <g id="patch_24">
    <path d="M 237.847173 106.968568 
C 236.552779 105.274165 235.18625 103.636103 233.751359 102.058907 
C 232.316468 100.481711 230.814538 98.966833 229.249717 97.518457 
L 178.636135 152.201253 
z
" style="fill: #ffffff"/>
   </g>
   <g id="patch_25">
    <path d="M 229.249717 97.518457 
C 226.223124 94.717088 222.969173 92.171823 219.521406 89.908898 
C 216.073638 87.645974 212.443942 85.673192 208.66973 84.010887 
L 178.636135 152.201253 
z
" style="fill: #ffffff"/>
   </g>
   <g id="patch_26">
    <path d="M 208.66973 84.010887 
C 205.286334 82.520713 201.796719 81.284413 198.229808 80.312236 
C 194.662897 79.340058 191.028572 78.634696 187.356957 78.201996 
L 178.636135 152.201253 
z
" style="fill: #ffffff"/>
   </g>
   <g id="patch_27">
    <path d="M 187.356957 78.201996 
C 181.704766 77.535884 175.994821 77.519547 170.33891 78.153303 
C 164.683 78.78706 159.118277 80.066747 153.753687 81.967311 
L 178.636135 152.201253 
z
" style="fill: #ffffff"/>
   </g>
   <g id="patch_28">
    <path d="M 153.753687 81.967311 
C 152.27991 82.48944 150.822932 83.057828 149.384918 83.671631 
C 147.946904 84.285433 146.528566 84.944347 145.132011 85.647391 
L 178.636135 152.201253 
z
" style="fill: #ffffff"/>
   </g>
   <g id="patch_29">
    <path d="M 145.132011 85.647391 
C 141.829814 87.309763 138.655914 89.215598 135.636618 91.349102 
C 132.617322 93.482605 129.760995 95.837865 127.091313 98.39536 
L 178.636135 152.201253 
z
" style="fill: #ffffff"/>
   </g>
   <g id="patch_30">
    <path d="M 127.091313 98.39536 
C 125.14081 100.263898 123.293353 102.237115 121.557124 104.306271 
C 119.820896 106.375427 118.198464 108.537462 116.697015 110.782801 
L 178.636135 152.201253 
z
" style="fill: #ffffff"/>
   </g>
   <g id="patch_31">
    <path d="M 116.697015 110.782801 
C 112.024726 117.769963 108.568243 125.497621 106.474178 133.637989 
C 104.380113 141.778358 103.6785 150.214691 104.399098 158.589144 
L 178.636135 152.201253 
z
" style="fill: #ffffff"/>
   </g>
   <g id="patch_32">
    <path d="M 104.399098 158.589144 
C 104.569707 160.571871 104.819678 162.546968 105.148413 164.509682 
C 105.477147 166.472397 105.88438 168.421154 106.369132 170.351266 
L 178.636135 152.201253 
z
" style="fill: #ffffff"/>
   </g>
   <g id="patch_33">
    <path d="M 106.369132 170.351266 
C 106.992438 172.833054 107.743175 175.281087 108.618358 177.685633 
C 109.493541 180.090179 110.492008 182.448046 111.60979 184.74986 
L 178.636135 152.201253 
z
" style="fill: #ffffff"/>
   </g>
   <g id="patch_34">
    <path d="M 111.60979 184.74986 
C 113.038267 187.691478 114.658846 190.53587 116.461012 193.26458 
C 118.263179 195.99329 120.243026 198.600405 122.38771 201.069007 
L 178.636135 152.201253 
z
" style="fill: #ffffff"/>
   </g>
   <g id="patch_35">
    <path d="M 122.38771 201.069007 
C 123.506381 202.356635 124.668937 203.605471 125.873322 204.813308 
C 127.077707 206.021144 128.323212 207.187269 129.607634 208.30962 
L 178.636135 152.201253 
z
" style="fill: #ffffff"/>
   </g>
   <g id="patch_36">
    <path d="M 129.607634 208.30962 
C 132.927573 211.210642 136.49845 213.811286 140.278218 216.080928 
C 144.057986 218.350571 148.031749 220.280267 152.152713 221.847294 
L 178.636135 152.201253 
z
" style="fill: #ffffff"/>
   </g>
   <g id="patch_37">
    <path d="M 152.152713 221.847294 
C 159.07349 224.478971 166.348041 226.064426 173.736261 226.55133 
C 181.124482 227.038234 188.544184 226.421171 195.750475 224.720506 
L 178.636135 152.201253 
z
" style="fill: #ffffff"/>
   </g>
   <g id="patch_38">
    <path d="M 195.750475 224.720506 
C 200.318682 223.642422 204.77482 222.135098 209.059441 220.218642 
C 213.344063 218.302185 217.43803 215.985157 221.286729 213.298467 
L 178.636135 152.201253 
z
" style="fill: #ffffff"/>
   </g>
   <g id="patch_39">
    <path d="M 221.286729 213.298467 
C 227.475199 208.978435 232.971547 203.743135 237.587362 197.772029 
C 242.203176 191.800924 245.885104 185.163031 248.506931 178.085894 
L 178.636135 152.201253 
z
" style="fill: #ffffff"/>
   </g>
   <g id="patch_40">
    <path d="M 248.506931 178.085894 
C 249.148867 176.353106 249.726122 174.597038 250.237497 172.821332 
C 250.748873 171.045627 251.194016 169.251512 251.572002 167.442711 
L 178.636135 152.201253 
z
" style="fill: #ffffff"/>
   </g>
   <g id="patch_41">
    <path d="M 251.572002 167.442711 
C 252.095423 164.937953 252.48947 162.407893 252.752575 159.862592 
C 253.01568 157.31729 253.147495 154.760124 253.147495 152.20126 
L 178.636135 152.201253 
z
" style="fill: #ffffff"/>
   </g>
   <g id="matplotlib.axis_1"/>
   <g id="matplotlib.axis_2"/>
   <g id="text_1">
    <!-- A [44] -->
    <g transform="translate(315.228413 119.823032) scale(0.1 -0.1)">
     <defs>
      <path id="DejaVuSans-41" d="M 2188 4044 
L 1331 1722 
L 3047 1722 
L 2188 4044 
z
M 1831 4666 
L 2547 4666 
L 4325 0 
L 3669 0 
L 3244 1197 
L 1141 1197 
L 716 0 
L 50 0 
L 1831 4666 
z
" transform="scale(0.015625)"/>
      <path id="DejaVuSans-20" transform="scale(0.015625)"/>
      <path id="DejaVuSans-5b" d="M 550 4863 
L 1875 4863 
L 1875 4416 
L 1125 4416 
L 1125 -397 
L 1875 -397 
L 1875 -844 
L 550 -844 
L 550 4863 
z
" transform="scale(0.015625)"/>
      <path id="DejaVuSans-34" d="M 2419 4116 
L 825 1625 
L 2419 1625 
L 2419 4116 
z
M 2253 4666 
L 3047 4666 
L 3047 1625 
L 3713 1625 
L 3713 1100 
L 3047 1100 
L 3047 0 
L 2419 0 
L 2419 1100 
L 313 1100 
L 313 1709 
L 2253 4666 
z
" transform="scale(0.015625)"/>
      <path id="DejaVuSans-5d" d="M 1947 4863 
L 1947 -844 
L 622 -844 
L 622 -397 
L 1369 -397 
L 1369 4416 
L 622 4416 
L 622 4863 
L 1947 4863 
z
" transform="scale(0.015625)"/>
     </defs>
     <use xlink:href="#DejaVuSans-41"/>
     <use xlink:href="#DejaVuSans-20" x="68.408203"/>
     <use xlink:href="#DejaVuSans-5b" x="100.195312"/>
     <use xlink:href="#DejaVuSans-34" x="139.208984"/>
     <use xlink:href="#DejaVuSans-34" x="202.832031"/>
     <use xlink:href="#DejaVuSans-5d" x="266.455078"/>
    </g>
   </g>
   <g id="text_2">
    <!-- C [13] -->
    <g transform="translate(296.767611 77.908337) scale(0.1 -0.1)">
     <defs>
      <path id="DejaVuSans-43" d="M 4122 4306 
L 4122 3641 
Q 3803 3938 3442 4084 
Q 3081 4231 2675 4231 
Q 1875 4231 1450 3742 
Q 1025 3253 1025 2328 
Q 1025 1406 1450 917 
Q 1875 428 2675 428 
Q 3081 428 3442 575 
Q 3803 722 4122 1019 
L 4122 359 
Q 3791 134 3420 21 
Q 3050 -91 2638 -91 
Q 1578 -91 968 557 
Q 359 1206 359 2328 
Q 359 3453 968 4101 
Q 1578 4750 2638 4750 
Q 3056 4750 3426 4639 
Q 3797 4528 4122 4306 
z
" transform="scale(0.015625)"/>
      <path id="DejaVuSans-31" d="M 794 531 
L 1825 531 
L 1825 4091 
L 703 3866 
L 703 4441 
L 1819 4666 
L 2450 4666 
L 2450 531 
L 3481 531 
L 3481 0 
L 794 0 
L 794 531 
z
" transform="scale(0.015625)"/>
      <path id="DejaVuSans-33" d="M 2597 2516 
Q 3050 2419 3304 2112 
Q 3559 1806 3559 1356 
Q 3559 666 3084 287 
Q 2609 -91 1734 -91 
Q 1441 -91 1130 -33 
Q 819 25 488 141 
L 488 750 
Q 750 597 1062 519 
Q 1375 441 1716 441 
Q 2309 441 2620 675 
Q 2931 909 2931 1356 
Q 2931 1769 2642 2001 
Q 2353 2234 1838 2234 
L 1294 2234 
L 1294 2753 
L 1863 2753 
Q 2328 2753 2575 2939 
Q 2822 3125 2822 3475 
Q 2822 3834 2567 4026 
Q 2313 4219 1838 4219 
Q 1578 4219 1281 4162 
Q 984 4106 628 3988 
L 628 4550 
Q 988 4650 1302 4700 
Q 1616 4750 1894 4750 
Q 2613 4750 3031 4423 
Q 3450 4097 3450 3541 
Q 3450 3153 3228 2886 
Q 3006 2619 2597 2516 
z
" transform="scale(0.015625)"/>
     </defs>
     <use xlink:href="#DejaVuSans-43"/>
     <use xlink:href="#DejaVuSans-20" x="69.824219"/>
     <use xlink:href="#DejaVuSans-5b" x="101.611328"/>
     <use xlink:href="#DejaVuSans-31" x="140.625"/>
     <use xlink:href="#DejaVuSans-33" x="204.248047"/>
     <use xlink:href="#DejaVuSans-5d" x="267.871094"/>
    </g>
   </g>
   <g id="text_3">
    <!-- D [15] -->
    <g transform="translate(282.961381 60.04833) scale(0.1 -0.1)">
     <defs>
      <path id="DejaVuSans-44" d="M 1259 4147 
L 1259 519 
L 2022 519 
Q 2988 519 3436 956 
Q 3884 1394 3884 2338 
Q 3884 3275 3436 3711 
Q 2988 4147 2022 4147 
L 1259 4147 
z
M 628 4666 
L 1925 4666 
Q 3281 4666 3915 4102 
Q 4550 3538 4550 2338 
Q 4550 1131 3912 565 
Q 3275 0 1925 0 
L 628 0 
L 628 4666 
z
" transform="scale(0.015625)"/>
      <path id="DejaVuSans-35" d="M 691 4666 
L 3169 4666 
L 3169 4134 
L 1269 4134 
L 1269 2991 
Q 1406 3038 1543 3061 
Q 1681 3084 1819 3084 
Q 2600 3084 3056 2656 
Q 3513 2228 3513 1497 
Q 3513 744 3044 326 
Q 2575 -91 1722 -91 
Q 1428 -91 1123 -41 
Q 819 9 494 109 
L 494 744 
Q 775 591 1075 516 
Q 1375 441 1709 441 
Q 2250 441 2565 725 
Q 2881 1009 2881 1497 
Q 2881 1984 2565 2268 
Q 2250 2553 1709 2553 
Q 1456 2553 1204 2497 
Q 953 2441 691 2322 
L 691 4666 
z
" transform="scale(0.015625)"/>
     </defs>
     <use xlink:href="#DejaVuSans-44"/>
     <use xlink:href="#DejaVuSans-20" x="77.001953"/>
     <use xlink:href="#DejaVuSans-5b" x="108.789062"/>
     <use xlink:href="#DejaVuSans-31" x="147.802734"/>
     <use xlink:href="#DejaVuSans-35" x="211.425781"/>
     <use xlink:href="#DejaVuSans-5d" x="275.048828"/>
    </g>
   </g>
   <g id="text_4">
    <!-- E [29] -->
    <g transform="translate(256.026112 37.0501) scale(0.1 -0.1)">
     <defs>
      <path id="DejaVuSans-45" d="M 628 4666 
L 3578 4666 
L 3578 4134 
L 1259 4134 
L 1259 2753 
L 3481 2753 
L 3481 2222 
L 1259 2222 
L 1259 531 
L 3634 531 
L 3634 0 
L 628 0 
L 628 4666 
z
" transform="scale(0.015625)"/>
      <path id="DejaVuSans-32" d="M 1228 531 
L 3431 531 
L 3431 0 
L 469 0 
L 469 531 
Q 828 903 1448 1529 
Q 2069 2156 2228 2338 
Q 2531 2678 2651 2914 
Q 2772 3150 2772 3378 
Q 2772 3750 2511 3984 
Q 2250 4219 1831 4219 
Q 1534 4219 1204 4116 
Q 875 4013 500 3803 
L 500 4441 
Q 881 4594 1212 4672 
Q 1544 4750 1819 4750 
Q 2544 4750 2975 4387 
Q 3406 4025 3406 3419 
Q 3406 3131 3298 2873 
Q 3191 2616 2906 2266 
Q 2828 2175 2409 1742 
Q 1991 1309 1228 531 
z
" transform="scale(0.015625)"/>
      <path id="DejaVuSans-39" d="M 703 97 
L 703 672 
Q 941 559 1184 500 
Q 1428 441 1663 441 
Q 2288 441 2617 861 
Q 2947 1281 2994 2138 
Q 2813 1869 2534 1725 
Q 2256 1581 1919 1581 
Q 1219 1581 811 2004 
Q 403 2428 403 3163 
Q 403 3881 828 4315 
Q 1253 4750 1959 4750 
Q 2769 4750 3195 4129 
Q 3622 3509 3622 2328 
Q 3622 1225 3098 567 
Q 2575 -91 1691 -91 
Q 1453 -91 1209 -44 
Q 966 3 703 97 
z
M 1959 2075 
Q 2384 2075 2632 2365 
Q 2881 2656 2881 3163 
Q 2881 3666 2632 3958 
Q 2384 4250 1959 4250 
Q 1534 4250 1286 3958 
Q 1038 3666 1038 3163 
Q 1038 2656 1286 2365 
Q 1534 2075 1959 2075 
z
" transform="scale(0.015625)"/>
     </defs>
     <use xlink:href="#DejaVuSans-45"/>
     <use xlink:href="#DejaVuSans-20" x="63.183594"/>
     <use xlink:href="#DejaVuSans-5b" x="94.970703"/>
     <use xlink:href="#DejaVuSans-32" x="133.984375"/>
     <use xlink:href="#DejaVuSans-39" x="197.607422"/>
     <use xlink:href="#DejaVuSans-5d" x="261.230469"/>
    </g>
   </g>
   <g id="text_5">
    <!-- F [26] -->
    <g transform="translate(215.724158 18.884988) scale(0.1 -0.1)">
     <defs>
      <path id="DejaVuSans-46" d="M 628 4666 
L 3309 4666 
L 3309 4134 
L 1259 4134 
L 1259 2759 
L 3109 2759 
L 3109 2228 
L 1259 2228 
L 1259 0 
L 628 0 
L 628 4666 
z
" transform="scale(0.015625)"/>
      <path id="DejaVuSans-36" d="M 2113 2584 
Q 1688 2584 1439 2293 
Q 1191 2003 1191 1497 
Q 1191 994 1439 701 
Q 1688 409 2113 409 
Q 2538 409 2786 701 
Q 3034 994 3034 1497 
Q 3034 2003 2786 2293 
Q 2538 2584 2113 2584 
z
M 3366 4563 
L 3366 3988 
Q 3128 4100 2886 4159 
Q 2644 4219 2406 4219 
Q 1781 4219 1451 3797 
Q 1122 3375 1075 2522 
Q 1259 2794 1537 2939 
Q 1816 3084 2150 3084 
Q 2853 3084 3261 2657 
Q 3669 2231 3669 1497 
Q 3669 778 3244 343 
Q 2819 -91 2113 -91 
Q 1303 -91 875 529 
Q 447 1150 447 2328 
Q 447 3434 972 4092 
Q 1497 4750 2381 4750 
Q 2619 4750 2861 4703 
Q 3103 4656 3366 4563 
z
" transform="scale(0.015625)"/>
     </defs>
     <use xlink:href="#DejaVuSans-46"/>
     <use xlink:href="#DejaVuSans-20" x="57.519531"/>
     <use xlink:href="#DejaVuSans-5b" x="89.306641"/>
     <use xlink:href="#DejaVuSans-32" x="128.320312"/>
     <use xlink:href="#DejaVuSans-36" x="191.943359"/>
     <use xlink:href="#DejaVuSans-5d" x="255.566406"/>
    </g>
   </g>
   <g id="text_6">
    <!-- G [40] -->
    <g transform="translate(131.475986 14.798437) scale(0.1 -0.1)">
     <defs>
      <path id="DejaVuSans-47" d="M 3809 666 
L 3809 1919 
L 2778 1919 
L 2778 2438 
L 4434 2438 
L 4434 434 
Q 4069 175 3628 42 
Q 3188 -91 2688 -91 
Q 1594 -91 976 548 
Q 359 1188 359 2328 
Q 359 3472 976 4111 
Q 1594 4750 2688 4750 
Q 3144 4750 3555 4637 
Q 3966 4525 4313 4306 
L 4313 3634 
Q 3963 3931 3569 4081 
Q 3175 4231 2741 4231 
Q 1884 4231 1454 3753 
Q 1025 3275 1025 2328 
Q 1025 1384 1454 906 
Q 1884 428 2741 428 
Q 3075 428 3337 486 
Q 3600 544 3809 666 
z
" transform="scale(0.015625)"/>
      <path id="DejaVuSans-30" d="M 2034 4250 
Q 1547 4250 1301 3770 
Q 1056 3291 1056 2328 
Q 1056 1369 1301 889 
Q 1547 409 2034 409 
Q 2525 409 2770 889 
Q 3016 1369 3016 2328 
Q 3016 3291 2770 3770 
Q 2525 4250 2034 4250 
z
M 2034 4750 
Q 2819 4750 3233 4129 
Q 3647 3509 3647 2328 
Q 3647 1150 3233 529 
Q 2819 -91 2034 -91 
Q 1250 -91 836 529 
Q 422 1150 422 2328 
Q 422 3509 836 4129 
Q 1250 4750 2034 4750 
z
" transform="scale(0.015625)"/>
     </defs>
     <use xlink:href="#DejaVuSans-47"/>
     <use xlink:href="#DejaVuSans-20" x="77.490234"/>
     <use xlink:href="#DejaVuSans-5b" x="109.277344"/>
     <use xlink:href="#DejaVuSans-34" x="148.291016"/>
     <use xlink:href="#DejaVuSans-30" x="211.914062"/>
     <use xlink:href="#DejaVuSans-5d" x="275.537109"/>
    </g>
   </g>
   <g id="text_7">
    <!-- H [11] -->
    <g transform="translate(92.041198 25.243843) scale(0.1 -0.1)">
     <defs>
      <path id="DejaVuSans-48" d="M 628 4666 
L 1259 4666 
L 1259 2753 
L 3553 2753 
L 3553 4666 
L 4184 4666 
L 4184 0 
L 3553 0 
L 3553 2222 
L 1259 2222 
L 1259 0 
L 628 0 
L 628 4666 
z
" transform="scale(0.015625)"/>
     </defs>
     <use xlink:href="#DejaVuSans-48"/>
     <use xlink:href="#DejaVuSans-20" x="75.195312"/>
     <use xlink:href="#DejaVuSans-5b" x="106.982422"/>
     <use xlink:href="#DejaVuSans-31" x="145.996094"/>
     <use xlink:href="#DejaVuSans-31" x="209.619141"/>
     <use xlink:href="#DejaVuSans-5d" x="273.242188"/>
    </g>
   </g>
   <g id="text_8">
    <!-- I [26] -->
    <g transform="translate(70.587941 39.776199) scale(0.1 -0.1)">
     <defs>
      <path id="DejaVuSans-49" d="M 628 4666 
L 1259 4666 
L 1259 0 
L 628 0 
L 628 4666 
z
" transform="scale(0.015625)"/>
     </defs>
     <use xlink:href="#DejaVuSans-49"/>
     <use xlink:href="#DejaVuSans-20" x="29.492188"/>
     <use xlink:href="#DejaVuSans-5b" x="61.279297"/>
     <use xlink:href="#DejaVuSans-32" x="100.292969"/>
     <use xlink:href="#DejaVuSans-36" x="163.916016"/>
     <use xlink:href="#DejaVuSans-5d" x="227.539062"/>
    </g>
   </g>
   <g id="text_9">
    <!-- K [19] -->
    <g transform="translate(40.329659 64.302269) scale(0.1 -0.1)">
     <defs>
      <path id="DejaVuSans-4b" d="M 628 4666 
L 1259 4666 
L 1259 2694 
L 3353 4666 
L 4166 4666 
L 1850 2491 
L 4331 0 
L 3500 0 
L 1259 2247 
L 1259 0 
L 628 0 
L 628 4666 
z
" transform="scale(0.015625)"/>
     </defs>
     <use xlink:href="#DejaVuSans-4b"/>
     <use xlink:href="#DejaVuSans-20" x="65.576172"/>
     <use xlink:href="#DejaVuSans-5b" x="97.363281"/>
     <use xlink:href="#DejaVuSans-31" x="136.376953"/>
     <use xlink:href="#DejaVuSans-39" x="200"/>
     <use xlink:href="#DejaVuSans-5d" x="263.623047"/>
    </g>
   </g>
   <g id="text_10">
    <!-- L [59] -->
    <g transform="translate(12.765734 119.823022) scale(0.1 -0.1)">
     <defs>
      <path id="DejaVuSans-4c" d="M 628 4666 
L 1259 4666 
L 1259 531 
L 3531 531 
L 3531 0 
L 628 0 
L 628 4666 
z
" transform="scale(0.015625)"/>
     </defs>
     <use xlink:href="#DejaVuSans-4c"/>
     <use xlink:href="#DejaVuSans-20" x="55.712891"/>
     <use xlink:href="#DejaVuSans-5b" x="87.5"/>
     <use xlink:href="#DejaVuSans-35" x="126.513672"/>
     <use xlink:href="#DejaVuSans-39" x="190.136719"/>
     <use xlink:href="#DejaVuSans-5d" x="253.759766"/>
    </g>
   </g>
   <g id="text_11">
    <!-- M [14] -->
    <g transform="translate(7.2 178.258726) scale(0.1 -0.1)">
     <defs>
      <path id="DejaVuSans-4d" d="M 628 4666 
L 1569 4666 
L 2759 1491 
L 3956 4666 
L 4897 4666 
L 4897 0 
L 4281 0 
L 4281 4097 
L 3078 897 
L 2444 897 
L 1241 4097 
L 1241 0 
L 628 0 
L 628 4666 
z
" transform="scale(0.015625)"/>
     </defs>
     <use xlink:href="#DejaVuSans-4d"/>
     <use xlink:href="#DejaVuSans-20" x="86.279297"/>
     <use xlink:href="#DejaVuSans-5b" x="118.066406"/>
     <use xlink:href="#DejaVuSans-31" x="157.080078"/>
     <use xlink:href="#DejaVuSans-34" x="220.703125"/>
     <use xlink:href="#DejaVuSans-5d" x="284.326172"/>
    </g>
   </g>
   <g id="text_12">
    <!-- N [18] -->
    <g transform="translate(14.914985 203.198919) scale(0.1 -0.1)">
     <defs>
      <path id="DejaVuSans-4e" d="M 628 4666 
L 1478 4666 
L 3547 763 
L 3547 4666 
L 4159 4666 
L 4159 0 
L 3309 0 
L 1241 3903 
L 1241 0 
L 628 0 
L 628 4666 
z
" transform="scale(0.015625)"/>
      <path id="DejaVuSans-38" d="M 2034 2216 
Q 1584 2216 1326 1975 
Q 1069 1734 1069 1313 
Q 1069 891 1326 650 
Q 1584 409 2034 409 
Q 2484 409 2743 651 
Q 3003 894 3003 1313 
Q 3003 1734 2745 1975 
Q 2488 2216 2034 2216 
z
M 1403 2484 
Q 997 2584 770 2862 
Q 544 3141 544 3541 
Q 544 4100 942 4425 
Q 1341 4750 2034 4750 
Q 2731 4750 3128 4425 
Q 3525 4100 3525 3541 
Q 3525 3141 3298 2862 
Q 3072 2584 2669 2484 
Q 3125 2378 3379 2068 
Q 3634 1759 3634 1313 
Q 3634 634 3220 271 
Q 2806 -91 2034 -91 
Q 1263 -91 848 271 
Q 434 634 434 1313 
Q 434 1759 690 2068 
Q 947 2378 1403 2484 
z
M 1172 3481 
Q 1172 3119 1398 2916 
Q 1625 2713 2034 2713 
Q 2441 2713 2670 2916 
Q 2900 3119 2900 3481 
Q 2900 3844 2670 4047 
Q 2441 4250 2034 4250 
Q 1625 4250 1398 4047 
Q 1172 3844 1172 3481 
z
" transform="scale(0.015625)"/>
     </defs>
     <use xlink:href="#DejaVuSans-4e"/>
     <use xlink:href="#DejaVuSans-20" x="74.804688"/>
     <use xlink:href="#DejaVuSans-5b" x="106.591797"/>
     <use xlink:href="#DejaVuSans-31" x="145.605469"/>
     <use xlink:href="#DejaVuSans-38" x="209.228516"/>
     <use xlink:href="#DejaVuSans-5d" x="272.851562"/>
    </g>
   </g>
   <g id="text_13">
    <!-- P [23] -->
    <g transform="translate(31.211572 232.68764) scale(0.1 -0.1)">
     <defs>
      <path id="DejaVuSans-50" d="M 1259 4147 
L 1259 2394 
L 2053 2394 
Q 2494 2394 2734 2622 
Q 2975 2850 2975 3272 
Q 2975 3691 2734 3919 
Q 2494 4147 2053 4147 
L 1259 4147 
z
M 628 4666 
L 2053 4666 
Q 2838 4666 3239 4311 
Q 3641 3956 3641 3272 
Q 3641 2581 3239 2228 
Q 2838 1875 2053 1875 
L 1259 1875 
L 1259 0 
L 628 0 
L 628 4666 
z
" transform="scale(0.015625)"/>
     </defs>
     <use xlink:href="#DejaVuSans-50"/>
     <use xlink:href="#DejaVuSans-20" x="60.302734"/>
     <use xlink:href="#DejaVuSans-5b" x="92.089844"/>
     <use xlink:href="#DejaVuSans-32" x="131.103516"/>
     <use xlink:href="#DejaVuSans-33" x="194.726562"/>
     <use xlink:href="#DejaVuSans-5d" x="258.349609"/>
    </g>
   </g>
   <g id="text_14">
    <!-- Q [12] -->
    <g transform="translate(47.185543 254.547732) scale(0.1 -0.1)">
     <defs>
      <path id="DejaVuSans-51" d="M 2522 4238 
Q 1834 4238 1429 3725 
Q 1025 3213 1025 2328 
Q 1025 1447 1429 934 
Q 1834 422 2522 422 
Q 3209 422 3611 934 
Q 4013 1447 4013 2328 
Q 4013 3213 3611 3725 
Q 3209 4238 2522 4238 
z
M 3406 84 
L 4238 -825 
L 3475 -825 
L 2784 -78 
Q 2681 -84 2626 -87 
Q 2572 -91 2522 -91 
Q 1538 -91 948 567 
Q 359 1225 359 2328 
Q 359 3434 948 4092 
Q 1538 4750 2522 4750 
Q 3503 4750 4090 4092 
Q 4678 3434 4678 2328 
Q 4678 1516 4351 937 
Q 4025 359 3406 84 
z
" transform="scale(0.015625)"/>
     </defs>
     <use xlink:href="#DejaVuSans-51"/>
     <use xlink:href="#DejaVuSans-20" x="78.710938"/>
     <use xlink:href="#DejaVuSans-5b" x="110.498047"/>
     <use xlink:href="#DejaVuSans-31" x="149.511719"/>
     <use xlink:href="#DejaVuSans-32" x="213.134766"/>
     <use xlink:href="#DejaVuSans-5d" x="276.757812"/>
    </g>
   </g>
   <g id="text_15">
    <!-- R [31] -->
    <g transform="translate(75.375391 275.875728) scale(0.1 -0.1)">
     <defs>
      <path id="DejaVuSans-52" d="M 2841 2188 
Q 3044 2119 3236 1894 
Q 3428 1669 3622 1275 
L 4263 0 
L 3584 0 
L 2988 1197 
Q 2756 1666 2539 1819 
Q 2322 1972 1947 1972 
L 1259 1972 
L 1259 0 
L 628 0 
L 628 4666 
L 2053 4666 
Q 2853 4666 3247 4331 
Q 3641 3997 3641 3322 
Q 3641 2881 3436 2590 
Q 3231 2300 2841 2188 
z
M 1259 4147 
L 1259 2491 
L 2053 2491 
Q 2509 2491 2742 2702 
Q 2975 2913 2975 3322 
Q 2975 3731 2742 3939 
Q 2509 4147 2053 4147 
L 1259 4147 
z
" transform="scale(0.015625)"/>
     </defs>
     <use xlink:href="#DejaVuSans-52"/>
     <use xlink:href="#DejaVuSans-20" x="69.482422"/>
     <use xlink:href="#DejaVuSans-5b" x="101.269531"/>
     <use xlink:href="#DejaVuSans-33" x="140.283203"/>
     <use xlink:href="#DejaVuSans-31" x="203.90625"/>
     <use xlink:href="#DejaVuSans-5d" x="267.529297"/>
    </g>
   </g>
   <g id="text_16">
    <!-- S [52] -->
    <g transform="translate(139.306686 295.694703) scale(0.1 -0.1)">
     <defs>
      <path id="DejaVuSans-53" d="M 3425 4513 
L 3425 3897 
Q 3066 4069 2747 4153 
Q 2428 4238 2131 4238 
Q 1616 4238 1336 4038 
Q 1056 3838 1056 3469 
Q 1056 3159 1242 3001 
Q 1428 2844 1947 2747 
L 2328 2669 
Q 3034 2534 3370 2195 
Q 3706 1856 3706 1288 
Q 3706 609 3251 259 
Q 2797 -91 1919 -91 
Q 1588 -91 1214 -16 
Q 841 59 441 206 
L 441 856 
Q 825 641 1194 531 
Q 1563 422 1919 422 
Q 2459 422 2753 634 
Q 3047 847 3047 1241 
Q 3047 1584 2836 1778 
Q 2625 1972 2144 2069 
L 1759 2144 
Q 1053 2284 737 2584 
Q 422 2884 422 3419 
Q 422 4038 858 4394 
Q 1294 4750 2059 4750 
Q 2388 4750 2728 4690 
Q 3069 4631 3425 4513 
z
" transform="scale(0.015625)"/>
     </defs>
     <use xlink:href="#DejaVuSans-53"/>
     <use xlink:href="#DejaVuSans-20" x="63.476562"/>
     <use xlink:href="#DejaVuSans-5b" x="95.263672"/>
     <use xlink:href="#DejaVuSans-35" x="134.277344"/>
     <use xlink:href="#DejaVuSans-32" x="197.900391"/>
     <use xlink:href="#DejaVuSans-5d" x="261.523438"/>
    </g>
   </g>
   <g id="text_17">
    <!-- T [33] -->
    <g transform="translate(236.223107 283.707828) scale(0.1 -0.1)">
     <defs>
      <path id="DejaVuSans-54" d="M -19 4666 
L 3928 4666 
L 3928 4134 
L 2272 4134 
L 2272 0 
L 1638 0 
L 1638 4134 
L -19 4134 
L -19 4666 
z
" transform="scale(0.015625)"/>
     </defs>
     <use xlink:href="#DejaVuSans-54"/>
     <use xlink:href="#DejaVuSans-20" x="61.083984"/>
     <use xlink:href="#DejaVuSans-5b" x="92.871094"/>
     <use xlink:href="#DejaVuSans-33" x="131.884766"/>
     <use xlink:href="#DejaVuSans-33" x="195.507812"/>
     <use xlink:href="#DejaVuSans-5d" x="259.130859"/>
    </g>
   </g>
   <g id="text_18">
    <!-- V [53] -->
    <g transform="translate(290.222385 241.219597) scale(0.1 -0.1)">
     <defs>
      <path id="DejaVuSans-56" d="M 1831 0 
L 50 4666 
L 709 4666 
L 2188 738 
L 3669 4666 
L 4325 4666 
L 2547 0 
L 1831 0 
z
" transform="scale(0.015625)"/>
     </defs>
     <use xlink:href="#DejaVuSans-56"/>
     <use xlink:href="#DejaVuSans-20" x="68.408203"/>
     <use xlink:href="#DejaVuSans-5b" x="100.195312"/>
     <use xlink:href="#DejaVuSans-35" x="139.208984"/>
     <use xlink:href="#DejaVuSans-33" x="202.832031"/>
     <use xlink:href="#DejaVuSans-5d" x="266.455078"/>
    </g>
   </g>
   <g id="text_19">
    <!-- W [13] -->
    <g transform="translate(314.167285 193.991493) scale(0.1 -0.1)">
     <defs>
      <path id="DejaVuSans-57" d="M 213 4666 
L 850 4666 
L 1831 722 
L 2809 4666 
L 3519 4666 
L 4500 722 
L 5478 4666 
L 6119 4666 
L 4947 0 
L 4153 0 
L 3169 4050 
L 2175 0 
L 1381 0 
L 213 4666 
z
" transform="scale(0.015625)"/>
     </defs>
     <use xlink:href="#DejaVuSans-57"/>
     <use xlink:href="#DejaVuSans-20" x="98.876953"/>
     <use xlink:href="#DejaVuSans-5b" x="130.664062"/>
     <use xlink:href="#DejaVuSans-31" x="169.677734"/>
     <use xlink:href="#DejaVuSans-33" x="233.300781"/>
     <use xlink:href="#DejaVuSans-5d" x="296.923828"/>
    </g>
   </g>
   <g id="text_20">
    <!-- Y [18] -->
    <g transform="translate(318.927968 169.462448) scale(0.1 -0.1)">
     <defs>
      <path id="DejaVuSans-59" d="M -13 4666 
L 666 4666 
L 1959 2747 
L 3244 4666 
L 3922 4666 
L 2272 2222 
L 2272 0 
L 1638 0 
L 1638 2222 
L -13 4666 
z
" transform="scale(0.015625)"/>
     </defs>
     <use xlink:href="#DejaVuSans-59"/>
     <use xlink:href="#DejaVuSans-20" x="61.083984"/>
     <use xlink:href="#DejaVuSans-5b" x="92.871094"/>
     <use xlink:href="#DejaVuSans-31" x="131.884766"/>
     <use xlink:href="#DejaVuSans-38" x="195.507812"/>
     <use xlink:href="#DejaVuSans-5d" x="259.130859"/>
    </g>
   </g>
   <g id="text_21">
    <!-- A0A8C9D6S5 [549] -->
    <g transform="translate(120.679885 152.201253) scale(0.12 -0.12)">
     <use xlink:href="#DejaVuSans-41"/>
     <use xlink:href="#DejaVuSans-30" x="68.408203"/>
     <use xlink:href="#DejaVuSans-41" x="132.03125"/>
     <use xlink:href="#DejaVuSans-38" x="200.439453"/>
     <use xlink:href="#DejaVuSans-43" x="264.0625"/>
     <use xlink:href="#DejaVuSans-39" x="333.886719"/>
     <use xlink:href="#DejaVuSans-44" x="397.509766"/>
     <use xlink:href="#DejaVuSans-36" x="474.511719"/>
     <use xlink:href="#DejaVuSans-53" x="538.134766"/>
     <use xlink:href="#DejaVuSans-35" x="601.611328"/>
     <use xlink:href="#DejaVuSans-20" x="665.234375"/>
     <use xlink:href="#DejaVuSans-5b" x="697.021484"/>
     <use xlink:href="#DejaVuSans-35" x="736.035156"/>
     <use xlink:href="#DejaVuSans-34" x="799.658203"/>
     <use xlink:href="#DejaVuSans-39" x="863.28125"/>
     <use xlink:href="#DejaVuSans-5d" x="926.904297"/>
    </g>
   </g>
  </g>
 </g>
</svg>
