<?xml version="1.0" encoding="utf-8" standalone="no"?>
<!DOCTYPE svg PUBLIC "-//W3C//DTD SVG 1.1//EN"
  "http://www.w3.org/Graphics/SVG/1.1/DTD/svg11.dtd">
<svg xmlns:xlink="http://www.w3.org/1999/xlink" width="354.014595pt" height="302.295655pt" viewBox="0 0 354.014595 302.295655" xmlns="http://www.w3.org/2000/svg" version="1.1">
 <metadata>
  <rdf:RDF xmlns:dc="http://purl.org/dc/elements/1.1/" xmlns:cc="http://creativecommons.org/ns#" xmlns:rdf="http://www.w3.org/1999/02/22-rdf-syntax-ns#">
   <cc:Work>
    <dc:type rdf:resource="http://purl.org/dc/dcmitype/StillImage"/>
    <dc:date>2024-09-27T16:07:39.300269</dc:date>
    <dc:format>image/svg+xml</dc:format>
    <dc:creator>
     <cc:Agent>
      <dc:title>Matplotlib v3.8.3, https://matplotlib.org/</dc:title>
     </cc:Agent>
    </dc:creator>
   </cc:Work>
  </rdf:RDF>
 </metadata>
 <defs>
  <style type="text/css">*{stroke-linejoin: round; stroke-linecap: butt}</style>
 </defs>
 <g id="figure_1">
  <g id="patch_1">
   <path d="M -0 302.295655 
L 354.014595 302.295655 
L 354.014595 0 
L -0 0 
z
" style="fill: #ffffff"/>
  </g>
  <g id="axes_1">
   <g id="patch_2">
    <path d="M 304.634588 152.366558 
C 304.634588 146.936678 304.288357 141.512319 303.598003 136.126503 
C 302.907649 130.740688 301.874575 125.404368 300.505071 120.150031 
L 176.900828 152.366558 
z
" style="fill: #1f77b4"/>
   </g>
   <g id="patch_3">
    <path d="M 300.477843 120.037186 
C 299.499788 116.28471 298.35136 112.578718 297.036126 108.930729 
C 295.720893 105.282739 294.240218 101.696535 292.598704 98.18326 
L 176.8736 152.253712 
z
" style="fill: #ff7f0e"/>
   </g>
   <g id="patch_4">
    <path d="M 292.564885 98.108221 
C 291.415926 95.649146 290.188879 93.227316 288.885613 90.846423 
C 287.582346 88.465529 286.203522 86.12678 284.751241 83.833739 
L 176.839781 152.178674 
z
" style="fill: #aec7e8"/>
   </g>
   <g id="patch_5">
    <path d="M 284.712096 83.772548 
C 283.052303 81.151862 281.297594 78.592508 279.451459 76.099579 
C 277.605324 73.606649 275.668988 71.181798 273.646304 68.82985 
L 176.800635 152.117483 
z
" style="fill: #ffbb78"/>
   </g>
   <g id="patch_6">
    <path d="M 273.541146 68.723246 
C 267.721264 61.95597 261.208062 55.817306 254.108362 50.407933 
C 247.008662 44.99856 239.36149 40.348211 231.292263 36.533157 
L 176.695477 152.010879 
z
" style="fill: #98df8a"/>
   </g>
   <g id="patch_7">
    <path d="M 231.12956 36.448851 
C 225.869778 33.962075 220.446235 31.837561 214.896828 30.090155 
C 209.34742 28.342748 203.685104 26.976528 197.949446 26.001041 
L 176.532774 151.926573 
z
" style="fill: #2ca02c"/>
   </g>
   <g id="patch_8">
    <path d="M 197.840406 25.9789 
C 194.782238 25.458784 191.706138 25.050246 188.618225 24.754096 
C 185.530312 24.457946 182.432635 24.274382 179.331357 24.203769 
L 176.423734 151.904432 
z
" style="fill: #d62728"/>
   </g>
   <g id="patch_9">
    <path d="M 179.084172 24.238892 
C 161.972193 23.849268 144.955175 26.903116 129.04648 33.218578 
C 113.137786 39.53404 98.659597 48.983217 86.47409 61.003409 
L 176.176548 151.939554 
z
" style="fill: #9467bd"/>
   </g>
   <g id="patch_10">
    <path d="M 86.237056 61.189181 
C 80.989341 66.365702 76.199548 71.986773 71.921336 77.989422 
C 67.643125 83.992071 63.892529 90.353799 60.711566 97.003338 
L 175.939514 152.125325 
z
" style="fill: #ff9896"/>
   </g>
   <g id="patch_11">
    <path d="M 60.617071 97.244571 
C 54.748688 109.511939 50.876786 122.63811 49.147843 136.126512 
C 47.418899 149.614914 47.854994 163.293284 50.43963 176.644161 
L 175.845018 152.366558 
z
" style="fill: #c5b0d5"/>
   </g>
   <g id="patch_12">
    <path d="M 50.460616 176.873988 
C 51.418881 181.823881 52.669372 186.712699 54.205525 191.514776 
C 55.741678 196.316853 57.5608 201.02377 59.65334 205.610816 
L 175.866005 152.596385 
z
" style="fill: #c49c94"/>
   </g>
   <g id="patch_13">
    <path d="M 59.721296 205.749611 
C 62.780636 212.455976 66.414756 218.884951 70.582944 224.964515 
C 74.751133 231.044079 79.437766 236.751445 84.590341 242.022674 
L 175.933961 152.73518 
z
" style="fill: #8c564b"/>
   </g>
   <g id="patch_14">
    <path d="M 84.676792 242.120464 
C 86.845186 244.338792 89.09367 246.477393 91.417772 248.532013 
C 93.741874 250.586633 96.140051 252.555908 98.607532 254.43592 
L 176.020412 152.832971 
z
" style="fill: #e377c2"/>
   </g>
   <g id="patch_15">
    <path d="M 98.677323 254.488097 
C 101.761866 256.838259 104.951832 259.046738 108.237307 261.10667 
C 111.522782 263.166602 114.900359 265.075852 118.359541 266.828485 
L 176.090203 152.885148 
z
" style="fill: #7f7f7f"/>
   </g>
   <g id="patch_16">
    <path d="M 118.491683 266.888041 
C 125.413629 270.395122 132.640777 273.264167 140.083436 275.459571 
C 147.526094 277.654974 155.153348 279.167616 162.870541 279.978725 
L 176.222345 152.944703 
z
" style="fill: #f7b6d2"/>
   </g>
   <g id="patch_17">
    <path d="M 163.134144 279.988331 
C 176.658408 281.409788 190.323306 280.662442 203.611889 277.774567 
C 216.900471 274.886692 229.643025 269.895169 241.357493 262.988832 
L 176.485948 152.954309 
z
" style="fill: #c7c7c7"/>
   </g>
   <g id="patch_18">
    <path d="M 241.574678 262.886149 
C 246.586532 259.931378 251.39066 256.637637 255.953493 253.02794 
C 260.516326 249.418243 264.82721 245.501018 268.856024 241.303636 
L 176.703133 152.851626 
z
" style="fill: #dbdb8d"/>
   </g>
   <g id="patch_19">
    <path d="M 268.972834 241.175088 
C 274.615274 235.296565 279.682297 228.8916 284.104589 222.047807 
C 288.526881 215.204015 292.284187 207.952743 295.32511 200.393182 
L 176.819943 152.723078 
z
" style="fill: #bcbd22"/>
   </g>
   <g id="patch_20">
    <path d="M 295.378768 200.284841 
C 295.957566 198.84598 296.510112 197.396697 297.036129 195.937713 
C 297.562146 194.478729 298.061547 193.010285 298.534085 191.533113 
L 176.873601 152.614737 
z
" style="fill: #17becf"/>
   </g>
   <g id="patch_21">
    <path d="M 298.559267 191.434662 
C 300.568498 185.153722 302.088318 178.726608 303.105092 172.210982 
C 304.121866 165.695356 304.632543 159.110763 304.632543 152.516279 
L 176.898783 152.516286 
z
" style="fill: #9edae5"/>
   </g>
   <g id="patch_22">
    <path d="M 250.884283 152.434225 
C 250.884283 149.266795 250.682315 146.102585 250.279609 142.96086 
C 249.876902 139.819134 249.274276 136.706281 248.475398 133.641251 
L 176.372923 152.434225 
z
" style="fill: #ffffff"/>
   </g>
   <g id="patch_23">
    <path d="M 248.475398 133.641251 
C 247.904866 131.452307 247.23495 129.290478 246.46773 127.162484 
C 245.70051 125.034491 244.836784 122.942538 243.879234 120.893128 
L 176.372923 152.434225 
z
" style="fill: #ffffff"/>
   </g>
   <g id="patch_24">
    <path d="M 243.879234 120.893128 
C 243.209008 119.458667 242.493231 118.045933 241.732992 116.657078 
C 240.972753 115.268223 240.168439 113.903953 239.321275 112.566346 
L 176.372923 152.434225 
z
" style="fill: #ffffff"/>
   </g>
   <g id="patch_25">
    <path d="M 239.321275 112.566346 
C 238.353063 111.037612 237.329482 109.544656 236.25257 108.090447 
C 235.175658 106.636238 234.046129 105.221742 232.86623 103.849772 
L 176.372923 152.434225 
z
" style="fill: #ffffff"/>
   </g>
   <g id="patch_26">
    <path d="M 232.86623 103.849772 
C 229.471299 99.902194 225.671931 96.321307 221.53044 93.165839 
C 217.388948 90.010372 212.928097 87.297669 208.221049 85.07222 
L 176.372923 152.434225 
z
" style="fill: #ffffff"/>
   </g>
   <g id="patch_27">
    <path d="M 208.221049 85.07222 
C 205.152843 83.621601 201.989109 82.382301 198.751955 81.362981 
C 195.5148 80.34366 192.211783 79.546698 188.865982 78.977664 
L 176.372923 152.434225 
z
" style="fill: #ffffff"/>
   </g>
   <g id="patch_28">
    <path d="M 188.865982 78.977664 
C 187.082051 78.674264 185.287659 78.43595 183.486376 78.263196 
C 181.685094 78.090442 179.878116 77.983363 178.069037 77.942172 
L 176.372923 152.434225 
z
" style="fill: #ffffff"/>
   </g>
   <g id="patch_29">
    <path d="M 178.069037 77.942172 
C 168.087049 77.714891 158.160456 79.496302 148.880384 83.180322 
C 139.600312 86.864342 131.154702 92.376361 124.046489 99.38814 
L 176.372923 152.434225 
z
" style="fill: #ffffff"/>
   </g>
   <g id="patch_30">
    <path d="M 124.046489 99.38814 
C 120.985322 102.407778 118.191276 105.686736 115.695653 109.188281 
C 113.200029 112.689826 111.012182 116.400834 109.15662 120.279732 
L 176.372923 152.434225 
z
" style="fill: #ffffff"/>
   </g>
   <g id="patch_31">
    <path d="M 109.15662 120.279732 
C 105.733397 127.435697 103.474788 135.09263 102.466237 142.960865 
C 101.457687 150.829099 101.712076 158.808149 103.21978 166.59616 
L 176.372923 152.434225 
z
" style="fill: #ffffff"/>
   </g>
   <g id="patch_32">
    <path d="M 103.21978 166.59616 
C 103.778768 169.483597 104.508221 172.335408 105.40431 175.13662 
C 106.3004 177.937831 107.361554 180.683533 108.582202 183.35931 
L 176.372923 152.434225 
z
" style="fill: #ffffff"/>
   </g>
   <g id="patch_33">
    <path d="M 108.582202 183.35931 
C 110.366817 187.271356 112.486721 191.021591 114.918164 194.568003 
C 117.349607 198.114416 120.083476 201.443712 123.089145 204.518596 
L 176.372923 152.434225 
z
" style="fill: #ffffff"/>
   </g>
   <g id="patch_34">
    <path d="M 123.089145 204.518596 
C 124.354041 205.812621 125.665657 207.060138 127.021383 208.258666 
C 128.377109 209.457194 129.776046 210.605938 131.21541 211.702612 
L 176.372923 152.434225 
z
" style="fill: #ffffff"/>
   </g>
   <g id="patch_35">
    <path d="M 131.21541 211.702612 
C 133.014727 213.07354 134.87554 214.361819 136.792067 215.563446 
C 138.708594 216.765073 140.678848 217.878802 142.696704 218.901172 
L 176.372923 152.434225 
z
" style="fill: #ffffff"/>
   </g>
   <g id="patch_36">
    <path d="M 142.696704 218.901172 
C 146.734506 220.946969 150.950342 222.620579 155.291893 223.901231 
C 159.633444 225.181883 164.082675 226.064257 168.584371 226.537404 
L 176.372923 152.434225 
z
" style="fill: #ffffff"/>
   </g>
   <g id="patch_37">
    <path d="M 168.584371 226.537404 
C 176.473525 227.366587 184.444716 226.930636 192.196389 225.246042 
C 199.948062 223.561448 207.381218 220.649727 214.214658 216.62103 
L 176.372923 152.434225 
z
" style="fill: #ffffff"/>
   </g>
   <g id="patch_38">
    <path d="M 214.214658 216.62103 
C 217.138239 214.897413 219.940648 212.976064 222.6023 210.870408 
C 225.263952 208.764751 227.778635 206.479703 230.128776 204.031231 
L 176.372923 152.434225 
z
" style="fill: #ffffff"/>
   </g>
   <g id="patch_39">
    <path d="M 230.128776 204.031231 
C 233.4202 200.602092 236.375963 196.865863 238.955634 192.87365 
C 241.535304 188.881438 243.727066 184.651529 245.500937 180.241785 
L 176.372923 152.434225 
z
" style="fill: #ffffff"/>
   </g>
   <g id="patch_40">
    <path d="M 245.500937 180.241785 
C 245.83857 179.40245 246.160888 178.557035 246.467731 177.705961 
C 246.774575 176.854887 247.065892 175.998295 247.341539 175.136611 
L 176.372923 152.434225 
z
" style="fill: #ffffff"/>
   </g>
   <g id="patch_41">
    <path d="M 247.341539 175.136611 
C 248.51359 171.472729 249.400152 167.723579 249.99327 163.922797 
C 250.586388 160.122015 250.884284 156.281003 250.884283 152.434221 
L 176.372923 152.434225 
z
" style="fill: #ffffff"/>
   </g>
   <g id="matplotlib.axis_1"/>
   <g id="matplotlib.axis_2"/>
   <g id="text_1">
    <!-- A [14] -->
    <g transform="translate(316.26772 137.261873) scale(0.1 -0.1)">
     <defs>
      <path id="DejaVuSans-41" d="M 2188 4044 
L 1331 1722 
L 3047 1722 
L 2188 4044 
z
M 1831 4666 
L 2547 4666 
L 4325 0 
L 3669 0 
L 3244 1197 
L 1141 1197 
L 716 0 
L 50 0 
L 1831 4666 
z
" transform="scale(0.015625)"/>
      <path id="DejaVuSans-20" transform="scale(0.015625)"/>
      <path id="DejaVuSans-5b" d="M 550 4863 
L 1875 4863 
L 1875 4416 
L 1125 4416 
L 1125 -397 
L 1875 -397 
L 1875 -844 
L 550 -844 
L 550 4863 
z
" transform="scale(0.015625)"/>
      <path id="DejaVuSans-31" d="M 794 531 
L 1825 531 
L 1825 4091 
L 703 3866 
L 703 4441 
L 1819 4666 
L 2450 4666 
L 2450 531 
L 3481 531 
L 3481 0 
L 794 0 
L 794 531 
z
" transform="scale(0.015625)"/>
      <path id="DejaVuSans-34" d="M 2419 4116 
L 825 1625 
L 2419 1625 
L 2419 4116 
z
M 2253 4666 
L 3047 4666 
L 3047 1625 
L 3713 1625 
L 3713 1100 
L 3047 1100 
L 3047 0 
L 2419 0 
L 2419 1100 
L 313 1100 
L 313 1709 
L 2253 4666 
z
" transform="scale(0.015625)"/>
      <path id="DejaVuSans-5d" d="M 1947 4863 
L 1947 -844 
L 622 -844 
L 622 -397 
L 1369 -397 
L 1369 4416 
L 622 4416 
L 622 4863 
L 1947 4863 
z
" transform="scale(0.015625)"/>
     </defs>
     <use xlink:href="#DejaVuSans-41"/>
     <use xlink:href="#DejaVuSans-20" x="68.408203"/>
     <use xlink:href="#DejaVuSans-5b" x="100.195312"/>
     <use xlink:href="#DejaVuSans-31" x="139.208984"/>
     <use xlink:href="#DejaVuSans-34" x="202.832031"/>
     <use xlink:href="#DejaVuSans-5d" x="266.455078"/>
    </g>
   </g>
   <g id="text_2">
    <!-- C [10] -->
    <g transform="translate(309.052379 107.357806) scale(0.1 -0.1)">
     <defs>
      <path id="DejaVuSans-43" d="M 4122 4306 
L 4122 3641 
Q 3803 3938 3442 4084 
Q 3081 4231 2675 4231 
Q 1875 4231 1450 3742 
Q 1025 3253 1025 2328 
Q 1025 1406 1450 917 
Q 1875 428 2675 428 
Q 3081 428 3442 575 
Q 3803 722 4122 1019 
L 4122 359 
Q 3791 134 3420 21 
Q 3050 -91 2638 -91 
Q 1578 -91 968 557 
Q 359 1206 359 2328 
Q 359 3453 968 4101 
Q 1578 4750 2638 4750 
Q 3056 4750 3426 4639 
Q 3797 4528 4122 4306 
z
" transform="scale(0.015625)"/>
      <path id="DejaVuSans-30" d="M 2034 4250 
Q 1547 4250 1301 3770 
Q 1056 3291 1056 2328 
Q 1056 1369 1301 889 
Q 1547 409 2034 409 
Q 2525 409 2770 889 
Q 3016 1369 3016 2328 
Q 3016 3291 2770 3770 
Q 2525 4250 2034 4250 
z
M 2034 4750 
Q 2819 4750 3233 4129 
Q 3647 3509 3647 2328 
Q 3647 1150 3233 529 
Q 2819 -91 2034 -91 
Q 1250 -91 836 529 
Q 422 1150 422 2328 
Q 422 3509 836 4129 
Q 1250 4750 2034 4750 
z
" transform="scale(0.015625)"/>
     </defs>
     <use xlink:href="#DejaVuSans-43"/>
     <use xlink:href="#DejaVuSans-20" x="69.824219"/>
     <use xlink:href="#DejaVuSans-5b" x="101.611328"/>
     <use xlink:href="#DejaVuSans-31" x="140.625"/>
     <use xlink:href="#DejaVuSans-30" x="204.248047"/>
     <use xlink:href="#DejaVuSans-5d" x="267.871094"/>
    </g>
   </g>
   <g id="text_3">
    <!-- D [7] -->
    <g transform="translate(300.090196 87.472572) scale(0.1 -0.1)">
     <defs>
      <path id="DejaVuSans-44" d="M 1259 4147 
L 1259 519 
L 2022 519 
Q 2988 519 3436 956 
Q 3884 1394 3884 2338 
Q 3884 3275 3436 3711 
Q 2988 4147 2022 4147 
L 1259 4147 
z
M 628 4666 
L 1925 4666 
Q 3281 4666 3915 4102 
Q 4550 3538 4550 2338 
Q 4550 1131 3912 565 
Q 3275 0 1925 0 
L 628 0 
L 628 4666 
z
" transform="scale(0.015625)"/>
      <path id="DejaVuSans-37" d="M 525 4666 
L 3525 4666 
L 3525 4397 
L 1831 0 
L 1172 0 
L 2766 4134 
L 525 4134 
L 525 4666 
z
" transform="scale(0.015625)"/>
     </defs>
     <use xlink:href="#DejaVuSans-44"/>
     <use xlink:href="#DejaVuSans-20" x="77.001953"/>
     <use xlink:href="#DejaVuSans-5b" x="108.789062"/>
     <use xlink:href="#DejaVuSans-37" x="147.802734"/>
     <use xlink:href="#DejaVuSans-5d" x="211.425781"/>
    </g>
   </g>
   <g id="text_4">
    <!-- E [8] -->
    <g transform="translate(289.716541 71.257163) scale(0.1 -0.1)">
     <defs>
      <path id="DejaVuSans-45" d="M 628 4666 
L 3578 4666 
L 3578 4134 
L 1259 4134 
L 1259 2753 
L 3481 2753 
L 3481 2222 
L 1259 2222 
L 1259 531 
L 3634 531 
L 3634 0 
L 628 0 
L 628 4666 
z
" transform="scale(0.015625)"/>
      <path id="DejaVuSans-38" d="M 2034 2216 
Q 1584 2216 1326 1975 
Q 1069 1734 1069 1313 
Q 1069 891 1326 650 
Q 1584 409 2034 409 
Q 2484 409 2743 651 
Q 3003 894 3003 1313 
Q 3003 1734 2745 1975 
Q 2488 2216 2034 2216 
z
M 1403 2484 
Q 997 2584 770 2862 
Q 544 3141 544 3541 
Q 544 4100 942 4425 
Q 1341 4750 2034 4750 
Q 2731 4750 3128 4425 
Q 3525 4100 3525 3541 
Q 3525 3141 3298 2862 
Q 3072 2584 2669 2484 
Q 3125 2378 3379 2068 
Q 3634 1759 3634 1313 
Q 3634 634 3220 271 
Q 2806 -91 2034 -91 
Q 1263 -91 848 271 
Q 434 634 434 1313 
Q 434 1759 690 2068 
Q 947 2378 1403 2484 
z
M 1172 3481 
Q 1172 3119 1398 2916 
Q 1625 2713 2034 2713 
Q 2441 2713 2670 2916 
Q 2900 3119 2900 3481 
Q 2900 3844 2670 4047 
Q 2441 4250 2034 4250 
Q 1625 4250 1398 4047 
Q 1172 3844 1172 3481 
z
" transform="scale(0.015625)"/>
     </defs>
     <use xlink:href="#DejaVuSans-45"/>
     <use xlink:href="#DejaVuSans-20" x="63.183594"/>
     <use xlink:href="#DejaVuSans-5b" x="94.970703"/>
     <use xlink:href="#DejaVuSans-38" x="133.984375"/>
     <use xlink:href="#DejaVuSans-5d" x="197.607422"/>
    </g>
   </g>
   <g id="text_5">
    <!-- F [23] -->
    <g transform="translate(261.849651 43.007013) scale(0.1 -0.1)">
     <defs>
      <path id="DejaVuSans-46" d="M 628 4666 
L 3309 4666 
L 3309 4134 
L 1259 4134 
L 1259 2759 
L 3109 2759 
L 3109 2228 
L 1259 2228 
L 1259 0 
L 628 0 
L 628 4666 
z
" transform="scale(0.015625)"/>
      <path id="DejaVuSans-32" d="M 1228 531 
L 3431 531 
L 3431 0 
L 469 0 
L 469 531 
Q 828 903 1448 1529 
Q 2069 2156 2228 2338 
Q 2531 2678 2651 2914 
Q 2772 3150 2772 3378 
Q 2772 3750 2511 3984 
Q 2250 4219 1831 4219 
Q 1534 4219 1204 4116 
Q 875 4013 500 3803 
L 500 4441 
Q 881 4594 1212 4672 
Q 1544 4750 1819 4750 
Q 2544 4750 2975 4387 
Q 3406 4025 3406 3419 
Q 3406 3131 3298 2873 
Q 3191 2616 2906 2266 
Q 2828 2175 2409 1742 
Q 1991 1309 1228 531 
z
" transform="scale(0.015625)"/>
      <path id="DejaVuSans-33" d="M 2597 2516 
Q 3050 2419 3304 2112 
Q 3559 1806 3559 1356 
Q 3559 666 3084 287 
Q 2609 -91 1734 -91 
Q 1441 -91 1130 -33 
Q 819 25 488 141 
L 488 750 
Q 750 597 1062 519 
Q 1375 441 1716 441 
Q 2309 441 2620 675 
Q 2931 909 2931 1356 
Q 2931 1769 2642 2001 
Q 2353 2234 1838 2234 
L 1294 2234 
L 1294 2753 
L 1863 2753 
Q 2328 2753 2575 2939 
Q 2822 3125 2822 3475 
Q 2822 3834 2567 4026 
Q 2313 4219 1838 4219 
Q 1578 4219 1281 4162 
Q 984 4106 628 3988 
L 628 4550 
Q 988 4650 1302 4700 
Q 1616 4750 1894 4750 
Q 2613 4750 3031 4423 
Q 3450 4097 3450 3541 
Q 3450 3153 3228 2886 
Q 3006 2619 2597 2516 
z
" transform="scale(0.015625)"/>
     </defs>
     <use xlink:href="#DejaVuSans-46"/>
     <use xlink:href="#DejaVuSans-20" x="57.519531"/>
     <use xlink:href="#DejaVuSans-5b" x="89.306641"/>
     <use xlink:href="#DejaVuSans-32" x="128.320312"/>
     <use xlink:href="#DejaVuSans-33" x="191.943359"/>
     <use xlink:href="#DejaVuSans-5d" x="255.566406"/>
    </g>
   </g>
   <g id="text_6">
    <!-- G [15] -->
    <g transform="translate(218.733233 20.665888) scale(0.1 -0.1)">
     <defs>
      <path id="DejaVuSans-47" d="M 3809 666 
L 3809 1919 
L 2778 1919 
L 2778 2438 
L 4434 2438 
L 4434 434 
Q 4069 175 3628 42 
Q 3188 -91 2688 -91 
Q 1594 -91 976 548 
Q 359 1188 359 2328 
Q 359 3472 976 4111 
Q 1594 4750 2688 4750 
Q 3144 4750 3555 4637 
Q 3966 4525 4313 4306 
L 4313 3634 
Q 3963 3931 3569 4081 
Q 3175 4231 2741 4231 
Q 1884 4231 1454 3753 
Q 1025 3275 1025 2328 
Q 1025 1384 1454 906 
Q 1884 428 2741 428 
Q 3075 428 3337 486 
Q 3600 544 3809 666 
z
" transform="scale(0.015625)"/>
      <path id="DejaVuSans-35" d="M 691 4666 
L 3169 4666 
L 3169 4134 
L 1269 4134 
L 1269 2991 
Q 1406 3038 1543 3061 
Q 1681 3084 1819 3084 
Q 2600 3084 3056 2656 
Q 3513 2228 3513 1497 
Q 3513 744 3044 326 
Q 2575 -91 1722 -91 
Q 1428 -91 1123 -41 
Q 819 9 494 109 
L 494 744 
Q 775 591 1075 516 
Q 1375 441 1709 441 
Q 2250 441 2565 725 
Q 2881 1009 2881 1497 
Q 2881 1984 2565 2268 
Q 2250 2553 1709 2553 
Q 1456 2553 1204 2497 
Q 953 2441 691 2322 
L 691 4666 
z
" transform="scale(0.015625)"/>
     </defs>
     <use xlink:href="#DejaVuSans-47"/>
     <use xlink:href="#DejaVuSans-20" x="77.490234"/>
     <use xlink:href="#DejaVuSans-5b" x="109.277344"/>
     <use xlink:href="#DejaVuSans-31" x="148.291016"/>
     <use xlink:href="#DejaVuSans-35" x="211.914062"/>
     <use xlink:href="#DejaVuSans-5d" x="275.537109"/>
    </g>
   </g>
   <g id="text_7">
    <!-- H [8] -->
    <g transform="translate(189.837674 14.798437) scale(0.1 -0.1)">
     <defs>
      <path id="DejaVuSans-48" d="M 628 4666 
L 1259 4666 
L 1259 2753 
L 3553 2753 
L 3553 4666 
L 4184 4666 
L 4184 0 
L 3553 0 
L 3553 2222 
L 1259 2222 
L 1259 0 
L 628 0 
L 628 4666 
z
" transform="scale(0.015625)"/>
     </defs>
     <use xlink:href="#DejaVuSans-48"/>
     <use xlink:href="#DejaVuSans-20" x="75.195312"/>
     <use xlink:href="#DejaVuSans-5b" x="106.982422"/>
     <use xlink:href="#DejaVuSans-38" x="145.996094"/>
     <use xlink:href="#DejaVuSans-5d" x="209.619141"/>
    </g>
   </g>
   <g id="text_8">
    <!-- I [44] -->
    <g transform="translate(97.677224 24.105855) scale(0.1 -0.1)">
     <defs>
      <path id="DejaVuSans-49" d="M 628 4666 
L 1259 4666 
L 1259 0 
L 628 0 
L 628 4666 
z
" transform="scale(0.015625)"/>
     </defs>
     <use xlink:href="#DejaVuSans-49"/>
     <use xlink:href="#DejaVuSans-20" x="29.492188"/>
     <use xlink:href="#DejaVuSans-5b" x="61.279297"/>
     <use xlink:href="#DejaVuSans-34" x="100.292969"/>
     <use xlink:href="#DejaVuSans-34" x="163.916016"/>
     <use xlink:href="#DejaVuSans-5d" x="227.539062"/>
    </g>
   </g>
   <g id="text_9">
    <!-- K [19] -->
    <g transform="translate(31.255456 73.335207) scale(0.1 -0.1)">
     <defs>
      <path id="DejaVuSans-4b" d="M 628 4666 
L 1259 4666 
L 1259 2694 
L 3353 4666 
L 4166 4666 
L 1850 2491 
L 4331 0 
L 3500 0 
L 1259 2247 
L 1259 0 
L 628 0 
L 628 4666 
z
" transform="scale(0.015625)"/>
      <path id="DejaVuSans-39" d="M 703 97 
L 703 672 
Q 941 559 1184 500 
Q 1428 441 1663 441 
Q 2288 441 2617 861 
Q 2947 1281 2994 2138 
Q 2813 1869 2534 1725 
Q 2256 1581 1919 1581 
Q 1219 1581 811 2004 
Q 403 2428 403 3163 
Q 403 3881 828 4315 
Q 1253 4750 1959 4750 
Q 2769 4750 3195 4129 
Q 3622 3509 3622 2328 
Q 3622 1225 3098 567 
Q 2575 -91 1691 -91 
Q 1453 -91 1209 -44 
Q 966 3 703 97 
z
M 1959 2075 
Q 2384 2075 2632 2365 
Q 2881 2656 2881 3163 
Q 2881 3666 2632 3958 
Q 2384 4250 1959 4250 
Q 1534 4250 1286 3958 
Q 1038 3666 1038 3163 
Q 1038 2656 1286 2365 
Q 1534 2075 1959 2075 
z
" transform="scale(0.015625)"/>
     </defs>
     <use xlink:href="#DejaVuSans-4b"/>
     <use xlink:href="#DejaVuSans-20" x="65.576172"/>
     <use xlink:href="#DejaVuSans-5b" x="97.363281"/>
     <use xlink:href="#DejaVuSans-31" x="136.376953"/>
     <use xlink:href="#DejaVuSans-39" x="200"/>
     <use xlink:href="#DejaVuSans-5d" x="263.623047"/>
    </g>
   </g>
   <g id="text_10">
    <!-- L [35] -->
    <g transform="translate(7.2 137.261883) scale(0.1 -0.1)">
     <defs>
      <path id="DejaVuSans-4c" d="M 628 4666 
L 1259 4666 
L 1259 531 
L 3531 531 
L 3531 0 
L 628 0 
L 628 4666 
z
" transform="scale(0.015625)"/>
     </defs>
     <use xlink:href="#DejaVuSans-4c"/>
     <use xlink:href="#DejaVuSans-20" x="55.712891"/>
     <use xlink:href="#DejaVuSans-5b" x="87.5"/>
     <use xlink:href="#DejaVuSans-33" x="126.513672"/>
     <use xlink:href="#DejaVuSans-35" x="190.136719"/>
     <use xlink:href="#DejaVuSans-5d" x="253.759766"/>
    </g>
   </g>
   <g id="text_11">
    <!-- M [13] -->
    <g transform="translate(9.705102 198.16599) scale(0.1 -0.1)">
     <defs>
      <path id="DejaVuSans-4d" d="M 628 4666 
L 1569 4666 
L 2759 1491 
L 3956 4666 
L 4897 4666 
L 4897 0 
L 4281 0 
L 4281 4097 
L 3078 897 
L 2444 897 
L 1241 4097 
L 1241 0 
L 628 0 
L 628 4666 
z
" transform="scale(0.015625)"/>
     </defs>
     <use xlink:href="#DejaVuSans-4d"/>
     <use xlink:href="#DejaVuSans-20" x="86.279297"/>
     <use xlink:href="#DejaVuSans-5b" x="118.066406"/>
     <use xlink:href="#DejaVuSans-31" x="157.080078"/>
     <use xlink:href="#DejaVuSans-33" x="220.703125"/>
     <use xlink:href="#DejaVuSans-5d" x="284.326172"/>
    </g>
   </g>
   <g id="text_12">
    <!-- N [19] -->
    <g transform="translate(28.860343 234.946824) scale(0.1 -0.1)">
     <defs>
      <path id="DejaVuSans-4e" d="M 628 4666 
L 1478 4666 
L 3547 763 
L 3547 4666 
L 4159 4666 
L 4159 0 
L 3309 0 
L 1241 3903 
L 1241 0 
L 628 0 
L 628 4666 
z
" transform="scale(0.015625)"/>
     </defs>
     <use xlink:href="#DejaVuSans-4e"/>
     <use xlink:href="#DejaVuSans-20" x="74.804688"/>
     <use xlink:href="#DejaVuSans-5b" x="106.591797"/>
     <use xlink:href="#DejaVuSans-31" x="145.605469"/>
     <use xlink:href="#DejaVuSans-39" x="209.228516"/>
     <use xlink:href="#DejaVuSans-5d" x="272.851562"/>
    </g>
   </g>
   <g id="text_13">
    <!-- P [8] -->
    <g transform="translate(59.584071 260.861292) scale(0.1 -0.1)">
     <defs>
      <path id="DejaVuSans-50" d="M 1259 4147 
L 1259 2394 
L 2053 2394 
Q 2494 2394 2734 2622 
Q 2975 2850 2975 3272 
Q 2975 3691 2734 3919 
Q 2494 4147 2053 4147 
L 1259 4147 
z
M 628 4666 
L 2053 4666 
Q 2838 4666 3239 4311 
Q 3641 3956 3641 3272 
Q 3641 2581 3239 2228 
Q 2838 1875 2053 1875 
L 1259 1875 
L 1259 0 
L 628 0 
L 628 4666 
z
" transform="scale(0.015625)"/>
     </defs>
     <use xlink:href="#DejaVuSans-50"/>
     <use xlink:href="#DejaVuSans-20" x="60.302734"/>
     <use xlink:href="#DejaVuSans-5b" x="92.089844"/>
     <use xlink:href="#DejaVuSans-38" x="131.103516"/>
     <use xlink:href="#DejaVuSans-5d" x="194.726562"/>
    </g>
   </g>
   <g id="text_14">
    <!-- Q [10] -->
    <g transform="translate(69.873892 274.688197) scale(0.1 -0.1)">
     <defs>
      <path id="DejaVuSans-51" d="M 2522 4238 
Q 1834 4238 1429 3725 
Q 1025 3213 1025 2328 
Q 1025 1447 1429 934 
Q 1834 422 2522 422 
Q 3209 422 3611 934 
Q 4013 1447 4013 2328 
Q 4013 3213 3611 3725 
Q 3209 4238 2522 4238 
z
M 3406 84 
L 4238 -825 
L 3475 -825 
L 2784 -78 
Q 2681 -84 2626 -87 
Q 2572 -91 2522 -91 
Q 1538 -91 948 567 
Q 359 1225 359 2328 
Q 359 3434 948 4092 
Q 1538 4750 2522 4750 
Q 3503 4750 4090 4092 
Q 4678 3434 4678 2328 
Q 4678 1516 4351 937 
Q 4025 359 3406 84 
z
" transform="scale(0.015625)"/>
     </defs>
     <use xlink:href="#DejaVuSans-51"/>
     <use xlink:href="#DejaVuSans-20" x="78.710938"/>
     <use xlink:href="#DejaVuSans-5b" x="110.498047"/>
     <use xlink:href="#DejaVuSans-31" x="149.511719"/>
     <use xlink:href="#DejaVuSans-30" x="213.134766"/>
     <use xlink:href="#DejaVuSans-5d" x="276.757812"/>
    </g>
   </g>
   <g id="text_15">
    <!-- R [20] -->
    <g transform="translate(105.814857 290.470432) scale(0.1 -0.1)">
     <defs>
      <path id="DejaVuSans-52" d="M 2841 2188 
Q 3044 2119 3236 1894 
Q 3428 1669 3622 1275 
L 4263 0 
L 3584 0 
L 2988 1197 
Q 2756 1666 2539 1819 
Q 2322 1972 1947 1972 
L 1259 1972 
L 1259 0 
L 628 0 
L 628 4666 
L 2053 4666 
Q 2853 4666 3247 4331 
Q 3641 3997 3641 3322 
Q 3641 2881 3436 2590 
Q 3231 2300 2841 2188 
z
M 1259 4147 
L 1259 2491 
L 2053 2491 
Q 2509 2491 2742 2702 
Q 2975 2913 2975 3322 
Q 2975 3731 2742 3939 
Q 2509 4147 2053 4147 
L 1259 4147 
z
" transform="scale(0.015625)"/>
     </defs>
     <use xlink:href="#DejaVuSans-52"/>
     <use xlink:href="#DejaVuSans-20" x="69.482422"/>
     <use xlink:href="#DejaVuSans-5b" x="101.269531"/>
     <use xlink:href="#DejaVuSans-32" x="140.283203"/>
     <use xlink:href="#DejaVuSans-30" x="203.90625"/>
     <use xlink:href="#DejaVuSans-5d" x="267.529297"/>
    </g>
   </g>
   <g id="text_16">
    <!-- S [35] -->
    <g transform="translate(206.324483 293.015968) scale(0.1 -0.1)">
     <defs>
      <path id="DejaVuSans-53" d="M 3425 4513 
L 3425 3897 
Q 3066 4069 2747 4153 
Q 2428 4238 2131 4238 
Q 1616 4238 1336 4038 
Q 1056 3838 1056 3469 
Q 1056 3159 1242 3001 
Q 1428 2844 1947 2747 
L 2328 2669 
Q 3034 2534 3370 2195 
Q 3706 1856 3706 1288 
Q 3706 609 3251 259 
Q 2797 -91 1919 -91 
Q 1588 -91 1214 -16 
Q 841 59 441 206 
L 441 856 
Q 825 641 1194 531 
Q 1563 422 1919 422 
Q 2459 422 2753 634 
Q 3047 847 3047 1241 
Q 3047 1584 2836 1778 
Q 2625 1972 2144 2069 
L 1759 2144 
Q 1053 2284 737 2584 
Q 422 2884 422 3419 
Q 422 4038 858 4394 
Q 1294 4750 2059 4750 
Q 2388 4750 2728 4690 
Q 3069 4631 3425 4513 
z
" transform="scale(0.015625)"/>
     </defs>
     <use xlink:href="#DejaVuSans-53"/>
     <use xlink:href="#DejaVuSans-20" x="63.476562"/>
     <use xlink:href="#DejaVuSans-5b" x="95.263672"/>
     <use xlink:href="#DejaVuSans-33" x="134.277344"/>
     <use xlink:href="#DejaVuSans-35" x="197.900391"/>
     <use xlink:href="#DejaVuSans-5d" x="261.523438"/>
    </g>
   </g>
   <g id="text_17">
    <!-- T [15] -->
    <g transform="translate(263.878529 265.804946) scale(0.1 -0.1)">
     <defs>
      <path id="DejaVuSans-54" d="M -19 4666 
L 3928 4666 
L 3928 4134 
L 2272 4134 
L 2272 0 
L 1638 0 
L 1638 4134 
L -19 4134 
L -19 4666 
z
" transform="scale(0.015625)"/>
     </defs>
     <use xlink:href="#DejaVuSans-54"/>
     <use xlink:href="#DejaVuSans-20" x="61.083984"/>
     <use xlink:href="#DejaVuSans-5b" x="92.871094"/>
     <use xlink:href="#DejaVuSans-31" x="131.884766"/>
     <use xlink:href="#DejaVuSans-35" x="195.507812"/>
     <use xlink:href="#DejaVuSans-5d" x="259.130859"/>
    </g>
   </g>
   <g id="text_18">
    <!-- V [21] -->
    <g transform="translate(294.833054 231.739655) scale(0.1 -0.1)">
     <defs>
      <path id="DejaVuSans-56" d="M 1831 0 
L 50 4666 
L 709 4666 
L 2188 738 
L 3669 4666 
L 4325 4666 
L 2547 0 
L 1831 0 
z
" transform="scale(0.015625)"/>
     </defs>
     <use xlink:href="#DejaVuSans-56"/>
     <use xlink:href="#DejaVuSans-20" x="68.408203"/>
     <use xlink:href="#DejaVuSans-5b" x="100.195312"/>
     <use xlink:href="#DejaVuSans-32" x="139.208984"/>
     <use xlink:href="#DejaVuSans-31" x="202.832031"/>
     <use xlink:href="#DejaVuSans-5d" x="266.455078"/>
    </g>
   </g>
   <g id="text_19">
    <!-- W [4] -->
    <g transform="translate(309.052382 203.029386) scale(0.1 -0.1)">
     <defs>
      <path id="DejaVuSans-57" d="M 213 4666 
L 850 4666 
L 1831 722 
L 2809 4666 
L 3519 4666 
L 4500 722 
L 5478 4666 
L 6119 4666 
L 4947 0 
L 4153 0 
L 3169 4050 
L 2175 0 
L 1381 0 
L 213 4666 
z
" transform="scale(0.015625)"/>
     </defs>
     <use xlink:href="#DejaVuSans-57"/>
     <use xlink:href="#DejaVuSans-20" x="98.876953"/>
     <use xlink:href="#DejaVuSans-5b" x="130.664062"/>
     <use xlink:href="#DejaVuSans-34" x="169.677734"/>
     <use xlink:href="#DejaVuSans-5d" x="233.300781"/>
    </g>
   </g>
   <g id="text_20">
    <!-- Y [17] -->
    <g transform="translate(315.725723 176.939826) scale(0.1 -0.1)">
     <defs>
      <path id="DejaVuSans-59" d="M -13 4666 
L 666 4666 
L 1959 2747 
L 3244 4666 
L 3922 4666 
L 2272 2222 
L 2272 0 
L 1638 0 
L 1638 2222 
L -13 4666 
z
" transform="scale(0.015625)"/>
     </defs>
     <use xlink:href="#DejaVuSans-59"/>
     <use xlink:href="#DejaVuSans-20" x="61.083984"/>
     <use xlink:href="#DejaVuSans-5b" x="92.871094"/>
     <use xlink:href="#DejaVuSans-31" x="131.884766"/>
     <use xlink:href="#DejaVuSans-37" x="195.507812"/>
     <use xlink:href="#DejaVuSans-5d" x="259.130859"/>
    </g>
   </g>
   <g id="text_21">
    <!-- A0A8P0PQD8 [345] -->
    <g transform="translate(118.274173 152.434225) scale(0.12 -0.12)">
     <use xlink:href="#DejaVuSans-41"/>
     <use xlink:href="#DejaVuSans-30" x="68.408203"/>
     <use xlink:href="#DejaVuSans-41" x="132.03125"/>
     <use xlink:href="#DejaVuSans-38" x="200.439453"/>
     <use xlink:href="#DejaVuSans-50" x="264.0625"/>
     <use xlink:href="#DejaVuSans-30" x="324.365234"/>
     <use xlink:href="#DejaVuSans-50" x="387.988281"/>
     <use xlink:href="#DejaVuSans-51" x="448.291016"/>
     <use xlink:href="#DejaVuSans-44" x="527.001953"/>
     <use xlink:href="#DejaVuSans-38" x="604.003906"/>
     <use xlink:href="#DejaVuSans-20" x="667.626953"/>
     <use xlink:href="#DejaVuSans-5b" x="699.414062"/>
     <use xlink:href="#DejaVuSans-33" x="738.427734"/>
     <use xlink:href="#DejaVuSans-34" x="802.050781"/>
     <use xlink:href="#DejaVuSans-35" x="865.673828"/>
     <use xlink:href="#DejaVuSans-5d" x="929.296875"/>
    </g>
   </g>
  </g>
 </g>
</svg>
