<?xml version="1.0" encoding="utf-8" standalone="no"?>
<!DOCTYPE svg PUBLIC "-//W3C//DTD SVG 1.1//EN"
  "http://www.w3.org/Graphics/SVG/1.1/DTD/svg11.dtd">
<svg xmlns:xlink="http://www.w3.org/1999/xlink" width="352.239265pt" height="304.661982pt" viewBox="0 0 352.239265 304.661982" xmlns="http://www.w3.org/2000/svg" version="1.1">
 <metadata>
  <rdf:RDF xmlns:dc="http://purl.org/dc/elements/1.1/" xmlns:cc="http://creativecommons.org/ns#" xmlns:rdf="http://www.w3.org/1999/02/22-rdf-syntax-ns#">
   <cc:Work>
    <dc:type rdf:resource="http://purl.org/dc/dcmitype/StillImage"/>
    <dc:date>2024-09-27T16:07:38.281514</dc:date>
    <dc:format>image/svg+xml</dc:format>
    <dc:creator>
     <cc:Agent>
      <dc:title>Matplotlib v3.8.3, https://matplotlib.org/</dc:title>
     </cc:Agent>
    </dc:creator>
   </cc:Work>
  </rdf:RDF>
 </metadata>
 <defs>
  <style type="text/css">*{stroke-linejoin: round; stroke-linecap: butt}</style>
 </defs>
 <g id="figure_1">
  <g id="patch_1">
   <path d="M -0 304.661982 
L 352.239265 304.661982 
L 352.239265 0 
L -0 0 
z
" style="fill: #ffffff"/>
  </g>
  <g id="axes_1">
   <g id="patch_2">
    <path d="M 302.280793 152.234063 
C 302.280793 129.104913 295.998692 106.404319 284.107933 86.565786 
C 272.217174 66.727253 255.158399 50.485949 234.76031 39.582943 
L 174.547033 152.234063 
z
" style="fill: #1f77b4"/>
   </g>
   <g id="patch_3">
    <path d="M 234.515498 39.368249 
C 231.442987 37.725957 228.304573 36.210055 225.108129 34.824346 
C 221.911685 33.438637 218.659886 32.18428 215.360892 31.064422 
L 174.30222 152.019368 
z
" style="fill: #ff7f0e"/>
   </g>
   <g id="patch_4">
    <path d="M 215.307859 31.044709 
C 214.318286 30.708794 213.324628 30.385036 212.32711 30.073508 
C 211.329591 29.76198 210.328287 29.462705 209.323424 29.175751 
L 174.249187 151.999655 
z
" style="fill: #aec7e8"/>
   </g>
   <g id="patch_5">
    <path d="M 209.277125 29.163548 
C 206.597284 28.398278 203.893114 27.720919 201.16896 27.132558 
C 198.444806 26.544197 195.702125 26.04515 192.945323 25.636217 
L 174.202888 151.987452 
z
" style="fill: #ffbb78"/>
   </g>
   <g id="patch_6">
    <path d="M 192.880796 25.626375 
C 190.468645 25.268566 188.046741 24.979906 185.618064 24.760749 
C 183.189387 24.541591 180.754932 24.392027 178.317693 24.31224 
L 174.138361 151.97761 
z
" style="fill: #98df8a"/>
   </g>
   <g id="patch_7">
    <path d="M 178.144769 24.324996 
C 166.638292 23.948313 155.133528 25.128971 143.943394 27.834857 
C 132.753261 30.540743 121.980141 34.7471 111.917053 40.33952 
L 173.965437 151.990366 
z
" style="fill: #2ca02c"/>
   </g>
   <g id="patch_8">
    <path d="M 111.750087 40.411902 
C 109.009454 41.93497 106.325828 43.558432 103.704664 45.278987 
C 101.0835 46.999542 98.526575 48.816025 96.039085 50.724743 
L 173.798471 152.062748 
z
" style="fill: #d62728"/>
   </g>
   <g id="patch_9">
    <path d="M 95.986817 50.76384 
C 94.328595 52.036239 92.701853 53.349147 91.108062 54.701378 
C 89.51427 56.053609 87.953909 57.444756 86.428389 58.873563 
L 173.746203 152.101845 
z
" style="fill: #9467bd"/>
   </g>
   <g id="patch_10">
    <path d="M 86.402583 58.896951 
C 85.894099 59.373199 85.389519 59.853598 84.888895 60.338102 
C 84.388271 60.822605 83.89162 61.311196 83.39899 61.803826 
L 173.720398 152.125234 
z
" style="fill: #ff9896"/>
   </g>
   <g id="patch_11">
    <path d="M 83.249829 62.069661 
C 66.142189 79.177301 54.242039 100.798447 48.941135 124.404444 
C 43.640231 148.010441 45.153608 172.643695 53.304273 195.423277 
L 173.571237 152.391069 
z
" style="fill: #c5b0d5"/>
   </g>
   <g id="patch_12">
    <path d="M 53.328588 195.735489 
C 53.798007 197.047427 54.288861 198.351596 54.800954 199.647473 
C 55.313048 200.94335 55.846311 202.230761 56.40053 203.509189 
L 173.595551 152.703281 
z
" style="fill: #c49c94"/>
   </g>
   <g id="patch_13">
    <path d="M 56.422085 203.556764 
C 57.530597 206.113791 58.722498 208.633854 59.995874 211.112906 
C 61.26925 213.591958 62.623419 216.028671 64.056207 218.419132 
L 173.617107 152.750856 
z
" style="fill: #8c564b"/>
   </g>
   <g id="patch_14">
    <path d="M 64.150223 218.549205 
C 69.349697 227.224003 75.561097 235.250658 82.653807 242.460382 
C 89.746517 249.670106 97.670469 256.012005 106.259033 261.352717 
L 173.711123 152.880928 
z
" style="fill: #e377c2"/>
   </g>
   <g id="patch_15">
    <path d="M 106.414827 261.46244 
C 110.853383 264.222511 115.457166 266.70755 120.200204 268.903537 
C 124.943241 271.099525 129.816597 273.002323 134.792777 274.601197 
L 173.866918 152.990651 
z
" style="fill: #7f7f7f"/>
   </g>
   <g id="patch_16">
    <path d="M 134.955562 274.646963 
C 142.921341 277.206412 151.119359 278.977014 159.431401 279.933238 
C 167.743444 280.889461 176.129366 281.026687 184.468245 280.342938 
L 174.029703 153.036417 
z
" style="fill: #f7b6d2"/>
   </g>
   <g id="patch_17">
    <path d="M 184.700149 280.31818 
C 195.128443 279.463109 205.412275 277.329919 215.32028 273.966604 
C 225.228286 270.60329 234.685602 266.035262 243.479458 260.365292 
L 174.261607 153.011659 
z
" style="fill: #c7c7c7"/>
   </g>
   <g id="patch_18">
    <path d="M 243.656014 260.264318 
C 248.634966 257.054065 253.38456 253.501319 257.870388 249.631817 
C 262.356215 245.762315 266.567418 241.585425 270.47349 237.131404 
L 174.438163 152.910685 
z
" style="fill: #dbdb8d"/>
   </g>
   <g id="patch_19">
    <path d="M 270.588936 236.990732 
C 276.335845 230.437638 281.396955 223.313497 285.693093 215.729752 
C 289.989232 208.146006 293.497881 200.142408 296.164155 191.844156 
L 174.55361 152.770013 
z
" style="fill: #bcbd22"/>
   </g>
   <g id="patch_20">
    <path d="M 296.219395 191.702679 
C 297.285125 188.385804 298.21471 185.026716 299.005818 181.633842 
C 299.796925 178.240968 300.448892 174.817148 300.960084 171.370972 
L 174.60885 152.628536 
z
" style="fill: #17becf"/>
   </g>
   <g id="patch_21">
    <path d="M 300.972546 171.28927 
C 301.432606 168.187793 301.778315 165.070429 302.008971 161.943513 
C 302.239626 158.816596 302.355071 155.682247 302.355071 152.546834 
L 174.621311 152.546833 
z
" style="fill: #9edae5"/>
   </g>
   <g id="patch_22">
    <path d="M 248.601889 152.50768 
C 248.601889 139.015677 244.93733 125.773663 238.001054 114.201186 
C 231.064778 102.628708 221.113826 93.154614 209.214941 86.794528 
L 174.090529 152.50768 
z
" style="fill: #ffffff"/>
   </g>
   <g id="patch_23">
    <path d="M 209.214941 86.794528 
C 207.422643 85.836524 205.591901 84.952248 203.727309 84.143918 
C 201.862716 83.335587 199.965834 82.603879 198.041421 81.950629 
L 174.090529 152.50768 
z
" style="fill: #ffffff"/>
   </g>
   <g id="patch_24">
    <path d="M 198.041421 81.950629 
C 197.46417 81.754679 196.884536 81.56582 196.302651 81.384095 
C 195.720765 81.20237 195.136671 81.027793 194.550501 80.860403 
L 174.090529 152.50768 
z
" style="fill: #ffffff"/>
   </g>
   <g id="patch_25">
    <path d="M 194.550501 80.860403 
C 192.98726 80.413996 191.409828 80.01887 189.820738 79.675659 
C 188.231648 79.332449 186.631751 79.041338 185.023616 78.802793 
L 174.090529 152.50768 
z
" style="fill: #ffffff"/>
   </g>
   <g id="patch_26">
    <path d="M 185.023616 78.802793 
C 183.616528 78.594072 182.203751 78.425686 180.787023 78.297845 
C 179.370294 78.170003 177.950196 78.082757 176.528473 78.036215 
L 174.090529 152.50768 
z
" style="fill: #ffffff"/>
   </g>
   <g id="patch_27">
    <path d="M 176.528473 78.036215 
C 169.816361 77.816483 163.105248 78.5052 156.577671 80.083634 
C 150.050093 81.662067 143.765773 84.115775 137.895638 87.37802 
L 174.090529 152.50768 
z
" style="fill: #ffffff"/>
   </g>
   <g id="patch_28">
    <path d="M 137.895638 87.37802 
C 136.296935 88.266477 134.731487 89.213496 133.202475 90.217153 
C 131.673462 91.22081 130.181923 92.280425 128.730887 93.393844 
L 174.090529 152.50768 
z
" style="fill: #ffffff"/>
   </g>
   <g id="patch_29">
    <path d="M 128.730887 93.393844 
C 127.763591 94.136077 126.814658 94.90194 125.884946 95.690741 
C 124.955235 96.479543 124.045024 97.291045 123.155137 98.124516 
L 174.090529 152.50768 
z
" style="fill: #ffffff"/>
   </g>
   <g id="patch_30">
    <path d="M 123.155137 98.124516 
C 122.858521 98.402327 122.564183 98.68256 122.272153 98.965187 
C 121.980122 99.247814 121.690408 99.532825 121.403041 99.820192 
L 174.090529 152.50768 
z
" style="fill: #ffffff"/>
   </g>
   <g id="patch_31">
    <path d="M 121.403041 99.820192 
C 111.423585 109.799649 104.48183 122.411984 101.389636 136.182149 
C 98.297442 149.952314 99.180246 164.321712 103.9348 177.609801 
L 174.090529 152.50768 
z
" style="fill: #ffffff"/>
   </g>
   <g id="patch_32">
    <path d="M 103.9348 177.609801 
C 104.208628 178.375099 104.49496 179.135864 104.793681 179.891793 
C 105.092402 180.647721 105.403472 181.398711 105.726766 182.14446 
L 174.090529 152.50768 
z
" style="fill: #ffffff"/>
   </g>
   <g id="patch_33">
    <path d="M 105.726766 182.14446 
C 106.373398 183.636059 107.068674 185.106096 107.811476 186.55221 
C 108.554279 187.998323 109.344211 189.419739 110.180004 190.814175 
L 174.090529 152.50768 
z
" style="fill: #ffffff"/>
   </g>
   <g id="patch_34">
    <path d="M 110.180004 190.814175 
C 113.21303 195.874474 116.836347 200.55669 120.973761 204.762362 
C 125.111175 208.968034 129.73348 212.667475 134.743476 215.782891 
L 174.090529 152.50768 
z
" style="fill: #ffffff"/>
   </g>
   <g id="patch_35">
    <path d="M 134.743476 215.782891 
C 137.332634 217.392932 140.018174 218.842538 142.784946 220.123531 
C 145.551718 221.404524 148.394508 222.514489 151.29728 223.447166 
L 174.090529 152.50768 
z
" style="fill: #ffffff"/>
   </g>
   <g id="patch_36">
    <path d="M 151.29728 223.447166 
C 155.943985 224.940178 160.726162 225.973029 165.574853 226.530826 
C 170.423545 227.088623 175.315333 227.168671 180.179679 226.769818 
L 174.090529 152.50768 
z
" style="fill: #ffffff"/>
   </g>
   <g id="patch_37">
    <path d="M 180.179679 226.769818 
C 186.26285 226.271026 192.261752 225.026665 198.041422 223.064732 
C 203.821092 221.102798 209.337859 218.438115 214.467609 215.130633 
L 174.090529 152.50768 
z
" style="fill: #ffffff"/>
   </g>
   <g id="patch_38">
    <path d="M 214.467609 215.130633 
C 217.371997 213.257985 220.142594 211.18555 222.759327 208.928341 
C 225.376059 206.671131 227.832594 204.234612 230.111136 201.636433 
L 174.090529 152.50768 
z
" style="fill: #ffffff"/>
   </g>
   <g id="patch_39">
    <path d="M 230.111136 201.636433 
C 233.463499 197.813795 236.415813 193.658046 238.921894 189.234195 
C 241.427975 184.810343 243.474687 180.141578 245.030014 175.300931 
L 174.090529 152.50768 
z
" style="fill: #ffffff"/>
   </g>
   <g id="patch_40">
    <path d="M 245.030014 175.300931 
C 245.65169 173.366087 246.193948 171.406619 246.655427 169.427442 
C 247.116906 167.448266 247.497221 165.451037 247.795416 163.440768 
L 174.090529 152.50768 
z
" style="fill: #ffffff"/>
   </g>
   <g id="patch_41">
    <path d="M 247.795416 163.440768 
C 248.063784 161.631574 248.265448 159.813111 248.399997 157.989077 
C 248.534546 156.165042 248.601889 154.336672 248.601889 152.507681 
L 174.090529 152.50768 
z
" style="fill: #ffffff"/>
   </g>
   <g id="matplotlib.axis_1"/>
   <g id="matplotlib.axis_2"/>
   <g id="text_1">
    <!-- A [66] -->
    <g transform="translate(295.064023 82.758333) scale(0.1 -0.1)">
     <defs>
      <path id="DejaVuSans-41" d="M 2188 4044 
L 1331 1722 
L 3047 1722 
L 2188 4044 
z
M 1831 4666 
L 2547 4666 
L 4325 0 
L 3669 0 
L 3244 1197 
L 1141 1197 
L 716 0 
L 50 0 
L 1831 4666 
z
" transform="scale(0.015625)"/>
      <path id="DejaVuSans-20" transform="scale(0.015625)"/>
      <path id="DejaVuSans-5b" d="M 550 4863 
L 1875 4863 
L 1875 4416 
L 1125 4416 
L 1125 -397 
L 1875 -397 
L 1875 -844 
L 550 -844 
L 550 4863 
z
" transform="scale(0.015625)"/>
      <path id="DejaVuSans-36" d="M 2113 2584 
Q 1688 2584 1439 2293 
Q 1191 2003 1191 1497 
Q 1191 994 1439 701 
Q 1688 409 2113 409 
Q 2538 409 2786 701 
Q 3034 994 3034 1497 
Q 3034 2003 2786 2293 
Q 2538 2584 2113 2584 
z
M 3366 4563 
L 3366 3988 
Q 3128 4100 2886 4159 
Q 2644 4219 2406 4219 
Q 1781 4219 1451 3797 
Q 1122 3375 1075 2522 
Q 1259 2794 1537 2939 
Q 1816 3084 2150 3084 
Q 2853 3084 3261 2657 
Q 3669 2231 3669 1497 
Q 3669 778 3244 343 
Q 2819 -91 2113 -91 
Q 1303 -91 875 529 
Q 447 1150 447 2328 
Q 447 3434 972 4092 
Q 1497 4750 2381 4750 
Q 2619 4750 2861 4703 
Q 3103 4656 3366 4563 
z
" transform="scale(0.015625)"/>
      <path id="DejaVuSans-5d" d="M 1947 4863 
L 1947 -844 
L 622 -844 
L 622 -397 
L 1369 -397 
L 1369 4416 
L 622 4416 
L 622 4863 
L 1947 4863 
z
" transform="scale(0.015625)"/>
     </defs>
     <use xlink:href="#DejaVuSans-41"/>
     <use xlink:href="#DejaVuSans-20" x="68.408203"/>
     <use xlink:href="#DejaVuSans-5b" x="100.195312"/>
     <use xlink:href="#DejaVuSans-36" x="139.208984"/>
     <use xlink:href="#DejaVuSans-36" x="202.832031"/>
     <use xlink:href="#DejaVuSans-5d" x="266.455078"/>
    </g>
   </g>
   <g id="text_2">
    <!-- C [10] -->
    <g transform="translate(230.188719 25.864219) scale(0.1 -0.1)">
     <defs>
      <path id="DejaVuSans-43" d="M 4122 4306 
L 4122 3641 
Q 3803 3938 3442 4084 
Q 3081 4231 2675 4231 
Q 1875 4231 1450 3742 
Q 1025 3253 1025 2328 
Q 1025 1406 1450 917 
Q 1875 428 2675 428 
Q 3081 428 3442 575 
Q 3803 722 4122 1019 
L 4122 359 
Q 3791 134 3420 21 
Q 3050 -91 2638 -91 
Q 1578 -91 968 557 
Q 359 1206 359 2328 
Q 359 3453 968 4101 
Q 1578 4750 2638 4750 
Q 3056 4750 3426 4639 
Q 3797 4528 4122 4306 
z
" transform="scale(0.015625)"/>
      <path id="DejaVuSans-31" d="M 794 531 
L 1825 531 
L 1825 4091 
L 703 3866 
L 703 4441 
L 1819 4666 
L 2450 4666 
L 2450 531 
L 3481 531 
L 3481 0 
L 794 0 
L 794 531 
z
" transform="scale(0.015625)"/>
      <path id="DejaVuSans-30" d="M 2034 4250 
Q 1547 4250 1301 3770 
Q 1056 3291 1056 2328 
Q 1056 1369 1301 889 
Q 1547 409 2034 409 
Q 2525 409 2770 889 
Q 3016 1369 3016 2328 
Q 3016 3291 2770 3770 
Q 2525 4250 2034 4250 
z
M 2034 4750 
Q 2819 4750 3233 4129 
Q 3647 3509 3647 2328 
Q 3647 1150 3233 529 
Q 2819 -91 2034 -91 
Q 1250 -91 836 529 
Q 422 1150 422 2328 
Q 422 3509 836 4129 
Q 1250 4750 2034 4750 
z
" transform="scale(0.015625)"/>
     </defs>
     <use xlink:href="#DejaVuSans-43"/>
     <use xlink:href="#DejaVuSans-20" x="69.824219"/>
     <use xlink:href="#DejaVuSans-5b" x="101.611328"/>
     <use xlink:href="#DejaVuSans-31" x="140.625"/>
     <use xlink:href="#DejaVuSans-30" x="204.248047"/>
     <use xlink:href="#DejaVuSans-5d" x="267.871094"/>
    </g>
   </g>
   <g id="text_3">
    <!-- D [3] -->
    <g transform="translate(216.134902 20.640269) scale(0.1 -0.1)">
     <defs>
      <path id="DejaVuSans-44" d="M 1259 4147 
L 1259 519 
L 2022 519 
Q 2988 519 3436 956 
Q 3884 1394 3884 2338 
Q 3884 3275 3436 3711 
Q 2988 4147 2022 4147 
L 1259 4147 
z
M 628 4666 
L 1925 4666 
Q 3281 4666 3915 4102 
Q 4550 3538 4550 2338 
Q 4550 1131 3912 565 
Q 3275 0 1925 0 
L 628 0 
L 628 4666 
z
" transform="scale(0.015625)"/>
      <path id="DejaVuSans-33" d="M 2597 2516 
Q 3050 2419 3304 2112 
Q 3559 1806 3559 1356 
Q 3559 666 3084 287 
Q 2609 -91 1734 -91 
Q 1441 -91 1130 -33 
Q 819 25 488 141 
L 488 750 
Q 750 597 1062 519 
Q 1375 441 1716 441 
Q 2309 441 2620 675 
Q 2931 909 2931 1356 
Q 2931 1769 2642 2001 
Q 2353 2234 1838 2234 
L 1294 2234 
L 1294 2753 
L 1863 2753 
Q 2328 2753 2575 2939 
Q 2822 3125 2822 3475 
Q 2822 3834 2567 4026 
Q 2313 4219 1838 4219 
Q 1578 4219 1281 4162 
Q 984 4106 628 3988 
L 628 4550 
Q 988 4650 1302 4700 
Q 1616 4750 1894 4750 
Q 2613 4750 3031 4423 
Q 3450 4097 3450 3541 
Q 3450 3153 3228 2886 
Q 3006 2619 2597 2516 
z
" transform="scale(0.015625)"/>
     </defs>
     <use xlink:href="#DejaVuSans-44"/>
     <use xlink:href="#DejaVuSans-20" x="77.001953"/>
     <use xlink:href="#DejaVuSans-5b" x="108.789062"/>
     <use xlink:href="#DejaVuSans-33" x="147.802734"/>
     <use xlink:href="#DejaVuSans-5d" x="211.425781"/>
    </g>
   </g>
   <g id="text_4">
    <!-- E [8] -->
    <g transform="translate(203.865567 17.406444) scale(0.1 -0.1)">
     <defs>
      <path id="DejaVuSans-45" d="M 628 4666 
L 3578 4666 
L 3578 4134 
L 1259 4134 
L 1259 2753 
L 3481 2753 
L 3481 2222 
L 1259 2222 
L 1259 531 
L 3634 531 
L 3634 0 
L 628 0 
L 628 4666 
z
" transform="scale(0.015625)"/>
      <path id="DejaVuSans-38" d="M 2034 2216 
Q 1584 2216 1326 1975 
Q 1069 1734 1069 1313 
Q 1069 891 1326 650 
Q 1584 409 2034 409 
Q 2484 409 2743 651 
Q 3003 894 3003 1313 
Q 3003 1734 2745 1975 
Q 2488 2216 2034 2216 
z
M 1403 2484 
Q 997 2584 770 2862 
Q 544 3141 544 3541 
Q 544 4100 942 4425 
Q 1341 4750 2034 4750 
Q 2731 4750 3128 4425 
Q 3525 4100 3525 3541 
Q 3525 3141 3298 2862 
Q 3072 2584 2669 2484 
Q 3125 2378 3379 2068 
Q 3634 1759 3634 1313 
Q 3634 634 3220 271 
Q 2806 -91 2034 -91 
Q 1263 -91 848 271 
Q 434 634 434 1313 
Q 434 1759 690 2068 
Q 947 2378 1403 2484 
z
M 1172 3481 
Q 1172 3119 1398 2916 
Q 1625 2713 2034 2713 
Q 2441 2713 2670 2916 
Q 2900 3119 2900 3481 
Q 2900 3844 2670 4047 
Q 2441 4250 2034 4250 
Q 1625 4250 1398 4047 
Q 1172 3844 1172 3481 
z
" transform="scale(0.015625)"/>
     </defs>
     <use xlink:href="#DejaVuSans-45"/>
     <use xlink:href="#DejaVuSans-20" x="63.183594"/>
     <use xlink:href="#DejaVuSans-5b" x="94.970703"/>
     <use xlink:href="#DejaVuSans-38" x="133.984375"/>
     <use xlink:href="#DejaVuSans-5d" x="197.607422"/>
    </g>
   </g>
   <g id="text_5">
    <!-- F [7] -->
    <g transform="translate(186.766035 14.798437) scale(0.1 -0.1)">
     <defs>
      <path id="DejaVuSans-46" d="M 628 4666 
L 3309 4666 
L 3309 4134 
L 1259 4134 
L 1259 2759 
L 3109 2759 
L 3109 2228 
L 1259 2228 
L 1259 0 
L 628 0 
L 628 4666 
z
" transform="scale(0.015625)"/>
      <path id="DejaVuSans-37" d="M 525 4666 
L 3525 4666 
L 3525 4397 
L 1831 0 
L 1172 0 
L 2766 4134 
L 525 4134 
L 525 4666 
z
" transform="scale(0.015625)"/>
     </defs>
     <use xlink:href="#DejaVuSans-46"/>
     <use xlink:href="#DejaVuSans-20" x="57.519531"/>
     <use xlink:href="#DejaVuSans-5b" x="89.306641"/>
     <use xlink:href="#DejaVuSans-37" x="128.320312"/>
     <use xlink:href="#DejaVuSans-5d" x="191.943359"/>
    </g>
   </g>
   <g id="text_6">
    <!-- G [33] -->
    <g transform="translate(109.486503 18.178681) scale(0.1 -0.1)">
     <defs>
      <path id="DejaVuSans-47" d="M 3809 666 
L 3809 1919 
L 2778 1919 
L 2778 2438 
L 4434 2438 
L 4434 434 
Q 4069 175 3628 42 
Q 3188 -91 2688 -91 
Q 1594 -91 976 548 
Q 359 1188 359 2328 
Q 359 3472 976 4111 
Q 1594 4750 2688 4750 
Q 3144 4750 3555 4637 
Q 3966 4525 4313 4306 
L 4313 3634 
Q 3963 3931 3569 4081 
Q 3175 4231 2741 4231 
Q 1884 4231 1454 3753 
Q 1025 3275 1025 2328 
Q 1025 1384 1454 906 
Q 1884 428 2741 428 
Q 3075 428 3337 486 
Q 3600 544 3809 666 
z
" transform="scale(0.015625)"/>
     </defs>
     <use xlink:href="#DejaVuSans-47"/>
     <use xlink:href="#DejaVuSans-20" x="77.490234"/>
     <use xlink:href="#DejaVuSans-5b" x="109.277344"/>
     <use xlink:href="#DejaVuSans-33" x="148.291016"/>
     <use xlink:href="#DejaVuSans-33" x="211.914062"/>
     <use xlink:href="#DejaVuSans-5d" x="275.537109"/>
    </g>
   </g>
   <g id="text_7">
    <!-- H [9] -->
    <g transform="translate(71.831221 37.359986) scale(0.1 -0.1)">
     <defs>
      <path id="DejaVuSans-48" d="M 628 4666 
L 1259 4666 
L 1259 2753 
L 3553 2753 
L 3553 4666 
L 4184 4666 
L 4184 0 
L 3553 0 
L 3553 2222 
L 1259 2222 
L 1259 0 
L 628 0 
L 628 4666 
z
" transform="scale(0.015625)"/>
      <path id="DejaVuSans-39" d="M 703 97 
L 703 672 
Q 941 559 1184 500 
Q 1428 441 1663 441 
Q 2288 441 2617 861 
Q 2947 1281 2994 2138 
Q 2813 1869 2534 1725 
Q 2256 1581 1919 1581 
Q 1219 1581 811 2004 
Q 403 2428 403 3163 
Q 403 3881 828 4315 
Q 1253 4750 1959 4750 
Q 2769 4750 3195 4129 
Q 3622 3509 3622 2328 
Q 3622 1225 3098 567 
Q 2575 -91 1691 -91 
Q 1453 -91 1209 -44 
Q 966 3 703 97 
z
M 1959 2075 
Q 2384 2075 2632 2365 
Q 2881 2656 2881 3163 
Q 2881 3666 2632 3958 
Q 2384 4250 1959 4250 
Q 1534 4250 1286 3958 
Q 1038 3666 1038 3163 
Q 1038 2656 1286 2365 
Q 1534 2075 1959 2075 
z
" transform="scale(0.015625)"/>
     </defs>
     <use xlink:href="#DejaVuSans-48"/>
     <use xlink:href="#DejaVuSans-20" x="75.195312"/>
     <use xlink:href="#DejaVuSans-5b" x="106.982422"/>
     <use xlink:href="#DejaVuSans-39" x="145.996094"/>
     <use xlink:href="#DejaVuSans-5d" x="209.619141"/>
    </g>
   </g>
   <g id="text_8">
    <!-- I [6] -->
    <g transform="translate(62.550498 47.720706) scale(0.1 -0.1)">
     <defs>
      <path id="DejaVuSans-49" d="M 628 4666 
L 1259 4666 
L 1259 0 
L 628 0 
L 628 4666 
z
" transform="scale(0.015625)"/>
     </defs>
     <use xlink:href="#DejaVuSans-49"/>
     <use xlink:href="#DejaVuSans-20" x="29.492188"/>
     <use xlink:href="#DejaVuSans-5b" x="61.279297"/>
     <use xlink:href="#DejaVuSans-36" x="100.292969"/>
     <use xlink:href="#DejaVuSans-5d" x="163.916016"/>
    </g>
   </g>
   <g id="text_9">
    <!-- K [2] -->
    <g transform="translate(52.104183 53.918764) scale(0.1 -0.1)">
     <defs>
      <path id="DejaVuSans-4b" d="M 628 4666 
L 1259 4666 
L 1259 2694 
L 3353 4666 
L 4166 4666 
L 1850 2491 
L 4331 0 
L 3500 0 
L 1259 2247 
L 1259 0 
L 628 0 
L 628 4666 
z
" transform="scale(0.015625)"/>
      <path id="DejaVuSans-32" d="M 1228 531 
L 3431 531 
L 3431 0 
L 469 0 
L 469 531 
Q 828 903 1448 1529 
Q 2069 2156 2228 2338 
Q 2531 2678 2651 2914 
Q 2772 3150 2772 3378 
Q 2772 3750 2511 3984 
Q 2250 4219 1831 4219 
Q 1534 4219 1204 4116 
Q 875 4013 500 3803 
L 500 4441 
Q 881 4594 1212 4672 
Q 1544 4750 1819 4750 
Q 2544 4750 2975 4387 
Q 3406 4025 3406 3419 
Q 3406 3131 3298 2873 
Q 3191 2616 2906 2266 
Q 2828 2175 2409 1742 
Q 1991 1309 1228 531 
z
" transform="scale(0.015625)"/>
     </defs>
     <use xlink:href="#DejaVuSans-4b"/>
     <use xlink:href="#DejaVuSans-20" x="65.576172"/>
     <use xlink:href="#DejaVuSans-5b" x="97.363281"/>
     <use xlink:href="#DejaVuSans-32" x="136.376953"/>
     <use xlink:href="#DejaVuSans-5d" x="200"/>
    </g>
   </g>
   <g id="text_10">
    <!-- L [69] -->
    <g transform="translate(7.2 124.365156) scale(0.1 -0.1)">
     <defs>
      <path id="DejaVuSans-4c" d="M 628 4666 
L 1259 4666 
L 1259 531 
L 3531 531 
L 3531 0 
L 628 0 
L 628 4666 
z
" transform="scale(0.015625)"/>
     </defs>
     <use xlink:href="#DejaVuSans-4c"/>
     <use xlink:href="#DejaVuSans-20" x="55.712891"/>
     <use xlink:href="#DejaVuSans-5b" x="87.5"/>
     <use xlink:href="#DejaVuSans-36" x="126.513672"/>
     <use xlink:href="#DejaVuSans-39" x="190.136719"/>
     <use xlink:href="#DejaVuSans-5d" x="253.759766"/>
    </g>
   </g>
   <g id="text_11">
    <!-- M [4] -->
    <g transform="translate(16.94962 207.101268) scale(0.1 -0.1)">
     <defs>
      <path id="DejaVuSans-4d" d="M 628 4666 
L 1569 4666 
L 2759 1491 
L 3956 4666 
L 4897 4666 
L 4897 0 
L 4281 0 
L 4281 4097 
L 3078 897 
L 2444 897 
L 1241 4097 
L 1241 0 
L 628 0 
L 628 4666 
z
" transform="scale(0.015625)"/>
      <path id="DejaVuSans-34" d="M 2419 4116 
L 825 1625 
L 2419 1625 
L 2419 4116 
z
M 2253 4666 
L 3047 4666 
L 3047 1625 
L 3713 1625 
L 3713 1100 
L 3047 1100 
L 3047 0 
L 2419 0 
L 2419 1100 
L 313 1100 
L 313 1709 
L 2253 4666 
z
" transform="scale(0.015625)"/>
     </defs>
     <use xlink:href="#DejaVuSans-4d"/>
     <use xlink:href="#DejaVuSans-20" x="86.279297"/>
     <use xlink:href="#DejaVuSans-5b" x="118.066406"/>
     <use xlink:href="#DejaVuSans-34" x="157.080078"/>
     <use xlink:href="#DejaVuSans-5d" x="220.703125"/>
    </g>
   </g>
   <g id="text_12">
    <!-- N [8] -->
    <g transform="translate(23.808751 219.708486) scale(0.1 -0.1)">
     <defs>
      <path id="DejaVuSans-4e" d="M 628 4666 
L 1478 4666 
L 3547 763 
L 3547 4666 
L 4159 4666 
L 4159 0 
L 3309 0 
L 1241 3903 
L 1241 0 
L 628 0 
L 628 4666 
z
" transform="scale(0.015625)"/>
     </defs>
     <use xlink:href="#DejaVuSans-4e"/>
     <use xlink:href="#DejaVuSans-20" x="74.804688"/>
     <use xlink:href="#DejaVuSans-5b" x="106.591797"/>
     <use xlink:href="#DejaVuSans-38" x="145.605469"/>
     <use xlink:href="#DejaVuSans-5d" x="209.228516"/>
    </g>
   </g>
   <g id="text_13">
    <!-- P [29] -->
    <g transform="translate(43.812138 254.177703) scale(0.1 -0.1)">
     <defs>
      <path id="DejaVuSans-50" d="M 1259 4147 
L 1259 2394 
L 2053 2394 
Q 2494 2394 2734 2622 
Q 2975 2850 2975 3272 
Q 2975 3691 2734 3919 
Q 2494 4147 2053 4147 
L 1259 4147 
z
M 628 4666 
L 2053 4666 
Q 2838 4666 3239 4311 
Q 3641 3956 3641 3272 
Q 3641 2581 3239 2228 
Q 2838 1875 2053 1875 
L 1259 1875 
L 1259 0 
L 628 0 
L 628 4666 
z
" transform="scale(0.015625)"/>
     </defs>
     <use xlink:href="#DejaVuSans-50"/>
     <use xlink:href="#DejaVuSans-20" x="60.302734"/>
     <use xlink:href="#DejaVuSans-5b" x="92.089844"/>
     <use xlink:href="#DejaVuSans-32" x="131.103516"/>
     <use xlink:href="#DejaVuSans-39" x="194.726562"/>
     <use xlink:href="#DejaVuSans-5d" x="258.349609"/>
    </g>
   </g>
   <g id="text_14">
    <!-- Q [15] -->
    <g transform="translate(83.255407 283.254201) scale(0.1 -0.1)">
     <defs>
      <path id="DejaVuSans-51" d="M 2522 4238 
Q 1834 4238 1429 3725 
Q 1025 3213 1025 2328 
Q 1025 1447 1429 934 
Q 1834 422 2522 422 
Q 3209 422 3611 934 
Q 4013 1447 4013 2328 
Q 4013 3213 3611 3725 
Q 3209 4238 2522 4238 
z
M 3406 84 
L 4238 -825 
L 3475 -825 
L 2784 -78 
Q 2681 -84 2626 -87 
Q 2572 -91 2522 -91 
Q 1538 -91 948 567 
Q 359 1225 359 2328 
Q 359 3434 948 4092 
Q 1538 4750 2522 4750 
Q 3503 4750 4090 4092 
Q 4678 3434 4678 2328 
Q 4678 1516 4351 937 
Q 4025 359 3406 84 
z
" transform="scale(0.015625)"/>
      <path id="DejaVuSans-35" d="M 691 4666 
L 3169 4666 
L 3169 4134 
L 1269 4134 
L 1269 2991 
Q 1406 3038 1543 3061 
Q 1681 3084 1819 3084 
Q 2600 3084 3056 2656 
Q 3513 2228 3513 1497 
Q 3513 744 3044 326 
Q 2575 -91 1722 -91 
Q 1428 -91 1123 -41 
Q 819 9 494 109 
L 494 744 
Q 775 591 1075 516 
Q 1375 441 1709 441 
Q 2250 441 2565 725 
Q 2881 1009 2881 1497 
Q 2881 1984 2565 2268 
Q 2250 2553 1709 2553 
Q 1456 2553 1204 2497 
Q 953 2441 691 2322 
L 691 4666 
z
" transform="scale(0.015625)"/>
     </defs>
     <use xlink:href="#DejaVuSans-51"/>
     <use xlink:href="#DejaVuSans-20" x="78.710938"/>
     <use xlink:href="#DejaVuSans-5b" x="110.498047"/>
     <use xlink:href="#DejaVuSans-31" x="149.511719"/>
     <use xlink:href="#DejaVuSans-35" x="213.134766"/>
     <use xlink:href="#DejaVuSans-5d" x="276.757812"/>
    </g>
   </g>
   <g id="text_15">
    <!-- R [24] -->
    <g transform="translate(127.316884 295.382295) scale(0.1 -0.1)">
     <defs>
      <path id="DejaVuSans-52" d="M 2841 2188 
Q 3044 2119 3236 1894 
Q 3428 1669 3622 1275 
L 4263 0 
L 3584 0 
L 2988 1197 
Q 2756 1666 2539 1819 
Q 2322 1972 1947 1972 
L 1259 1972 
L 1259 0 
L 628 0 
L 628 4666 
L 2053 4666 
Q 2853 4666 3247 4331 
Q 3641 3997 3641 3322 
Q 3641 2881 3436 2590 
Q 3231 2300 2841 2188 
z
M 1259 4147 
L 1259 2491 
L 2053 2491 
Q 2509 2491 2742 2702 
Q 2975 2913 2975 3322 
Q 2975 3731 2742 3939 
Q 2509 4147 2053 4147 
L 1259 4147 
z
" transform="scale(0.015625)"/>
     </defs>
     <use xlink:href="#DejaVuSans-52"/>
     <use xlink:href="#DejaVuSans-20" x="69.482422"/>
     <use xlink:href="#DejaVuSans-5b" x="101.269531"/>
     <use xlink:href="#DejaVuSans-32" x="140.283203"/>
     <use xlink:href="#DejaVuSans-34" x="203.90625"/>
     <use xlink:href="#DejaVuSans-5d" x="267.529297"/>
    </g>
   </g>
   <g id="text_16">
    <!-- S [30] -->
    <g transform="translate(219.426148 288.821474) scale(0.1 -0.1)">
     <defs>
      <path id="DejaVuSans-53" d="M 3425 4513 
L 3425 3897 
Q 3066 4069 2747 4153 
Q 2428 4238 2131 4238 
Q 1616 4238 1336 4038 
Q 1056 3838 1056 3469 
Q 1056 3159 1242 3001 
Q 1428 2844 1947 2747 
L 2328 2669 
Q 3034 2534 3370 2195 
Q 3706 1856 3706 1288 
Q 3706 609 3251 259 
Q 2797 -91 1919 -91 
Q 1588 -91 1214 -16 
Q 841 59 441 206 
L 441 856 
Q 825 641 1194 531 
Q 1563 422 1919 422 
Q 2459 422 2753 634 
Q 3047 847 3047 1241 
Q 3047 1584 2836 1778 
Q 2625 1972 2144 2069 
L 1759 2144 
Q 1053 2284 737 2584 
Q 422 2884 422 3419 
Q 422 4038 858 4394 
Q 1294 4750 2059 4750 
Q 2388 4750 2728 4690 
Q 3069 4631 3425 4513 
z
" transform="scale(0.015625)"/>
     </defs>
     <use xlink:href="#DejaVuSans-53"/>
     <use xlink:href="#DejaVuSans-20" x="63.476562"/>
     <use xlink:href="#DejaVuSans-5b" x="95.263672"/>
     <use xlink:href="#DejaVuSans-33" x="134.277344"/>
     <use xlink:href="#DejaVuSans-30" x="197.900391"/>
     <use xlink:href="#DejaVuSans-5d" x="261.523438"/>
    </g>
   </g>
   <g id="text_17">
    <!-- T [17] -->
    <g transform="translate(266.21361 262.063305) scale(0.1 -0.1)">
     <defs>
      <path id="DejaVuSans-54" d="M -19 4666 
L 3928 4666 
L 3928 4134 
L 2272 4134 
L 2272 0 
L 1638 0 
L 1638 4134 
L -19 4134 
L -19 4666 
z
" transform="scale(0.015625)"/>
     </defs>
     <use xlink:href="#DejaVuSans-54"/>
     <use xlink:href="#DejaVuSans-20" x="61.083984"/>
     <use xlink:href="#DejaVuSans-5b" x="92.871094"/>
     <use xlink:href="#DejaVuSans-31" x="131.884766"/>
     <use xlink:href="#DejaVuSans-37" x="195.507812"/>
     <use xlink:href="#DejaVuSans-5d" x="259.130859"/>
    </g>
   </g>
   <g id="text_18">
    <!-- V [25] -->
    <g transform="translate(296.807041 224.785101) scale(0.1 -0.1)">
     <defs>
      <path id="DejaVuSans-56" d="M 1831 0 
L 50 4666 
L 709 4666 
L 2188 738 
L 3669 4666 
L 4325 4666 
L 2547 0 
L 1831 0 
z
" transform="scale(0.015625)"/>
     </defs>
     <use xlink:href="#DejaVuSans-56"/>
     <use xlink:href="#DejaVuSans-20" x="68.408203"/>
     <use xlink:href="#DejaVuSans-5b" x="100.195312"/>
     <use xlink:href="#DejaVuSans-32" x="139.208984"/>
     <use xlink:href="#DejaVuSans-35" x="202.832031"/>
     <use xlink:href="#DejaVuSans-5d" x="266.455078"/>
    </g>
   </g>
   <g id="text_19">
    <!-- W [10] -->
    <g transform="translate(311.445515 187.293747) scale(0.1 -0.1)">
     <defs>
      <path id="DejaVuSans-57" d="M 213 4666 
L 850 4666 
L 1831 722 
L 2809 4666 
L 3519 4666 
L 4500 722 
L 5478 4666 
L 6119 4666 
L 4947 0 
L 4153 0 
L 3169 4050 
L 2175 0 
L 1381 0 
L 213 4666 
z
" transform="scale(0.015625)"/>
     </defs>
     <use xlink:href="#DejaVuSans-57"/>
     <use xlink:href="#DejaVuSans-20" x="98.876953"/>
     <use xlink:href="#DejaVuSans-5b" x="130.664062"/>
     <use xlink:href="#DejaVuSans-31" x="169.677734"/>
     <use xlink:href="#DejaVuSans-30" x="233.300781"/>
     <use xlink:href="#DejaVuSans-5d" x="296.923828"/>
    </g>
   </g>
   <g id="text_20">
    <!-- Y [9] -->
    <g transform="translate(314.747737 165.642556) scale(0.1 -0.1)">
     <defs>
      <path id="DejaVuSans-59" d="M -13 4666 
L 666 4666 
L 1959 2747 
L 3244 4666 
L 3922 4666 
L 2272 2222 
L 2272 0 
L 1638 0 
L 1638 2222 
L -13 4666 
z
" transform="scale(0.015625)"/>
     </defs>
     <use xlink:href="#DejaVuSans-59"/>
     <use xlink:href="#DejaVuSans-20" x="61.083984"/>
     <use xlink:href="#DejaVuSans-5b" x="92.871094"/>
     <use xlink:href="#DejaVuSans-39" x="131.884766"/>
     <use xlink:href="#DejaVuSans-5d" x="195.507812"/>
    </g>
   </g>
   <g id="text_21">
    <!-- A0A8C0NMB2 [384] -->
    <g transform="translate(114.598654 152.50768) scale(0.12 -0.12)">
     <defs>
      <path id="DejaVuSans-42" d="M 1259 2228 
L 1259 519 
L 2272 519 
Q 2781 519 3026 730 
Q 3272 941 3272 1375 
Q 3272 1813 3026 2020 
Q 2781 2228 2272 2228 
L 1259 2228 
z
M 1259 4147 
L 1259 2741 
L 2194 2741 
Q 2656 2741 2882 2914 
Q 3109 3088 3109 3444 
Q 3109 3797 2882 3972 
Q 2656 4147 2194 4147 
L 1259 4147 
z
M 628 4666 
L 2241 4666 
Q 2963 4666 3353 4366 
Q 3744 4066 3744 3513 
Q 3744 3084 3544 2831 
Q 3344 2578 2956 2516 
Q 3422 2416 3680 2098 
Q 3938 1781 3938 1306 
Q 3938 681 3513 340 
Q 3088 0 2303 0 
L 628 0 
L 628 4666 
z
" transform="scale(0.015625)"/>
     </defs>
     <use xlink:href="#DejaVuSans-41"/>
     <use xlink:href="#DejaVuSans-30" x="68.408203"/>
     <use xlink:href="#DejaVuSans-41" x="132.03125"/>
     <use xlink:href="#DejaVuSans-38" x="200.439453"/>
     <use xlink:href="#DejaVuSans-43" x="264.0625"/>
     <use xlink:href="#DejaVuSans-30" x="333.886719"/>
     <use xlink:href="#DejaVuSans-4e" x="397.509766"/>
     <use xlink:href="#DejaVuSans-4d" x="472.314453"/>
     <use xlink:href="#DejaVuSans-42" x="558.59375"/>
     <use xlink:href="#DejaVuSans-32" x="627.197266"/>
     <use xlink:href="#DejaVuSans-20" x="690.820312"/>
     <use xlink:href="#DejaVuSans-5b" x="722.607422"/>
     <use xlink:href="#DejaVuSans-33" x="761.621094"/>
     <use xlink:href="#DejaVuSans-38" x="825.244141"/>
     <use xlink:href="#DejaVuSans-34" x="888.867188"/>
     <use xlink:href="#DejaVuSans-5d" x="952.490234"/>
    </g>
   </g>
  </g>
 </g>
</svg>
