<?xml version="1.0" encoding="utf-8" standalone="no"?>
<!DOCTYPE svg PUBLIC "-//W3C//DTD SVG 1.1//EN"
  "http://www.w3.org/Graphics/SVG/1.1/DTD/svg11.dtd">
<svg xmlns:xlink="http://www.w3.org/1999/xlink" width="353.092343pt" height="306.085456pt" viewBox="0 0 353.092343 306.085456" xmlns="http://www.w3.org/2000/svg" version="1.1">
 <metadata>
  <rdf:RDF xmlns:dc="http://purl.org/dc/elements/1.1/" xmlns:cc="http://creativecommons.org/ns#" xmlns:rdf="http://www.w3.org/1999/02/22-rdf-syntax-ns#">
   <cc:Work>
    <dc:type rdf:resource="http://purl.org/dc/dcmitype/StillImage"/>
    <dc:date>2024-09-27T16:07:33.206184</dc:date>
    <dc:format>image/svg+xml</dc:format>
    <dc:creator>
     <cc:Agent>
      <dc:title>Matplotlib v3.8.3, https://matplotlib.org/</dc:title>
     </cc:Agent>
    </dc:creator>
   </cc:Work>
  </rdf:RDF>
 </metadata>
 <defs>
  <style type="text/css">*{stroke-linejoin: round; stroke-linecap: butt}</style>
 </defs>
 <g id="figure_1">
  <g id="patch_1">
   <path d="M -0 306.085456 
L 353.092343 306.085456 
L 353.092343 0 
L -0 0 
z
" style="fill: #ffffff"/>
  </g>
  <g id="axes_1">
   <g id="patch_2">
    <path d="M 304.368992 152.949172 
C 304.368992 144.299804 303.490466 135.672758 301.746949 127.200939 
C 300.003433 118.72912 297.403924 110.456256 293.98847 102.509795 
L 176.635232 152.949172 
z
" style="fill: #1f77b4"/>
   </g>
   <g id="patch_3">
    <path d="M 293.919241 102.336195 
C 291.395756 96.465005 288.435221 90.79146 285.062584 85.363369 
C 281.689948 79.935279 277.91471 74.767933 273.768684 69.904877 
L 176.566002 152.775572 
z
" style="fill: #ff7f0e"/>
   </g>
   <g id="patch_4">
    <path d="M 273.696261 69.812758 
C 271.745901 67.525096 269.715389 65.306998 267.608519 63.162611 
C 265.501648 61.018223 263.319732 58.948881 261.066846 56.958452 
L 176.493578 152.683453 
z
" style="fill: #aec7e8"/>
   </g>
   <g id="patch_5">
    <path d="M 260.987752 56.892216 
C 257.044359 53.408218 252.889446 50.17122 248.54677 47.199729 
C 244.204095 44.228238 239.68195 41.527929 235.006193 39.114243 
L 176.414484 152.617217 
z
" style="fill: #ffbb78"/>
   </g>
   <g id="patch_6">
    <path d="M 234.858452 39.043667 
C 227.842032 35.4217 220.504854 32.458125 212.94119 30.191018 
C 205.377526 27.923912 197.61991 26.363027 189.768017 25.528418 
L 176.266743 152.546641 
z
" style="fill: #98df8a"/>
   </g>
   <g id="patch_7">
    <path d="M 189.6246 25.506092 
C 185.887669 25.108878 182.135028 24.876772 178.37763 24.810449 
C 174.620233 24.744126 170.861739 24.843653 167.113117 25.108737 
L 176.123326 152.524315 
z
" style="fill: #2ca02c"/>
   </g>
   <g id="patch_8">
    <path d="M 167.014904 25.116118 
C 162.89128 25.40772 158.784242 25.899334 154.708292 26.589222 
C 150.632343 27.279111 146.592287 28.166462 142.60239 29.24814 
L 176.025113 152.531696 
z
" style="fill: #d62728"/>
   </g>
   <g id="patch_9">
    <path d="M 142.386794 29.336331 
C 128.208762 33.180058 114.799467 39.440921 102.749771 47.843043 
C 90.700074 56.245165 80.189598 66.663297 71.68147 78.63838 
L 175.809517 152.619886 
z
" style="fill: #9467bd"/>
   </g>
   <g id="patch_10">
    <path d="M 71.496914 78.864786 
C 66.269122 86.222837 61.835943 94.114329 58.27172 102.406919 
C 54.707498 110.699509 52.032269 119.346582 50.290896 128.203125 
L 175.624961 152.846292 
z
" style="fill: #ff9896"/>
   </g>
   <g id="patch_11">
    <path d="M 50.252941 128.488187 
C 47.491902 142.530707 47.110396 156.937918 49.124387 171.106882 
C 51.138378 185.275846 55.519375 199.00611 62.084033 211.723066 
L 175.587005 153.131354 
z
" style="fill: #c5b0d5"/>
   </g>
   <g id="patch_12">
    <path d="M 62.169086 211.944831 
C 64.410268 216.286415 66.898709 220.495835 69.622139 224.552333 
C 72.345568 228.608832 75.299503 232.505731 78.469377 236.223815 
L 175.672058 153.35312 
z
" style="fill: #c49c94"/>
   </g>
   <g id="patch_13">
    <path d="M 78.562396 236.3291 
C 82.708422 241.192156 87.213557 245.737224 92.039837 249.926003 
C 96.866117 254.114781 101.999946 257.935472 107.398063 261.355878 
L 175.765078 153.458404 
z
" style="fill: #8c564b"/>
   </g>
   <g id="patch_14">
    <path d="M 107.523884 261.437167 
C 112.286435 264.454859 117.243564 267.153918 122.362739 269.516629 
C 127.481914 271.87934 132.751911 273.900524 138.138143 275.566915 
L 175.890899 153.539693 
z
" style="fill: #e377c2"/>
   </g>
   <g id="patch_15">
    <path d="M 138.258497 275.605903 
C 142.566917 276.938841 146.942908 278.042668 151.368083 278.912745 
C 155.793257 279.782823 160.261408 280.41793 164.75376 280.815399 
L 176.011253 153.578681 
z
" style="fill: #7f7f7f"/>
   </g>
   <g id="patch_16">
    <path d="M 164.870528 280.825211 
C 169.737439 281.25582 174.625051 281.406829 179.509263 281.277493 
C 184.393474 281.148158 189.266245 280.738691 194.103546 280.051112 
L 176.128021 153.588494 
z
" style="fill: #f7b6d2"/>
   </g>
   <g id="patch_17">
    <path d="M 194.255709 280.024666 
C 201.700498 278.966457 209.037322 277.252905 216.180658 274.903984 
C 223.323995 272.555064 230.24598 269.579939 236.865925 266.013288 
L 176.280185 153.562048 
z
" style="fill: #c7c7c7"/>
   </g>
   <g id="patch_18">
    <path d="M 237.04138 265.915739 
C 244.655908 261.813234 251.834087 256.947902 258.465336 251.394694 
C 265.096584 245.841487 271.146674 239.629069 276.522399 232.853145 
L 176.45564 153.464499 
z
" style="fill: #dbdb8d"/>
   </g>
   <g id="patch_19">
    <path d="M 276.651448 232.693398 
C 281.559021 226.507566 285.882453 219.87998 289.566196 212.895796 
C 293.249939 205.911612 296.278147 198.600871 298.611911 191.057508 
L 176.584689 153.304752 
z
" style="fill: #bcbd22"/>
   </g>
   <g id="patch_20">
    <path d="M 298.653587 190.953001 
C 298.986749 189.876132 299.305641 188.7949 299.61018 187.709589 
C 299.914719 186.624278 300.204878 185.534983 300.480581 184.441991 
L 176.626365 153.200245 
z
" style="fill: #17becf"/>
   </g>
   <g id="patch_21">
    <path d="M 300.496316 184.363789 
C 301.78332 179.261612 302.753819 174.08478 303.402264 168.862893 
C 304.050708 163.641005 304.37586 158.384035 304.37586 153.12204 
L 176.6421 153.122043 
z
" style="fill: #9edae5"/>
   </g>
   <g id="patch_22">
    <path d="M 250.625293 153.056456 
C 250.625293 148.010991 250.11282 142.978548 249.095768 138.036654 
C 248.078717 133.094759 246.562337 128.268922 244.569989 123.633486 
L 176.113933 153.056456 
z
" style="fill: #ffffff"/>
   </g>
   <g id="patch_23">
    <path d="M 244.569989 123.633486 
C 243.097956 120.208625 241.370977 116.899057 239.403606 113.732671 
C 237.436235 110.566285 235.234012 107.552 232.815497 104.715218 
L 176.113933 153.056456 
z
" style="fill: #ffffff"/>
   </g>
   <g id="patch_24">
    <path d="M 232.815497 104.715218 
C 231.677788 103.380748 230.493322 102.086858 229.264315 100.835965 
C 228.035307 99.585072 226.762522 98.377956 225.448339 97.216872 
L 176.113933 153.056456 
z
" style="fill: #ffffff"/>
   </g>
   <g id="patch_25">
    <path d="M 225.448339 97.216872 
C 223.148026 95.184541 220.724327 93.296291 218.1911 91.562922 
C 215.657873 89.829552 213.019955 88.254372 210.29243 86.846388 
L 176.113933 153.056456 
z
" style="fill: #ffffff"/>
   </g>
   <g id="patch_26">
    <path d="M 210.29243 86.846388 
C 206.199518 84.733574 201.919497 83.004822 197.50736 81.682343 
C 193.095223 80.359864 188.569947 79.449348 183.989676 78.962493 
L 176.113933 153.056456 
z
" style="fill: #ffffff"/>
   </g>
   <g id="patch_27">
    <path d="M 183.989676 78.962493 
C 181.8098 78.730785 179.620759 78.595389 177.428944 78.556701 
C 175.237129 78.518013 173.044674 78.57607 170.857978 78.730702 
L 176.113933 153.056456 
z
" style="fill: #ffffff"/>
   </g>
   <g id="patch_28">
    <path d="M 170.857978 78.730702 
C 168.45253 78.900804 166.056758 79.187578 163.679121 79.590013 
C 161.301484 79.992448 158.944784 80.510069 156.617344 81.141049 
L 176.113933 153.056456 
z
" style="fill: #ffffff"/>
   </g>
   <g id="patch_29">
    <path d="M 156.617344 81.141049 
C 148.346826 83.383223 140.524737 87.035393 133.495747 91.936631 
C 126.466758 96.837869 120.335646 102.915112 115.372572 109.900577 
L 176.113933 153.056456 
z
" style="fill: #ffffff"/>
   </g>
   <g id="patch_30">
    <path d="M 115.372572 109.900577 
C 112.323027 114.192774 109.737006 118.796144 107.657876 123.633488 
C 105.578746 128.470833 104.018196 133.514958 103.002395 138.681275 
L 176.113933 153.056456 
z
" style="fill: #ffffff"/>
   </g>
   <g id="patch_31">
    <path d="M 103.002395 138.681275 
C 101.391789 146.872745 101.169244 155.276952 102.344072 163.542181 
C 103.5189 171.80741 106.074482 179.81673 109.903865 187.234954 
L 176.113933 153.056456 
z
" style="fill: #ffffff"/>
   </g>
   <g id="patch_32">
    <path d="M 109.903865 187.234954 
C 111.211222 189.767545 112.662812 192.22304 114.25148 194.589331 
C 115.840147 196.955622 117.563276 199.228813 119.412369 201.397695 
L 176.113933 153.056456 
z
" style="fill: #ffffff"/>
   </g>
   <g id="patch_33">
    <path d="M 119.412369 201.397695 
C 121.830884 204.234478 124.458879 206.885767 127.274209 209.329222 
C 130.089539 211.772676 133.084273 214.001412 136.233174 215.996649 
L 176.113933 153.056456 
z
" style="fill: #ffffff"/>
   </g>
   <g id="patch_34">
    <path d="M 136.233174 215.996649 
C 139.011329 217.756969 141.902988 219.33142 144.889173 220.709669 
C 147.875358 222.087917 150.949523 223.266941 154.091492 224.239002 
L 176.113933 153.056456 
z
" style="fill: #ffffff"/>
   </g>
   <g id="patch_35">
    <path d="M 154.091492 224.239002 
C 156.604737 225.016549 159.157398 225.660448 161.73875 226.167993 
C 164.320102 226.675539 166.926523 227.046018 169.547062 227.277875 
L 176.113933 153.056456 
z
" style="fill: #ffffff"/>
   </g>
   <g id="patch_36">
    <path d="M 169.547062 227.277875 
C 172.386093 227.529063 175.2372 227.617152 178.086324 227.541706 
C 180.935447 227.46626 183.777896 227.227405 186.599656 226.826317 
L 176.113933 153.056456 
z
" style="fill: #ffffff"/>
   </g>
   <g id="patch_37">
    <path d="M 186.599656 226.826317 
C 190.942449 226.209028 195.222263 225.209456 199.389209 223.839253 
C 203.556155 222.469049 207.59398 220.733559 211.455615 218.653013 
L 176.113933 153.056456 
z
" style="fill: #ffffff"/>
   </g>
   <g id="patch_38">
    <path d="M 211.455615 218.653013 
C 215.897422 216.259885 220.084694 213.421775 223.952922 210.182404 
C 227.82115 206.943033 231.350369 203.319122 234.486209 199.3665 
L 176.113933 153.056456 
z
" style="fill: #ffffff"/>
   </g>
   <g id="patch_39">
    <path d="M 234.486209 199.3665 
C 237.34896 195.758097 239.870962 191.892006 242.019812 187.817898 
C 244.168662 183.743791 245.935116 179.479192 247.296479 175.078897 
L 176.113933 153.056456 
z
" style="fill: #ffffff"/>
   </g>
   <g id="patch_40">
    <path d="M 247.296479 175.078897 
C 247.490823 174.450723 247.676844 173.820005 247.854491 173.186907 
C 248.032139 172.553809 248.201399 171.918387 248.362225 171.280808 
L 176.113933 153.056456 
z
" style="fill: #ffffff"/>
   </g>
   <g id="patch_41">
    <path d="M 248.362225 171.280808 
C 249.112978 168.304538 249.679102 165.284719 250.057362 162.238618 
C 250.435621 159.192517 250.625293 156.125951 250.625293 153.056454 
L 176.113933 153.056456 
z
" style="fill: #ffffff"/>
   </g>
   <g id="matplotlib.axis_1"/>
   <g id="matplotlib.axis_2"/>
   <g id="text_1">
    <!-- A [23] -->
    <g transform="translate(314.258121 127.385491) scale(0.1 -0.1)">
     <defs>
      <path id="DejaVuSans-41" d="M 2188 4044 
L 1331 1722 
L 3047 1722 
L 2188 4044 
z
M 1831 4666 
L 2547 4666 
L 4325 0 
L 3669 0 
L 3244 1197 
L 1141 1197 
L 716 0 
L 50 0 
L 1831 4666 
z
" transform="scale(0.015625)"/>
      <path id="DejaVuSans-20" transform="scale(0.015625)"/>
      <path id="DejaVuSans-5b" d="M 550 4863 
L 1875 4863 
L 1875 4416 
L 1125 4416 
L 1125 -397 
L 1875 -397 
L 1875 -844 
L 550 -844 
L 550 4863 
z
" transform="scale(0.015625)"/>
      <path id="DejaVuSans-32" d="M 1228 531 
L 3431 531 
L 3431 0 
L 469 0 
L 469 531 
Q 828 903 1448 1529 
Q 2069 2156 2228 2338 
Q 2531 2678 2651 2914 
Q 2772 3150 2772 3378 
Q 2772 3750 2511 3984 
Q 2250 4219 1831 4219 
Q 1534 4219 1204 4116 
Q 875 4013 500 3803 
L 500 4441 
Q 881 4594 1212 4672 
Q 1544 4750 1819 4750 
Q 2544 4750 2975 4387 
Q 3406 4025 3406 3419 
Q 3406 3131 3298 2873 
Q 3191 2616 2906 2266 
Q 2828 2175 2409 1742 
Q 1991 1309 1228 531 
z
" transform="scale(0.015625)"/>
      <path id="DejaVuSans-33" d="M 2597 2516 
Q 3050 2419 3304 2112 
Q 3559 1806 3559 1356 
Q 3559 666 3084 287 
Q 2609 -91 1734 -91 
Q 1441 -91 1130 -33 
Q 819 25 488 141 
L 488 750 
Q 750 597 1062 519 
Q 1375 441 1716 441 
Q 2309 441 2620 675 
Q 2931 909 2931 1356 
Q 2931 1769 2642 2001 
Q 2353 2234 1838 2234 
L 1294 2234 
L 1294 2753 
L 1863 2753 
Q 2328 2753 2575 2939 
Q 2822 3125 2822 3475 
Q 2822 3834 2567 4026 
Q 2313 4219 1838 4219 
Q 1578 4219 1281 4162 
Q 984 4106 628 3988 
L 628 4550 
Q 988 4650 1302 4700 
Q 1616 4750 1894 4750 
Q 2613 4750 3031 4423 
Q 3450 4097 3450 3541 
Q 3450 3153 3228 2886 
Q 3006 2619 2597 2516 
z
" transform="scale(0.015625)"/>
      <path id="DejaVuSans-5d" d="M 1947 4863 
L 1947 -844 
L 622 -844 
L 622 -397 
L 1369 -397 
L 1369 4416 
L 622 4416 
L 622 4863 
L 1947 4863 
z
" transform="scale(0.015625)"/>
     </defs>
     <use xlink:href="#DejaVuSans-41"/>
     <use xlink:href="#DejaVuSans-20" x="68.408203"/>
     <use xlink:href="#DejaVuSans-5b" x="100.195312"/>
     <use xlink:href="#DejaVuSans-32" x="139.208984"/>
     <use xlink:href="#DejaVuSans-33" x="202.832031"/>
     <use xlink:href="#DejaVuSans-5d" x="266.455078"/>
    </g>
   </g>
   <g id="text_2">
    <!-- C [17] -->
    <g transform="translate(295.912243 81.381524) scale(0.1 -0.1)">
     <defs>
      <path id="DejaVuSans-43" d="M 4122 4306 
L 4122 3641 
Q 3803 3938 3442 4084 
Q 3081 4231 2675 4231 
Q 1875 4231 1450 3742 
Q 1025 3253 1025 2328 
Q 1025 1406 1450 917 
Q 1875 428 2675 428 
Q 3081 428 3442 575 
Q 3803 722 4122 1019 
L 4122 359 
Q 3791 134 3420 21 
Q 3050 -91 2638 -91 
Q 1578 -91 968 557 
Q 359 1206 359 2328 
Q 359 3453 968 4101 
Q 1578 4750 2638 4750 
Q 3056 4750 3426 4639 
Q 3797 4528 4122 4306 
z
" transform="scale(0.015625)"/>
      <path id="DejaVuSans-31" d="M 794 531 
L 1825 531 
L 1825 4091 
L 703 3866 
L 703 4441 
L 1819 4666 
L 2450 4666 
L 2450 531 
L 3481 531 
L 3481 0 
L 794 0 
L 794 531 
z
" transform="scale(0.015625)"/>
      <path id="DejaVuSans-37" d="M 525 4666 
L 3525 4666 
L 3525 4397 
L 1831 0 
L 1172 0 
L 2766 4134 
L 525 4134 
L 525 4666 
z
" transform="scale(0.015625)"/>
     </defs>
     <use xlink:href="#DejaVuSans-43"/>
     <use xlink:href="#DejaVuSans-20" x="69.824219"/>
     <use xlink:href="#DejaVuSans-5b" x="101.611328"/>
     <use xlink:href="#DejaVuSans-31" x="140.625"/>
     <use xlink:href="#DejaVuSans-37" x="204.248047"/>
     <use xlink:href="#DejaVuSans-5d" x="267.871094"/>
    </g>
   </g>
   <g id="text_3">
    <!-- D [8] -->
    <g transform="translate(276.720013 56.969902) scale(0.1 -0.1)">
     <defs>
      <path id="DejaVuSans-44" d="M 1259 4147 
L 1259 519 
L 2022 519 
Q 2988 519 3436 956 
Q 3884 1394 3884 2338 
Q 3884 3275 3436 3711 
Q 2988 4147 2022 4147 
L 1259 4147 
z
M 628 4666 
L 1925 4666 
Q 3281 4666 3915 4102 
Q 4550 3538 4550 2338 
Q 4550 1131 3912 565 
Q 3275 0 1925 0 
L 628 0 
L 628 4666 
z
" transform="scale(0.015625)"/>
      <path id="DejaVuSans-38" d="M 2034 2216 
Q 1584 2216 1326 1975 
Q 1069 1734 1069 1313 
Q 1069 891 1326 650 
Q 1584 409 2034 409 
Q 2484 409 2743 651 
Q 3003 894 3003 1313 
Q 3003 1734 2745 1975 
Q 2488 2216 2034 2216 
z
M 1403 2484 
Q 997 2584 770 2862 
Q 544 3141 544 3541 
Q 544 4100 942 4425 
Q 1341 4750 2034 4750 
Q 2731 4750 3128 4425 
Q 3525 4100 3525 3541 
Q 3525 3141 3298 2862 
Q 3072 2584 2669 2484 
Q 3125 2378 3379 2068 
Q 3634 1759 3634 1313 
Q 3634 634 3220 271 
Q 2806 -91 2034 -91 
Q 1263 -91 848 271 
Q 434 634 434 1313 
Q 434 1759 690 2068 
Q 947 2378 1403 2484 
z
M 1172 3481 
Q 1172 3119 1398 2916 
Q 1625 2713 2034 2713 
Q 2441 2713 2670 2916 
Q 2900 3119 2900 3481 
Q 2900 3844 2670 4047 
Q 2441 4250 2034 4250 
Q 1625 4250 1398 4047 
Q 1172 3844 1172 3481 
z
" transform="scale(0.015625)"/>
     </defs>
     <use xlink:href="#DejaVuSans-44"/>
     <use xlink:href="#DejaVuSans-20" x="77.001953"/>
     <use xlink:href="#DejaVuSans-5b" x="108.789062"/>
     <use xlink:href="#DejaVuSans-38" x="147.802734"/>
     <use xlink:href="#DejaVuSans-5d" x="211.425781"/>
    </g>
   </g>
   <g id="text_4">
    <!-- E [14] -->
    <g transform="translate(255.759999 39.417355) scale(0.1 -0.1)">
     <defs>
      <path id="DejaVuSans-45" d="M 628 4666 
L 3578 4666 
L 3578 4134 
L 1259 4134 
L 1259 2753 
L 3481 2753 
L 3481 2222 
L 1259 2222 
L 1259 531 
L 3634 531 
L 3634 0 
L 628 0 
L 628 4666 
z
" transform="scale(0.015625)"/>
      <path id="DejaVuSans-34" d="M 2419 4116 
L 825 1625 
L 2419 1625 
L 2419 4116 
z
M 2253 4666 
L 3047 4666 
L 3047 1625 
L 3713 1625 
L 3713 1100 
L 3047 1100 
L 3047 0 
L 2419 0 
L 2419 1100 
L 313 1100 
L 313 1709 
L 2253 4666 
z
" transform="scale(0.015625)"/>
     </defs>
     <use xlink:href="#DejaVuSans-45"/>
     <use xlink:href="#DejaVuSans-20" x="63.183594"/>
     <use xlink:href="#DejaVuSans-5b" x="94.970703"/>
     <use xlink:href="#DejaVuSans-31" x="133.984375"/>
     <use xlink:href="#DejaVuSans-34" x="197.607422"/>
     <use xlink:href="#DejaVuSans-5d" x="261.230469"/>
    </g>
   </g>
   <g id="text_5">
    <!-- F [21] -->
    <g transform="translate(216.608634 20.714831) scale(0.1 -0.1)">
     <defs>
      <path id="DejaVuSans-46" d="M 628 4666 
L 3309 4666 
L 3309 4134 
L 1259 4134 
L 1259 2759 
L 3109 2759 
L 3109 2228 
L 1259 2228 
L 1259 0 
L 628 0 
L 628 4666 
z
" transform="scale(0.015625)"/>
     </defs>
     <use xlink:href="#DejaVuSans-46"/>
     <use xlink:href="#DejaVuSans-20" x="57.519531"/>
     <use xlink:href="#DejaVuSans-5b" x="89.306641"/>
     <use xlink:href="#DejaVuSans-32" x="128.320312"/>
     <use xlink:href="#DejaVuSans-31" x="191.943359"/>
     <use xlink:href="#DejaVuSans-5d" x="255.566406"/>
    </g>
   </g>
   <g id="text_6">
    <!-- G [10] -->
    <g transform="translate(178.603061 14.798437) scale(0.1 -0.1)">
     <defs>
      <path id="DejaVuSans-47" d="M 3809 666 
L 3809 1919 
L 2778 1919 
L 2778 2438 
L 4434 2438 
L 4434 434 
Q 4069 175 3628 42 
Q 3188 -91 2688 -91 
Q 1594 -91 976 548 
Q 359 1188 359 2328 
Q 359 3472 976 4111 
Q 1594 4750 2688 4750 
Q 3144 4750 3555 4637 
Q 3966 4525 4313 4306 
L 4313 3634 
Q 3963 3931 3569 4081 
Q 3175 4231 2741 4231 
Q 1884 4231 1454 3753 
Q 1025 3275 1025 2328 
Q 1025 1384 1454 906 
Q 1884 428 2741 428 
Q 3075 428 3337 486 
Q 3600 544 3809 666 
z
" transform="scale(0.015625)"/>
      <path id="DejaVuSans-30" d="M 2034 4250 
Q 1547 4250 1301 3770 
Q 1056 3291 1056 2328 
Q 1056 1369 1301 889 
Q 1547 409 2034 409 
Q 2525 409 2770 889 
Q 3016 1369 3016 2328 
Q 3016 3291 2770 3770 
Q 2525 4250 2034 4250 
z
M 2034 4750 
Q 2819 4750 3233 4129 
Q 3647 3509 3647 2328 
Q 3647 1150 3233 529 
Q 2819 -91 2034 -91 
Q 1250 -91 836 529 
Q 422 1150 422 2328 
Q 422 3509 836 4129 
Q 1250 4750 2034 4750 
z
" transform="scale(0.015625)"/>
     </defs>
     <use xlink:href="#DejaVuSans-47"/>
     <use xlink:href="#DejaVuSans-20" x="77.490234"/>
     <use xlink:href="#DejaVuSans-5b" x="109.277344"/>
     <use xlink:href="#DejaVuSans-31" x="148.291016"/>
     <use xlink:href="#DejaVuSans-30" x="211.914062"/>
     <use xlink:href="#DejaVuSans-5d" x="275.537109"/>
    </g>
   </g>
   <g id="text_7">
    <!-- H [11] -->
    <g transform="translate(121.350048 16.75435) scale(0.1 -0.1)">
     <defs>
      <path id="DejaVuSans-48" d="M 628 4666 
L 1259 4666 
L 1259 2753 
L 3553 2753 
L 3553 4666 
L 4184 4666 
L 4184 0 
L 3553 0 
L 3553 2222 
L 1259 2222 
L 1259 0 
L 628 0 
L 628 4666 
z
" transform="scale(0.015625)"/>
     </defs>
     <use xlink:href="#DejaVuSans-48"/>
     <use xlink:href="#DejaVuSans-20" x="75.195312"/>
     <use xlink:href="#DejaVuSans-5b" x="106.982422"/>
     <use xlink:href="#DejaVuSans-31" x="145.996094"/>
     <use xlink:href="#DejaVuSans-31" x="209.619141"/>
     <use xlink:href="#DejaVuSans-5d" x="273.242188"/>
    </g>
   </g>
   <g id="text_8">
    <!-- I [39] -->
    <g transform="translate(68.787546 40.124733) scale(0.1 -0.1)">
     <defs>
      <path id="DejaVuSans-49" d="M 628 4666 
L 1259 4666 
L 1259 0 
L 628 0 
L 628 4666 
z
" transform="scale(0.015625)"/>
      <path id="DejaVuSans-39" d="M 703 97 
L 703 672 
Q 941 559 1184 500 
Q 1428 441 1663 441 
Q 2288 441 2617 861 
Q 2947 1281 2994 2138 
Q 2813 1869 2534 1725 
Q 2256 1581 1919 1581 
Q 1219 1581 811 2004 
Q 403 2428 403 3163 
Q 403 3881 828 4315 
Q 1253 4750 1959 4750 
Q 2769 4750 3195 4129 
Q 3622 3509 3622 2328 
Q 3622 1225 3098 567 
Q 2575 -91 1691 -91 
Q 1453 -91 1209 -44 
Q 966 3 703 97 
z
M 1959 2075 
Q 2384 2075 2632 2365 
Q 2881 2656 2881 3163 
Q 2881 3666 2632 3958 
Q 2384 4250 1959 4250 
Q 1534 4250 1286 3958 
Q 1038 3666 1038 3163 
Q 1038 2656 1286 2365 
Q 1534 2075 1959 2075 
z
" transform="scale(0.015625)"/>
     </defs>
     <use xlink:href="#DejaVuSans-49"/>
     <use xlink:href="#DejaVuSans-20" x="29.492188"/>
     <use xlink:href="#DejaVuSans-5b" x="61.279297"/>
     <use xlink:href="#DejaVuSans-33" x="100.292969"/>
     <use xlink:href="#DejaVuSans-39" x="163.916016"/>
     <use xlink:href="#DejaVuSans-5d" x="227.539062"/>
    </g>
   </g>
   <g id="text_9">
    <!-- K [24] -->
    <g transform="translate(16.272334 100.122357) scale(0.1 -0.1)">
     <defs>
      <path id="DejaVuSans-4b" d="M 628 4666 
L 1259 4666 
L 1259 2694 
L 3353 4666 
L 4166 4666 
L 1850 2491 
L 4331 0 
L 3500 0 
L 1259 2247 
L 1259 0 
L 628 0 
L 628 4666 
z
" transform="scale(0.015625)"/>
     </defs>
     <use xlink:href="#DejaVuSans-4b"/>
     <use xlink:href="#DejaVuSans-20" x="65.576172"/>
     <use xlink:href="#DejaVuSans-5b" x="97.363281"/>
     <use xlink:href="#DejaVuSans-32" x="136.376953"/>
     <use xlink:href="#DejaVuSans-34" x="200"/>
     <use xlink:href="#DejaVuSans-5d" x="263.623047"/>
    </g>
   </g>
   <g id="text_10">
    <!-- L [38] -->
    <g transform="translate(7.2 175.66381) scale(0.1 -0.1)">
     <defs>
      <path id="DejaVuSans-4c" d="M 628 4666 
L 1259 4666 
L 1259 531 
L 3531 531 
L 3531 0 
L 628 0 
L 628 4666 
z
" transform="scale(0.015625)"/>
     </defs>
     <use xlink:href="#DejaVuSans-4c"/>
     <use xlink:href="#DejaVuSans-20" x="55.712891"/>
     <use xlink:href="#DejaVuSans-5b" x="87.5"/>
     <use xlink:href="#DejaVuSans-33" x="126.513672"/>
     <use xlink:href="#DejaVuSans-38" x="190.136719"/>
     <use xlink:href="#DejaVuSans-5d" x="253.759766"/>
    </g>
   </g>
   <g id="text_11">
    <!-- M [13] -->
    <g transform="translate(26.682772 234.43163) scale(0.1 -0.1)">
     <defs>
      <path id="DejaVuSans-4d" d="M 628 4666 
L 1569 4666 
L 2759 1491 
L 3956 4666 
L 4897 4666 
L 4897 0 
L 4281 0 
L 4281 4097 
L 3078 897 
L 2444 897 
L 1241 4097 
L 1241 0 
L 628 0 
L 628 4666 
z
" transform="scale(0.015625)"/>
     </defs>
     <use xlink:href="#DejaVuSans-4d"/>
     <use xlink:href="#DejaVuSans-20" x="86.279297"/>
     <use xlink:href="#DejaVuSans-5b" x="118.066406"/>
     <use xlink:href="#DejaVuSans-31" x="157.080078"/>
     <use xlink:href="#DejaVuSans-33" x="220.703125"/>
     <use xlink:href="#DejaVuSans-5d" x="284.326172"/>
    </g>
   </g>
   <g id="text_12">
    <!-- N [17] -->
    <g transform="translate(52.479813 262.332137) scale(0.1 -0.1)">
     <defs>
      <path id="DejaVuSans-4e" d="M 628 4666 
L 1478 4666 
L 3547 763 
L 3547 4666 
L 4159 4666 
L 4159 0 
L 3309 0 
L 1241 3903 
L 1241 0 
L 628 0 
L 628 4666 
z
" transform="scale(0.015625)"/>
     </defs>
     <use xlink:href="#DejaVuSans-4e"/>
     <use xlink:href="#DejaVuSans-20" x="74.804688"/>
     <use xlink:href="#DejaVuSans-5b" x="106.591797"/>
     <use xlink:href="#DejaVuSans-31" x="145.605469"/>
     <use xlink:href="#DejaVuSans-37" x="209.228516"/>
     <use xlink:href="#DejaVuSans-5d" x="272.851562"/>
    </g>
   </g>
   <g id="text_13">
    <!-- P [15] -->
    <g transform="translate(87.273986 283.873697) scale(0.1 -0.1)">
     <defs>
      <path id="DejaVuSans-50" d="M 1259 4147 
L 1259 2394 
L 2053 2394 
Q 2494 2394 2734 2622 
Q 2975 2850 2975 3272 
Q 2975 3691 2734 3919 
Q 2494 4147 2053 4147 
L 1259 4147 
z
M 628 4666 
L 2053 4666 
Q 2838 4666 3239 4311 
Q 3641 3956 3641 3272 
Q 3641 2581 3239 2228 
Q 2838 1875 2053 1875 
L 1259 1875 
L 1259 0 
L 628 0 
L 628 4666 
z
" transform="scale(0.015625)"/>
      <path id="DejaVuSans-35" d="M 691 4666 
L 3169 4666 
L 3169 4134 
L 1269 4134 
L 1269 2991 
Q 1406 3038 1543 3061 
Q 1681 3084 1819 3084 
Q 2600 3084 3056 2656 
Q 3513 2228 3513 1497 
Q 3513 744 3044 326 
Q 2575 -91 1722 -91 
Q 1428 -91 1123 -41 
Q 819 9 494 109 
L 494 744 
Q 775 591 1075 516 
Q 1375 441 1709 441 
Q 2250 441 2565 725 
Q 2881 1009 2881 1497 
Q 2881 1984 2565 2268 
Q 2250 2553 1709 2553 
Q 1456 2553 1204 2497 
Q 953 2441 691 2322 
L 691 4666 
z
" transform="scale(0.015625)"/>
     </defs>
     <use xlink:href="#DejaVuSans-50"/>
     <use xlink:href="#DejaVuSans-20" x="60.302734"/>
     <use xlink:href="#DejaVuSans-5b" x="92.089844"/>
     <use xlink:href="#DejaVuSans-31" x="131.103516"/>
     <use xlink:href="#DejaVuSans-35" x="194.726562"/>
     <use xlink:href="#DejaVuSans-5d" x="258.349609"/>
    </g>
   </g>
   <g id="text_14">
    <!-- Q [12] -->
    <g transform="translate(117.325641 294.205527) scale(0.1 -0.1)">
     <defs>
      <path id="DejaVuSans-51" d="M 2522 4238 
Q 1834 4238 1429 3725 
Q 1025 3213 1025 2328 
Q 1025 1447 1429 934 
Q 1834 422 2522 422 
Q 3209 422 3611 934 
Q 4013 1447 4013 2328 
Q 4013 3213 3611 3725 
Q 3209 4238 2522 4238 
z
M 3406 84 
L 4238 -825 
L 3475 -825 
L 2784 -78 
Q 2681 -84 2626 -87 
Q 2572 -91 2522 -91 
Q 1538 -91 948 567 
Q 359 1225 359 2328 
Q 359 3434 948 4092 
Q 1538 4750 2522 4750 
Q 3503 4750 4090 4092 
Q 4678 3434 4678 2328 
Q 4678 1516 4351 937 
Q 4025 359 3406 84 
z
" transform="scale(0.015625)"/>
     </defs>
     <use xlink:href="#DejaVuSans-51"/>
     <use xlink:href="#DejaVuSans-20" x="78.710938"/>
     <use xlink:href="#DejaVuSans-5b" x="110.498047"/>
     <use xlink:href="#DejaVuSans-31" x="149.511719"/>
     <use xlink:href="#DejaVuSans-32" x="213.134766"/>
     <use xlink:href="#DejaVuSans-5d" x="276.757812"/>
    </g>
   </g>
   <g id="text_15">
    <!-- R [13] -->
    <g transform="translate(179.847387 296.805768) scale(0.1 -0.1)">
     <defs>
      <path id="DejaVuSans-52" d="M 2841 2188 
Q 3044 2119 3236 1894 
Q 3428 1669 3622 1275 
L 4263 0 
L 3584 0 
L 2988 1197 
Q 2756 1666 2539 1819 
Q 2322 1972 1947 1972 
L 1259 1972 
L 1259 0 
L 628 0 
L 628 4666 
L 2053 4666 
Q 2853 4666 3247 4331 
Q 3641 3997 3641 3322 
Q 3641 2881 3436 2590 
Q 3231 2300 2841 2188 
z
M 1259 4147 
L 1259 2491 
L 2053 2491 
Q 2509 2491 2742 2702 
Q 2975 2913 2975 3322 
Q 2975 3731 2742 3939 
Q 2509 4147 2053 4147 
L 1259 4147 
z
" transform="scale(0.015625)"/>
     </defs>
     <use xlink:href="#DejaVuSans-52"/>
     <use xlink:href="#DejaVuSans-20" x="69.482422"/>
     <use xlink:href="#DejaVuSans-5b" x="101.269531"/>
     <use xlink:href="#DejaVuSans-31" x="140.283203"/>
     <use xlink:href="#DejaVuSans-33" x="203.90625"/>
     <use xlink:href="#DejaVuSans-5d" x="267.529297"/>
    </g>
   </g>
   <g id="text_16">
    <!-- S [20] -->
    <g transform="translate(220.170706 289.797553) scale(0.1 -0.1)">
     <defs>
      <path id="DejaVuSans-53" d="M 3425 4513 
L 3425 3897 
Q 3066 4069 2747 4153 
Q 2428 4238 2131 4238 
Q 1616 4238 1336 4038 
Q 1056 3838 1056 3469 
Q 1056 3159 1242 3001 
Q 1428 2844 1947 2747 
L 2328 2669 
Q 3034 2534 3370 2195 
Q 3706 1856 3706 1288 
Q 3706 609 3251 259 
Q 2797 -91 1919 -91 
Q 1588 -91 1214 -16 
Q 841 59 441 206 
L 441 856 
Q 825 641 1194 531 
Q 1563 422 1919 422 
Q 2459 422 2753 634 
Q 3047 847 3047 1241 
Q 3047 1584 2836 1778 
Q 2625 1972 2144 2069 
L 1759 2144 
Q 1053 2284 737 2584 
Q 422 2884 422 3419 
Q 422 4038 858 4394 
Q 1294 4750 2059 4750 
Q 2388 4750 2728 4690 
Q 3069 4631 3425 4513 
z
" transform="scale(0.015625)"/>
     </defs>
     <use xlink:href="#DejaVuSans-53"/>
     <use xlink:href="#DejaVuSans-20" x="63.476562"/>
     <use xlink:href="#DejaVuSans-5b" x="95.263672"/>
     <use xlink:href="#DejaVuSans-32" x="134.277344"/>
     <use xlink:href="#DejaVuSans-30" x="197.900391"/>
     <use xlink:href="#DejaVuSans-5d" x="261.523438"/>
    </g>
   </g>
   <g id="text_17">
    <!-- T [23] -->
    <g transform="translate(266.666305 263.947089) scale(0.1 -0.1)">
     <defs>
      <path id="DejaVuSans-54" d="M -19 4666 
L 3928 4666 
L 3928 4134 
L 2272 4134 
L 2272 0 
L 1638 0 
L 1638 4134 
L -19 4134 
L -19 4666 
z
" transform="scale(0.015625)"/>
     </defs>
     <use xlink:href="#DejaVuSans-54"/>
     <use xlink:href="#DejaVuSans-20" x="61.083984"/>
     <use xlink:href="#DejaVuSans-5b" x="92.871094"/>
     <use xlink:href="#DejaVuSans-32" x="131.884766"/>
     <use xlink:href="#DejaVuSans-33" x="195.507812"/>
     <use xlink:href="#DejaVuSans-5d" x="259.130859"/>
    </g>
   </g>
   <g id="text_18">
    <!-- V [21] -->
    <g transform="translate(300.864347 221.614275) scale(0.1 -0.1)">
     <defs>
      <path id="DejaVuSans-56" d="M 1831 0 
L 50 4666 
L 709 4666 
L 2188 738 
L 3669 4666 
L 4325 4666 
L 2547 0 
L 1831 0 
z
" transform="scale(0.015625)"/>
     </defs>
     <use xlink:href="#DejaVuSans-56"/>
     <use xlink:href="#DejaVuSans-20" x="68.408203"/>
     <use xlink:href="#DejaVuSans-5b" x="100.195312"/>
     <use xlink:href="#DejaVuSans-32" x="139.208984"/>
     <use xlink:href="#DejaVuSans-31" x="202.832031"/>
     <use xlink:href="#DejaVuSans-5d" x="266.455078"/>
    </g>
   </g>
   <g id="text_19">
    <!-- W [3] -->
    <g transform="translate(311.908561 193.919898) scale(0.1 -0.1)">
     <defs>
      <path id="DejaVuSans-57" d="M 213 4666 
L 850 4666 
L 1831 722 
L 2809 4666 
L 3519 4666 
L 4500 722 
L 5478 4666 
L 6119 4666 
L 4947 0 
L 4153 0 
L 3169 4050 
L 2175 0 
L 1381 0 
L 213 4666 
z
" transform="scale(0.015625)"/>
     </defs>
     <use xlink:href="#DejaVuSans-57"/>
     <use xlink:href="#DejaVuSans-20" x="98.876953"/>
     <use xlink:href="#DejaVuSans-5b" x="130.664062"/>
     <use xlink:href="#DejaVuSans-33" x="169.677734"/>
     <use xlink:href="#DejaVuSans-5d" x="233.300781"/>
    </g>
   </g>
   <g id="text_20">
    <!-- Y [14] -->
    <g transform="translate(316.07828 173.196353) scale(0.1 -0.1)">
     <defs>
      <path id="DejaVuSans-59" d="M -13 4666 
L 666 4666 
L 1959 2747 
L 3244 4666 
L 3922 4666 
L 2272 2222 
L 2272 0 
L 1638 0 
L 1638 2222 
L -13 4666 
z
" transform="scale(0.015625)"/>
     </defs>
     <use xlink:href="#DejaVuSans-59"/>
     <use xlink:href="#DejaVuSans-20" x="61.083984"/>
     <use xlink:href="#DejaVuSans-5b" x="92.871094"/>
     <use xlink:href="#DejaVuSans-31" x="131.884766"/>
     <use xlink:href="#DejaVuSans-34" x="195.507812"/>
     <use xlink:href="#DejaVuSans-5d" x="259.130859"/>
    </g>
   </g>
   <g id="text_21">
    <!-- A0A8D0YE26 [356] -->
    <g transform="translate(118.700495 153.056456) scale(0.12 -0.12)">
     <defs>
      <path id="DejaVuSans-36" d="M 2113 2584 
Q 1688 2584 1439 2293 
Q 1191 2003 1191 1497 
Q 1191 994 1439 701 
Q 1688 409 2113 409 
Q 2538 409 2786 701 
Q 3034 994 3034 1497 
Q 3034 2003 2786 2293 
Q 2538 2584 2113 2584 
z
M 3366 4563 
L 3366 3988 
Q 3128 4100 2886 4159 
Q 2644 4219 2406 4219 
Q 1781 4219 1451 3797 
Q 1122 3375 1075 2522 
Q 1259 2794 1537 2939 
Q 1816 3084 2150 3084 
Q 2853 3084 3261 2657 
Q 3669 2231 3669 1497 
Q 3669 778 3244 343 
Q 2819 -91 2113 -91 
Q 1303 -91 875 529 
Q 447 1150 447 2328 
Q 447 3434 972 4092 
Q 1497 4750 2381 4750 
Q 2619 4750 2861 4703 
Q 3103 4656 3366 4563 
z
" transform="scale(0.015625)"/>
     </defs>
     <use xlink:href="#DejaVuSans-41"/>
     <use xlink:href="#DejaVuSans-30" x="68.408203"/>
     <use xlink:href="#DejaVuSans-41" x="132.03125"/>
     <use xlink:href="#DejaVuSans-38" x="200.439453"/>
     <use xlink:href="#DejaVuSans-44" x="264.0625"/>
     <use xlink:href="#DejaVuSans-30" x="341.064453"/>
     <use xlink:href="#DejaVuSans-59" x="404.6875"/>
     <use xlink:href="#DejaVuSans-45" x="465.771484"/>
     <use xlink:href="#DejaVuSans-32" x="528.955078"/>
     <use xlink:href="#DejaVuSans-36" x="592.578125"/>
     <use xlink:href="#DejaVuSans-20" x="656.201172"/>
     <use xlink:href="#DejaVuSans-5b" x="687.988281"/>
     <use xlink:href="#DejaVuSans-33" x="727.001953"/>
     <use xlink:href="#DejaVuSans-35" x="790.625"/>
     <use xlink:href="#DejaVuSans-36" x="854.248047"/>
     <use xlink:href="#DejaVuSans-5d" x="917.871094"/>
    </g>
   </g>
  </g>
 </g>
</svg>
