<?xml version="1.0" encoding="utf-8" standalone="no"?>
<!DOCTYPE svg PUBLIC "-//W3C//DTD SVG 1.1//EN"
  "http://www.w3.org/Graphics/SVG/1.1/DTD/svg11.dtd">
<svg xmlns:xlink="http://www.w3.org/1999/xlink" width="353.613451pt" height="303.016754pt" viewBox="0 0 353.613451 303.016754" xmlns="http://www.w3.org/2000/svg" version="1.1">
 <metadata>
  <rdf:RDF xmlns:dc="http://purl.org/dc/elements/1.1/" xmlns:cc="http://creativecommons.org/ns#" xmlns:rdf="http://www.w3.org/1999/02/22-rdf-syntax-ns#">
   <cc:Work>
    <dc:type rdf:resource="http://purl.org/dc/dcmitype/StillImage"/>
    <dc:date>2024-09-27T16:07:24.243890</dc:date>
    <dc:format>image/svg+xml</dc:format>
    <dc:creator>
     <cc:Agent>
      <dc:title>Matplotlib v3.8.3, https://matplotlib.org/</dc:title>
     </cc:Agent>
    </dc:creator>
   </cc:Work>
  </rdf:RDF>
 </metadata>
 <defs>
  <style type="text/css">*{stroke-linejoin: round; stroke-linecap: butt}</style>
 </defs>
 <g id="figure_1">
  <g id="patch_1">
   <path d="M -0 303.016754 
L 353.613451 303.016754 
L 353.613451 0 
L -0 0 
z
" style="fill: #ffffff"/>
  </g>
  <g id="axes_1">
   <g id="patch_2">
    <path d="M 304.989152 152.561926 
C 304.989152 138.116746 302.538783 123.775669 297.742495 110.15 
C 292.946208 96.524332 285.873132 83.810465 276.824767 72.550345 
L 177.255392 152.561926 
z
" style="fill: #1f77b4"/>
   </g>
   <g id="patch_3">
    <path d="M 276.703944 72.355653 
C 274.157418 69.186662 271.461055 66.14105 268.624063 63.229217 
C 265.787071 60.317385 262.812683 57.542651 259.711059 54.914492 
L 177.134569 152.367234 
z
" style="fill: #ff7f0e"/>
   </g>
   <g id="patch_4">
    <path d="M 259.62602 54.843694 
C 255.960188 51.737454 252.122006 48.840532 248.129777 46.166741 
C 244.137548 43.49295 239.99763 41.046548 235.729765 38.839203 
L 177.04953 152.296435 
z
" style="fill: #aec7e8"/>
   </g>
   <g id="patch_5">
    <path d="M 235.623323 38.784151 
C 231.355457 36.576805 226.966441 34.61203 222.477204 32.899195 
C 217.987968 31.186361 213.405659 29.728194 208.75213 28.531649 
L 176.943088 152.241383 
z
" style="fill: #ffbb78"/>
   </g>
   <g id="patch_6">
    <path d="M 208.599326 28.497966 
C 201.078883 26.564262 193.397754 25.320342 185.651393 24.781666 
C 177.905032 24.24299 170.125663 24.411798 162.409961 25.285993 
L 176.790284 152.2077 
z
" style="fill: #98df8a"/>
   </g>
   <g id="patch_7">
    <path d="M 162.236034 25.302647 
C 155.991476 26.01016 149.807639 27.177558 143.734921 28.795328 
C 137.662204 30.413097 131.717149 32.476829 125.948212 34.969706 
L 176.616357 152.224354 
z
" style="fill: #2ca02c"/>
   </g>
   <g id="patch_8">
    <path d="M 125.828493 35.01778 
C 122.096634 36.630393 118.443889 38.420248 114.882732 40.381231 
C 111.321575 42.342215 107.856066 44.472092 104.498041 46.763588 
L 176.496638 152.272429 
z
" style="fill: #d62728"/>
   </g>
   <g id="patch_9">
    <path d="M 104.400243 46.832843 
C 99.82037 49.95812 95.448844 53.378286 91.313411 57.071629 
C 87.177978 60.764973 83.287408 64.723664 79.666395 68.922576 
L 176.39884 152.341683 
z
" style="fill: #9467bd"/>
   </g>
   <g id="patch_10">
    <path d="M 79.58657 69.011955 
C 76.931594 72.090655 74.425108 75.29435 72.075675 78.612099 
C 69.726242 81.929847 67.536538 85.357868 65.514043 88.884454 
L 176.319015 152.431063 
z
" style="fill: #ff9896"/>
   </g>
   <g id="patch_11">
    <path d="M 65.41905 89.136706 
C 56.563515 104.577929 51.032696 121.701107 49.182297 139.405001 
C 47.331899 157.108895 49.202456 175.00566 54.67367 191.944305 
L 176.224022 152.683316 
z
" style="fill: #c5b0d5"/>
   </g>
   <g id="patch_12">
    <path d="M 54.710859 192.202237 
C 55.73316 195.367239 56.87869 198.491104 58.144829 201.56669 
C 59.410967 204.642276 60.796749 207.667236 62.299005 210.634653 
L 176.261211 152.941248 
z
" style="fill: #c49c94"/>
   </g>
   <g id="patch_13">
    <path d="M 62.348949 210.728215 
C 64.686213 215.34503 67.301872 219.815551 70.181462 224.115056 
C 73.061051 228.414562 76.199252 232.535111 79.57871 236.453917 
L 176.311156 153.03481 
z
" style="fill: #8c564b"/>
   </g>
   <g id="patch_14">
    <path d="M 79.676849 236.563802 
C 84.022738 241.603278 88.755803 246.295444 93.832804 250.597436 
C 98.909805 254.899428 104.315233 258.798104 109.999706 262.257848 
L 176.409294 153.144695 
z
" style="fill: #e377c2"/>
   </g>
   <g id="patch_15">
    <path d="M 110.099274 262.324533 
C 112.624678 263.861571 115.202682 265.31047 117.828628 266.668613 
C 120.454574 268.026756 123.12688 269.293324 125.840717 270.466029 
L 176.508862 153.21138 
z
" style="fill: #7f7f7f"/>
   </g>
   <g id="patch_16">
    <path d="M 125.979688 270.514947 
C 134.127731 274.035884 142.620633 276.697938 151.320635 278.457928 
C 160.020637 280.217919 168.880445 281.06628 177.756348 280.989249 
L 176.647833 153.260299 
z
" style="fill: #f7b6d2"/>
   </g>
   <g id="patch_17">
    <path d="M 177.980953 280.986325 
C 187.227394 280.906078 196.437846 279.822027 205.450242 277.753248 
C 214.462638 275.684469 223.223806 272.643166 231.579585 268.682854 
L 176.872437 153.257375 
z
" style="fill: #c7c7c7"/>
   </g>
   <g id="patch_18">
    <path d="M 231.737218 268.61876 
C 235.744972 266.719241 239.651077 264.612278 243.439657 262.306433 
C 247.228237 260.000588 250.894154 257.498988 254.422509 254.811801 
L 177.030069 153.19328 
z
" style="fill: #dbdb8d"/>
   </g>
   <g id="patch_19">
    <path d="M 254.560675 254.690544 
C 262.801756 248.414155 270.248814 241.158502 276.737611 233.083603 
C 283.226407 225.008704 288.708886 216.174361 293.064135 206.77541 
L 177.168235 153.072023 
z
" style="fill: #bcbd22"/>
   </g>
   <g id="patch_20">
    <path d="M 293.14974 206.623095 
C 294.703521 203.26992 296.111046 199.850891 297.368342 196.375661 
C 298.625638 192.90043 299.73152 189.372271 300.682867 185.801142 
L 177.25384 152.919708 
z
" style="fill: #17becf"/>
   </g>
   <g id="patch_21">
    <path d="M 300.710111 185.689163 
C 302.137411 180.331421 303.214349 174.886425 303.934088 169.388738 
C 304.653828 163.89105 305.014844 158.352328 305.014844 152.807728 
L 177.281084 152.807729 
z
" style="fill: #9edae5"/>
   </g>
   <g id="patch_22">
    <path d="M 251.264723 152.738642 
C 251.264723 144.312287 249.835341 135.946659 247.037506 127.998352 
C 244.239672 120.050046 240.113711 112.633624 234.835498 106.06522 
L 176.753363 152.738642 
z
" style="fill: #ffffff"/>
   </g>
   <g id="patch_23">
    <path d="M 234.835498 106.06522 
C 233.350025 104.216642 231.777146 102.440035 230.122234 100.741466 
C 228.467322 99.042897 226.732263 97.424302 224.922982 95.89121 
L 176.753363 152.738642 
z
" style="fill: #ffffff"/>
   </g>
   <g id="patch_24">
    <path d="M 224.922982 95.89121 
C 222.78458 94.079237 220.54564 92.389365 218.21684 90.829654 
C 215.88804 89.269942 213.473087 87.842875 210.983499 86.555256 
L 176.753363 152.738642 
z
" style="fill: #ffffff"/>
   </g>
   <g id="patch_25">
    <path d="M 210.983499 86.555256 
C 208.493911 85.267638 205.933652 84.121519 203.31493 83.122366 
C 200.696209 82.123212 198.023196 81.272615 195.308637 80.57463 
L 176.753363 152.738642 
z
" style="fill: #ffffff"/>
   </g>
   <g id="patch_26">
    <path d="M 195.308637 80.57463 
C 190.921712 79.446636 186.441053 78.721016 181.922343 78.406789 
C 177.403633 78.092561 172.865667 78.191032 168.364841 78.700979 
L 176.753363 152.738642 
z
" style="fill: #ffffff"/>
   </g>
   <g id="patch_27">
    <path d="M 168.364841 78.700979 
C 164.722182 79.113695 161.114944 79.794678 157.572525 80.738376 
C 154.030107 81.682075 150.562158 82.885919 147.196945 84.340097 
L 176.753363 152.738642 
z
" style="fill: #ffffff"/>
   </g>
   <g id="patch_28">
    <path d="M 147.196945 84.340097 
C 145.020027 85.280788 142.889259 86.32487 140.811918 87.468777 
C 138.734576 88.612684 136.713029 89.855112 134.754181 91.191818 
L 176.753363 152.738642 
z
" style="fill: #ffffff"/>
   </g>
   <g id="patch_29">
    <path d="M 134.754181 91.191818 
C 132.082589 93.014897 129.532531 95.009993 127.120196 97.164444 
C 124.70786 99.318894 122.438361 101.628131 120.326103 104.077496 
L 176.753363 152.738642 
z
" style="fill: #ffffff"/>
   </g>
   <g id="patch_30">
    <path d="M 120.326103 104.077496 
C 118.777367 105.873404 117.31525 107.742226 115.944748 109.677579 
C 114.574245 111.612933 113.296918 113.612612 112.117129 115.669787 
L 176.753363 152.738642 
z
" style="fill: #ffffff"/>
   </g>
   <g id="patch_31">
    <path d="M 112.117129 115.669787 
C 106.9514 124.677166 103.725089 134.665687 102.64569 144.992958 
C 101.566291 155.32023 102.657449 165.76001 105.84899 175.640885 
L 176.753363 152.738642 
z
" style="fill: #ffffff"/>
   </g>
   <g id="patch_32">
    <path d="M 105.84899 175.640885 
C 106.445333 177.487136 107.113559 179.309391 107.85214 181.103483 
C 108.59072 182.897575 109.399093 184.662135 110.275409 186.393128 
L 176.753363 152.738642 
z
" style="fill: #ffffff"/>
   </g>
   <g id="patch_33">
    <path d="M 110.275409 186.393128 
C 111.638813 189.08627 113.164614 191.694074 114.844374 194.202119 
C 116.524135 196.710164 118.354752 199.113818 120.326103 201.399788 
L 176.753363 152.738642 
z
" style="fill: #ffffff"/>
   </g>
   <g id="patch_34">
    <path d="M 120.326103 201.399788 
C 122.861205 204.339482 125.62216 207.076579 128.583743 209.586074 
C 131.545327 212.095569 134.698494 214.369797 138.014437 216.387981 
L 176.753363 152.738642 
z
" style="fill: #ffffff"/>
   </g>
   <g id="patch_35">
    <path d="M 138.014437 216.387981 
C 139.487589 217.284586 140.991424 218.129777 142.523226 218.922028 
C 144.055028 219.714278 145.613873 220.453109 147.196945 221.137187 
L 176.753363 152.738642 
z
" style="fill: #ffffff"/>
   </g>
   <g id="patch_36">
    <path d="M 147.196945 221.137187 
C 151.94997 223.191067 156.904163 224.743931 161.979164 225.770593 
C 167.054165 226.797254 172.222386 227.292131 177.399997 227.247196 
L 176.753363 152.738642 
z
" style="fill: #ffffff"/>
   </g>
   <g id="patch_37">
    <path d="M 177.399997 227.247196 
C 182.793755 227.200385 188.166518 226.568023 193.423749 225.361235 
C 198.68098 224.154447 203.791661 222.380354 208.665866 220.070172 
L 176.753363 152.738642 
z
" style="fill: #ffffff"/>
   </g>
   <g id="patch_38">
    <path d="M 208.665866 220.070172 
C 211.003723 218.962119 213.282284 217.733058 215.492289 216.387981 
C 217.702294 215.042905 219.840745 213.583638 221.898952 212.016112 
L 176.753363 152.738642 
z
" style="fill: #ffffff"/>
   </g>
   <g id="patch_39">
    <path d="M 221.898952 212.016112 
C 226.70625 208.354885 231.050367 204.122421 234.835499 199.412063 
C 238.62063 194.701706 241.818743 189.548339 244.359305 184.065617 
L 176.753363 152.738642 
z
" style="fill: #ffffff"/>
   </g>
   <g id="patch_40">
    <path d="M 244.359305 184.065617 
C 245.265677 182.109599 246.086733 180.115165 246.820156 178.087947 
C 247.553578 176.06073 248.198676 174.002637 248.753628 171.919478 
L 176.753363 152.738642 
z
" style="fill: #ffffff"/>
   </g>
   <g id="patch_41">
    <path d="M 248.753628 171.919478 
C 249.58622 168.794129 250.214434 165.617881 250.634282 162.410897 
C 251.05413 159.203912 251.264723 155.972991 251.264723 152.738641 
L 176.753363 152.738642 
z
" style="fill: #ffffff"/>
   </g>
   <g id="matplotlib.axis_1"/>
   <g id="matplotlib.axis_2"/>
   <g id="text_1">
    <!-- A [39] -->
    <g transform="translate(309.791206 108.668183) scale(0.1 -0.1)">
     <defs>
      <path id="DejaVuSans-41" d="M 2188 4044 
L 1331 1722 
L 3047 1722 
L 2188 4044 
z
M 1831 4666 
L 2547 4666 
L 4325 0 
L 3669 0 
L 3244 1197 
L 1141 1197 
L 716 0 
L 50 0 
L 1831 4666 
z
" transform="scale(0.015625)"/>
      <path id="DejaVuSans-20" transform="scale(0.015625)"/>
      <path id="DejaVuSans-5b" d="M 550 4863 
L 1875 4863 
L 1875 4416 
L 1125 4416 
L 1125 -397 
L 1875 -397 
L 1875 -844 
L 550 -844 
L 550 4863 
z
" transform="scale(0.015625)"/>
      <path id="DejaVuSans-33" d="M 2597 2516 
Q 3050 2419 3304 2112 
Q 3559 1806 3559 1356 
Q 3559 666 3084 287 
Q 2609 -91 1734 -91 
Q 1441 -91 1130 -33 
Q 819 25 488 141 
L 488 750 
Q 750 597 1062 519 
Q 1375 441 1716 441 
Q 2309 441 2620 675 
Q 2931 909 2931 1356 
Q 2931 1769 2642 2001 
Q 2353 2234 1838 2234 
L 1294 2234 
L 1294 2753 
L 1863 2753 
Q 2328 2753 2575 2939 
Q 2822 3125 2822 3475 
Q 2822 3834 2567 4026 
Q 2313 4219 1838 4219 
Q 1578 4219 1281 4162 
Q 984 4106 628 3988 
L 628 4550 
Q 988 4650 1302 4700 
Q 1616 4750 1894 4750 
Q 2613 4750 3031 4423 
Q 3450 4097 3450 3541 
Q 3450 3153 3228 2886 
Q 3006 2619 2597 2516 
z
" transform="scale(0.015625)"/>
      <path id="DejaVuSans-39" d="M 703 97 
L 703 672 
Q 941 559 1184 500 
Q 1428 441 1663 441 
Q 2288 441 2617 861 
Q 2947 1281 2994 2138 
Q 2813 1869 2534 1725 
Q 2256 1581 1919 1581 
Q 1219 1581 811 2004 
Q 403 2428 403 3163 
Q 403 3881 828 4315 
Q 1253 4750 1959 4750 
Q 2769 4750 3195 4129 
Q 3622 3509 3622 2328 
Q 3622 1225 3098 567 
Q 2575 -91 1691 -91 
Q 1453 -91 1209 -44 
Q 966 3 703 97 
z
M 1959 2075 
Q 2384 2075 2632 2365 
Q 2881 2656 2881 3163 
Q 2881 3666 2632 3958 
Q 2384 4250 1959 4250 
Q 1534 4250 1286 3958 
Q 1038 3666 1038 3163 
Q 1038 2656 1286 2365 
Q 1534 2075 1959 2075 
z
" transform="scale(0.015625)"/>
      <path id="DejaVuSans-5d" d="M 1947 4863 
L 1947 -844 
L 622 -844 
L 622 -397 
L 1369 -397 
L 1369 4416 
L 622 4416 
L 622 4863 
L 1947 4863 
z
" transform="scale(0.015625)"/>
     </defs>
     <use xlink:href="#DejaVuSans-41"/>
     <use xlink:href="#DejaVuSans-20" x="68.408203"/>
     <use xlink:href="#DejaVuSans-5b" x="100.195312"/>
     <use xlink:href="#DejaVuSans-33" x="139.208984"/>
     <use xlink:href="#DejaVuSans-39" x="202.832031"/>
     <use xlink:href="#DejaVuSans-5d" x="266.455078"/>
    </g>
   </g>
   <g id="text_2">
    <!-- C [11] -->
    <g transform="translate(277.773012 57.074791) scale(0.1 -0.1)">
     <defs>
      <path id="DejaVuSans-43" d="M 4122 4306 
L 4122 3641 
Q 3803 3938 3442 4084 
Q 3081 4231 2675 4231 
Q 1875 4231 1450 3742 
Q 1025 3253 1025 2328 
Q 1025 1406 1450 917 
Q 1875 428 2675 428 
Q 3081 428 3442 575 
Q 3803 722 4122 1019 
L 4122 359 
Q 3791 134 3420 21 
Q 3050 -91 2638 -91 
Q 1578 -91 968 557 
Q 359 1206 359 2328 
Q 359 3453 968 4101 
Q 1578 4750 2638 4750 
Q 3056 4750 3426 4639 
Q 3797 4528 4122 4306 
z
" transform="scale(0.015625)"/>
      <path id="DejaVuSans-31" d="M 794 531 
L 1825 531 
L 1825 4091 
L 703 3866 
L 703 4441 
L 1819 4666 
L 2450 4666 
L 2450 531 
L 3481 531 
L 3481 0 
L 794 0 
L 794 531 
z
" transform="scale(0.015625)"/>
     </defs>
     <use xlink:href="#DejaVuSans-43"/>
     <use xlink:href="#DejaVuSans-20" x="69.824219"/>
     <use xlink:href="#DejaVuSans-5b" x="101.611328"/>
     <use xlink:href="#DejaVuSans-31" x="140.625"/>
     <use xlink:href="#DejaVuSans-31" x="204.248047"/>
     <use xlink:href="#DejaVuSans-5d" x="267.871094"/>
    </g>
   </g>
   <g id="text_3">
    <!-- D [13] -->
    <g transform="translate(255.237802 38.313146) scale(0.1 -0.1)">
     <defs>
      <path id="DejaVuSans-44" d="M 1259 4147 
L 1259 519 
L 2022 519 
Q 2988 519 3436 956 
Q 3884 1394 3884 2338 
Q 3884 3275 3436 3711 
Q 2988 4147 2022 4147 
L 1259 4147 
z
M 628 4666 
L 1925 4666 
Q 3281 4666 3915 4102 
Q 4550 3538 4550 2338 
Q 4550 1131 3912 565 
Q 3275 0 1925 0 
L 628 0 
L 628 4666 
z
" transform="scale(0.015625)"/>
     </defs>
     <use xlink:href="#DejaVuSans-44"/>
     <use xlink:href="#DejaVuSans-20" x="77.001953"/>
     <use xlink:href="#DejaVuSans-5b" x="108.789062"/>
     <use xlink:href="#DejaVuSans-31" x="147.802734"/>
     <use xlink:href="#DejaVuSans-33" x="211.425781"/>
     <use xlink:href="#DejaVuSans-5d" x="275.048828"/>
    </g>
   </g>
   <g id="text_4">
    <!-- E [13] -->
    <g transform="translate(227.030616 23.724352) scale(0.1 -0.1)">
     <defs>
      <path id="DejaVuSans-45" d="M 628 4666 
L 3578 4666 
L 3578 4134 
L 1259 4134 
L 1259 2753 
L 3481 2753 
L 3481 2222 
L 1259 2222 
L 1259 531 
L 3634 531 
L 3634 0 
L 628 0 
L 628 4666 
z
" transform="scale(0.015625)"/>
     </defs>
     <use xlink:href="#DejaVuSans-45"/>
     <use xlink:href="#DejaVuSans-20" x="63.183594"/>
     <use xlink:href="#DejaVuSans-5b" x="94.970703"/>
     <use xlink:href="#DejaVuSans-31" x="133.984375"/>
     <use xlink:href="#DejaVuSans-33" x="197.607422"/>
     <use xlink:href="#DejaVuSans-5d" x="261.230469"/>
    </g>
   </g>
   <g id="text_5">
    <!-- F [21] -->
    <g transform="translate(186.537504 14.798437) scale(0.1 -0.1)">
     <defs>
      <path id="DejaVuSans-46" d="M 628 4666 
L 3309 4666 
L 3309 4134 
L 1259 4134 
L 1259 2759 
L 3109 2759 
L 3109 2228 
L 1259 2228 
L 1259 0 
L 628 0 
L 628 4666 
z
" transform="scale(0.015625)"/>
      <path id="DejaVuSans-32" d="M 1228 531 
L 3431 531 
L 3431 0 
L 469 0 
L 469 531 
Q 828 903 1448 1529 
Q 2069 2156 2228 2338 
Q 2531 2678 2651 2914 
Q 2772 3150 2772 3378 
Q 2772 3750 2511 3984 
Q 2250 4219 1831 4219 
Q 1534 4219 1204 4116 
Q 875 4013 500 3803 
L 500 4441 
Q 881 4594 1212 4672 
Q 1544 4750 1819 4750 
Q 2544 4750 2975 4387 
Q 3406 4025 3406 3419 
Q 3406 3131 3298 2873 
Q 3191 2616 2906 2266 
Q 2828 2175 2409 1742 
Q 1991 1309 1228 531 
z
" transform="scale(0.015625)"/>
     </defs>
     <use xlink:href="#DejaVuSans-46"/>
     <use xlink:href="#DejaVuSans-20" x="57.519531"/>
     <use xlink:href="#DejaVuSans-5b" x="89.306641"/>
     <use xlink:href="#DejaVuSans-32" x="128.320312"/>
     <use xlink:href="#DejaVuSans-31" x="191.943359"/>
     <use xlink:href="#DejaVuSans-5d" x="255.566406"/>
    </g>
   </g>
   <g id="text_6">
    <!-- G [17] -->
    <g transform="translate(108.99209 19.2118) scale(0.1 -0.1)">
     <defs>
      <path id="DejaVuSans-47" d="M 3809 666 
L 3809 1919 
L 2778 1919 
L 2778 2438 
L 4434 2438 
L 4434 434 
Q 4069 175 3628 42 
Q 3188 -91 2688 -91 
Q 1594 -91 976 548 
Q 359 1188 359 2328 
Q 359 3472 976 4111 
Q 1594 4750 2688 4750 
Q 3144 4750 3555 4637 
Q 3966 4525 4313 4306 
L 4313 3634 
Q 3963 3931 3569 4081 
Q 3175 4231 2741 4231 
Q 1884 4231 1454 3753 
Q 1025 3275 1025 2328 
Q 1025 1384 1454 906 
Q 1884 428 2741 428 
Q 3075 428 3337 486 
Q 3600 544 3809 666 
z
" transform="scale(0.015625)"/>
      <path id="DejaVuSans-37" d="M 525 4666 
L 3525 4666 
L 3525 4397 
L 1831 0 
L 1172 0 
L 2766 4134 
L 525 4134 
L 525 4666 
z
" transform="scale(0.015625)"/>
     </defs>
     <use xlink:href="#DejaVuSans-47"/>
     <use xlink:href="#DejaVuSans-20" x="77.490234"/>
     <use xlink:href="#DejaVuSans-5b" x="109.277344"/>
     <use xlink:href="#DejaVuSans-31" x="148.291016"/>
     <use xlink:href="#DejaVuSans-37" x="211.914062"/>
     <use xlink:href="#DejaVuSans-5d" x="275.537109"/>
    </g>
   </g>
   <g id="text_7">
    <!-- H [11] -->
    <g transform="translate(77.494779 31.951487) scale(0.1 -0.1)">
     <defs>
      <path id="DejaVuSans-48" d="M 628 4666 
L 1259 4666 
L 1259 2753 
L 3553 2753 
L 3553 4666 
L 4184 4666 
L 4184 0 
L 3553 0 
L 3553 2222 
L 1259 2222 
L 1259 0 
L 628 0 
L 628 4666 
z
" transform="scale(0.015625)"/>
     </defs>
     <use xlink:href="#DejaVuSans-48"/>
     <use xlink:href="#DejaVuSans-20" x="75.195312"/>
     <use xlink:href="#DejaVuSans-5b" x="106.982422"/>
     <use xlink:href="#DejaVuSans-31" x="145.996094"/>
     <use xlink:href="#DejaVuSans-31" x="209.619141"/>
     <use xlink:href="#DejaVuSans-5d" x="273.242188"/>
    </g>
   </g>
   <g id="text_8">
    <!-- I [15] -->
    <g transform="translate(56.148618 50.303999) scale(0.1 -0.1)">
     <defs>
      <path id="DejaVuSans-49" d="M 628 4666 
L 1259 4666 
L 1259 0 
L 628 0 
L 628 4666 
z
" transform="scale(0.015625)"/>
      <path id="DejaVuSans-35" d="M 691 4666 
L 3169 4666 
L 3169 4134 
L 1269 4134 
L 1269 2991 
Q 1406 3038 1543 3061 
Q 1681 3084 1819 3084 
Q 2600 3084 3056 2656 
Q 3513 2228 3513 1497 
Q 3513 744 3044 326 
Q 2575 -91 1722 -91 
Q 1428 -91 1123 -41 
Q 819 9 494 109 
L 494 744 
Q 775 591 1075 516 
Q 1375 441 1709 441 
Q 2250 441 2565 725 
Q 2881 1009 2881 1497 
Q 2881 1984 2565 2268 
Q 2250 2553 1709 2553 
Q 1456 2553 1204 2497 
Q 953 2441 691 2322 
L 691 4666 
z
" transform="scale(0.015625)"/>
     </defs>
     <use xlink:href="#DejaVuSans-49"/>
     <use xlink:href="#DejaVuSans-20" x="29.492188"/>
     <use xlink:href="#DejaVuSans-5b" x="61.279297"/>
     <use xlink:href="#DejaVuSans-31" x="100.292969"/>
     <use xlink:href="#DejaVuSans-35" x="163.916016"/>
     <use xlink:href="#DejaVuSans-5d" x="227.539062"/>
    </g>
   </g>
   <g id="text_9">
    <!-- K [11] -->
    <g transform="translate(31.387279 73.989577) scale(0.1 -0.1)">
     <defs>
      <path id="DejaVuSans-4b" d="M 628 4666 
L 1259 4666 
L 1259 2694 
L 3353 4666 
L 4166 4666 
L 1850 2491 
L 4331 0 
L 3500 0 
L 1259 2247 
L 1259 0 
L 628 0 
L 628 4666 
z
" transform="scale(0.015625)"/>
     </defs>
     <use xlink:href="#DejaVuSans-4b"/>
     <use xlink:href="#DejaVuSans-20" x="65.576172"/>
     <use xlink:href="#DejaVuSans-5b" x="97.363281"/>
     <use xlink:href="#DejaVuSans-31" x="136.376953"/>
     <use xlink:href="#DejaVuSans-31" x="200"/>
     <use xlink:href="#DejaVuSans-5d" x="263.623047"/>
    </g>
   </g>
   <g id="text_10">
    <!-- L [48] -->
    <g transform="translate(7.2 140.836545) scale(0.1 -0.1)">
     <defs>
      <path id="DejaVuSans-4c" d="M 628 4666 
L 1259 4666 
L 1259 531 
L 3531 531 
L 3531 0 
L 628 0 
L 628 4666 
z
" transform="scale(0.015625)"/>
      <path id="DejaVuSans-34" d="M 2419 4116 
L 825 1625 
L 2419 1625 
L 2419 4116 
z
M 2253 4666 
L 3047 4666 
L 3047 1625 
L 3713 1625 
L 3713 1100 
L 3047 1100 
L 3047 0 
L 2419 0 
L 2419 1100 
L 313 1100 
L 313 1709 
L 2253 4666 
z
" transform="scale(0.015625)"/>
      <path id="DejaVuSans-38" d="M 2034 2216 
Q 1584 2216 1326 1975 
Q 1069 1734 1069 1313 
Q 1069 891 1326 650 
Q 1584 409 2034 409 
Q 2484 409 2743 651 
Q 3003 894 3003 1313 
Q 3003 1734 2745 1975 
Q 2488 2216 2034 2216 
z
M 1403 2484 
Q 997 2584 770 2862 
Q 544 3141 544 3541 
Q 544 4100 942 4425 
Q 1341 4750 2034 4750 
Q 2731 4750 3128 4425 
Q 3525 4100 3525 3541 
Q 3525 3141 3298 2862 
Q 3072 2584 2669 2484 
Q 3125 2378 3379 2068 
Q 3634 1759 3634 1313 
Q 3634 634 3220 271 
Q 2806 -91 2034 -91 
Q 1263 -91 848 271 
Q 434 634 434 1313 
Q 434 1759 690 2068 
Q 947 2378 1403 2484 
z
M 1172 3481 
Q 1172 3119 1398 2916 
Q 1625 2713 2034 2713 
Q 2441 2713 2670 2916 
Q 2900 3119 2900 3481 
Q 2900 3844 2670 4047 
Q 2441 4250 2034 4250 
Q 1625 4250 1398 4047 
Q 1172 3844 1172 3481 
z
" transform="scale(0.015625)"/>
     </defs>
     <use xlink:href="#DejaVuSans-4c"/>
     <use xlink:href="#DejaVuSans-20" x="55.712891"/>
     <use xlink:href="#DejaVuSans-5b" x="87.5"/>
     <use xlink:href="#DejaVuSans-34" x="126.513672"/>
     <use xlink:href="#DejaVuSans-38" x="190.136719"/>
     <use xlink:href="#DejaVuSans-5d" x="253.759766"/>
    </g>
   </g>
   <g id="text_11">
    <!-- M [9] -->
    <g transform="translate(20.361315 209.188609) scale(0.1 -0.1)">
     <defs>
      <path id="DejaVuSans-4d" d="M 628 4666 
L 1569 4666 
L 2759 1491 
L 3956 4666 
L 4897 4666 
L 4897 0 
L 4281 0 
L 4281 4097 
L 3078 897 
L 2444 897 
L 1241 4097 
L 1241 0 
L 628 0 
L 628 4666 
z
" transform="scale(0.015625)"/>
     </defs>
     <use xlink:href="#DejaVuSans-4d"/>
     <use xlink:href="#DejaVuSans-20" x="86.279297"/>
     <use xlink:href="#DejaVuSans-5b" x="118.066406"/>
     <use xlink:href="#DejaVuSans-39" x="157.080078"/>
     <use xlink:href="#DejaVuSans-5d" x="220.703125"/>
    </g>
   </g>
   <g id="text_12">
    <!-- N [14] -->
    <g transform="translate(28.380992 233.982456) scale(0.1 -0.1)">
     <defs>
      <path id="DejaVuSans-4e" d="M 628 4666 
L 1478 4666 
L 3547 763 
L 3547 4666 
L 4159 4666 
L 4159 0 
L 3309 0 
L 1241 3903 
L 1241 0 
L 628 0 
L 628 4666 
z
" transform="scale(0.015625)"/>
     </defs>
     <use xlink:href="#DejaVuSans-4e"/>
     <use xlink:href="#DejaVuSans-20" x="74.804688"/>
     <use xlink:href="#DejaVuSans-5b" x="106.591797"/>
     <use xlink:href="#DejaVuSans-31" x="145.605469"/>
     <use xlink:href="#DejaVuSans-34" x="209.228516"/>
     <use xlink:href="#DejaVuSans-5d" x="272.851562"/>
    </g>
   </g>
   <g id="text_13">
    <!-- P [18] -->
    <g transform="translate(55.839217 263.102085) scale(0.1 -0.1)">
     <defs>
      <path id="DejaVuSans-50" d="M 1259 4147 
L 1259 2394 
L 2053 2394 
Q 2494 2394 2734 2622 
Q 2975 2850 2975 3272 
Q 2975 3691 2734 3919 
Q 2494 4147 2053 4147 
L 1259 4147 
z
M 628 4666 
L 2053 4666 
Q 2838 4666 3239 4311 
Q 3641 3956 3641 3272 
Q 3641 2581 3239 2228 
Q 2838 1875 2053 1875 
L 1259 1875 
L 1259 0 
L 628 0 
L 628 4666 
z
" transform="scale(0.015625)"/>
     </defs>
     <use xlink:href="#DejaVuSans-50"/>
     <use xlink:href="#DejaVuSans-20" x="60.302734"/>
     <use xlink:href="#DejaVuSans-5b" x="92.089844"/>
     <use xlink:href="#DejaVuSans-31" x="131.103516"/>
     <use xlink:href="#DejaVuSans-38" x="194.726562"/>
     <use xlink:href="#DejaVuSans-5d" x="258.349609"/>
    </g>
   </g>
   <g id="text_14">
    <!-- Q [8] -->
    <g transform="translate(86.74498 280.773711) scale(0.1 -0.1)">
     <defs>
      <path id="DejaVuSans-51" d="M 2522 4238 
Q 1834 4238 1429 3725 
Q 1025 3213 1025 2328 
Q 1025 1447 1429 934 
Q 1834 422 2522 422 
Q 3209 422 3611 934 
Q 4013 1447 4013 2328 
Q 4013 3213 3611 3725 
Q 3209 4238 2522 4238 
z
M 3406 84 
L 4238 -825 
L 3475 -825 
L 2784 -78 
Q 2681 -84 2626 -87 
Q 2572 -91 2522 -91 
Q 1538 -91 948 567 
Q 359 1225 359 2328 
Q 359 3434 948 4092 
Q 1538 4750 2522 4750 
Q 3503 4750 4090 4092 
Q 4678 3434 4678 2328 
Q 4678 1516 4351 937 
Q 4025 359 3406 84 
z
" transform="scale(0.015625)"/>
     </defs>
     <use xlink:href="#DejaVuSans-51"/>
     <use xlink:href="#DejaVuSans-20" x="78.710938"/>
     <use xlink:href="#DejaVuSans-5b" x="110.498047"/>
     <use xlink:href="#DejaVuSans-38" x="149.511719"/>
     <use xlink:href="#DejaVuSans-5d" x="213.134766"/>
    </g>
   </g>
   <g id="text_15">
    <!-- R [24] -->
    <g transform="translate(118.133227 293.737066) scale(0.1 -0.1)">
     <defs>
      <path id="DejaVuSans-52" d="M 2841 2188 
Q 3044 2119 3236 1894 
Q 3428 1669 3622 1275 
L 4263 0 
L 3584 0 
L 2988 1197 
Q 2756 1666 2539 1819 
Q 2322 1972 1947 1972 
L 1259 1972 
L 1259 0 
L 628 0 
L 628 4666 
L 2053 4666 
Q 2853 4666 3247 4331 
Q 3641 3997 3641 3322 
Q 3641 2881 3436 2590 
Q 3231 2300 2841 2188 
z
M 1259 4147 
L 1259 2491 
L 2053 2491 
Q 2509 2491 2742 2702 
Q 2975 2913 2975 3322 
Q 2975 3731 2742 3939 
Q 2509 4147 2053 4147 
L 1259 4147 
z
" transform="scale(0.015625)"/>
     </defs>
     <use xlink:href="#DejaVuSans-52"/>
     <use xlink:href="#DejaVuSans-20" x="69.482422"/>
     <use xlink:href="#DejaVuSans-5b" x="101.269531"/>
     <use xlink:href="#DejaVuSans-32" x="140.283203"/>
     <use xlink:href="#DejaVuSans-34" x="203.90625"/>
     <use xlink:href="#DejaVuSans-5d" x="267.529297"/>
    </g>
   </g>
   <g id="text_16">
    <!-- S [25] -->
    <g transform="translate(208.308022 292.96221) scale(0.1 -0.1)">
     <defs>
      <path id="DejaVuSans-53" d="M 3425 4513 
L 3425 3897 
Q 3066 4069 2747 4153 
Q 2428 4238 2131 4238 
Q 1616 4238 1336 4038 
Q 1056 3838 1056 3469 
Q 1056 3159 1242 3001 
Q 1428 2844 1947 2747 
L 2328 2669 
Q 3034 2534 3370 2195 
Q 3706 1856 3706 1288 
Q 3706 609 3251 259 
Q 2797 -91 1919 -91 
Q 1588 -91 1214 -16 
Q 841 59 441 206 
L 441 856 
Q 825 641 1194 531 
Q 1563 422 1919 422 
Q 2459 422 2753 634 
Q 3047 847 3047 1241 
Q 3047 1584 2836 1778 
Q 2625 1972 2144 2069 
L 1759 2144 
Q 1053 2284 737 2584 
Q 422 2884 422 3419 
Q 422 4038 858 4394 
Q 1294 4750 2059 4750 
Q 2388 4750 2728 4690 
Q 3069 4631 3425 4513 
z
" transform="scale(0.015625)"/>
     </defs>
     <use xlink:href="#DejaVuSans-53"/>
     <use xlink:href="#DejaVuSans-20" x="63.476562"/>
     <use xlink:href="#DejaVuSans-5b" x="95.263672"/>
     <use xlink:href="#DejaVuSans-32" x="134.277344"/>
     <use xlink:href="#DejaVuSans-35" x="197.900391"/>
     <use xlink:href="#DejaVuSans-5d" x="261.523438"/>
    </g>
   </g>
   <g id="text_17">
    <!-- T [12] -->
    <g transform="translate(250.080616 275.977123) scale(0.1 -0.1)">
     <defs>
      <path id="DejaVuSans-54" d="M -19 4666 
L 3928 4666 
L 3928 4134 
L 2272 4134 
L 2272 0 
L 1638 0 
L 1638 4134 
L -19 4134 
L -19 4666 
z
" transform="scale(0.015625)"/>
     </defs>
     <use xlink:href="#DejaVuSans-54"/>
     <use xlink:href="#DejaVuSans-20" x="61.083984"/>
     <use xlink:href="#DejaVuSans-5b" x="92.871094"/>
     <use xlink:href="#DejaVuSans-31" x="131.884766"/>
     <use xlink:href="#DejaVuSans-32" x="195.507812"/>
     <use xlink:href="#DejaVuSans-5d" x="259.130859"/>
    </g>
   </g>
   <g id="text_18">
    <!-- V [28] -->
    <g transform="translate(286.694548 243.844136) scale(0.1 -0.1)">
     <defs>
      <path id="DejaVuSans-56" d="M 1831 0 
L 50 4666 
L 709 4666 
L 2188 738 
L 3669 4666 
L 4325 4666 
L 2547 0 
L 1831 0 
z
" transform="scale(0.015625)"/>
     </defs>
     <use xlink:href="#DejaVuSans-56"/>
     <use xlink:href="#DejaVuSans-20" x="68.408203"/>
     <use xlink:href="#DejaVuSans-5b" x="100.195312"/>
     <use xlink:href="#DejaVuSans-32" x="139.208984"/>
     <use xlink:href="#DejaVuSans-38" x="202.832031"/>
     <use xlink:href="#DejaVuSans-5d" x="266.455078"/>
    </g>
   </g>
   <g id="text_19">
    <!-- W [10] -->
    <g transform="translate(309.379792 203.480631) scale(0.1 -0.1)">
     <defs>
      <path id="DejaVuSans-57" d="M 213 4666 
L 850 4666 
L 1831 722 
L 2809 4666 
L 3519 4666 
L 4500 722 
L 5478 4666 
L 6119 4666 
L 4947 0 
L 4153 0 
L 3169 4050 
L 2175 0 
L 1381 0 
L 213 4666 
z
" transform="scale(0.015625)"/>
      <path id="DejaVuSans-30" d="M 2034 4250 
Q 1547 4250 1301 3770 
Q 1056 3291 1056 2328 
Q 1056 1369 1301 889 
Q 1547 409 2034 409 
Q 2525 409 2770 889 
Q 3016 1369 3016 2328 
Q 3016 3291 2770 3770 
Q 2525 4250 2034 4250 
z
M 2034 4750 
Q 2819 4750 3233 4129 
Q 3647 3509 3647 2328 
Q 3647 1150 3233 529 
Q 2819 -91 2034 -91 
Q 1250 -91 836 529 
Q 422 1150 422 2328 
Q 422 3509 836 4129 
Q 1250 4750 2034 4750 
z
" transform="scale(0.015625)"/>
     </defs>
     <use xlink:href="#DejaVuSans-57"/>
     <use xlink:href="#DejaVuSans-20" x="98.876953"/>
     <use xlink:href="#DejaVuSans-5b" x="130.664062"/>
     <use xlink:href="#DejaVuSans-31" x="169.677734"/>
     <use xlink:href="#DejaVuSans-30" x="233.300781"/>
     <use xlink:href="#DejaVuSans-5d" x="296.923828"/>
    </g>
   </g>
   <g id="text_20">
    <!-- Y [15] -->
    <g transform="translate(316.599389 173.806213) scale(0.1 -0.1)">
     <defs>
      <path id="DejaVuSans-59" d="M -13 4666 
L 666 4666 
L 1959 2747 
L 3244 4666 
L 3922 4666 
L 2272 2222 
L 2272 0 
L 1638 0 
L 1638 2222 
L -13 4666 
z
" transform="scale(0.015625)"/>
     </defs>
     <use xlink:href="#DejaVuSans-59"/>
     <use xlink:href="#DejaVuSans-20" x="61.083984"/>
     <use xlink:href="#DejaVuSans-5b" x="92.871094"/>
     <use xlink:href="#DejaVuSans-31" x="131.884766"/>
     <use xlink:href="#DejaVuSans-35" x="195.507812"/>
     <use xlink:href="#DejaVuSans-5d" x="259.130859"/>
    </g>
   </g>
   <g id="text_21">
    <!-- A0A8C8Y6S2 [362] -->
    <g transform="translate(119.752425 152.738642) scale(0.12 -0.12)">
     <defs>
      <path id="DejaVuSans-36" d="M 2113 2584 
Q 1688 2584 1439 2293 
Q 1191 2003 1191 1497 
Q 1191 994 1439 701 
Q 1688 409 2113 409 
Q 2538 409 2786 701 
Q 3034 994 3034 1497 
Q 3034 2003 2786 2293 
Q 2538 2584 2113 2584 
z
M 3366 4563 
L 3366 3988 
Q 3128 4100 2886 4159 
Q 2644 4219 2406 4219 
Q 1781 4219 1451 3797 
Q 1122 3375 1075 2522 
Q 1259 2794 1537 2939 
Q 1816 3084 2150 3084 
Q 2853 3084 3261 2657 
Q 3669 2231 3669 1497 
Q 3669 778 3244 343 
Q 2819 -91 2113 -91 
Q 1303 -91 875 529 
Q 447 1150 447 2328 
Q 447 3434 972 4092 
Q 1497 4750 2381 4750 
Q 2619 4750 2861 4703 
Q 3103 4656 3366 4563 
z
" transform="scale(0.015625)"/>
     </defs>
     <use xlink:href="#DejaVuSans-41"/>
     <use xlink:href="#DejaVuSans-30" x="68.408203"/>
     <use xlink:href="#DejaVuSans-41" x="132.03125"/>
     <use xlink:href="#DejaVuSans-38" x="200.439453"/>
     <use xlink:href="#DejaVuSans-43" x="264.0625"/>
     <use xlink:href="#DejaVuSans-38" x="333.886719"/>
     <use xlink:href="#DejaVuSans-59" x="397.509766"/>
     <use xlink:href="#DejaVuSans-36" x="458.59375"/>
     <use xlink:href="#DejaVuSans-53" x="522.216797"/>
     <use xlink:href="#DejaVuSans-32" x="585.693359"/>
     <use xlink:href="#DejaVuSans-20" x="649.316406"/>
     <use xlink:href="#DejaVuSans-5b" x="681.103516"/>
     <use xlink:href="#DejaVuSans-33" x="720.117188"/>
     <use xlink:href="#DejaVuSans-36" x="783.740234"/>
     <use xlink:href="#DejaVuSans-32" x="847.363281"/>
     <use xlink:href="#DejaVuSans-5d" x="910.986328"/>
    </g>
   </g>
  </g>
 </g>
</svg>
