<?xml version="1.0" encoding="utf-8" standalone="no"?>
<!DOCTYPE svg PUBLIC "-//W3C//DTD SVG 1.1//EN"
  "http://www.w3.org/Graphics/SVG/1.1/DTD/svg11.dtd">
<svg xmlns:xlink="http://www.w3.org/1999/xlink" width="349.593114pt" height="301.277584pt" viewBox="0 0 349.593114 301.277584" xmlns="http://www.w3.org/2000/svg" version="1.1">
 <metadata>
  <rdf:RDF xmlns:dc="http://purl.org/dc/elements/1.1/" xmlns:cc="http://creativecommons.org/ns#" xmlns:rdf="http://www.w3.org/1999/02/22-rdf-syntax-ns#">
   <cc:Work>
    <dc:type rdf:resource="http://purl.org/dc/dcmitype/StillImage"/>
    <dc:date>2024-09-27T16:07:22.374090</dc:date>
    <dc:format>image/svg+xml</dc:format>
    <dc:creator>
     <cc:Agent>
      <dc:title>Matplotlib v3.8.3, https://matplotlib.org/</dc:title>
     </cc:Agent>
    </dc:creator>
   </cc:Work>
  </rdf:RDF>
 </metadata>
 <defs>
  <style type="text/css">*{stroke-linejoin: round; stroke-linecap: butt}</style>
 </defs>
 <g id="figure_1">
  <g id="patch_1">
   <path d="M 0 301.277584 
L 349.593114 301.277584 
L 349.593114 0 
L 0 0 
z
" style="fill: #ffffff"/>
  </g>
  <g id="axes_1">
   <g id="patch_2">
    <path d="M 299.64545 151.123189 
C 299.64545 129.764828 294.288453 108.743702 284.066425 89.99031 
C 273.844397 71.236918 259.080136 55.343468 241.129536 43.769552 
L 171.91169 151.123189 
z
" style="fill: #1f77b4"/>
   </g>
   <g id="patch_3">
    <path d="M 240.913113 43.554893 
C 237.985089 41.667006 234.981053 39.8997 231.908542 38.257409 
C 228.836031 36.615118 225.697616 35.099216 222.501172 33.713506 
L 171.695267 150.90853 
z
" style="fill: #ff7f0e"/>
   </g>
   <g id="patch_4">
    <path d="M 222.445884 33.687909 
C 221.167456 33.13369 219.880045 32.600427 218.584168 32.088334 
C 217.288291 31.576241 215.984122 31.085386 214.672184 30.615967 
L 171.639979 150.882932 
z
" style="fill: #aec7e8"/>
   </g>
   <g id="patch_5">
    <path d="M 214.622725 30.599178 
C 211.998673 29.660277 209.344595 28.807507 206.664754 28.042238 
C 203.984913 27.276969 201.280744 26.59961 198.556589 26.011249 
L 171.590521 150.866143 
z
" style="fill: #ffbb78"/>
   </g>
   <g id="patch_6">
    <path d="M 198.492845 25.997208 
C 196.10926 25.482403 193.711421 25.035961 191.302278 24.65843 
C 188.893134 24.280899 186.473673 23.972434 184.046871 23.733415 
L 171.526777 150.852102 
z
" style="fill: #98df8a"/>
   </g>
   <g id="patch_7">
    <path d="M 183.877776 23.734107 
C 172.768761 22.639965 161.564094 23.006768 150.550426 24.825132 
C 139.536757 26.643497 128.808815 29.897783 118.641056 34.504735 
L 171.357682 150.852794 
z
" style="fill: #2ca02c"/>
   </g>
   <g id="patch_8">
    <path d="M 118.469218 34.564639 
C 115.295874 36.002462 112.182683 37.569511 109.137454 39.261854 
C 106.092225 40.954197 103.117508 42.770418 100.220764 44.70596 
L 171.185844 150.912697 
z
" style="fill: #d62728"/>
   </g>
   <g id="patch_9">
    <path d="M 100.162254 44.743686 
C 98.424363 45.904908 96.715236 47.108611 95.036417 48.353708 
C 93.357598 49.598805 91.709592 50.884921 90.09389 52.210895 
L 171.127333 150.950423 
z
" style="fill: #9467bd"/>
   </g>
   <g id="patch_10">
    <path d="M 90.066609 52.232546 
C 89.528066 52.674517 88.993147 53.120887 88.461907 53.571611 
C 87.930667 54.022334 87.403123 54.477397 86.879329 54.936752 
L 171.100053 150.972074 
z
" style="fill: #ff9896"/>
   </g>
   <g id="patch_11">
    <path d="M 86.714348 55.188091 
C 68.791419 70.906079 55.62151 91.331991 48.701484 114.144263 
C 41.781457 136.956535 41.383809 161.256869 47.553735 184.283344 
L 170.935072 151.223413 
z
" style="fill: #c5b0d5"/>
   </g>
   <g id="patch_12">
    <path d="M 47.553735 184.592337 
C 47.914371 185.938249 48.297005 187.278169 48.701485 188.611561 
C 49.105965 189.944952 49.532236 191.271636 49.980127 192.591079 
L 170.935072 151.532406 
z
" style="fill: #c49c94"/>
   </g>
   <g id="patch_13">
    <path d="M 49.997722 192.640256 
C 50.893564 195.279319 51.875536 197.888356 52.942062 200.463178 
C 54.008588 203.038 55.159097 205.577227 56.391741 208.076782 
L 170.952668 151.581583 
z
" style="fill: #8c564b"/>
   </g>
   <g id="patch_14">
    <path d="M 56.474813 208.214102 
C 60.947983 217.284792 66.48266 225.792202 72.96246 233.557435 
C 79.442261 241.322668 86.821442 248.290908 94.944831 254.315624 
L 171.03574 151.718903 
z
" style="fill: #e377c2"/>
   </g>
   <g id="patch_15">
    <path d="M 95.087358 254.435549 
C 99.005476 257.341424 103.08684 260.020467 107.31139 262.459512 
C 111.535939 264.898556 115.896741 267.093599 120.372361 269.033852 
L 171.178267 151.838829 
z
" style="fill: #7f7f7f"/>
   </g>
   <g id="patch_16">
    <path d="M 120.526115 269.093161 
C 128.202667 272.421068 136.187659 274.986691 144.365951 276.753032 
C 152.544242 278.519373 160.876333 279.477903 169.242078 279.614799 
L 171.33202 151.898138 
z
" style="fill: #f7b6d2"/>
   </g>
   <g id="patch_17">
    <path d="M 169.479528 279.611885 
C 180.291064 279.788804 191.08144 278.592174 201.591516 276.050732 
C 212.101591 273.509291 222.246549 269.643548 231.782749 264.546343 
L 171.56947 151.895224 
z
" style="fill: #c7c7c7"/>
   </g>
   <g id="patch_18">
    <path d="M 231.978189 264.453906 
C 237.818083 261.332418 243.406416 257.761535 248.692636 253.773561 
C 253.978855 249.785587 258.946972 245.392583 263.552044 240.634289 
L 171.764911 151.802788 
z
" style="fill: #dbdb8d"/>
   </g>
   <g id="patch_19">
    <path d="M 263.688016 240.483028 
C 270.478432 233.466679 276.442 225.694806 281.461783 217.319803 
C 286.481567 208.944799 290.524541 200.021766 293.511428 190.72567 
L 171.900882 151.651527 
z
" style="fill: #bcbd22"/>
   </g>
   <g id="patch_20">
    <path d="M 293.573245 190.572908 
C 294.638975 187.256032 295.56856 183.896944 296.359668 180.50407 
C 297.150775 177.111196 297.802742 173.687376 298.313934 170.2412 
L 171.962699 151.498765 
z
" style="fill: #17becf"/>
   </g>
   <g id="patch_21">
    <path d="M 298.326395 170.159498 
C 298.786456 167.058022 299.132165 163.940657 299.36282 160.813741 
C 299.593476 157.686824 299.70892 154.552475 299.708921 151.417063 
L 171.975161 151.417062 
z
" style="fill: #9edae5"/>
   </g>
   <g id="patch_22">
    <path d="M 245.955739 151.377909 
C 245.955739 138.918866 242.830824 126.656542 236.867974 115.717063 
C 230.905124 104.777585 222.292639 95.506405 211.821455 88.754955 
L 171.444379 151.377909 
z
" style="fill: #ffffff"/>
   </g>
   <g id="patch_23">
    <path d="M 211.821455 88.754955 
C 210.113441 87.653687 208.361087 86.622759 206.568789 85.664755 
C 204.776491 84.706752 202.945749 83.822476 201.081156 83.014146 
L 171.444379 151.377909 
z
" style="fill: #ffffff"/>
   </g>
   <g id="patch_24">
    <path d="M 201.081156 83.014146 
C 200.335407 82.690851 199.584417 82.379781 198.828489 82.08106 
C 198.072561 81.782339 197.311795 81.496008 196.546498 81.22218 
L 171.444379 151.377909 
z
" style="fill: #ffffff"/>
   </g>
   <g id="patch_25">
    <path d="M 196.546498 81.22218 
C 195.0158 80.674488 193.467588 80.177039 191.904348 79.730631 
C 190.341107 79.284224 188.763675 78.889098 187.174585 78.545888 
L 171.444379 151.377909 
z
" style="fill: #ffffff"/>
   </g>
   <g id="patch_26">
    <path d="M 187.174585 78.545888 
C 185.78416 78.245585 184.385421 77.98516 182.980088 77.764934 
C 181.574754 77.544707 180.163402 77.364769 178.747767 77.225342 
L 171.444379 151.377909 
z
" style="fill: #ffffff"/>
   </g>
   <g id="patch_27">
    <path d="M 178.747767 77.225342 
C 172.267508 76.587092 165.731453 76.801061 159.306813 77.861773 
C 152.882172 78.922486 146.624207 80.820819 140.693013 83.508208 
L 171.444379 151.377909 
z
" style="fill: #ffffff"/>
   </g>
   <g id="patch_28">
    <path d="M 140.693013 83.508208 
C 138.841896 84.346939 137.025868 85.261051 135.249485 86.248251 
C 133.473101 87.235451 131.737849 88.294913 130.048082 89.423979 
L 171.444379 151.377909 
z
" style="fill: #ffffff"/>
   </g>
   <g id="patch_29">
    <path d="M 130.048082 89.423979 
C 129.034313 90.101359 128.037322 90.803519 127.058011 91.529826 
C 126.0787 92.256132 125.117363 93.006367 124.17487 93.779851 
L 171.444379 151.377909 
z
" style="fill: #ffffff"/>
   </g>
   <g id="patch_30">
    <path d="M 124.17487 93.779851 
C 123.860719 94.037668 123.548684 94.29805 123.238793 94.560972 
C 122.928903 94.823894 122.62117 95.089348 122.315623 95.357305 
L 171.444379 151.377909 
z
" style="fill: #ffffff"/>
   </g>
   <g id="patch_31">
    <path d="M 122.315623 95.357305 
C 111.860581 104.526131 104.178134 116.441246 100.141452 129.748405 
C 96.10477 143.055564 95.872809 157.230759 99.471932 170.662869 
L 171.444379 151.377909 
z
" style="fill: #ffffff"/>
   </g>
   <g id="patch_32">
    <path d="M 99.471932 170.662869 
C 99.682303 171.447984 99.905506 172.229605 100.141453 173.007416 
C 100.3774 173.785228 100.626058 174.559127 100.887327 175.328802 
L 171.444379 151.377909 
z
" style="fill: #ffffff"/>
   </g>
   <g id="patch_33">
    <path d="M 100.887327 175.328802 
C 101.409901 176.868255 101.982718 178.390194 102.604859 179.892173 
C 103.226999 181.394153 103.898129 182.875369 104.617171 184.333442 
L 171.444379 151.377909 
z
" style="fill: #ffffff"/>
   </g>
   <g id="patch_34">
    <path d="M 104.617171 184.333442 
C 107.22652 189.624678 110.455082 194.587334 114.234966 199.117053 
C 118.014849 203.646772 122.319372 207.711579 127.058015 211.225996 
L 171.444379 151.377909 
z
" style="fill: #ffffff"/>
   </g>
   <g id="patch_35">
    <path d="M 127.058015 211.225996 
C 129.343584 212.92109 131.72438 214.483865 134.1887 215.906641 
C 136.653021 217.329417 139.196822 218.609859 141.8076 219.741673 
L 171.444379 151.377909 
z
" style="fill: #ffffff"/>
   </g>
   <g id="patch_36">
    <path d="M 141.8076 219.741673 
C 146.285589 221.682952 150.943501 223.179565 155.714171 224.209931 
C 160.484842 225.240297 165.345228 225.799439 170.225246 225.879295 
L 171.444379 151.377909 
z
" style="fill: #ffffff"/>
   </g>
   <g id="patch_37">
    <path d="M 170.225246 225.879295 
C 176.531975 225.982498 182.826361 225.284463 188.957238 223.801956 
C 195.088116 222.319448 201.006008 220.064431 206.568791 217.091062 
L 171.444379 151.377909 
z
" style="fill: #ffffff"/>
   </g>
   <g id="patch_38">
    <path d="M 206.568791 217.091062 
C 209.975396 215.270194 213.235257 213.187179 216.318885 210.86086 
C 219.402513 208.534542 222.300581 205.971956 224.986873 203.196285 
L 171.444379 151.377909 
z
" style="fill: #ffffff"/>
   </g>
   <g id="patch_39">
    <path d="M 224.986873 203.196285 
C 228.947949 199.103415 232.426697 194.569822 235.354904 189.684403 
C 238.283111 184.798985 240.641513 179.593882 242.383864 174.171159 
L 171.444379 151.377909 
z
" style="fill: #ffffff"/>
   </g>
   <g id="patch_40">
    <path d="M 242.383864 174.171159 
C 243.00554 172.236315 243.547798 170.276847 244.009277 168.297671 
C 244.470756 166.318494 244.85107 164.321266 245.149266 162.310997 
L 171.444379 151.377909 
z
" style="fill: #ffffff"/>
   </g>
   <g id="patch_41">
    <path d="M 245.149266 162.310997 
C 245.417634 160.501802 245.619298 158.68334 245.753847 156.859305 
C 245.888396 155.03527 245.955739 153.2069 245.955739 151.37791 
L 171.444379 151.377909 
z
" style="fill: #ffffff"/>
   </g>
   <g id="matplotlib.axis_1"/>
   <g id="matplotlib.axis_2"/>
   <g id="text_1">
    <!-- A [61] -->
    <g transform="translate(295.281898 86.636397) scale(0.1 -0.1)">
     <defs>
      <path id="DejaVuSans-41" d="M 2188 4044 
L 1331 1722 
L 3047 1722 
L 2188 4044 
z
M 1831 4666 
L 2547 4666 
L 4325 0 
L 3669 0 
L 3244 1197 
L 1141 1197 
L 716 0 
L 50 0 
L 1831 4666 
z
" transform="scale(0.015625)"/>
      <path id="DejaVuSans-20" transform="scale(0.015625)"/>
      <path id="DejaVuSans-5b" d="M 550 4863 
L 1875 4863 
L 1875 4416 
L 1125 4416 
L 1125 -397 
L 1875 -397 
L 1875 -844 
L 550 -844 
L 550 4863 
z
" transform="scale(0.015625)"/>
      <path id="DejaVuSans-36" d="M 2113 2584 
Q 1688 2584 1439 2293 
Q 1191 2003 1191 1497 
Q 1191 994 1439 701 
Q 1688 409 2113 409 
Q 2538 409 2786 701 
Q 3034 994 3034 1497 
Q 3034 2003 2786 2293 
Q 2538 2584 2113 2584 
z
M 3366 4563 
L 3366 3988 
Q 3128 4100 2886 4159 
Q 2644 4219 2406 4219 
Q 1781 4219 1451 3797 
Q 1122 3375 1075 2522 
Q 1259 2794 1537 2939 
Q 1816 3084 2150 3084 
Q 2853 3084 3261 2657 
Q 3669 2231 3669 1497 
Q 3669 778 3244 343 
Q 2819 -91 2113 -91 
Q 1303 -91 875 529 
Q 447 1150 447 2328 
Q 447 3434 972 4092 
Q 1497 4750 2381 4750 
Q 2619 4750 2861 4703 
Q 3103 4656 3366 4563 
z
" transform="scale(0.015625)"/>
      <path id="DejaVuSans-31" d="M 794 531 
L 1825 531 
L 1825 4091 
L 703 3866 
L 703 4441 
L 1819 4666 
L 2450 4666 
L 2450 531 
L 3481 531 
L 3481 0 
L 794 0 
L 794 531 
z
" transform="scale(0.015625)"/>
      <path id="DejaVuSans-5d" d="M 1947 4863 
L 1947 -844 
L 622 -844 
L 622 -397 
L 1369 -397 
L 1369 4416 
L 622 4416 
L 622 4863 
L 1947 4863 
z
" transform="scale(0.015625)"/>
     </defs>
     <use xlink:href="#DejaVuSans-41"/>
     <use xlink:href="#DejaVuSans-20" x="68.408203"/>
     <use xlink:href="#DejaVuSans-5b" x="100.195312"/>
     <use xlink:href="#DejaVuSans-36" x="139.208984"/>
     <use xlink:href="#DejaVuSans-31" x="202.832031"/>
     <use xlink:href="#DejaVuSans-5d" x="266.455078"/>
    </g>
   </g>
   <g id="text_2">
    <!-- C [10] -->
    <g transform="translate(237.929869 29.751672) scale(0.1 -0.1)">
     <defs>
      <path id="DejaVuSans-43" d="M 4122 4306 
L 4122 3641 
Q 3803 3938 3442 4084 
Q 3081 4231 2675 4231 
Q 1875 4231 1450 3742 
Q 1025 3253 1025 2328 
Q 1025 1406 1450 917 
Q 1875 428 2675 428 
Q 3081 428 3442 575 
Q 3803 722 4122 1019 
L 4122 359 
Q 3791 134 3420 21 
Q 3050 -91 2638 -91 
Q 1578 -91 968 557 
Q 359 1206 359 2328 
Q 359 3453 968 4101 
Q 1578 4750 2638 4750 
Q 3056 4750 3426 4639 
Q 3797 4528 4122 4306 
z
" transform="scale(0.015625)"/>
      <path id="DejaVuSans-30" d="M 2034 4250 
Q 1547 4250 1301 3770 
Q 1056 3291 1056 2328 
Q 1056 1369 1301 889 
Q 1547 409 2034 409 
Q 2525 409 2770 889 
Q 3016 1369 3016 2328 
Q 3016 3291 2770 3770 
Q 2525 4250 2034 4250 
z
M 2034 4750 
Q 2819 4750 3233 4129 
Q 3647 3509 3647 2328 
Q 3647 1150 3233 529 
Q 2819 -91 2034 -91 
Q 1250 -91 836 529 
Q 422 1150 422 2328 
Q 422 3509 836 4129 
Q 1250 4750 2034 4750 
z
" transform="scale(0.015625)"/>
     </defs>
     <use xlink:href="#DejaVuSans-43"/>
     <use xlink:href="#DejaVuSans-20" x="69.824219"/>
     <use xlink:href="#DejaVuSans-5b" x="101.611328"/>
     <use xlink:href="#DejaVuSans-31" x="140.625"/>
     <use xlink:href="#DejaVuSans-30" x="204.248047"/>
     <use xlink:href="#DejaVuSans-5d" x="267.871094"/>
    </g>
   </g>
   <g id="text_3">
    <!-- D [4] -->
    <g transform="translate(223.278587 22.968249) scale(0.1 -0.1)">
     <defs>
      <path id="DejaVuSans-44" d="M 1259 4147 
L 1259 519 
L 2022 519 
Q 2988 519 3436 956 
Q 3884 1394 3884 2338 
Q 3884 3275 3436 3711 
Q 2988 4147 2022 4147 
L 1259 4147 
z
M 628 4666 
L 1925 4666 
Q 3281 4666 3915 4102 
Q 4550 3538 4550 2338 
Q 4550 1131 3912 565 
Q 3275 0 1925 0 
L 628 0 
L 628 4666 
z
" transform="scale(0.015625)"/>
      <path id="DejaVuSans-34" d="M 2419 4116 
L 825 1625 
L 2419 1625 
L 2419 4116 
z
M 2253 4666 
L 3047 4666 
L 3047 1625 
L 3713 1625 
L 3713 1100 
L 3047 1100 
L 3047 0 
L 2419 0 
L 2419 1100 
L 313 1100 
L 313 1709 
L 2253 4666 
z
" transform="scale(0.015625)"/>
     </defs>
     <use xlink:href="#DejaVuSans-44"/>
     <use xlink:href="#DejaVuSans-20" x="77.001953"/>
     <use xlink:href="#DejaVuSans-5b" x="108.789062"/>
     <use xlink:href="#DejaVuSans-34" x="147.802734"/>
     <use xlink:href="#DejaVuSans-5d" x="211.425781"/>
    </g>
   </g>
   <g id="text_4">
    <!-- E [8] -->
    <g transform="translate(210.172177 18.519223) scale(0.1 -0.1)">
     <defs>
      <path id="DejaVuSans-45" d="M 628 4666 
L 3578 4666 
L 3578 4134 
L 1259 4134 
L 1259 2753 
L 3481 2753 
L 3481 2222 
L 1259 2222 
L 1259 531 
L 3634 531 
L 3634 0 
L 628 0 
L 628 4666 
z
" transform="scale(0.015625)"/>
      <path id="DejaVuSans-38" d="M 2034 2216 
Q 1584 2216 1326 1975 
Q 1069 1734 1069 1313 
Q 1069 891 1326 650 
Q 1584 409 2034 409 
Q 2484 409 2743 651 
Q 3003 894 3003 1313 
Q 3003 1734 2745 1975 
Q 2488 2216 2034 2216 
z
M 1403 2484 
Q 997 2584 770 2862 
Q 544 3141 544 3541 
Q 544 4100 942 4425 
Q 1341 4750 2034 4750 
Q 2731 4750 3128 4425 
Q 3525 4100 3525 3541 
Q 3525 3141 3298 2862 
Q 3072 2584 2669 2484 
Q 3125 2378 3379 2068 
Q 3634 1759 3634 1313 
Q 3634 634 3220 271 
Q 2806 -91 2034 -91 
Q 1263 -91 848 271 
Q 434 634 434 1313 
Q 434 1759 690 2068 
Q 947 2378 1403 2484 
z
M 1172 3481 
Q 1172 3119 1398 2916 
Q 1625 2713 2034 2713 
Q 2441 2713 2670 2916 
Q 2900 3119 2900 3481 
Q 2900 3844 2670 4047 
Q 2441 4250 2034 4250 
Q 1625 4250 1398 4047 
Q 1172 3844 1172 3481 
z
" transform="scale(0.015625)"/>
     </defs>
     <use xlink:href="#DejaVuSans-45"/>
     <use xlink:href="#DejaVuSans-20" x="63.183594"/>
     <use xlink:href="#DejaVuSans-5b" x="94.970703"/>
     <use xlink:href="#DejaVuSans-38" x="133.984375"/>
     <use xlink:href="#DejaVuSans-5d" x="197.607422"/>
    </g>
   </g>
   <g id="text_5">
    <!-- F [7] -->
    <g transform="translate(193.279828 14.798437) scale(0.1 -0.1)">
     <defs>
      <path id="DejaVuSans-46" d="M 628 4666 
L 3309 4666 
L 3309 4134 
L 1259 4134 
L 1259 2759 
L 3109 2759 
L 3109 2228 
L 1259 2228 
L 1259 0 
L 628 0 
L 628 4666 
z
" transform="scale(0.015625)"/>
      <path id="DejaVuSans-37" d="M 525 4666 
L 3525 4666 
L 3525 4397 
L 1831 0 
L 1172 0 
L 2766 4134 
L 525 4134 
L 525 4666 
z
" transform="scale(0.015625)"/>
     </defs>
     <use xlink:href="#DejaVuSans-46"/>
     <use xlink:href="#DejaVuSans-20" x="57.519531"/>
     <use xlink:href="#DejaVuSans-5b" x="89.306641"/>
     <use xlink:href="#DejaVuSans-37" x="128.320312"/>
     <use xlink:href="#DejaVuSans-5d" x="191.943359"/>
    </g>
   </g>
   <g id="text_6">
    <!-- G [32] -->
    <g transform="translate(117.015013 14.981741) scale(0.1 -0.1)">
     <defs>
      <path id="DejaVuSans-47" d="M 3809 666 
L 3809 1919 
L 2778 1919 
L 2778 2438 
L 4434 2438 
L 4434 434 
Q 4069 175 3628 42 
Q 3188 -91 2688 -91 
Q 1594 -91 976 548 
Q 359 1188 359 2328 
Q 359 3472 976 4111 
Q 1594 4750 2688 4750 
Q 3144 4750 3555 4637 
Q 3966 4525 4313 4306 
L 4313 3634 
Q 3963 3931 3569 4081 
Q 3175 4231 2741 4231 
Q 1884 4231 1454 3753 
Q 1025 3275 1025 2328 
Q 1025 1384 1454 906 
Q 1884 428 2741 428 
Q 3075 428 3337 486 
Q 3600 544 3809 666 
z
" transform="scale(0.015625)"/>
      <path id="DejaVuSans-33" d="M 2597 2516 
Q 3050 2419 3304 2112 
Q 3559 1806 3559 1356 
Q 3559 666 3084 287 
Q 2609 -91 1734 -91 
Q 1441 -91 1130 -33 
Q 819 25 488 141 
L 488 750 
Q 750 597 1062 519 
Q 1375 441 1716 441 
Q 2309 441 2620 675 
Q 2931 909 2931 1356 
Q 2931 1769 2642 2001 
Q 2353 2234 1838 2234 
L 1294 2234 
L 1294 2753 
L 1863 2753 
Q 2328 2753 2575 2939 
Q 2822 3125 2822 3475 
Q 2822 3834 2567 4026 
Q 2313 4219 1838 4219 
Q 1578 4219 1281 4162 
Q 984 4106 628 3988 
L 628 4550 
Q 988 4650 1302 4700 
Q 1616 4750 1894 4750 
Q 2613 4750 3031 4423 
Q 3450 4097 3450 3541 
Q 3450 3153 3228 2886 
Q 3006 2619 2597 2516 
z
" transform="scale(0.015625)"/>
      <path id="DejaVuSans-32" d="M 1228 531 
L 3431 531 
L 3431 0 
L 469 0 
L 469 531 
Q 828 903 1448 1529 
Q 2069 2156 2228 2338 
Q 2531 2678 2651 2914 
Q 2772 3150 2772 3378 
Q 2772 3750 2511 3984 
Q 2250 4219 1831 4219 
Q 1534 4219 1204 4116 
Q 875 4013 500 3803 
L 500 4441 
Q 881 4594 1212 4672 
Q 1544 4750 1819 4750 
Q 2544 4750 2975 4387 
Q 3406 4025 3406 3419 
Q 3406 3131 3298 2873 
Q 3191 2616 2906 2266 
Q 2828 2175 2409 1742 
Q 1991 1309 1228 531 
z
" transform="scale(0.015625)"/>
     </defs>
     <use xlink:href="#DejaVuSans-47"/>
     <use xlink:href="#DejaVuSans-20" x="77.490234"/>
     <use xlink:href="#DejaVuSans-5b" x="109.277344"/>
     <use xlink:href="#DejaVuSans-33" x="148.291016"/>
     <use xlink:href="#DejaVuSans-32" x="211.914062"/>
     <use xlink:href="#DejaVuSans-5d" x="275.537109"/>
    </g>
   </g>
   <g id="text_7">
    <!-- H [10] -->
    <g transform="translate(71.706053 30.856145) scale(0.1 -0.1)">
     <defs>
      <path id="DejaVuSans-48" d="M 628 4666 
L 1259 4666 
L 1259 2753 
L 3553 2753 
L 3553 4666 
L 4184 4666 
L 4184 0 
L 3553 0 
L 3553 2222 
L 1259 2222 
L 1259 0 
L 628 0 
L 628 4666 
z
" transform="scale(0.015625)"/>
     </defs>
     <use xlink:href="#DejaVuSans-48"/>
     <use xlink:href="#DejaVuSans-20" x="75.195312"/>
     <use xlink:href="#DejaVuSans-5b" x="106.982422"/>
     <use xlink:href="#DejaVuSans-31" x="145.996094"/>
     <use xlink:href="#DejaVuSans-30" x="209.619141"/>
     <use xlink:href="#DejaVuSans-5d" x="273.242188"/>
    </g>
   </g>
   <g id="text_8">
    <!-- I [6] -->
    <g transform="translate(67.133575 40.853412) scale(0.1 -0.1)">
     <defs>
      <path id="DejaVuSans-49" d="M 628 4666 
L 1259 4666 
L 1259 0 
L 628 0 
L 628 4666 
z
" transform="scale(0.015625)"/>
     </defs>
     <use xlink:href="#DejaVuSans-49"/>
     <use xlink:href="#DejaVuSans-20" x="29.492188"/>
     <use xlink:href="#DejaVuSans-5b" x="61.279297"/>
     <use xlink:href="#DejaVuSans-36" x="100.292969"/>
     <use xlink:href="#DejaVuSans-5d" x="163.916016"/>
    </g>
   </g>
   <g id="text_9">
    <!-- K [2] -->
    <g transform="translate(56.29653 46.590939) scale(0.1 -0.1)">
     <defs>
      <path id="DejaVuSans-4b" d="M 628 4666 
L 1259 4666 
L 1259 2694 
L 3353 4666 
L 4166 4666 
L 1850 2491 
L 4331 0 
L 3500 0 
L 1259 2247 
L 1259 0 
L 628 0 
L 628 4666 
z
" transform="scale(0.015625)"/>
     </defs>
     <use xlink:href="#DejaVuSans-4b"/>
     <use xlink:href="#DejaVuSans-20" x="65.576172"/>
     <use xlink:href="#DejaVuSans-5b" x="97.363281"/>
     <use xlink:href="#DejaVuSans-32" x="136.376953"/>
     <use xlink:href="#DejaVuSans-5d" x="200"/>
    </g>
   </g>
   <g id="text_10">
    <!-- L [68] -->
    <g transform="translate(7.2 113.195723) scale(0.1 -0.1)">
     <defs>
      <path id="DejaVuSans-4c" d="M 628 4666 
L 1259 4666 
L 1259 531 
L 3531 531 
L 3531 0 
L 628 0 
L 628 4666 
z
" transform="scale(0.015625)"/>
     </defs>
     <use xlink:href="#DejaVuSans-4c"/>
     <use xlink:href="#DejaVuSans-20" x="55.712891"/>
     <use xlink:href="#DejaVuSans-5b" x="87.5"/>
     <use xlink:href="#DejaVuSans-36" x="126.513672"/>
     <use xlink:href="#DejaVuSans-38" x="190.136719"/>
     <use xlink:href="#DejaVuSans-5d" x="253.759766"/>
    </g>
   </g>
   <g id="text_11">
    <!-- M [4] -->
    <g transform="translate(10.506252 195.078851) scale(0.1 -0.1)">
     <defs>
      <path id="DejaVuSans-4d" d="M 628 4666 
L 1569 4666 
L 2759 1491 
L 3956 4666 
L 4897 4666 
L 4897 0 
L 4281 0 
L 4281 4097 
L 3078 897 
L 2444 897 
L 1241 4097 
L 1241 0 
L 628 0 
L 628 4666 
z
" transform="scale(0.015625)"/>
     </defs>
     <use xlink:href="#DejaVuSans-4d"/>
     <use xlink:href="#DejaVuSans-20" x="86.279297"/>
     <use xlink:href="#DejaVuSans-5b" x="118.066406"/>
     <use xlink:href="#DejaVuSans-34" x="157.080078"/>
     <use xlink:href="#DejaVuSans-5d" x="220.703125"/>
    </g>
   </g>
   <g id="text_12">
    <!-- N [8] -->
    <g transform="translate(16.316001 208.110713) scale(0.1 -0.1)">
     <defs>
      <path id="DejaVuSans-4e" d="M 628 4666 
L 1478 4666 
L 3547 763 
L 3547 4666 
L 4159 4666 
L 4159 0 
L 3309 0 
L 1241 3903 
L 1241 0 
L 628 0 
L 628 4666 
z
" transform="scale(0.015625)"/>
     </defs>
     <use xlink:href="#DejaVuSans-4e"/>
     <use xlink:href="#DejaVuSans-20" x="74.804688"/>
     <use xlink:href="#DejaVuSans-5b" x="106.591797"/>
     <use xlink:href="#DejaVuSans-38" x="145.605469"/>
     <use xlink:href="#DejaVuSans-5d" x="209.228516"/>
    </g>
   </g>
   <g id="text_13">
    <!-- P [29] -->
    <g transform="translate(33.419195 244.500663) scale(0.1 -0.1)">
     <defs>
      <path id="DejaVuSans-50" d="M 1259 4147 
L 1259 2394 
L 2053 2394 
Q 2494 2394 2734 2622 
Q 2975 2850 2975 3272 
Q 2975 3691 2734 3919 
Q 2494 4147 2053 4147 
L 1259 4147 
z
M 628 4666 
L 2053 4666 
Q 2838 4666 3239 4311 
Q 3641 3956 3641 3272 
Q 3641 2581 3239 2228 
Q 2838 1875 2053 1875 
L 1259 1875 
L 1259 0 
L 628 0 
L 628 4666 
z
" transform="scale(0.015625)"/>
      <path id="DejaVuSans-39" d="M 703 97 
L 703 672 
Q 941 559 1184 500 
Q 1428 441 1663 441 
Q 2288 441 2617 861 
Q 2947 1281 2994 2138 
Q 2813 1869 2534 1725 
Q 2256 1581 1919 1581 
Q 1219 1581 811 2004 
Q 403 2428 403 3163 
Q 403 3881 828 4315 
Q 1253 4750 1959 4750 
Q 2769 4750 3195 4129 
Q 3622 3509 3622 2328 
Q 3622 1225 3098 567 
Q 2575 -91 1691 -91 
Q 1453 -91 1209 -44 
Q 966 3 703 97 
z
M 1959 2075 
Q 2384 2075 2632 2365 
Q 2881 2656 2881 3163 
Q 2881 3666 2632 3958 
Q 2384 4250 1959 4250 
Q 1534 4250 1286 3958 
Q 1038 3666 1038 3163 
Q 1038 2656 1286 2365 
Q 1534 2075 1959 2075 
z
" transform="scale(0.015625)"/>
     </defs>
     <use xlink:href="#DejaVuSans-50"/>
     <use xlink:href="#DejaVuSans-20" x="60.302734"/>
     <use xlink:href="#DejaVuSans-5b" x="92.089844"/>
     <use xlink:href="#DejaVuSans-32" x="131.103516"/>
     <use xlink:href="#DejaVuSans-39" x="194.726562"/>
     <use xlink:href="#DejaVuSans-5d" x="258.349609"/>
    </g>
   </g>
   <g id="text_14">
    <!-- Q [14] -->
    <g transform="translate(69.346577 276.280955) scale(0.1 -0.1)">
     <defs>
      <path id="DejaVuSans-51" d="M 2522 4238 
Q 1834 4238 1429 3725 
Q 1025 3213 1025 2328 
Q 1025 1447 1429 934 
Q 1834 422 2522 422 
Q 3209 422 3611 934 
Q 4013 1447 4013 2328 
Q 4013 3213 3611 3725 
Q 3209 4238 2522 4238 
z
M 3406 84 
L 4238 -825 
L 3475 -825 
L 2784 -78 
Q 2681 -84 2626 -87 
Q 2572 -91 2522 -91 
Q 1538 -91 948 567 
Q 359 1225 359 2328 
Q 359 3434 948 4092 
Q 1538 4750 2522 4750 
Q 3503 4750 4090 4092 
Q 4678 3434 4678 2328 
Q 4678 1516 4351 937 
Q 4025 359 3406 84 
z
" transform="scale(0.015625)"/>
     </defs>
     <use xlink:href="#DejaVuSans-51"/>
     <use xlink:href="#DejaVuSans-20" x="78.710938"/>
     <use xlink:href="#DejaVuSans-5b" x="110.498047"/>
     <use xlink:href="#DejaVuSans-31" x="149.511719"/>
     <use xlink:href="#DejaVuSans-34" x="213.134766"/>
     <use xlink:href="#DejaVuSans-5d" x="276.757812"/>
    </g>
   </g>
   <g id="text_15">
    <!-- R [24] -->
    <g transform="translate(111.014656 291.997896) scale(0.1 -0.1)">
     <defs>
      <path id="DejaVuSans-52" d="M 2841 2188 
Q 3044 2119 3236 1894 
Q 3428 1669 3622 1275 
L 4263 0 
L 3584 0 
L 2988 1197 
Q 2756 1666 2539 1819 
Q 2322 1972 1947 1972 
L 1259 1972 
L 1259 0 
L 628 0 
L 628 4666 
L 2053 4666 
Q 2853 4666 3247 4331 
Q 3641 3997 3641 3322 
Q 3641 2881 3436 2590 
Q 3231 2300 2841 2188 
z
M 1259 4147 
L 1259 2491 
L 2053 2491 
Q 2509 2491 2742 2702 
Q 2975 2913 2975 3322 
Q 2975 3731 2742 3939 
Q 2509 4147 2053 4147 
L 1259 4147 
z
" transform="scale(0.015625)"/>
     </defs>
     <use xlink:href="#DejaVuSans-52"/>
     <use xlink:href="#DejaVuSans-20" x="69.482422"/>
     <use xlink:href="#DejaVuSans-5b" x="101.269531"/>
     <use xlink:href="#DejaVuSans-32" x="140.283203"/>
     <use xlink:href="#DejaVuSans-34" x="203.90625"/>
     <use xlink:href="#DejaVuSans-5d" x="267.529297"/>
    </g>
   </g>
   <g id="text_16">
    <!-- S [31] -->
    <g transform="translate(204.59372 291.225658) scale(0.1 -0.1)">
     <defs>
      <path id="DejaVuSans-53" d="M 3425 4513 
L 3425 3897 
Q 3066 4069 2747 4153 
Q 2428 4238 2131 4238 
Q 1616 4238 1336 4038 
Q 1056 3838 1056 3469 
Q 1056 3159 1242 3001 
Q 1428 2844 1947 2747 
L 2328 2669 
Q 3034 2534 3370 2195 
Q 3706 1856 3706 1288 
Q 3706 609 3251 259 
Q 2797 -91 1919 -91 
Q 1588 -91 1214 -16 
Q 841 59 441 206 
L 441 856 
Q 825 641 1194 531 
Q 1563 422 1919 422 
Q 2459 422 2753 634 
Q 3047 847 3047 1241 
Q 3047 1584 2836 1778 
Q 2625 1972 2144 2069 
L 1759 2144 
Q 1053 2284 737 2584 
Q 422 2884 422 3419 
Q 422 4038 858 4394 
Q 1294 4750 2059 4750 
Q 2388 4750 2728 4690 
Q 3069 4631 3425 4513 
z
" transform="scale(0.015625)"/>
     </defs>
     <use xlink:href="#DejaVuSans-53"/>
     <use xlink:href="#DejaVuSans-20" x="63.476562"/>
     <use xlink:href="#DejaVuSans-5b" x="95.263672"/>
     <use xlink:href="#DejaVuSans-33" x="134.277344"/>
     <use xlink:href="#DejaVuSans-31" x="197.900391"/>
     <use xlink:href="#DejaVuSans-5d" x="261.523438"/>
    </g>
   </g>
   <g id="text_17">
    <!-- T [19] -->
    <g transform="translate(256.385408 266.730013) scale(0.1 -0.1)">
     <defs>
      <path id="DejaVuSans-54" d="M -19 4666 
L 3928 4666 
L 3928 4134 
L 2272 4134 
L 2272 0 
L 1638 0 
L 1638 4134 
L -19 4134 
L -19 4666 
z
" transform="scale(0.015625)"/>
     </defs>
     <use xlink:href="#DejaVuSans-54"/>
     <use xlink:href="#DejaVuSans-20" x="61.083984"/>
     <use xlink:href="#DejaVuSans-5b" x="92.871094"/>
     <use xlink:href="#DejaVuSans-31" x="131.884766"/>
     <use xlink:href="#DejaVuSans-39" x="195.507812"/>
     <use xlink:href="#DejaVuSans-5d" x="259.130859"/>
    </g>
   </g>
   <g id="text_18">
    <!-- V [28] -->
    <g transform="translate(292.417873 226.646005) scale(0.1 -0.1)">
     <defs>
      <path id="DejaVuSans-56" d="M 1831 0 
L 50 4666 
L 709 4666 
L 2188 738 
L 3669 4666 
L 4325 4666 
L 2547 0 
L 1831 0 
z
" transform="scale(0.015625)"/>
     </defs>
     <use xlink:href="#DejaVuSans-56"/>
     <use xlink:href="#DejaVuSans-20" x="68.408203"/>
     <use xlink:href="#DejaVuSans-5b" x="100.195312"/>
     <use xlink:href="#DejaVuSans-32" x="139.208984"/>
     <use xlink:href="#DejaVuSans-38" x="202.832031"/>
     <use xlink:href="#DejaVuSans-5d" x="266.455078"/>
    </g>
   </g>
   <g id="text_19">
    <!-- W [10] -->
    <g transform="translate(308.799364 186.163975) scale(0.1 -0.1)">
     <defs>
      <path id="DejaVuSans-57" d="M 213 4666 
L 850 4666 
L 1831 722 
L 2809 4666 
L 3519 4666 
L 4500 722 
L 5478 4666 
L 6119 4666 
L 4947 0 
L 4153 0 
L 3169 4050 
L 2175 0 
L 1381 0 
L 213 4666 
z
" transform="scale(0.015625)"/>
     </defs>
     <use xlink:href="#DejaVuSans-57"/>
     <use xlink:href="#DejaVuSans-20" x="98.876953"/>
     <use xlink:href="#DejaVuSans-5b" x="130.664062"/>
     <use xlink:href="#DejaVuSans-31" x="169.677734"/>
     <use xlink:href="#DejaVuSans-30" x="233.300781"/>
     <use xlink:href="#DejaVuSans-5d" x="296.923828"/>
    </g>
   </g>
   <g id="text_20">
    <!-- Y [9] -->
    <g transform="translate(312.101586 164.512784) scale(0.1 -0.1)">
     <defs>
      <path id="DejaVuSans-59" d="M -13 4666 
L 666 4666 
L 1959 2747 
L 3244 4666 
L 3922 4666 
L 2272 2222 
L 2272 0 
L 1638 0 
L 1638 2222 
L -13 4666 
z
" transform="scale(0.015625)"/>
     </defs>
     <use xlink:href="#DejaVuSans-59"/>
     <use xlink:href="#DejaVuSans-20" x="61.083984"/>
     <use xlink:href="#DejaVuSans-5b" x="92.871094"/>
     <use xlink:href="#DejaVuSans-39" x="131.884766"/>
     <use xlink:href="#DejaVuSans-5d" x="195.507812"/>
    </g>
   </g>
   <g id="text_21">
    <!-- A0A8M1FHR8 [384] -->
    <g transform="translate(112.615316 151.377909) scale(0.12 -0.12)">
     <use xlink:href="#DejaVuSans-41"/>
     <use xlink:href="#DejaVuSans-30" x="68.408203"/>
     <use xlink:href="#DejaVuSans-41" x="132.03125"/>
     <use xlink:href="#DejaVuSans-38" x="200.439453"/>
     <use xlink:href="#DejaVuSans-4d" x="264.0625"/>
     <use xlink:href="#DejaVuSans-31" x="350.341797"/>
     <use xlink:href="#DejaVuSans-46" x="413.964844"/>
     <use xlink:href="#DejaVuSans-48" x="471.484375"/>
     <use xlink:href="#DejaVuSans-52" x="546.679688"/>
     <use xlink:href="#DejaVuSans-38" x="616.162109"/>
     <use xlink:href="#DejaVuSans-20" x="679.785156"/>
     <use xlink:href="#DejaVuSans-5b" x="711.572266"/>
     <use xlink:href="#DejaVuSans-33" x="750.585938"/>
     <use xlink:href="#DejaVuSans-38" x="814.208984"/>
     <use xlink:href="#DejaVuSans-34" x="877.832031"/>
     <use xlink:href="#DejaVuSans-5d" x="941.455078"/>
    </g>
   </g>
  </g>
 </g>
</svg>
