<?xml version="1.0" encoding="utf-8" standalone="no"?>
<!DOCTYPE svg PUBLIC "-//W3C//DTD SVG 1.1//EN"
  "http://www.w3.org/Graphics/SVG/1.1/DTD/svg11.dtd">
<svg xmlns:xlink="http://www.w3.org/1999/xlink" width="352.518305pt" height="305.228387pt" viewBox="0 0 352.518305 305.228387" xmlns="http://www.w3.org/2000/svg" version="1.1">
 <metadata>
  <rdf:RDF xmlns:dc="http://purl.org/dc/elements/1.1/" xmlns:cc="http://creativecommons.org/ns#" xmlns:rdf="http://www.w3.org/1999/02/22-rdf-syntax-ns#">
   <cc:Work>
    <dc:type rdf:resource="http://purl.org/dc/dcmitype/StillImage"/>
    <dc:date>2024-09-27T16:07:25.238173</dc:date>
    <dc:format>image/svg+xml</dc:format>
    <dc:creator>
     <cc:Agent>
      <dc:title>Matplotlib v3.8.3, https://matplotlib.org/</dc:title>
     </cc:Agent>
    </dc:creator>
   </cc:Work>
  </rdf:RDF>
 </metadata>
 <defs>
  <style type="text/css">*{stroke-linejoin: round; stroke-linecap: butt}</style>
 </defs>
 <g id="figure_1">
  <g id="patch_1">
   <path d="M -0 305.228387 
L 352.518305 305.228387 
L 352.518305 0 
L -0 0 
z
" style="fill: #ffffff"/>
  </g>
  <g id="axes_1">
   <g id="patch_2">
    <path d="M 304.493926 152.053299 
C 304.493926 144.010107 303.734226 135.984864 302.224951 128.084545 
C 300.715677 120.184227 298.463565 112.444093 295.498635 104.96732 
L 176.760166 152.053299 
z
" style="fill: #1f77b4"/>
   </g>
   <g id="patch_3">
    <path d="M 295.456269 104.838116 
C 294.39805 102.169566 293.250172 99.537449 292.01459 96.946248 
C 290.779008 94.355048 289.456424 91.806236 288.049093 89.304157 
L 176.7178 151.924095 
z
" style="fill: #ff7f0e"/>
   </g>
   <g id="patch_4">
    <path d="M 288.009968 89.235682 
C 286.3211 86.233061 284.511451 83.299993 282.585461 80.443673 
C 280.659471 77.587352 278.618716 74.810117 276.468202 72.11878 
L 176.678675 151.855619 
z
" style="fill: #aec7e8"/>
   </g>
   <g id="patch_5">
    <path d="M 276.424199 72.062162 
C 274.990632 70.268073 273.508943 68.512971 271.980747 66.798769 
C 270.45255 65.084568 268.878403 63.411891 267.260022 61.782562 
L 176.634672 151.799001 
z
" style="fill: #ffbb78"/>
   </g>
   <g id="patch_6">
    <path d="M 267.126785 61.674619 
C 259.02313 53.516148 249.854771 46.489198 239.870496 40.784452 
C 229.886222 35.079705 219.177167 30.749233 208.033931 27.910546 
L 176.501434 151.691058 
z
" style="fill: #98df8a"/>
   </g>
   <g id="patch_7">
    <path d="M 207.830756 27.843925 
C 202.265446 26.426189 196.610852 25.385399 190.905475 24.728642 
C 185.200099 24.071885 179.456919 23.800656 173.715041 23.9168 
L 176.29826 151.624437 
z
" style="fill: #2ca02c"/>
   </g>
   <g id="patch_8">
    <path d="M 173.57908 23.918633 
C 168.411761 24.023156 163.255545 24.441203 158.138878 25.170468 
C 153.022211 25.899734 147.954519 26.938874 142.963757 28.282157 
L 176.162299 151.62627 
z
" style="fill: #d62728"/>
   </g>
   <g id="patch_9">
    <path d="M 142.762453 28.354232 
C 131.101503 31.492822 119.944336 36.269251 109.624574 42.540694 
C 99.304812 48.812138 89.926352 56.515458 81.769628 65.420307 
L 175.960995 151.698346 
z
" style="fill: #9467bd"/>
   </g>
   <g id="patch_10">
    <path d="M 81.617145 65.55998 
C 78.514242 68.947478 75.596339 72.499899 72.876157 76.201758 
C 70.155975 79.903617 67.637473 83.749524 65.33163 87.722714 
L 175.808512 151.838018 
z
" style="fill: #ff9896"/>
   </g>
   <g id="patch_11">
    <path d="M 65.233122 87.966322 
C 56.849941 102.411355 51.380639 118.361313 49.135568 134.911128 
C 46.890498 151.460942 47.912942 168.291541 52.144883 184.447883 
L 175.710003 152.081625 
z
" style="fill: #c5b0d5"/>
   </g>
   <g id="patch_12">
    <path d="M 52.170004 184.695451 
C 53.042926 188.028019 54.050311 191.323909 55.189687 194.575036 
C 56.329064 197.826163 57.599498 201.029866 58.997876 204.178285 
L 175.735124 152.329193 
z
" style="fill: #c49c94"/>
   </g>
   <g id="patch_13">
    <path d="M 59.054898 204.293834 
C 61.852796 210.593247 65.156004 216.655865 68.932154 222.422278 
C 72.708305 228.188691 76.945021 233.64 81.600784 238.722785 
L 175.792146 152.444742 
z
" style="fill: #8c564b"/>
   </g>
   <g id="patch_14">
    <path d="M 81.683904 238.821243 
C 84.010835 241.361597 86.439584 243.806775 88.964193 246.150779 
C 91.488802 248.494782 94.107205 250.735693 96.812979 252.868014 
L 175.875267 152.543201 
z
" style="fill: #e377c2"/>
   </g>
   <g id="patch_15">
    <path d="M 96.880541 252.921256 
C 99.586315 255.053577 102.377245 257.075563 105.246485 258.982253 
C 108.115725 260.888943 111.060926 262.678777 114.074863 264.347364 
L 175.942828 152.596443 
z
" style="fill: #7f7f7f"/>
   </g>
   <g id="patch_16">
    <path d="M 114.169909 264.3975 
C 118.691586 266.900808 123.361031 269.127375 128.152486 271.064918 
C 132.94394 273.002461 137.848577 274.647411 142.839338 275.990694 
L 176.037874 152.646579 
z
" style="fill: #f7b6d2"/>
   </g>
   <g id="patch_17">
    <path d="M 143.035273 276.029496 
C 153.582474 278.868315 164.450373 280.342604 175.372687 280.416238 
C 186.295001 280.489873 197.18179 279.162248 207.766308 276.465892 
L 176.233808 152.685381 
z
" style="fill: #c7c7c7"/>
   </g>
   <g id="patch_18">
    <path d="M 208.021377 276.402742 
C 218.047417 273.848656 227.726106 270.085863 236.844509 265.197145 
C 245.962911 260.308428 254.453664 254.329903 262.129965 247.393101 
L 176.488878 152.622231 
z
" style="fill: #dbdb8d"/>
   </g>
   <g id="patch_19">
    <path d="M 262.30308 247.244944 
C 268.270651 241.85226 273.715552 235.907958 278.565203 229.491275 
C 283.414854 223.074591 287.64761 216.214165 291.207049 209.001444 
L 176.661993 152.474074 
z
" style="fill: #bcbd22"/>
   </g>
   <g id="patch_20">
    <path d="M 291.282306 208.863319 
C 293.315256 204.743822 295.124497 200.517652 296.702139 196.203236 
C 298.279782 191.888819 299.623531 187.492435 300.727529 183.033249 
L 176.73725 152.335949 
z
" style="fill: #17becf"/>
   </g>
   <g id="patch_21">
    <path d="M 300.755985 182.914895 
C 301.998063 177.897988 302.934504 172.810317 303.560143 167.679948 
C 304.185782 162.549579 304.499467 157.385964 304.499467 152.217588 
L 176.765707 152.217596 
z
" style="fill: #9edae5"/>
   </g>
   <g id="patch_22">
    <path d="M 250.748756 152.153169 
C 250.748756 147.461307 250.305598 142.779915 249.425188 138.171396 
C 248.544778 133.562877 247.231045 129.047799 245.501503 124.686348 
L 176.237396 152.153169 
z
" style="fill: #ffffff"/>
   </g>
   <g id="patch_23">
    <path d="M 245.501503 124.686348 
C 244.884209 123.129694 244.214613 121.594292 243.493857 120.082759 
C 242.773101 118.571225 242.001594 117.084418 241.180651 115.624872 
L 176.237396 152.153169 
z
" style="fill: #ffffff"/>
   </g>
   <g id="patch_24">
    <path d="M 241.180651 115.624872 
C 240.195478 113.873344 239.139849 112.162387 238.016355 110.4962 
C 236.892861 108.830013 235.70242 107.209959 234.447954 105.640013 
L 176.237396 152.153169 
z
" style="fill: #ffffff"/>
   </g>
   <g id="patch_25">
    <path d="M 234.447954 105.640013 
C 233.611707 104.593461 232.747388 103.569651 231.85594 102.5697 
C 230.964492 101.56975 230.04624 100.594021 229.102184 99.64358 
L 176.237396 152.153169 
z
" style="fill: #ffffff"/>
   </g>
   <g id="patch_26">
    <path d="M 229.102184 99.64358 
C 224.375052 94.884471 219.026843 90.785417 213.202683 87.457649 
C 207.378523 84.12988 201.131574 81.603771 194.631353 79.947871 
L 176.237396 152.153169 
z
" style="fill: #ffffff"/>
   </g>
   <g id="patch_27">
    <path d="M 194.631353 79.947871 
C 191.384922 79.120858 188.086408 78.51373 184.758272 78.130622 
C 181.430136 77.747514 178.079947 77.589297 174.730519 77.657048 
L 176.237396 152.153169 
z
" style="fill: #ffffff"/>
   </g>
   <g id="patch_28">
    <path d="M 174.730519 77.657048 
C 171.716249 77.718019 168.708457 77.96188 165.723735 78.387285 
C 162.739012 78.81269 159.782858 79.418855 156.871581 80.202436 
L 176.237396 152.153169 
z
" style="fill: #ffffff"/>
   </g>
   <g id="patch_29">
    <path d="M 156.871581 80.202436 
C 150.06936 82.03328 143.561012 84.81953 137.541151 88.477873 
C 131.52129 92.136215 126.050521 96.629818 121.292432 101.824313 
L 176.237396 152.153169 
z
" style="fill: #ffffff"/>
   </g>
   <g id="patch_30">
    <path d="M 121.292432 101.824313 
C 119.482406 103.800354 117.780296 105.8726 116.193523 108.032017 
C 114.60675 110.191435 113.137624 112.434881 111.792549 114.752575 
L 176.237396 152.153169 
z
" style="fill: #ffffff"/>
   </g>
   <g id="patch_31">
    <path d="M 111.792549 114.752575 
C 106.90236 123.178844 103.711934 132.482987 102.40231 142.137046 
C 101.092685 151.791104 101.689111 161.608953 104.157743 171.033486 
L 176.237396 152.153169 
z
" style="fill: #ffffff"/>
   </g>
   <g id="patch_32">
    <path d="M 104.157743 171.033486 
C 104.666948 172.977484 105.254589 174.900087 105.919225 176.796577 
C 106.583861 178.693068 107.324948 180.561895 108.140668 182.398473 
L 176.237396 152.153169 
z
" style="fill: #ffffff"/>
   </g>
   <g id="patch_33">
    <path d="M 108.140668 182.398473 
C 109.772775 186.07313 111.699647 189.609658 113.902401 192.973399 
C 116.105155 196.337139 118.576573 199.51707 121.292435 202.482027 
L 176.237396 152.153169 
z
" style="fill: #ffffff"/>
   </g>
   <g id="patch_34">
    <path d="M 121.292435 202.482027 
C 122.649811 203.9639 124.066581 205.390254 125.53927 206.75759 
C 127.011959 208.124925 128.539361 209.432123 130.117729 210.675977 
L 176.237396 152.153169 
z
" style="fill: #ffffff"/>
   </g>
   <g id="patch_35">
    <path d="M 130.117729 210.675977 
C 131.696097 211.919831 133.324139 213.099322 134.997863 214.211558 
C 136.671586 215.323794 138.38962 216.367864 140.14775 217.341206 
L 176.237396 152.153169 
z
" style="fill: #ffffff"/>
   </g>
   <g id="patch_36">
    <path d="M 140.14775 217.341206 
C 142.785395 218.801469 145.509238 220.1003 148.304253 221.230534 
C 151.099268 222.360767 153.960306 223.320321 156.871584 224.103903 
L 176.237396 152.153169 
z
" style="fill: #ffffff"/>
   </g>
   <g id="patch_37">
    <path d="M 156.871584 224.103903 
C 163.024118 225.759881 169.363726 226.619882 175.735076 226.662836 
C 182.106425 226.70579 188.457052 225.931342 194.631354 224.358467 
L 176.237396 152.153169 
z
" style="fill: #ffffff"/>
   </g>
   <g id="patch_38">
    <path d="M 194.631354 224.358467 
C 200.479877 222.868584 206.125779 220.673621 211.444848 217.821869 
C 216.763916 214.970117 221.716855 211.482644 226.194697 207.436176 
L 176.237396 152.153169 
z
" style="fill: #ffffff"/>
   </g>
   <g id="patch_39">
    <path d="M 226.194697 207.436176 
C 229.67578 204.290444 232.851973 200.822935 235.680936 197.079869 
C 238.509899 193.336804 240.979006 189.334889 243.055346 185.127468 
L 176.237396 152.153169 
z
" style="fill: #ffffff"/>
   </g>
   <g id="patch_40">
    <path d="M 243.055346 185.127468 
C 244.241233 182.724428 245.296623 180.259162 246.216915 177.742419 
C 247.137207 175.225676 247.921061 172.661119 248.565059 170.059927 
L 176.237396 152.153169 
z
" style="fill: #ffffff"/>
   </g>
   <g id="patch_41">
    <path d="M 248.565059 170.059927 
C 249.289604 167.133398 249.835861 164.16559 250.200818 161.172875 
C 250.565774 158.18016 250.748757 155.168051 250.748756 152.153165 
L 176.237396 152.153169 
z
" style="fill: #ffffff"/>
   </g>
   <g id="matplotlib.axis_1"/>
   <g id="matplotlib.axis_2"/>
   <g id="text_1">
    <!-- A [14] -->
    <g transform="translate(314.77143 128.447045) scale(0.1 -0.1)">
     <defs>
      <path id="DejaVuSans-41" d="M 2188 4044 
L 1331 1722 
L 3047 1722 
L 2188 4044 
z
M 1831 4666 
L 2547 4666 
L 4325 0 
L 3669 0 
L 3244 1197 
L 1141 1197 
L 716 0 
L 50 0 
L 1831 4666 
z
" transform="scale(0.015625)"/>
      <path id="DejaVuSans-20" transform="scale(0.015625)"/>
      <path id="DejaVuSans-5b" d="M 550 4863 
L 1875 4863 
L 1875 4416 
L 1125 4416 
L 1125 -397 
L 1875 -397 
L 1875 -844 
L 550 -844 
L 550 4863 
z
" transform="scale(0.015625)"/>
      <path id="DejaVuSans-31" d="M 794 531 
L 1825 531 
L 1825 4091 
L 703 3866 
L 703 4441 
L 1819 4666 
L 2450 4666 
L 2450 531 
L 3481 531 
L 3481 0 
L 794 0 
L 794 531 
z
" transform="scale(0.015625)"/>
      <path id="DejaVuSans-34" d="M 2419 4116 
L 825 1625 
L 2419 1625 
L 2419 4116 
z
M 2253 4666 
L 3047 4666 
L 3047 1625 
L 3713 1625 
L 3713 1100 
L 3047 1100 
L 3047 0 
L 2419 0 
L 2419 1100 
L 313 1100 
L 313 1709 
L 2253 4666 
z
" transform="scale(0.015625)"/>
      <path id="DejaVuSans-5d" d="M 1947 4863 
L 1947 -844 
L 622 -844 
L 622 -397 
L 1369 -397 
L 1369 4416 
L 622 4416 
L 622 4863 
L 1947 4863 
z
" transform="scale(0.015625)"/>
     </defs>
     <use xlink:href="#DejaVuSans-41"/>
     <use xlink:href="#DejaVuSans-20" x="68.408203"/>
     <use xlink:href="#DejaVuSans-5b" x="100.195312"/>
     <use xlink:href="#DejaVuSans-31" x="139.208984"/>
     <use xlink:href="#DejaVuSans-34" x="202.832031"/>
     <use xlink:href="#DejaVuSans-5d" x="266.455078"/>
    </g>
   </g>
   <g id="text_2">
    <!-- C [5] -->
    <g transform="translate(303.544269 94.207838) scale(0.1 -0.1)">
     <defs>
      <path id="DejaVuSans-43" d="M 4122 4306 
L 4122 3641 
Q 3803 3938 3442 4084 
Q 3081 4231 2675 4231 
Q 1875 4231 1450 3742 
Q 1025 3253 1025 2328 
Q 1025 1406 1450 917 
Q 1875 428 2675 428 
Q 3081 428 3442 575 
Q 3803 722 4122 1019 
L 4122 359 
Q 3791 134 3420 21 
Q 3050 -91 2638 -91 
Q 1578 -91 968 557 
Q 359 1206 359 2328 
Q 359 3453 968 4101 
Q 1578 4750 2638 4750 
Q 3056 4750 3426 4639 
Q 3797 4528 4122 4306 
z
" transform="scale(0.015625)"/>
      <path id="DejaVuSans-35" d="M 691 4666 
L 3169 4666 
L 3169 4134 
L 1269 4134 
L 1269 2991 
Q 1406 3038 1543 3061 
Q 1681 3084 1819 3084 
Q 2600 3084 3056 2656 
Q 3513 2228 3513 1497 
Q 3513 744 3044 326 
Q 2575 -91 1722 -91 
Q 1428 -91 1123 -41 
Q 819 9 494 109 
L 494 744 
Q 775 591 1075 516 
Q 1375 441 1709 441 
Q 2250 441 2565 725 
Q 2881 1009 2881 1497 
Q 2881 1984 2565 2268 
Q 2250 2553 1709 2553 
Q 1456 2553 1204 2497 
Q 953 2441 691 2322 
L 691 4666 
z
" transform="scale(0.015625)"/>
     </defs>
     <use xlink:href="#DejaVuSans-43"/>
     <use xlink:href="#DejaVuSans-20" x="69.824219"/>
     <use xlink:href="#DejaVuSans-5b" x="101.611328"/>
     <use xlink:href="#DejaVuSans-35" x="140.625"/>
     <use xlink:href="#DejaVuSans-5d" x="204.248047"/>
    </g>
   </g>
   <g id="text_3">
    <!-- D [6] -->
    <g transform="translate(293.176139 76.061853) scale(0.1 -0.1)">
     <defs>
      <path id="DejaVuSans-44" d="M 1259 4147 
L 1259 519 
L 2022 519 
Q 2988 519 3436 956 
Q 3884 1394 3884 2338 
Q 3884 3275 3436 3711 
Q 2988 4147 2022 4147 
L 1259 4147 
z
M 628 4666 
L 1925 4666 
Q 3281 4666 3915 4102 
Q 4550 3538 4550 2338 
Q 4550 1131 3912 565 
Q 3275 0 1925 0 
L 628 0 
L 628 4666 
z
" transform="scale(0.015625)"/>
      <path id="DejaVuSans-36" d="M 2113 2584 
Q 1688 2584 1439 2293 
Q 1191 2003 1191 1497 
Q 1191 994 1439 701 
Q 1688 409 2113 409 
Q 2538 409 2786 701 
Q 3034 994 3034 1497 
Q 3034 2003 2786 2293 
Q 2538 2584 2113 2584 
z
M 3366 4563 
L 3366 3988 
Q 3128 4100 2886 4159 
Q 2644 4219 2406 4219 
Q 1781 4219 1451 3797 
Q 1122 3375 1075 2522 
Q 1259 2794 1537 2939 
Q 1816 3084 2150 3084 
Q 2853 3084 3261 2657 
Q 3669 2231 3669 1497 
Q 3669 778 3244 343 
Q 2819 -91 2113 -91 
Q 1303 -91 875 529 
Q 447 1150 447 2328 
Q 447 3434 972 4092 
Q 1497 4750 2381 4750 
Q 2619 4750 2861 4703 
Q 3103 4656 3366 4563 
z
" transform="scale(0.015625)"/>
     </defs>
     <use xlink:href="#DejaVuSans-44"/>
     <use xlink:href="#DejaVuSans-20" x="77.001953"/>
     <use xlink:href="#DejaVuSans-5b" x="108.789062"/>
     <use xlink:href="#DejaVuSans-36" x="147.802734"/>
     <use xlink:href="#DejaVuSans-5d" x="211.425781"/>
    </g>
   </g>
   <g id="text_4">
    <!-- E [4] -->
    <g transform="translate(281.515354 61.058121) scale(0.1 -0.1)">
     <defs>
      <path id="DejaVuSans-45" d="M 628 4666 
L 3578 4666 
L 3578 4134 
L 1259 4134 
L 1259 2753 
L 3481 2753 
L 3481 2222 
L 1259 2222 
L 1259 531 
L 3634 531 
L 3634 0 
L 628 0 
L 628 4666 
z
" transform="scale(0.015625)"/>
     </defs>
     <use xlink:href="#DejaVuSans-45"/>
     <use xlink:href="#DejaVuSans-20" x="63.183594"/>
     <use xlink:href="#DejaVuSans-5b" x="94.970703"/>
     <use xlink:href="#DejaVuSans-34" x="133.984375"/>
     <use xlink:href="#DejaVuSans-5d" x="197.607422"/>
    </g>
   </g>
   <g id="text_5">
    <!-- F [20] -->
    <g transform="translate(246.207402 32.453166) scale(0.1 -0.1)">
     <defs>
      <path id="DejaVuSans-46" d="M 628 4666 
L 3309 4666 
L 3309 4134 
L 1259 4134 
L 1259 2759 
L 3109 2759 
L 3109 2228 
L 1259 2228 
L 1259 0 
L 628 0 
L 628 4666 
z
" transform="scale(0.015625)"/>
      <path id="DejaVuSans-32" d="M 1228 531 
L 3431 531 
L 3431 0 
L 469 0 
L 469 531 
Q 828 903 1448 1529 
Q 2069 2156 2228 2338 
Q 2531 2678 2651 2914 
Q 2772 3150 2772 3378 
Q 2772 3750 2511 3984 
Q 2250 4219 1831 4219 
Q 1534 4219 1204 4116 
Q 875 4013 500 3803 
L 500 4441 
Q 881 4594 1212 4672 
Q 1544 4750 1819 4750 
Q 2544 4750 2975 4387 
Q 3406 4025 3406 3419 
Q 3406 3131 3298 2873 
Q 3191 2616 2906 2266 
Q 2828 2175 2409 1742 
Q 1991 1309 1228 531 
z
" transform="scale(0.015625)"/>
      <path id="DejaVuSans-30" d="M 2034 4250 
Q 1547 4250 1301 3770 
Q 1056 3291 1056 2328 
Q 1056 1369 1301 889 
Q 1547 409 2034 409 
Q 2525 409 2770 889 
Q 3016 1369 3016 2328 
Q 3016 3291 2770 3770 
Q 2525 4250 2034 4250 
z
M 2034 4750 
Q 2819 4750 3233 4129 
Q 3647 3509 3647 2328 
Q 3647 1150 3233 529 
Q 2819 -91 2034 -91 
Q 1250 -91 836 529 
Q 422 1150 422 2328 
Q 422 3509 836 4129 
Q 1250 4750 2034 4750 
z
" transform="scale(0.015625)"/>
     </defs>
     <use xlink:href="#DejaVuSans-46"/>
     <use xlink:href="#DejaVuSans-20" x="57.519531"/>
     <use xlink:href="#DejaVuSans-5b" x="89.306641"/>
     <use xlink:href="#DejaVuSans-32" x="128.320312"/>
     <use xlink:href="#DejaVuSans-30" x="191.943359"/>
     <use xlink:href="#DejaVuSans-5d" x="255.566406"/>
    </g>
   </g>
   <g id="text_6">
    <!-- G [10] -->
    <g transform="translate(192.366197 14.798437) scale(0.1 -0.1)">
     <defs>
      <path id="DejaVuSans-47" d="M 3809 666 
L 3809 1919 
L 2778 1919 
L 2778 2438 
L 4434 2438 
L 4434 434 
Q 4069 175 3628 42 
Q 3188 -91 2688 -91 
Q 1594 -91 976 548 
Q 359 1188 359 2328 
Q 359 3472 976 4111 
Q 1594 4750 2688 4750 
Q 3144 4750 3555 4637 
Q 3966 4525 4313 4306 
L 4313 3634 
Q 3963 3931 3569 4081 
Q 3175 4231 2741 4231 
Q 1884 4231 1454 3753 
Q 1025 3275 1025 2328 
Q 1025 1384 1454 906 
Q 1884 428 2741 428 
Q 3075 428 3337 486 
Q 3600 544 3809 666 
z
" transform="scale(0.015625)"/>
     </defs>
     <use xlink:href="#DejaVuSans-47"/>
     <use xlink:href="#DejaVuSans-20" x="77.490234"/>
     <use xlink:href="#DejaVuSans-5b" x="109.277344"/>
     <use xlink:href="#DejaVuSans-31" x="148.291016"/>
     <use xlink:href="#DejaVuSans-30" x="211.914062"/>
     <use xlink:href="#DejaVuSans-5d" x="275.537109"/>
    </g>
   </g>
   <g id="text_7">
    <!-- H [9] -->
    <g transform="translate(131.472474 15.284263) scale(0.1 -0.1)">
     <defs>
      <path id="DejaVuSans-48" d="M 628 4666 
L 1259 4666 
L 1259 2753 
L 3553 2753 
L 3553 4666 
L 4184 4666 
L 4184 0 
L 3553 0 
L 3553 2222 
L 1259 2222 
L 1259 0 
L 628 0 
L 628 4666 
z
" transform="scale(0.015625)"/>
      <path id="DejaVuSans-39" d="M 703 97 
L 703 672 
Q 941 559 1184 500 
Q 1428 441 1663 441 
Q 2288 441 2617 861 
Q 2947 1281 2994 2138 
Q 2813 1869 2534 1725 
Q 2256 1581 1919 1581 
Q 1219 1581 811 2004 
Q 403 2428 403 3163 
Q 403 3881 828 4315 
Q 1253 4750 1959 4750 
Q 2769 4750 3195 4129 
Q 3622 3509 3622 2328 
Q 3622 1225 3098 567 
Q 2575 -91 1691 -91 
Q 1453 -91 1209 -44 
Q 966 3 703 97 
z
M 1959 2075 
Q 2384 2075 2632 2365 
Q 2881 2656 2881 3163 
Q 2881 3666 2632 3958 
Q 2384 4250 1959 4250 
Q 1534 4250 1286 3958 
Q 1038 3666 1038 3163 
Q 1038 2656 1286 2365 
Q 1534 2075 1959 2075 
z
" transform="scale(0.015625)"/>
     </defs>
     <use xlink:href="#DejaVuSans-48"/>
     <use xlink:href="#DejaVuSans-20" x="75.195312"/>
     <use xlink:href="#DejaVuSans-5b" x="106.982422"/>
     <use xlink:href="#DejaVuSans-39" x="145.996094"/>
     <use xlink:href="#DejaVuSans-5d" x="209.619141"/>
    </g>
   </g>
   <g id="text_8">
    <!-- I [21] -->
    <g transform="translate(76.334682 34.384304) scale(0.1 -0.1)">
     <defs>
      <path id="DejaVuSans-49" d="M 628 4666 
L 1259 4666 
L 1259 0 
L 628 0 
L 628 4666 
z
" transform="scale(0.015625)"/>
     </defs>
     <use xlink:href="#DejaVuSans-49"/>
     <use xlink:href="#DejaVuSans-20" x="29.492188"/>
     <use xlink:href="#DejaVuSans-5b" x="61.279297"/>
     <use xlink:href="#DejaVuSans-32" x="100.292969"/>
     <use xlink:href="#DejaVuSans-31" x="163.916016"/>
     <use xlink:href="#DejaVuSans-5d" x="227.539062"/>
    </g>
   </g>
   <g id="text_9">
    <!-- K [8] -->
    <g transform="translate(38.681359 71.397507) scale(0.1 -0.1)">
     <defs>
      <path id="DejaVuSans-4b" d="M 628 4666 
L 1259 4666 
L 1259 2694 
L 3353 4666 
L 4166 4666 
L 1850 2491 
L 4331 0 
L 3500 0 
L 1259 2247 
L 1259 0 
L 628 0 
L 628 4666 
z
" transform="scale(0.015625)"/>
      <path id="DejaVuSans-38" d="M 2034 2216 
Q 1584 2216 1326 1975 
Q 1069 1734 1069 1313 
Q 1069 891 1326 650 
Q 1584 409 2034 409 
Q 2484 409 2743 651 
Q 3003 894 3003 1313 
Q 3003 1734 2745 1975 
Q 2488 2216 2034 2216 
z
M 1403 2484 
Q 997 2584 770 2862 
Q 544 3141 544 3541 
Q 544 4100 942 4425 
Q 1341 4750 2034 4750 
Q 2731 4750 3128 4425 
Q 3525 4100 3525 3541 
Q 3525 3141 3298 2862 
Q 3072 2584 2669 2484 
Q 3125 2378 3379 2068 
Q 3634 1759 3634 1313 
Q 3634 634 3220 271 
Q 2806 -91 2034 -91 
Q 1263 -91 848 271 
Q 434 634 434 1313 
Q 434 1759 690 2068 
Q 947 2378 1403 2484 
z
M 1172 3481 
Q 1172 3119 1398 2916 
Q 1625 2713 2034 2713 
Q 2441 2713 2670 2916 
Q 2900 3119 2900 3481 
Q 2900 3844 2670 4047 
Q 2441 4250 2034 4250 
Q 1625 4250 1398 4047 
Q 1172 3844 1172 3481 
z
" transform="scale(0.015625)"/>
     </defs>
     <use xlink:href="#DejaVuSans-4b"/>
     <use xlink:href="#DejaVuSans-20" x="65.576172"/>
     <use xlink:href="#DejaVuSans-5b" x="97.363281"/>
     <use xlink:href="#DejaVuSans-38" x="136.376953"/>
     <use xlink:href="#DejaVuSans-5d" x="200"/>
    </g>
   </g>
   <g id="text_10">
    <!-- L [29] -->
    <g transform="translate(7.2 135.953453) scale(0.1 -0.1)">
     <defs>
      <path id="DejaVuSans-4c" d="M 628 4666 
L 1259 4666 
L 1259 531 
L 3531 531 
L 3531 0 
L 628 0 
L 628 4666 
z
" transform="scale(0.015625)"/>
     </defs>
     <use xlink:href="#DejaVuSans-4c"/>
     <use xlink:href="#DejaVuSans-20" x="55.712891"/>
     <use xlink:href="#DejaVuSans-5b" x="87.5"/>
     <use xlink:href="#DejaVuSans-32" x="126.513672"/>
     <use xlink:href="#DejaVuSans-39" x="190.136719"/>
     <use xlink:href="#DejaVuSans-5d" x="253.759766"/>
    </g>
   </g>
   <g id="text_11">
    <!-- M [6] -->
    <g transform="translate(17.163269 201.558995) scale(0.1 -0.1)">
     <defs>
      <path id="DejaVuSans-4d" d="M 628 4666 
L 1569 4666 
L 2759 1491 
L 3956 4666 
L 4897 4666 
L 4897 0 
L 4281 0 
L 4281 4097 
L 3078 897 
L 2444 897 
L 1241 4097 
L 1241 0 
L 628 0 
L 628 4666 
z
" transform="scale(0.015625)"/>
     </defs>
     <use xlink:href="#DejaVuSans-4d"/>
     <use xlink:href="#DejaVuSans-20" x="86.279297"/>
     <use xlink:href="#DejaVuSans-5b" x="118.066406"/>
     <use xlink:href="#DejaVuSans-36" x="157.080078"/>
     <use xlink:href="#DejaVuSans-5d" x="220.703125"/>
    </g>
   </g>
   <g id="text_12">
    <!-- N [12] -->
    <g transform="translate(27.058655 232.179407) scale(0.1 -0.1)">
     <defs>
      <path id="DejaVuSans-4e" d="M 628 4666 
L 1478 4666 
L 3547 763 
L 3547 4666 
L 4159 4666 
L 4159 0 
L 3309 0 
L 1241 3903 
L 1241 0 
L 628 0 
L 628 4666 
z
" transform="scale(0.015625)"/>
     </defs>
     <use xlink:href="#DejaVuSans-4e"/>
     <use xlink:href="#DejaVuSans-20" x="74.804688"/>
     <use xlink:href="#DejaVuSans-5b" x="106.591797"/>
     <use xlink:href="#DejaVuSans-31" x="145.605469"/>
     <use xlink:href="#DejaVuSans-32" x="209.228516"/>
     <use xlink:href="#DejaVuSans-5d" x="272.851562"/>
    </g>
   </g>
   <g id="text_13">
    <!-- P [6] -->
    <g transform="translate(56.899648 258.270912) scale(0.1 -0.1)">
     <defs>
      <path id="DejaVuSans-50" d="M 1259 4147 
L 1259 2394 
L 2053 2394 
Q 2494 2394 2734 2622 
Q 2975 2850 2975 3272 
Q 2975 3691 2734 3919 
Q 2494 4147 2053 4147 
L 1259 4147 
z
M 628 4666 
L 2053 4666 
Q 2838 4666 3239 4311 
Q 3641 3956 3641 3272 
Q 3641 2581 3239 2228 
Q 2838 1875 2053 1875 
L 1259 1875 
L 1259 0 
L 628 0 
L 628 4666 
z
" transform="scale(0.015625)"/>
     </defs>
     <use xlink:href="#DejaVuSans-50"/>
     <use xlink:href="#DejaVuSans-20" x="60.302734"/>
     <use xlink:href="#DejaVuSans-5b" x="92.089844"/>
     <use xlink:href="#DejaVuSans-36" x="131.103516"/>
     <use xlink:href="#DejaVuSans-5d" x="194.726562"/>
    </g>
   </g>
   <g id="text_14">
    <!-- Q [6] -->
    <g transform="translate(72.961225 272.380209) scale(0.1 -0.1)">
     <defs>
      <path id="DejaVuSans-51" d="M 2522 4238 
Q 1834 4238 1429 3725 
Q 1025 3213 1025 2328 
Q 1025 1447 1429 934 
Q 1834 422 2522 422 
Q 3209 422 3611 934 
Q 4013 1447 4013 2328 
Q 4013 3213 3611 3725 
Q 3209 4238 2522 4238 
z
M 3406 84 
L 4238 -825 
L 3475 -825 
L 2784 -78 
Q 2681 -84 2626 -87 
Q 2572 -91 2522 -91 
Q 1538 -91 948 567 
Q 359 1225 359 2328 
Q 359 3434 948 4092 
Q 1538 4750 2522 4750 
Q 3503 4750 4090 4092 
Q 4678 3434 4678 2328 
Q 4678 1516 4351 937 
Q 4025 359 3406 84 
z
" transform="scale(0.015625)"/>
     </defs>
     <use xlink:href="#DejaVuSans-51"/>
     <use xlink:href="#DejaVuSans-20" x="78.710938"/>
     <use xlink:href="#DejaVuSans-5b" x="110.498047"/>
     <use xlink:href="#DejaVuSans-36" x="149.511719"/>
     <use xlink:href="#DejaVuSans-5d" x="213.134766"/>
    </g>
   </g>
   <g id="text_15">
    <!-- R [9] -->
    <g transform="translate(99.071759 285.666127) scale(0.1 -0.1)">
     <defs>
      <path id="DejaVuSans-52" d="M 2841 2188 
Q 3044 2119 3236 1894 
Q 3428 1669 3622 1275 
L 4263 0 
L 3584 0 
L 2988 1197 
Q 2756 1666 2539 1819 
Q 2322 1972 1947 1972 
L 1259 1972 
L 1259 0 
L 628 0 
L 628 4666 
L 2053 4666 
Q 2853 4666 3247 4331 
Q 3641 3997 3641 3322 
Q 3641 2881 3436 2590 
Q 3231 2300 2841 2188 
z
M 1259 4147 
L 1259 2491 
L 2053 2491 
Q 2509 2491 2742 2702 
Q 2975 2913 2975 3322 
Q 2975 3731 2742 3939 
Q 2509 4147 2053 4147 
L 1259 4147 
z
" transform="scale(0.015625)"/>
     </defs>
     <use xlink:href="#DejaVuSans-52"/>
     <use xlink:href="#DejaVuSans-20" x="69.482422"/>
     <use xlink:href="#DejaVuSans-5b" x="101.269531"/>
     <use xlink:href="#DejaVuSans-39" x="140.283203"/>
     <use xlink:href="#DejaVuSans-5d" x="203.90625"/>
    </g>
   </g>
   <g id="text_16">
    <!-- S [19] -->
    <g transform="translate(145.231888 295.948699) scale(0.1 -0.1)">
     <defs>
      <path id="DejaVuSans-53" d="M 3425 4513 
L 3425 3897 
Q 3066 4069 2747 4153 
Q 2428 4238 2131 4238 
Q 1616 4238 1336 4038 
Q 1056 3838 1056 3469 
Q 1056 3159 1242 3001 
Q 1428 2844 1947 2747 
L 2328 2669 
Q 3034 2534 3370 2195 
Q 3706 1856 3706 1288 
Q 3706 609 3251 259 
Q 2797 -91 1919 -91 
Q 1588 -91 1214 -16 
Q 841 59 441 206 
L 441 856 
Q 825 641 1194 531 
Q 1563 422 1919 422 
Q 2459 422 2753 634 
Q 3047 847 3047 1241 
Q 3047 1584 2836 1778 
Q 2625 1972 2144 2069 
L 1759 2144 
Q 1053 2284 737 2584 
Q 422 2884 422 3419 
Q 422 4038 858 4394 
Q 1294 4750 2059 4750 
Q 2388 4750 2728 4690 
Q 3069 4631 3425 4513 
z
" transform="scale(0.015625)"/>
     </defs>
     <use xlink:href="#DejaVuSans-53"/>
     <use xlink:href="#DejaVuSans-20" x="63.476562"/>
     <use xlink:href="#DejaVuSans-5b" x="95.263672"/>
     <use xlink:href="#DejaVuSans-31" x="134.277344"/>
     <use xlink:href="#DejaVuSans-39" x="197.900391"/>
     <use xlink:href="#DejaVuSans-5d" x="261.523438"/>
    </g>
   </g>
   <g id="text_17">
    <!-- T [18] -->
    <g transform="translate(242.880072 279.214012) scale(0.1 -0.1)">
     <defs>
      <path id="DejaVuSans-54" d="M -19 4666 
L 3928 4666 
L 3928 4134 
L 2272 4134 
L 2272 0 
L 1638 0 
L 1638 4134 
L -19 4134 
L -19 4666 
z
" transform="scale(0.015625)"/>
     </defs>
     <use xlink:href="#DejaVuSans-54"/>
     <use xlink:href="#DejaVuSans-20" x="61.083984"/>
     <use xlink:href="#DejaVuSans-5b" x="92.871094"/>
     <use xlink:href="#DejaVuSans-31" x="131.884766"/>
     <use xlink:href="#DejaVuSans-38" x="195.507812"/>
     <use xlink:href="#DejaVuSans-5d" x="259.130859"/>
    </g>
   </g>
   <g id="text_18">
    <!-- V [14] -->
    <g transform="translate(288.755524 239.95237) scale(0.1 -0.1)">
     <defs>
      <path id="DejaVuSans-56" d="M 1831 0 
L 50 4666 
L 709 4666 
L 2188 738 
L 3669 4666 
L 4325 4666 
L 2547 0 
L 1831 0 
z
" transform="scale(0.015625)"/>
     </defs>
     <use xlink:href="#DejaVuSans-56"/>
     <use xlink:href="#DejaVuSans-20" x="68.408203"/>
     <use xlink:href="#DejaVuSans-5b" x="100.195312"/>
     <use xlink:href="#DejaVuSans-31" x="139.208984"/>
     <use xlink:href="#DejaVuSans-34" x="202.832031"/>
     <use xlink:href="#DejaVuSans-5d" x="266.455078"/>
    </g>
   </g>
   <g id="text_19">
    <!-- W [8] -->
    <g transform="translate(308.698628 203.349339) scale(0.1 -0.1)">
     <defs>
      <path id="DejaVuSans-57" d="M 213 4666 
L 850 4666 
L 1831 722 
L 2809 4666 
L 3519 4666 
L 4500 722 
L 5478 4666 
L 6119 4666 
L 4947 0 
L 4153 0 
L 3169 4050 
L 2175 0 
L 1381 0 
L 213 4666 
z
" transform="scale(0.015625)"/>
     </defs>
     <use xlink:href="#DejaVuSans-57"/>
     <use xlink:href="#DejaVuSans-20" x="98.876953"/>
     <use xlink:href="#DejaVuSans-5b" x="130.664062"/>
     <use xlink:href="#DejaVuSans-38" x="169.677734"/>
     <use xlink:href="#DejaVuSans-5d" x="233.300781"/>
    </g>
   </g>
   <g id="text_20">
    <!-- Y [9] -->
    <g transform="translate(316.239587 171.985558) scale(0.1 -0.1)">
     <defs>
      <path id="DejaVuSans-59" d="M -13 4666 
L 666 4666 
L 1959 2747 
L 3244 4666 
L 3922 4666 
L 2272 2222 
L 2272 0 
L 1638 0 
L 1638 2222 
L -13 4666 
z
" transform="scale(0.015625)"/>
     </defs>
     <use xlink:href="#DejaVuSans-59"/>
     <use xlink:href="#DejaVuSans-20" x="61.083984"/>
     <use xlink:href="#DejaVuSans-5b" x="92.871094"/>
     <use xlink:href="#DejaVuSans-39" x="131.884766"/>
     <use xlink:href="#DejaVuSans-5d" x="195.507812"/>
    </g>
   </g>
   <g id="text_21">
    <!-- A0A8C8WBG0 [233] -->
    <g transform="translate(115.934584 152.153169) scale(0.12 -0.12)">
     <defs>
      <path id="DejaVuSans-42" d="M 1259 2228 
L 1259 519 
L 2272 519 
Q 2781 519 3026 730 
Q 3272 941 3272 1375 
Q 3272 1813 3026 2020 
Q 2781 2228 2272 2228 
L 1259 2228 
z
M 1259 4147 
L 1259 2741 
L 2194 2741 
Q 2656 2741 2882 2914 
Q 3109 3088 3109 3444 
Q 3109 3797 2882 3972 
Q 2656 4147 2194 4147 
L 1259 4147 
z
M 628 4666 
L 2241 4666 
Q 2963 4666 3353 4366 
Q 3744 4066 3744 3513 
Q 3744 3084 3544 2831 
Q 3344 2578 2956 2516 
Q 3422 2416 3680 2098 
Q 3938 1781 3938 1306 
Q 3938 681 3513 340 
Q 3088 0 2303 0 
L 628 0 
L 628 4666 
z
" transform="scale(0.015625)"/>
      <path id="DejaVuSans-33" d="M 2597 2516 
Q 3050 2419 3304 2112 
Q 3559 1806 3559 1356 
Q 3559 666 3084 287 
Q 2609 -91 1734 -91 
Q 1441 -91 1130 -33 
Q 819 25 488 141 
L 488 750 
Q 750 597 1062 519 
Q 1375 441 1716 441 
Q 2309 441 2620 675 
Q 2931 909 2931 1356 
Q 2931 1769 2642 2001 
Q 2353 2234 1838 2234 
L 1294 2234 
L 1294 2753 
L 1863 2753 
Q 2328 2753 2575 2939 
Q 2822 3125 2822 3475 
Q 2822 3834 2567 4026 
Q 2313 4219 1838 4219 
Q 1578 4219 1281 4162 
Q 984 4106 628 3988 
L 628 4550 
Q 988 4650 1302 4700 
Q 1616 4750 1894 4750 
Q 2613 4750 3031 4423 
Q 3450 4097 3450 3541 
Q 3450 3153 3228 2886 
Q 3006 2619 2597 2516 
z
" transform="scale(0.015625)"/>
     </defs>
     <use xlink:href="#DejaVuSans-41"/>
     <use xlink:href="#DejaVuSans-30" x="68.408203"/>
     <use xlink:href="#DejaVuSans-41" x="132.03125"/>
     <use xlink:href="#DejaVuSans-38" x="200.439453"/>
     <use xlink:href="#DejaVuSans-43" x="264.0625"/>
     <use xlink:href="#DejaVuSans-38" x="333.886719"/>
     <use xlink:href="#DejaVuSans-57" x="397.509766"/>
     <use xlink:href="#DejaVuSans-42" x="496.386719"/>
     <use xlink:href="#DejaVuSans-47" x="563.240234"/>
     <use xlink:href="#DejaVuSans-30" x="640.730469"/>
     <use xlink:href="#DejaVuSans-20" x="704.353516"/>
     <use xlink:href="#DejaVuSans-5b" x="736.140625"/>
     <use xlink:href="#DejaVuSans-32" x="775.154297"/>
     <use xlink:href="#DejaVuSans-33" x="838.777344"/>
     <use xlink:href="#DejaVuSans-33" x="902.400391"/>
     <use xlink:href="#DejaVuSans-5d" x="966.023438"/>
    </g>
   </g>
  </g>
 </g>
</svg>
