<?xml version="1.0" encoding="utf-8" standalone="no"?>
<!DOCTYPE svg PUBLIC "-//W3C//DTD SVG 1.1//EN"
  "http://www.w3.org/Graphics/SVG/1.1/DTD/svg11.dtd">
<svg xmlns:xlink="http://www.w3.org/1999/xlink" width="354.509947pt" height="304.433529pt" viewBox="0 0 354.509947 304.433529" xmlns="http://www.w3.org/2000/svg" version="1.1">
 <metadata>
  <rdf:RDF xmlns:dc="http://purl.org/dc/elements/1.1/" xmlns:cc="http://creativecommons.org/ns#" xmlns:rdf="http://www.w3.org/1999/02/22-rdf-syntax-ns#">
   <cc:Work>
    <dc:type rdf:resource="http://purl.org/dc/dcmitype/StillImage"/>
    <dc:date>2024-09-27T16:07:26.803251</dc:date>
    <dc:format>image/svg+xml</dc:format>
    <dc:creator>
     <cc:Agent>
      <dc:title>Matplotlib v3.8.3, https://matplotlib.org/</dc:title>
     </cc:Agent>
    </dc:creator>
   </cc:Work>
  </rdf:RDF>
 </metadata>
 <defs>
  <style type="text/css">*{stroke-linejoin: round; stroke-linecap: butt}</style>
 </defs>
 <g id="figure_1">
  <g id="patch_1">
   <path d="M 0 304.433529 
L 354.509947 304.433529 
L 354.509947 0 
L 0 0 
z
" style="fill: #ffffff"/>
  </g>
  <g id="axes_1">
   <g id="patch_2">
    <path d="M 305.75341 152.790802 
C 305.75341 145.025735 305.045341 137.276817 303.638001 129.640347 
C 302.23066 122.003878 300.129904 114.511621 297.361838 107.256686 
L 178.01965 152.790802 
z
" style="fill: #1f77b4"/>
   </g>
   <g id="patch_3">
    <path d="M 297.306852 107.100477 
C 295.330331 101.920134 293.018607 96.873976 290.386353 91.994034 
C 287.754099 87.114093 284.806897 82.410714 281.563454 77.913751 
L 177.964664 152.634593 
z
" style="fill: #ff7f0e"/>
   </g>
   <g id="patch_4">
    <path d="M 281.501083 77.822352 
C 279.555457 75.124784 277.505211 72.504237 275.355034 69.966703 
C 273.204858 67.42917 270.95639 64.976585 268.614774 62.614559 
L 177.902294 152.543194 
z
" style="fill: #aec7e8"/>
   </g>
   <g id="patch_5">
    <path d="M 268.534852 62.538031 
C 264.631277 58.600432 260.475458 54.921173 256.093775 51.523609 
C 251.712091 48.126044 247.113833 45.017379 242.328189 42.217344 
L 177.822372 152.466666 
z
" style="fill: #ffbb78"/>
   </g>
   <g id="patch_6">
    <path d="M 242.178774 42.135911 
C 235.15698 38.027527 227.758722 34.599351 220.084882 31.89813 
C 212.411043 29.196908 204.496661 27.234976 196.449658 26.039085 
L 177.672957 152.385233 
z
" style="fill: #98df8a"/>
   </g>
   <g id="patch_7">
    <path d="M 196.300643 26.009612 
C 192.279429 25.412007 188.231977 25.006717 184.172109 24.795126 
C 180.112242 24.583535 176.044587 24.565884 171.983036 24.742235 
L 177.523941 152.35576 
z
" style="fill: #2ca02c"/>
   </g>
   <g id="patch_8">
    <path d="M 171.886248 24.746016 
C 168.194051 24.906329 164.51055 25.226804 160.846143 25.706537 
C 157.181737 26.186269 153.539876 26.824808 149.930841 27.620349 
L 177.427153 152.359542 
z
" style="fill: #d62728"/>
   </g>
   <g id="patch_9">
    <path d="M 149.743204 27.681856 
C 137.814945 30.311207 126.325271 34.637986 115.625609 40.529852 
C 104.925948 46.421718 95.126513 53.817981 86.527035 62.492415 
L 177.239516 152.421049 
z
" style="fill: #9467bd"/>
   </g>
   <g id="patch_10">
    <path d="M 86.33154 62.677987 
C 79.560564 69.507981 73.58257 77.080886 68.511301 85.252615 
C 63.440031 93.424344 59.307854 102.142739 56.193391 111.241918 
L 177.044021 152.606621 
z
" style="fill: #ff9896"/>
   </g>
   <g id="patch_11">
    <path d="M 56.113467 111.513322 
C 51.796956 124.124388 49.480921 137.333747 49.249577 150.661077 
C 49.018233 163.988407 50.874418 177.27019 54.750639 190.02347 
L 176.964097 152.878025 
z
" style="fill: #c5b0d5"/>
   </g>
   <g id="patch_12">
    <path d="M 54.799883 190.256471 
C 56.519849 195.91539 58.630783 201.44802 61.117441 206.814413 
C 63.604099 212.180806 66.460482 217.368013 69.665964 222.338579 
L 177.013341 153.111026 
z
" style="fill: #c49c94"/>
   </g>
   <g id="patch_13">
    <path d="M 69.751905 222.469337 
C 73.358456 228.061819 77.396527 233.363924 81.829227 238.327213 
C 86.261927 243.290502 91.075716 247.899815 96.226617 252.113042 
L 177.099282 153.241785 
z
" style="fill: #8c564b"/>
   </g>
   <g id="patch_14">
    <path d="M 96.335128 252.205801 
C 100.054319 255.247948 103.942203 258.077819 107.980236 260.681918 
C 112.01827 263.286017 116.200025 265.660198 120.505558 267.793138 
L 177.207793 153.334543 
z
" style="fill: #e377c2"/>
   </g>
   <g id="patch_15">
    <path d="M 120.608603 267.844744 
C 124.582785 269.813535 128.656811 271.574006 132.814124 273.119002 
C 136.971437 274.663998 141.206398 275.991423 145.501794 277.095883 
L 177.310838 153.386149 
z
" style="fill: #7f7f7f"/>
   </g>
   <g id="patch_16">
    <path d="M 145.608961 277.123438 
C 149.904357 278.227898 154.254363 279.107895 158.6413 279.759852 
C 163.028237 280.411808 167.446154 280.834841 171.877096 281.02723 
L 177.418004 153.413705 
z
" style="fill: #f7b6d2"/>
   </g>
   <g id="patch_17">
    <path d="M 172.042694 281.025793 
C 180.910577 281.410831 189.794491 280.870477 198.550335 279.413496 
C 207.30618 277.956514 215.886356 275.590826 224.15169 272.354802 
L 177.583602 153.412267 
z
" style="fill: #c7c7c7"/>
   </g>
   <g id="patch_18">
    <path d="M 224.364323 272.269417 
C 233.319836 268.763177 241.850777 264.256698 249.79483 258.835725 
C 257.738883 253.414751 265.045343 247.113883 271.575193 240.053006 
L 177.796235 153.326883 
z
" style="fill: #dbdb8d"/>
   </g>
   <g id="patch_19">
    <path d="M 271.736886 239.878163 
C 278.266736 232.817285 283.978298 225.041466 288.762898 216.698653 
C 293.547499 208.35584 297.3746 199.499283 300.171384 190.297493 
L 177.957928 153.15204 
z
" style="fill: #bcbd22"/>
   </g>
   <g id="patch_20">
    <path d="M 300.222776 190.17418 
C 300.545144 189.113544 300.853692 188.048756 301.148341 186.980087 
C 301.44299 185.911418 301.723715 184.838959 301.990443 183.762982 
L 178.00932 153.028726 
z
" style="fill: #17becf"/>
   </g>
   <g id="patch_21">
    <path d="M 302.005665 183.686023 
C 303.250765 178.663324 304.189497 173.569601 304.816671 168.433023 
C 305.443845 163.296445 305.758301 158.126498 305.758301 152.951773 
L 178.024541 152.951768 
z
" style="fill: #9edae5"/>
   </g>
   <g id="patch_22">
    <path d="M 252.007601 152.887262 
C 252.007601 148.35764 251.59456 143.837438 250.773612 139.38283 
C 249.952663 134.928223 248.727222 130.55774 247.112517 126.325695 
L 177.496241 152.887262 
z
" style="fill: #ffffff"/>
   </g>
   <g id="patch_23">
    <path d="M 247.112517 126.325695 
C 245.959546 123.303828 244.61104 120.360236 243.075559 117.513603 
C 241.540078 114.66697 239.820877 111.923332 237.928868 109.300105 
L 177.496241 152.887262 
z
" style="fill: #ffffff"/>
   </g>
   <g id="patch_24">
    <path d="M 237.928868 109.300105 
C 236.793919 107.726523 235.597942 106.197871 234.343673 104.717643 
C 233.089403 103.237415 231.777797 101.806741 230.411854 100.428892 
L 177.496241 152.887262 
z
" style="fill: #ffffff"/>
   </g>
   <g id="patch_25">
    <path d="M 230.411854 100.428892 
C 228.134769 98.131959 225.710541 95.985724 223.154559 94.003812 
C 220.598577 92.0219 217.91626 90.208511 215.124634 88.575158 
L 177.496241 152.887262 
z
" style="fill: #ffffff"/>
   </g>
   <g id="patch_26">
    <path d="M 215.124634 88.575158 
C 211.028587 86.1786 206.712937 84.178831 202.23653 82.603119 
C 197.760124 81.027406 193.143401 79.882946 188.449316 79.185343 
L 177.496241 152.887262 
z
" style="fill: #ffffff"/>
   </g>
   <g id="patch_27">
    <path d="M 188.449316 79.185343 
C 186.103608 78.83674 183.742595 78.600321 181.374339 78.476893 
C 179.006083 78.353465 176.633284 78.343168 174.264046 78.446039 
L 177.496241 152.887262 
z
" style="fill: #ffffff"/>
   </g>
   <g id="patch_28">
    <path d="M 174.264046 78.446039 
C 172.110264 78.539555 169.961556 78.726499 167.823985 79.006343 
C 165.686414 79.286187 163.561995 79.658668 161.456725 80.122733 
L 177.496241 152.887262 
z
" style="fill: #ffffff"/>
   </g>
   <g id="patch_29">
    <path d="M 161.456725 80.122733 
C 154.498574 81.656521 147.796264 84.180476 141.554795 87.617397 
C 135.313326 91.054319 129.596989 95.368806 124.580627 100.428893 
L 177.496241 152.887262 
z
" style="fill: #ffffff"/>
   </g>
   <g id="patch_30">
    <path d="M 124.580627 100.428893 
C 120.630891 104.413056 117.143728 108.830584 114.185487 113.597426 
C 111.227247 118.364268 108.81681 123.449998 107.00004 128.757853 
L 177.496241 152.887262 
z
" style="fill: #ffffff"/>
   </g>
   <g id="patch_31">
    <path d="M 107.00004 128.757853 
C 104.482075 136.114308 103.131055 143.819767 102.996104 151.594043 
C 102.861153 159.368318 103.943928 167.116025 106.205057 174.555439 
L 177.496241 152.887262 
z
" style="fill: #ffffff"/>
   </g>
   <g id="patch_32">
    <path d="M 106.205057 174.555439 
C 107.20837 177.856474 108.439748 181.083842 109.890299 184.214238 
C 111.340849 187.344634 113.007073 190.370505 114.876937 193.270001 
L 177.496241 152.887262 
z
" style="fill: #ffffff"/>
   </g>
   <g id="patch_33">
    <path d="M 114.876937 193.270001 
C 116.980759 196.532282 119.3363 199.625177 121.922042 202.520429 
C 124.507784 205.415681 127.315827 208.104447 130.32052 210.562163 
L 177.496241 152.887262 
z
" style="fill: #ffffff"/>
   </g>
   <g id="patch_34">
    <path d="M 130.32052 210.562163 
C 132.490048 212.336749 134.75798 213.987507 137.1135 215.506564 
C 139.469019 217.025622 141.908376 218.410561 144.419937 219.654776 
L 177.496241 152.887262 
z
" style="fill: #ffffff"/>
   </g>
   <g id="patch_35">
    <path d="M 144.419937 219.654776 
C 146.73821 220.803237 149.114725 221.830179 151.539825 222.731426 
C 153.964924 223.632674 156.435317 224.407005 158.940965 225.051274 
L 177.496241 152.887262 
z
" style="fill: #ffffff"/>
   </g>
   <g id="patch_36">
    <path d="M 158.940965 225.051274 
C 161.446613 225.695542 163.984117 226.208873 166.543163 226.589181 
C 169.10221 226.969489 171.679328 227.216258 174.264044 227.328485 
L 177.496241 152.887262 
z
" style="fill: #ffffff"/>
   </g>
   <g id="patch_37">
    <path d="M 174.264044 227.328485 
C 179.436976 227.553091 184.619259 227.237885 189.726835 226.387979 
C 194.834411 225.538073 199.839514 224.158088 204.660959 222.270408 
L 177.496241 152.887262 
z
" style="fill: #ffffff"/>
   </g>
   <g id="patch_38">
    <path d="M 204.660959 222.270408 
C 209.885008 220.225101 214.86139 217.596322 219.495421 214.434087 
C 224.129452 211.271852 228.391554 207.596346 232.200633 203.477501 
L 177.496241 152.887262 
z
" style="fill: #ffffff"/>
   </g>
   <g id="patch_39">
    <path d="M 232.200633 203.477501 
C 236.009712 199.358656 239.341456 194.822761 242.132473 189.95612 
C 244.92349 185.089479 247.155966 179.923154 248.787423 174.555444 
L 177.496241 152.887262 
z
" style="fill: #ffffff"/>
   </g>
   <g id="patch_40">
    <path d="M 248.787423 174.555444 
C 248.975472 173.936739 249.155458 173.315613 249.327336 172.692223 
C 249.499215 172.068833 249.662971 171.443231 249.818563 170.815578 
L 177.496241 152.887262 
z
" style="fill: #ffffff"/>
   </g>
   <g id="patch_41">
    <path d="M 249.818563 170.815578 
C 250.544871 167.88567 251.092465 164.914332 251.458316 161.917995 
C 251.824168 158.921657 252.007601 155.905855 252.007601 152.887265 
L 177.496241 152.887262 
z
" style="fill: #ffffff"/>
   </g>
   <g id="matplotlib.axis_1"/>
   <g id="matplotlib.axis_2"/>
   <g id="text_1">
    <!-- A [21] -->
    <g transform="translate(316.199836 130.084677) scale(0.1 -0.1)">
     <defs>
      <path id="DejaVuSans-41" d="M 2188 4044 
L 1331 1722 
L 3047 1722 
L 2188 4044 
z
M 1831 4666 
L 2547 4666 
L 4325 0 
L 3669 0 
L 3244 1197 
L 1141 1197 
L 716 0 
L 50 0 
L 1831 4666 
z
" transform="scale(0.015625)"/>
      <path id="DejaVuSans-20" transform="scale(0.015625)"/>
      <path id="DejaVuSans-5b" d="M 550 4863 
L 1875 4863 
L 1875 4416 
L 1125 4416 
L 1125 -397 
L 1875 -397 
L 1875 -844 
L 550 -844 
L 550 4863 
z
" transform="scale(0.015625)"/>
      <path id="DejaVuSans-32" d="M 1228 531 
L 3431 531 
L 3431 0 
L 469 0 
L 469 531 
Q 828 903 1448 1529 
Q 2069 2156 2228 2338 
Q 2531 2678 2651 2914 
Q 2772 3150 2772 3378 
Q 2772 3750 2511 3984 
Q 2250 4219 1831 4219 
Q 1534 4219 1204 4116 
Q 875 4013 500 3803 
L 500 4441 
Q 881 4594 1212 4672 
Q 1544 4750 1819 4750 
Q 2544 4750 2975 4387 
Q 3406 4025 3406 3419 
Q 3406 3131 3298 2873 
Q 3191 2616 2906 2266 
Q 2828 2175 2409 1742 
Q 1991 1309 1228 531 
z
" transform="scale(0.015625)"/>
      <path id="DejaVuSans-31" d="M 794 531 
L 1825 531 
L 1825 4091 
L 703 3866 
L 703 4441 
L 1819 4666 
L 2450 4666 
L 2450 531 
L 3481 531 
L 3481 0 
L 794 0 
L 794 531 
z
" transform="scale(0.015625)"/>
      <path id="DejaVuSans-5d" d="M 1947 4863 
L 1947 -844 
L 622 -844 
L 622 -397 
L 1369 -397 
L 1369 4416 
L 622 4416 
L 622 4863 
L 1947 4863 
z
" transform="scale(0.015625)"/>
     </defs>
     <use xlink:href="#DejaVuSans-41"/>
     <use xlink:href="#DejaVuSans-20" x="68.408203"/>
     <use xlink:href="#DejaVuSans-5b" x="100.195312"/>
     <use xlink:href="#DejaVuSans-32" x="139.208984"/>
     <use xlink:href="#DejaVuSans-31" x="202.832031"/>
     <use xlink:href="#DejaVuSans-5d" x="266.455078"/>
    </g>
   </g>
   <g id="text_2">
    <!-- C [15] -->
    <g transform="translate(301.628522 88.689354) scale(0.1 -0.1)">
     <defs>
      <path id="DejaVuSans-43" d="M 4122 4306 
L 4122 3641 
Q 3803 3938 3442 4084 
Q 3081 4231 2675 4231 
Q 1875 4231 1450 3742 
Q 1025 3253 1025 2328 
Q 1025 1406 1450 917 
Q 1875 428 2675 428 
Q 3081 428 3442 575 
Q 3803 722 4122 1019 
L 4122 359 
Q 3791 134 3420 21 
Q 3050 -91 2638 -91 
Q 1578 -91 968 557 
Q 359 1206 359 2328 
Q 359 3453 968 4101 
Q 1578 4750 2638 4750 
Q 3056 4750 3426 4639 
Q 3797 4528 4122 4306 
z
" transform="scale(0.015625)"/>
      <path id="DejaVuSans-35" d="M 691 4666 
L 3169 4666 
L 3169 4134 
L 1269 4134 
L 1269 2991 
Q 1406 3038 1543 3061 
Q 1681 3084 1819 3084 
Q 2600 3084 3056 2656 
Q 3513 2228 3513 1497 
Q 3513 744 3044 326 
Q 2575 -91 1722 -91 
Q 1428 -91 1123 -41 
Q 819 9 494 109 
L 494 744 
Q 775 591 1075 516 
Q 1375 441 1709 441 
Q 2250 441 2565 725 
Q 2881 1009 2881 1497 
Q 2881 1984 2565 2268 
Q 2250 2553 1709 2553 
Q 1456 2553 1204 2497 
Q 953 2441 691 2322 
L 691 4666 
z
" transform="scale(0.015625)"/>
     </defs>
     <use xlink:href="#DejaVuSans-43"/>
     <use xlink:href="#DejaVuSans-20" x="69.824219"/>
     <use xlink:href="#DejaVuSans-5b" x="101.611328"/>
     <use xlink:href="#DejaVuSans-31" x="140.625"/>
     <use xlink:href="#DejaVuSans-35" x="204.248047"/>
     <use xlink:href="#DejaVuSans-5d" x="267.871094"/>
    </g>
   </g>
   <g id="text_3">
    <!-- D [9] -->
    <g transform="translate(285.100308 64.468429) scale(0.1 -0.1)">
     <defs>
      <path id="DejaVuSans-44" d="M 1259 4147 
L 1259 519 
L 2022 519 
Q 2988 519 3436 956 
Q 3884 1394 3884 2338 
Q 3884 3275 3436 3711 
Q 2988 4147 2022 4147 
L 1259 4147 
z
M 628 4666 
L 1925 4666 
Q 3281 4666 3915 4102 
Q 4550 3538 4550 2338 
Q 4550 1131 3912 565 
Q 3275 0 1925 0 
L 628 0 
L 628 4666 
z
" transform="scale(0.015625)"/>
      <path id="DejaVuSans-39" d="M 703 97 
L 703 672 
Q 941 559 1184 500 
Q 1428 441 1663 441 
Q 2288 441 2617 861 
Q 2947 1281 2994 2138 
Q 2813 1869 2534 1725 
Q 2256 1581 1919 1581 
Q 1219 1581 811 2004 
Q 403 2428 403 3163 
Q 403 3881 828 4315 
Q 1253 4750 1959 4750 
Q 2769 4750 3195 4129 
Q 3622 3509 3622 2328 
Q 3622 1225 3098 567 
Q 2575 -91 1691 -91 
Q 1453 -91 1209 -44 
Q 966 3 703 97 
z
M 1959 2075 
Q 2384 2075 2632 2365 
Q 2881 2656 2881 3163 
Q 2881 3666 2632 3958 
Q 2384 4250 1959 4250 
Q 1534 4250 1286 3958 
Q 1038 3666 1038 3163 
Q 1038 2656 1286 2365 
Q 1534 2075 1959 2075 
z
" transform="scale(0.015625)"/>
     </defs>
     <use xlink:href="#DejaVuSans-44"/>
     <use xlink:href="#DejaVuSans-20" x="77.001953"/>
     <use xlink:href="#DejaVuSans-5b" x="108.789062"/>
     <use xlink:href="#DejaVuSans-39" x="147.802734"/>
     <use xlink:href="#DejaVuSans-5d" x="211.425781"/>
    </g>
   </g>
   <g id="text_4">
    <!-- E [15] -->
    <g transform="translate(263.920915 44.188678) scale(0.1 -0.1)">
     <defs>
      <path id="DejaVuSans-45" d="M 628 4666 
L 3578 4666 
L 3578 4134 
L 1259 4134 
L 1259 2753 
L 3481 2753 
L 3481 2222 
L 1259 2222 
L 1259 531 
L 3634 531 
L 3634 0 
L 628 0 
L 628 4666 
z
" transform="scale(0.015625)"/>
     </defs>
     <use xlink:href="#DejaVuSans-45"/>
     <use xlink:href="#DejaVuSans-20" x="63.183594"/>
     <use xlink:href="#DejaVuSans-5b" x="94.970703"/>
     <use xlink:href="#DejaVuSans-31" x="133.984375"/>
     <use xlink:href="#DejaVuSans-35" x="197.607422"/>
     <use xlink:href="#DejaVuSans-5d" x="261.230469"/>
    </g>
   </g>
   <g id="text_5">
    <!-- F [22] -->
    <g transform="translate(224.326075 22.608794) scale(0.1 -0.1)">
     <defs>
      <path id="DejaVuSans-46" d="M 628 4666 
L 3309 4666 
L 3309 4134 
L 1259 4134 
L 1259 2759 
L 3109 2759 
L 3109 2228 
L 1259 2228 
L 1259 0 
L 628 0 
L 628 4666 
z
" transform="scale(0.015625)"/>
     </defs>
     <use xlink:href="#DejaVuSans-46"/>
     <use xlink:href="#DejaVuSans-20" x="57.519531"/>
     <use xlink:href="#DejaVuSans-5b" x="89.306641"/>
     <use xlink:href="#DejaVuSans-32" x="128.320312"/>
     <use xlink:href="#DejaVuSans-32" x="191.943359"/>
     <use xlink:href="#DejaVuSans-5d" x="255.566406"/>
    </g>
   </g>
   <g id="text_6">
    <!-- G [11] -->
    <g transform="translate(184.836926 14.798437) scale(0.1 -0.1)">
     <defs>
      <path id="DejaVuSans-47" d="M 3809 666 
L 3809 1919 
L 2778 1919 
L 2778 2438 
L 4434 2438 
L 4434 434 
Q 4069 175 3628 42 
Q 3188 -91 2688 -91 
Q 1594 -91 976 548 
Q 359 1188 359 2328 
Q 359 3472 976 4111 
Q 1594 4750 2688 4750 
Q 3144 4750 3555 4637 
Q 3966 4525 4313 4306 
L 4313 3634 
Q 3963 3931 3569 4081 
Q 3175 4231 2741 4231 
Q 1884 4231 1454 3753 
Q 1025 3275 1025 2328 
Q 1025 1384 1454 906 
Q 1884 428 2741 428 
Q 3075 428 3337 486 
Q 3600 544 3809 666 
z
" transform="scale(0.015625)"/>
     </defs>
     <use xlink:href="#DejaVuSans-47"/>
     <use xlink:href="#DejaVuSans-20" x="77.490234"/>
     <use xlink:href="#DejaVuSans-5b" x="109.277344"/>
     <use xlink:href="#DejaVuSans-31" x="148.291016"/>
     <use xlink:href="#DejaVuSans-31" x="211.914062"/>
     <use xlink:href="#DejaVuSans-5d" x="275.537109"/>
    </g>
   </g>
   <g id="text_7">
    <!-- H [10] -->
    <g transform="translate(127.96148 15.800612) scale(0.1 -0.1)">
     <defs>
      <path id="DejaVuSans-48" d="M 628 4666 
L 1259 4666 
L 1259 2753 
L 3553 2753 
L 3553 4666 
L 4184 4666 
L 4184 0 
L 3553 0 
L 3553 2222 
L 1259 2222 
L 1259 0 
L 628 0 
L 628 4666 
z
" transform="scale(0.015625)"/>
      <path id="DejaVuSans-30" d="M 2034 4250 
Q 1547 4250 1301 3770 
Q 1056 3291 1056 2328 
Q 1056 1369 1301 889 
Q 1547 409 2034 409 
Q 2525 409 2770 889 
Q 3016 1369 3016 2328 
Q 3016 3291 2770 3770 
Q 2525 4250 2034 4250 
z
M 2034 4750 
Q 2819 4750 3233 4129 
Q 3647 3509 3647 2328 
Q 3647 1150 3233 529 
Q 2819 -91 2034 -91 
Q 1250 -91 836 529 
Q 422 1150 422 2328 
Q 422 3509 836 4129 
Q 1250 4750 2034 4750 
z
" transform="scale(0.015625)"/>
     </defs>
     <use xlink:href="#DejaVuSans-48"/>
     <use xlink:href="#DejaVuSans-20" x="75.195312"/>
     <use xlink:href="#DejaVuSans-5b" x="106.982422"/>
     <use xlink:href="#DejaVuSans-31" x="145.996094"/>
     <use xlink:href="#DejaVuSans-30" x="209.619141"/>
     <use xlink:href="#DejaVuSans-5d" x="273.242188"/>
    </g>
   </g>
   <g id="text_8">
    <!-- I [33] -->
    <g transform="translate(82.807969 32.100107) scale(0.1 -0.1)">
     <defs>
      <path id="DejaVuSans-49" d="M 628 4666 
L 1259 4666 
L 1259 0 
L 628 0 
L 628 4666 
z
" transform="scale(0.015625)"/>
      <path id="DejaVuSans-33" d="M 2597 2516 
Q 3050 2419 3304 2112 
Q 3559 1806 3559 1356 
Q 3559 666 3084 287 
Q 2609 -91 1734 -91 
Q 1441 -91 1130 -33 
Q 819 25 488 141 
L 488 750 
Q 750 597 1062 519 
Q 1375 441 1716 441 
Q 2309 441 2620 675 
Q 2931 909 2931 1356 
Q 2931 1769 2642 2001 
Q 2353 2234 1838 2234 
L 1294 2234 
L 1294 2753 
L 1863 2753 
Q 2328 2753 2575 2939 
Q 2822 3125 2822 3475 
Q 2822 3834 2567 4026 
Q 2313 4219 1838 4219 
Q 1578 4219 1281 4162 
Q 984 4106 628 3988 
L 628 4550 
Q 988 4650 1302 4700 
Q 1616 4750 1894 4750 
Q 2613 4750 3031 4423 
Q 3450 4097 3450 3541 
Q 3450 3153 3228 2886 
Q 3006 2619 2597 2516 
z
" transform="scale(0.015625)"/>
     </defs>
     <use xlink:href="#DejaVuSans-49"/>
     <use xlink:href="#DejaVuSans-20" x="29.492188"/>
     <use xlink:href="#DejaVuSans-5b" x="61.279297"/>
     <use xlink:href="#DejaVuSans-33" x="100.292969"/>
     <use xlink:href="#DejaVuSans-33" x="163.916016"/>
     <use xlink:href="#DejaVuSans-5d" x="227.539062"/>
    </g>
   </g>
   <g id="text_9">
    <!-- K [26] -->
    <g transform="translate(27.393966 81.27659) scale(0.1 -0.1)">
     <defs>
      <path id="DejaVuSans-4b" d="M 628 4666 
L 1259 4666 
L 1259 2694 
L 3353 4666 
L 4166 4666 
L 1850 2491 
L 4331 0 
L 3500 0 
L 1259 2247 
L 1259 0 
L 628 0 
L 628 4666 
z
" transform="scale(0.015625)"/>
      <path id="DejaVuSans-36" d="M 2113 2584 
Q 1688 2584 1439 2293 
Q 1191 2003 1191 1497 
Q 1191 994 1439 701 
Q 1688 409 2113 409 
Q 2538 409 2786 701 
Q 3034 994 3034 1497 
Q 3034 2003 2786 2293 
Q 2538 2584 2113 2584 
z
M 3366 4563 
L 3366 3988 
Q 3128 4100 2886 4159 
Q 2644 4219 2406 4219 
Q 1781 4219 1451 3797 
Q 1122 3375 1075 2522 
Q 1259 2794 1537 2939 
Q 1816 3084 2150 3084 
Q 2853 3084 3261 2657 
Q 3669 2231 3669 1497 
Q 3669 778 3244 343 
Q 2819 -91 2113 -91 
Q 1303 -91 875 529 
Q 447 1150 447 2328 
Q 447 3434 972 4092 
Q 1497 4750 2381 4750 
Q 2619 4750 2861 4703 
Q 3103 4656 3366 4563 
z
" transform="scale(0.015625)"/>
     </defs>
     <use xlink:href="#DejaVuSans-4b"/>
     <use xlink:href="#DejaVuSans-20" x="65.576172"/>
     <use xlink:href="#DejaVuSans-5b" x="97.363281"/>
     <use xlink:href="#DejaVuSans-32" x="136.376953"/>
     <use xlink:href="#DejaVuSans-36" x="200"/>
     <use xlink:href="#DejaVuSans-5d" x="263.623047"/>
    </g>
   </g>
   <g id="text_10">
    <!-- L [36] -->
    <g transform="translate(7.2 153.198757) scale(0.1 -0.1)">
     <defs>
      <path id="DejaVuSans-4c" d="M 628 4666 
L 1259 4666 
L 1259 531 
L 3531 531 
L 3531 0 
L 628 0 
L 628 4666 
z
" transform="scale(0.015625)"/>
     </defs>
     <use xlink:href="#DejaVuSans-4c"/>
     <use xlink:href="#DejaVuSans-20" x="55.712891"/>
     <use xlink:href="#DejaVuSans-5b" x="87.5"/>
     <use xlink:href="#DejaVuSans-33" x="126.513672"/>
     <use xlink:href="#DejaVuSans-36" x="190.136719"/>
     <use xlink:href="#DejaVuSans-5d" x="253.759766"/>
    </g>
   </g>
   <g id="text_11">
    <!-- M [16] -->
    <g transform="translate(17.193476 214.944127) scale(0.1 -0.1)">
     <defs>
      <path id="DejaVuSans-4d" d="M 628 4666 
L 1569 4666 
L 2759 1491 
L 3956 4666 
L 4897 4666 
L 4897 0 
L 4281 0 
L 4281 4097 
L 3078 897 
L 2444 897 
L 1241 4097 
L 1241 0 
L 628 0 
L 628 4666 
z
" transform="scale(0.015625)"/>
     </defs>
     <use xlink:href="#DejaVuSans-4d"/>
     <use xlink:href="#DejaVuSans-20" x="86.279297"/>
     <use xlink:href="#DejaVuSans-5b" x="118.066406"/>
     <use xlink:href="#DejaVuSans-31" x="157.080078"/>
     <use xlink:href="#DejaVuSans-36" x="220.703125"/>
     <use xlink:href="#DejaVuSans-5d" x="284.326172"/>
    </g>
   </g>
   <g id="text_12">
    <!-- N [18] -->
    <g transform="translate(41.114722 249.595131) scale(0.1 -0.1)">
     <defs>
      <path id="DejaVuSans-4e" d="M 628 4666 
L 1478 4666 
L 3547 763 
L 3547 4666 
L 4159 4666 
L 4159 0 
L 3309 0 
L 1241 3903 
L 1241 0 
L 628 0 
L 628 4666 
z
" transform="scale(0.015625)"/>
      <path id="DejaVuSans-38" d="M 2034 2216 
Q 1584 2216 1326 1975 
Q 1069 1734 1069 1313 
Q 1069 891 1326 650 
Q 1584 409 2034 409 
Q 2484 409 2743 651 
Q 3003 894 3003 1313 
Q 3003 1734 2745 1975 
Q 2488 2216 2034 2216 
z
M 1403 2484 
Q 997 2584 770 2862 
Q 544 3141 544 3541 
Q 544 4100 942 4425 
Q 1341 4750 2034 4750 
Q 2731 4750 3128 4425 
Q 3525 4100 3525 3541 
Q 3525 3141 3298 2862 
Q 3072 2584 2669 2484 
Q 3125 2378 3379 2068 
Q 3634 1759 3634 1313 
Q 3634 634 3220 271 
Q 2806 -91 2034 -91 
Q 1263 -91 848 271 
Q 434 634 434 1313 
Q 434 1759 690 2068 
Q 947 2378 1403 2484 
z
M 1172 3481 
Q 1172 3119 1398 2916 
Q 1625 2713 2034 2713 
Q 2441 2713 2670 2916 
Q 2900 3119 2900 3481 
Q 2900 3844 2670 4047 
Q 2441 4250 2034 4250 
Q 1625 4250 1398 4047 
Q 1172 3844 1172 3481 
z
" transform="scale(0.015625)"/>
     </defs>
     <use xlink:href="#DejaVuSans-4e"/>
     <use xlink:href="#DejaVuSans-20" x="74.804688"/>
     <use xlink:href="#DejaVuSans-5b" x="106.591797"/>
     <use xlink:href="#DejaVuSans-31" x="145.605469"/>
     <use xlink:href="#DejaVuSans-38" x="209.228516"/>
     <use xlink:href="#DejaVuSans-5d" x="272.851562"/>
    </g>
   </g>
   <g id="text_13">
    <!-- P [13] -->
    <g transform="translate(71.321543 274.176031) scale(0.1 -0.1)">
     <defs>
      <path id="DejaVuSans-50" d="M 1259 4147 
L 1259 2394 
L 2053 2394 
Q 2494 2394 2734 2622 
Q 2975 2850 2975 3272 
Q 2975 3691 2734 3919 
Q 2494 4147 2053 4147 
L 1259 4147 
z
M 628 4666 
L 2053 4666 
Q 2838 4666 3239 4311 
Q 3641 3956 3641 3272 
Q 3641 2581 3239 2228 
Q 2838 1875 2053 1875 
L 1259 1875 
L 1259 0 
L 628 0 
L 628 4666 
z
" transform="scale(0.015625)"/>
     </defs>
     <use xlink:href="#DejaVuSans-50"/>
     <use xlink:href="#DejaVuSans-20" x="60.302734"/>
     <use xlink:href="#DejaVuSans-5b" x="92.089844"/>
     <use xlink:href="#DejaVuSans-31" x="131.103516"/>
     <use xlink:href="#DejaVuSans-33" x="194.726562"/>
     <use xlink:href="#DejaVuSans-5d" x="258.349609"/>
    </g>
   </g>
   <g id="text_14">
    <!-- Q [12] -->
    <g transform="translate(96.786328 287.851662) scale(0.1 -0.1)">
     <defs>
      <path id="DejaVuSans-51" d="M 2522 4238 
Q 1834 4238 1429 3725 
Q 1025 3213 1025 2328 
Q 1025 1447 1429 934 
Q 1834 422 2522 422 
Q 3209 422 3611 934 
Q 4013 1447 4013 2328 
Q 4013 3213 3611 3725 
Q 3209 4238 2522 4238 
z
M 3406 84 
L 4238 -825 
L 3475 -825 
L 2784 -78 
Q 2681 -84 2626 -87 
Q 2572 -91 2522 -91 
Q 1538 -91 948 567 
Q 359 1225 359 2328 
Q 359 3434 948 4092 
Q 1538 4750 2522 4750 
Q 3503 4750 4090 4092 
Q 4678 3434 4678 2328 
Q 4678 1516 4351 937 
Q 4025 359 3406 84 
z
" transform="scale(0.015625)"/>
     </defs>
     <use xlink:href="#DejaVuSans-51"/>
     <use xlink:href="#DejaVuSans-20" x="78.710938"/>
     <use xlink:href="#DejaVuSans-5b" x="110.498047"/>
     <use xlink:href="#DejaVuSans-31" x="149.511719"/>
     <use xlink:href="#DejaVuSans-32" x="213.134766"/>
     <use xlink:href="#DejaVuSans-5d" x="276.757812"/>
    </g>
   </g>
   <g id="text_15">
    <!-- R [12] -->
    <g transform="translate(126.108942 295.153841) scale(0.1 -0.1)">
     <defs>
      <path id="DejaVuSans-52" d="M 2841 2188 
Q 3044 2119 3236 1894 
Q 3428 1669 3622 1275 
L 4263 0 
L 3584 0 
L 2988 1197 
Q 2756 1666 2539 1819 
Q 2322 1972 1947 1972 
L 1259 1972 
L 1259 0 
L 628 0 
L 628 4666 
L 2053 4666 
Q 2853 4666 3247 4331 
Q 3641 3997 3641 3322 
Q 3641 2881 3436 2590 
Q 3231 2300 2841 2188 
z
M 1259 4147 
L 1259 2491 
L 2053 2491 
Q 2509 2491 2742 2702 
Q 2975 2913 2975 3322 
Q 2975 3731 2742 3939 
Q 2509 4147 2053 4147 
L 1259 4147 
z
" transform="scale(0.015625)"/>
     </defs>
     <use xlink:href="#DejaVuSans-52"/>
     <use xlink:href="#DejaVuSans-20" x="69.482422"/>
     <use xlink:href="#DejaVuSans-5b" x="101.269531"/>
     <use xlink:href="#DejaVuSans-31" x="140.283203"/>
     <use xlink:href="#DejaVuSans-32" x="203.90625"/>
     <use xlink:href="#DejaVuSans-5d" x="267.529297"/>
    </g>
   </g>
   <g id="text_16">
    <!-- S [24] -->
    <g transform="translate(200.647009 294.772994) scale(0.1 -0.1)">
     <defs>
      <path id="DejaVuSans-53" d="M 3425 4513 
L 3425 3897 
Q 3066 4069 2747 4153 
Q 2428 4238 2131 4238 
Q 1616 4238 1336 4038 
Q 1056 3838 1056 3469 
Q 1056 3159 1242 3001 
Q 1428 2844 1947 2747 
L 2328 2669 
Q 3034 2534 3370 2195 
Q 3706 1856 3706 1288 
Q 3706 609 3251 259 
Q 2797 -91 1919 -91 
Q 1588 -91 1214 -16 
Q 841 59 441 206 
L 441 856 
Q 825 641 1194 531 
Q 1563 422 1919 422 
Q 2459 422 2753 634 
Q 3047 847 3047 1241 
Q 3047 1584 2836 1778 
Q 2625 1972 2144 2069 
L 1759 2144 
Q 1053 2284 737 2584 
Q 422 2884 422 3419 
Q 422 4038 858 4394 
Q 1294 4750 2059 4750 
Q 2388 4750 2728 4690 
Q 3069 4631 3425 4513 
z
" transform="scale(0.015625)"/>
      <path id="DejaVuSans-34" d="M 2419 4116 
L 825 1625 
L 2419 1625 
L 2419 4116 
z
M 2253 4666 
L 3047 4666 
L 3047 1625 
L 3713 1625 
L 3713 1100 
L 3047 1100 
L 3047 0 
L 2419 0 
L 2419 1100 
L 313 1100 
L 313 1709 
L 2253 4666 
z
" transform="scale(0.015625)"/>
     </defs>
     <use xlink:href="#DejaVuSans-53"/>
     <use xlink:href="#DejaVuSans-20" x="63.476562"/>
     <use xlink:href="#DejaVuSans-5b" x="95.263672"/>
     <use xlink:href="#DejaVuSans-32" x="134.277344"/>
     <use xlink:href="#DejaVuSans-34" x="197.900391"/>
     <use xlink:href="#DejaVuSans-5d" x="261.523438"/>
    </g>
   </g>
   <g id="text_17">
    <!-- T [26] -->
    <g transform="translate(256.994689 272.145984) scale(0.1 -0.1)">
     <defs>
      <path id="DejaVuSans-54" d="M -19 4666 
L 3928 4666 
L 3928 4134 
L 2272 4134 
L 2272 0 
L 1638 0 
L 1638 4134 
L -19 4134 
L -19 4666 
z
" transform="scale(0.015625)"/>
     </defs>
     <use xlink:href="#DejaVuSans-54"/>
     <use xlink:href="#DejaVuSans-20" x="61.083984"/>
     <use xlink:href="#DejaVuSans-5b" x="92.871094"/>
     <use xlink:href="#DejaVuSans-32" x="131.884766"/>
     <use xlink:href="#DejaVuSans-36" x="195.507812"/>
     <use xlink:href="#DejaVuSans-5d" x="259.130859"/>
    </g>
   </g>
   <g id="text_18">
    <!-- V [26] -->
    <g transform="translate(299.843395 225.812689) scale(0.1 -0.1)">
     <defs>
      <path id="DejaVuSans-56" d="M 1831 0 
L 50 4666 
L 709 4666 
L 2188 738 
L 3669 4666 
L 4325 4666 
L 2547 0 
L 1831 0 
z
" transform="scale(0.015625)"/>
     </defs>
     <use xlink:href="#DejaVuSans-56"/>
     <use xlink:href="#DejaVuSans-20" x="68.408203"/>
     <use xlink:href="#DejaVuSans-5b" x="100.195312"/>
     <use xlink:href="#DejaVuSans-32" x="139.208984"/>
     <use xlink:href="#DejaVuSans-36" x="202.832031"/>
     <use xlink:href="#DejaVuSans-5d" x="266.455078"/>
    </g>
   </g>
   <g id="text_19">
    <!-- W [3] -->
    <g transform="translate(313.462243 193.134598) scale(0.1 -0.1)">
     <defs>
      <path id="DejaVuSans-57" d="M 213 4666 
L 850 4666 
L 1831 722 
L 2809 4666 
L 3519 4666 
L 4500 722 
L 5478 4666 
L 6119 4666 
L 4947 0 
L 4153 0 
L 3169 4050 
L 2175 0 
L 1381 0 
L 213 4666 
z
" transform="scale(0.015625)"/>
     </defs>
     <use xlink:href="#DejaVuSans-57"/>
     <use xlink:href="#DejaVuSans-20" x="98.876953"/>
     <use xlink:href="#DejaVuSans-5b" x="130.664062"/>
     <use xlink:href="#DejaVuSans-33" x="169.677734"/>
     <use xlink:href="#DejaVuSans-5d" x="233.300781"/>
    </g>
   </g>
   <g id="text_20">
    <!-- Y [14] -->
    <g transform="translate(317.495884 172.740523) scale(0.1 -0.1)">
     <defs>
      <path id="DejaVuSans-59" d="M -13 4666 
L 666 4666 
L 1959 2747 
L 3244 4666 
L 3922 4666 
L 2272 2222 
L 2272 0 
L 1638 0 
L 1638 2222 
L -13 4666 
z
" transform="scale(0.015625)"/>
     </defs>
     <use xlink:href="#DejaVuSans-59"/>
     <use xlink:href="#DejaVuSans-20" x="61.083984"/>
     <use xlink:href="#DejaVuSans-5b" x="92.871094"/>
     <use xlink:href="#DejaVuSans-31" x="131.884766"/>
     <use xlink:href="#DejaVuSans-34" x="195.507812"/>
     <use xlink:href="#DejaVuSans-5d" x="259.130859"/>
    </g>
   </g>
   <g id="text_21">
    <!-- A0A8C8WA97 [362] -->
    <g transform="translate(118.262178 152.887262) scale(0.12 -0.12)">
     <defs>
      <path id="DejaVuSans-37" d="M 525 4666 
L 3525 4666 
L 3525 4397 
L 1831 0 
L 1172 0 
L 2766 4134 
L 525 4134 
L 525 4666 
z
" transform="scale(0.015625)"/>
     </defs>
     <use xlink:href="#DejaVuSans-41"/>
     <use xlink:href="#DejaVuSans-30" x="68.408203"/>
     <use xlink:href="#DejaVuSans-41" x="132.03125"/>
     <use xlink:href="#DejaVuSans-38" x="200.439453"/>
     <use xlink:href="#DejaVuSans-43" x="264.0625"/>
     <use xlink:href="#DejaVuSans-38" x="333.886719"/>
     <use xlink:href="#DejaVuSans-57" x="397.509766"/>
     <use xlink:href="#DejaVuSans-41" x="490.886719"/>
     <use xlink:href="#DejaVuSans-39" x="559.294922"/>
     <use xlink:href="#DejaVuSans-37" x="622.917969"/>
     <use xlink:href="#DejaVuSans-20" x="686.541016"/>
     <use xlink:href="#DejaVuSans-5b" x="718.328125"/>
     <use xlink:href="#DejaVuSans-33" x="757.341797"/>
     <use xlink:href="#DejaVuSans-36" x="820.964844"/>
     <use xlink:href="#DejaVuSans-32" x="884.587891"/>
     <use xlink:href="#DejaVuSans-5d" x="948.210938"/>
    </g>
   </g>
  </g>
 </g>
</svg>
