<?xml version="1.0" encoding="utf-8" standalone="no"?>
<!DOCTYPE svg PUBLIC "-//W3C//DTD SVG 1.1//EN"
  "http://www.w3.org/Graphics/SVG/1.1/DTD/svg11.dtd">
<svg xmlns:xlink="http://www.w3.org/1999/xlink" width="350.193735pt" height="304.267386pt" viewBox="0 0 350.193735 304.267386" xmlns="http://www.w3.org/2000/svg" version="1.1">
 <metadata>
  <rdf:RDF xmlns:dc="http://purl.org/dc/elements/1.1/" xmlns:cc="http://creativecommons.org/ns#" xmlns:rdf="http://www.w3.org/1999/02/22-rdf-syntax-ns#">
   <cc:Work>
    <dc:type rdf:resource="http://purl.org/dc/dcmitype/StillImage"/>
    <dc:date>2024-09-27T16:07:36.712075</dc:date>
    <dc:format>image/svg+xml</dc:format>
    <dc:creator>
     <cc:Agent>
      <dc:title>Matplotlib v3.8.3, https://matplotlib.org/</dc:title>
     </cc:Agent>
    </dc:creator>
   </cc:Work>
  </rdf:RDF>
 </metadata>
 <defs>
  <style type="text/css">*{stroke-linejoin: round; stroke-linecap: butt}</style>
 </defs>
 <g id="figure_1">
  <g id="patch_1">
   <path d="M -0 304.267386 
L 350.193735 304.267386 
L 350.193735 0 
L -0 0 
z
" style="fill: #ffffff"/>
  </g>
  <g id="axes_1">
   <g id="patch_2">
    <path d="M 301.445002 151.625099 
C 301.445002 134.953555 298.1811 118.442146 291.837852 103.024507 
C 285.494605 87.606869 276.193869 73.579182 264.461554 61.734641 
L 173.711242 151.625099 
z
" style="fill: #1f77b4"/>
   </g>
   <g id="patch_3">
    <path d="M 264.298359 61.518787 
C 260.588904 57.773849 256.651192 54.262112 252.507818 51.003727 
C 248.364445 47.745342 244.023348 44.746552 239.509436 42.024563 
L 173.548047 151.409245 
z
" style="fill: #ff7f0e"/>
   </g>
   <g id="patch_4">
    <path d="M 239.424316 41.96986 
C 236.994299 40.504505 234.516126 39.120533 231.993923 37.820247 
C 229.471721 36.519962 226.906889 35.304084 224.303698 34.174639 
L 173.462927 151.354542 
z
" style="fill: #aec7e8"/>
   </g>
   <g id="patch_5">
    <path d="M 224.252914 34.151739 
C 222.765469 33.506382 221.265871 32.889405 219.754935 32.301144 
C 218.243999 31.712883 216.722 31.153445 215.189764 30.623133 
L 173.412143 151.331641 
z
" style="fill: #ffbb78"/>
   </g>
   <g id="patch_6">
    <path d="M 215.112275 30.599577 
C 210.514457 29.008256 205.829471 27.680933 201.080225 26.624097 
C 196.33098 25.567261 191.525228 24.782638 186.686469 24.274063 
L 173.334655 151.308084 
z
" style="fill: #98df8a"/>
   </g>
   <g id="patch_7">
    <path d="M 186.500138 24.266076 
C 176.410251 23.205586 166.229853 23.350972 156.174364 24.699157 
C 146.118876 26.047341 136.259724 28.588748 126.80553 32.269601 
L 173.148323 151.300097 
z
" style="fill: #2ca02c"/>
   </g>
   <g id="patch_8">
    <path d="M 126.655161 32.312977 
C 124.388672 33.195402 122.147848 34.142382 119.935432 35.152759 
C 117.723016 36.163135 115.539909 37.236497 113.388782 38.37153 
L 172.997954 151.343473 
z
" style="fill: #d62728"/>
   </g>
   <g id="patch_9">
    <path d="M 113.292957 38.428077 
C 107.554238 41.456088 102.054575 44.916974 96.841744 48.78067 
C 91.628912 52.644366 86.718051 56.899652 82.151818 61.509563 
L 172.90213 151.40002 
z
" style="fill: #9467bd"/>
   </g>
   <g id="patch_10">
    <path d="M 82.076625 61.577267 
C 80.935584 62.729223 79.81658 63.9028 78.720222 65.097362 
C 77.623863 66.291923 76.550349 67.507251 75.500264 68.742685 
L 172.826937 151.467725 
z
" style="fill: #ff9896"/>
   </g>
   <g id="patch_11">
    <path d="M 75.376372 68.972167 
C 62.721165 83.861119 53.649652 101.457399 48.862209 120.402466 
C 44.074766 139.347533 43.697854 159.14095 47.760573 178.254544 
L 172.703045 151.697206 
z
" style="fill: #c5b0d5"/>
   </g>
   <g id="patch_12">
    <path d="M 47.765911 178.534883 
C 48.440193 181.707132 49.235044 184.852551 50.148736 187.9643 
C 51.062428 191.076049 52.094298 194.151873 53.242103 197.185083 
L 172.708383 151.977546 
z
" style="fill: #c49c94"/>
   </g>
   <g id="patch_13">
    <path d="M 53.272937 197.265409 
C 54.564259 200.67788 56.0012 204.033456 57.579807 207.322904 
C 59.158414 210.612352 60.877238 213.832652 62.731548 216.974944 
L 172.739217 152.057872 
z
" style="fill: #8c564b"/>
   </g>
   <g id="patch_14">
    <path d="M 62.802588 217.085485 
C 66.30655 223.023254 70.285512 228.667594 74.700462 233.963165 
C 79.115412 239.258735 83.951874 244.188172 89.162429 248.703144 
L 172.810257 152.168413 
z
" style="fill: #e377c2"/>
   </g>
   <g id="patch_15">
    <path d="M 89.250246 248.786876 
C 91.394797 250.645141 93.600676 252.431427 95.864211 254.14276 
C 98.127745 255.854093 100.447678 257.489524 102.820146 259.046328 
L 172.898074 152.252145 
z
" style="fill: #7f7f7f"/>
   </g>
   <g id="patch_16">
    <path d="M 102.901756 259.097144 
C 106.969574 261.76643 111.186583 264.201122 115.532162 266.389313 
C 119.87774 268.577504 124.344795 270.515622 128.911483 272.194192 
L 172.979683 152.302961 
z
" style="fill: #f7b6d2"/>
   </g>
   <g id="patch_17">
    <path d="M 129.100257 272.248646 
C 139.386632 276.02959 150.116963 278.471043 161.026583 279.512786 
C 171.936204 280.554529 182.934672 280.187926 193.750707 278.422019 
L 173.168457 152.357415 
z
" style="fill: #c7c7c7"/>
   </g>
   <g id="patch_18">
    <path d="M 193.980152 278.393477 
C 201.586167 277.151663 209.064213 275.224037 216.322746 272.634198 
C 223.581279 270.044359 230.590557 266.802919 237.264774 262.949559 
L 173.397902 152.328873 
z
" style="fill: #dbdb8d"/>
   </g>
   <g id="patch_19">
    <path d="M 237.488149 262.796819 
C 249.802739 255.686988 260.844107 246.570467 270.156006 235.823963 
C 279.467906 225.077459 286.920285 212.851061 292.205201 199.649982 
L 173.621276 152.176134 
z
" style="fill: #bcbd22"/>
   </g>
   <g id="patch_20">
    <path d="M 292.309148 199.465916 
C 293.363795 196.831534 294.330365 194.16274 295.207246 191.463976 
C 296.084128 188.765211 296.870835 186.037976 297.566059 183.286811 
L 173.725223 151.992067 
z
" style="fill: #17becf"/>
   </g>
   <g id="patch_21">
    <path d="M 297.588037 183.188044 
C 298.879458 178.077579 299.853306 172.892072 300.503994 167.661276 
C 301.154681 162.43048 301.480961 157.164419 301.480961 151.893307 
L 173.747201 151.893301 
z
" style="fill: #9edae5"/>
   </g>
   <g id="patch_22">
    <path d="M 247.730408 151.827601 
C 247.730408 142.102534 245.826465 132.470879 242.126237 123.477256 
C 238.42601 114.483634 233.00058 106.300816 226.15673 99.391501 
L 173.219048 151.827601 
z
" style="fill: #ffffff"/>
   </g>
   <g id="patch_23">
    <path d="M 226.15673 99.391501 
C 223.992881 97.206953 221.695883 95.15844 219.278915 93.257716 
C 216.861947 91.356991 214.32964 89.607697 211.696525 88.01987 
L 173.219048 151.827601 
z
" style="fill: #ffffff"/>
   </g>
   <g id="patch_24">
    <path d="M 211.696525 88.01987 
C 210.279015 87.16508 208.833414 86.357763 207.362129 85.599263 
C 205.890844 84.840763 204.394693 84.131501 202.876165 83.472658 
L 173.219048 151.827601 
z
" style="fill: #ffffff"/>
   </g>
   <g id="patch_25">
    <path d="M 202.876165 83.472658 
C 202.008488 83.0962 201.133723 82.736297 200.252343 82.393145 
C 199.370964 82.049993 198.483131 81.723654 197.589327 81.414305 
L 173.219048 151.827601 
z
" style="fill: #ffffff"/>
   </g>
   <g id="patch_26">
    <path d="M 197.589327 81.414305 
C 194.907266 80.486035 192.174357 79.711763 189.403964 79.095275 
C 186.633571 78.478787 183.830216 78.02109 181.007607 77.724422 
L 173.219048 151.827601 
z
" style="fill: #ffffff"/>
   </g>
   <g id="patch_27">
    <path d="M 181.007607 77.724422 
C 175.121839 77.105803 169.183274 77.190611 163.317572 77.977052 
C 157.45187 78.763493 151.700698 80.245981 146.185752 82.393145 
L 173.219048 151.827601 
z
" style="fill: #ffffff"/>
   </g>
   <g id="patch_28">
    <path d="M 146.185752 82.393145 
C 144.863633 82.907893 143.556486 83.460298 142.26591 84.049684 
C 140.975334 84.639071 139.701855 85.265198 138.447031 85.927301 
L 173.219048 151.827601 
z
" style="fill: #ffffff"/>
   </g>
   <g id="patch_29">
    <path d="M 138.447031 85.927301 
C 135.099444 87.693641 131.891308 89.712491 128.85049 91.966313 
C 125.809671 94.220136 122.945002 96.702386 120.281366 99.391501 
L 173.219048 151.827601 
z
" style="fill: #ffffff"/>
   </g>
   <g id="patch_30">
    <path d="M 120.281366 99.391501 
C 119.615759 100.063475 118.963007 100.748062 118.323464 101.444889 
C 117.683922 102.141717 117.057706 102.850658 116.445155 103.571328 
L 173.219048 151.827601 
z
" style="fill: #ffffff"/>
   </g>
   <g id="patch_31">
    <path d="M 116.445155 103.571328 
C 109.062951 112.25655 103.771236 122.521047 100.97856 133.572336 
C 98.185885 144.623625 97.96602 156.169785 100.33594 167.319381 
L 173.219048 151.827601 
z
" style="fill: #ffffff"/>
   </g>
   <g id="patch_32">
    <path d="M 100.33594 167.319381 
C 100.729271 169.16986 101.192934 171.004687 101.725921 172.819874 
C 102.258908 174.635062 102.860832 176.429292 103.530385 178.198664 
L 173.219048 151.827601 
z
" style="fill: #ffffff"/>
   </g>
   <g id="patch_33">
    <path d="M 103.530385 178.198664 
C 104.283656 180.189272 105.121872 182.146691 106.042726 184.065536 
C 106.96358 185.984381 107.966227 187.862889 109.047908 189.695893 
L 173.219048 151.827601 
z
" style="fill: #ffffff"/>
   </g>
   <g id="patch_34">
    <path d="M 109.047908 189.695893 
C 111.091885 193.159592 113.412946 196.452124 115.988334 199.541206 
C 118.563722 202.630289 121.384991 205.505794 124.424482 208.139528 
L 173.219048 151.827601 
z
" style="fill: #ffffff"/>
   </g>
   <g id="patch_35">
    <path d="M 124.424482 208.139528 
C 125.67547 209.223515 126.962233 210.265515 128.282628 211.263793 
C 129.603023 212.262071 130.956317 213.216072 132.340257 214.124208 
L 173.219048 151.827601 
z
" style="fill: #ffffff"/>
   </g>
   <g id="patch_36">
    <path d="M 132.340257 214.124208 
C 134.713151 215.681292 137.173073 217.101528 139.707994 218.377973 
C 142.242915 219.654418 144.848697 220.784987 147.512598 221.764152 
L 173.219048 151.827601 
z
" style="fill: #ffffff"/>
   </g>
   <g id="patch_37">
    <path d="M 147.512598 221.764152 
C 153.512983 223.969703 159.772343 225.393884 166.136289 226.001567 
C 172.500234 226.609251 178.916007 226.395399 185.225361 225.365287 
L 173.219048 151.827601 
z
" style="fill: #ffffff"/>
   </g>
   <g id="patch_38">
    <path d="M 185.225361 225.365287 
C 189.662203 224.640895 194.024396 223.516447 198.258541 222.005707 
C 202.492685 220.494968 206.58143 218.604128 210.474724 216.356334 
L 173.219048 151.827601 
z
" style="fill: #ffffff"/>
   </g>
   <g id="patch_39">
    <path d="M 210.474724 216.356334 
C 217.658235 212.208933 224.099033 206.890962 229.530974 200.622168 
C 234.962915 194.353374 239.310137 187.221309 242.393004 179.520679 
L 173.219048 151.827601 
z
" style="fill: #ffffff"/>
   </g>
   <g id="patch_40">
    <path d="M 242.393004 179.520679 
C 243.008215 177.983957 243.572047 176.42716 244.083562 174.852881 
C 244.595076 173.278602 245.053989 171.687715 245.459535 170.082868 
L 173.219048 151.827601 
z
" style="fill: #ffffff"/>
   </g>
   <g id="patch_41">
    <path d="M 245.459535 170.082868 
C 246.212864 167.101763 246.780943 164.076884 247.16051 161.025587 
C 247.540078 157.974289 247.730408 154.90242 247.730408 151.827605 
L 173.219048 151.827601 
z
" style="fill: #ffffff"/>
   </g>
   <g id="matplotlib.axis_1"/>
   <g id="matplotlib.axis_2"/>
   <g id="text_1">
    <!-- A [41] -->
    <g transform="translate(303.650513 100.923823) scale(0.1 -0.1)">
     <defs>
      <path id="DejaVuSans-41" d="M 2188 4044 
L 1331 1722 
L 3047 1722 
L 2188 4044 
z
M 1831 4666 
L 2547 4666 
L 4325 0 
L 3669 0 
L 3244 1197 
L 1141 1197 
L 716 0 
L 50 0 
L 1831 4666 
z
" transform="scale(0.015625)"/>
      <path id="DejaVuSans-20" transform="scale(0.015625)"/>
      <path id="DejaVuSans-5b" d="M 550 4863 
L 1875 4863 
L 1875 4416 
L 1125 4416 
L 1125 -397 
L 1875 -397 
L 1875 -844 
L 550 -844 
L 550 4863 
z
" transform="scale(0.015625)"/>
      <path id="DejaVuSans-34" d="M 2419 4116 
L 825 1625 
L 2419 1625 
L 2419 4116 
z
M 2253 4666 
L 3047 4666 
L 3047 1625 
L 3713 1625 
L 3713 1100 
L 3047 1100 
L 3047 0 
L 2419 0 
L 2419 1100 
L 313 1100 
L 313 1709 
L 2253 4666 
z
" transform="scale(0.015625)"/>
      <path id="DejaVuSans-31" d="M 794 531 
L 1825 531 
L 1825 4091 
L 703 3866 
L 703 4441 
L 1819 4666 
L 2450 4666 
L 2450 531 
L 3481 531 
L 3481 0 
L 794 0 
L 794 531 
z
" transform="scale(0.015625)"/>
      <path id="DejaVuSans-5d" d="M 1947 4863 
L 1947 -844 
L 622 -844 
L 622 -397 
L 1369 -397 
L 1369 4416 
L 622 4416 
L 622 4863 
L 1947 4863 
z
" transform="scale(0.015625)"/>
     </defs>
     <use xlink:href="#DejaVuSans-41"/>
     <use xlink:href="#DejaVuSans-20" x="68.408203"/>
     <use xlink:href="#DejaVuSans-5b" x="100.195312"/>
     <use xlink:href="#DejaVuSans-34" x="139.208984"/>
     <use xlink:href="#DejaVuSans-31" x="202.832031"/>
     <use xlink:href="#DejaVuSans-5d" x="266.455078"/>
    </g>
   </g>
   <g id="text_2">
    <!-- C [13] -->
    <g transform="translate(260.403796 43.72255) scale(0.1 -0.1)">
     <defs>
      <path id="DejaVuSans-43" d="M 4122 4306 
L 4122 3641 
Q 3803 3938 3442 4084 
Q 3081 4231 2675 4231 
Q 1875 4231 1450 3742 
Q 1025 3253 1025 2328 
Q 1025 1406 1450 917 
Q 1875 428 2675 428 
Q 3081 428 3442 575 
Q 3803 722 4122 1019 
L 4122 359 
Q 3791 134 3420 21 
Q 3050 -91 2638 -91 
Q 1578 -91 968 557 
Q 359 1206 359 2328 
Q 359 3453 968 4101 
Q 1578 4750 2638 4750 
Q 3056 4750 3426 4639 
Q 3797 4528 4122 4306 
z
" transform="scale(0.015625)"/>
      <path id="DejaVuSans-33" d="M 2597 2516 
Q 3050 2419 3304 2112 
Q 3559 1806 3559 1356 
Q 3559 666 3084 287 
Q 2609 -91 1734 -91 
Q 1441 -91 1130 -33 
Q 819 25 488 141 
L 488 750 
Q 750 597 1062 519 
Q 1375 441 1716 441 
Q 2309 441 2620 675 
Q 2931 909 2931 1356 
Q 2931 1769 2642 2001 
Q 2353 2234 1838 2234 
L 1294 2234 
L 1294 2753 
L 1863 2753 
Q 2328 2753 2575 2939 
Q 2822 3125 2822 3475 
Q 2822 3834 2567 4026 
Q 2313 4219 1838 4219 
Q 1578 4219 1281 4162 
Q 984 4106 628 3988 
L 628 4550 
Q 988 4650 1302 4700 
Q 1616 4750 1894 4750 
Q 2613 4750 3031 4423 
Q 3450 4097 3450 3541 
Q 3450 3153 3228 2886 
Q 3006 2619 2597 2516 
z
" transform="scale(0.015625)"/>
     </defs>
     <use xlink:href="#DejaVuSans-43"/>
     <use xlink:href="#DejaVuSans-20" x="69.824219"/>
     <use xlink:href="#DejaVuSans-5b" x="101.611328"/>
     <use xlink:href="#DejaVuSans-31" x="140.625"/>
     <use xlink:href="#DejaVuSans-33" x="204.248047"/>
     <use xlink:href="#DejaVuSans-5d" x="267.871094"/>
    </g>
   </g>
   <g id="text_3">
    <!-- D [7] -->
    <g transform="translate(237.847023 29.226193) scale(0.1 -0.1)">
     <defs>
      <path id="DejaVuSans-44" d="M 1259 4147 
L 1259 519 
L 2022 519 
Q 2988 519 3436 956 
Q 3884 1394 3884 2338 
Q 3884 3275 3436 3711 
Q 2988 4147 2022 4147 
L 1259 4147 
z
M 628 4666 
L 1925 4666 
Q 3281 4666 3915 4102 
Q 4550 3538 4550 2338 
Q 4550 1131 3912 565 
Q 3275 0 1925 0 
L 628 0 
L 628 4666 
z
" transform="scale(0.015625)"/>
      <path id="DejaVuSans-37" d="M 525 4666 
L 3525 4666 
L 3525 4397 
L 1831 0 
L 1172 0 
L 2766 4134 
L 525 4134 
L 525 4666 
z
" transform="scale(0.015625)"/>
     </defs>
     <use xlink:href="#DejaVuSans-44"/>
     <use xlink:href="#DejaVuSans-20" x="77.001953"/>
     <use xlink:href="#DejaVuSans-5b" x="108.789062"/>
     <use xlink:href="#DejaVuSans-37" x="147.802734"/>
     <use xlink:href="#DejaVuSans-5d" x="211.425781"/>
    </g>
   </g>
   <g id="text_4">
    <!-- E [4] -->
    <g transform="translate(224.389214 23.15747) scale(0.1 -0.1)">
     <defs>
      <path id="DejaVuSans-45" d="M 628 4666 
L 3578 4666 
L 3578 4134 
L 1259 4134 
L 1259 2753 
L 3481 2753 
L 3481 2222 
L 1259 2222 
L 1259 531 
L 3634 531 
L 3634 0 
L 628 0 
L 628 4666 
z
" transform="scale(0.015625)"/>
     </defs>
     <use xlink:href="#DejaVuSans-45"/>
     <use xlink:href="#DejaVuSans-20" x="63.183594"/>
     <use xlink:href="#DejaVuSans-5b" x="94.970703"/>
     <use xlink:href="#DejaVuSans-34" x="133.984375"/>
     <use xlink:href="#DejaVuSans-5d" x="197.607422"/>
    </g>
   </g>
   <g id="text_5">
    <!-- F [12] -->
    <g transform="translate(203.854782 16.915073) scale(0.1 -0.1)">
     <defs>
      <path id="DejaVuSans-46" d="M 628 4666 
L 3309 4666 
L 3309 4134 
L 1259 4134 
L 1259 2759 
L 3109 2759 
L 3109 2228 
L 1259 2228 
L 1259 0 
L 628 0 
L 628 4666 
z
" transform="scale(0.015625)"/>
      <path id="DejaVuSans-32" d="M 1228 531 
L 3431 531 
L 3431 0 
L 469 0 
L 469 531 
Q 828 903 1448 1529 
Q 2069 2156 2228 2338 
Q 2531 2678 2651 2914 
Q 2772 3150 2772 3378 
Q 2772 3750 2511 3984 
Q 2250 4219 1831 4219 
Q 1534 4219 1204 4116 
Q 875 4013 500 3803 
L 500 4441 
Q 881 4594 1212 4672 
Q 1544 4750 1819 4750 
Q 2544 4750 2975 4387 
Q 3406 4025 3406 3419 
Q 3406 3131 3298 2873 
Q 3191 2616 2906 2266 
Q 2828 2175 2409 1742 
Q 1991 1309 1228 531 
z
" transform="scale(0.015625)"/>
     </defs>
     <use xlink:href="#DejaVuSans-46"/>
     <use xlink:href="#DejaVuSans-20" x="57.519531"/>
     <use xlink:href="#DejaVuSans-5b" x="89.306641"/>
     <use xlink:href="#DejaVuSans-31" x="128.320312"/>
     <use xlink:href="#DejaVuSans-32" x="191.943359"/>
     <use xlink:href="#DejaVuSans-5d" x="255.566406"/>
    </g>
   </g>
   <g id="text_6">
    <!-- G [25] -->
    <g transform="translate(123.022281 14.798437) scale(0.1 -0.1)">
     <defs>
      <path id="DejaVuSans-47" d="M 3809 666 
L 3809 1919 
L 2778 1919 
L 2778 2438 
L 4434 2438 
L 4434 434 
Q 4069 175 3628 42 
Q 3188 -91 2688 -91 
Q 1594 -91 976 548 
Q 359 1188 359 2328 
Q 359 3472 976 4111 
Q 1594 4750 2688 4750 
Q 3144 4750 3555 4637 
Q 3966 4525 4313 4306 
L 4313 3634 
Q 3963 3931 3569 4081 
Q 3175 4231 2741 4231 
Q 1884 4231 1454 3753 
Q 1025 3275 1025 2328 
Q 1025 1384 1454 906 
Q 1884 428 2741 428 
Q 3075 428 3337 486 
Q 3600 544 3809 666 
z
" transform="scale(0.015625)"/>
      <path id="DejaVuSans-35" d="M 691 4666 
L 3169 4666 
L 3169 4134 
L 1269 4134 
L 1269 2991 
Q 1406 3038 1543 3061 
Q 1681 3084 1819 3084 
Q 2600 3084 3056 2656 
Q 3513 2228 3513 1497 
Q 3513 744 3044 326 
Q 2575 -91 1722 -91 
Q 1428 -91 1123 -41 
Q 819 9 494 109 
L 494 744 
Q 775 591 1075 516 
Q 1375 441 1709 441 
Q 2250 441 2565 725 
Q 2881 1009 2881 1497 
Q 2881 1984 2565 2268 
Q 2250 2553 1709 2553 
Q 1456 2553 1204 2497 
Q 953 2441 691 2322 
L 691 4666 
z
" transform="scale(0.015625)"/>
     </defs>
     <use xlink:href="#DejaVuSans-47"/>
     <use xlink:href="#DejaVuSans-20" x="77.490234"/>
     <use xlink:href="#DejaVuSans-5b" x="109.277344"/>
     <use xlink:href="#DejaVuSans-32" x="148.291016"/>
     <use xlink:href="#DejaVuSans-35" x="211.914062"/>
     <use xlink:href="#DejaVuSans-5d" x="275.537109"/>
    </g>
   </g>
   <g id="text_7">
    <!-- H [6] -->
    <g transform="translate(89.765117 26.293062) scale(0.1 -0.1)">
     <defs>
      <path id="DejaVuSans-48" d="M 628 4666 
L 1259 4666 
L 1259 2753 
L 3553 2753 
L 3553 4666 
L 4184 4666 
L 4184 0 
L 3553 0 
L 3553 2222 
L 1259 2222 
L 1259 0 
L 628 0 
L 628 4666 
z
" transform="scale(0.015625)"/>
      <path id="DejaVuSans-36" d="M 2113 2584 
Q 1688 2584 1439 2293 
Q 1191 2003 1191 1497 
Q 1191 994 1439 701 
Q 1688 409 2113 409 
Q 2538 409 2786 701 
Q 3034 994 3034 1497 
Q 3034 2003 2786 2293 
Q 2538 2584 2113 2584 
z
M 3366 4563 
L 3366 3988 
Q 3128 4100 2886 4159 
Q 2644 4219 2406 4219 
Q 1781 4219 1451 3797 
Q 1122 3375 1075 2522 
Q 1259 2794 1537 2939 
Q 1816 3084 2150 3084 
Q 2853 3084 3261 2657 
Q 3669 2231 3669 1497 
Q 3669 778 3244 343 
Q 2819 -91 2113 -91 
Q 1303 -91 875 529 
Q 447 1150 447 2328 
Q 447 3434 972 4092 
Q 1497 4750 2381 4750 
Q 2619 4750 2861 4703 
Q 3103 4656 3366 4563 
z
" transform="scale(0.015625)"/>
     </defs>
     <use xlink:href="#DejaVuSans-48"/>
     <use xlink:href="#DejaVuSans-20" x="75.195312"/>
     <use xlink:href="#DejaVuSans-5b" x="106.982422"/>
     <use xlink:href="#DejaVuSans-36" x="145.996094"/>
     <use xlink:href="#DejaVuSans-5d" x="209.619141"/>
    </g>
   </g>
   <g id="text_8">
    <!-- I [16] -->
    <g transform="translate(62.579455 41.27811) scale(0.1 -0.1)">
     <defs>
      <path id="DejaVuSans-49" d="M 628 4666 
L 1259 4666 
L 1259 0 
L 628 0 
L 628 4666 
z
" transform="scale(0.015625)"/>
     </defs>
     <use xlink:href="#DejaVuSans-49"/>
     <use xlink:href="#DejaVuSans-20" x="29.492188"/>
     <use xlink:href="#DejaVuSans-5b" x="61.279297"/>
     <use xlink:href="#DejaVuSans-31" x="100.292969"/>
     <use xlink:href="#DejaVuSans-36" x="163.916016"/>
     <use xlink:href="#DejaVuSans-5d" x="227.539062"/>
    </g>
   </g>
   <g id="text_9">
    <!-- K [4] -->
    <g transform="translate(45.407988 59.2197) scale(0.1 -0.1)">
     <defs>
      <path id="DejaVuSans-4b" d="M 628 4666 
L 1259 4666 
L 1259 2694 
L 3353 4666 
L 4166 4666 
L 1850 2491 
L 4331 0 
L 3500 0 
L 1259 2247 
L 1259 0 
L 628 0 
L 628 4666 
z
" transform="scale(0.015625)"/>
     </defs>
     <use xlink:href="#DejaVuSans-4b"/>
     <use xlink:href="#DejaVuSans-20" x="65.576172"/>
     <use xlink:href="#DejaVuSans-5b" x="97.363281"/>
     <use xlink:href="#DejaVuSans-34" x="136.376953"/>
     <use xlink:href="#DejaVuSans-5d" x="200"/>
    </g>
   </g>
   <g id="text_10">
    <!-- L [48] -->
    <g transform="translate(7.2 120.032367) scale(0.1 -0.1)">
     <defs>
      <path id="DejaVuSans-4c" d="M 628 4666 
L 1259 4666 
L 1259 531 
L 3531 531 
L 3531 0 
L 628 0 
L 628 4666 
z
" transform="scale(0.015625)"/>
      <path id="DejaVuSans-38" d="M 2034 2216 
Q 1584 2216 1326 1975 
Q 1069 1734 1069 1313 
Q 1069 891 1326 650 
Q 1584 409 2034 409 
Q 2484 409 2743 651 
Q 3003 894 3003 1313 
Q 3003 1734 2745 1975 
Q 2488 2216 2034 2216 
z
M 1403 2484 
Q 997 2584 770 2862 
Q 544 3141 544 3541 
Q 544 4100 942 4425 
Q 1341 4750 2034 4750 
Q 2731 4750 3128 4425 
Q 3525 4100 3525 3541 
Q 3525 3141 3298 2862 
Q 3072 2584 2669 2484 
Q 3125 2378 3379 2068 
Q 3634 1759 3634 1313 
Q 3634 634 3220 271 
Q 2806 -91 2034 -91 
Q 1263 -91 848 271 
Q 434 634 434 1313 
Q 434 1759 690 2068 
Q 947 2378 1403 2484 
z
M 1172 3481 
Q 1172 3119 1398 2916 
Q 1625 2713 2034 2713 
Q 2441 2713 2670 2916 
Q 2900 3119 2900 3481 
Q 2900 3844 2670 4047 
Q 2441 4250 2034 4250 
Q 1625 4250 1398 4047 
Q 1172 3844 1172 3481 
z
" transform="scale(0.015625)"/>
     </defs>
     <use xlink:href="#DejaVuSans-4c"/>
     <use xlink:href="#DejaVuSans-20" x="55.712891"/>
     <use xlink:href="#DejaVuSans-5b" x="87.5"/>
     <use xlink:href="#DejaVuSans-34" x="126.513672"/>
     <use xlink:href="#DejaVuSans-38" x="190.136719"/>
     <use xlink:href="#DejaVuSans-5d" x="253.759766"/>
    </g>
   </g>
   <g id="text_11">
    <!-- M [8] -->
    <g transform="translate(11.920897 194.32235) scale(0.1 -0.1)">
     <defs>
      <path id="DejaVuSans-4d" d="M 628 4666 
L 1569 4666 
L 2759 1491 
L 3956 4666 
L 4897 4666 
L 4897 0 
L 4281 0 
L 4281 4097 
L 3078 897 
L 2444 897 
L 1241 4097 
L 1241 0 
L 628 0 
L 628 4666 
z
" transform="scale(0.015625)"/>
     </defs>
     <use xlink:href="#DejaVuSans-4d"/>
     <use xlink:href="#DejaVuSans-20" x="86.279297"/>
     <use xlink:href="#DejaVuSans-5b" x="118.066406"/>
     <use xlink:href="#DejaVuSans-38" x="157.080078"/>
     <use xlink:href="#DejaVuSans-5d" x="220.703125"/>
    </g>
   </g>
   <g id="text_12">
    <!-- N [9] -->
    <g transform="translate(21.238866 215.608782) scale(0.1 -0.1)">
     <defs>
      <path id="DejaVuSans-4e" d="M 628 4666 
L 1478 4666 
L 3547 763 
L 3547 4666 
L 4159 4666 
L 4159 0 
L 3309 0 
L 1241 3903 
L 1241 0 
L 628 0 
L 628 4666 
z
" transform="scale(0.015625)"/>
      <path id="DejaVuSans-39" d="M 703 97 
L 703 672 
Q 941 559 1184 500 
Q 1428 441 1663 441 
Q 2288 441 2617 861 
Q 2947 1281 2994 2138 
Q 2813 1869 2534 1725 
Q 2256 1581 1919 1581 
Q 1219 1581 811 2004 
Q 403 2428 403 3163 
Q 403 3881 828 4315 
Q 1253 4750 1959 4750 
Q 2769 4750 3195 4129 
Q 3622 3509 3622 2328 
Q 3622 1225 3098 567 
Q 2575 -91 1691 -91 
Q 1453 -91 1209 -44 
Q 966 3 703 97 
z
M 1959 2075 
Q 2384 2075 2632 2365 
Q 2881 2656 2881 3163 
Q 2881 3666 2632 3958 
Q 2384 4250 1959 4250 
Q 1534 4250 1286 3958 
Q 1038 3666 1038 3163 
Q 1038 2656 1286 2365 
Q 1534 2075 1959 2075 
z
" transform="scale(0.015625)"/>
     </defs>
     <use xlink:href="#DejaVuSans-4e"/>
     <use xlink:href="#DejaVuSans-20" x="74.804688"/>
     <use xlink:href="#DejaVuSans-5b" x="106.591797"/>
     <use xlink:href="#DejaVuSans-39" x="145.605469"/>
     <use xlink:href="#DejaVuSans-5d" x="209.228516"/>
    </g>
   </g>
   <g id="text_13">
    <!-- P [17] -->
    <g transform="translate(35.153545 244.902015) scale(0.1 -0.1)">
     <defs>
      <path id="DejaVuSans-50" d="M 1259 4147 
L 1259 2394 
L 2053 2394 
Q 2494 2394 2734 2622 
Q 2975 2850 2975 3272 
Q 2975 3691 2734 3919 
Q 2494 4147 2053 4147 
L 1259 4147 
z
M 628 4666 
L 2053 4666 
Q 2838 4666 3239 4311 
Q 3641 3956 3641 3272 
Q 3641 2581 3239 2228 
Q 2838 1875 2053 1875 
L 1259 1875 
L 1259 0 
L 628 0 
L 628 4666 
z
" transform="scale(0.015625)"/>
     </defs>
     <use xlink:href="#DejaVuSans-50"/>
     <use xlink:href="#DejaVuSans-20" x="60.302734"/>
     <use xlink:href="#DejaVuSans-5b" x="92.089844"/>
     <use xlink:href="#DejaVuSans-31" x="131.103516"/>
     <use xlink:href="#DejaVuSans-37" x="194.726562"/>
     <use xlink:href="#DejaVuSans-5d" x="258.349609"/>
    </g>
   </g>
   <g id="text_14">
    <!-- Q [7] -->
    <g transform="translate(62.945199 267.091197) scale(0.1 -0.1)">
     <defs>
      <path id="DejaVuSans-51" d="M 2522 4238 
Q 1834 4238 1429 3725 
Q 1025 3213 1025 2328 
Q 1025 1447 1429 934 
Q 1834 422 2522 422 
Q 3209 422 3611 934 
Q 4013 1447 4013 2328 
Q 4013 3213 3611 3725 
Q 3209 4238 2522 4238 
z
M 3406 84 
L 4238 -825 
L 3475 -825 
L 2784 -78 
Q 2681 -84 2626 -87 
Q 2572 -91 2522 -91 
Q 1538 -91 948 567 
Q 359 1225 359 2328 
Q 359 3434 948 4092 
Q 1538 4750 2522 4750 
Q 3503 4750 4090 4092 
Q 4678 3434 4678 2328 
Q 4678 1516 4351 937 
Q 4025 359 3406 84 
z
" transform="scale(0.015625)"/>
     </defs>
     <use xlink:href="#DejaVuSans-51"/>
     <use xlink:href="#DejaVuSans-20" x="78.710938"/>
     <use xlink:href="#DejaVuSans-5b" x="110.498047"/>
     <use xlink:href="#DejaVuSans-37" x="149.511719"/>
     <use xlink:href="#DejaVuSans-5d" x="213.134766"/>
    </g>
   </g>
   <g id="text_15">
    <!-- R [12] -->
    <g transform="translate(79.132722 280.557323) scale(0.1 -0.1)">
     <defs>
      <path id="DejaVuSans-52" d="M 2841 2188 
Q 3044 2119 3236 1894 
Q 3428 1669 3622 1275 
L 4263 0 
L 3584 0 
L 2988 1197 
Q 2756 1666 2539 1819 
Q 2322 1972 1947 1972 
L 1259 1972 
L 1259 0 
L 628 0 
L 628 4666 
L 2053 4666 
Q 2853 4666 3247 4331 
Q 3641 3997 3641 3322 
Q 3641 2881 3436 2590 
Q 3231 2300 2841 2188 
z
M 1259 4147 
L 1259 2491 
L 2053 2491 
Q 2509 2491 2742 2702 
Q 2975 2913 2975 3322 
Q 2975 3731 2742 3939 
Q 2509 4147 2053 4147 
L 1259 4147 
z
" transform="scale(0.015625)"/>
     </defs>
     <use xlink:href="#DejaVuSans-52"/>
     <use xlink:href="#DejaVuSans-20" x="69.482422"/>
     <use xlink:href="#DejaVuSans-5b" x="101.269531"/>
     <use xlink:href="#DejaVuSans-31" x="140.283203"/>
     <use xlink:href="#DejaVuSans-32" x="203.90625"/>
     <use xlink:href="#DejaVuSans-5d" x="267.529297"/>
    </g>
   </g>
   <g id="text_16">
    <!-- S [27] -->
    <g transform="translate(129.757709 294.987698) scale(0.1 -0.1)">
     <defs>
      <path id="DejaVuSans-53" d="M 3425 4513 
L 3425 3897 
Q 3066 4069 2747 4153 
Q 2428 4238 2131 4238 
Q 1616 4238 1336 4038 
Q 1056 3838 1056 3469 
Q 1056 3159 1242 3001 
Q 1428 2844 1947 2747 
L 2328 2669 
Q 3034 2534 3370 2195 
Q 3706 1856 3706 1288 
Q 3706 609 3251 259 
Q 2797 -91 1919 -91 
Q 1588 -91 1214 -16 
Q 841 59 441 206 
L 441 856 
Q 825 641 1194 531 
Q 1563 422 1919 422 
Q 2459 422 2753 634 
Q 3047 847 3047 1241 
Q 3047 1584 2836 1778 
Q 2625 1972 2144 2069 
L 1759 2144 
Q 1053 2284 737 2584 
Q 422 2884 422 3419 
Q 422 4038 858 4394 
Q 1294 4750 2059 4750 
Q 2388 4750 2728 4690 
Q 3069 4631 3425 4513 
z
" transform="scale(0.015625)"/>
     </defs>
     <use xlink:href="#DejaVuSans-53"/>
     <use xlink:href="#DejaVuSans-20" x="63.476562"/>
     <use xlink:href="#DejaVuSans-5b" x="95.263672"/>
     <use xlink:href="#DejaVuSans-32" x="134.277344"/>
     <use xlink:href="#DejaVuSans-37" x="197.900391"/>
     <use xlink:href="#DejaVuSans-5d" x="261.523438"/>
    </g>
   </g>
   <g id="text_17">
    <!-- T [19] -->
    <g transform="translate(220.61523 287.424106) scale(0.1 -0.1)">
     <defs>
      <path id="DejaVuSans-54" d="M -19 4666 
L 3928 4666 
L 3928 4134 
L 2272 4134 
L 2272 0 
L 1638 0 
L 1638 4134 
L -19 4134 
L -19 4666 
z
" transform="scale(0.015625)"/>
     </defs>
     <use xlink:href="#DejaVuSans-54"/>
     <use xlink:href="#DejaVuSans-20" x="61.083984"/>
     <use xlink:href="#DejaVuSans-5b" x="92.871094"/>
     <use xlink:href="#DejaVuSans-31" x="131.884766"/>
     <use xlink:href="#DejaVuSans-39" x="195.507812"/>
     <use xlink:href="#DejaVuSans-5d" x="259.130859"/>
    </g>
   </g>
   <g id="text_18">
    <!-- V [35] -->
    <g transform="translate(279.809479 246.948121) scale(0.1 -0.1)">
     <defs>
      <path id="DejaVuSans-56" d="M 1831 0 
L 50 4666 
L 709 4666 
L 2188 738 
L 3669 4666 
L 4325 4666 
L 2547 0 
L 1831 0 
z
" transform="scale(0.015625)"/>
     </defs>
     <use xlink:href="#DejaVuSans-56"/>
     <use xlink:href="#DejaVuSans-20" x="68.408203"/>
     <use xlink:href="#DejaVuSans-5b" x="100.195312"/>
     <use xlink:href="#DejaVuSans-33" x="139.208984"/>
     <use xlink:href="#DejaVuSans-35" x="202.832031"/>
     <use xlink:href="#DejaVuSans-5d" x="266.455078"/>
    </g>
   </g>
   <g id="text_19">
    <!-- W [7] -->
    <g transform="translate(307.355449 198.170541) scale(0.1 -0.1)">
     <defs>
      <path id="DejaVuSans-57" d="M 213 4666 
L 850 4666 
L 1831 722 
L 2809 4666 
L 3519 4666 
L 4500 722 
L 5478 4666 
L 6119 4666 
L 4947 0 
L 4153 0 
L 3169 4050 
L 2175 0 
L 1381 0 
L 213 4666 
z
" transform="scale(0.015625)"/>
     </defs>
     <use xlink:href="#DejaVuSans-57"/>
     <use xlink:href="#DejaVuSans-20" x="98.876953"/>
     <use xlink:href="#DejaVuSans-5b" x="130.664062"/>
     <use xlink:href="#DejaVuSans-37" x="169.677734"/>
     <use xlink:href="#DejaVuSans-5d" x="233.300781"/>
    </g>
   </g>
   <g id="text_20">
    <!-- Y [13] -->
    <g transform="translate(313.179673 171.997449) scale(0.1 -0.1)">
     <defs>
      <path id="DejaVuSans-59" d="M -13 4666 
L 666 4666 
L 1959 2747 
L 3244 4666 
L 3922 4666 
L 2272 2222 
L 2272 0 
L 1638 0 
L 1638 2222 
L -13 4666 
z
" transform="scale(0.015625)"/>
     </defs>
     <use xlink:href="#DejaVuSans-59"/>
     <use xlink:href="#DejaVuSans-20" x="61.083984"/>
     <use xlink:href="#DejaVuSans-5b" x="92.871094"/>
     <use xlink:href="#DejaVuSans-31" x="131.884766"/>
     <use xlink:href="#DejaVuSans-33" x="195.507812"/>
     <use xlink:href="#DejaVuSans-5d" x="259.130859"/>
    </g>
   </g>
   <g id="text_21">
    <!-- A0A8I3NRR3 [330] -->
    <g transform="translate(117.102173 151.827601) scale(0.12 -0.12)">
     <defs>
      <path id="DejaVuSans-30" d="M 2034 4250 
Q 1547 4250 1301 3770 
Q 1056 3291 1056 2328 
Q 1056 1369 1301 889 
Q 1547 409 2034 409 
Q 2525 409 2770 889 
Q 3016 1369 3016 2328 
Q 3016 3291 2770 3770 
Q 2525 4250 2034 4250 
z
M 2034 4750 
Q 2819 4750 3233 4129 
Q 3647 3509 3647 2328 
Q 3647 1150 3233 529 
Q 2819 -91 2034 -91 
Q 1250 -91 836 529 
Q 422 1150 422 2328 
Q 422 3509 836 4129 
Q 1250 4750 2034 4750 
z
" transform="scale(0.015625)"/>
     </defs>
     <use xlink:href="#DejaVuSans-41"/>
     <use xlink:href="#DejaVuSans-30" x="68.408203"/>
     <use xlink:href="#DejaVuSans-41" x="132.03125"/>
     <use xlink:href="#DejaVuSans-38" x="200.439453"/>
     <use xlink:href="#DejaVuSans-49" x="264.0625"/>
     <use xlink:href="#DejaVuSans-33" x="293.554688"/>
     <use xlink:href="#DejaVuSans-4e" x="357.177734"/>
     <use xlink:href="#DejaVuSans-52" x="431.982422"/>
     <use xlink:href="#DejaVuSans-52" x="501.464844"/>
     <use xlink:href="#DejaVuSans-33" x="570.947266"/>
     <use xlink:href="#DejaVuSans-20" x="634.570312"/>
     <use xlink:href="#DejaVuSans-5b" x="666.357422"/>
     <use xlink:href="#DejaVuSans-33" x="705.371094"/>
     <use xlink:href="#DejaVuSans-33" x="768.994141"/>
     <use xlink:href="#DejaVuSans-30" x="832.617188"/>
     <use xlink:href="#DejaVuSans-5d" x="896.240234"/>
    </g>
   </g>
  </g>
 </g>
</svg>
