<?xml version="1.0" encoding="utf-8" standalone="no"?>
<!DOCTYPE svg PUBLIC "-//W3C//DTD SVG 1.1//EN"
  "http://www.w3.org/Graphics/SVG/1.1/DTD/svg11.dtd">
<svg xmlns:xlink="http://www.w3.org/1999/xlink" width="354.451296pt" height="304.388591pt" viewBox="0 0 354.451296 304.388591" xmlns="http://www.w3.org/2000/svg" version="1.1">
 <metadata>
  <rdf:RDF xmlns:dc="http://purl.org/dc/elements/1.1/" xmlns:cc="http://creativecommons.org/ns#" xmlns:rdf="http://www.w3.org/1999/02/22-rdf-syntax-ns#">
   <cc:Work>
    <dc:type rdf:resource="http://purl.org/dc/dcmitype/StillImage"/>
    <dc:date>2024-09-27T16:07:37.966810</dc:date>
    <dc:format>image/svg+xml</dc:format>
    <dc:creator>
     <cc:Agent>
      <dc:title>Matplotlib v3.8.3, https://matplotlib.org/</dc:title>
     </cc:Agent>
    </dc:creator>
   </cc:Work>
  </rdf:RDF>
 </metadata>
 <defs>
  <style type="text/css">*{stroke-linejoin: round; stroke-linecap: butt}</style>
 </defs>
 <g id="figure_1">
  <g id="patch_1">
   <path d="M 0 304.388591 
L 354.451296 304.388591 
L 354.451296 0 
L 0 0 
z
" style="fill: #ffffff"/>
  </g>
  <g id="axes_1">
   <g id="patch_2">
    <path d="M 305.387811 152.86257 
C 305.387811 145.360719 304.726932 137.87343 303.412839 130.48757 
C 302.098747 123.101709 300.136545 115.845952 297.548996 108.804477 
L 177.654051 152.86257 
z
" style="fill: #1f77b4"/>
   </g>
   <g id="patch_3">
    <path d="M 297.515524 108.691188 
C 296.834999 106.839281 296.111659 105.003389 295.346085 103.184992 
C 294.580511 101.366594 293.772909 99.566178 292.923929 97.785193 
L 177.620579 152.749281 
z
" style="fill: #ff7f0e"/>
   </g>
   <g id="patch_4">
    <path d="M 292.900366 97.736348 
C 291.88157 95.599123 290.803549 93.490639 289.667552 91.413337 
C 288.531555 89.336035 287.338021 87.290719 286.088334 85.279761 
L 177.597017 152.700436 
z
" style="fill: #aec7e8"/>
   </g>
   <g id="patch_5">
    <path d="M 286.048447 85.217522 
C 284.173765 82.200841 282.174078 79.263663 280.054598 76.413645 
C 277.935119 73.563628 275.697691 70.803251 273.348148 68.139711 
L 177.557129 152.638197 
z
" style="fill: #ffbb78"/>
   </g>
   <g id="patch_6">
    <path d="M 273.208252 68.009215 
C 265.36499 59.117766 256.321813 51.361493 246.339468 44.96404 
C 236.357123 38.566587 225.532485 33.590038 214.17767 30.177886 
L 177.417232 152.507701 
z
" style="fill: #98df8a"/>
   </g>
   <g id="patch_7">
    <path d="M 213.981294 30.101563 
C 209.067286 28.62489 204.068762 27.445653 199.012902 26.570263 
C 193.957041 25.694873 188.853023 25.12492 183.728602 24.863503 
L 177.220857 152.431378 
z
" style="fill: #2ca02c"/>
   </g>
   <g id="patch_8">
    <path d="M 183.615613 24.856163 
C 179.674237 24.655098 175.725658 24.636802 171.782588 24.801333 
C 167.839517 24.965864 163.906189 25.313047 159.995264 25.841763 
L 177.107868 152.424038 
z
" style="fill: #d62728"/>
   </g>
   <g id="patch_9">
    <path d="M 159.795136 25.889957 
C 147.259534 27.58464 135.04492 31.132085 123.551725 36.415999 
C 112.05853 41.699912 101.413734 48.661915 91.966304 57.073773 
L 176.90774 152.472232 
z
" style="fill: #9467bd"/>
   </g>
   <g id="patch_10">
    <path d="M 91.773612 57.224129 
C 86.466059 61.949898 81.562133 67.11037 77.112909 72.651797 
C 72.663684 78.193224 68.68466 84.096302 65.217279 90.299549 
L 176.715047 152.622588 
z
" style="fill: #ff9896"/>
   </g>
   <g id="patch_11">
    <path d="M 65.101526 90.593339 
C 56.01744 106.845039 50.595465 124.888057 49.216413 143.45514 
C 47.837361 162.022223 50.534293 180.668265 57.117789 198.083659 
L 176.599294 152.916377 
z
" style="fill: #c5b0d5"/>
   </g>
   <g id="patch_12">
    <path d="M 57.170263 198.35654 
C 58.565766 202.048078 60.131601 205.672959 61.862729 209.219517 
C 63.593857 212.766074 65.488419 216.230499 67.540316 219.60164 
L 176.651769 153.189259 
z
" style="fill: #c49c94"/>
   </g>
   <g id="patch_13">
    <path d="M 67.619475 219.720258 
C 71.519899 226.128414 75.977281 232.180521 80.939909 237.806363 
C 85.902536 243.432205 91.351142 248.609941 97.222513 253.2795 
L 176.730927 153.307876 
z
" style="fill: #8c564b"/>
   </g>
   <g id="patch_14">
    <path d="M 97.334466 253.375522 
C 100.732223 256.077791 104.265537 258.605084 107.920646 260.947559 
C 111.575756 263.290034 115.347911 265.444646 119.222424 267.403005 
L 176.84288 153.403898 
z
" style="fill: #e377c2"/>
   </g>
   <g id="patch_15">
    <path d="M 119.30992 267.448253 
C 122.479749 269.050432 125.715024 270.519705 129.007309 271.852241 
C 132.299594 273.184777 135.646025 274.379417 139.037876 275.433046 
L 176.930377 153.449146 
z
" style="fill: #7f7f7f"/>
   </g>
   <g id="patch_16">
    <path d="M 139.132213 275.461394 
C 143.278106 276.749254 147.486961 277.824917 151.742388 278.684193 
C 155.997815 279.543469 160.294284 280.185241 164.615062 280.607011 
L 177.024713 153.477494 
z
" style="fill: #f7b6d2"/>
   </g>
   <g id="patch_17">
    <path d="M 164.80147 280.61133 
C 175.418534 281.647707 186.123731 281.350007 196.66679 279.725191 
C 207.209848 278.100375 217.507962 275.161204 227.320376 270.976392 
L 177.211122 153.481813 
z
" style="fill: #c7c7c7"/>
   </g>
   <g id="patch_18">
    <path d="M 227.554931 270.878918 
C 236.638815 267.00481 245.242851 262.090283 253.194482 256.233899 
C 261.146112 250.377515 268.391821 243.618689 274.786292 236.092973 
L 177.445676 153.384339 
z
" style="fill: #dbdb8d"/>
   </g>
   <g id="patch_19">
    <path d="M 274.932819 235.928406 
C 280.046342 229.91025 284.590749 223.430819 288.507634 216.57339 
C 292.424519 209.71596 295.697029 202.510036 298.283105 195.048231 
L 177.592204 153.219773 
z
" style="fill: #bcbd22"/>
   </g>
   <g id="patch_20">
    <path d="M 298.334076 194.925577 
C 299.238635 192.315583 300.058293 189.676933 300.791756 187.01379 
C 301.525219 184.350647 302.172102 181.664413 302.731383 178.959325 
L 177.643175 153.097119 
z
" style="fill: #17becf"/>
   </g>
   <g id="patch_21">
    <path d="M 302.747725 178.872166 
C 303.62671 174.620766 304.288383 170.327318 304.730168 166.00854 
C 305.171954 161.689763 305.393278 157.351269 305.393277 153.009954 
L 177.659517 153.00996 
z
" style="fill: #9edae5"/>
   </g>
   <g id="patch_22">
    <path d="M 251.641416 152.955799 
C 251.641416 148.579719 251.255903 144.212134 250.489349 139.903716 
C 249.722796 135.595297 248.578177 131.362772 247.068774 127.255245 
L 177.130056 152.955799 
z
" style="fill: #ffffff"/>
   </g>
   <g id="patch_23">
    <path d="M 247.068774 127.255245 
C 246.671801 126.174966 246.249853 125.104029 245.803268 124.043297 
C 245.356683 122.982565 244.885582 121.932322 244.390344 120.893414 
L 177.130056 152.955799 
z
" style="fill: #ffffff"/>
   </g>
   <g id="patch_24">
    <path d="M 244.390344 120.893414 
C 243.796046 119.6467 243.1672 118.416751 242.504535 117.204991 
C 241.84187 115.993232 241.145642 114.800131 240.416658 113.627072 
L 177.130056 152.955799 
z
" style="fill: #ffffff"/>
   </g>
   <g id="patch_25">
    <path d="M 240.416658 113.627072 
C 239.323094 111.867342 238.15661 110.153988 236.920247 108.491478 
C 235.683884 106.828967 234.378717 105.218747 233.008151 103.665016 
L 177.130056 152.955799 
z
" style="fill: #ffffff"/>
   </g>
   <g id="patch_26">
    <path d="M 233.008151 103.665016 
C 228.432915 98.478337 223.157728 93.953845 217.334694 90.221997 
C 211.511659 86.49015 205.197287 83.587163 198.573645 81.59674 
L 177.130056 152.955799 
z
" style="fill: #ffffff"/>
   </g>
   <g id="patch_27">
    <path d="M 198.573645 81.59674 
C 195.70714 80.735348 192.791335 80.04746 189.842083 79.536816 
C 186.892831 79.026172 183.915487 78.693699 180.926241 78.541206 
L 177.130056 152.955799 
z
" style="fill: #ffffff"/>
   </g>
   <g id="patch_28">
    <path d="M 180.926241 78.541206 
C 178.627105 78.423918 176.323768 78.413245 174.023643 78.509221 
C 171.723519 78.605198 169.429077 78.807721 167.147704 79.116139 
L 177.130056 152.955799 
z
" style="fill: #ffffff"/>
   </g>
   <g id="patch_29">
    <path d="M 167.147704 79.116139 
C 159.83527 80.104704 152.710078 82.174047 146.005715 85.25633 
C 139.301351 88.338613 133.091886 92.399781 127.580886 97.306698 
L 177.130056 152.955799 
z
" style="fill: #ffffff"/>
   </g>
   <g id="patch_30">
    <path d="M 127.580886 97.306698 
C 124.484813 100.063397 121.62419 103.073672 119.028809 106.306171 
C 116.433428 109.53867 114.11233 112.982132 112.089692 116.600694 
L 177.130056 152.955799 
z
" style="fill: #ffffff"/>
   </g>
   <g id="patch_31">
    <path d="M 112.089692 116.600694 
C 106.790641 126.080852 103.627822 136.605946 102.823376 147.436744 
C 102.018929 158.267543 103.592139 169.1444 107.432512 179.30338 
L 177.130056 152.955799 
z
" style="fill: #ffffff"/>
   </g>
   <g id="patch_32">
    <path d="M 107.432512 179.30338 
C 108.246555 181.456777 109.159958 183.571291 110.169783 185.640116 
C 111.179608 187.708942 112.284769 189.729856 113.481709 191.696355 
L 177.130056 152.955799 
z
" style="fill: #ffffff"/>
   </g>
   <g id="patch_33">
    <path d="M 113.481709 191.696355 
C 115.756956 195.434446 118.357096 198.964842 121.251962 202.246583 
C 124.146828 205.528324 127.325182 208.548671 130.750148 211.27258 
L 177.130056 152.955799 
z
" style="fill: #ffffff"/>
   </g>
   <g id="patch_34">
    <path d="M 130.750148 211.27258 
C 132.732173 212.848904 134.793272 214.323158 136.92542 215.689602 
C 139.057567 217.056045 141.257991 218.312902 143.518123 219.455278 
L 177.130056 152.955799 
z
" style="fill: #ffffff"/>
   </g>
   <g id="patch_35">
    <path d="M 143.518123 219.455278 
C 145.36719 220.389883 147.254434 221.246959 149.174933 222.024272 
C 151.095433 222.801584 153.047518 223.498458 155.026098 224.113074 
L 177.130056 152.955799 
z
" style="fill: #ffffff"/>
   </g>
   <g id="patch_36">
    <path d="M 155.026098 224.113074 
C 157.444535 224.864326 159.899701 225.491796 162.382033 225.99304 
C 164.864366 226.494285 167.370639 226.868652 169.891093 227.114684 
L 177.130056 152.955799 
z
" style="fill: #ffffff"/>
   </g>
   <g id="patch_37">
    <path d="M 169.891093 227.114684 
C 176.08438 227.719237 182.329079 227.545579 188.479196 226.59777 
C 194.629314 225.64996 200.636547 223.935444 206.360455 221.494304 
L 177.130056 152.955799 
z
" style="fill: #ffffff"/>
   </g>
   <g id="patch_38">
    <path d="M 206.360455 221.494304 
C 211.659387 219.234408 216.678408 216.3676 221.316859 212.951376 
C 225.955311 209.535152 230.181974 205.592503 233.912082 201.202502 
L 177.130056 152.955799 
z
" style="fill: #ffffff"/>
   </g>
   <g id="patch_39">
    <path d="M 233.912082 201.202502 
C 236.89497 197.691911 239.545875 193.912243 241.830724 189.912076 
C 244.115573 185.911909 246.024538 181.708453 247.533082 177.355733 
L 177.130056 152.955799 
z
" style="fill: #ffffff"/>
   </g>
   <g id="patch_40">
    <path d="M 247.533082 177.355733 
C 248.060741 175.833237 248.538875 174.294024 248.966728 172.740524 
C 249.394582 171.187024 249.77193 169.620054 250.098178 168.042086 
L 177.130056 152.955799 
z
" style="fill: #ffffff"/>
   </g>
   <g id="patch_41">
    <path d="M 250.098178 168.042086 
C 250.610918 165.562103 250.996895 163.057591 251.254603 160.538304 
C 251.512311 158.019017 251.641416 155.48823 251.641416 152.955796 
L 177.130056 152.955799 
z
" style="fill: #ffffff"/>
   </g>
   <g id="matplotlib.axis_1"/>
   <g id="matplotlib.axis_2"/>
   <g id="text_1">
    <!-- A [19] -->
    <g transform="translate(315.988718 131.009445) scale(0.1 -0.1)">
     <defs>
      <path id="DejaVuSans-41" d="M 2188 4044 
L 1331 1722 
L 3047 1722 
L 2188 4044 
z
M 1831 4666 
L 2547 4666 
L 4325 0 
L 3669 0 
L 3244 1197 
L 1141 1197 
L 716 0 
L 50 0 
L 1831 4666 
z
" transform="scale(0.015625)"/>
      <path id="DejaVuSans-20" transform="scale(0.015625)"/>
      <path id="DejaVuSans-5b" d="M 550 4863 
L 1875 4863 
L 1875 4416 
L 1125 4416 
L 1125 -397 
L 1875 -397 
L 1875 -844 
L 550 -844 
L 550 4863 
z
" transform="scale(0.015625)"/>
      <path id="DejaVuSans-31" d="M 794 531 
L 1825 531 
L 1825 4091 
L 703 3866 
L 703 4441 
L 1819 4666 
L 2450 4666 
L 2450 531 
L 3481 531 
L 3481 0 
L 794 0 
L 794 531 
z
" transform="scale(0.015625)"/>
      <path id="DejaVuSans-39" d="M 703 97 
L 703 672 
Q 941 559 1184 500 
Q 1428 441 1663 441 
Q 2288 441 2617 861 
Q 2947 1281 2994 2138 
Q 2813 1869 2534 1725 
Q 2256 1581 1919 1581 
Q 1219 1581 811 2004 
Q 403 2428 403 3163 
Q 403 3881 828 4315 
Q 1253 4750 1959 4750 
Q 2769 4750 3195 4129 
Q 3622 3509 3622 2328 
Q 3622 1225 3098 567 
Q 2575 -91 1691 -91 
Q 1453 -91 1209 -44 
Q 966 3 703 97 
z
M 1959 2075 
Q 2384 2075 2632 2365 
Q 2881 2656 2881 3163 
Q 2881 3666 2632 3958 
Q 2384 4250 1959 4250 
Q 1534 4250 1286 3958 
Q 1038 3666 1038 3163 
Q 1038 2656 1286 2365 
Q 1534 2075 1959 2075 
z
" transform="scale(0.015625)"/>
      <path id="DejaVuSans-5d" d="M 1947 4863 
L 1947 -844 
L 622 -844 
L 622 -397 
L 1369 -397 
L 1369 4416 
L 622 4416 
L 622 4863 
L 1947 4863 
z
" transform="scale(0.015625)"/>
     </defs>
     <use xlink:href="#DejaVuSans-41"/>
     <use xlink:href="#DejaVuSans-20" x="68.408203"/>
     <use xlink:href="#DejaVuSans-5b" x="100.195312"/>
     <use xlink:href="#DejaVuSans-31" x="139.208984"/>
     <use xlink:href="#DejaVuSans-39" x="202.832031"/>
     <use xlink:href="#DejaVuSans-5d" x="266.455078"/>
    </g>
   </g>
   <g id="text_2">
    <!-- C [5] -->
    <g transform="translate(307.118635 100.987938) scale(0.1 -0.1)">
     <defs>
      <path id="DejaVuSans-43" d="M 4122 4306 
L 4122 3641 
Q 3803 3938 3442 4084 
Q 3081 4231 2675 4231 
Q 1875 4231 1450 3742 
Q 1025 3253 1025 2328 
Q 1025 1406 1450 917 
Q 1875 428 2675 428 
Q 3081 428 3442 575 
Q 3803 722 4122 1019 
L 4122 359 
Q 3791 134 3420 21 
Q 3050 -91 2638 -91 
Q 1578 -91 968 557 
Q 359 1206 359 2328 
Q 359 3453 968 4101 
Q 1578 4750 2638 4750 
Q 3056 4750 3426 4639 
Q 3797 4528 4122 4306 
z
" transform="scale(0.015625)"/>
      <path id="DejaVuSans-35" d="M 691 4666 
L 3169 4666 
L 3169 4134 
L 1269 4134 
L 1269 2991 
Q 1406 3038 1543 3061 
Q 1681 3084 1819 3084 
Q 2600 3084 3056 2656 
Q 3513 2228 3513 1497 
Q 3513 744 3044 326 
Q 2575 -91 1722 -91 
Q 1428 -91 1123 -41 
Q 819 9 494 109 
L 494 744 
Q 775 591 1075 516 
Q 1375 441 1709 441 
Q 2250 441 2565 725 
Q 2881 1009 2881 1497 
Q 2881 1984 2565 2268 
Q 2250 2553 1709 2553 
Q 1456 2553 1204 2497 
Q 953 2441 691 2322 
L 691 4666 
z
" transform="scale(0.015625)"/>
     </defs>
     <use xlink:href="#DejaVuSans-43"/>
     <use xlink:href="#DejaVuSans-20" x="69.824219"/>
     <use xlink:href="#DejaVuSans-5b" x="101.611328"/>
     <use xlink:href="#DejaVuSans-35" x="140.625"/>
     <use xlink:href="#DejaVuSans-5d" x="204.248047"/>
    </g>
   </g>
   <g id="text_3">
    <!-- D [6] -->
    <g transform="translate(300.874606 88.044002) scale(0.1 -0.1)">
     <defs>
      <path id="DejaVuSans-44" d="M 1259 4147 
L 1259 519 
L 2022 519 
Q 2988 519 3436 956 
Q 3884 1394 3884 2338 
Q 3884 3275 3436 3711 
Q 2988 4147 2022 4147 
L 1259 4147 
z
M 628 4666 
L 1925 4666 
Q 3281 4666 3915 4102 
Q 4550 3538 4550 2338 
Q 4550 1131 3912 565 
Q 3275 0 1925 0 
L 628 0 
L 628 4666 
z
" transform="scale(0.015625)"/>
      <path id="DejaVuSans-36" d="M 2113 2584 
Q 1688 2584 1439 2293 
Q 1191 2003 1191 1497 
Q 1191 994 1439 701 
Q 1688 409 2113 409 
Q 2538 409 2786 701 
Q 3034 994 3034 1497 
Q 3034 2003 2786 2293 
Q 2538 2584 2113 2584 
z
M 3366 4563 
L 3366 3988 
Q 3128 4100 2886 4159 
Q 2644 4219 2406 4219 
Q 1781 4219 1451 3797 
Q 1122 3375 1075 2522 
Q 1259 2794 1537 2939 
Q 1816 3084 2150 3084 
Q 2853 3084 3261 2657 
Q 3669 2231 3669 1497 
Q 3669 778 3244 343 
Q 2819 -91 2113 -91 
Q 1303 -91 875 529 
Q 447 1150 447 2328 
Q 447 3434 972 4092 
Q 1497 4750 2381 4750 
Q 2619 4750 2861 4703 
Q 3103 4656 3366 4563 
z
" transform="scale(0.015625)"/>
     </defs>
     <use xlink:href="#DejaVuSans-44"/>
     <use xlink:href="#DejaVuSans-20" x="77.001953"/>
     <use xlink:href="#DejaVuSans-5b" x="108.789062"/>
     <use xlink:href="#DejaVuSans-36" x="147.802734"/>
     <use xlink:href="#DejaVuSans-5d" x="211.425781"/>
    </g>
   </g>
   <g id="text_4">
    <!-- E [9] -->
    <g transform="translate(290.304345 71.550565) scale(0.1 -0.1)">
     <defs>
      <path id="DejaVuSans-45" d="M 628 4666 
L 3578 4666 
L 3578 4134 
L 1259 4134 
L 1259 2753 
L 3481 2753 
L 3481 2222 
L 1259 2222 
L 1259 531 
L 3634 531 
L 3634 0 
L 628 0 
L 628 4666 
z
" transform="scale(0.015625)"/>
     </defs>
     <use xlink:href="#DejaVuSans-45"/>
     <use xlink:href="#DejaVuSans-20" x="63.183594"/>
     <use xlink:href="#DejaVuSans-5b" x="94.970703"/>
     <use xlink:href="#DejaVuSans-39" x="133.984375"/>
     <use xlink:href="#DejaVuSans-5d" x="197.607422"/>
    </g>
   </g>
   <g id="text_5">
    <!-- F [30] -->
    <g transform="translate(253.231691 36.969049) scale(0.1 -0.1)">
     <defs>
      <path id="DejaVuSans-46" d="M 628 4666 
L 3309 4666 
L 3309 4134 
L 1259 4134 
L 1259 2759 
L 3109 2759 
L 3109 2228 
L 1259 2228 
L 1259 0 
L 628 0 
L 628 4666 
z
" transform="scale(0.015625)"/>
      <path id="DejaVuSans-33" d="M 2597 2516 
Q 3050 2419 3304 2112 
Q 3559 1806 3559 1356 
Q 3559 666 3084 287 
Q 2609 -91 1734 -91 
Q 1441 -91 1130 -33 
Q 819 25 488 141 
L 488 750 
Q 750 597 1062 519 
Q 1375 441 1716 441 
Q 2309 441 2620 675 
Q 2931 909 2931 1356 
Q 2931 1769 2642 2001 
Q 2353 2234 1838 2234 
L 1294 2234 
L 1294 2753 
L 1863 2753 
Q 2328 2753 2575 2939 
Q 2822 3125 2822 3475 
Q 2822 3834 2567 4026 
Q 2313 4219 1838 4219 
Q 1578 4219 1281 4162 
Q 984 4106 628 3988 
L 628 4550 
Q 988 4650 1302 4700 
Q 1616 4750 1894 4750 
Q 2613 4750 3031 4423 
Q 3450 4097 3450 3541 
Q 3450 3153 3228 2886 
Q 3006 2619 2597 2516 
z
" transform="scale(0.015625)"/>
      <path id="DejaVuSans-30" d="M 2034 4250 
Q 1547 4250 1301 3770 
Q 1056 3291 1056 2328 
Q 1056 1369 1301 889 
Q 1547 409 2034 409 
Q 2525 409 2770 889 
Q 3016 1369 3016 2328 
Q 3016 3291 2770 3770 
Q 2525 4250 2034 4250 
z
M 2034 4750 
Q 2819 4750 3233 4129 
Q 3647 3509 3647 2328 
Q 3647 1150 3233 529 
Q 2819 -91 2034 -91 
Q 1250 -91 836 529 
Q 422 1150 422 2328 
Q 422 3509 836 4129 
Q 1250 4750 2034 4750 
z
" transform="scale(0.015625)"/>
     </defs>
     <use xlink:href="#DejaVuSans-46"/>
     <use xlink:href="#DejaVuSans-20" x="57.519531"/>
     <use xlink:href="#DejaVuSans-5b" x="89.306641"/>
     <use xlink:href="#DejaVuSans-33" x="128.320312"/>
     <use xlink:href="#DejaVuSans-30" x="191.943359"/>
     <use xlink:href="#DejaVuSans-5d" x="255.566406"/>
    </g>
   </g>
   <g id="text_6">
    <!-- G [13] -->
    <g transform="translate(201.192106 16.743527) scale(0.1 -0.1)">
     <defs>
      <path id="DejaVuSans-47" d="M 3809 666 
L 3809 1919 
L 2778 1919 
L 2778 2438 
L 4434 2438 
L 4434 434 
Q 4069 175 3628 42 
Q 3188 -91 2688 -91 
Q 1594 -91 976 548 
Q 359 1188 359 2328 
Q 359 3472 976 4111 
Q 1594 4750 2688 4750 
Q 3144 4750 3555 4637 
Q 3966 4525 4313 4306 
L 4313 3634 
Q 3963 3931 3569 4081 
Q 3175 4231 2741 4231 
Q 1884 4231 1454 3753 
Q 1025 3275 1025 2328 
Q 1025 1384 1454 906 
Q 1884 428 2741 428 
Q 3075 428 3337 486 
Q 3600 544 3809 666 
z
" transform="scale(0.015625)"/>
     </defs>
     <use xlink:href="#DejaVuSans-47"/>
     <use xlink:href="#DejaVuSans-20" x="77.490234"/>
     <use xlink:href="#DejaVuSans-5b" x="109.277344"/>
     <use xlink:href="#DejaVuSans-31" x="148.291016"/>
     <use xlink:href="#DejaVuSans-33" x="211.914062"/>
     <use xlink:href="#DejaVuSans-5d" x="275.537109"/>
    </g>
   </g>
   <g id="text_7">
    <!-- H [10] -->
    <g transform="translate(140.023497 14.798437) scale(0.1 -0.1)">
     <defs>
      <path id="DejaVuSans-48" d="M 628 4666 
L 1259 4666 
L 1259 2753 
L 3553 2753 
L 3553 4666 
L 4184 4666 
L 4184 0 
L 3553 0 
L 3553 2222 
L 1259 2222 
L 1259 0 
L 628 0 
L 628 4666 
z
" transform="scale(0.015625)"/>
     </defs>
     <use xlink:href="#DejaVuSans-48"/>
     <use xlink:href="#DejaVuSans-20" x="75.195312"/>
     <use xlink:href="#DejaVuSans-5b" x="106.982422"/>
     <use xlink:href="#DejaVuSans-31" x="145.996094"/>
     <use xlink:href="#DejaVuSans-30" x="209.619141"/>
     <use xlink:href="#DejaVuSans-5d" x="273.242188"/>
    </g>
   </g>
   <g id="text_8">
    <!-- I [32] -->
    <g transform="translate(91.559874 27.569751) scale(0.1 -0.1)">
     <defs>
      <path id="DejaVuSans-49" d="M 628 4666 
L 1259 4666 
L 1259 0 
L 628 0 
L 628 4666 
z
" transform="scale(0.015625)"/>
      <path id="DejaVuSans-32" d="M 1228 531 
L 3431 531 
L 3431 0 
L 469 0 
L 469 531 
Q 828 903 1448 1529 
Q 2069 2156 2228 2338 
Q 2531 2678 2651 2914 
Q 2772 3150 2772 3378 
Q 2772 3750 2511 3984 
Q 2250 4219 1831 4219 
Q 1534 4219 1204 4116 
Q 875 4013 500 3803 
L 500 4441 
Q 881 4594 1212 4672 
Q 1544 4750 1819 4750 
Q 2544 4750 2975 4387 
Q 3406 4025 3406 3419 
Q 3406 3131 3298 2873 
Q 3191 2616 2906 2266 
Q 2828 2175 2409 1742 
Q 1991 1309 1228 531 
z
" transform="scale(0.015625)"/>
     </defs>
     <use xlink:href="#DejaVuSans-49"/>
     <use xlink:href="#DejaVuSans-20" x="29.492188"/>
     <use xlink:href="#DejaVuSans-5b" x="61.279297"/>
     <use xlink:href="#DejaVuSans-33" x="100.292969"/>
     <use xlink:href="#DejaVuSans-32" x="163.916016"/>
     <use xlink:href="#DejaVuSans-5d" x="227.539062"/>
    </g>
   </g>
   <g id="text_9">
    <!-- K [18] -->
    <g transform="translate(36.888632 67.414093) scale(0.1 -0.1)">
     <defs>
      <path id="DejaVuSans-4b" d="M 628 4666 
L 1259 4666 
L 1259 2694 
L 3353 4666 
L 4166 4666 
L 1850 2491 
L 4331 0 
L 3500 0 
L 1259 2247 
L 1259 0 
L 628 0 
L 628 4666 
z
" transform="scale(0.015625)"/>
      <path id="DejaVuSans-38" d="M 2034 2216 
Q 1584 2216 1326 1975 
Q 1069 1734 1069 1313 
Q 1069 891 1326 650 
Q 1584 409 2034 409 
Q 2484 409 2743 651 
Q 3003 894 3003 1313 
Q 3003 1734 2745 1975 
Q 2488 2216 2034 2216 
z
M 1403 2484 
Q 997 2584 770 2862 
Q 544 3141 544 3541 
Q 544 4100 942 4425 
Q 1341 4750 2034 4750 
Q 2731 4750 3128 4425 
Q 3525 4100 3525 3541 
Q 3525 3141 3298 2862 
Q 3072 2584 2669 2484 
Q 3125 2378 3379 2068 
Q 3634 1759 3634 1313 
Q 3634 634 3220 271 
Q 2806 -91 2034 -91 
Q 1263 -91 848 271 
Q 434 634 434 1313 
Q 434 1759 690 2068 
Q 947 2378 1403 2484 
z
M 1172 3481 
Q 1172 3119 1398 2916 
Q 1625 2713 2034 2713 
Q 2441 2713 2670 2916 
Q 2900 3119 2900 3481 
Q 2900 3844 2670 4047 
Q 2441 4250 2034 4250 
Q 1625 4250 1398 4047 
Q 1172 3844 1172 3481 
z
" transform="scale(0.015625)"/>
     </defs>
     <use xlink:href="#DejaVuSans-4b"/>
     <use xlink:href="#DejaVuSans-20" x="65.576172"/>
     <use xlink:href="#DejaVuSans-5b" x="97.363281"/>
     <use xlink:href="#DejaVuSans-31" x="136.376953"/>
     <use xlink:href="#DejaVuSans-38" x="200"/>
     <use xlink:href="#DejaVuSans-5d" x="263.623047"/>
    </g>
   </g>
   <g id="text_10">
    <!-- L [47] -->
    <g transform="translate(7.2 145.268391) scale(0.1 -0.1)">
     <defs>
      <path id="DejaVuSans-4c" d="M 628 4666 
L 1259 4666 
L 1259 531 
L 3531 531 
L 3531 0 
L 628 0 
L 628 4666 
z
" transform="scale(0.015625)"/>
      <path id="DejaVuSans-34" d="M 2419 4116 
L 825 1625 
L 2419 1625 
L 2419 4116 
z
M 2253 4666 
L 3047 4666 
L 3047 1625 
L 3713 1625 
L 3713 1100 
L 3047 1100 
L 3047 0 
L 2419 0 
L 2419 1100 
L 313 1100 
L 313 1709 
L 2253 4666 
z
" transform="scale(0.015625)"/>
      <path id="DejaVuSans-37" d="M 525 4666 
L 3525 4666 
L 3525 4397 
L 1831 0 
L 1172 0 
L 2766 4134 
L 525 4134 
L 525 4666 
z
" transform="scale(0.015625)"/>
     </defs>
     <use xlink:href="#DejaVuSans-4c"/>
     <use xlink:href="#DejaVuSans-20" x="55.712891"/>
     <use xlink:href="#DejaVuSans-5b" x="87.5"/>
     <use xlink:href="#DejaVuSans-34" x="126.513672"/>
     <use xlink:href="#DejaVuSans-37" x="190.136719"/>
     <use xlink:href="#DejaVuSans-5d" x="253.759766"/>
    </g>
   </g>
   <g id="text_11">
    <!-- M [10] -->
    <g transform="translate(18.04945 217.581917) scale(0.1 -0.1)">
     <defs>
      <path id="DejaVuSans-4d" d="M 628 4666 
L 1569 4666 
L 2759 1491 
L 3956 4666 
L 4897 4666 
L 4897 0 
L 4281 0 
L 4281 4097 
L 3078 897 
L 2444 897 
L 1241 4097 
L 1241 0 
L 628 0 
L 628 4666 
z
" transform="scale(0.015625)"/>
     </defs>
     <use xlink:href="#DejaVuSans-4d"/>
     <use xlink:href="#DejaVuSans-20" x="86.279297"/>
     <use xlink:href="#DejaVuSans-5b" x="118.066406"/>
     <use xlink:href="#DejaVuSans-31" x="157.080078"/>
     <use xlink:href="#DejaVuSans-30" x="220.703125"/>
     <use xlink:href="#DejaVuSans-5d" x="284.326172"/>
    </g>
   </g>
   <g id="text_12">
    <!-- N [19] -->
    <g transform="translate(40.173307 249.015587) scale(0.1 -0.1)">
     <defs>
      <path id="DejaVuSans-4e" d="M 628 4666 
L 1478 4666 
L 3547 763 
L 3547 4666 
L 4159 4666 
L 4159 0 
L 3309 0 
L 1241 3903 
L 1241 0 
L 628 0 
L 628 4666 
z
" transform="scale(0.015625)"/>
     </defs>
     <use xlink:href="#DejaVuSans-4e"/>
     <use xlink:href="#DejaVuSans-20" x="74.804688"/>
     <use xlink:href="#DejaVuSans-5b" x="106.591797"/>
     <use xlink:href="#DejaVuSans-31" x="145.605469"/>
     <use xlink:href="#DejaVuSans-39" x="209.228516"/>
     <use xlink:href="#DejaVuSans-5d" x="272.851562"/>
    </g>
   </g>
   <g id="text_13">
    <!-- P [11] -->
    <g transform="translate(71.292485 274.4613) scale(0.1 -0.1)">
     <defs>
      <path id="DejaVuSans-50" d="M 1259 4147 
L 1259 2394 
L 2053 2394 
Q 2494 2394 2734 2622 
Q 2975 2850 2975 3272 
Q 2975 3691 2734 3919 
Q 2494 4147 2053 4147 
L 1259 4147 
z
M 628 4666 
L 2053 4666 
Q 2838 4666 3239 4311 
Q 3641 3956 3641 3272 
Q 3641 2581 3239 2228 
Q 2838 1875 2053 1875 
L 1259 1875 
L 1259 0 
L 628 0 
L 628 4666 
z
" transform="scale(0.015625)"/>
     </defs>
     <use xlink:href="#DejaVuSans-50"/>
     <use xlink:href="#DejaVuSans-20" x="60.302734"/>
     <use xlink:href="#DejaVuSans-5b" x="92.089844"/>
     <use xlink:href="#DejaVuSans-31" x="131.103516"/>
     <use xlink:href="#DejaVuSans-31" x="194.726562"/>
     <use xlink:href="#DejaVuSans-5d" x="258.349609"/>
    </g>
   </g>
   <g id="text_14">
    <!-- Q [9] -->
    <g transform="translate(98.999377 286.451925) scale(0.1 -0.1)">
     <defs>
      <path id="DejaVuSans-51" d="M 2522 4238 
Q 1834 4238 1429 3725 
Q 1025 3213 1025 2328 
Q 1025 1447 1429 934 
Q 1834 422 2522 422 
Q 3209 422 3611 934 
Q 4013 1447 4013 2328 
Q 4013 3213 3611 3725 
Q 3209 4238 2522 4238 
z
M 3406 84 
L 4238 -825 
L 3475 -825 
L 2784 -78 
Q 2681 -84 2626 -87 
Q 2572 -91 2522 -91 
Q 1538 -91 948 567 
Q 359 1225 359 2328 
Q 359 3434 948 4092 
Q 1538 4750 2522 4750 
Q 3503 4750 4090 4092 
Q 4678 3434 4678 2328 
Q 4678 1516 4351 937 
Q 4025 359 3406 84 
z
" transform="scale(0.015625)"/>
     </defs>
     <use xlink:href="#DejaVuSans-51"/>
     <use xlink:href="#DejaVuSans-20" x="78.710938"/>
     <use xlink:href="#DejaVuSans-5b" x="110.498047"/>
     <use xlink:href="#DejaVuSans-39" x="149.511719"/>
     <use xlink:href="#DejaVuSans-5d" x="213.134766"/>
    </g>
   </g>
   <g id="text_15">
    <!-- R [11] -->
    <g transform="translate(118.559468 293.964238) scale(0.1 -0.1)">
     <defs>
      <path id="DejaVuSans-52" d="M 2841 2188 
Q 3044 2119 3236 1894 
Q 3428 1669 3622 1275 
L 4263 0 
L 3584 0 
L 2988 1197 
Q 2756 1666 2539 1819 
Q 2322 1972 1947 1972 
L 1259 1972 
L 1259 0 
L 628 0 
L 628 4666 
L 2053 4666 
Q 2853 4666 3247 4331 
Q 3641 3997 3641 3322 
Q 3641 2881 3436 2590 
Q 3231 2300 2841 2188 
z
M 1259 4147 
L 1259 2491 
L 2053 2491 
Q 2509 2491 2742 2702 
Q 2975 2913 2975 3322 
Q 2975 3731 2742 3939 
Q 2509 4147 2053 4147 
L 1259 4147 
z
" transform="scale(0.015625)"/>
     </defs>
     <use xlink:href="#DejaVuSans-52"/>
     <use xlink:href="#DejaVuSans-20" x="69.482422"/>
     <use xlink:href="#DejaVuSans-5b" x="101.269531"/>
     <use xlink:href="#DejaVuSans-31" x="140.283203"/>
     <use xlink:href="#DejaVuSans-31" x="203.90625"/>
     <use xlink:href="#DejaVuSans-5d" x="267.529297"/>
    </g>
   </g>
   <g id="text_16">
    <!-- S [27] -->
    <g transform="translate(198.612357 295.108904) scale(0.1 -0.1)">
     <defs>
      <path id="DejaVuSans-53" d="M 3425 4513 
L 3425 3897 
Q 3066 4069 2747 4153 
Q 2428 4238 2131 4238 
Q 1616 4238 1336 4038 
Q 1056 3838 1056 3469 
Q 1056 3159 1242 3001 
Q 1428 2844 1947 2747 
L 2328 2669 
Q 3034 2534 3370 2195 
Q 3706 1856 3706 1288 
Q 3706 609 3251 259 
Q 2797 -91 1919 -91 
Q 1588 -91 1214 -16 
Q 841 59 441 206 
L 441 856 
Q 825 641 1194 531 
Q 1563 422 1919 422 
Q 2459 422 2753 634 
Q 3047 847 3047 1241 
Q 3047 1584 2836 1778 
Q 2625 1972 2144 2069 
L 1759 2144 
Q 1053 2284 737 2584 
Q 422 2884 422 3419 
Q 422 4038 858 4394 
Q 1294 4750 2059 4750 
Q 2388 4750 2728 4690 
Q 3069 4631 3425 4513 
z
" transform="scale(0.015625)"/>
     </defs>
     <use xlink:href="#DejaVuSans-53"/>
     <use xlink:href="#DejaVuSans-20" x="63.476562"/>
     <use xlink:href="#DejaVuSans-5b" x="95.263672"/>
     <use xlink:href="#DejaVuSans-32" x="134.277344"/>
     <use xlink:href="#DejaVuSans-37" x="197.900391"/>
     <use xlink:href="#DejaVuSans-5d" x="261.523438"/>
    </g>
   </g>
   <g id="text_17">
    <!-- T [25] -->
    <g transform="translate(260.769362 269.27823) scale(0.1 -0.1)">
     <defs>
      <path id="DejaVuSans-54" d="M -19 4666 
L 3928 4666 
L 3928 4134 
L 2272 4134 
L 2272 0 
L 1638 0 
L 1638 4134 
L -19 4134 
L -19 4666 
z
" transform="scale(0.015625)"/>
     </defs>
     <use xlink:href="#DejaVuSans-54"/>
     <use xlink:href="#DejaVuSans-20" x="61.083984"/>
     <use xlink:href="#DejaVuSans-5b" x="92.871094"/>
     <use xlink:href="#DejaVuSans-32" x="131.884766"/>
     <use xlink:href="#DejaVuSans-35" x="195.507812"/>
     <use xlink:href="#DejaVuSans-5d" x="259.130859"/>
    </g>
   </g>
   <g id="text_18">
    <!-- V [20] -->
    <g transform="translate(299.599177 225.668126) scale(0.1 -0.1)">
     <defs>
      <path id="DejaVuSans-56" d="M 1831 0 
L 50 4666 
L 709 4666 
L 2188 738 
L 3669 4666 
L 4325 4666 
L 2547 0 
L 1831 0 
z
" transform="scale(0.015625)"/>
     </defs>
     <use xlink:href="#DejaVuSans-56"/>
     <use xlink:href="#DejaVuSans-20" x="68.408203"/>
     <use xlink:href="#DejaVuSans-5b" x="100.195312"/>
     <use xlink:href="#DejaVuSans-32" x="139.208984"/>
     <use xlink:href="#DejaVuSans-30" x="202.832031"/>
     <use xlink:href="#DejaVuSans-5d" x="266.455078"/>
    </g>
   </g>
   <g id="text_19">
    <!-- W [7] -->
    <g transform="translate(313.106614 193.164832) scale(0.1 -0.1)">
     <defs>
      <path id="DejaVuSans-57" d="M 213 4666 
L 850 4666 
L 1831 722 
L 2809 4666 
L 3519 4666 
L 4500 722 
L 5478 4666 
L 6119 4666 
L 4947 0 
L 4153 0 
L 3169 4050 
L 2175 0 
L 1381 0 
L 213 4666 
z
" transform="scale(0.015625)"/>
     </defs>
     <use xlink:href="#DejaVuSans-57"/>
     <use xlink:href="#DejaVuSans-20" x="98.876953"/>
     <use xlink:href="#DejaVuSans-5b" x="130.664062"/>
     <use xlink:href="#DejaVuSans-37" x="169.677734"/>
     <use xlink:href="#DejaVuSans-5d" x="233.300781"/>
    </g>
   </g>
   <g id="text_20">
    <!-- Y [11] -->
    <g transform="translate(317.437234 170.067773) scale(0.1 -0.1)">
     <defs>
      <path id="DejaVuSans-59" d="M -13 4666 
L 666 4666 
L 1959 2747 
L 3244 4666 
L 3922 4666 
L 2272 2222 
L 2272 0 
L 1638 0 
L 1638 2222 
L -13 4666 
z
" transform="scale(0.015625)"/>
     </defs>
     <use xlink:href="#DejaVuSans-59"/>
     <use xlink:href="#DejaVuSans-20" x="61.083984"/>
     <use xlink:href="#DejaVuSans-5b" x="92.871094"/>
     <use xlink:href="#DejaVuSans-31" x="131.884766"/>
     <use xlink:href="#DejaVuSans-31" x="195.507812"/>
     <use xlink:href="#DejaVuSans-5d" x="259.130859"/>
    </g>
   </g>
   <g id="text_21">
    <!-- A0A8C0YXT4 [339] -->
    <g transform="translate(120.085994 152.955799) scale(0.12 -0.12)">
     <defs>
      <path id="DejaVuSans-58" d="M 403 4666 
L 1081 4666 
L 2241 2931 
L 3406 4666 
L 4084 4666 
L 2584 2425 
L 4184 0 
L 3506 0 
L 2194 1984 
L 872 0 
L 191 0 
L 1856 2491 
L 403 4666 
z
" transform="scale(0.015625)"/>
     </defs>
     <use xlink:href="#DejaVuSans-41"/>
     <use xlink:href="#DejaVuSans-30" x="68.408203"/>
     <use xlink:href="#DejaVuSans-41" x="132.03125"/>
     <use xlink:href="#DejaVuSans-38" x="200.439453"/>
     <use xlink:href="#DejaVuSans-43" x="264.0625"/>
     <use xlink:href="#DejaVuSans-30" x="333.886719"/>
     <use xlink:href="#DejaVuSans-59" x="397.509766"/>
     <use xlink:href="#DejaVuSans-58" x="458.59375"/>
     <use xlink:href="#DejaVuSans-54" x="525.349609"/>
     <use xlink:href="#DejaVuSans-34" x="586.433594"/>
     <use xlink:href="#DejaVuSans-20" x="650.056641"/>
     <use xlink:href="#DejaVuSans-5b" x="681.84375"/>
     <use xlink:href="#DejaVuSans-33" x="720.857422"/>
     <use xlink:href="#DejaVuSans-33" x="784.480469"/>
     <use xlink:href="#DejaVuSans-39" x="848.103516"/>
     <use xlink:href="#DejaVuSans-5d" x="911.726562"/>
    </g>
   </g>
  </g>
 </g>
</svg>
