<?xml version="1.0" encoding="utf-8" standalone="no"?>
<!DOCTYPE svg PUBLIC "-//W3C//DTD SVG 1.1//EN"
  "http://www.w3.org/Graphics/SVG/1.1/DTD/svg11.dtd">
<svg xmlns:xlink="http://www.w3.org/1999/xlink" width="353.122077pt" height="304.92343pt" viewBox="0 0 353.122077 304.92343" xmlns="http://www.w3.org/2000/svg" version="1.1">
 <metadata>
  <rdf:RDF xmlns:dc="http://purl.org/dc/elements/1.1/" xmlns:cc="http://creativecommons.org/ns#" xmlns:rdf="http://www.w3.org/1999/02/22-rdf-syntax-ns#">
   <cc:Work>
    <dc:type rdf:resource="http://purl.org/dc/dcmitype/StillImage"/>
    <dc:date>2024-09-27T16:07:38.978810</dc:date>
    <dc:format>image/svg+xml</dc:format>
    <dc:creator>
     <cc:Agent>
      <dc:title>Matplotlib v3.8.3, https://matplotlib.org/</dc:title>
     </cc:Agent>
    </dc:creator>
   </cc:Work>
  </rdf:RDF>
 </metadata>
 <defs>
  <style type="text/css">*{stroke-linejoin: round; stroke-linecap: butt}</style>
 </defs>
 <g id="figure_1">
  <g id="patch_1">
   <path d="M 0 304.92343 
L 353.122077 304.92343 
L 353.122077 0 
L 0 0 
z
" style="fill: #ffffff"/>
  </g>
  <g id="axes_1">
   <g id="patch_2">
    <path d="M 304.052316 151.953192 
C 304.052316 140.71375 302.568858 129.523309 299.640414 118.672075 
C 296.711969 107.82084 292.364073 97.403432 286.70948 87.690006 
L 176.318556 151.953192 
z
" style="fill: #1f77b4"/>
   </g>
   <g id="patch_3">
    <path d="M 286.634151 87.527065 
C 285.020694 84.755478 283.30343 82.045637 281.48601 79.403305 
C 279.668589 76.760973 277.752302 74.188022 275.741222 71.689925 
L 176.243226 151.790251 
z
" style="fill: #ff7f0e"/>
   </g>
   <g id="patch_4">
    <path d="M 275.685073 71.62132 
C 273.24291 68.587745 270.66329 65.667445 267.954296 62.869573 
C 265.245303 60.0717 262.409771 57.399182 259.456587 54.860394 
L 176.187078 151.721647 
z
" style="fill: #aec7e8"/>
   </g>
   <g id="patch_5">
    <path d="M 259.351822 54.776517 
C 254.138404 50.294654 248.57164 46.241006 242.705803 42.655092 
C 236.839967 39.069178 230.694182 35.96269 224.328369 33.365915 
L 176.082312 151.637769 
z
" style="fill: #ffbb78"/>
   </g>
   <g id="patch_6">
    <path d="M 224.181132 33.303998 
C 218.664838 31.053763 212.997867 29.192209 207.221736 27.732974 
C 201.445604 26.273739 195.574453 25.220395 189.651296 24.58066 
L 175.935076 151.575852 
z
" style="fill: #98df8a"/>
   </g>
   <g id="patch_7">
    <path d="M 189.458094 24.568171 
C 179.883653 23.534075 170.222903 23.586045 160.660142 24.72309 
C 151.09738 25.860134 141.693803 28.074976 132.628801 31.325364 
L 175.741874 151.563363 
z
" style="fill: #2ca02c"/>
   </g>
   <g id="patch_8">
    <path d="M 132.477436 31.36665 
C 129.674294 32.371757 126.907157 33.474583 124.181099 34.673105 
C 121.455041 35.871627 118.771729 37.165112 116.136082 38.55119 
L 175.590509 151.604649 
z
" style="fill: #d62728"/>
   </g>
   <g id="patch_9">
    <path d="M 116.025534 38.616745 
C 109.534447 42.030385 103.349398 45.996732 97.538982 50.471798 
C 91.728565 54.946864 86.314339 59.914045 81.356348 65.318255 
L 175.47996 151.670204 
z
" style="fill: #9467bd"/>
   </g>
   <g id="patch_10">
    <path d="M 81.249182 65.428937 
C 77.841671 69.143124 74.656992 73.055751 71.711856 77.146288 
C 68.76672 81.236824 66.066287 85.498103 63.624729 89.907763 
L 175.372794 151.780886 
z
" style="fill: #ff9896"/>
   </g>
   <g id="patch_11">
    <path d="M 63.530889 90.136048 
C 56.300977 103.193877 51.415424 117.418452 49.096382 132.162961 
C 46.777341 146.90747 47.060502 161.94499 49.93299 176.591741 
L 175.278954 152.009171 
z
" style="fill: #c5b0d5"/>
   </g>
   <g id="patch_12">
    <path d="M 49.944909 176.813105 
C 50.51801 179.73533 51.193125 182.636621 51.969017 185.511658 
C 52.744909 188.386695 53.621104 191.23372 54.595995 194.047514 
L 175.290873 152.230535 
z
" style="fill: #c49c94"/>
   </g>
   <g id="patch_13">
    <path d="M 54.628558 194.136074 
C 56.128599 198.465589 57.860514 202.711257 59.816791 206.854663 
C 61.773067 210.998068 63.950874 215.033212 66.340764 218.942592 
L 175.323437 152.319095 
z
" style="fill: #8c564b"/>
   </g>
   <g id="patch_14">
    <path d="M 66.4039 219.044632 
C 69.032911 223.345169 71.914174 227.486323 75.032567 231.446365 
C 78.15096 235.406408 81.501021 239.1784 85.06517 242.742549 
L 175.386573 152.421135 
z
" style="fill: #e377c2"/>
   </g>
   <g id="patch_15">
    <path d="M 85.147335 242.82605 
C 88.225236 245.903951 91.458455 248.82251 94.834335 251.570305 
C 98.210215 254.318099 101.724345 256.891537 105.362969 259.280545 
L 175.468738 152.504637 
z
" style="fill: #7f7f7f"/>
   </g>
   <g id="patch_16">
    <path d="M 105.487364 259.356132 
C 111.618018 263.381331 118.083967 266.871065 124.8135 269.786633 
C 131.543034 272.702201 138.511183 275.032784 145.640672 276.752538 
L 175.593133 152.580224 
z
" style="fill: #f7b6d2"/>
   </g>
   <g id="patch_17">
    <path d="M 145.883729 276.79547 
C 158.152273 279.75485 170.791947 280.879712 183.390282 280.133348 
C 195.988616 279.386985 208.407063 276.777603 220.240369 272.390356 
L 175.83619 152.623156 
z
" style="fill: #c7c7c7"/>
   </g>
   <g id="patch_18">
    <path d="M 220.484045 272.314645 
C 228.006197 269.525777 235.24891 266.034441 242.116134 261.886938 
C 248.983359 257.739435 255.444602 252.954181 261.414178 247.594636 
L 176.079866 152.547445 
z
" style="fill: #dbdb8d"/>
   </g>
   <g id="patch_19">
    <path d="M 261.580758 247.435932 
C 269.430688 240.388187 276.377363 232.395022 282.261927 223.639222 
C 288.146492 214.883423 292.923746 205.432243 296.484447 195.501808 
L 176.246446 152.388741 
z
" style="fill: #bcbd22"/>
   </g>
   <g id="patch_20">
    <path d="M 296.555035 195.349123 
C 297.560142 192.54598 298.466916 189.708547 299.273695 186.842024 
C 300.080473 183.975501 300.786763 181.081641 301.391269 178.16575 
L 176.317034 152.236055 
z
" style="fill: #17becf"/>
   </g>
   <g id="patch_21">
    <path d="M 301.408396 178.075862 
C 302.292008 173.813683 302.957177 169.509122 303.4013 165.17903 
C 303.845424 160.848939 304.067921 156.498974 304.067921 152.146166 
L 176.334161 152.146167 
z
" style="fill: #9edae5"/>
   </g>
   <g id="patch_22">
    <path d="M 250.316075 152.091864 
C 250.316075 145.535522 249.450724 139.007765 247.742465 132.677878 
C 246.034206 126.347992 243.497933 120.27117 240.199421 114.605005 
L 175.804715 152.091864 
z
" style="fill: #ffffff"/>
   </g>
   <g id="patch_23">
    <path d="M 240.199421 114.605005 
C 239.258237 112.988246 238.2565 111.407506 237.196338 109.866145 
C 236.136176 108.324784 235.018342 106.823897 233.845212 105.366673 
L 175.804715 152.091864 
z
" style="fill: #ffffff"/>
   </g>
   <g id="patch_24">
    <path d="M 233.845212 105.366673 
C 232.420617 103.597088 230.915838 101.893579 229.335592 100.261487 
C 227.755346 98.629395 226.101285 97.070426 224.378595 95.589466 
L 175.804715 152.091864 
z
" style="fill: #ffffff"/>
   </g>
   <g id="patch_25">
    <path d="M 224.378595 95.589466 
C 221.337434 92.975047 218.090155 90.610418 214.668417 88.518635 
C 211.246679 86.426852 207.661639 84.614734 203.948248 83.099949 
L 175.804715 152.091864 
z
" style="fill: #ffffff"/>
   </g>
   <g id="patch_26">
    <path d="M 203.948248 83.099949 
C 200.730409 81.787312 197.424676 80.701405 194.055266 79.850185 
C 190.685856 78.998965 187.261018 78.384514 183.805843 78.011335 
L 175.804715 152.091864 
z
" style="fill: #ffffff"/>
   </g>
   <g id="patch_27">
    <path d="M 183.805843 78.011335 
C 178.220752 77.408113 172.585315 77.438429 167.007037 78.101705 
C 161.42876 78.76498 155.94334 80.056972 150.655422 81.953031 
L 175.804715 152.091864 
z
" style="fill: #ffffff"/>
   </g>
   <g id="patch_28">
    <path d="M 150.655422 81.953031 
C 149.020256 82.539343 147.406093 83.182658 145.815892 83.881796 
C 144.225692 84.580934 142.660427 85.335467 141.122966 86.144012 
L 175.804715 152.091864 
z
" style="fill: #ffffff"/>
   </g>
   <g id="patch_29">
    <path d="M 141.122966 86.144012 
C 137.336498 88.135303 133.728553 90.449005 130.339144 93.05946 
C 126.949734 95.669916 123.791436 98.567438 120.899274 101.719894 
L 175.804715 152.091864 
z
" style="fill: #ffffff"/>
   </g>
   <g id="patch_30">
    <path d="M 120.899274 101.719894 
C 118.911559 103.886502 117.05383 106.168868 115.335834 108.555014 
C 113.617838 110.941161 112.042586 113.426907 110.618343 115.999209 
L 175.804715 152.091864 
z
" style="fill: #ffffff"/>
   </g>
   <g id="patch_31">
    <path d="M 110.618343 115.999209 
C 106.400895 123.616275 103.550989 131.913944 102.198214 140.514908 
C 100.84544 149.115872 101.010617 157.887758 102.686236 166.431696 
L 175.804715 152.091864 
z
" style="fill: #ffffff"/>
   </g>
   <g id="patch_32">
    <path d="M 102.686236 166.431696 
C 103.020544 168.136328 103.414361 169.828747 103.866965 171.505852 
C 104.319569 173.182957 104.830682 174.843722 105.399369 176.485101 
L 175.804715 152.091864 
z
" style="fill: #ffffff"/>
   </g>
   <g id="patch_33">
    <path d="M 105.399369 176.485101 
C 106.274393 179.010652 107.284676 181.487292 108.425838 183.904278 
C 109.566999 186.321265 110.837386 188.675098 112.231488 190.95557 
L 175.804715 152.091864 
z
" style="fill: #ffffff"/>
   </g>
   <g id="patch_34">
    <path d="M 112.231488 190.95557 
C 113.765079 193.464216 115.445815 195.87989 117.264878 198.189914 
C 119.083941 200.499939 121.038143 202.700268 123.11723 204.779355 
L 175.804715 152.091864 
z
" style="fill: #ffffff"/>
   </g>
   <g id="patch_35">
    <path d="M 123.11723 204.779355 
C 124.912672 206.574796 126.798716 208.27729 128.767979 209.88017 
C 130.737243 211.48305 132.787152 212.984222 134.909682 214.37781 
L 175.804715 152.091864 
z
" style="fill: #ffffff"/>
   </g>
   <g id="patch_36">
    <path d="M 134.909682 214.37781 
C 138.485898 216.725843 142.257701 218.761521 146.183262 220.462269 
C 150.108823 222.163017 154.173577 223.522524 158.332446 224.525713 
L 175.804715 152.091864 
z
" style="fill: #ffffff"/>
   </g>
   <g id="patch_37">
    <path d="M 158.332446 224.525713 
C 165.489096 226.252018 172.86224 226.908188 180.211268 226.472809 
C 187.560296 226.03743 194.80439 224.515291 201.707153 221.956064 
L 175.804715 152.091864 
z
" style="fill: #ffffff"/>
   </g>
   <g id="patch_38">
    <path d="M 201.707153 221.956064 
C 206.095074 220.329224 210.31999 218.292611 214.325871 215.873234 
C 218.331752 213.453858 222.100811 210.66246 225.583063 207.536059 
L 175.804715 152.091864 
z
" style="fill: #ffffff"/>
   </g>
   <g id="patch_39">
    <path d="M 225.583063 207.536059 
C 230.162189 203.424874 234.214416 198.762194 237.647079 193.654645 
C 241.079741 188.547095 243.866473 183.033907 245.943548 177.241153 
L 175.804715 152.091864 
z
" style="fill: #ffffff"/>
   </g>
   <g id="patch_40">
    <path d="M 245.943548 177.241153 
C 246.529861 175.605987 247.058812 173.950817 247.529433 172.278679 
C 248.000054 170.60654 248.412057 168.918455 248.764685 167.217519 
L 175.804715 152.091864 
z
" style="fill: #ffffff"/>
   </g>
   <g id="patch_41">
    <path d="M 248.764685 167.217519 
C 249.280125 164.731248 249.668141 162.220254 249.927213 159.694367 
C 250.186285 157.16848 250.316075 154.631001 250.316075 152.091863 
L 175.804715 152.091864 
z
" style="fill: #ffffff"/>
   </g>
   <g id="matplotlib.axis_1"/>
   <g id="matplotlib.axis_2"/>
   <g id="text_1">
    <!-- A [49] -->
    <g transform="translate(311.972599 118.103338) scale(0.1 -0.1)">
     <defs>
      <path id="DejaVuSans-41" d="M 2188 4044 
L 1331 1722 
L 3047 1722 
L 2188 4044 
z
M 1831 4666 
L 2547 4666 
L 4325 0 
L 3669 0 
L 3244 1197 
L 1141 1197 
L 716 0 
L 50 0 
L 1831 4666 
z
" transform="scale(0.015625)"/>
      <path id="DejaVuSans-20" transform="scale(0.015625)"/>
      <path id="DejaVuSans-5b" d="M 550 4863 
L 1875 4863 
L 1875 4416 
L 1125 4416 
L 1125 -397 
L 1875 -397 
L 1875 -844 
L 550 -844 
L 550 4863 
z
" transform="scale(0.015625)"/>
      <path id="DejaVuSans-34" d="M 2419 4116 
L 825 1625 
L 2419 1625 
L 2419 4116 
z
M 2253 4666 
L 3047 4666 
L 3047 1625 
L 3713 1625 
L 3713 1100 
L 3047 1100 
L 3047 0 
L 2419 0 
L 2419 1100 
L 313 1100 
L 313 1709 
L 2253 4666 
z
" transform="scale(0.015625)"/>
      <path id="DejaVuSans-39" d="M 703 97 
L 703 672 
Q 941 559 1184 500 
Q 1428 441 1663 441 
Q 2288 441 2617 861 
Q 2947 1281 2994 2138 
Q 2813 1869 2534 1725 
Q 2256 1581 1919 1581 
Q 1219 1581 811 2004 
Q 403 2428 403 3163 
Q 403 3881 828 4315 
Q 1253 4750 1959 4750 
Q 2769 4750 3195 4129 
Q 3622 3509 3622 2328 
Q 3622 1225 3098 567 
Q 2575 -91 1691 -91 
Q 1453 -91 1209 -44 
Q 966 3 703 97 
z
M 1959 2075 
Q 2384 2075 2632 2365 
Q 2881 2656 2881 3163 
Q 2881 3666 2632 3958 
Q 2384 4250 1959 4250 
Q 1534 4250 1286 3958 
Q 1038 3666 1038 3163 
Q 1038 2656 1286 2365 
Q 1534 2075 1959 2075 
z
" transform="scale(0.015625)"/>
      <path id="DejaVuSans-5d" d="M 1947 4863 
L 1947 -844 
L 622 -844 
L 622 -397 
L 1369 -397 
L 1369 4416 
L 622 4416 
L 622 4863 
L 1947 4863 
z
" transform="scale(0.015625)"/>
     </defs>
     <use xlink:href="#DejaVuSans-41"/>
     <use xlink:href="#DejaVuSans-20" x="68.408203"/>
     <use xlink:href="#DejaVuSans-5b" x="100.195312"/>
     <use xlink:href="#DejaVuSans-34" x="139.208984"/>
     <use xlink:href="#DejaVuSans-39" x="202.832031"/>
     <use xlink:href="#DejaVuSans-5d" x="266.455078"/>
    </g>
   </g>
   <g id="text_2">
    <!-- C [14] -->
    <g transform="translate(292.010288 74.923985) scale(0.1 -0.1)">
     <defs>
      <path id="DejaVuSans-43" d="M 4122 4306 
L 4122 3641 
Q 3803 3938 3442 4084 
Q 3081 4231 2675 4231 
Q 1875 4231 1450 3742 
Q 1025 3253 1025 2328 
Q 1025 1406 1450 917 
Q 1875 428 2675 428 
Q 3081 428 3442 575 
Q 3803 722 4122 1019 
L 4122 359 
Q 3791 134 3420 21 
Q 3050 -91 2638 -91 
Q 1578 -91 968 557 
Q 359 1206 359 2328 
Q 359 3453 968 4101 
Q 1578 4750 2638 4750 
Q 3056 4750 3426 4639 
Q 3797 4528 4122 4306 
z
" transform="scale(0.015625)"/>
      <path id="DejaVuSans-31" d="M 794 531 
L 1825 531 
L 1825 4091 
L 703 3866 
L 703 4441 
L 1819 4666 
L 2450 4666 
L 2450 531 
L 3481 531 
L 3481 0 
L 794 0 
L 794 531 
z
" transform="scale(0.015625)"/>
     </defs>
     <use xlink:href="#DejaVuSans-43"/>
     <use xlink:href="#DejaVuSans-20" x="69.824219"/>
     <use xlink:href="#DejaVuSans-5b" x="101.611328"/>
     <use xlink:href="#DejaVuSans-31" x="140.625"/>
     <use xlink:href="#DejaVuSans-34" x="204.248047"/>
     <use xlink:href="#DejaVuSans-5d" x="267.871094"/>
    </g>
   </g>
   <g id="text_3">
    <!-- D [17] -->
    <g transform="translate(277.131018 56.74374) scale(0.1 -0.1)">
     <defs>
      <path id="DejaVuSans-44" d="M 1259 4147 
L 1259 519 
L 2022 519 
Q 2988 519 3436 956 
Q 3884 1394 3884 2338 
Q 3884 3275 3436 3711 
Q 2988 4147 2022 4147 
L 1259 4147 
z
M 628 4666 
L 1925 4666 
Q 3281 4666 3915 4102 
Q 4550 3538 4550 2338 
Q 4550 1131 3912 565 
Q 3275 0 1925 0 
L 628 0 
L 628 4666 
z
" transform="scale(0.015625)"/>
      <path id="DejaVuSans-37" d="M 525 4666 
L 3525 4666 
L 3525 4397 
L 1831 0 
L 1172 0 
L 2766 4134 
L 525 4134 
L 525 4666 
z
" transform="scale(0.015625)"/>
     </defs>
     <use xlink:href="#DejaVuSans-44"/>
     <use xlink:href="#DejaVuSans-20" x="77.001953"/>
     <use xlink:href="#DejaVuSans-5b" x="108.789062"/>
     <use xlink:href="#DejaVuSans-31" x="147.802734"/>
     <use xlink:href="#DejaVuSans-37" x="211.425781"/>
     <use xlink:href="#DejaVuSans-5d" x="275.048828"/>
    </g>
   </g>
   <g id="text_4">
    <!-- E [30] -->
    <g transform="translate(249.368152 34.516199) scale(0.1 -0.1)">
     <defs>
      <path id="DejaVuSans-45" d="M 628 4666 
L 3578 4666 
L 3578 4134 
L 1259 4134 
L 1259 2753 
L 3481 2753 
L 3481 2222 
L 1259 2222 
L 1259 531 
L 3634 531 
L 3634 0 
L 628 0 
L 628 4666 
z
" transform="scale(0.015625)"/>
      <path id="DejaVuSans-33" d="M 2597 2516 
Q 3050 2419 3304 2112 
Q 3559 1806 3559 1356 
Q 3559 666 3084 287 
Q 2609 -91 1734 -91 
Q 1441 -91 1130 -33 
Q 819 25 488 141 
L 488 750 
Q 750 597 1062 519 
Q 1375 441 1716 441 
Q 2309 441 2620 675 
Q 2931 909 2931 1356 
Q 2931 1769 2642 2001 
Q 2353 2234 1838 2234 
L 1294 2234 
L 1294 2753 
L 1863 2753 
Q 2328 2753 2575 2939 
Q 2822 3125 2822 3475 
Q 2822 3834 2567 4026 
Q 2313 4219 1838 4219 
Q 1578 4219 1281 4162 
Q 984 4106 628 3988 
L 628 4550 
Q 988 4650 1302 4700 
Q 1616 4750 1894 4750 
Q 2613 4750 3031 4423 
Q 3450 4097 3450 3541 
Q 3450 3153 3228 2886 
Q 3006 2619 2597 2516 
z
" transform="scale(0.015625)"/>
      <path id="DejaVuSans-30" d="M 2034 4250 
Q 1547 4250 1301 3770 
Q 1056 3291 1056 2328 
Q 1056 1369 1301 889 
Q 1547 409 2034 409 
Q 2525 409 2770 889 
Q 3016 1369 3016 2328 
Q 3016 3291 2770 3770 
Q 2525 4250 2034 4250 
z
M 2034 4750 
Q 2819 4750 3233 4129 
Q 3647 3509 3647 2328 
Q 3647 1150 3233 529 
Q 2819 -91 2034 -91 
Q 1250 -91 836 529 
Q 422 1150 422 2328 
Q 422 3509 836 4129 
Q 1250 4750 2034 4750 
z
" transform="scale(0.015625)"/>
     </defs>
     <use xlink:href="#DejaVuSans-45"/>
     <use xlink:href="#DejaVuSans-20" x="63.183594"/>
     <use xlink:href="#DejaVuSans-5b" x="94.970703"/>
     <use xlink:href="#DejaVuSans-33" x="133.984375"/>
     <use xlink:href="#DejaVuSans-30" x="197.607422"/>
     <use xlink:href="#DejaVuSans-5d" x="261.230469"/>
    </g>
   </g>
   <g id="text_5">
    <!-- F [26] -->
    <g transform="translate(210.350402 18.108061) scale(0.1 -0.1)">
     <defs>
      <path id="DejaVuSans-46" d="M 628 4666 
L 3309 4666 
L 3309 4134 
L 1259 4134 
L 1259 2759 
L 3109 2759 
L 3109 2228 
L 1259 2228 
L 1259 0 
L 628 0 
L 628 4666 
z
" transform="scale(0.015625)"/>
      <path id="DejaVuSans-32" d="M 1228 531 
L 3431 531 
L 3431 0 
L 469 0 
L 469 531 
Q 828 903 1448 1529 
Q 2069 2156 2228 2338 
Q 2531 2678 2651 2914 
Q 2772 3150 2772 3378 
Q 2772 3750 2511 3984 
Q 2250 4219 1831 4219 
Q 1534 4219 1204 4116 
Q 875 4013 500 3803 
L 500 4441 
Q 881 4594 1212 4672 
Q 1544 4750 1819 4750 
Q 2544 4750 2975 4387 
Q 3406 4025 3406 3419 
Q 3406 3131 3298 2873 
Q 3191 2616 2906 2266 
Q 2828 2175 2409 1742 
Q 1991 1309 1228 531 
z
" transform="scale(0.015625)"/>
      <path id="DejaVuSans-36" d="M 2113 2584 
Q 1688 2584 1439 2293 
Q 1191 2003 1191 1497 
Q 1191 994 1439 701 
Q 1688 409 2113 409 
Q 2538 409 2786 701 
Q 3034 994 3034 1497 
Q 3034 2003 2786 2293 
Q 2538 2584 2113 2584 
z
M 3366 4563 
L 3366 3988 
Q 3128 4100 2886 4159 
Q 2644 4219 2406 4219 
Q 1781 4219 1451 3797 
Q 1122 3375 1075 2522 
Q 1259 2794 1537 2939 
Q 1816 3084 2150 3084 
Q 2853 3084 3261 2657 
Q 3669 2231 3669 1497 
Q 3669 778 3244 343 
Q 2819 -91 2113 -91 
Q 1303 -91 875 529 
Q 447 1150 447 2328 
Q 447 3434 972 4092 
Q 1497 4750 2381 4750 
Q 2619 4750 2861 4703 
Q 3103 4656 3366 4563 
z
" transform="scale(0.015625)"/>
     </defs>
     <use xlink:href="#DejaVuSans-46"/>
     <use xlink:href="#DejaVuSans-20" x="57.519531"/>
     <use xlink:href="#DejaVuSans-5b" x="89.306641"/>
     <use xlink:href="#DejaVuSans-32" x="128.320312"/>
     <use xlink:href="#DejaVuSans-36" x="191.943359"/>
     <use xlink:href="#DejaVuSans-5d" x="255.566406"/>
    </g>
   </g>
   <g id="text_6">
    <!-- G [42] -->
    <g transform="translate(127.697281 14.798437) scale(0.1 -0.1)">
     <defs>
      <path id="DejaVuSans-47" d="M 3809 666 
L 3809 1919 
L 2778 1919 
L 2778 2438 
L 4434 2438 
L 4434 434 
Q 4069 175 3628 42 
Q 3188 -91 2688 -91 
Q 1594 -91 976 548 
Q 359 1188 359 2328 
Q 359 3472 976 4111 
Q 1594 4750 2688 4750 
Q 3144 4750 3555 4637 
Q 3966 4525 4313 4306 
L 4313 3634 
Q 3963 3931 3569 4081 
Q 3175 4231 2741 4231 
Q 1884 4231 1454 3753 
Q 1025 3275 1025 2328 
Q 1025 1384 1454 906 
Q 1884 428 2741 428 
Q 3075 428 3337 486 
Q 3600 544 3809 666 
z
" transform="scale(0.015625)"/>
     </defs>
     <use xlink:href="#DejaVuSans-47"/>
     <use xlink:href="#DejaVuSans-20" x="77.490234"/>
     <use xlink:href="#DejaVuSans-5b" x="109.277344"/>
     <use xlink:href="#DejaVuSans-34" x="148.291016"/>
     <use xlink:href="#DejaVuSans-32" x="211.914062"/>
     <use xlink:href="#DejaVuSans-5d" x="275.537109"/>
    </g>
   </g>
   <g id="text_7">
    <!-- H [13] -->
    <g transform="translate(87.813596 25.739325) scale(0.1 -0.1)">
     <defs>
      <path id="DejaVuSans-48" d="M 628 4666 
L 1259 4666 
L 1259 2753 
L 3553 2753 
L 3553 4666 
L 4184 4666 
L 4184 0 
L 3553 0 
L 3553 2222 
L 1259 2222 
L 1259 0 
L 628 0 
L 628 4666 
z
" transform="scale(0.015625)"/>
     </defs>
     <use xlink:href="#DejaVuSans-48"/>
     <use xlink:href="#DejaVuSans-20" x="75.195312"/>
     <use xlink:href="#DejaVuSans-5b" x="106.982422"/>
     <use xlink:href="#DejaVuSans-31" x="145.996094"/>
     <use xlink:href="#DejaVuSans-33" x="209.619141"/>
     <use xlink:href="#DejaVuSans-5d" x="273.242188"/>
    </g>
   </g>
   <g id="text_8">
    <!-- I [32] -->
    <g transform="translate(63.088634 43.111333) scale(0.1 -0.1)">
     <defs>
      <path id="DejaVuSans-49" d="M 628 4666 
L 1259 4666 
L 1259 0 
L 628 0 
L 628 4666 
z
" transform="scale(0.015625)"/>
     </defs>
     <use xlink:href="#DejaVuSans-49"/>
     <use xlink:href="#DejaVuSans-20" x="29.492188"/>
     <use xlink:href="#DejaVuSans-5b" x="61.279297"/>
     <use xlink:href="#DejaVuSans-33" x="100.292969"/>
     <use xlink:href="#DejaVuSans-32" x="163.916016"/>
     <use xlink:href="#DejaVuSans-5d" x="227.539062"/>
    </g>
   </g>
   <g id="text_9">
    <!-- K [22] -->
    <g transform="translate(31.081699 72.442203) scale(0.1 -0.1)">
     <defs>
      <path id="DejaVuSans-4b" d="M 628 4666 
L 1259 4666 
L 1259 2694 
L 3353 4666 
L 4166 4666 
L 1850 2491 
L 4331 0 
L 3500 0 
L 1259 2247 
L 1259 0 
L 628 0 
L 628 4666 
z
" transform="scale(0.015625)"/>
     </defs>
     <use xlink:href="#DejaVuSans-4b"/>
     <use xlink:href="#DejaVuSans-20" x="65.576172"/>
     <use xlink:href="#DejaVuSans-5b" x="97.363281"/>
     <use xlink:href="#DejaVuSans-32" x="136.376953"/>
     <use xlink:href="#DejaVuSans-32" x="200"/>
     <use xlink:href="#DejaVuSans-5d" x="263.623047"/>
    </g>
   </g>
   <g id="text_10">
    <!-- L [65] -->
    <g transform="translate(7.2 132.937715) scale(0.1 -0.1)">
     <defs>
      <path id="DejaVuSans-4c" d="M 628 4666 
L 1259 4666 
L 1259 531 
L 3531 531 
L 3531 0 
L 628 0 
L 628 4666 
z
" transform="scale(0.015625)"/>
      <path id="DejaVuSans-35" d="M 691 4666 
L 3169 4666 
L 3169 4134 
L 1269 4134 
L 1269 2991 
Q 1406 3038 1543 3061 
Q 1681 3084 1819 3084 
Q 2600 3084 3056 2656 
Q 3513 2228 3513 1497 
Q 3513 744 3044 326 
Q 2575 -91 1722 -91 
Q 1428 -91 1123 -41 
Q 819 9 494 109 
L 494 744 
Q 775 591 1075 516 
Q 1375 441 1709 441 
Q 2250 441 2565 725 
Q 2881 1009 2881 1497 
Q 2881 1984 2565 2268 
Q 2250 2553 1709 2553 
Q 1456 2553 1204 2497 
Q 953 2441 691 2322 
L 691 4666 
z
" transform="scale(0.015625)"/>
     </defs>
     <use xlink:href="#DejaVuSans-4c"/>
     <use xlink:href="#DejaVuSans-20" x="55.712891"/>
     <use xlink:href="#DejaVuSans-5b" x="87.5"/>
     <use xlink:href="#DejaVuSans-36" x="126.513672"/>
     <use xlink:href="#DejaVuSans-35" x="190.136719"/>
     <use xlink:href="#DejaVuSans-5d" x="253.759766"/>
    </g>
   </g>
   <g id="text_11">
    <!-- M [13] -->
    <g transform="translate(7.302456 191.599146) scale(0.1 -0.1)">
     <defs>
      <path id="DejaVuSans-4d" d="M 628 4666 
L 1569 4666 
L 2759 1491 
L 3956 4666 
L 4897 4666 
L 4897 0 
L 4281 0 
L 4281 4097 
L 3078 897 
L 2444 897 
L 1241 4097 
L 1241 0 
L 628 0 
L 628 4666 
z
" transform="scale(0.015625)"/>
     </defs>
     <use xlink:href="#DejaVuSans-4d"/>
     <use xlink:href="#DejaVuSans-20" x="86.279297"/>
     <use xlink:href="#DejaVuSans-5b" x="118.066406"/>
     <use xlink:href="#DejaVuSans-31" x="157.080078"/>
     <use xlink:href="#DejaVuSans-33" x="220.703125"/>
     <use xlink:href="#DejaVuSans-5d" x="284.326172"/>
    </g>
   </g>
   <g id="text_12">
    <!-- N [20] -->
    <g transform="translate(17.078626 215.067595) scale(0.1 -0.1)">
     <defs>
      <path id="DejaVuSans-4e" d="M 628 4666 
L 1478 4666 
L 3547 763 
L 3547 4666 
L 4159 4666 
L 4159 0 
L 3309 0 
L 1241 3903 
L 1241 0 
L 628 0 
L 628 4666 
z
" transform="scale(0.015625)"/>
     </defs>
     <use xlink:href="#DejaVuSans-4e"/>
     <use xlink:href="#DejaVuSans-20" x="74.804688"/>
     <use xlink:href="#DejaVuSans-5b" x="106.591797"/>
     <use xlink:href="#DejaVuSans-32" x="145.605469"/>
     <use xlink:href="#DejaVuSans-30" x="209.228516"/>
     <use xlink:href="#DejaVuSans-5d" x="272.851562"/>
    </g>
   </g>
   <g id="text_13">
    <!-- P [22] -->
    <g transform="translate(35.261229 242.108263) scale(0.1 -0.1)">
     <defs>
      <path id="DejaVuSans-50" d="M 1259 4147 
L 1259 2394 
L 2053 2394 
Q 2494 2394 2734 2622 
Q 2975 2850 2975 3272 
Q 2975 3691 2734 3919 
Q 2494 4147 2053 4147 
L 1259 4147 
z
M 628 4666 
L 2053 4666 
Q 2838 4666 3239 4311 
Q 3641 3956 3641 3272 
Q 3641 2581 3239 2228 
Q 2838 1875 2053 1875 
L 1259 1875 
L 1259 0 
L 628 0 
L 628 4666 
z
" transform="scale(0.015625)"/>
     </defs>
     <use xlink:href="#DejaVuSans-50"/>
     <use xlink:href="#DejaVuSans-20" x="60.302734"/>
     <use xlink:href="#DejaVuSans-5b" x="92.089844"/>
     <use xlink:href="#DejaVuSans-32" x="131.103516"/>
     <use xlink:href="#DejaVuSans-32" x="194.726562"/>
     <use xlink:href="#DejaVuSans-5d" x="258.349609"/>
    </g>
   </g>
   <g id="text_14">
    <!-- Q [19] -->
    <g transform="translate(55.192769 264.236247) scale(0.1 -0.1)">
     <defs>
      <path id="DejaVuSans-51" d="M 2522 4238 
Q 1834 4238 1429 3725 
Q 1025 3213 1025 2328 
Q 1025 1447 1429 934 
Q 1834 422 2522 422 
Q 3209 422 3611 934 
Q 4013 1447 4013 2328 
Q 4013 3213 3611 3725 
Q 3209 4238 2522 4238 
z
M 3406 84 
L 4238 -825 
L 3475 -825 
L 2784 -78 
Q 2681 -84 2626 -87 
Q 2572 -91 2522 -91 
Q 1538 -91 948 567 
Q 359 1225 359 2328 
Q 359 3434 948 4092 
Q 1538 4750 2522 4750 
Q 3503 4750 4090 4092 
Q 4678 3434 4678 2328 
Q 4678 1516 4351 937 
Q 4025 359 3406 84 
z
" transform="scale(0.015625)"/>
     </defs>
     <use xlink:href="#DejaVuSans-51"/>
     <use xlink:href="#DejaVuSans-20" x="78.710938"/>
     <use xlink:href="#DejaVuSans-5b" x="110.498047"/>
     <use xlink:href="#DejaVuSans-31" x="149.511719"/>
     <use xlink:href="#DejaVuSans-39" x="213.134766"/>
     <use xlink:href="#DejaVuSans-5d" x="276.757812"/>
    </g>
   </g>
   <g id="text_15">
    <!-- R [32] -->
    <g transform="translate(89.080849 284.266649) scale(0.1 -0.1)">
     <defs>
      <path id="DejaVuSans-52" d="M 2841 2188 
Q 3044 2119 3236 1894 
Q 3428 1669 3622 1275 
L 4263 0 
L 3584 0 
L 2988 1197 
Q 2756 1666 2539 1819 
Q 2322 1972 1947 1972 
L 1259 1972 
L 1259 0 
L 628 0 
L 628 4666 
L 2053 4666 
Q 2853 4666 3247 4331 
Q 3641 3997 3641 3322 
Q 3641 2881 3436 2590 
Q 3231 2300 2841 2188 
z
M 1259 4147 
L 1259 2491 
L 2053 2491 
Q 2509 2491 2742 2702 
Q 2975 2913 2975 3322 
Q 2975 3731 2742 3939 
Q 2509 4147 2053 4147 
L 1259 4147 
z
" transform="scale(0.015625)"/>
     </defs>
     <use xlink:href="#DejaVuSans-52"/>
     <use xlink:href="#DejaVuSans-20" x="69.482422"/>
     <use xlink:href="#DejaVuSans-5b" x="101.269531"/>
     <use xlink:href="#DejaVuSans-33" x="140.283203"/>
     <use xlink:href="#DejaVuSans-32" x="203.90625"/>
     <use xlink:href="#DejaVuSans-5d" x="267.529297"/>
    </g>
   </g>
   <g id="text_16">
    <!-- S [55] -->
    <g transform="translate(184.145691 295.643743) scale(0.1 -0.1)">
     <defs>
      <path id="DejaVuSans-53" d="M 3425 4513 
L 3425 3897 
Q 3066 4069 2747 4153 
Q 2428 4238 2131 4238 
Q 1616 4238 1336 4038 
Q 1056 3838 1056 3469 
Q 1056 3159 1242 3001 
Q 1428 2844 1947 2747 
L 2328 2669 
Q 3034 2534 3370 2195 
Q 3706 1856 3706 1288 
Q 3706 609 3251 259 
Q 2797 -91 1919 -91 
Q 1588 -91 1214 -16 
Q 841 59 441 206 
L 441 856 
Q 825 641 1194 531 
Q 1563 422 1919 422 
Q 2459 422 2753 634 
Q 3047 847 3047 1241 
Q 3047 1584 2836 1778 
Q 2625 1972 2144 2069 
L 1759 2144 
Q 1053 2284 737 2584 
Q 422 2884 422 3419 
Q 422 4038 858 4394 
Q 1294 4750 2059 4750 
Q 2388 4750 2728 4690 
Q 3069 4631 3425 4513 
z
" transform="scale(0.015625)"/>
     </defs>
     <use xlink:href="#DejaVuSans-53"/>
     <use xlink:href="#DejaVuSans-20" x="63.476562"/>
     <use xlink:href="#DejaVuSans-5b" x="95.263672"/>
     <use xlink:href="#DejaVuSans-35" x="134.277344"/>
     <use xlink:href="#DejaVuSans-35" x="197.900391"/>
     <use xlink:href="#DejaVuSans-5d" x="261.523438"/>
    </g>
   </g>
   <g id="text_17">
    <!-- T [35] -->
    <g transform="translate(248.719761 275.580262) scale(0.1 -0.1)">
     <defs>
      <path id="DejaVuSans-54" d="M -19 4666 
L 3928 4666 
L 3928 4134 
L 2272 4134 
L 2272 0 
L 1638 0 
L 1638 4134 
L -19 4134 
L -19 4666 
z
" transform="scale(0.015625)"/>
     </defs>
     <use xlink:href="#DejaVuSans-54"/>
     <use xlink:href="#DejaVuSans-20" x="61.083984"/>
     <use xlink:href="#DejaVuSans-5b" x="92.871094"/>
     <use xlink:href="#DejaVuSans-33" x="131.884766"/>
     <use xlink:href="#DejaVuSans-35" x="195.507812"/>
     <use xlink:href="#DejaVuSans-5d" x="259.130859"/>
    </g>
   </g>
   <g id="text_18">
    <!-- V [46] -->
    <g transform="translate(292.863475 233.523646) scale(0.1 -0.1)">
     <defs>
      <path id="DejaVuSans-56" d="M 1831 0 
L 50 4666 
L 709 4666 
L 2188 738 
L 3669 4666 
L 4325 4666 
L 2547 0 
L 1831 0 
z
" transform="scale(0.015625)"/>
     </defs>
     <use xlink:href="#DejaVuSans-56"/>
     <use xlink:href="#DejaVuSans-20" x="68.408203"/>
     <use xlink:href="#DejaVuSans-5b" x="100.195312"/>
     <use xlink:href="#DejaVuSans-34" x="139.208984"/>
     <use xlink:href="#DejaVuSans-36" x="202.832031"/>
     <use xlink:href="#DejaVuSans-5d" x="266.455078"/>
    </g>
   </g>
   <g id="text_19">
    <!-- W [13] -->
    <g transform="translate(311.569361 193.061995) scale(0.1 -0.1)">
     <defs>
      <path id="DejaVuSans-57" d="M 213 4666 
L 850 4666 
L 1831 722 
L 2809 4666 
L 3519 4666 
L 4500 722 
L 5478 4666 
L 6119 4666 
L 4947 0 
L 4153 0 
L 3169 4050 
L 2175 0 
L 1381 0 
L 213 4666 
z
" transform="scale(0.015625)"/>
     </defs>
     <use xlink:href="#DejaVuSans-57"/>
     <use xlink:href="#DejaVuSans-20" x="98.876953"/>
     <use xlink:href="#DejaVuSans-5b" x="130.664062"/>
     <use xlink:href="#DejaVuSans-31" x="169.677734"/>
     <use xlink:href="#DejaVuSans-33" x="233.300781"/>
     <use xlink:href="#DejaVuSans-5d" x="296.923828"/>
    </g>
   </g>
   <g id="text_20">
    <!-- Y [19] -->
    <g transform="translate(316.108014 169.241692) scale(0.1 -0.1)">
     <defs>
      <path id="DejaVuSans-59" d="M -13 4666 
L 666 4666 
L 1959 2747 
L 3244 4666 
L 3922 4666 
L 2272 2222 
L 2272 0 
L 1638 0 
L 1638 2222 
L -13 4666 
z
" transform="scale(0.015625)"/>
     </defs>
     <use xlink:href="#DejaVuSans-59"/>
     <use xlink:href="#DejaVuSans-20" x="61.083984"/>
     <use xlink:href="#DejaVuSans-5b" x="92.871094"/>
     <use xlink:href="#DejaVuSans-31" x="131.884766"/>
     <use xlink:href="#DejaVuSans-39" x="195.507812"/>
     <use xlink:href="#DejaVuSans-5d" x="259.130859"/>
    </g>
   </g>
   <g id="text_21">
    <!-- A0A8I3MP90 [584] -->
    <g transform="translate(119.902527 152.091864) scale(0.12 -0.12)">
     <defs>
      <path id="DejaVuSans-38" d="M 2034 2216 
Q 1584 2216 1326 1975 
Q 1069 1734 1069 1313 
Q 1069 891 1326 650 
Q 1584 409 2034 409 
Q 2484 409 2743 651 
Q 3003 894 3003 1313 
Q 3003 1734 2745 1975 
Q 2488 2216 2034 2216 
z
M 1403 2484 
Q 997 2584 770 2862 
Q 544 3141 544 3541 
Q 544 4100 942 4425 
Q 1341 4750 2034 4750 
Q 2731 4750 3128 4425 
Q 3525 4100 3525 3541 
Q 3525 3141 3298 2862 
Q 3072 2584 2669 2484 
Q 3125 2378 3379 2068 
Q 3634 1759 3634 1313 
Q 3634 634 3220 271 
Q 2806 -91 2034 -91 
Q 1263 -91 848 271 
Q 434 634 434 1313 
Q 434 1759 690 2068 
Q 947 2378 1403 2484 
z
M 1172 3481 
Q 1172 3119 1398 2916 
Q 1625 2713 2034 2713 
Q 2441 2713 2670 2916 
Q 2900 3119 2900 3481 
Q 2900 3844 2670 4047 
Q 2441 4250 2034 4250 
Q 1625 4250 1398 4047 
Q 1172 3844 1172 3481 
z
" transform="scale(0.015625)"/>
     </defs>
     <use xlink:href="#DejaVuSans-41"/>
     <use xlink:href="#DejaVuSans-30" x="68.408203"/>
     <use xlink:href="#DejaVuSans-41" x="132.03125"/>
     <use xlink:href="#DejaVuSans-38" x="200.439453"/>
     <use xlink:href="#DejaVuSans-49" x="264.0625"/>
     <use xlink:href="#DejaVuSans-33" x="293.554688"/>
     <use xlink:href="#DejaVuSans-4d" x="357.177734"/>
     <use xlink:href="#DejaVuSans-50" x="443.457031"/>
     <use xlink:href="#DejaVuSans-39" x="503.759766"/>
     <use xlink:href="#DejaVuSans-30" x="567.382812"/>
     <use xlink:href="#DejaVuSans-20" x="631.005859"/>
     <use xlink:href="#DejaVuSans-5b" x="662.792969"/>
     <use xlink:href="#DejaVuSans-35" x="701.806641"/>
     <use xlink:href="#DejaVuSans-38" x="765.429688"/>
     <use xlink:href="#DejaVuSans-34" x="829.052734"/>
     <use xlink:href="#DejaVuSans-5d" x="892.675781"/>
    </g>
   </g>
  </g>
 </g>
</svg>
