<?xml version="1.0" encoding="utf-8" standalone="no"?>
<!DOCTYPE svg PUBLIC "-//W3C//DTD SVG 1.1//EN"
  "http://www.w3.org/Graphics/SVG/1.1/DTD/svg11.dtd">
<svg xmlns:xlink="http://www.w3.org/1999/xlink" width="354.608341pt" height="304.044068pt" viewBox="0 0 354.608341 304.044068" xmlns="http://www.w3.org/2000/svg" version="1.1">
 <metadata>
  <rdf:RDF xmlns:dc="http://purl.org/dc/elements/1.1/" xmlns:cc="http://creativecommons.org/ns#" xmlns:rdf="http://www.w3.org/1999/02/22-rdf-syntax-ns#">
   <cc:Work>
    <dc:type rdf:resource="http://purl.org/dc/dcmitype/StillImage"/>
    <dc:date>2024-09-27T16:07:24.926321</dc:date>
    <dc:format>image/svg+xml</dc:format>
    <dc:creator>
     <cc:Agent>
      <dc:title>Matplotlib v3.8.3, https://matplotlib.org/</dc:title>
     </cc:Agent>
    </dc:creator>
   </cc:Work>
  </rdf:RDF>
 </metadata>
 <defs>
  <style type="text/css">*{stroke-linejoin: round; stroke-linecap: butt}</style>
 </defs>
 <g id="figure_1">
  <g id="patch_1">
   <path d="M 0 304.044068 
L 354.608341 304.044068 
L 354.608341 0 
L 0 0 
z
" style="fill: #ffffff"/>
  </g>
  <g id="axes_1">
   <g id="patch_2">
    <path d="M 305.403898 152.442207 
C 305.403898 141.735909 304.057839 131.071961 301.397417 120.701476 
C 298.736995 110.33099 294.783257 100.336011 289.629306 90.951897 
L 177.670138 152.442207 
z
" style="fill: #1f77b4"/>
   </g>
   <g id="patch_3">
    <path d="M 289.537191 90.761687 
C 286.489489 85.21255 283.033444 79.897667 279.197641 74.860998 
C 275.361838 69.824329 271.156881 65.079799 266.61755 60.666649 
L 177.578023 152.251997 
z
" style="fill: #ff7f0e"/>
   </g>
   <g id="patch_4">
    <path d="M 266.528403 60.574953 
C 263.711683 57.83653 260.770132 55.229507 257.71313 52.7622 
C 254.656128 50.294892 251.486929 47.969925 248.215641 45.794714 
L 177.488876 152.160301 
z
" style="fill: #aec7e8"/>
   </g>
   <g id="patch_5">
    <path d="M 248.08725 45.71808 
C 241.359095 41.244259 234.221605 37.418897 226.770785 34.293449 
C 219.319966 31.168 211.589375 28.756543 203.682997 27.091512 
L 177.360484 152.083667 
z
" style="fill: #ffbb78"/>
   </g>
   <g id="patch_6">
    <path d="M 203.522073 27.051983 
C 198.395833 25.972431 193.208031 25.20926 187.98807 24.766797 
C 182.768108 24.324333 177.525867 24.203413 172.291056 24.404723 
L 177.19956 152.044138 
z
" style="fill: #98df8a"/>
   </g>
   <g id="patch_7">
    <path d="M 172.101998 24.422702 
C 162.060171 24.808871 152.098909 26.378731 142.425037 29.099687 
C 132.751165 31.820643 123.432103 35.673732 114.661344 40.578952 
L 177.010502 152.062116 
z
" style="fill: #2ca02c"/>
   </g>
   <g id="patch_8">
    <path d="M 114.52452 40.639255 
C 112.810408 41.597906 111.118634 42.595962 109.450547 43.632628 
C 107.782459 44.669294 106.138503 45.744294 104.519988 46.856769 
L 176.873678 152.122419 
z
" style="fill: #d62728"/>
   </g>
   <g id="patch_9">
    <path d="M 104.427969 46.929111 
C 98.309987 51.134268 92.570238 55.864791 87.273938 61.066931 
C 81.977639 66.269071 77.144926 71.923048 72.830711 77.96462 
L 176.781659 152.19476 
z
" style="fill: #9467bd"/>
   </g>
   <g id="patch_10">
    <path d="M 72.742513 78.078601 
C 70.332675 81.453308 68.088603 84.943364 66.018271 88.536369 
C 63.947938 92.129373 62.0538 95.821066 60.342588 99.598328 
L 176.693461 152.308742 
z
" style="fill: #ff9896"/>
   </g>
   <g id="patch_11">
    <path d="M 60.27288 99.825893 
C 54.043563 113.57624 50.300805 128.322621 49.218637 143.37936 
C 48.136469 158.436098 49.731927 173.566151 53.930827 188.066002 
L 176.623753 152.536306 
z
" style="fill: #c5b0d5"/>
   </g>
   <g id="patch_12">
    <path d="M 53.959615 188.280766 
C 54.627315 190.5865 55.359878 192.872953 56.156432 195.137403 
C 56.952987 197.401852 57.813216 199.643397 58.736094 201.859368 
L 176.652541 152.751069 
z
" style="fill: #c49c94"/>
   </g>
   <g id="patch_13">
    <path d="M 58.771664 201.938968 
C 60.533831 206.170197 62.522468 210.303513 64.728942 214.320975 
C 66.935416 218.338438 69.356531 222.234227 71.98178 225.991434 
L 176.688112 152.830669 
z
" style="fill: #8c564b"/>
   </g>
   <g id="patch_14">
    <path d="M 72.081209 226.120613 
C 76.959548 233.102401 82.523994 239.578788 88.691413 245.453013 
C 94.858831 251.327238 101.598352 256.5699 108.809285 261.102671 
L 176.787541 152.959848 
z
" style="fill: #e377c2"/>
   </g>
   <g id="patch_15">
    <path d="M 108.935822 261.192054 
C 112.261769 263.282734 115.682395 265.218867 119.18679 266.994278 
C 122.691185 268.769688 126.27562 270.382487 129.928663 271.827529 
L 176.914078 153.049231 
z
" style="fill: #7f7f7f"/>
   </g>
   <g id="patch_16">
    <path d="M 130.089034 271.878911 
C 139.026559 275.414349 148.334635 277.929757 157.836381 279.377333 
C 167.338127 280.82491 176.972974 281.195428 186.55783 280.481847 
L 177.074449 153.100613 
z
" style="fill: #f7b6d2"/>
   </g>
   <g id="patch_17">
    <path d="M 186.810733 280.459104 
C 197.705964 279.647968 208.452245 277.442328 218.786139 273.896256 
C 229.120033 270.350184 238.956401 265.492895 248.054112 259.443461 
L 177.327353 153.07787 
z
" style="fill: #c7c7c7"/>
   </g>
   <g id="patch_18">
    <path d="M 248.254316 259.31975 
C 254.982471 254.84593 261.270987 249.7438 267.035277 244.08199 
C 272.799567 238.420179 278.01367 232.224189 282.60745 225.577361 
L 177.527557 152.954159 
z
" style="fill: #dbdb8d"/>
   </g>
   <g id="patch_19">
    <path d="M 282.715863 225.424716 
C 286.688113 219.677191 290.18212 213.613438 293.162708 207.294505 
C 296.143296 200.975572 298.600428 194.422734 300.509368 187.701963 
L 177.63597 152.801514 
z
" style="fill: #bcbd22"/>
   </g>
   <g id="patch_20">
    <path d="M 300.54614 187.596566 
C 301.082752 185.707324 301.575722 183.805956 302.024654 181.89398 
C 302.473586 179.982004 302.878363 178.059929 303.23866 176.129287 
L 177.672741 152.696118 
z
" style="fill: #17becf"/>
   </g>
   <g id="patch_21">
    <path d="M 303.250488 176.056657 
C 303.971178 172.194861 304.51333 168.301871 304.875214 164.390106 
C 305.237098 160.478341 305.418329 156.551962 305.418329 152.623493 
L 177.684569 152.623487 
z
" style="fill: #9edae5"/>
   </g>
   <g id="patch_22">
    <path d="M 251.665968 152.57446 
C 251.665968 146.329119 250.880767 140.108483 249.328854 134.059033 
C 247.776941 128.009584 245.470594 122.179179 242.464123 116.705112 
L 177.154608 152.57446 
z
" style="fill: #ffffff"/>
   </g>
   <g id="patch_23">
    <path d="M 242.464123 116.705112 
C 240.686296 113.468115 238.67027 110.367767 236.432718 107.42971 
C 234.195167 104.491653 231.742275 101.724011 229.094332 99.149673 
L 177.154608 152.57446 
z
" style="fill: #ffffff"/>
   </g>
   <g id="patch_24">
    <path d="M 229.094332 99.149673 
C 227.451246 97.55226 225.735341 96.031497 223.95209 94.592234 
C 222.168838 93.152971 220.320139 91.79674 218.411888 90.527867 
L 177.154608 152.57446 
z
" style="fill: #ffffff"/>
   </g>
   <g id="patch_25">
    <path d="M 218.411888 90.527867 
C 214.487131 87.918138 210.323595 85.686677 205.977284 83.863499 
C 201.630972 82.040321 197.121461 80.633637 192.509407 79.662369 
L 177.154608 152.57446 
z
" style="fill: #ffffff"/>
   </g>
   <g id="patch_26">
    <path d="M 192.509407 79.662369 
C 189.5191 79.032631 186.492883 78.587448 183.447905 78.329344 
C 180.402928 78.07124 177.344954 78.000704 174.291314 78.118135 
L 177.154608 152.57446 
z
" style="fill: #ffffff"/>
   </g>
   <g id="patch_27">
    <path d="M 174.291314 78.118135 
C 168.433582 78.3434 162.622845 79.259152 156.979754 80.846376 
C 151.336662 82.4336 145.900542 84.681236 140.784266 87.542614 
L 177.154608 152.57446 
z
" style="fill: #ffffff"/>
   </g>
   <g id="patch_28">
    <path d="M 140.784266 87.542614 
C 139.784367 88.101827 138.797499 88.684027 137.824448 89.288748 
C 136.851397 89.89347 135.892422 90.520553 134.948289 91.169498 
L 177.154608 152.57446 
z
" style="fill: #ffffff"/>
   </g>
   <g id="patch_29">
    <path d="M 134.948289 91.169498 
C 131.379466 93.622506 128.031279 96.381978 124.941771 99.416559 
C 121.852263 102.451141 119.03318 105.749294 116.516555 109.273545 
L 177.154608 152.57446 
z
" style="fill: #ffffff"/>
   </g>
   <g id="patch_30">
    <path d="M 116.516555 109.273545 
C 115.110816 111.242123 113.801774 113.277989 112.59408 115.373909 
C 111.386386 117.469828 110.281472 119.623316 109.283265 121.826719 
L 177.154608 152.57446 
z
" style="fill: #ffffff"/>
   </g>
   <g id="patch_31">
    <path d="M 109.283265 121.826719 
C 105.649497 129.847755 103.466221 138.44981 102.834957 147.232908 
C 102.203692 156.016005 103.134376 164.841869 105.583735 173.300116 
L 177.154608 152.57446 
z
" style="fill: #ffffff"/>
   </g>
   <g id="patch_32">
    <path d="M 105.583735 173.300116 
C 105.973226 174.645127 106.400555 175.978892 106.865211 177.299821 
C 107.329868 178.620749 107.831668 179.928318 108.370014 181.220967 
L 177.154608 152.57446 
z
" style="fill: #ffffff"/>
   </g>
   <g id="patch_33">
    <path d="M 108.370014 181.220967 
C 109.397945 183.689184 110.557982 186.100285 111.845092 188.443805 
C 113.132202 190.787325 114.544519 193.059868 116.075914 195.251572 
L 177.154608 152.57446 
z
" style="fill: #ffffff"/>
   </g>
   <g id="patch_34">
    <path d="M 116.075914 195.251572 
C 118.921612 199.324282 122.167539 203.102175 125.7652 206.528806 
C 129.36286 209.955437 133.294248 213.013657 137.500625 215.657773 
L 177.154608 152.57446 
z
" style="fill: #ffffff"/>
   </g>
   <g id="patch_35">
    <path d="M 137.500625 215.657773 
C 139.440761 216.877337 141.436126 218.006748 143.480357 219.042404 
C 145.524587 220.07806 147.615508 221.018859 149.746449 221.861801 
L 177.154608 152.57446 
z
" style="fill: #ffffff"/>
   </g>
   <g id="patch_36">
    <path d="M 149.746449 221.861801 
C 154.960005 223.924139 160.389716 225.39146 165.932401 226.23588 
C 171.475087 227.0803 177.095414 227.296436 182.68658 226.88018 
L 177.154608 152.57446 
z
" style="fill: #ffffff"/>
   </g>
   <g id="patch_37">
    <path d="M 182.68658 226.88018 
C 189.042131 226.407017 195.310795 225.120394 201.3389 223.051852 
C 207.367005 220.98331 213.104886 218.149891 218.411884 214.621055 
L 177.154608 152.57446 
z
" style="fill: #ffffff"/>
   </g>
   <g id="patch_38">
    <path d="M 218.411884 214.621055 
C 222.336641 212.011326 226.004942 209.035084 229.367445 205.732361 
C 232.729947 202.429638 235.771507 198.815311 238.451212 194.937994 
L 177.154608 152.57446 
z
" style="fill: #ffffff"/>
   </g>
   <g id="patch_39">
    <path d="M 238.451212 194.937994 
C 240.768359 191.585271 242.80653 188.048082 244.545206 184.362038 
C 246.283882 180.675994 247.717209 176.853505 248.830757 172.933055 
L 177.154608 152.57446 
z
" style="fill: #ffffff"/>
   </g>
   <g id="patch_40">
    <path d="M 248.830757 172.933055 
C 249.143781 171.830997 249.431347 170.721866 249.693224 169.606546 
C 249.955101 168.491227 250.191221 167.370017 250.401394 166.243809 
L 177.154608 152.57446 
z
" style="fill: #ffffff"/>
   </g>
   <g id="patch_41">
    <path d="M 250.401394 166.243809 
C 250.821797 163.991094 251.138052 161.720184 251.349151 159.438321 
C 251.56025 157.156458 251.665968 154.86607 251.665968 152.574463 
L 177.154608 152.57446 
z
" style="fill: #ffffff"/>
   </g>
   <g id="matplotlib.axis_1"/>
   <g id="matplotlib.axis_2"/>
   <g id="text_1">
    <!-- A [49] -->
    <g transform="translate(313.770145 120.286778) scale(0.1 -0.1)">
     <defs>
      <path id="DejaVuSans-41" d="M 2188 4044 
L 1331 1722 
L 3047 1722 
L 2188 4044 
z
M 1831 4666 
L 2547 4666 
L 4325 0 
L 3669 0 
L 3244 1197 
L 1141 1197 
L 716 0 
L 50 0 
L 1831 4666 
z
" transform="scale(0.015625)"/>
      <path id="DejaVuSans-20" transform="scale(0.015625)"/>
      <path id="DejaVuSans-5b" d="M 550 4863 
L 1875 4863 
L 1875 4416 
L 1125 4416 
L 1125 -397 
L 1875 -397 
L 1875 -844 
L 550 -844 
L 550 4863 
z
" transform="scale(0.015625)"/>
      <path id="DejaVuSans-34" d="M 2419 4116 
L 825 1625 
L 2419 1625 
L 2419 4116 
z
M 2253 4666 
L 3047 4666 
L 3047 1625 
L 3713 1625 
L 3713 1100 
L 3047 1100 
L 3047 0 
L 2419 0 
L 2419 1100 
L 313 1100 
L 313 1709 
L 2253 4666 
z
" transform="scale(0.015625)"/>
      <path id="DejaVuSans-39" d="M 703 97 
L 703 672 
Q 941 559 1184 500 
Q 1428 441 1663 441 
Q 2288 441 2617 861 
Q 2947 1281 2994 2138 
Q 2813 1869 2534 1725 
Q 2256 1581 1919 1581 
Q 1219 1581 811 2004 
Q 403 2428 403 3163 
Q 403 3881 828 4315 
Q 1253 4750 1959 4750 
Q 2769 4750 3195 4129 
Q 3622 3509 3622 2328 
Q 3622 1225 3098 567 
Q 2575 -91 1691 -91 
Q 1453 -91 1209 -44 
Q 966 3 703 97 
z
M 1959 2075 
Q 2384 2075 2632 2365 
Q 2881 2656 2881 3163 
Q 2881 3666 2632 3958 
Q 2384 4250 1959 4250 
Q 1534 4250 1286 3958 
Q 1038 3666 1038 3163 
Q 1038 2656 1286 2365 
Q 1534 2075 1959 2075 
z
" transform="scale(0.015625)"/>
      <path id="DejaVuSans-5d" d="M 1947 4863 
L 1947 -844 
L 622 -844 
L 622 -397 
L 1369 -397 
L 1369 4416 
L 622 4416 
L 622 4863 
L 1947 4863 
z
" transform="scale(0.015625)"/>
     </defs>
     <use xlink:href="#DejaVuSans-41"/>
     <use xlink:href="#DejaVuSans-20" x="68.408203"/>
     <use xlink:href="#DejaVuSans-5b" x="100.195312"/>
     <use xlink:href="#DejaVuSans-34" x="139.208984"/>
     <use xlink:href="#DejaVuSans-39" x="202.832031"/>
     <use xlink:href="#DejaVuSans-5d" x="266.455078"/>
    </g>
   </g>
   <g id="text_2">
    <!-- C [29] -->
    <g transform="translate(289.359603 69.881273) scale(0.1 -0.1)">
     <defs>
      <path id="DejaVuSans-43" d="M 4122 4306 
L 4122 3641 
Q 3803 3938 3442 4084 
Q 3081 4231 2675 4231 
Q 1875 4231 1450 3742 
Q 1025 3253 1025 2328 
Q 1025 1406 1450 917 
Q 1875 428 2675 428 
Q 3081 428 3442 575 
Q 3803 722 4122 1019 
L 4122 359 
Q 3791 134 3420 21 
Q 3050 -91 2638 -91 
Q 1578 -91 968 557 
Q 359 1206 359 2328 
Q 359 3453 968 4101 
Q 1578 4750 2638 4750 
Q 3056 4750 3426 4639 
Q 3797 4528 4122 4306 
z
" transform="scale(0.015625)"/>
      <path id="DejaVuSans-32" d="M 1228 531 
L 3431 531 
L 3431 0 
L 469 0 
L 469 531 
Q 828 903 1448 1529 
Q 2069 2156 2228 2338 
Q 2531 2678 2651 2914 
Q 2772 3150 2772 3378 
Q 2772 3750 2511 3984 
Q 2250 4219 1831 4219 
Q 1534 4219 1204 4116 
Q 875 4013 500 3803 
L 500 4441 
Q 881 4594 1212 4672 
Q 1544 4750 1819 4750 
Q 2544 4750 2975 4387 
Q 3406 4025 3406 3419 
Q 3406 3131 3298 2873 
Q 3191 2616 2906 2266 
Q 2828 2175 2409 1742 
Q 1991 1309 1228 531 
z
" transform="scale(0.015625)"/>
     </defs>
     <use xlink:href="#DejaVuSans-43"/>
     <use xlink:href="#DejaVuSans-20" x="69.824219"/>
     <use xlink:href="#DejaVuSans-5b" x="101.611328"/>
     <use xlink:href="#DejaVuSans-32" x="140.625"/>
     <use xlink:href="#DejaVuSans-39" x="204.248047"/>
     <use xlink:href="#DejaVuSans-5d" x="267.871094"/>
    </g>
   </g>
   <g id="text_3">
    <!-- D [18] -->
    <g transform="translate(265.735555 45.581765) scale(0.1 -0.1)">
     <defs>
      <path id="DejaVuSans-44" d="M 1259 4147 
L 1259 519 
L 2022 519 
Q 2988 519 3436 956 
Q 3884 1394 3884 2338 
Q 3884 3275 3436 3711 
Q 2988 4147 2022 4147 
L 1259 4147 
z
M 628 4666 
L 1925 4666 
Q 3281 4666 3915 4102 
Q 4550 3538 4550 2338 
Q 4550 1131 3912 565 
Q 3275 0 1925 0 
L 628 0 
L 628 4666 
z
" transform="scale(0.015625)"/>
      <path id="DejaVuSans-31" d="M 794 531 
L 1825 531 
L 1825 4091 
L 703 3866 
L 703 4441 
L 1819 4666 
L 2450 4666 
L 2450 531 
L 3481 531 
L 3481 0 
L 794 0 
L 794 531 
z
" transform="scale(0.015625)"/>
      <path id="DejaVuSans-38" d="M 2034 2216 
Q 1584 2216 1326 1975 
Q 1069 1734 1069 1313 
Q 1069 891 1326 650 
Q 1584 409 2034 409 
Q 2484 409 2743 651 
Q 3003 894 3003 1313 
Q 3003 1734 2745 1975 
Q 2488 2216 2034 2216 
z
M 1403 2484 
Q 997 2584 770 2862 
Q 544 3141 544 3541 
Q 544 4100 942 4425 
Q 1341 4750 2034 4750 
Q 2731 4750 3128 4425 
Q 3525 4100 3525 3541 
Q 3525 3141 3298 2862 
Q 3072 2584 2669 2484 
Q 3125 2378 3379 2068 
Q 3634 1759 3634 1313 
Q 3634 634 3220 271 
Q 2806 -91 2034 -91 
Q 1263 -91 848 271 
Q 434 634 434 1313 
Q 434 1759 690 2068 
Q 947 2378 1403 2484 
z
M 1172 3481 
Q 1172 3119 1398 2916 
Q 1625 2713 2034 2713 
Q 2441 2713 2670 2916 
Q 2900 3119 2900 3481 
Q 2900 3844 2670 4047 
Q 2441 4250 2034 4250 
Q 1625 4250 1398 4047 
Q 1172 3844 1172 3481 
z
" transform="scale(0.015625)"/>
     </defs>
     <use xlink:href="#DejaVuSans-44"/>
     <use xlink:href="#DejaVuSans-20" x="77.001953"/>
     <use xlink:href="#DejaVuSans-5b" x="108.789062"/>
     <use xlink:href="#DejaVuSans-31" x="147.802734"/>
     <use xlink:href="#DejaVuSans-38" x="211.425781"/>
     <use xlink:href="#DejaVuSans-5d" x="275.048828"/>
    </g>
   </g>
   <g id="text_4">
    <!-- E [37] -->
    <g transform="translate(231.711815 25.273802) scale(0.1 -0.1)">
     <defs>
      <path id="DejaVuSans-45" d="M 628 4666 
L 3578 4666 
L 3578 4134 
L 1259 4134 
L 1259 2753 
L 3481 2753 
L 3481 2222 
L 1259 2222 
L 1259 531 
L 3634 531 
L 3634 0 
L 628 0 
L 628 4666 
z
" transform="scale(0.015625)"/>
      <path id="DejaVuSans-33" d="M 2597 2516 
Q 3050 2419 3304 2112 
Q 3559 1806 3559 1356 
Q 3559 666 3084 287 
Q 2609 -91 1734 -91 
Q 1441 -91 1130 -33 
Q 819 25 488 141 
L 488 750 
Q 750 597 1062 519 
Q 1375 441 1716 441 
Q 2309 441 2620 675 
Q 2931 909 2931 1356 
Q 2931 1769 2642 2001 
Q 2353 2234 1838 2234 
L 1294 2234 
L 1294 2753 
L 1863 2753 
Q 2328 2753 2575 2939 
Q 2822 3125 2822 3475 
Q 2822 3834 2567 4026 
Q 2313 4219 1838 4219 
Q 1578 4219 1281 4162 
Q 984 4106 628 3988 
L 628 4550 
Q 988 4650 1302 4700 
Q 1616 4750 1894 4750 
Q 2613 4750 3031 4423 
Q 3450 4097 3450 3541 
Q 3450 3153 3228 2886 
Q 3006 2619 2597 2516 
z
" transform="scale(0.015625)"/>
      <path id="DejaVuSans-37" d="M 525 4666 
L 3525 4666 
L 3525 4397 
L 1831 0 
L 1172 0 
L 2766 4134 
L 525 4134 
L 525 4666 
z
" transform="scale(0.015625)"/>
     </defs>
     <use xlink:href="#DejaVuSans-45"/>
     <use xlink:href="#DejaVuSans-20" x="63.183594"/>
     <use xlink:href="#DejaVuSans-5b" x="94.970703"/>
     <use xlink:href="#DejaVuSans-33" x="133.984375"/>
     <use xlink:href="#DejaVuSans-37" x="197.607422"/>
     <use xlink:href="#DejaVuSans-5d" x="261.230469"/>
    </g>
   </g>
   <g id="text_5">
    <!-- F [24] -->
    <g transform="translate(189.06692 14.798437) scale(0.1 -0.1)">
     <defs>
      <path id="DejaVuSans-46" d="M 628 4666 
L 3309 4666 
L 3309 4134 
L 1259 4134 
L 1259 2759 
L 3109 2759 
L 3109 2228 
L 1259 2228 
L 1259 0 
L 628 0 
L 628 4666 
z
" transform="scale(0.015625)"/>
     </defs>
     <use xlink:href="#DejaVuSans-46"/>
     <use xlink:href="#DejaVuSans-20" x="57.519531"/>
     <use xlink:href="#DejaVuSans-5b" x="89.306641"/>
     <use xlink:href="#DejaVuSans-32" x="128.320312"/>
     <use xlink:href="#DejaVuSans-34" x="191.943359"/>
     <use xlink:href="#DejaVuSans-5d" x="255.566406"/>
    </g>
   </g>
   <g id="text_6">
    <!-- G [46] -->
    <g transform="translate(107.511803 19.562819) scale(0.1 -0.1)">
     <defs>
      <path id="DejaVuSans-47" d="M 3809 666 
L 3809 1919 
L 2778 1919 
L 2778 2438 
L 4434 2438 
L 4434 434 
Q 4069 175 3628 42 
Q 3188 -91 2688 -91 
Q 1594 -91 976 548 
Q 359 1188 359 2328 
Q 359 3472 976 4111 
Q 1594 4750 2688 4750 
Q 3144 4750 3555 4637 
Q 3966 4525 4313 4306 
L 4313 3634 
Q 3963 3931 3569 4081 
Q 3175 4231 2741 4231 
Q 1884 4231 1454 3753 
Q 1025 3275 1025 2328 
Q 1025 1384 1454 906 
Q 1884 428 2741 428 
Q 3075 428 3337 486 
Q 3600 544 3809 666 
z
" transform="scale(0.015625)"/>
      <path id="DejaVuSans-36" d="M 2113 2584 
Q 1688 2584 1439 2293 
Q 1191 2003 1191 1497 
Q 1191 994 1439 701 
Q 1688 409 2113 409 
Q 2538 409 2786 701 
Q 3034 994 3034 1497 
Q 3034 2003 2786 2293 
Q 2538 2584 2113 2584 
z
M 3366 4563 
L 3366 3988 
Q 3128 4100 2886 4159 
Q 2644 4219 2406 4219 
Q 1781 4219 1451 3797 
Q 1122 3375 1075 2522 
Q 1259 2794 1537 2939 
Q 1816 3084 2150 3084 
Q 2853 3084 3261 2657 
Q 3669 2231 3669 1497 
Q 3669 778 3244 343 
Q 2819 -91 2113 -91 
Q 1303 -91 875 529 
Q 447 1150 447 2328 
Q 447 3434 972 4092 
Q 1497 4750 2381 4750 
Q 2619 4750 2861 4703 
Q 3103 4656 3366 4563 
z
" transform="scale(0.015625)"/>
     </defs>
     <use xlink:href="#DejaVuSans-47"/>
     <use xlink:href="#DejaVuSans-20" x="77.490234"/>
     <use xlink:href="#DejaVuSans-5b" x="109.277344"/>
     <use xlink:href="#DejaVuSans-34" x="148.291016"/>
     <use xlink:href="#DejaVuSans-36" x="211.914062"/>
     <use xlink:href="#DejaVuSans-5d" x="275.537109"/>
    </g>
   </g>
   <g id="text_7">
    <!-- H [9] -->
    <g transform="translate(77.844171 35.543024) scale(0.1 -0.1)">
     <defs>
      <path id="DejaVuSans-48" d="M 628 4666 
L 1259 4666 
L 1259 2753 
L 3553 2753 
L 3553 4666 
L 4184 4666 
L 4184 0 
L 3553 0 
L 3553 2222 
L 1259 2222 
L 1259 0 
L 628 0 
L 628 4666 
z
" transform="scale(0.015625)"/>
     </defs>
     <use xlink:href="#DejaVuSans-48"/>
     <use xlink:href="#DejaVuSans-20" x="75.195312"/>
     <use xlink:href="#DejaVuSans-5b" x="106.982422"/>
     <use xlink:href="#DejaVuSans-39" x="145.996094"/>
     <use xlink:href="#DejaVuSans-5d" x="209.619141"/>
    </g>
   </g>
   <g id="text_8">
    <!-- I [34] -->
    <g transform="translate(51.666916 54.713523) scale(0.1 -0.1)">
     <defs>
      <path id="DejaVuSans-49" d="M 628 4666 
L 1259 4666 
L 1259 0 
L 628 0 
L 628 4666 
z
" transform="scale(0.015625)"/>
     </defs>
     <use xlink:href="#DejaVuSans-49"/>
     <use xlink:href="#DejaVuSans-20" x="29.492188"/>
     <use xlink:href="#DejaVuSans-5b" x="61.279297"/>
     <use xlink:href="#DejaVuSans-33" x="100.292969"/>
     <use xlink:href="#DejaVuSans-34" x="163.916016"/>
     <use xlink:href="#DejaVuSans-5d" x="227.539062"/>
    </g>
   </g>
   <g id="text_9">
    <!-- K [19] -->
    <g transform="translate(24.686689 84.918506) scale(0.1 -0.1)">
     <defs>
      <path id="DejaVuSans-4b" d="M 628 4666 
L 1259 4666 
L 1259 2694 
L 3353 4666 
L 4166 4666 
L 1850 2491 
L 4331 0 
L 3500 0 
L 1259 2247 
L 1259 0 
L 628 0 
L 628 4666 
z
" transform="scale(0.015625)"/>
     </defs>
     <use xlink:href="#DejaVuSans-4b"/>
     <use xlink:href="#DejaVuSans-20" x="65.576172"/>
     <use xlink:href="#DejaVuSans-5b" x="97.363281"/>
     <use xlink:href="#DejaVuSans-31" x="136.376953"/>
     <use xlink:href="#DejaVuSans-39" x="200"/>
     <use xlink:href="#DejaVuSans-5d" x="263.623047"/>
    </g>
   </g>
   <g id="text_10">
    <!-- L [69] -->
    <g transform="translate(7.2 145.22304) scale(0.1 -0.1)">
     <defs>
      <path id="DejaVuSans-4c" d="M 628 4666 
L 1259 4666 
L 1259 531 
L 3531 531 
L 3531 0 
L 628 0 
L 628 4666 
z
" transform="scale(0.015625)"/>
     </defs>
     <use xlink:href="#DejaVuSans-4c"/>
     <use xlink:href="#DejaVuSans-20" x="55.712891"/>
     <use xlink:href="#DejaVuSans-5b" x="87.5"/>
     <use xlink:href="#DejaVuSans-36" x="126.513672"/>
     <use xlink:href="#DejaVuSans-39" x="190.136719"/>
     <use xlink:href="#DejaVuSans-5d" x="253.759766"/>
    </g>
   </g>
   <g id="text_11">
    <!-- M [11] -->
    <g transform="translate(11.772446 202.135411) scale(0.1 -0.1)">
     <defs>
      <path id="DejaVuSans-4d" d="M 628 4666 
L 1569 4666 
L 2759 1491 
L 3956 4666 
L 4897 4666 
L 4897 0 
L 4281 0 
L 4281 4097 
L 3078 897 
L 2444 897 
L 1241 4097 
L 1241 0 
L 628 0 
L 628 4666 
z
" transform="scale(0.015625)"/>
     </defs>
     <use xlink:href="#DejaVuSans-4d"/>
     <use xlink:href="#DejaVuSans-20" x="86.279297"/>
     <use xlink:href="#DejaVuSans-5b" x="118.066406"/>
     <use xlink:href="#DejaVuSans-31" x="157.080078"/>
     <use xlink:href="#DejaVuSans-31" x="220.703125"/>
     <use xlink:href="#DejaVuSans-5d" x="284.326172"/>
    </g>
   </g>
   <g id="text_12">
    <!-- N [21] -->
    <g transform="translate(22.345525 223.229381) scale(0.1 -0.1)">
     <defs>
      <path id="DejaVuSans-4e" d="M 628 4666 
L 1478 4666 
L 3547 763 
L 3547 4666 
L 4159 4666 
L 4159 0 
L 3309 0 
L 1241 3903 
L 1241 0 
L 628 0 
L 628 4666 
z
" transform="scale(0.015625)"/>
     </defs>
     <use xlink:href="#DejaVuSans-4e"/>
     <use xlink:href="#DejaVuSans-20" x="74.804688"/>
     <use xlink:href="#DejaVuSans-5b" x="106.591797"/>
     <use xlink:href="#DejaVuSans-32" x="145.605469"/>
     <use xlink:href="#DejaVuSans-31" x="209.228516"/>
     <use xlink:href="#DejaVuSans-5d" x="272.851562"/>
    </g>
   </g>
   <g id="text_13">
    <!-- P [39] -->
    <g transform="translate(50.145862 257.461705) scale(0.1 -0.1)">
     <defs>
      <path id="DejaVuSans-50" d="M 1259 4147 
L 1259 2394 
L 2053 2394 
Q 2494 2394 2734 2622 
Q 2975 2850 2975 3272 
Q 2975 3691 2734 3919 
Q 2494 4147 2053 4147 
L 1259 4147 
z
M 628 4666 
L 2053 4666 
Q 2838 4666 3239 4311 
Q 3641 3956 3641 3272 
Q 3641 2581 3239 2228 
Q 2838 1875 2053 1875 
L 1259 1875 
L 1259 0 
L 628 0 
L 628 4666 
z
" transform="scale(0.015625)"/>
     </defs>
     <use xlink:href="#DejaVuSans-50"/>
     <use xlink:href="#DejaVuSans-20" x="60.302734"/>
     <use xlink:href="#DejaVuSans-5b" x="92.089844"/>
     <use xlink:href="#DejaVuSans-33" x="131.103516"/>
     <use xlink:href="#DejaVuSans-39" x="194.726562"/>
     <use xlink:href="#DejaVuSans-5d" x="258.349609"/>
    </g>
   </g>
   <g id="text_14">
    <!-- Q [18] -->
    <g transform="translate(81.835936 281.148157) scale(0.1 -0.1)">
     <defs>
      <path id="DejaVuSans-51" d="M 2522 4238 
Q 1834 4238 1429 3725 
Q 1025 3213 1025 2328 
Q 1025 1447 1429 934 
Q 1834 422 2522 422 
Q 3209 422 3611 934 
Q 4013 1447 4013 2328 
Q 4013 3213 3611 3725 
Q 3209 4238 2522 4238 
z
M 3406 84 
L 4238 -825 
L 3475 -825 
L 2784 -78 
Q 2681 -84 2626 -87 
Q 2572 -91 2522 -91 
Q 1538 -91 948 567 
Q 359 1225 359 2328 
Q 359 3434 948 4092 
Q 1538 4750 2522 4750 
Q 3503 4750 4090 4092 
Q 4678 3434 4678 2328 
Q 4678 1516 4351 937 
Q 4025 359 3406 84 
z
" transform="scale(0.015625)"/>
     </defs>
     <use xlink:href="#DejaVuSans-51"/>
     <use xlink:href="#DejaVuSans-20" x="78.710938"/>
     <use xlink:href="#DejaVuSans-5b" x="110.498047"/>
     <use xlink:href="#DejaVuSans-31" x="149.511719"/>
     <use xlink:href="#DejaVuSans-38" x="213.134766"/>
     <use xlink:href="#DejaVuSans-5d" x="276.757812"/>
    </g>
   </g>
   <g id="text_15">
    <!-- R [44] -->
    <g transform="translate(125.257887 294.76438) scale(0.1 -0.1)">
     <defs>
      <path id="DejaVuSans-52" d="M 2841 2188 
Q 3044 2119 3236 1894 
Q 3428 1669 3622 1275 
L 4263 0 
L 3584 0 
L 2988 1197 
Q 2756 1666 2539 1819 
Q 2322 1972 1947 1972 
L 1259 1972 
L 1259 0 
L 628 0 
L 628 4666 
L 2053 4666 
Q 2853 4666 3247 4331 
Q 3641 3997 3641 3322 
Q 3641 2881 3436 2590 
Q 3231 2300 2841 2188 
z
M 1259 4147 
L 1259 2491 
L 2053 2491 
Q 2509 2491 2742 2702 
Q 2975 2913 2975 3322 
Q 2975 3731 2742 3939 
Q 2509 4147 2053 4147 
L 1259 4147 
z
" transform="scale(0.015625)"/>
     </defs>
     <use xlink:href="#DejaVuSans-52"/>
     <use xlink:href="#DejaVuSans-20" x="69.482422"/>
     <use xlink:href="#DejaVuSans-5b" x="101.269531"/>
     <use xlink:href="#DejaVuSans-34" x="140.283203"/>
     <use xlink:href="#DejaVuSans-34" x="203.90625"/>
     <use xlink:href="#DejaVuSans-5d" x="267.529297"/>
    </g>
   </g>
   <g id="text_16">
    <!-- S [50] -->
    <g transform="translate(222.932017 288.73747) scale(0.1 -0.1)">
     <defs>
      <path id="DejaVuSans-53" d="M 3425 4513 
L 3425 3897 
Q 3066 4069 2747 4153 
Q 2428 4238 2131 4238 
Q 1616 4238 1336 4038 
Q 1056 3838 1056 3469 
Q 1056 3159 1242 3001 
Q 1428 2844 1947 2747 
L 2328 2669 
Q 3034 2534 3370 2195 
Q 3706 1856 3706 1288 
Q 3706 609 3251 259 
Q 2797 -91 1919 -91 
Q 1588 -91 1214 -16 
Q 841 59 441 206 
L 441 856 
Q 825 641 1194 531 
Q 1563 422 1919 422 
Q 2459 422 2753 634 
Q 3047 847 3047 1241 
Q 3047 1584 2836 1778 
Q 2625 1972 2144 2069 
L 1759 2144 
Q 1053 2284 737 2584 
Q 422 2884 422 3419 
Q 422 4038 858 4394 
Q 1294 4750 2059 4750 
Q 2388 4750 2728 4690 
Q 3069 4631 3425 4513 
z
" transform="scale(0.015625)"/>
      <path id="DejaVuSans-35" d="M 691 4666 
L 3169 4666 
L 3169 4134 
L 1269 4134 
L 1269 2991 
Q 1406 3038 1543 3061 
Q 1681 3084 1819 3084 
Q 2600 3084 3056 2656 
Q 3513 2228 3513 1497 
Q 3513 744 3044 326 
Q 2575 -91 1722 -91 
Q 1428 -91 1123 -41 
Q 819 9 494 109 
L 494 744 
Q 775 591 1075 516 
Q 1375 441 1709 441 
Q 2250 441 2565 725 
Q 2881 1009 2881 1497 
Q 2881 1984 2565 2268 
Q 2250 2553 1709 2553 
Q 1456 2553 1204 2497 
Q 953 2441 691 2322 
L 691 4666 
z
" transform="scale(0.015625)"/>
      <path id="DejaVuSans-30" d="M 2034 4250 
Q 1547 4250 1301 3770 
Q 1056 3291 1056 2328 
Q 1056 1369 1301 889 
Q 1547 409 2034 409 
Q 2525 409 2770 889 
Q 3016 1369 3016 2328 
Q 3016 3291 2770 3770 
Q 2525 4250 2034 4250 
z
M 2034 4750 
Q 2819 4750 3233 4129 
Q 3647 3509 3647 2328 
Q 3647 1150 3233 529 
Q 2819 -91 2034 -91 
Q 1250 -91 836 529 
Q 422 1150 422 2328 
Q 422 3509 836 4129 
Q 1250 4750 2034 4750 
z
" transform="scale(0.015625)"/>
     </defs>
     <use xlink:href="#DejaVuSans-53"/>
     <use xlink:href="#DejaVuSans-20" x="63.476562"/>
     <use xlink:href="#DejaVuSans-5b" x="95.263672"/>
     <use xlink:href="#DejaVuSans-35" x="134.277344"/>
     <use xlink:href="#DejaVuSans-30" x="197.900391"/>
     <use xlink:href="#DejaVuSans-5d" x="261.523438"/>
    </g>
   </g>
   <g id="text_17">
    <!-- T [37] -->
    <g transform="translate(275.986049 255.954148) scale(0.1 -0.1)">
     <defs>
      <path id="DejaVuSans-54" d="M -19 4666 
L 3928 4666 
L 3928 4134 
L 2272 4134 
L 2272 0 
L 1638 0 
L 1638 4134 
L -19 4134 
L -19 4666 
z
" transform="scale(0.015625)"/>
     </defs>
     <use xlink:href="#DejaVuSans-54"/>
     <use xlink:href="#DejaVuSans-20" x="61.083984"/>
     <use xlink:href="#DejaVuSans-5b" x="92.871094"/>
     <use xlink:href="#DejaVuSans-33" x="131.884766"/>
     <use xlink:href="#DejaVuSans-37" x="195.507812"/>
     <use xlink:href="#DejaVuSans-5d" x="259.130859"/>
    </g>
   </g>
   <g id="text_18">
    <!-- V [32] -->
    <g transform="translate(304.715382 215.503179) scale(0.1 -0.1)">
     <defs>
      <path id="DejaVuSans-56" d="M 1831 0 
L 50 4666 
L 709 4666 
L 2188 738 
L 3669 4666 
L 4325 4666 
L 2547 0 
L 1831 0 
z
" transform="scale(0.015625)"/>
     </defs>
     <use xlink:href="#DejaVuSans-56"/>
     <use xlink:href="#DejaVuSans-20" x="68.408203"/>
     <use xlink:href="#DejaVuSans-5b" x="100.195312"/>
     <use xlink:href="#DejaVuSans-33" x="139.208984"/>
     <use xlink:href="#DejaVuSans-32" x="202.832031"/>
     <use xlink:href="#DejaVuSans-5d" x="266.455078"/>
    </g>
   </g>
   <g id="text_19">
    <!-- W [9] -->
    <g transform="translate(314.459845 187.573141) scale(0.1 -0.1)">
     <defs>
      <path id="DejaVuSans-57" d="M 213 4666 
L 850 4666 
L 1831 722 
L 2809 4666 
L 3519 4666 
L 4500 722 
L 5478 4666 
L 6119 4666 
L 4947 0 
L 4153 0 
L 3169 4050 
L 2175 0 
L 1381 0 
L 213 4666 
z
" transform="scale(0.015625)"/>
     </defs>
     <use xlink:href="#DejaVuSans-57"/>
     <use xlink:href="#DejaVuSans-20" x="98.876953"/>
     <use xlink:href="#DejaVuSans-5b" x="130.664062"/>
     <use xlink:href="#DejaVuSans-39" x="169.677734"/>
     <use xlink:href="#DejaVuSans-5d" x="233.300781"/>
    </g>
   </g>
   <g id="text_20">
    <!-- Y [18] -->
    <g transform="translate(317.594278 168.326143) scale(0.1 -0.1)">
     <defs>
      <path id="DejaVuSans-59" d="M -13 4666 
L 666 4666 
L 1959 2747 
L 3244 4666 
L 3922 4666 
L 2272 2222 
L 2272 0 
L 1638 0 
L 1638 2222 
L -13 4666 
z
" transform="scale(0.015625)"/>
     </defs>
     <use xlink:href="#DejaVuSans-59"/>
     <use xlink:href="#DejaVuSans-20" x="61.083984"/>
     <use xlink:href="#DejaVuSans-5b" x="92.871094"/>
     <use xlink:href="#DejaVuSans-31" x="131.884766"/>
     <use xlink:href="#DejaVuSans-38" x="195.507812"/>
     <use xlink:href="#DejaVuSans-5d" x="259.130859"/>
    </g>
   </g>
   <g id="text_21">
    <!-- A0A8C8WTY6 [613] -->
    <g transform="translate(118.183046 152.57446) scale(0.12 -0.12)">
     <use xlink:href="#DejaVuSans-41"/>
     <use xlink:href="#DejaVuSans-30" x="68.408203"/>
     <use xlink:href="#DejaVuSans-41" x="132.03125"/>
     <use xlink:href="#DejaVuSans-38" x="200.439453"/>
     <use xlink:href="#DejaVuSans-43" x="264.0625"/>
     <use xlink:href="#DejaVuSans-38" x="333.886719"/>
     <use xlink:href="#DejaVuSans-57" x="397.509766"/>
     <use xlink:href="#DejaVuSans-54" x="496.386719"/>
     <use xlink:href="#DejaVuSans-59" x="557.470703"/>
     <use xlink:href="#DejaVuSans-36" x="618.554688"/>
     <use xlink:href="#DejaVuSans-20" x="682.177734"/>
     <use xlink:href="#DejaVuSans-5b" x="713.964844"/>
     <use xlink:href="#DejaVuSans-36" x="752.978516"/>
     <use xlink:href="#DejaVuSans-31" x="816.601562"/>
     <use xlink:href="#DejaVuSans-33" x="880.224609"/>
     <use xlink:href="#DejaVuSans-5d" x="943.847656"/>
    </g>
   </g>
  </g>
 </g>
</svg>
