<?xml version="1.0" encoding="utf-8" standalone="no"?>
<!DOCTYPE svg PUBLIC "-//W3C//DTD SVG 1.1//EN"
  "http://www.w3.org/Graphics/SVG/1.1/DTD/svg11.dtd">
<svg xmlns:xlink="http://www.w3.org/1999/xlink" width="352.87552pt" height="304.30225pt" viewBox="0 0 352.87552 304.30225" xmlns="http://www.w3.org/2000/svg" version="1.1">
 <metadata>
  <rdf:RDF xmlns:dc="http://purl.org/dc/elements/1.1/" xmlns:cc="http://creativecommons.org/ns#" xmlns:rdf="http://www.w3.org/1999/02/22-rdf-syntax-ns#">
   <cc:Work>
    <dc:type rdf:resource="http://purl.org/dc/dcmitype/StillImage"/>
    <dc:date>2024-09-27T16:07:38.665232</dc:date>
    <dc:format>image/svg+xml</dc:format>
    <dc:creator>
     <cc:Agent>
      <dc:title>Matplotlib v3.8.3, https://matplotlib.org/</dc:title>
     </cc:Agent>
    </dc:creator>
   </cc:Work>
  </rdf:RDF>
 </metadata>
 <defs>
  <style type="text/css">*{stroke-linejoin: round; stroke-linecap: butt}</style>
 </defs>
 <g id="figure_1">
  <g id="patch_1">
   <path d="M 0 304.30225 
L 352.87552 304.30225 
L 352.87552 0 
L 0 0 
z
" style="fill: #ffffff"/>
  </g>
  <g id="axes_1">
   <g id="patch_2">
    <path d="M 304.701674 152.849378 
C 304.701674 144.76099 303.933412 136.690856 302.407243 128.747757 
C 300.881075 120.804657 298.603888 113.024444 295.606379 105.511991 
L 176.967914 152.849378 
z
" style="fill: #1f77b4"/>
   </g>
   <g id="patch_3">
    <path d="M 295.559412 105.37372 
C 294.211339 101.995136 292.719558 98.67568 291.088149 95.424429 
C 289.45674 92.173178 287.687192 88.993099 285.784344 85.892889 
L 176.920947 152.711107 
z
" style="fill: #ff7f0e"/>
   </g>
   <g id="patch_4">
    <path d="M 285.742761 85.823675 
C 284.262857 83.412545 282.703258 81.051247 281.066546 78.743688 
C 279.429833 76.436128 277.716909 74.183581 275.930609 71.989773 
L 176.879364 152.641892 
z
" style="fill: #aec7e8"/>
   </g>
   <g id="patch_5">
    <path d="M 275.875504 71.924032 
C 273.323403 68.789721 270.62397 65.778311 267.786317 62.899969 
C 264.948665 60.021627 261.97599 57.279596 258.87833 54.683133 
L 176.824259 152.57615 
z
" style="fill: #ffbb78"/>
   </g>
   <g id="patch_6">
    <path d="M 258.74027 54.582225 
C 251.299254 48.345154 243.171305 42.976777 234.514022 38.581185 
C 225.856739 34.185592 216.72644 30.79138 207.30016 28.46436 
L 176.6862 152.475243 
z
" style="fill: #98df8a"/>
   </g>
   <g id="patch_7">
    <path d="M 207.127219 28.411058 
C 202.41789 27.248489 197.64616 26.355119 192.835219 25.735291 
C 188.024277 25.115462 183.181933 24.770181 178.331719 24.701125 
L 176.513259 152.42194 
z
" style="fill: #2ca02c"/>
   </g>
   <g id="patch_8">
    <path d="M 178.240986 24.697247 
C 175.816371 24.662726 173.391264 24.697254 170.968614 24.80079 
C 168.545964 24.904325 166.126753 25.076826 163.713923 25.318083 
L 176.422526 152.418062 
z
" style="fill: #d62728"/>
   </g>
   <g id="patch_9">
    <path d="M 163.532391 25.358352 
C 151.044507 26.607004 138.808551 29.689313 127.219426 34.505802 
C 115.630302 39.322291 104.814041 45.82058 95.119729 53.790943 
L 176.240994 152.458332 
z
" style="fill: #9467bd"/>
   </g>
   <g id="patch_10">
    <path d="M 94.917725 53.938588 
C 88.98271 58.818173 83.500054 64.223323 78.536471 70.088269 
C 73.572887 75.953215 69.148591 82.25407 65.317418 88.914164 
L 176.03899 152.605977 
z
" style="fill: #ff9896"/>
   </g>
   <g id="patch_11">
    <path d="M 65.195501 89.192486 
C 56.704404 103.953372 51.250187 120.26431 49.154393 137.163723 
C 47.058599 154.063136 48.363236 171.212278 52.991394 187.60016 
L 175.917073 152.884299 
z
" style="fill: #c5b0d5"/>
   </g>
   <g id="patch_12">
    <path d="M 53.035158 187.88613 
C 54.793313 194.111593 57.021855 200.194512 59.701542 206.082363 
C 62.381229 211.970214 65.504326 217.646001 69.043867 223.060718 
L 175.960837 153.170268 
z
" style="fill: #c49c94"/>
   </g>
   <g id="patch_13">
    <path d="M 69.125302 223.187915 
C 72.222052 227.92526 75.630239 232.451552 79.327324 236.736859 
C 83.02441 241.022166 87.002225 245.05702 91.234465 248.814738 
L 176.042271 153.297465 
z
" style="fill: #8c564b"/>
   </g>
   <g id="patch_14">
    <path d="M 91.348351 248.913938 
C 96.18574 253.208956 101.342424 257.130296 106.773877 260.644102 
C 112.20533 264.157907 117.895874 267.254034 123.796375 269.905749 
L 176.156158 153.396665 
z
" style="fill: #e377c2"/>
   </g>
   <g id="patch_15">
    <path d="M 123.900013 269.957753 
C 126.48048 271.117428 129.098763 272.191054 131.750528 273.176855 
C 134.402293 274.162655 137.086077 275.060086 139.797438 275.867662 
L 176.259795 153.448669 
z
" style="fill: #7f7f7f"/>
   </g>
   <g id="patch_16">
    <path d="M 139.889921 275.892835 
C 144.538797 277.277498 149.262776 278.396224 154.038897 279.243578 
C 158.815018 280.090931 163.635532 280.665536 168.477009 280.9646 
L 176.352278 153.473842 
z
" style="fill: #f7b6d2"/>
   </g>
   <g id="patch_17">
    <path d="M 168.65299 280.966271 
C 177.939182 281.539891 187.260312 281.097214 196.450347 279.646126 
C 205.640382 278.195038 214.644429 275.744206 223.302101 272.337285 
L 176.528259 153.475512 
z
" style="fill: #c7c7c7"/>
   </g>
   <g id="patch_18">
    <path d="M 223.516615 272.252871 
C 232.174288 268.84595 240.433873 264.503292 248.148246 259.302249 
C 255.862619 254.101206 262.985701 248.072845 269.390611 241.324547 
L 176.742773 153.391098 
z
" style="fill: #dbdb8d"/>
   </g>
   <g id="patch_19">
    <path d="M 269.538576 241.174461 
C 274.827925 235.601533 279.603672 229.562707 283.807704 223.131466 
C 288.011737 216.700225 291.626933 209.90276 294.609302 202.821784 
L 176.890738 153.241011 
z
" style="fill: #bcbd22"/>
   </g>
   <g id="patch_20">
    <path d="M 294.663557 202.71366 
C 295.447897 200.851419 296.187937 198.970828 296.883052 197.073475 
C 297.578167 195.176123 298.228162 193.262543 298.832488 191.334351 
L 176.944992 153.132887 
z
" style="fill: #17becf"/>
   </g>
   <g id="patch_21">
    <path d="M 298.858845 191.231779 
C 300.793525 185.058893 302.256482 178.747945 303.235084 172.353428 
C 304.213686 165.958912 304.705109 159.499283 304.705109 153.030318 
L 176.971349 153.030314 
z
" style="fill: #9edae5"/>
   </g>
   <g id="patch_22">
    <path d="M 250.95661 152.949801 
C 250.95661 148.231575 250.508457 143.523997 249.618192 138.890522 
C 248.727927 134.257048 247.399569 129.71859 245.651021 125.336326 
L 176.44525 152.949801 
z
" style="fill: #ffffff"/>
   </g>
   <g id="patch_23">
    <path d="M 245.651021 125.336326 
C 244.864645 123.365485 243.99444 121.429135 243.042785 119.532572 
C 242.09113 117.636009 241.058893 115.780963 239.948899 113.972508 
L 176.44525 152.949801 
z
" style="fill: #ffffff"/>
   </g>
   <g id="patch_24">
    <path d="M 239.948899 113.972508 
C 239.085622 112.566016 238.175856 111.188592 237.221107 109.842515 
C 236.266357 108.496439 235.267152 107.182453 234.225144 105.902732 
L 176.44525 152.949801 
z
" style="fill: #ffffff"/>
   </g>
   <g id="patch_25">
    <path d="M 234.225144 105.902732 
C 232.736418 104.074384 231.161748 102.317728 229.506451 100.638696 
C 227.851154 98.959663 226.117094 97.360144 224.310125 95.845541 
L 176.44525 152.949801 
z
" style="fill: #ffffff"/>
   </g>
   <g id="patch_26">
    <path d="M 224.310125 95.845541 
C 219.969532 92.207249 215.228228 89.075696 210.178147 86.511601 
C 205.128065 83.947505 199.802057 81.967548 194.303394 80.61012 
L 176.44525 152.949801 
z
" style="fill: #ffffff"/>
   </g>
   <g id="patch_27">
    <path d="M 194.303394 80.61012 
C 191.556286 79.931955 188.772776 79.410822 185.966394 79.049256 
C 183.160011 78.687689 180.33531 78.486275 177.506019 78.445992 
L 176.44525 152.949801 
z
" style="fill: #ffffff"/>
   </g>
   <g id="patch_28">
    <path d="M 177.506019 78.445992 
C 176.09166 78.425855 174.677014 78.445996 173.263802 78.506392 
C 171.850589 78.566788 170.439383 78.667413 169.031899 78.808146 
L 176.44525 152.949801 
z
" style="fill: #ffffff"/>
   </g>
   <g id="patch_29">
    <path d="M 169.031899 78.808146 
C 161.7473 79.536526 154.609659 81.33454 147.849336 84.144158 
C 141.089013 86.953777 134.779528 90.744446 129.124512 95.393824 
L 176.44525 152.949801 
z
" style="fill: #ffffff"/>
   </g>
   <g id="patch_30">
    <path d="M 129.124512 95.393824 
C 125.66242 98.240248 122.464205 101.393253 119.568781 104.814471 
C 116.673357 108.235689 114.092518 111.911188 111.857667 115.796244 
L 176.44525 152.949801 
z
" style="fill: #ffffff"/>
   </g>
   <g id="patch_31">
    <path d="M 111.857667 115.796244 
C 106.904527 124.406761 103.722901 133.921474 102.500354 143.779465 
C 101.277807 153.637456 102.038846 163.641123 104.738605 173.20072 
L 176.44525 152.949801 
z
" style="fill: #ffffff"/>
   </g>
   <g id="patch_32">
    <path d="M 104.738605 173.20072 
C 105.764195 176.832241 107.064178 180.38061 108.627328 183.81519 
C 110.190479 187.249769 112.012286 190.560645 114.077018 193.71923 
L 176.44525 152.949801 
z
" style="fill: #ffffff"/>
   </g>
   <g id="patch_33">
    <path d="M 114.077018 193.71923 
C 115.883456 196.482681 117.871565 199.123018 120.028198 201.622781 
C 122.184831 204.122543 124.505224 206.476208 126.97403 208.66821 
L 176.44525 152.949801 
z
" style="fill: #ffffff"/>
   </g>
   <g id="patch_34">
    <path d="M 126.97403 208.66821 
C 129.79584 211.173637 132.803906 213.461086 135.972253 215.510806 
C 139.140601 217.560525 142.460085 219.366599 145.902044 220.913433 
L 176.44525 152.949801 
z
" style="fill: #ffffff"/>
   </g>
   <g id="patch_35">
    <path d="M 145.902044 220.913433 
C 147.407317 221.589911 148.934648 222.216193 150.481511 222.791243 
C 152.028374 223.366293 153.593915 223.889795 155.175542 224.360881 
L 176.44525 152.949801 
z
" style="fill: #ffffff"/>
   </g>
   <g id="patch_36">
    <path d="M 155.175542 224.360881 
C 157.887387 225.1686 160.643041 225.821191 163.429111 226.31548 
C 166.215182 226.80977 169.027148 227.144956 171.851343 227.31941 
L 176.44525 152.949801 
z
" style="fill: #ffffff"/>
   </g>
   <g id="patch_37">
    <path d="M 171.851343 227.31941 
C 177.268289 227.654022 182.705615 227.395794 188.066468 226.549326 
C 193.427322 225.702858 198.679683 224.273206 203.729992 222.285835 
L 176.44525 152.949801 
z
" style="fill: #ffffff"/>
   </g>
   <g id="patch_38">
    <path d="M 203.729992 222.285835 
C 208.7803 220.298465 213.598392 217.765248 218.098443 214.731306 
C 222.598494 211.697364 226.753625 208.18082 230.489823 204.244313 
L 176.44525 152.949801 
z
" style="fill: #ffffff"/>
   </g>
   <g id="patch_39">
    <path d="M 230.489823 204.244313 
C 233.575277 200.993438 236.361129 197.47079 238.813481 193.719233 
C 241.265833 189.967676 243.374697 186.002488 245.114413 181.871919 
L 176.44525 152.949801 
z
" style="fill: #ffffff"/>
   </g>
   <g id="patch_40">
    <path d="M 245.114413 181.871919 
C 245.571945 180.785611 246.003635 179.6886 246.409119 178.581811 
C 246.814602 177.475022 247.193766 176.358767 247.546289 175.233989 
L 176.44525 152.949801 
z
" style="fill: #ffffff"/>
   </g>
   <g id="patch_41">
    <path d="M 247.546289 175.233989 
C 248.674853 171.633139 249.528244 167.951753 250.099096 164.221618 
C 250.669947 160.491483 250.95661 156.723366 250.95661 152.949803 
L 176.44525 152.949801 
z
" style="fill: #ffffff"/>
   </g>
   <g id="matplotlib.axis_1"/>
   <g id="matplotlib.axis_2"/>
   <g id="text_1">
    <!-- A [20] -->
    <g transform="translate(314.951176 129.096969) scale(0.1 -0.1)">
     <defs>
      <path id="DejaVuSans-41" d="M 2188 4044 
L 1331 1722 
L 3047 1722 
L 2188 4044 
z
M 1831 4666 
L 2547 4666 
L 4325 0 
L 3669 0 
L 3244 1197 
L 1141 1197 
L 716 0 
L 50 0 
L 1831 4666 
z
" transform="scale(0.015625)"/>
      <path id="DejaVuSans-20" transform="scale(0.015625)"/>
      <path id="DejaVuSans-5b" d="M 550 4863 
L 1875 4863 
L 1875 4416 
L 1125 4416 
L 1125 -397 
L 1875 -397 
L 1875 -844 
L 550 -844 
L 550 4863 
z
" transform="scale(0.015625)"/>
      <path id="DejaVuSans-32" d="M 1228 531 
L 3431 531 
L 3431 0 
L 469 0 
L 469 531 
Q 828 903 1448 1529 
Q 2069 2156 2228 2338 
Q 2531 2678 2651 2914 
Q 2772 3150 2772 3378 
Q 2772 3750 2511 3984 
Q 2250 4219 1831 4219 
Q 1534 4219 1204 4116 
Q 875 4013 500 3803 
L 500 4441 
Q 881 4594 1212 4672 
Q 1544 4750 1819 4750 
Q 2544 4750 2975 4387 
Q 3406 4025 3406 3419 
Q 3406 3131 3298 2873 
Q 3191 2616 2906 2266 
Q 2828 2175 2409 1742 
Q 1991 1309 1228 531 
z
" transform="scale(0.015625)"/>
      <path id="DejaVuSans-30" d="M 2034 4250 
Q 1547 4250 1301 3770 
Q 1056 3291 1056 2328 
Q 1056 1369 1301 889 
Q 1547 409 2034 409 
Q 2525 409 2770 889 
Q 3016 1369 3016 2328 
Q 3016 3291 2770 3770 
Q 2525 4250 2034 4250 
z
M 2034 4750 
Q 2819 4750 3233 4129 
Q 3647 3509 3647 2328 
Q 3647 1150 3233 529 
Q 2819 -91 2034 -91 
Q 1250 -91 836 529 
Q 422 1150 422 2328 
Q 422 3509 836 4129 
Q 1250 4750 2034 4750 
z
" transform="scale(0.015625)"/>
      <path id="DejaVuSans-5d" d="M 1947 4863 
L 1947 -844 
L 622 -844 
L 622 -397 
L 1369 -397 
L 1369 4416 
L 622 4416 
L 622 4863 
L 1947 4863 
z
" transform="scale(0.015625)"/>
     </defs>
     <use xlink:href="#DejaVuSans-41"/>
     <use xlink:href="#DejaVuSans-20" x="68.408203"/>
     <use xlink:href="#DejaVuSans-5b" x="100.195312"/>
     <use xlink:href="#DejaVuSans-32" x="139.208984"/>
     <use xlink:href="#DejaVuSans-30" x="202.832031"/>
     <use xlink:href="#DejaVuSans-5d" x="266.455078"/>
    </g>
   </g>
   <g id="text_2">
    <!-- C [9] -->
    <g transform="translate(302.504869 92.455136) scale(0.1 -0.1)">
     <defs>
      <path id="DejaVuSans-43" d="M 4122 4306 
L 4122 3641 
Q 3803 3938 3442 4084 
Q 3081 4231 2675 4231 
Q 1875 4231 1450 3742 
Q 1025 3253 1025 2328 
Q 1025 1406 1450 917 
Q 1875 428 2675 428 
Q 3081 428 3442 575 
Q 3803 722 4122 1019 
L 4122 359 
Q 3791 134 3420 21 
Q 3050 -91 2638 -91 
Q 1578 -91 968 557 
Q 359 1206 359 2328 
Q 359 3453 968 4101 
Q 1578 4750 2638 4750 
Q 3056 4750 3426 4639 
Q 3797 4528 4122 4306 
z
" transform="scale(0.015625)"/>
      <path id="DejaVuSans-39" d="M 703 97 
L 703 672 
Q 941 559 1184 500 
Q 1428 441 1663 441 
Q 2288 441 2617 861 
Q 2947 1281 2994 2138 
Q 2813 1869 2534 1725 
Q 2256 1581 1919 1581 
Q 1219 1581 811 2004 
Q 403 2428 403 3163 
Q 403 3881 828 4315 
Q 1253 4750 1959 4750 
Q 2769 4750 3195 4129 
Q 3622 3509 3622 2328 
Q 3622 1225 3098 567 
Q 2575 -91 1691 -91 
Q 1453 -91 1209 -44 
Q 966 3 703 97 
z
M 1959 2075 
Q 2384 2075 2632 2365 
Q 2881 2656 2881 3163 
Q 2881 3666 2632 3958 
Q 2384 4250 1959 4250 
Q 1534 4250 1286 3958 
Q 1038 3666 1038 3163 
Q 1038 2656 1286 2365 
Q 1534 2075 1959 2075 
z
" transform="scale(0.015625)"/>
     </defs>
     <use xlink:href="#DejaVuSans-43"/>
     <use xlink:href="#DejaVuSans-20" x="69.824219"/>
     <use xlink:href="#DejaVuSans-5b" x="101.611328"/>
     <use xlink:href="#DejaVuSans-39" x="140.625"/>
     <use xlink:href="#DejaVuSans-5d" x="204.248047"/>
    </g>
   </g>
   <g id="text_3">
    <!-- D [7] -->
    <g transform="translate(291.485264 74.113242) scale(0.1 -0.1)">
     <defs>
      <path id="DejaVuSans-44" d="M 1259 4147 
L 1259 519 
L 2022 519 
Q 2988 519 3436 956 
Q 3884 1394 3884 2338 
Q 3884 3275 3436 3711 
Q 2988 4147 2022 4147 
L 1259 4147 
z
M 628 4666 
L 1925 4666 
Q 3281 4666 3915 4102 
Q 4550 3538 4550 2338 
Q 4550 1131 3912 565 
Q 3275 0 1925 0 
L 628 0 
L 628 4666 
z
" transform="scale(0.015625)"/>
      <path id="DejaVuSans-37" d="M 525 4666 
L 3525 4666 
L 3525 4397 
L 1831 0 
L 1172 0 
L 2766 4134 
L 525 4134 
L 525 4666 
z
" transform="scale(0.015625)"/>
     </defs>
     <use xlink:href="#DejaVuSans-44"/>
     <use xlink:href="#DejaVuSans-20" x="77.001953"/>
     <use xlink:href="#DejaVuSans-5b" x="108.789062"/>
     <use xlink:href="#DejaVuSans-37" x="147.802734"/>
     <use xlink:href="#DejaVuSans-5d" x="211.425781"/>
    </g>
   </g>
   <g id="text_4">
    <!-- E [10] -->
    <g transform="translate(276.882523 56.691726) scale(0.1 -0.1)">
     <defs>
      <path id="DejaVuSans-45" d="M 628 4666 
L 3578 4666 
L 3578 4134 
L 1259 4134 
L 1259 2753 
L 3481 2753 
L 3481 2222 
L 1259 2222 
L 1259 531 
L 3634 531 
L 3634 0 
L 628 0 
L 628 4666 
z
" transform="scale(0.015625)"/>
      <path id="DejaVuSans-31" d="M 794 531 
L 1825 531 
L 1825 4091 
L 703 3866 
L 703 4441 
L 1819 4666 
L 2450 4666 
L 2450 531 
L 3481 531 
L 3481 0 
L 794 0 
L 794 531 
z
" transform="scale(0.015625)"/>
     </defs>
     <use xlink:href="#DejaVuSans-45"/>
     <use xlink:href="#DejaVuSans-20" x="63.183594"/>
     <use xlink:href="#DejaVuSans-5b" x="94.970703"/>
     <use xlink:href="#DejaVuSans-31" x="133.984375"/>
     <use xlink:href="#DejaVuSans-30" x="197.607422"/>
     <use xlink:href="#DejaVuSans-5d" x="261.230469"/>
    </g>
   </g>
   <g id="text_5">
    <!-- F [24] -->
    <g transform="translate(240.296804 29.951154) scale(0.1 -0.1)">
     <defs>
      <path id="DejaVuSans-46" d="M 628 4666 
L 3309 4666 
L 3309 4134 
L 1259 4134 
L 1259 2759 
L 3109 2759 
L 3109 2228 
L 1259 2228 
L 1259 0 
L 628 0 
L 628 4666 
z
" transform="scale(0.015625)"/>
      <path id="DejaVuSans-34" d="M 2419 4116 
L 825 1625 
L 2419 1625 
L 2419 4116 
z
M 2253 4666 
L 3047 4666 
L 3047 1625 
L 3713 1625 
L 3713 1100 
L 3047 1100 
L 3047 0 
L 2419 0 
L 2419 1100 
L 313 1100 
L 313 1709 
L 2253 4666 
z
" transform="scale(0.015625)"/>
     </defs>
     <use xlink:href="#DejaVuSans-46"/>
     <use xlink:href="#DejaVuSans-20" x="57.519531"/>
     <use xlink:href="#DejaVuSans-5b" x="89.306641"/>
     <use xlink:href="#DejaVuSans-32" x="128.320312"/>
     <use xlink:href="#DejaVuSans-34" x="191.943359"/>
     <use xlink:href="#DejaVuSans-5d" x="255.566406"/>
    </g>
   </g>
   <g id="text_6">
    <!-- G [12] -->
    <g transform="translate(194.467415 15.826001) scale(0.1 -0.1)">
     <defs>
      <path id="DejaVuSans-47" d="M 3809 666 
L 3809 1919 
L 2778 1919 
L 2778 2438 
L 4434 2438 
L 4434 434 
Q 4069 175 3628 42 
Q 3188 -91 2688 -91 
Q 1594 -91 976 548 
Q 359 1188 359 2328 
Q 359 3472 976 4111 
Q 1594 4750 2688 4750 
Q 3144 4750 3555 4637 
Q 3966 4525 4313 4306 
L 4313 3634 
Q 3963 3931 3569 4081 
Q 3175 4231 2741 4231 
Q 1884 4231 1454 3753 
Q 1025 3275 1025 2328 
Q 1025 1384 1454 906 
Q 1884 428 2741 428 
Q 3075 428 3337 486 
Q 3600 544 3809 666 
z
" transform="scale(0.015625)"/>
     </defs>
     <use xlink:href="#DejaVuSans-47"/>
     <use xlink:href="#DejaVuSans-20" x="77.490234"/>
     <use xlink:href="#DejaVuSans-5b" x="109.277344"/>
     <use xlink:href="#DejaVuSans-31" x="148.291016"/>
     <use xlink:href="#DejaVuSans-32" x="211.914062"/>
     <use xlink:href="#DejaVuSans-5d" x="275.537109"/>
    </g>
   </g>
   <g id="text_7">
    <!-- H [6] -->
    <g transform="translate(145.55916 14.798437) scale(0.1 -0.1)">
     <defs>
      <path id="DejaVuSans-48" d="M 628 4666 
L 1259 4666 
L 1259 2753 
L 3553 2753 
L 3553 4666 
L 4184 4666 
L 4184 0 
L 3553 0 
L 3553 2222 
L 1259 2222 
L 1259 0 
L 628 0 
L 628 4666 
z
" transform="scale(0.015625)"/>
      <path id="DejaVuSans-36" d="M 2113 2584 
Q 1688 2584 1439 2293 
Q 1191 2003 1191 1497 
Q 1191 994 1439 701 
Q 1688 409 2113 409 
Q 2538 409 2786 701 
Q 3034 994 3034 1497 
Q 3034 2003 2786 2293 
Q 2538 2584 2113 2584 
z
M 3366 4563 
L 3366 3988 
Q 3128 4100 2886 4159 
Q 2644 4219 2406 4219 
Q 1781 4219 1451 3797 
Q 1122 3375 1075 2522 
Q 1259 2794 1537 2939 
Q 1816 3084 2150 3084 
Q 2853 3084 3261 2657 
Q 3669 2231 3669 1497 
Q 3669 778 3244 343 
Q 2819 -91 2113 -91 
Q 1303 -91 875 529 
Q 447 1150 447 2328 
Q 447 3434 972 4092 
Q 1497 4750 2381 4750 
Q 2619 4750 2861 4703 
Q 3103 4656 3366 4563 
z
" transform="scale(0.015625)"/>
     </defs>
     <use xlink:href="#DejaVuSans-48"/>
     <use xlink:href="#DejaVuSans-20" x="75.195312"/>
     <use xlink:href="#DejaVuSans-5b" x="106.982422"/>
     <use xlink:href="#DejaVuSans-36" x="145.996094"/>
     <use xlink:href="#DejaVuSans-5d" x="209.619141"/>
    </g>
   </g>
   <g id="text_8">
    <!-- I [31] -->
    <g transform="translate(95.66102 25.469924) scale(0.1 -0.1)">
     <defs>
      <path id="DejaVuSans-49" d="M 628 4666 
L 1259 4666 
L 1259 0 
L 628 0 
L 628 4666 
z
" transform="scale(0.015625)"/>
      <path id="DejaVuSans-33" d="M 2597 2516 
Q 3050 2419 3304 2112 
Q 3559 1806 3559 1356 
Q 3559 666 3084 287 
Q 2609 -91 1734 -91 
Q 1441 -91 1130 -33 
Q 819 25 488 141 
L 488 750 
Q 750 597 1062 519 
Q 1375 441 1716 441 
Q 2309 441 2620 675 
Q 2931 909 2931 1356 
Q 2931 1769 2642 2001 
Q 2353 2234 1838 2234 
L 1294 2234 
L 1294 2753 
L 1863 2753 
Q 2328 2753 2575 2939 
Q 2822 3125 2822 3475 
Q 2822 3834 2567 4026 
Q 2313 4219 1838 4219 
Q 1578 4219 1281 4162 
Q 984 4106 628 3988 
L 628 4550 
Q 988 4650 1302 4700 
Q 1616 4750 1894 4750 
Q 2613 4750 3031 4423 
Q 3450 4097 3450 3541 
Q 3450 3153 3228 2886 
Q 3006 2619 2597 2516 
z
" transform="scale(0.015625)"/>
     </defs>
     <use xlink:href="#DejaVuSans-49"/>
     <use xlink:href="#DejaVuSans-20" x="29.492188"/>
     <use xlink:href="#DejaVuSans-5b" x="61.279297"/>
     <use xlink:href="#DejaVuSans-33" x="100.292969"/>
     <use xlink:href="#DejaVuSans-31" x="163.916016"/>
     <use xlink:href="#DejaVuSans-5d" x="227.539062"/>
    </g>
   </g>
   <g id="text_9">
    <!-- K [19] -->
    <g transform="translate(38.522156 64.595873) scale(0.1 -0.1)">
     <defs>
      <path id="DejaVuSans-4b" d="M 628 4666 
L 1259 4666 
L 1259 2694 
L 3353 4666 
L 4166 4666 
L 1850 2491 
L 4331 0 
L 3500 0 
L 1259 2247 
L 1259 0 
L 628 0 
L 628 4666 
z
" transform="scale(0.015625)"/>
     </defs>
     <use xlink:href="#DejaVuSans-4b"/>
     <use xlink:href="#DejaVuSans-20" x="65.576172"/>
     <use xlink:href="#DejaVuSans-5b" x="97.363281"/>
     <use xlink:href="#DejaVuSans-31" x="136.376953"/>
     <use xlink:href="#DejaVuSans-39" x="200"/>
     <use xlink:href="#DejaVuSans-5d" x="263.623047"/>
    </g>
   </g>
   <g id="text_10">
    <!-- L [42] -->
    <g transform="translate(7.2 138.35104) scale(0.1 -0.1)">
     <defs>
      <path id="DejaVuSans-4c" d="M 628 4666 
L 1259 4666 
L 1259 531 
L 3531 531 
L 3531 0 
L 628 0 
L 628 4666 
z
" transform="scale(0.015625)"/>
     </defs>
     <use xlink:href="#DejaVuSans-4c"/>
     <use xlink:href="#DejaVuSans-20" x="55.712891"/>
     <use xlink:href="#DejaVuSans-5b" x="87.5"/>
     <use xlink:href="#DejaVuSans-34" x="126.513672"/>
     <use xlink:href="#DejaVuSans-32" x="190.136719"/>
     <use xlink:href="#DejaVuSans-5d" x="253.759766"/>
    </g>
   </g>
   <g id="text_11">
    <!-- M [16] -->
    <g transform="translate(15.741237 214.132947) scale(0.1 -0.1)">
     <defs>
      <path id="DejaVuSans-4d" d="M 628 4666 
L 1569 4666 
L 2759 1491 
L 3956 4666 
L 4897 4666 
L 4897 0 
L 4281 0 
L 4281 4097 
L 3078 897 
L 2444 897 
L 1241 4097 
L 1241 0 
L 628 0 
L 628 4666 
z
" transform="scale(0.015625)"/>
     </defs>
     <use xlink:href="#DejaVuSans-4d"/>
     <use xlink:href="#DejaVuSans-20" x="86.279297"/>
     <use xlink:href="#DejaVuSans-5b" x="118.066406"/>
     <use xlink:href="#DejaVuSans-31" x="157.080078"/>
     <use xlink:href="#DejaVuSans-36" x="220.703125"/>
     <use xlink:href="#DejaVuSans-5d" x="284.326172"/>
    </g>
   </g>
   <g id="text_12">
    <!-- N [14] -->
    <g transform="translate(38.46833 247.840174) scale(0.1 -0.1)">
     <defs>
      <path id="DejaVuSans-4e" d="M 628 4666 
L 1478 4666 
L 3547 763 
L 3547 4666 
L 4159 4666 
L 4159 0 
L 3309 0 
L 1241 3903 
L 1241 0 
L 628 0 
L 628 4666 
z
" transform="scale(0.015625)"/>
     </defs>
     <use xlink:href="#DejaVuSans-4e"/>
     <use xlink:href="#DejaVuSans-20" x="74.804688"/>
     <use xlink:href="#DejaVuSans-5b" x="106.591797"/>
     <use xlink:href="#DejaVuSans-31" x="145.605469"/>
     <use xlink:href="#DejaVuSans-34" x="209.228516"/>
     <use xlink:href="#DejaVuSans-5d" x="272.851562"/>
    </g>
   </g>
   <g id="text_13">
    <!-- P [16] -->
    <g transform="translate(70.099711 274.12822) scale(0.1 -0.1)">
     <defs>
      <path id="DejaVuSans-50" d="M 1259 4147 
L 1259 2394 
L 2053 2394 
Q 2494 2394 2734 2622 
Q 2975 2850 2975 3272 
Q 2975 3691 2734 3919 
Q 2494 4147 2053 4147 
L 1259 4147 
z
M 628 4666 
L 2053 4666 
Q 2838 4666 3239 4311 
Q 3641 3956 3641 3272 
Q 3641 2581 3239 2228 
Q 2838 1875 2053 1875 
L 1259 1875 
L 1259 0 
L 628 0 
L 628 4666 
z
" transform="scale(0.015625)"/>
     </defs>
     <use xlink:href="#DejaVuSans-50"/>
     <use xlink:href="#DejaVuSans-20" x="60.302734"/>
     <use xlink:href="#DejaVuSans-5b" x="92.089844"/>
     <use xlink:href="#DejaVuSans-31" x="131.103516"/>
     <use xlink:href="#DejaVuSans-36" x="194.726562"/>
     <use xlink:href="#DejaVuSans-5d" x="258.349609"/>
    </g>
   </g>
   <g id="text_14">
    <!-- Q [7] -->
    <g transform="translate(102.083976 287.909048) scale(0.1 -0.1)">
     <defs>
      <path id="DejaVuSans-51" d="M 2522 4238 
Q 1834 4238 1429 3725 
Q 1025 3213 1025 2328 
Q 1025 1447 1429 934 
Q 1834 422 2522 422 
Q 3209 422 3611 934 
Q 4013 1447 4013 2328 
Q 4013 3213 3611 3725 
Q 3209 4238 2522 4238 
z
M 3406 84 
L 4238 -825 
L 3475 -825 
L 2784 -78 
Q 2681 -84 2626 -87 
Q 2572 -91 2522 -91 
Q 1538 -91 948 567 
Q 359 1225 359 2328 
Q 359 3434 948 4092 
Q 1538 4750 2522 4750 
Q 3503 4750 4090 4092 
Q 4678 3434 4678 2328 
Q 4678 1516 4351 937 
Q 4025 359 3406 84 
z
" transform="scale(0.015625)"/>
     </defs>
     <use xlink:href="#DejaVuSans-51"/>
     <use xlink:href="#DejaVuSans-20" x="78.710938"/>
     <use xlink:href="#DejaVuSans-5b" x="110.498047"/>
     <use xlink:href="#DejaVuSans-37" x="149.511719"/>
     <use xlink:href="#DejaVuSans-5d" x="213.134766"/>
    </g>
   </g>
   <g id="text_15">
    <!-- R [12] -->
    <g transform="translate(121.152871 294.579926) scale(0.1 -0.1)">
     <defs>
      <path id="DejaVuSans-52" d="M 2841 2188 
Q 3044 2119 3236 1894 
Q 3428 1669 3622 1275 
L 4263 0 
L 3584 0 
L 2988 1197 
Q 2756 1666 2539 1819 
Q 2322 1972 1947 1972 
L 1259 1972 
L 1259 0 
L 628 0 
L 628 4666 
L 2053 4666 
Q 2853 4666 3247 4331 
Q 3641 3997 3641 3322 
Q 3641 2881 3436 2590 
Q 3231 2300 2841 2188 
z
M 1259 4147 
L 1259 2491 
L 2053 2491 
Q 2509 2491 2742 2702 
Q 2975 2913 2975 3322 
Q 2975 3731 2742 3939 
Q 2509 4147 2053 4147 
L 1259 4147 
z
" transform="scale(0.015625)"/>
     </defs>
     <use xlink:href="#DejaVuSans-52"/>
     <use xlink:href="#DejaVuSans-20" x="69.482422"/>
     <use xlink:href="#DejaVuSans-5b" x="101.269531"/>
     <use xlink:href="#DejaVuSans-31" x="140.283203"/>
     <use xlink:href="#DejaVuSans-32" x="203.90625"/>
     <use xlink:href="#DejaVuSans-5d" x="267.529297"/>
    </g>
   </g>
   <g id="text_16">
    <!-- S [23] -->
    <g transform="translate(198.442556 295.022562) scale(0.1 -0.1)">
     <defs>
      <path id="DejaVuSans-53" d="M 3425 4513 
L 3425 3897 
Q 3066 4069 2747 4153 
Q 2428 4238 2131 4238 
Q 1616 4238 1336 4038 
Q 1056 3838 1056 3469 
Q 1056 3159 1242 3001 
Q 1428 2844 1947 2747 
L 2328 2669 
Q 3034 2534 3370 2195 
Q 3706 1856 3706 1288 
Q 3706 609 3251 259 
Q 2797 -91 1919 -91 
Q 1588 -91 1214 -16 
Q 841 59 441 206 
L 441 856 
Q 825 641 1194 531 
Q 1563 422 1919 422 
Q 2459 422 2753 634 
Q 3047 847 3047 1241 
Q 3047 1584 2836 1778 
Q 2625 1972 2144 2069 
L 1759 2144 
Q 1053 2284 737 2584 
Q 422 2884 422 3419 
Q 422 4038 858 4394 
Q 1294 4750 2059 4750 
Q 2388 4750 2728 4690 
Q 3069 4631 3425 4513 
z
" transform="scale(0.015625)"/>
     </defs>
     <use xlink:href="#DejaVuSans-53"/>
     <use xlink:href="#DejaVuSans-20" x="63.476562"/>
     <use xlink:href="#DejaVuSans-5b" x="95.263672"/>
     <use xlink:href="#DejaVuSans-32" x="134.277344"/>
     <use xlink:href="#DejaVuSans-33" x="197.900391"/>
     <use xlink:href="#DejaVuSans-5d" x="261.523438"/>
    </g>
   </g>
   <g id="text_17">
    <!-- T [23] -->
    <g transform="translate(255.288793 272.652739) scale(0.1 -0.1)">
     <defs>
      <path id="DejaVuSans-54" d="M -19 4666 
L 3928 4666 
L 3928 4134 
L 2272 4134 
L 2272 0 
L 1638 0 
L 1638 4134 
L -19 4134 
L -19 4666 
z
" transform="scale(0.015625)"/>
     </defs>
     <use xlink:href="#DejaVuSans-54"/>
     <use xlink:href="#DejaVuSans-20" x="61.083984"/>
     <use xlink:href="#DejaVuSans-5b" x="92.871094"/>
     <use xlink:href="#DejaVuSans-32" x="131.884766"/>
     <use xlink:href="#DejaVuSans-33" x="195.507812"/>
     <use xlink:href="#DejaVuSans-5d" x="259.130859"/>
    </g>
   </g>
   <g id="text_18">
    <!-- V [19] -->
    <g transform="translate(294.499401 232.879887) scale(0.1 -0.1)">
     <defs>
      <path id="DejaVuSans-56" d="M 1831 0 
L 50 4666 
L 709 4666 
L 2188 738 
L 3669 4666 
L 4325 4666 
L 2547 0 
L 1831 0 
z
" transform="scale(0.015625)"/>
     </defs>
     <use xlink:href="#DejaVuSans-56"/>
     <use xlink:href="#DejaVuSans-20" x="68.408203"/>
     <use xlink:href="#DejaVuSans-5b" x="100.195312"/>
     <use xlink:href="#DejaVuSans-31" x="139.208984"/>
     <use xlink:href="#DejaVuSans-39" x="202.832031"/>
     <use xlink:href="#DejaVuSans-5d" x="266.455078"/>
    </g>
   </g>
   <g id="text_19">
    <!-- W [5] -->
    <g transform="translate(308.876858 204.226909) scale(0.1 -0.1)">
     <defs>
      <path id="DejaVuSans-57" d="M 213 4666 
L 850 4666 
L 1831 722 
L 2809 4666 
L 3519 4666 
L 4500 722 
L 5478 4666 
L 6119 4666 
L 4947 0 
L 4153 0 
L 3169 4050 
L 2175 0 
L 1381 0 
L 213 4666 
z
" transform="scale(0.015625)"/>
      <path id="DejaVuSans-35" d="M 691 4666 
L 3169 4666 
L 3169 4134 
L 1269 4134 
L 1269 2991 
Q 1406 3038 1543 3061 
Q 1681 3084 1819 3084 
Q 2600 3084 3056 2656 
Q 3513 2228 3513 1497 
Q 3513 744 3044 326 
Q 2575 -91 1722 -91 
Q 1428 -91 1123 -41 
Q 819 9 494 109 
L 494 744 
Q 775 591 1075 516 
Q 1375 441 1709 441 
Q 2250 441 2565 725 
Q 2881 1009 2881 1497 
Q 2881 1984 2565 2268 
Q 2250 2553 1709 2553 
Q 1456 2553 1204 2497 
Q 953 2441 691 2322 
L 691 4666 
z
" transform="scale(0.015625)"/>
     </defs>
     <use xlink:href="#DejaVuSans-57"/>
     <use xlink:href="#DejaVuSans-20" x="98.876953"/>
     <use xlink:href="#DejaVuSans-5b" x="130.664062"/>
     <use xlink:href="#DejaVuSans-35" x="169.677734"/>
     <use xlink:href="#DejaVuSans-5d" x="233.300781"/>
    </g>
   </g>
   <g id="text_20">
    <!-- Y [16] -->
    <g transform="translate(315.861457 177.045115) scale(0.1 -0.1)">
     <defs>
      <path id="DejaVuSans-59" d="M -13 4666 
L 666 4666 
L 1959 2747 
L 3244 4666 
L 3922 4666 
L 2272 2222 
L 2272 0 
L 1638 0 
L 1638 2222 
L -13 4666 
z
" transform="scale(0.015625)"/>
     </defs>
     <use xlink:href="#DejaVuSans-59"/>
     <use xlink:href="#DejaVuSans-20" x="61.083984"/>
     <use xlink:href="#DejaVuSans-5b" x="92.871094"/>
     <use xlink:href="#DejaVuSans-31" x="131.884766"/>
     <use xlink:href="#DejaVuSans-36" x="195.507812"/>
     <use xlink:href="#DejaVuSans-5d" x="259.130859"/>
    </g>
   </g>
   <g id="text_21">
    <!-- A0A8C0MFA6 [331] -->
    <g transform="translate(118.550875 152.949801) scale(0.12 -0.12)">
     <defs>
      <path id="DejaVuSans-38" d="M 2034 2216 
Q 1584 2216 1326 1975 
Q 1069 1734 1069 1313 
Q 1069 891 1326 650 
Q 1584 409 2034 409 
Q 2484 409 2743 651 
Q 3003 894 3003 1313 
Q 3003 1734 2745 1975 
Q 2488 2216 2034 2216 
z
M 1403 2484 
Q 997 2584 770 2862 
Q 544 3141 544 3541 
Q 544 4100 942 4425 
Q 1341 4750 2034 4750 
Q 2731 4750 3128 4425 
Q 3525 4100 3525 3541 
Q 3525 3141 3298 2862 
Q 3072 2584 2669 2484 
Q 3125 2378 3379 2068 
Q 3634 1759 3634 1313 
Q 3634 634 3220 271 
Q 2806 -91 2034 -91 
Q 1263 -91 848 271 
Q 434 634 434 1313 
Q 434 1759 690 2068 
Q 947 2378 1403 2484 
z
M 1172 3481 
Q 1172 3119 1398 2916 
Q 1625 2713 2034 2713 
Q 2441 2713 2670 2916 
Q 2900 3119 2900 3481 
Q 2900 3844 2670 4047 
Q 2441 4250 2034 4250 
Q 1625 4250 1398 4047 
Q 1172 3844 1172 3481 
z
" transform="scale(0.015625)"/>
     </defs>
     <use xlink:href="#DejaVuSans-41"/>
     <use xlink:href="#DejaVuSans-30" x="68.408203"/>
     <use xlink:href="#DejaVuSans-41" x="132.03125"/>
     <use xlink:href="#DejaVuSans-38" x="200.439453"/>
     <use xlink:href="#DejaVuSans-43" x="264.0625"/>
     <use xlink:href="#DejaVuSans-30" x="333.886719"/>
     <use xlink:href="#DejaVuSans-4d" x="397.509766"/>
     <use xlink:href="#DejaVuSans-46" x="483.789062"/>
     <use xlink:href="#DejaVuSans-41" x="532.183594"/>
     <use xlink:href="#DejaVuSans-36" x="600.591797"/>
     <use xlink:href="#DejaVuSans-20" x="664.214844"/>
     <use xlink:href="#DejaVuSans-5b" x="696.001953"/>
     <use xlink:href="#DejaVuSans-33" x="735.015625"/>
     <use xlink:href="#DejaVuSans-33" x="798.638672"/>
     <use xlink:href="#DejaVuSans-31" x="862.261719"/>
     <use xlink:href="#DejaVuSans-5d" x="925.884766"/>
    </g>
   </g>
  </g>
 </g>
</svg>
