<?xml version="1.0" encoding="utf-8" standalone="no"?>
<!DOCTYPE svg PUBLIC "-//W3C//DTD SVG 1.1//EN"
  "http://www.w3.org/Graphics/SVG/1.1/DTD/svg11.dtd">
<svg xmlns:xlink="http://www.w3.org/1999/xlink" width="355.618083pt" height="304.126774pt" viewBox="0 0 355.618083 304.126774" xmlns="http://www.w3.org/2000/svg" version="1.1">
 <metadata>
  <rdf:RDF xmlns:dc="http://purl.org/dc/elements/1.1/" xmlns:cc="http://creativecommons.org/ns#" xmlns:rdf="http://www.w3.org/1999/02/22-rdf-syntax-ns#">
   <cc:Work>
    <dc:type rdf:resource="http://purl.org/dc/dcmitype/StillImage"/>
    <dc:date>2024-09-27T16:07:37.336939</dc:date>
    <dc:format>image/svg+xml</dc:format>
    <dc:creator>
     <cc:Agent>
      <dc:title>Matplotlib v3.8.3, https://matplotlib.org/</dc:title>
     </cc:Agent>
    </dc:creator>
   </cc:Work>
  </rdf:RDF>
 </metadata>
 <defs>
  <style type="text/css">*{stroke-linejoin: round; stroke-linecap: butt}</style>
 </defs>
 <g id="figure_1">
  <g id="patch_1">
   <path d="M 0 304.126774 
L 355.618083 304.126774 
L 355.618083 0 
L 0 0 
z
" style="fill: #ffffff"/>
  </g>
  <g id="axes_1">
   <g id="patch_2">
    <path d="M 303.721493 152.609589 
C 303.721493 126.559433 295.75245 101.12234 280.889037 79.728659 
C 266.025625 58.334978 244.967432 41.991664 220.554288 32.902715 
L 175.987733 152.609589 
z
" style="fill: #1f77b4"/>
   </g>
   <g id="patch_3">
    <path d="M 220.240192 32.688568 
C 215.322687 30.857794 210.29704 29.331771 205.191827 28.119177 
C 200.086613 26.906583 194.911528 26.00972 189.695996 25.433688 
L 175.673637 152.395441 
z
" style="fill: #ff7f0e"/>
   </g>
   <g id="patch_4">
    <path d="M 189.598753 25.419905 
C 186.991605 25.131957 184.376205 24.924384 181.756276 24.79748 
C 179.136346 24.670577 176.513129 24.624404 173.890357 24.659026 
L 175.576394 152.381658 
z
" style="fill: #aec7e8"/>
   </g>
   <g id="patch_5">
    <path d="M 173.824834 24.659891 
C 171.202062 24.694514 168.580977 24.809916 165.965311 25.005933 
C 163.349644 25.20195 160.740636 25.47849 158.141997 25.835158 
L 175.510871 152.382523 
z
" style="fill: #ffbb78"/>
   </g>
   <g id="patch_6">
    <path d="M 158.063339 25.847014 
C 154.350693 26.356582 150.662269 27.029285 147.008773 27.863172 
C 143.355277 28.697059 139.740247 29.691321 136.174175 30.843074 
L 175.432213 152.394379 
z
" style="fill: #98df8a"/>
   </g>
   <g id="patch_7">
    <path d="M 135.96077 30.945844 
C 121.302703 35.680034 107.621141 43.026878 95.578107 52.630878 
C 83.535073 62.234878 73.327997 73.938588 65.450778 87.175691 
L 175.218808 152.49715 
z
" style="fill: #2ca02c"/>
   </g>
   <g id="patch_8">
    <path d="M 65.318222 87.331796 
C 64.743386 88.297766 64.181326 89.271283 63.632189 90.25209 
C 63.083052 91.232898 62.546886 92.220912 62.023831 93.215873 
L 175.086252 152.653254 
z
" style="fill: #d62728"/>
   </g>
   <g id="patch_9">
    <path d="M 62.012844 93.236552 
C 61.664143 93.899854 61.321286 94.566212 60.984313 95.235548 
C 60.64734 95.904885 60.316263 96.577173 59.991122 97.252337 
L 175.075265 152.673933 
z
" style="fill: #9467bd"/>
   </g>
   <g id="patch_10">
    <path d="M 59.986983 97.26074 
C 59.986983 97.26074 59.986983 97.26074 59.986983 97.26074 
L 175.071127 152.682336 
z
" style="fill: #ff9896"/>
   </g>
   <g id="patch_11">
    <path d="M 59.941699 97.580237 
C 48.472646 121.395973 44.674268 148.194656 49.073372 174.259505 
C 53.472476 200.324354 65.85583 224.39196 84.505953 243.124322 
L 175.025842 153.001833 
z
" style="fill: #c5b0d5"/>
   </g>
   <g id="patch_12">
    <path d="M 84.656908 243.414563 
C 84.921267 243.680088 85.186793 243.944448 85.453478 244.207636 
C 85.720164 244.470825 85.988006 244.732838 86.256997 244.993669 
L 175.176797 153.292074 
z
" style="fill: #c49c94"/>
   </g>
   <g id="patch_13">
    <path d="M 86.267127 245.003406 
C 86.805112 245.525071 87.347677 246.041991 87.894759 246.554107 
C 88.441842 247.066224 88.99342 247.573516 89.549431 248.075924 
L 175.186927 153.30181 
z
" style="fill: #8c564b"/>
   </g>
   <g id="patch_14">
    <path d="M 89.675915 248.1638 
C 98.307361 255.963139 107.963963 262.546897 118.377584 267.732264 
C 128.791206 272.91763 139.864562 276.656162 151.290177 278.844051 
L 175.313412 153.389687 
z
" style="fill: #e377c2"/>
   </g>
   <g id="patch_15">
    <path d="M 151.441146 278.89281 
C 152.545158 279.104218 153.651912 279.301042 154.76112 279.483233 
C 155.870328 279.665424 156.981892 279.832965 158.095522 279.985813 
L 175.464381 153.438446 
z
" style="fill: #7f7f7f"/>
   </g>
   <g id="patch_16">
    <path d="M 158.313872 279.9762 
C 174.697725 282.224913 191.36344 281.270594 207.383507 277.166354 
C 223.403574 273.062113 238.475184 265.885529 251.759544 256.036005 
L 175.682731 153.428832 
z
" style="fill: #f7b6d2"/>
   </g>
   <g id="patch_17">
    <path d="M 252.017605 255.882436 
C 258.342686 251.192784 264.220609 245.928309 269.576272 240.156276 
C 274.931934 234.384244 279.74243 228.129341 283.946294 221.471488 
L 175.940792 153.275263 
z
" style="fill: #c7c7c7"/>
   </g>
   <g id="patch_18">
    <path d="M 284.022808 221.365392 
C 285.423211 219.147509 286.754966 216.887016 288.016179 214.587129 
C 289.277391 212.287243 290.467462 209.949053 291.584699 207.575887 
L 176.017306 153.169167 
z
" style="fill: #dbdb8d"/>
   </g>
   <g id="patch_19">
    <path d="M 291.619224 207.499073 
C 293.375086 203.769379 294.949367 199.956871 296.336539 196.074936 
C 297.723711 192.193001 298.922148 188.246189 299.927643 184.248358 
L 176.051831 153.092353 
z
" style="fill: #bcbd22"/>
   </g>
   <g id="patch_20">
    <path d="M 299.952017 184.153216 
C 300.866072 180.518948 301.619751 176.846215 302.210867 173.145677 
C 302.801982 169.445138 303.229962 165.720379 303.493564 161.982209 
L 176.076206 152.997211 
z
" style="fill: #17becf"/>
   </g>
   <g id="patch_21">
    <path d="M 303.499897 161.916987 
C 303.605324 160.421922 303.684428 158.925116 303.737174 157.427267 
C 303.78992 155.929417 303.816299 154.430755 303.816299 152.931977 
L 176.082539 152.931989 
z
" style="fill: #9edae5"/>
   </g>
   <g id="patch_22">
    <path d="M 250.062004 152.913259 
C 250.062004 137.717335 245.413396 122.879031 236.743072 110.399384 
C 228.072748 97.919736 215.788802 88.386137 201.547802 83.08425 
L 175.550644 152.913259 
z
" style="fill: #ffffff"/>
   </g>
   <g id="patch_23">
    <path d="M 201.547802 83.08425 
C 198.679257 82.016298 195.74763 81.126118 192.769588 80.418772 
C 189.791547 79.711425 186.772747 79.188255 183.730354 78.852236 
L 175.550644 152.913259 
z
" style="fill: #ffffff"/>
   </g>
   <g id="patch_24">
    <path d="M 183.730354 78.852236 
C 182.209517 78.684267 180.683868 78.563182 179.155576 78.489155 
C 177.627283 78.415128 176.097073 78.388194 174.567123 78.40839 
L 175.550644 152.913259 
z
" style="fill: #ffffff"/>
   </g>
   <g id="patch_25">
    <path d="M 174.567123 78.40839 
C 173.037172 78.428587 171.508206 78.495905 169.982401 78.610248 
C 168.456595 78.724592 166.934674 78.885906 165.418801 79.093963 
L 175.550644 152.913259 
z
" style="fill: #ffffff"/>
   </g>
   <g id="patch_26">
    <path d="M 165.418801 79.093963 
C 163.253091 79.391211 161.10151 79.783621 158.970304 80.270055 
C 156.839098 80.756489 154.73033 81.336476 152.650122 82.008331 
L 175.550644 152.913259 
z
" style="fill: #ffffff"/>
   </g>
   <g id="patch_27">
    <path d="M 152.650122 82.008331 
C 144.099583 84.769942 136.118672 89.055601 129.093569 94.657934 
C 122.068466 100.260267 116.114338 107.087432 111.519293 114.809075 
L 175.550644 152.913259 
z
" style="fill: #ffffff"/>
   </g>
   <g id="patch_28">
    <path d="M 111.519293 114.809075 
C 111.183972 115.372558 110.856104 115.940442 110.535774 116.51258 
C 110.215444 117.084718 109.902681 117.661059 109.597565 118.241454 
L 175.550644 152.913259 
z
" style="fill: #ffffff"/>
   </g>
   <g id="patch_29">
    <path d="M 109.597565 118.241454 
C 109.394156 118.62838 109.194156 119.017089 108.997589 119.407535 
C 108.801021 119.797981 108.607893 120.19015 108.418227 120.583995 
L 175.550644 152.913259 
z
" style="fill: #ffffff"/>
   </g>
   <g id="patch_30">
    <path d="M 108.418227 120.583995 
C 108.418227 120.583995 108.418227 120.583995 108.418227 120.583995 
L 175.550644 152.913259 
z
" style="fill: #ffffff"/>
   </g>
   <g id="patch_31">
    <path d="M 108.418227 120.583995 
C 101.727946 134.476508 99.512226 150.109073 102.07837 165.313568 
C 104.644514 180.518063 111.868137 194.5575 122.747375 205.484711 
L 175.550644 152.913259 
z
" style="fill: #ffffff"/>
   </g>
   <g id="patch_32">
    <path d="M 122.747375 205.484711 
C 122.901585 205.639601 123.056475 205.793811 123.212042 205.947337 
C 123.367608 206.100864 123.523849 206.253705 123.680761 206.405856 
L 175.550644 152.913259 
z
" style="fill: #ffffff"/>
   </g>
   <g id="patch_33">
    <path d="M 123.680761 206.405856 
C 123.994586 206.710161 124.311082 207.011698 124.630213 207.310432 
C 124.949345 207.609167 125.271099 207.905087 125.595438 208.198159 
L 175.550644 152.913259 
z
" style="fill: #ffffff"/>
   </g>
   <g id="patch_34">
    <path d="M 125.595438 208.198159 
C 130.630448 212.747773 136.263466 216.588299 142.338078 219.613096 
C 148.412691 222.637893 154.872149 224.818703 161.537091 226.094972 
L 175.550644 152.913259 
z
" style="fill: #ffffff"/>
   </g>
   <g id="patch_35">
    <path d="M 161.537091 226.094972 
C 162.181098 226.218293 162.826704 226.333107 163.473742 226.439385 
C 164.12078 226.545663 164.769193 226.643396 165.41881 226.732557 
L 175.550644 152.913259 
z
" style="fill: #ffffff"/>
   </g>
   <g id="patch_36">
    <path d="M 165.41881 226.732557 
C 174.976058 228.044307 184.697725 227.48762 194.042764 225.09348 
C 203.387803 222.69934 212.179575 218.512999 219.928785 212.767443 
L 175.550644 152.913259 
z
" style="fill: #ffffff"/>
   </g>
   <g id="patch_37">
    <path d="M 219.928785 212.767443 
C 223.618416 210.031813 227.047204 206.960869 230.171341 203.59385 
C 233.295477 200.226831 236.1016 196.578138 238.553854 192.69439 
L 175.550644 152.913259 
z
" style="fill: #ffffff"/>
   </g>
   <g id="patch_38">
    <path d="M 238.553854 192.69439 
C 239.370756 191.400625 240.147613 190.082004 240.88332 188.740404 
C 241.619027 187.398803 242.313235 186.034859 242.964957 184.650512 
L 175.550644 152.913259 
z
" style="fill: #ffffff"/>
   </g>
   <g id="patch_39">
    <path d="M 242.964957 184.650512 
C 243.98921 182.474858 244.90754 180.250895 245.716724 177.986433 
C 246.525908 175.72197 247.224996 173.419663 247.811535 171.087596 
L 175.550644 152.913259 
z
" style="fill: #ffffff"/>
   </g>
   <g id="patch_40">
    <path d="M 247.811535 171.087596 
C 248.344733 168.967606 248.784379 166.825178 249.129197 164.666531 
C 249.474014 162.507883 249.723669 160.335107 249.877437 158.154508 
L 175.550644 152.913259 
z
" style="fill: #ffffff"/>
   </g>
   <g id="patch_41">
    <path d="M 249.877437 158.154508 
C 249.938936 157.282386 249.98508 156.40925 250.015848 155.535504 
C 250.046617 154.661759 250.062005 153.787539 250.062004 152.913252 
L 175.550644 152.913259 
z
" style="fill: #ffffff"/>
   </g>
   <g id="matplotlib.axis_1"/>
   <g id="matplotlib.axis_2"/>
   <g id="text_1">
    <!-- A [69] -->
    <g transform="translate(291.379167 75.199941) scale(0.1 -0.1)">
     <defs>
      <path id="DejaVuSans-41" d="M 2188 4044 
L 1331 1722 
L 3047 1722 
L 2188 4044 
z
M 1831 4666 
L 2547 4666 
L 4325 0 
L 3669 0 
L 3244 1197 
L 1141 1197 
L 716 0 
L 50 0 
L 1831 4666 
z
" transform="scale(0.015625)"/>
      <path id="DejaVuSans-20" transform="scale(0.015625)"/>
      <path id="DejaVuSans-5b" d="M 550 4863 
L 1875 4863 
L 1875 4416 
L 1125 4416 
L 1125 -397 
L 1875 -397 
L 1875 -844 
L 550 -844 
L 550 4863 
z
" transform="scale(0.015625)"/>
      <path id="DejaVuSans-36" d="M 2113 2584 
Q 1688 2584 1439 2293 
Q 1191 2003 1191 1497 
Q 1191 994 1439 701 
Q 1688 409 2113 409 
Q 2538 409 2786 701 
Q 3034 994 3034 1497 
Q 3034 2003 2786 2293 
Q 2538 2584 2113 2584 
z
M 3366 4563 
L 3366 3988 
Q 3128 4100 2886 4159 
Q 2644 4219 2406 4219 
Q 1781 4219 1451 3797 
Q 1122 3375 1075 2522 
Q 1259 2794 1537 2939 
Q 1816 3084 2150 3084 
Q 2853 3084 3261 2657 
Q 3669 2231 3669 1497 
Q 3669 778 3244 343 
Q 2819 -91 2113 -91 
Q 1303 -91 875 529 
Q 447 1150 447 2328 
Q 447 3434 972 4092 
Q 1497 4750 2381 4750 
Q 2619 4750 2861 4703 
Q 3103 4656 3366 4563 
z
" transform="scale(0.015625)"/>
      <path id="DejaVuSans-39" d="M 703 97 
L 703 672 
Q 941 559 1184 500 
Q 1428 441 1663 441 
Q 2288 441 2617 861 
Q 2947 1281 2994 2138 
Q 2813 1869 2534 1725 
Q 2256 1581 1919 1581 
Q 1219 1581 811 2004 
Q 403 2428 403 3163 
Q 403 3881 828 4315 
Q 1253 4750 1959 4750 
Q 2769 4750 3195 4129 
Q 3622 3509 3622 2328 
Q 3622 1225 3098 567 
Q 2575 -91 1691 -91 
Q 1453 -91 1209 -44 
Q 966 3 703 97 
z
M 1959 2075 
Q 2384 2075 2632 2365 
Q 2881 2656 2881 3163 
Q 2881 3666 2632 3958 
Q 2384 4250 1959 4250 
Q 1534 4250 1286 3958 
Q 1038 3666 1038 3163 
Q 1038 2656 1286 2365 
Q 1534 2075 1959 2075 
z
" transform="scale(0.015625)"/>
      <path id="DejaVuSans-5d" d="M 1947 4863 
L 1947 -844 
L 622 -844 
L 622 -397 
L 1369 -397 
L 1369 4416 
L 622 4416 
L 622 4863 
L 1947 4863 
z
" transform="scale(0.015625)"/>
     </defs>
     <use xlink:href="#DejaVuSans-41"/>
     <use xlink:href="#DejaVuSans-20" x="68.408203"/>
     <use xlink:href="#DejaVuSans-5b" x="100.195312"/>
     <use xlink:href="#DejaVuSans-36" x="139.208984"/>
     <use xlink:href="#DejaVuSans-39" x="202.832031"/>
     <use xlink:href="#DejaVuSans-5d" x="266.455078"/>
    </g>
   </g>
   <g id="text_2">
    <!-- C [14] -->
    <g transform="translate(208.143646 18.450925) scale(0.1 -0.1)">
     <defs>
      <path id="DejaVuSans-43" d="M 4122 4306 
L 4122 3641 
Q 3803 3938 3442 4084 
Q 3081 4231 2675 4231 
Q 1875 4231 1450 3742 
Q 1025 3253 1025 2328 
Q 1025 1406 1450 917 
Q 1875 428 2675 428 
Q 3081 428 3442 575 
Q 3803 722 4122 1019 
L 4122 359 
Q 3791 134 3420 21 
Q 3050 -91 2638 -91 
Q 1578 -91 968 557 
Q 359 1206 359 2328 
Q 359 3453 968 4101 
Q 1578 4750 2638 4750 
Q 3056 4750 3426 4639 
Q 3797 4528 4122 4306 
z
" transform="scale(0.015625)"/>
      <path id="DejaVuSans-31" d="M 794 531 
L 1825 531 
L 1825 4091 
L 703 3866 
L 703 4441 
L 1819 4666 
L 2450 4666 
L 2450 531 
L 3481 531 
L 3481 0 
L 794 0 
L 794 531 
z
" transform="scale(0.015625)"/>
      <path id="DejaVuSans-34" d="M 2419 4116 
L 825 1625 
L 2419 1625 
L 2419 4116 
z
M 2253 4666 
L 3047 4666 
L 3047 1625 
L 3713 1625 
L 3713 1100 
L 3047 1100 
L 3047 0 
L 2419 0 
L 2419 1100 
L 313 1100 
L 313 1709 
L 2253 4666 
z
" transform="scale(0.015625)"/>
     </defs>
     <use xlink:href="#DejaVuSans-43"/>
     <use xlink:href="#DejaVuSans-20" x="69.824219"/>
     <use xlink:href="#DejaVuSans-5b" x="101.611328"/>
     <use xlink:href="#DejaVuSans-31" x="140.625"/>
     <use xlink:href="#DejaVuSans-34" x="204.248047"/>
     <use xlink:href="#DejaVuSans-5d" x="267.871094"/>
    </g>
   </g>
   <g id="text_3">
    <!-- D [7] -->
    <g transform="translate(182.374264 14.798437) scale(0.1 -0.1)">
     <defs>
      <path id="DejaVuSans-44" d="M 1259 4147 
L 1259 519 
L 2022 519 
Q 2988 519 3436 956 
Q 3884 1394 3884 2338 
Q 3884 3275 3436 3711 
Q 2988 4147 2022 4147 
L 1259 4147 
z
M 628 4666 
L 1925 4666 
Q 3281 4666 3915 4102 
Q 4550 3538 4550 2338 
Q 4550 1131 3912 565 
Q 3275 0 1925 0 
L 628 0 
L 628 4666 
z
" transform="scale(0.015625)"/>
      <path id="DejaVuSans-37" d="M 525 4666 
L 3525 4666 
L 3525 4397 
L 1831 0 
L 1172 0 
L 2766 4134 
L 525 4134 
L 525 4666 
z
" transform="scale(0.015625)"/>
     </defs>
     <use xlink:href="#DejaVuSans-44"/>
     <use xlink:href="#DejaVuSans-20" x="77.001953"/>
     <use xlink:href="#DejaVuSans-5b" x="108.789062"/>
     <use xlink:href="#DejaVuSans-37" x="147.802734"/>
     <use xlink:href="#DejaVuSans-5d" x="211.425781"/>
    </g>
   </g>
   <g id="text_4">
    <!-- E [7] -->
    <g transform="translate(141.348255 15.027649) scale(0.1 -0.1)">
     <defs>
      <path id="DejaVuSans-45" d="M 628 4666 
L 3578 4666 
L 3578 4134 
L 1259 4134 
L 1259 2753 
L 3481 2753 
L 3481 2222 
L 1259 2222 
L 1259 531 
L 3634 531 
L 3634 0 
L 628 0 
L 628 4666 
z
" transform="scale(0.015625)"/>
     </defs>
     <use xlink:href="#DejaVuSans-45"/>
     <use xlink:href="#DejaVuSans-20" x="63.183594"/>
     <use xlink:href="#DejaVuSans-5b" x="94.970703"/>
     <use xlink:href="#DejaVuSans-37" x="133.984375"/>
     <use xlink:href="#DejaVuSans-5d" x="197.607422"/>
    </g>
   </g>
   <g id="text_5">
    <!-- F [10] -->
    <g transform="translate(114.708616 18.169427) scale(0.1 -0.1)">
     <defs>
      <path id="DejaVuSans-46" d="M 628 4666 
L 3309 4666 
L 3309 4134 
L 1259 4134 
L 1259 2759 
L 3109 2759 
L 3109 2228 
L 1259 2228 
L 1259 0 
L 628 0 
L 628 4666 
z
" transform="scale(0.015625)"/>
      <path id="DejaVuSans-30" d="M 2034 4250 
Q 1547 4250 1301 3770 
Q 1056 3291 1056 2328 
Q 1056 1369 1301 889 
Q 1547 409 2034 409 
Q 2525 409 2770 889 
Q 3016 1369 3016 2328 
Q 3016 3291 2770 3770 
Q 2525 4250 2034 4250 
z
M 2034 4750 
Q 2819 4750 3233 4129 
Q 3647 3509 3647 2328 
Q 3647 1150 3233 529 
Q 2819 -91 2034 -91 
Q 1250 -91 836 529 
Q 422 1150 422 2328 
Q 422 3509 836 4129 
Q 1250 4750 2034 4750 
z
" transform="scale(0.015625)"/>
     </defs>
     <use xlink:href="#DejaVuSans-46"/>
     <use xlink:href="#DejaVuSans-20" x="57.519531"/>
     <use xlink:href="#DejaVuSans-5b" x="89.306641"/>
     <use xlink:href="#DejaVuSans-31" x="128.320312"/>
     <use xlink:href="#DejaVuSans-30" x="191.943359"/>
     <use xlink:href="#DejaVuSans-5d" x="255.566406"/>
    </g>
   </g>
   <g id="text_6">
    <!-- G [41] -->
    <g transform="translate(56.15935 45.403626) scale(0.1 -0.1)">
     <defs>
      <path id="DejaVuSans-47" d="M 3809 666 
L 3809 1919 
L 2778 1919 
L 2778 2438 
L 4434 2438 
L 4434 434 
Q 4069 175 3628 42 
Q 3188 -91 2688 -91 
Q 1594 -91 976 548 
Q 359 1188 359 2328 
Q 359 3472 976 4111 
Q 1594 4750 2688 4750 
Q 3144 4750 3555 4637 
Q 3966 4525 4313 4306 
L 4313 3634 
Q 3963 3931 3569 4081 
Q 3175 4231 2741 4231 
Q 1884 4231 1454 3753 
Q 1025 3275 1025 2328 
Q 1025 1384 1454 906 
Q 1884 428 2741 428 
Q 3075 428 3337 486 
Q 3600 544 3809 666 
z
" transform="scale(0.015625)"/>
     </defs>
     <use xlink:href="#DejaVuSans-47"/>
     <use xlink:href="#DejaVuSans-20" x="77.490234"/>
     <use xlink:href="#DejaVuSans-5b" x="109.277344"/>
     <use xlink:href="#DejaVuSans-34" x="148.291016"/>
     <use xlink:href="#DejaVuSans-31" x="211.914062"/>
     <use xlink:href="#DejaVuSans-5d" x="275.537109"/>
    </g>
   </g>
   <g id="text_7">
    <!-- H [3] -->
    <g transform="translate(27.622721 86.771349) scale(0.1 -0.1)">
     <defs>
      <path id="DejaVuSans-48" d="M 628 4666 
L 1259 4666 
L 1259 2753 
L 3553 2753 
L 3553 4666 
L 4184 4666 
L 4184 0 
L 3553 0 
L 3553 2222 
L 1259 2222 
L 1259 0 
L 628 0 
L 628 4666 
z
" transform="scale(0.015625)"/>
      <path id="DejaVuSans-33" d="M 2597 2516 
Q 3050 2419 3304 2112 
Q 3559 1806 3559 1356 
Q 3559 666 3084 287 
Q 2609 -91 1734 -91 
Q 1441 -91 1130 -33 
Q 819 25 488 141 
L 488 750 
Q 750 597 1062 519 
Q 1375 441 1716 441 
Q 2309 441 2620 675 
Q 2931 909 2931 1356 
Q 2931 1769 2642 2001 
Q 2353 2234 1838 2234 
L 1294 2234 
L 1294 2753 
L 1863 2753 
Q 2328 2753 2575 2939 
Q 2822 3125 2822 3475 
Q 2822 3834 2567 4026 
Q 2313 4219 1838 4219 
Q 1578 4219 1281 4162 
Q 984 4106 628 3988 
L 628 4550 
Q 988 4650 1302 4700 
Q 1616 4750 1894 4750 
Q 2613 4750 3031 4423 
Q 3450 4097 3450 3541 
Q 3450 3153 3228 2886 
Q 3006 2619 2597 2516 
z
" transform="scale(0.015625)"/>
     </defs>
     <use xlink:href="#DejaVuSans-48"/>
     <use xlink:href="#DejaVuSans-20" x="75.195312"/>
     <use xlink:href="#DejaVuSans-5b" x="106.982422"/>
     <use xlink:href="#DejaVuSans-33" x="145.996094"/>
     <use xlink:href="#DejaVuSans-5d" x="209.619141"/>
    </g>
   </g>
   <g id="text_8">
    <!-- I [2] -->
    <g transform="translate(29.281468 92.251085) scale(0.1 -0.1)">
     <defs>
      <path id="DejaVuSans-49" d="M 628 4666 
L 1259 4666 
L 1259 0 
L 628 0 
L 628 4666 
z
" transform="scale(0.015625)"/>
      <path id="DejaVuSans-32" d="M 1228 531 
L 3431 531 
L 3431 0 
L 469 0 
L 469 531 
Q 828 903 1448 1529 
Q 2069 2156 2228 2338 
Q 2531 2678 2651 2914 
Q 2772 3150 2772 3378 
Q 2772 3750 2511 3984 
Q 2250 4219 1831 4219 
Q 1534 4219 1204 4116 
Q 875 4013 500 3803 
L 500 4441 
Q 881 4594 1212 4672 
Q 1544 4750 1819 4750 
Q 2544 4750 2975 4387 
Q 3406 4025 3406 3419 
Q 3406 3131 3298 2873 
Q 3191 2616 2906 2266 
Q 2828 2175 2409 1742 
Q 1991 1309 1228 531 
z
" transform="scale(0.015625)"/>
     </defs>
     <use xlink:href="#DejaVuSans-49"/>
     <use xlink:href="#DejaVuSans-20" x="29.492188"/>
     <use xlink:href="#DejaVuSans-5b" x="61.279297"/>
     <use xlink:href="#DejaVuSans-32" x="100.292969"/>
     <use xlink:href="#DejaVuSans-5d" x="163.916016"/>
    </g>
   </g>
   <g id="text_9">
    <!-- K [0] -->
    <g transform="translate(24.577007 94.477955) scale(0.1 -0.1)">
     <defs>
      <path id="DejaVuSans-4b" d="M 628 4666 
L 1259 4666 
L 1259 2694 
L 3353 4666 
L 4166 4666 
L 1850 2491 
L 4331 0 
L 3500 0 
L 1259 2247 
L 1259 0 
L 628 0 
L 628 4666 
z
" transform="scale(0.015625)"/>
     </defs>
     <use xlink:href="#DejaVuSans-4b"/>
     <use xlink:href="#DejaVuSans-20" x="65.576172"/>
     <use xlink:href="#DejaVuSans-5b" x="97.363281"/>
     <use xlink:href="#DejaVuSans-30" x="136.376953"/>
     <use xlink:href="#DejaVuSans-5d" x="200"/>
    </g>
   </g>
   <g id="text_10">
    <!-- L [70] -->
    <g transform="translate(7.2 179.144647) scale(0.1 -0.1)">
     <defs>
      <path id="DejaVuSans-4c" d="M 628 4666 
L 1259 4666 
L 1259 531 
L 3531 531 
L 3531 0 
L 628 0 
L 628 4666 
z
" transform="scale(0.015625)"/>
     </defs>
     <use xlink:href="#DejaVuSans-4c"/>
     <use xlink:href="#DejaVuSans-20" x="55.712891"/>
     <use xlink:href="#DejaVuSans-5b" x="87.5"/>
     <use xlink:href="#DejaVuSans-37" x="126.513672"/>
     <use xlink:href="#DejaVuSans-30" x="190.136719"/>
     <use xlink:href="#DejaVuSans-5d" x="253.759766"/>
    </g>
   </g>
   <g id="text_11">
    <!-- M [1] -->
    <g transform="translate(50.509271 256.058568) scale(0.1 -0.1)">
     <defs>
      <path id="DejaVuSans-4d" d="M 628 4666 
L 1569 4666 
L 2759 1491 
L 3956 4666 
L 4897 4666 
L 4897 0 
L 4281 0 
L 4281 4097 
L 3078 897 
L 2444 897 
L 1241 4097 
L 1241 0 
L 628 0 
L 628 4666 
z
" transform="scale(0.015625)"/>
     </defs>
     <use xlink:href="#DejaVuSans-4d"/>
     <use xlink:href="#DejaVuSans-20" x="86.279297"/>
     <use xlink:href="#DejaVuSans-5b" x="118.066406"/>
     <use xlink:href="#DejaVuSans-31" x="157.080078"/>
     <use xlink:href="#DejaVuSans-5d" x="220.703125"/>
    </g>
   </g>
   <g id="text_12">
    <!-- N [2] -->
    <g transform="translate(54.340543 258.638712) scale(0.1 -0.1)">
     <defs>
      <path id="DejaVuSans-4e" d="M 628 4666 
L 1478 4666 
L 3547 763 
L 3547 4666 
L 4159 4666 
L 4159 0 
L 3309 0 
L 1241 3903 
L 1241 0 
L 628 0 
L 628 4666 
z
" transform="scale(0.015625)"/>
     </defs>
     <use xlink:href="#DejaVuSans-4e"/>
     <use xlink:href="#DejaVuSans-20" x="74.804688"/>
     <use xlink:href="#DejaVuSans-5b" x="106.591797"/>
     <use xlink:href="#DejaVuSans-32" x="145.605469"/>
     <use xlink:href="#DejaVuSans-5d" x="209.228516"/>
    </g>
   </g>
   <g id="text_13">
    <!-- P [31] -->
    <g transform="translate(82.948064 281.925897) scale(0.1 -0.1)">
     <defs>
      <path id="DejaVuSans-50" d="M 1259 4147 
L 1259 2394 
L 2053 2394 
Q 2494 2394 2734 2622 
Q 2975 2850 2975 3272 
Q 2975 3691 2734 3919 
Q 2494 4147 2053 4147 
L 1259 4147 
z
M 628 4666 
L 2053 4666 
Q 2838 4666 3239 4311 
Q 3641 3956 3641 3272 
Q 3641 2581 3239 2228 
Q 2838 1875 2053 1875 
L 1259 1875 
L 1259 0 
L 628 0 
L 628 4666 
z
" transform="scale(0.015625)"/>
     </defs>
     <use xlink:href="#DejaVuSans-50"/>
     <use xlink:href="#DejaVuSans-20" x="60.302734"/>
     <use xlink:href="#DejaVuSans-5b" x="92.089844"/>
     <use xlink:href="#DejaVuSans-33" x="131.103516"/>
     <use xlink:href="#DejaVuSans-31" x="194.726562"/>
     <use xlink:href="#DejaVuSans-5d" x="258.349609"/>
    </g>
   </g>
   <g id="text_14">
    <!-- Q [3] -->
    <g transform="translate(127.475169 294.847087) scale(0.1 -0.1)">
     <defs>
      <path id="DejaVuSans-51" d="M 2522 4238 
Q 1834 4238 1429 3725 
Q 1025 3213 1025 2328 
Q 1025 1447 1429 934 
Q 1834 422 2522 422 
Q 3209 422 3611 934 
Q 4013 1447 4013 2328 
Q 4013 3213 3611 3725 
Q 3209 4238 2522 4238 
z
M 3406 84 
L 4238 -825 
L 3475 -825 
L 2784 -78 
Q 2681 -84 2626 -87 
Q 2572 -91 2522 -91 
Q 1538 -91 948 567 
Q 359 1225 359 2328 
Q 359 3434 948 4092 
Q 1538 4750 2522 4750 
Q 3503 4750 4090 4092 
Q 4678 3434 4678 2328 
Q 4678 1516 4351 937 
Q 4025 359 3406 84 
z
" transform="scale(0.015625)"/>
     </defs>
     <use xlink:href="#DejaVuSans-51"/>
     <use xlink:href="#DejaVuSans-20" x="78.710938"/>
     <use xlink:href="#DejaVuSans-5b" x="110.498047"/>
     <use xlink:href="#DejaVuSans-33" x="149.511719"/>
     <use xlink:href="#DejaVuSans-5d" x="213.134766"/>
    </g>
   </g>
   <g id="text_15">
    <!-- R [44] -->
    <g transform="translate(210.553585 292.299481) scale(0.1 -0.1)">
     <defs>
      <path id="DejaVuSans-52" d="M 2841 2188 
Q 3044 2119 3236 1894 
Q 3428 1669 3622 1275 
L 4263 0 
L 3584 0 
L 2988 1197 
Q 2756 1666 2539 1819 
Q 2322 1972 1947 1972 
L 1259 1972 
L 1259 0 
L 628 0 
L 628 4666 
L 2053 4666 
Q 2853 4666 3247 4331 
Q 3641 3997 3641 3322 
Q 3641 2881 3436 2590 
Q 3231 2300 2841 2188 
z
M 1259 4147 
L 1259 2491 
L 2053 2491 
Q 2509 2491 2742 2702 
Q 2975 2913 2975 3322 
Q 2975 3731 2742 3939 
Q 2509 4147 2053 4147 
L 1259 4147 
z
" transform="scale(0.015625)"/>
     </defs>
     <use xlink:href="#DejaVuSans-52"/>
     <use xlink:href="#DejaVuSans-20" x="69.482422"/>
     <use xlink:href="#DejaVuSans-5b" x="101.269531"/>
     <use xlink:href="#DejaVuSans-34" x="140.283203"/>
     <use xlink:href="#DejaVuSans-34" x="203.90625"/>
     <use xlink:href="#DejaVuSans-5d" x="267.529297"/>
    </g>
   </g>
   <g id="text_16">
    <!-- S [21] -->
    <g transform="translate(278.93982 251.603753) scale(0.1 -0.1)">
     <defs>
      <path id="DejaVuSans-53" d="M 3425 4513 
L 3425 3897 
Q 3066 4069 2747 4153 
Q 2428 4238 2131 4238 
Q 1616 4238 1336 4038 
Q 1056 3838 1056 3469 
Q 1056 3159 1242 3001 
Q 1428 2844 1947 2747 
L 2328 2669 
Q 3034 2534 3370 2195 
Q 3706 1856 3706 1288 
Q 3706 609 3251 259 
Q 2797 -91 1919 -91 
Q 1588 -91 1214 -16 
Q 841 59 441 206 
L 441 856 
Q 825 641 1194 531 
Q 1563 422 1919 422 
Q 2459 422 2753 634 
Q 3047 847 3047 1241 
Q 3047 1584 2836 1778 
Q 2625 1972 2144 2069 
L 1759 2144 
Q 1053 2284 737 2584 
Q 422 2884 422 3419 
Q 422 4038 858 4394 
Q 1294 4750 2059 4750 
Q 2388 4750 2728 4690 
Q 3069 4631 3425 4513 
z
" transform="scale(0.015625)"/>
     </defs>
     <use xlink:href="#DejaVuSans-53"/>
     <use xlink:href="#DejaVuSans-20" x="63.476562"/>
     <use xlink:href="#DejaVuSans-5b" x="95.263672"/>
     <use xlink:href="#DejaVuSans-32" x="134.277344"/>
     <use xlink:href="#DejaVuSans-31" x="197.900391"/>
     <use xlink:href="#DejaVuSans-5d" x="261.523438"/>
    </g>
   </g>
   <g id="text_17">
    <!-- T [7] -->
    <g transform="translate(299.216066 223.4883) scale(0.1 -0.1)">
     <defs>
      <path id="DejaVuSans-54" d="M -19 4666 
L 3928 4666 
L 3928 4134 
L 2272 4134 
L 2272 0 
L 1638 0 
L 1638 4134 
L -19 4134 
L -19 4666 
z
" transform="scale(0.015625)"/>
     </defs>
     <use xlink:href="#DejaVuSans-54"/>
     <use xlink:href="#DejaVuSans-20" x="61.083984"/>
     <use xlink:href="#DejaVuSans-5b" x="92.871094"/>
     <use xlink:href="#DejaVuSans-37" x="131.884766"/>
     <use xlink:href="#DejaVuSans-5d" x="195.507812"/>
    </g>
   </g>
   <g id="text_18">
    <!-- V [11] -->
    <g transform="translate(308.36501 203.132569) scale(0.1 -0.1)">
     <defs>
      <path id="DejaVuSans-56" d="M 1831 0 
L 50 4666 
L 709 4666 
L 2188 738 
L 3669 4666 
L 4325 4666 
L 2547 0 
L 1831 0 
z
" transform="scale(0.015625)"/>
     </defs>
     <use xlink:href="#DejaVuSans-56"/>
     <use xlink:href="#DejaVuSans-20" x="68.408203"/>
     <use xlink:href="#DejaVuSans-5b" x="100.195312"/>
     <use xlink:href="#DejaVuSans-31" x="139.208984"/>
     <use xlink:href="#DejaVuSans-31" x="202.832031"/>
     <use xlink:href="#DejaVuSans-5d" x="266.455078"/>
    </g>
   </g>
   <g id="text_19">
    <!-- W [10] -->
    <g transform="translate(314.824333 177.919898) scale(0.1 -0.1)">
     <defs>
      <path id="DejaVuSans-57" d="M 213 4666 
L 850 4666 
L 1831 722 
L 2809 4666 
L 3519 4666 
L 4500 722 
L 5478 4666 
L 6119 4666 
L 4947 0 
L 4153 0 
L 3169 4050 
L 2175 0 
L 1381 0 
L 213 4666 
z
" transform="scale(0.015625)"/>
     </defs>
     <use xlink:href="#DejaVuSans-57"/>
     <use xlink:href="#DejaVuSans-20" x="98.876953"/>
     <use xlink:href="#DejaVuSans-5b" x="130.664062"/>
     <use xlink:href="#DejaVuSans-31" x="169.677734"/>
     <use xlink:href="#DejaVuSans-30" x="233.300781"/>
     <use xlink:href="#DejaVuSans-5d" x="296.923828"/>
    </g>
   </g>
   <g id="text_20">
    <!-- Y [4] -->
    <g transform="translate(316.502638 160.63617) scale(0.1 -0.1)">
     <defs>
      <path id="DejaVuSans-59" d="M -13 4666 
L 666 4666 
L 1959 2747 
L 3244 4666 
L 3922 4666 
L 2272 2222 
L 2272 0 
L 1638 0 
L 1638 2222 
L -13 4666 
z
" transform="scale(0.015625)"/>
     </defs>
     <use xlink:href="#DejaVuSans-59"/>
     <use xlink:href="#DejaVuSans-20" x="61.083984"/>
     <use xlink:href="#DejaVuSans-5b" x="92.871094"/>
     <use xlink:href="#DejaVuSans-34" x="131.884766"/>
     <use xlink:href="#DejaVuSans-5d" x="195.507812"/>
    </g>
   </g>
   <g id="text_21">
    <!-- A0A8C0PBD1 [357] -->
    <g transform="translate(117.486582 152.913259) scale(0.12 -0.12)">
     <defs>
      <path id="DejaVuSans-38" d="M 2034 2216 
Q 1584 2216 1326 1975 
Q 1069 1734 1069 1313 
Q 1069 891 1326 650 
Q 1584 409 2034 409 
Q 2484 409 2743 651 
Q 3003 894 3003 1313 
Q 3003 1734 2745 1975 
Q 2488 2216 2034 2216 
z
M 1403 2484 
Q 997 2584 770 2862 
Q 544 3141 544 3541 
Q 544 4100 942 4425 
Q 1341 4750 2034 4750 
Q 2731 4750 3128 4425 
Q 3525 4100 3525 3541 
Q 3525 3141 3298 2862 
Q 3072 2584 2669 2484 
Q 3125 2378 3379 2068 
Q 3634 1759 3634 1313 
Q 3634 634 3220 271 
Q 2806 -91 2034 -91 
Q 1263 -91 848 271 
Q 434 634 434 1313 
Q 434 1759 690 2068 
Q 947 2378 1403 2484 
z
M 1172 3481 
Q 1172 3119 1398 2916 
Q 1625 2713 2034 2713 
Q 2441 2713 2670 2916 
Q 2900 3119 2900 3481 
Q 2900 3844 2670 4047 
Q 2441 4250 2034 4250 
Q 1625 4250 1398 4047 
Q 1172 3844 1172 3481 
z
" transform="scale(0.015625)"/>
      <path id="DejaVuSans-42" d="M 1259 2228 
L 1259 519 
L 2272 519 
Q 2781 519 3026 730 
Q 3272 941 3272 1375 
Q 3272 1813 3026 2020 
Q 2781 2228 2272 2228 
L 1259 2228 
z
M 1259 4147 
L 1259 2741 
L 2194 2741 
Q 2656 2741 2882 2914 
Q 3109 3088 3109 3444 
Q 3109 3797 2882 3972 
Q 2656 4147 2194 4147 
L 1259 4147 
z
M 628 4666 
L 2241 4666 
Q 2963 4666 3353 4366 
Q 3744 4066 3744 3513 
Q 3744 3084 3544 2831 
Q 3344 2578 2956 2516 
Q 3422 2416 3680 2098 
Q 3938 1781 3938 1306 
Q 3938 681 3513 340 
Q 3088 0 2303 0 
L 628 0 
L 628 4666 
z
" transform="scale(0.015625)"/>
      <path id="DejaVuSans-35" d="M 691 4666 
L 3169 4666 
L 3169 4134 
L 1269 4134 
L 1269 2991 
Q 1406 3038 1543 3061 
Q 1681 3084 1819 3084 
Q 2600 3084 3056 2656 
Q 3513 2228 3513 1497 
Q 3513 744 3044 326 
Q 2575 -91 1722 -91 
Q 1428 -91 1123 -41 
Q 819 9 494 109 
L 494 744 
Q 775 591 1075 516 
Q 1375 441 1709 441 
Q 2250 441 2565 725 
Q 2881 1009 2881 1497 
Q 2881 1984 2565 2268 
Q 2250 2553 1709 2553 
Q 1456 2553 1204 2497 
Q 953 2441 691 2322 
L 691 4666 
z
" transform="scale(0.015625)"/>
     </defs>
     <use xlink:href="#DejaVuSans-41"/>
     <use xlink:href="#DejaVuSans-30" x="68.408203"/>
     <use xlink:href="#DejaVuSans-41" x="132.03125"/>
     <use xlink:href="#DejaVuSans-38" x="200.439453"/>
     <use xlink:href="#DejaVuSans-43" x="264.0625"/>
     <use xlink:href="#DejaVuSans-30" x="333.886719"/>
     <use xlink:href="#DejaVuSans-50" x="397.509766"/>
     <use xlink:href="#DejaVuSans-42" x="457.8125"/>
     <use xlink:href="#DejaVuSans-44" x="526.416016"/>
     <use xlink:href="#DejaVuSans-31" x="603.417969"/>
     <use xlink:href="#DejaVuSans-20" x="667.041016"/>
     <use xlink:href="#DejaVuSans-5b" x="698.828125"/>
     <use xlink:href="#DejaVuSans-33" x="737.841797"/>
     <use xlink:href="#DejaVuSans-35" x="801.464844"/>
     <use xlink:href="#DejaVuSans-37" x="865.087891"/>
     <use xlink:href="#DejaVuSans-5d" x="928.710938"/>
    </g>
   </g>
  </g>
 </g>
</svg>
