<?xml version="1.0" encoding="utf-8" standalone="no"?>
<!DOCTYPE svg PUBLIC "-//W3C//DTD SVG 1.1//EN"
  "http://www.w3.org/Graphics/SVG/1.1/DTD/svg11.dtd">
<svg xmlns:xlink="http://www.w3.org/1999/xlink" width="349.108584pt" height="304.647711pt" viewBox="0 0 349.108584 304.647711" xmlns="http://www.w3.org/2000/svg" version="1.1">
 <metadata>
  <rdf:RDF xmlns:dc="http://purl.org/dc/elements/1.1/" xmlns:cc="http://creativecommons.org/ns#" xmlns:rdf="http://www.w3.org/1999/02/22-rdf-syntax-ns#">
   <cc:Work>
    <dc:type rdf:resource="http://purl.org/dc/dcmitype/StillImage"/>
    <dc:date>2024-09-27T16:07:24.615396</dc:date>
    <dc:format>image/svg+xml</dc:format>
    <dc:creator>
     <cc:Agent>
      <dc:title>Matplotlib v3.8.3, https://matplotlib.org/</dc:title>
     </cc:Agent>
    </dc:creator>
   </cc:Work>
  </rdf:RDF>
 </metadata>
 <defs>
  <style type="text/css">*{stroke-linejoin: round; stroke-linecap: butt}</style>
 </defs>
 <g id="figure_1">
  <g id="patch_1">
   <path d="M 0 304.647711 
L 349.108584 304.647711 
L 349.108584 0 
L 0 0 
z
" style="fill: #ffffff"/>
  </g>
  <g id="axes_1">
   <g id="patch_2">
    <path d="M 305.604383 152.748752 
C 305.604383 134.087012 301.514699 115.65001 293.623885 98.738606 
C 285.733072 81.827202 274.231183 66.848714 259.929758 54.859979 
L 177.870623 152.748752 
z
" style="fill: #1f77b4"/>
   </g>
   <g id="patch_3">
    <path d="M 259.730475 54.634287 
C 255.259677 50.886464 250.537369 47.449327 245.596729 44.347023 
C 240.656089 41.24472 235.508714 38.484533 230.190768 36.085854 
L 177.671341 152.523061 
z
" style="fill: #ff7f0e"/>
   </g>
   <g id="patch_4">
    <path d="M 230.079991 36.033006 
C 226.424656 34.384254 222.693708 32.908544 218.899545 31.610782 
C 215.105382 30.31302 211.252211 29.194643 207.352836 28.259368 
L 177.560564 152.470213 
z
" style="fill: #aec7e8"/>
   </g>
   <g id="patch_5">
    <path d="M 207.264524 28.237385 
C 204.074321 27.472207 200.855823 26.830218 197.616191 26.312846 
C 194.376559 25.795474 191.118197 25.403102 187.848354 25.136605 
L 177.472251 152.44823 
z
" style="fill: #ffbb78"/>
   </g>
   <g id="patch_6">
    <path d="M 187.743924 25.13034 
C 182.65661 24.715715 177.549014 24.606394 172.448618 24.802963 
C 167.348222 24.999532 162.264191 25.501639 157.223879 26.306581 
L 177.367821 152.441965 
z
" style="fill: #98df8a"/>
   </g>
   <g id="patch_7">
    <path d="M 157.004986 26.363063 
C 144.022478 28.436382 131.437543 32.501668 119.695491 38.415074 
C 107.953438 44.32848 97.194418 52.019425 87.799132 61.215769 
L 177.148929 152.498447 
z
" style="fill: #2ca02c"/>
   </g>
   <g id="patch_8">
    <path d="M 87.653428 61.32374 
C 86.611538 62.343568 85.587186 63.381158 84.58082 64.436056 
C 83.574455 65.490954 82.586224 66.563005 81.616561 67.651736 
L 177.003225 152.606418 
z
" style="fill: #d62728"/>
   </g>
   <g id="patch_9">
    <path d="M 81.586562 67.686006 
C 80.132024 69.319153 78.719669 70.989386 77.350893 72.695054 
C 75.982117 74.400721 74.657371 76.14126 73.377967 77.91495 
L 176.973225 152.640687 
z
" style="fill: #9467bd"/>
   </g>
   <g id="patch_10">
    <path d="M 73.356146 77.944134 
C 72.929698 78.535335 72.50832 79.130176 72.092056 79.728591 
C 71.675792 80.327005 71.264659 80.928973 70.858701 81.534426 
L 176.951404 152.669872 
z
" style="fill: #ff9896"/>
   </g>
   <g id="patch_11">
    <path d="M 70.763878 81.815575 
C 57.692621 101.310287 50.24409 124.035766 49.239803 147.485562 
C 48.235516 170.935358 53.713803 194.214455 65.07045 214.755344 
L 176.856582 152.951021 
z
" style="fill: #c5b0d5"/>
   </g>
   <g id="patch_12">
    <path d="M 65.138632 215.039612 
C 65.314985 215.358583 65.492702 215.676798 65.671779 215.994247 
C 65.850856 216.311697 66.03129 216.628379 66.213078 216.944284 
L 176.924764 153.23529 
z
" style="fill: #c49c94"/>
   </g>
   <g id="patch_13">
    <path d="M 66.227114 216.967737 
C 67.136084 218.547321 68.078756 220.10727 69.054481 221.646514 
C 70.030207 223.185758 71.038762 224.703944 72.079455 226.200029 
L 176.9388 153.258743 
z
" style="fill: #8c564b"/>
   </g>
   <g id="patch_14">
    <path d="M 72.176699 226.314036 
C 78.011323 234.701807 84.831343 242.359288 92.490403 249.122152 
C 100.149464 255.885016 108.592382 261.704537 117.637975 266.455829 
L 177.036045 153.37275 
z
" style="fill: #e377c2"/>
   </g>
   <g id="patch_15">
    <path d="M 117.754937 266.534252 
C 118.722964 267.042719 119.69748 267.538734 120.678244 268.022176 
C 121.659008 268.505618 122.645939 268.976446 123.638793 269.434545 
L 177.153007 153.451173 
z
" style="fill: #7f7f7f"/>
   </g>
   <g id="patch_16">
    <path d="M 123.799181 269.484089 
C 135.071195 274.684947 147.041421 278.214904 159.331792 279.962473 
C 171.622163 281.710041 184.101909 281.656626 196.376871 279.803914 
L 177.313395 153.500718 
z
" style="fill: #f7b6d2"/>
   </g>
   <g id="patch_17">
    <path d="M 196.653888 279.769352 
C 206.756967 278.244452 216.640684 275.512816 226.092936 271.633066 
C 235.545189 267.753316 244.497874 262.753404 252.75887 256.740627 
L 177.590412 153.466156 
z
" style="fill: #c7c7c7"/>
   </g>
   <g id="patch_18">
    <path d="M 252.905621 256.650222 
C 255.852904 254.505038 258.707007 252.234672 261.46009 249.845358 
C 264.213173 247.456044 266.862714 244.949972 269.401437 242.334025 
L 177.737164 153.375751 
z
" style="fill: #dbdb8d"/>
   </g>
   <g id="patch_19">
    <path d="M 269.509278 242.20538 
C 276.3704 235.135551 282.390629 227.295628 287.449801 218.842092 
C 292.508973 210.388557 296.573203 201.37803 299.561371 191.990361 
L 177.845005 153.247107 
z
" style="fill: #bcbd22"/>
   </g>
   <g id="patch_20">
    <path d="M 299.622756 191.838967 
C 300.617828 188.712831 301.492096 185.549521 302.243612 182.356072 
C 302.995128 179.162623 303.623336 175.941407 304.126838 172.69959 
L 177.90639 153.095712 
z
" style="fill: #17becf"/>
   </g>
   <g id="patch_21">
    <path d="M 304.139411 172.618635 
C 304.642913 169.376818 305.021334 166.116807 305.273834 162.845853 
C 305.526333 159.5749 305.652724 156.295433 305.652723 153.014749 
L 177.918963 153.014757 
z
" style="fill: #9edae5"/>
   </g>
   <g id="patch_22">
    <path d="M 251.899678 152.973794 
C 251.899678 142.087779 249.514029 131.332862 244.911054 121.467876 
C 240.30808 111.60289 233.598645 102.865439 225.256147 95.87201 
L 177.388318 152.973794 
z
" style="fill: #ffffff"/>
   </g>
   <g id="patch_23">
    <path d="M 225.256147 95.87201 
C 222.648181 93.68578 219.893502 91.680783 217.011461 89.871106 
C 214.129421 88.061429 211.126786 86.451319 208.024651 85.05209 
L 177.388318 152.973794 
z
" style="fill: #ffffff"/>
   </g>
   <g id="patch_24">
    <path d="M 208.024651 85.05209 
C 205.892372 84.090318 203.715985 83.229487 201.502724 82.472459 
C 199.289462 81.715431 197.041779 81.063045 194.767144 80.517468 
L 177.388318 152.973794 
z
" style="fill: #ffffff"/>
   </g>
   <g id="patch_25">
    <path d="M 194.767144 80.517468 
C 192.906192 80.071114 191.028735 79.696621 189.13895 79.39482 
C 187.249164 79.09302 185.348453 78.864136 183.441045 78.708679 
L 177.388318 152.973794 
z
" style="fill: #ffffff"/>
   </g>
   <g id="patch_26">
    <path d="M 183.441045 78.708679 
C 180.473445 78.466815 177.494014 78.403044 174.518783 78.517709 
C 171.543552 78.632375 168.577867 78.92527 165.637685 79.39482 
L 177.388318 152.973794 
z
" style="fill: #ffffff"/>
   </g>
   <g id="patch_27">
    <path d="M 165.637685 79.39482 
C 158.064555 80.604256 150.723343 82.975673 143.873813 86.42516 
C 137.024282 89.874647 130.748187 94.361031 125.267603 99.725566 
L 177.388318 152.973794 
z
" style="fill: #ffffff"/>
   </g>
   <g id="patch_28">
    <path d="M 125.267603 99.725566 
C 124.659834 100.320465 124.062295 100.925726 123.475249 101.541083 
C 122.888202 102.15644 122.311734 102.781803 121.746098 103.416897 
L 177.388318 152.973794 
z
" style="fill: #ffffff"/>
   </g>
   <g id="patch_29">
    <path d="M 121.746098 103.416897 
C 120.897618 104.369566 120.073744 105.343868 119.275291 106.338841 
C 118.476838 107.333814 117.70407 108.349128 116.957751 109.38378 
L 177.388318 152.973794 
z
" style="fill: #ffffff"/>
   </g>
   <g id="patch_30">
    <path d="M 116.957751 109.38378 
C 116.70899 109.728648 116.463186 110.075638 116.220365 110.424713 
C 115.977544 110.773789 115.737717 111.124936 115.500908 111.478117 
L 177.388318 152.973794 
z
" style="fill: #ffffff"/>
   </g>
   <g id="patch_31">
    <path d="M 115.500908 111.478117 
C 107.876008 122.850032 103.531031 136.106562 102.945197 149.785609 
C 102.359363 163.464657 105.55503 177.04413 112.179741 189.026315 
L 177.388318 152.973794 
z
" style="fill: #ffffff"/>
   </g>
   <g id="patch_32">
    <path d="M 112.179741 189.026315 
C 112.282614 189.212382 112.386282 189.398007 112.490743 189.583186 
C 112.595205 189.768365 112.700458 189.953096 112.806501 190.137374 
L 177.388318 152.973794 
z
" style="fill: #ffffff"/>
   </g>
   <g id="patch_33">
    <path d="M 112.806501 190.137374 
C 113.336734 191.058798 113.886626 191.968768 114.455799 192.86666 
C 115.024972 193.764553 115.613296 194.650161 116.220367 195.522877 
L 177.388318 152.973794 
z
" style="fill: #ffffff"/>
   </g>
   <g id="patch_34">
    <path d="M 116.220367 195.522877 
C 119.623897 200.415744 123.602242 204.882608 128.070027 208.827612 
C 132.537813 212.772616 137.462848 216.167336 142.739444 218.938924 
L 177.388318 152.973794 
z
" style="fill: #ffffff"/>
   </g>
   <g id="patch_35">
    <path d="M 142.739444 218.938924 
C 143.304127 219.235529 143.872594 219.524871 144.444706 219.806879 
C 145.016819 220.088887 145.592529 220.363536 146.171694 220.630761 
L 177.388318 152.973794 
z
" style="fill: #ffffff"/>
   </g>
   <g id="patch_36">
    <path d="M 146.171694 220.630761 
C 152.747035 223.664594 159.729667 225.723736 166.89905 226.743151 
C 174.068433 227.762566 181.348285 227.731407 188.508679 226.650658 
L 177.388318 152.973794 
z
" style="fill: #ffffff"/>
   </g>
   <g id="patch_37">
    <path d="M 188.508679 226.650658 
C 194.402142 225.761133 200.167644 224.167679 205.681457 221.904491 
C 211.195271 219.641304 216.417671 216.724689 221.236585 213.217236 
L 177.388318 152.973794 
z
" style="fill: #ffffff"/>
   </g>
   <g id="patch_38">
    <path d="M 221.236585 213.217236 
C 222.955833 211.965878 224.620727 210.641498 226.226692 209.247731 
C 227.832657 207.853965 229.378223 206.39209 230.859144 204.866121 
L 177.388318 152.973794 
z
" style="fill: #ffffff"/>
   </g>
   <g id="patch_39">
    <path d="M 230.859144 204.866121 
C 234.861465 200.742054 238.373265 196.168765 241.324449 191.237536 
C 244.275633 186.306307 246.646434 181.050166 248.389531 175.574026 
L 177.388318 152.973794 
z
" style="fill: #ffffff"/>
   </g>
   <g id="patch_40">
    <path d="M 248.389531 175.574026 
C 248.969991 173.750447 249.47998 171.905182 249.918364 170.042337 
C 250.356749 168.179492 250.723203 166.30045 251.016913 164.40939 
L 177.388318 152.973794 
z
" style="fill: #ffffff"/>
   </g>
   <g id="patch_41">
    <path d="M 251.016913 164.40939 
C 251.310622 162.51833 251.531368 160.616656 251.678659 158.7086 
C 251.825951 156.800544 251.899678 154.887522 251.899678 152.973789 
L 177.388318 152.973794 
z
" style="fill: #ffffff"/>
   </g>
   <g id="matplotlib.axis_1"/>
   <g id="matplotlib.axis_2"/>
   <g id="text_1">
    <!-- A [51] -->
    <g transform="translate(305.199211 96.096967) scale(0.1 -0.1)">
     <defs>
      <path id="DejaVuSans-41" d="M 2188 4044 
L 1331 1722 
L 3047 1722 
L 2188 4044 
z
M 1831 4666 
L 2547 4666 
L 4325 0 
L 3669 0 
L 3244 1197 
L 1141 1197 
L 716 0 
L 50 0 
L 1831 4666 
z
" transform="scale(0.015625)"/>
      <path id="DejaVuSans-20" transform="scale(0.015625)"/>
      <path id="DejaVuSans-5b" d="M 550 4863 
L 1875 4863 
L 1875 4416 
L 1125 4416 
L 1125 -397 
L 1875 -397 
L 1875 -844 
L 550 -844 
L 550 4863 
z
" transform="scale(0.015625)"/>
      <path id="DejaVuSans-35" d="M 691 4666 
L 3169 4666 
L 3169 4134 
L 1269 4134 
L 1269 2991 
Q 1406 3038 1543 3061 
Q 1681 3084 1819 3084 
Q 2600 3084 3056 2656 
Q 3513 2228 3513 1497 
Q 3513 744 3044 326 
Q 2575 -91 1722 -91 
Q 1428 -91 1123 -41 
Q 819 9 494 109 
L 494 744 
Q 775 591 1075 516 
Q 1375 441 1709 441 
Q 2250 441 2565 725 
Q 2881 1009 2881 1497 
Q 2881 1984 2565 2268 
Q 2250 2553 1709 2553 
Q 1456 2553 1204 2497 
Q 953 2441 691 2322 
L 691 4666 
z
" transform="scale(0.015625)"/>
      <path id="DejaVuSans-31" d="M 794 531 
L 1825 531 
L 1825 4091 
L 703 3866 
L 703 4441 
L 1819 4666 
L 2450 4666 
L 2450 531 
L 3481 531 
L 3481 0 
L 794 0 
L 794 531 
z
" transform="scale(0.015625)"/>
      <path id="DejaVuSans-5d" d="M 1947 4863 
L 1947 -844 
L 622 -844 
L 622 -397 
L 1369 -397 
L 1369 4416 
L 622 4416 
L 622 4863 
L 1947 4863 
z
" transform="scale(0.015625)"/>
     </defs>
     <use xlink:href="#DejaVuSans-41"/>
     <use xlink:href="#DejaVuSans-20" x="68.408203"/>
     <use xlink:href="#DejaVuSans-5b" x="100.195312"/>
     <use xlink:href="#DejaVuSans-35" x="139.208984"/>
     <use xlink:href="#DejaVuSans-31" x="202.832031"/>
     <use xlink:href="#DejaVuSans-5d" x="266.455078"/>
    </g>
   </g>
   <g id="text_2">
    <!-- C [16] -->
    <g transform="translate(252.389268 36.288795) scale(0.1 -0.1)">
     <defs>
      <path id="DejaVuSans-43" d="M 4122 4306 
L 4122 3641 
Q 3803 3938 3442 4084 
Q 3081 4231 2675 4231 
Q 1875 4231 1450 3742 
Q 1025 3253 1025 2328 
Q 1025 1406 1450 917 
Q 1875 428 2675 428 
Q 3081 428 3442 575 
Q 3803 722 4122 1019 
L 4122 359 
Q 3791 134 3420 21 
Q 3050 -91 2638 -91 
Q 1578 -91 968 557 
Q 359 1206 359 2328 
Q 359 3453 968 4101 
Q 1578 4750 2638 4750 
Q 3056 4750 3426 4639 
Q 3797 4528 4122 4306 
z
" transform="scale(0.015625)"/>
      <path id="DejaVuSans-36" d="M 2113 2584 
Q 1688 2584 1439 2293 
Q 1191 2003 1191 1497 
Q 1191 994 1439 701 
Q 1688 409 2113 409 
Q 2538 409 2786 701 
Q 3034 994 3034 1497 
Q 3034 2003 2786 2293 
Q 2538 2584 2113 2584 
z
M 3366 4563 
L 3366 3988 
Q 3128 4100 2886 4159 
Q 2644 4219 2406 4219 
Q 1781 4219 1451 3797 
Q 1122 3375 1075 2522 
Q 1259 2794 1537 2939 
Q 1816 3084 2150 3084 
Q 2853 3084 3261 2657 
Q 3669 2231 3669 1497 
Q 3669 778 3244 343 
Q 2819 -91 2113 -91 
Q 1303 -91 875 529 
Q 447 1150 447 2328 
Q 447 3434 972 4092 
Q 1497 4750 2381 4750 
Q 2619 4750 2861 4703 
Q 3103 4656 3366 4563 
z
" transform="scale(0.015625)"/>
     </defs>
     <use xlink:href="#DejaVuSans-43"/>
     <use xlink:href="#DejaVuSans-20" x="69.824219"/>
     <use xlink:href="#DejaVuSans-5b" x="101.611328"/>
     <use xlink:href="#DejaVuSans-31" x="140.625"/>
     <use xlink:href="#DejaVuSans-36" x="204.248047"/>
     <use xlink:href="#DejaVuSans-5d" x="267.871094"/>
    </g>
   </g>
   <g id="text_3">
    <!-- D [11] -->
    <g transform="translate(223.033443 22.284214) scale(0.1 -0.1)">
     <defs>
      <path id="DejaVuSans-44" d="M 1259 4147 
L 1259 519 
L 2022 519 
Q 2988 519 3436 956 
Q 3884 1394 3884 2338 
Q 3884 3275 3436 3711 
Q 2988 4147 2022 4147 
L 1259 4147 
z
M 628 4666 
L 1925 4666 
Q 3281 4666 3915 4102 
Q 4550 3538 4550 2338 
Q 4550 1131 3912 565 
Q 3275 0 1925 0 
L 628 0 
L 628 4666 
z
" transform="scale(0.015625)"/>
     </defs>
     <use xlink:href="#DejaVuSans-44"/>
     <use xlink:href="#DejaVuSans-20" x="77.001953"/>
     <use xlink:href="#DejaVuSans-5b" x="108.789062"/>
     <use xlink:href="#DejaVuSans-31" x="147.802734"/>
     <use xlink:href="#DejaVuSans-31" x="211.425781"/>
     <use xlink:href="#DejaVuSans-5d" x="275.048828"/>
    </g>
   </g>
   <g id="text_4">
    <!-- E [9] -->
    <g transform="translate(199.630585 16.458682) scale(0.1 -0.1)">
     <defs>
      <path id="DejaVuSans-45" d="M 628 4666 
L 3578 4666 
L 3578 4134 
L 1259 4134 
L 1259 2753 
L 3481 2753 
L 3481 2222 
L 1259 2222 
L 1259 531 
L 3634 531 
L 3634 0 
L 628 0 
L 628 4666 
z
" transform="scale(0.015625)"/>
      <path id="DejaVuSans-39" d="M 703 97 
L 703 672 
Q 941 559 1184 500 
Q 1428 441 1663 441 
Q 2288 441 2617 861 
Q 2947 1281 2994 2138 
Q 2813 1869 2534 1725 
Q 2256 1581 1919 1581 
Q 1219 1581 811 2004 
Q 403 2428 403 3163 
Q 403 3881 828 4315 
Q 1253 4750 1959 4750 
Q 2769 4750 3195 4129 
Q 3622 3509 3622 2328 
Q 3622 1225 3098 567 
Q 2575 -91 1691 -91 
Q 1453 -91 1209 -44 
Q 966 3 703 97 
z
M 1959 2075 
Q 2384 2075 2632 2365 
Q 2881 2656 2881 3163 
Q 2881 3666 2632 3958 
Q 2384 4250 1959 4250 
Q 1534 4250 1286 3958 
Q 1038 3666 1038 3163 
Q 1038 2656 1286 2365 
Q 1534 2075 1959 2075 
z
" transform="scale(0.015625)"/>
     </defs>
     <use xlink:href="#DejaVuSans-45"/>
     <use xlink:href="#DejaVuSans-20" x="63.183594"/>
     <use xlink:href="#DejaVuSans-5b" x="94.970703"/>
     <use xlink:href="#DejaVuSans-39" x="133.984375"/>
     <use xlink:href="#DejaVuSans-5d" x="197.607422"/>
    </g>
   </g>
   <g id="text_5">
    <!-- F [14] -->
    <g transform="translate(142.498886 14.798437) scale(0.1 -0.1)">
     <defs>
      <path id="DejaVuSans-46" d="M 628 4666 
L 3309 4666 
L 3309 4134 
L 1259 4134 
L 1259 2759 
L 3109 2759 
L 3109 2228 
L 1259 2228 
L 1259 0 
L 628 0 
L 628 4666 
z
" transform="scale(0.015625)"/>
      <path id="DejaVuSans-34" d="M 2419 4116 
L 825 1625 
L 2419 1625 
L 2419 4116 
z
M 2253 4666 
L 3047 4666 
L 3047 1625 
L 3713 1625 
L 3713 1100 
L 3047 1100 
L 3047 0 
L 2419 0 
L 2419 1100 
L 313 1100 
L 313 1709 
L 2253 4666 
z
" transform="scale(0.015625)"/>
     </defs>
     <use xlink:href="#DejaVuSans-46"/>
     <use xlink:href="#DejaVuSans-20" x="57.519531"/>
     <use xlink:href="#DejaVuSans-5b" x="89.306641"/>
     <use xlink:href="#DejaVuSans-31" x="128.320312"/>
     <use xlink:href="#DejaVuSans-34" x="191.943359"/>
     <use xlink:href="#DejaVuSans-5d" x="255.566406"/>
    </g>
   </g>
   <g id="text_6">
    <!-- G [36] -->
    <g transform="translate(82.495459 29.766112) scale(0.1 -0.1)">
     <defs>
      <path id="DejaVuSans-47" d="M 3809 666 
L 3809 1919 
L 2778 1919 
L 2778 2438 
L 4434 2438 
L 4434 434 
Q 4069 175 3628 42 
Q 3188 -91 2688 -91 
Q 1594 -91 976 548 
Q 359 1188 359 2328 
Q 359 3472 976 4111 
Q 1594 4750 2688 4750 
Q 3144 4750 3555 4637 
Q 3966 4525 4313 4306 
L 4313 3634 
Q 3963 3931 3569 4081 
Q 3175 4231 2741 4231 
Q 1884 4231 1454 3753 
Q 1025 3275 1025 2328 
Q 1025 1384 1454 906 
Q 1884 428 2741 428 
Q 3075 428 3337 486 
Q 3600 544 3809 666 
z
" transform="scale(0.015625)"/>
      <path id="DejaVuSans-33" d="M 2597 2516 
Q 3050 2419 3304 2112 
Q 3559 1806 3559 1356 
Q 3559 666 3084 287 
Q 2609 -91 1734 -91 
Q 1441 -91 1130 -33 
Q 819 25 488 141 
L 488 750 
Q 750 597 1062 519 
Q 1375 441 1716 441 
Q 2309 441 2620 675 
Q 2931 909 2931 1356 
Q 2931 1769 2642 2001 
Q 2353 2234 1838 2234 
L 1294 2234 
L 1294 2753 
L 1863 2753 
Q 2328 2753 2575 2939 
Q 2822 3125 2822 3475 
Q 2822 3834 2567 4026 
Q 2313 4219 1838 4219 
Q 1578 4219 1281 4162 
Q 984 4106 628 3988 
L 628 4550 
Q 988 4650 1302 4700 
Q 1616 4750 1894 4750 
Q 2613 4750 3031 4423 
Q 3450 4097 3450 3541 
Q 3450 3153 3228 2886 
Q 3006 2619 2597 2516 
z
" transform="scale(0.015625)"/>
     </defs>
     <use xlink:href="#DejaVuSans-47"/>
     <use xlink:href="#DejaVuSans-20" x="77.490234"/>
     <use xlink:href="#DejaVuSans-5b" x="109.277344"/>
     <use xlink:href="#DejaVuSans-33" x="148.291016"/>
     <use xlink:href="#DejaVuSans-36" x="211.914062"/>
     <use xlink:href="#DejaVuSans-5d" x="275.537109"/>
    </g>
   </g>
   <g id="text_7">
    <!-- H [4] -->
    <g transform="translate(50.474517 58.378395) scale(0.1 -0.1)">
     <defs>
      <path id="DejaVuSans-48" d="M 628 4666 
L 1259 4666 
L 1259 2753 
L 3553 2753 
L 3553 4666 
L 4184 4666 
L 4184 0 
L 3553 0 
L 3553 2222 
L 1259 2222 
L 1259 0 
L 628 0 
L 628 4666 
z
" transform="scale(0.015625)"/>
     </defs>
     <use xlink:href="#DejaVuSans-48"/>
     <use xlink:href="#DejaVuSans-20" x="75.195312"/>
     <use xlink:href="#DejaVuSans-5b" x="106.982422"/>
     <use xlink:href="#DejaVuSans-34" x="145.996094"/>
     <use xlink:href="#DejaVuSans-5d" x="209.619141"/>
    </g>
   </g>
   <g id="text_8">
    <!-- I [6] -->
    <g transform="translate(47.094909 67.459865) scale(0.1 -0.1)">
     <defs>
      <path id="DejaVuSans-49" d="M 628 4666 
L 1259 4666 
L 1259 0 
L 628 0 
L 628 4666 
z
" transform="scale(0.015625)"/>
     </defs>
     <use xlink:href="#DejaVuSans-49"/>
     <use xlink:href="#DejaVuSans-20" x="29.492188"/>
     <use xlink:href="#DejaVuSans-5b" x="61.279297"/>
     <use xlink:href="#DejaVuSans-36" x="100.292969"/>
     <use xlink:href="#DejaVuSans-5d" x="163.916016"/>
    </g>
   </g>
   <g id="text_9">
    <!-- K [2] -->
    <g transform="translate(37.704559 75.193838) scale(0.1 -0.1)">
     <defs>
      <path id="DejaVuSans-4b" d="M 628 4666 
L 1259 4666 
L 1259 2694 
L 3353 4666 
L 4166 4666 
L 1850 2491 
L 4331 0 
L 3500 0 
L 1259 2247 
L 1259 0 
L 628 0 
L 628 4666 
z
" transform="scale(0.015625)"/>
      <path id="DejaVuSans-32" d="M 1228 531 
L 3431 531 
L 3431 0 
L 469 0 
L 469 531 
Q 828 903 1448 1529 
Q 2069 2156 2228 2338 
Q 2531 2678 2651 2914 
Q 2772 3150 2772 3378 
Q 2772 3750 2511 3984 
Q 2250 4219 1831 4219 
Q 1534 4219 1204 4116 
Q 875 4013 500 3803 
L 500 4441 
Q 881 4594 1212 4672 
Q 1544 4750 1819 4750 
Q 2544 4750 2975 4387 
Q 3406 4025 3406 3419 
Q 3406 3131 3298 2873 
Q 3191 2616 2906 2266 
Q 2828 2175 2409 1742 
Q 1991 1309 1228 531 
z
" transform="scale(0.015625)"/>
     </defs>
     <use xlink:href="#DejaVuSans-4b"/>
     <use xlink:href="#DejaVuSans-20" x="65.576172"/>
     <use xlink:href="#DejaVuSans-5b" x="97.363281"/>
     <use xlink:href="#DejaVuSans-32" x="136.376953"/>
     <use xlink:href="#DejaVuSans-5d" x="200"/>
    </g>
   </g>
   <g id="text_10">
    <!-- L [64] -->
    <g transform="translate(7.2 149.698391) scale(0.1 -0.1)">
     <defs>
      <path id="DejaVuSans-4c" d="M 628 4666 
L 1259 4666 
L 1259 531 
L 3531 531 
L 3531 0 
L 628 0 
L 628 4666 
z
" transform="scale(0.015625)"/>
     </defs>
     <use xlink:href="#DejaVuSans-4c"/>
     <use xlink:href="#DejaVuSans-20" x="55.712891"/>
     <use xlink:href="#DejaVuSans-5b" x="87.5"/>
     <use xlink:href="#DejaVuSans-36" x="126.513672"/>
     <use xlink:href="#DejaVuSans-34" x="190.136719"/>
     <use xlink:href="#DejaVuSans-5d" x="253.759766"/>
    </g>
   </g>
   <g id="text_11">
    <!-- M [1] -->
    <g transform="translate(28.574605 225.029518) scale(0.1 -0.1)">
     <defs>
      <path id="DejaVuSans-4d" d="M 628 4666 
L 1569 4666 
L 2759 1491 
L 3956 4666 
L 4897 4666 
L 4897 0 
L 4281 0 
L 4281 4097 
L 3078 897 
L 2444 897 
L 1241 4097 
L 1241 0 
L 628 0 
L 628 4666 
z
" transform="scale(0.015625)"/>
     </defs>
     <use xlink:href="#DejaVuSans-4d"/>
     <use xlink:href="#DejaVuSans-20" x="86.279297"/>
     <use xlink:href="#DejaVuSans-5b" x="118.066406"/>
     <use xlink:href="#DejaVuSans-31" x="157.080078"/>
     <use xlink:href="#DejaVuSans-5d" x="220.703125"/>
    </g>
   </g>
   <g id="text_12">
    <!-- N [5] -->
    <g transform="translate(33.441049 231.244666) scale(0.1 -0.1)">
     <defs>
      <path id="DejaVuSans-4e" d="M 628 4666 
L 1478 4666 
L 3547 763 
L 3547 4666 
L 4159 4666 
L 4159 0 
L 3309 0 
L 1241 3903 
L 1241 0 
L 628 0 
L 628 4666 
z
" transform="scale(0.015625)"/>
     </defs>
     <use xlink:href="#DejaVuSans-4e"/>
     <use xlink:href="#DejaVuSans-20" x="74.804688"/>
     <use xlink:href="#DejaVuSans-5b" x="106.591797"/>
     <use xlink:href="#DejaVuSans-35" x="145.605469"/>
     <use xlink:href="#DejaVuSans-5d" x="209.228516"/>
    </g>
   </g>
   <g id="text_13">
    <!-- P [28] -->
    <g transform="translate(54.299902 261.456467) scale(0.1 -0.1)">
     <defs>
      <path id="DejaVuSans-50" d="M 1259 4147 
L 1259 2394 
L 2053 2394 
Q 2494 2394 2734 2622 
Q 2975 2850 2975 3272 
Q 2975 3691 2734 3919 
Q 2494 4147 2053 4147 
L 1259 4147 
z
M 628 4666 
L 2053 4666 
Q 2838 4666 3239 4311 
Q 3641 3956 3641 3272 
Q 3641 2581 3239 2228 
Q 2838 1875 2053 1875 
L 1259 1875 
L 1259 0 
L 628 0 
L 628 4666 
z
" transform="scale(0.015625)"/>
      <path id="DejaVuSans-38" d="M 2034 2216 
Q 1584 2216 1326 1975 
Q 1069 1734 1069 1313 
Q 1069 891 1326 650 
Q 1584 409 2034 409 
Q 2484 409 2743 651 
Q 3003 894 3003 1313 
Q 3003 1734 2745 1975 
Q 2488 2216 2034 2216 
z
M 1403 2484 
Q 997 2584 770 2862 
Q 544 3141 544 3541 
Q 544 4100 942 4425 
Q 1341 4750 2034 4750 
Q 2731 4750 3128 4425 
Q 3525 4100 3525 3541 
Q 3525 3141 3298 2862 
Q 3072 2584 2669 2484 
Q 3125 2378 3379 2068 
Q 3634 1759 3634 1313 
Q 3634 634 3220 271 
Q 2806 -91 2034 -91 
Q 1263 -91 848 271 
Q 434 634 434 1313 
Q 434 1759 690 2068 
Q 947 2378 1403 2484 
z
M 1172 3481 
Q 1172 3119 1398 2916 
Q 1625 2713 2034 2713 
Q 2441 2713 2670 2916 
Q 2900 3119 2900 3481 
Q 2900 3844 2670 4047 
Q 2441 4250 2034 4250 
Q 1625 4250 1398 4047 
Q 1172 3844 1172 3481 
z
" transform="scale(0.015625)"/>
     </defs>
     <use xlink:href="#DejaVuSans-50"/>
     <use xlink:href="#DejaVuSans-20" x="60.302734"/>
     <use xlink:href="#DejaVuSans-5b" x="92.089844"/>
     <use xlink:href="#DejaVuSans-32" x="131.103516"/>
     <use xlink:href="#DejaVuSans-38" x="194.726562"/>
     <use xlink:href="#DejaVuSans-5d" x="258.349609"/>
    </g>
   </g>
   <g id="text_14">
    <!-- Q [3] -->
    <g transform="translate(89.815143 282.238651) scale(0.1 -0.1)">
     <defs>
      <path id="DejaVuSans-51" d="M 2522 4238 
Q 1834 4238 1429 3725 
Q 1025 3213 1025 2328 
Q 1025 1447 1429 934 
Q 1834 422 2522 422 
Q 3209 422 3611 934 
Q 4013 1447 4013 2328 
Q 4013 3213 3611 3725 
Q 3209 4238 2522 4238 
z
M 3406 84 
L 4238 -825 
L 3475 -825 
L 2784 -78 
Q 2681 -84 2626 -87 
Q 2572 -91 2522 -91 
Q 1538 -91 948 567 
Q 359 1225 359 2328 
Q 359 3434 948 4092 
Q 1538 4750 2522 4750 
Q 3503 4750 4090 4092 
Q 4678 3434 4678 2328 
Q 4678 1516 4351 937 
Q 4025 359 3406 84 
z
" transform="scale(0.015625)"/>
     </defs>
     <use xlink:href="#DejaVuSans-51"/>
     <use xlink:href="#DejaVuSans-20" x="78.710938"/>
     <use xlink:href="#DejaVuSans-5b" x="110.498047"/>
     <use xlink:href="#DejaVuSans-33" x="149.511719"/>
     <use xlink:href="#DejaVuSans-5d" x="213.134766"/>
    </g>
   </g>
   <g id="text_15">
    <!-- R [34] -->
    <g transform="translate(126.878945 295.368023) scale(0.1 -0.1)">
     <defs>
      <path id="DejaVuSans-52" d="M 2841 2188 
Q 3044 2119 3236 1894 
Q 3428 1669 3622 1275 
L 4263 0 
L 3584 0 
L 2988 1197 
Q 2756 1666 2539 1819 
Q 2322 1972 1947 1972 
L 1259 1972 
L 1259 0 
L 628 0 
L 628 4666 
L 2053 4666 
Q 2853 4666 3247 4331 
Q 3641 3997 3641 3322 
Q 3641 2881 3436 2590 
Q 3231 2300 2841 2188 
z
M 1259 4147 
L 1259 2491 
L 2053 2491 
Q 2509 2491 2742 2702 
Q 2975 2913 2975 3322 
Q 2975 3731 2742 3939 
Q 2509 4147 2053 4147 
L 1259 4147 
z
" transform="scale(0.015625)"/>
     </defs>
     <use xlink:href="#DejaVuSans-52"/>
     <use xlink:href="#DejaVuSans-20" x="69.482422"/>
     <use xlink:href="#DejaVuSans-5b" x="101.269531"/>
     <use xlink:href="#DejaVuSans-33" x="140.283203"/>
     <use xlink:href="#DejaVuSans-34" x="203.90625"/>
     <use xlink:href="#DejaVuSans-5d" x="267.529297"/>
    </g>
   </g>
   <g id="text_16">
    <!-- S [28] -->
    <g transform="translate(230.943189 286.209132) scale(0.1 -0.1)">
     <defs>
      <path id="DejaVuSans-53" d="M 3425 4513 
L 3425 3897 
Q 3066 4069 2747 4153 
Q 2428 4238 2131 4238 
Q 1616 4238 1336 4038 
Q 1056 3838 1056 3469 
Q 1056 3159 1242 3001 
Q 1428 2844 1947 2747 
L 2328 2669 
Q 3034 2534 3370 2195 
Q 3706 1856 3706 1288 
Q 3706 609 3251 259 
Q 2797 -91 1919 -91 
Q 1588 -91 1214 -16 
Q 841 59 441 206 
L 441 856 
Q 825 641 1194 531 
Q 1563 422 1919 422 
Q 2459 422 2753 634 
Q 3047 847 3047 1241 
Q 3047 1584 2836 1778 
Q 2625 1972 2144 2069 
L 1759 2144 
Q 1053 2284 737 2584 
Q 422 2884 422 3419 
Q 422 4038 858 4394 
Q 1294 4750 2059 4750 
Q 2388 4750 2728 4690 
Q 3069 4631 3425 4513 
z
" transform="scale(0.015625)"/>
     </defs>
     <use xlink:href="#DejaVuSans-53"/>
     <use xlink:href="#DejaVuSans-20" x="63.476562"/>
     <use xlink:href="#DejaVuSans-5b" x="95.263672"/>
     <use xlink:href="#DejaVuSans-32" x="134.277344"/>
     <use xlink:href="#DejaVuSans-38" x="197.900391"/>
     <use xlink:href="#DejaVuSans-5d" x="261.523438"/>
    </g>
   </g>
   <g id="text_17">
    <!-- T [10] -->
    <g transform="translate(269.832383 262.251693) scale(0.1 -0.1)">
     <defs>
      <path id="DejaVuSans-54" d="M -19 4666 
L 3928 4666 
L 3928 4134 
L 2272 4134 
L 2272 0 
L 1638 0 
L 1638 4134 
L -19 4134 
L -19 4666 
z
" transform="scale(0.015625)"/>
      <path id="DejaVuSans-30" d="M 2034 4250 
Q 1547 4250 1301 3770 
Q 1056 3291 1056 2328 
Q 1056 1369 1301 889 
Q 1547 409 2034 409 
Q 2525 409 2770 889 
Q 3016 1369 3016 2328 
Q 3016 3291 2770 3770 
Q 2525 4250 2034 4250 
z
M 2034 4750 
Q 2819 4750 3233 4129 
Q 3647 3509 3647 2328 
Q 3647 1150 3233 529 
Q 2819 -91 2034 -91 
Q 1250 -91 836 529 
Q 422 1150 422 2328 
Q 422 3509 836 4129 
Q 1250 4750 2034 4750 
z
" transform="scale(0.015625)"/>
     </defs>
     <use xlink:href="#DejaVuSans-54"/>
     <use xlink:href="#DejaVuSans-20" x="61.083984"/>
     <use xlink:href="#DejaVuSans-5b" x="92.871094"/>
     <use xlink:href="#DejaVuSans-31" x="131.884766"/>
     <use xlink:href="#DejaVuSans-30" x="195.507812"/>
     <use xlink:href="#DejaVuSans-5d" x="259.130859"/>
    </g>
   </g>
   <g id="text_18">
    <!-- V [27] -->
    <g transform="translate(298.41028 228.160966) scale(0.1 -0.1)">
     <defs>
      <path id="DejaVuSans-56" d="M 1831 0 
L 50 4666 
L 709 4666 
L 2188 738 
L 3669 4666 
L 4325 4666 
L 2547 0 
L 1831 0 
z
" transform="scale(0.015625)"/>
      <path id="DejaVuSans-37" d="M 525 4666 
L 3525 4666 
L 3525 4397 
L 1831 0 
L 1172 0 
L 2766 4134 
L 525 4134 
L 525 4666 
z
" transform="scale(0.015625)"/>
     </defs>
     <use xlink:href="#DejaVuSans-56"/>
     <use xlink:href="#DejaVuSans-20" x="68.408203"/>
     <use xlink:href="#DejaVuSans-5b" x="100.195312"/>
     <use xlink:href="#DejaVuSans-32" x="139.208984"/>
     <use xlink:href="#DejaVuSans-37" x="202.832031"/>
     <use xlink:href="#DejaVuSans-5d" x="266.455078"/>
    </g>
   </g>
   <g id="text_19">
    <!-- W [9] -->
    <g transform="translate(314.677334 188.041483) scale(0.1 -0.1)">
     <defs>
      <path id="DejaVuSans-57" d="M 213 4666 
L 850 4666 
L 1831 722 
L 2809 4666 
L 3519 4666 
L 4500 722 
L 5478 4666 
L 6119 4666 
L 4947 0 
L 4153 0 
L 3169 4050 
L 2175 0 
L 1381 0 
L 213 4666 
z
" transform="scale(0.015625)"/>
     </defs>
     <use xlink:href="#DejaVuSans-57"/>
     <use xlink:href="#DejaVuSans-20" x="98.876953"/>
     <use xlink:href="#DejaVuSans-5b" x="130.664062"/>
     <use xlink:href="#DejaVuSans-39" x="169.677734"/>
     <use xlink:href="#DejaVuSans-5d" x="233.300781"/>
    </g>
   </g>
   <g id="text_20">
    <!-- Y [9] -->
    <g transform="translate(318.009321 166.588338) scale(0.1 -0.1)">
     <defs>
      <path id="DejaVuSans-59" d="M -13 4666 
L 666 4666 
L 1959 2747 
L 3244 4666 
L 3922 4666 
L 2272 2222 
L 2272 0 
L 1638 0 
L 1638 2222 
L -13 4666 
z
" transform="scale(0.015625)"/>
     </defs>
     <use xlink:href="#DejaVuSans-59"/>
     <use xlink:href="#DejaVuSans-20" x="61.083984"/>
     <use xlink:href="#DejaVuSans-5b" x="92.871094"/>
     <use xlink:href="#DejaVuSans-39" x="131.884766"/>
     <use xlink:href="#DejaVuSans-5d" x="195.507812"/>
    </g>
   </g>
   <g id="text_21">
    <!-- A0A8C8XQF4 [367] -->
    <g transform="translate(119.394568 152.973794) scale(0.12 -0.12)">
     <defs>
      <path id="DejaVuSans-58" d="M 403 4666 
L 1081 4666 
L 2241 2931 
L 3406 4666 
L 4084 4666 
L 2584 2425 
L 4184 0 
L 3506 0 
L 2194 1984 
L 872 0 
L 191 0 
L 1856 2491 
L 403 4666 
z
" transform="scale(0.015625)"/>
     </defs>
     <use xlink:href="#DejaVuSans-41"/>
     <use xlink:href="#DejaVuSans-30" x="68.408203"/>
     <use xlink:href="#DejaVuSans-41" x="132.03125"/>
     <use xlink:href="#DejaVuSans-38" x="200.439453"/>
     <use xlink:href="#DejaVuSans-43" x="264.0625"/>
     <use xlink:href="#DejaVuSans-38" x="333.886719"/>
     <use xlink:href="#DejaVuSans-58" x="397.509766"/>
     <use xlink:href="#DejaVuSans-51" x="466.015625"/>
     <use xlink:href="#DejaVuSans-46" x="544.726562"/>
     <use xlink:href="#DejaVuSans-34" x="602.246094"/>
     <use xlink:href="#DejaVuSans-20" x="665.869141"/>
     <use xlink:href="#DejaVuSans-5b" x="697.65625"/>
     <use xlink:href="#DejaVuSans-33" x="736.669922"/>
     <use xlink:href="#DejaVuSans-36" x="800.292969"/>
     <use xlink:href="#DejaVuSans-37" x="863.916016"/>
     <use xlink:href="#DejaVuSans-5d" x="927.539062"/>
    </g>
   </g>
  </g>
 </g>
</svg>
