<?xml version="1.0" encoding="utf-8" standalone="no"?>
<!DOCTYPE svg PUBLIC "-//W3C//DTD SVG 1.1//EN"
  "http://www.w3.org/Graphics/SVG/1.1/DTD/svg11.dtd">
<svg xmlns:xlink="http://www.w3.org/1999/xlink" width="347.596112pt" height="304.591439pt" viewBox="0 0 347.596112 304.591439" xmlns="http://www.w3.org/2000/svg" version="1.1">
 <metadata>
  <rdf:RDF xmlns:dc="http://purl.org/dc/elements/1.1/" xmlns:cc="http://creativecommons.org/ns#" xmlns:rdf="http://www.w3.org/1999/02/22-rdf-syntax-ns#">
   <cc:Work>
    <dc:type rdf:resource="http://purl.org/dc/dcmitype/StillImage"/>
    <dc:date>2024-09-27T16:07:21.437815</dc:date>
    <dc:format>image/svg+xml</dc:format>
    <dc:creator>
     <cc:Agent>
      <dc:title>Matplotlib v3.8.3, https://matplotlib.org/</dc:title>
     </cc:Agent>
    </dc:creator>
   </cc:Work>
  </rdf:RDF>
 </metadata>
 <defs>
  <style type="text/css">*{stroke-linejoin: round; stroke-linecap: butt}</style>
 </defs>
 <g id="figure_1">
  <g id="patch_1">
   <path d="M 0 304.591439 
L 347.596112 304.591439 
L 347.596112 0 
L 0 0 
z
" style="fill: #ffffff"/>
  </g>
  <g id="axes_1">
   <g id="patch_2">
    <path d="M 304.079299 152.618802 
C 304.079299 135.477914 300.629037 118.511093 293.934552 102.731553 
C 287.240067 86.952012 277.437325 72.680236 265.111722 60.768498 
L 176.345539 152.618802 
z
" style="fill: #1f77b4"/>
   </g>
   <g id="patch_3">
    <path d="M 264.943356 60.552283 
C 261.28304 57.014871 257.414541 53.699421 253.358561 50.623675 
C 249.302581 47.547928 245.066368 44.717381 240.672593 42.147181 
L 176.177174 152.402587 
z
" style="fill: #ff7f0e"/>
   </g>
   <g id="patch_4">
    <path d="M 240.575473 42.088688 
C 237.123614 40.069475 233.578832 38.213481 229.952842 36.52684 
C 226.326853 34.840199 222.623655 33.324771 218.855489 31.985564 
L 176.080055 152.344094 
z
" style="fill: #aec7e8"/>
   </g>
   <g id="patch_5">
    <path d="M 218.76584 31.953271 
C 215.340343 30.735849 211.864434 29.66522 208.347608 28.744309 
C 204.830781 27.823398 201.276243 27.053044 197.693701 26.435352 
L 175.990407 152.311801 
z
" style="fill: #ffbb78"/>
   </g>
   <g id="patch_6">
    <path d="M 197.590666 26.418942 
C 192.932875 25.615858 188.234097 25.07192 183.516017 24.789638 
C 178.797936 24.507356 174.067823 24.487165 169.347505 24.729159 
L 175.887371 152.295392 
z
" style="fill: #98df8a"/>
   </g>
   <g id="patch_7">
    <path d="M 169.128952 24.762055 
C 156.034993 25.433336 143.122104 28.116665 130.844738 32.717606 
C 118.567371 37.318546 107.071265 43.782484 96.761009 51.881928 
L 175.668818 152.328288 
z
" style="fill: #2ca02c"/>
   </g>
   <g id="patch_8">
    <path d="M 96.608384 51.970336 
C 95.750868 52.643977 94.902013 53.32857 94.062029 54.023949 
C 93.222045 54.719327 92.391 55.425434 91.569099 56.142094 
L 175.516193 152.416696 
z
" style="fill: #d62728"/>
   </g>
   <g id="patch_9">
    <path d="M 91.538632 56.169355 
C 89.894762 57.602735 88.287873 59.077983 86.719547 60.593649 
C 85.151221 62.109314 83.621972 63.664899 82.133303 65.258874 
L 175.485726 152.443956 
z
" style="fill: #9467bd"/>
   </g>
   <g id="patch_10">
    <path d="M 82.108048 65.285006 
C 81.61185 65.816305 81.120196 66.35183 80.63314 66.891523 
C 80.146085 67.431217 79.663645 67.975058 79.185875 68.522988 
L 175.460471 152.470088 
z
" style="fill: #ff9896"/>
   </g>
   <g id="patch_11">
    <path d="M 79.055036 68.798103 
C 63.185191 86.998409 52.797031 109.331172 49.100989 133.194165 
C 45.404948 157.057158 48.550382 181.486083 58.170783 203.63447 
L 175.329632 152.745203 
z
" style="fill: #c5b0d5"/>
   </g>
   <g id="patch_12">
    <path d="M 58.210402 203.932131 
C 58.355215 204.265524 58.501451 204.598297 58.649104 204.930442 
C 58.796758 205.262587 58.945829 205.594099 59.096313 205.924972 
L 175.369251 153.042864 
z
" style="fill: #c49c94"/>
   </g>
   <g id="patch_13">
    <path d="M 59.10802 205.949588 
C 59.860467 207.604008 60.648139 209.242181 61.470498 210.862986 
C 62.292857 212.483792 63.149715 214.086861 64.040488 215.671099 
L 175.380958 153.06748 
z
" style="fill: #8c564b"/>
   </g>
   <g id="patch_14">
    <path d="M 64.135576 215.803397 
C 69.666201 225.639607 76.475967 234.699695 84.38687 242.746835 
C 92.297773 250.793974 101.240278 257.757431 110.980629 263.455184 
L 175.476047 153.199778 
z
" style="fill: #e377c2"/>
   </g>
   <g id="patch_15">
    <path d="M 111.103289 263.5482 
C 112.044545 264.098801 112.992814 264.637326 113.947861 265.163642 
C 114.902909 265.689959 115.864657 266.204024 116.832869 266.705711 
L 175.598707 153.292794 
z
" style="fill: #7f7f7f"/>
   </g>
   <g id="patch_16">
    <path d="M 117.017276 266.766849 
C 129.957874 273.472127 143.951154 277.913394 158.390034 279.897973 
C 172.828914 281.882552 187.501525 281.38132 201.771312 278.416025 
L 175.783114 153.353932 
z
" style="fill: #f7b6d2"/>
   </g>
   <g id="patch_17">
    <path d="M 202.072364 278.369396 
C 212.048917 276.296245 221.741655 273.036735 230.943697 268.660437 
C 240.145739 264.284139 248.791148 258.822411 256.695398 252.391827 
L 176.084167 153.307304 
z
" style="fill: #c7c7c7"/>
   </g>
   <g id="patch_18">
    <path d="M 256.833395 252.297042 
C 259.371342 250.23227 261.829021 248.070749 264.200995 245.817263 
C 266.572969 243.563776 268.857487 241.219988 271.049493 238.791085 
L 176.222164 153.212519 
z
" style="fill: #dbdb8d"/>
   </g>
   <g id="patch_19">
    <path d="M 271.144589 238.670031 
C 277.238517 231.917512 282.593796 224.533356 287.119232 216.643306 
C 291.644668 208.753255 295.314429 200.402349 298.066023 191.732793 
L 176.31726 153.091465 
z
" style="fill: #bcbd22"/>
   </g>
   <g id="patch_20">
    <path d="M 298.122496 191.589587 
C 299.112253 188.471119 299.981831 185.315775 300.729305 182.130536 
C 301.476778 178.945298 302.101596 175.732516 302.602376 172.499301 
L 176.373733 152.948258 
z
" style="fill: #17becf"/>
   </g>
   <g id="patch_21">
    <path d="M 302.614881 172.41856 
C 303.115661 169.185345 303.492033 165.934082 303.743163 162.671967 
C 303.994294 159.409852 304.119999 156.139293 304.119999 152.867525 
L 176.386239 152.867517 
z
" style="fill: #9edae5"/>
   </g>
   <g id="patch_22">
    <path d="M 250.366945 152.826665 
C 250.366945 142.827814 248.354292 132.930502 244.449176 123.72577 
C 240.54406 114.521038 234.825794 106.195836 227.635858 99.247321 
L 175.855585 152.826665 
z
" style="fill: #ffffff"/>
   </g>
   <g id="patch_23">
    <path d="M 227.635858 99.247321 
C 225.500674 97.183832 223.244049 95.249819 220.878061 93.455633 
C 218.512073 91.661448 216.040948 90.010295 213.477913 88.511012 
L 175.855585 152.826665 
z
" style="fill: #ffffff"/>
   </g>
   <g id="patch_24">
    <path d="M 213.477913 88.511012 
C 211.464328 87.333138 209.396538 86.250475 207.281378 85.266601 
C 205.166217 84.282727 203.006019 83.398727 200.807921 82.617523 
L 175.855585 152.826665 
z
" style="fill: #ffffff"/>
   </g>
   <g id="patch_25">
    <path d="M 200.807921 82.617523 
C 198.809715 81.90736 196.782101 81.282827 194.730619 80.745629 
C 192.679137 80.208431 190.605656 79.759057 188.51584 79.398737 
L 175.855585 152.826665 
z
" style="fill: #ffffff"/>
   </g>
   <g id="patch_26">
    <path d="M 188.51584 79.398737 
C 185.798795 78.930271 183.057842 78.612974 180.305628 78.448309 
C 177.553415 78.283645 174.794182 78.271867 172.040663 78.41303 
L 175.855585 152.826665 
z
" style="fill: #ffffff"/>
   </g>
   <g id="patch_27">
    <path d="M 172.040663 78.41303 
C 164.40252 78.80461 156.870002 80.369886 149.708205 83.053768 
C 142.546408 85.73765 135.840346 89.50828 129.82603 94.232956 
L 175.855585 152.826665 
z
" style="fill: #ffffff"/>
   </g>
   <g id="patch_28">
    <path d="M 129.82603 94.232956 
C 129.325812 94.625913 128.830647 95.025259 128.340656 95.430896 
C 127.850666 95.836534 127.365889 96.248429 126.886447 96.666481 
L 175.855585 152.826665 
z
" style="fill: #ffffff"/>
   </g>
   <g id="patch_29">
    <path d="M 126.886447 96.666481 
C 125.927523 97.50262 124.990171 98.363182 124.075314 99.24732 
C 123.160457 100.131458 122.268395 101.038882 121.400005 101.968701 
L 175.855585 152.826665 
z
" style="fill: #ffffff"/>
   </g>
   <g id="patch_30">
    <path d="M 121.400005 101.968701 
C 121.110556 102.278625 120.823758 102.591015 120.539642 102.905836 
C 120.255526 103.220657 119.974103 103.537898 119.695404 103.857524 
L 175.855585 152.826665 
z
" style="fill: #ffffff"/>
   </g>
   <g id="patch_31">
    <path d="M 119.695404 103.857524 
C 110.437994 114.474369 104.378234 127.501814 102.22221 141.421893 
C 100.066186 155.341972 101.901022 169.592179 107.512923 182.512071 
L 175.855585 152.826665 
z
" style="fill: #ffffff"/>
   </g>
   <g id="patch_32">
    <path d="M 107.512923 182.512071 
C 107.597397 182.706551 107.682701 182.900668 107.768833 183.094419 
C 107.854964 183.28817 107.941922 183.481553 108.029705 183.674562 
L 175.855585 152.826665 
z
" style="fill: #ffffff"/>
   </g>
   <g id="patch_33">
    <path d="M 108.029705 183.674562 
C 108.468632 184.63964 108.928108 185.595241 109.407817 186.540711 
C 109.887526 187.486181 110.38736 188.421304 110.906977 189.345443 
L 175.855585 152.826665 
z
" style="fill: #ffffff"/>
   </g>
   <g id="patch_34">
    <path d="M 110.906977 189.345443 
C 114.133175 195.083232 118.105539 200.368284 122.720232 205.062448 
C 127.334926 209.756613 132.551386 213.81863 138.233258 217.142319 
L 175.855585 152.826665 
z
" style="fill: #ffffff"/>
   </g>
   <g id="patch_35">
    <path d="M 138.233258 217.142319 
C 138.782324 217.463503 139.335481 217.777642 139.892592 218.08466 
C 140.449703 218.391678 141.010723 218.69155 141.575513 218.9842 
L 175.855585 152.826665 
z
" style="fill: #ffffff"/>
   </g>
   <g id="patch_36">
    <path d="M 141.575513 218.9842 
C 149.124195 222.895612 157.286942 225.486352 165.709622 226.644022 
C 174.132302 227.801693 182.691325 227.509309 191.015367 225.779553 
L 175.855585 152.826665 
z
" style="fill: #ffffff"/>
   </g>
   <g id="patch_37">
    <path d="M 191.015367 225.779553 
C 196.835023 224.570215 202.48912 222.668834 207.856978 220.115993 
C 213.224836 217.563153 218.267991 214.377145 222.878803 210.625971 
L 175.855585 152.826665 
z
" style="fill: #ffffff"/>
   </g>
   <g id="patch_38">
    <path d="M 222.878803 210.625971 
C 224.359272 209.42152 225.792919 208.160633 227.17657 206.846099 
C 228.560222 205.531566 229.892857 204.164356 231.171527 202.747496 
L 175.855585 152.826665 
z
" style="fill: #ffffff"/>
   </g>
   <g id="patch_39">
    <path d="M 231.171527 202.747496 
C 234.726319 198.808526 237.850231 194.501102 240.490069 189.898573 
C 243.129907 185.296043 245.2706 180.424682 246.875697 175.36744 
L 175.855585 152.826665 
z
" style="fill: #ffffff"/>
   </g>
   <g id="patch_40">
    <path d="M 246.875697 175.36744 
C 247.453055 173.548334 247.960309 171.707717 248.396335 169.849661 
C 248.832361 167.991605 249.196839 166.117483 249.48896 164.23144 
L 175.855585 152.826665 
z
" style="fill: #ffffff"/>
   </g>
   <g id="patch_41">
    <path d="M 249.48896 164.23144 
C 249.781081 162.345398 250.000631 160.448828 250.147124 158.545928 
C 250.293617 156.643028 250.366945 154.735201 250.366945 152.82667 
L 175.855585 152.826665 
z
" style="fill: #ffffff"/>
   </g>
   <g id="matplotlib.axis_1"/>
   <g id="matplotlib.axis_2"/>
   <g id="text_1">
    <!-- A [47] -->
    <g transform="translate(305.693453 100.502203) scale(0.1 -0.1)">
     <defs>
      <path id="DejaVuSans-41" d="M 2188 4044 
L 1331 1722 
L 3047 1722 
L 2188 4044 
z
M 1831 4666 
L 2547 4666 
L 4325 0 
L 3669 0 
L 3244 1197 
L 1141 1197 
L 716 0 
L 50 0 
L 1831 4666 
z
" transform="scale(0.015625)"/>
      <path id="DejaVuSans-20" transform="scale(0.015625)"/>
      <path id="DejaVuSans-5b" d="M 550 4863 
L 1875 4863 
L 1875 4416 
L 1125 4416 
L 1125 -397 
L 1875 -397 
L 1875 -844 
L 550 -844 
L 550 4863 
z
" transform="scale(0.015625)"/>
      <path id="DejaVuSans-34" d="M 2419 4116 
L 825 1625 
L 2419 1625 
L 2419 4116 
z
M 2253 4666 
L 3047 4666 
L 3047 1625 
L 3713 1625 
L 3713 1100 
L 3047 1100 
L 3047 0 
L 2419 0 
L 2419 1100 
L 313 1100 
L 313 1709 
L 2253 4666 
z
" transform="scale(0.015625)"/>
      <path id="DejaVuSans-37" d="M 525 4666 
L 3525 4666 
L 3525 4397 
L 1831 0 
L 1172 0 
L 2766 4134 
L 525 4134 
L 525 4666 
z
" transform="scale(0.015625)"/>
      <path id="DejaVuSans-5d" d="M 1947 4863 
L 1947 -844 
L 622 -844 
L 622 -397 
L 1369 -397 
L 1369 4416 
L 622 4416 
L 622 4863 
L 1947 4863 
z
" transform="scale(0.015625)"/>
     </defs>
     <use xlink:href="#DejaVuSans-41"/>
     <use xlink:href="#DejaVuSans-20" x="68.408203"/>
     <use xlink:href="#DejaVuSans-5b" x="100.195312"/>
     <use xlink:href="#DejaVuSans-34" x="139.208984"/>
     <use xlink:href="#DejaVuSans-37" x="202.832031"/>
     <use xlink:href="#DejaVuSans-5d" x="266.455078"/>
    </g>
   </g>
   <g id="text_2">
    <!-- C [14] -->
    <g transform="translate(261.0767 43.205158) scale(0.1 -0.1)">
     <defs>
      <path id="DejaVuSans-43" d="M 4122 4306 
L 4122 3641 
Q 3803 3938 3442 4084 
Q 3081 4231 2675 4231 
Q 1875 4231 1450 3742 
Q 1025 3253 1025 2328 
Q 1025 1406 1450 917 
Q 1875 428 2675 428 
Q 3081 428 3442 575 
Q 3803 722 4122 1019 
L 4122 359 
Q 3791 134 3420 21 
Q 3050 -91 2638 -91 
Q 1578 -91 968 557 
Q 359 1206 359 2328 
Q 359 3453 968 4101 
Q 1578 4750 2638 4750 
Q 3056 4750 3426 4639 
Q 3797 4528 4122 4306 
z
" transform="scale(0.015625)"/>
      <path id="DejaVuSans-31" d="M 794 531 
L 1825 531 
L 1825 4091 
L 703 3866 
L 703 4441 
L 1819 4666 
L 2450 4666 
L 2450 531 
L 3481 531 
L 3481 0 
L 794 0 
L 794 531 
z
" transform="scale(0.015625)"/>
     </defs>
     <use xlink:href="#DejaVuSans-43"/>
     <use xlink:href="#DejaVuSans-20" x="69.824219"/>
     <use xlink:href="#DejaVuSans-5b" x="101.611328"/>
     <use xlink:href="#DejaVuSans-31" x="140.625"/>
     <use xlink:href="#DejaVuSans-34" x="204.248047"/>
     <use xlink:href="#DejaVuSans-5d" x="267.871094"/>
    </g>
   </g>
   <g id="text_3">
    <!-- D [11] -->
    <g transform="translate(235.340121 27.70449) scale(0.1 -0.1)">
     <defs>
      <path id="DejaVuSans-44" d="M 1259 4147 
L 1259 519 
L 2022 519 
Q 2988 519 3436 956 
Q 3884 1394 3884 2338 
Q 3884 3275 3436 3711 
Q 2988 4147 2022 4147 
L 1259 4147 
z
M 628 4666 
L 1925 4666 
Q 3281 4666 3915 4102 
Q 4550 3538 4550 2338 
Q 4550 1131 3912 565 
Q 3275 0 1925 0 
L 628 0 
L 628 4666 
z
" transform="scale(0.015625)"/>
     </defs>
     <use xlink:href="#DejaVuSans-44"/>
     <use xlink:href="#DejaVuSans-20" x="77.001953"/>
     <use xlink:href="#DejaVuSans-5b" x="108.789062"/>
     <use xlink:href="#DejaVuSans-31" x="147.802734"/>
     <use xlink:href="#DejaVuSans-31" x="211.425781"/>
     <use xlink:href="#DejaVuSans-5d" x="275.048828"/>
    </g>
   </g>
   <g id="text_4">
    <!-- E [10] -->
    <g transform="translate(211.583328 19.146935) scale(0.1 -0.1)">
     <defs>
      <path id="DejaVuSans-45" d="M 628 4666 
L 3578 4666 
L 3578 4134 
L 1259 4134 
L 1259 2753 
L 3481 2753 
L 3481 2222 
L 1259 2222 
L 1259 531 
L 3634 531 
L 3634 0 
L 628 0 
L 628 4666 
z
" transform="scale(0.015625)"/>
      <path id="DejaVuSans-30" d="M 2034 4250 
Q 1547 4250 1301 3770 
Q 1056 3291 1056 2328 
Q 1056 1369 1301 889 
Q 1547 409 2034 409 
Q 2525 409 2770 889 
Q 3016 1369 3016 2328 
Q 3016 3291 2770 3770 
Q 2525 4250 2034 4250 
z
M 2034 4750 
Q 2819 4750 3233 4129 
Q 3647 3509 3647 2328 
Q 3647 1150 3233 529 
Q 2819 -91 2034 -91 
Q 1250 -91 836 529 
Q 422 1150 422 2328 
Q 422 3509 836 4129 
Q 1250 4750 2034 4750 
z
" transform="scale(0.015625)"/>
     </defs>
     <use xlink:href="#DejaVuSans-45"/>
     <use xlink:href="#DejaVuSans-20" x="63.183594"/>
     <use xlink:href="#DejaVuSans-5b" x="94.970703"/>
     <use xlink:href="#DejaVuSans-31" x="133.984375"/>
     <use xlink:href="#DejaVuSans-30" x="197.607422"/>
     <use xlink:href="#DejaVuSans-5d" x="261.230469"/>
    </g>
   </g>
   <g id="text_5">
    <!-- F [13] -->
    <g transform="translate(184.278881 14.798437) scale(0.1 -0.1)">
     <defs>
      <path id="DejaVuSans-46" d="M 628 4666 
L 3309 4666 
L 3309 4134 
L 1259 4134 
L 1259 2759 
L 3109 2759 
L 3109 2228 
L 1259 2228 
L 1259 0 
L 628 0 
L 628 4666 
z
" transform="scale(0.015625)"/>
      <path id="DejaVuSans-33" d="M 2597 2516 
Q 3050 2419 3304 2112 
Q 3559 1806 3559 1356 
Q 3559 666 3084 287 
Q 2609 -91 1734 -91 
Q 1441 -91 1130 -33 
Q 819 25 488 141 
L 488 750 
Q 750 597 1062 519 
Q 1375 441 1716 441 
Q 2309 441 2620 675 
Q 2931 909 2931 1356 
Q 2931 1769 2642 2001 
Q 2353 2234 1838 2234 
L 1294 2234 
L 1294 2753 
L 1863 2753 
Q 2328 2753 2575 2939 
Q 2822 3125 2822 3475 
Q 2822 3834 2567 4026 
Q 2313 4219 1838 4219 
Q 1578 4219 1281 4162 
Q 984 4106 628 3988 
L 628 4550 
Q 988 4650 1302 4700 
Q 1616 4750 1894 4750 
Q 2613 4750 3031 4423 
Q 3450 4097 3450 3541 
Q 3450 3153 3228 2886 
Q 3006 2619 2597 2516 
z
" transform="scale(0.015625)"/>
     </defs>
     <use xlink:href="#DejaVuSans-46"/>
     <use xlink:href="#DejaVuSans-20" x="57.519531"/>
     <use xlink:href="#DejaVuSans-5b" x="89.306641"/>
     <use xlink:href="#DejaVuSans-31" x="128.320312"/>
     <use xlink:href="#DejaVuSans-33" x="191.943359"/>
     <use xlink:href="#DejaVuSans-5d" x="255.566406"/>
    </g>
   </g>
   <g id="text_6">
    <!-- G [36] -->
    <g transform="translate(94.907642 23.515912) scale(0.1 -0.1)">
     <defs>
      <path id="DejaVuSans-47" d="M 3809 666 
L 3809 1919 
L 2778 1919 
L 2778 2438 
L 4434 2438 
L 4434 434 
Q 4069 175 3628 42 
Q 3188 -91 2688 -91 
Q 1594 -91 976 548 
Q 359 1188 359 2328 
Q 359 3472 976 4111 
Q 1594 4750 2688 4750 
Q 3144 4750 3555 4637 
Q 3966 4525 4313 4306 
L 4313 3634 
Q 3963 3931 3569 4081 
Q 3175 4231 2741 4231 
Q 1884 4231 1454 3753 
Q 1025 3275 1025 2328 
Q 1025 1384 1454 906 
Q 1884 428 2741 428 
Q 3075 428 3337 486 
Q 3600 544 3809 666 
z
" transform="scale(0.015625)"/>
      <path id="DejaVuSans-36" d="M 2113 2584 
Q 1688 2584 1439 2293 
Q 1191 2003 1191 1497 
Q 1191 994 1439 701 
Q 1688 409 2113 409 
Q 2538 409 2786 701 
Q 3034 994 3034 1497 
Q 3034 2003 2786 2293 
Q 2538 2584 2113 2584 
z
M 3366 4563 
L 3366 3988 
Q 3128 4100 2886 4159 
Q 2644 4219 2406 4219 
Q 1781 4219 1451 3797 
Q 1122 3375 1075 2522 
Q 1259 2794 1537 2939 
Q 1816 3084 2150 3084 
Q 2853 3084 3261 2657 
Q 3669 2231 3669 1497 
Q 3669 778 3244 343 
Q 2819 -91 2113 -91 
Q 1303 -91 875 529 
Q 447 1150 447 2328 
Q 447 3434 972 4092 
Q 1497 4750 2381 4750 
Q 2619 4750 2861 4703 
Q 3103 4656 3366 4563 
z
" transform="scale(0.015625)"/>
     </defs>
     <use xlink:href="#DejaVuSans-47"/>
     <use xlink:href="#DejaVuSans-20" x="77.490234"/>
     <use xlink:href="#DejaVuSans-5b" x="109.277344"/>
     <use xlink:href="#DejaVuSans-33" x="148.291016"/>
     <use xlink:href="#DejaVuSans-36" x="211.914062"/>
     <use xlink:href="#DejaVuSans-5d" x="275.537109"/>
    </g>
   </g>
   <g id="text_7">
    <!-- H [3] -->
    <g transform="translate(61.05255 46.944049) scale(0.1 -0.1)">
     <defs>
      <path id="DejaVuSans-48" d="M 628 4666 
L 1259 4666 
L 1259 2753 
L 3553 2753 
L 3553 4666 
L 4184 4666 
L 4184 0 
L 3553 0 
L 3553 2222 
L 1259 2222 
L 1259 0 
L 628 0 
L 628 4666 
z
" transform="scale(0.015625)"/>
     </defs>
     <use xlink:href="#DejaVuSans-48"/>
     <use xlink:href="#DejaVuSans-20" x="75.195312"/>
     <use xlink:href="#DejaVuSans-5b" x="106.982422"/>
     <use xlink:href="#DejaVuSans-33" x="145.996094"/>
     <use xlink:href="#DejaVuSans-5d" x="209.619141"/>
    </g>
   </g>
   <g id="text_8">
    <!-- I [6] -->
    <g transform="translate(57.549179 54.167993) scale(0.1 -0.1)">
     <defs>
      <path id="DejaVuSans-49" d="M 628 4666 
L 1259 4666 
L 1259 0 
L 628 0 
L 628 4666 
z
" transform="scale(0.015625)"/>
     </defs>
     <use xlink:href="#DejaVuSans-49"/>
     <use xlink:href="#DejaVuSans-20" x="29.492188"/>
     <use xlink:href="#DejaVuSans-5b" x="61.279297"/>
     <use xlink:href="#DejaVuSans-36" x="100.292969"/>
     <use xlink:href="#DejaVuSans-5d" x="163.916016"/>
    </g>
   </g>
   <g id="text_9">
    <!-- K [2] -->
    <g transform="translate(47.248845 61.093042) scale(0.1 -0.1)">
     <defs>
      <path id="DejaVuSans-4b" d="M 628 4666 
L 1259 4666 
L 1259 2694 
L 3353 4666 
L 4166 4666 
L 1850 2491 
L 4331 0 
L 3500 0 
L 1259 2247 
L 1259 0 
L 628 0 
L 628 4666 
z
" transform="scale(0.015625)"/>
      <path id="DejaVuSans-32" d="M 1228 531 
L 3431 531 
L 3431 0 
L 469 0 
L 469 531 
Q 828 903 1448 1529 
Q 2069 2156 2228 2338 
Q 2531 2678 2651 2914 
Q 2772 3150 2772 3378 
Q 2772 3750 2511 3984 
Q 2250 4219 1831 4219 
Q 1534 4219 1204 4116 
Q 875 4013 500 3803 
L 500 4441 
Q 881 4594 1212 4672 
Q 1544 4750 1819 4750 
Q 2544 4750 2975 4387 
Q 3406 4025 3406 3419 
Q 3406 3131 3298 2873 
Q 3191 2616 2906 2266 
Q 2828 2175 2409 1742 
Q 1991 1309 1228 531 
z
" transform="scale(0.015625)"/>
     </defs>
     <use xlink:href="#DejaVuSans-4b"/>
     <use xlink:href="#DejaVuSans-20" x="65.576172"/>
     <use xlink:href="#DejaVuSans-5b" x="97.363281"/>
     <use xlink:href="#DejaVuSans-32" x="136.376953"/>
     <use xlink:href="#DejaVuSans-5d" x="200"/>
    </g>
   </g>
   <g id="text_10">
    <!-- L [66] -->
    <g transform="translate(7.2 133.998436) scale(0.1 -0.1)">
     <defs>
      <path id="DejaVuSans-4c" d="M 628 4666 
L 1259 4666 
L 1259 531 
L 3531 531 
L 3531 0 
L 628 0 
L 628 4666 
z
" transform="scale(0.015625)"/>
     </defs>
     <use xlink:href="#DejaVuSans-4c"/>
     <use xlink:href="#DejaVuSans-20" x="55.712891"/>
     <use xlink:href="#DejaVuSans-5b" x="87.5"/>
     <use xlink:href="#DejaVuSans-36" x="126.513672"/>
     <use xlink:href="#DejaVuSans-36" x="190.136719"/>
     <use xlink:href="#DejaVuSans-5d" x="253.759766"/>
    </g>
   </g>
   <g id="text_11">
    <!-- M [1] -->
    <g transform="translate(21.005215 212.878575) scale(0.1 -0.1)">
     <defs>
      <path id="DejaVuSans-4d" d="M 628 4666 
L 1569 4666 
L 2759 1491 
L 3956 4666 
L 4897 4666 
L 4897 0 
L 4281 0 
L 4281 4097 
L 3078 897 
L 2444 897 
L 1241 4097 
L 1241 0 
L 628 0 
L 628 4666 
z
" transform="scale(0.015625)"/>
     </defs>
     <use xlink:href="#DejaVuSans-4d"/>
     <use xlink:href="#DejaVuSans-20" x="86.279297"/>
     <use xlink:href="#DejaVuSans-5b" x="118.066406"/>
     <use xlink:href="#DejaVuSans-31" x="157.080078"/>
     <use xlink:href="#DejaVuSans-5d" x="220.703125"/>
    </g>
   </g>
   <g id="text_12">
    <!-- N [5] -->
    <g transform="translate(25.254452 219.401912) scale(0.1 -0.1)">
     <defs>
      <path id="DejaVuSans-4e" d="M 628 4666 
L 1478 4666 
L 3547 763 
L 3547 4666 
L 4159 4666 
L 4159 0 
L 3309 0 
L 1241 3903 
L 1241 0 
L 628 0 
L 628 4666 
z
" transform="scale(0.015625)"/>
      <path id="DejaVuSans-35" d="M 691 4666 
L 3169 4666 
L 3169 4134 
L 1269 4134 
L 1269 2991 
Q 1406 3038 1543 3061 
Q 1681 3084 1819 3084 
Q 2600 3084 3056 2656 
Q 3513 2228 3513 1497 
Q 3513 744 3044 326 
Q 2575 -91 1722 -91 
Q 1428 -91 1123 -41 
Q 819 9 494 109 
L 494 744 
Q 775 591 1075 516 
Q 1375 441 1709 441 
Q 2250 441 2565 725 
Q 2881 1009 2881 1497 
Q 2881 1984 2565 2268 
Q 2250 2553 1709 2553 
Q 1456 2553 1204 2497 
Q 953 2441 691 2322 
L 691 4666 
z
" transform="scale(0.015625)"/>
     </defs>
     <use xlink:href="#DejaVuSans-4e"/>
     <use xlink:href="#DejaVuSans-20" x="74.804688"/>
     <use xlink:href="#DejaVuSans-5b" x="106.591797"/>
     <use xlink:href="#DejaVuSans-35" x="145.605469"/>
     <use xlink:href="#DejaVuSans-5d" x="209.228516"/>
    </g>
   </g>
   <g id="text_13">
    <!-- P [31] -->
    <g transform="translate(45.542015 254.460915) scale(0.1 -0.1)">
     <defs>
      <path id="DejaVuSans-50" d="M 1259 4147 
L 1259 2394 
L 2053 2394 
Q 2494 2394 2734 2622 
Q 2975 2850 2975 3272 
Q 2975 3691 2734 3919 
Q 2494 4147 2053 4147 
L 1259 4147 
z
M 628 4666 
L 2053 4666 
Q 2838 4666 3239 4311 
Q 3641 3956 3641 3272 
Q 3641 2581 3239 2228 
Q 2838 1875 2053 1875 
L 1259 1875 
L 1259 0 
L 628 0 
L 628 4666 
z
" transform="scale(0.015625)"/>
     </defs>
     <use xlink:href="#DejaVuSans-50"/>
     <use xlink:href="#DejaVuSans-20" x="60.302734"/>
     <use xlink:href="#DejaVuSans-5b" x="92.089844"/>
     <use xlink:href="#DejaVuSans-33" x="131.103516"/>
     <use xlink:href="#DejaVuSans-31" x="194.726562"/>
     <use xlink:href="#DejaVuSans-5d" x="258.349609"/>
    </g>
   </g>
   <g id="text_14">
    <!-- Q [3] -->
    <g transform="translate(82.567152 279.110102) scale(0.1 -0.1)">
     <defs>
      <path id="DejaVuSans-51" d="M 2522 4238 
Q 1834 4238 1429 3725 
Q 1025 3213 1025 2328 
Q 1025 1447 1429 934 
Q 1834 422 2522 422 
Q 3209 422 3611 934 
Q 4013 1447 4013 2328 
Q 4013 3213 3611 3725 
Q 3209 4238 2522 4238 
z
M 3406 84 
L 4238 -825 
L 3475 -825 
L 2784 -78 
Q 2681 -84 2626 -87 
Q 2572 -91 2522 -91 
Q 1538 -91 948 567 
Q 359 1225 359 2328 
Q 359 3434 948 4092 
Q 1538 4750 2522 4750 
Q 3503 4750 4090 4092 
Q 4678 3434 4678 2328 
Q 4678 1516 4351 937 
Q 4025 359 3406 84 
z
" transform="scale(0.015625)"/>
     </defs>
     <use xlink:href="#DejaVuSans-51"/>
     <use xlink:href="#DejaVuSans-20" x="78.710938"/>
     <use xlink:href="#DejaVuSans-5b" x="110.498047"/>
     <use xlink:href="#DejaVuSans-33" x="149.511719"/>
     <use xlink:href="#DejaVuSans-5d" x="213.134766"/>
    </g>
   </g>
   <g id="text_15">
    <!-- R [40] -->
    <g transform="translate(125.996038 295.311752) scale(0.1 -0.1)">
     <defs>
      <path id="DejaVuSans-52" d="M 2841 2188 
Q 3044 2119 3236 1894 
Q 3428 1669 3622 1275 
L 4263 0 
L 3584 0 
L 2988 1197 
Q 2756 1666 2539 1819 
Q 2322 1972 1947 1972 
L 1259 1972 
L 1259 0 
L 628 0 
L 628 4666 
L 2053 4666 
Q 2853 4666 3247 4331 
Q 3641 3997 3641 3322 
Q 3641 2881 3436 2590 
Q 3231 2300 2841 2188 
z
M 1259 4147 
L 1259 2491 
L 2053 2491 
Q 2509 2491 2742 2702 
Q 2975 2913 2975 3322 
Q 2975 3731 2742 3939 
Q 2509 4147 2053 4147 
L 1259 4147 
z
" transform="scale(0.015625)"/>
     </defs>
     <use xlink:href="#DejaVuSans-52"/>
     <use xlink:href="#DejaVuSans-20" x="69.482422"/>
     <use xlink:href="#DejaVuSans-5b" x="101.269531"/>
     <use xlink:href="#DejaVuSans-34" x="140.283203"/>
     <use xlink:href="#DejaVuSans-30" x="203.90625"/>
     <use xlink:href="#DejaVuSans-5d" x="267.529297"/>
    </g>
   </g>
   <g id="text_16">
    <!-- S [28] -->
    <g transform="translate(236.42965 282.955125) scale(0.1 -0.1)">
     <defs>
      <path id="DejaVuSans-53" d="M 3425 4513 
L 3425 3897 
Q 3066 4069 2747 4153 
Q 2428 4238 2131 4238 
Q 1616 4238 1336 4038 
Q 1056 3838 1056 3469 
Q 1056 3159 1242 3001 
Q 1428 2844 1947 2747 
L 2328 2669 
Q 3034 2534 3370 2195 
Q 3706 1856 3706 1288 
Q 3706 609 3251 259 
Q 2797 -91 1919 -91 
Q 1588 -91 1214 -16 
Q 841 59 441 206 
L 441 856 
Q 825 641 1194 531 
Q 1563 422 1919 422 
Q 2459 422 2753 634 
Q 3047 847 3047 1241 
Q 3047 1584 2836 1778 
Q 2625 1972 2144 2069 
L 1759 2144 
Q 1053 2284 737 2584 
Q 422 2884 422 3419 
Q 422 4038 858 4394 
Q 1294 4750 2059 4750 
Q 2388 4750 2728 4690 
Q 3069 4631 3425 4513 
z
" transform="scale(0.015625)"/>
      <path id="DejaVuSans-38" d="M 2034 2216 
Q 1584 2216 1326 1975 
Q 1069 1734 1069 1313 
Q 1069 891 1326 650 
Q 1584 409 2034 409 
Q 2484 409 2743 651 
Q 3003 894 3003 1313 
Q 3003 1734 2745 1975 
Q 2488 2216 2034 2216 
z
M 1403 2484 
Q 997 2584 770 2862 
Q 544 3141 544 3541 
Q 544 4100 942 4425 
Q 1341 4750 2034 4750 
Q 2731 4750 3128 4425 
Q 3525 4100 3525 3541 
Q 3525 3141 3298 2862 
Q 3072 2584 2669 2484 
Q 3125 2378 3379 2068 
Q 3634 1759 3634 1313 
Q 3634 634 3220 271 
Q 2806 -91 2034 -91 
Q 1263 -91 848 271 
Q 434 634 434 1313 
Q 434 1759 690 2068 
Q 947 2378 1403 2484 
z
M 1172 3481 
Q 1172 3119 1398 2916 
Q 1625 2713 2034 2713 
Q 2441 2713 2670 2916 
Q 2900 3119 2900 3481 
Q 2900 3844 2670 4047 
Q 2441 4250 2034 4250 
Q 1625 4250 1398 4047 
Q 1172 3844 1172 3481 
z
" transform="scale(0.015625)"/>
     </defs>
     <use xlink:href="#DejaVuSans-53"/>
     <use xlink:href="#DejaVuSans-20" x="63.476562"/>
     <use xlink:href="#DejaVuSans-5b" x="95.263672"/>
     <use xlink:href="#DejaVuSans-32" x="134.277344"/>
     <use xlink:href="#DejaVuSans-38" x="197.900391"/>
     <use xlink:href="#DejaVuSans-5d" x="261.523438"/>
    </g>
   </g>
   <g id="text_17">
    <!-- T [9] -->
    <g transform="translate(272.998879 257.837112) scale(0.1 -0.1)">
     <defs>
      <path id="DejaVuSans-54" d="M -19 4666 
L 3928 4666 
L 3928 4134 
L 2272 4134 
L 2272 0 
L 1638 0 
L 1638 4134 
L -19 4134 
L -19 4666 
z
" transform="scale(0.015625)"/>
      <path id="DejaVuSans-39" d="M 703 97 
L 703 672 
Q 941 559 1184 500 
Q 1428 441 1663 441 
Q 2288 441 2617 861 
Q 2947 1281 2994 2138 
Q 2813 1869 2534 1725 
Q 2256 1581 1919 1581 
Q 1219 1581 811 2004 
Q 403 2428 403 3163 
Q 403 3881 828 4315 
Q 1253 4750 1959 4750 
Q 2769 4750 3195 4129 
Q 3622 3509 3622 2328 
Q 3622 1225 3098 567 
Q 2575 -91 1691 -91 
Q 1453 -91 1209 -44 
Q 966 3 703 97 
z
M 1959 2075 
Q 2384 2075 2632 2365 
Q 2881 2656 2881 3163 
Q 2881 3666 2632 3958 
Q 2384 4250 1959 4250 
Q 1534 4250 1286 3958 
Q 1038 3666 1038 3163 
Q 1038 2656 1286 2365 
Q 1534 2075 1959 2075 
z
" transform="scale(0.015625)"/>
     </defs>
     <use xlink:href="#DejaVuSans-54"/>
     <use xlink:href="#DejaVuSans-20" x="61.083984"/>
     <use xlink:href="#DejaVuSans-5b" x="92.871094"/>
     <use xlink:href="#DejaVuSans-39" x="131.884766"/>
     <use xlink:href="#DejaVuSans-5d" x="195.507812"/>
    </g>
   </g>
   <g id="text_18">
    <!-- V [25] -->
    <g transform="translate(298.199429 225.757865) scale(0.1 -0.1)">
     <defs>
      <path id="DejaVuSans-56" d="M 1831 0 
L 50 4666 
L 709 4666 
L 2188 738 
L 3669 4666 
L 4325 4666 
L 2547 0 
L 1831 0 
z
" transform="scale(0.015625)"/>
     </defs>
     <use xlink:href="#DejaVuSans-56"/>
     <use xlink:href="#DejaVuSans-20" x="68.408203"/>
     <use xlink:href="#DejaVuSans-5b" x="100.195312"/>
     <use xlink:href="#DejaVuSans-32" x="139.208984"/>
     <use xlink:href="#DejaVuSans-35" x="202.832031"/>
     <use xlink:href="#DejaVuSans-5d" x="266.455078"/>
    </g>
   </g>
   <g id="text_19">
    <!-- W [9] -->
    <g transform="translate(313.164862 187.808139) scale(0.1 -0.1)">
     <defs>
      <path id="DejaVuSans-57" d="M 213 4666 
L 850 4666 
L 1831 722 
L 2809 4666 
L 3519 4666 
L 4500 722 
L 5478 4666 
L 6119 4666 
L 4947 0 
L 4153 0 
L 3169 4050 
L 2175 0 
L 1381 0 
L 213 4666 
z
" transform="scale(0.015625)"/>
     </defs>
     <use xlink:href="#DejaVuSans-57"/>
     <use xlink:href="#DejaVuSans-20" x="98.876953"/>
     <use xlink:href="#DejaVuSans-5b" x="130.664062"/>
     <use xlink:href="#DejaVuSans-39" x="169.677734"/>
     <use xlink:href="#DejaVuSans-5d" x="233.300781"/>
    </g>
   </g>
   <g id="text_20">
    <!-- Y [9] -->
    <g transform="translate(316.478856 166.411787) scale(0.1 -0.1)">
     <defs>
      <path id="DejaVuSans-59" d="M -13 4666 
L 666 4666 
L 1959 2747 
L 3244 4666 
L 3922 4666 
L 2272 2222 
L 2272 0 
L 1638 0 
L 1638 2222 
L -13 4666 
z
" transform="scale(0.015625)"/>
     </defs>
     <use xlink:href="#DejaVuSans-59"/>
     <use xlink:href="#DejaVuSans-20" x="61.083984"/>
     <use xlink:href="#DejaVuSans-5b" x="92.871094"/>
     <use xlink:href="#DejaVuSans-39" x="131.884766"/>
     <use xlink:href="#DejaVuSans-5d" x="195.507812"/>
    </g>
   </g>
   <g id="text_21">
    <!-- A0A8M1GCE4 [368] -->
    <g transform="translate(116.52871 152.826665) scale(0.12 -0.12)">
     <use xlink:href="#DejaVuSans-41"/>
     <use xlink:href="#DejaVuSans-30" x="68.408203"/>
     <use xlink:href="#DejaVuSans-41" x="132.03125"/>
     <use xlink:href="#DejaVuSans-38" x="200.439453"/>
     <use xlink:href="#DejaVuSans-4d" x="264.0625"/>
     <use xlink:href="#DejaVuSans-31" x="350.341797"/>
     <use xlink:href="#DejaVuSans-47" x="413.964844"/>
     <use xlink:href="#DejaVuSans-43" x="491.455078"/>
     <use xlink:href="#DejaVuSans-45" x="561.279297"/>
     <use xlink:href="#DejaVuSans-34" x="624.462891"/>
     <use xlink:href="#DejaVuSans-20" x="688.085938"/>
     <use xlink:href="#DejaVuSans-5b" x="719.873047"/>
     <use xlink:href="#DejaVuSans-33" x="758.886719"/>
     <use xlink:href="#DejaVuSans-36" x="822.509766"/>
     <use xlink:href="#DejaVuSans-38" x="886.132812"/>
     <use xlink:href="#DejaVuSans-5d" x="949.755859"/>
    </g>
   </g>
  </g>
 </g>
</svg>
