<?xml version="1.0" encoding="utf-8" standalone="no"?>
<!DOCTYPE svg PUBLIC "-//W3C//DTD SVG 1.1//EN"
  "http://www.w3.org/Graphics/SVG/1.1/DTD/svg11.dtd">
<svg xmlns:xlink="http://www.w3.org/1999/xlink" width="353.492414pt" height="302.616748pt" viewBox="0 0 353.492414 302.616748" xmlns="http://www.w3.org/2000/svg" version="1.1">
 <metadata>
  <rdf:RDF xmlns:dc="http://purl.org/dc/elements/1.1/" xmlns:cc="http://creativecommons.org/ns#" xmlns:rdf="http://www.w3.org/1999/02/22-rdf-syntax-ns#">
   <cc:Work>
    <dc:type rdf:resource="http://purl.org/dc/dcmitype/StillImage"/>
    <dc:date>2024-09-27T16:07:37.023592</dc:date>
    <dc:format>image/svg+xml</dc:format>
    <dc:creator>
     <cc:Agent>
      <dc:title>Matplotlib v3.8.3, https://matplotlib.org/</dc:title>
     </cc:Agent>
    </dc:creator>
   </cc:Work>
  </rdf:RDF>
 </metadata>
 <defs>
  <style type="text/css">*{stroke-linejoin: round; stroke-linecap: butt}</style>
 </defs>
 <g id="figure_1">
  <g id="patch_1">
   <path d="M 0 302.616748 
L 353.492414 302.616748 
L 353.492414 0 
L 0 0 
z
" style="fill: #ffffff"/>
  </g>
  <g id="axes_1">
   <g id="patch_2">
    <path d="M 304.861725 152.520723 
C 304.861725 138.115525 302.424902 123.813568 297.654561 110.221159 
C 292.88422 96.628751 285.848738 83.940721 276.846373 72.69496 
L 177.127965 152.520723 
z
" style="fill: #1f77b4"/>
   </g>
   <g id="patch_3">
    <path d="M 276.726175 72.500611 
C 274.192565 69.335624 271.509709 66.293052 268.686721 63.383231 
C 265.863732 60.47341 262.90381 57.699637 259.817007 55.071334 
L 177.007767 152.326375 
z
" style="fill: #ff7f0e"/>
   </g>
   <g id="patch_4">
    <path d="M 259.732373 55.000525 
C 256.084061 51.894116 252.263843 48.995454 248.289835 46.318287 
C 244.315828 43.64112 240.194325 41.189687 235.944874 38.975614 
L 176.923132 152.255566 
z
" style="fill: #aec7e8"/>
   </g>
   <g id="patch_5">
    <path d="M 235.838889 38.920394 
C 231.589438 36.706321 227.218766 34.733115 222.747604 33.010134 
C 218.276442 31.287152 213.711869 29.817124 209.075534 28.60702 
L 176.817148 152.200345 
z
" style="fill: #ffbb78"/>
   </g>
   <g id="patch_6">
    <path d="M 208.923274 28.572862 
C 201.430634 26.617251 193.775658 25.347028 186.052955 24.777892 
C 178.330252 24.208756 170.571767 24.343061 162.873389 25.179148 
L 176.664888 152.166187 
z
" style="fill: #98df8a"/>
   </g>
   <g id="patch_7">
    <path d="M 162.699862 25.19496 
C 156.469318 25.871632 150.297014 27.005934 144.23298 28.588673 
C 138.168945 30.171412 132.22961 32.198299 126.463114 34.652905 
L 176.491361 152.181999 
z
" style="fill: #2ca02c"/>
   </g>
   <g id="patch_8">
    <path d="M 126.343467 34.700205 
C 122.613182 36.288064 118.960607 38.052618 115.398148 39.987873 
C 111.835689 41.923128 108.367385 44.026892 105.005015 46.292017 
L 176.371714 152.229299 
z
" style="fill: #d62728"/>
   </g>
   <g id="patch_9">
    <path d="M 104.907071 46.360493 
C 100.321278 49.449801 95.940913 52.833616 91.793629 56.490577 
C 87.646345 60.147537 83.740886 64.069932 80.101906 68.233002 
L 176.27377 152.297775 
z
" style="fill: #9467bd"/>
   </g>
   <g id="patch_10">
    <path d="M 80.02171 68.321605 
C 77.353557 71.374028 74.832239 74.551749 72.466319 77.843974 
C 70.100399 81.136199 67.892559 84.539198 65.850298 88.041411 
L 176.193574 152.386378 
z
" style="fill: #ff9896"/>
   </g>
   <g id="patch_11">
    <path d="M 65.753636 88.29225 
C 56.811724 103.62647 51.16367 120.657621 49.170742 138.296337 
C 47.177814 155.935054 48.883429 173.797066 54.178489 190.739864 
L 176.096912 152.637218 
z
" style="fill: #c5b0d5"/>
   </g>
   <g id="patch_12">
    <path d="M 54.213249 190.997426 
C 55.202655 194.163264 56.314996 197.289364 57.547742 200.368616 
C 58.780488 203.447867 60.132705 206.477936 61.601316 209.451929 
L 176.131671 152.894779 
z
" style="fill: #c49c94"/>
   </g>
   <g id="patch_13">
    <path d="M 61.650187 209.545727 
C 63.935104 214.172769 66.498322 218.657095 69.325744 222.974044 
C 72.153166 227.290992 75.2396 231.432633 78.568071 235.37619 
L 176.180543 152.988577 
z
" style="fill: #8c564b"/>
   </g>
   <g id="patch_14">
    <path d="M 78.664766 235.486812 
C 82.945082 240.558111 87.614104 245.288142 92.62941 249.63393 
C 97.644717 253.979719 102.991073 257.928063 108.619906 261.443091 
L 176.277238 153.099199 
z
" style="fill: #e377c2"/>
   </g>
   <g id="patch_15">
    <path d="M 108.718439 261.510717 
C 111.219128 263.072318 113.773134 264.546874 116.375865 265.931734 
C 118.978596 267.316594 121.628493 268.610929 124.320795 269.812412 
L 176.375771 153.166825 
z
" style="fill: #7f7f7f"/>
   </g>
   <g id="patch_16">
    <path d="M 124.458787 269.862862 
C 132.542136 273.470187 140.978608 276.227517 149.63211 278.090372 
C 158.285612 279.953227 167.109362 280.911536 175.96102 280.94984 
L 176.513764 153.217276 
z
" style="fill: #f7b6d2"/>
   </g>
   <g id="patch_17">
    <path d="M 176.185034 280.94984 
C 185.406215 280.989743 194.604665 280.030996 203.619417 278.090375 
C 212.634169 276.149754 221.412331 273.238647 229.800291 269.407995 
L 176.737778 153.217276 
z
" style="fill: #c7c7c7"/>
   </g>
   <g id="patch_18">
    <path d="M 229.958375 269.346289 
C 233.981581 267.508953 237.906644 265.463896 241.717699 263.219383 
C 245.528755 260.97487 249.220663 258.533929 252.778502 255.906426 
L 176.895862 153.155571 
z
" style="fill: #dbdb8d"/>
   </g>
   <g id="patch_19">
    <path d="M 252.92101 255.784018 
C 261.528454 249.427326 269.303137 242.014181 276.062189 233.718952 
C 282.821242 225.423722 288.51125 216.311959 292.998377 206.597984 
L 177.03837 153.033162 
z
" style="fill: #bcbd22"/>
   </g>
   <g id="patch_20">
    <path d="M 293.086428 206.442381 
C 294.631929 203.096597 296.031904 199.685491 297.28242 196.21864 
C 298.532937 192.751788 299.632825 189.232439 300.578996 185.670472 
L 177.126421 152.877559 
z
" style="fill: #17becf"/>
   </g>
   <g id="patch_21">
    <path d="M 300.606092 185.558783 
C 302.025625 180.214791 303.096667 174.784261 303.812457 169.301472 
C 304.528247 163.818684 304.887276 158.295198 304.887276 152.765883 
L 177.153516 152.76587 
z
" style="fill: #9edae5"/>
   </g>
   <g id="patch_22">
    <path d="M 251.137131 152.696971 
C 251.137131 144.293939 249.715651 135.951131 246.932952 128.022226 
C 244.150253 120.093321 240.046222 112.69197 234.794842 106.131943 
L 176.625771 152.696971 
z
" style="fill: #ffffff"/>
   </g>
   <g id="patch_23">
    <path d="M 234.794842 106.131943 
C 233.316903 104.2857 231.751904 102.510866 230.105161 100.813471 
C 228.458417 99.116075 226.731796 97.498041 224.931161 95.964864 
L 176.625771 152.696971 
z
" style="fill: #ffffff"/>
   </g>
   <g id="patch_24">
    <path d="M 224.931161 95.964864 
C 222.80298 94.152792 220.574519 92.461906 218.256348 90.900225 
C 215.938177 89.338544 213.533967 87.908542 211.05512 86.616999 
L 176.625771 152.696971 
z
" style="fill: #ffffff"/>
   </g>
   <g id="patch_25">
    <path d="M 211.05512 86.616999 
C 208.576273 85.325457 206.026715 84.17442 203.418537 83.169348 
C 200.810359 82.164275 198.147692 81.306759 195.443163 80.600865 
L 176.625771 152.696971 
z
" style="fill: #ffffff"/>
   </g>
   <g id="patch_26">
    <path d="M 195.443163 80.600865 
C 191.072456 79.460092 186.607054 78.719129 182.102143 78.387133 
C 177.597233 78.055137 173.07145 78.133481 168.58073 78.621199 
L 176.625771 152.696971 
z
" style="fill: #ffffff"/>
   </g>
   <g id="patch_27">
    <path d="M 168.58073 78.621199 
C 164.946246 79.015924 161.345735 79.6776 157.808382 80.600864 
C 154.271028 81.524129 150.806416 82.706479 147.442627 84.138333 
L 176.625771 152.696971 
z
" style="fill: #ffffff"/>
   </g>
   <g id="patch_28">
    <path d="M 147.442627 84.138333 
C 145.266627 85.064584 143.135958 86.093907 141.057857 87.222806 
C 138.979756 88.351705 136.956579 89.5789 134.995196 90.900224 
L 176.625771 152.696971 
z
" style="fill: #ffffff"/>
   </g>
   <g id="patch_29">
    <path d="M 134.995196 90.900224 
C 132.32015 92.70232 129.764938 94.676212 127.345689 96.809439 
C 124.92644 98.942666 122.648255 101.23073 120.525517 103.659187 
L 176.625771 152.696971 
z
" style="fill: #ffffff"/>
   </g>
   <g id="patch_30">
    <path d="M 120.525517 103.659187 
C 118.969094 105.439767 117.498325 107.293438 116.118205 109.213902 
C 114.738085 111.134367 113.450179 113.11945 112.25886 115.162407 
L 176.625771 152.696971 
z
" style="fill: #ffffff"/>
   </g>
   <g id="patch_31">
    <path d="M 112.25886 115.162407 
C 107.042744 124.107368 103.748046 134.042207 102.585505 144.331458 
C 101.422964 154.620709 102.417906 165.040216 105.506691 174.923515 
L 176.625771 152.696971 
z
" style="fill: #ffffff"/>
   </g>
   <g id="patch_32">
    <path d="M 105.506691 174.923515 
C 106.083845 176.770254 106.73271 178.593812 107.451812 180.390043 
C 108.170914 182.186273 108.959707 183.953813 109.816397 185.688642 
L 176.625771 152.696971 
z
" style="fill: #ffffff"/>
   </g>
   <g id="patch_33">
    <path d="M 109.816397 185.688642 
C 111.149265 188.38775 112.644475 191.003607 114.293805 193.521827 
C 115.943135 196.040046 117.743554 198.456004 119.685162 200.756412 
L 176.625771 152.696971 
z
" style="fill: #ffffff"/>
   </g>
   <g id="patch_34">
    <path d="M 119.685162 200.756412 
C 122.182013 203.71467 124.905609 206.473855 127.831204 209.008898 
C 130.7568 211.543941 133.875508 213.847142 137.158994 215.897575 
L 176.625771 152.696971 
z
" style="fill: #ffffff"/>
   </g>
   <g id="patch_35">
    <path d="M 137.158994 215.897575 
C 138.617729 216.808509 140.107566 217.668666 141.625826 218.476501 
C 143.144085 219.284337 144.689859 220.039365 146.260368 220.74023 
L 176.625771 152.696971 
z
" style="fill: #ffffff"/>
   </g>
   <g id="patch_36">
    <path d="M 146.260368 220.74023 
C 150.975655 222.844503 155.89693 224.452945 160.944806 225.539611 
C 165.992682 226.626276 171.13987 227.18529 176.303337 227.207634 
L 176.625771 152.696971 
z
" style="fill: #ffffff"/>
   </g>
   <g id="patch_37">
    <path d="M 176.303337 227.207634 
C 181.682359 227.230911 187.048122 226.671641 192.306727 225.539613 
C 197.565333 224.407584 202.685927 222.709438 207.578904 220.474891 
L 176.625771 152.696971 
z
" style="fill: #ffffff"/>
   </g>
   <g id="patch_38">
    <path d="M 207.578904 220.474891 
C 209.925774 219.403111 212.215394 218.210161 214.438509 216.900862 
C 216.661625 215.591563 218.815238 214.167681 220.890644 212.634971 
L 176.625771 152.696971 
z
" style="fill: #ffffff"/>
   </g>
   <g id="patch_39">
    <path d="M 220.890644 212.634971 
C 225.911653 208.9269 230.446885 204.602566 234.389666 199.763682 
C 238.332446 194.924798 241.651617 189.609603 244.269108 183.943118 
L 176.625771 152.696971 
z
" style="fill: #ffffff"/>
   </g>
   <g id="patch_40">
    <path d="M 244.269108 183.943118 
C 245.170651 181.99141 245.987302 180.001598 246.716771 177.979268 
C 247.446239 175.956938 248.08784 173.903985 248.639773 171.826171 
L 176.625771 152.696971 
z
" style="fill: #ffffff"/>
   </g>
   <g id="patch_41">
    <path d="M 248.639773 171.826171 
C 249.467834 168.708842 250.092609 165.541033 250.510153 162.342739 
C 250.927697 159.144446 251.137131 155.922413 251.137131 152.696979 
L 176.625771 152.696971 
z
" style="fill: #ffffff"/>
   </g>
   <g id="matplotlib.axis_1"/>
   <g id="matplotlib.axis_2"/>
   <g id="text_1">
    <!-- A [39] -->
    <g transform="translate(309.707221 108.750578) scale(0.1 -0.1)">
     <defs>
      <path id="DejaVuSans-41" d="M 2188 4044 
L 1331 1722 
L 3047 1722 
L 2188 4044 
z
M 1831 4666 
L 2547 4666 
L 4325 0 
L 3669 0 
L 3244 1197 
L 1141 1197 
L 716 0 
L 50 0 
L 1831 4666 
z
" transform="scale(0.015625)"/>
      <path id="DejaVuSans-20" transform="scale(0.015625)"/>
      <path id="DejaVuSans-5b" d="M 550 4863 
L 1875 4863 
L 1875 4416 
L 1125 4416 
L 1125 -397 
L 1875 -397 
L 1875 -844 
L 550 -844 
L 550 4863 
z
" transform="scale(0.015625)"/>
      <path id="DejaVuSans-33" d="M 2597 2516 
Q 3050 2419 3304 2112 
Q 3559 1806 3559 1356 
Q 3559 666 3084 287 
Q 2609 -91 1734 -91 
Q 1441 -91 1130 -33 
Q 819 25 488 141 
L 488 750 
Q 750 597 1062 519 
Q 1375 441 1716 441 
Q 2309 441 2620 675 
Q 2931 909 2931 1356 
Q 2931 1769 2642 2001 
Q 2353 2234 1838 2234 
L 1294 2234 
L 1294 2753 
L 1863 2753 
Q 2328 2753 2575 2939 
Q 2822 3125 2822 3475 
Q 2822 3834 2567 4026 
Q 2313 4219 1838 4219 
Q 1578 4219 1281 4162 
Q 984 4106 628 3988 
L 628 4550 
Q 988 4650 1302 4700 
Q 1616 4750 1894 4750 
Q 2613 4750 3031 4423 
Q 3450 4097 3450 3541 
Q 3450 3153 3228 2886 
Q 3006 2619 2597 2516 
z
" transform="scale(0.015625)"/>
      <path id="DejaVuSans-39" d="M 703 97 
L 703 672 
Q 941 559 1184 500 
Q 1428 441 1663 441 
Q 2288 441 2617 861 
Q 2947 1281 2994 2138 
Q 2813 1869 2534 1725 
Q 2256 1581 1919 1581 
Q 1219 1581 811 2004 
Q 403 2428 403 3163 
Q 403 3881 828 4315 
Q 1253 4750 1959 4750 
Q 2769 4750 3195 4129 
Q 3622 3509 3622 2328 
Q 3622 1225 3098 567 
Q 2575 -91 1691 -91 
Q 1453 -91 1209 -44 
Q 966 3 703 97 
z
M 1959 2075 
Q 2384 2075 2632 2365 
Q 2881 2656 2881 3163 
Q 2881 3666 2632 3958 
Q 2384 4250 1959 4250 
Q 1534 4250 1286 3958 
Q 1038 3666 1038 3163 
Q 1038 2656 1286 2365 
Q 1534 2075 1959 2075 
z
" transform="scale(0.015625)"/>
      <path id="DejaVuSans-5d" d="M 1947 4863 
L 1947 -844 
L 622 -844 
L 622 -397 
L 1369 -397 
L 1369 4416 
L 622 4416 
L 622 4863 
L 1947 4863 
z
" transform="scale(0.015625)"/>
     </defs>
     <use xlink:href="#DejaVuSans-41"/>
     <use xlink:href="#DejaVuSans-20" x="68.408203"/>
     <use xlink:href="#DejaVuSans-5b" x="100.195312"/>
     <use xlink:href="#DejaVuSans-33" x="139.208984"/>
     <use xlink:href="#DejaVuSans-39" x="202.832031"/>
     <use xlink:href="#DejaVuSans-5d" x="266.455078"/>
    </g>
   </g>
   <g id="text_2">
    <!-- C [11] -->
    <g transform="translate(277.854616 57.248292) scale(0.1 -0.1)">
     <defs>
      <path id="DejaVuSans-43" d="M 4122 4306 
L 4122 3641 
Q 3803 3938 3442 4084 
Q 3081 4231 2675 4231 
Q 1875 4231 1450 3742 
Q 1025 3253 1025 2328 
Q 1025 1406 1450 917 
Q 1875 428 2675 428 
Q 3081 428 3442 575 
Q 3803 722 4122 1019 
L 4122 359 
Q 3791 134 3420 21 
Q 3050 -91 2638 -91 
Q 1578 -91 968 557 
Q 359 1206 359 2328 
Q 359 3453 968 4101 
Q 1578 4750 2638 4750 
Q 3056 4750 3426 4639 
Q 3797 4528 4122 4306 
z
" transform="scale(0.015625)"/>
      <path id="DejaVuSans-31" d="M 794 531 
L 1825 531 
L 1825 4091 
L 703 3866 
L 703 4441 
L 1819 4666 
L 2450 4666 
L 2450 531 
L 3481 531 
L 3481 0 
L 794 0 
L 794 531 
z
" transform="scale(0.015625)"/>
     </defs>
     <use xlink:href="#DejaVuSans-43"/>
     <use xlink:href="#DejaVuSans-20" x="69.824219"/>
     <use xlink:href="#DejaVuSans-5b" x="101.611328"/>
     <use xlink:href="#DejaVuSans-31" x="140.625"/>
     <use xlink:href="#DejaVuSans-31" x="204.248047"/>
     <use xlink:href="#DejaVuSans-5d" x="267.871094"/>
    </g>
   </g>
   <g id="text_3">
    <!-- D [13] -->
    <g transform="translate(255.426506 38.483934) scale(0.1 -0.1)">
     <defs>
      <path id="DejaVuSans-44" d="M 1259 4147 
L 1259 519 
L 2022 519 
Q 2988 519 3436 956 
Q 3884 1394 3884 2338 
Q 3884 3275 3436 3711 
Q 2988 4147 2022 4147 
L 1259 4147 
z
M 628 4666 
L 1925 4666 
Q 3281 4666 3915 4102 
Q 4550 3538 4550 2338 
Q 4550 1131 3912 565 
Q 3275 0 1925 0 
L 628 0 
L 628 4666 
z
" transform="scale(0.015625)"/>
     </defs>
     <use xlink:href="#DejaVuSans-44"/>
     <use xlink:href="#DejaVuSans-20" x="77.001953"/>
     <use xlink:href="#DejaVuSans-5b" x="108.789062"/>
     <use xlink:href="#DejaVuSans-31" x="147.802734"/>
     <use xlink:href="#DejaVuSans-33" x="211.425781"/>
     <use xlink:href="#DejaVuSans-5d" x="275.048828"/>
    </g>
   </g>
   <g id="text_4">
    <!-- E [13] -->
    <g transform="translate(227.34065 23.850487) scale(0.1 -0.1)">
     <defs>
      <path id="DejaVuSans-45" d="M 628 4666 
L 3578 4666 
L 3578 4134 
L 1259 4134 
L 1259 2753 
L 3481 2753 
L 3481 2222 
L 1259 2222 
L 1259 531 
L 3634 531 
L 3634 0 
L 628 0 
L 628 4666 
z
" transform="scale(0.015625)"/>
     </defs>
     <use xlink:href="#DejaVuSans-45"/>
     <use xlink:href="#DejaVuSans-20" x="63.183594"/>
     <use xlink:href="#DejaVuSans-5b" x="94.970703"/>
     <use xlink:href="#DejaVuSans-31" x="133.984375"/>
     <use xlink:href="#DejaVuSans-33" x="197.607422"/>
     <use xlink:href="#DejaVuSans-5d" x="261.230469"/>
    </g>
   </g>
   <g id="text_5">
    <!-- F [21] -->
    <g transform="translate(186.991762 14.798437) scale(0.1 -0.1)">
     <defs>
      <path id="DejaVuSans-46" d="M 628 4666 
L 3309 4666 
L 3309 4134 
L 1259 4134 
L 1259 2759 
L 3109 2759 
L 3109 2228 
L 1259 2228 
L 1259 0 
L 628 0 
L 628 4666 
z
" transform="scale(0.015625)"/>
      <path id="DejaVuSans-32" d="M 1228 531 
L 3431 531 
L 3431 0 
L 469 0 
L 469 531 
Q 828 903 1448 1529 
Q 2069 2156 2228 2338 
Q 2531 2678 2651 2914 
Q 2772 3150 2772 3378 
Q 2772 3750 2511 3984 
Q 2250 4219 1831 4219 
Q 1534 4219 1204 4116 
Q 875 4013 500 3803 
L 500 4441 
Q 881 4594 1212 4672 
Q 1544 4750 1819 4750 
Q 2544 4750 2975 4387 
Q 3406 4025 3406 3419 
Q 3406 3131 3298 2873 
Q 3191 2616 2906 2266 
Q 2828 2175 2409 1742 
Q 1991 1309 1228 531 
z
" transform="scale(0.015625)"/>
     </defs>
     <use xlink:href="#DejaVuSans-46"/>
     <use xlink:href="#DejaVuSans-20" x="57.519531"/>
     <use xlink:href="#DejaVuSans-5b" x="89.306641"/>
     <use xlink:href="#DejaVuSans-32" x="128.320312"/>
     <use xlink:href="#DejaVuSans-31" x="191.943359"/>
     <use xlink:href="#DejaVuSans-5d" x="255.566406"/>
    </g>
   </g>
   <g id="text_6">
    <!-- G [17] -->
    <g transform="translate(109.552454 18.988715) scale(0.1 -0.1)">
     <defs>
      <path id="DejaVuSans-47" d="M 3809 666 
L 3809 1919 
L 2778 1919 
L 2778 2438 
L 4434 2438 
L 4434 434 
Q 4069 175 3628 42 
Q 3188 -91 2688 -91 
Q 1594 -91 976 548 
Q 359 1188 359 2328 
Q 359 3472 976 4111 
Q 1594 4750 2688 4750 
Q 3144 4750 3555 4637 
Q 3966 4525 4313 4306 
L 4313 3634 
Q 3963 3931 3569 4081 
Q 3175 4231 2741 4231 
Q 1884 4231 1454 3753 
Q 1025 3275 1025 2328 
Q 1025 1384 1454 906 
Q 1884 428 2741 428 
Q 3075 428 3337 486 
Q 3600 544 3809 666 
z
" transform="scale(0.015625)"/>
      <path id="DejaVuSans-37" d="M 525 4666 
L 3525 4666 
L 3525 4397 
L 1831 0 
L 1172 0 
L 2766 4134 
L 525 4134 
L 525 4666 
z
" transform="scale(0.015625)"/>
     </defs>
     <use xlink:href="#DejaVuSans-47"/>
     <use xlink:href="#DejaVuSans-20" x="77.490234"/>
     <use xlink:href="#DejaVuSans-5b" x="109.277344"/>
     <use xlink:href="#DejaVuSans-31" x="148.291016"/>
     <use xlink:href="#DejaVuSans-37" x="211.914062"/>
     <use xlink:href="#DejaVuSans-5d" x="275.537109"/>
    </g>
   </g>
   <g id="text_7">
    <!-- H [11] -->
    <g transform="translate(78.074229 31.523105) scale(0.1 -0.1)">
     <defs>
      <path id="DejaVuSans-48" d="M 628 4666 
L 1259 4666 
L 1259 2753 
L 3553 2753 
L 3553 4666 
L 4184 4666 
L 4184 0 
L 3553 0 
L 3553 2222 
L 1259 2222 
L 1259 0 
L 628 0 
L 628 4666 
z
" transform="scale(0.015625)"/>
     </defs>
     <use xlink:href="#DejaVuSans-48"/>
     <use xlink:href="#DejaVuSans-20" x="75.195312"/>
     <use xlink:href="#DejaVuSans-5b" x="106.982422"/>
     <use xlink:href="#DejaVuSans-31" x="145.996094"/>
     <use xlink:href="#DejaVuSans-31" x="209.619141"/>
     <use xlink:href="#DejaVuSans-5d" x="273.242188"/>
    </g>
   </g>
   <g id="text_8">
    <!-- I [15] -->
    <g transform="translate(56.689365 49.669232) scale(0.1 -0.1)">
     <defs>
      <path id="DejaVuSans-49" d="M 628 4666 
L 1259 4666 
L 1259 0 
L 628 0 
L 628 4666 
z
" transform="scale(0.015625)"/>
      <path id="DejaVuSans-35" d="M 691 4666 
L 3169 4666 
L 3169 4134 
L 1269 4134 
L 1269 2991 
Q 1406 3038 1543 3061 
Q 1681 3084 1819 3084 
Q 2600 3084 3056 2656 
Q 3513 2228 3513 1497 
Q 3513 744 3044 326 
Q 2575 -91 1722 -91 
Q 1428 -91 1123 -41 
Q 819 9 494 109 
L 494 744 
Q 775 591 1075 516 
Q 1375 441 1709 441 
Q 2250 441 2565 725 
Q 2881 1009 2881 1497 
Q 2881 1984 2565 2268 
Q 2250 2553 1709 2553 
Q 1456 2553 1204 2497 
Q 953 2441 691 2322 
L 691 4666 
z
" transform="scale(0.015625)"/>
     </defs>
     <use xlink:href="#DejaVuSans-49"/>
     <use xlink:href="#DejaVuSans-20" x="29.492188"/>
     <use xlink:href="#DejaVuSans-5b" x="61.279297"/>
     <use xlink:href="#DejaVuSans-31" x="100.292969"/>
     <use xlink:href="#DejaVuSans-35" x="163.916016"/>
     <use xlink:href="#DejaVuSans-5d" x="227.539062"/>
    </g>
   </g>
   <g id="text_9">
    <!-- K [11] -->
    <g transform="translate(31.829531 73.149109) scale(0.1 -0.1)">
     <defs>
      <path id="DejaVuSans-4b" d="M 628 4666 
L 1259 4666 
L 1259 2694 
L 3353 4666 
L 4166 4666 
L 1850 2491 
L 4331 0 
L 3500 0 
L 1259 2247 
L 1259 0 
L 628 0 
L 628 4666 
z
" transform="scale(0.015625)"/>
     </defs>
     <use xlink:href="#DejaVuSans-4b"/>
     <use xlink:href="#DejaVuSans-20" x="65.576172"/>
     <use xlink:href="#DejaVuSans-5b" x="97.363281"/>
     <use xlink:href="#DejaVuSans-31" x="136.376953"/>
     <use xlink:href="#DejaVuSans-31" x="200"/>
     <use xlink:href="#DejaVuSans-5d" x="263.623047"/>
    </g>
   </g>
   <g id="text_10">
    <!-- L [48] -->
    <g transform="translate(7.2 139.621624) scale(0.1 -0.1)">
     <defs>
      <path id="DejaVuSans-4c" d="M 628 4666 
L 1259 4666 
L 1259 531 
L 3531 531 
L 3531 0 
L 628 0 
L 628 4666 
z
" transform="scale(0.015625)"/>
      <path id="DejaVuSans-34" d="M 2419 4116 
L 825 1625 
L 2419 1625 
L 2419 4116 
z
M 2253 4666 
L 3047 4666 
L 3047 1625 
L 3713 1625 
L 3713 1100 
L 3047 1100 
L 3047 0 
L 2419 0 
L 2419 1100 
L 313 1100 
L 313 1709 
L 2253 4666 
z
" transform="scale(0.015625)"/>
      <path id="DejaVuSans-38" d="M 2034 2216 
Q 1584 2216 1326 1975 
Q 1069 1734 1069 1313 
Q 1069 891 1326 650 
Q 1584 409 2034 409 
Q 2484 409 2743 651 
Q 3003 894 3003 1313 
Q 3003 1734 2745 1975 
Q 2488 2216 2034 2216 
z
M 1403 2484 
Q 997 2584 770 2862 
Q 544 3141 544 3541 
Q 544 4100 942 4425 
Q 1341 4750 2034 4750 
Q 2731 4750 3128 4425 
Q 3525 4100 3525 3541 
Q 3525 3141 3298 2862 
Q 3072 2584 2669 2484 
Q 3125 2378 3379 2068 
Q 3634 1759 3634 1313 
Q 3634 634 3220 271 
Q 2806 -91 2034 -91 
Q 1263 -91 848 271 
Q 434 634 434 1313 
Q 434 1759 690 2068 
Q 947 2378 1403 2484 
z
M 1172 3481 
Q 1172 3119 1398 2916 
Q 1625 2713 2034 2713 
Q 2441 2713 2670 2916 
Q 2900 3119 2900 3481 
Q 2900 3844 2670 4047 
Q 2441 4250 2034 4250 
Q 1625 4250 1398 4047 
Q 1172 3844 1172 3481 
z
" transform="scale(0.015625)"/>
     </defs>
     <use xlink:href="#DejaVuSans-4c"/>
     <use xlink:href="#DejaVuSans-20" x="55.712891"/>
     <use xlink:href="#DejaVuSans-5b" x="87.5"/>
     <use xlink:href="#DejaVuSans-34" x="126.513672"/>
     <use xlink:href="#DejaVuSans-38" x="190.136719"/>
     <use xlink:href="#DejaVuSans-5d" x="253.759766"/>
    </g>
   </g>
   <g id="text_11">
    <!-- M [9] -->
    <g transform="translate(19.717474 207.875374) scale(0.1 -0.1)">
     <defs>
      <path id="DejaVuSans-4d" d="M 628 4666 
L 1569 4666 
L 2759 1491 
L 3956 4666 
L 4897 4666 
L 4897 0 
L 4281 0 
L 4281 4097 
L 3078 897 
L 2444 897 
L 1241 4097 
L 1241 0 
L 628 0 
L 628 4666 
z
" transform="scale(0.015625)"/>
     </defs>
     <use xlink:href="#DejaVuSans-4d"/>
     <use xlink:href="#DejaVuSans-20" x="86.279297"/>
     <use xlink:href="#DejaVuSans-5b" x="118.066406"/>
     <use xlink:href="#DejaVuSans-39" x="157.080078"/>
     <use xlink:href="#DejaVuSans-5d" x="220.703125"/>
    </g>
   </g>
   <g id="text_12">
    <!-- N [14] -->
    <g transform="translate(27.452764 232.731965) scale(0.1 -0.1)">
     <defs>
      <path id="DejaVuSans-4e" d="M 628 4666 
L 1478 4666 
L 3547 763 
L 3547 4666 
L 4159 4666 
L 4159 0 
L 3309 0 
L 1241 3903 
L 1241 0 
L 628 0 
L 628 4666 
z
" transform="scale(0.015625)"/>
     </defs>
     <use xlink:href="#DejaVuSans-4e"/>
     <use xlink:href="#DejaVuSans-20" x="74.804688"/>
     <use xlink:href="#DejaVuSans-5b" x="106.591797"/>
     <use xlink:href="#DejaVuSans-31" x="145.605469"/>
     <use xlink:href="#DejaVuSans-34" x="209.228516"/>
     <use xlink:href="#DejaVuSans-5d" x="272.851562"/>
    </g>
   </g>
   <g id="text_13">
    <!-- P [18] -->
    <g transform="translate(54.52869 262.046778) scale(0.1 -0.1)">
     <defs>
      <path id="DejaVuSans-50" d="M 1259 4147 
L 1259 2394 
L 2053 2394 
Q 2494 2394 2734 2622 
Q 2975 2850 2975 3272 
Q 2975 3691 2734 3919 
Q 2494 4147 2053 4147 
L 1259 4147 
z
M 628 4666 
L 2053 4666 
Q 2838 4666 3239 4311 
Q 3641 3956 3641 3272 
Q 3641 2581 3239 2228 
Q 2838 1875 2053 1875 
L 1259 1875 
L 1259 0 
L 628 0 
L 628 4666 
z
" transform="scale(0.015625)"/>
     </defs>
     <use xlink:href="#DejaVuSans-50"/>
     <use xlink:href="#DejaVuSans-20" x="60.302734"/>
     <use xlink:href="#DejaVuSans-5b" x="92.089844"/>
     <use xlink:href="#DejaVuSans-31" x="131.103516"/>
     <use xlink:href="#DejaVuSans-38" x="194.726562"/>
     <use xlink:href="#DejaVuSans-5d" x="258.349609"/>
    </g>
   </g>
   <g id="text_14">
    <!-- Q [8] -->
    <g transform="translate(85.160249 279.9676) scale(0.1 -0.1)">
     <defs>
      <path id="DejaVuSans-51" d="M 2522 4238 
Q 1834 4238 1429 3725 
Q 1025 3213 1025 2328 
Q 1025 1447 1429 934 
Q 1834 422 2522 422 
Q 3209 422 3611 934 
Q 4013 1447 4013 2328 
Q 4013 3213 3611 3725 
Q 3209 4238 2522 4238 
z
M 3406 84 
L 4238 -825 
L 3475 -825 
L 2784 -78 
Q 2681 -84 2626 -87 
Q 2572 -91 2522 -91 
Q 1538 -91 948 567 
Q 359 1225 359 2328 
Q 359 3434 948 4092 
Q 1538 4750 2522 4750 
Q 3503 4750 4090 4092 
Q 4678 3434 4678 2328 
Q 4678 1516 4351 937 
Q 4025 359 3406 84 
z
" transform="scale(0.015625)"/>
     </defs>
     <use xlink:href="#DejaVuSans-51"/>
     <use xlink:href="#DejaVuSans-20" x="78.710938"/>
     <use xlink:href="#DejaVuSans-5b" x="110.498047"/>
     <use xlink:href="#DejaVuSans-38" x="149.511719"/>
     <use xlink:href="#DejaVuSans-5d" x="213.134766"/>
    </g>
   </g>
   <g id="text_15">
    <!-- R [24] -->
    <g transform="translate(116.289257 293.337057) scale(0.1 -0.1)">
     <defs>
      <path id="DejaVuSans-52" d="M 2841 2188 
Q 3044 2119 3236 1894 
Q 3428 1669 3622 1275 
L 4263 0 
L 3584 0 
L 2988 1197 
Q 2756 1666 2539 1819 
Q 2322 1972 1947 1972 
L 1259 1972 
L 1259 0 
L 628 0 
L 628 4666 
L 2053 4666 
Q 2853 4666 3247 4331 
Q 3641 3997 3641 3322 
Q 3641 2881 3436 2590 
Q 3231 2300 2841 2188 
z
M 1259 4147 
L 1259 2491 
L 2053 2491 
Q 2509 2491 2742 2702 
Q 2975 2913 2975 3322 
Q 2975 3731 2742 3939 
Q 2509 4147 2053 4147 
L 1259 4147 
z
" transform="scale(0.015625)"/>
     </defs>
     <use xlink:href="#DejaVuSans-52"/>
     <use xlink:href="#DejaVuSans-20" x="69.482422"/>
     <use xlink:href="#DejaVuSans-5b" x="101.269531"/>
     <use xlink:href="#DejaVuSans-32" x="140.283203"/>
     <use xlink:href="#DejaVuSans-34" x="203.90625"/>
     <use xlink:href="#DejaVuSans-5d" x="267.529297"/>
    </g>
   </g>
   <g id="text_16">
    <!-- S [25] -->
    <g transform="translate(206.307581 293.33706) scale(0.1 -0.1)">
     <defs>
      <path id="DejaVuSans-53" d="M 3425 4513 
L 3425 3897 
Q 3066 4069 2747 4153 
Q 2428 4238 2131 4238 
Q 1616 4238 1336 4038 
Q 1056 3838 1056 3469 
Q 1056 3159 1242 3001 
Q 1428 2844 1947 2747 
L 2328 2669 
Q 3034 2534 3370 2195 
Q 3706 1856 3706 1288 
Q 3706 609 3251 259 
Q 2797 -91 1919 -91 
Q 1588 -91 1214 -16 
Q 841 59 441 206 
L 441 856 
Q 825 641 1194 531 
Q 1563 422 1919 422 
Q 2459 422 2753 634 
Q 3047 847 3047 1241 
Q 3047 1584 2836 1778 
Q 2625 1972 2144 2069 
L 1759 2144 
Q 1053 2284 737 2584 
Q 422 2884 422 3419 
Q 422 4038 858 4394 
Q 1294 4750 2059 4750 
Q 2388 4750 2728 4690 
Q 3069 4631 3425 4513 
z
" transform="scale(0.015625)"/>
     </defs>
     <use xlink:href="#DejaVuSans-53"/>
     <use xlink:href="#DejaVuSans-20" x="63.476562"/>
     <use xlink:href="#DejaVuSans-5b" x="95.263672"/>
     <use xlink:href="#DejaVuSans-32" x="134.277344"/>
     <use xlink:href="#DejaVuSans-35" x="197.900391"/>
     <use xlink:href="#DejaVuSans-5d" x="261.523438"/>
    </g>
   </g>
   <g id="text_17">
    <!-- T [12] -->
    <g transform="translate(248.199883 276.985139) scale(0.1 -0.1)">
     <defs>
      <path id="DejaVuSans-54" d="M -19 4666 
L 3928 4666 
L 3928 4134 
L 2272 4134 
L 2272 0 
L 1638 0 
L 1638 4134 
L -19 4134 
L -19 4666 
z
" transform="scale(0.015625)"/>
     </defs>
     <use xlink:href="#DejaVuSans-54"/>
     <use xlink:href="#DejaVuSans-20" x="61.083984"/>
     <use xlink:href="#DejaVuSans-5b" x="92.871094"/>
     <use xlink:href="#DejaVuSans-31" x="131.884766"/>
     <use xlink:href="#DejaVuSans-32" x="195.507812"/>
     <use xlink:href="#DejaVuSans-5d" x="259.130859"/>
    </g>
   </g>
   <g id="text_18">
    <!-- V [29] -->
    <g transform="translate(285.964571 244.546906) scale(0.1 -0.1)">
     <defs>
      <path id="DejaVuSans-56" d="M 1831 0 
L 50 4666 
L 709 4666 
L 2188 738 
L 3669 4666 
L 4325 4666 
L 2547 0 
L 1831 0 
z
" transform="scale(0.015625)"/>
     </defs>
     <use xlink:href="#DejaVuSans-56"/>
     <use xlink:href="#DejaVuSans-20" x="68.408203"/>
     <use xlink:href="#DejaVuSans-5b" x="100.195312"/>
     <use xlink:href="#DejaVuSans-32" x="139.208984"/>
     <use xlink:href="#DejaVuSans-39" x="202.832031"/>
     <use xlink:href="#DejaVuSans-5d" x="266.455078"/>
    </g>
   </g>
   <g id="text_19">
    <!-- W [10] -->
    <g transform="translate(309.29802 203.312123) scale(0.1 -0.1)">
     <defs>
      <path id="DejaVuSans-57" d="M 213 4666 
L 850 4666 
L 1831 722 
L 2809 4666 
L 3519 4666 
L 4500 722 
L 5478 4666 
L 6119 4666 
L 4947 0 
L 4153 0 
L 3169 4050 
L 2175 0 
L 1381 0 
L 213 4666 
z
" transform="scale(0.015625)"/>
      <path id="DejaVuSans-30" d="M 2034 4250 
Q 1547 4250 1301 3770 
Q 1056 3291 1056 2328 
Q 1056 1369 1301 889 
Q 1547 409 2034 409 
Q 2525 409 2770 889 
Q 3016 1369 3016 2328 
Q 3016 3291 2770 3770 
Q 2525 4250 2034 4250 
z
M 2034 4750 
Q 2819 4750 3233 4129 
Q 3647 3509 3647 2328 
Q 3647 1150 3233 529 
Q 2819 -91 2034 -91 
Q 1250 -91 836 529 
Q 422 1150 422 2328 
Q 422 3509 836 4129 
Q 1250 4750 2034 4750 
z
" transform="scale(0.015625)"/>
     </defs>
     <use xlink:href="#DejaVuSans-57"/>
     <use xlink:href="#DejaVuSans-20" x="98.876953"/>
     <use xlink:href="#DejaVuSans-5b" x="130.664062"/>
     <use xlink:href="#DejaVuSans-31" x="169.677734"/>
     <use xlink:href="#DejaVuSans-30" x="233.300781"/>
     <use xlink:href="#DejaVuSans-5d" x="296.923828"/>
    </g>
   </g>
   <g id="text_20">
    <!-- Y [15] -->
    <g transform="translate(316.478351 173.714407) scale(0.1 -0.1)">
     <defs>
      <path id="DejaVuSans-59" d="M -13 4666 
L 666 4666 
L 1959 2747 
L 3244 4666 
L 3922 4666 
L 2272 2222 
L 2272 0 
L 1638 0 
L 1638 2222 
L -13 4666 
z
" transform="scale(0.015625)"/>
     </defs>
     <use xlink:href="#DejaVuSans-59"/>
     <use xlink:href="#DejaVuSans-20" x="61.083984"/>
     <use xlink:href="#DejaVuSans-5b" x="92.871094"/>
     <use xlink:href="#DejaVuSans-31" x="131.884766"/>
     <use xlink:href="#DejaVuSans-35" x="195.507812"/>
     <use xlink:href="#DejaVuSans-5d" x="259.130859"/>
    </g>
   </g>
   <g id="text_21">
    <!-- A0A8C0S0P7 [363] -->
    <g transform="translate(119.671708 152.696971) scale(0.12 -0.12)">
     <defs>
      <path id="DejaVuSans-36" d="M 2113 2584 
Q 1688 2584 1439 2293 
Q 1191 2003 1191 1497 
Q 1191 994 1439 701 
Q 1688 409 2113 409 
Q 2538 409 2786 701 
Q 3034 994 3034 1497 
Q 3034 2003 2786 2293 
Q 2538 2584 2113 2584 
z
M 3366 4563 
L 3366 3988 
Q 3128 4100 2886 4159 
Q 2644 4219 2406 4219 
Q 1781 4219 1451 3797 
Q 1122 3375 1075 2522 
Q 1259 2794 1537 2939 
Q 1816 3084 2150 3084 
Q 2853 3084 3261 2657 
Q 3669 2231 3669 1497 
Q 3669 778 3244 343 
Q 2819 -91 2113 -91 
Q 1303 -91 875 529 
Q 447 1150 447 2328 
Q 447 3434 972 4092 
Q 1497 4750 2381 4750 
Q 2619 4750 2861 4703 
Q 3103 4656 3366 4563 
z
" transform="scale(0.015625)"/>
     </defs>
     <use xlink:href="#DejaVuSans-41"/>
     <use xlink:href="#DejaVuSans-30" x="68.408203"/>
     <use xlink:href="#DejaVuSans-41" x="132.03125"/>
     <use xlink:href="#DejaVuSans-38" x="200.439453"/>
     <use xlink:href="#DejaVuSans-43" x="264.0625"/>
     <use xlink:href="#DejaVuSans-30" x="333.886719"/>
     <use xlink:href="#DejaVuSans-53" x="397.509766"/>
     <use xlink:href="#DejaVuSans-30" x="460.986328"/>
     <use xlink:href="#DejaVuSans-50" x="524.609375"/>
     <use xlink:href="#DejaVuSans-37" x="584.912109"/>
     <use xlink:href="#DejaVuSans-20" x="648.535156"/>
     <use xlink:href="#DejaVuSans-5b" x="680.322266"/>
     <use xlink:href="#DejaVuSans-33" x="719.335938"/>
     <use xlink:href="#DejaVuSans-36" x="782.958984"/>
     <use xlink:href="#DejaVuSans-33" x="846.582031"/>
     <use xlink:href="#DejaVuSans-5d" x="910.205078"/>
    </g>
   </g>
  </g>
 </g>
</svg>
