<?xml version="1.0" encoding="utf-8" standalone="no"?>
<!DOCTYPE svg PUBLIC "-//W3C//DTD SVG 1.1//EN"
  "http://www.w3.org/Graphics/SVG/1.1/DTD/svg11.dtd">
<svg xmlns:xlink="http://www.w3.org/1999/xlink" width="355.054758pt" height="305.009012pt" viewBox="0 0 355.054758 305.009012" xmlns="http://www.w3.org/2000/svg" version="1.1">
 <metadata>
  <rdf:RDF xmlns:dc="http://purl.org/dc/elements/1.1/" xmlns:cc="http://creativecommons.org/ns#" xmlns:rdf="http://www.w3.org/1999/02/22-rdf-syntax-ns#">
   <cc:Work>
    <dc:type rdf:resource="http://purl.org/dc/dcmitype/StillImage"/>
    <dc:date>2024-09-27T16:07:37.651341</dc:date>
    <dc:format>image/svg+xml</dc:format>
    <dc:creator>
     <cc:Agent>
      <dc:title>Matplotlib v3.8.3, https://matplotlib.org/</dc:title>
     </cc:Agent>
    </dc:creator>
   </cc:Work>
  </rdf:RDF>
 </metadata>
 <defs>
  <style type="text/css">*{stroke-linejoin: round; stroke-linecap: butt}</style>
 </defs>
 <g id="figure_1">
  <g id="patch_1">
   <path d="M -0 305.009012 
L 355.054758 305.009012 
L 355.054758 0 
L -0 0 
z
" style="fill: #ffffff"/>
  </g>
  <g id="axes_1">
   <g id="patch_2">
    <path d="M 305.536071 152.885034 
C 305.536071 140.205627 303.648152 127.596594 299.934493 115.473223 
C 296.220834 103.349853 290.72266 91.846721 283.621057 81.342693 
L 177.802311 152.885034 
z
" style="fill: #1f77b4"/>
   </g>
   <g id="patch_3">
    <path d="M 283.504083 81.13848 
C 279.958162 75.893686 276.027214 70.919767 271.743752 66.257861 
C 267.460289 61.595955 262.836154 57.258951 257.909592 53.282721 
L 177.685337 152.680821 
z
" style="fill: #ff7f0e"/>
   </g>
   <g id="patch_4">
    <path d="M 257.810102 53.198122 
C 254.583201 50.593689 251.231387 48.147939 247.766569 45.869564 
C 244.301751 43.591188 240.728038 41.482888 237.058129 39.552155 
L 177.585847 152.596222 
z
" style="fill: #aec7e8"/>
   </g>
   <g id="patch_5">
    <path d="M 236.930694 39.490844 
C 230.554106 36.136132 223.905086 33.326963 217.054815 31.093409 
C 210.204544 28.859856 203.177554 27.209916 196.04907 26.161255 
L 177.458412 152.534911 
z
" style="fill: #ffbb78"/>
   </g>
   <g id="patch_6">
    <path d="M 195.896358 26.135179 
C 190.713459 25.372729 185.48856 24.929847 180.251273 24.809042 
C 175.013986 24.688236 169.774223 24.889737 164.561681 25.412401 
L 177.3057 152.508834 
z
" style="fill: #98df8a"/>
   </g>
   <g id="patch_7">
    <path d="M 164.36638 25.44472 
C 153.713501 26.512889 143.237058 28.916176 133.183747 32.59799 
C 123.130435 36.279803 113.579791 41.211014 104.756709 47.275504 
L 177.110399 152.541154 
z
" style="fill: #2ca02c"/>
   </g>
   <g id="patch_8">
    <path d="M 104.618361 47.351027 
C 102.999846 48.463503 101.407204 49.613159 99.841705 50.799079 
C 98.276207 51.984998 96.738267 53.206865 95.229114 54.463706 
L 176.972051 152.616677 
z
" style="fill: #d62728"/>
   </g>
   <g id="patch_9">
    <path d="M 95.15309 54.533918 
C 90.288242 58.58542 85.731331 62.993004 81.520048 67.720213 
C 77.308765 72.447423 73.454751 77.481189 69.989884 82.779879 
L 176.896027 152.686889 
z
" style="fill: #9467bd"/>
   </g>
   <g id="patch_10">
    <path d="M 69.916904 82.8849 
C 67.766904 86.172813 65.769729 89.558161 63.931748 93.030148 
C 62.093767 96.502135 60.416936 100.057066 58.906604 103.683602 
L 176.823047 152.79191 
z
" style="fill: #ff9896"/>
   </g>
   <g id="patch_11">
    <path d="M 58.845606 103.902621 
C 53.295537 117.229172 50.044604 131.400679 49.231209 145.813819 
C 48.417814 160.226959 50.053666 174.674249 54.069122 188.540623 
L 176.762049 153.010929 
z
" style="fill: #c5b0d5"/>
   </g>
   <g id="patch_12">
    <path d="M 54.098433 188.74722 
C 54.766133 191.052954 55.498696 193.339408 56.29525 195.603857 
C 57.091805 197.868306 57.952033 200.109852 58.874912 202.325822 
L 176.79136 153.217527 
z
" style="fill: #c49c94"/>
   </g>
   <g id="patch_13">
    <path d="M 58.906598 202.39822 
C 60.416931 206.024756 62.093761 209.579687 63.931742 213.051674 
C 65.769722 216.523661 67.766897 219.90901 69.916896 223.196923 
L 176.823047 153.289924 
z
" style="fill: #8c564b"/>
   </g>
   <g id="patch_14">
    <path d="M 70.020209 223.333304 
C 75.400202 231.560725 81.712021 239.139653 88.830229 245.919468 
C 95.948437 252.699284 103.825566 258.634775 112.305069 263.607983 
L 176.92636 153.426305 
z
" style="fill: #e377c2"/>
   </g>
   <g id="patch_15">
    <path d="M 112.44385 263.703373 
C 115.644182 265.580361 118.924774 267.317022 122.276292 268.908417 
C 125.62781 270.499811 129.047073 271.944429 132.524353 273.238159 
L 177.06514 153.521695 
z
" style="fill: #7f7f7f"/>
   </g>
   <g id="patch_16">
    <path d="M 132.685988 273.285415 
C 141.899282 276.713242 151.477561 279.066067 161.230471 280.297131 
C 170.983382 281.528196 180.845886 281.629289 190.621982 280.598404 
L 177.226776 153.568951 
z
" style="fill: #f7b6d2"/>
   </g>
   <g id="patch_17">
    <path d="M 190.869098 280.571064 
C 201.080712 279.494254 211.12533 277.190027 220.785264 273.708323 
C 230.445198 270.226618 239.650156 265.59277 248.200649 259.907204 
L 177.473891 153.541612 
z
" style="fill: #c7c7c7"/>
   </g>
   <g id="patch_18">
    <path d="M 248.393134 259.786208 
C 255.121288 255.312388 261.409805 250.210258 267.174095 244.548448 
C 272.938385 238.886638 278.152488 232.690647 282.746268 226.04382 
L 177.666376 153.420616 
z
" style="fill: #dbdb8d"/>
   </g>
   <g id="patch_19">
    <path d="M 282.852328 225.896096 
C 286.576061 220.508157 289.879888 214.841788 292.734568 208.947139 
C 295.589248 203.05249 297.986335 196.947003 299.904615 190.684712 
L 177.772436 153.272893 
z
" style="fill: #bcbd22"/>
   </g>
   <g id="patch_20">
    <path d="M 299.942465 190.579699 
C 300.645535 188.284503 301.283765 185.969945 301.856397 183.638781 
C 302.429028 181.307618 302.935832 178.960775 303.376205 176.60105 
L 177.810286 153.167879 
z
" style="fill: #17becf"/>
   </g>
   <g id="patch_21">
    <path d="M 303.389307 176.523116 
C 304.109997 172.661319 304.652149 168.76833 305.014033 164.856565 
C 305.375917 160.944799 305.557148 157.018421 305.557148 153.089952 
L 177.823388 153.089944 
z
" style="fill: #9edae5"/>
   </g>
   <g id="patch_22">
    <path d="M 251.804787 153.040917 
C 251.804787 145.644596 250.703501 138.289326 248.5372 131.21736 
C 246.370899 124.145394 243.16363 117.435234 239.021029 111.307885 
L 177.293427 153.040917 
z
" style="fill: #ffffff"/>
   </g>
   <g id="patch_23">
    <path d="M 239.021029 111.307885 
C 236.952575 108.248421 234.659522 105.346968 232.160836 102.627523 
C 229.662149 99.908078 226.964737 97.378159 224.090909 95.058692 
L 177.293427 153.040917 
z
" style="fill: #ffffff"/>
   </g>
   <g id="patch_24">
    <path d="M 224.090909 95.058692 
C 222.20855 93.539439 220.253325 92.112752 218.232182 90.783699 
C 216.211038 89.454647 214.126372 88.224805 211.985592 87.098544 
L 177.293427 153.040917 
z
" style="fill: #ffffff"/>
   </g>
   <g id="patch_25">
    <path d="M 211.985592 87.098544 
C 208.265915 85.141629 204.38732 83.502947 200.391329 82.200041 
C 196.395338 80.897135 192.29626 79.93467 188.137978 79.322951 
L 177.293427 153.040917 
z
" style="fill: #ffffff"/>
   </g>
   <g id="patch_26">
    <path d="M 188.137978 79.322951 
C 185.11462 78.878189 182.066762 78.619841 179.011678 78.549371 
C 175.956593 78.478901 172.900065 78.596443 169.859416 78.901331 
L 177.293427 153.040917 
z
" style="fill: #ffffff"/>
   </g>
   <g id="patch_27">
    <path d="M 169.859416 78.901331 
C 163.645236 79.524429 157.533978 80.926347 151.669546 83.074071 
C 145.805115 85.221795 140.233906 88.098335 135.087108 91.635955 
L 177.293427 153.040917 
z
" style="fill: #ffffff"/>
   </g>
   <g id="patch_28">
    <path d="M 135.087108 91.635955 
C 134.142974 92.284899 133.213933 92.955532 132.300726 93.647318 
C 131.387518 94.339104 130.490387 95.05186 129.610047 95.785017 
L 177.293427 153.040917 
z
" style="fill: #ffffff"/>
   </g>
   <g id="patch_29">
    <path d="M 129.610047 95.785017 
C 126.772219 98.148393 124.114021 100.719484 121.657439 103.477023 
C 119.200857 106.234561 116.952683 109.170925 114.93151 112.261828 
L 177.293427 153.040917 
z
" style="fill: #ffffff"/>
   </g>
   <g id="patch_30">
    <path d="M 114.93151 112.261828 
C 113.677344 114.179777 112.512325 116.154564 111.44017 118.179889 
C 110.368014 120.205215 109.389863 122.278925 108.508835 124.394404 
L 177.293427 153.040917 
z
" style="fill: #ffffff"/>
   </g>
   <g id="patch_31">
    <path d="M 108.508835 124.394404 
C 105.271295 132.168225 103.374918 140.434938 102.900437 148.842603 
C 102.425957 157.250268 103.380204 165.677854 105.722553 173.766572 
L 177.293427 153.040917 
z
" style="fill: #ffffff"/>
   </g>
   <g id="patch_32">
    <path d="M 105.722553 173.766572 
C 106.112044 175.111583 106.539373 176.445347 107.00403 177.766276 
C 107.468686 179.087205 107.970487 180.394773 108.508832 181.687423 
L 177.293427 153.040917 
z
" style="fill: #ffffff"/>
   </g>
   <g id="patch_33">
    <path d="M 108.508832 181.687423 
C 109.389859 183.802902 110.36801 185.876612 111.440166 187.901937 
C 112.512321 189.927263 113.67734 191.90205 114.931506 193.819999 
L 177.293427 153.040917 
z
" style="fill: #ffffff"/>
   </g>
   <g id="patch_34">
    <path d="M 114.931506 193.819999 
C 118.069835 198.619328 121.75173 203.04037 125.904018 206.995262 
C 130.056306 210.950154 134.651297 214.412524 139.597674 217.313563 
L 177.293427 153.040917 
z
" style="fill: #ffffff"/>
   </g>
   <g id="patch_35">
    <path d="M 139.597674 217.313563 
C 141.464535 218.408472 143.378214 219.421524 145.333266 220.349838 
C 147.288318 221.278152 149.282888 222.120845 151.311301 222.875521 
L 177.293427 153.040917 
z
" style="fill: #ffffff"/>
   </g>
   <g id="patch_36">
    <path d="M 151.311301 222.875521 
C 156.685722 224.875087 162.273052 226.247568 167.962249 226.965689 
C 173.651447 227.68381 179.404575 227.742781 185.107298 227.141431 
L 177.293427 153.040917 
z
" style="fill: #ffffff"/>
   </g>
   <g id="patch_37">
    <path d="M 185.107298 227.141431 
C 191.064073 226.513291 196.923433 225.169159 202.558394 223.138165 
C 208.193356 221.107171 213.562915 218.404093 218.550702 215.087512 
L 177.293427 153.040917 
z
" style="fill: #ffffff"/>
   </g>
   <g id="patch_38">
    <path d="M 218.550702 215.087512 
C 222.475459 212.477784 226.14376 209.501541 229.506263 206.198819 
C 232.868766 202.896096 235.910326 199.281768 238.590031 195.404452 
L 177.293427 153.040917 
z
" style="fill: #ffffff"/>
   </g>
   <g id="patch_39">
    <path d="M 238.590031 195.404452 
C 240.762208 192.261487 242.689441 188.956106 244.354671 185.517561 
C 246.019901 182.079015 247.418202 178.517481 248.537198 174.864478 
L 177.293427 153.040917 
z
" style="fill: #ffffff"/>
   </g>
   <g id="patch_40">
    <path d="M 248.537198 174.864478 
C 248.947322 173.525614 249.319624 172.175455 249.653658 170.81561 
C 249.987693 169.455764 250.283329 168.086773 250.540213 166.710267 
L 177.293427 153.040917 
z
" style="fill: #ffffff"/>
   </g>
   <g id="patch_41">
    <path d="M 250.540213 166.710267 
C 250.960616 164.457552 251.276871 162.186642 251.48797 159.904779 
C 251.699069 157.622916 251.804787 155.332528 251.804787 153.040921 
L 177.293427 153.040917 
z
" style="fill: #ffffff"/>
   </g>
   <g id="matplotlib.axis_1"/>
   <g id="matplotlib.axis_2"/>
   <g id="text_1">
    <!-- A [58] -->
    <g transform="translate(312.147711 114.491417) scale(0.1 -0.1)">
     <defs>
      <path id="DejaVuSans-41" d="M 2188 4044 
L 1331 1722 
L 3047 1722 
L 2188 4044 
z
M 1831 4666 
L 2547 4666 
L 4325 0 
L 3669 0 
L 3244 1197 
L 1141 1197 
L 716 0 
L 50 0 
L 1831 4666 
z
" transform="scale(0.015625)"/>
      <path id="DejaVuSans-20" transform="scale(0.015625)"/>
      <path id="DejaVuSans-5b" d="M 550 4863 
L 1875 4863 
L 1875 4416 
L 1125 4416 
L 1125 -397 
L 1875 -397 
L 1875 -844 
L 550 -844 
L 550 4863 
z
" transform="scale(0.015625)"/>
      <path id="DejaVuSans-35" d="M 691 4666 
L 3169 4666 
L 3169 4134 
L 1269 4134 
L 1269 2991 
Q 1406 3038 1543 3061 
Q 1681 3084 1819 3084 
Q 2600 3084 3056 2656 
Q 3513 2228 3513 1497 
Q 3513 744 3044 326 
Q 2575 -91 1722 -91 
Q 1428 -91 1123 -41 
Q 819 9 494 109 
L 494 744 
Q 775 591 1075 516 
Q 1375 441 1709 441 
Q 2250 441 2565 725 
Q 2881 1009 2881 1497 
Q 2881 1984 2565 2268 
Q 2250 2553 1709 2553 
Q 1456 2553 1204 2497 
Q 953 2441 691 2322 
L 691 4666 
z
" transform="scale(0.015625)"/>
      <path id="DejaVuSans-38" d="M 2034 2216 
Q 1584 2216 1326 1975 
Q 1069 1734 1069 1313 
Q 1069 891 1326 650 
Q 1584 409 2034 409 
Q 2484 409 2743 651 
Q 3003 894 3003 1313 
Q 3003 1734 2745 1975 
Q 2488 2216 2034 2216 
z
M 1403 2484 
Q 997 2584 770 2862 
Q 544 3141 544 3541 
Q 544 4100 942 4425 
Q 1341 4750 2034 4750 
Q 2731 4750 3128 4425 
Q 3525 4100 3525 3541 
Q 3525 3141 3298 2862 
Q 3072 2584 2669 2484 
Q 3125 2378 3379 2068 
Q 3634 1759 3634 1313 
Q 3634 634 3220 271 
Q 2806 -91 2034 -91 
Q 1263 -91 848 271 
Q 434 634 434 1313 
Q 434 1759 690 2068 
Q 947 2378 1403 2484 
z
M 1172 3481 
Q 1172 3119 1398 2916 
Q 1625 2713 2034 2713 
Q 2441 2713 2670 2916 
Q 2900 3119 2900 3481 
Q 2900 3844 2670 4047 
Q 2441 4250 2034 4250 
Q 1625 4250 1398 4047 
Q 1172 3844 1172 3481 
z
" transform="scale(0.015625)"/>
      <path id="DejaVuSans-5d" d="M 1947 4863 
L 1947 -844 
L 622 -844 
L 622 -397 
L 1369 -397 
L 1369 4416 
L 622 4416 
L 622 4863 
L 1947 4863 
z
" transform="scale(0.015625)"/>
     </defs>
     <use xlink:href="#DejaVuSans-41"/>
     <use xlink:href="#DejaVuSans-20" x="68.408203"/>
     <use xlink:href="#DejaVuSans-5b" x="100.195312"/>
     <use xlink:href="#DejaVuSans-35" x="139.208984"/>
     <use xlink:href="#DejaVuSans-38" x="202.832031"/>
     <use xlink:href="#DejaVuSans-5d" x="266.455078"/>
    </g>
   </g>
   <g id="text_2">
    <!-- C [29] -->
    <g transform="translate(281.149593 60.37494) scale(0.1 -0.1)">
     <defs>
      <path id="DejaVuSans-43" d="M 4122 4306 
L 4122 3641 
Q 3803 3938 3442 4084 
Q 3081 4231 2675 4231 
Q 1875 4231 1450 3742 
Q 1025 3253 1025 2328 
Q 1025 1406 1450 917 
Q 1875 428 2675 428 
Q 3081 428 3442 575 
Q 3803 722 4122 1019 
L 4122 359 
Q 3791 134 3420 21 
Q 3050 -91 2638 -91 
Q 1578 -91 968 557 
Q 359 1206 359 2328 
Q 359 3453 968 4101 
Q 1578 4750 2638 4750 
Q 3056 4750 3426 4639 
Q 3797 4528 4122 4306 
z
" transform="scale(0.015625)"/>
      <path id="DejaVuSans-32" d="M 1228 531 
L 3431 531 
L 3431 0 
L 469 0 
L 469 531 
Q 828 903 1448 1529 
Q 2069 2156 2228 2338 
Q 2531 2678 2651 2914 
Q 2772 3150 2772 3378 
Q 2772 3750 2511 3984 
Q 2250 4219 1831 4219 
Q 1534 4219 1204 4116 
Q 875 4013 500 3803 
L 500 4441 
Q 881 4594 1212 4672 
Q 1544 4750 1819 4750 
Q 2544 4750 2975 4387 
Q 3406 4025 3406 3419 
Q 3406 3131 3298 2873 
Q 3191 2616 2906 2266 
Q 2828 2175 2409 1742 
Q 1991 1309 1228 531 
z
" transform="scale(0.015625)"/>
      <path id="DejaVuSans-39" d="M 703 97 
L 703 672 
Q 941 559 1184 500 
Q 1428 441 1663 441 
Q 2288 441 2617 861 
Q 2947 1281 2994 2138 
Q 2813 1869 2534 1725 
Q 2256 1581 1919 1581 
Q 1219 1581 811 2004 
Q 403 2428 403 3163 
Q 403 3881 828 4315 
Q 1253 4750 1959 4750 
Q 2769 4750 3195 4129 
Q 3622 3509 3622 2328 
Q 3622 1225 3098 567 
Q 2575 -91 1691 -91 
Q 1453 -91 1209 -44 
Q 966 3 703 97 
z
M 1959 2075 
Q 2384 2075 2632 2365 
Q 2881 2656 2881 3163 
Q 2881 3666 2632 3958 
Q 2384 4250 1959 4250 
Q 1534 4250 1286 3958 
Q 1038 3666 1038 3163 
Q 1038 2656 1286 2365 
Q 1534 2075 1959 2075 
z
" transform="scale(0.015625)"/>
     </defs>
     <use xlink:href="#DejaVuSans-43"/>
     <use xlink:href="#DejaVuSans-20" x="69.824219"/>
     <use xlink:href="#DejaVuSans-5b" x="101.611328"/>
     <use xlink:href="#DejaVuSans-32" x="140.625"/>
     <use xlink:href="#DejaVuSans-39" x="204.248047"/>
     <use xlink:href="#DejaVuSans-5d" x="267.871094"/>
    </g>
   </g>
   <g id="text_3">
    <!-- D [19] -->
    <g transform="translate(254.784641 37.956273) scale(0.1 -0.1)">
     <defs>
      <path id="DejaVuSans-44" d="M 1259 4147 
L 1259 519 
L 2022 519 
Q 2988 519 3436 956 
Q 3884 1394 3884 2338 
Q 3884 3275 3436 3711 
Q 2988 4147 2022 4147 
L 1259 4147 
z
M 628 4666 
L 1925 4666 
Q 3281 4666 3915 4102 
Q 4550 3538 4550 2338 
Q 4550 1131 3912 565 
Q 3275 0 1925 0 
L 628 0 
L 628 4666 
z
" transform="scale(0.015625)"/>
      <path id="DejaVuSans-31" d="M 794 531 
L 1825 531 
L 1825 4091 
L 703 3866 
L 703 4441 
L 1819 4666 
L 2450 4666 
L 2450 531 
L 3481 531 
L 3481 0 
L 794 0 
L 794 531 
z
" transform="scale(0.015625)"/>
     </defs>
     <use xlink:href="#DejaVuSans-44"/>
     <use xlink:href="#DejaVuSans-20" x="77.001953"/>
     <use xlink:href="#DejaVuSans-5b" x="108.789062"/>
     <use xlink:href="#DejaVuSans-31" x="147.802734"/>
     <use xlink:href="#DejaVuSans-39" x="211.425781"/>
     <use xlink:href="#DejaVuSans-5d" x="275.048828"/>
    </g>
   </g>
   <g id="text_4">
    <!-- E [33] -->
    <g transform="translate(221.014456 21.708634) scale(0.1 -0.1)">
     <defs>
      <path id="DejaVuSans-45" d="M 628 4666 
L 3578 4666 
L 3578 4134 
L 1259 4134 
L 1259 2753 
L 3481 2753 
L 3481 2222 
L 1259 2222 
L 1259 531 
L 3634 531 
L 3634 0 
L 628 0 
L 628 4666 
z
" transform="scale(0.015625)"/>
      <path id="DejaVuSans-33" d="M 2597 2516 
Q 3050 2419 3304 2112 
Q 3559 1806 3559 1356 
Q 3559 666 3084 287 
Q 2609 -91 1734 -91 
Q 1441 -91 1130 -33 
Q 819 25 488 141 
L 488 750 
Q 750 597 1062 519 
Q 1375 441 1716 441 
Q 2309 441 2620 675 
Q 2931 909 2931 1356 
Q 2931 1769 2642 2001 
Q 2353 2234 1838 2234 
L 1294 2234 
L 1294 2753 
L 1863 2753 
Q 2328 2753 2575 2939 
Q 2822 3125 2822 3475 
Q 2822 3834 2567 4026 
Q 2313 4219 1838 4219 
Q 1578 4219 1281 4162 
Q 984 4106 628 3988 
L 628 4550 
Q 988 4650 1302 4700 
Q 1616 4750 1894 4750 
Q 2613 4750 3031 4423 
Q 3450 4097 3450 3541 
Q 3450 3153 3228 2886 
Q 3006 2619 2597 2516 
z
" transform="scale(0.015625)"/>
     </defs>
     <use xlink:href="#DejaVuSans-45"/>
     <use xlink:href="#DejaVuSans-20" x="63.183594"/>
     <use xlink:href="#DejaVuSans-5b" x="94.970703"/>
     <use xlink:href="#DejaVuSans-33" x="133.984375"/>
     <use xlink:href="#DejaVuSans-33" x="197.607422"/>
     <use xlink:href="#DejaVuSans-5d" x="261.230469"/>
    </g>
   </g>
   <g id="text_5">
    <!-- F [24] -->
    <g transform="translate(180.54583 14.798437) scale(0.1 -0.1)">
     <defs>
      <path id="DejaVuSans-46" d="M 628 4666 
L 3309 4666 
L 3309 4134 
L 1259 4134 
L 1259 2759 
L 3109 2759 
L 3109 2228 
L 1259 2228 
L 1259 0 
L 628 0 
L 628 4666 
z
" transform="scale(0.015625)"/>
      <path id="DejaVuSans-34" d="M 2419 4116 
L 825 1625 
L 2419 1625 
L 2419 4116 
z
M 2253 4666 
L 3047 4666 
L 3047 1625 
L 3713 1625 
L 3713 1100 
L 3047 1100 
L 3047 0 
L 2419 0 
L 2419 1100 
L 313 1100 
L 313 1709 
L 2253 4666 
z
" transform="scale(0.015625)"/>
     </defs>
     <use xlink:href="#DejaVuSans-46"/>
     <use xlink:href="#DejaVuSans-20" x="57.519531"/>
     <use xlink:href="#DejaVuSans-5b" x="89.306641"/>
     <use xlink:href="#DejaVuSans-32" x="128.320312"/>
     <use xlink:href="#DejaVuSans-34" x="191.943359"/>
     <use xlink:href="#DejaVuSans-5d" x="255.566406"/>
    </g>
   </g>
   <g id="text_6">
    <!-- G [49] -->
    <g transform="translate(97.336394 23.363048) scale(0.1 -0.1)">
     <defs>
      <path id="DejaVuSans-47" d="M 3809 666 
L 3809 1919 
L 2778 1919 
L 2778 2438 
L 4434 2438 
L 4434 434 
Q 4069 175 3628 42 
Q 3188 -91 2688 -91 
Q 1594 -91 976 548 
Q 359 1188 359 2328 
Q 359 3472 976 4111 
Q 1594 4750 2688 4750 
Q 3144 4750 3555 4637 
Q 3966 4525 4313 4306 
L 4313 3634 
Q 3963 3931 3569 4081 
Q 3175 4231 2741 4231 
Q 1884 4231 1454 3753 
Q 1025 3275 1025 2328 
Q 1025 1384 1454 906 
Q 1884 428 2741 428 
Q 3075 428 3337 486 
Q 3600 544 3809 666 
z
" transform="scale(0.015625)"/>
     </defs>
     <use xlink:href="#DejaVuSans-47"/>
     <use xlink:href="#DejaVuSans-20" x="77.490234"/>
     <use xlink:href="#DejaVuSans-5b" x="109.277344"/>
     <use xlink:href="#DejaVuSans-34" x="148.291016"/>
     <use xlink:href="#DejaVuSans-39" x="211.914062"/>
     <use xlink:href="#DejaVuSans-5d" x="275.537109"/>
    </g>
   </g>
   <g id="text_7">
    <!-- H [9] -->
    <g transform="translate(67.264608 43.376694) scale(0.1 -0.1)">
     <defs>
      <path id="DejaVuSans-48" d="M 628 4666 
L 1259 4666 
L 1259 2753 
L 3553 2753 
L 3553 4666 
L 4184 4666 
L 4184 0 
L 3553 0 
L 3553 2222 
L 1259 2222 
L 1259 0 
L 628 0 
L 628 4666 
z
" transform="scale(0.015625)"/>
     </defs>
     <use xlink:href="#DejaVuSans-48"/>
     <use xlink:href="#DejaVuSans-20" x="75.195312"/>
     <use xlink:href="#DejaVuSans-5b" x="106.982422"/>
     <use xlink:href="#DejaVuSans-39" x="145.996094"/>
     <use xlink:href="#DejaVuSans-5d" x="209.619141"/>
    </g>
   </g>
   <g id="text_8">
    <!-- I [29] -->
    <g transform="translate(45.3262 61.982921) scale(0.1 -0.1)">
     <defs>
      <path id="DejaVuSans-49" d="M 628 4666 
L 1259 4666 
L 1259 0 
L 628 0 
L 628 4666 
z
" transform="scale(0.015625)"/>
     </defs>
     <use xlink:href="#DejaVuSans-49"/>
     <use xlink:href="#DejaVuSans-20" x="29.492188"/>
     <use xlink:href="#DejaVuSans-5b" x="61.279297"/>
     <use xlink:href="#DejaVuSans-32" x="100.292969"/>
     <use xlink:href="#DejaVuSans-39" x="163.916016"/>
     <use xlink:href="#DejaVuSans-5d" x="227.539062"/>
    </g>
   </g>
   <g id="text_9">
    <!-- K [18] -->
    <g transform="translate(22.378556 89.813347) scale(0.1 -0.1)">
     <defs>
      <path id="DejaVuSans-4b" d="M 628 4666 
L 1259 4666 
L 1259 2694 
L 3353 4666 
L 4166 4666 
L 1850 2491 
L 4331 0 
L 3500 0 
L 1259 2247 
L 1259 0 
L 628 0 
L 628 4666 
z
" transform="scale(0.015625)"/>
     </defs>
     <use xlink:href="#DejaVuSans-4b"/>
     <use xlink:href="#DejaVuSans-20" x="65.576172"/>
     <use xlink:href="#DejaVuSans-5b" x="97.363281"/>
     <use xlink:href="#DejaVuSans-31" x="136.376953"/>
     <use xlink:href="#DejaVuSans-38" x="200"/>
     <use xlink:href="#DejaVuSans-5d" x="263.623047"/>
    </g>
   </g>
   <g id="text_10">
    <!-- L [66] -->
    <g transform="translate(7.2 147.853483) scale(0.1 -0.1)">
     <defs>
      <path id="DejaVuSans-4c" d="M 628 4666 
L 1259 4666 
L 1259 531 
L 3531 531 
L 3531 0 
L 628 0 
L 628 4666 
z
" transform="scale(0.015625)"/>
      <path id="DejaVuSans-36" d="M 2113 2584 
Q 1688 2584 1439 2293 
Q 1191 2003 1191 1497 
Q 1191 994 1439 701 
Q 1688 409 2113 409 
Q 2538 409 2786 701 
Q 3034 994 3034 1497 
Q 3034 2003 2786 2293 
Q 2538 2584 2113 2584 
z
M 3366 4563 
L 3366 3988 
Q 3128 4100 2886 4159 
Q 2644 4219 2406 4219 
Q 1781 4219 1451 3797 
Q 1122 3375 1075 2522 
Q 1259 2794 1537 2939 
Q 1816 3084 2150 3084 
Q 2853 3084 3261 2657 
Q 3669 2231 3669 1497 
Q 3669 778 3244 343 
Q 2819 -91 2113 -91 
Q 1303 -91 875 529 
Q 447 1150 447 2328 
Q 447 3434 972 4092 
Q 1497 4750 2381 4750 
Q 2619 4750 2861 4703 
Q 3103 4656 3366 4563 
z
" transform="scale(0.015625)"/>
     </defs>
     <use xlink:href="#DejaVuSans-4c"/>
     <use xlink:href="#DejaVuSans-20" x="55.712891"/>
     <use xlink:href="#DejaVuSans-5b" x="87.5"/>
     <use xlink:href="#DejaVuSans-36" x="126.513672"/>
     <use xlink:href="#DejaVuSans-36" x="190.136719"/>
     <use xlink:href="#DejaVuSans-5d" x="253.759766"/>
    </g>
   </g>
   <g id="text_11">
    <!-- M [11] -->
    <g transform="translate(11.911264 202.601865) scale(0.1 -0.1)">
     <defs>
      <path id="DejaVuSans-4d" d="M 628 4666 
L 1569 4666 
L 2759 1491 
L 3956 4666 
L 4897 4666 
L 4897 0 
L 4281 0 
L 4281 4097 
L 3078 897 
L 2444 897 
L 1241 4097 
L 1241 0 
L 628 0 
L 628 4666 
z
" transform="scale(0.015625)"/>
     </defs>
     <use xlink:href="#DejaVuSans-4d"/>
     <use xlink:href="#DejaVuSans-20" x="86.279297"/>
     <use xlink:href="#DejaVuSans-5b" x="118.066406"/>
     <use xlink:href="#DejaVuSans-31" x="157.080078"/>
     <use xlink:href="#DejaVuSans-31" x="220.703125"/>
     <use xlink:href="#DejaVuSans-5d" x="284.326172"/>
    </g>
   </g>
   <g id="text_12">
    <!-- N [18] -->
    <g transform="translate(21.455111 221.787224) scale(0.1 -0.1)">
     <defs>
      <path id="DejaVuSans-4e" d="M 628 4666 
L 1478 4666 
L 3547 763 
L 3547 4666 
L 4159 4666 
L 4159 0 
L 3309 0 
L 1241 3903 
L 1241 0 
L 628 0 
L 628 4666 
z
" transform="scale(0.015625)"/>
     </defs>
     <use xlink:href="#DejaVuSans-4e"/>
     <use xlink:href="#DejaVuSans-20" x="74.804688"/>
     <use xlink:href="#DejaVuSans-5b" x="106.591797"/>
     <use xlink:href="#DejaVuSans-31" x="145.605469"/>
     <use xlink:href="#DejaVuSans-38" x="209.228516"/>
     <use xlink:href="#DejaVuSans-5d" x="272.851562"/>
    </g>
   </g>
   <g id="text_13">
    <!-- P [45] -->
    <g transform="translate(50.284679 257.92816) scale(0.1 -0.1)">
     <defs>
      <path id="DejaVuSans-50" d="M 1259 4147 
L 1259 2394 
L 2053 2394 
Q 2494 2394 2734 2622 
Q 2975 2850 2975 3272 
Q 2975 3691 2734 3919 
Q 2494 4147 2053 4147 
L 1259 4147 
z
M 628 4666 
L 2053 4666 
Q 2838 4666 3239 4311 
Q 3641 3956 3641 3272 
Q 3641 2581 3239 2228 
Q 2838 1875 2053 1875 
L 1259 1875 
L 1259 0 
L 628 0 
L 628 4666 
z
" transform="scale(0.015625)"/>
     </defs>
     <use xlink:href="#DejaVuSans-50"/>
     <use xlink:href="#DejaVuSans-20" x="60.302734"/>
     <use xlink:href="#DejaVuSans-5b" x="92.089844"/>
     <use xlink:href="#DejaVuSans-34" x="131.103516"/>
     <use xlink:href="#DejaVuSans-35" x="194.726562"/>
     <use xlink:href="#DejaVuSans-5d" x="258.349609"/>
    </g>
   </g>
   <g id="text_14">
    <!-- Q [17] -->
    <g transform="translate(85.219283 283.206464) scale(0.1 -0.1)">
     <defs>
      <path id="DejaVuSans-51" d="M 2522 4238 
Q 1834 4238 1429 3725 
Q 1025 3213 1025 2328 
Q 1025 1447 1429 934 
Q 1834 422 2522 422 
Q 3209 422 3611 934 
Q 4013 1447 4013 2328 
Q 4013 3213 3611 3725 
Q 3209 4238 2522 4238 
z
M 3406 84 
L 4238 -825 
L 3475 -825 
L 2784 -78 
Q 2681 -84 2626 -87 
Q 2572 -91 2522 -91 
Q 1538 -91 948 567 
Q 359 1225 359 2328 
Q 359 3434 948 4092 
Q 1538 4750 2522 4750 
Q 3503 4750 4090 4092 
Q 4678 3434 4678 2328 
Q 4678 1516 4351 937 
Q 4025 359 3406 84 
z
" transform="scale(0.015625)"/>
      <path id="DejaVuSans-37" d="M 525 4666 
L 3525 4666 
L 3525 4397 
L 1831 0 
L 1172 0 
L 2766 4134 
L 525 4134 
L 525 4666 
z
" transform="scale(0.015625)"/>
     </defs>
     <use xlink:href="#DejaVuSans-51"/>
     <use xlink:href="#DejaVuSans-20" x="78.710938"/>
     <use xlink:href="#DejaVuSans-5b" x="110.498047"/>
     <use xlink:href="#DejaVuSans-31" x="149.511719"/>
     <use xlink:href="#DejaVuSans-37" x="213.134766"/>
     <use xlink:href="#DejaVuSans-5d" x="276.757812"/>
    </g>
   </g>
   <g id="text_15">
    <!-- R [45] -->
    <g transform="translate(128.976153 295.729324) scale(0.1 -0.1)">
     <defs>
      <path id="DejaVuSans-52" d="M 2841 2188 
Q 3044 2119 3236 1894 
Q 3428 1669 3622 1275 
L 4263 0 
L 3584 0 
L 2988 1197 
Q 2756 1666 2539 1819 
Q 2322 1972 1947 1972 
L 1259 1972 
L 1259 0 
L 628 0 
L 628 4666 
L 2053 4666 
Q 2853 4666 3247 4331 
Q 3641 3997 3641 3322 
Q 3641 2881 3436 2590 
Q 3231 2300 2841 2188 
z
M 1259 4147 
L 1259 2491 
L 2053 2491 
Q 2509 2491 2742 2702 
Q 2975 2913 2975 3322 
Q 2975 3731 2742 3939 
Q 2509 4147 2053 4147 
L 1259 4147 
z
" transform="scale(0.015625)"/>
     </defs>
     <use xlink:href="#DejaVuSans-52"/>
     <use xlink:href="#DejaVuSans-20" x="69.482422"/>
     <use xlink:href="#DejaVuSans-5b" x="101.269531"/>
     <use xlink:href="#DejaVuSans-34" x="140.283203"/>
     <use xlink:href="#DejaVuSans-35" x="203.90625"/>
     <use xlink:href="#DejaVuSans-5d" x="267.529297"/>
    </g>
   </g>
   <g id="text_16">
    <!-- S [47] -->
    <g transform="translate(225.116401 288.484369) scale(0.1 -0.1)">
     <defs>
      <path id="DejaVuSans-53" d="M 3425 4513 
L 3425 3897 
Q 3066 4069 2747 4153 
Q 2428 4238 2131 4238 
Q 1616 4238 1336 4038 
Q 1056 3838 1056 3469 
Q 1056 3159 1242 3001 
Q 1428 2844 1947 2747 
L 2328 2669 
Q 3034 2534 3370 2195 
Q 3706 1856 3706 1288 
Q 3706 609 3251 259 
Q 2797 -91 1919 -91 
Q 1588 -91 1214 -16 
Q 841 59 441 206 
L 441 856 
Q 825 641 1194 531 
Q 1563 422 1919 422 
Q 2459 422 2753 634 
Q 3047 847 3047 1241 
Q 3047 1584 2836 1778 
Q 2625 1972 2144 2069 
L 1759 2144 
Q 1053 2284 737 2584 
Q 422 2884 422 3419 
Q 422 4038 858 4394 
Q 1294 4750 2059 4750 
Q 2388 4750 2728 4690 
Q 3069 4631 3425 4513 
z
" transform="scale(0.015625)"/>
     </defs>
     <use xlink:href="#DejaVuSans-53"/>
     <use xlink:href="#DejaVuSans-20" x="63.476562"/>
     <use xlink:href="#DejaVuSans-5b" x="95.263672"/>
     <use xlink:href="#DejaVuSans-34" x="134.277344"/>
     <use xlink:href="#DejaVuSans-37" x="197.900391"/>
     <use xlink:href="#DejaVuSans-5d" x="261.523438"/>
    </g>
   </g>
   <g id="text_17">
    <!-- T [37] -->
    <g transform="translate(276.124867 256.420606) scale(0.1 -0.1)">
     <defs>
      <path id="DejaVuSans-54" d="M -19 4666 
L 3928 4666 
L 3928 4134 
L 2272 4134 
L 2272 0 
L 1638 0 
L 1638 4134 
L -19 4134 
L -19 4666 
z
" transform="scale(0.015625)"/>
     </defs>
     <use xlink:href="#DejaVuSans-54"/>
     <use xlink:href="#DejaVuSans-20" x="61.083984"/>
     <use xlink:href="#DejaVuSans-5b" x="92.871094"/>
     <use xlink:href="#DejaVuSans-33" x="131.884766"/>
     <use xlink:href="#DejaVuSans-37" x="195.507812"/>
     <use xlink:href="#DejaVuSans-5d" x="259.130859"/>
    </g>
   </g>
   <g id="text_18">
    <!-- V [30] -->
    <g transform="translate(304.230781 217.273939) scale(0.1 -0.1)">
     <defs>
      <path id="DejaVuSans-56" d="M 1831 0 
L 50 4666 
L 709 4666 
L 2188 738 
L 3669 4666 
L 4325 4666 
L 2547 0 
L 1831 0 
z
" transform="scale(0.015625)"/>
      <path id="DejaVuSans-30" d="M 2034 4250 
Q 1547 4250 1301 3770 
Q 1056 3291 1056 2328 
Q 1056 1369 1301 889 
Q 1547 409 2034 409 
Q 2525 409 2770 889 
Q 3016 1369 3016 2328 
Q 3016 3291 2770 3770 
Q 2525 4250 2034 4250 
z
M 2034 4750 
Q 2819 4750 3233 4129 
Q 3647 3509 3647 2328 
Q 3647 1150 3233 529 
Q 2819 -91 2034 -91 
Q 1250 -91 836 529 
Q 422 1150 422 2328 
Q 422 3509 836 4129 
Q 1250 4750 2034 4750 
z
" transform="scale(0.015625)"/>
     </defs>
     <use xlink:href="#DejaVuSans-56"/>
     <use xlink:href="#DejaVuSans-20" x="68.408203"/>
     <use xlink:href="#DejaVuSans-5b" x="100.195312"/>
     <use xlink:href="#DejaVuSans-33" x="139.208984"/>
     <use xlink:href="#DejaVuSans-30" x="202.832031"/>
     <use xlink:href="#DejaVuSans-5d" x="266.455078"/>
    </g>
   </g>
   <g id="text_19">
    <!-- W [11] -->
    <g transform="translate(314.261008 189.445246) scale(0.1 -0.1)">
     <defs>
      <path id="DejaVuSans-57" d="M 213 4666 
L 850 4666 
L 1831 722 
L 2809 4666 
L 3519 4666 
L 4500 722 
L 5478 4666 
L 6119 4666 
L 4947 0 
L 4153 0 
L 3169 4050 
L 2175 0 
L 1381 0 
L 213 4666 
z
" transform="scale(0.015625)"/>
     </defs>
     <use xlink:href="#DejaVuSans-57"/>
     <use xlink:href="#DejaVuSans-20" x="98.876953"/>
     <use xlink:href="#DejaVuSans-5b" x="130.664062"/>
     <use xlink:href="#DejaVuSans-31" x="169.677734"/>
     <use xlink:href="#DejaVuSans-31" x="233.300781"/>
     <use xlink:href="#DejaVuSans-5d" x="296.923828"/>
    </g>
   </g>
   <g id="text_20">
    <!-- Y [18] -->
    <g transform="translate(317.733097 168.792602) scale(0.1 -0.1)">
     <defs>
      <path id="DejaVuSans-59" d="M -13 4666 
L 666 4666 
L 1959 2747 
L 3244 4666 
L 3922 4666 
L 2272 2222 
L 2272 0 
L 1638 0 
L 1638 2222 
L -13 4666 
z
" transform="scale(0.015625)"/>
     </defs>
     <use xlink:href="#DejaVuSans-59"/>
     <use xlink:href="#DejaVuSans-20" x="61.083984"/>
     <use xlink:href="#DejaVuSans-5b" x="92.871094"/>
     <use xlink:href="#DejaVuSans-31" x="131.884766"/>
     <use xlink:href="#DejaVuSans-38" x="195.507812"/>
     <use xlink:href="#DejaVuSans-5d" x="259.130859"/>
    </g>
   </g>
   <g id="text_21">
    <!-- A0A8I3MRZ6 [613] -->
    <g transform="translate(120.54749 153.040917) scale(0.12 -0.12)">
     <defs>
      <path id="DejaVuSans-5a" d="M 359 4666 
L 4025 4666 
L 4025 4184 
L 1075 531 
L 4097 531 
L 4097 0 
L 288 0 
L 288 481 
L 3238 4134 
L 359 4134 
L 359 4666 
z
" transform="scale(0.015625)"/>
     </defs>
     <use xlink:href="#DejaVuSans-41"/>
     <use xlink:href="#DejaVuSans-30" x="68.408203"/>
     <use xlink:href="#DejaVuSans-41" x="132.03125"/>
     <use xlink:href="#DejaVuSans-38" x="200.439453"/>
     <use xlink:href="#DejaVuSans-49" x="264.0625"/>
     <use xlink:href="#DejaVuSans-33" x="293.554688"/>
     <use xlink:href="#DejaVuSans-4d" x="357.177734"/>
     <use xlink:href="#DejaVuSans-52" x="443.457031"/>
     <use xlink:href="#DejaVuSans-5a" x="512.939453"/>
     <use xlink:href="#DejaVuSans-36" x="581.445312"/>
     <use xlink:href="#DejaVuSans-20" x="645.068359"/>
     <use xlink:href="#DejaVuSans-5b" x="676.855469"/>
     <use xlink:href="#DejaVuSans-36" x="715.869141"/>
     <use xlink:href="#DejaVuSans-31" x="779.492188"/>
     <use xlink:href="#DejaVuSans-33" x="843.115234"/>
     <use xlink:href="#DejaVuSans-5d" x="906.738281"/>
    </g>
   </g>
  </g>
 </g>
</svg>
