<?xml version="1.0" encoding="utf-8" standalone="no"?>
<!DOCTYPE svg PUBLIC "-//W3C//DTD SVG 1.1//EN"
  "http://www.w3.org/Graphics/SVG/1.1/DTD/svg11.dtd">
<svg xmlns:xlink="http://www.w3.org/1999/xlink" width="349.765223pt" height="305.73409pt" viewBox="0 0 349.765223 305.73409" xmlns="http://www.w3.org/2000/svg" version="1.1">
 <metadata>
  <rdf:RDF xmlns:dc="http://purl.org/dc/elements/1.1/" xmlns:cc="http://creativecommons.org/ns#" xmlns:rdf="http://www.w3.org/1999/02/22-rdf-syntax-ns#">
   <cc:Work>
    <dc:type rdf:resource="http://purl.org/dc/dcmitype/StillImage"/>
    <dc:date>2024-09-27T16:07:34.147591</dc:date>
    <dc:format>image/svg+xml</dc:format>
    <dc:creator>
     <cc:Agent>
      <dc:title>Matplotlib v3.8.3, https://matplotlib.org/</dc:title>
     </cc:Agent>
    </dc:creator>
   </cc:Work>
  </rdf:RDF>
 </metadata>
 <defs>
  <style type="text/css">*{stroke-linejoin: round; stroke-linecap: butt}</style>
 </defs>
 <g id="figure_1">
  <g id="patch_1">
   <path d="M 0 305.73409 
L 349.765223 305.73409 
L 349.765223 0 
L 0 0 
z
" style="fill: #ffffff"/>
  </g>
  <g id="axes_1">
   <g id="patch_2">
    <path d="M 305.590739 152.414637 
C 305.590739 130.479136 299.940319 108.909034 289.186015 89.790688 
C 278.431711 70.672342 262.931809 54.642694 244.185531 43.252205 
L 177.856979 152.414637 
z
" style="fill: #1f77b4"/>
   </g>
   <g id="patch_3">
    <path d="M 243.946812 43.030884 
C 239.972322 40.615931 235.868907 38.41984 231.654902 36.452422 
C 227.440897 34.485004 223.122588 32.749195 218.719268 31.25275 
L 177.61826 152.193317 
z
" style="fill: #ff7f0e"/>
   </g>
   <g id="patch_4">
    <path d="M 218.622487 31.218493 
C 215.235661 30.067499 211.801981 29.059279 208.330527 28.196501 
C 204.859074 27.333723 201.35291 26.617148 197.821308 26.04867 
L 177.521479 152.15906 
z
" style="fill: #aec7e8"/>
   </g>
   <g id="patch_5">
    <path d="M 197.733135 26.034477 
C 194.201533 25.466 190.64761 25.046122 187.080765 24.775954 
C 183.513919 24.505786 179.937299 24.385566 176.360363 24.415613 
L 177.433305 152.144867 
z
" style="fill: #ffbb78"/>
   </g>
   <g id="patch_6">
    <path d="M 176.253282 24.418312 
C 171.244865 24.460383 166.243255 24.796997 161.274366 25.42641 
C 156.305478 26.055823 151.377908 26.976945 146.517187 28.185004 
L 177.326225 152.147566 
z
" style="fill: #98df8a"/>
   </g>
   <g id="patch_7">
    <path d="M 146.300099 28.262872 
C 133.08258 31.547889 120.47512 36.925843 108.956116 44.192665 
C 97.437112 51.459487 87.154129 60.522085 78.49736 71.036574 
L 177.109137 152.225434 
z
" style="fill: #2ca02c"/>
   </g>
   <g id="patch_8">
    <path d="M 78.353928 71.169553 
C 76.989886 72.826315 75.667813 74.517189 74.388969 76.240565 
C 73.110124 77.963941 71.874914 79.719273 70.684515 81.504887 
L 176.965705 152.358413 
z
" style="fill: #d62728"/>
   </g>
   <g id="patch_9">
    <path d="M 70.659412 81.541865 
C 69.865836 82.732239 69.092314 83.935862 68.339175 85.152224 
C 67.586035 86.368586 66.853384 87.597515 66.141532 88.83849 
L 176.940602 152.395391 
z
" style="fill: #9467bd"/>
   </g>
   <g id="patch_10">
    <path d="M 66.127991 88.861643 
C 65.772071 89.48212 65.42137 90.105576 65.075924 90.731944 
C 64.730477 91.358313 64.390299 91.987572 64.055424 92.619656 
L 176.927061 152.418543 
z
" style="fill: #ff9896"/>
   </g>
   <g id="patch_11">
    <path d="M 63.989716 92.89903 
C 53.380063 112.924968 48.288682 135.418311 49.240237 158.061135 
C 50.191791 180.703959 57.152432 202.690822 69.40487 221.755992 
L 176.861353 152.697917 
z
" style="fill: #c5b0d5"/>
   </g>
   <g id="patch_12">
    <path d="M 69.491322 222.025138 
C 69.684684 222.326015 69.879309 222.62608 70.075192 222.925323 
C 70.271075 223.224566 70.468214 223.522985 70.666604 223.820572 
L 176.947805 152.967063 
z
" style="fill: #c49c94"/>
   </g>
   <g id="patch_13">
    <path d="M 70.676648 223.835367 
C 71.271823 224.728139 71.878225 225.613376 72.495707 226.490867 
C 73.11319 227.368359 73.741704 228.238035 74.381101 229.099689 
L 176.957849 152.981858 
z
" style="fill: #8c564b"/>
   </g>
   <g id="patch_14">
    <path d="M 74.481536 229.207111 
C 80.883866 237.834921 88.349231 245.620606 96.700613 252.379552 
C 105.051995 259.138499 114.222861 264.816859 123.995752 269.27999 
L 177.058284 153.08928 
z
" style="fill: #e377c2"/>
   </g>
   <g id="patch_15">
    <path d="M 124.134152 269.360932 
C 126.086254 270.252428 128.060514 271.094586 130.05505 271.886606 
C 132.049586 272.678625 134.063765 273.420254 136.095669 274.110786 
L 177.196684 153.170222 
z
" style="fill: #7f7f7f"/>
   </g>
   <g id="patch_16">
    <path d="M 136.283152 274.148283 
C 148.837725 278.414889 161.980443 280.7007 175.238332 280.923454 
C 188.496221 281.146208 201.70831 279.303202 214.399128 275.460761 
L 177.384167 153.207719 
z
" style="fill: #f7b6d2"/>
   </g>
   <g id="patch_17">
    <path d="M 214.688249 275.381118 
C 225.314756 272.163694 235.476555 267.57444 244.916435 261.729516 
C 254.356314 255.884591 262.993951 248.83373 270.610714 240.755402 
L 177.673287 153.128076 
z
" style="fill: #c7c7c7"/>
   </g>
   <g id="patch_18">
    <path d="M 270.747042 240.634232 
C 273.200962 238.031608 275.544473 235.327052 277.771378 232.527718 
C 279.998283 229.728384 282.106616 226.836741 284.090802 223.860438 
L 177.809615 153.006907 
z
" style="fill: #dbdb8d"/>
   </g>
   <g id="patch_19">
    <path d="M 284.156548 223.754254 
C 287.729257 218.395145 290.891515 212.773478 293.616252 206.937375 
C 296.340989 201.101271 298.62041 195.067429 300.435002 188.887497 
L 177.875361 152.900723 
z
" style="fill: #bcbd22"/>
   </g>
   <g id="patch_20">
    <path d="M 300.47328 188.773291 
C 301.380253 185.684428 302.170128 182.562381 302.841215 179.413839 
C 303.512302 176.265297 304.06412 173.092509 304.495487 169.902275 
L 177.913639 152.786518 
z
" style="fill: #17becf"/>
   </g>
   <g id="patch_21">
    <path d="M 304.505979 169.827066 
C 304.889407 166.991372 305.177439 164.143595 305.369587 161.288555 
C 305.561734 158.433515 305.65789 155.572824 305.65789 152.711325 
L 177.92413 152.711309 
z
" style="fill: #9edae5"/>
   </g>
   <g id="patch_22">
    <path d="M 251.904468 152.67557 
C 251.904468 139.879862 248.60839 127.297302 242.335046 116.144933 
C 236.061702 104.992565 227.020092 95.641937 216.084763 88.997485 
L 177.393108 152.67557 
z
" style="fill: #ffffff"/>
   </g>
   <g id="patch_23">
    <path d="M 216.084763 88.997485 
C 213.76631 87.588762 211.372652 86.307709 208.914482 85.160048 
C 206.456313 84.012388 203.937299 82.999833 201.368696 82.126907 
L 177.393108 152.67557 
z
" style="fill: #ffffff"/>
   </g>
   <g id="patch_24">
    <path d="M 201.368696 82.126907 
C 199.393047 81.455493 197.390067 80.867365 195.365053 80.364078 
C 193.340038 79.860791 191.294776 79.442788 189.234675 79.111177 
L 177.393108 152.67557 
z
" style="fill: #ffffff"/>
   </g>
   <g id="patch_25">
    <path d="M 189.234675 79.111177 
C 187.174574 78.779565 185.101452 78.534636 183.020792 78.377038 
C 180.940132 78.21944 178.853771 78.149312 176.767224 78.166839 
L 177.393108 152.67557 
z
" style="fill: #ffffff"/>
   </g>
   <g id="patch_26">
    <path d="M 176.767224 78.166839 
C 173.845648 78.191381 170.928042 78.387739 168.029524 78.754896 
C 165.131005 79.122054 162.256589 79.659375 159.421169 80.364076 
L 177.393108 152.67557 
z
" style="fill: #ffffff"/>
   </g>
   <g id="patch_27">
    <path d="M 159.421169 80.364076 
C 151.710949 82.280336 144.356598 85.417476 137.637179 89.656455 
C 130.91776 93.895435 124.919353 99.18195 119.869571 105.315402 
L 177.393108 152.67557 
z
" style="fill: #ffffff"/>
   </g>
   <g id="patch_28">
    <path d="M 119.869571 105.315402 
C 119.07388 106.281847 118.302671 107.26819 117.556678 108.273493 
C 116.810686 109.278796 116.090147 110.302739 115.395747 111.344347 
L 177.393108 152.67557 
z
" style="fill: #ffffff"/>
   </g>
   <g id="patch_29">
    <path d="M 115.395747 111.344347 
C 114.932827 112.038732 114.481606 112.740846 114.042275 113.45039 
C 113.602944 114.159934 113.175564 114.876809 112.760317 115.600712 
L 177.393108 152.67557 
z
" style="fill: #ffffff"/>
   </g>
   <g id="patch_30">
    <path d="M 112.760317 115.600712 
C 112.552697 115.962657 112.348121 116.32634 112.146611 116.691721 
C 111.9451 117.057103 111.746663 117.424171 111.551319 117.792886 
L 177.393108 152.67557 
z
" style="fill: #ffffff"/>
   </g>
   <g id="patch_31">
    <path d="M 111.551319 117.792886 
C 105.362355 129.474684 102.392383 142.5958 102.947456 155.804114 
C 103.50253 169.012428 107.562903 181.838098 114.710159 192.959447 
L 177.393108 152.67557 
z
" style="fill: #ffffff"/>
   </g>
   <g id="patch_32">
    <path d="M 114.710159 192.959447 
C 114.822954 193.134959 114.936485 193.309997 115.05075 193.484555 
C 115.165015 193.659114 115.280013 193.833192 115.39574 194.006784 
L 177.393108 152.67557 
z
" style="fill: #ffffff"/>
   </g>
   <g id="patch_33">
    <path d="M 115.39574 194.006784 
C 115.742926 194.527568 116.09666 195.043956 116.456858 195.555826 
C 116.817056 196.067696 117.18369 196.575007 117.556671 197.077639 
L 177.393108 152.67557 
z
" style="fill: #ffffff"/>
   </g>
   <g id="patch_34">
    <path d="M 117.556671 197.077639 
C 121.291364 202.110528 125.64616 206.652177 130.5178 210.594896 
C 135.389439 214.537615 140.739111 217.849992 146.439964 220.453485 
L 177.393108 152.67557 
z
" style="fill: #ffffff"/>
   </g>
   <g id="patch_35">
    <path d="M 146.439964 220.453485 
C 147.57869 220.973524 148.730342 221.464783 149.893821 221.926794 
C 151.0573 222.388806 152.232238 222.821423 153.417516 223.224233 
L 177.393108 152.67557 
z
" style="fill: #ffffff"/>
   </g>
   <g id="patch_36">
    <path d="M 153.417516 223.224233 
C 160.741017 225.713086 168.407602 227.046476 176.141371 227.176416 
C 183.875139 227.306356 191.582191 226.231269 198.985169 223.989844 
L 177.393108 152.67557 
z
" style="fill: #ffffff"/>
   </g>
   <g id="patch_37">
    <path d="M 198.985169 223.989844 
C 205.183965 222.113014 211.11168 219.435949 216.618277 216.02641 
C 222.124873 212.616871 227.163495 208.503869 231.606607 203.79151 
L 177.393108 152.67557 
z
" style="fill: #ffffff"/>
   </g>
   <g id="patch_38">
    <path d="M 231.606607 203.79151 
C 233.03806 202.273313 234.405108 200.695655 235.704136 199.06271 
C 237.003164 197.429765 238.233025 195.742974 239.390466 194.006797 
L 177.393108 152.67557 
z
" style="fill: #ffffff"/>
   </g>
   <g id="patch_39">
    <path d="M 239.390466 194.006797 
C 241.474547 190.88065 243.319197 187.601344 244.908627 184.19695 
C 246.498057 180.792556 247.827719 177.272815 248.886231 173.667855 
L 177.393108 152.67557 
z
" style="fill: #ffffff"/>
   </g>
   <g id="patch_40">
    <path d="M 248.886231 173.667855 
C 249.415299 171.866018 249.87606 170.044824 250.267527 168.208174 
C 250.658994 166.371525 250.980888 164.520732 251.232519 162.659762 
L 177.393108 152.67557 
z
" style="fill: #ffffff"/>
   </g>
   <g id="patch_41">
    <path d="M 251.232519 162.659762 
C 251.456186 161.005607 251.624204 159.344404 251.73629 157.678964 
C 251.848377 156.013524 251.904467 154.344787 251.904468 152.67558 
L 177.393108 152.67557 
z
" style="fill: #ffffff"/>
   </g>
   <g id="matplotlib.axis_1"/>
   <g id="matplotlib.axis_2"/>
   <g id="text_1">
    <!-- A [61] -->
    <g transform="translate(300.318919 86.287668) scale(0.1 -0.1)">
     <defs>
      <path id="DejaVuSans-41" d="M 2188 4044 
L 1331 1722 
L 3047 1722 
L 2188 4044 
z
M 1831 4666 
L 2547 4666 
L 4325 0 
L 3669 0 
L 3244 1197 
L 1141 1197 
L 716 0 
L 50 0 
L 1831 4666 
z
" transform="scale(0.015625)"/>
      <path id="DejaVuSans-20" transform="scale(0.015625)"/>
      <path id="DejaVuSans-5b" d="M 550 4863 
L 1875 4863 
L 1875 4416 
L 1125 4416 
L 1125 -397 
L 1875 -397 
L 1875 -844 
L 550 -844 
L 550 4863 
z
" transform="scale(0.015625)"/>
      <path id="DejaVuSans-36" d="M 2113 2584 
Q 1688 2584 1439 2293 
Q 1191 2003 1191 1497 
Q 1191 994 1439 701 
Q 1688 409 2113 409 
Q 2538 409 2786 701 
Q 3034 994 3034 1497 
Q 3034 2003 2786 2293 
Q 2538 2584 2113 2584 
z
M 3366 4563 
L 3366 3988 
Q 3128 4100 2886 4159 
Q 2644 4219 2406 4219 
Q 1781 4219 1451 3797 
Q 1122 3375 1075 2522 
Q 1259 2794 1537 2939 
Q 1816 3084 2150 3084 
Q 2853 3084 3261 2657 
Q 3669 2231 3669 1497 
Q 3669 778 3244 343 
Q 2819 -91 2113 -91 
Q 1303 -91 875 529 
Q 447 1150 447 2328 
Q 447 3434 972 4092 
Q 1497 4750 2381 4750 
Q 2619 4750 2861 4703 
Q 3103 4656 3366 4563 
z
" transform="scale(0.015625)"/>
      <path id="DejaVuSans-31" d="M 794 531 
L 1825 531 
L 1825 4091 
L 703 3866 
L 703 4441 
L 1819 4666 
L 2450 4666 
L 2450 531 
L 3481 531 
L 3481 0 
L 794 0 
L 794 531 
z
" transform="scale(0.015625)"/>
      <path id="DejaVuSans-5d" d="M 1947 4863 
L 1947 -844 
L 622 -844 
L 622 -397 
L 1369 -397 
L 1369 4416 
L 622 4416 
L 622 4863 
L 1947 4863 
z
" transform="scale(0.015625)"/>
     </defs>
     <use xlink:href="#DejaVuSans-41"/>
     <use xlink:href="#DejaVuSans-20" x="68.408203"/>
     <use xlink:href="#DejaVuSans-5b" x="100.195312"/>
     <use xlink:href="#DejaVuSans-36" x="139.208984"/>
     <use xlink:href="#DejaVuSans-31" x="202.832031"/>
     <use xlink:href="#DejaVuSans-5d" x="266.455078"/>
    </g>
   </g>
   <g id="text_2">
    <!-- C [13] -->
    <g transform="translate(237.058567 27.637707) scale(0.1 -0.1)">
     <defs>
      <path id="DejaVuSans-43" d="M 4122 4306 
L 4122 3641 
Q 3803 3938 3442 4084 
Q 3081 4231 2675 4231 
Q 1875 4231 1450 3742 
Q 1025 3253 1025 2328 
Q 1025 1406 1450 917 
Q 1875 428 2675 428 
Q 3081 428 3442 575 
Q 3803 722 4122 1019 
L 4122 359 
Q 3791 134 3420 21 
Q 3050 -91 2638 -91 
Q 1578 -91 968 557 
Q 359 1206 359 2328 
Q 359 3453 968 4101 
Q 1578 4750 2638 4750 
Q 3056 4750 3426 4639 
Q 3797 4528 4122 4306 
z
" transform="scale(0.015625)"/>
      <path id="DejaVuSans-33" d="M 2597 2516 
Q 3050 2419 3304 2112 
Q 3559 1806 3559 1356 
Q 3559 666 3084 287 
Q 2609 -91 1734 -91 
Q 1441 -91 1130 -33 
Q 819 25 488 141 
L 488 750 
Q 750 597 1062 519 
Q 1375 441 1716 441 
Q 2309 441 2620 675 
Q 2931 909 2931 1356 
Q 2931 1769 2642 2001 
Q 2353 2234 1838 2234 
L 1294 2234 
L 1294 2753 
L 1863 2753 
Q 2328 2753 2575 2939 
Q 2822 3125 2822 3475 
Q 2822 3834 2567 4026 
Q 2313 4219 1838 4219 
Q 1578 4219 1281 4162 
Q 984 4106 628 3988 
L 628 4550 
Q 988 4650 1302 4700 
Q 1616 4750 1894 4750 
Q 2613 4750 3031 4423 
Q 3450 4097 3450 3541 
Q 3450 3153 3228 2886 
Q 3006 2619 2597 2516 
z
" transform="scale(0.015625)"/>
     </defs>
     <use xlink:href="#DejaVuSans-43"/>
     <use xlink:href="#DejaVuSans-20" x="69.824219"/>
     <use xlink:href="#DejaVuSans-5b" x="101.611328"/>
     <use xlink:href="#DejaVuSans-31" x="140.625"/>
     <use xlink:href="#DejaVuSans-33" x="204.248047"/>
     <use xlink:href="#DejaVuSans-5d" x="267.871094"/>
    </g>
   </g>
   <g id="text_3">
    <!-- D [10] -->
    <g transform="translate(211.411432 18.55962) scale(0.1 -0.1)">
     <defs>
      <path id="DejaVuSans-44" d="M 1259 4147 
L 1259 519 
L 2022 519 
Q 2988 519 3436 956 
Q 3884 1394 3884 2338 
Q 3884 3275 3436 3711 
Q 2988 4147 2022 4147 
L 1259 4147 
z
M 628 4666 
L 1925 4666 
Q 3281 4666 3915 4102 
Q 4550 3538 4550 2338 
Q 4550 1131 3912 565 
Q 3275 0 1925 0 
L 628 0 
L 628 4666 
z
" transform="scale(0.015625)"/>
      <path id="DejaVuSans-30" d="M 2034 4250 
Q 1547 4250 1301 3770 
Q 1056 3291 1056 2328 
Q 1056 1369 1301 889 
Q 1547 409 2034 409 
Q 2525 409 2770 889 
Q 3016 1369 3016 2328 
Q 3016 3291 2770 3770 
Q 2525 4250 2034 4250 
z
M 2034 4750 
Q 2819 4750 3233 4129 
Q 3647 3509 3647 2328 
Q 3647 1150 3233 529 
Q 2819 -91 2034 -91 
Q 1250 -91 836 529 
Q 422 1150 422 2328 
Q 422 3509 836 4129 
Q 1250 4750 2034 4750 
z
" transform="scale(0.015625)"/>
     </defs>
     <use xlink:href="#DejaVuSans-44"/>
     <use xlink:href="#DejaVuSans-20" x="77.001953"/>
     <use xlink:href="#DejaVuSans-5b" x="108.789062"/>
     <use xlink:href="#DejaVuSans-31" x="147.802734"/>
     <use xlink:href="#DejaVuSans-30" x="211.425781"/>
     <use xlink:href="#DejaVuSans-5d" x="275.048828"/>
    </g>
   </g>
   <g id="text_4">
    <!-- E [10] -->
    <g transform="translate(188.045511 14.798437) scale(0.1 -0.1)">
     <defs>
      <path id="DejaVuSans-45" d="M 628 4666 
L 3578 4666 
L 3578 4134 
L 1259 4134 
L 1259 2753 
L 3481 2753 
L 3481 2222 
L 1259 2222 
L 1259 531 
L 3634 531 
L 3634 0 
L 628 0 
L 628 4666 
z
" transform="scale(0.015625)"/>
     </defs>
     <use xlink:href="#DejaVuSans-45"/>
     <use xlink:href="#DejaVuSans-20" x="63.183594"/>
     <use xlink:href="#DejaVuSans-5b" x="94.970703"/>
     <use xlink:href="#DejaVuSans-31" x="133.984375"/>
     <use xlink:href="#DejaVuSans-30" x="197.607422"/>
     <use xlink:href="#DejaVuSans-5d" x="261.230469"/>
    </g>
   </g>
   <g id="text_5">
    <!-- F [14] -->
    <g transform="translate(130.211368 15.513669) scale(0.1 -0.1)">
     <defs>
      <path id="DejaVuSans-46" d="M 628 4666 
L 3309 4666 
L 3309 4134 
L 1259 4134 
L 1259 2759 
L 3109 2759 
L 3109 2228 
L 1259 2228 
L 1259 0 
L 628 0 
L 628 4666 
z
" transform="scale(0.015625)"/>
      <path id="DejaVuSans-34" d="M 2419 4116 
L 825 1625 
L 2419 1625 
L 2419 4116 
z
M 2253 4666 
L 3047 4666 
L 3047 1625 
L 3713 1625 
L 3713 1100 
L 3047 1100 
L 3047 0 
L 2419 0 
L 2419 1100 
L 313 1100 
L 313 1709 
L 2253 4666 
z
" transform="scale(0.015625)"/>
     </defs>
     <use xlink:href="#DejaVuSans-46"/>
     <use xlink:href="#DejaVuSans-20" x="57.519531"/>
     <use xlink:href="#DejaVuSans-5b" x="89.306641"/>
     <use xlink:href="#DejaVuSans-31" x="128.320312"/>
     <use xlink:href="#DejaVuSans-34" x="191.943359"/>
     <use xlink:href="#DejaVuSans-5d" x="255.566406"/>
    </g>
   </g>
   <g id="text_6">
    <!-- G [38] -->
    <g transform="translate(70.686127 36.148763) scale(0.1 -0.1)">
     <defs>
      <path id="DejaVuSans-47" d="M 3809 666 
L 3809 1919 
L 2778 1919 
L 2778 2438 
L 4434 2438 
L 4434 434 
Q 4069 175 3628 42 
Q 3188 -91 2688 -91 
Q 1594 -91 976 548 
Q 359 1188 359 2328 
Q 359 3472 976 4111 
Q 1594 4750 2688 4750 
Q 3144 4750 3555 4637 
Q 3966 4525 4313 4306 
L 4313 3634 
Q 3963 3931 3569 4081 
Q 3175 4231 2741 4231 
Q 1884 4231 1454 3753 
Q 1025 3275 1025 2328 
Q 1025 1384 1454 906 
Q 1884 428 2741 428 
Q 3075 428 3337 486 
Q 3600 544 3809 666 
z
" transform="scale(0.015625)"/>
      <path id="DejaVuSans-38" d="M 2034 2216 
Q 1584 2216 1326 1975 
Q 1069 1734 1069 1313 
Q 1069 891 1326 650 
Q 1584 409 2034 409 
Q 2484 409 2743 651 
Q 3003 894 3003 1313 
Q 3003 1734 2745 1975 
Q 2488 2216 2034 2216 
z
M 1403 2484 
Q 997 2584 770 2862 
Q 544 3141 544 3541 
Q 544 4100 942 4425 
Q 1341 4750 2034 4750 
Q 2731 4750 3128 4425 
Q 3525 4100 3525 3541 
Q 3525 3141 3298 2862 
Q 3072 2584 2669 2484 
Q 3125 2378 3379 2068 
Q 3634 1759 3634 1313 
Q 3634 634 3220 271 
Q 2806 -91 2034 -91 
Q 1263 -91 848 271 
Q 434 634 434 1313 
Q 434 1759 690 2068 
Q 947 2378 1403 2484 
z
M 1172 3481 
Q 1172 3119 1398 2916 
Q 1625 2713 2034 2713 
Q 2441 2713 2670 2916 
Q 2900 3119 2900 3481 
Q 2900 3844 2670 4047 
Q 2441 4250 2034 4250 
Q 1625 4250 1398 4047 
Q 1172 3844 1172 3481 
z
" transform="scale(0.015625)"/>
     </defs>
     <use xlink:href="#DejaVuSans-47"/>
     <use xlink:href="#DejaVuSans-20" x="77.490234"/>
     <use xlink:href="#DejaVuSans-5b" x="109.277344"/>
     <use xlink:href="#DejaVuSans-33" x="148.291016"/>
     <use xlink:href="#DejaVuSans-38" x="211.914062"/>
     <use xlink:href="#DejaVuSans-5d" x="275.537109"/>
    </g>
   </g>
   <g id="text_7">
    <!-- H [6] -->
    <g transform="translate(39.267233 71.388155) scale(0.1 -0.1)">
     <defs>
      <path id="DejaVuSans-48" d="M 628 4666 
L 1259 4666 
L 1259 2753 
L 3553 2753 
L 3553 4666 
L 4184 4666 
L 4184 0 
L 3553 0 
L 3553 2222 
L 1259 2222 
L 1259 0 
L 628 0 
L 628 4666 
z
" transform="scale(0.015625)"/>
     </defs>
     <use xlink:href="#DejaVuSans-48"/>
     <use xlink:href="#DejaVuSans-20" x="75.195312"/>
     <use xlink:href="#DejaVuSans-5b" x="106.982422"/>
     <use xlink:href="#DejaVuSans-36" x="145.996094"/>
     <use xlink:href="#DejaVuSans-5d" x="209.619141"/>
    </g>
   </g>
   <g id="text_8">
    <!-- I [4] -->
    <g transform="translate(37.185282 81.187282) scale(0.1 -0.1)">
     <defs>
      <path id="DejaVuSans-49" d="M 628 4666 
L 1259 4666 
L 1259 0 
L 628 0 
L 628 4666 
z
" transform="scale(0.015625)"/>
     </defs>
     <use xlink:href="#DejaVuSans-49"/>
     <use xlink:href="#DejaVuSans-20" x="29.492188"/>
     <use xlink:href="#DejaVuSans-5b" x="61.279297"/>
     <use xlink:href="#DejaVuSans-34" x="100.292969"/>
     <use xlink:href="#DejaVuSans-5d" x="163.916016"/>
    </g>
   </g>
   <g id="text_9">
    <!-- K [2] -->
    <g transform="translate(29.989247 87.322659) scale(0.1 -0.1)">
     <defs>
      <path id="DejaVuSans-4b" d="M 628 4666 
L 1259 4666 
L 1259 2694 
L 3353 4666 
L 4166 4666 
L 1850 2491 
L 4331 0 
L 3500 0 
L 1259 2247 
L 1259 0 
L 628 0 
L 628 4666 
z
" transform="scale(0.015625)"/>
      <path id="DejaVuSans-32" d="M 1228 531 
L 3431 531 
L 3431 0 
L 469 0 
L 469 531 
Q 828 903 1448 1529 
Q 2069 2156 2228 2338 
Q 2531 2678 2651 2914 
Q 2772 3150 2772 3378 
Q 2772 3750 2511 3984 
Q 2250 4219 1831 4219 
Q 1534 4219 1204 4116 
Q 875 4013 500 3803 
L 500 4441 
Q 881 4594 1212 4672 
Q 1544 4750 1819 4750 
Q 2544 4750 2975 4387 
Q 3406 4025 3406 3419 
Q 3406 3131 3298 2873 
Q 3191 2616 2906 2266 
Q 2828 2175 2409 1742 
Q 1991 1309 1228 531 
z
" transform="scale(0.015625)"/>
     </defs>
     <use xlink:href="#DejaVuSans-4b"/>
     <use xlink:href="#DejaVuSans-20" x="65.576172"/>
     <use xlink:href="#DejaVuSans-5b" x="97.363281"/>
     <use xlink:href="#DejaVuSans-32" x="136.376953"/>
     <use xlink:href="#DejaVuSans-5d" x="200"/>
    </g>
   </g>
   <g id="text_10">
    <!-- L [63] -->
    <g transform="translate(7.2 161.356832) scale(0.1 -0.1)">
     <defs>
      <path id="DejaVuSans-4c" d="M 628 4666 
L 1259 4666 
L 1259 531 
L 3531 531 
L 3531 0 
L 628 0 
L 628 4666 
z
" transform="scale(0.015625)"/>
     </defs>
     <use xlink:href="#DejaVuSans-4c"/>
     <use xlink:href="#DejaVuSans-20" x="55.712891"/>
     <use xlink:href="#DejaVuSans-5b" x="87.5"/>
     <use xlink:href="#DejaVuSans-36" x="126.513672"/>
     <use xlink:href="#DejaVuSans-33" x="190.136719"/>
     <use xlink:href="#DejaVuSans-5d" x="253.759766"/>
    </g>
   </g>
   <g id="text_11">
    <!-- M [1] -->
    <g transform="translate(33.416056 232.680524) scale(0.1 -0.1)">
     <defs>
      <path id="DejaVuSans-4d" d="M 628 4666 
L 1569 4666 
L 2759 1491 
L 3956 4666 
L 4897 4666 
L 4897 0 
L 4281 0 
L 4281 4097 
L 3078 897 
L 2444 897 
L 1241 4097 
L 1241 0 
L 628 0 
L 628 4666 
z
" transform="scale(0.015625)"/>
     </defs>
     <use xlink:href="#DejaVuSans-4d"/>
     <use xlink:href="#DejaVuSans-20" x="86.279297"/>
     <use xlink:href="#DejaVuSans-5b" x="118.066406"/>
     <use xlink:href="#DejaVuSans-31" x="157.080078"/>
     <use xlink:href="#DejaVuSans-5d" x="220.703125"/>
    </g>
   </g>
   <g id="text_12">
    <!-- N [3] -->
    <g transform="translate(37.224493 236.601143) scale(0.1 -0.1)">
     <defs>
      <path id="DejaVuSans-4e" d="M 628 4666 
L 1478 4666 
L 3547 763 
L 3547 4666 
L 4159 4666 
L 4159 0 
L 3309 0 
L 1241 3903 
L 1241 0 
L 628 0 
L 628 4666 
z
" transform="scale(0.015625)"/>
     </defs>
     <use xlink:href="#DejaVuSans-4e"/>
     <use xlink:href="#DejaVuSans-20" x="74.804688"/>
     <use xlink:href="#DejaVuSans-5b" x="106.591797"/>
     <use xlink:href="#DejaVuSans-33" x="145.605469"/>
     <use xlink:href="#DejaVuSans-5d" x="209.228516"/>
    </g>
   </g>
   <g id="text_13">
    <!-- P [30] -->
    <g transform="translate(58.928908 265.067954) scale(0.1 -0.1)">
     <defs>
      <path id="DejaVuSans-50" d="M 1259 4147 
L 1259 2394 
L 2053 2394 
Q 2494 2394 2734 2622 
Q 2975 2850 2975 3272 
Q 2975 3691 2734 3919 
Q 2494 4147 2053 4147 
L 1259 4147 
z
M 628 4666 
L 2053 4666 
Q 2838 4666 3239 4311 
Q 3641 3956 3641 3272 
Q 3641 2581 3239 2228 
Q 2838 1875 2053 1875 
L 1259 1875 
L 1259 0 
L 628 0 
L 628 4666 
z
" transform="scale(0.015625)"/>
     </defs>
     <use xlink:href="#DejaVuSans-50"/>
     <use xlink:href="#DejaVuSans-20" x="60.302734"/>
     <use xlink:href="#DejaVuSans-5b" x="92.089844"/>
     <use xlink:href="#DejaVuSans-33" x="131.103516"/>
     <use xlink:href="#DejaVuSans-30" x="194.726562"/>
     <use xlink:href="#DejaVuSans-5d" x="258.349609"/>
    </g>
   </g>
   <g id="text_14">
    <!-- Q [6] -->
    <g transform="translate(100.125262 286.517619) scale(0.1 -0.1)">
     <defs>
      <path id="DejaVuSans-51" d="M 2522 4238 
Q 1834 4238 1429 3725 
Q 1025 3213 1025 2328 
Q 1025 1447 1429 934 
Q 1834 422 2522 422 
Q 3209 422 3611 934 
Q 4013 1447 4013 2328 
Q 4013 3213 3611 3725 
Q 3209 4238 2522 4238 
z
M 3406 84 
L 4238 -825 
L 3475 -825 
L 2784 -78 
Q 2681 -84 2626 -87 
Q 2572 -91 2522 -91 
Q 1538 -91 948 567 
Q 359 1225 359 2328 
Q 359 3434 948 4092 
Q 1538 4750 2522 4750 
Q 3503 4750 4090 4092 
Q 4678 3434 4678 2328 
Q 4678 1516 4351 937 
Q 4025 359 3406 84 
z
" transform="scale(0.015625)"/>
     </defs>
     <use xlink:href="#DejaVuSans-51"/>
     <use xlink:href="#DejaVuSans-20" x="78.710938"/>
     <use xlink:href="#DejaVuSans-5b" x="110.498047"/>
     <use xlink:href="#DejaVuSans-36" x="149.511719"/>
     <use xlink:href="#DejaVuSans-5d" x="213.134766"/>
    </g>
   </g>
   <g id="text_15">
    <!-- R [37] -->
    <g transform="translate(144.369061 296.454402) scale(0.1 -0.1)">
     <defs>
      <path id="DejaVuSans-52" d="M 2841 2188 
Q 3044 2119 3236 1894 
Q 3428 1669 3622 1275 
L 4263 0 
L 3584 0 
L 2988 1197 
Q 2756 1666 2539 1819 
Q 2322 1972 1947 1972 
L 1259 1972 
L 1259 0 
L 628 0 
L 628 4666 
L 2053 4666 
Q 2853 4666 3247 4331 
Q 3641 3997 3641 3322 
Q 3641 2881 3436 2590 
Q 3231 2300 2841 2188 
z
M 1259 4147 
L 1259 2491 
L 2053 2491 
Q 2509 2491 2742 2702 
Q 2975 2913 2975 3322 
Q 2975 3731 2742 3939 
Q 2509 4147 2053 4147 
L 1259 4147 
z
" transform="scale(0.015625)"/>
      <path id="DejaVuSans-37" d="M 525 4666 
L 3525 4666 
L 3525 4397 
L 1831 0 
L 1172 0 
L 2766 4134 
L 525 4134 
L 525 4666 
z
" transform="scale(0.015625)"/>
     </defs>
     <use xlink:href="#DejaVuSans-52"/>
     <use xlink:href="#DejaVuSans-20" x="69.482422"/>
     <use xlink:href="#DejaVuSans-5b" x="101.269531"/>
     <use xlink:href="#DejaVuSans-33" x="140.283203"/>
     <use xlink:href="#DejaVuSans-37" x="203.90625"/>
     <use xlink:href="#DejaVuSans-5d" x="267.529297"/>
    </g>
   </g>
   <g id="text_16">
    <!-- S [31] -->
    <g transform="translate(251.64075 275.349034) scale(0.1 -0.1)">
     <defs>
      <path id="DejaVuSans-53" d="M 3425 4513 
L 3425 3897 
Q 3066 4069 2747 4153 
Q 2428 4238 2131 4238 
Q 1616 4238 1336 4038 
Q 1056 3838 1056 3469 
Q 1056 3159 1242 3001 
Q 1428 2844 1947 2747 
L 2328 2669 
Q 3034 2534 3370 2195 
Q 3706 1856 3706 1288 
Q 3706 609 3251 259 
Q 2797 -91 1919 -91 
Q 1588 -91 1214 -16 
Q 841 59 441 206 
L 441 856 
Q 825 641 1194 531 
Q 1563 422 1919 422 
Q 2459 422 2753 634 
Q 3047 847 3047 1241 
Q 3047 1584 2836 1778 
Q 2625 1972 2144 2069 
L 1759 2144 
Q 1053 2284 737 2584 
Q 422 2884 422 3419 
Q 422 4038 858 4394 
Q 1294 4750 2059 4750 
Q 2388 4750 2728 4690 
Q 3069 4631 3425 4513 
z
" transform="scale(0.015625)"/>
     </defs>
     <use xlink:href="#DejaVuSans-53"/>
     <use xlink:href="#DejaVuSans-20" x="63.476562"/>
     <use xlink:href="#DejaVuSans-5b" x="95.263672"/>
     <use xlink:href="#DejaVuSans-33" x="134.277344"/>
     <use xlink:href="#DejaVuSans-31" x="197.900391"/>
     <use xlink:href="#DejaVuSans-5d" x="261.523438"/>
    </g>
   </g>
   <g id="text_17">
    <!-- T [10] -->
    <g transform="translate(287.767554 243.239174) scale(0.1 -0.1)">
     <defs>
      <path id="DejaVuSans-54" d="M -19 4666 
L 3928 4666 
L 3928 4134 
L 2272 4134 
L 2272 0 
L 1638 0 
L 1638 4134 
L -19 4134 
L -19 4666 
z
" transform="scale(0.015625)"/>
     </defs>
     <use xlink:href="#DejaVuSans-54"/>
     <use xlink:href="#DejaVuSans-20" x="61.083984"/>
     <use xlink:href="#DejaVuSans-5b" x="92.871094"/>
     <use xlink:href="#DejaVuSans-31" x="131.884766"/>
     <use xlink:href="#DejaVuSans-30" x="195.507812"/>
     <use xlink:href="#DejaVuSans-5d" x="259.130859"/>
    </g>
   </g>
   <g id="text_18">
    <!-- V [18] -->
    <g transform="translate(305.190341 215.100415) scale(0.1 -0.1)">
     <defs>
      <path id="DejaVuSans-56" d="M 1831 0 
L 50 4666 
L 709 4666 
L 2188 738 
L 3669 4666 
L 4325 4666 
L 2547 0 
L 1831 0 
z
" transform="scale(0.015625)"/>
     </defs>
     <use xlink:href="#DejaVuSans-56"/>
     <use xlink:href="#DejaVuSans-20" x="68.408203"/>
     <use xlink:href="#DejaVuSans-5b" x="100.195312"/>
     <use xlink:href="#DejaVuSans-31" x="139.208984"/>
     <use xlink:href="#DejaVuSans-38" x="202.832031"/>
     <use xlink:href="#DejaVuSans-5d" x="266.455078"/>
    </g>
   </g>
   <g id="text_19">
    <!-- W [9] -->
    <g transform="translate(315.333973 184.835946) scale(0.1 -0.1)">
     <defs>
      <path id="DejaVuSans-57" d="M 213 4666 
L 850 4666 
L 1831 722 
L 2809 4666 
L 3519 4666 
L 4500 722 
L 5478 4666 
L 6119 4666 
L 4947 0 
L 4153 0 
L 3169 4050 
L 2175 0 
L 1381 0 
L 213 4666 
z
" transform="scale(0.015625)"/>
      <path id="DejaVuSans-39" d="M 703 97 
L 703 672 
Q 941 559 1184 500 
Q 1428 441 1663 441 
Q 2288 441 2617 861 
Q 2947 1281 2994 2138 
Q 2813 1869 2534 1725 
Q 2256 1581 1919 1581 
Q 1219 1581 811 2004 
Q 403 2428 403 3163 
Q 403 3881 828 4315 
Q 1253 4750 1959 4750 
Q 2769 4750 3195 4129 
Q 3622 3509 3622 2328 
Q 3622 1225 3098 567 
Q 2575 -91 1691 -91 
Q 1453 -91 1209 -44 
Q 966 3 703 97 
z
M 1959 2075 
Q 2384 2075 2632 2365 
Q 2881 2656 2881 3163 
Q 2881 3666 2632 3958 
Q 2384 4250 1959 4250 
Q 1534 4250 1286 3958 
Q 1038 3666 1038 3163 
Q 1038 2656 1286 2365 
Q 1534 2075 1959 2075 
z
" transform="scale(0.015625)"/>
     </defs>
     <use xlink:href="#DejaVuSans-57"/>
     <use xlink:href="#DejaVuSans-20" x="98.876953"/>
     <use xlink:href="#DejaVuSans-5b" x="130.664062"/>
     <use xlink:href="#DejaVuSans-39" x="169.677734"/>
     <use xlink:href="#DejaVuSans-5d" x="233.300781"/>
    </g>
   </g>
   <g id="text_20">
    <!-- Y [8] -->
    <g transform="translate(318.114132 164.905654) scale(0.1 -0.1)">
     <defs>
      <path id="DejaVuSans-59" d="M -13 4666 
L 666 4666 
L 1959 2747 
L 3244 4666 
L 3922 4666 
L 2272 2222 
L 2272 0 
L 1638 0 
L 1638 2222 
L -13 4666 
z
" transform="scale(0.015625)"/>
     </defs>
     <use xlink:href="#DejaVuSans-59"/>
     <use xlink:href="#DejaVuSans-20" x="61.083984"/>
     <use xlink:href="#DejaVuSans-5b" x="92.871094"/>
     <use xlink:href="#DejaVuSans-38" x="131.884766"/>
     <use xlink:href="#DejaVuSans-5d" x="195.507812"/>
    </g>
   </g>
   <g id="text_21">
    <!-- A0AAJ7P3A3 [374] -->
    <g transform="translate(122.111545 152.67557) scale(0.12 -0.12)">
     <defs>
      <path id="DejaVuSans-4a" d="M 628 4666 
L 1259 4666 
L 1259 325 
Q 1259 -519 939 -900 
Q 619 -1281 -91 -1281 
L -331 -1281 
L -331 -750 
L -134 -750 
Q 284 -750 456 -515 
Q 628 -281 628 325 
L 628 4666 
z
" transform="scale(0.015625)"/>
     </defs>
     <use xlink:href="#DejaVuSans-41"/>
     <use xlink:href="#DejaVuSans-30" x="68.408203"/>
     <use xlink:href="#DejaVuSans-41" x="132.03125"/>
     <use xlink:href="#DejaVuSans-41" x="203.189453"/>
     <use xlink:href="#DejaVuSans-4a" x="271.597656"/>
     <use xlink:href="#DejaVuSans-37" x="301.089844"/>
     <use xlink:href="#DejaVuSans-50" x="364.712891"/>
     <use xlink:href="#DejaVuSans-33" x="425.015625"/>
     <use xlink:href="#DejaVuSans-41" x="488.638672"/>
     <use xlink:href="#DejaVuSans-33" x="557.046875"/>
     <use xlink:href="#DejaVuSans-20" x="620.669922"/>
     <use xlink:href="#DejaVuSans-5b" x="652.457031"/>
     <use xlink:href="#DejaVuSans-33" x="691.470703"/>
     <use xlink:href="#DejaVuSans-37" x="755.09375"/>
     <use xlink:href="#DejaVuSans-34" x="818.716797"/>
     <use xlink:href="#DejaVuSans-5d" x="882.339844"/>
    </g>
   </g>
  </g>
 </g>
</svg>
