<?xml version="1.0" encoding="utf-8" standalone="no"?>
<!DOCTYPE svg PUBLIC "-//W3C//DTD SVG 1.1//EN"
  "http://www.w3.org/Graphics/SVG/1.1/DTD/svg11.dtd">
<svg xmlns:xlink="http://www.w3.org/1999/xlink" width="355.1685pt" height="305.799616pt" viewBox="0 0 355.1685 305.799616" xmlns="http://www.w3.org/2000/svg" version="1.1">
 <metadata>
  <rdf:RDF xmlns:dc="http://purl.org/dc/elements/1.1/" xmlns:cc="http://creativecommons.org/ns#" xmlns:rdf="http://www.w3.org/1999/02/22-rdf-syntax-ns#">
   <cc:Work>
    <dc:type rdf:resource="http://purl.org/dc/dcmitype/StillImage"/>
    <dc:date>2024-09-27T16:07:13.389263</dc:date>
    <dc:format>image/svg+xml</dc:format>
    <dc:creator>
     <cc:Agent>
      <dc:title>Matplotlib v3.8.3, https://matplotlib.org/</dc:title>
     </cc:Agent>
    </dc:creator>
   </cc:Work>
  </rdf:RDF>
 </metadata>
 <defs>
  <style type="text/css">*{stroke-linejoin: round; stroke-linecap: butt}</style>
 </defs>
 <g id="figure_1">
  <g id="patch_1">
   <path d="M 0 305.799616 
L 355.1685 305.799616 
L 355.1685 0 
L 0 0 
z
" style="fill: #ffffff"/>
  </g>
  <g id="axes_1">
   <g id="patch_2">
    <path d="M 306.125507 152.909341 
C 306.125507 143.081051 304.991171 133.285518 302.745034 123.717333 
C 300.498897 114.149148 297.155931 104.872092 292.782545 96.070457 
L 178.391747 152.909341 
z
" style="fill: #1f77b4"/>
   </g>
   <g id="patch_3">
    <path d="M 292.721966 95.920242 
C 291.30202 93.062537 289.775486 90.259046 288.145578 87.515668 
C 286.515669 84.77229 284.78353 82.090953 282.952808 79.477301 
L 178.331168 152.759127 
z
" style="fill: #ff7f0e"/>
   </g>
   <g id="patch_4">
    <path d="M 282.907088 79.412029 
C 281.076365 76.798376 279.148344 74.254244 277.127083 71.784988 
C 275.105822 69.315732 272.992741 66.923085 270.792287 64.612084 
L 178.285448 152.693854 
z
" style="fill: #aec7e8"/>
   </g>
   <g id="patch_5">
    <path d="M 270.704343 64.526885 
C 266.132399 59.725255 261.193538 55.286869 255.932551 51.251979 
C 250.671564 47.217088 245.104403 43.597928 239.281554 40.427319 
L 178.197504 152.608655 
z
" style="fill: #ffbb78"/>
   </g>
   <g id="patch_6">
    <path d="M 239.139529 40.349453 
C 233.532548 37.296386 227.704552 34.667977 221.704561 32.486335 
C 215.704569 30.304692 209.549449 28.575948 203.290969 27.314642 
L 178.055479 152.530789 
z
" style="fill: #98df8a"/>
   </g>
   <g id="patch_7">
    <path d="M 203.095294 27.282783 
C 193.702094 25.38972 184.125636 24.559613 174.546798 24.808141 
C 164.967961 25.056669 155.447434 26.382258 146.165039 28.759868 
L 177.859804 152.49893 
z
" style="fill: #2ca02c"/>
   </g>
   <g id="patch_8">
    <path d="M 146.017297 28.784799 
C 143.639532 29.393844 141.279816 30.0713 138.941088 30.816321 
C 136.60236 31.561343 134.285593 32.373621 131.993672 33.252144 
L 177.712062 152.52386 
z
" style="fill: #d62728"/>
   </g>
   <g id="patch_9">
    <path d="M 131.882052 33.302484 
C 125.002485 35.939511 118.363952 39.16682 112.040752 42.948289 
C 105.717552 46.729758 99.733363 51.051229 94.155158 55.864336 
L 177.600443 152.5742 
z
" style="fill: #9467bd"/>
   </g>
   <g id="patch_10">
    <path d="M 94.034519 55.963087 
C 90.131014 59.331193 86.435008 62.932548 82.96679 66.747381 
C 79.498572 70.562215 76.264501 74.583533 73.28233 78.789261 
L 177.479804 152.672951 
z
" style="fill: #ff9896"/>
   </g>
   <g id="patch_11">
    <path d="M 73.160176 79.016709 
C 64.048744 91.866476 57.392398 106.291533 53.527755 121.562395 
C 49.663112 136.833258 48.656434 152.688093 50.558629 168.325112 
L 177.35765 152.9004 
z
" style="fill: #c5b0d5"/>
   </g>
   <g id="patch_12">
    <path d="M 50.552552 168.559331 
C 50.937892 171.727017 51.441798 174.879151 52.063211 178.009098 
C 52.684624 181.139045 53.423107 184.244607 54.277106 187.319247 
L 177.351573 153.134618 
z
" style="fill: #c49c94"/>
   </g>
   <g id="patch_13">
    <path d="M 54.303841 187.410387 
C 55.486427 191.668037 56.889151 195.861454 58.506355 199.973722 
C 60.123559 204.08599 61.953064 208.11157 63.987489 212.034223 
L 177.378308 153.225758 
z
" style="fill: #8c564b"/>
   </g>
   <g id="patch_14">
    <path d="M 64.036568 212.129524 
C 65.957923 215.834162 68.059679 219.442416 70.33427 222.941299 
C 72.608862 226.440182 75.053557 229.825493 77.659559 233.085049 
L 177.427387 153.321059 
z
" style="fill: #e377c2"/>
   </g>
   <g id="patch_15">
    <path d="M 77.722458 233.164187 
C 80.175109 236.231935 82.767951 239.184926 85.492717 242.013746 
C 88.217483 244.842567 91.071274 247.544207 94.044992 250.110055 
L 177.490285 153.400198 
z
" style="fill: #7f7f7f"/>
   </g>
   <g id="patch_16">
    <path d="M 94.149902 250.194427 
C 99.355809 254.6863 104.915924 258.750497 110.776026 262.347383 
C 116.636128 265.944269 122.777106 269.062115 129.139074 271.670516 
L 177.595195 153.48457 
z
" style="fill: #f7b6d2"/>
   </g>
   <g id="patch_17">
    <path d="M 129.382232 271.747976 
C 142.126814 276.973241 155.633096 280.102805 169.377013 281.015234 
C 183.120929 281.927662 196.922387 280.611 210.245866 277.116336 
L 177.838353 153.56203 
z
" style="fill: #c7c7c7"/>
   </g>
   <g id="patch_18">
    <path d="M 210.519323 277.061224 
C 219.073566 274.8175 227.371713 271.691455 235.280149 267.733423 
C 243.188585 263.775392 250.664633 259.006732 257.587915 253.504229 
L 178.11181 153.506918 
z
" style="fill: #dbdb8d"/>
   </g>
   <g id="patch_19">
    <path d="M 257.780291 253.341119 
C 266.824714 246.152771 274.852227 237.770482 281.642964 228.423835 
C 288.433701 219.077189 293.925095 208.852301 297.966742 198.029223 
L 178.304186 153.343808 
z
" style="fill: #bcbd22"/>
   </g>
   <g id="patch_20">
    <path d="M 298.047297 197.864729 
C 299.163626 194.875325 300.167541 191.845139 301.056929 188.780549 
C 301.946317 185.715959 302.720554 182.619117 303.37801 179.496542 
L 178.384742 153.179313 
z
" style="fill: #17becf"/>
   </g>
   <g id="patch_21">
    <path d="M 303.396237 179.403328 
C 304.306658 175.079299 304.992087 170.710938 305.449759 166.315869 
C 305.907431 161.9208 306.13673 157.504942 306.13673 153.086108 
L 178.40297 153.086099 
z
" style="fill: #9edae5"/>
   </g>
   <g id="patch_22">
    <path d="M 252.384968 153.030975 
C 252.384968 147.297805 251.723272 141.583744 250.413026 136.002303 
C 249.102779 130.420862 247.152716 125.009246 244.601574 119.874959 
L 177.873608 153.030975 
z
" style="fill: #ffffff"/>
   </g>
   <g id="patch_23">
    <path d="M 244.601574 119.874959 
C 243.773272 118.207964 242.882794 116.572594 241.932014 114.97229 
C 240.981234 113.371987 239.970819 111.807873 238.902898 110.283243 
L 177.873608 153.030975 
z
" style="fill: #ffffff"/>
   </g>
   <g id="patch_24">
    <path d="M 238.902898 110.283243 
C 237.834976 108.758613 236.710297 107.274536 235.531229 105.834136 
C 234.35216 104.393736 233.119529 102.998026 231.835931 101.649942 
L 177.873608 153.030975 
z
" style="fill: #ffffff"/>
   </g>
   <g id="patch_25">
    <path d="M 231.835931 101.649942 
C 229.168963 98.848991 226.287961 96.259933 223.219052 93.906247 
C 220.150143 91.552561 216.902632 89.441384 213.505971 87.591862 
L 177.873608 153.030975 
z
" style="fill: #ffffff"/>
   </g>
   <g id="patch_26">
    <path d="M 213.505971 87.591862 
C 210.235231 85.810906 206.835568 84.277668 203.335572 83.005043 
C 199.835577 81.732418 196.245091 80.723984 192.59431 79.988222 
L 177.873608 153.030975 
z
" style="fill: #ffffff"/>
   </g>
   <g id="patch_27">
    <path d="M 192.59431 79.988222 
C 187.114944 78.883936 181.528677 78.399707 175.941022 78.544681 
C 170.353366 78.689656 164.799726 79.462916 159.384995 80.849856 
L 177.873608 153.030975 
z
" style="fill: #ffffff"/>
   </g>
   <g id="patch_28">
    <path d="M 159.384995 80.849856 
C 157.997965 81.205132 156.621464 81.600314 155.257206 82.03491 
C 153.892949 82.469506 152.541501 82.943335 151.204547 83.455807 
L 177.873608 153.030975 
z
" style="fill: #ffffff"/>
   </g>
   <g id="patch_29">
    <path d="M 151.204547 83.455807 
C 147.191466 84.994073 143.318989 86.876669 139.630455 89.082527 
C 135.941922 91.288384 132.451145 93.809242 129.197192 96.616887 
L 177.873608 153.030975 
z
" style="fill: #ffffff"/>
   </g>
   <g id="patch_30">
    <path d="M 129.197192 96.616887 
C 126.920147 98.581616 124.764144 100.682406 122.741017 102.907725 
C 120.717889 105.133045 118.831348 107.478814 117.091748 109.932155 
L 177.873608 153.030975 
z
" style="fill: #ffffff"/>
   </g>
   <g id="patch_31">
    <path d="M 117.091748 109.932155 
C 111.776746 117.427852 107.893878 125.842469 105.639503 134.750472 
C 103.385128 143.658475 102.797899 152.907129 103.907513 162.028723 
L 177.873608 153.030975 
z
" style="fill: #ffffff"/>
   </g>
   <g id="patch_32">
    <path d="M 103.907513 162.028723 
C 104.132294 163.87654 104.426239 165.715286 104.78873 167.541088 
C 105.151221 169.36689 105.582003 171.178468 106.080169 172.972008 
L 177.873608 153.030975 
z
" style="fill: #ffffff"/>
   </g>
   <g id="patch_33">
    <path d="M 106.080169 172.972008 
C 106.770011 175.455637 107.588267 177.901798 108.531635 180.30062 
C 109.475004 182.699443 110.542215 185.047699 111.728964 187.335913 
L 177.873608 153.030975 
z
" style="fill: #ffffff"/>
   </g>
   <g id="patch_34">
    <path d="M 111.728964 187.335913 
C 112.849754 189.496952 114.075778 191.601766 115.402623 193.642781 
C 116.729468 195.683796 118.155541 197.658561 119.675709 199.559969 
L 177.873608 153.030975 
z
" style="fill: #ffffff"/>
   </g>
   <g id="patch_35">
    <path d="M 119.675709 199.559969 
C 121.106422 201.349488 122.618914 203.072066 124.20836 204.722211 
C 125.797807 206.372356 127.462518 207.948314 129.197187 209.445058 
L 177.873608 153.030975 
z
" style="fill: #ffffff"/>
   </g>
   <g id="patch_36">
    <path d="M 129.197187 209.445058 
C 132.233966 212.065317 135.477367 214.436099 138.89576 216.534282 
C 142.314153 218.632466 145.89639 220.451209 149.607538 221.972776 
L 177.873608 153.030975 
z
" style="fill: #ffffff"/>
   </g>
   <g id="patch_37">
    <path d="M 149.607538 221.972776 
C 157.041877 225.020848 164.920542 226.846427 172.937827 227.378677 
C 180.955111 227.910927 189.005962 227.142874 196.777991 225.10432 
L 177.873608 153.030975 
z
" style="fill: #ffffff"/>
   </g>
   <g id="patch_38">
    <path d="M 196.777991 225.10432 
C 201.767966 223.795481 206.608552 221.971954 211.221806 219.663103 
C 215.83506 217.354251 220.196088 214.572533 224.234669 211.362739 
L 177.873608 153.030975 
z
" style="fill: #ffffff"/>
   </g>
   <g id="patch_39">
    <path d="M 224.234669 211.362739 
C 229.510583 207.169536 234.193298 202.279868 238.154562 196.827657 
C 242.115825 191.375447 245.319138 185.410929 247.676765 179.097467 
L 177.873608 153.030975 
z
" style="fill: #ffffff"/>
   </g>
   <g id="patch_40">
    <path d="M 247.676765 179.097467 
C 248.327957 177.353648 248.913574 175.58604 249.432384 173.798362 
C 249.951194 172.010685 250.402832 170.204194 250.786348 168.382692 
L 177.873608 153.030975 
z
" style="fill: #ffffff"/>
   </g>
   <g id="patch_41">
    <path d="M 250.786348 168.382692 
C 251.317426 165.860341 251.71726 163.312131 251.984235 160.748341 
C 252.25121 158.184551 252.384968 155.608633 252.384968 153.03098 
L 177.873608 153.030975 
z
" style="fill: #ffffff"/>
   </g>
   <g id="matplotlib.axis_1"/>
   <g id="matplotlib.axis_2"/>
   <g id="text_1">
    <!-- A [40] -->
    <g transform="translate(315.180363 123.557507) scale(0.1 -0.1)">
     <defs>
      <path id="DejaVuSans-41" d="M 2188 4044 
L 1331 1722 
L 3047 1722 
L 2188 4044 
z
M 1831 4666 
L 2547 4666 
L 4325 0 
L 3669 0 
L 3244 1197 
L 1141 1197 
L 716 0 
L 50 0 
L 1831 4666 
z
" transform="scale(0.015625)"/>
      <path id="DejaVuSans-20" transform="scale(0.015625)"/>
      <path id="DejaVuSans-5b" d="M 550 4863 
L 1875 4863 
L 1875 4416 
L 1125 4416 
L 1125 -397 
L 1875 -397 
L 1875 -844 
L 550 -844 
L 550 4863 
z
" transform="scale(0.015625)"/>
      <path id="DejaVuSans-34" d="M 2419 4116 
L 825 1625 
L 2419 1625 
L 2419 4116 
z
M 2253 4666 
L 3047 4666 
L 3047 1625 
L 3713 1625 
L 3713 1100 
L 3047 1100 
L 3047 0 
L 2419 0 
L 2419 1100 
L 313 1100 
L 313 1709 
L 2253 4666 
z
" transform="scale(0.015625)"/>
      <path id="DejaVuSans-30" d="M 2034 4250 
Q 1547 4250 1301 3770 
Q 1056 3291 1056 2328 
Q 1056 1369 1301 889 
Q 1547 409 2034 409 
Q 2525 409 2770 889 
Q 3016 1369 3016 2328 
Q 3016 3291 2770 3770 
Q 2525 4250 2034 4250 
z
M 2034 4750 
Q 2819 4750 3233 4129 
Q 3647 3509 3647 2328 
Q 3647 1150 3233 529 
Q 2819 -91 2034 -91 
Q 1250 -91 836 529 
Q 422 1150 422 2328 
Q 422 3509 836 4129 
Q 1250 4750 2034 4750 
z
" transform="scale(0.015625)"/>
      <path id="DejaVuSans-5d" d="M 1947 4863 
L 1947 -844 
L 622 -844 
L 622 -397 
L 1369 -397 
L 1369 4416 
L 622 4416 
L 622 4863 
L 1947 4863 
z
" transform="scale(0.015625)"/>
     </defs>
     <use xlink:href="#DejaVuSans-41"/>
     <use xlink:href="#DejaVuSans-20" x="68.408203"/>
     <use xlink:href="#DejaVuSans-5b" x="100.195312"/>
     <use xlink:href="#DejaVuSans-34" x="139.208984"/>
     <use xlink:href="#DejaVuSans-30" x="202.832031"/>
     <use xlink:href="#DejaVuSans-5d" x="266.455078"/>
    </g>
   </g>
   <g id="text_2">
    <!-- C [13] -->
    <g transform="translate(299.127019 83.750697) scale(0.1 -0.1)">
     <defs>
      <path id="DejaVuSans-43" d="M 4122 4306 
L 4122 3641 
Q 3803 3938 3442 4084 
Q 3081 4231 2675 4231 
Q 1875 4231 1450 3742 
Q 1025 3253 1025 2328 
Q 1025 1406 1450 917 
Q 1875 428 2675 428 
Q 3081 428 3442 575 
Q 3803 722 4122 1019 
L 4122 359 
Q 3791 134 3420 21 
Q 3050 -91 2638 -91 
Q 1578 -91 968 557 
Q 359 1206 359 2328 
Q 359 3453 968 4101 
Q 1578 4750 2638 4750 
Q 3056 4750 3426 4639 
Q 3797 4528 4122 4306 
z
" transform="scale(0.015625)"/>
      <path id="DejaVuSans-31" d="M 794 531 
L 1825 531 
L 1825 4091 
L 703 3866 
L 703 4441 
L 1819 4666 
L 2450 4666 
L 2450 531 
L 3481 531 
L 3481 0 
L 794 0 
L 794 531 
z
" transform="scale(0.015625)"/>
      <path id="DejaVuSans-33" d="M 2597 2516 
Q 3050 2419 3304 2112 
Q 3559 1806 3559 1356 
Q 3559 666 3084 287 
Q 2609 -91 1734 -91 
Q 1441 -91 1130 -33 
Q 819 25 488 141 
L 488 750 
Q 750 597 1062 519 
Q 1375 441 1716 441 
Q 2309 441 2620 675 
Q 2931 909 2931 1356 
Q 2931 1769 2642 2001 
Q 2353 2234 1838 2234 
L 1294 2234 
L 1294 2753 
L 1863 2753 
Q 2328 2753 2575 2939 
Q 2822 3125 2822 3475 
Q 2822 3834 2567 4026 
Q 2313 4219 1838 4219 
Q 1578 4219 1281 4162 
Q 984 4106 628 3988 
L 628 4550 
Q 988 4650 1302 4700 
Q 1616 4750 1894 4750 
Q 2613 4750 3031 4423 
Q 3450 4097 3450 3541 
Q 3450 3153 3228 2886 
Q 3006 2619 2597 2516 
z
" transform="scale(0.015625)"/>
     </defs>
     <use xlink:href="#DejaVuSans-43"/>
     <use xlink:href="#DejaVuSans-20" x="69.824219"/>
     <use xlink:href="#DejaVuSans-5b" x="101.611328"/>
     <use xlink:href="#DejaVuSans-31" x="140.625"/>
     <use xlink:href="#DejaVuSans-33" x="204.248047"/>
     <use xlink:href="#DejaVuSans-5d" x="267.871094"/>
    </g>
   </g>
   <g id="text_3">
    <!-- D [13] -->
    <g transform="translate(287.011247 66.453476) scale(0.1 -0.1)">
     <defs>
      <path id="DejaVuSans-44" d="M 1259 4147 
L 1259 519 
L 2022 519 
Q 2988 519 3436 956 
Q 3884 1394 3884 2338 
Q 3884 3275 3436 3711 
Q 2988 4147 2022 4147 
L 1259 4147 
z
M 628 4666 
L 1925 4666 
Q 3281 4666 3915 4102 
Q 4550 3538 4550 2338 
Q 4550 1131 3912 565 
Q 3275 0 1925 0 
L 628 0 
L 628 4666 
z
" transform="scale(0.015625)"/>
     </defs>
     <use xlink:href="#DejaVuSans-44"/>
     <use xlink:href="#DejaVuSans-20" x="77.001953"/>
     <use xlink:href="#DejaVuSans-5b" x="108.789062"/>
     <use xlink:href="#DejaVuSans-31" x="147.802734"/>
     <use xlink:href="#DejaVuSans-33" x="211.425781"/>
     <use xlink:href="#DejaVuSans-5d" x="275.048828"/>
    </g>
   </g>
   <g id="text_4">
    <!-- E [27] -->
    <g transform="translate(263.706056 43.875686) scale(0.1 -0.1)">
     <defs>
      <path id="DejaVuSans-45" d="M 628 4666 
L 3578 4666 
L 3578 4134 
L 1259 4134 
L 1259 2753 
L 3481 2753 
L 3481 2222 
L 1259 2222 
L 1259 531 
L 3634 531 
L 3634 0 
L 628 0 
L 628 4666 
z
" transform="scale(0.015625)"/>
      <path id="DejaVuSans-32" d="M 1228 531 
L 3431 531 
L 3431 0 
L 469 0 
L 469 531 
Q 828 903 1448 1529 
Q 2069 2156 2228 2338 
Q 2531 2678 2651 2914 
Q 2772 3150 2772 3378 
Q 2772 3750 2511 3984 
Q 2250 4219 1831 4219 
Q 1534 4219 1204 4116 
Q 875 4013 500 3803 
L 500 4441 
Q 881 4594 1212 4672 
Q 1544 4750 1819 4750 
Q 2544 4750 2975 4387 
Q 3406 4025 3406 3419 
Q 3406 3131 3298 2873 
Q 3191 2616 2906 2266 
Q 2828 2175 2409 1742 
Q 1991 1309 1228 531 
z
" transform="scale(0.015625)"/>
      <path id="DejaVuSans-37" d="M 525 4666 
L 3525 4666 
L 3525 4397 
L 1831 0 
L 1172 0 
L 2766 4134 
L 525 4134 
L 525 4666 
z
" transform="scale(0.015625)"/>
     </defs>
     <use xlink:href="#DejaVuSans-45"/>
     <use xlink:href="#DejaVuSans-20" x="63.183594"/>
     <use xlink:href="#DejaVuSans-5b" x="94.970703"/>
     <use xlink:href="#DejaVuSans-32" x="133.984375"/>
     <use xlink:href="#DejaVuSans-37" x="197.607422"/>
     <use xlink:href="#DejaVuSans-5d" x="261.230469"/>
    </g>
   </g>
   <g id="text_5">
    <!-- F [26] -->
    <g transform="translate(226.069469 23.241264) scale(0.1 -0.1)">
     <defs>
      <path id="DejaVuSans-46" d="M 628 4666 
L 3309 4666 
L 3309 4134 
L 1259 4134 
L 1259 2759 
L 3109 2759 
L 3109 2228 
L 1259 2228 
L 1259 0 
L 628 0 
L 628 4666 
z
" transform="scale(0.015625)"/>
      <path id="DejaVuSans-36" d="M 2113 2584 
Q 1688 2584 1439 2293 
Q 1191 2003 1191 1497 
Q 1191 994 1439 701 
Q 1688 409 2113 409 
Q 2538 409 2786 701 
Q 3034 994 3034 1497 
Q 3034 2003 2786 2293 
Q 2538 2584 2113 2584 
z
M 3366 4563 
L 3366 3988 
Q 3128 4100 2886 4159 
Q 2644 4219 2406 4219 
Q 1781 4219 1451 3797 
Q 1122 3375 1075 2522 
Q 1259 2794 1537 2939 
Q 1816 3084 2150 3084 
Q 2853 3084 3261 2657 
Q 3669 2231 3669 1497 
Q 3669 778 3244 343 
Q 2819 -91 2113 -91 
Q 1303 -91 875 529 
Q 447 1150 447 2328 
Q 447 3434 972 4092 
Q 1497 4750 2381 4750 
Q 2619 4750 2861 4703 
Q 3103 4656 3366 4563 
z
" transform="scale(0.015625)"/>
     </defs>
     <use xlink:href="#DejaVuSans-46"/>
     <use xlink:href="#DejaVuSans-20" x="57.519531"/>
     <use xlink:href="#DejaVuSans-5b" x="89.306641"/>
     <use xlink:href="#DejaVuSans-32" x="128.320312"/>
     <use xlink:href="#DejaVuSans-36" x="191.943359"/>
     <use xlink:href="#DejaVuSans-5d" x="255.566406"/>
    </g>
   </g>
   <g id="text_6">
    <!-- G [39] -->
    <g transform="translate(142.76081 14.798437) scale(0.1 -0.1)">
     <defs>
      <path id="DejaVuSans-47" d="M 3809 666 
L 3809 1919 
L 2778 1919 
L 2778 2438 
L 4434 2438 
L 4434 434 
Q 4069 175 3628 42 
Q 3188 -91 2688 -91 
Q 1594 -91 976 548 
Q 359 1188 359 2328 
Q 359 3472 976 4111 
Q 1594 4750 2688 4750 
Q 3144 4750 3555 4637 
Q 3966 4525 4313 4306 
L 4313 3634 
Q 3963 3931 3569 4081 
Q 3175 4231 2741 4231 
Q 1884 4231 1454 3753 
Q 1025 3275 1025 2328 
Q 1025 1384 1454 906 
Q 1884 428 2741 428 
Q 3075 428 3337 486 
Q 3600 544 3809 666 
z
" transform="scale(0.015625)"/>
      <path id="DejaVuSans-39" d="M 703 97 
L 703 672 
Q 941 559 1184 500 
Q 1428 441 1663 441 
Q 2288 441 2617 861 
Q 2947 1281 2994 2138 
Q 2813 1869 2534 1725 
Q 2256 1581 1919 1581 
Q 1219 1581 811 2004 
Q 403 2428 403 3163 
Q 403 3881 828 4315 
Q 1253 4750 1959 4750 
Q 2769 4750 3195 4129 
Q 3622 3509 3622 2328 
Q 3622 1225 3098 567 
Q 2575 -91 1691 -91 
Q 1453 -91 1209 -44 
Q 966 3 703 97 
z
M 1959 2075 
Q 2384 2075 2632 2365 
Q 2881 2656 2881 3163 
Q 2881 3666 2632 3958 
Q 2384 4250 1959 4250 
Q 1534 4250 1286 3958 
Q 1038 3666 1038 3163 
Q 1038 2656 1286 2365 
Q 1534 2075 1959 2075 
z
" transform="scale(0.015625)"/>
     </defs>
     <use xlink:href="#DejaVuSans-47"/>
     <use xlink:href="#DejaVuSans-20" x="77.490234"/>
     <use xlink:href="#DejaVuSans-5b" x="109.277344"/>
     <use xlink:href="#DejaVuSans-33" x="148.291016"/>
     <use xlink:href="#DejaVuSans-39" x="211.914062"/>
     <use xlink:href="#DejaVuSans-5d" x="275.537109"/>
    </g>
   </g>
   <g id="text_7">
    <!-- H [10] -->
    <g transform="translate(103.837428 21.404942) scale(0.1 -0.1)">
     <defs>
      <path id="DejaVuSans-48" d="M 628 4666 
L 1259 4666 
L 1259 2753 
L 3553 2753 
L 3553 4666 
L 4184 4666 
L 4184 0 
L 3553 0 
L 3553 2222 
L 1259 2222 
L 1259 0 
L 628 0 
L 628 4666 
z
" transform="scale(0.015625)"/>
     </defs>
     <use xlink:href="#DejaVuSans-48"/>
     <use xlink:href="#DejaVuSans-20" x="75.195312"/>
     <use xlink:href="#DejaVuSans-5b" x="106.982422"/>
     <use xlink:href="#DejaVuSans-31" x="145.996094"/>
     <use xlink:href="#DejaVuSans-30" x="209.619141"/>
     <use xlink:href="#DejaVuSans-5d" x="273.242188"/>
    </g>
   </g>
   <g id="text_8">
    <!-- I [30] -->
    <g transform="translate(78.828533 34.745073) scale(0.1 -0.1)">
     <defs>
      <path id="DejaVuSans-49" d="M 628 4666 
L 1259 4666 
L 1259 0 
L 628 0 
L 628 4666 
z
" transform="scale(0.015625)"/>
     </defs>
     <use xlink:href="#DejaVuSans-49"/>
     <use xlink:href="#DejaVuSans-20" x="29.492188"/>
     <use xlink:href="#DejaVuSans-5b" x="61.279297"/>
     <use xlink:href="#DejaVuSans-33" x="100.292969"/>
     <use xlink:href="#DejaVuSans-30" x="163.916016"/>
     <use xlink:href="#DejaVuSans-5d" x="227.539062"/>
    </g>
   </g>
   <g id="text_9">
    <!-- K [21] -->
    <g transform="translate(43.251426 60.914199) scale(0.1 -0.1)">
     <defs>
      <path id="DejaVuSans-4b" d="M 628 4666 
L 1259 4666 
L 1259 2694 
L 3353 4666 
L 4166 4666 
L 1850 2491 
L 4331 0 
L 3500 0 
L 1259 2247 
L 1259 0 
L 628 0 
L 628 4666 
z
" transform="scale(0.015625)"/>
     </defs>
     <use xlink:href="#DejaVuSans-4b"/>
     <use xlink:href="#DejaVuSans-20" x="65.576172"/>
     <use xlink:href="#DejaVuSans-5b" x="97.363281"/>
     <use xlink:href="#DejaVuSans-32" x="136.376953"/>
     <use xlink:href="#DejaVuSans-31" x="200"/>
     <use xlink:href="#DejaVuSans-5d" x="263.623047"/>
    </g>
   </g>
   <g id="text_10">
    <!-- L [64] -->
    <g transform="translate(11.866641 121.18797) scale(0.1 -0.1)">
     <defs>
      <path id="DejaVuSans-4c" d="M 628 4666 
L 1259 4666 
L 1259 531 
L 3531 531 
L 3531 0 
L 628 0 
L 628 4666 
z
" transform="scale(0.015625)"/>
     </defs>
     <use xlink:href="#DejaVuSans-4c"/>
     <use xlink:href="#DejaVuSans-20" x="55.712891"/>
     <use xlink:href="#DejaVuSans-5b" x="87.5"/>
     <use xlink:href="#DejaVuSans-36" x="126.513672"/>
     <use xlink:href="#DejaVuSans-34" x="190.136719"/>
     <use xlink:href="#DejaVuSans-5d" x="253.759766"/>
    </g>
   </g>
   <g id="text_11">
    <!-- M [13] -->
    <g transform="translate(7.2 183.255921) scale(0.1 -0.1)">
     <defs>
      <path id="DejaVuSans-4d" d="M 628 4666 
L 1569 4666 
L 2759 1491 
L 3956 4666 
L 4897 4666 
L 4897 0 
L 4281 0 
L 4281 4097 
L 3078 897 
L 2444 897 
L 1241 4097 
L 1241 0 
L 628 0 
L 628 4666 
z
" transform="scale(0.015625)"/>
     </defs>
     <use xlink:href="#DejaVuSans-4d"/>
     <use xlink:href="#DejaVuSans-20" x="86.279297"/>
     <use xlink:href="#DejaVuSans-5b" x="118.066406"/>
     <use xlink:href="#DejaVuSans-31" x="157.080078"/>
     <use xlink:href="#DejaVuSans-33" x="220.703125"/>
     <use xlink:href="#DejaVuSans-5d" x="284.326172"/>
    </g>
   </g>
   <g id="text_12">
    <!-- N [18] -->
    <g transform="translate(15.43166 207.407893) scale(0.1 -0.1)">
     <defs>
      <path id="DejaVuSans-4e" d="M 628 4666 
L 1478 4666 
L 3547 763 
L 3547 4666 
L 4159 4666 
L 4159 0 
L 3309 0 
L 1241 3903 
L 1241 0 
L 628 0 
L 628 4666 
z
" transform="scale(0.015625)"/>
      <path id="DejaVuSans-38" d="M 2034 2216 
Q 1584 2216 1326 1975 
Q 1069 1734 1069 1313 
Q 1069 891 1326 650 
Q 1584 409 2034 409 
Q 2484 409 2743 651 
Q 3003 894 3003 1313 
Q 3003 1734 2745 1975 
Q 2488 2216 2034 2216 
z
M 1403 2484 
Q 997 2584 770 2862 
Q 544 3141 544 3541 
Q 544 4100 942 4425 
Q 1341 4750 2034 4750 
Q 2731 4750 3128 4425 
Q 3525 4100 3525 3541 
Q 3525 3141 3298 2862 
Q 3072 2584 2669 2484 
Q 3125 2378 3379 2068 
Q 3634 1759 3634 1313 
Q 3634 634 3220 271 
Q 2806 -91 2034 -91 
Q 1263 -91 848 271 
Q 434 634 434 1313 
Q 434 1759 690 2068 
Q 947 2378 1403 2484 
z
M 1172 3481 
Q 1172 3119 1398 2916 
Q 1625 2713 2034 2713 
Q 2441 2713 2670 2916 
Q 2900 3119 2900 3481 
Q 2900 3844 2670 4047 
Q 2441 4250 2034 4250 
Q 1625 4250 1398 4047 
Q 1172 3844 1172 3481 
z
" transform="scale(0.015625)"/>
     </defs>
     <use xlink:href="#DejaVuSans-4e"/>
     <use xlink:href="#DejaVuSans-20" x="74.804688"/>
     <use xlink:href="#DejaVuSans-5b" x="106.591797"/>
     <use xlink:href="#DejaVuSans-31" x="145.605469"/>
     <use xlink:href="#DejaVuSans-38" x="209.228516"/>
     <use xlink:href="#DejaVuSans-5d" x="272.851562"/>
    </g>
   </g>
   <g id="text_13">
    <!-- P [17] -->
    <g transform="translate(29.889021 232.662698) scale(0.1 -0.1)">
     <defs>
      <path id="DejaVuSans-50" d="M 1259 4147 
L 1259 2394 
L 2053 2394 
Q 2494 2394 2734 2622 
Q 2975 2850 2975 3272 
Q 2975 3691 2734 3919 
Q 2494 4147 2053 4147 
L 1259 4147 
z
M 628 4666 
L 2053 4666 
Q 2838 4666 3239 4311 
Q 3641 3956 3641 3272 
Q 3641 2581 3239 2228 
Q 2838 1875 2053 1875 
L 1259 1875 
L 1259 0 
L 628 0 
L 628 4666 
z
" transform="scale(0.015625)"/>
     </defs>
     <use xlink:href="#DejaVuSans-50"/>
     <use xlink:href="#DejaVuSans-20" x="60.302734"/>
     <use xlink:href="#DejaVuSans-5b" x="92.089844"/>
     <use xlink:href="#DejaVuSans-31" x="131.103516"/>
     <use xlink:href="#DejaVuSans-37" x="194.726562"/>
     <use xlink:href="#DejaVuSans-5d" x="258.349609"/>
    </g>
   </g>
   <g id="text_14">
    <!-- Q [16] -->
    <g transform="translate(44.714835 253.634476) scale(0.1 -0.1)">
     <defs>
      <path id="DejaVuSans-51" d="M 2522 4238 
Q 1834 4238 1429 3725 
Q 1025 3213 1025 2328 
Q 1025 1447 1429 934 
Q 1834 422 2522 422 
Q 3209 422 3611 934 
Q 4013 1447 4013 2328 
Q 4013 3213 3611 3725 
Q 3209 4238 2522 4238 
z
M 3406 84 
L 4238 -825 
L 3475 -825 
L 2784 -78 
Q 2681 -84 2626 -87 
Q 2572 -91 2522 -91 
Q 1538 -91 948 567 
Q 359 1225 359 2328 
Q 359 3434 948 4092 
Q 1538 4750 2522 4750 
Q 3503 4750 4090 4092 
Q 4678 3434 4678 2328 
Q 4678 1516 4351 937 
Q 4025 359 3406 84 
z
" transform="scale(0.015625)"/>
     </defs>
     <use xlink:href="#DejaVuSans-51"/>
     <use xlink:href="#DejaVuSans-20" x="78.710938"/>
     <use xlink:href="#DejaVuSans-5b" x="110.498047"/>
     <use xlink:href="#DejaVuSans-31" x="149.511719"/>
     <use xlink:href="#DejaVuSans-36" x="213.134766"/>
     <use xlink:href="#DejaVuSans-5d" x="276.757812"/>
    </g>
   </g>
   <g id="text_15">
    <!-- R [28] -->
    <g transform="translate(73.439422 275.993039) scale(0.1 -0.1)">
     <defs>
      <path id="DejaVuSans-52" d="M 2841 2188 
Q 3044 2119 3236 1894 
Q 3428 1669 3622 1275 
L 4263 0 
L 3584 0 
L 2988 1197 
Q 2756 1666 2539 1819 
Q 2322 1972 1947 1972 
L 1259 1972 
L 1259 0 
L 628 0 
L 628 4666 
L 2053 4666 
Q 2853 4666 3247 4331 
Q 3641 3997 3641 3322 
Q 3641 2881 3436 2590 
Q 3231 2300 2841 2188 
z
M 1259 4147 
L 1259 2491 
L 2053 2491 
Q 2509 2491 2742 2702 
Q 2975 2913 2975 3322 
Q 2975 3731 2742 3939 
Q 2509 4147 2053 4147 
L 1259 4147 
z
" transform="scale(0.015625)"/>
     </defs>
     <use xlink:href="#DejaVuSans-52"/>
     <use xlink:href="#DejaVuSans-20" x="69.482422"/>
     <use xlink:href="#DejaVuSans-5b" x="101.269531"/>
     <use xlink:href="#DejaVuSans-32" x="140.283203"/>
     <use xlink:href="#DejaVuSans-38" x="203.90625"/>
     <use xlink:href="#DejaVuSans-5d" x="267.529297"/>
    </g>
   </g>
   <g id="text_16">
    <!-- S [56] -->
    <g transform="translate(138.476191 296.519929) scale(0.1 -0.1)">
     <defs>
      <path id="DejaVuSans-53" d="M 3425 4513 
L 3425 3897 
Q 3066 4069 2747 4153 
Q 2428 4238 2131 4238 
Q 1616 4238 1336 4038 
Q 1056 3838 1056 3469 
Q 1056 3159 1242 3001 
Q 1428 2844 1947 2747 
L 2328 2669 
Q 3034 2534 3370 2195 
Q 3706 1856 3706 1288 
Q 3706 609 3251 259 
Q 2797 -91 1919 -91 
Q 1588 -91 1214 -16 
Q 841 59 441 206 
L 441 856 
Q 825 641 1194 531 
Q 1563 422 1919 422 
Q 2459 422 2753 634 
Q 3047 847 3047 1241 
Q 3047 1584 2836 1778 
Q 2625 1972 2144 2069 
L 1759 2144 
Q 1053 2284 737 2584 
Q 422 2884 422 3419 
Q 422 4038 858 4394 
Q 1294 4750 2059 4750 
Q 2388 4750 2728 4690 
Q 3069 4631 3425 4513 
z
" transform="scale(0.015625)"/>
      <path id="DejaVuSans-35" d="M 691 4666 
L 3169 4666 
L 3169 4134 
L 1269 4134 
L 1269 2991 
Q 1406 3038 1543 3061 
Q 1681 3084 1819 3084 
Q 2600 3084 3056 2656 
Q 3513 2228 3513 1497 
Q 3513 744 3044 326 
Q 2575 -91 1722 -91 
Q 1428 -91 1123 -41 
Q 819 9 494 109 
L 494 744 
Q 775 591 1075 516 
Q 1375 441 1709 441 
Q 2250 441 2565 725 
Q 2881 1009 2881 1497 
Q 2881 1984 2565 2268 
Q 2250 2553 1709 2553 
Q 1456 2553 1204 2497 
Q 953 2441 691 2322 
L 691 4666 
z
" transform="scale(0.015625)"/>
     </defs>
     <use xlink:href="#DejaVuSans-53"/>
     <use xlink:href="#DejaVuSans-20" x="63.476562"/>
     <use xlink:href="#DejaVuSans-5b" x="95.263672"/>
     <use xlink:href="#DejaVuSans-35" x="134.277344"/>
     <use xlink:href="#DejaVuSans-36" x="197.900391"/>
     <use xlink:href="#DejaVuSans-5d" x="261.523438"/>
    </g>
   </g>
   <g id="text_17">
    <!-- T [36] -->
    <g transform="translate(240.996983 281.915449) scale(0.1 -0.1)">
     <defs>
      <path id="DejaVuSans-54" d="M -19 4666 
L 3928 4666 
L 3928 4134 
L 2272 4134 
L 2272 0 
L 1638 0 
L 1638 4134 
L -19 4134 
L -19 4666 
z
" transform="scale(0.015625)"/>
     </defs>
     <use xlink:href="#DejaVuSans-54"/>
     <use xlink:href="#DejaVuSans-20" x="61.083984"/>
     <use xlink:href="#DejaVuSans-5b" x="92.871094"/>
     <use xlink:href="#DejaVuSans-33" x="131.884766"/>
     <use xlink:href="#DejaVuSans-36" x="195.507812"/>
     <use xlink:href="#DejaVuSans-5d" x="259.130859"/>
    </g>
   </g>
   <g id="text_18">
    <!-- V [47] -->
    <g transform="translate(291.976842 238.691213) scale(0.1 -0.1)">
     <defs>
      <path id="DejaVuSans-56" d="M 1831 0 
L 50 4666 
L 709 4666 
L 2188 738 
L 3669 4666 
L 4325 4666 
L 2547 0 
L 1831 0 
z
" transform="scale(0.015625)"/>
     </defs>
     <use xlink:href="#DejaVuSans-56"/>
     <use xlink:href="#DejaVuSans-20" x="68.408203"/>
     <use xlink:href="#DejaVuSans-5b" x="100.195312"/>
     <use xlink:href="#DejaVuSans-34" x="139.208984"/>
     <use xlink:href="#DejaVuSans-37" x="202.832031"/>
     <use xlink:href="#DejaVuSans-5d" x="266.455078"/>
    </g>
   </g>
   <g id="text_19">
    <!-- W [13] -->
    <g transform="translate(313.324148 195.100048) scale(0.1 -0.1)">
     <defs>
      <path id="DejaVuSans-57" d="M 213 4666 
L 850 4666 
L 1831 722 
L 2809 4666 
L 3519 4666 
L 4500 722 
L 5478 4666 
L 6119 4666 
L 4947 0 
L 4153 0 
L 3169 4050 
L 2175 0 
L 1381 0 
L 213 4666 
z
" transform="scale(0.015625)"/>
     </defs>
     <use xlink:href="#DejaVuSans-57"/>
     <use xlink:href="#DejaVuSans-20" x="98.876953"/>
     <use xlink:href="#DejaVuSans-5b" x="130.664062"/>
     <use xlink:href="#DejaVuSans-31" x="169.677734"/>
     <use xlink:href="#DejaVuSans-33" x="233.300781"/>
     <use xlink:href="#DejaVuSans-5d" x="296.923828"/>
    </g>
   </g>
   <g id="text_20">
    <!-- Y [18] -->
    <g transform="translate(318.154438 170.398221) scale(0.1 -0.1)">
     <defs>
      <path id="DejaVuSans-59" d="M -13 4666 
L 666 4666 
L 1959 2747 
L 3244 4666 
L 3922 4666 
L 2272 2222 
L 2272 0 
L 1638 0 
L 1638 2222 
L -13 4666 
z
" transform="scale(0.015625)"/>
     </defs>
     <use xlink:href="#DejaVuSans-59"/>
     <use xlink:href="#DejaVuSans-20" x="61.083984"/>
     <use xlink:href="#DejaVuSans-5b" x="92.871094"/>
     <use xlink:href="#DejaVuSans-31" x="131.884766"/>
     <use xlink:href="#DejaVuSans-38" x="195.507812"/>
     <use xlink:href="#DejaVuSans-5d" x="259.130859"/>
    </g>
   </g>
   <g id="text_21">
    <!-- B2RPY5 [545] -->
    <g transform="translate(136.764233 153.030975) scale(0.12 -0.12)">
     <defs>
      <path id="DejaVuSans-42" d="M 1259 2228 
L 1259 519 
L 2272 519 
Q 2781 519 3026 730 
Q 3272 941 3272 1375 
Q 3272 1813 3026 2020 
Q 2781 2228 2272 2228 
L 1259 2228 
z
M 1259 4147 
L 1259 2741 
L 2194 2741 
Q 2656 2741 2882 2914 
Q 3109 3088 3109 3444 
Q 3109 3797 2882 3972 
Q 2656 4147 2194 4147 
L 1259 4147 
z
M 628 4666 
L 2241 4666 
Q 2963 4666 3353 4366 
Q 3744 4066 3744 3513 
Q 3744 3084 3544 2831 
Q 3344 2578 2956 2516 
Q 3422 2416 3680 2098 
Q 3938 1781 3938 1306 
Q 3938 681 3513 340 
Q 3088 0 2303 0 
L 628 0 
L 628 4666 
z
" transform="scale(0.015625)"/>
     </defs>
     <use xlink:href="#DejaVuSans-42"/>
     <use xlink:href="#DejaVuSans-32" x="68.603516"/>
     <use xlink:href="#DejaVuSans-52" x="132.226562"/>
     <use xlink:href="#DejaVuSans-50" x="201.708984"/>
     <use xlink:href="#DejaVuSans-59" x="259.761719"/>
     <use xlink:href="#DejaVuSans-35" x="320.845703"/>
     <use xlink:href="#DejaVuSans-20" x="384.46875"/>
     <use xlink:href="#DejaVuSans-5b" x="416.255859"/>
     <use xlink:href="#DejaVuSans-35" x="455.269531"/>
     <use xlink:href="#DejaVuSans-34" x="518.892578"/>
     <use xlink:href="#DejaVuSans-35" x="582.515625"/>
     <use xlink:href="#DejaVuSans-5d" x="646.138672"/>
    </g>
   </g>
  </g>
 </g>
</svg>
