<?xml version="1.0" encoding="utf-8" standalone="no"?>
<!DOCTYPE svg PUBLIC "-//W3C//DTD SVG 1.1//EN"
  "http://www.w3.org/Graphics/SVG/1.1/DTD/svg11.dtd">
<svg xmlns:xlink="http://www.w3.org/1999/xlink" width="353.938589pt" height="305.609706pt" viewBox="0 0 353.938589 305.609706" xmlns="http://www.w3.org/2000/svg" version="1.1">
 <metadata>
  <rdf:RDF xmlns:dc="http://purl.org/dc/elements/1.1/" xmlns:cc="http://creativecommons.org/ns#" xmlns:rdf="http://www.w3.org/1999/02/22-rdf-syntax-ns#">
   <cc:Work>
    <dc:type rdf:resource="http://purl.org/dc/dcmitype/StillImage"/>
    <dc:date>2024-09-27T16:07:20.446872</dc:date>
    <dc:format>image/svg+xml</dc:format>
    <dc:creator>
     <cc:Agent>
      <dc:title>Matplotlib v3.8.3, https://matplotlib.org/</dc:title>
     </cc:Agent>
    </dc:creator>
   </cc:Work>
  </rdf:RDF>
 </metadata>
 <defs>
  <style type="text/css">*{stroke-linejoin: round; stroke-linecap: butt}</style>
 </defs>
 <g id="figure_1">
  <g id="patch_1">
   <path d="M 0 305.609706 
L 353.938589 305.609706 
L 353.938589 0 
L 0 0 
z
" style="fill: #ffffff"/>
  </g>
  <g id="axes_1">
   <g id="patch_2">
    <path d="M 305.341371 152.911729 
C 305.341371 144.753779 304.559838 136.614558 303.007487 128.605666 
C 301.455136 120.596774 299.139094 112.754984 296.09112 105.187818 
L 177.607611 152.911729 
z
" style="fill: #1f77b4"/>
   </g>
   <g id="patch_3">
    <path d="M 296.032218 105.027674 
C 293.954901 99.870347 291.543067 94.85415 288.812112 90.011098 
C 286.081156 85.168046 283.0369 80.508466 279.698775 76.062098 
L 177.548709 152.751586 
z
" style="fill: #ff7f0e"/>
   </g>
   <g id="patch_4">
    <path d="M 279.634497 75.971655 
C 277.632076 73.30444 275.525959 70.716675 273.320989 68.21431 
C 271.116019 65.711945 268.813886 63.2969 266.419885 60.974729 
L 177.484431 152.661143 
z
" style="fill: #aec7e8"/>
   </g>
   <g id="patch_5">
    <path d="M 266.345634 60.905172 
C 262.887152 57.550459 259.241625 54.394115 255.426535 51.451279 
C 251.611444 48.508442 247.632899 45.783823 243.509978 43.290488 
L 177.41018 152.591586 
z
" style="fill: #ffbb78"/>
   </g>
   <g id="patch_6">
    <path d="M 243.364279 43.210818 
C 236.065742 38.79703 228.343429 35.125356 220.313042 32.250805 
C 212.282655 29.376255 203.984502 27.313258 195.542911 26.092723 
L 177.264481 152.511916 
z
" style="fill: #98df8a"/>
   </g>
   <g id="patch_7">
    <path d="M 195.37975 26.061834 
C 190.611121 25.372357 185.807298 24.953248 180.991317 24.806514 
C 176.175337 24.65978 171.354909 24.785658 166.55315 25.183543 
L 177.10132 152.481027 
z
" style="fill: #2ca02c"/>
   </g>
   <g id="patch_8">
    <path d="M 166.447057 25.190941 
C 162.753798 25.496973 159.075607 25.963588 155.422923 26.589461 
C 151.770239 27.215335 148.146523 27.999874 144.56206 28.940851 
L 176.995227 152.488425 
z
" style="fill: #d62728"/>
   </g>
   <g id="patch_9">
    <path d="M 144.364734 29.017354 
C 131.436377 32.411249 119.120494 37.813496 107.867386 45.026575 
C 96.614277 52.239653 86.562783 61.174568 78.080412 71.504637 
L 176.797901 152.564928 
z
" style="fill: #9467bd"/>
   </g>
   <g id="patch_10">
    <path d="M 77.893093 71.711708 
C 72.00876 78.877813 66.922186 86.663394 62.723368 94.9307 
C 58.524549 103.198006 55.238397 111.89799 52.923053 120.876721 
L 176.610582 152.771999 
z
" style="fill: #ff9896"/>
   </g>
   <g id="patch_11">
    <path d="M 52.866991 121.159369 
C 49.343142 134.824596 48.108168 148.979818 49.212343 163.048818 
C 50.316517 177.117818 53.744651 190.907066 59.357195 203.855244 
L 176.554519 153.054647 
z
" style="fill: #c5b0d5"/>
   </g>
   <g id="patch_12">
    <path d="M 59.426483 204.079044 
C 61.34272 208.499818 63.507556 212.808629 65.910609 216.984816 
C 68.313663 221.161003 70.951086 225.197879 73.810231 229.076086 
L 176.623807 153.278448 
z
" style="fill: #c49c94"/>
   </g>
   <g id="patch_13">
    <path d="M 73.897661 229.18943 
C 77.857444 234.560567 82.232041 239.613158 86.981264 244.300787 
C 91.730487 248.988417 96.839751 253.296687 102.262118 257.186022 
L 176.711237 153.391792 
z
" style="fill: #8c564b"/>
   </g>
   <g id="patch_14">
    <path d="M 102.376594 257.271965 
C 106.291792 260.080243 110.362752 262.664746 114.569951 265.013081 
C 118.77715 267.361417 123.113852 269.469824 127.559262 271.328192 
L 176.825713 153.477735 
z
" style="fill: #e377c2"/>
   </g>
   <g id="patch_15">
    <path d="M 127.661258 271.371878 
C 131.422474 272.944224 135.256807 274.33561 139.151089 275.541257 
C 143.045372 276.746903 146.99514 277.765429 150.986829 278.593336 
L 176.927709 153.52142 
z
" style="fill: #7f7f7f"/>
   </g>
   <g id="patch_16">
    <path d="M 151.100281 278.615327 
C 156.181215 279.669151 161.321646 280.412385 166.492991 280.840895 
C 171.664336 281.269405 176.856991 281.382395 182.04208 281.179237 
L 177.041161 153.543411 
z
" style="fill: #f7b6d2"/>
   </g>
   <g id="patch_17">
    <path d="M 182.207685 281.166965 
C 190.35938 280.847572 198.461763 279.747978 206.403739 277.88326 
C 214.345714 276.018542 222.090816 273.397262 229.532849 270.055361 
L 177.206766 153.531138 
z
" style="fill: #c7c7c7"/>
   </g>
   <g id="patch_18">
    <path d="M 229.728879 269.964239 
C 238.187611 266.165781 246.207645 261.457536 253.647081 255.922808 
C 261.086516 250.388079 267.901218 244.059702 273.970613 237.049647 
L 177.402796 153.440016 
z
" style="fill: #dbdb8d"/>
   </g>
   <g id="patch_19">
    <path d="M 274.116526 236.884054 
C 279.699525 230.435777 284.622641 223.444479 288.812112 216.014911 
C 293.001582 208.585342 296.436379 200.754794 299.065039 192.64059 
L 177.548709 153.274423 
z
" style="fill: #bcbd22"/>
   </g>
   <g id="patch_20">
    <path d="M 299.111869 192.529924 
C 299.454456 191.472417 299.783225 190.410482 300.098091 189.344392 
C 300.412956 188.278302 300.713891 187.208147 301.00082 186.1342 
L 177.595539 153.163757 
z
" style="fill: #17becf"/>
   </g>
   <g id="patch_21">
    <path d="M 301.018088 186.052725 
C 302.45322 180.681164 303.536102 175.221628 304.259825 169.708961 
C 304.983548 164.196294 305.346568 158.642251 305.346568 153.082281 
L 177.612808 153.082282 
z
" style="fill: #9edae5"/>
   </g>
   <g id="patch_22">
    <path d="M 251.596472 153.013004 
C 251.596472 148.2542 251.140577 143.506321 250.235039 138.834467 
C 249.329501 134.162614 247.978477 129.588236 246.200492 125.174056 
L 177.085112 153.013004 
z
" style="fill: #ffffff"/>
   </g>
   <g id="patch_23">
    <path d="M 246.200492 125.174056 
C 244.988723 122.165615 243.581821 119.2395 241.988763 116.414387 
C 240.395706 113.589273 238.61989 110.871185 236.67265 108.27747 
L 177.085112 153.013004 
z
" style="fill: #ffffff"/>
   </g>
   <g id="patch_24">
    <path d="M 236.67265 108.27747 
C 235.504572 106.721594 234.276004 105.212065 232.989771 103.752352 
C 231.703538 102.292639 230.360627 100.883863 228.964127 99.529263 
L 177.085112 153.013004 
z
" style="fill: #ffffff"/>
   </g>
   <g id="patch_25">
    <path d="M 228.964127 99.529263 
C 226.946679 97.572347 224.820121 95.731146 222.594652 94.014491 
C 220.369183 92.297837 218.048365 90.708476 215.643327 89.25403 
L 177.085112 153.013004 
z
" style="fill: #ffffff"/>
   </g>
   <g id="patch_26">
    <path d="M 215.643327 89.25403 
C 211.385848 86.679321 206.881165 84.537511 202.196773 82.86069 
C 197.51238 81.183869 192.671791 79.980454 187.747529 79.268475 
L 177.085112 153.013004 
z
" style="fill: #ffffff"/>
   </g>
   <g id="patch_27">
    <path d="M 187.747529 79.268475 
C 184.965829 78.86628 182.163599 78.6218 179.354277 78.536205 
C 176.544955 78.45061 173.733039 78.524039 170.932012 78.756138 
L 177.085112 153.013004 
z
" style="fill: #ffffff"/>
   </g>
   <g id="patch_28">
    <path d="M 170.932012 78.756138 
C 168.777612 78.934657 166.632 79.206849 164.501268 79.571942 
C 162.370536 79.937035 160.256701 80.394683 158.165764 80.943586 
L 177.085112 153.013004 
z
" style="fill: #ffffff"/>
   </g>
   <g id="patch_29">
    <path d="M 158.165764 80.943586 
C 150.624222 82.923359 143.439957 86.074669 136.875644 90.282298 
C 130.311331 94.489927 124.44796 99.701961 119.49991 105.727835 
L 177.085112 153.013004 
z
" style="fill: #ffffff"/>
   </g>
   <g id="patch_30">
    <path d="M 119.49991 105.727835 
C 116.067383 109.908062 113.100214 114.449651 110.650904 119.272247 
C 108.201593 124.094842 106.284671 129.169832 104.934054 134.407425 
L 177.085112 153.013004 
z
" style="fill: #ffffff"/>
   </g>
   <g id="patch_31">
    <path d="M 104.934054 134.407425 
C 102.878475 142.378808 102.158074 150.636021 102.802175 158.842938 
C 103.446277 167.049854 105.446022 175.093582 108.720006 182.646686 
L 177.085112 153.013004 
z
" style="fill: #ffffff"/>
   </g>
   <g id="patch_32">
    <path d="M 108.720006 182.646686 
C 109.837811 185.22547 111.100632 187.738943 112.502413 190.175053 
C 113.904194 192.611162 115.442691 194.966006 117.110526 197.228294 
L 177.085112 153.013004 
z
" style="fill: #ffffff"/>
   </g>
   <g id="patch_33">
    <path d="M 117.110526 197.228294 
C 119.420399 200.361457 121.972247 203.308801 124.742628 206.043252 
C 127.513008 208.777702 130.493411 211.29086 133.656459 213.559638 
L 177.085112 153.013004 
z
" style="fill: #ffffff"/>
   </g>
   <g id="patch_34">
    <path d="M 133.656459 213.559638 
C 135.940325 215.197801 138.315051 216.705428 140.769251 218.07529 
C 143.22345 219.445152 145.753193 220.675056 148.346349 221.759104 
L 177.085112 153.013004 
z
" style="fill: #ffffff"/>
   </g>
   <g id="patch_35">
    <path d="M 148.346349 221.759104 
C 150.540391 222.676307 152.777086 223.487948 155.04875 224.191242 
C 157.320415 224.894536 159.624446 225.488676 161.952932 225.971622 
L 177.085112 153.013004 
z
" style="fill: #ffffff"/>
   </g>
   <g id="patch_36">
    <path d="M 161.952932 225.971622 
C 164.91681 226.586353 167.915395 227.019906 170.932012 227.26987 
C 173.94863 227.519834 176.977679 227.585745 180.002315 227.467237 
L 177.085112 153.013004 
z
" style="fill: #ffffff"/>
   </g>
   <g id="patch_37">
    <path d="M 180.002315 227.467237 
C 184.75747 227.280924 189.48386 226.639494 194.116679 225.551742 
C 198.749498 224.46399 203.267475 222.93491 207.60866 220.985468 
L 177.085112 153.013004 
z
" style="fill: #ffffff"/>
   </g>
   <g id="patch_38">
    <path d="M 207.60866 220.985468 
C 212.54292 218.769701 217.221273 216.023225 221.560944 212.794633 
C 225.900615 209.566041 229.875858 205.874488 233.416338 201.785289 
L 177.085112 153.013004 
z
" style="fill: #ffffff"/>
   </g>
   <g id="patch_39">
    <path d="M 233.416338 201.785289 
C 236.673088 198.023794 239.544905 193.945537 241.988763 189.611622 
C 244.432621 185.277707 246.436252 180.709887 247.969637 175.976602 
L 177.085112 153.013004 
z
" style="fill: #ffffff"/>
   </g>
   <g id="patch_40">
    <path d="M 247.969637 175.976602 
C 248.16948 175.359722 248.361262 174.740261 248.544934 174.118375 
C 248.728605 173.496489 248.904151 172.872232 249.071526 172.245763 
L 177.085112 153.013004 
z
" style="fill: #ffffff"/>
   </g>
   <g id="patch_41">
    <path d="M 249.071526 172.245763 
C 249.908685 169.112352 250.540367 165.927622 250.962539 162.7119 
C 251.38471 159.496178 251.596472 156.256319 251.596472 153.013003 
L 177.085112 153.013004 
z
" style="fill: #ffffff"/>
   </g>
   <g id="matplotlib.axis_1"/>
   <g id="matplotlib.axis_2"/>
   <g id="text_1">
    <!-- A [22] -->
    <g transform="translate(315.547474 128.934434) scale(0.1 -0.1)">
     <defs>
      <path id="DejaVuSans-41" d="M 2188 4044 
L 1331 1722 
L 3047 1722 
L 2188 4044 
z
M 1831 4666 
L 2547 4666 
L 4325 0 
L 3669 0 
L 3244 1197 
L 1141 1197 
L 716 0 
L 50 0 
L 1831 4666 
z
" transform="scale(0.015625)"/>
      <path id="DejaVuSans-20" transform="scale(0.015625)"/>
      <path id="DejaVuSans-5b" d="M 550 4863 
L 1875 4863 
L 1875 4416 
L 1125 4416 
L 1125 -397 
L 1875 -397 
L 1875 -844 
L 550 -844 
L 550 4863 
z
" transform="scale(0.015625)"/>
      <path id="DejaVuSans-32" d="M 1228 531 
L 3431 531 
L 3431 0 
L 469 0 
L 469 531 
Q 828 903 1448 1529 
Q 2069 2156 2228 2338 
Q 2531 2678 2651 2914 
Q 2772 3150 2772 3378 
Q 2772 3750 2511 3984 
Q 2250 4219 1831 4219 
Q 1534 4219 1204 4116 
Q 875 4013 500 3803 
L 500 4441 
Q 881 4594 1212 4672 
Q 1544 4750 1819 4750 
Q 2544 4750 2975 4387 
Q 3406 4025 3406 3419 
Q 3406 3131 3298 2873 
Q 3191 2616 2906 2266 
Q 2828 2175 2409 1742 
Q 1991 1309 1228 531 
z
" transform="scale(0.015625)"/>
      <path id="DejaVuSans-5d" d="M 1947 4863 
L 1947 -844 
L 622 -844 
L 622 -397 
L 1369 -397 
L 1369 4416 
L 622 4416 
L 622 4863 
L 1947 4863 
z
" transform="scale(0.015625)"/>
     </defs>
     <use xlink:href="#DejaVuSans-41"/>
     <use xlink:href="#DejaVuSans-20" x="68.408203"/>
     <use xlink:href="#DejaVuSans-5b" x="100.195312"/>
     <use xlink:href="#DejaVuSans-32" x="139.208984"/>
     <use xlink:href="#DejaVuSans-32" x="202.832031"/>
     <use xlink:href="#DejaVuSans-5d" x="266.455078"/>
    </g>
   </g>
   <g id="text_2">
    <!-- C [15] -->
    <g transform="translate(299.938452 86.496424) scale(0.1 -0.1)">
     <defs>
      <path id="DejaVuSans-43" d="M 4122 4306 
L 4122 3641 
Q 3803 3938 3442 4084 
Q 3081 4231 2675 4231 
Q 1875 4231 1450 3742 
Q 1025 3253 1025 2328 
Q 1025 1406 1450 917 
Q 1875 428 2675 428 
Q 3081 428 3442 575 
Q 3803 722 4122 1019 
L 4122 359 
Q 3791 134 3420 21 
Q 3050 -91 2638 -91 
Q 1578 -91 968 557 
Q 359 1206 359 2328 
Q 359 3453 968 4101 
Q 1578 4750 2638 4750 
Q 3056 4750 3426 4639 
Q 3797 4528 4122 4306 
z
" transform="scale(0.015625)"/>
      <path id="DejaVuSans-31" d="M 794 531 
L 1825 531 
L 1825 4091 
L 703 3866 
L 703 4441 
L 1819 4666 
L 2450 4666 
L 2450 531 
L 3481 531 
L 3481 0 
L 794 0 
L 794 531 
z
" transform="scale(0.015625)"/>
      <path id="DejaVuSans-35" d="M 691 4666 
L 3169 4666 
L 3169 4134 
L 1269 4134 
L 1269 2991 
Q 1406 3038 1543 3061 
Q 1681 3084 1819 3084 
Q 2600 3084 3056 2656 
Q 3513 2228 3513 1497 
Q 3513 744 3044 326 
Q 2575 -91 1722 -91 
Q 1428 -91 1123 -41 
Q 819 9 494 109 
L 494 744 
Q 775 591 1075 516 
Q 1375 441 1709 441 
Q 2250 441 2565 725 
Q 2881 1009 2881 1497 
Q 2881 1984 2565 2268 
Q 2250 2553 1709 2553 
Q 1456 2553 1204 2497 
Q 953 2441 691 2322 
L 691 4666 
z
" transform="scale(0.015625)"/>
     </defs>
     <use xlink:href="#DejaVuSans-43"/>
     <use xlink:href="#DejaVuSans-20" x="69.824219"/>
     <use xlink:href="#DejaVuSans-5b" x="101.611328"/>
     <use xlink:href="#DejaVuSans-31" x="140.625"/>
     <use xlink:href="#DejaVuSans-35" x="204.248047"/>
     <use xlink:href="#DejaVuSans-5d" x="267.871094"/>
    </g>
   </g>
   <g id="text_3">
    <!-- D [9] -->
    <g transform="translate(282.904645 62.529002) scale(0.1 -0.1)">
     <defs>
      <path id="DejaVuSans-44" d="M 1259 4147 
L 1259 519 
L 2022 519 
Q 2988 519 3436 956 
Q 3884 1394 3884 2338 
Q 3884 3275 3436 3711 
Q 2988 4147 2022 4147 
L 1259 4147 
z
M 628 4666 
L 1925 4666 
Q 3281 4666 3915 4102 
Q 4550 3538 4550 2338 
Q 4550 1131 3912 565 
Q 3275 0 1925 0 
L 628 0 
L 628 4666 
z
" transform="scale(0.015625)"/>
      <path id="DejaVuSans-39" d="M 703 97 
L 703 672 
Q 941 559 1184 500 
Q 1428 441 1663 441 
Q 2288 441 2617 861 
Q 2947 1281 2994 2138 
Q 2813 1869 2534 1725 
Q 2256 1581 1919 1581 
Q 1219 1581 811 2004 
Q 403 2428 403 3163 
Q 403 3881 828 4315 
Q 1253 4750 1959 4750 
Q 2769 4750 3195 4129 
Q 3622 3509 3622 2328 
Q 3622 1225 3098 567 
Q 2575 -91 1691 -91 
Q 1453 -91 1209 -44 
Q 966 3 703 97 
z
M 1959 2075 
Q 2384 2075 2632 2365 
Q 2881 2656 2881 3163 
Q 2881 3666 2632 3958 
Q 2384 4250 1959 4250 
Q 1534 4250 1286 3958 
Q 1038 3666 1038 3163 
Q 1038 2656 1286 2365 
Q 1534 2075 1959 2075 
z
" transform="scale(0.015625)"/>
     </defs>
     <use xlink:href="#DejaVuSans-44"/>
     <use xlink:href="#DejaVuSans-20" x="77.001953"/>
     <use xlink:href="#DejaVuSans-5b" x="108.789062"/>
     <use xlink:href="#DejaVuSans-39" x="147.802734"/>
     <use xlink:href="#DejaVuSans-5d" x="211.425781"/>
    </g>
   </g>
   <g id="text_4">
    <!-- E [13] -->
    <g transform="translate(263.22817 44.096623) scale(0.1 -0.1)">
     <defs>
      <path id="DejaVuSans-45" d="M 628 4666 
L 3578 4666 
L 3578 4134 
L 1259 4134 
L 1259 2753 
L 3481 2753 
L 3481 2222 
L 1259 2222 
L 1259 531 
L 3634 531 
L 3634 0 
L 628 0 
L 628 4666 
z
" transform="scale(0.015625)"/>
      <path id="DejaVuSans-33" d="M 2597 2516 
Q 3050 2419 3304 2112 
Q 3559 1806 3559 1356 
Q 3559 666 3084 287 
Q 2609 -91 1734 -91 
Q 1441 -91 1130 -33 
Q 819 25 488 141 
L 488 750 
Q 750 597 1062 519 
Q 1375 441 1716 441 
Q 2309 441 2620 675 
Q 2931 909 2931 1356 
Q 2931 1769 2642 2001 
Q 2353 2234 1838 2234 
L 1294 2234 
L 1294 2753 
L 1863 2753 
Q 2328 2753 2575 2939 
Q 2822 3125 2822 3475 
Q 2822 3834 2567 4026 
Q 2313 4219 1838 4219 
Q 1578 4219 1281 4162 
Q 984 4106 628 3988 
L 628 4550 
Q 988 4650 1302 4700 
Q 1616 4750 1894 4750 
Q 2613 4750 3031 4423 
Q 3450 4097 3450 3541 
Q 3450 3153 3228 2886 
Q 3006 2619 2597 2516 
z
" transform="scale(0.015625)"/>
     </defs>
     <use xlink:href="#DejaVuSans-45"/>
     <use xlink:href="#DejaVuSans-20" x="63.183594"/>
     <use xlink:href="#DejaVuSans-5b" x="94.970703"/>
     <use xlink:href="#DejaVuSans-31" x="133.984375"/>
     <use xlink:href="#DejaVuSans-33" x="197.607422"/>
     <use xlink:href="#DejaVuSans-5d" x="261.230469"/>
    </g>
   </g>
   <g id="text_5">
    <!-- F [23] -->
    <g transform="translate(224.617898 22.984069) scale(0.1 -0.1)">
     <defs>
      <path id="DejaVuSans-46" d="M 628 4666 
L 3309 4666 
L 3309 4134 
L 1259 4134 
L 1259 2759 
L 3109 2759 
L 3109 2228 
L 1259 2228 
L 1259 0 
L 628 0 
L 628 4666 
z
" transform="scale(0.015625)"/>
     </defs>
     <use xlink:href="#DejaVuSans-46"/>
     <use xlink:href="#DejaVuSans-20" x="57.519531"/>
     <use xlink:href="#DejaVuSans-5b" x="89.306641"/>
     <use xlink:href="#DejaVuSans-32" x="128.320312"/>
     <use xlink:href="#DejaVuSans-33" x="191.943359"/>
     <use xlink:href="#DejaVuSans-5d" x="255.566406"/>
    </g>
   </g>
   <g id="text_6">
    <!-- G [13] -->
    <g transform="translate(181.380317 14.798437) scale(0.1 -0.1)">
     <defs>
      <path id="DejaVuSans-47" d="M 3809 666 
L 3809 1919 
L 2778 1919 
L 2778 2438 
L 4434 2438 
L 4434 434 
Q 4069 175 3628 42 
Q 3188 -91 2688 -91 
Q 1594 -91 976 548 
Q 359 1188 359 2328 
Q 359 3472 976 4111 
Q 1594 4750 2688 4750 
Q 3144 4750 3555 4637 
Q 3966 4525 4313 4306 
L 4313 3634 
Q 3963 3931 3569 4081 
Q 3175 4231 2741 4231 
Q 1884 4231 1454 3753 
Q 1025 3275 1025 2328 
Q 1025 1384 1454 906 
Q 1884 428 2741 428 
Q 3075 428 3337 486 
Q 3600 544 3809 666 
z
" transform="scale(0.015625)"/>
     </defs>
     <use xlink:href="#DejaVuSans-47"/>
     <use xlink:href="#DejaVuSans-20" x="77.490234"/>
     <use xlink:href="#DejaVuSans-5b" x="109.277344"/>
     <use xlink:href="#DejaVuSans-31" x="148.291016"/>
     <use xlink:href="#DejaVuSans-33" x="211.914062"/>
     <use xlink:href="#DejaVuSans-5d" x="275.537109"/>
    </g>
   </g>
   <g id="text_7">
    <!-- H [10] -->
    <g transform="translate(122.03913 16.75894) scale(0.1 -0.1)">
     <defs>
      <path id="DejaVuSans-48" d="M 628 4666 
L 1259 4666 
L 1259 2753 
L 3553 2753 
L 3553 4666 
L 4184 4666 
L 4184 0 
L 3553 0 
L 3553 2222 
L 1259 2222 
L 1259 0 
L 628 0 
L 628 4666 
z
" transform="scale(0.015625)"/>
      <path id="DejaVuSans-30" d="M 2034 4250 
Q 1547 4250 1301 3770 
Q 1056 3291 1056 2328 
Q 1056 1369 1301 889 
Q 1547 409 2034 409 
Q 2525 409 2770 889 
Q 3016 1369 3016 2328 
Q 3016 3291 2770 3770 
Q 2525 4250 2034 4250 
z
M 2034 4750 
Q 2819 4750 3233 4129 
Q 3647 3509 3647 2328 
Q 3647 1150 3233 529 
Q 2819 -91 2034 -91 
Q 1250 -91 836 529 
Q 422 1150 422 2328 
Q 422 3509 836 4129 
Q 1250 4750 2034 4750 
z
" transform="scale(0.015625)"/>
     </defs>
     <use xlink:href="#DejaVuSans-48"/>
     <use xlink:href="#DejaVuSans-20" x="75.195312"/>
     <use xlink:href="#DejaVuSans-5b" x="106.982422"/>
     <use xlink:href="#DejaVuSans-31" x="145.996094"/>
     <use xlink:href="#DejaVuSans-30" x="209.619141"/>
     <use xlink:href="#DejaVuSans-5d" x="273.242188"/>
    </g>
   </g>
   <g id="text_8">
    <!-- I [36] -->
    <g transform="translate(74.318084 37.032114) scale(0.1 -0.1)">
     <defs>
      <path id="DejaVuSans-49" d="M 628 4666 
L 1259 4666 
L 1259 0 
L 628 0 
L 628 4666 
z
" transform="scale(0.015625)"/>
      <path id="DejaVuSans-36" d="M 2113 2584 
Q 1688 2584 1439 2293 
Q 1191 2003 1191 1497 
Q 1191 994 1439 701 
Q 1688 409 2113 409 
Q 2538 409 2786 701 
Q 3034 994 3034 1497 
Q 3034 2003 2786 2293 
Q 2538 2584 2113 2584 
z
M 3366 4563 
L 3366 3988 
Q 3128 4100 2886 4159 
Q 2644 4219 2406 4219 
Q 1781 4219 1451 3797 
Q 1122 3375 1075 2522 
Q 1259 2794 1537 2939 
Q 1816 3084 2150 3084 
Q 2853 3084 3261 2657 
Q 3669 2231 3669 1497 
Q 3669 778 3244 343 
Q 2819 -91 2113 -91 
Q 1303 -91 875 529 
Q 447 1150 447 2328 
Q 447 3434 972 4092 
Q 1497 4750 2381 4750 
Q 2619 4750 2861 4703 
Q 3103 4656 3366 4563 
z
" transform="scale(0.015625)"/>
     </defs>
     <use xlink:href="#DejaVuSans-49"/>
     <use xlink:href="#DejaVuSans-20" x="29.492188"/>
     <use xlink:href="#DejaVuSans-5b" x="61.279297"/>
     <use xlink:href="#DejaVuSans-33" x="100.292969"/>
     <use xlink:href="#DejaVuSans-36" x="163.916016"/>
     <use xlink:href="#DejaVuSans-5d" x="227.539062"/>
    </g>
   </g>
   <g id="text_9">
    <!-- K [25] -->
    <g transform="translate(21.070584 91.905945) scale(0.1 -0.1)">
     <defs>
      <path id="DejaVuSans-4b" d="M 628 4666 
L 1259 4666 
L 1259 2694 
L 3353 4666 
L 4166 4666 
L 1850 2491 
L 4331 0 
L 3500 0 
L 1259 2247 
L 1259 0 
L 628 0 
L 628 4666 
z
" transform="scale(0.015625)"/>
     </defs>
     <use xlink:href="#DejaVuSans-4b"/>
     <use xlink:href="#DejaVuSans-20" x="65.576172"/>
     <use xlink:href="#DejaVuSans-5b" x="97.363281"/>
     <use xlink:href="#DejaVuSans-32" x="136.376953"/>
     <use xlink:href="#DejaVuSans-35" x="200"/>
     <use xlink:href="#DejaVuSans-5d" x="263.623047"/>
    </g>
   </g>
   <g id="text_10">
    <!-- L [38] -->
    <g transform="translate(7.2 166.80761) scale(0.1 -0.1)">
     <defs>
      <path id="DejaVuSans-4c" d="M 628 4666 
L 1259 4666 
L 1259 531 
L 3531 531 
L 3531 0 
L 628 0 
L 628 4666 
z
" transform="scale(0.015625)"/>
      <path id="DejaVuSans-38" d="M 2034 2216 
Q 1584 2216 1326 1975 
Q 1069 1734 1069 1313 
Q 1069 891 1326 650 
Q 1584 409 2034 409 
Q 2484 409 2743 651 
Q 3003 894 3003 1313 
Q 3003 1734 2745 1975 
Q 2488 2216 2034 2216 
z
M 1403 2484 
Q 997 2584 770 2862 
Q 544 3141 544 3541 
Q 544 4100 942 4425 
Q 1341 4750 2034 4750 
Q 2731 4750 3128 4425 
Q 3525 4100 3525 3541 
Q 3525 3141 3298 2862 
Q 3072 2584 2669 2484 
Q 3125 2378 3379 2068 
Q 3634 1759 3634 1313 
Q 3634 634 3220 271 
Q 2806 -91 2034 -91 
Q 1263 -91 848 271 
Q 434 634 434 1313 
Q 434 1759 690 2068 
Q 947 2378 1403 2484 
z
M 1172 3481 
Q 1172 3119 1398 2916 
Q 1625 2713 2034 2713 
Q 2441 2713 2670 2916 
Q 2900 3119 2900 3481 
Q 2900 3844 2670 4047 
Q 2441 4250 2034 4250 
Q 1625 4250 1398 4047 
Q 1172 3844 1172 3481 
z
" transform="scale(0.015625)"/>
     </defs>
     <use xlink:href="#DejaVuSans-4c"/>
     <use xlink:href="#DejaVuSans-20" x="55.712891"/>
     <use xlink:href="#DejaVuSans-5b" x="87.5"/>
     <use xlink:href="#DejaVuSans-33" x="126.513672"/>
     <use xlink:href="#DejaVuSans-38" x="190.136719"/>
     <use xlink:href="#DejaVuSans-5d" x="253.759766"/>
    </g>
   </g>
   <g id="text_11">
    <!-- M [13] -->
    <g transform="translate(22.504915 226.114828) scale(0.1 -0.1)">
     <defs>
      <path id="DejaVuSans-4d" d="M 628 4666 
L 1569 4666 
L 2759 1491 
L 3956 4666 
L 4897 4666 
L 4897 0 
L 4281 0 
L 4281 4097 
L 3078 897 
L 2444 897 
L 1241 4097 
L 1241 0 
L 628 0 
L 628 4666 
z
" transform="scale(0.015625)"/>
     </defs>
     <use xlink:href="#DejaVuSans-4d"/>
     <use xlink:href="#DejaVuSans-20" x="86.279297"/>
     <use xlink:href="#DejaVuSans-5b" x="118.066406"/>
     <use xlink:href="#DejaVuSans-31" x="157.080078"/>
     <use xlink:href="#DejaVuSans-33" x="220.703125"/>
     <use xlink:href="#DejaVuSans-5d" x="284.326172"/>
    </g>
   </g>
   <g id="text_12">
    <!-- N [18] -->
    <g transform="translate(46.820767 256.151062) scale(0.1 -0.1)">
     <defs>
      <path id="DejaVuSans-4e" d="M 628 4666 
L 1478 4666 
L 3547 763 
L 3547 4666 
L 4159 4666 
L 4159 0 
L 3309 0 
L 1241 3903 
L 1241 0 
L 628 0 
L 628 4666 
z
" transform="scale(0.015625)"/>
     </defs>
     <use xlink:href="#DejaVuSans-4e"/>
     <use xlink:href="#DejaVuSans-20" x="74.804688"/>
     <use xlink:href="#DejaVuSans-5b" x="106.591797"/>
     <use xlink:href="#DejaVuSans-31" x="145.605469"/>
     <use xlink:href="#DejaVuSans-38" x="209.228516"/>
     <use xlink:href="#DejaVuSans-5d" x="272.851562"/>
    </g>
   </g>
   <g id="text_13">
    <!-- P [13] -->
    <g transform="translate(78.608437 278.925991) scale(0.1 -0.1)">
     <defs>
      <path id="DejaVuSans-50" d="M 1259 4147 
L 1259 2394 
L 2053 2394 
Q 2494 2394 2734 2622 
Q 2975 2850 2975 3272 
Q 2975 3691 2734 3919 
Q 2494 4147 2053 4147 
L 1259 4147 
z
M 628 4666 
L 2053 4666 
Q 2838 4666 3239 4311 
Q 3641 3956 3641 3272 
Q 3641 2581 3239 2228 
Q 2838 1875 2053 1875 
L 1259 1875 
L 1259 0 
L 628 0 
L 628 4666 
z
" transform="scale(0.015625)"/>
     </defs>
     <use xlink:href="#DejaVuSans-50"/>
     <use xlink:href="#DejaVuSans-20" x="60.302734"/>
     <use xlink:href="#DejaVuSans-5b" x="92.089844"/>
     <use xlink:href="#DejaVuSans-31" x="131.103516"/>
     <use xlink:href="#DejaVuSans-33" x="194.726562"/>
     <use xlink:href="#DejaVuSans-5d" x="258.349609"/>
    </g>
   </g>
   <g id="text_14">
    <!-- Q [11] -->
    <g transform="translate(103.795302 290.502615) scale(0.1 -0.1)">
     <defs>
      <path id="DejaVuSans-51" d="M 2522 4238 
Q 1834 4238 1429 3725 
Q 1025 3213 1025 2328 
Q 1025 1447 1429 934 
Q 1834 422 2522 422 
Q 3209 422 3611 934 
Q 4013 1447 4013 2328 
Q 4013 3213 3611 3725 
Q 3209 4238 2522 4238 
z
M 3406 84 
L 4238 -825 
L 3475 -825 
L 2784 -78 
Q 2681 -84 2626 -87 
Q 2572 -91 2522 -91 
Q 1538 -91 948 567 
Q 359 1225 359 2328 
Q 359 3434 948 4092 
Q 1538 4750 2522 4750 
Q 3503 4750 4090 4092 
Q 4678 3434 4678 2328 
Q 4678 1516 4351 937 
Q 4025 359 3406 84 
z
" transform="scale(0.015625)"/>
     </defs>
     <use xlink:href="#DejaVuSans-51"/>
     <use xlink:href="#DejaVuSans-20" x="78.710938"/>
     <use xlink:href="#DejaVuSans-5b" x="110.498047"/>
     <use xlink:href="#DejaVuSans-31" x="149.511719"/>
     <use xlink:href="#DejaVuSans-31" x="213.134766"/>
     <use xlink:href="#DejaVuSans-5d" x="276.757812"/>
    </g>
   </g>
   <g id="text_15">
    <!-- R [14] -->
    <g transform="translate(134.783486 296.330018) scale(0.1 -0.1)">
     <defs>
      <path id="DejaVuSans-52" d="M 2841 2188 
Q 3044 2119 3236 1894 
Q 3428 1669 3622 1275 
L 4263 0 
L 3584 0 
L 2988 1197 
Q 2756 1666 2539 1819 
Q 2322 1972 1947 1972 
L 1259 1972 
L 1259 0 
L 628 0 
L 628 4666 
L 2053 4666 
Q 2853 4666 3247 4331 
Q 3641 3997 3641 3322 
Q 3641 2881 3436 2590 
Q 3231 2300 2841 2188 
z
M 1259 4147 
L 1259 2491 
L 2053 2491 
Q 2509 2491 2742 2702 
Q 2975 2913 2975 3322 
Q 2975 3731 2742 3939 
Q 2509 4147 2053 4147 
L 1259 4147 
z
" transform="scale(0.015625)"/>
      <path id="DejaVuSans-34" d="M 2419 4116 
L 825 1625 
L 2419 1625 
L 2419 4116 
z
M 2253 4666 
L 3047 4666 
L 3047 1625 
L 3713 1625 
L 3713 1100 
L 3047 1100 
L 3047 0 
L 2419 0 
L 2419 1100 
L 313 1100 
L 313 1709 
L 2253 4666 
z
" transform="scale(0.015625)"/>
     </defs>
     <use xlink:href="#DejaVuSans-52"/>
     <use xlink:href="#DejaVuSans-20" x="69.482422"/>
     <use xlink:href="#DejaVuSans-5b" x="101.269531"/>
     <use xlink:href="#DejaVuSans-31" x="140.283203"/>
     <use xlink:href="#DejaVuSans-34" x="203.90625"/>
     <use xlink:href="#DejaVuSans-5d" x="267.529297"/>
    </g>
   </g>
   <g id="text_16">
    <!-- S [22] -->
    <g transform="translate(209.323436 293.077847) scale(0.1 -0.1)">
     <defs>
      <path id="DejaVuSans-53" d="M 3425 4513 
L 3425 3897 
Q 3066 4069 2747 4153 
Q 2428 4238 2131 4238 
Q 1616 4238 1336 4038 
Q 1056 3838 1056 3469 
Q 1056 3159 1242 3001 
Q 1428 2844 1947 2747 
L 2328 2669 
Q 3034 2534 3370 2195 
Q 3706 1856 3706 1288 
Q 3706 609 3251 259 
Q 2797 -91 1919 -91 
Q 1588 -91 1214 -16 
Q 841 59 441 206 
L 441 856 
Q 825 641 1194 531 
Q 1563 422 1919 422 
Q 2459 422 2753 634 
Q 3047 847 3047 1241 
Q 3047 1584 2836 1778 
Q 2625 1972 2144 2069 
L 1759 2144 
Q 1053 2284 737 2584 
Q 422 2884 422 3419 
Q 422 4038 858 4394 
Q 1294 4750 2059 4750 
Q 2388 4750 2728 4690 
Q 3069 4631 3425 4513 
z
" transform="scale(0.015625)"/>
     </defs>
     <use xlink:href="#DejaVuSans-53"/>
     <use xlink:href="#DejaVuSans-20" x="63.476562"/>
     <use xlink:href="#DejaVuSans-5b" x="95.263672"/>
     <use xlink:href="#DejaVuSans-32" x="134.277344"/>
     <use xlink:href="#DejaVuSans-32" x="197.900391"/>
     <use xlink:href="#DejaVuSans-5d" x="261.523438"/>
    </g>
   </g>
   <g id="text_17">
    <!-- T [25] -->
    <g transform="translate(261.271509 268.930462) scale(0.1 -0.1)">
     <defs>
      <path id="DejaVuSans-54" d="M -19 4666 
L 3928 4666 
L 3928 4134 
L 2272 4134 
L 2272 0 
L 1638 0 
L 1638 4134 
L -19 4134 
L -19 4666 
z
" transform="scale(0.015625)"/>
     </defs>
     <use xlink:href="#DejaVuSans-54"/>
     <use xlink:href="#DejaVuSans-20" x="61.083984"/>
     <use xlink:href="#DejaVuSans-5b" x="92.871094"/>
     <use xlink:href="#DejaVuSans-32" x="131.884766"/>
     <use xlink:href="#DejaVuSans-35" x="195.507812"/>
     <use xlink:href="#DejaVuSans-5d" x="259.130859"/>
    </g>
   </g>
   <g id="text_18">
    <!-- V [23] -->
    <g transform="translate(299.938452 225.048334) scale(0.1 -0.1)">
     <defs>
      <path id="DejaVuSans-56" d="M 1831 0 
L 50 4666 
L 709 4666 
L 2188 738 
L 3669 4666 
L 4325 4666 
L 2547 0 
L 1831 0 
z
" transform="scale(0.015625)"/>
     </defs>
     <use xlink:href="#DejaVuSans-56"/>
     <use xlink:href="#DejaVuSans-20" x="68.408203"/>
     <use xlink:href="#DejaVuSans-5b" x="100.195312"/>
     <use xlink:href="#DejaVuSans-32" x="139.208984"/>
     <use xlink:href="#DejaVuSans-33" x="202.832031"/>
     <use xlink:href="#DejaVuSans-5d" x="266.455078"/>
    </g>
   </g>
   <g id="text_19">
    <!-- W [3] -->
    <g transform="translate(312.348346 195.72183) scale(0.1 -0.1)">
     <defs>
      <path id="DejaVuSans-57" d="M 213 4666 
L 850 4666 
L 1831 722 
L 2809 4666 
L 3519 4666 
L 4500 722 
L 5478 4666 
L 6119 4666 
L 4947 0 
L 4153 0 
L 3169 4050 
L 2175 0 
L 1381 0 
L 213 4666 
z
" transform="scale(0.015625)"/>
     </defs>
     <use xlink:href="#DejaVuSans-57"/>
     <use xlink:href="#DejaVuSans-20" x="98.876953"/>
     <use xlink:href="#DejaVuSans-5b" x="130.664062"/>
     <use xlink:href="#DejaVuSans-33" x="169.677734"/>
     <use xlink:href="#DejaVuSans-5d" x="233.300781"/>
    </g>
   </g>
   <g id="text_20">
    <!-- Y [15] -->
    <g transform="translate(316.924527 174.131004) scale(0.1 -0.1)">
     <defs>
      <path id="DejaVuSans-59" d="M -13 4666 
L 666 4666 
L 1959 2747 
L 3244 4666 
L 3922 4666 
L 2272 2222 
L 2272 0 
L 1638 0 
L 1638 2222 
L -13 4666 
z
" transform="scale(0.015625)"/>
     </defs>
     <use xlink:href="#DejaVuSans-59"/>
     <use xlink:href="#DejaVuSans-20" x="61.083984"/>
     <use xlink:href="#DejaVuSans-5b" x="92.871094"/>
     <use xlink:href="#DejaVuSans-31" x="131.884766"/>
     <use xlink:href="#DejaVuSans-35" x="195.507812"/>
     <use xlink:href="#DejaVuSans-5d" x="259.130859"/>
    </g>
   </g>
   <g id="text_21">
    <!-- D2H0B9 [361] -->
    <g transform="translate(134.342612 153.013004) scale(0.12 -0.12)">
     <defs>
      <path id="DejaVuSans-42" d="M 1259 2228 
L 1259 519 
L 2272 519 
Q 2781 519 3026 730 
Q 3272 941 3272 1375 
Q 3272 1813 3026 2020 
Q 2781 2228 2272 2228 
L 1259 2228 
z
M 1259 4147 
L 1259 2741 
L 2194 2741 
Q 2656 2741 2882 2914 
Q 3109 3088 3109 3444 
Q 3109 3797 2882 3972 
Q 2656 4147 2194 4147 
L 1259 4147 
z
M 628 4666 
L 2241 4666 
Q 2963 4666 3353 4366 
Q 3744 4066 3744 3513 
Q 3744 3084 3544 2831 
Q 3344 2578 2956 2516 
Q 3422 2416 3680 2098 
Q 3938 1781 3938 1306 
Q 3938 681 3513 340 
Q 3088 0 2303 0 
L 628 0 
L 628 4666 
z
" transform="scale(0.015625)"/>
     </defs>
     <use xlink:href="#DejaVuSans-44"/>
     <use xlink:href="#DejaVuSans-32" x="77.001953"/>
     <use xlink:href="#DejaVuSans-48" x="140.625"/>
     <use xlink:href="#DejaVuSans-30" x="215.820312"/>
     <use xlink:href="#DejaVuSans-42" x="279.443359"/>
     <use xlink:href="#DejaVuSans-39" x="348.046875"/>
     <use xlink:href="#DejaVuSans-20" x="411.669922"/>
     <use xlink:href="#DejaVuSans-5b" x="443.457031"/>
     <use xlink:href="#DejaVuSans-33" x="482.470703"/>
     <use xlink:href="#DejaVuSans-36" x="546.09375"/>
     <use xlink:href="#DejaVuSans-31" x="609.716797"/>
     <use xlink:href="#DejaVuSans-5d" x="673.339844"/>
    </g>
   </g>
  </g>
 </g>
</svg>
