<?xml version="1.0" encoding="utf-8" standalone="no"?>
<!DOCTYPE svg PUBLIC "-//W3C//DTD SVG 1.1//EN"
  "http://www.w3.org/Graphics/SVG/1.1/DTD/svg11.dtd">
<svg xmlns:xlink="http://www.w3.org/1999/xlink" width="355.371633pt" height="304.589794pt" viewBox="0 0 355.371633 304.589794" xmlns="http://www.w3.org/2000/svg" version="1.1">
 <metadata>
  <rdf:RDF xmlns:dc="http://purl.org/dc/elements/1.1/" xmlns:cc="http://creativecommons.org/ns#" xmlns:rdf="http://www.w3.org/1999/02/22-rdf-syntax-ns#">
   <cc:Work>
    <dc:type rdf:resource="http://purl.org/dc/dcmitype/StillImage"/>
    <dc:date>2024-09-27T16:07:18.579672</dc:date>
    <dc:format>image/svg+xml</dc:format>
    <dc:creator>
     <cc:Agent>
      <dc:title>Matplotlib v3.8.3, https://matplotlib.org/</dc:title>
     </cc:Agent>
    </dc:creator>
   </cc:Work>
  </rdf:RDF>
 </metadata>
 <defs>
  <style type="text/css">*{stroke-linejoin: round; stroke-linecap: butt}</style>
 </defs>
 <g id="figure_1">
  <g id="patch_1">
   <path d="M -0 304.589794 
L 355.371633 304.589794 
L 355.371633 0 
L -0 0 
z
" style="fill: #ffffff"/>
  </g>
  <g id="axes_1">
   <g id="patch_2">
    <path d="M 305.672081 152.707289 
C 305.672081 140.705573 303.98058 128.763531 300.647543 117.233915 
C 297.314506 105.704299 292.373077 94.701762 285.96922 84.551304 
L 177.938321 152.707289 
z
" style="fill: #1f77b4"/>
   </g>
   <g id="patch_3">
    <path d="M 285.861131 84.351701 
C 282.488558 79.005992 278.723849 73.917977 274.598039 69.129601 
C 270.472228 64.341226 265.996687 59.865684 261.208311 55.739874 
L 177.830231 152.507686 
z
" style="fill: #ff7f0e"/>
   </g>
   <g id="patch_4">
    <path d="M 261.113967 55.653842 
C 258.142708 53.093716 255.055113 50.671796 251.860996 48.395783 
C 248.666879 46.119769 245.369628 43.992076 241.979726 42.019467 
L 177.735887 152.421653 
z
" style="fill: #aec7e8"/>
   </g>
   <g id="patch_5">
    <path d="M 241.854891 41.95351 
C 235.44884 38.225782 228.730477 35.062681 221.775891 32.500031 
C 214.821305 29.93738 207.656851 27.984892 200.363671 26.664678 
L 177.611052 152.355696 
z
" style="fill: #ffbb78"/>
   </g>
   <g id="patch_6">
    <path d="M 200.20959 26.632696 
C 195.063088 25.701075 189.864223 25.086423 184.642362 24.792213 
C 179.420501 24.498002 174.185495 24.524788 168.966918 24.872419 
L 177.456971 152.323713 
z
" style="fill: #98df8a"/>
   </g>
   <g id="patch_7">
    <path d="M 168.770959 24.898132 
C 158.10578 25.608583 147.571828 27.654934 137.416348 30.989152 
C 127.260868 34.323371 117.563942 38.919166 108.55317 44.668668 
L 177.261013 152.349426 
z
" style="fill: #2ca02c"/>
   </g>
   <g id="patch_8">
    <path d="M 108.412557 44.73932 
C 106.759605 45.794018 105.131158 46.886637 103.52851 48.016308 
C 101.925863 49.145979 100.349438 50.312402 98.800492 51.51465 
L 177.120399 152.420079 
z
" style="fill: #d62728"/>
   </g>
   <g id="patch_9">
    <path d="M 98.722221 51.582091 
C 93.729103 55.457606 89.030523 59.698395 84.665217 64.269495 
C 80.299912 68.840596 76.279909 73.729412 72.638351 78.895639 
L 177.042128 152.487519 
z
" style="fill: #9467bd"/>
   </g>
   <g id="patch_10">
    <path d="M 72.557864 79.005002 
C 69.921449 82.745248 67.487928 86.624467 65.267828 90.625877 
C 63.047728 94.627287 61.044256 98.74511 59.266079 102.961532 
L 176.961641 152.596882 
z
" style="fill: #ff9896"/>
   </g>
   <g id="patch_11">
    <path d="M 59.199587 103.200686 
C 53.172623 117.49185 49.798701 132.761978 49.243309 148.262081 
C 48.687917 163.762185 50.960288 179.234628 55.948961 193.920498 
L 176.89515 152.836036 
z
" style="fill: #c5b0d5"/>
   </g>
   <g id="patch_12">
    <path d="M 55.988355 194.141341 
C 56.829272 196.616869 57.745995 199.065995 58.737228 201.485259 
C 59.72846 203.904523 60.793735 206.292783 61.931547 208.646666 
L 176.934543 153.056879 
z
" style="fill: #c49c94"/>
   </g>
   <g id="patch_13">
    <path d="M 61.969602 208.721922 
C 63.771351 212.449343 65.753252 216.086965 67.908286 219.621905 
C 70.06332 223.156844 72.38894 226.584923 74.876908 229.893998 
L 176.972598 153.132135 
z
" style="fill: #8c564b"/>
   </g>
   <g id="patch_14">
    <path d="M 74.971722 230.009303 
C 79.688168 236.282325 84.97274 242.107333 90.758353 247.410384 
C 96.543967 252.713434 102.806038 257.471993 109.465074 261.625655 
L 177.067411 153.24744 
z
" style="fill: #e377c2"/>
   </g>
   <g id="patch_15">
    <path d="M 109.590623 261.711297 
C 113.288282 264.017761 117.101559 266.133479 121.015488 268.050148 
C 124.929418 269.966817 128.938874 271.681927 133.028123 273.188748 
L 177.192959 153.333082 
z
" style="fill: #7f7f7f"/>
   </g>
   <g id="patch_16">
    <path d="M 133.188903 273.237913 
C 141.782705 276.404588 150.692218 278.637818 159.763631 279.899051 
C 168.835044 281.160284 178.015853 281.442219 187.147562 280.73999 
L 177.35374 153.382248 
z
" style="fill: #f7b6d2"/>
   </g>
   <g id="patch_17">
    <path d="M 187.39204 280.716779 
C 198.04939 279.897228 208.561851 277.74319 218.68268 274.305225 
C 228.803509 270.867259 238.452898 266.172476 247.404363 260.331068 
L 177.598217 153.359037 
z
" style="fill: #c7c7c7"/>
   </g>
   <g id="patch_18">
    <path d="M 247.606618 260.206342 
C 254.727846 255.559281 261.367272 250.212712 267.426022 244.246256 
C 273.484773 238.279799 278.932621 231.72322 283.688439 224.674159 
L 177.800472 153.234311 
z
" style="fill: #dbdb8d"/>
   </g>
   <g id="patch_19">
    <path d="M 283.796523 224.521651 
C 287.453608 219.101129 290.689076 213.407785 293.474387 207.491842 
C 296.259697 201.575899 298.586634 195.454805 300.434672 189.182558 
L 177.908557 153.081803 
z
" style="fill: #bcbd22"/>
   </g>
   <g id="patch_20">
    <path d="M 300.470698 189.079962 
C 301.086442 186.990124 301.648618 184.884875 302.156674 182.76628 
C 302.66473 180.647686 303.118501 178.51644 303.517539 176.374634 
L 177.944583 152.979207 
z
" style="fill: #17becf"/>
   </g>
   <g id="patch_21">
    <path d="M 303.529957 176.29947 
C 304.248314 172.443749 304.788706 168.556987 305.149413 164.65154 
C 305.51012 160.746094 305.690761 156.826105 305.690761 152.904037 
L 177.957001 152.904042 
z
" style="fill: #9edae5"/>
   </g>
   <g id="patch_22">
    <path d="M 251.938392 152.855094 
C 251.938392 145.854094 250.951683 138.887902 249.007412 132.162293 
C 247.06314 125.436684 244.18064 119.018537 240.445057 113.097437 
L 177.427032 152.855094 
z
" style="fill: #ffffff"/>
   </g>
   <g id="patch_23">
    <path d="M 240.445057 113.097437 
C 238.477723 109.979107 236.281642 107.011098 233.87492 104.217878 
C 231.468197 101.424659 228.857465 98.813927 226.064245 96.407204 
L 177.427032 152.855094 
z
" style="fill: #ffffff"/>
   </g>
   <g id="patch_24">
    <path d="M 226.064245 96.407204 
C 224.331011 94.913798 222.529914 93.501011 220.666679 92.173337 
C 218.803444 90.845662 216.880048 89.604508 214.902605 88.453819 
L 177.427032 152.855094 
z
" style="fill: #ffffff"/>
   </g>
   <g id="patch_25">
    <path d="M 214.902605 88.453819 
C 211.165742 86.279311 207.246697 84.434169 203.189855 82.93929 
C 199.133013 81.44441 194.953748 80.305459 190.699393 79.535334 
L 177.427032 152.855094 
z
" style="fill: #ffffff"/>
   </g>
   <g id="patch_26">
    <path d="M 190.699393 79.535334 
C 187.697267 78.991889 184.664596 78.633342 181.61851 78.461719 
C 178.572424 78.290096 175.518671 78.305721 172.474501 78.508506 
L 177.427032 152.855094 
z
" style="fill: #ffffff"/>
   </g>
   <g id="patch_27">
    <path d="M 172.474501 78.508506 
C 166.253147 78.922936 160.108341 80.11664 154.184311 82.061601 
C 148.260281 84.006562 142.603741 86.687442 137.347457 90.041318 
L 177.427032 152.855094 
z
" style="fill: #ffffff"/>
   </g>
   <g id="patch_28">
    <path d="M 137.347457 90.041318 
C 136.383236 90.656559 135.433308 91.29392 134.49843 91.952895 
C 133.563552 92.611869 132.643972 93.292283 131.740419 93.993594 
L 177.427032 152.855094 
z
" style="fill: #ffffff"/>
   </g>
   <g id="patch_29">
    <path d="M 131.740419 93.993594 
C 128.827767 96.254312 126.086929 98.728105 123.540501 101.39458 
C 120.994072 104.061056 118.649071 106.912865 116.524829 109.926498 
L 177.427032 152.855094 
z
" style="fill: #ffffff"/>
   </g>
   <g id="patch_30">
    <path d="M 116.524829 109.926498 
C 114.98692 112.108308 113.567366 114.371185 112.272308 116.705341 
C 110.977249 119.039497 109.808557 121.441561 108.771287 123.90114 
L 177.427032 152.855094 
z
" style="fill: #ffffff"/>
   </g>
   <g id="patch_31">
    <path d="M 108.771287 123.90114 
C 105.255558 132.237652 103.287437 141.145227 102.963459 150.186954 
C 102.63948 159.228681 103.965029 168.254273 106.875089 176.821031 
L 177.427032 152.855094 
z
" style="fill: #ffffff"/>
   </g>
   <g id="patch_32">
    <path d="M 106.875089 176.821031 
C 107.365624 178.265088 107.900379 179.693745 108.478598 181.104983 
C 109.056817 182.51622 109.678227 183.909372 110.341951 185.28247 
L 177.427032 152.855094 
z
" style="fill: #ffffff"/>
   </g>
   <g id="patch_33">
    <path d="M 110.341951 185.28247 
C 111.392972 187.456799 112.549081 189.578745 113.806184 191.640793 
C 115.063287 193.702841 116.419899 195.702554 117.871213 197.632848 
L 177.427032 152.855094 
z
" style="fill: #ffffff"/>
   </g>
   <g id="patch_34">
    <path d="M 117.871213 197.632848 
C 120.622474 201.292111 123.705141 204.690032 127.080082 207.783478 
C 130.455023 210.876924 134.107898 213.65275 137.992336 216.07572 
L 177.427032 152.855094 
z
" style="fill: #ffffff"/>
   </g>
   <g id="patch_35">
    <path d="M 137.992336 216.07572 
C 140.149304 217.421157 142.373715 218.655326 144.656841 219.773383 
C 146.939966 220.89144 149.278816 221.891921 151.664211 222.770899 
L 177.427032 152.855094 
z
" style="fill: #ffffff"/>
   </g>
   <g id="patch_36">
    <path d="M 151.664211 222.770899 
C 156.677261 224.618126 161.874477 225.920844 167.166135 226.656563 
C 172.457793 227.392282 177.813265 227.556744 183.140095 227.147111 
L 177.427032 152.855094 
z
" style="fill: #ffffff"/>
   </g>
   <g id="patch_37">
    <path d="M 183.140095 227.147111 
C 189.356883 226.669039 195.489152 225.412517 201.392968 223.407037 
C 207.296785 221.401557 212.925596 218.662934 218.147284 215.255446 
L 177.427032 152.855094 
z
" style="fill: #ffffff"/>
   </g>
   <g id="patch_38">
    <path d="M 218.147284 215.255446 
C 222.301334 212.544661 226.174332 209.425829 229.708603 205.945396 
C 233.242874 202.464963 236.420786 198.640291 239.195013 194.528339 
L 177.427032 152.855094 
z
" style="fill: #ffffff"/>
   </g>
   <g id="patch_39">
    <path d="M 239.195013 194.528339 
C 241.328312 191.366368 243.215669 188.04525 244.840433 184.594284 
C 246.465197 181.143317 247.822578 177.572679 248.900599 173.913868 
L 177.427032 152.855094 
z
" style="fill: #ffffff"/>
   </g>
   <g id="patch_40">
    <path d="M 248.900599 173.913868 
C 249.259784 172.694796 249.58772 171.466734 249.884086 170.230887 
C 250.180452 168.99504 250.445151 167.751814 250.677924 166.502427 
L 177.427032 152.855094 
z
" style="fill: #ffffff"/>
   </g>
   <g id="patch_41">
    <path d="M 250.677924 166.502427 
C 251.096965 164.253256 251.412193 161.985979 251.622606 159.707801 
C 251.833019 157.429624 251.938392 155.142965 251.938392 152.855091 
L 177.427032 152.855094 
z
" style="fill: #ffffff"/>
   </g>
   <g id="matplotlib.axis_1"/>
   <g id="matplotlib.axis_2"/>
   <g id="text_1">
    <!-- A [55] -->
    <g transform="translate(312.918465 116.445953) scale(0.1 -0.1)">
     <defs>
      <path id="DejaVuSans-41" d="M 2188 4044 
L 1331 1722 
L 3047 1722 
L 2188 4044 
z
M 1831 4666 
L 2547 4666 
L 4325 0 
L 3669 0 
L 3244 1197 
L 1141 1197 
L 716 0 
L 50 0 
L 1831 4666 
z
" transform="scale(0.015625)"/>
      <path id="DejaVuSans-20" transform="scale(0.015625)"/>
      <path id="DejaVuSans-5b" d="M 550 4863 
L 1875 4863 
L 1875 4416 
L 1125 4416 
L 1125 -397 
L 1875 -397 
L 1875 -844 
L 550 -844 
L 550 4863 
z
" transform="scale(0.015625)"/>
      <path id="DejaVuSans-35" d="M 691 4666 
L 3169 4666 
L 3169 4134 
L 1269 4134 
L 1269 2991 
Q 1406 3038 1543 3061 
Q 1681 3084 1819 3084 
Q 2600 3084 3056 2656 
Q 3513 2228 3513 1497 
Q 3513 744 3044 326 
Q 2575 -91 1722 -91 
Q 1428 -91 1123 -41 
Q 819 9 494 109 
L 494 744 
Q 775 591 1075 516 
Q 1375 441 1709 441 
Q 2250 441 2565 725 
Q 2881 1009 2881 1497 
Q 2881 1984 2565 2268 
Q 2250 2553 1709 2553 
Q 1456 2553 1204 2497 
Q 953 2441 691 2322 
L 691 4666 
z
" transform="scale(0.015625)"/>
      <path id="DejaVuSans-5d" d="M 1947 4863 
L 1947 -844 
L 622 -844 
L 622 -397 
L 1369 -397 
L 1369 4416 
L 622 4416 
L 622 4863 
L 1947 4863 
z
" transform="scale(0.015625)"/>
     </defs>
     <use xlink:href="#DejaVuSans-41"/>
     <use xlink:href="#DejaVuSans-20" x="68.408203"/>
     <use xlink:href="#DejaVuSans-5b" x="100.195312"/>
     <use xlink:href="#DejaVuSans-35" x="139.208984"/>
     <use xlink:href="#DejaVuSans-35" x="202.832031"/>
     <use xlink:href="#DejaVuSans-5d" x="266.455078"/>
    </g>
   </g>
   <g id="text_2">
    <!-- C [29] -->
    <g transform="translate(284.274819 63.551168) scale(0.1 -0.1)">
     <defs>
      <path id="DejaVuSans-43" d="M 4122 4306 
L 4122 3641 
Q 3803 3938 3442 4084 
Q 3081 4231 2675 4231 
Q 1875 4231 1450 3742 
Q 1025 3253 1025 2328 
Q 1025 1406 1450 917 
Q 1875 428 2675 428 
Q 3081 428 3442 575 
Q 3803 722 4122 1019 
L 4122 359 
Q 3791 134 3420 21 
Q 3050 -91 2638 -91 
Q 1578 -91 968 557 
Q 359 1206 359 2328 
Q 359 3453 968 4101 
Q 1578 4750 2638 4750 
Q 3056 4750 3426 4639 
Q 3797 4528 4122 4306 
z
" transform="scale(0.015625)"/>
      <path id="DejaVuSans-32" d="M 1228 531 
L 3431 531 
L 3431 0 
L 469 0 
L 469 531 
Q 828 903 1448 1529 
Q 2069 2156 2228 2338 
Q 2531 2678 2651 2914 
Q 2772 3150 2772 3378 
Q 2772 3750 2511 3984 
Q 2250 4219 1831 4219 
Q 1534 4219 1204 4116 
Q 875 4013 500 3803 
L 500 4441 
Q 881 4594 1212 4672 
Q 1544 4750 1819 4750 
Q 2544 4750 2975 4387 
Q 3406 4025 3406 3419 
Q 3406 3131 3298 2873 
Q 3191 2616 2906 2266 
Q 2828 2175 2409 1742 
Q 1991 1309 1228 531 
z
" transform="scale(0.015625)"/>
      <path id="DejaVuSans-39" d="M 703 97 
L 703 672 
Q 941 559 1184 500 
Q 1428 441 1663 441 
Q 2288 441 2617 861 
Q 2947 1281 2994 2138 
Q 2813 1869 2534 1725 
Q 2256 1581 1919 1581 
Q 1219 1581 811 2004 
Q 403 2428 403 3163 
Q 403 3881 828 4315 
Q 1253 4750 1959 4750 
Q 2769 4750 3195 4129 
Q 3622 3509 3622 2328 
Q 3622 1225 3098 567 
Q 2575 -91 1691 -91 
Q 1453 -91 1209 -44 
Q 966 3 703 97 
z
M 1959 2075 
Q 2384 2075 2632 2365 
Q 2881 2656 2881 3163 
Q 2881 3666 2632 3958 
Q 2384 4250 1959 4250 
Q 1534 4250 1286 3958 
Q 1038 3666 1038 3163 
Q 1038 2656 1286 2365 
Q 1534 2075 1959 2075 
z
" transform="scale(0.015625)"/>
     </defs>
     <use xlink:href="#DejaVuSans-43"/>
     <use xlink:href="#DejaVuSans-20" x="69.824219"/>
     <use xlink:href="#DejaVuSans-5b" x="101.611328"/>
     <use xlink:href="#DejaVuSans-32" x="140.625"/>
     <use xlink:href="#DejaVuSans-39" x="204.248047"/>
     <use xlink:href="#DejaVuSans-5d" x="267.871094"/>
    </g>
   </g>
   <g id="text_3">
    <!-- D [18] -->
    <g transform="translate(259.273507 40.752571) scale(0.1 -0.1)">
     <defs>
      <path id="DejaVuSans-44" d="M 1259 4147 
L 1259 519 
L 2022 519 
Q 2988 519 3436 956 
Q 3884 1394 3884 2338 
Q 3884 3275 3436 3711 
Q 2988 4147 2022 4147 
L 1259 4147 
z
M 628 4666 
L 1925 4666 
Q 3281 4666 3915 4102 
Q 4550 3538 4550 2338 
Q 4550 1131 3912 565 
Q 3275 0 1925 0 
L 628 0 
L 628 4666 
z
" transform="scale(0.015625)"/>
      <path id="DejaVuSans-31" d="M 794 531 
L 1825 531 
L 1825 4091 
L 703 3866 
L 703 4441 
L 1819 4666 
L 2450 4666 
L 2450 531 
L 3481 531 
L 3481 0 
L 794 0 
L 794 531 
z
" transform="scale(0.015625)"/>
      <path id="DejaVuSans-38" d="M 2034 2216 
Q 1584 2216 1326 1975 
Q 1069 1734 1069 1313 
Q 1069 891 1326 650 
Q 1584 409 2034 409 
Q 2484 409 2743 651 
Q 3003 894 3003 1313 
Q 3003 1734 2745 1975 
Q 2488 2216 2034 2216 
z
M 1403 2484 
Q 997 2584 770 2862 
Q 544 3141 544 3541 
Q 544 4100 942 4425 
Q 1341 4750 2034 4750 
Q 2731 4750 3128 4425 
Q 3525 4100 3525 3541 
Q 3525 3141 3298 2862 
Q 3072 2584 2669 2484 
Q 3125 2378 3379 2068 
Q 3634 1759 3634 1313 
Q 3634 634 3220 271 
Q 2806 -91 2034 -91 
Q 1263 -91 848 271 
Q 434 634 434 1313 
Q 434 1759 690 2068 
Q 947 2378 1403 2484 
z
M 1172 3481 
Q 1172 3119 1398 2916 
Q 1625 2713 2034 2713 
Q 2441 2713 2670 2916 
Q 2900 3119 2900 3481 
Q 2900 3844 2670 4047 
Q 2441 4250 2034 4250 
Q 1625 4250 1398 4047 
Q 1172 3844 1172 3481 
z
" transform="scale(0.015625)"/>
     </defs>
     <use xlink:href="#DejaVuSans-44"/>
     <use xlink:href="#DejaVuSans-20" x="77.001953"/>
     <use xlink:href="#DejaVuSans-5b" x="108.789062"/>
     <use xlink:href="#DejaVuSans-31" x="147.802734"/>
     <use xlink:href="#DejaVuSans-38" x="211.425781"/>
     <use xlink:href="#DejaVuSans-5d" x="275.048828"/>
    </g>
   </g>
   <g id="text_4">
    <!-- E [34] -->
    <g transform="translate(226.192375 23.273839) scale(0.1 -0.1)">
     <defs>
      <path id="DejaVuSans-45" d="M 628 4666 
L 3578 4666 
L 3578 4134 
L 1259 4134 
L 1259 2753 
L 3481 2753 
L 3481 2222 
L 1259 2222 
L 1259 531 
L 3634 531 
L 3634 0 
L 628 0 
L 628 4666 
z
" transform="scale(0.015625)"/>
      <path id="DejaVuSans-33" d="M 2597 2516 
Q 3050 2419 3304 2112 
Q 3559 1806 3559 1356 
Q 3559 666 3084 287 
Q 2609 -91 1734 -91 
Q 1441 -91 1130 -33 
Q 819 25 488 141 
L 488 750 
Q 750 597 1062 519 
Q 1375 441 1716 441 
Q 2309 441 2620 675 
Q 2931 909 2931 1356 
Q 2931 1769 2642 2001 
Q 2353 2234 1838 2234 
L 1294 2234 
L 1294 2753 
L 1863 2753 
Q 2328 2753 2575 2939 
Q 2822 3125 2822 3475 
Q 2822 3834 2567 4026 
Q 2313 4219 1838 4219 
Q 1578 4219 1281 4162 
Q 984 4106 628 3988 
L 628 4550 
Q 988 4650 1302 4700 
Q 1616 4750 1894 4750 
Q 2613 4750 3031 4423 
Q 3450 4097 3450 3541 
Q 3450 3153 3228 2886 
Q 3006 2619 2597 2516 
z
" transform="scale(0.015625)"/>
      <path id="DejaVuSans-34" d="M 2419 4116 
L 825 1625 
L 2419 1625 
L 2419 4116 
z
M 2253 4666 
L 3047 4666 
L 3047 1625 
L 3713 1625 
L 3713 1100 
L 3047 1100 
L 3047 0 
L 2419 0 
L 2419 1100 
L 313 1100 
L 313 1709 
L 2253 4666 
z
" transform="scale(0.015625)"/>
     </defs>
     <use xlink:href="#DejaVuSans-45"/>
     <use xlink:href="#DejaVuSans-20" x="63.183594"/>
     <use xlink:href="#DejaVuSans-5b" x="94.970703"/>
     <use xlink:href="#DejaVuSans-33" x="133.984375"/>
     <use xlink:href="#DejaVuSans-34" x="197.607422"/>
     <use xlink:href="#DejaVuSans-5d" x="261.230469"/>
    </g>
   </g>
   <g id="text_5">
    <!-- F [24] -->
    <g transform="translate(185.360901 14.798437) scale(0.1 -0.1)">
     <defs>
      <path id="DejaVuSans-46" d="M 628 4666 
L 3309 4666 
L 3309 4134 
L 1259 4134 
L 1259 2759 
L 3109 2759 
L 3109 2228 
L 1259 2228 
L 1259 0 
L 628 0 
L 628 4666 
z
" transform="scale(0.015625)"/>
     </defs>
     <use xlink:href="#DejaVuSans-46"/>
     <use xlink:href="#DejaVuSans-20" x="57.519531"/>
     <use xlink:href="#DejaVuSans-5b" x="89.306641"/>
     <use xlink:href="#DejaVuSans-32" x="128.320312"/>
     <use xlink:href="#DejaVuSans-34" x="191.943359"/>
     <use xlink:href="#DejaVuSans-5d" x="255.566406"/>
    </g>
   </g>
   <g id="text_6">
    <!-- G [49] -->
    <g transform="translate(101.977194 21.6125) scale(0.1 -0.1)">
     <defs>
      <path id="DejaVuSans-47" d="M 3809 666 
L 3809 1919 
L 2778 1919 
L 2778 2438 
L 4434 2438 
L 4434 434 
Q 4069 175 3628 42 
Q 3188 -91 2688 -91 
Q 1594 -91 976 548 
Q 359 1188 359 2328 
Q 359 3472 976 4111 
Q 1594 4750 2688 4750 
Q 3144 4750 3555 4637 
Q 3966 4525 4313 4306 
L 4313 3634 
Q 3963 3931 3569 4081 
Q 3175 4231 2741 4231 
Q 1884 4231 1454 3753 
Q 1025 3275 1025 2328 
Q 1025 1384 1454 906 
Q 1884 428 2741 428 
Q 3075 428 3337 486 
Q 3600 544 3809 666 
z
" transform="scale(0.015625)"/>
     </defs>
     <use xlink:href="#DejaVuSans-47"/>
     <use xlink:href="#DejaVuSans-20" x="77.490234"/>
     <use xlink:href="#DejaVuSans-5b" x="109.277344"/>
     <use xlink:href="#DejaVuSans-34" x="148.291016"/>
     <use xlink:href="#DejaVuSans-39" x="211.914062"/>
     <use xlink:href="#DejaVuSans-5d" x="275.537109"/>
    </g>
   </g>
   <g id="text_7">
    <!-- H [9] -->
    <g transform="translate(71.305259 40.335306) scale(0.1 -0.1)">
     <defs>
      <path id="DejaVuSans-48" d="M 628 4666 
L 1259 4666 
L 1259 2753 
L 3553 2753 
L 3553 4666 
L 4184 4666 
L 4184 0 
L 3553 0 
L 3553 2222 
L 1259 2222 
L 1259 0 
L 628 0 
L 628 4666 
z
" transform="scale(0.015625)"/>
     </defs>
     <use xlink:href="#DejaVuSans-48"/>
     <use xlink:href="#DejaVuSans-20" x="75.195312"/>
     <use xlink:href="#DejaVuSans-5b" x="106.982422"/>
     <use xlink:href="#DejaVuSans-39" x="145.996094"/>
     <use xlink:href="#DejaVuSans-5d" x="209.619141"/>
    </g>
   </g>
   <g id="text_8">
    <!-- I [29] -->
    <g transform="translate(48.771276 58.207068) scale(0.1 -0.1)">
     <defs>
      <path id="DejaVuSans-49" d="M 628 4666 
L 1259 4666 
L 1259 0 
L 628 0 
L 628 4666 
z
" transform="scale(0.015625)"/>
     </defs>
     <use xlink:href="#DejaVuSans-49"/>
     <use xlink:href="#DejaVuSans-20" x="29.492188"/>
     <use xlink:href="#DejaVuSans-5b" x="61.279297"/>
     <use xlink:href="#DejaVuSans-32" x="100.292969"/>
     <use xlink:href="#DejaVuSans-39" x="163.916016"/>
     <use xlink:href="#DejaVuSans-5d" x="227.539062"/>
    </g>
   </g>
   <g id="text_9">
    <!-- K [21] -->
    <g transform="translate(23.834384 87.188151) scale(0.1 -0.1)">
     <defs>
      <path id="DejaVuSans-4b" d="M 628 4666 
L 1259 4666 
L 1259 2694 
L 3353 4666 
L 4166 4666 
L 1850 2491 
L 4331 0 
L 3500 0 
L 1259 2247 
L 1259 0 
L 628 0 
L 628 4666 
z
" transform="scale(0.015625)"/>
     </defs>
     <use xlink:href="#DejaVuSans-4b"/>
     <use xlink:href="#DejaVuSans-20" x="65.576172"/>
     <use xlink:href="#DejaVuSans-5b" x="97.363281"/>
     <use xlink:href="#DejaVuSans-32" x="136.376953"/>
     <use xlink:href="#DejaVuSans-31" x="200"/>
     <use xlink:href="#DejaVuSans-5d" x="263.623047"/>
    </g>
   </g>
   <g id="text_10">
    <!-- L [71] -->
    <g transform="translate(7.2 150.564061) scale(0.1 -0.1)">
     <defs>
      <path id="DejaVuSans-4c" d="M 628 4666 
L 1259 4666 
L 1259 531 
L 3531 531 
L 3531 0 
L 628 0 
L 628 4666 
z
" transform="scale(0.015625)"/>
      <path id="DejaVuSans-37" d="M 525 4666 
L 3525 4666 
L 3525 4397 
L 1831 0 
L 1172 0 
L 2766 4134 
L 525 4134 
L 525 4666 
z
" transform="scale(0.015625)"/>
     </defs>
     <use xlink:href="#DejaVuSans-4c"/>
     <use xlink:href="#DejaVuSans-20" x="55.712891"/>
     <use xlink:href="#DejaVuSans-5b" x="87.5"/>
     <use xlink:href="#DejaVuSans-37" x="126.513672"/>
     <use xlink:href="#DejaVuSans-31" x="190.136719"/>
     <use xlink:href="#DejaVuSans-5d" x="253.759766"/>
    </g>
   </g>
   <g id="text_11">
    <!-- M [12] -->
    <g transform="translate(14.583121 209.087472) scale(0.1 -0.1)">
     <defs>
      <path id="DejaVuSans-4d" d="M 628 4666 
L 1569 4666 
L 2759 1491 
L 3956 4666 
L 4897 4666 
L 4897 0 
L 4281 0 
L 4281 4097 
L 3078 897 
L 2444 897 
L 1241 4097 
L 1241 0 
L 628 0 
L 628 4666 
z
" transform="scale(0.015625)"/>
     </defs>
     <use xlink:href="#DejaVuSans-4d"/>
     <use xlink:href="#DejaVuSans-20" x="86.279297"/>
     <use xlink:href="#DejaVuSans-5b" x="118.066406"/>
     <use xlink:href="#DejaVuSans-31" x="157.080078"/>
     <use xlink:href="#DejaVuSans-32" x="220.703125"/>
     <use xlink:href="#DejaVuSans-5d" x="284.326172"/>
    </g>
   </g>
   <g id="text_12">
    <!-- N [19] -->
    <g transform="translate(25.814355 229.030257) scale(0.1 -0.1)">
     <defs>
      <path id="DejaVuSans-4e" d="M 628 4666 
L 1478 4666 
L 3547 763 
L 3547 4666 
L 4159 4666 
L 4159 0 
L 3309 0 
L 1241 3903 
L 1241 0 
L 628 0 
L 628 4666 
z
" transform="scale(0.015625)"/>
     </defs>
     <use xlink:href="#DejaVuSans-4e"/>
     <use xlink:href="#DejaVuSans-20" x="74.804688"/>
     <use xlink:href="#DejaVuSans-5b" x="106.591797"/>
     <use xlink:href="#DejaVuSans-31" x="145.605469"/>
     <use xlink:href="#DejaVuSans-39" x="209.228516"/>
     <use xlink:href="#DejaVuSans-5d" x="272.851562"/>
    </g>
   </g>
   <g id="text_13">
    <!-- P [36] -->
    <g transform="translate(52.39151 259.586053) scale(0.1 -0.1)">
     <defs>
      <path id="DejaVuSans-50" d="M 1259 4147 
L 1259 2394 
L 2053 2394 
Q 2494 2394 2734 2622 
Q 2975 2850 2975 3272 
Q 2975 3691 2734 3919 
Q 2494 4147 2053 4147 
L 1259 4147 
z
M 628 4666 
L 2053 4666 
Q 2838 4666 3239 4311 
Q 3641 3956 3641 3272 
Q 3641 2581 3239 2228 
Q 2838 1875 2053 1875 
L 1259 1875 
L 1259 0 
L 628 0 
L 628 4666 
z
" transform="scale(0.015625)"/>
      <path id="DejaVuSans-36" d="M 2113 2584 
Q 1688 2584 1439 2293 
Q 1191 2003 1191 1497 
Q 1191 994 1439 701 
Q 1688 409 2113 409 
Q 2538 409 2786 701 
Q 3034 994 3034 1497 
Q 3034 2003 2786 2293 
Q 2538 2584 2113 2584 
z
M 3366 4563 
L 3366 3988 
Q 3128 4100 2886 4159 
Q 2644 4219 2406 4219 
Q 1781 4219 1451 3797 
Q 1122 3375 1075 2522 
Q 1259 2794 1537 2939 
Q 1816 3084 2150 3084 
Q 2853 3084 3261 2657 
Q 3669 2231 3669 1497 
Q 3669 778 3244 343 
Q 2819 -91 2113 -91 
Q 1303 -91 875 529 
Q 447 1150 447 2328 
Q 447 3434 972 4092 
Q 1497 4750 2381 4750 
Q 2619 4750 2861 4703 
Q 3103 4656 3366 4563 
z
" transform="scale(0.015625)"/>
     </defs>
     <use xlink:href="#DejaVuSans-50"/>
     <use xlink:href="#DejaVuSans-20" x="60.302734"/>
     <use xlink:href="#DejaVuSans-5b" x="92.089844"/>
     <use xlink:href="#DejaVuSans-33" x="131.103516"/>
     <use xlink:href="#DejaVuSans-36" x="194.726562"/>
     <use xlink:href="#DejaVuSans-5d" x="258.349609"/>
    </g>
   </g>
   <g id="text_14">
    <!-- Q [20] -->
    <g transform="translate(83.819616 282.281229) scale(0.1 -0.1)">
     <defs>
      <path id="DejaVuSans-51" d="M 2522 4238 
Q 1834 4238 1429 3725 
Q 1025 3213 1025 2328 
Q 1025 1447 1429 934 
Q 1834 422 2522 422 
Q 3209 422 3611 934 
Q 4013 1447 4013 2328 
Q 4013 3213 3611 3725 
Q 3209 4238 2522 4238 
z
M 3406 84 
L 4238 -825 
L 3475 -825 
L 2784 -78 
Q 2681 -84 2626 -87 
Q 2572 -91 2522 -91 
Q 1538 -91 948 567 
Q 359 1225 359 2328 
Q 359 3434 948 4092 
Q 1538 4750 2522 4750 
Q 3503 4750 4090 4092 
Q 4678 3434 4678 2328 
Q 4678 1516 4351 937 
Q 4025 359 3406 84 
z
" transform="scale(0.015625)"/>
      <path id="DejaVuSans-30" d="M 2034 4250 
Q 1547 4250 1301 3770 
Q 1056 3291 1056 2328 
Q 1056 1369 1301 889 
Q 1547 409 2034 409 
Q 2525 409 2770 889 
Q 3016 1369 3016 2328 
Q 3016 3291 2770 3770 
Q 2525 4250 2034 4250 
z
M 2034 4750 
Q 2819 4750 3233 4129 
Q 3647 3509 3647 2328 
Q 3647 1150 3233 529 
Q 2819 -91 2034 -91 
Q 1250 -91 836 529 
Q 422 1150 422 2328 
Q 422 3509 836 4129 
Q 1250 4750 2034 4750 
z
" transform="scale(0.015625)"/>
     </defs>
     <use xlink:href="#DejaVuSans-51"/>
     <use xlink:href="#DejaVuSans-20" x="78.710938"/>
     <use xlink:href="#DejaVuSans-5b" x="110.498047"/>
     <use xlink:href="#DejaVuSans-32" x="149.511719"/>
     <use xlink:href="#DejaVuSans-30" x="213.134766"/>
     <use xlink:href="#DejaVuSans-5d" x="276.757812"/>
    </g>
   </g>
   <g id="text_15">
    <!-- R [42] -->
    <g transform="translate(127.349932 295.310106) scale(0.1 -0.1)">
     <defs>
      <path id="DejaVuSans-52" d="M 2841 2188 
Q 3044 2119 3236 1894 
Q 3428 1669 3622 1275 
L 4263 0 
L 3584 0 
L 2988 1197 
Q 2756 1666 2539 1819 
Q 2322 1972 1947 1972 
L 1259 1972 
L 1259 0 
L 628 0 
L 628 4666 
L 2053 4666 
Q 2853 4666 3247 4331 
Q 3641 3997 3641 3322 
Q 3641 2881 3436 2590 
Q 3231 2300 2841 2188 
z
M 1259 4147 
L 1259 2491 
L 2053 2491 
Q 2509 2491 2742 2702 
Q 2975 2913 2975 3322 
Q 2975 3731 2742 3939 
Q 2509 4147 2053 4147 
L 1259 4147 
z
" transform="scale(0.015625)"/>
     </defs>
     <use xlink:href="#DejaVuSans-52"/>
     <use xlink:href="#DejaVuSans-20" x="69.482422"/>
     <use xlink:href="#DejaVuSans-5b" x="101.269531"/>
     <use xlink:href="#DejaVuSans-34" x="140.283203"/>
     <use xlink:href="#DejaVuSans-32" x="203.90625"/>
     <use xlink:href="#DejaVuSans-5d" x="267.529297"/>
    </g>
   </g>
   <g id="text_16">
    <!-- S [49] -->
    <g transform="translate(222.791126 289.159219) scale(0.1 -0.1)">
     <defs>
      <path id="DejaVuSans-53" d="M 3425 4513 
L 3425 3897 
Q 3066 4069 2747 4153 
Q 2428 4238 2131 4238 
Q 1616 4238 1336 4038 
Q 1056 3838 1056 3469 
Q 1056 3159 1242 3001 
Q 1428 2844 1947 2747 
L 2328 2669 
Q 3034 2534 3370 2195 
Q 3706 1856 3706 1288 
Q 3706 609 3251 259 
Q 2797 -91 1919 -91 
Q 1588 -91 1214 -16 
Q 841 59 441 206 
L 441 856 
Q 825 641 1194 531 
Q 1563 422 1919 422 
Q 2459 422 2753 634 
Q 3047 847 3047 1241 
Q 3047 1584 2836 1778 
Q 2625 1972 2144 2069 
L 1759 2144 
Q 1053 2284 737 2584 
Q 422 2884 422 3419 
Q 422 4038 858 4394 
Q 1294 4750 2059 4750 
Q 2388 4750 2728 4690 
Q 3069 4631 3425 4513 
z
" transform="scale(0.015625)"/>
     </defs>
     <use xlink:href="#DejaVuSans-53"/>
     <use xlink:href="#DejaVuSans-20" x="63.476562"/>
     <use xlink:href="#DejaVuSans-5b" x="95.263672"/>
     <use xlink:href="#DejaVuSans-34" x="134.277344"/>
     <use xlink:href="#DejaVuSans-39" x="197.900391"/>
     <use xlink:href="#DejaVuSans-5d" x="261.523438"/>
    </g>
   </g>
   <g id="text_17">
    <!-- T [39] -->
    <g transform="translate(276.388577 256.106825) scale(0.1 -0.1)">
     <defs>
      <path id="DejaVuSans-54" d="M -19 4666 
L 3928 4666 
L 3928 4134 
L 2272 4134 
L 2272 0 
L 1638 0 
L 1638 4134 
L -19 4134 
L -19 4666 
z
" transform="scale(0.015625)"/>
     </defs>
     <use xlink:href="#DejaVuSans-54"/>
     <use xlink:href="#DejaVuSans-20" x="61.083984"/>
     <use xlink:href="#DejaVuSans-5b" x="92.871094"/>
     <use xlink:href="#DejaVuSans-33" x="131.884766"/>
     <use xlink:href="#DejaVuSans-39" x="195.507812"/>
     <use xlink:href="#DejaVuSans-5d" x="259.130859"/>
    </g>
   </g>
   <g id="text_18">
    <!-- V [30] -->
    <g transform="translate(305.03097 215.692221) scale(0.1 -0.1)">
     <defs>
      <path id="DejaVuSans-56" d="M 1831 0 
L 50 4666 
L 709 4666 
L 2188 738 
L 3669 4666 
L 4325 4666 
L 2547 0 
L 1831 0 
z
" transform="scale(0.015625)"/>
     </defs>
     <use xlink:href="#DejaVuSans-56"/>
     <use xlink:href="#DejaVuSans-20" x="68.408203"/>
     <use xlink:href="#DejaVuSans-5b" x="100.195312"/>
     <use xlink:href="#DejaVuSans-33" x="139.208984"/>
     <use xlink:href="#DejaVuSans-30" x="202.832031"/>
     <use xlink:href="#DejaVuSans-5d" x="266.455078"/>
    </g>
   </g>
   <g id="text_19">
    <!-- W [10] -->
    <g transform="translate(314.577883 188.504363) scale(0.1 -0.1)">
     <defs>
      <path id="DejaVuSans-57" d="M 213 4666 
L 850 4666 
L 1831 722 
L 2809 4666 
L 3519 4666 
L 4500 722 
L 5478 4666 
L 6119 4666 
L 4947 0 
L 4153 0 
L 3169 4050 
L 2175 0 
L 1381 0 
L 213 4666 
z
" transform="scale(0.015625)"/>
     </defs>
     <use xlink:href="#DejaVuSans-57"/>
     <use xlink:href="#DejaVuSans-20" x="98.876953"/>
     <use xlink:href="#DejaVuSans-5b" x="130.664062"/>
     <use xlink:href="#DejaVuSans-31" x="169.677734"/>
     <use xlink:href="#DejaVuSans-30" x="233.300781"/>
     <use xlink:href="#DejaVuSans-5d" x="296.923828"/>
    </g>
   </g>
   <g id="text_20">
    <!-- Y [18] -->
    <g transform="translate(317.868654 168.585665) scale(0.1 -0.1)">
     <defs>
      <path id="DejaVuSans-59" d="M -13 4666 
L 666 4666 
L 1959 2747 
L 3244 4666 
L 3922 4666 
L 2272 2222 
L 2272 0 
L 1638 0 
L 1638 2222 
L -13 4666 
z
" transform="scale(0.015625)"/>
     </defs>
     <use xlink:href="#DejaVuSans-59"/>
     <use xlink:href="#DejaVuSans-20" x="61.083984"/>
     <use xlink:href="#DejaVuSans-5b" x="92.871094"/>
     <use xlink:href="#DejaVuSans-31" x="131.884766"/>
     <use xlink:href="#DejaVuSans-38" x="195.507812"/>
     <use xlink:href="#DejaVuSans-5d" x="259.130859"/>
    </g>
   </g>
   <g id="text_21">
    <!-- D2HUB2 [614] -->
    <g transform="translate(134.110782 152.855094) scale(0.12 -0.12)">
     <defs>
      <path id="DejaVuSans-55" d="M 556 4666 
L 1191 4666 
L 1191 1831 
Q 1191 1081 1462 751 
Q 1734 422 2344 422 
Q 2950 422 3222 751 
Q 3494 1081 3494 1831 
L 3494 4666 
L 4128 4666 
L 4128 1753 
Q 4128 841 3676 375 
Q 3225 -91 2344 -91 
Q 1459 -91 1007 375 
Q 556 841 556 1753 
L 556 4666 
z
" transform="scale(0.015625)"/>
      <path id="DejaVuSans-42" d="M 1259 2228 
L 1259 519 
L 2272 519 
Q 2781 519 3026 730 
Q 3272 941 3272 1375 
Q 3272 1813 3026 2020 
Q 2781 2228 2272 2228 
L 1259 2228 
z
M 1259 4147 
L 1259 2741 
L 2194 2741 
Q 2656 2741 2882 2914 
Q 3109 3088 3109 3444 
Q 3109 3797 2882 3972 
Q 2656 4147 2194 4147 
L 1259 4147 
z
M 628 4666 
L 2241 4666 
Q 2963 4666 3353 4366 
Q 3744 4066 3744 3513 
Q 3744 3084 3544 2831 
Q 3344 2578 2956 2516 
Q 3422 2416 3680 2098 
Q 3938 1781 3938 1306 
Q 3938 681 3513 340 
Q 3088 0 2303 0 
L 628 0 
L 628 4666 
z
" transform="scale(0.015625)"/>
     </defs>
     <use xlink:href="#DejaVuSans-44"/>
     <use xlink:href="#DejaVuSans-32" x="77.001953"/>
     <use xlink:href="#DejaVuSans-48" x="140.625"/>
     <use xlink:href="#DejaVuSans-55" x="215.820312"/>
     <use xlink:href="#DejaVuSans-42" x="289.013672"/>
     <use xlink:href="#DejaVuSans-32" x="357.617188"/>
     <use xlink:href="#DejaVuSans-20" x="421.240234"/>
     <use xlink:href="#DejaVuSans-5b" x="453.027344"/>
     <use xlink:href="#DejaVuSans-36" x="492.041016"/>
     <use xlink:href="#DejaVuSans-31" x="555.664062"/>
     <use xlink:href="#DejaVuSans-34" x="619.287109"/>
     <use xlink:href="#DejaVuSans-5d" x="682.910156"/>
    </g>
   </g>
  </g>
 </g>
</svg>
