<?xml version="1.0" encoding="utf-8" standalone="no"?>
<!DOCTYPE svg PUBLIC "-//W3C//DTD SVG 1.1//EN"
  "http://www.w3.org/Graphics/SVG/1.1/DTD/svg11.dtd">
<svg xmlns:xlink="http://www.w3.org/1999/xlink" width="351.398282pt" height="302.546789pt" viewBox="0 0 351.398282 302.546789" xmlns="http://www.w3.org/2000/svg" version="1.1">
 <metadata>
  <rdf:RDF xmlns:dc="http://purl.org/dc/elements/1.1/" xmlns:cc="http://creativecommons.org/ns#" xmlns:rdf="http://www.w3.org/1999/02/22-rdf-syntax-ns#">
   <cc:Work>
    <dc:type rdf:resource="http://purl.org/dc/dcmitype/StillImage"/>
    <dc:date>2024-09-27T16:07:15.981151</dc:date>
    <dc:format>image/svg+xml</dc:format>
    <dc:creator>
     <cc:Agent>
      <dc:title>Matplotlib v3.8.3, https://matplotlib.org/</dc:title>
     </cc:Agent>
    </dc:creator>
   </cc:Work>
  </rdf:RDF>
 </metadata>
 <defs>
  <style type="text/css">*{stroke-linejoin: round; stroke-linecap: butt}</style>
 </defs>
 <g id="figure_1">
  <g id="patch_1">
   <path d="M -0 302.546789 
L 351.398282 302.546789 
L 351.398282 -0 
L -0 -0 
z
" style="fill: #ffffff"/>
  </g>
  <g id="axes_1">
   <g id="patch_2">
    <path d="M 301.471542 150.837649 
C 301.471542 129.777526 296.263106 109.040672 286.311636 90.480041 
C 276.360166 71.91941 261.971169 56.104806 244.430383 44.449352 
L 173.737782 150.837649 
z
" style="fill: #1f77b4"/>
   </g>
   <g id="patch_3">
    <path d="M 244.218567 44.234915 
C 241.309294 42.301769 238.321949 40.48877 235.264067 38.800492 
C 232.206185 37.112214 229.080338 35.550077 225.89441 34.11802 
L 173.525966 150.623211 
z
" style="fill: #ff7f0e"/>
   </g>
   <g id="patch_4">
    <path d="M 225.839328 34.091613 
C 224.565106 33.518857 223.281574 32.967045 221.98925 32.436398 
C 220.696925 31.905751 219.395982 31.396341 218.086946 30.908373 
L 173.470884 150.596804 
z
" style="fill: #aec7e8"/>
   </g>
   <g id="patch_5">
    <path d="M 218.037585 30.89089 
C 215.419335 29.914889 212.769765 29.025065 210.093151 28.222853 
C 207.416538 27.420641 204.714321 26.706474 201.990864 26.081504 
L 173.421523 150.57932 
z
" style="fill: #ffbb78"/>
   </g>
   <g id="patch_6">
    <path d="M 201.92714 26.066606 
C 199.544165 25.519769 197.145981 25.041462 194.735552 24.632277 
C 192.325123 24.223092 189.903443 23.883197 187.473505 23.613013 
L 173.357798 150.564422 
z
" style="fill: #98df8a"/>
   </g>
   <g id="patch_7">
    <path d="M 187.291056 23.613761 
C 175.121376 22.260616 162.820112 22.66437 150.765355 24.812613 
C 138.710598 26.960856 127.027131 30.831351 116.074058 36.305133 
L 173.175349 150.56517 
z
" style="fill: #2ca02c"/>
   </g>
   <g id="patch_8">
    <path d="M 115.895045 36.371864 
C 113.08304 37.777159 110.323871 39.285783 107.623175 40.894654 
C 104.922479 42.503525 102.282096 44.211546 99.70742 46.015228 
L 172.996336 150.6319 
z
" style="fill: #d62728"/>
   </g>
   <g id="patch_9">
    <path d="M 99.649926 46.054806 
C 97.64749 47.457607 95.685743 48.917611 93.767109 50.433013 
C 91.848475 51.948415 89.973745 53.51859 88.145237 55.141599 
L 172.938842 150.671479 
z
" style="fill: #9467bd"/>
   </g>
   <g id="patch_10">
    <path d="M 88.11533 55.167067 
C 87.592932 55.630755 87.074347 56.09872 86.559625 56.570914 
C 86.044904 57.043109 85.534065 57.519518 85.027159 58.000093 
L 172.908936 150.696947 
z
" style="fill: #ff9896"/>
   </g>
   <g id="patch_11">
    <path d="M 84.870757 58.262634 
C 67.266747 74.952215 54.775962 96.316234 48.866708 119.843326 
C 42.957454 143.370417 43.870721 168.101105 51.499153 191.12827 
L 172.752533 150.959488 
z
" style="fill: #c5b0d5"/>
   </g>
   <g id="patch_12">
    <path d="M 51.515883 191.441775 
C 51.955211 192.767927 52.416265 194.086783 52.89886 195.397809 
C 53.381454 196.708836 53.885524 198.011858 54.410867 199.306347 
L 172.769264 151.272992 
z
" style="fill: #c49c94"/>
   </g>
   <g id="patch_13">
    <path d="M 54.431352 199.354541 
C 55.482108 201.943694 56.617539 204.497673 57.835814 207.012352 
C 59.054088 209.527032 60.354549 212.001059 61.735098 214.430439 
L 172.78975 151.321186 
z
" style="fill: #8c564b"/>
   </g>
   <g id="patch_14">
    <path d="M 61.82336 214.559787 
C 66.660152 223.071188 72.459439 230.998395 79.106916 238.185158 
C 85.754393 245.371921 93.206095 251.770709 101.315144 257.255398 
L 172.878012 151.450533 
z
" style="fill: #e377c2"/>
   </g>
   <g id="patch_15">
    <path d="M 101.464038 257.36812 
C 105.804777 260.30405 110.322079 262.970076 114.990325 265.351079 
C 119.658572 267.732081 124.468922 269.82355 129.394095 271.613625 
L 173.026905 151.563255 
z
" style="fill: #7f7f7f"/>
   </g>
   <g id="patch_16">
    <path d="M 129.55546 271.665617 
C 137.439608 274.531144 145.586902 276.613043 153.879246 277.881137 
C 162.17159 279.149232 170.568725 279.597365 178.948934 279.219041 
L 173.18827 151.615247 
z
" style="fill: #f7b6d2"/>
   </g>
   <g id="patch_17">
    <path d="M 179.182187 279.202751 
C 189.662192 278.729632 200.044111 276.967238 210.093156 273.955423 
C 220.142202 270.943609 229.782047 266.705252 238.794686 261.336203 
L 173.421523 151.598958 
z
" style="fill: #c7c7c7"/>
   </g>
   <g id="patch_18">
    <path d="M 238.975184 261.241325 
C 244.077986 258.201461 248.962547 254.809374 253.593299 251.089766 
C 258.224051 247.370157 262.589725 243.332078 266.658531 239.004934 
L 173.602021 151.504079 
z
" style="fill: #dbdb8d"/>
   </g>
   <g id="patch_19">
    <path d="M 266.783585 238.860504 
C 273.249783 231.983751 278.933828 224.411373 283.731518 216.28219 
C 288.529208 208.153007 292.411045 199.517 295.305866 190.532488 
L 173.727076 151.35965 
z
" style="fill: #bcbd22"/>
   </g>
   <g id="patch_20">
    <path d="M 295.365763 190.383143 
C 296.436975 187.058473 297.371364 183.691262 298.166572 180.290002 
C 298.961779 176.888742 299.617137 173.456294 300.130993 170.001315 
L 173.786973 151.210304 
z
" style="fill: #17becf"/>
   </g>
   <g id="patch_21">
    <path d="M 300.143519 169.919405 
C 300.605976 166.810006 300.95349 163.684596 301.18535 160.549557 
C 301.41721 157.414519 301.533259 154.271989 301.533259 151.128389 
L 173.799499 151.128394 
z
" style="fill: #9edae5"/>
   </g>
   <g id="patch_22">
    <path d="M 247.780084 151.089139 
C 247.780084 138.804067 244.74183 126.707569 238.936806 115.880534 
C 233.131782 105.053499 224.7382 95.828314 214.506075 89.029299 
L 173.268724 151.089139 
z
" style="fill: #ffffff"/>
   </g>
   <g id="patch_23">
    <path d="M 214.506075 89.029299 
C 212.808999 87.901631 211.066381 86.844049 209.282616 85.85922 
C 207.498852 84.874391 205.675441 83.963144 203.816983 83.127777 
L 173.268724 151.089139 
z
" style="fill: #ffffff"/>
   </g>
   <g id="patch_24">
    <path d="M 203.816983 83.127777 
C 203.073687 82.79367 202.32496 82.471779 201.571104 82.162235 
C 200.817248 81.852691 200.058365 81.555535 199.29476 81.270888 
L 173.268724 151.089139 
z
" style="fill: #ffffff"/>
   </g>
   <g id="patch_25">
    <path d="M 199.29476 81.270888 
C 197.767448 80.701554 196.221866 80.18249 194.660508 79.714533 
C 193.09915 79.246576 191.522857 78.829979 189.934173 78.465413 
L 173.268724 151.089139 
z
" style="fill: #ffffff"/>
   </g>
   <g id="patch_26">
    <path d="M 189.934173 78.465413 
C 188.544105 78.146425 187.145164 77.867413 185.739081 77.628721 
C 184.332997 77.39003 182.920351 77.191758 181.502887 77.03415 
L 173.268724 151.089139 
z
" style="fill: #ffffff"/>
   </g>
   <g id="patch_27">
    <path d="M 181.502887 77.03415 
C 174.403907 76.244816 167.228169 76.480339 160.196228 77.733481 
C 153.164286 78.986622 146.348931 81.244411 139.959638 84.437451 
L 173.268724 151.089139 
z
" style="fill: #ffffff"/>
   </g>
   <g id="patch_28">
    <path d="M 139.959638 84.437451 
C 138.319302 85.257207 136.709787 86.137237 135.13438 87.075745 
C 133.558974 88.014253 132.018751 89.010599 130.516857 90.062747 
L 173.268724 151.089139 
z
" style="fill: #ffffff"/>
   </g>
   <g id="patch_29">
    <path d="M 130.516857 90.062747 
C 129.348769 90.881047 128.204416 91.732716 127.085213 92.6167 
C 125.96601 93.500685 124.872418 94.416621 123.805788 95.363376 
L 173.268724 151.089139 
z
" style="fill: #ffffff"/>
   </g>
   <g id="patch_30">
    <path d="M 123.805788 95.363376 
C 123.501056 95.63386 123.198547 95.90684 122.898293 96.182286 
C 122.598039 96.457733 122.30005 96.735639 122.004355 97.015974 
L 173.268724 151.089139 
z
" style="fill: #ffffff"/>
   </g>
   <g id="patch_31">
    <path d="M 122.004355 97.015974 
C 111.735349 106.751563 104.449057 119.213907 101.001993 132.938044 
C 97.554928 146.662181 98.087667 161.088416 102.537586 174.520929 
L 173.268724 151.089139 
z
" style="fill: #ffffff"/>
   </g>
   <g id="patch_32">
    <path d="M 102.537586 174.520929 
C 102.79386 175.294518 103.062808 176.06385 103.344322 176.828616 
C 103.625835 177.593381 103.919876 178.353477 104.226326 179.108596 
L 173.268724 151.089139 
z
" style="fill: #ffffff"/>
   </g>
   <g id="patch_33">
    <path d="M 104.226326 179.108596 
C 104.839267 180.618936 105.501602 182.108756 106.212262 183.575653 
C 106.922922 185.042549 107.681524 186.485732 108.486845 187.90287 
L 173.268724 151.089139 
z
" style="fill: #ffffff"/>
   </g>
   <g id="patch_34">
    <path d="M 108.486845 187.90287 
C 111.308306 192.867854 114.691224 197.492058 118.568919 201.684337 
C 122.446614 205.876615 126.79344 209.609241 131.523719 212.808644 
L 173.268724 151.089139 
z
" style="fill: #ffffff"/>
   </g>
   <g id="patch_35">
    <path d="M 131.523719 212.808644 
C 134.055816 214.52127 136.690909 216.076452 139.414053 217.46537 
C 142.137197 218.854288 144.943234 220.074311 147.816252 221.118522 
L 173.268724 151.089139 
z
" style="fill: #ffffff"/>
   </g>
   <g id="patch_36">
    <path d="M 147.816252 221.118522 
C 152.415338 222.790079 157.167926 224.00452 162.005127 224.744242 
C 166.842328 225.483963 171.740656 225.745374 176.629112 225.524685 
L 173.268724 151.089139 
z
" style="fill: #ffffff"/>
   </g>
   <g id="patch_37">
    <path d="M 176.629112 225.524685 
C 182.742448 225.248699 188.798567 224.220636 194.660511 222.463744 
C 200.522454 220.706853 206.145697 218.234478 211.403069 215.102532 
L 173.268724 151.089139 
z
" style="fill: #ffffff"/>
   </g>
   <g id="patch_38">
    <path d="M 211.403069 215.102532 
C 214.379704 213.329278 217.229031 211.350561 219.930303 209.180789 
C 222.631575 207.011018 225.178218 204.655472 227.551688 202.131304 
L 173.268724 151.089139 
z
" style="fill: #ffffff"/>
   </g>
   <g id="patch_39">
    <path d="M 227.551688 202.131304 
C 231.323637 198.119865 234.63933 193.702644 237.437982 188.960621 
C 240.236635 184.218597 242.50104 179.180927 244.189685 173.939961 
L 173.268724 151.089139 
z
" style="fill: #ffffff"/>
   </g>
   <g id="patch_40">
    <path d="M 244.189685 173.939961 
C 244.814559 172.000571 245.359619 170.036364 245.82349 168.052296 
C 246.287362 166.068228 246.669654 164.065966 246.969403 162.050562 
L 173.268724 151.089139 
z
" style="fill: #ffffff"/>
   </g>
   <g id="patch_41">
    <path d="M 246.969403 162.050562 
C 247.23917 160.236746 247.441886 158.41359 247.577138 156.584818 
C 247.712389 154.756045 247.780084 152.922903 247.780084 151.089136 
L 173.268724 151.089139 
z
" style="fill: #ffffff"/>
   </g>
   <g id="matplotlib.axis_1"/>
   <g id="matplotlib.axis_2"/>
   <g id="text_1">
    <!-- A [60] -->
    <g transform="translate(297.569021 87.203655) scale(0.1 -0.1)">
     <defs>
      <path id="DejaVuSans-41" d="M 2188 4044 
L 1331 1722 
L 3047 1722 
L 2188 4044 
z
M 1831 4666 
L 2547 4666 
L 4325 0 
L 3669 0 
L 3244 1197 
L 1141 1197 
L 716 0 
L 50 0 
L 1831 4666 
z
" transform="scale(0.015625)"/>
      <path id="DejaVuSans-20" transform="scale(0.015625)"/>
      <path id="DejaVuSans-5b" d="M 550 4863 
L 1875 4863 
L 1875 4416 
L 1125 4416 
L 1125 -397 
L 1875 -397 
L 1875 -844 
L 550 -844 
L 550 4863 
z
" transform="scale(0.015625)"/>
      <path id="DejaVuSans-36" d="M 2113 2584 
Q 1688 2584 1439 2293 
Q 1191 2003 1191 1497 
Q 1191 994 1439 701 
Q 1688 409 2113 409 
Q 2538 409 2786 701 
Q 3034 994 3034 1497 
Q 3034 2003 2786 2293 
Q 2538 2584 2113 2584 
z
M 3366 4563 
L 3366 3988 
Q 3128 4100 2886 4159 
Q 2644 4219 2406 4219 
Q 1781 4219 1451 3797 
Q 1122 3375 1075 2522 
Q 1259 2794 1537 2939 
Q 1816 3084 2150 3084 
Q 2853 3084 3261 2657 
Q 3669 2231 3669 1497 
Q 3669 778 3244 343 
Q 2819 -91 2113 -91 
Q 1303 -91 875 529 
Q 447 1150 447 2328 
Q 447 3434 972 4092 
Q 1497 4750 2381 4750 
Q 2619 4750 2861 4703 
Q 3103 4656 3366 4563 
z
" transform="scale(0.015625)"/>
      <path id="DejaVuSans-30" d="M 2034 4250 
Q 1547 4250 1301 3770 
Q 1056 3291 1056 2328 
Q 1056 1369 1301 889 
Q 1547 409 2034 409 
Q 2525 409 2770 889 
Q 3016 1369 3016 2328 
Q 3016 3291 2770 3770 
Q 2525 4250 2034 4250 
z
M 2034 4750 
Q 2819 4750 3233 4129 
Q 3647 3509 3647 2328 
Q 3647 1150 3233 529 
Q 2819 -91 2034 -91 
Q 1250 -91 836 529 
Q 422 1150 422 2328 
Q 422 3509 836 4129 
Q 1250 4750 2034 4750 
z
" transform="scale(0.015625)"/>
      <path id="DejaVuSans-5d" d="M 1947 4863 
L 1947 -844 
L 622 -844 
L 622 -397 
L 1369 -397 
L 1369 4416 
L 622 4416 
L 622 4863 
L 1947 4863 
z
" transform="scale(0.015625)"/>
     </defs>
     <use xlink:href="#DejaVuSans-41"/>
     <use xlink:href="#DejaVuSans-20" x="68.408203"/>
     <use xlink:href="#DejaVuSans-5b" x="100.195312"/>
     <use xlink:href="#DejaVuSans-36" x="139.208984"/>
     <use xlink:href="#DejaVuSans-30" x="202.832031"/>
     <use xlink:href="#DejaVuSans-5d" x="266.455078"/>
    </g>
   </g>
   <g id="text_2">
    <!-- C [10] -->
    <g transform="translate(241.437877 30.377596) scale(0.1 -0.1)">
     <defs>
      <path id="DejaVuSans-43" d="M 4122 4306 
L 4122 3641 
Q 3803 3938 3442 4084 
Q 3081 4231 2675 4231 
Q 1875 4231 1450 3742 
Q 1025 3253 1025 2328 
Q 1025 1406 1450 917 
Q 1875 428 2675 428 
Q 3081 428 3442 575 
Q 3803 722 4122 1019 
L 4122 359 
Q 3791 134 3420 21 
Q 3050 -91 2638 -91 
Q 1578 -91 968 557 
Q 359 1206 359 2328 
Q 359 3453 968 4101 
Q 1578 4750 2638 4750 
Q 3056 4750 3426 4639 
Q 3797 4528 4122 4306 
z
" transform="scale(0.015625)"/>
      <path id="DejaVuSans-31" d="M 794 531 
L 1825 531 
L 1825 4091 
L 703 3866 
L 703 4441 
L 1819 4666 
L 2450 4666 
L 2450 531 
L 3481 531 
L 3481 0 
L 794 0 
L 794 531 
z
" transform="scale(0.015625)"/>
     </defs>
     <use xlink:href="#DejaVuSans-43"/>
     <use xlink:href="#DejaVuSans-20" x="69.824219"/>
     <use xlink:href="#DejaVuSans-5b" x="101.611328"/>
     <use xlink:href="#DejaVuSans-31" x="140.625"/>
     <use xlink:href="#DejaVuSans-30" x="204.248047"/>
     <use xlink:href="#DejaVuSans-5d" x="267.871094"/>
    </g>
   </g>
   <g id="text_3">
    <!-- D [4] -->
    <g transform="translate(226.841086 23.379732) scale(0.1 -0.1)">
     <defs>
      <path id="DejaVuSans-44" d="M 1259 4147 
L 1259 519 
L 2022 519 
Q 2988 519 3436 956 
Q 3884 1394 3884 2338 
Q 3884 3275 3436 3711 
Q 2988 4147 2022 4147 
L 1259 4147 
z
M 628 4666 
L 1925 4666 
Q 3281 4666 3915 4102 
Q 4550 3538 4550 2338 
Q 4550 1131 3912 565 
Q 3275 0 1925 0 
L 628 0 
L 628 4666 
z
" transform="scale(0.015625)"/>
      <path id="DejaVuSans-34" d="M 2419 4116 
L 825 1625 
L 2419 1625 
L 2419 4116 
z
M 2253 4666 
L 3047 4666 
L 3047 1625 
L 3713 1625 
L 3713 1100 
L 3047 1100 
L 3047 0 
L 2419 0 
L 2419 1100 
L 313 1100 
L 313 1709 
L 2253 4666 
z
" transform="scale(0.015625)"/>
     </defs>
     <use xlink:href="#DejaVuSans-44"/>
     <use xlink:href="#DejaVuSans-20" x="77.001953"/>
     <use xlink:href="#DejaVuSans-5b" x="108.789062"/>
     <use xlink:href="#DejaVuSans-34" x="147.802734"/>
     <use xlink:href="#DejaVuSans-5d" x="211.425781"/>
    </g>
   </g>
   <g id="text_4">
    <!-- E [8] -->
    <g transform="translate(213.760314 18.746581) scale(0.1 -0.1)">
     <defs>
      <path id="DejaVuSans-45" d="M 628 4666 
L 3578 4666 
L 3578 4134 
L 1259 4134 
L 1259 2753 
L 3481 2753 
L 3481 2222 
L 1259 2222 
L 1259 531 
L 3634 531 
L 3634 0 
L 628 0 
L 628 4666 
z
" transform="scale(0.015625)"/>
      <path id="DejaVuSans-38" d="M 2034 2216 
Q 1584 2216 1326 1975 
Q 1069 1734 1069 1313 
Q 1069 891 1326 650 
Q 1584 409 2034 409 
Q 2484 409 2743 651 
Q 3003 894 3003 1313 
Q 3003 1734 2745 1975 
Q 2488 2216 2034 2216 
z
M 1403 2484 
Q 997 2584 770 2862 
Q 544 3141 544 3541 
Q 544 4100 942 4425 
Q 1341 4750 2034 4750 
Q 2731 4750 3128 4425 
Q 3525 4100 3525 3541 
Q 3525 3141 3298 2862 
Q 3072 2584 2669 2484 
Q 3125 2378 3379 2068 
Q 3634 1759 3634 1313 
Q 3634 634 3220 271 
Q 2806 -91 2034 -91 
Q 1263 -91 848 271 
Q 434 634 434 1313 
Q 434 1759 690 2068 
Q 947 2378 1403 2484 
z
M 1172 3481 
Q 1172 3119 1398 2916 
Q 1625 2713 2034 2713 
Q 2441 2713 2670 2916 
Q 2900 3119 2900 3481 
Q 2900 3844 2670 4047 
Q 2441 4250 2034 4250 
Q 1625 4250 1398 4047 
Q 1172 3844 1172 3481 
z
" transform="scale(0.015625)"/>
     </defs>
     <use xlink:href="#DejaVuSans-45"/>
     <use xlink:href="#DejaVuSans-20" x="63.183594"/>
     <use xlink:href="#DejaVuSans-5b" x="94.970703"/>
     <use xlink:href="#DejaVuSans-38" x="133.984375"/>
     <use xlink:href="#DejaVuSans-5d" x="197.607422"/>
    </g>
   </g>
   <g id="text_5">
    <!-- F [7] -->
    <g transform="translate(196.873328 14.798437) scale(0.1 -0.1)">
     <defs>
      <path id="DejaVuSans-46" d="M 628 4666 
L 3309 4666 
L 3309 4134 
L 1259 4134 
L 1259 2759 
L 3109 2759 
L 3109 2228 
L 1259 2228 
L 1259 0 
L 628 0 
L 628 4666 
z
" transform="scale(0.015625)"/>
      <path id="DejaVuSans-37" d="M 525 4666 
L 3525 4666 
L 3525 4397 
L 1831 0 
L 1172 0 
L 2766 4134 
L 525 4134 
L 525 4666 
z
" transform="scale(0.015625)"/>
     </defs>
     <use xlink:href="#DejaVuSans-46"/>
     <use xlink:href="#DejaVuSans-20" x="57.519531"/>
     <use xlink:href="#DejaVuSans-5b" x="89.306641"/>
     <use xlink:href="#DejaVuSans-37" x="128.320312"/>
     <use xlink:href="#DejaVuSans-5d" x="191.943359"/>
    </g>
   </g>
   <g id="text_6">
    <!-- G [35] -->
    <g transform="translate(117.069668 14.996732) scale(0.1 -0.1)">
     <defs>
      <path id="DejaVuSans-47" d="M 3809 666 
L 3809 1919 
L 2778 1919 
L 2778 2438 
L 4434 2438 
L 4434 434 
Q 4069 175 3628 42 
Q 3188 -91 2688 -91 
Q 1594 -91 976 548 
Q 359 1188 359 2328 
Q 359 3472 976 4111 
Q 1594 4750 2688 4750 
Q 3144 4750 3555 4637 
Q 3966 4525 4313 4306 
L 4313 3634 
Q 3963 3931 3569 4081 
Q 3175 4231 2741 4231 
Q 1884 4231 1454 3753 
Q 1025 3275 1025 2328 
Q 1025 1384 1454 906 
Q 1884 428 2741 428 
Q 3075 428 3337 486 
Q 3600 544 3809 666 
z
" transform="scale(0.015625)"/>
      <path id="DejaVuSans-33" d="M 2597 2516 
Q 3050 2419 3304 2112 
Q 3559 1806 3559 1356 
Q 3559 666 3084 287 
Q 2609 -91 1734 -91 
Q 1441 -91 1130 -33 
Q 819 25 488 141 
L 488 750 
Q 750 597 1062 519 
Q 1375 441 1716 441 
Q 2309 441 2620 675 
Q 2931 909 2931 1356 
Q 2931 1769 2642 2001 
Q 2353 2234 1838 2234 
L 1294 2234 
L 1294 2753 
L 1863 2753 
Q 2328 2753 2575 2939 
Q 2822 3125 2822 3475 
Q 2822 3834 2567 4026 
Q 2313 4219 1838 4219 
Q 1578 4219 1281 4162 
Q 984 4106 628 3988 
L 628 4550 
Q 988 4650 1302 4700 
Q 1616 4750 1894 4750 
Q 2613 4750 3031 4423 
Q 3450 4097 3450 3541 
Q 3450 3153 3228 2886 
Q 3006 2619 2597 2516 
z
" transform="scale(0.015625)"/>
      <path id="DejaVuSans-35" d="M 691 4666 
L 3169 4666 
L 3169 4134 
L 1269 4134 
L 1269 2991 
Q 1406 3038 1543 3061 
Q 1681 3084 1819 3084 
Q 2600 3084 3056 2656 
Q 3513 2228 3513 1497 
Q 3513 744 3044 326 
Q 2575 -91 1722 -91 
Q 1428 -91 1123 -41 
Q 819 9 494 109 
L 494 744 
Q 775 591 1075 516 
Q 1375 441 1709 441 
Q 2250 441 2565 725 
Q 2881 1009 2881 1497 
Q 2881 1984 2565 2268 
Q 2250 2553 1709 2553 
Q 1456 2553 1204 2497 
Q 953 2441 691 2322 
L 691 4666 
z
" transform="scale(0.015625)"/>
     </defs>
     <use xlink:href="#DejaVuSans-47"/>
     <use xlink:href="#DejaVuSans-20" x="77.490234"/>
     <use xlink:href="#DejaVuSans-5b" x="109.277344"/>
     <use xlink:href="#DejaVuSans-33" x="148.291016"/>
     <use xlink:href="#DejaVuSans-35" x="211.914062"/>
     <use xlink:href="#DejaVuSans-5d" x="275.537109"/>
    </g>
   </g>
   <g id="text_7">
    <!-- H [9] -->
    <g transform="translate(76.221797 32.680304) scale(0.1 -0.1)">
     <defs>
      <path id="DejaVuSans-48" d="M 628 4666 
L 1259 4666 
L 1259 2753 
L 3553 2753 
L 3553 4666 
L 4184 4666 
L 4184 0 
L 3553 0 
L 3553 2222 
L 1259 2222 
L 1259 0 
L 628 0 
L 628 4666 
z
" transform="scale(0.015625)"/>
      <path id="DejaVuSans-39" d="M 703 97 
L 703 672 
Q 941 559 1184 500 
Q 1428 441 1663 441 
Q 2288 441 2617 861 
Q 2947 1281 2994 2138 
Q 2813 1869 2534 1725 
Q 2256 1581 1919 1581 
Q 1219 1581 811 2004 
Q 403 2428 403 3163 
Q 403 3881 828 4315 
Q 1253 4750 1959 4750 
Q 2769 4750 3195 4129 
Q 3622 3509 3622 2328 
Q 3622 1225 3098 567 
Q 2575 -91 1691 -91 
Q 1453 -91 1209 -44 
Q 966 3 703 97 
z
M 1959 2075 
Q 2384 2075 2632 2365 
Q 2881 2656 2881 3163 
Q 2881 3666 2632 3958 
Q 2384 4250 1959 4250 
Q 1534 4250 1286 3958 
Q 1038 3666 1038 3163 
Q 1038 2656 1286 2365 
Q 1534 2075 1959 2075 
z
" transform="scale(0.015625)"/>
     </defs>
     <use xlink:href="#DejaVuSans-48"/>
     <use xlink:href="#DejaVuSans-20" x="75.195312"/>
     <use xlink:href="#DejaVuSans-5b" x="106.982422"/>
     <use xlink:href="#DejaVuSans-39" x="145.996094"/>
     <use xlink:href="#DejaVuSans-5d" x="209.619141"/>
    </g>
   </g>
   <g id="text_8">
    <!-- I [7] -->
    <g transform="translate(65.556186 43.168541) scale(0.1 -0.1)">
     <defs>
      <path id="DejaVuSans-49" d="M 628 4666 
L 1259 4666 
L 1259 0 
L 628 0 
L 628 4666 
z
" transform="scale(0.015625)"/>
     </defs>
     <use xlink:href="#DejaVuSans-49"/>
     <use xlink:href="#DejaVuSans-20" x="29.492188"/>
     <use xlink:href="#DejaVuSans-5b" x="61.279297"/>
     <use xlink:href="#DejaVuSans-37" x="100.292969"/>
     <use xlink:href="#DejaVuSans-5d" x="163.916016"/>
    </g>
   </g>
   <g id="text_9">
    <!-- K [2] -->
    <g transform="translate(54.023132 49.917686) scale(0.1 -0.1)">
     <defs>
      <path id="DejaVuSans-4b" d="M 628 4666 
L 1259 4666 
L 1259 2694 
L 3353 4666 
L 4166 4666 
L 1850 2491 
L 4331 0 
L 3500 0 
L 1259 2247 
L 1259 0 
L 628 0 
L 628 4666 
z
" transform="scale(0.015625)"/>
      <path id="DejaVuSans-32" d="M 1228 531 
L 3431 531 
L 3431 0 
L 469 0 
L 469 531 
Q 828 903 1448 1529 
Q 2069 2156 2228 2338 
Q 2531 2678 2651 2914 
Q 2772 3150 2772 3378 
Q 2772 3750 2511 3984 
Q 2250 4219 1831 4219 
Q 1534 4219 1204 4116 
Q 875 4013 500 3803 
L 500 4441 
Q 881 4594 1212 4672 
Q 1544 4750 1819 4750 
Q 2544 4750 2975 4387 
Q 3406 4025 3406 3419 
Q 3406 3131 3298 2873 
Q 3191 2616 2906 2266 
Q 2828 2175 2409 1742 
Q 1991 1309 1228 531 
z
" transform="scale(0.015625)"/>
     </defs>
     <use xlink:href="#DejaVuSans-4b"/>
     <use xlink:href="#DejaVuSans-20" x="65.576172"/>
     <use xlink:href="#DejaVuSans-5b" x="97.363281"/>
     <use xlink:href="#DejaVuSans-32" x="136.376953"/>
     <use xlink:href="#DejaVuSans-5d" x="200"/>
    </g>
   </g>
   <g id="text_10">
    <!-- L [69] -->
    <g transform="translate(7.2 119.491084) scale(0.1 -0.1)">
     <defs>
      <path id="DejaVuSans-4c" d="M 628 4666 
L 1259 4666 
L 1259 531 
L 3531 531 
L 3531 0 
L 628 0 
L 628 4666 
z
" transform="scale(0.015625)"/>
     </defs>
     <use xlink:href="#DejaVuSans-4c"/>
     <use xlink:href="#DejaVuSans-20" x="55.712891"/>
     <use xlink:href="#DejaVuSans-5b" x="87.5"/>
     <use xlink:href="#DejaVuSans-36" x="126.513672"/>
     <use xlink:href="#DejaVuSans-39" x="190.136719"/>
     <use xlink:href="#DejaVuSans-5d" x="253.759766"/>
    </g>
   </g>
   <g id="text_11">
    <!-- M [4] -->
    <g transform="translate(14.939944 202.569666) scale(0.1 -0.1)">
     <defs>
      <path id="DejaVuSans-4d" d="M 628 4666 
L 1569 4666 
L 2759 1491 
L 3956 4666 
L 4897 4666 
L 4897 0 
L 4281 0 
L 4281 4097 
L 3078 897 
L 2444 897 
L 1241 4097 
L 1241 0 
L 628 0 
L 628 4666 
z
" transform="scale(0.015625)"/>
     </defs>
     <use xlink:href="#DejaVuSans-4d"/>
     <use xlink:href="#DejaVuSans-20" x="86.279297"/>
     <use xlink:href="#DejaVuSans-5b" x="118.066406"/>
     <use xlink:href="#DejaVuSans-34" x="157.080078"/>
     <use xlink:href="#DejaVuSans-5d" x="220.703125"/>
    </g>
   </g>
   <g id="text_12">
    <!-- N [8] -->
    <g transform="translate(21.51542 215.340844) scale(0.1 -0.1)">
     <defs>
      <path id="DejaVuSans-4e" d="M 628 4666 
L 1478 4666 
L 3547 763 
L 3547 4666 
L 4159 4666 
L 4159 0 
L 3309 0 
L 1241 3903 
L 1241 0 
L 628 0 
L 628 4666 
z
" transform="scale(0.015625)"/>
     </defs>
     <use xlink:href="#DejaVuSans-4e"/>
     <use xlink:href="#DejaVuSans-20" x="74.804688"/>
     <use xlink:href="#DejaVuSans-5b" x="106.591797"/>
     <use xlink:href="#DejaVuSans-38" x="145.605469"/>
     <use xlink:href="#DejaVuSans-5d" x="209.228516"/>
    </g>
   </g>
   <g id="text_13">
    <!-- P [28] -->
    <g transform="translate(39.993869 249.617995) scale(0.1 -0.1)">
     <defs>
      <path id="DejaVuSans-50" d="M 1259 4147 
L 1259 2394 
L 2053 2394 
Q 2494 2394 2734 2622 
Q 2975 2850 2975 3272 
Q 2975 3691 2734 3919 
Q 2494 4147 2053 4147 
L 1259 4147 
z
M 628 4666 
L 2053 4666 
Q 2838 4666 3239 4311 
Q 3641 3956 3641 3272 
Q 3641 2581 3239 2228 
Q 2838 1875 2053 1875 
L 1259 1875 
L 1259 0 
L 628 0 
L 628 4666 
z
" transform="scale(0.015625)"/>
     </defs>
     <use xlink:href="#DejaVuSans-50"/>
     <use xlink:href="#DejaVuSans-20" x="60.302734"/>
     <use xlink:href="#DejaVuSans-5b" x="92.089844"/>
     <use xlink:href="#DejaVuSans-32" x="131.103516"/>
     <use xlink:href="#DejaVuSans-38" x="194.726562"/>
     <use xlink:href="#DejaVuSans-5d" x="258.349609"/>
    </g>
   </g>
   <g id="text_14">
    <!-- Q [15] -->
    <g transform="translate(77.608542 279.489236) scale(0.1 -0.1)">
     <defs>
      <path id="DejaVuSans-51" d="M 2522 4238 
Q 1834 4238 1429 3725 
Q 1025 3213 1025 2328 
Q 1025 1447 1429 934 
Q 1834 422 2522 422 
Q 3209 422 3611 934 
Q 4013 1447 4013 2328 
Q 4013 3213 3611 3725 
Q 3209 4238 2522 4238 
z
M 3406 84 
L 4238 -825 
L 3475 -825 
L 2784 -78 
Q 2681 -84 2626 -87 
Q 2572 -91 2522 -91 
Q 1538 -91 948 567 
Q 359 1225 359 2328 
Q 359 3434 948 4092 
Q 1538 4750 2522 4750 
Q 3503 4750 4090 4092 
Q 4678 3434 4678 2328 
Q 4678 1516 4351 937 
Q 4025 359 3406 84 
z
" transform="scale(0.015625)"/>
     </defs>
     <use xlink:href="#DejaVuSans-51"/>
     <use xlink:href="#DejaVuSans-20" x="78.710938"/>
     <use xlink:href="#DejaVuSans-5b" x="110.498047"/>
     <use xlink:href="#DejaVuSans-31" x="149.511719"/>
     <use xlink:href="#DejaVuSans-35" x="213.134766"/>
     <use xlink:href="#DejaVuSans-5d" x="276.757812"/>
    </g>
   </g>
   <g id="text_15">
    <!-- R [24] -->
    <g transform="translate(121.293656 293.267101) scale(0.1 -0.1)">
     <defs>
      <path id="DejaVuSans-52" d="M 2841 2188 
Q 3044 2119 3236 1894 
Q 3428 1669 3622 1275 
L 4263 0 
L 3584 0 
L 2988 1197 
Q 2756 1666 2539 1819 
Q 2322 1972 1947 1972 
L 1259 1972 
L 1259 0 
L 628 0 
L 628 4666 
L 2053 4666 
Q 2853 4666 3247 4331 
Q 3641 3997 3641 3322 
Q 3641 2881 3436 2590 
Q 3231 2300 2841 2188 
z
M 1259 4147 
L 1259 2491 
L 2053 2491 
Q 2509 2491 2742 2702 
Q 2975 2913 2975 3322 
Q 2975 3731 2742 3939 
Q 2509 4147 2053 4147 
L 1259 4147 
z
" transform="scale(0.015625)"/>
     </defs>
     <use xlink:href="#DejaVuSans-52"/>
     <use xlink:href="#DejaVuSans-20" x="69.482422"/>
     <use xlink:href="#DejaVuSans-5b" x="101.269531"/>
     <use xlink:href="#DejaVuSans-32" x="140.283203"/>
     <use xlink:href="#DejaVuSans-34" x="203.90625"/>
     <use xlink:href="#DejaVuSans-5d" x="267.529297"/>
    </g>
   </g>
   <g id="text_16">
    <!-- S [30] -->
    <g transform="translate(213.76032 288.950445) scale(0.1 -0.1)">
     <defs>
      <path id="DejaVuSans-53" d="M 3425 4513 
L 3425 3897 
Q 3066 4069 2747 4153 
Q 2428 4238 2131 4238 
Q 1616 4238 1336 4038 
Q 1056 3838 1056 3469 
Q 1056 3159 1242 3001 
Q 1428 2844 1947 2747 
L 2328 2669 
Q 3034 2534 3370 2195 
Q 3706 1856 3706 1288 
Q 3706 609 3251 259 
Q 2797 -91 1919 -91 
Q 1588 -91 1214 -16 
Q 841 59 441 206 
L 441 856 
Q 825 641 1194 531 
Q 1563 422 1919 422 
Q 2459 422 2753 634 
Q 3047 847 3047 1241 
Q 3047 1584 2836 1778 
Q 2625 1972 2144 2069 
L 1759 2144 
Q 1053 2284 737 2584 
Q 422 2884 422 3419 
Q 422 4038 858 4394 
Q 1294 4750 2059 4750 
Q 2388 4750 2728 4690 
Q 3069 4631 3425 4513 
z
" transform="scale(0.015625)"/>
     </defs>
     <use xlink:href="#DejaVuSans-53"/>
     <use xlink:href="#DejaVuSans-20" x="63.476562"/>
     <use xlink:href="#DejaVuSans-5b" x="95.263672"/>
     <use xlink:href="#DejaVuSans-33" x="134.277344"/>
     <use xlink:href="#DejaVuSans-30" x="197.900391"/>
     <use xlink:href="#DejaVuSans-5d" x="261.523438"/>
    </g>
   </g>
   <g id="text_17">
    <!-- T [17] -->
    <g transform="translate(261.592427 263.807709) scale(0.1 -0.1)">
     <defs>
      <path id="DejaVuSans-54" d="M -19 4666 
L 3928 4666 
L 3928 4134 
L 2272 4134 
L 2272 0 
L 1638 0 
L 1638 4134 
L -19 4134 
L -19 4666 
z
" transform="scale(0.015625)"/>
     </defs>
     <use xlink:href="#DejaVuSans-54"/>
     <use xlink:href="#DejaVuSans-20" x="61.083984"/>
     <use xlink:href="#DejaVuSans-5b" x="92.871094"/>
     <use xlink:href="#DejaVuSans-31" x="131.884766"/>
     <use xlink:href="#DejaVuSans-37" x="195.507812"/>
     <use xlink:href="#DejaVuSans-5d" x="259.130859"/>
    </g>
   </g>
   <g id="text_18">
    <!-- V [27] -->
    <g transform="translate(294.731962 225.533819) scale(0.1 -0.1)">
     <defs>
      <path id="DejaVuSans-56" d="M 1831 0 
L 50 4666 
L 709 4666 
L 2188 738 
L 3669 4666 
L 4325 4666 
L 2547 0 
L 1831 0 
z
" transform="scale(0.015625)"/>
     </defs>
     <use xlink:href="#DejaVuSans-56"/>
     <use xlink:href="#DejaVuSans-20" x="68.408203"/>
     <use xlink:href="#DejaVuSans-5b" x="100.195312"/>
     <use xlink:href="#DejaVuSans-32" x="139.208984"/>
     <use xlink:href="#DejaVuSans-37" x="202.832031"/>
     <use xlink:href="#DejaVuSans-5d" x="266.455078"/>
    </g>
   </g>
   <g id="text_19">
    <!-- W [10] -->
    <g transform="translate(310.604532 185.957347) scale(0.1 -0.1)">
     <defs>
      <path id="DejaVuSans-57" d="M 213 4666 
L 850 4666 
L 1831 722 
L 2809 4666 
L 3519 4666 
L 4500 722 
L 5478 4666 
L 6119 4666 
L 4947 0 
L 4153 0 
L 3169 4050 
L 2175 0 
L 1381 0 
L 213 4666 
z
" transform="scale(0.015625)"/>
     </defs>
     <use xlink:href="#DejaVuSans-57"/>
     <use xlink:href="#DejaVuSans-20" x="98.876953"/>
     <use xlink:href="#DejaVuSans-5b" x="130.664062"/>
     <use xlink:href="#DejaVuSans-31" x="169.677734"/>
     <use xlink:href="#DejaVuSans-30" x="233.300781"/>
     <use xlink:href="#DejaVuSans-5d" x="296.923828"/>
    </g>
   </g>
   <g id="text_20">
    <!-- Y [9] -->
    <g transform="translate(313.923935 164.251049) scale(0.1 -0.1)">
     <defs>
      <path id="DejaVuSans-59" d="M -13 4666 
L 666 4666 
L 1959 2747 
L 3244 4666 
L 3922 4666 
L 2272 2222 
L 2272 0 
L 1638 0 
L 1638 2222 
L -13 4666 
z
" transform="scale(0.015625)"/>
     </defs>
     <use xlink:href="#DejaVuSans-59"/>
     <use xlink:href="#DejaVuSans-20" x="61.083984"/>
     <use xlink:href="#DejaVuSans-5b" x="92.871094"/>
     <use xlink:href="#DejaVuSans-39" x="131.884766"/>
     <use xlink:href="#DejaVuSans-5d" x="195.507812"/>
    </g>
   </g>
   <g id="text_21">
    <!-- E1BHN7 [383] -->
    <g transform="translate(130.683724 151.089139) scale(0.12 -0.12)">
     <defs>
      <path id="DejaVuSans-42" d="M 1259 2228 
L 1259 519 
L 2272 519 
Q 2781 519 3026 730 
Q 3272 941 3272 1375 
Q 3272 1813 3026 2020 
Q 2781 2228 2272 2228 
L 1259 2228 
z
M 1259 4147 
L 1259 2741 
L 2194 2741 
Q 2656 2741 2882 2914 
Q 3109 3088 3109 3444 
Q 3109 3797 2882 3972 
Q 2656 4147 2194 4147 
L 1259 4147 
z
M 628 4666 
L 2241 4666 
Q 2963 4666 3353 4366 
Q 3744 4066 3744 3513 
Q 3744 3084 3544 2831 
Q 3344 2578 2956 2516 
Q 3422 2416 3680 2098 
Q 3938 1781 3938 1306 
Q 3938 681 3513 340 
Q 3088 0 2303 0 
L 628 0 
L 628 4666 
z
" transform="scale(0.015625)"/>
     </defs>
     <use xlink:href="#DejaVuSans-45"/>
     <use xlink:href="#DejaVuSans-31" x="63.183594"/>
     <use xlink:href="#DejaVuSans-42" x="126.806641"/>
     <use xlink:href="#DejaVuSans-48" x="195.410156"/>
     <use xlink:href="#DejaVuSans-4e" x="270.605469"/>
     <use xlink:href="#DejaVuSans-37" x="345.410156"/>
     <use xlink:href="#DejaVuSans-20" x="409.033203"/>
     <use xlink:href="#DejaVuSans-5b" x="440.820312"/>
     <use xlink:href="#DejaVuSans-33" x="479.833984"/>
     <use xlink:href="#DejaVuSans-38" x="543.457031"/>
     <use xlink:href="#DejaVuSans-33" x="607.080078"/>
     <use xlink:href="#DejaVuSans-5d" x="670.703125"/>
    </g>
   </g>
  </g>
 </g>
</svg>
