<?xml version="1.0" encoding="utf-8" standalone="no"?>
<!DOCTYPE svg PUBLIC "-//W3C//DTD SVG 1.1//EN"
  "http://www.w3.org/Graphics/SVG/1.1/DTD/svg11.dtd">
<svg xmlns:xlink="http://www.w3.org/1999/xlink" width="351.778784pt" height="305.067795pt" viewBox="0 0 351.778784 305.067795" xmlns="http://www.w3.org/2000/svg" version="1.1">
 <metadata>
  <rdf:RDF xmlns:dc="http://purl.org/dc/elements/1.1/" xmlns:cc="http://creativecommons.org/ns#" xmlns:rdf="http://www.w3.org/1999/02/22-rdf-syntax-ns#">
   <cc:Work>
    <dc:type rdf:resource="http://purl.org/dc/dcmitype/StillImage"/>
    <dc:date>2024-09-27T16:07:15.664939</dc:date>
    <dc:format>image/svg+xml</dc:format>
    <dc:creator>
     <cc:Agent>
      <dc:title>Matplotlib v3.8.3, https://matplotlib.org/</dc:title>
     </cc:Agent>
    </dc:creator>
   </cc:Work>
  </rdf:RDF>
 </metadata>
 <defs>
  <style type="text/css">*{stroke-linejoin: round; stroke-linecap: butt}</style>
 </defs>
 <g id="figure_1">
  <g id="patch_1">
   <path d="M 0 305.067795 
L 351.778784 305.067795 
L 351.778784 0 
L 0 0 
z
" style="fill: #ffffff"/>
  </g>
  <g id="axes_1">
   <g id="patch_2">
    <path d="M 302.713424 152.398376 
C 302.713424 146.100806 302.247697 139.811849 301.320054 133.582975 
C 300.392412 127.354102 299.005391 121.20235 297.170343 115.178067 
L 174.979664 152.398376 
z
" style="fill: #1f77b4"/>
   </g>
   <g id="patch_3">
    <path d="M 297.145347 115.078032 
C 296.57213 113.196216 295.955518 111.327893 295.296004 109.474559 
C 294.63649 107.621224 293.93425 105.783372 293.189847 103.962474 
L 174.954668 152.298341 
z
" style="fill: #ff7f0e"/>
   </g>
   <g id="patch_4">
    <path d="M 293.160387 103.89491 
C 291.671381 100.252627 290.014867 96.681094 288.196145 93.191736 
C 286.377423 89.702379 284.398436 86.298925 282.265516 82.992263 
L 174.925208 152.230777 
z
" style="fill: #aec7e8"/>
   </g>
   <g id="patch_5">
    <path d="M 282.212278 82.909729 
C 280.079358 79.603067 277.794781 76.396729 275.365859 73.300974 
C 272.936937 70.205219 270.366263 67.223353 267.662062 64.364916 
L 174.871971 152.148243 
z
" style="fill: #ffbb78"/>
   </g>
   <g id="patch_6">
    <path d="M 267.50232 64.228484 
C 258.562796 54.77909 248.232062 46.750451 236.868047 40.420737 
C 225.504032 34.091022 213.239515 29.534189 200.499426 26.908118 
L 174.712229 152.01181 
z
" style="fill: #98df8a"/>
   </g>
   <g id="patch_7">
    <path d="M 200.294445 26.843603 
C 196.05503 25.969747 191.773934 25.311948 187.467732 24.872754 
C 183.16153 24.433559 178.835785 24.213536 174.507244 24.213536 
L 174.507248 151.947296 
z
" style="fill: #2ca02c"/>
   </g>
   <g id="patch_8">
    <path d="M 174.404135 24.213059 
C 170.469245 24.21306 166.536455 24.394884 162.61835 24.757949 
C 158.700246 25.121015 154.801009 25.664936 150.933118 26.38797 
L 174.404139 151.946819 
z
" style="fill: #d62728"/>
   </g>
   <g id="patch_9">
    <path d="M 150.780826 26.425277 
C 142.26566 28.017038 133.934464 30.470902 125.915975 33.74895 
C 117.897487 37.026998 110.233224 41.112258 103.041619 45.941602 
L 174.251847 151.984127 
z
" style="fill: #9467bd"/>
   </g>
   <g id="patch_10">
    <path d="M 102.873698 46.05102 
C 96.664122 50.220907 90.832795 54.928172 85.446976 60.118522 
C 80.061156 65.308873 75.14163 70.962277 70.745139 77.013529 
L 174.083925 152.093544 
z
" style="fill: #ff9896"/>
   </g>
   <g id="patch_11">
    <path d="M 70.594209 77.2845 
C 60.150806 91.658612 52.820466 108.054828 49.072912 125.422487 
C 45.325357 142.790146 45.242383 160.750182 48.829306 178.151726 
L 173.932996 152.364515 
z
" style="fill: #c5b0d5"/>
   </g>
   <g id="patch_12">
    <path d="M 48.840429 178.419069 
C 49.634814 182.272939 50.606856 186.088045 51.753443 189.852178 
C 52.90003 193.616311 54.219938 197.325453 55.708944 200.967736 
L 173.944118 152.631858 
z
" style="fill: #c49c94"/>
   </g>
   <g id="patch_13">
    <path d="M 55.755522 201.075919 
C 57.840487 206.175985 60.253255 211.135809 62.978704 215.924303 
C 65.704152 220.712797 68.736575 225.319936 72.056963 229.71684 
L 173.990696 152.740041 
z
" style="fill: #8c564b"/>
   </g>
   <g id="patch_14">
    <path d="M 72.122899 229.80848 
C 74.256998 232.634483 76.507697 235.370516 78.86916 238.009487 
C 81.230623 240.648458 83.70081 243.188084 86.273316 245.621782 
L 174.056632 152.831681 
z
" style="fill: #e377c2"/>
   </g>
   <g id="patch_15">
    <path d="M 86.326152 245.673173 
C 88.041019 247.295509 89.80053 248.869994 91.602658 250.394814 
C 93.404787 251.919634 95.248839 253.394203 97.132691 254.816822 
L 174.109468 152.883072 
z
" style="fill: #7f7f7f"/>
   </g>
   <g id="patch_16">
    <path d="M 97.217487 254.875486 
C 101.928699 258.433227 106.880899 261.660076 112.038457 264.532816 
C 117.196015 267.405556 122.546535 269.917283 128.051522 272.049925 
L 174.194263 152.941736 
z
" style="fill: #f7b6d2"/>
   </g>
   <g id="patch_17">
    <path d="M 128.266296 272.115347 
C 139.658123 276.528563 151.624396 279.284724 163.798978 280.299499 
C 175.97356 281.314273 188.231 280.577205 200.196253 278.110847 
L 174.409037 153.007158 
z
" style="fill: #c7c7c7"/>
   </g>
   <g id="patch_18">
    <path d="M 200.482087 278.054677 
C 211.673011 275.747928 222.503989 271.949978 232.6848 266.762593 
C 242.865612 261.575209 252.304505 255.04514 260.748562 247.347363 
L 174.694871 152.950988 
z
" style="fill: #dbdb8d"/>
   </g>
   <g id="patch_19">
    <path d="M 260.948782 247.169857 
C 268.517104 240.270418 275.228281 232.485752 280.937629 223.983688 
C 286.646977 215.481623 291.31317 206.3237 294.835611 196.707351 
L 174.89509 152.773482 
z
" style="fill: #bcbd22"/>
   </g>
   <g id="patch_20">
    <path d="M 294.905674 196.556292 
C 295.988325 193.600628 296.961353 190.605954 297.822764 187.578405 
C 298.684176 184.550856 299.433382 181.4925 300.068849 178.409601 
L 174.965153 152.622423 
z
" style="fill: #17becf"/>
   </g>
   <g id="patch_21">
    <path d="M 300.08642 178.317953 
C 300.960275 174.078537 301.618074 169.797442 302.057268 165.49124 
C 302.496462 161.185038 302.716484 156.859293 302.716483 152.530752 
L 174.982723 152.530775 
z
" style="fill: #9edae5"/>
   </g>
   <g id="patch_22">
    <path d="M 248.964606 152.476773 
C 248.964606 148.803191 248.692932 145.134633 248.151807 141.501123 
C 247.610682 137.867613 246.801586 134.279092 245.731142 130.764926 
L 174.453246 152.476773 
z
" style="fill: #ffffff"/>
   </g>
   <g id="patch_23">
    <path d="M 245.731142 130.764926 
C 245.396766 129.6672 245.037075 128.577346 244.652359 127.496234 
C 244.267642 126.415122 243.858002 125.343041 243.423767 124.280851 
L 174.453246 152.476773 
z
" style="fill: #ffffff"/>
   </g>
   <g id="patch_24">
    <path d="M 243.423767 124.280851 
C 242.55518 122.156186 241.58888 120.072791 240.527959 118.037333 
C 239.467038 116.001874 238.312629 114.016526 237.068425 112.08764 
L 174.453246 152.476773 
z
" style="fill: #ffffff"/>
   </g>
   <g id="patch_25">
    <path d="M 237.068425 112.08764 
C 235.824222 110.158754 234.491552 108.28839 233.074681 106.482533 
C 231.65781 104.676676 230.15825 102.937254 228.580799 101.269833 
L 174.453246 152.476773 
z
" style="fill: #ffffff"/>
   </g>
   <g id="patch_26">
    <path d="M 228.580799 101.269833 
C 223.366077 95.757686 217.339815 91.074314 210.710807 87.38198 
C 204.081798 83.689647 196.927496 81.031494 189.495778 79.499619 
L 174.453246 152.476773 
z
" style="fill: #ffffff"/>
   </g>
   <g id="patch_27">
    <path d="M 189.495778 79.499619 
C 187.022785 78.98987 184.52548 78.606154 182.013528 78.349957 
C 179.501577 78.09376 176.978226 77.965413 174.453244 77.965413 
L 174.453246 152.476773 
z
" style="fill: #ffffff"/>
   </g>
   <g id="patch_28">
    <path d="M 174.453244 77.965413 
C 172.157891 77.965413 169.863764 78.071477 167.578203 78.283266 
C 165.292642 78.495054 163.018087 78.812341 160.761817 79.234111 
L 174.453246 152.476773 
z
" style="fill: #ffffff"/>
   </g>
   <g id="patch_29">
    <path d="M 160.761817 79.234111 
C 155.794637 80.162638 150.934773 81.594059 146.257321 83.506253 
C 141.57987 85.418448 137.10905 87.801517 132.913946 90.618634 
L 174.453246 152.476773 
z
" style="fill: #ffffff"/>
   </g>
   <g id="patch_30">
    <path d="M 132.913946 90.618634 
C 129.291694 93.051068 125.890087 95.796973 122.748359 98.824677 
C 119.606631 101.852382 116.736907 105.150201 114.172287 108.680098 
L 174.453246 152.476773 
z
" style="fill: #ffffff"/>
   </g>
   <g id="patch_31">
    <path d="M 114.172287 108.680098 
C 108.080302 117.064997 103.80427 126.629456 101.618197 136.76059 
C 99.432124 146.891725 99.383722 157.368412 101.476094 167.519313 
L 174.453246 152.476773 
z
" style="fill: #ffffff"/>
   </g>
   <g id="patch_32">
    <path d="M 101.476094 167.519313 
C 101.939485 169.767404 102.506509 171.992882 103.175352 174.188626 
C 103.844194 176.384371 104.614141 178.548037 105.482728 180.672702 
L 174.453246 152.476773 
z
" style="fill: #ffffff"/>
   </g>
   <g id="patch_33">
    <path d="M 105.482728 180.672702 
C 106.698957 183.64774 108.106405 186.540971 109.69625 189.334259 
C 111.286095 192.127548 113.055009 194.815045 114.991902 197.379906 
L 174.453246 152.476773 
z
" style="fill: #ffffff"/>
   </g>
   <g id="patch_34">
    <path d="M 114.991902 197.379906 
C 116.236793 199.028408 117.549701 200.624427 118.927221 202.163827 
C 120.304741 203.703226 121.745683 205.184675 123.246312 206.604332 
L 174.453246 152.476773 
z
" style="fill: #ffffff"/>
   </g>
   <g id="patch_35">
    <path d="M 123.246312 206.604332 
C 124.246651 207.550695 125.273033 208.469144 126.324274 209.358623 
C 127.375515 210.248101 128.451213 211.108266 129.550126 211.938127 
L 174.453246 152.476773 
z
" style="fill: #ffffff"/>
   </g>
   <g id="patch_36">
    <path d="M 129.550126 211.938127 
C 132.298334 214.013476 135.187117 215.895805 138.195692 217.57157 
C 141.204268 219.247335 144.325404 220.712509 147.536647 221.95655 
L 174.453246 152.476773 
z
" style="fill: #ffffff"/>
   </g>
   <g id="patch_37">
    <path d="M 147.536647 221.95655 
C 154.181879 224.530926 161.162205 226.138687 168.264045 226.730639 
C 175.365884 227.322591 182.516058 226.892634 189.495789 225.453925 
L 174.453246 152.476773 
z
" style="fill: #ffffff"/>
   </g>
   <g id="patch_38">
    <path d="M 189.495789 225.453925 
C 196.023828 224.108321 202.341898 221.89285 208.280705 218.866876 
C 214.219512 215.840902 219.725533 212.031695 224.651233 207.541325 
L 174.453246 152.476773 
z
" style="fill: #ffffff"/>
   </g>
   <g id="patch_39">
    <path d="M 224.651233 207.541325 
C 229.066087 203.516652 232.980941 198.975597 236.311394 194.01606 
C 239.641847 189.056522 242.363793 183.7144 244.41855 178.104863 
L 174.453246 152.476773 
z
" style="fill: #ffffff"/>
   </g>
   <g id="patch_40">
    <path d="M 244.41855 178.104863 
C 245.050097 176.380726 245.617696 174.633833 246.120186 172.867763 
C 246.622676 171.101692 247.059713 169.317651 247.430402 167.519294 
L 174.453246 152.476773 
z
" style="fill: #ffffff"/>
   </g>
   <g id="patch_41">
    <path d="M 247.430402 167.519294 
C 247.940151 165.046301 248.323867 162.548995 248.580063 160.037044 
C 248.83626 157.525093 248.964606 155.001742 248.964606 152.47676 
L 174.453246 152.476773 
z
" style="fill: #ffffff"/>
   </g>
   <g id="matplotlib.axis_1"/>
   <g id="matplotlib.axis_2"/>
   <g id="text_1">
    <!-- A [16] -->
    <g transform="translate(313.954093 134.46081) scale(0.1 -0.1)">
     <defs>
      <path id="DejaVuSans-41" d="M 2188 4044 
L 1331 1722 
L 3047 1722 
L 2188 4044 
z
M 1831 4666 
L 2547 4666 
L 4325 0 
L 3669 0 
L 3244 1197 
L 1141 1197 
L 716 0 
L 50 0 
L 1831 4666 
z
" transform="scale(0.015625)"/>
      <path id="DejaVuSans-20" transform="scale(0.015625)"/>
      <path id="DejaVuSans-5b" d="M 550 4863 
L 1875 4863 
L 1875 4416 
L 1125 4416 
L 1125 -397 
L 1875 -397 
L 1875 -844 
L 550 -844 
L 550 4863 
z
" transform="scale(0.015625)"/>
      <path id="DejaVuSans-31" d="M 794 531 
L 1825 531 
L 1825 4091 
L 703 3866 
L 703 4441 
L 1819 4666 
L 2450 4666 
L 2450 531 
L 3481 531 
L 3481 0 
L 794 0 
L 794 531 
z
" transform="scale(0.015625)"/>
      <path id="DejaVuSans-36" d="M 2113 2584 
Q 1688 2584 1439 2293 
Q 1191 2003 1191 1497 
Q 1191 994 1439 701 
Q 1688 409 2113 409 
Q 2538 409 2786 701 
Q 3034 994 3034 1497 
Q 3034 2003 2786 2293 
Q 2538 2584 2113 2584 
z
M 3366 4563 
L 3366 3988 
Q 3128 4100 2886 4159 
Q 2644 4219 2406 4219 
Q 1781 4219 1451 3797 
Q 1122 3375 1075 2522 
Q 1259 2794 1537 2939 
Q 1816 3084 2150 3084 
Q 2853 3084 3261 2657 
Q 3669 2231 3669 1497 
Q 3669 778 3244 343 
Q 2819 -91 2113 -91 
Q 1303 -91 875 529 
Q 447 1150 447 2328 
Q 447 3434 972 4092 
Q 1497 4750 2381 4750 
Q 2619 4750 2861 4703 
Q 3103 4656 3366 4563 
z
" transform="scale(0.015625)"/>
      <path id="DejaVuSans-5d" d="M 1947 4863 
L 1947 -844 
L 622 -844 
L 622 -397 
L 1369 -397 
L 1369 4416 
L 622 4416 
L 622 4863 
L 1947 4863 
z
" transform="scale(0.015625)"/>
     </defs>
     <use xlink:href="#DejaVuSans-41"/>
     <use xlink:href="#DejaVuSans-20" x="68.408203"/>
     <use xlink:href="#DejaVuSans-5b" x="100.195312"/>
     <use xlink:href="#DejaVuSans-31" x="139.208984"/>
     <use xlink:href="#DejaVuSans-36" x="202.832031"/>
     <use xlink:href="#DejaVuSans-5d" x="266.455078"/>
    </g>
   </g>
   <g id="text_2">
    <!-- C [5] -->
    <g transform="translate(307.330138 107.951556) scale(0.1 -0.1)">
     <defs>
      <path id="DejaVuSans-43" d="M 4122 4306 
L 4122 3641 
Q 3803 3938 3442 4084 
Q 3081 4231 2675 4231 
Q 1875 4231 1450 3742 
Q 1025 3253 1025 2328 
Q 1025 1406 1450 917 
Q 1875 428 2675 428 
Q 3081 428 3442 575 
Q 3803 722 4122 1019 
L 4122 359 
Q 3791 134 3420 21 
Q 3050 -91 2638 -91 
Q 1578 -91 968 557 
Q 359 1206 359 2328 
Q 359 3453 968 4101 
Q 1578 4750 2638 4750 
Q 3056 4750 3426 4639 
Q 3797 4528 4122 4306 
z
" transform="scale(0.015625)"/>
      <path id="DejaVuSans-35" d="M 691 4666 
L 3169 4666 
L 3169 4134 
L 1269 4134 
L 1269 2991 
Q 1406 3038 1543 3061 
Q 1681 3084 1819 3084 
Q 2600 3084 3056 2656 
Q 3513 2228 3513 1497 
Q 3513 744 3044 326 
Q 2575 -91 1722 -91 
Q 1428 -91 1123 -41 
Q 819 9 494 109 
L 494 744 
Q 775 591 1075 516 
Q 1375 441 1709 441 
Q 2250 441 2565 725 
Q 2881 1009 2881 1497 
Q 2881 1984 2565 2268 
Q 2250 2553 1709 2553 
Q 1456 2553 1204 2497 
Q 953 2441 691 2322 
L 691 4666 
z
" transform="scale(0.015625)"/>
     </defs>
     <use xlink:href="#DejaVuSans-43"/>
     <use xlink:href="#DejaVuSans-20" x="69.824219"/>
     <use xlink:href="#DejaVuSans-5b" x="101.611328"/>
     <use xlink:href="#DejaVuSans-35" x="140.625"/>
     <use xlink:href="#DejaVuSans-5d" x="204.248047"/>
    </g>
   </g>
   <g id="text_3">
    <!-- D [10] -->
    <g transform="translate(299.523239 90.047207) scale(0.1 -0.1)">
     <defs>
      <path id="DejaVuSans-44" d="M 1259 4147 
L 1259 519 
L 2022 519 
Q 2988 519 3436 956 
Q 3884 1394 3884 2338 
Q 3884 3275 3436 3711 
Q 2988 4147 2022 4147 
L 1259 4147 
z
M 628 4666 
L 1925 4666 
Q 3281 4666 3915 4102 
Q 4550 3538 4550 2338 
Q 4550 1131 3912 565 
Q 3275 0 1925 0 
L 628 0 
L 628 4666 
z
" transform="scale(0.015625)"/>
      <path id="DejaVuSans-30" d="M 2034 4250 
Q 1547 4250 1301 3770 
Q 1056 3291 1056 2328 
Q 1056 1369 1301 889 
Q 1547 409 2034 409 
Q 2525 409 2770 889 
Q 3016 1369 3016 2328 
Q 3016 3291 2770 3770 
Q 2525 4250 2034 4250 
z
M 2034 4750 
Q 2819 4750 3233 4129 
Q 3647 3509 3647 2328 
Q 3647 1150 3233 529 
Q 2819 -91 2034 -91 
Q 1250 -91 836 529 
Q 422 1150 422 2328 
Q 422 3509 836 4129 
Q 1250 4750 2034 4750 
z
" transform="scale(0.015625)"/>
     </defs>
     <use xlink:href="#DejaVuSans-44"/>
     <use xlink:href="#DejaVuSans-20" x="77.001953"/>
     <use xlink:href="#DejaVuSans-5b" x="108.789062"/>
     <use xlink:href="#DejaVuSans-31" x="147.802734"/>
     <use xlink:href="#DejaVuSans-30" x="211.425781"/>
     <use xlink:href="#DejaVuSans-5d" x="275.048828"/>
    </g>
   </g>
   <g id="text_4">
    <!-- E [10] -->
    <g transform="translate(285.415248 68.175622) scale(0.1 -0.1)">
     <defs>
      <path id="DejaVuSans-45" d="M 628 4666 
L 3578 4666 
L 3578 4134 
L 1259 4134 
L 1259 2753 
L 3481 2753 
L 3481 2222 
L 1259 2222 
L 1259 531 
L 3634 531 
L 3634 0 
L 628 0 
L 628 4666 
z
" transform="scale(0.015625)"/>
     </defs>
     <use xlink:href="#DejaVuSans-45"/>
     <use xlink:href="#DejaVuSans-20" x="63.183594"/>
     <use xlink:href="#DejaVuSans-5b" x="94.970703"/>
     <use xlink:href="#DejaVuSans-31" x="133.984375"/>
     <use xlink:href="#DejaVuSans-30" x="197.607422"/>
     <use xlink:href="#DejaVuSans-5d" x="261.230469"/>
    </g>
   </g>
   <g id="text_5">
    <!-- F [33] -->
    <g transform="translate(243.083629 32.021004) scale(0.1 -0.1)">
     <defs>
      <path id="DejaVuSans-46" d="M 628 4666 
L 3309 4666 
L 3309 4134 
L 1259 4134 
L 1259 2759 
L 3109 2759 
L 3109 2228 
L 1259 2228 
L 1259 0 
L 628 0 
L 628 4666 
z
" transform="scale(0.015625)"/>
      <path id="DejaVuSans-33" d="M 2597 2516 
Q 3050 2419 3304 2112 
Q 3559 1806 3559 1356 
Q 3559 666 3084 287 
Q 2609 -91 1734 -91 
Q 1441 -91 1130 -33 
Q 819 25 488 141 
L 488 750 
Q 750 597 1062 519 
Q 1375 441 1716 441 
Q 2309 441 2620 675 
Q 2931 909 2931 1356 
Q 2931 1769 2642 2001 
Q 2353 2234 1838 2234 
L 1294 2234 
L 1294 2753 
L 1863 2753 
Q 2328 2753 2575 2939 
Q 2822 3125 2822 3475 
Q 2822 3834 2567 4026 
Q 2313 4219 1838 4219 
Q 1578 4219 1281 4162 
Q 984 4106 628 3988 
L 628 4550 
Q 988 4650 1302 4700 
Q 1616 4750 1894 4750 
Q 2613 4750 3031 4423 
Q 3450 4097 3450 3541 
Q 3450 3153 3228 2886 
Q 3006 2619 2597 2516 
z
" transform="scale(0.015625)"/>
     </defs>
     <use xlink:href="#DejaVuSans-46"/>
     <use xlink:href="#DejaVuSans-20" x="57.519531"/>
     <use xlink:href="#DejaVuSans-5b" x="89.306641"/>
     <use xlink:href="#DejaVuSans-33" x="128.320312"/>
     <use xlink:href="#DejaVuSans-33" x="191.943359"/>
     <use xlink:href="#DejaVuSans-5d" x="255.566406"/>
    </g>
   </g>
   <g id="text_6">
    <!-- G [11] -->
    <g transform="translate(188.76378 14.924674) scale(0.1 -0.1)">
     <defs>
      <path id="DejaVuSans-47" d="M 3809 666 
L 3809 1919 
L 2778 1919 
L 2778 2438 
L 4434 2438 
L 4434 434 
Q 4069 175 3628 42 
Q 3188 -91 2688 -91 
Q 1594 -91 976 548 
Q 359 1188 359 2328 
Q 359 3472 976 4111 
Q 1594 4750 2688 4750 
Q 3144 4750 3555 4637 
Q 3966 4525 4313 4306 
L 4313 3634 
Q 3963 3931 3569 4081 
Q 3175 4231 2741 4231 
Q 1884 4231 1454 3753 
Q 1025 3275 1025 2328 
Q 1025 1384 1454 906 
Q 1884 428 2741 428 
Q 3075 428 3337 486 
Q 3600 544 3809 666 
z
" transform="scale(0.015625)"/>
     </defs>
     <use xlink:href="#DejaVuSans-47"/>
     <use xlink:href="#DejaVuSans-20" x="77.490234"/>
     <use xlink:href="#DejaVuSans-5b" x="109.277344"/>
     <use xlink:href="#DejaVuSans-31" x="148.291016"/>
     <use xlink:href="#DejaVuSans-31" x="211.914062"/>
     <use xlink:href="#DejaVuSans-5d" x="275.537109"/>
    </g>
   </g>
   <g id="text_7">
    <!-- H [10] -->
    <g transform="translate(130.213209 14.798437) scale(0.1 -0.1)">
     <defs>
      <path id="DejaVuSans-48" d="M 628 4666 
L 1259 4666 
L 1259 2753 
L 3553 2753 
L 3553 4666 
L 4184 4666 
L 4184 0 
L 3553 0 
L 3553 2222 
L 1259 2222 
L 1259 0 
L 628 0 
L 628 4666 
z
" transform="scale(0.015625)"/>
     </defs>
     <use xlink:href="#DejaVuSans-48"/>
     <use xlink:href="#DejaVuSans-20" x="75.195312"/>
     <use xlink:href="#DejaVuSans-5b" x="106.982422"/>
     <use xlink:href="#DejaVuSans-31" x="145.996094"/>
     <use xlink:href="#DejaVuSans-30" x="209.619141"/>
     <use xlink:href="#DejaVuSans-5d" x="273.242188"/>
    </g>
   </g>
   <g id="text_8">
    <!-- I [22] -->
    <g transform="translate(94.426138 24.684807) scale(0.1 -0.1)">
     <defs>
      <path id="DejaVuSans-49" d="M 628 4666 
L 1259 4666 
L 1259 0 
L 628 0 
L 628 4666 
z
" transform="scale(0.015625)"/>
      <path id="DejaVuSans-32" d="M 1228 531 
L 3431 531 
L 3431 0 
L 469 0 
L 469 531 
Q 828 903 1448 1529 
Q 2069 2156 2228 2338 
Q 2531 2678 2651 2914 
Q 2772 3150 2772 3378 
Q 2772 3750 2511 3984 
Q 2250 4219 1831 4219 
Q 1534 4219 1204 4116 
Q 875 4013 500 3803 
L 500 4441 
Q 881 4594 1212 4672 
Q 1544 4750 1819 4750 
Q 2544 4750 2975 4387 
Q 3406 4025 3406 3419 
Q 3406 3131 3298 2873 
Q 3191 2616 2906 2266 
Q 2828 2175 2409 1742 
Q 1991 1309 1228 531 
z
" transform="scale(0.015625)"/>
     </defs>
     <use xlink:href="#DejaVuSans-49"/>
     <use xlink:href="#DejaVuSans-20" x="29.492188"/>
     <use xlink:href="#DejaVuSans-5b" x="61.279297"/>
     <use xlink:href="#DejaVuSans-32" x="100.292969"/>
     <use xlink:href="#DejaVuSans-32" x="163.916016"/>
     <use xlink:href="#DejaVuSans-5d" x="227.539062"/>
    </g>
   </g>
   <g id="text_9">
    <!-- K [19] -->
    <g transform="translate(46.319218 53.680395) scale(0.1 -0.1)">
     <defs>
      <path id="DejaVuSans-4b" d="M 628 4666 
L 1259 4666 
L 1259 2694 
L 3353 4666 
L 4166 4666 
L 1850 2491 
L 4331 0 
L 3500 0 
L 1259 2247 
L 1259 0 
L 628 0 
L 628 4666 
z
" transform="scale(0.015625)"/>
      <path id="DejaVuSans-39" d="M 703 97 
L 703 672 
Q 941 559 1184 500 
Q 1428 441 1663 441 
Q 2288 441 2617 861 
Q 2947 1281 2994 2138 
Q 2813 1869 2534 1725 
Q 2256 1581 1919 1581 
Q 1219 1581 811 2004 
Q 403 2428 403 3163 
Q 403 3881 828 4315 
Q 1253 4750 1959 4750 
Q 2769 4750 3195 4129 
Q 3622 3509 3622 2328 
Q 3622 1225 3098 567 
Q 2575 -91 1691 -91 
Q 1453 -91 1209 -44 
Q 966 3 703 97 
z
M 1959 2075 
Q 2384 2075 2632 2365 
Q 2881 2656 2881 3163 
Q 2881 3666 2632 3958 
Q 2384 4250 1959 4250 
Q 1534 4250 1286 3958 
Q 1038 3666 1038 3163 
Q 1038 2656 1286 2365 
Q 1534 2075 1959 2075 
z
" transform="scale(0.015625)"/>
     </defs>
     <use xlink:href="#DejaVuSans-4b"/>
     <use xlink:href="#DejaVuSans-20" x="65.576172"/>
     <use xlink:href="#DejaVuSans-5b" x="97.363281"/>
     <use xlink:href="#DejaVuSans-31" x="136.376953"/>
     <use xlink:href="#DejaVuSans-39" x="200"/>
     <use xlink:href="#DejaVuSans-5d" x="263.623047"/>
    </g>
   </g>
   <g id="text_10">
    <!-- L [45] -->
    <g transform="translate(7.308778 125.487659) scale(0.1 -0.1)">
     <defs>
      <path id="DejaVuSans-4c" d="M 628 4666 
L 1259 4666 
L 1259 531 
L 3531 531 
L 3531 0 
L 628 0 
L 628 4666 
z
" transform="scale(0.015625)"/>
      <path id="DejaVuSans-34" d="M 2419 4116 
L 825 1625 
L 2419 1625 
L 2419 4116 
z
M 2253 4666 
L 3047 4666 
L 3047 1625 
L 3713 1625 
L 3713 1100 
L 3047 1100 
L 3047 0 
L 2419 0 
L 2419 1100 
L 313 1100 
L 313 1709 
L 2253 4666 
z
" transform="scale(0.015625)"/>
     </defs>
     <use xlink:href="#DejaVuSans-4c"/>
     <use xlink:href="#DejaVuSans-20" x="55.712891"/>
     <use xlink:href="#DejaVuSans-5b" x="87.5"/>
     <use xlink:href="#DejaVuSans-34" x="126.513672"/>
     <use xlink:href="#DejaVuSans-35" x="190.136719"/>
     <use xlink:href="#DejaVuSans-5d" x="253.759766"/>
    </g>
   </g>
   <g id="text_11">
    <!-- M [10] -->
    <g transform="translate(7.2 196.333585) scale(0.1 -0.1)">
     <defs>
      <path id="DejaVuSans-4d" d="M 628 4666 
L 1569 4666 
L 2759 1491 
L 3956 4666 
L 4897 4666 
L 4897 0 
L 4281 0 
L 4281 4097 
L 3078 897 
L 2444 897 
L 1241 4097 
L 1241 0 
L 628 0 
L 628 4666 
z
" transform="scale(0.015625)"/>
     </defs>
     <use xlink:href="#DejaVuSans-4d"/>
     <use xlink:href="#DejaVuSans-20" x="86.279297"/>
     <use xlink:href="#DejaVuSans-5b" x="118.066406"/>
     <use xlink:href="#DejaVuSans-31" x="157.080078"/>
     <use xlink:href="#DejaVuSans-30" x="220.703125"/>
     <use xlink:href="#DejaVuSans-5d" x="284.326172"/>
    </g>
   </g>
   <g id="text_12">
    <!-- N [14] -->
    <g transform="translate(20.690004 225.002104) scale(0.1 -0.1)">
     <defs>
      <path id="DejaVuSans-4e" d="M 628 4666 
L 1478 4666 
L 3547 763 
L 3547 4666 
L 4159 4666 
L 4159 0 
L 3309 0 
L 1241 3903 
L 1241 0 
L 628 0 
L 628 4666 
z
" transform="scale(0.015625)"/>
     </defs>
     <use xlink:href="#DejaVuSans-4e"/>
     <use xlink:href="#DejaVuSans-20" x="74.804688"/>
     <use xlink:href="#DejaVuSans-5b" x="106.591797"/>
     <use xlink:href="#DejaVuSans-31" x="145.605469"/>
     <use xlink:href="#DejaVuSans-34" x="209.228516"/>
     <use xlink:href="#DejaVuSans-5d" x="272.851562"/>
    </g>
   </g>
   <g id="text_13">
    <!-- P [9] -->
    <g transform="translate(45.976975 249.286643) scale(0.1 -0.1)">
     <defs>
      <path id="DejaVuSans-50" d="M 1259 4147 
L 1259 2394 
L 2053 2394 
Q 2494 2394 2734 2622 
Q 2975 2850 2975 3272 
Q 2975 3691 2734 3919 
Q 2494 4147 2053 4147 
L 1259 4147 
z
M 628 4666 
L 2053 4666 
Q 2838 4666 3239 4311 
Q 3641 3956 3641 3272 
Q 3641 2581 3239 2228 
Q 2838 1875 2053 1875 
L 1259 1875 
L 1259 0 
L 628 0 
L 628 4666 
z
" transform="scale(0.015625)"/>
     </defs>
     <use xlink:href="#DejaVuSans-50"/>
     <use xlink:href="#DejaVuSans-20" x="60.302734"/>
     <use xlink:href="#DejaVuSans-5b" x="92.089844"/>
     <use xlink:href="#DejaVuSans-39" x="131.103516"/>
     <use xlink:href="#DejaVuSans-5d" x="194.726562"/>
    </g>
   </g>
   <g id="text_14">
    <!-- Q [6] -->
    <g transform="translate(58.136353 262.905364) scale(0.1 -0.1)">
     <defs>
      <path id="DejaVuSans-51" d="M 2522 4238 
Q 1834 4238 1429 3725 
Q 1025 3213 1025 2328 
Q 1025 1447 1429 934 
Q 1834 422 2522 422 
Q 3209 422 3611 934 
Q 4013 1447 4013 2328 
Q 4013 3213 3611 3725 
Q 3209 4238 2522 4238 
z
M 3406 84 
L 4238 -825 
L 3475 -825 
L 2784 -78 
Q 2681 -84 2626 -87 
Q 2572 -91 2522 -91 
Q 1538 -91 948 567 
Q 359 1225 359 2328 
Q 359 3434 948 4092 
Q 1538 4750 2522 4750 
Q 3503 4750 4090 4092 
Q 4678 3434 4678 2328 
Q 4678 1516 4351 937 
Q 4025 359 3406 84 
z
" transform="scale(0.015625)"/>
     </defs>
     <use xlink:href="#DejaVuSans-51"/>
     <use xlink:href="#DejaVuSans-20" x="78.710938"/>
     <use xlink:href="#DejaVuSans-5b" x="110.498047"/>
     <use xlink:href="#DejaVuSans-36" x="149.511719"/>
     <use xlink:href="#DejaVuSans-5d" x="213.134766"/>
    </g>
   </g>
   <g id="text_15">
    <!-- R [15] -->
    <g transform="translate(75.168189 278.451299) scale(0.1 -0.1)">
     <defs>
      <path id="DejaVuSans-52" d="M 2841 2188 
Q 3044 2119 3236 1894 
Q 3428 1669 3622 1275 
L 4263 0 
L 3584 0 
L 2988 1197 
Q 2756 1666 2539 1819 
Q 2322 1972 1947 1972 
L 1259 1972 
L 1259 0 
L 628 0 
L 628 4666 
L 2053 4666 
Q 2853 4666 3247 4331 
Q 3641 3997 3641 3322 
Q 3641 2881 3436 2590 
Q 3231 2300 2841 2188 
z
M 1259 4147 
L 1259 2491 
L 2053 2491 
Q 2509 2491 2742 2702 
Q 2975 2913 2975 3322 
Q 2975 3731 2742 3939 
Q 2509 4147 2053 4147 
L 1259 4147 
z
" transform="scale(0.015625)"/>
     </defs>
     <use xlink:href="#DejaVuSans-52"/>
     <use xlink:href="#DejaVuSans-20" x="69.482422"/>
     <use xlink:href="#DejaVuSans-5b" x="101.269531"/>
     <use xlink:href="#DejaVuSans-31" x="140.283203"/>
     <use xlink:href="#DejaVuSans-35" x="203.90625"/>
     <use xlink:href="#DejaVuSans-5d" x="267.529297"/>
    </g>
   </g>
   <g id="text_16">
    <!-- S [31] -->
    <g transform="translate(132.683285 295.788108) scale(0.1 -0.1)">
     <defs>
      <path id="DejaVuSans-53" d="M 3425 4513 
L 3425 3897 
Q 3066 4069 2747 4153 
Q 2428 4238 2131 4238 
Q 1616 4238 1336 4038 
Q 1056 3838 1056 3469 
Q 1056 3159 1242 3001 
Q 1428 2844 1947 2747 
L 2328 2669 
Q 3034 2534 3370 2195 
Q 3706 1856 3706 1288 
Q 3706 609 3251 259 
Q 2797 -91 1919 -91 
Q 1588 -91 1214 -16 
Q 841 59 441 206 
L 441 856 
Q 825 641 1194 531 
Q 1563 422 1919 422 
Q 2459 422 2753 634 
Q 3047 847 3047 1241 
Q 3047 1584 2836 1778 
Q 2625 1972 2144 2069 
L 1759 2144 
Q 1053 2284 737 2584 
Q 422 2884 422 3419 
Q 422 4038 858 4394 
Q 1294 4750 2059 4750 
Q 2388 4750 2728 4690 
Q 3069 4631 3425 4513 
z
" transform="scale(0.015625)"/>
     </defs>
     <use xlink:href="#DejaVuSans-53"/>
     <use xlink:href="#DejaVuSans-20" x="63.476562"/>
     <use xlink:href="#DejaVuSans-5b" x="95.263672"/>
     <use xlink:href="#DejaVuSans-33" x="134.277344"/>
     <use xlink:href="#DejaVuSans-31" x="197.900391"/>
     <use xlink:href="#DejaVuSans-5d" x="261.523438"/>
    </g>
   </g>
   <g id="text_17">
    <!-- T [29] -->
    <g transform="translate(238.483793 280.903129) scale(0.1 -0.1)">
     <defs>
      <path id="DejaVuSans-54" d="M -19 4666 
L 3928 4666 
L 3928 4134 
L 2272 4134 
L 2272 0 
L 1638 0 
L 1638 4134 
L -19 4134 
L -19 4666 
z
" transform="scale(0.015625)"/>
     </defs>
     <use xlink:href="#DejaVuSans-54"/>
     <use xlink:href="#DejaVuSans-20" x="61.083984"/>
     <use xlink:href="#DejaVuSans-5b" x="92.871094"/>
     <use xlink:href="#DejaVuSans-32" x="131.884766"/>
     <use xlink:href="#DejaVuSans-39" x="195.507812"/>
     <use xlink:href="#DejaVuSans-5d" x="259.130859"/>
    </g>
   </g>
   <g id="text_18">
    <!-- V [26] -->
    <g transform="translate(291.541883 233.864083) scale(0.1 -0.1)">
     <defs>
      <path id="DejaVuSans-56" d="M 1831 0 
L 50 4666 
L 709 4666 
L 2188 738 
L 3669 4666 
L 4325 4666 
L 2547 0 
L 1831 0 
z
" transform="scale(0.015625)"/>
     </defs>
     <use xlink:href="#DejaVuSans-56"/>
     <use xlink:href="#DejaVuSans-20" x="68.408203"/>
     <use xlink:href="#DejaVuSans-5b" x="100.195312"/>
     <use xlink:href="#DejaVuSans-32" x="139.208984"/>
     <use xlink:href="#DejaVuSans-36" x="202.832031"/>
     <use xlink:href="#DejaVuSans-5d" x="266.455078"/>
    </g>
   </g>
   <g id="text_19">
    <!-- W [8] -->
    <g transform="translate(310.108526 193.833378) scale(0.1 -0.1)">
     <defs>
      <path id="DejaVuSans-57" d="M 213 4666 
L 850 4666 
L 1831 722 
L 2809 4666 
L 3519 4666 
L 4500 722 
L 5478 4666 
L 6119 4666 
L 4947 0 
L 4153 0 
L 3169 4050 
L 2175 0 
L 1381 0 
L 213 4666 
z
" transform="scale(0.015625)"/>
      <path id="DejaVuSans-38" d="M 2034 2216 
Q 1584 2216 1326 1975 
Q 1069 1734 1069 1313 
Q 1069 891 1326 650 
Q 1584 409 2034 409 
Q 2484 409 2743 651 
Q 3003 894 3003 1313 
Q 3003 1734 2745 1975 
Q 2488 2216 2034 2216 
z
M 1403 2484 
Q 997 2584 770 2862 
Q 544 3141 544 3541 
Q 544 4100 942 4425 
Q 1341 4750 2034 4750 
Q 2731 4750 3128 4425 
Q 3525 4100 3525 3541 
Q 3525 3141 3298 2862 
Q 3072 2584 2669 2484 
Q 3125 2378 3379 2068 
Q 3634 1759 3634 1313 
Q 3634 634 3220 271 
Q 2806 -91 2034 -91 
Q 1263 -91 848 271 
Q 434 634 434 1313 
Q 434 1759 690 2068 
Q 947 2378 1403 2484 
z
M 1172 3481 
Q 1172 3119 1398 2916 
Q 1625 2713 2034 2713 
Q 2441 2713 2670 2916 
Q 2900 3119 2900 3481 
Q 2900 3844 2670 4047 
Q 2441 4250 2034 4250 
Q 1625 4250 1398 4047 
Q 1172 3844 1172 3481 
z
" transform="scale(0.015625)"/>
     </defs>
     <use xlink:href="#DejaVuSans-57"/>
     <use xlink:href="#DejaVuSans-20" x="98.876953"/>
     <use xlink:href="#DejaVuSans-5b" x="130.664062"/>
     <use xlink:href="#DejaVuSans-38" x="169.677734"/>
     <use xlink:href="#DejaVuSans-5d" x="233.300781"/>
    </g>
   </g>
   <g id="text_20">
    <!-- Y [11] -->
    <g transform="translate(314.764722 169.546661) scale(0.1 -0.1)">
     <defs>
      <path id="DejaVuSans-59" d="M -13 4666 
L 666 4666 
L 1959 2747 
L 3244 4666 
L 3922 4666 
L 2272 2222 
L 2272 0 
L 1638 0 
L 1638 2222 
L -13 4666 
z
" transform="scale(0.015625)"/>
     </defs>
     <use xlink:href="#DejaVuSans-59"/>
     <use xlink:href="#DejaVuSans-20" x="61.083984"/>
     <use xlink:href="#DejaVuSans-5b" x="92.871094"/>
     <use xlink:href="#DejaVuSans-31" x="131.884766"/>
     <use xlink:href="#DejaVuSans-31" x="195.507812"/>
     <use xlink:href="#DejaVuSans-5d" x="259.130859"/>
    </g>
   </g>
   <g id="text_21">
    <!-- F1MNE7 [340] -->
    <g transform="translate(131.869184 152.476773) scale(0.12 -0.12)">
     <defs>
      <path id="DejaVuSans-37" d="M 525 4666 
L 3525 4666 
L 3525 4397 
L 1831 0 
L 1172 0 
L 2766 4134 
L 525 4134 
L 525 4666 
z
" transform="scale(0.015625)"/>
     </defs>
     <use xlink:href="#DejaVuSans-46"/>
     <use xlink:href="#DejaVuSans-31" x="57.519531"/>
     <use xlink:href="#DejaVuSans-4d" x="121.142578"/>
     <use xlink:href="#DejaVuSans-4e" x="207.421875"/>
     <use xlink:href="#DejaVuSans-45" x="282.226562"/>
     <use xlink:href="#DejaVuSans-37" x="345.410156"/>
     <use xlink:href="#DejaVuSans-20" x="409.033203"/>
     <use xlink:href="#DejaVuSans-5b" x="440.820312"/>
     <use xlink:href="#DejaVuSans-33" x="479.833984"/>
     <use xlink:href="#DejaVuSans-34" x="543.457031"/>
     <use xlink:href="#DejaVuSans-30" x="607.080078"/>
     <use xlink:href="#DejaVuSans-5d" x="670.703125"/>
    </g>
   </g>
  </g>
 </g>
</svg>
