<?xml version="1.0" encoding="utf-8" standalone="no"?>
<!DOCTYPE svg PUBLIC "-//W3C//DTD SVG 1.1//EN"
  "http://www.w3.org/Graphics/SVG/1.1/DTD/svg11.dtd">
<svg xmlns:xlink="http://www.w3.org/1999/xlink" width="356.321476pt" height="305.878641pt" viewBox="0 0 356.321476 305.878641" xmlns="http://www.w3.org/2000/svg" version="1.1">
 <metadata>
  <rdf:RDF xmlns:dc="http://purl.org/dc/elements/1.1/" xmlns:cc="http://creativecommons.org/ns#" xmlns:rdf="http://www.w3.org/1999/02/22-rdf-syntax-ns#">
   <cc:Work>
    <dc:type rdf:resource="http://purl.org/dc/dcmitype/StillImage"/>
    <dc:date>2024-09-27T16:07:32.585056</dc:date>
    <dc:format>image/svg+xml</dc:format>
    <dc:creator>
     <cc:Agent>
      <dc:title>Matplotlib v3.8.3, https://matplotlib.org/</dc:title>
     </cc:Agent>
    </dc:creator>
   </cc:Work>
  </rdf:RDF>
 </metadata>
 <defs>
  <style type="text/css">*{stroke-linejoin: round; stroke-linecap: butt}</style>
 </defs>
 <g id="figure_1">
  <g id="patch_1">
   <path d="M 0 305.878641 
L 356.321476 305.878641 
L 356.321476 0 
L 0 0 
z
" style="fill: #ffffff"/>
  </g>
  <g id="axes_1">
   <g id="patch_2">
    <path d="M 307.266983 152.74634 
C 307.266983 142.74535 306.092433 132.778876 303.767488 123.051882 
C 301.442543 113.324887 297.983251 103.904512 293.460753 94.98449 
L 179.533223 152.74634 
z
" style="fill: #1f77b4"/>
   </g>
   <g id="patch_3">
    <path d="M 293.398608 94.832927 
C 291.966121 92.007537 290.429025 89.236413 288.79051 86.525304 
C 287.151994 83.814195 285.413193 81.164976 283.577713 78.583143 
L 179.471078 152.594777 
z
" style="fill: #ff7f0e"/>
   </g>
   <g id="patch_4">
    <path d="M 283.527958 78.513998 
C 281.410016 75.534847 279.16517 72.647979 276.799621 69.861368 
C 274.434072 67.074757 271.949999 64.39097 269.354261 61.817418 
L 179.421323 152.525632 
z
" style="fill: #aec7e8"/>
   </g>
   <g id="patch_5">
    <path d="M 269.263074 61.732531 
C 264.762412 57.270336 259.935884 53.149286 254.823496 49.403538 
C 249.711108 45.657791 244.327023 42.297723 238.715868 39.351186 
L 179.330136 152.440745 
z
" style="fill: #ffbb78"/>
   </g>
   <g id="patch_6">
    <path d="M 238.573291 39.276836 
C 232.746112 36.21686 226.691131 33.611843 220.462464 31.485066 
C 214.233798 29.358289 207.850057 27.716107 201.368296 26.573198 
L 179.187559 152.366395 
z
" style="fill: #98df8a"/>
   </g>
   <g id="patch_7">
    <path d="M 201.167398 26.545432 
C 191.559096 24.851229 181.788243 24.263439 172.04613 24.793569 
C 162.304018 25.323698 152.654641 26.968266 143.286915 29.695074 
L 178.986662 152.338629 
z
" style="fill: #2ca02c"/>
   </g>
   <g id="patch_8">
    <path d="M 143.138102 29.724841 
C 140.798561 30.405847 138.478986 31.153657 136.182223 31.967353 
C 133.88546 32.781049 131.612451 33.660298 129.365985 34.60402 
L 178.837849 152.368396 
z
" style="fill: #d62728"/>
   </g>
   <g id="patch_9">
    <path d="M 129.25679 34.657433 
C 122.513717 37.490143 116.026383 40.89678 109.866341 44.839769 
C 103.706299 48.782757 97.89628 53.247548 92.500366 58.184895 
L 178.728654 152.421808 
z
" style="fill: #9467bd"/>
   </g>
   <g id="patch_10">
    <path d="M 92.387522 58.281805 
C 88.971365 61.407644 85.727704 64.716928 82.670908 68.195001 
C 79.614111 71.673075 76.748699 75.314793 74.087362 79.104026 
L 178.61581 152.518718 
z
" style="fill: #ff9896"/>
   </g>
   <g id="patch_11">
    <path d="M 73.974042 79.313951 
C 65.55131 91.306307 59.254846 104.659195 55.360786 118.787016 
C 51.466725 132.914837 50.032838 147.608 51.122008 162.222128 
L 178.50249 152.728643 
z
" style="fill: #c5b0d5"/>
   </g>
   <g id="patch_12">
    <path d="M 51.108754 162.442445 
C 51.344192 165.601467 51.697063 168.750637 52.166635 171.883423 
C 52.636208 175.016209 53.222157 178.130443 53.923267 181.219665 
L 178.489236 152.94896 
z
" style="fill: #c49c94"/>
   </g>
   <g id="patch_13">
    <path d="M 53.946433 181.31419 
C 54.971267 185.829798 56.240884 190.286341 57.749661 194.664079 
C 59.258438 199.041816 61.004144 203.334276 62.979046 207.522445 
L 178.512402 153.043486 
z
" style="fill: #8c564b"/>
   </g>
   <g id="patch_14">
    <path d="M 63.034788 207.637234 
C 65.425733 212.707703 68.147882 217.615278 71.183573 222.328118 
C 74.219264 227.040957 77.561917 231.548846 81.189844 235.822535 
L 178.568145 153.158275 
z
" style="fill: #e377c2"/>
   </g>
   <g id="patch_15">
    <path d="M 81.262559 235.912279 
C 83.628108 238.69889 86.112182 241.382677 88.707919 243.956229 
C 91.303657 246.529781 94.008667 248.990727 96.81548 251.33227 
L 178.64086 153.248018 
z
" style="fill: #7f7f7f"/>
   </g>
   <g id="patch_16">
    <path d="M 96.929381 251.418254 
C 102.920509 256.416267 109.356986 260.854865 116.15806 264.678362 
C 122.959134 268.501859 130.096245 271.694198 137.479852 274.215329 
L 178.754761 153.334002 
z
" style="fill: #f7b6d2"/>
   </g>
   <g id="patch_17">
    <path d="M 137.723923 274.283355 
C 149.735988 278.384872 162.292595 280.673105 174.979305 281.072528 
C 187.666015 281.471952 200.341695 279.978122 212.587976 276.640345 
L 178.998832 153.402027 
z
" style="fill: #c7c7c7"/>
   </g>
   <g id="patch_18">
    <path d="M 212.841314 276.585131 
C 220.840081 274.405032 228.607634 271.451364 236.033993 267.765947 
C 243.460351 264.080531 250.5103 259.680842 257.084018 254.629176 
L 179.252171 153.346813 
z
" style="fill: #dbdb8d"/>
   </g>
   <g id="patch_19">
    <path d="M 257.275847 254.468213 
C 266.757755 247.181708 275.169631 238.599647 282.264781 228.973715 
C 289.359931 219.347783 295.06831 208.773009 299.222508 197.559519 
L 179.444 153.18585 
z
" style="fill: #bcbd22"/>
   </g>
   <g id="patch_20">
    <path d="M 299.305527 197.391022 
C 300.405989 194.420529 301.395568 191.410127 302.272212 188.36606 
C 303.148856 185.321993 303.911957 182.246368 304.559934 179.145566 
L 179.527019 153.017353 
z
" style="fill: #17becf"/>
   </g>
   <g id="patch_21">
    <path d="M 304.577899 179.053004 
C 305.475192 174.759132 306.1507 170.421887 306.601738 166.058513 
C 307.052775 161.695139 307.278743 157.311425 307.278744 152.924801 
L 179.544984 152.924791 
z
" style="fill: #9edae5"/>
   </g>
   <g id="patch_22">
    <path d="M 253.526941 152.870067 
C 253.526941 147.036156 252.841786 141.22238 251.485568 135.5483 
C 250.129351 129.87422 248.11143 124.379001 245.473306 119.175654 
L 179.015581 152.870067 
z
" style="fill: #ffffff"/>
   </g>
   <g id="patch_23">
    <path d="M 245.473306 119.175654 
C 244.637689 117.52751 243.74105 115.911021 242.785249 114.329541 
C 241.829448 112.74806 240.815148 111.202683 239.744451 109.696613 
L 179.015581 152.870067 
z
" style="fill: #ffffff"/>
   </g>
   <g id="patch_24">
    <path d="M 239.744451 109.696613 
C 238.508984 107.958775 237.199491 106.274769 235.819588 104.649246 
C 234.439684 103.023723 232.990641 101.45818 231.476461 99.956942 
L 179.015581 152.870067 
z
" style="fill: #ffffff"/>
   </g>
   <g id="patch_25">
    <path d="M 231.476461 99.956942 
C 228.851075 97.353995 226.0356 94.950049 223.053374 92.765029 
C 220.071147 90.58001 216.930431 88.619971 213.657257 86.901158 
L 179.015581 152.870067 
z
" style="fill: #ffffff"/>
   </g>
   <g id="patch_26">
    <path d="M 213.657257 86.901158 
C 210.25807 85.116172 206.725997 83.596578 203.092608 82.355958 
C 199.45922 81.115338 195.735371 80.157399 191.954343 79.490702 
L 179.015581 152.870067 
z
" style="fill: #ffffff"/>
   </g>
   <g id="patch_27">
    <path d="M 191.954343 79.490702 
C 186.349501 78.502417 180.649836 78.159539 174.966937 78.468782 
C 169.284039 78.778024 163.655235 79.737355 158.190728 81.327993 
L 179.015581 152.870067 
z
" style="fill: #ffffff"/>
   </g>
   <g id="patch_28">
    <path d="M 158.190728 81.327993 
C 156.825996 81.725247 155.47291 82.161469 154.133132 82.636125 
C 152.793354 83.110781 151.467432 83.623677 150.156993 84.174181 
L 179.015581 152.870067 
z
" style="fill: #ffffff"/>
   </g>
   <g id="patch_29">
    <path d="M 150.156993 84.174181 
C 146.223534 85.826596 142.439256 87.8138 138.845898 90.113877 
C 135.25254 92.413954 131.863362 95.018415 128.715746 97.898534 
L 179.015581 152.870067 
z
" style="fill: #ffffff"/>
   </g>
   <g id="patch_30">
    <path d="M 128.715746 97.898534 
C 126.722988 99.72194 124.830852 101.652356 123.047721 103.681232 
C 121.26459 105.710108 119.593099 107.834444 118.040653 110.04483 
L 179.015581 152.870067 
z
" style="fill: #ffffff"/>
   </g>
   <g id="patch_31">
    <path d="M 118.040653 110.04483 
C 113.127392 117.040371 109.454455 124.829555 107.18292 133.070784 
C 104.911384 141.312013 104.07495 149.883025 104.710299 158.407933 
L 179.015581 152.870067 
z
" style="fill: #ffffff"/>
   </g>
   <g id="patch_32">
    <path d="M 104.710299 158.407933 
C 104.847638 160.250695 105.053479 162.087711 105.327396 163.91517 
C 105.601314 165.742628 105.943117 167.559265 106.352098 169.361311 
L 179.015581 152.870067 
z
" style="fill: #ffffff"/>
   </g>
   <g id="patch_33">
    <path d="M 106.352098 169.361311 
C 106.949918 171.995416 107.690528 174.595065 108.570648 177.148746 
C 109.450768 179.702426 110.469096 182.206361 111.621123 184.64946 
L 179.015581 152.870067 
z
" style="fill: #ffffff"/>
   </g>
   <g id="patch_34">
    <path d="M 111.621123 184.64946 
C 113.01584 187.607233 114.603761 190.469986 116.37458 193.219142 
C 118.1454 195.968298 120.095281 198.5979 122.211572 201.090886 
L 179.015581 152.870067 
z
" style="fill: #ffffff"/>
   </g>
   <g id="patch_35">
    <path d="M 122.211572 201.090886 
C 123.591475 202.716409 125.040518 204.281951 126.554698 205.78319 
C 128.068879 207.284429 129.646801 208.719981 131.284109 210.085881 
L 179.015581 152.870067 
z
" style="fill: #ffffff"/>
   </g>
   <g id="patch_36">
    <path d="M 131.284109 210.085881 
C 134.778933 213.001388 138.533545 215.59057 142.500838 217.820943 
C 146.468132 220.051317 150.631446 221.913515 154.93855 223.384174 
L 179.015581 152.870067 
z
" style="fill: #ffffff"/>
   </g>
   <g id="patch_37">
    <path d="M 154.93855 223.384174 
C 161.945588 225.776726 169.270276 227.111529 176.670856 227.344526 
C 184.071437 227.577523 191.465584 226.706122 198.609247 224.759085 
L 179.015581 152.870067 
z
" style="fill: #ffffff"/>
   </g>
   <g id="patch_38">
    <path d="M 198.609247 224.759085 
C 203.275195 223.487361 207.806267 221.764388 212.13831 219.614562 
C 216.470352 217.464735 220.582822 214.89825 224.417491 211.951445 
L 179.015581 152.870067 
z
" style="fill: #ffffff"/>
   </g>
   <g id="patch_39">
    <path d="M 224.417491 211.951445 
C 229.948604 207.700984 234.855532 202.694782 238.994369 197.079655 
C 243.133207 191.464528 246.463094 185.29591 248.886377 178.754707 
L 179.015581 152.870067 
z
" style="fill: #ffffff"/>
   </g>
   <g id="patch_40">
    <path d="M 248.886377 178.754707 
C 249.528313 177.021919 250.105567 175.265851 250.616943 173.490146 
C 251.128319 171.71444 251.573461 169.920326 251.951448 168.111525 
L 179.015581 152.870067 
z
" style="fill: #ffffff"/>
   </g>
   <g id="patch_41">
    <path d="M 251.951448 168.111525 
C 252.474869 165.606766 252.868915 163.076707 253.13202 160.531405 
C 253.395126 157.986103 253.52694 155.428937 253.526941 152.870073 
L 179.015581 152.870067 
z
" style="fill: #ffffff"/>
   </g>
   <g id="matplotlib.axis_1"/>
   <g id="matplotlib.axis_2"/>
   <g id="text_1">
    <!-- A [41] -->
    <g transform="translate(316.190915 122.841811) scale(0.1 -0.1)">
     <defs>
      <path id="DejaVuSans-41" d="M 2188 4044 
L 1331 1722 
L 3047 1722 
L 2188 4044 
z
M 1831 4666 
L 2547 4666 
L 4325 0 
L 3669 0 
L 3244 1197 
L 1141 1197 
L 716 0 
L 50 0 
L 1831 4666 
z
" transform="scale(0.015625)"/>
      <path id="DejaVuSans-20" transform="scale(0.015625)"/>
      <path id="DejaVuSans-5b" d="M 550 4863 
L 1875 4863 
L 1875 4416 
L 1125 4416 
L 1125 -397 
L 1875 -397 
L 1875 -844 
L 550 -844 
L 550 4863 
z
" transform="scale(0.015625)"/>
      <path id="DejaVuSans-34" d="M 2419 4116 
L 825 1625 
L 2419 1625 
L 2419 4116 
z
M 2253 4666 
L 3047 4666 
L 3047 1625 
L 3713 1625 
L 3713 1100 
L 3047 1100 
L 3047 0 
L 2419 0 
L 2419 1100 
L 313 1100 
L 313 1709 
L 2253 4666 
z
" transform="scale(0.015625)"/>
      <path id="DejaVuSans-31" d="M 794 531 
L 1825 531 
L 1825 4091 
L 703 3866 
L 703 4441 
L 1819 4666 
L 2450 4666 
L 2450 531 
L 3481 531 
L 3481 0 
L 794 0 
L 794 531 
z
" transform="scale(0.015625)"/>
      <path id="DejaVuSans-5d" d="M 1947 4863 
L 1947 -844 
L 622 -844 
L 622 -397 
L 1369 -397 
L 1369 4416 
L 622 4416 
L 622 4863 
L 1947 4863 
z
" transform="scale(0.015625)"/>
     </defs>
     <use xlink:href="#DejaVuSans-41"/>
     <use xlink:href="#DejaVuSans-20" x="68.408203"/>
     <use xlink:href="#DejaVuSans-5b" x="100.195312"/>
     <use xlink:href="#DejaVuSans-34" x="139.208984"/>
     <use xlink:href="#DejaVuSans-31" x="202.832031"/>
     <use xlink:href="#DejaVuSans-5d" x="266.455078"/>
    </g>
   </g>
   <g id="text_2">
    <!-- C [13] -->
    <g transform="translate(299.722453 82.677732) scale(0.1 -0.1)">
     <defs>
      <path id="DejaVuSans-43" d="M 4122 4306 
L 4122 3641 
Q 3803 3938 3442 4084 
Q 3081 4231 2675 4231 
Q 1875 4231 1450 3742 
Q 1025 3253 1025 2328 
Q 1025 1406 1450 917 
Q 1875 428 2675 428 
Q 3081 428 3442 575 
Q 3803 722 4122 1019 
L 4122 359 
Q 3791 134 3420 21 
Q 3050 -91 2638 -91 
Q 1578 -91 968 557 
Q 359 1206 359 2328 
Q 359 3453 968 4101 
Q 1578 4750 2638 4750 
Q 3056 4750 3426 4639 
Q 3797 4528 4122 4306 
z
" transform="scale(0.015625)"/>
      <path id="DejaVuSans-33" d="M 2597 2516 
Q 3050 2419 3304 2112 
Q 3559 1806 3559 1356 
Q 3559 666 3084 287 
Q 2609 -91 1734 -91 
Q 1441 -91 1130 -33 
Q 819 25 488 141 
L 488 750 
Q 750 597 1062 519 
Q 1375 441 1716 441 
Q 2309 441 2620 675 
Q 2931 909 2931 1356 
Q 2931 1769 2642 2001 
Q 2353 2234 1838 2234 
L 1294 2234 
L 1294 2753 
L 1863 2753 
Q 2328 2753 2575 2939 
Q 2822 3125 2822 3475 
Q 2822 3834 2567 4026 
Q 2313 4219 1838 4219 
Q 1578 4219 1281 4162 
Q 984 4106 628 3988 
L 628 4550 
Q 988 4650 1302 4700 
Q 1616 4750 1894 4750 
Q 2613 4750 3031 4423 
Q 3450 4097 3450 3541 
Q 3450 3153 3228 2886 
Q 3006 2619 2597 2516 
z
" transform="scale(0.015625)"/>
     </defs>
     <use xlink:href="#DejaVuSans-43"/>
     <use xlink:href="#DejaVuSans-20" x="69.824219"/>
     <use xlink:href="#DejaVuSans-5b" x="101.611328"/>
     <use xlink:href="#DejaVuSans-31" x="140.625"/>
     <use xlink:href="#DejaVuSans-33" x="204.248047"/>
     <use xlink:href="#DejaVuSans-5d" x="267.871094"/>
    </g>
   </g>
   <g id="text_3">
    <!-- D [15] -->
    <g transform="translate(286.537451 64.354317) scale(0.1 -0.1)">
     <defs>
      <path id="DejaVuSans-44" d="M 1259 4147 
L 1259 519 
L 2022 519 
Q 2988 519 3436 956 
Q 3884 1394 3884 2338 
Q 3884 3275 3436 3711 
Q 2988 4147 2022 4147 
L 1259 4147 
z
M 628 4666 
L 1925 4666 
Q 3281 4666 3915 4102 
Q 4550 3538 4550 2338 
Q 4550 1131 3912 565 
Q 3275 0 1925 0 
L 628 0 
L 628 4666 
z
" transform="scale(0.015625)"/>
      <path id="DejaVuSans-35" d="M 691 4666 
L 3169 4666 
L 3169 4134 
L 1269 4134 
L 1269 2991 
Q 1406 3038 1543 3061 
Q 1681 3084 1819 3084 
Q 2600 3084 3056 2656 
Q 3513 2228 3513 1497 
Q 3513 744 3044 326 
Q 2575 -91 1722 -91 
Q 1428 -91 1123 -41 
Q 819 9 494 109 
L 494 744 
Q 775 591 1075 516 
Q 1375 441 1709 441 
Q 2250 441 2565 725 
Q 2881 1009 2881 1497 
Q 2881 1984 2565 2268 
Q 2250 2553 1709 2553 
Q 1456 2553 1204 2497 
Q 953 2441 691 2322 
L 691 4666 
z
" transform="scale(0.015625)"/>
     </defs>
     <use xlink:href="#DejaVuSans-44"/>
     <use xlink:href="#DejaVuSans-20" x="77.001953"/>
     <use xlink:href="#DejaVuSans-5b" x="108.789062"/>
     <use xlink:href="#DejaVuSans-31" x="147.802734"/>
     <use xlink:href="#DejaVuSans-35" x="211.425781"/>
     <use xlink:href="#DejaVuSans-5d" x="275.048828"/>
    </g>
   </g>
   <g id="text_4">
    <!-- E [26] -->
    <g transform="translate(262.372832 41.859192) scale(0.1 -0.1)">
     <defs>
      <path id="DejaVuSans-45" d="M 628 4666 
L 3578 4666 
L 3578 4134 
L 1259 4134 
L 1259 2753 
L 3481 2753 
L 3481 2222 
L 1259 2222 
L 1259 531 
L 3634 531 
L 3634 0 
L 628 0 
L 628 4666 
z
" transform="scale(0.015625)"/>
      <path id="DejaVuSans-32" d="M 1228 531 
L 3431 531 
L 3431 0 
L 469 0 
L 469 531 
Q 828 903 1448 1529 
Q 2069 2156 2228 2338 
Q 2531 2678 2651 2914 
Q 2772 3150 2772 3378 
Q 2772 3750 2511 3984 
Q 2250 4219 1831 4219 
Q 1534 4219 1204 4116 
Q 875 4013 500 3803 
L 500 4441 
Q 881 4594 1212 4672 
Q 1544 4750 1819 4750 
Q 2544 4750 2975 4387 
Q 3406 4025 3406 3419 
Q 3406 3131 3298 2873 
Q 3191 2616 2906 2266 
Q 2828 2175 2409 1742 
Q 1991 1309 1228 531 
z
" transform="scale(0.015625)"/>
      <path id="DejaVuSans-36" d="M 2113 2584 
Q 1688 2584 1439 2293 
Q 1191 2003 1191 1497 
Q 1191 994 1439 701 
Q 1688 409 2113 409 
Q 2538 409 2786 701 
Q 3034 994 3034 1497 
Q 3034 2003 2786 2293 
Q 2538 2584 2113 2584 
z
M 3366 4563 
L 3366 3988 
Q 3128 4100 2886 4159 
Q 2644 4219 2406 4219 
Q 1781 4219 1451 3797 
Q 1122 3375 1075 2522 
Q 1259 2794 1537 2939 
Q 1816 3084 2150 3084 
Q 2853 3084 3261 2657 
Q 3669 2231 3669 1497 
Q 3669 778 3244 343 
Q 2819 -91 2113 -91 
Q 1303 -91 875 529 
Q 447 1150 447 2328 
Q 447 3434 972 4092 
Q 1497 4750 2381 4750 
Q 2619 4750 2861 4703 
Q 3103 4656 3366 4563 
z
" transform="scale(0.015625)"/>
     </defs>
     <use xlink:href="#DejaVuSans-45"/>
     <use xlink:href="#DejaVuSans-20" x="63.183594"/>
     <use xlink:href="#DejaVuSans-5b" x="94.970703"/>
     <use xlink:href="#DejaVuSans-32" x="133.984375"/>
     <use xlink:href="#DejaVuSans-36" x="197.607422"/>
     <use xlink:href="#DejaVuSans-5d" x="261.230469"/>
    </g>
   </g>
   <g id="text_5">
    <!-- F [27] -->
    <g transform="translate(224.589955 22.156308) scale(0.1 -0.1)">
     <defs>
      <path id="DejaVuSans-46" d="M 628 4666 
L 3309 4666 
L 3309 4134 
L 1259 4134 
L 1259 2759 
L 3109 2759 
L 3109 2228 
L 1259 2228 
L 1259 0 
L 628 0 
L 628 4666 
z
" transform="scale(0.015625)"/>
      <path id="DejaVuSans-37" d="M 525 4666 
L 3525 4666 
L 3525 4397 
L 1831 0 
L 1172 0 
L 2766 4134 
L 525 4134 
L 525 4666 
z
" transform="scale(0.015625)"/>
     </defs>
     <use xlink:href="#DejaVuSans-46"/>
     <use xlink:href="#DejaVuSans-20" x="57.519531"/>
     <use xlink:href="#DejaVuSans-5b" x="89.306641"/>
     <use xlink:href="#DejaVuSans-32" x="128.320312"/>
     <use xlink:href="#DejaVuSans-37" x="191.943359"/>
     <use xlink:href="#DejaVuSans-5d" x="255.566406"/>
    </g>
   </g>
   <g id="text_6">
    <!-- G [40] -->
    <g transform="translate(139.89739 14.798437) scale(0.1 -0.1)">
     <defs>
      <path id="DejaVuSans-47" d="M 3809 666 
L 3809 1919 
L 2778 1919 
L 2778 2438 
L 4434 2438 
L 4434 434 
Q 4069 175 3628 42 
Q 3188 -91 2688 -91 
Q 1594 -91 976 548 
Q 359 1188 359 2328 
Q 359 3472 976 4111 
Q 1594 4750 2688 4750 
Q 3144 4750 3555 4637 
Q 3966 4525 4313 4306 
L 4313 3634 
Q 3963 3931 3569 4081 
Q 3175 4231 2741 4231 
Q 1884 4231 1454 3753 
Q 1025 3275 1025 2328 
Q 1025 1384 1454 906 
Q 1884 428 2741 428 
Q 3075 428 3337 486 
Q 3600 544 3809 666 
z
" transform="scale(0.015625)"/>
      <path id="DejaVuSans-30" d="M 2034 4250 
Q 1547 4250 1301 3770 
Q 1056 3291 1056 2328 
Q 1056 1369 1301 889 
Q 1547 409 2034 409 
Q 2525 409 2770 889 
Q 3016 1369 3016 2328 
Q 3016 3291 2770 3770 
Q 2525 4250 2034 4250 
z
M 2034 4750 
Q 2819 4750 3233 4129 
Q 3647 3509 3647 2328 
Q 3647 1150 3233 529 
Q 2819 -91 2034 -91 
Q 1250 -91 836 529 
Q 422 1150 422 2328 
Q 422 3509 836 4129 
Q 1250 4750 2034 4750 
z
" transform="scale(0.015625)"/>
     </defs>
     <use xlink:href="#DejaVuSans-47"/>
     <use xlink:href="#DejaVuSans-20" x="77.490234"/>
     <use xlink:href="#DejaVuSans-5b" x="109.277344"/>
     <use xlink:href="#DejaVuSans-34" x="148.291016"/>
     <use xlink:href="#DejaVuSans-30" x="211.914062"/>
     <use xlink:href="#DejaVuSans-5d" x="275.537109"/>
    </g>
   </g>
   <g id="text_7">
    <!-- H [10] -->
    <g transform="translate(100.690098 22.686624) scale(0.1 -0.1)">
     <defs>
      <path id="DejaVuSans-48" d="M 628 4666 
L 1259 4666 
L 1259 2753 
L 3553 2753 
L 3553 4666 
L 4184 4666 
L 4184 0 
L 3553 0 
L 3553 2222 
L 1259 2222 
L 1259 0 
L 628 0 
L 628 4666 
z
" transform="scale(0.015625)"/>
     </defs>
     <use xlink:href="#DejaVuSans-48"/>
     <use xlink:href="#DejaVuSans-20" x="75.195312"/>
     <use xlink:href="#DejaVuSans-5b" x="106.982422"/>
     <use xlink:href="#DejaVuSans-31" x="145.996094"/>
     <use xlink:href="#DejaVuSans-30" x="209.619141"/>
     <use xlink:href="#DejaVuSans-5d" x="273.242188"/>
    </g>
   </g>
   <g id="text_8">
    <!-- I [30] -->
    <g transform="translate(76.32386 36.84094) scale(0.1 -0.1)">
     <defs>
      <path id="DejaVuSans-49" d="M 628 4666 
L 1259 4666 
L 1259 0 
L 628 0 
L 628 4666 
z
" transform="scale(0.015625)"/>
     </defs>
     <use xlink:href="#DejaVuSans-49"/>
     <use xlink:href="#DejaVuSans-20" x="29.492188"/>
     <use xlink:href="#DejaVuSans-5b" x="61.279297"/>
     <use xlink:href="#DejaVuSans-33" x="100.292969"/>
     <use xlink:href="#DejaVuSans-30" x="163.916016"/>
     <use xlink:href="#DejaVuSans-5d" x="227.539062"/>
    </g>
   </g>
   <g id="text_9">
    <!-- K [19] -->
    <g transform="translate(42.812355 62.522005) scale(0.1 -0.1)">
     <defs>
      <path id="DejaVuSans-4b" d="M 628 4666 
L 1259 4666 
L 1259 2694 
L 3353 4666 
L 4166 4666 
L 1850 2491 
L 4331 0 
L 3500 0 
L 1259 2247 
L 1259 0 
L 628 0 
L 628 4666 
z
" transform="scale(0.015625)"/>
      <path id="DejaVuSans-39" d="M 703 97 
L 703 672 
Q 941 559 1184 500 
Q 1428 441 1663 441 
Q 2288 441 2617 861 
Q 2947 1281 2994 2138 
Q 2813 1869 2534 1725 
Q 2256 1581 1919 1581 
Q 1219 1581 811 2004 
Q 403 2428 403 3163 
Q 403 3881 828 4315 
Q 1253 4750 1959 4750 
Q 2769 4750 3195 4129 
Q 3622 3509 3622 2328 
Q 3622 1225 3098 567 
Q 2575 -91 1691 -91 
Q 1453 -91 1209 -44 
Q 966 3 703 97 
z
M 1959 2075 
Q 2384 2075 2632 2365 
Q 2881 2656 2881 3163 
Q 2881 3666 2632 3958 
Q 2384 4250 1959 4250 
Q 1534 4250 1286 3958 
Q 1038 3666 1038 3163 
Q 1038 2656 1286 2365 
Q 1534 2075 1959 2075 
z
" transform="scale(0.015625)"/>
     </defs>
     <use xlink:href="#DejaVuSans-4b"/>
     <use xlink:href="#DejaVuSans-20" x="65.576172"/>
     <use xlink:href="#DejaVuSans-5b" x="97.363281"/>
     <use xlink:href="#DejaVuSans-31" x="136.376953"/>
     <use xlink:href="#DejaVuSans-39" x="200"/>
     <use xlink:href="#DejaVuSans-5d" x="263.623047"/>
    </g>
   </g>
   <g id="text_10">
    <!-- L [60] -->
    <g transform="translate(13.76849 118.152228) scale(0.1 -0.1)">
     <defs>
      <path id="DejaVuSans-4c" d="M 628 4666 
L 1259 4666 
L 1259 531 
L 3531 531 
L 3531 0 
L 628 0 
L 628 4666 
z
" transform="scale(0.015625)"/>
     </defs>
     <use xlink:href="#DejaVuSans-4c"/>
     <use xlink:href="#DejaVuSans-20" x="55.712891"/>
     <use xlink:href="#DejaVuSans-5b" x="87.5"/>
     <use xlink:href="#DejaVuSans-36" x="126.513672"/>
     <use xlink:href="#DejaVuSans-30" x="190.136719"/>
     <use xlink:href="#DejaVuSans-5d" x="253.759766"/>
    </g>
   </g>
   <g id="text_11">
    <!-- M [13] -->
    <g transform="translate(7.2 176.536244) scale(0.1 -0.1)">
     <defs>
      <path id="DejaVuSans-4d" d="M 628 4666 
L 1569 4666 
L 2759 1491 
L 3956 4666 
L 4897 4666 
L 4897 0 
L 4281 0 
L 4281 4097 
L 3078 897 
L 2444 897 
L 1241 4097 
L 1241 0 
L 628 0 
L 628 4666 
z
" transform="scale(0.015625)"/>
     </defs>
     <use xlink:href="#DejaVuSans-4d"/>
     <use xlink:href="#DejaVuSans-20" x="86.279297"/>
     <use xlink:href="#DejaVuSans-5b" x="118.066406"/>
     <use xlink:href="#DejaVuSans-31" x="157.080078"/>
     <use xlink:href="#DejaVuSans-33" x="220.703125"/>
     <use xlink:href="#DejaVuSans-5d" x="284.326172"/>
    </g>
   </g>
   <g id="text_12">
    <!-- N [19] -->
    <g transform="translate(14.485887 201.585513) scale(0.1 -0.1)">
     <defs>
      <path id="DejaVuSans-4e" d="M 628 4666 
L 1478 4666 
L 3547 763 
L 3547 4666 
L 4159 4666 
L 4159 0 
L 3309 0 
L 1241 3903 
L 1241 0 
L 628 0 
L 628 4666 
z
" transform="scale(0.015625)"/>
     </defs>
     <use xlink:href="#DejaVuSans-4e"/>
     <use xlink:href="#DejaVuSans-20" x="74.804688"/>
     <use xlink:href="#DejaVuSans-5b" x="106.591797"/>
     <use xlink:href="#DejaVuSans-31" x="145.605469"/>
     <use xlink:href="#DejaVuSans-39" x="209.228516"/>
     <use xlink:href="#DejaVuSans-5d" x="272.851562"/>
    </g>
   </g>
   <g id="text_13">
    <!-- P [23] -->
    <g transform="translate(30.709178 232.004477) scale(0.1 -0.1)">
     <defs>
      <path id="DejaVuSans-50" d="M 1259 4147 
L 1259 2394 
L 2053 2394 
Q 2494 2394 2734 2622 
Q 2975 2850 2975 3272 
Q 2975 3691 2734 3919 
Q 2494 4147 2053 4147 
L 1259 4147 
z
M 628 4666 
L 2053 4666 
Q 2838 4666 3239 4311 
Q 3641 3956 3641 3272 
Q 3641 2581 3239 2228 
Q 2838 1875 2053 1875 
L 1259 1875 
L 1259 0 
L 628 0 
L 628 4666 
z
" transform="scale(0.015625)"/>
     </defs>
     <use xlink:href="#DejaVuSans-50"/>
     <use xlink:href="#DejaVuSans-20" x="60.302734"/>
     <use xlink:href="#DejaVuSans-5b" x="92.089844"/>
     <use xlink:href="#DejaVuSans-32" x="131.103516"/>
     <use xlink:href="#DejaVuSans-33" x="194.726562"/>
     <use xlink:href="#DejaVuSans-5d" x="258.349609"/>
    </g>
   </g>
   <g id="text_14">
    <!-- Q [15] -->
    <g transform="translate(48.1365 255.786425) scale(0.1 -0.1)">
     <defs>
      <path id="DejaVuSans-51" d="M 2522 4238 
Q 1834 4238 1429 3725 
Q 1025 3213 1025 2328 
Q 1025 1447 1429 934 
Q 1834 422 2522 422 
Q 3209 422 3611 934 
Q 4013 1447 4013 2328 
Q 4013 3213 3611 3725 
Q 3209 4238 2522 4238 
z
M 3406 84 
L 4238 -825 
L 3475 -825 
L 2784 -78 
Q 2681 -84 2626 -87 
Q 2572 -91 2522 -91 
Q 1538 -91 948 567 
Q 359 1225 359 2328 
Q 359 3434 948 4092 
Q 1538 4750 2522 4750 
Q 3503 4750 4090 4092 
Q 4678 3434 4678 2328 
Q 4678 1516 4351 937 
Q 4025 359 3406 84 
z
" transform="scale(0.015625)"/>
     </defs>
     <use xlink:href="#DejaVuSans-51"/>
     <use xlink:href="#DejaVuSans-20" x="78.710938"/>
     <use xlink:href="#DejaVuSans-5b" x="110.498047"/>
     <use xlink:href="#DejaVuSans-31" x="149.511719"/>
     <use xlink:href="#DejaVuSans-35" x="213.134766"/>
     <use xlink:href="#DejaVuSans-5d" x="276.757812"/>
    </g>
   </g>
   <g id="text_15">
    <!-- R [32] -->
    <g transform="translate(79.243702 278.572173) scale(0.1 -0.1)">
     <defs>
      <path id="DejaVuSans-52" d="M 2841 2188 
Q 3044 2119 3236 1894 
Q 3428 1669 3622 1275 
L 4263 0 
L 3584 0 
L 2988 1197 
Q 2756 1666 2539 1819 
Q 2322 1972 1947 1972 
L 1259 1972 
L 1259 0 
L 628 0 
L 628 4666 
L 2053 4666 
Q 2853 4666 3247 4331 
Q 3641 3997 3641 3322 
Q 3641 2881 3436 2590 
Q 3231 2300 2841 2188 
z
M 1259 4147 
L 1259 2491 
L 2053 2491 
Q 2509 2491 2742 2702 
Q 2975 2913 2975 3322 
Q 2975 3731 2742 3939 
Q 2509 4147 2053 4147 
L 1259 4147 
z
" transform="scale(0.015625)"/>
     </defs>
     <use xlink:href="#DejaVuSans-52"/>
     <use xlink:href="#DejaVuSans-20" x="69.482422"/>
     <use xlink:href="#DejaVuSans-5b" x="101.269531"/>
     <use xlink:href="#DejaVuSans-33" x="140.283203"/>
     <use xlink:href="#DejaVuSans-32" x="203.90625"/>
     <use xlink:href="#DejaVuSans-5d" x="267.529297"/>
    </g>
   </g>
   <g id="text_16">
    <!-- S [52] -->
    <g transform="translate(144.522665 296.598953) scale(0.1 -0.1)">
     <defs>
      <path id="DejaVuSans-53" d="M 3425 4513 
L 3425 3897 
Q 3066 4069 2747 4153 
Q 2428 4238 2131 4238 
Q 1616 4238 1336 4038 
Q 1056 3838 1056 3469 
Q 1056 3159 1242 3001 
Q 1428 2844 1947 2747 
L 2328 2669 
Q 3034 2534 3370 2195 
Q 3706 1856 3706 1288 
Q 3706 609 3251 259 
Q 2797 -91 1919 -91 
Q 1588 -91 1214 -16 
Q 841 59 441 206 
L 441 856 
Q 825 641 1194 531 
Q 1563 422 1919 422 
Q 2459 422 2753 634 
Q 3047 847 3047 1241 
Q 3047 1584 2836 1778 
Q 2625 1972 2144 2069 
L 1759 2144 
Q 1053 2284 737 2584 
Q 422 2884 422 3419 
Q 422 4038 858 4394 
Q 1294 4750 2059 4750 
Q 2388 4750 2728 4690 
Q 3069 4631 3425 4513 
z
" transform="scale(0.015625)"/>
     </defs>
     <use xlink:href="#DejaVuSans-53"/>
     <use xlink:href="#DejaVuSans-20" x="63.476562"/>
     <use xlink:href="#DejaVuSans-5b" x="95.263672"/>
     <use xlink:href="#DejaVuSans-35" x="134.277344"/>
     <use xlink:href="#DejaVuSans-32" x="197.900391"/>
     <use xlink:href="#DejaVuSans-5d" x="261.523438"/>
    </g>
   </g>
   <g id="text_17">
    <!-- T [34] -->
    <g transform="translate(241.712175 281.967236) scale(0.1 -0.1)">
     <defs>
      <path id="DejaVuSans-54" d="M -19 4666 
L 3928 4666 
L 3928 4134 
L 2272 4134 
L 2272 0 
L 1638 0 
L 1638 4134 
L -19 4134 
L -19 4666 
z
" transform="scale(0.015625)"/>
     </defs>
     <use xlink:href="#DejaVuSans-54"/>
     <use xlink:href="#DejaVuSans-20" x="61.083984"/>
     <use xlink:href="#DejaVuSans-5b" x="92.871094"/>
     <use xlink:href="#DejaVuSans-33" x="131.884766"/>
     <use xlink:href="#DejaVuSans-34" x="195.507812"/>
     <use xlink:href="#DejaVuSans-5d" x="259.130859"/>
    </g>
   </g>
   <g id="text_18">
    <!-- V [49] -->
    <g transform="translate(292.546859 239.311876) scale(0.1 -0.1)">
     <defs>
      <path id="DejaVuSans-56" d="M 1831 0 
L 50 4666 
L 709 4666 
L 2188 738 
L 3669 4666 
L 4325 4666 
L 2547 0 
L 1831 0 
z
" transform="scale(0.015625)"/>
     </defs>
     <use xlink:href="#DejaVuSans-56"/>
     <use xlink:href="#DejaVuSans-20" x="68.408203"/>
     <use xlink:href="#DejaVuSans-5b" x="100.195312"/>
     <use xlink:href="#DejaVuSans-34" x="139.208984"/>
     <use xlink:href="#DejaVuSans-39" x="202.832031"/>
     <use xlink:href="#DejaVuSans-5d" x="266.455078"/>
    </g>
   </g>
   <g id="text_19">
    <!-- W [13] -->
    <g transform="translate(314.546731 194.660305) scale(0.1 -0.1)">
     <defs>
      <path id="DejaVuSans-57" d="M 213 4666 
L 850 4666 
L 1831 722 
L 2809 4666 
L 3519 4666 
L 4500 722 
L 5478 4666 
L 6119 4666 
L 4947 0 
L 4153 0 
L 3169 4050 
L 2175 0 
L 1381 0 
L 213 4666 
z
" transform="scale(0.015625)"/>
     </defs>
     <use xlink:href="#DejaVuSans-57"/>
     <use xlink:href="#DejaVuSans-20" x="98.876953"/>
     <use xlink:href="#DejaVuSans-5b" x="130.664062"/>
     <use xlink:href="#DejaVuSans-31" x="169.677734"/>
     <use xlink:href="#DejaVuSans-33" x="233.300781"/>
     <use xlink:href="#DejaVuSans-5d" x="296.923828"/>
    </g>
   </g>
   <g id="text_20">
    <!-- Y [18] -->
    <g transform="translate(319.307413 170.13126) scale(0.1 -0.1)">
     <defs>
      <path id="DejaVuSans-59" d="M -13 4666 
L 666 4666 
L 1959 2747 
L 3244 4666 
L 3922 4666 
L 2272 2222 
L 2272 0 
L 1638 0 
L 1638 2222 
L -13 4666 
z
" transform="scale(0.015625)"/>
      <path id="DejaVuSans-38" d="M 2034 2216 
Q 1584 2216 1326 1975 
Q 1069 1734 1069 1313 
Q 1069 891 1326 650 
Q 1584 409 2034 409 
Q 2484 409 2743 651 
Q 3003 894 3003 1313 
Q 3003 1734 2745 1975 
Q 2488 2216 2034 2216 
z
M 1403 2484 
Q 997 2584 770 2862 
Q 544 3141 544 3541 
Q 544 4100 942 4425 
Q 1341 4750 2034 4750 
Q 2731 4750 3128 4425 
Q 3525 4100 3525 3541 
Q 3525 3141 3298 2862 
Q 3072 2584 2669 2484 
Q 3125 2378 3379 2068 
Q 3634 1759 3634 1313 
Q 3634 634 3220 271 
Q 2806 -91 2034 -91 
Q 1263 -91 848 271 
Q 434 634 434 1313 
Q 434 1759 690 2068 
Q 947 2378 1403 2484 
z
M 1172 3481 
Q 1172 3119 1398 2916 
Q 1625 2713 2034 2713 
Q 2441 2713 2670 2916 
Q 2900 3119 2900 3481 
Q 2900 3844 2670 4047 
Q 2441 4250 2034 4250 
Q 1625 4250 1398 4047 
Q 1172 3844 1172 3481 
z
" transform="scale(0.015625)"/>
     </defs>
     <use xlink:href="#DejaVuSans-59"/>
     <use xlink:href="#DejaVuSans-20" x="61.083984"/>
     <use xlink:href="#DejaVuSans-5b" x="92.871094"/>
     <use xlink:href="#DejaVuSans-31" x="131.884766"/>
     <use xlink:href="#DejaVuSans-38" x="195.507812"/>
     <use xlink:href="#DejaVuSans-5d" x="259.130859"/>
    </g>
   </g>
   <g id="text_21">
    <!-- F1RPV0 [549] -->
    <g transform="translate(137.997143 152.870067) scale(0.12 -0.12)">
     <use xlink:href="#DejaVuSans-46"/>
     <use xlink:href="#DejaVuSans-31" x="57.519531"/>
     <use xlink:href="#DejaVuSans-52" x="121.142578"/>
     <use xlink:href="#DejaVuSans-50" x="190.625"/>
     <use xlink:href="#DejaVuSans-56" x="250.927734"/>
     <use xlink:href="#DejaVuSans-30" x="319.335938"/>
     <use xlink:href="#DejaVuSans-20" x="382.958984"/>
     <use xlink:href="#DejaVuSans-5b" x="414.746094"/>
     <use xlink:href="#DejaVuSans-35" x="453.759766"/>
     <use xlink:href="#DejaVuSans-34" x="517.382812"/>
     <use xlink:href="#DejaVuSans-39" x="581.005859"/>
     <use xlink:href="#DejaVuSans-5d" x="644.628906"/>
    </g>
   </g>
  </g>
 </g>
</svg>
