<?xml version="1.0" encoding="utf-8" standalone="no"?>
<!DOCTYPE svg PUBLIC "-//W3C//DTD SVG 1.1//EN"
  "http://www.w3.org/Graphics/SVG/1.1/DTD/svg11.dtd">
<svg xmlns:xlink="http://www.w3.org/1999/xlink" width="351.835339pt" height="304.498296pt" viewBox="0 0 351.835339 304.498296" xmlns="http://www.w3.org/2000/svg" version="1.1">
 <metadata>
  <rdf:RDF xmlns:dc="http://purl.org/dc/elements/1.1/" xmlns:cc="http://creativecommons.org/ns#" xmlns:rdf="http://www.w3.org/1999/02/22-rdf-syntax-ns#">
   <cc:Work>
    <dc:type rdf:resource="http://purl.org/dc/dcmitype/StillImage"/>
    <dc:date>2024-09-27T16:07:30.338456</dc:date>
    <dc:format>image/svg+xml</dc:format>
    <dc:creator>
     <cc:Agent>
      <dc:title>Matplotlib v3.8.3, https://matplotlib.org/</dc:title>
     </cc:Agent>
    </dc:creator>
   </cc:Work>
  </rdf:RDF>
 </metadata>
 <defs>
  <style type="text/css">*{stroke-linejoin: round; stroke-linecap: butt}</style>
 </defs>
 <g id="figure_1">
  <g id="patch_1">
   <path d="M 0 304.498296 
L 351.835339 304.498296 
L 351.835339 0 
L 0 0 
z
" style="fill: #ffffff"/>
  </g>
  <g id="axes_1">
   <g id="patch_2">
    <path d="M 303.086605 151.242935 
C 303.086605 134.571391 299.822703 118.059982 293.479455 102.642343 
C 287.136208 87.224705 277.835471 73.197018 266.103157 61.352477 
L 175.352845 151.242935 
z
" style="fill: #1f77b4"/>
   </g>
   <g id="patch_3">
    <path d="M 265.939962 61.136623 
C 262.230506 57.391685 258.292795 53.879948 254.149421 50.621563 
C 250.006047 47.363178 245.664951 44.364388 241.151039 41.642399 
L 175.18965 151.027081 
z
" style="fill: #ff7f0e"/>
   </g>
   <g id="patch_4">
    <path d="M 241.056869 41.583138 
C 237.932372 39.698998 234.72858 37.949595 231.454309 36.339744 
C 228.180039 34.729894 224.838294 33.261073 221.438271 31.937324 
L 175.095479 150.96782 
z
" style="fill: #aec7e8"/>
   </g>
   <g id="patch_5">
    <path d="M 221.377516 31.911989 
C 219.866581 31.323728 218.344581 30.764289 216.812345 30.233977 
C 215.280109 29.703665 213.737914 29.202576 212.1866 28.730982 
L 175.034724 150.942485 
z
" style="fill: #ffbb78"/>
   </g>
   <g id="patch_6">
    <path d="M 212.108271 28.710392 
C 207.453203 27.295268 202.721081 26.147267 197.935044 25.272005 
C 193.149007 24.396742 188.316868 23.795646 183.462255 23.471655 
L 174.956395 150.921896 
z
" style="fill: #98df8a"/>
   </g>
   <g id="patch_7">
    <path d="M 183.285756 23.469135 
C 173.974328 22.847703 164.622776 23.248567 155.398684 24.664545 
C 146.174592 26.080524 137.133391 28.503106 128.437104 31.888879 
L 174.779896 150.919375 
z
" style="fill: #2ca02c"/>
   </g>
   <g id="patch_8">
    <path d="M 128.301384 31.92873 
C 126.412682 32.664069 124.541749 33.444256 122.690175 34.26863 
C 120.838601 35.093004 119.006911 35.96133 117.196659 36.872872 
L 174.644176 150.959226 
z
" style="fill: #d62728"/>
   </g>
   <g id="patch_9">
    <path d="M 117.104414 36.925546 
C 111.309085 39.84375 105.744528 43.199301 100.459081 46.963051 
C 95.173635 50.7268 90.182647 54.887818 85.529476 59.409958 
L 174.551931 151.0119 
z
" style="fill: #9467bd"/>
   </g>
   <g id="patch_10">
    <path d="M 85.453007 59.476218 
C 84.290241 60.606241 83.149096 61.758301 82.030193 62.931773 
C 80.911291 64.105244 79.814833 65.299913 78.741416 66.515131 
L 174.475462 151.078161 
z
" style="fill: #ff9896"/>
   </g>
   <g id="patch_11">
    <path d="M 78.614536 66.737331 
C 65.949904 81.074997 56.666498 98.076284 51.451903 116.481978 
C 46.237307 134.887672 45.223521 154.231859 48.485631 173.081798 
L 174.348581 151.300361 
z
" style="fill: #c5b0d5"/>
   </g>
   <g id="patch_12">
    <path d="M 48.487035 173.37682 
C 49.316696 178.170972 50.419595 182.913809 51.79034 187.582137 
C 53.161085 192.250466 54.797437 196.836666 56.691397 201.318313 
L 174.349986 151.595382 
z
" style="fill: #c49c94"/>
   </g>
   <g id="patch_13">
    <path d="M 56.731345 201.416739 
C 58.151646 204.777575 59.715295 208.076013 61.417989 211.302977 
C 63.120683 214.529942 64.96086 217.682471 66.933456 220.75189 
L 174.389935 151.693809 
z
" style="fill: #8c564b"/>
   </g>
   <g id="patch_14">
    <path d="M 67.018983 220.870795 
C 71.405167 227.69583 76.431624 234.087491 82.03019 239.959098 
C 87.628756 245.830706 93.774009 251.155597 100.38261 255.861562 
L 174.475462 151.812714 
z
" style="fill: #e377c2"/>
   </g>
   <g id="patch_15">
    <path d="M 100.49296 255.950054 
C 103.134726 257.831248 105.847179 259.611149 108.62442 261.285887 
C 111.401661 262.960625 114.241677 264.528986 117.138293 265.98756 
L 174.585812 151.901207 
z
" style="fill: #7f7f7f"/>
   </g>
   <g id="patch_16">
    <path d="M 117.224767 266.029566 
C 121.208042 268.035321 125.29363 269.831089 129.464742 271.409491 
C 133.635855 272.987892 137.88677 274.346762 142.200021 275.480517 
L 174.672286 151.943213 
z
" style="fill: #f7b6d2"/>
   </g>
   <g id="patch_17">
    <path d="M 142.378253 275.514868 
C 152.190407 278.094032 162.274993 279.495015 172.418619 279.688172 
C 182.562245 279.88133 192.692857 278.86529 202.596088 276.661552 
L 174.850518 151.977565 
z
" style="fill: #c7c7c7"/>
   </g>
   <g id="patch_18">
    <path d="M 202.808724 276.621619 
C 209.935011 275.035827 216.912243 272.841998 223.663745 270.064241 
C 230.415246 267.286485 236.916192 263.935014 243.095141 260.04666 
L 175.063153 151.937631 
z
" style="fill: #dbdb8d"/>
   </g>
   <g id="patch_19">
    <path d="M 243.301429 259.895277 
C 254.645808 252.756368 264.796134 243.876117 273.379234 233.581004 
C 281.962335 223.285892 288.87172 211.703648 293.853369 199.26009 
L 175.269442 151.786249 
z
" style="fill: #bcbd22"/>
   </g>
   <g id="patch_20">
    <path d="M 293.950753 199.083745 
C 295.005401 196.449363 295.97197 193.780569 296.848851 191.081804 
C 297.725733 188.38304 298.51244 185.655805 299.207663 182.904639 
L 175.366826 151.609903 
z
" style="fill: #17becf"/>
   </g>
   <g id="patch_21">
    <path d="M 299.229641 182.805873 
C 300.521062 177.695408 301.49491 172.509901 302.145598 167.279105 
C 302.796285 162.048309 303.122564 156.782247 303.122564 151.511136 
L 175.388804 151.511137 
z
" style="fill: #9edae5"/>
   </g>
   <g id="patch_22">
    <path d="M 249.372011 151.445437 
C 249.372011 141.72037 247.468068 132.088715 243.76784 123.095092 
C 240.067612 114.10147 234.642183 105.918652 227.798333 99.009337 
L 174.860651 151.445437 
z
" style="fill: #ffffff"/>
   </g>
   <g id="patch_23">
    <path d="M 227.798333 99.009337 
C 225.634484 96.824789 223.337486 94.776277 220.920518 92.875552 
C 218.503549 90.974827 215.971243 89.225533 213.338128 87.637706 
L 174.860651 151.445437 
z
" style="fill: #ffffff"/>
   </g>
   <g id="patch_24">
    <path d="M 213.338128 87.637706 
C 211.515505 86.538624 209.646626 85.518139 207.736635 84.57906 
C 205.826644 83.63998 203.877293 82.783168 201.893946 82.010981 
L 174.860651 151.445437 
z
" style="fill: #ffffff"/>
   </g>
   <g id="patch_25">
    <path d="M 201.893946 82.010981 
C 201.012567 81.667829 200.124734 81.34149 199.23093 81.032141 
C 198.337125 80.722792 197.437512 80.43049 196.532578 80.155393 
L 174.860651 151.445437 
z
" style="fill: #ffffff"/>
   </g>
   <g id="patch_26">
    <path d="M 196.532578 80.155393 
C 193.817122 79.329904 191.056718 78.660237 188.264863 78.149667 
C 185.473008 77.639097 182.65426 77.288458 179.822403 77.099464 
L 174.860651 151.445437 
z
" style="fill: #ffffff"/>
   </g>
   <g id="patch_27">
    <path d="M 179.822403 77.099464 
C 174.390736 76.736961 168.935664 76.970799 163.554944 77.796786 
C 158.174224 78.622774 152.90019 80.035947 147.827356 82.010981 
L 174.860651 151.445437 
z
" style="fill: #ffffff"/>
   </g>
   <g id="patch_28">
    <path d="M 147.827356 82.010981 
C 146.725613 82.439928 145.634235 82.895038 144.554151 83.375923 
C 143.474066 83.856807 142.40558 84.363331 141.3496 84.895064 
L 174.860651 151.445437 
z
" style="fill: #ffffff"/>
   </g>
   <g id="patch_29">
    <path d="M 141.3496 84.895064 
C 137.968991 86.597349 134.722999 88.554754 131.639822 90.750275 
C 128.556645 92.945795 125.645236 95.373056 122.930885 98.010971 
L 174.860651 151.445437 
z
" style="fill: #ffffff"/>
   </g>
   <g id="patch_30">
    <path d="M 122.930885 98.010971 
C 122.252605 98.670151 121.586937 99.342186 120.934244 100.026711 
C 120.281551 100.711236 119.641951 101.408126 119.015791 102.117003 
L 174.860651 151.445437 
z
" style="fill: #ffffff"/>
   </g>
   <g id="patch_31">
    <path d="M 119.015791 102.117003 
C 111.628089 110.480642 106.212769 120.398059 103.170922 131.134714 
C 100.129074 141.871369 99.537699 153.155478 101.440596 164.151276 
L 174.860651 151.445437 
z
" style="fill: #ffffff"/>
   </g>
   <g id="patch_32">
    <path d="M 101.440596 164.151276 
C 101.924565 166.947865 102.567923 169.714519 103.367524 172.437711 
C 104.167125 175.160903 105.121664 177.836186 106.226474 180.45048 
L 174.860651 151.445437 
z
" style="fill: #ffffff"/>
   </g>
   <g id="patch_33">
    <path d="M 106.226474 180.45048 
C 107.054983 182.410967 107.967111 184.335056 108.960349 186.217452 
C 109.953588 188.099848 111.027024 189.938823 112.177705 191.729318 
L 174.860651 151.445437 
z
" style="fill: #ffffff"/>
   </g>
   <g id="patch_34">
    <path d="M 112.177705 191.729318 
C 114.736312 195.710589 117.668412 199.439057 120.934242 202.864161 
C 124.200072 206.289266 127.784803 209.395453 131.639821 212.140598 
L 174.860651 151.445437 
z
" style="fill: #ffffff"/>
   </g>
   <g id="patch_35">
    <path d="M 131.639821 212.140598 
C 133.180851 213.237961 134.763115 214.276237 136.383172 215.253167 
C 138.00323 216.230098 139.659906 217.144975 141.349598 217.99581 
L 174.860651 151.445437 
z
" style="fill: #ffffff"/>
   </g>
   <g id="patch_36">
    <path d="M 141.349598 217.99581 
C 143.673175 219.165833 146.056435 220.213365 148.489584 221.134099 
C 150.922733 222.054833 153.402433 222.847507 155.918496 223.508864 
L 174.860651 151.445437 
z
" style="fill: #ffffff"/>
   </g>
   <g id="patch_37">
    <path d="M 155.918496 223.508864 
C 161.642253 225.013376 167.524928 225.830616 173.442043 225.943292 
C 179.359159 226.055967 185.268682 225.463277 191.045567 224.177763 
L 174.860651 151.445437 
z
" style="fill: #ffffff"/>
   </g>
   <g id="patch_38">
    <path d="M 191.045567 224.177763 
C 195.202568 223.252718 199.27262 221.972984 203.210996 220.352626 
C 207.149372 218.732268 210.94159 216.777244 214.545977 214.509037 
L 174.860651 151.445437 
z
" style="fill: #ffffff"/>
   </g>
   <g id="patch_39">
    <path d="M 214.545977 214.509037 
C 221.163531 210.344673 227.084555 205.164527 232.091363 199.159045 
C 237.098172 193.153562 241.128647 186.397253 244.034609 179.138511 
L 174.860651 151.445437 
z
" style="fill: #ffffff"/>
   </g>
   <g id="patch_40">
    <path d="M 244.034609 179.138511 
C 244.64982 177.601789 245.213651 176.044992 245.725166 174.470713 
C 246.23668 172.896434 246.695593 171.305547 247.101139 169.7007 
L 174.860651 151.445437 
z
" style="fill: #ffffff"/>
   </g>
   <g id="patch_41">
    <path d="M 247.101139 169.7007 
C 247.854468 166.719595 248.422546 163.694716 248.802114 160.643418 
C 249.181681 157.592121 249.372011 154.520252 249.372011 151.445436 
L 174.860651 151.445437 
z
" style="fill: #ffffff"/>
   </g>
   <g id="matplotlib.axis_1"/>
   <g id="matplotlib.axis_2"/>
   <g id="text_1">
    <!-- A [41] -->
    <g transform="translate(305.292116 100.541659) scale(0.1 -0.1)">
     <defs>
      <path id="DejaVuSans-41" d="M 2188 4044 
L 1331 1722 
L 3047 1722 
L 2188 4044 
z
M 1831 4666 
L 2547 4666 
L 4325 0 
L 3669 0 
L 3244 1197 
L 1141 1197 
L 716 0 
L 50 0 
L 1831 4666 
z
" transform="scale(0.015625)"/>
      <path id="DejaVuSans-20" transform="scale(0.015625)"/>
      <path id="DejaVuSans-5b" d="M 550 4863 
L 1875 4863 
L 1875 4416 
L 1125 4416 
L 1125 -397 
L 1875 -397 
L 1875 -844 
L 550 -844 
L 550 4863 
z
" transform="scale(0.015625)"/>
      <path id="DejaVuSans-34" d="M 2419 4116 
L 825 1625 
L 2419 1625 
L 2419 4116 
z
M 2253 4666 
L 3047 4666 
L 3047 1625 
L 3713 1625 
L 3713 1100 
L 3047 1100 
L 3047 0 
L 2419 0 
L 2419 1100 
L 313 1100 
L 313 1709 
L 2253 4666 
z
" transform="scale(0.015625)"/>
      <path id="DejaVuSans-31" d="M 794 531 
L 1825 531 
L 1825 4091 
L 703 3866 
L 703 4441 
L 1819 4666 
L 2450 4666 
L 2450 531 
L 3481 531 
L 3481 0 
L 794 0 
L 794 531 
z
" transform="scale(0.015625)"/>
      <path id="DejaVuSans-5d" d="M 1947 4863 
L 1947 -844 
L 622 -844 
L 622 -397 
L 1369 -397 
L 1369 4416 
L 622 4416 
L 622 4863 
L 1947 4863 
z
" transform="scale(0.015625)"/>
     </defs>
     <use xlink:href="#DejaVuSans-41"/>
     <use xlink:href="#DejaVuSans-20" x="68.408203"/>
     <use xlink:href="#DejaVuSans-5b" x="100.195312"/>
     <use xlink:href="#DejaVuSans-34" x="139.208984"/>
     <use xlink:href="#DejaVuSans-31" x="202.832031"/>
     <use xlink:href="#DejaVuSans-5d" x="266.455078"/>
    </g>
   </g>
   <g id="text_2">
    <!-- C [13] -->
    <g transform="translate(262.045398 43.340386) scale(0.1 -0.1)">
     <defs>
      <path id="DejaVuSans-43" d="M 4122 4306 
L 4122 3641 
Q 3803 3938 3442 4084 
Q 3081 4231 2675 4231 
Q 1875 4231 1450 3742 
Q 1025 3253 1025 2328 
Q 1025 1406 1450 917 
Q 1875 428 2675 428 
Q 3081 428 3442 575 
Q 3803 722 4122 1019 
L 4122 359 
Q 3791 134 3420 21 
Q 3050 -91 2638 -91 
Q 1578 -91 968 557 
Q 359 1206 359 2328 
Q 359 3453 968 4101 
Q 1578 4750 2638 4750 
Q 3056 4750 3426 4639 
Q 3797 4528 4122 4306 
z
" transform="scale(0.015625)"/>
      <path id="DejaVuSans-33" d="M 2597 2516 
Q 3050 2419 3304 2112 
Q 3559 1806 3559 1356 
Q 3559 666 3084 287 
Q 2609 -91 1734 -91 
Q 1441 -91 1130 -33 
Q 819 25 488 141 
L 488 750 
Q 750 597 1062 519 
Q 1375 441 1716 441 
Q 2309 441 2620 675 
Q 2931 909 2931 1356 
Q 2931 1769 2642 2001 
Q 2353 2234 1838 2234 
L 1294 2234 
L 1294 2753 
L 1863 2753 
Q 2328 2753 2575 2939 
Q 2822 3125 2822 3475 
Q 2822 3834 2567 4026 
Q 2313 4219 1838 4219 
Q 1578 4219 1281 4162 
Q 984 4106 628 3988 
L 628 4550 
Q 988 4650 1302 4700 
Q 1616 4750 1894 4750 
Q 2613 4750 3031 4423 
Q 3450 4097 3450 3541 
Q 3450 3153 3228 2886 
Q 3006 2619 2597 2516 
z
" transform="scale(0.015625)"/>
     </defs>
     <use xlink:href="#DejaVuSans-43"/>
     <use xlink:href="#DejaVuSans-20" x="69.824219"/>
     <use xlink:href="#DejaVuSans-5b" x="101.611328"/>
     <use xlink:href="#DejaVuSans-31" x="140.625"/>
     <use xlink:href="#DejaVuSans-33" x="204.248047"/>
     <use xlink:href="#DejaVuSans-5d" x="267.871094"/>
    </g>
   </g>
   <g id="text_3">
    <!-- D [9] -->
    <g transform="translate(237.090192 27.636312) scale(0.1 -0.1)">
     <defs>
      <path id="DejaVuSans-44" d="M 1259 4147 
L 1259 519 
L 2022 519 
Q 2988 519 3436 956 
Q 3884 1394 3884 2338 
Q 3884 3275 3436 3711 
Q 2988 4147 2022 4147 
L 1259 4147 
z
M 628 4666 
L 1925 4666 
Q 3281 4666 3915 4102 
Q 4550 3538 4550 2338 
Q 4550 1131 3912 565 
Q 3275 0 1925 0 
L 628 0 
L 628 4666 
z
" transform="scale(0.015625)"/>
      <path id="DejaVuSans-39" d="M 703 97 
L 703 672 
Q 941 559 1184 500 
Q 1428 441 1663 441 
Q 2288 441 2617 861 
Q 2947 1281 2994 2138 
Q 2813 1869 2534 1725 
Q 2256 1581 1919 1581 
Q 1219 1581 811 2004 
Q 403 2428 403 3163 
Q 403 3881 828 4315 
Q 1253 4750 1959 4750 
Q 2769 4750 3195 4129 
Q 3622 3509 3622 2328 
Q 3622 1225 3098 567 
Q 2575 -91 1691 -91 
Q 1453 -91 1209 -44 
Q 966 3 703 97 
z
M 1959 2075 
Q 2384 2075 2632 2365 
Q 2881 2656 2881 3163 
Q 2881 3666 2632 3958 
Q 2384 4250 1959 4250 
Q 1534 4250 1286 3958 
Q 1038 3666 1038 3163 
Q 1038 2656 1286 2365 
Q 1534 2075 1959 2075 
z
" transform="scale(0.015625)"/>
     </defs>
     <use xlink:href="#DejaVuSans-44"/>
     <use xlink:href="#DejaVuSans-20" x="77.001953"/>
     <use xlink:href="#DejaVuSans-5b" x="108.789062"/>
     <use xlink:href="#DejaVuSans-39" x="147.802734"/>
     <use xlink:href="#DejaVuSans-5d" x="211.425781"/>
    </g>
   </g>
   <g id="text_4">
    <!-- E [4] -->
    <g transform="translate(220.990107 20.922501) scale(0.1 -0.1)">
     <defs>
      <path id="DejaVuSans-45" d="M 628 4666 
L 3578 4666 
L 3578 4134 
L 1259 4134 
L 1259 2753 
L 3481 2753 
L 3481 2222 
L 1259 2222 
L 1259 531 
L 3634 531 
L 3634 0 
L 628 0 
L 628 4666 
z
" transform="scale(0.015625)"/>
     </defs>
     <use xlink:href="#DejaVuSans-45"/>
     <use xlink:href="#DejaVuSans-20" x="63.183594"/>
     <use xlink:href="#DejaVuSans-5b" x="94.970703"/>
     <use xlink:href="#DejaVuSans-34" x="133.984375"/>
     <use xlink:href="#DejaVuSans-5d" x="197.607422"/>
    </g>
   </g>
   <g id="text_5">
    <!-- F [12] -->
    <g transform="translate(200.232909 15.466391) scale(0.1 -0.1)">
     <defs>
      <path id="DejaVuSans-46" d="M 628 4666 
L 3309 4666 
L 3309 4134 
L 1259 4134 
L 1259 2759 
L 3109 2759 
L 3109 2228 
L 1259 2228 
L 1259 0 
L 628 0 
L 628 4666 
z
" transform="scale(0.015625)"/>
      <path id="DejaVuSans-32" d="M 1228 531 
L 3431 531 
L 3431 0 
L 469 0 
L 469 531 
Q 828 903 1448 1529 
Q 2069 2156 2228 2338 
Q 2531 2678 2651 2914 
Q 2772 3150 2772 3378 
Q 2772 3750 2511 3984 
Q 2250 4219 1831 4219 
Q 1534 4219 1204 4116 
Q 875 4013 500 3803 
L 500 4441 
Q 881 4594 1212 4672 
Q 1544 4750 1819 4750 
Q 2544 4750 2975 4387 
Q 3406 4025 3406 3419 
Q 3406 3131 3298 2873 
Q 3191 2616 2906 2266 
Q 2828 2175 2409 1742 
Q 1991 1309 1228 531 
z
" transform="scale(0.015625)"/>
     </defs>
     <use xlink:href="#DejaVuSans-46"/>
     <use xlink:href="#DejaVuSans-20" x="57.519531"/>
     <use xlink:href="#DejaVuSans-5b" x="89.306641"/>
     <use xlink:href="#DejaVuSans-31" x="128.320312"/>
     <use xlink:href="#DejaVuSans-32" x="191.943359"/>
     <use xlink:href="#DejaVuSans-5d" x="255.566406"/>
    </g>
   </g>
   <g id="text_6">
    <!-- G [23] -->
    <g transform="translate(122.005875 14.798437) scale(0.1 -0.1)">
     <defs>
      <path id="DejaVuSans-47" d="M 3809 666 
L 3809 1919 
L 2778 1919 
L 2778 2438 
L 4434 2438 
L 4434 434 
Q 4069 175 3628 42 
Q 3188 -91 2688 -91 
Q 1594 -91 976 548 
Q 359 1188 359 2328 
Q 359 3472 976 4111 
Q 1594 4750 2688 4750 
Q 3144 4750 3555 4637 
Q 3966 4525 4313 4306 
L 4313 3634 
Q 3963 3931 3569 4081 
Q 3175 4231 2741 4231 
Q 1884 4231 1454 3753 
Q 1025 3275 1025 2328 
Q 1025 1384 1454 906 
Q 1884 428 2741 428 
Q 3075 428 3337 486 
Q 3600 544 3809 666 
z
" transform="scale(0.015625)"/>
     </defs>
     <use xlink:href="#DejaVuSans-47"/>
     <use xlink:href="#DejaVuSans-20" x="77.490234"/>
     <use xlink:href="#DejaVuSans-5b" x="109.277344"/>
     <use xlink:href="#DejaVuSans-32" x="148.291016"/>
     <use xlink:href="#DejaVuSans-33" x="211.914062"/>
     <use xlink:href="#DejaVuSans-5d" x="275.537109"/>
    </g>
   </g>
   <g id="text_7">
    <!-- H [5] -->
    <g transform="translate(92.630713 25.358945) scale(0.1 -0.1)">
     <defs>
      <path id="DejaVuSans-48" d="M 628 4666 
L 1259 4666 
L 1259 2753 
L 3553 2753 
L 3553 4666 
L 4184 4666 
L 4184 0 
L 3553 0 
L 3553 2222 
L 1259 2222 
L 1259 0 
L 628 0 
L 628 4666 
z
" transform="scale(0.015625)"/>
      <path id="DejaVuSans-35" d="M 691 4666 
L 3169 4666 
L 3169 4134 
L 1269 4134 
L 1269 2991 
Q 1406 3038 1543 3061 
Q 1681 3084 1819 3084 
Q 2600 3084 3056 2656 
Q 3513 2228 3513 1497 
Q 3513 744 3044 326 
Q 2575 -91 1722 -91 
Q 1428 -91 1123 -41 
Q 819 9 494 109 
L 494 744 
Q 775 591 1075 516 
Q 1375 441 1709 441 
Q 2250 441 2565 725 
Q 2881 1009 2881 1497 
Q 2881 1984 2565 2268 
Q 2250 2553 1709 2553 
Q 1456 2553 1204 2497 
Q 953 2441 691 2322 
L 691 4666 
z
" transform="scale(0.015625)"/>
     </defs>
     <use xlink:href="#DejaVuSans-48"/>
     <use xlink:href="#DejaVuSans-20" x="75.195312"/>
     <use xlink:href="#DejaVuSans-5b" x="106.982422"/>
     <use xlink:href="#DejaVuSans-35" x="145.996094"/>
     <use xlink:href="#DejaVuSans-5d" x="209.619141"/>
    </g>
   </g>
   <g id="text_8">
    <!-- I [16] -->
    <g transform="translate(66.393546 39.317541) scale(0.1 -0.1)">
     <defs>
      <path id="DejaVuSans-49" d="M 628 4666 
L 1259 4666 
L 1259 0 
L 628 0 
L 628 4666 
z
" transform="scale(0.015625)"/>
      <path id="DejaVuSans-36" d="M 2113 2584 
Q 1688 2584 1439 2293 
Q 1191 2003 1191 1497 
Q 1191 994 1439 701 
Q 1688 409 2113 409 
Q 2538 409 2786 701 
Q 3034 994 3034 1497 
Q 3034 2003 2786 2293 
Q 2538 2584 2113 2584 
z
M 3366 4563 
L 3366 3988 
Q 3128 4100 2886 4159 
Q 2644 4219 2406 4219 
Q 1781 4219 1451 3797 
Q 1122 3375 1075 2522 
Q 1259 2794 1537 2939 
Q 1816 3084 2150 3084 
Q 2853 3084 3261 2657 
Q 3669 2231 3669 1497 
Q 3669 778 3244 343 
Q 2819 -91 2113 -91 
Q 1303 -91 875 529 
Q 447 1150 447 2328 
Q 447 3434 972 4092 
Q 1497 4750 2381 4750 
Q 2619 4750 2861 4703 
Q 3103 4656 3366 4563 
z
" transform="scale(0.015625)"/>
     </defs>
     <use xlink:href="#DejaVuSans-49"/>
     <use xlink:href="#DejaVuSans-20" x="29.492188"/>
     <use xlink:href="#DejaVuSans-5b" x="61.279297"/>
     <use xlink:href="#DejaVuSans-31" x="100.292969"/>
     <use xlink:href="#DejaVuSans-36" x="163.916016"/>
     <use xlink:href="#DejaVuSans-5d" x="227.539062"/>
    </g>
   </g>
   <g id="text_9">
    <!-- K [4] -->
    <g transform="translate(48.884104 56.876509) scale(0.1 -0.1)">
     <defs>
      <path id="DejaVuSans-4b" d="M 628 4666 
L 1259 4666 
L 1259 2694 
L 3353 4666 
L 4166 4666 
L 1850 2491 
L 4331 0 
L 3500 0 
L 1259 2247 
L 1259 0 
L 628 0 
L 628 4666 
z
" transform="scale(0.015625)"/>
     </defs>
     <use xlink:href="#DejaVuSans-4b"/>
     <use xlink:href="#DejaVuSans-20" x="65.576172"/>
     <use xlink:href="#DejaVuSans-5b" x="97.363281"/>
     <use xlink:href="#DejaVuSans-34" x="136.376953"/>
     <use xlink:href="#DejaVuSans-5d" x="200"/>
    </g>
   </g>
   <g id="text_10">
    <!-- L [47] -->
    <g transform="translate(9.88411 115.759515) scale(0.1 -0.1)">
     <defs>
      <path id="DejaVuSans-4c" d="M 628 4666 
L 1259 4666 
L 1259 531 
L 3531 531 
L 3531 0 
L 628 0 
L 628 4666 
z
" transform="scale(0.015625)"/>
      <path id="DejaVuSans-37" d="M 525 4666 
L 3525 4666 
L 3525 4397 
L 1831 0 
L 1172 0 
L 2766 4134 
L 525 4134 
L 525 4666 
z
" transform="scale(0.015625)"/>
     </defs>
     <use xlink:href="#DejaVuSans-4c"/>
     <use xlink:href="#DejaVuSans-20" x="55.712891"/>
     <use xlink:href="#DejaVuSans-5b" x="87.5"/>
     <use xlink:href="#DejaVuSans-34" x="126.513672"/>
     <use xlink:href="#DejaVuSans-37" x="190.136719"/>
     <use xlink:href="#DejaVuSans-5d" x="253.759766"/>
    </g>
   </g>
   <g id="text_11">
    <!-- M [12] -->
    <g transform="translate(7.2 193.940188) scale(0.1 -0.1)">
     <defs>
      <path id="DejaVuSans-4d" d="M 628 4666 
L 1569 4666 
L 2759 1491 
L 3956 4666 
L 4897 4666 
L 4897 0 
L 4281 0 
L 4281 4097 
L 3078 897 
L 2444 897 
L 1241 4097 
L 1241 0 
L 628 0 
L 628 4666 
z
" transform="scale(0.015625)"/>
     </defs>
     <use xlink:href="#DejaVuSans-4d"/>
     <use xlink:href="#DejaVuSans-20" x="86.279297"/>
     <use xlink:href="#DejaVuSans-5b" x="118.066406"/>
     <use xlink:href="#DejaVuSans-31" x="157.080078"/>
     <use xlink:href="#DejaVuSans-32" x="220.703125"/>
     <use xlink:href="#DejaVuSans-5d" x="284.326172"/>
    </g>
   </g>
   <g id="text_12">
    <!-- N [9] -->
    <g transform="translate(25.295794 220.023269) scale(0.1 -0.1)">
     <defs>
      <path id="DejaVuSans-4e" d="M 628 4666 
L 1478 4666 
L 3547 763 
L 3547 4666 
L 4159 4666 
L 4159 0 
L 3309 0 
L 1241 3903 
L 1241 0 
L 628 0 
L 628 4666 
z
" transform="scale(0.015625)"/>
     </defs>
     <use xlink:href="#DejaVuSans-4e"/>
     <use xlink:href="#DejaVuSans-20" x="74.804688"/>
     <use xlink:href="#DejaVuSans-5b" x="106.591797"/>
     <use xlink:href="#DejaVuSans-39" x="145.605469"/>
     <use xlink:href="#DejaVuSans-5d" x="209.228516"/>
    </g>
   </g>
   <g id="text_13">
    <!-- P [20] -->
    <g transform="translate(43.049726 251.533112) scale(0.1 -0.1)">
     <defs>
      <path id="DejaVuSans-50" d="M 1259 4147 
L 1259 2394 
L 2053 2394 
Q 2494 2394 2734 2622 
Q 2975 2850 2975 3272 
Q 2975 3691 2734 3919 
Q 2494 4147 2053 4147 
L 1259 4147 
z
M 628 4666 
L 2053 4666 
Q 2838 4666 3239 4311 
Q 3641 3956 3641 3272 
Q 3641 2581 3239 2228 
Q 2838 1875 2053 1875 
L 1259 1875 
L 1259 0 
L 628 0 
L 628 4666 
z
" transform="scale(0.015625)"/>
      <path id="DejaVuSans-30" d="M 2034 4250 
Q 1547 4250 1301 3770 
Q 1056 3291 1056 2328 
Q 1056 1369 1301 889 
Q 1547 409 2034 409 
Q 2525 409 2770 889 
Q 3016 1369 3016 2328 
Q 3016 3291 2770 3770 
Q 2525 4250 2034 4250 
z
M 2034 4750 
Q 2819 4750 3233 4129 
Q 3647 3509 3647 2328 
Q 3647 1150 3233 529 
Q 2819 -91 2034 -91 
Q 1250 -91 836 529 
Q 422 1150 422 2328 
Q 422 3509 836 4129 
Q 1250 4750 2034 4750 
z
" transform="scale(0.015625)"/>
     </defs>
     <use xlink:href="#DejaVuSans-50"/>
     <use xlink:href="#DejaVuSans-20" x="60.302734"/>
     <use xlink:href="#DejaVuSans-5b" x="92.089844"/>
     <use xlink:href="#DejaVuSans-32" x="131.103516"/>
     <use xlink:href="#DejaVuSans-30" x="194.726562"/>
     <use xlink:href="#DejaVuSans-5d" x="258.349609"/>
    </g>
   </g>
   <g id="text_14">
    <!-- Q [8] -->
    <g transform="translate(76.812656 274.98373) scale(0.1 -0.1)">
     <defs>
      <path id="DejaVuSans-51" d="M 2522 4238 
Q 1834 4238 1429 3725 
Q 1025 3213 1025 2328 
Q 1025 1447 1429 934 
Q 1834 422 2522 422 
Q 3209 422 3611 934 
Q 4013 1447 4013 2328 
Q 4013 3213 3611 3725 
Q 3209 4238 2522 4238 
z
M 3406 84 
L 4238 -825 
L 3475 -825 
L 2784 -78 
Q 2681 -84 2626 -87 
Q 2572 -91 2522 -91 
Q 1538 -91 948 567 
Q 359 1225 359 2328 
Q 359 3434 948 4092 
Q 1538 4750 2522 4750 
Q 3503 4750 4090 4092 
Q 4678 3434 4678 2328 
Q 4678 1516 4351 937 
Q 4025 359 3406 84 
z
" transform="scale(0.015625)"/>
      <path id="DejaVuSans-38" d="M 2034 2216 
Q 1584 2216 1326 1975 
Q 1069 1734 1069 1313 
Q 1069 891 1326 650 
Q 1584 409 2034 409 
Q 2484 409 2743 651 
Q 3003 894 3003 1313 
Q 3003 1734 2745 1975 
Q 2488 2216 2034 2216 
z
M 1403 2484 
Q 997 2584 770 2862 
Q 544 3141 544 3541 
Q 544 4100 942 4425 
Q 1341 4750 2034 4750 
Q 2731 4750 3128 4425 
Q 3525 4100 3525 3541 
Q 3525 3141 3298 2862 
Q 3072 2584 2669 2484 
Q 3125 2378 3379 2068 
Q 3634 1759 3634 1313 
Q 3634 634 3220 271 
Q 2806 -91 2034 -91 
Q 1263 -91 848 271 
Q 434 634 434 1313 
Q 434 1759 690 2068 
Q 947 2378 1403 2484 
z
M 1172 3481 
Q 1172 3119 1398 2916 
Q 1625 2713 2034 2713 
Q 2441 2713 2670 2916 
Q 2900 3119 2900 3481 
Q 2900 3844 2670 4047 
Q 2441 4250 2034 4250 
Q 1625 4250 1398 4047 
Q 1172 3844 1172 3481 
z
" transform="scale(0.015625)"/>
     </defs>
     <use xlink:href="#DejaVuSans-51"/>
     <use xlink:href="#DejaVuSans-20" x="78.710938"/>
     <use xlink:href="#DejaVuSans-5b" x="110.498047"/>
     <use xlink:href="#DejaVuSans-38" x="149.511719"/>
     <use xlink:href="#DejaVuSans-5d" x="213.134766"/>
    </g>
   </g>
   <g id="text_15">
    <!-- R [11] -->
    <g transform="translate(94.2893 286.115493) scale(0.1 -0.1)">
     <defs>
      <path id="DejaVuSans-52" d="M 2841 2188 
Q 3044 2119 3236 1894 
Q 3428 1669 3622 1275 
L 4263 0 
L 3584 0 
L 2988 1197 
Q 2756 1666 2539 1819 
Q 2322 1972 1947 1972 
L 1259 1972 
L 1259 0 
L 628 0 
L 628 4666 
L 2053 4666 
Q 2853 4666 3247 4331 
Q 3641 3997 3641 3322 
Q 3641 2881 3436 2590 
Q 3231 2300 2841 2188 
z
M 1259 4147 
L 1259 2491 
L 2053 2491 
Q 2509 2491 2742 2702 
Q 2975 2913 2975 3322 
Q 2975 3731 2742 3939 
Q 2509 4147 2053 4147 
L 1259 4147 
z
" transform="scale(0.015625)"/>
     </defs>
     <use xlink:href="#DejaVuSans-52"/>
     <use xlink:href="#DejaVuSans-20" x="69.482422"/>
     <use xlink:href="#DejaVuSans-5b" x="101.269531"/>
     <use xlink:href="#DejaVuSans-31" x="140.283203"/>
     <use xlink:href="#DejaVuSans-31" x="203.90625"/>
     <use xlink:href="#DejaVuSans-5d" x="267.529297"/>
    </g>
   </g>
   <g id="text_16">
    <!-- S [25] -->
    <g transform="translate(142.120742 295.218608) scale(0.1 -0.1)">
     <defs>
      <path id="DejaVuSans-53" d="M 3425 4513 
L 3425 3897 
Q 3066 4069 2747 4153 
Q 2428 4238 2131 4238 
Q 1616 4238 1336 4038 
Q 1056 3838 1056 3469 
Q 1056 3159 1242 3001 
Q 1428 2844 1947 2747 
L 2328 2669 
Q 3034 2534 3370 2195 
Q 3706 1856 3706 1288 
Q 3706 609 3251 259 
Q 2797 -91 1919 -91 
Q 1588 -91 1214 -16 
Q 841 59 441 206 
L 441 856 
Q 825 641 1194 531 
Q 1563 422 1919 422 
Q 2459 422 2753 634 
Q 3047 847 3047 1241 
Q 3047 1584 2836 1778 
Q 2625 1972 2144 2069 
L 1759 2144 
Q 1053 2284 737 2584 
Q 422 2884 422 3419 
Q 422 4038 858 4394 
Q 1294 4750 2059 4750 
Q 2388 4750 2728 4690 
Q 3069 4631 3425 4513 
z
" transform="scale(0.015625)"/>
     </defs>
     <use xlink:href="#DejaVuSans-53"/>
     <use xlink:href="#DejaVuSans-20" x="63.476562"/>
     <use xlink:href="#DejaVuSans-5b" x="95.263672"/>
     <use xlink:href="#DejaVuSans-32" x="134.277344"/>
     <use xlink:href="#DejaVuSans-35" x="197.900391"/>
     <use xlink:href="#DejaVuSans-5d" x="261.523438"/>
    </g>
   </g>
   <g id="text_17">
    <!-- T [18] -->
    <g transform="translate(228.523804 284.636277) scale(0.1 -0.1)">
     <defs>
      <path id="DejaVuSans-54" d="M -19 4666 
L 3928 4666 
L 3928 4134 
L 2272 4134 
L 2272 0 
L 1638 0 
L 1638 4134 
L -19 4134 
L -19 4666 
z
" transform="scale(0.015625)"/>
     </defs>
     <use xlink:href="#DejaVuSans-54"/>
     <use xlink:href="#DejaVuSans-20" x="61.083984"/>
     <use xlink:href="#DejaVuSans-5b" x="92.871094"/>
     <use xlink:href="#DejaVuSans-31" x="131.884766"/>
     <use xlink:href="#DejaVuSans-38" x="195.507812"/>
     <use xlink:href="#DejaVuSans-5d" x="259.130859"/>
    </g>
   </g>
   <g id="text_18">
    <!-- V [33] -->
    <g transform="translate(283.190214 244.519855) scale(0.1 -0.1)">
     <defs>
      <path id="DejaVuSans-56" d="M 1831 0 
L 50 4666 
L 709 4666 
L 2188 738 
L 3669 4666 
L 4325 4666 
L 2547 0 
L 1831 0 
z
" transform="scale(0.015625)"/>
     </defs>
     <use xlink:href="#DejaVuSans-56"/>
     <use xlink:href="#DejaVuSans-20" x="68.408203"/>
     <use xlink:href="#DejaVuSans-5b" x="100.195312"/>
     <use xlink:href="#DejaVuSans-33" x="139.208984"/>
     <use xlink:href="#DejaVuSans-33" x="202.832031"/>
     <use xlink:href="#DejaVuSans-5d" x="266.455078"/>
    </g>
   </g>
   <g id="text_19">
    <!-- W [7] -->
    <g transform="translate(308.997054 197.78837) scale(0.1 -0.1)">
     <defs>
      <path id="DejaVuSans-57" d="M 213 4666 
L 850 4666 
L 1831 722 
L 2809 4666 
L 3519 4666 
L 4500 722 
L 5478 4666 
L 6119 4666 
L 4947 0 
L 4153 0 
L 3169 4050 
L 2175 0 
L 1381 0 
L 213 4666 
z
" transform="scale(0.015625)"/>
     </defs>
     <use xlink:href="#DejaVuSans-57"/>
     <use xlink:href="#DejaVuSans-20" x="98.876953"/>
     <use xlink:href="#DejaVuSans-5b" x="130.664062"/>
     <use xlink:href="#DejaVuSans-37" x="169.677734"/>
     <use xlink:href="#DejaVuSans-5d" x="233.300781"/>
    </g>
   </g>
   <g id="text_20">
    <!-- Y [13] -->
    <g transform="translate(314.821277 171.615277) scale(0.1 -0.1)">
     <defs>
      <path id="DejaVuSans-59" d="M -13 4666 
L 666 4666 
L 1959 2747 
L 3244 4666 
L 3922 4666 
L 2272 2222 
L 2272 0 
L 1638 0 
L 1638 2222 
L -13 4666 
z
" transform="scale(0.015625)"/>
     </defs>
     <use xlink:href="#DejaVuSans-59"/>
     <use xlink:href="#DejaVuSans-20" x="61.083984"/>
     <use xlink:href="#DejaVuSans-5b" x="92.871094"/>
     <use xlink:href="#DejaVuSans-31" x="131.884766"/>
     <use xlink:href="#DejaVuSans-33" x="195.507812"/>
     <use xlink:href="#DejaVuSans-5d" x="259.130859"/>
    </g>
   </g>
   <g id="text_21">
    <!-- F1STP7 [330] -->
    <g transform="translate(134.641901 151.445437) scale(0.12 -0.12)">
     <use xlink:href="#DejaVuSans-46"/>
     <use xlink:href="#DejaVuSans-31" x="57.519531"/>
     <use xlink:href="#DejaVuSans-53" x="121.142578"/>
     <use xlink:href="#DejaVuSans-54" x="184.619141"/>
     <use xlink:href="#DejaVuSans-50" x="245.703125"/>
     <use xlink:href="#DejaVuSans-37" x="306.005859"/>
     <use xlink:href="#DejaVuSans-20" x="369.628906"/>
     <use xlink:href="#DejaVuSans-5b" x="401.416016"/>
     <use xlink:href="#DejaVuSans-33" x="440.429688"/>
     <use xlink:href="#DejaVuSans-33" x="504.052734"/>
     <use xlink:href="#DejaVuSans-30" x="567.675781"/>
     <use xlink:href="#DejaVuSans-5d" x="631.298828"/>
    </g>
   </g>
  </g>
 </g>
</svg>
