<?xml version="1.0" encoding="utf-8" standalone="no"?>
<!DOCTYPE svg PUBLIC "-//W3C//DTD SVG 1.1//EN"
  "http://www.w3.org/Graphics/SVG/1.1/DTD/svg11.dtd">
<svg xmlns:xlink="http://www.w3.org/1999/xlink" width="356.695343pt" height="304.04391pt" viewBox="0 0 356.695343 304.04391" xmlns="http://www.w3.org/2000/svg" version="1.1">
 <metadata>
  <rdf:RDF xmlns:dc="http://purl.org/dc/elements/1.1/" xmlns:cc="http://creativecommons.org/ns#" xmlns:rdf="http://www.w3.org/1999/02/22-rdf-syntax-ns#">
   <cc:Work>
    <dc:type rdf:resource="http://purl.org/dc/dcmitype/StillImage"/>
    <dc:date>2024-09-27T16:07:20.136877</dc:date>
    <dc:format>image/svg+xml</dc:format>
    <dc:creator>
     <cc:Agent>
      <dc:title>Matplotlib v3.8.3, https://matplotlib.org/</dc:title>
     </cc:Agent>
    </dc:creator>
   </cc:Work>
  </rdf:RDF>
 </metadata>
 <defs>
  <style type="text/css">*{stroke-linejoin: round; stroke-linecap: butt}</style>
 </defs>
 <g id="figure_1">
  <g id="patch_1">
   <path d="M 0 304.04391 
L 356.695343 304.04391 
L 356.695343 0 
L 0 0 
z
" style="fill: #ffffff"/>
  </g>
  <g id="axes_1">
   <g id="patch_2">
    <path d="M 307.582619 150.950327 
C 307.582619 144.916076 307.155025 138.889402 306.303049 132.915599 
C 305.451073 126.941797 304.176856 121.035867 302.489974 115.242197 
L 179.848859 150.950327 
z
" style="fill: #1f77b4"/>
   </g>
   <g id="patch_3">
    <path d="M 302.459929 115.126541 
C 301.467916 111.719431 300.334354 108.355139 299.062193 105.042422 
C 297.790032 101.729704 296.380377 98.471439 294.836897 95.276105 
L 179.818814 150.83467 
z
" style="fill: #ff7f0e"/>
   </g>
   <g id="patch_4">
    <path d="M 294.802806 95.204001 
C 293.568086 92.647867 292.248498 90.133604 290.846242 87.6654 
C 289.443986 85.197196 287.959841 82.776423 286.396278 80.407114 
L 179.784723 150.762566 
z
" style="fill: #aec7e8"/>
   </g>
   <g id="patch_5">
    <path d="M 286.357222 80.34793 
C 284.79366 77.978621 283.151549 75.662092 281.433627 73.402204 
C 279.715704 71.142316 277.922924 68.940323 276.058274 66.799895 
L 179.745667 150.703383 
z
" style="fill: #ffbb78"/>
   </g>
   <g id="patch_6">
    <path d="M 275.965418 66.705085 
C 270.834516 60.815335 265.174154 55.408632 259.05551 50.552964 
C 252.936866 45.697296 246.385696 41.413102 239.484381 37.754256 
L 179.652812 150.608573 
z
" style="fill: #98df8a"/>
   </g>
   <g id="patch_7">
    <path d="M 239.346406 37.675107 
C 234.956486 35.347719 230.434504 33.278457 225.803519 31.477874 
C 221.172533 29.677291 216.440429 28.148452 211.631336 26.899152 
L 179.514836 150.529423 
z
" style="fill: #2ca02c"/>
   </g>
   <g id="patch_8">
    <path d="M 211.528944 26.870723 
C 208.094354 25.97849 204.624074 25.22977 201.127137 24.626511 
C 197.6302 24.023252 194.109643 23.565978 190.574628 23.25588 
L 179.412445 150.500994 
z
" style="fill: #d62728"/>
   </g>
   <g id="patch_9">
    <path d="M 190.350332 23.265231 
C 175.823718 21.990929 161.18558 23.213576 147.071646 26.880075 
C 132.957712 30.546573 119.575303 36.603065 107.505613 44.786518 
L 179.188148 150.510345 
z
" style="fill: #9467bd"/>
   </g>
   <g id="patch_10">
    <path d="M 107.26862 44.919857 
C 101.09761 49.103906 95.304762 53.820227 89.95646 59.014772 
C 84.608158 64.209317 79.724913 69.862165 75.362686 75.908536 
L 178.951156 150.643684 
z
" style="fill: #ff9896"/>
   </g>
   <g id="patch_11">
    <path d="M 75.226371 76.128812 
C 67.321405 87.085684 61.204677 99.227691 57.104637 112.101354 
C 53.004597 124.975017 50.97293 138.418046 51.085516 151.92837 
L 178.814841 150.86396 
z
" style="fill: #c5b0d5"/>
   </g>
   <g id="patch_12">
    <path d="M 51.065142 152.160633 
C 51.109505 157.484294 51.486655 162.799979 52.194383 168.076575 
C 52.902112 173.353171 53.939035 178.580363 55.299084 183.727557 
L 178.794467 151.096223 
z
" style="fill: #c49c94"/>
   </g>
   <g id="patch_13">
    <path d="M 55.341706 183.876247 
C 57.155563 190.740908 59.538639 197.442394 62.466158 203.911032 
C 65.393677 210.379671 68.855457 216.592966 72.815509 222.486321 
L 178.837088 151.244913 
z
" style="fill: #8c564b"/>
   </g>
   <g id="patch_14">
    <path d="M 72.879387 222.592487 
C 74.462638 224.948685 76.123995 227.251449 77.86069 229.496943 
C 79.597385 231.742438 81.408452 233.929415 83.290874 236.05423 
L 178.900966 151.351079 
z
" style="fill: #e377c2"/>
   </g>
   <g id="patch_15">
    <path d="M 83.347478 236.116536 
C 85.936022 239.038398 88.657145 241.840065 91.502277 244.512715 
C 94.34741 247.185365 97.313563 249.726189 100.391395 252.127186 
L 178.95757 151.413385 
z
" style="fill: #7f7f7f"/>
   </g>
   <g id="patch_16">
    <path d="M 100.506494 252.209498 
C 106.385073 256.795339 112.653888 260.857696 119.241098 264.350013 
C 125.828309 267.842331 132.708655 270.751218 139.803287 273.043339 
L 179.072669 151.495698 
z
" style="fill: #f7b6d2"/>
   </g>
   <g id="patch_17">
    <path d="M 140.068106 273.10511 
C 153.944282 277.588199 168.486244 279.662154 183.062441 279.236904 
C 197.638637 278.811654 212.034957 275.893446 225.626173 270.609017 
L 179.337488 151.557469 
z
" style="fill: #c7c7c7"/>
   </g>
   <g id="patch_18">
    <path d="M 225.894483 270.527244 
C 233.506191 267.56772 240.816555 263.885009 247.725122 259.529715 
C 254.63369 255.174422 261.108671 250.166587 267.061092 244.575025 
L 179.605797 151.475696 
z
" style="fill: #dbdb8d"/>
   </g>
   <g id="patch_19">
    <path d="M 267.219018 244.421639 
C 274.208658 237.855737 280.436695 230.523525 285.785303 222.563717 
C 291.133912 214.60391 295.569147 206.067021 299.007103 197.114558 
L 179.763724 151.32231 
z
" style="fill: #bcbd22"/>
   </g>
   <g id="patch_20">
    <path d="M 299.06971 196.987658 
C 299.705722 195.331479 300.30716 193.66223 300.873633 191.980996 
C 301.440107 190.299762 301.971493 188.606909 302.467446 186.903539 
L 179.826331 151.195411 
z
" style="fill: #17becf"/>
   </g>
   <g id="patch_21">
    <path d="M 302.489974 186.808744 
C 304.176856 181.015074 305.451074 175.109144 306.303049 169.135342 
C 307.155025 163.161539 307.582619 157.134865 307.582619 151.100614 
L 179.848859 151.100616 
z
" style="fill: #9edae5"/>
   </g>
   <g id="patch_22">
    <path d="M 253.833327 151.025471 
C 253.833327 147.505492 253.583897 143.989932 253.086911 140.505214 
C 252.589925 137.020495 251.846632 133.57537 250.862617 130.195729 
L 179.321967 151.025471 
z
" style="fill: #ffffff"/>
   </g>
   <g id="patch_23">
    <path d="M 250.862617 130.195729 
C 250.283943 128.208248 249.622699 126.245745 248.880605 124.313326 
C 248.138511 122.380908 247.316212 120.480253 246.415848 118.616308 
L 179.321967 151.025471 
z
" style="fill: #ffffff"/>
   </g>
   <g id="patch_24">
    <path d="M 246.415848 118.616308 
C 245.695595 117.12523 244.925836 115.658577 244.107853 114.218791 
C 243.28987 112.779005 242.424119 111.366887 241.512041 109.98479 
L 179.321967 151.025471 
z
" style="fill: #ffffff"/>
   </g>
   <g id="patch_25">
    <path d="M 241.512041 109.98479 
C 240.599963 108.602693 239.642065 107.251385 238.639944 105.933117 
C 237.637822 104.614849 236.592034 103.330353 235.504321 102.08177 
L 179.321967 151.025471 
z
" style="fill: #ffffff"/>
   </g>
   <g id="patch_26">
    <path d="M 235.504321 102.08177 
C 232.511295 98.646083 229.209417 95.492172 225.640208 92.659699 
C 222.070999 89.827226 218.249483 87.328113 214.223716 85.193787 
L 179.321967 151.025471 
z
" style="fill: #ffffff"/>
   </g>
   <g id="patch_27">
    <path d="M 214.223716 85.193787 
C 211.662929 83.836144 209.025107 82.629075 206.323698 81.578734 
C 203.62229 80.528394 200.861896 79.636571 198.056591 78.907813 
L 179.321967 151.025471 
z
" style="fill: #ffffff"/>
   </g>
   <g id="patch_28">
    <path d="M 198.056591 78.907813 
C 196.053081 78.387344 194.028751 77.95059 191.988871 77.598689 
C 189.948991 77.246788 187.895333 76.980045 185.833241 76.799155 
L 179.321967 151.025471 
z
" style="fill: #ffffff"/>
   </g>
   <g id="patch_29">
    <path d="M 185.833241 76.799155 
C 177.359383 76.055812 168.820469 76.769023 160.587341 78.907814 
C 152.354212 81.046604 144.547807 84.579558 137.507155 89.353239 
L 179.321967 151.025471 
z
" style="fill: #ffffff"/>
   </g>
   <g id="patch_30">
    <path d="M 137.507155 89.353239 
C 133.907399 91.793934 130.528237 94.545121 127.408394 97.575272 
C 124.288552 100.605423 121.439992 103.902919 118.89536 107.429968 
L 179.321967 151.025471 
z
" style="fill: #ffffff"/>
   </g>
   <g id="patch_31">
    <path d="M 118.89536 107.429968 
C 114.284129 113.821477 110.716038 120.904314 108.324348 128.413951 
C 105.932658 135.923588 104.747519 143.765355 104.813194 151.646377 
L 179.321967 151.025471 
z
" style="fill: #ffffff"/>
   </g>
   <g id="patch_32">
    <path d="M 104.813194 151.646377 
C 104.839073 154.751846 105.059077 157.852663 105.471918 160.930677 
C 105.88476 164.008691 106.489632 167.057886 107.282994 170.060416 
L 179.321967 151.025471 
z
" style="fill: #ffffff"/>
   </g>
   <g id="patch_33">
    <path d="M 107.282994 170.060416 
C 108.341077 174.064802 109.731205 177.974002 111.438924 181.747374 
C 113.146644 185.520746 115.166016 189.145169 117.476046 192.582959 
L 179.321967 151.025471 
z
" style="fill: #ffffff"/>
   </g>
   <g id="patch_34">
    <path d="M 117.476046 192.582959 
C 118.399609 193.957408 119.368734 195.300687 120.381806 196.610559 
C 121.394878 197.920431 122.451334 199.196167 123.549413 200.435643 
L 179.321967 151.025471 
z
" style="fill: #ffffff"/>
   </g>
   <g id="patch_35">
    <path d="M 123.549413 200.435643 
C 125.059397 202.140062 126.646719 203.774368 128.30638 205.333414 
C 129.96604 206.89246 131.696296 208.374607 133.491698 209.775188 
L 179.321967 151.025471 
z
" style="fill: #ffffff"/>
   </g>
   <g id="patch_36">
    <path d="M 133.491698 209.775188 
C 136.920869 212.450262 140.577678 214.81997 144.420217 216.857156 
C 148.262757 218.894341 152.276292 220.591192 156.414828 221.928262 
L 179.321967 151.025471 
z
" style="fill: #ffffff"/>
   </g>
   <g id="patch_37">
    <path d="M 156.414828 221.928262 
C 164.509264 224.543397 172.992075 225.753204 181.494856 225.505142 
C 189.997638 225.257079 198.395491 223.554791 206.3237 220.472208 
L 179.321967 151.025471 
z
" style="fill: #ffffff"/>
   </g>
   <g id="patch_38">
    <path d="M 206.3237 220.472208 
C 210.763863 218.745818 215.028242 216.59757 219.05824 214.056982 
C 223.088237 211.516395 226.86531 208.595158 230.337555 205.333413 
L 179.321967 151.025471 
z
" style="fill: #ffffff"/>
   </g>
   <g id="patch_39">
    <path d="M 230.337555 205.333413 
C 234.414846 201.503303 238.047867 197.22618 241.167889 192.582959 
C 244.28791 187.939738 246.875131 182.959886 248.880605 177.737615 
L 179.321967 151.025471 
z
" style="fill: #ffffff"/>
   </g>
   <g id="patch_40">
    <path d="M 248.880605 177.737615 
C 249.251612 176.771511 249.602451 175.797782 249.932894 174.817062 
C 250.263337 173.836343 250.573312 172.848845 250.862617 171.855212 
L 179.321967 151.025471 
z
" style="fill: #ffffff"/>
   </g>
   <g id="patch_41">
    <path d="M 250.862617 171.855212 
C 251.846632 168.475572 252.589925 165.030446 253.086911 161.545728 
C 253.583897 158.06101 253.833327 154.54545 253.833327 151.02547 
L 179.321967 151.025471 
z
" style="fill: #ffffff"/>
   </g>
   <g id="matplotlib.axis_1"/>
   <g id="matplotlib.axis_2"/>
   <g id="text_1">
    <!-- A [17] -->
    <g transform="translate(318.948468 133.871502) scale(0.1 -0.1)">
     <defs>
      <path id="DejaVuSans-41" d="M 2188 4044 
L 1331 1722 
L 3047 1722 
L 2188 4044 
z
M 1831 4666 
L 2547 4666 
L 4325 0 
L 3669 0 
L 3244 1197 
L 1141 1197 
L 716 0 
L 50 0 
L 1831 4666 
z
" transform="scale(0.015625)"/>
      <path id="DejaVuSans-20" transform="scale(0.015625)"/>
      <path id="DejaVuSans-5b" d="M 550 4863 
L 1875 4863 
L 1875 4416 
L 1125 4416 
L 1125 -397 
L 1875 -397 
L 1875 -844 
L 550 -844 
L 550 4863 
z
" transform="scale(0.015625)"/>
      <path id="DejaVuSans-31" d="M 794 531 
L 1825 531 
L 1825 4091 
L 703 3866 
L 703 4441 
L 1819 4666 
L 2450 4666 
L 2450 531 
L 3481 531 
L 3481 0 
L 794 0 
L 794 531 
z
" transform="scale(0.015625)"/>
      <path id="DejaVuSans-37" d="M 525 4666 
L 3525 4666 
L 3525 4397 
L 1831 0 
L 1172 0 
L 2766 4134 
L 525 4134 
L 525 4666 
z
" transform="scale(0.015625)"/>
      <path id="DejaVuSans-5d" d="M 1947 4863 
L 1947 -844 
L 622 -844 
L 622 -397 
L 1369 -397 
L 1369 4416 
L 622 4416 
L 622 4863 
L 1947 4863 
z
" transform="scale(0.015625)"/>
     </defs>
     <use xlink:href="#DejaVuSans-41"/>
     <use xlink:href="#DejaVuSans-20" x="68.408203"/>
     <use xlink:href="#DejaVuSans-5b" x="100.195312"/>
     <use xlink:href="#DejaVuSans-31" x="139.208984"/>
     <use xlink:href="#DejaVuSans-37" x="202.832031"/>
     <use xlink:href="#DejaVuSans-5d" x="266.455078"/>
    </g>
   </g>
   <g id="text_2">
    <!-- C [10] -->
    <g transform="translate(310.986531 103.222572) scale(0.1 -0.1)">
     <defs>
      <path id="DejaVuSans-43" d="M 4122 4306 
L 4122 3641 
Q 3803 3938 3442 4084 
Q 3081 4231 2675 4231 
Q 1875 4231 1450 3742 
Q 1025 3253 1025 2328 
Q 1025 1406 1450 917 
Q 1875 428 2675 428 
Q 3081 428 3442 575 
Q 3803 722 4122 1019 
L 4122 359 
Q 3791 134 3420 21 
Q 3050 -91 2638 -91 
Q 1578 -91 968 557 
Q 359 1206 359 2328 
Q 359 3453 968 4101 
Q 1578 4750 2638 4750 
Q 3056 4750 3426 4639 
Q 3797 4528 4122 4306 
z
" transform="scale(0.015625)"/>
      <path id="DejaVuSans-30" d="M 2034 4250 
Q 1547 4250 1301 3770 
Q 1056 3291 1056 2328 
Q 1056 1369 1301 889 
Q 1547 409 2034 409 
Q 2525 409 2770 889 
Q 3016 1369 3016 2328 
Q 3016 3291 2770 3770 
Q 2525 4250 2034 4250 
z
M 2034 4750 
Q 2819 4750 3233 4129 
Q 3647 3509 3647 2328 
Q 3647 1150 3233 529 
Q 2819 -91 2034 -91 
Q 1250 -91 836 529 
Q 422 1150 422 2328 
Q 422 3509 836 4129 
Q 1250 4750 2034 4750 
z
" transform="scale(0.015625)"/>
     </defs>
     <use xlink:href="#DejaVuSans-43"/>
     <use xlink:href="#DejaVuSans-20" x="69.824219"/>
     <use xlink:href="#DejaVuSans-5b" x="101.611328"/>
     <use xlink:href="#DejaVuSans-31" x="140.625"/>
     <use xlink:href="#DejaVuSans-30" x="204.248047"/>
     <use xlink:href="#DejaVuSans-5d" x="267.871094"/>
    </g>
   </g>
   <g id="text_3">
    <!-- D [8] -->
    <g transform="translate(301.952394 84.115058) scale(0.1 -0.1)">
     <defs>
      <path id="DejaVuSans-44" d="M 1259 4147 
L 1259 519 
L 2022 519 
Q 2988 519 3436 956 
Q 3884 1394 3884 2338 
Q 3884 3275 3436 3711 
Q 2988 4147 2022 4147 
L 1259 4147 
z
M 628 4666 
L 1925 4666 
Q 3281 4666 3915 4102 
Q 4550 3538 4550 2338 
Q 4550 1131 3912 565 
Q 3275 0 1925 0 
L 628 0 
L 628 4666 
z
" transform="scale(0.015625)"/>
      <path id="DejaVuSans-38" d="M 2034 2216 
Q 1584 2216 1326 1975 
Q 1069 1734 1069 1313 
Q 1069 891 1326 650 
Q 1584 409 2034 409 
Q 2484 409 2743 651 
Q 3003 894 3003 1313 
Q 3003 1734 2745 1975 
Q 2488 2216 2034 2216 
z
M 1403 2484 
Q 997 2584 770 2862 
Q 544 3141 544 3541 
Q 544 4100 942 4425 
Q 1341 4750 2034 4750 
Q 2731 4750 3128 4425 
Q 3525 4100 3525 3541 
Q 3525 3141 3298 2862 
Q 3072 2584 2669 2484 
Q 3125 2378 3379 2068 
Q 3634 1759 3634 1313 
Q 3634 634 3220 271 
Q 2806 -91 2034 -91 
Q 1263 -91 848 271 
Q 434 634 434 1313 
Q 434 1759 690 2068 
Q 947 2378 1403 2484 
z
M 1172 3481 
Q 1172 3119 1398 2916 
Q 1625 2713 2034 2713 
Q 2441 2713 2670 2916 
Q 2900 3119 2900 3481 
Q 2900 3844 2670 4047 
Q 2441 4250 2034 4250 
Q 1625 4250 1398 4047 
Q 1172 3844 1172 3481 
z
" transform="scale(0.015625)"/>
     </defs>
     <use xlink:href="#DejaVuSans-44"/>
     <use xlink:href="#DejaVuSans-20" x="77.001953"/>
     <use xlink:href="#DejaVuSans-5b" x="108.789062"/>
     <use xlink:href="#DejaVuSans-38" x="147.802734"/>
     <use xlink:href="#DejaVuSans-5d" x="211.425781"/>
    </g>
   </g>
   <g id="text_4">
    <!-- E [8] -->
    <g transform="translate(291.602423 68.431461) scale(0.1 -0.1)">
     <defs>
      <path id="DejaVuSans-45" d="M 628 4666 
L 3578 4666 
L 3578 4134 
L 1259 4134 
L 1259 2753 
L 3481 2753 
L 3481 2222 
L 1259 2222 
L 1259 531 
L 3634 531 
L 3634 0 
L 628 0 
L 628 4666 
z
" transform="scale(0.015625)"/>
     </defs>
     <use xlink:href="#DejaVuSans-45"/>
     <use xlink:href="#DejaVuSans-20" x="63.183594"/>
     <use xlink:href="#DejaVuSans-5b" x="94.970703"/>
     <use xlink:href="#DejaVuSans-38" x="133.984375"/>
     <use xlink:href="#DejaVuSans-5d" x="197.607422"/>
    </g>
   </g>
   <g id="text_5">
    <!-- F [22] -->
    <g transform="translate(266.99578 43.306778) scale(0.1 -0.1)">
     <defs>
      <path id="DejaVuSans-46" d="M 628 4666 
L 3309 4666 
L 3309 4134 
L 1259 4134 
L 1259 2759 
L 3109 2759 
L 3109 2228 
L 1259 2228 
L 1259 0 
L 628 0 
L 628 4666 
z
" transform="scale(0.015625)"/>
      <path id="DejaVuSans-32" d="M 1228 531 
L 3431 531 
L 3431 0 
L 469 0 
L 469 531 
Q 828 903 1448 1529 
Q 2069 2156 2228 2338 
Q 2531 2678 2651 2914 
Q 2772 3150 2772 3378 
Q 2772 3750 2511 3984 
Q 2250 4219 1831 4219 
Q 1534 4219 1204 4116 
Q 875 4013 500 3803 
L 500 4441 
Q 881 4594 1212 4672 
Q 1544 4750 1819 4750 
Q 2544 4750 2975 4387 
Q 3406 4025 3406 3419 
Q 3406 3131 3298 2873 
Q 3191 2616 2906 2266 
Q 2828 2175 2409 1742 
Q 1991 1309 1228 531 
z
" transform="scale(0.015625)"/>
     </defs>
     <use xlink:href="#DejaVuSans-46"/>
     <use xlink:href="#DejaVuSans-20" x="57.519531"/>
     <use xlink:href="#DejaVuSans-5b" x="89.306641"/>
     <use xlink:href="#DejaVuSans-32" x="128.320312"/>
     <use xlink:href="#DejaVuSans-32" x="191.943359"/>
     <use xlink:href="#DejaVuSans-5d" x="255.566406"/>
    </g>
   </g>
   <g id="text_6">
    <!-- G [14] -->
    <g transform="translate(230.432387 22.332094) scale(0.1 -0.1)">
     <defs>
      <path id="DejaVuSans-47" d="M 3809 666 
L 3809 1919 
L 2778 1919 
L 2778 2438 
L 4434 2438 
L 4434 434 
Q 4069 175 3628 42 
Q 3188 -91 2688 -91 
Q 1594 -91 976 548 
Q 359 1188 359 2328 
Q 359 3472 976 4111 
Q 1594 4750 2688 4750 
Q 3144 4750 3555 4637 
Q 3966 4525 4313 4306 
L 4313 3634 
Q 3963 3931 3569 4081 
Q 3175 4231 2741 4231 
Q 1884 4231 1454 3753 
Q 1025 3275 1025 2328 
Q 1025 1384 1454 906 
Q 1884 428 2741 428 
Q 3075 428 3337 486 
Q 3600 544 3809 666 
z
" transform="scale(0.015625)"/>
      <path id="DejaVuSans-34" d="M 2419 4116 
L 825 1625 
L 2419 1625 
L 2419 4116 
z
M 2253 4666 
L 3047 4666 
L 3047 1625 
L 3713 1625 
L 3713 1100 
L 3047 1100 
L 3047 0 
L 2419 0 
L 2419 1100 
L 313 1100 
L 313 1709 
L 2253 4666 
z
" transform="scale(0.015625)"/>
     </defs>
     <use xlink:href="#DejaVuSans-47"/>
     <use xlink:href="#DejaVuSans-20" x="77.490234"/>
     <use xlink:href="#DejaVuSans-5b" x="109.277344"/>
     <use xlink:href="#DejaVuSans-31" x="148.291016"/>
     <use xlink:href="#DejaVuSans-34" x="211.914062"/>
     <use xlink:href="#DejaVuSans-5d" x="275.537109"/>
    </g>
   </g>
   <g id="text_7">
    <!-- H [10] -->
    <g transform="translate(203.298607 14.798437) scale(0.1 -0.1)">
     <defs>
      <path id="DejaVuSans-48" d="M 628 4666 
L 1259 4666 
L 1259 2753 
L 3553 2753 
L 3553 4666 
L 4184 4666 
L 4184 0 
L 3553 0 
L 3553 2222 
L 1259 2222 
L 1259 0 
L 628 0 
L 628 4666 
z
" transform="scale(0.015625)"/>
     </defs>
     <use xlink:href="#DejaVuSans-48"/>
     <use xlink:href="#DejaVuSans-20" x="75.195312"/>
     <use xlink:href="#DejaVuSans-5b" x="106.982422"/>
     <use xlink:href="#DejaVuSans-31" x="145.996094"/>
     <use xlink:href="#DejaVuSans-30" x="209.619141"/>
     <use xlink:href="#DejaVuSans-5d" x="273.242188"/>
    </g>
   </g>
   <g id="text_8">
    <!-- I [41] -->
    <g transform="translate(117.203746 17.276423) scale(0.1 -0.1)">
     <defs>
      <path id="DejaVuSans-49" d="M 628 4666 
L 1259 4666 
L 1259 0 
L 628 0 
L 628 4666 
z
" transform="scale(0.015625)"/>
     </defs>
     <use xlink:href="#DejaVuSans-49"/>
     <use xlink:href="#DejaVuSans-20" x="29.492188"/>
     <use xlink:href="#DejaVuSans-5b" x="61.279297"/>
     <use xlink:href="#DejaVuSans-34" x="100.292969"/>
     <use xlink:href="#DejaVuSans-31" x="163.916016"/>
     <use xlink:href="#DejaVuSans-5d" x="227.539062"/>
    </g>
   </g>
   <g id="text_9">
    <!-- K [21] -->
    <g transform="translate(50.792928 52.611256) scale(0.1 -0.1)">
     <defs>
      <path id="DejaVuSans-4b" d="M 628 4666 
L 1259 4666 
L 1259 2694 
L 3353 4666 
L 4166 4666 
L 1850 2491 
L 4331 0 
L 3500 0 
L 1259 2247 
L 1259 0 
L 628 0 
L 628 4666 
z
" transform="scale(0.015625)"/>
     </defs>
     <use xlink:href="#DejaVuSans-4b"/>
     <use xlink:href="#DejaVuSans-20" x="65.576172"/>
     <use xlink:href="#DejaVuSans-5b" x="97.363281"/>
     <use xlink:href="#DejaVuSans-32" x="136.376953"/>
     <use xlink:href="#DejaVuSans-31" x="200"/>
     <use xlink:href="#DejaVuSans-5d" x="263.623047"/>
    </g>
   </g>
   <g id="text_10">
    <!-- L [38] -->
    <g transform="translate(15.655491 110.984469) scale(0.1 -0.1)">
     <defs>
      <path id="DejaVuSans-4c" d="M 628 4666 
L 1259 4666 
L 1259 531 
L 3531 531 
L 3531 0 
L 628 0 
L 628 4666 
z
" transform="scale(0.015625)"/>
      <path id="DejaVuSans-33" d="M 2597 2516 
Q 3050 2419 3304 2112 
Q 3559 1806 3559 1356 
Q 3559 666 3084 287 
Q 2609 -91 1734 -91 
Q 1441 -91 1130 -33 
Q 819 25 488 141 
L 488 750 
Q 750 597 1062 519 
Q 1375 441 1716 441 
Q 2309 441 2620 675 
Q 2931 909 2931 1356 
Q 2931 1769 2642 2001 
Q 2353 2234 1838 2234 
L 1294 2234 
L 1294 2753 
L 1863 2753 
Q 2328 2753 2575 2939 
Q 2822 3125 2822 3475 
Q 2822 3834 2567 4026 
Q 2313 4219 1838 4219 
Q 1578 4219 1281 4162 
Q 984 4106 628 3988 
L 628 4550 
Q 988 4650 1302 4700 
Q 1616 4750 1894 4750 
Q 2613 4750 3031 4423 
Q 3450 4097 3450 3541 
Q 3450 3153 3228 2886 
Q 3006 2619 2597 2516 
z
" transform="scale(0.015625)"/>
     </defs>
     <use xlink:href="#DejaVuSans-4c"/>
     <use xlink:href="#DejaVuSans-20" x="55.712891"/>
     <use xlink:href="#DejaVuSans-5b" x="87.5"/>
     <use xlink:href="#DejaVuSans-33" x="126.513672"/>
     <use xlink:href="#DejaVuSans-38" x="190.136719"/>
     <use xlink:href="#DejaVuSans-5d" x="253.759766"/>
    </g>
   </g>
   <g id="text_11">
    <!-- M [15] -->
    <g transform="translate(7.2 172.533985) scale(0.1 -0.1)">
     <defs>
      <path id="DejaVuSans-4d" d="M 628 4666 
L 1569 4666 
L 2759 1491 
L 3956 4666 
L 4897 4666 
L 4897 0 
L 4281 0 
L 4281 4097 
L 3078 897 
L 2444 897 
L 1241 4097 
L 1241 0 
L 628 0 
L 628 4666 
z
" transform="scale(0.015625)"/>
      <path id="DejaVuSans-35" d="M 691 4666 
L 3169 4666 
L 3169 4134 
L 1269 4134 
L 1269 2991 
Q 1406 3038 1543 3061 
Q 1681 3084 1819 3084 
Q 2600 3084 3056 2656 
Q 3513 2228 3513 1497 
Q 3513 744 3044 326 
Q 2575 -91 1722 -91 
Q 1428 -91 1123 -41 
Q 819 9 494 109 
L 494 744 
Q 775 591 1075 516 
Q 1375 441 1709 441 
Q 2250 441 2565 725 
Q 2881 1009 2881 1497 
Q 2881 1984 2565 2268 
Q 2250 2553 1709 2553 
Q 1456 2553 1204 2497 
Q 953 2441 691 2322 
L 691 4666 
z
" transform="scale(0.015625)"/>
     </defs>
     <use xlink:href="#DejaVuSans-4d"/>
     <use xlink:href="#DejaVuSans-20" x="86.279297"/>
     <use xlink:href="#DejaVuSans-5b" x="118.066406"/>
     <use xlink:href="#DejaVuSans-31" x="157.080078"/>
     <use xlink:href="#DejaVuSans-35" x="220.703125"/>
     <use xlink:href="#DejaVuSans-5d" x="284.326172"/>
    </g>
   </g>
   <g id="text_12">
    <!-- N [20] -->
    <g transform="translate(19.641565 211.937019) scale(0.1 -0.1)">
     <defs>
      <path id="DejaVuSans-4e" d="M 628 4666 
L 1478 4666 
L 3547 763 
L 3547 4666 
L 4159 4666 
L 4159 0 
L 3309 0 
L 1241 3903 
L 1241 0 
L 628 0 
L 628 4666 
z
" transform="scale(0.015625)"/>
     </defs>
     <use xlink:href="#DejaVuSans-4e"/>
     <use xlink:href="#DejaVuSans-20" x="74.804688"/>
     <use xlink:href="#DejaVuSans-5b" x="106.591797"/>
     <use xlink:href="#DejaVuSans-32" x="145.605469"/>
     <use xlink:href="#DejaVuSans-30" x="209.228516"/>
     <use xlink:href="#DejaVuSans-5d" x="272.851562"/>
    </g>
   </g>
   <g id="text_13">
    <!-- P [8] -->
    <g transform="translate(44.383225 240.070905) scale(0.1 -0.1)">
     <defs>
      <path id="DejaVuSans-50" d="M 1259 4147 
L 1259 2394 
L 2053 2394 
Q 2494 2394 2734 2622 
Q 2975 2850 2975 3272 
Q 2975 3691 2734 3919 
Q 2494 4147 2053 4147 
L 1259 4147 
z
M 628 4666 
L 2053 4666 
Q 2838 4666 3239 4311 
Q 3641 3956 3641 3272 
Q 3641 2581 3239 2228 
Q 2838 1875 2053 1875 
L 1259 1875 
L 1259 0 
L 628 0 
L 628 4666 
z
" transform="scale(0.015625)"/>
     </defs>
     <use xlink:href="#DejaVuSans-50"/>
     <use xlink:href="#DejaVuSans-20" x="60.302734"/>
     <use xlink:href="#DejaVuSans-5b" x="92.089844"/>
     <use xlink:href="#DejaVuSans-38" x="131.103516"/>
     <use xlink:href="#DejaVuSans-5d" x="194.726562"/>
    </g>
   </g>
   <g id="text_14">
    <!-- Q [11] -->
    <g transform="translate(51.178623 256.582023) scale(0.1 -0.1)">
     <defs>
      <path id="DejaVuSans-51" d="M 2522 4238 
Q 1834 4238 1429 3725 
Q 1025 3213 1025 2328 
Q 1025 1447 1429 934 
Q 1834 422 2522 422 
Q 3209 422 3611 934 
Q 4013 1447 4013 2328 
Q 4013 3213 3611 3725 
Q 3209 4238 2522 4238 
z
M 3406 84 
L 4238 -825 
L 3475 -825 
L 2784 -78 
Q 2681 -84 2626 -87 
Q 2572 -91 2522 -91 
Q 1538 -91 948 567 
Q 359 1225 359 2328 
Q 359 3434 948 4092 
Q 1538 4750 2522 4750 
Q 3503 4750 4090 4092 
Q 4678 3434 4678 2328 
Q 4678 1516 4351 937 
Q 4025 359 3406 84 
z
" transform="scale(0.015625)"/>
     </defs>
     <use xlink:href="#DejaVuSans-51"/>
     <use xlink:href="#DejaVuSans-20" x="78.710938"/>
     <use xlink:href="#DejaVuSans-5b" x="110.498047"/>
     <use xlink:href="#DejaVuSans-31" x="149.511719"/>
     <use xlink:href="#DejaVuSans-31" x="213.134766"/>
     <use xlink:href="#DejaVuSans-5d" x="276.757812"/>
    </g>
   </g>
   <g id="text_15">
    <!-- R [21] -->
    <g transform="translate(82.603254 278.39482) scale(0.1 -0.1)">
     <defs>
      <path id="DejaVuSans-52" d="M 2841 2188 
Q 3044 2119 3236 1894 
Q 3428 1669 3622 1275 
L 4263 0 
L 3584 0 
L 2988 1197 
Q 2756 1666 2539 1819 
Q 2322 1972 1947 1972 
L 1259 1972 
L 1259 0 
L 628 0 
L 628 4666 
L 2053 4666 
Q 2853 4666 3247 4331 
Q 3641 3997 3641 3322 
Q 3641 2881 3436 2590 
Q 3231 2300 2841 2188 
z
M 1259 4147 
L 1259 2491 
L 2053 2491 
Q 2509 2491 2742 2702 
Q 2975 2913 2975 3322 
Q 2975 3731 2742 3939 
Q 2509 4147 2053 4147 
L 1259 4147 
z
" transform="scale(0.015625)"/>
     </defs>
     <use xlink:href="#DejaVuSans-52"/>
     <use xlink:href="#DejaVuSans-20" x="69.482422"/>
     <use xlink:href="#DejaVuSans-5b" x="101.269531"/>
     <use xlink:href="#DejaVuSans-32" x="140.283203"/>
     <use xlink:href="#DejaVuSans-31" x="203.90625"/>
     <use xlink:href="#DejaVuSans-5d" x="267.529297"/>
    </g>
   </g>
   <g id="text_16">
    <!-- S [41] -->
    <g transform="translate(183.434936 294.764223) scale(0.1 -0.1)">
     <defs>
      <path id="DejaVuSans-53" d="M 3425 4513 
L 3425 3897 
Q 3066 4069 2747 4153 
Q 2428 4238 2131 4238 
Q 1616 4238 1336 4038 
Q 1056 3838 1056 3469 
Q 1056 3159 1242 3001 
Q 1428 2844 1947 2747 
L 2328 2669 
Q 3034 2534 3370 2195 
Q 3706 1856 3706 1288 
Q 3706 609 3251 259 
Q 2797 -91 1919 -91 
Q 1588 -91 1214 -16 
Q 841 59 441 206 
L 441 856 
Q 825 641 1194 531 
Q 1563 422 1919 422 
Q 2459 422 2753 634 
Q 3047 847 3047 1241 
Q 3047 1584 2836 1778 
Q 2625 1972 2144 2069 
L 1759 2144 
Q 1053 2284 737 2584 
Q 422 2884 422 3419 
Q 422 4038 858 4394 
Q 1294 4750 2059 4750 
Q 2388 4750 2728 4690 
Q 3069 4631 3425 4513 
z
" transform="scale(0.015625)"/>
     </defs>
     <use xlink:href="#DejaVuSans-53"/>
     <use xlink:href="#DejaVuSans-20" x="63.476562"/>
     <use xlink:href="#DejaVuSans-5b" x="95.263672"/>
     <use xlink:href="#DejaVuSans-34" x="134.277344"/>
     <use xlink:href="#DejaVuSans-31" x="197.900391"/>
     <use xlink:href="#DejaVuSans-5d" x="261.523438"/>
    </g>
   </g>
   <g id="text_17">
    <!-- T [23] -->
    <g transform="translate(254.537055 273.094492) scale(0.1 -0.1)">
     <defs>
      <path id="DejaVuSans-54" d="M -19 4666 
L 3928 4666 
L 3928 4134 
L 2272 4134 
L 2272 0 
L 1638 0 
L 1638 4134 
L -19 4134 
L -19 4666 
z
" transform="scale(0.015625)"/>
     </defs>
     <use xlink:href="#DejaVuSans-54"/>
     <use xlink:href="#DejaVuSans-20" x="61.083984"/>
     <use xlink:href="#DejaVuSans-5b" x="92.871094"/>
     <use xlink:href="#DejaVuSans-32" x="131.884766"/>
     <use xlink:href="#DejaVuSans-33" x="195.507812"/>
     <use xlink:href="#DejaVuSans-5d" x="259.130859"/>
    </g>
   </g>
   <g id="text_18">
    <!-- V [27] -->
    <g transform="translate(296.387461 232.447233) scale(0.1 -0.1)">
     <defs>
      <path id="DejaVuSans-56" d="M 1831 0 
L 50 4666 
L 709 4666 
L 2188 738 
L 3669 4666 
L 4325 4666 
L 2547 0 
L 1831 0 
z
" transform="scale(0.015625)"/>
     </defs>
     <use xlink:href="#DejaVuSans-56"/>
     <use xlink:href="#DejaVuSans-20" x="68.408203"/>
     <use xlink:href="#DejaVuSans-5b" x="100.195312"/>
     <use xlink:href="#DejaVuSans-32" x="139.208984"/>
     <use xlink:href="#DejaVuSans-37" x="202.832031"/>
     <use xlink:href="#DejaVuSans-5d" x="266.455078"/>
    </g>
   </g>
   <g id="text_19">
    <!-- W [5] -->
    <g transform="translate(312.978364 198.81893) scale(0.1 -0.1)">
     <defs>
      <path id="DejaVuSans-57" d="M 213 4666 
L 850 4666 
L 1831 722 
L 2809 4666 
L 3519 4666 
L 4500 722 
L 5478 4666 
L 6119 4666 
L 4947 0 
L 4153 0 
L 3169 4050 
L 2175 0 
L 1381 0 
L 213 4666 
z
" transform="scale(0.015625)"/>
     </defs>
     <use xlink:href="#DejaVuSans-57"/>
     <use xlink:href="#DejaVuSans-20" x="98.876953"/>
     <use xlink:href="#DejaVuSans-5b" x="130.664062"/>
     <use xlink:href="#DejaVuSans-35" x="169.677734"/>
     <use xlink:href="#DejaVuSans-5d" x="233.300781"/>
    </g>
   </g>
   <g id="text_20">
    <!-- Y [17] -->
    <g transform="translate(318.948468 173.698189) scale(0.1 -0.1)">
     <defs>
      <path id="DejaVuSans-59" d="M -13 4666 
L 666 4666 
L 1959 2747 
L 3244 4666 
L 3922 4666 
L 2272 2222 
L 2272 0 
L 1638 0 
L 1638 2222 
L -13 4666 
z
" transform="scale(0.015625)"/>
     </defs>
     <use xlink:href="#DejaVuSans-59"/>
     <use xlink:href="#DejaVuSans-20" x="61.083984"/>
     <use xlink:href="#DejaVuSans-5b" x="92.871094"/>
     <use xlink:href="#DejaVuSans-31" x="131.884766"/>
     <use xlink:href="#DejaVuSans-37" x="195.507812"/>
     <use xlink:href="#DejaVuSans-5d" x="259.130859"/>
    </g>
   </g>
   <g id="text_21">
    <!-- G1MMN0 [377] -->
    <g transform="translate(134.154154 151.025471) scale(0.12 -0.12)">
     <use xlink:href="#DejaVuSans-47"/>
     <use xlink:href="#DejaVuSans-31" x="77.490234"/>
     <use xlink:href="#DejaVuSans-4d" x="141.113281"/>
     <use xlink:href="#DejaVuSans-4d" x="227.392578"/>
     <use xlink:href="#DejaVuSans-4e" x="313.671875"/>
     <use xlink:href="#DejaVuSans-30" x="388.476562"/>
     <use xlink:href="#DejaVuSans-20" x="452.099609"/>
     <use xlink:href="#DejaVuSans-5b" x="483.886719"/>
     <use xlink:href="#DejaVuSans-33" x="522.900391"/>
     <use xlink:href="#DejaVuSans-37" x="586.523438"/>
     <use xlink:href="#DejaVuSans-37" x="650.146484"/>
     <use xlink:href="#DejaVuSans-5d" x="713.769531"/>
    </g>
   </g>
  </g>
 </g>
</svg>
