<?xml version="1.0" encoding="utf-8" standalone="no"?>
<!DOCTYPE svg PUBLIC "-//W3C//DTD SVG 1.1//EN"
  "http://www.w3.org/Graphics/SVG/1.1/DTD/svg11.dtd">
<svg xmlns:xlink="http://www.w3.org/1999/xlink" width="354.959651pt" height="304.798711pt" viewBox="0 0 354.959651 304.798711" xmlns="http://www.w3.org/2000/svg" version="1.1">
 <metadata>
  <rdf:RDF xmlns:dc="http://purl.org/dc/elements/1.1/" xmlns:cc="http://creativecommons.org/ns#" xmlns:rdf="http://www.w3.org/1999/02/22-rdf-syntax-ns#">
   <cc:Work>
    <dc:type rdf:resource="http://purl.org/dc/dcmitype/StillImage"/>
    <dc:date>2024-09-27T16:07:18.897952</dc:date>
    <dc:format>image/svg+xml</dc:format>
    <dc:creator>
     <cc:Agent>
      <dc:title>Matplotlib v3.8.3, https://matplotlib.org/</dc:title>
     </cc:Agent>
    </dc:creator>
   </cc:Work>
  </rdf:RDF>
 </metadata>
 <defs>
  <style type="text/css">*{stroke-linejoin: round; stroke-linecap: butt}</style>
 </defs>
 <g id="figure_1">
  <g id="patch_1">
   <path d="M 0 304.798711 
L 354.959651 304.798711 
L 354.959651 0 
L 0 0 
z
" style="fill: #ffffff"/>
  </g>
  <g id="axes_1">
   <g id="patch_2">
    <path d="M 305.765369 152.710035 
C 305.765369 143.626123 304.796351 134.568071 302.874776 125.689726 
C 300.9532 116.811382 298.090006 108.163294 294.333824 99.892348 
L 178.031609 152.710035 
z
" style="fill: #1f77b4"/>
   </g>
   <g id="patch_3">
    <path d="M 294.285258 99.758268 
C 293.306247 97.602529 292.267488 95.474427 291.170185 93.376428 
C 290.072883 91.278429 288.917461 89.211345 287.705258 87.177571 
L 177.983042 152.575955 
z
" style="fill: #ff7f0e"/>
   </g>
   <g id="patch_4">
    <path d="M 287.672195 87.122679 
C 286.257926 84.749887 284.76706 82.423596 283.201949 80.147475 
C 281.636838 77.871355 279.998306 75.646602 278.288937 73.476728 
L 177.949979 152.521063 
z
" style="fill: #aec7e8"/>
   </g>
   <g id="patch_5">
    <path d="M 278.242923 73.418871 
C 276.289306 70.938948 274.244422 68.532303 272.112484 66.203897 
C 269.980545 63.87549 267.763018 61.626922 265.464472 59.462824 
L 177.903964 152.463206 
z
" style="fill: #ffbb78"/>
   </g>
   <g id="patch_6">
    <path d="M 265.316413 59.349487 
C 256.683994 51.222005 246.961857 44.335868 236.430328 38.88963 
C 225.898798 33.443393 214.66008 29.489908 203.038229 27.143169 
L 177.755905 152.349868 
z
" style="fill: #98df8a"/>
   </g>
   <g id="patch_7">
    <path d="M 202.825792 27.084661 
C 197.021858 25.912704 191.143453 25.145724 185.233116 24.789271 
C 179.32278 24.432819 173.394804 24.487757 167.492089 24.953687 
L 177.543469 152.291361 
z
" style="fill: #2ca02c"/>
   </g>
   <g id="patch_8">
    <path d="M 167.364393 24.961388 
C 163.03654 25.303006 158.728915 25.86504 154.458294 26.645301 
C 150.187672 27.425562 145.959605 28.423036 141.790555 29.633837 
L 177.415772 152.299062 
z
" style="fill: #d62728"/>
   </g>
   <g id="patch_9">
    <path d="M 141.620099 29.696475 
C 131.756214 32.561208 122.273782 36.605289 113.378435 41.74102 
C 104.483088 46.876751 96.239595 53.066738 88.826722 60.176747 
L 177.245317 152.3617 
z
" style="fill: #9467bd"/>
   </g>
   <g id="patch_10">
    <path d="M 88.657097 60.332059 
C 82.672285 66.072352 77.260676 72.381845 72.498932 79.171155 
C 67.737188 85.960465 63.647901 93.197381 60.289002 100.779381 
L 177.075692 152.517012 
z
" style="fill: #ff9896"/>
   </g>
   <g id="patch_11">
    <path d="M 60.192537 101.089921 
C 52.813023 117.747604 49.082114 135.79296 49.250953 154.011278 
C 49.419791 172.229596 53.484503 190.202706 61.171475 206.720759 
L 176.979228 152.827552 
z
" style="fill: #c5b0d5"/>
   </g>
   <g id="patch_12">
    <path d="M 61.243994 206.984072 
C 62.909095 210.562104 64.739124 214.061046 66.728191 217.469637 
C 68.717257 220.878228 70.863225 224.192806 73.159186 227.402702 
L 177.051747 153.090864 
z
" style="fill: #c49c94"/>
   </g>
   <g id="patch_13">
    <path d="M 73.239922 227.508172 
C 77.144375 232.96684 81.472973 238.109309 86.185494 242.887798 
C 90.898016 247.666286 95.97982 252.065948 101.383687 256.045901 
L 177.132483 153.196334 
z
" style="fill: #8c564b"/>
   </g>
   <g id="patch_14">
    <path d="M 101.492261 256.13062 
C 104.987832 258.705111 108.61238 261.099721 112.351792 263.305127 
C 116.091204 265.510532 119.940619 267.523866 123.885048 269.337288 
L 177.241057 153.281053 
z
" style="fill: #e377c2"/>
   </g>
   <g id="patch_15">
    <path d="M 123.974161 269.379262 
C 127.20119 270.862865 130.488694 272.211228 133.828101 273.420835 
C 137.167509 274.630442 140.555915 275.700241 143.984485 276.627442 
L 177.33017 153.323027 
z
" style="fill: #7f7f7f"/>
   </g>
   <g id="patch_16">
    <path d="M 144.070087 276.650592 
C 147.498657 277.577793 150.964408 278.36159 154.458303 278.999939 
C 157.952198 279.638289 161.471198 280.130635 165.006127 280.475694 
L 177.415773 153.346177 
z
" style="fill: #f7b6d2"/>
   </g>
   <g id="patch_17">
    <path d="M 165.168195 280.480201 
C 174.603011 281.401173 184.111097 281.268993 193.516665 280.086106 
C 202.922234 278.903219 212.166959 276.676959 221.079922 273.448487 
L 177.57784 153.350684 
z
" style="fill: #c7c7c7"/>
   </g>
   <g id="patch_18">
    <path d="M 221.321133 273.354738 
C 232.096051 269.451825 242.296886 264.116549 251.648696 257.492712 
C 261.000507 250.868874 269.418512 243.016525 276.675823 234.147307 
L 177.819052 153.256935 
z
" style="fill: #dbdb8d"/>
   </g>
   <g id="patch_19">
    <path d="M 276.83516 233.968354 
C 281.836268 227.85646 286.259808 221.293919 290.048929 214.365074 
C 293.838049 207.436229 296.976446 200.170892 299.423785 192.662439 
L 177.978389 153.077982 
z
" style="fill: #bcbd22"/>
   </g>
   <g id="patch_20">
    <path d="M 299.472475 192.538862 
C 300.328506 189.912551 301.09912 187.259164 301.7831 184.582885 
C 302.46708 181.906606 303.064066 179.208844 303.573117 176.493855 
L 178.027079 152.954405 
z
" style="fill: #17becf"/>
   </g>
   <g id="patch_21">
    <path d="M 303.587407 176.411322 
C 304.314689 172.532413 304.861815 168.621881 305.227023 164.692314 
C 305.592231 160.762746 305.775129 156.818364 305.775129 152.871862 
L 178.041369 152.871871 
z
" style="fill: #9edae5"/>
   </g>
   <g id="patch_22">
    <path d="M 252.022789 152.822619 
C 252.022789 147.523671 251.457529 142.239807 250.336609 137.060773 
C 249.21569 131.881738 247.545494 126.837021 245.354388 122.012302 
L 177.511429 152.822619 
z
" style="fill: #ffffff"/>
   </g>
   <g id="patch_23">
    <path d="M 245.354388 122.012302 
C 244.783298 120.754788 244.177356 119.513395 243.537262 118.289562 
C 242.897169 117.06573 242.223173 115.85993 241.516055 114.673562 
L 177.511429 152.822619 
z
" style="fill: #ffffff"/>
   </g>
   <g id="patch_24">
    <path d="M 241.516055 114.673562 
C 240.691065 113.289434 239.821393 111.93243 238.908411 110.604693 
C 237.99543 109.276956 237.03962 107.979184 236.042488 106.713424 
L 177.511429 152.822619 
z
" style="fill: #ffffff"/>
   </g>
   <g id="patch_25">
    <path d="M 236.042488 106.713424 
C 234.902878 105.266802 233.710029 103.862926 232.466398 102.504689 
C 231.222768 101.146452 229.92921 99.834787 228.588391 98.572397 
L 177.511429 152.822619 
z
" style="fill: #ffffff"/>
   </g>
   <g id="patch_26">
    <path d="M 228.588391 98.572397 
C 223.552814 93.831366 217.881567 89.814452 211.738175 86.637481 
C 205.594783 83.460509 199.038864 81.154309 192.259451 79.785378 
L 177.511429 152.822619 
z
" style="fill: #ffffff"/>
   </g>
   <g id="patch_27">
    <path d="M 192.259451 79.785378 
C 188.873823 79.101736 185.444753 78.654331 181.997056 78.446401 
C 178.54936 78.23847 175.091374 78.270517 171.648124 78.54231 
L 177.511429 152.822619 
z
" style="fill: #ffffff"/>
   </g>
   <g id="patch_28">
    <path d="M 171.648124 78.54231 
C 169.123543 78.741587 166.610762 79.06944 164.119566 79.524592 
C 161.62837 79.979744 159.161997 80.561604 156.730052 81.267905 
L 177.511429 152.822619 
z
" style="fill: #ffffff"/>
   </g>
   <g id="patch_29">
    <path d="M 156.730052 81.267905 
C 150.976119 82.938999 145.4447 85.298046 140.255748 88.293889 
C 135.066795 91.289732 130.258091 94.900558 125.933915 99.048064 
L 177.511429 152.822619 
z
" style="fill: #ffffff"/>
   </g>
   <g id="patch_30">
    <path d="M 125.933915 99.048064 
C 122.442775 102.396568 119.286003 106.077105 116.508319 110.037536 
C 113.730635 113.997967 111.345217 118.219501 109.385859 122.642335 
L 177.511429 152.822619 
z
" style="fill: #ffffff"/>
   </g>
   <g id="patch_31">
    <path d="M 109.385859 122.642335 
C 105.081143 132.359316 102.904779 142.885774 103.003268 153.513126 
C 103.101758 164.140478 105.47284 174.624793 109.956906 184.260324 
L 177.511429 152.822619 
z
" style="fill: #ffffff"/>
   </g>
   <g id="patch_32">
    <path d="M 109.956906 184.260324 
C 110.928215 186.347509 111.995732 188.388559 113.156021 190.376903 
C 114.31631 192.365248 115.568124 194.298752 116.907435 196.171192 
L 177.511429 152.822619 
z
" style="fill: #ffffff"/>
   </g>
   <g id="patch_33">
    <path d="M 116.907435 196.171192 
C 119.185033 199.355415 121.710048 202.355188 124.459019 205.14264 
C 127.20799 207.930092 130.172375 210.496561 133.324631 212.8182 
L 177.511429 152.822619 
z
" style="fill: #ffffff"/>
   </g>
   <g id="patch_34">
    <path d="M 133.324631 212.8182 
C 135.363714 214.319986 137.478034 215.716842 139.659358 217.003329 
C 141.840681 218.289816 144.086173 219.46426 146.38709 220.52209 
L 177.511429 152.822619 
z
" style="fill: #ffffff"/>
   </g>
   <g id="patch_35">
    <path d="M 146.38709 220.52209 
C 148.269523 221.387525 150.187234 222.17407 152.135222 222.879674 
C 154.08321 223.585278 156.05978 224.209327 158.059779 224.750195 
L 177.511429 152.822619 
z
" style="fill: #ffffff"/>
   </g>
   <g id="patch_36">
    <path d="M 158.059779 224.750195 
C 160.059778 225.291062 162.081466 225.748277 164.119571 226.120648 
C 166.157677 226.493018 168.210427 226.78022 170.272469 226.981504 
L 177.511429 152.822619 
z
" style="fill: #ffffff"/>
   </g>
   <g id="patch_37">
    <path d="M 170.272469 226.981504 
C 175.776111 227.518738 181.322495 227.441633 186.809077 226.751616 
C 192.295658 226.061598 197.688415 224.762947 202.887643 222.879671 
L 177.511429 152.822619 
z
" style="fill: #ffffff"/>
   </g>
   <g id="patch_38">
    <path d="M 202.887643 222.879671 
C 209.173011 220.602972 215.123498 217.490727 220.578721 213.626822 
C 226.033944 209.762917 230.944447 205.18238 235.177878 200.00867 
L 177.511429 152.822619 
z
" style="fill: #ffffff"/>
   </g>
   <g id="patch_39">
    <path d="M 235.177878 200.00867 
C 238.095191 196.443398 240.67559 192.615249 242.88591 188.573423 
C 245.09623 184.531597 246.926962 180.293483 248.354576 175.913553 
L 177.511429 152.822619 
z
" style="fill: #ffffff"/>
   </g>
   <g id="patch_40">
    <path d="M 248.354576 175.913553 
C 248.853928 174.381538 249.303453 172.833729 249.702441 171.272566 
C 250.101429 169.711403 250.449671 168.137709 250.746618 166.553966 
L 177.511429 152.822619 
z
" style="fill: #ffffff"/>
   </g>
   <g id="patch_41">
    <path d="M 250.746618 166.553966 
C 251.170866 164.291268 251.490022 162.010125 251.70306 159.717877 
C 251.916098 157.42563 252.022789 155.12474 252.022789 152.822614 
L 177.511429 152.822619 
z
" style="fill: #ffffff"/>
   </g>
   <g id="matplotlib.axis_1"/>
   <g id="matplotlib.axis_2"/>
   <g id="text_1">
    <!-- A [23] -->
    <g transform="translate(315.359092 125.747071) scale(0.1 -0.1)">
     <defs>
      <path id="DejaVuSans-41" d="M 2188 4044 
L 1331 1722 
L 3047 1722 
L 2188 4044 
z
M 1831 4666 
L 2547 4666 
L 4325 0 
L 3669 0 
L 3244 1197 
L 1141 1197 
L 716 0 
L 50 0 
L 1831 4666 
z
" transform="scale(0.015625)"/>
      <path id="DejaVuSans-20" transform="scale(0.015625)"/>
      <path id="DejaVuSans-5b" d="M 550 4863 
L 1875 4863 
L 1875 4416 
L 1125 4416 
L 1125 -397 
L 1875 -397 
L 1875 -844 
L 550 -844 
L 550 4863 
z
" transform="scale(0.015625)"/>
      <path id="DejaVuSans-32" d="M 1228 531 
L 3431 531 
L 3431 0 
L 469 0 
L 469 531 
Q 828 903 1448 1529 
Q 2069 2156 2228 2338 
Q 2531 2678 2651 2914 
Q 2772 3150 2772 3378 
Q 2772 3750 2511 3984 
Q 2250 4219 1831 4219 
Q 1534 4219 1204 4116 
Q 875 4013 500 3803 
L 500 4441 
Q 881 4594 1212 4672 
Q 1544 4750 1819 4750 
Q 2544 4750 2975 4387 
Q 3406 4025 3406 3419 
Q 3406 3131 3298 2873 
Q 3191 2616 2906 2266 
Q 2828 2175 2409 1742 
Q 1991 1309 1228 531 
z
" transform="scale(0.015625)"/>
      <path id="DejaVuSans-33" d="M 2597 2516 
Q 3050 2419 3304 2112 
Q 3559 1806 3559 1356 
Q 3559 666 3084 287 
Q 2609 -91 1734 -91 
Q 1441 -91 1130 -33 
Q 819 25 488 141 
L 488 750 
Q 750 597 1062 519 
Q 1375 441 1716 441 
Q 2309 441 2620 675 
Q 2931 909 2931 1356 
Q 2931 1769 2642 2001 
Q 2353 2234 1838 2234 
L 1294 2234 
L 1294 2753 
L 1863 2753 
Q 2328 2753 2575 2939 
Q 2822 3125 2822 3475 
Q 2822 3834 2567 4026 
Q 2313 4219 1838 4219 
Q 1578 4219 1281 4162 
Q 984 4106 628 3988 
L 628 4550 
Q 988 4650 1302 4700 
Q 1616 4750 1894 4750 
Q 2613 4750 3031 4423 
Q 3450 4097 3450 3541 
Q 3450 3153 3228 2886 
Q 3006 2619 2597 2516 
z
" transform="scale(0.015625)"/>
      <path id="DejaVuSans-5d" d="M 1947 4863 
L 1947 -844 
L 622 -844 
L 622 -397 
L 1369 -397 
L 1369 4416 
L 622 4416 
L 622 4863 
L 1947 4863 
z
" transform="scale(0.015625)"/>
     </defs>
     <use xlink:href="#DejaVuSans-41"/>
     <use xlink:href="#DejaVuSans-20" x="68.408203"/>
     <use xlink:href="#DejaVuSans-5b" x="100.195312"/>
     <use xlink:href="#DejaVuSans-32" x="139.208984"/>
     <use xlink:href="#DejaVuSans-33" x="202.832031"/>
     <use xlink:href="#DejaVuSans-5d" x="266.455078"/>
    </g>
   </g>
   <g id="text_2">
    <!-- C [6] -->
    <g transform="translate(302.4889 90.21585) scale(0.1 -0.1)">
     <defs>
      <path id="DejaVuSans-43" d="M 4122 4306 
L 4122 3641 
Q 3803 3938 3442 4084 
Q 3081 4231 2675 4231 
Q 1875 4231 1450 3742 
Q 1025 3253 1025 2328 
Q 1025 1406 1450 917 
Q 1875 428 2675 428 
Q 3081 428 3442 575 
Q 3803 722 4122 1019 
L 4122 359 
Q 3791 134 3420 21 
Q 3050 -91 2638 -91 
Q 1578 -91 968 557 
Q 359 1206 359 2328 
Q 359 3453 968 4101 
Q 1578 4750 2638 4750 
Q 3056 4750 3426 4639 
Q 3797 4528 4122 4306 
z
" transform="scale(0.015625)"/>
      <path id="DejaVuSans-36" d="M 2113 2584 
Q 1688 2584 1439 2293 
Q 1191 2003 1191 1497 
Q 1191 994 1439 701 
Q 1688 409 2113 409 
Q 2538 409 2786 701 
Q 3034 994 3034 1497 
Q 3034 2003 2786 2293 
Q 2538 2584 2113 2584 
z
M 3366 4563 
L 3366 3988 
Q 3128 4100 2886 4159 
Q 2644 4219 2406 4219 
Q 1781 4219 1451 3797 
Q 1122 3375 1075 2522 
Q 1259 2794 1537 2939 
Q 1816 3084 2150 3084 
Q 2853 3084 3261 2657 
Q 3669 2231 3669 1497 
Q 3669 778 3244 343 
Q 2819 -91 2113 -91 
Q 1303 -91 875 529 
Q 447 1150 447 2328 
Q 447 3434 972 4092 
Q 1497 4750 2381 4750 
Q 2619 4750 2861 4703 
Q 3103 4656 3366 4563 
z
" transform="scale(0.015625)"/>
     </defs>
     <use xlink:href="#DejaVuSans-43"/>
     <use xlink:href="#DejaVuSans-20" x="69.824219"/>
     <use xlink:href="#DejaVuSans-5b" x="101.611328"/>
     <use xlink:href="#DejaVuSans-36" x="140.625"/>
     <use xlink:href="#DejaVuSans-5d" x="204.248047"/>
    </g>
   </g>
   <g id="text_3">
    <!-- D [7] -->
    <g transform="translate(293.727146 75.669492) scale(0.1 -0.1)">
     <defs>
      <path id="DejaVuSans-44" d="M 1259 4147 
L 1259 519 
L 2022 519 
Q 2988 519 3436 956 
Q 3884 1394 3884 2338 
Q 3884 3275 3436 3711 
Q 2988 4147 2022 4147 
L 1259 4147 
z
M 628 4666 
L 1925 4666 
Q 3281 4666 3915 4102 
Q 4550 3538 4550 2338 
Q 4550 1131 3912 565 
Q 3275 0 1925 0 
L 628 0 
L 628 4666 
z
" transform="scale(0.015625)"/>
      <path id="DejaVuSans-37" d="M 525 4666 
L 3525 4666 
L 3525 4397 
L 1831 0 
L 1172 0 
L 2766 4134 
L 525 4134 
L 525 4666 
z
" transform="scale(0.015625)"/>
     </defs>
     <use xlink:href="#DejaVuSans-44"/>
     <use xlink:href="#DejaVuSans-20" x="77.001953"/>
     <use xlink:href="#DejaVuSans-5b" x="108.789062"/>
     <use xlink:href="#DejaVuSans-37" x="147.802734"/>
     <use xlink:href="#DejaVuSans-5d" x="211.425781"/>
    </g>
   </g>
   <g id="text_4">
    <!-- E [8] -->
    <g transform="translate(281.533335 60.337341) scale(0.1 -0.1)">
     <defs>
      <path id="DejaVuSans-45" d="M 628 4666 
L 3578 4666 
L 3578 4134 
L 1259 4134 
L 1259 2753 
L 3481 2753 
L 3481 2222 
L 1259 2222 
L 1259 531 
L 3634 531 
L 3634 0 
L 628 0 
L 628 4666 
z
" transform="scale(0.015625)"/>
      <path id="DejaVuSans-38" d="M 2034 2216 
Q 1584 2216 1326 1975 
Q 1069 1734 1069 1313 
Q 1069 891 1326 650 
Q 1584 409 2034 409 
Q 2484 409 2743 651 
Q 3003 894 3003 1313 
Q 3003 1734 2745 1975 
Q 2488 2216 2034 2216 
z
M 1403 2484 
Q 997 2584 770 2862 
Q 544 3141 544 3541 
Q 544 4100 942 4425 
Q 1341 4750 2034 4750 
Q 2731 4750 3128 4425 
Q 3525 4100 3525 3541 
Q 3525 3141 3298 2862 
Q 3072 2584 2669 2484 
Q 3125 2378 3379 2068 
Q 3634 1759 3634 1313 
Q 3634 634 3220 271 
Q 2806 -91 2034 -91 
Q 1263 -91 848 271 
Q 434 634 434 1313 
Q 434 1759 690 2068 
Q 947 2378 1403 2484 
z
M 1172 3481 
Q 1172 3119 1398 2916 
Q 1625 2713 2034 2713 
Q 2441 2713 2670 2916 
Q 2900 3119 2900 3481 
Q 2900 3844 2670 4047 
Q 2441 4250 2034 4250 
Q 1625 4250 1398 4047 
Q 1172 3844 1172 3481 
z
" transform="scale(0.015625)"/>
     </defs>
     <use xlink:href="#DejaVuSans-45"/>
     <use xlink:href="#DejaVuSans-20" x="63.183594"/>
     <use xlink:href="#DejaVuSans-5b" x="94.970703"/>
     <use xlink:href="#DejaVuSans-38" x="133.984375"/>
     <use xlink:href="#DejaVuSans-5d" x="197.607422"/>
    </g>
   </g>
   <g id="text_5">
    <!-- F [30] -->
    <g transform="translate(242.29777 30.302982) scale(0.1 -0.1)">
     <defs>
      <path id="DejaVuSans-46" d="M 628 4666 
L 3309 4666 
L 3309 4134 
L 1259 4134 
L 1259 2759 
L 3109 2759 
L 3109 2228 
L 1259 2228 
L 1259 0 
L 628 0 
L 628 4666 
z
" transform="scale(0.015625)"/>
      <path id="DejaVuSans-30" d="M 2034 4250 
Q 1547 4250 1301 3770 
Q 1056 3291 1056 2328 
Q 1056 1369 1301 889 
Q 1547 409 2034 409 
Q 2525 409 2770 889 
Q 3016 1369 3016 2328 
Q 3016 3291 2770 3770 
Q 2525 4250 2034 4250 
z
M 2034 4750 
Q 2819 4750 3233 4129 
Q 3647 3509 3647 2328 
Q 3647 1150 3233 529 
Q 2819 -91 2034 -91 
Q 1250 -91 836 529 
Q 422 1150 422 2328 
Q 422 3509 836 4129 
Q 1250 4750 2034 4750 
z
" transform="scale(0.015625)"/>
     </defs>
     <use xlink:href="#DejaVuSans-46"/>
     <use xlink:href="#DejaVuSans-20" x="57.519531"/>
     <use xlink:href="#DejaVuSans-5b" x="89.306641"/>
     <use xlink:href="#DejaVuSans-33" x="128.320312"/>
     <use xlink:href="#DejaVuSans-30" x="191.943359"/>
     <use xlink:href="#DejaVuSans-5d" x="255.566406"/>
    </g>
   </g>
   <g id="text_6">
    <!-- G [15] -->
    <g transform="translate(186.002081 14.798437) scale(0.1 -0.1)">
     <defs>
      <path id="DejaVuSans-47" d="M 3809 666 
L 3809 1919 
L 2778 1919 
L 2778 2438 
L 4434 2438 
L 4434 434 
Q 4069 175 3628 42 
Q 3188 -91 2688 -91 
Q 1594 -91 976 548 
Q 359 1188 359 2328 
Q 359 3472 976 4111 
Q 1594 4750 2688 4750 
Q 3144 4750 3555 4637 
Q 3966 4525 4313 4306 
L 4313 3634 
Q 3963 3931 3569 4081 
Q 3175 4231 2741 4231 
Q 1884 4231 1454 3753 
Q 1025 3275 1025 2328 
Q 1025 1384 1454 906 
Q 1884 428 2741 428 
Q 3075 428 3337 486 
Q 3600 544 3809 666 
z
" transform="scale(0.015625)"/>
      <path id="DejaVuSans-31" d="M 794 531 
L 1825 531 
L 1825 4091 
L 703 3866 
L 703 4441 
L 1819 4666 
L 2450 4666 
L 2450 531 
L 3481 531 
L 3481 0 
L 794 0 
L 794 531 
z
" transform="scale(0.015625)"/>
      <path id="DejaVuSans-35" d="M 691 4666 
L 3169 4666 
L 3169 4134 
L 1269 4134 
L 1269 2991 
Q 1406 3038 1543 3061 
Q 1681 3084 1819 3084 
Q 2600 3084 3056 2656 
Q 3513 2228 3513 1497 
Q 3513 744 3044 326 
Q 2575 -91 1722 -91 
Q 1428 -91 1123 -41 
Q 819 9 494 109 
L 494 744 
Q 775 591 1075 516 
Q 1375 441 1709 441 
Q 2250 441 2565 725 
Q 2881 1009 2881 1497 
Q 2881 1984 2565 2268 
Q 2250 2553 1709 2553 
Q 1456 2553 1204 2497 
Q 953 2441 691 2322 
L 691 4666 
z
" transform="scale(0.015625)"/>
     </defs>
     <use xlink:href="#DejaVuSans-47"/>
     <use xlink:href="#DejaVuSans-20" x="77.490234"/>
     <use xlink:href="#DejaVuSans-5b" x="109.277344"/>
     <use xlink:href="#DejaVuSans-31" x="148.291016"/>
     <use xlink:href="#DejaVuSans-35" x="211.914062"/>
     <use xlink:href="#DejaVuSans-5d" x="275.537109"/>
    </g>
   </g>
   <g id="text_7">
    <!-- H [11] -->
    <g transform="translate(120.935984 16.8393) scale(0.1 -0.1)">
     <defs>
      <path id="DejaVuSans-48" d="M 628 4666 
L 1259 4666 
L 1259 2753 
L 3553 2753 
L 3553 4666 
L 4184 4666 
L 4184 0 
L 3553 0 
L 3553 2222 
L 1259 2222 
L 1259 0 
L 628 0 
L 628 4666 
z
" transform="scale(0.015625)"/>
     </defs>
     <use xlink:href="#DejaVuSans-48"/>
     <use xlink:href="#DejaVuSans-20" x="75.195312"/>
     <use xlink:href="#DejaVuSans-5b" x="106.982422"/>
     <use xlink:href="#DejaVuSans-31" x="145.996094"/>
     <use xlink:href="#DejaVuSans-31" x="209.619141"/>
     <use xlink:href="#DejaVuSans-5d" x="273.242188"/>
    </g>
   </g>
   <g id="text_8">
    <!-- I [26] -->
    <g transform="translate(80.335497 33.438327) scale(0.1 -0.1)">
     <defs>
      <path id="DejaVuSans-49" d="M 628 4666 
L 1259 4666 
L 1259 0 
L 628 0 
L 628 4666 
z
" transform="scale(0.015625)"/>
     </defs>
     <use xlink:href="#DejaVuSans-49"/>
     <use xlink:href="#DejaVuSans-20" x="29.492188"/>
     <use xlink:href="#DejaVuSans-5b" x="61.279297"/>
     <use xlink:href="#DejaVuSans-32" x="100.292969"/>
     <use xlink:href="#DejaVuSans-36" x="163.916016"/>
     <use xlink:href="#DejaVuSans-5d" x="227.539062"/>
    </g>
   </g>
   <g id="text_9">
    <!-- K [21] -->
    <g transform="translate(31.777194 74.595944) scale(0.1 -0.1)">
     <defs>
      <path id="DejaVuSans-4b" d="M 628 4666 
L 1259 4666 
L 1259 2694 
L 3353 4666 
L 4166 4666 
L 1850 2491 
L 4331 0 
L 3500 0 
L 1259 2247 
L 1259 0 
L 628 0 
L 628 4666 
z
" transform="scale(0.015625)"/>
     </defs>
     <use xlink:href="#DejaVuSans-4b"/>
     <use xlink:href="#DejaVuSans-20" x="65.576172"/>
     <use xlink:href="#DejaVuSans-5b" x="97.363281"/>
     <use xlink:href="#DejaVuSans-32" x="136.376953"/>
     <use xlink:href="#DejaVuSans-31" x="200"/>
     <use xlink:href="#DejaVuSans-5d" x="263.623047"/>
    </g>
   </g>
   <g id="text_10">
    <!-- L [46] -->
    <g transform="translate(7.2 156.889026) scale(0.1 -0.1)">
     <defs>
      <path id="DejaVuSans-4c" d="M 628 4666 
L 1259 4666 
L 1259 531 
L 3531 531 
L 3531 0 
L 628 0 
L 628 4666 
z
" transform="scale(0.015625)"/>
      <path id="DejaVuSans-34" d="M 2419 4116 
L 825 1625 
L 2419 1625 
L 2419 4116 
z
M 2253 4666 
L 3047 4666 
L 3047 1625 
L 3713 1625 
L 3713 1100 
L 3047 1100 
L 3047 0 
L 2419 0 
L 2419 1100 
L 313 1100 
L 313 1709 
L 2253 4666 
z
" transform="scale(0.015625)"/>
     </defs>
     <use xlink:href="#DejaVuSans-4c"/>
     <use xlink:href="#DejaVuSans-20" x="55.712891"/>
     <use xlink:href="#DejaVuSans-5b" x="87.5"/>
     <use xlink:href="#DejaVuSans-34" x="126.513672"/>
     <use xlink:href="#DejaVuSans-36" x="190.136719"/>
     <use xlink:href="#DejaVuSans-5d" x="253.759766"/>
    </g>
   </g>
   <g id="text_11">
    <!-- M [10] -->
    <g transform="translate(23.36146 226.666889) scale(0.1 -0.1)">
     <defs>
      <path id="DejaVuSans-4d" d="M 628 4666 
L 1569 4666 
L 2759 1491 
L 3956 4666 
L 4897 4666 
L 4897 0 
L 4281 0 
L 4281 4097 
L 3078 897 
L 2444 897 
L 1241 4097 
L 1241 0 
L 628 0 
L 628 4666 
z
" transform="scale(0.015625)"/>
     </defs>
     <use xlink:href="#DejaVuSans-4d"/>
     <use xlink:href="#DejaVuSans-20" x="86.279297"/>
     <use xlink:href="#DejaVuSans-5b" x="118.066406"/>
     <use xlink:href="#DejaVuSans-31" x="157.080078"/>
     <use xlink:href="#DejaVuSans-30" x="220.703125"/>
     <use xlink:href="#DejaVuSans-5d" x="284.326172"/>
    </g>
   </g>
   <g id="text_12">
    <!-- N [17] -->
    <g transform="translate(45.903296 254.616319) scale(0.1 -0.1)">
     <defs>
      <path id="DejaVuSans-4e" d="M 628 4666 
L 1478 4666 
L 3547 763 
L 3547 4666 
L 4159 4666 
L 4159 0 
L 3309 0 
L 1241 3903 
L 1241 0 
L 628 0 
L 628 4666 
z
" transform="scale(0.015625)"/>
     </defs>
     <use xlink:href="#DejaVuSans-4e"/>
     <use xlink:href="#DejaVuSans-20" x="74.804688"/>
     <use xlink:href="#DejaVuSans-5b" x="106.591797"/>
     <use xlink:href="#DejaVuSans-31" x="145.605469"/>
     <use xlink:href="#DejaVuSans-37" x="209.228516"/>
     <use xlink:href="#DejaVuSans-5d" x="272.851562"/>
    </g>
   </g>
   <g id="text_13">
    <!-- P [11] -->
    <g transform="translate(76.126928 277.066909) scale(0.1 -0.1)">
     <defs>
      <path id="DejaVuSans-50" d="M 1259 4147 
L 1259 2394 
L 2053 2394 
Q 2494 2394 2734 2622 
Q 2975 2850 2975 3272 
Q 2975 3691 2734 3919 
Q 2494 4147 2053 4147 
L 1259 4147 
z
M 628 4666 
L 2053 4666 
Q 2838 4666 3239 4311 
Q 3641 3956 3641 3272 
Q 3641 2581 3239 2228 
Q 2838 1875 2053 1875 
L 1259 1875 
L 1259 0 
L 628 0 
L 628 4666 
z
" transform="scale(0.015625)"/>
     </defs>
     <use xlink:href="#DejaVuSans-50"/>
     <use xlink:href="#DejaVuSans-20" x="60.302734"/>
     <use xlink:href="#DejaVuSans-5b" x="92.089844"/>
     <use xlink:href="#DejaVuSans-31" x="131.103516"/>
     <use xlink:href="#DejaVuSans-31" x="194.726562"/>
     <use xlink:href="#DejaVuSans-5d" x="258.349609"/>
    </g>
   </g>
   <g id="text_14">
    <!-- Q [9] -->
    <g transform="translate(104.26227 288.189991) scale(0.1 -0.1)">
     <defs>
      <path id="DejaVuSans-51" d="M 2522 4238 
Q 1834 4238 1429 3725 
Q 1025 3213 1025 2328 
Q 1025 1447 1429 934 
Q 1834 422 2522 422 
Q 3209 422 3611 934 
Q 4013 1447 4013 2328 
Q 4013 3213 3611 3725 
Q 3209 4238 2522 4238 
z
M 3406 84 
L 4238 -825 
L 3475 -825 
L 2784 -78 
Q 2681 -84 2626 -87 
Q 2572 -91 2522 -91 
Q 1538 -91 948 567 
Q 359 1225 359 2328 
Q 359 3434 948 4092 
Q 1538 4750 2522 4750 
Q 3503 4750 4090 4092 
Q 4678 3434 4678 2328 
Q 4678 1516 4351 937 
Q 4025 359 3406 84 
z
" transform="scale(0.015625)"/>
      <path id="DejaVuSans-39" d="M 703 97 
L 703 672 
Q 941 559 1184 500 
Q 1428 441 1663 441 
Q 2288 441 2617 861 
Q 2947 1281 2994 2138 
Q 2813 1869 2534 1725 
Q 2256 1581 1919 1581 
Q 1219 1581 811 2004 
Q 403 2428 403 3163 
Q 403 3881 828 4315 
Q 1253 4750 1959 4750 
Q 2769 4750 3195 4129 
Q 3622 3509 3622 2328 
Q 3622 1225 3098 567 
Q 2575 -91 1691 -91 
Q 1453 -91 1209 -44 
Q 966 3 703 97 
z
M 1959 2075 
Q 2384 2075 2632 2365 
Q 2881 2656 2881 3163 
Q 2881 3666 2632 3958 
Q 2384 4250 1959 4250 
Q 1534 4250 1286 3958 
Q 1038 3666 1038 3163 
Q 1038 2656 1286 2365 
Q 1534 2075 1959 2075 
z
" transform="scale(0.015625)"/>
     </defs>
     <use xlink:href="#DejaVuSans-51"/>
     <use xlink:href="#DejaVuSans-20" x="78.710938"/>
     <use xlink:href="#DejaVuSans-5b" x="110.498047"/>
     <use xlink:href="#DejaVuSans-39" x="149.511719"/>
     <use xlink:href="#DejaVuSans-5d" x="213.134766"/>
    </g>
   </g>
   <g id="text_15">
    <!-- R [9] -->
    <g transform="translate(127.870368 294.32469) scale(0.1 -0.1)">
     <defs>
      <path id="DejaVuSans-52" d="M 2841 2188 
Q 3044 2119 3236 1894 
Q 3428 1669 3622 1275 
L 4263 0 
L 3584 0 
L 2988 1197 
Q 2756 1666 2539 1819 
Q 2322 1972 1947 1972 
L 1259 1972 
L 1259 0 
L 628 0 
L 628 4666 
L 2053 4666 
Q 2853 4666 3247 4331 
Q 3641 3997 3641 3322 
Q 3641 2881 3436 2590 
Q 3231 2300 2841 2188 
z
M 1259 4147 
L 1259 2491 
L 2053 2491 
Q 2509 2491 2742 2702 
Q 2975 2913 2975 3322 
Q 2975 3731 2742 3939 
Q 2509 4147 2053 4147 
L 1259 4147 
z
" transform="scale(0.015625)"/>
     </defs>
     <use xlink:href="#DejaVuSans-52"/>
     <use xlink:href="#DejaVuSans-20" x="69.482422"/>
     <use xlink:href="#DejaVuSans-5b" x="101.269531"/>
     <use xlink:href="#DejaVuSans-39" x="140.283203"/>
     <use xlink:href="#DejaVuSans-5d" x="203.90625"/>
    </g>
   </g>
   <g id="text_16">
    <!-- S [24] -->
    <g transform="translate(195.110548 295.519023) scale(0.1 -0.1)">
     <defs>
      <path id="DejaVuSans-53" d="M 3425 4513 
L 3425 3897 
Q 3066 4069 2747 4153 
Q 2428 4238 2131 4238 
Q 1616 4238 1336 4038 
Q 1056 3838 1056 3469 
Q 1056 3159 1242 3001 
Q 1428 2844 1947 2747 
L 2328 2669 
Q 3034 2534 3370 2195 
Q 3706 1856 3706 1288 
Q 3706 609 3251 259 
Q 2797 -91 1919 -91 
Q 1588 -91 1214 -16 
Q 841 59 441 206 
L 441 856 
Q 825 641 1194 531 
Q 1563 422 1919 422 
Q 2459 422 2753 634 
Q 3047 847 3047 1241 
Q 3047 1584 2836 1778 
Q 2625 1972 2144 2069 
L 1759 2144 
Q 1053 2284 737 2584 
Q 422 2884 422 3419 
Q 422 4038 858 4394 
Q 1294 4750 2059 4750 
Q 2388 4750 2728 4690 
Q 3069 4631 3425 4513 
z
" transform="scale(0.015625)"/>
     </defs>
     <use xlink:href="#DejaVuSans-53"/>
     <use xlink:href="#DejaVuSans-20" x="63.476562"/>
     <use xlink:href="#DejaVuSans-5b" x="95.263672"/>
     <use xlink:href="#DejaVuSans-32" x="134.277344"/>
     <use xlink:href="#DejaVuSans-34" x="197.900391"/>
     <use xlink:href="#DejaVuSans-5d" x="261.523438"/>
    </g>
   </g>
   <g id="text_17">
    <!-- T [29] -->
    <g transform="translate(259.031661 270.675664) scale(0.1 -0.1)">
     <defs>
      <path id="DejaVuSans-54" d="M -19 4666 
L 3928 4666 
L 3928 4134 
L 2272 4134 
L 2272 0 
L 1638 0 
L 1638 4134 
L -19 4134 
L -19 4666 
z
" transform="scale(0.015625)"/>
     </defs>
     <use xlink:href="#DejaVuSans-54"/>
     <use xlink:href="#DejaVuSans-20" x="61.083984"/>
     <use xlink:href="#DejaVuSans-5b" x="92.871094"/>
     <use xlink:href="#DejaVuSans-32" x="131.884766"/>
     <use xlink:href="#DejaVuSans-39" x="195.507812"/>
     <use xlink:href="#DejaVuSans-5d" x="259.130859"/>
    </g>
   </g>
   <g id="text_18">
    <!-- V [20] -->
    <g transform="translate(301.255983 223.253158) scale(0.1 -0.1)">
     <defs>
      <path id="DejaVuSans-56" d="M 1831 0 
L 50 4666 
L 709 4666 
L 2188 738 
L 3669 4666 
L 4325 4666 
L 2547 0 
L 1831 0 
z
" transform="scale(0.015625)"/>
     </defs>
     <use xlink:href="#DejaVuSans-56"/>
     <use xlink:href="#DejaVuSans-20" x="68.408203"/>
     <use xlink:href="#DejaVuSans-5b" x="100.195312"/>
     <use xlink:href="#DejaVuSans-32" x="139.208984"/>
     <use xlink:href="#DejaVuSans-30" x="202.832031"/>
     <use xlink:href="#DejaVuSans-5d" x="266.455078"/>
    </g>
   </g>
   <g id="text_19">
    <!-- W [7] -->
    <g transform="translate(314.158702 190.505108) scale(0.1 -0.1)">
     <defs>
      <path id="DejaVuSans-57" d="M 213 4666 
L 850 4666 
L 1831 722 
L 2809 4666 
L 3519 4666 
L 4500 722 
L 5478 4666 
L 6119 4666 
L 4947 0 
L 4153 0 
L 3169 4050 
L 2175 0 
L 1381 0 
L 213 4666 
z
" transform="scale(0.015625)"/>
     </defs>
     <use xlink:href="#DejaVuSans-57"/>
     <use xlink:href="#DejaVuSans-20" x="98.876953"/>
     <use xlink:href="#DejaVuSans-5b" x="130.664062"/>
     <use xlink:href="#DejaVuSans-37" x="169.677734"/>
     <use xlink:href="#DejaVuSans-5d" x="233.300781"/>
    </g>
   </g>
   <g id="text_20">
    <!-- Y [10] -->
    <g transform="translate(317.945588 168.633733) scale(0.1 -0.1)">
     <defs>
      <path id="DejaVuSans-59" d="M -13 4666 
L 666 4666 
L 1959 2747 
L 3244 4666 
L 3922 4666 
L 2272 2222 
L 2272 0 
L 1638 0 
L 1638 2222 
L -13 4666 
z
" transform="scale(0.015625)"/>
     </defs>
     <use xlink:href="#DejaVuSans-59"/>
     <use xlink:href="#DejaVuSans-20" x="61.083984"/>
     <use xlink:href="#DejaVuSans-5b" x="92.871094"/>
     <use xlink:href="#DejaVuSans-31" x="131.884766"/>
     <use xlink:href="#DejaVuSans-30" x="195.507812"/>
     <use xlink:href="#DejaVuSans-5d" x="259.130859"/>
    </g>
   </g>
   <g id="text_21">
    <!-- G1MN65 [339] -->
    <g transform="translate(133.702991 152.822619) scale(0.12 -0.12)">
     <use xlink:href="#DejaVuSans-47"/>
     <use xlink:href="#DejaVuSans-31" x="77.490234"/>
     <use xlink:href="#DejaVuSans-4d" x="141.113281"/>
     <use xlink:href="#DejaVuSans-4e" x="227.392578"/>
     <use xlink:href="#DejaVuSans-36" x="302.197266"/>
     <use xlink:href="#DejaVuSans-35" x="365.820312"/>
     <use xlink:href="#DejaVuSans-20" x="429.443359"/>
     <use xlink:href="#DejaVuSans-5b" x="461.230469"/>
     <use xlink:href="#DejaVuSans-33" x="500.244141"/>
     <use xlink:href="#DejaVuSans-33" x="563.867188"/>
     <use xlink:href="#DejaVuSans-39" x="627.490234"/>
     <use xlink:href="#DejaVuSans-5d" x="691.113281"/>
    </g>
   </g>
  </g>
 </g>
</svg>
