<?xml version="1.0" encoding="utf-8" standalone="no"?>
<!DOCTYPE svg PUBLIC "-//W3C//DTD SVG 1.1//EN"
  "http://www.w3.org/Graphics/SVG/1.1/DTD/svg11.dtd">
<svg xmlns:xlink="http://www.w3.org/1999/xlink" width="355.303788pt" height="305.324531pt" viewBox="0 0 355.303788 305.324531" xmlns="http://www.w3.org/2000/svg" version="1.1">
 <metadata>
  <rdf:RDF xmlns:dc="http://purl.org/dc/elements/1.1/" xmlns:cc="http://creativecommons.org/ns#" xmlns:rdf="http://www.w3.org/1999/02/22-rdf-syntax-ns#">
   <cc:Work>
    <dc:type rdf:resource="http://purl.org/dc/dcmitype/StillImage"/>
    <dc:date>2024-09-27T16:07:17.637425</dc:date>
    <dc:format>image/svg+xml</dc:format>
    <dc:creator>
     <cc:Agent>
      <dc:title>Matplotlib v3.8.3, https://matplotlib.org/</dc:title>
     </cc:Agent>
    </dc:creator>
   </cc:Work>
  </rdf:RDF>
 </metadata>
 <defs>
  <style type="text/css">*{stroke-linejoin: round; stroke-linecap: butt}</style>
 </defs>
 <g id="figure_1">
  <g id="patch_1">
   <path d="M 0 305.324531 
L 355.303788 305.324531 
L 355.303788 0 
L 0 0 
z
" style="fill: #ffffff"/>
  </g>
  <g id="axes_1">
   <g id="patch_2">
    <path d="M 306.397064 152.271478 
C 306.397064 135.355768 303.036858 118.607344 296.511958 103.000714 
C 289.987059 87.394084 280.426521 73.237925 268.386625 61.355917 
L 178.663304 152.271478 
z
" style="fill: #1f77b4"/>
   </g>
   <g id="patch_3">
    <path d="M 268.223751 61.142198 
C 264.7559 57.719824 261.095076 54.498666 257.259228 51.494519 
C 253.42338 48.490372 249.418788 45.708154 245.265089 43.161507 
L 178.50043 152.057759 
z
" style="fill: #ff7f0e"/>
   </g>
   <g id="patch_4">
    <path d="M 245.186653 43.110521 
C 242.950478 41.739515 240.672604 40.437713 238.35627 39.206968 
C 236.039937 37.976223 233.686242 36.817119 231.298536 35.731304 
L 178.421994 152.006773 
z
" style="fill: #aec7e8"/>
   </g>
   <g id="patch_5">
    <path d="M 231.251942 35.709369 
C 229.887611 35.088936 228.512466 34.492564 227.127146 33.92053 
C 225.741825 33.348496 224.346544 32.800889 222.941951 32.277962 
L 178.3754 151.984838 
z
" style="fill: #ffbb78"/>
   </g>
   <g id="patch_6">
    <path d="M 222.866363 32.253181 
C 218.300307 30.553251 213.640726 29.115961 208.910469 27.948359 
C 204.180211 26.780757 199.387021 25.884755 194.5544 25.264746 
L 178.299812 151.960057 
z
" style="fill: #98df8a"/>
   </g>
   <g id="patch_7">
    <path d="M 194.377749 25.251508 
C 185.077422 24.058307 175.673923 23.892789 166.337366 24.757949 
C 157.000808 25.62311 147.787836 27.513699 138.865116 30.395515 
L 178.123161 151.946819 
z
" style="fill: #2ca02c"/>
   </g>
   <g id="patch_8">
    <path d="M 138.71978 30.430036 
C 136.223735 31.236196 133.753114 32.119049 131.311431 33.077339 
C 128.869748 34.03563 126.458162 35.068902 124.080103 36.175687 
L 177.977825 151.981339 
z
" style="fill: #d62728"/>
   </g>
   <g id="patch_9">
    <path d="M 123.98448 36.224887 
C 118.547104 38.755525 113.294702 41.665973 108.26627 44.934622 
C 103.237839 48.203271 98.445852 51.822012 93.925886 55.76398 
L 177.882202 152.030539 
z
" style="fill: #9467bd"/>
   </g>
   <g id="patch_10">
    <path d="M 93.852235 55.821661 
C 92.722681 56.806772 91.610553 57.811687 90.516367 58.835939 
C 89.422181 59.860192 88.346107 60.903623 87.288645 61.965748 
L 177.808551 152.088221 
z
" style="fill: #ff9896"/>
   </g>
   <g id="patch_11">
    <path d="M 87.151177 62.175205 
C 73.880163 75.504742 63.715785 91.602537 57.386372 109.315099 
C 51.056959 127.027662 48.717388 145.921576 50.535302 164.642995 
L 177.671082 152.297678 
z
" style="fill: #c5b0d5"/>
   </g>
   <g id="patch_12">
    <path d="M 50.513326 164.919885 
C 50.875513 168.649794 51.401667 172.361959 52.09026 176.045604 
C 52.778853 179.729249 53.629219 183.380807 54.638889 186.98968 
L 177.649106 152.574568 
z
" style="fill: #c49c94"/>
   </g>
   <g id="patch_13">
    <path d="M 54.66246 187.075382 
C 55.571136 190.323269 56.608088 193.533893 57.770878 196.699707 
C 58.933668 199.865521 60.221385 202.98404 61.631 206.047934 
L 177.672677 152.66027 
z
" style="fill: #8c564b"/>
   </g>
   <g id="patch_14">
    <path d="M 61.70446 206.183301 
C 65.466432 214.3602 70.08217 222.116614 75.474699 229.323191 
C 80.867228 236.529767 87.006405 243.146224 93.789848 249.06222 
L 177.746137 152.795637 
z
" style="fill: #e377c2"/>
   </g>
   <g id="patch_15">
    <path d="M 93.895243 249.168079 
C 96.154526 251.138452 98.482474 253.02868 100.874761 254.835251 
C 103.267048 256.641821 105.722191 258.363615 108.23563 259.997433 
L 177.851532 152.901496 
z
" style="fill: #7f7f7f"/>
   </g>
   <g id="patch_16">
    <path d="M 108.323335 260.051206 
C 112.722789 262.910996 117.294283 265.496979 122.011825 267.794452 
C 126.729368 270.091926 131.584 272.096525 136.548118 273.796854 
L 177.939237 152.955269 
z
" style="fill: #f7b6d2"/>
   </g>
   <g id="patch_17">
    <path d="M 136.750723 273.849711 
C 147.756234 277.619361 159.225313 279.86793 170.839495 280.532983 
C 182.453678 281.198036 194.104464 280.27336 205.468343 277.784629 
L 178.141842 153.008126 
z
" style="fill: #c7c7c7"/>
   </g>
   <g id="patch_18">
    <path d="M 205.710528 277.741559 
C 213.769036 275.976717 221.637655 273.435348 229.206072 270.153081 
C 236.774488 266.870814 244.007167 262.863059 250.802707 258.186005 
L 178.384027 152.965056 
z
" style="fill: #dbdb8d"/>
   </g>
   <g id="patch_19">
    <path d="M 251.011402 258.024036 
C 261.835366 250.574406 271.445302 241.499011 279.501536 231.118632 
C 287.557771 220.738253 293.964252 209.17665 298.494536 196.842481 
L 178.592721 152.803087 
z
" style="fill: #bcbd22"/>
   </g>
   <g id="patch_20">
    <path d="M 298.584023 196.668561 
C 299.488368 194.206388 300.316657 191.716943 301.067713 189.203768 
C 301.818769 186.690592 302.492236 184.154879 303.087154 181.600235 
L 178.682208 152.629167 
z
" style="fill: #17becf"/>
   </g>
   <g id="patch_21">
    <path d="M 303.105959 181.508594 
C 304.211021 176.763337 305.043677 171.958737 305.599843 167.118354 
C 306.156008 162.27797 306.434774 157.409728 306.434773 152.537497 
L 178.701013 152.537526 
z
" style="fill: #9edae5"/>
   </g>
   <g id="patch_22">
    <path d="M 252.683628 152.476772 
C 252.683628 142.609275 250.723508 132.839361 246.917316 123.735494 
C 243.111125 114.631626 237.534145 106.373867 230.510872 99.442695 
L 178.172268 152.476772 
z
" style="fill: #ffffff"/>
   </g>
   <g id="patch_23">
    <path d="M 230.510872 99.442695 
C 228.487959 97.446311 226.352478 95.567302 224.1149 93.814883 
C 221.877322 92.062463 219.54131 90.439503 217.118319 88.953959 
L 178.172268 152.476772 
z
" style="fill: #ffffff"/>
   </g>
   <g id="patch_24">
    <path d="M 217.118319 88.953959 
C 215.813884 88.154205 214.485124 87.394821 213.133929 86.676886 
C 211.782734 85.958952 210.409746 85.282807 209.016918 84.649415 
L 178.172268 152.476772 
z
" style="fill: #ffffff"/>
   </g>
   <g id="patch_25">
    <path d="M 209.016918 84.649415 
C 208.221058 84.287496 207.41889 83.939613 206.610786 83.605926 
C 205.802683 83.27224 204.988769 82.952802 204.169422 82.647762 
L 178.172268 152.476772 
z
" style="fill: #ffffff"/>
   </g>
   <g id="patch_26">
    <path d="M 204.169422 82.647762 
C 201.50589 81.656136 198.787801 80.817716 196.028484 80.136615 
C 193.269167 79.455514 190.47314 78.932846 187.654111 78.571174 
L 178.172268 152.476772 
z
" style="fill: #ffffff"/>
   </g>
   <g id="patch_27">
    <path d="M 187.654111 78.571174 
C 182.228921 77.87514 176.743546 77.778588 171.297221 78.283265 
C 165.850896 78.787942 160.476662 79.890786 155.271742 81.571845 
L 178.172268 152.476772 
z
" style="fill: #ffffff"/>
   </g>
   <g id="patch_28">
    <path d="M 155.271742 81.571845 
C 153.815716 82.042106 152.37452 82.557103 150.950205 83.116106 
C 149.52589 83.675109 148.119131 84.277851 146.731931 84.923475 
L 178.172268 152.476772 
z
" style="fill: #ffffff"/>
   </g>
   <g id="patch_29">
    <path d="M 146.731931 84.923475 
C 143.560128 86.399681 140.496227 88.097442 137.562975 90.004154 
C 134.629723 91.910866 131.834397 94.021798 129.197751 96.321279 
L 178.172268 152.476772 
z
" style="fill: #ffffff"/>
   </g>
   <g id="patch_30">
    <path d="M 129.197751 96.321279 
C 128.538844 96.895927 127.890103 97.482127 127.251828 98.079608 
C 126.613552 98.677088 125.985843 99.285757 125.36899 99.90533 
L 178.172268 152.476772 
z
" style="fill: #ffffff"/>
   </g>
   <g id="patch_31">
    <path d="M 125.36899 99.90533 
C 117.627566 107.680893 111.698345 117.071273 108.006187 127.403601 
C 104.31403 137.73593 102.94928 148.757379 104.00973 159.678207 
L 178.172268 152.476772 
z
" style="fill: #ffffff"/>
   </g>
   <g id="patch_32">
    <path d="M 104.00973 159.678207 
C 104.221005 161.853988 104.527928 164.019417 104.929608 166.16821 
C 105.331287 168.317003 105.827334 170.447078 106.416308 172.552254 
L 178.172268 152.476772 
z
" style="fill: #ffffff"/>
   </g>
   <g id="patch_33">
    <path d="M 106.416308 172.552254 
C 106.946369 174.446855 107.551258 176.319719 108.229552 178.166444 
C 108.907846 180.013169 109.659014 181.832305 110.48129 183.619576 
L 178.172268 152.476772 
z
" style="fill: #ffffff"/>
   </g>
   <g id="patch_34">
    <path d="M 110.48129 183.619576 
C 112.675774 188.389434 115.368287 192.914009 118.513929 197.117845 
C 121.659571 201.321682 125.240757 205.181281 129.197766 208.632279 
L 178.172268 152.476772 
z
" style="fill: #ffffff"/>
   </g>
   <g id="patch_35">
    <path d="M 129.197766 208.632279 
C 130.515682 209.781663 131.873651 210.884296 133.269152 211.938129 
C 134.664653 212.991962 136.09682 213.996342 137.562992 214.949402 
L 178.172268 152.476772 
z
" style="fill: #ffffff"/>
   </g>
   <g id="patch_36">
    <path d="M 137.562992 214.949402 
C 140.12934 216.617613 142.796045 218.126103 145.547945 219.466296 
C 148.299844 220.806489 151.131713 221.975839 154.027449 222.967697 
L 178.172268 152.476772 
z
" style="fill: #ffffff"/>
   </g>
   <g id="patch_37">
    <path d="M 154.027449 222.967697 
C 160.44733 225.166659 167.137626 226.478325 173.912566 226.866272 
C 180.687506 227.25422 187.483798 226.714825 194.112727 225.263066 
L 178.172268 152.476772 
z
" style="fill: #ffffff"/>
   </g>
   <g id="patch_38">
    <path d="M 194.112727 225.263066 
C 198.813523 224.233575 203.403551 222.751109 207.818461 220.836454 
C 212.233371 218.921798 216.452433 216.583941 220.416498 213.855659 
L 178.172268 152.476772 
z
" style="fill: #ffffff"/>
   </g>
   <g id="patch_39">
    <path d="M 220.416498 213.855659 
C 226.730477 209.510042 232.336273 204.216061 237.035743 198.16084 
C 241.735213 192.105619 245.472328 185.36135 248.114993 178.166419 
L 178.172268 152.476772 
z
" style="fill: #ffffff"/>
   </g>
   <g id="patch_40">
    <path d="M 248.114993 178.166419 
C 248.642528 176.730151 249.125697 175.277975 249.563813 173.811956 
C 250.001929 172.345937 250.394784 170.866771 250.74182 169.376562 
L 178.172268 152.476772 
z
" style="fill: #ffffff"/>
   </g>
   <g id="patch_41">
    <path d="M 250.74182 169.376562 
C 251.38644 166.608495 251.872155 163.805812 252.196585 160.982255 
C 252.521015 158.158698 252.683629 155.31889 252.683628 152.476756 
L 178.172268 152.476772 
z
" style="fill: #ffffff"/>
   </g>
   <g id="matplotlib.axis_1"/>
   <g id="matplotlib.axis_2"/>
   <g id="text_1">
    <!-- A [45] -->
    <g transform="translate(308.296824 100.833013) scale(0.1 -0.1)">
     <defs>
      <path id="DejaVuSans-41" d="M 2188 4044 
L 1331 1722 
L 3047 1722 
L 2188 4044 
z
M 1831 4666 
L 2547 4666 
L 4325 0 
L 3669 0 
L 3244 1197 
L 1141 1197 
L 716 0 
L 50 0 
L 1831 4666 
z
" transform="scale(0.015625)"/>
      <path id="DejaVuSans-20" transform="scale(0.015625)"/>
      <path id="DejaVuSans-5b" d="M 550 4863 
L 1875 4863 
L 1875 4416 
L 1125 4416 
L 1125 -397 
L 1875 -397 
L 1875 -844 
L 550 -844 
L 550 4863 
z
" transform="scale(0.015625)"/>
      <path id="DejaVuSans-34" d="M 2419 4116 
L 825 1625 
L 2419 1625 
L 2419 4116 
z
M 2253 4666 
L 3047 4666 
L 3047 1625 
L 3713 1625 
L 3713 1100 
L 3047 1100 
L 3047 0 
L 2419 0 
L 2419 1100 
L 313 1100 
L 313 1709 
L 2253 4666 
z
" transform="scale(0.015625)"/>
      <path id="DejaVuSans-35" d="M 691 4666 
L 3169 4666 
L 3169 4134 
L 1269 4134 
L 1269 2991 
Q 1406 3038 1543 3061 
Q 1681 3084 1819 3084 
Q 2600 3084 3056 2656 
Q 3513 2228 3513 1497 
Q 3513 744 3044 326 
Q 2575 -91 1722 -91 
Q 1428 -91 1123 -41 
Q 819 9 494 109 
L 494 744 
Q 775 591 1075 516 
Q 1375 441 1709 441 
Q 2250 441 2565 725 
Q 2881 1009 2881 1497 
Q 2881 1984 2565 2268 
Q 2250 2553 1709 2553 
Q 1456 2553 1204 2497 
Q 953 2441 691 2322 
L 691 4666 
z
" transform="scale(0.015625)"/>
      <path id="DejaVuSans-5d" d="M 1947 4863 
L 1947 -844 
L 622 -844 
L 622 -397 
L 1369 -397 
L 1369 4416 
L 622 4416 
L 622 4863 
L 1947 4863 
z
" transform="scale(0.015625)"/>
     </defs>
     <use xlink:href="#DejaVuSans-41"/>
     <use xlink:href="#DejaVuSans-20" x="68.408203"/>
     <use xlink:href="#DejaVuSans-5b" x="100.195312"/>
     <use xlink:href="#DejaVuSans-34" x="139.208984"/>
     <use xlink:href="#DejaVuSans-35" x="202.832031"/>
     <use xlink:href="#DejaVuSans-5d" x="266.455078"/>
    </g>
   </g>
   <g id="text_2">
    <!-- C [13] -->
    <g transform="translate(265.135108 44.19757) scale(0.1 -0.1)">
     <defs>
      <path id="DejaVuSans-43" d="M 4122 4306 
L 4122 3641 
Q 3803 3938 3442 4084 
Q 3081 4231 2675 4231 
Q 1875 4231 1450 3742 
Q 1025 3253 1025 2328 
Q 1025 1406 1450 917 
Q 1875 428 2675 428 
Q 3081 428 3442 575 
Q 3803 722 4122 1019 
L 4122 359 
Q 3791 134 3420 21 
Q 3050 -91 2638 -91 
Q 1578 -91 968 557 
Q 359 1206 359 2328 
Q 359 3453 968 4101 
Q 1578 4750 2638 4750 
Q 3056 4750 3426 4639 
Q 3797 4528 4122 4306 
z
" transform="scale(0.015625)"/>
      <path id="DejaVuSans-31" d="M 794 531 
L 1825 531 
L 1825 4091 
L 703 3866 
L 703 4441 
L 1819 4666 
L 2450 4666 
L 2450 531 
L 3481 531 
L 3481 0 
L 794 0 
L 794 531 
z
" transform="scale(0.015625)"/>
      <path id="DejaVuSans-33" d="M 2597 2516 
Q 3050 2419 3304 2112 
Q 3559 1806 3559 1356 
Q 3559 666 3084 287 
Q 2609 -91 1734 -91 
Q 1441 -91 1130 -33 
Q 819 25 488 141 
L 488 750 
Q 750 597 1062 519 
Q 1375 441 1716 441 
Q 2309 441 2620 675 
Q 2931 909 2931 1356 
Q 2931 1769 2642 2001 
Q 2353 2234 1838 2234 
L 1294 2234 
L 1294 2753 
L 1863 2753 
Q 2328 2753 2575 2939 
Q 2822 3125 2822 3475 
Q 2822 3834 2567 4026 
Q 2313 4219 1838 4219 
Q 1578 4219 1281 4162 
Q 984 4106 628 3988 
L 628 4550 
Q 988 4650 1302 4700 
Q 1616 4750 1894 4750 
Q 2613 4750 3031 4423 
Q 3450 4097 3450 3541 
Q 3450 3153 3228 2886 
Q 3006 2619 2597 2516 
z
" transform="scale(0.015625)"/>
     </defs>
     <use xlink:href="#DejaVuSans-43"/>
     <use xlink:href="#DejaVuSans-20" x="69.824219"/>
     <use xlink:href="#DejaVuSans-5b" x="101.611328"/>
     <use xlink:href="#DejaVuSans-31" x="140.625"/>
     <use xlink:href="#DejaVuSans-33" x="204.248047"/>
     <use xlink:href="#DejaVuSans-5d" x="267.871094"/>
    </g>
   </g>
   <g id="text_3">
    <!-- D [7] -->
    <g transform="translate(244.349698 30.686363) scale(0.1 -0.1)">
     <defs>
      <path id="DejaVuSans-44" d="M 1259 4147 
L 1259 519 
L 2022 519 
Q 2988 519 3436 956 
Q 3884 1394 3884 2338 
Q 3884 3275 3436 3711 
Q 2988 4147 2022 4147 
L 1259 4147 
z
M 628 4666 
L 1925 4666 
Q 3281 4666 3915 4102 
Q 4550 3538 4550 2338 
Q 4550 1131 3912 565 
Q 3275 0 1925 0 
L 628 0 
L 628 4666 
z
" transform="scale(0.015625)"/>
      <path id="DejaVuSans-37" d="M 525 4666 
L 3525 4666 
L 3525 4397 
L 1831 0 
L 1172 0 
L 2766 4134 
L 525 4134 
L 525 4666 
z
" transform="scale(0.015625)"/>
     </defs>
     <use xlink:href="#DejaVuSans-44"/>
     <use xlink:href="#DejaVuSans-20" x="77.001953"/>
     <use xlink:href="#DejaVuSans-5b" x="108.789062"/>
     <use xlink:href="#DejaVuSans-37" x="147.802734"/>
     <use xlink:href="#DejaVuSans-5d" x="211.425781"/>
    </g>
   </g>
   <g id="text_4">
    <!-- E [4] -->
    <g transform="translate(232.00232 24.873474) scale(0.1 -0.1)">
     <defs>
      <path id="DejaVuSans-45" d="M 628 4666 
L 3578 4666 
L 3578 4134 
L 1259 4134 
L 1259 2753 
L 3481 2753 
L 3481 2222 
L 1259 2222 
L 1259 531 
L 3634 531 
L 3634 0 
L 628 0 
L 628 4666 
z
" transform="scale(0.015625)"/>
     </defs>
     <use xlink:href="#DejaVuSans-45"/>
     <use xlink:href="#DejaVuSans-20" x="63.183594"/>
     <use xlink:href="#DejaVuSans-5b" x="94.970703"/>
     <use xlink:href="#DejaVuSans-34" x="133.984375"/>
     <use xlink:href="#DejaVuSans-5d" x="197.607422"/>
    </g>
   </g>
   <g id="text_5">
    <!-- F [13] -->
    <g transform="translate(211.971534 18.306564) scale(0.1 -0.1)">
     <defs>
      <path id="DejaVuSans-46" d="M 628 4666 
L 3309 4666 
L 3309 4134 
L 1259 4134 
L 1259 2759 
L 3109 2759 
L 3109 2228 
L 1259 2228 
L 1259 0 
L 628 0 
L 628 4666 
z
" transform="scale(0.015625)"/>
     </defs>
     <use xlink:href="#DejaVuSans-46"/>
     <use xlink:href="#DejaVuSans-20" x="57.519531"/>
     <use xlink:href="#DejaVuSans-5b" x="89.306641"/>
     <use xlink:href="#DejaVuSans-31" x="128.320312"/>
     <use xlink:href="#DejaVuSans-33" x="191.943359"/>
     <use xlink:href="#DejaVuSans-5d" x="255.566406"/>
    </g>
   </g>
   <g id="text_6">
    <!-- G [25] -->
    <g transform="translate(133.704099 14.798437) scale(0.1 -0.1)">
     <defs>
      <path id="DejaVuSans-47" d="M 3809 666 
L 3809 1919 
L 2778 1919 
L 2778 2438 
L 4434 2438 
L 4434 434 
Q 4069 175 3628 42 
Q 3188 -91 2688 -91 
Q 1594 -91 976 548 
Q 359 1188 359 2328 
Q 359 3472 976 4111 
Q 1594 4750 2688 4750 
Q 3144 4750 3555 4637 
Q 3966 4525 4313 4306 
L 4313 3634 
Q 3963 3931 3569 4081 
Q 3175 4231 2741 4231 
Q 1884 4231 1454 3753 
Q 1025 3275 1025 2328 
Q 1025 1384 1454 906 
Q 1884 428 2741 428 
Q 3075 428 3337 486 
Q 3600 544 3809 666 
z
" transform="scale(0.015625)"/>
      <path id="DejaVuSans-32" d="M 1228 531 
L 3431 531 
L 3431 0 
L 469 0 
L 469 531 
Q 828 903 1448 1529 
Q 2069 2156 2228 2338 
Q 2531 2678 2651 2914 
Q 2772 3150 2772 3378 
Q 2772 3750 2511 3984 
Q 2250 4219 1831 4219 
Q 1534 4219 1204 4116 
Q 875 4013 500 3803 
L 500 4441 
Q 881 4594 1212 4672 
Q 1544 4750 1819 4750 
Q 2544 4750 2975 4387 
Q 3406 4025 3406 3419 
Q 3406 3131 3298 2873 
Q 3191 2616 2906 2266 
Q 2828 2175 2409 1742 
Q 1991 1309 1228 531 
z
" transform="scale(0.015625)"/>
     </defs>
     <use xlink:href="#DejaVuSans-47"/>
     <use xlink:href="#DejaVuSans-20" x="77.490234"/>
     <use xlink:href="#DejaVuSans-5b" x="109.277344"/>
     <use xlink:href="#DejaVuSans-32" x="148.291016"/>
     <use xlink:href="#DejaVuSans-35" x="211.914062"/>
     <use xlink:href="#DejaVuSans-5d" x="275.537109"/>
    </g>
   </g>
   <g id="text_7">
    <!-- H [7] -->
    <g transform="translate(101.780729 23.946315) scale(0.1 -0.1)">
     <defs>
      <path id="DejaVuSans-48" d="M 628 4666 
L 1259 4666 
L 1259 2753 
L 3553 2753 
L 3553 4666 
L 4184 4666 
L 4184 0 
L 3553 0 
L 3553 2222 
L 1259 2222 
L 1259 0 
L 628 0 
L 628 4666 
z
" transform="scale(0.015625)"/>
     </defs>
     <use xlink:href="#DejaVuSans-48"/>
     <use xlink:href="#DejaVuSans-20" x="75.195312"/>
     <use xlink:href="#DejaVuSans-5b" x="106.982422"/>
     <use xlink:href="#DejaVuSans-37" x="145.996094"/>
     <use xlink:href="#DejaVuSans-5d" x="209.619141"/>
    </g>
   </g>
   <g id="text_8">
    <!-- I [16] -->
    <g transform="translate(74.648427 36.984405) scale(0.1 -0.1)">
     <defs>
      <path id="DejaVuSans-49" d="M 628 4666 
L 1259 4666 
L 1259 0 
L 628 0 
L 628 4666 
z
" transform="scale(0.015625)"/>
      <path id="DejaVuSans-36" d="M 2113 2584 
Q 1688 2584 1439 2293 
Q 1191 2003 1191 1497 
Q 1191 994 1439 701 
Q 1688 409 2113 409 
Q 2538 409 2786 701 
Q 3034 994 3034 1497 
Q 3034 2003 2786 2293 
Q 2538 2584 2113 2584 
z
M 3366 4563 
L 3366 3988 
Q 3128 4100 2886 4159 
Q 2644 4219 2406 4219 
Q 1781 4219 1451 3797 
Q 1122 3375 1075 2522 
Q 1259 2794 1537 2939 
Q 1816 3084 2150 3084 
Q 2853 3084 3261 2657 
Q 3669 2231 3669 1497 
Q 3669 778 3244 343 
Q 2819 -91 2113 -91 
Q 1303 -91 875 529 
Q 447 1150 447 2328 
Q 447 3434 972 4092 
Q 1497 4750 2381 4750 
Q 2619 4750 2861 4703 
Q 3103 4656 3366 4563 
z
" transform="scale(0.015625)"/>
     </defs>
     <use xlink:href="#DejaVuSans-49"/>
     <use xlink:href="#DejaVuSans-20" x="29.492188"/>
     <use xlink:href="#DejaVuSans-5b" x="61.279297"/>
     <use xlink:href="#DejaVuSans-31" x="100.292969"/>
     <use xlink:href="#DejaVuSans-36" x="163.916016"/>
     <use xlink:href="#DejaVuSans-5d" x="227.539062"/>
    </g>
   </g>
   <g id="text_9">
    <!-- K [4] -->
    <g transform="translate(57.885586 52.270086) scale(0.1 -0.1)">
     <defs>
      <path id="DejaVuSans-4b" d="M 628 4666 
L 1259 4666 
L 1259 2694 
L 3353 4666 
L 4166 4666 
L 1850 2491 
L 4331 0 
L 3500 0 
L 1259 2247 
L 1259 0 
L 628 0 
L 628 4666 
z
" transform="scale(0.015625)"/>
     </defs>
     <use xlink:href="#DejaVuSans-4b"/>
     <use xlink:href="#DejaVuSans-20" x="65.576172"/>
     <use xlink:href="#DejaVuSans-5b" x="97.363281"/>
     <use xlink:href="#DejaVuSans-34" x="136.376953"/>
     <use xlink:href="#DejaVuSans-5d" x="200"/>
    </g>
   </g>
   <g id="text_10">
    <!-- L [50] -->
    <g transform="translate(16.079776 107.776217) scale(0.1 -0.1)">
     <defs>
      <path id="DejaVuSans-4c" d="M 628 4666 
L 1259 4666 
L 1259 531 
L 3531 531 
L 3531 0 
L 628 0 
L 628 4666 
z
" transform="scale(0.015625)"/>
      <path id="DejaVuSans-30" d="M 2034 4250 
Q 1547 4250 1301 3770 
Q 1056 3291 1056 2328 
Q 1056 1369 1301 889 
Q 1547 409 2034 409 
Q 2525 409 2770 889 
Q 3016 1369 3016 2328 
Q 3016 3291 2770 3770 
Q 2525 4250 2034 4250 
z
M 2034 4750 
Q 2819 4750 3233 4129 
Q 3647 3509 3647 2328 
Q 3647 1150 3233 529 
Q 2819 -91 2034 -91 
Q 1250 -91 836 529 
Q 422 1150 422 2328 
Q 422 3509 836 4129 
Q 1250 4750 2034 4750 
z
" transform="scale(0.015625)"/>
     </defs>
     <use xlink:href="#DejaVuSans-4c"/>
     <use xlink:href="#DejaVuSans-20" x="55.712891"/>
     <use xlink:href="#DejaVuSans-5b" x="87.5"/>
     <use xlink:href="#DejaVuSans-35" x="126.513672"/>
     <use xlink:href="#DejaVuSans-30" x="190.136719"/>
     <use xlink:href="#DejaVuSans-5d" x="253.759766"/>
    </g>
   </g>
   <g id="text_11">
    <!-- M [10] -->
    <g transform="translate(7.2 181.152082) scale(0.1 -0.1)">
     <defs>
      <path id="DejaVuSans-4d" d="M 628 4666 
L 1569 4666 
L 2759 1491 
L 3956 4666 
L 4897 4666 
L 4897 0 
L 4281 0 
L 4281 4097 
L 3078 897 
L 2444 897 
L 1241 4097 
L 1241 0 
L 628 0 
L 628 4666 
z
" transform="scale(0.015625)"/>
     </defs>
     <use xlink:href="#DejaVuSans-4d"/>
     <use xlink:href="#DejaVuSans-20" x="86.279297"/>
     <use xlink:href="#DejaVuSans-5b" x="118.066406"/>
     <use xlink:href="#DejaVuSans-31" x="157.080078"/>
     <use xlink:href="#DejaVuSans-30" x="220.703125"/>
     <use xlink:href="#DejaVuSans-5d" x="284.326172"/>
    </g>
   </g>
   <g id="text_12">
    <!-- N [9] -->
    <g transform="translate(20.955698 203.863026) scale(0.1 -0.1)">
     <defs>
      <path id="DejaVuSans-4e" d="M 628 4666 
L 1478 4666 
L 3547 763 
L 3547 4666 
L 4159 4666 
L 4159 0 
L 3309 0 
L 1241 3903 
L 1241 0 
L 628 0 
L 628 4666 
z
" transform="scale(0.015625)"/>
      <path id="DejaVuSans-39" d="M 703 97 
L 703 672 
Q 941 559 1184 500 
Q 1428 441 1663 441 
Q 2288 441 2617 861 
Q 2947 1281 2994 2138 
Q 2813 1869 2534 1725 
Q 2256 1581 1919 1581 
Q 1219 1581 811 2004 
Q 403 2428 403 3163 
Q 403 3881 828 4315 
Q 1253 4750 1959 4750 
Q 2769 4750 3195 4129 
Q 3622 3509 3622 2328 
Q 3622 1225 3098 567 
Q 2575 -91 1691 -91 
Q 1453 -91 1209 -44 
Q 966 3 703 97 
z
M 1959 2075 
Q 2384 2075 2632 2365 
Q 2881 2656 2881 3163 
Q 2881 3666 2632 3958 
Q 2384 4250 1959 4250 
Q 1534 4250 1286 3958 
Q 1038 3666 1038 3163 
Q 1038 2656 1286 2365 
Q 1534 2075 1959 2075 
z
" transform="scale(0.015625)"/>
     </defs>
     <use xlink:href="#DejaVuSans-4e"/>
     <use xlink:href="#DejaVuSans-20" x="74.804688"/>
     <use xlink:href="#DejaVuSans-5b" x="106.591797"/>
     <use xlink:href="#DejaVuSans-39" x="145.605469"/>
     <use xlink:href="#DejaVuSans-5d" x="209.228516"/>
    </g>
   </g>
   <g id="text_13">
    <!-- P [24] -->
    <g transform="translate(35.511618 239.735321) scale(0.1 -0.1)">
     <defs>
      <path id="DejaVuSans-50" d="M 1259 4147 
L 1259 2394 
L 2053 2394 
Q 2494 2394 2734 2622 
Q 2975 2850 2975 3272 
Q 2975 3691 2734 3919 
Q 2494 4147 2053 4147 
L 1259 4147 
z
M 628 4666 
L 2053 4666 
Q 2838 4666 3239 4311 
Q 3641 3956 3641 3272 
Q 3641 2581 3239 2228 
Q 2838 1875 2053 1875 
L 1259 1875 
L 1259 0 
L 628 0 
L 628 4666 
z
" transform="scale(0.015625)"/>
     </defs>
     <use xlink:href="#DejaVuSans-50"/>
     <use xlink:href="#DejaVuSans-20" x="60.302734"/>
     <use xlink:href="#DejaVuSans-5b" x="92.089844"/>
     <use xlink:href="#DejaVuSans-32" x="131.103516"/>
     <use xlink:href="#DejaVuSans-34" x="194.726562"/>
     <use xlink:href="#DejaVuSans-5d" x="258.349609"/>
    </g>
   </g>
   <g id="text_14">
    <!-- Q [8] -->
    <g transform="translate(67.961459 267.788001) scale(0.1 -0.1)">
     <defs>
      <path id="DejaVuSans-51" d="M 2522 4238 
Q 1834 4238 1429 3725 
Q 1025 3213 1025 2328 
Q 1025 1447 1429 934 
Q 1834 422 2522 422 
Q 3209 422 3611 934 
Q 4013 1447 4013 2328 
Q 4013 3213 3611 3725 
Q 3209 4238 2522 4238 
z
M 3406 84 
L 4238 -825 
L 3475 -825 
L 2784 -78 
Q 2681 -84 2626 -87 
Q 2572 -91 2522 -91 
Q 1538 -91 948 567 
Q 359 1225 359 2328 
Q 359 3434 948 4092 
Q 1538 4750 2522 4750 
Q 3503 4750 4090 4092 
Q 4678 3434 4678 2328 
Q 4678 1516 4351 937 
Q 4025 359 3406 84 
z
" transform="scale(0.015625)"/>
      <path id="DejaVuSans-38" d="M 2034 2216 
Q 1584 2216 1326 1975 
Q 1069 1734 1069 1313 
Q 1069 891 1326 650 
Q 1584 409 2034 409 
Q 2484 409 2743 651 
Q 3003 894 3003 1313 
Q 3003 1734 2745 1975 
Q 2488 2216 2034 2216 
z
M 1403 2484 
Q 997 2584 770 2862 
Q 544 3141 544 3541 
Q 544 4100 942 4425 
Q 1341 4750 2034 4750 
Q 2731 4750 3128 4425 
Q 3525 4100 3525 3541 
Q 3525 3141 3298 2862 
Q 3072 2584 2669 2484 
Q 3125 2378 3379 2068 
Q 3634 1759 3634 1313 
Q 3634 634 3220 271 
Q 2806 -91 2034 -91 
Q 1263 -91 848 271 
Q 434 634 434 1313 
Q 434 1759 690 2068 
Q 947 2378 1403 2484 
z
M 1172 3481 
Q 1172 3119 1398 2916 
Q 1625 2713 2034 2713 
Q 2441 2713 2670 2916 
Q 2900 3119 2900 3481 
Q 2900 3844 2670 4047 
Q 2441 4250 2034 4250 
Q 1625 4250 1398 4047 
Q 1172 3844 1172 3481 
z
" transform="scale(0.015625)"/>
     </defs>
     <use xlink:href="#DejaVuSans-51"/>
     <use xlink:href="#DejaVuSans-20" x="78.710938"/>
     <use xlink:href="#DejaVuSans-5b" x="110.498047"/>
     <use xlink:href="#DejaVuSans-38" x="149.511719"/>
     <use xlink:href="#DejaVuSans-5d" x="213.134766"/>
    </g>
   </g>
   <g id="text_15">
    <!-- R [14] -->
    <g transform="translate(85.764397 282.037746) scale(0.1 -0.1)">
     <defs>
      <path id="DejaVuSans-52" d="M 2841 2188 
Q 3044 2119 3236 1894 
Q 3428 1669 3622 1275 
L 4263 0 
L 3584 0 
L 2988 1197 
Q 2756 1666 2539 1819 
Q 2322 1972 1947 1972 
L 1259 1972 
L 1259 0 
L 628 0 
L 628 4666 
L 2053 4666 
Q 2853 4666 3247 4331 
Q 3641 3997 3641 3322 
Q 3641 2881 3436 2590 
Q 3231 2300 2841 2188 
z
M 1259 4147 
L 1259 2491 
L 2053 2491 
Q 2509 2491 2742 2702 
Q 2975 2913 2975 3322 
Q 2975 3731 2742 3939 
Q 2509 4147 2053 4147 
L 1259 4147 
z
" transform="scale(0.015625)"/>
     </defs>
     <use xlink:href="#DejaVuSans-52"/>
     <use xlink:href="#DejaVuSans-20" x="69.482422"/>
     <use xlink:href="#DejaVuSans-5b" x="101.269531"/>
     <use xlink:href="#DejaVuSans-31" x="140.283203"/>
     <use xlink:href="#DejaVuSans-34" x="203.90625"/>
     <use xlink:href="#DejaVuSans-5d" x="267.529297"/>
    </g>
   </g>
   <g id="text_16">
    <!-- S [31] -->
    <g transform="translate(140.054573 296.044844) scale(0.1 -0.1)">
     <defs>
      <path id="DejaVuSans-53" d="M 3425 4513 
L 3425 3897 
Q 3066 4069 2747 4153 
Q 2428 4238 2131 4238 
Q 1616 4238 1336 4038 
Q 1056 3838 1056 3469 
Q 1056 3159 1242 3001 
Q 1428 2844 1947 2747 
L 2328 2669 
Q 3034 2534 3370 2195 
Q 3706 1856 3706 1288 
Q 3706 609 3251 259 
Q 2797 -91 1919 -91 
Q 1588 -91 1214 -16 
Q 841 59 441 206 
L 441 856 
Q 825 641 1194 531 
Q 1563 422 1919 422 
Q 2459 422 2753 634 
Q 3047 847 3047 1241 
Q 3047 1584 2836 1778 
Q 2625 1972 2144 2069 
L 1759 2144 
Q 1053 2284 737 2584 
Q 422 2884 422 3419 
Q 422 4038 858 4394 
Q 1294 4750 2059 4750 
Q 2388 4750 2728 4690 
Q 3069 4631 3425 4513 
z
" transform="scale(0.015625)"/>
     </defs>
     <use xlink:href="#DejaVuSans-53"/>
     <use xlink:href="#DejaVuSans-20" x="63.476562"/>
     <use xlink:href="#DejaVuSans-5b" x="95.263672"/>
     <use xlink:href="#DejaVuSans-33" x="134.277344"/>
     <use xlink:href="#DejaVuSans-31" x="197.900391"/>
     <use xlink:href="#DejaVuSans-5d" x="261.523438"/>
    </g>
   </g>
   <g id="text_17">
    <!-- T [22] -->
    <g transform="translate(234.288276 284.631258) scale(0.1 -0.1)">
     <defs>
      <path id="DejaVuSans-54" d="M -19 4666 
L 3928 4666 
L 3928 4134 
L 2272 4134 
L 2272 0 
L 1638 0 
L 1638 4134 
L -19 4134 
L -19 4666 
z
" transform="scale(0.015625)"/>
     </defs>
     <use xlink:href="#DejaVuSans-54"/>
     <use xlink:href="#DejaVuSans-20" x="61.083984"/>
     <use xlink:href="#DejaVuSans-5b" x="92.871094"/>
     <use xlink:href="#DejaVuSans-32" x="131.884766"/>
     <use xlink:href="#DejaVuSans-32" x="195.507812"/>
     <use xlink:href="#DejaVuSans-5d" x="259.130859"/>
    </g>
   </g>
   <g id="text_18">
    <!-- V [35] -->
    <g transform="translate(289.592418 241.709561) scale(0.1 -0.1)">
     <defs>
      <path id="DejaVuSans-56" d="M 1831 0 
L 50 4666 
L 709 4666 
L 2188 738 
L 3669 4666 
L 4325 4666 
L 2547 0 
L 1831 0 
z
" transform="scale(0.015625)"/>
     </defs>
     <use xlink:href="#DejaVuSans-56"/>
     <use xlink:href="#DejaVuSans-20" x="68.408203"/>
     <use xlink:href="#DejaVuSans-5b" x="100.195312"/>
     <use xlink:href="#DejaVuSans-33" x="139.208984"/>
     <use xlink:href="#DejaVuSans-35" x="202.832031"/>
     <use xlink:href="#DejaVuSans-5d" x="266.455078"/>
    </g>
   </g>
   <g id="text_19">
    <!-- W [7] -->
    <g transform="translate(313.306264 195.620603) scale(0.1 -0.1)">
     <defs>
      <path id="DejaVuSans-57" d="M 213 4666 
L 850 4666 
L 1831 722 
L 2809 4666 
L 3519 4666 
L 4500 722 
L 5478 4666 
L 6119 4666 
L 4947 0 
L 4153 0 
L 3169 4050 
L 2175 0 
L 1381 0 
L 213 4666 
z
" transform="scale(0.015625)"/>
     </defs>
     <use xlink:href="#DejaVuSans-57"/>
     <use xlink:href="#DejaVuSans-20" x="98.876953"/>
     <use xlink:href="#DejaVuSans-5b" x="130.664062"/>
     <use xlink:href="#DejaVuSans-37" x="169.677734"/>
     <use xlink:href="#DejaVuSans-5d" x="233.300781"/>
    </g>
   </g>
   <g id="text_20">
    <!-- Y [13] -->
    <g transform="translate(318.289726 171.335811) scale(0.1 -0.1)">
     <defs>
      <path id="DejaVuSans-59" d="M -13 4666 
L 666 4666 
L 1959 2747 
L 3244 4666 
L 3922 4666 
L 2272 2222 
L 2272 0 
L 1638 0 
L 1638 2222 
L -13 4666 
z
" transform="scale(0.015625)"/>
     </defs>
     <use xlink:href="#DejaVuSans-59"/>
     <use xlink:href="#DejaVuSans-20" x="61.083984"/>
     <use xlink:href="#DejaVuSans-5b" x="92.871094"/>
     <use xlink:href="#DejaVuSans-31" x="131.884766"/>
     <use xlink:href="#DejaVuSans-33" x="195.507812"/>
     <use xlink:href="#DejaVuSans-5d" x="259.130859"/>
    </g>
   </g>
   <g id="text_21">
    <!-- G1MPF9 [357] -->
    <g transform="translate(135.601331 152.476772) scale(0.12 -0.12)">
     <use xlink:href="#DejaVuSans-47"/>
     <use xlink:href="#DejaVuSans-31" x="77.490234"/>
     <use xlink:href="#DejaVuSans-4d" x="141.113281"/>
     <use xlink:href="#DejaVuSans-50" x="227.392578"/>
     <use xlink:href="#DejaVuSans-46" x="287.695312"/>
     <use xlink:href="#DejaVuSans-39" x="345.214844"/>
     <use xlink:href="#DejaVuSans-20" x="408.837891"/>
     <use xlink:href="#DejaVuSans-5b" x="440.625"/>
     <use xlink:href="#DejaVuSans-33" x="479.638672"/>
     <use xlink:href="#DejaVuSans-35" x="543.261719"/>
     <use xlink:href="#DejaVuSans-37" x="606.884766"/>
     <use xlink:href="#DejaVuSans-5d" x="670.507812"/>
    </g>
   </g>
  </g>
 </g>
</svg>
