<?xml version="1.0" encoding="utf-8" standalone="no"?>
<!DOCTYPE svg PUBLIC "-//W3C//DTD SVG 1.1//EN"
  "http://www.w3.org/Graphics/SVG/1.1/DTD/svg11.dtd">
<svg xmlns:xlink="http://www.w3.org/1999/xlink" width="353.312969pt" height="304.554995pt" viewBox="0 0 353.312969 304.554995" xmlns="http://www.w3.org/2000/svg" version="1.1">
 <metadata>
  <rdf:RDF xmlns:dc="http://purl.org/dc/elements/1.1/" xmlns:cc="http://creativecommons.org/ns#" xmlns:rdf="http://www.w3.org/1999/02/22-rdf-syntax-ns#">
   <cc:Work>
    <dc:type rdf:resource="http://purl.org/dc/dcmitype/StillImage"/>
    <dc:date>2024-09-27T16:07:19.516656</dc:date>
    <dc:format>image/svg+xml</dc:format>
    <dc:creator>
     <cc:Agent>
      <dc:title>Matplotlib v3.8.3, https://matplotlib.org/</dc:title>
     </cc:Agent>
    </dc:creator>
   </cc:Work>
  </rdf:RDF>
 </metadata>
 <defs>
  <style type="text/css">*{stroke-linejoin: round; stroke-linecap: butt}</style>
 </defs>
 <g id="figure_1">
  <g id="patch_1">
   <path d="M 0 304.554995 
L 353.312969 304.554995 
L 353.312969 0 
L 0 0 
z
" style="fill: #ffffff"/>
  </g>
  <g id="axes_1">
   <g id="patch_2">
    <path d="M 305.139122 152.709685 
C 305.139122 144.621298 304.37086 136.551163 302.844691 128.608064 
C 301.318523 120.664965 299.041336 112.884752 296.043827 105.372299 
L 177.405362 152.709685 
z
" style="fill: #1f77b4"/>
   </g>
   <g id="patch_3">
    <path d="M 295.996859 105.234028 
C 294.648786 101.855444 293.157006 98.535987 291.525597 95.284736 
C 289.894188 92.033485 288.12464 88.853406 286.221792 85.753197 
L 177.358395 152.571414 
z
" style="fill: #ff7f0e"/>
   </g>
   <g id="patch_4">
    <path d="M 286.177267 85.679876 
C 284.485901 82.924222 282.690514 80.233782 280.794986 77.61437 
C 278.899458 74.994957 276.905155 72.448461 274.816389 69.980385 
L 177.31387 152.498093 
z
" style="fill: #aec7e8"/>
   </g>
   <g id="patch_5">
    <path d="M 274.757065 69.911623 
C 272.145931 66.826319 269.389823 63.86669 266.498047 61.042729 
C 263.606271 58.218768 260.582085 55.533656 257.435698 52.996458 
L 177.254546 152.429331 
z
" style="fill: #ffbb78"/>
   </g>
   <g id="patch_6">
    <path d="M 257.295749 52.898189 
C 249.737685 46.803482 241.509301 41.590351 232.770144 37.359877 
C 224.030987 33.129403 214.837907 29.909107 205.369155 27.761429 
L 177.114596 152.331062 
z
" style="fill: #98df8a"/>
   </g>
   <g id="patch_7">
    <path d="M 205.195233 27.711419 
C 200.464686 26.638449 195.676858 25.835814 190.855018 25.307415 
C 186.033179 24.779016 181.185153 24.525711 176.334502 24.54873 
L 176.940675 152.281052 
z
" style="fill: #2ca02c"/>
   </g>
   <g id="patch_8">
    <path d="M 176.243712 24.546575 
C 173.818878 24.558083 171.394863 24.638636 168.974615 24.788138 
C 166.554367 24.93764 164.138866 25.15603 161.73105 25.443041 
L 176.849885 152.278897 
z
" style="fill: #d62728"/>
   </g>
   <g id="patch_9">
    <path d="M 161.545698 25.488798 
C 148.680255 27.022359 136.12271 30.504518 124.30475 35.81557 
C 112.486791 41.126622 101.545406 48.205003 91.856726 56.807381 
L 176.664532 152.324654 
z
" style="fill: #9467bd"/>
   </g>
   <g id="patch_10">
    <path d="M 91.655874 56.96468 
C 85.910344 62.066016 80.636796 67.675371 75.899397 73.724487 
C 71.161999 79.773603 66.980045 86.237845 63.404421 93.038556 
L 176.46368 152.481953 
z
" style="fill: #ff9896"/>
   </g>
   <g id="patch_11">
    <path d="M 63.293611 93.316273 
C 55.558769 108.027672 50.769165 124.108324 49.194011 140.654378 
C 47.618857 157.200433 49.288227 173.895967 54.108291 189.80257 
L 176.35287 152.75967 
z
" style="fill: #c5b0d5"/>
   </g>
   <g id="patch_12">
    <path d="M 54.15582 190.078064 
C 55.914473 195.881761 58.084201 201.552857 60.648535 207.048306 
C 63.212869 212.543754 66.165305 217.849616 69.483432 222.925618 
L 176.400399 153.035163 
z
" style="fill: #c49c94"/>
   </g>
   <g id="patch_13">
    <path d="M 69.559471 223.044387 
C 72.434879 227.443127 75.579006 231.660229 78.97392 235.671643 
C 82.368835 239.683057 86.00807 243.481142 89.870872 247.044237 
L 176.476438 153.153932 
z
" style="fill: #8c564b"/>
   </g>
   <g id="patch_14">
    <path d="M 89.979609 247.14171 
C 94.734602 251.527774 99.815925 255.546288 105.179703 259.162556 
C 110.543481 262.778824 116.174232 265.982407 122.023337 268.745644 
L 176.585175 153.251405 
z
" style="fill: #e377c2"/>
   </g>
   <g id="patch_15">
    <path d="M 122.125969 268.799605 
C 124.683959 270.008052 127.281391 271.131183 129.913967 272.16714 
C 132.546542 273.203097 135.212808 274.151307 137.908352 275.010203 
L 176.687807 153.305366 
z
" style="fill: #7f7f7f"/>
   </g>
   <g id="patch_16">
    <path d="M 138.00034 275.037127 
C 142.622097 276.509781 147.323989 277.717974 152.083166 278.655831 
C 156.842343 279.593689 161.651081 280.25969 166.48601 280.650598 
L 176.779796 153.33229 
z
" style="fill: #f7b6d2"/>
   </g>
   <g id="patch_17">
    <path d="M 166.661927 280.655608 
C 175.935558 281.405388 185.263412 281.139718 194.479335 279.86333 
C 203.695257 278.586942 212.744202 276.307459 221.464982 273.065486 
L 176.955713 153.3373 
z
" style="fill: #c7c7c7"/>
   </g>
   <g id="patch_18">
    <path d="M 221.676805 272.987882 
C 230.017719 269.887126 238.011824 265.92323 245.528801 261.160814 
C 253.045777 256.398398 260.044555 250.863482 266.41104 244.646296 
L 177.167537 153.259697 
z
" style="fill: #dbdb8d"/>
   </g>
   <g id="patch_19">
    <path d="M 266.566081 244.496321 
C 272.642692 238.562213 278.112311 232.036789 282.893675 225.017002 
C 287.675038 217.997216 291.744348 210.518004 295.041144 202.69049 
L 177.322578 153.109722 
z
" style="fill: #bcbd22"/>
   </g>
   <g id="patch_20">
    <path d="M 295.101007 202.573962 
C 295.885347 200.711721 296.625387 198.83113 297.320502 196.933777 
C 298.015617 195.036425 298.665612 193.122845 299.269937 191.194653 
L 177.38244 152.993194 
z
" style="fill: #17becf"/>
   </g>
   <g id="patch_21">
    <path d="M 299.296294 191.09208 
C 301.230974 184.919194 302.693931 178.608247 303.672533 172.21373 
C 304.651135 165.819213 305.142557 159.359584 305.142557 152.890619 
L 177.408797 152.890622 
z
" style="fill: #9edae5"/>
   </g>
   <g id="patch_22">
    <path d="M 251.394058 152.810109 
C 251.394058 148.091883 250.945905 143.384304 250.05564 138.75083 
C 249.165375 134.117355 247.837016 129.578898 246.088469 125.196633 
L 176.882698 152.810109 
z
" style="fill: #ffffff"/>
   </g>
   <g id="patch_23">
    <path d="M 246.088469 125.196633 
C 245.302093 123.225793 244.431888 121.289443 243.480233 119.39288 
C 242.528578 117.496317 241.496341 115.641271 240.386347 113.832815 
L 176.882698 152.810109 
z
" style="fill: #ffffff"/>
   </g>
   <g id="patch_24">
    <path d="M 240.386347 113.832815 
C 239.399716 112.225351 238.352407 110.655927 237.246683 109.127937 
C 236.140958 107.599946 234.977615 106.11449 233.759168 104.674779 
L 176.882698 152.810109 
z
" style="fill: #ffffff"/>
   </g>
   <g id="patch_25">
    <path d="M 233.759168 104.674779 
C 232.236006 102.875018 230.628276 101.148568 228.941407 99.501258 
C 227.254538 97.853947 225.490429 96.287632 223.655037 94.807599 
L 176.882698 152.810109 
z
" style="fill: #ffffff"/>
   </g>
   <g id="patch_26">
    <path d="M 223.655037 94.807599 
C 219.246167 91.252353 214.446276 88.21136 209.348434 85.743584 
C 204.250593 83.275808 198.887963 81.397302 193.364524 80.14449 
L 176.882698 152.810109 
z
" style="fill: #ffffff"/>
   </g>
   <g id="patch_27">
    <path d="M 193.364524 80.14449 
C 190.605038 79.51859 187.812138 79.050386 184.999399 78.742154 
C 182.186659 78.433921 179.358644 78.28616 176.529097 78.299588 
L 176.882698 152.810109 
z
" style="fill: #ffffff"/>
   </g>
   <g id="patch_28">
    <path d="M 176.529097 78.299588 
C 175.114611 78.3063 173.700602 78.35329 172.288791 78.440499 
C 170.876979 78.527709 169.467937 78.655103 168.063378 78.822526 
L 176.882698 152.810109 
z
" style="fill: #ffffff"/>
   </g>
   <g id="patch_29">
    <path d="M 168.063378 78.822526 
C 160.558536 79.717103 153.233302 81.748363 146.339492 84.846476 
C 139.445682 87.94459 133.063208 92.073645 127.411478 97.0917 
L 176.882698 152.810109 
z
" style="fill: #ffffff"/>
   </g>
   <g id="patch_30">
    <path d="M 127.411478 97.0917 
C 124.059919 100.067479 120.983682 103.339603 118.2202 106.868254 
C 115.456717 110.396905 113.017244 114.167713 110.931464 118.134794 
L 176.882698 152.810109 
z
" style="fill: #ffffff"/>
   </g>
   <g id="patch_31">
    <path d="M 110.931464 118.134794 
C 106.419473 126.716443 103.625537 136.096823 102.706697 145.748689 
C 101.787857 155.400554 102.761657 165.139616 105.573361 174.418467 
L 176.882698 152.810109 
z
" style="fill: #ffffff"/>
   </g>
   <g id="patch_32">
    <path d="M 105.573361 174.418467 
C 106.599242 177.803957 107.864916 181.112097 109.360778 184.317775 
C 110.856639 187.523453 112.578893 190.618539 114.514468 193.579541 
L 176.882698 152.810109 
z
" style="fill: #ffffff"/>
   </g>
   <g id="patch_33">
    <path d="M 114.514468 193.579541 
C 116.191789 196.145472 118.025863 198.605448 120.00623 200.94544 
C 121.986596 203.285431 124.109484 205.500981 126.362785 207.579453 
L 176.882698 152.810109 
z
" style="fill: #ffffff"/>
   </g>
   <g id="patch_34">
    <path d="M 126.362785 207.579453 
C 129.13653 210.13799 132.100635 212.482124 135.229506 214.591613 
C 138.358376 216.701103 141.642981 218.56986 145.054959 220.181748 
L 176.882698 152.810109 
z
" style="fill: #ffffff"/>
   </g>
   <g id="patch_35">
    <path d="M 145.054959 220.181748 
C 146.54712 220.886675 148.062289 221.541835 149.597958 222.146143 
C 151.133627 222.750451 152.688949 223.303574 154.261349 223.804597 
L 176.882698 152.810109 
z
" style="fill: #ffffff"/>
   </g>
   <g id="patch_36">
    <path d="M 154.261349 223.804597 
C 156.957374 224.663645 159.700144 225.368424 162.476331 225.915508 
C 165.252517 226.462591 168.057615 226.851092 170.87799 227.079121 
L 176.882698 152.810109 
z
" style="fill: #ffffff"/>
   </g>
   <g id="patch_37">
    <path d="M 170.87799 227.079121 
C 176.287608 227.516493 181.728856 227.361519 187.104811 226.616959 
C 192.480765 225.872399 197.759316 224.542701 202.846438 222.65155 
L 176.882698 152.810109 
z
" style="fill: #ffffff"/>
   </g>
   <g id="patch_38">
    <path d="M 202.846438 222.65155 
C 207.711971 220.842776 212.375199 218.530503 216.760102 215.752427 
C 221.145005 212.974351 225.227625 209.74565 228.941409 206.118958 
L 176.882698 152.810109 
z
" style="fill: #ffffff"/>
   </g>
   <g id="patch_39">
    <path d="M 228.941409 206.118958 
C 232.486098 202.657395 235.676709 198.850898 238.465838 194.756022 
C 241.254967 190.661146 243.628731 186.298273 245.551862 181.732223 
L 176.882698 152.810109 
z
" style="fill: #ffffff"/>
   </g>
   <g id="patch_40">
    <path d="M 245.551862 181.732223 
C 246.009394 180.645916 246.441084 179.548904 246.846567 178.442115 
C 247.252051 177.335326 247.631215 176.219071 247.983738 175.094293 
L 176.882698 152.810109 
z
" style="fill: #ffffff"/>
   </g>
   <g id="patch_41">
    <path d="M 247.983738 175.094293 
C 249.112301 171.493443 249.965693 167.812057 250.536544 164.081922 
C 251.107395 160.351787 251.394058 156.58367 251.394058 152.810107 
L 176.882698 152.810109 
z
" style="fill: #ffffff"/>
   </g>
   <g id="matplotlib.axis_1"/>
   <g id="matplotlib.axis_2"/>
   <g id="text_1">
    <!-- A [20] -->
    <g transform="translate(315.388624 128.957277) scale(0.1 -0.1)">
     <defs>
      <path id="DejaVuSans-41" d="M 2188 4044 
L 1331 1722 
L 3047 1722 
L 2188 4044 
z
M 1831 4666 
L 2547 4666 
L 4325 0 
L 3669 0 
L 3244 1197 
L 1141 1197 
L 716 0 
L 50 0 
L 1831 4666 
z
" transform="scale(0.015625)"/>
      <path id="DejaVuSans-20" transform="scale(0.015625)"/>
      <path id="DejaVuSans-5b" d="M 550 4863 
L 1875 4863 
L 1875 4416 
L 1125 4416 
L 1125 -397 
L 1875 -397 
L 1875 -844 
L 550 -844 
L 550 4863 
z
" transform="scale(0.015625)"/>
      <path id="DejaVuSans-32" d="M 1228 531 
L 3431 531 
L 3431 0 
L 469 0 
L 469 531 
Q 828 903 1448 1529 
Q 2069 2156 2228 2338 
Q 2531 2678 2651 2914 
Q 2772 3150 2772 3378 
Q 2772 3750 2511 3984 
Q 2250 4219 1831 4219 
Q 1534 4219 1204 4116 
Q 875 4013 500 3803 
L 500 4441 
Q 881 4594 1212 4672 
Q 1544 4750 1819 4750 
Q 2544 4750 2975 4387 
Q 3406 4025 3406 3419 
Q 3406 3131 3298 2873 
Q 3191 2616 2906 2266 
Q 2828 2175 2409 1742 
Q 1991 1309 1228 531 
z
" transform="scale(0.015625)"/>
      <path id="DejaVuSans-30" d="M 2034 4250 
Q 1547 4250 1301 3770 
Q 1056 3291 1056 2328 
Q 1056 1369 1301 889 
Q 1547 409 2034 409 
Q 2525 409 2770 889 
Q 3016 1369 3016 2328 
Q 3016 3291 2770 3770 
Q 2525 4250 2034 4250 
z
M 2034 4750 
Q 2819 4750 3233 4129 
Q 3647 3509 3647 2328 
Q 3647 1150 3233 529 
Q 2819 -91 2034 -91 
Q 1250 -91 836 529 
Q 422 1150 422 2328 
Q 422 3509 836 4129 
Q 1250 4750 2034 4750 
z
" transform="scale(0.015625)"/>
      <path id="DejaVuSans-5d" d="M 1947 4863 
L 1947 -844 
L 622 -844 
L 622 -397 
L 1369 -397 
L 1369 4416 
L 622 4416 
L 622 4863 
L 1947 4863 
z
" transform="scale(0.015625)"/>
     </defs>
     <use xlink:href="#DejaVuSans-41"/>
     <use xlink:href="#DejaVuSans-20" x="68.408203"/>
     <use xlink:href="#DejaVuSans-5b" x="100.195312"/>
     <use xlink:href="#DejaVuSans-32" x="139.208984"/>
     <use xlink:href="#DejaVuSans-30" x="202.832031"/>
     <use xlink:href="#DejaVuSans-5d" x="266.455078"/>
    </g>
   </g>
   <g id="text_2">
    <!-- C [9] -->
    <g transform="translate(302.942317 92.315444) scale(0.1 -0.1)">
     <defs>
      <path id="DejaVuSans-43" d="M 4122 4306 
L 4122 3641 
Q 3803 3938 3442 4084 
Q 3081 4231 2675 4231 
Q 1875 4231 1450 3742 
Q 1025 3253 1025 2328 
Q 1025 1406 1450 917 
Q 1875 428 2675 428 
Q 3081 428 3442 575 
Q 3803 722 4122 1019 
L 4122 359 
Q 3791 134 3420 21 
Q 3050 -91 2638 -91 
Q 1578 -91 968 557 
Q 359 1206 359 2328 
Q 359 3453 968 4101 
Q 1578 4750 2638 4750 
Q 3056 4750 3426 4639 
Q 3797 4528 4122 4306 
z
" transform="scale(0.015625)"/>
      <path id="DejaVuSans-39" d="M 703 97 
L 703 672 
Q 941 559 1184 500 
Q 1428 441 1663 441 
Q 2288 441 2617 861 
Q 2947 1281 2994 2138 
Q 2813 1869 2534 1725 
Q 2256 1581 1919 1581 
Q 1219 1581 811 2004 
Q 403 2428 403 3163 
Q 403 3881 828 4315 
Q 1253 4750 1959 4750 
Q 2769 4750 3195 4129 
Q 3622 3509 3622 2328 
Q 3622 1225 3098 567 
Q 2575 -91 1691 -91 
Q 1453 -91 1209 -44 
Q 966 3 703 97 
z
M 1959 2075 
Q 2384 2075 2632 2365 
Q 2881 2656 2881 3163 
Q 2881 3666 2632 3958 
Q 2384 4250 1959 4250 
Q 1534 4250 1286 3958 
Q 1038 3666 1038 3163 
Q 1038 2656 1286 2365 
Q 1534 2075 1959 2075 
z
" transform="scale(0.015625)"/>
     </defs>
     <use xlink:href="#DejaVuSans-43"/>
     <use xlink:href="#DejaVuSans-20" x="69.824219"/>
     <use xlink:href="#DejaVuSans-5b" x="101.611328"/>
     <use xlink:href="#DejaVuSans-39" x="140.625"/>
     <use xlink:href="#DejaVuSans-5d" x="204.248047"/>
    </g>
   </g>
   <g id="text_3">
    <!-- D [8] -->
    <g transform="translate(291.143097 72.885372) scale(0.1 -0.1)">
     <defs>
      <path id="DejaVuSans-44" d="M 1259 4147 
L 1259 519 
L 2022 519 
Q 2988 519 3436 956 
Q 3884 1394 3884 2338 
Q 3884 3275 3436 3711 
Q 2988 4147 2022 4147 
L 1259 4147 
z
M 628 4666 
L 1925 4666 
Q 3281 4666 3915 4102 
Q 4550 3538 4550 2338 
Q 4550 1131 3912 565 
Q 3275 0 1925 0 
L 628 0 
L 628 4666 
z
" transform="scale(0.015625)"/>
      <path id="DejaVuSans-38" d="M 2034 2216 
Q 1584 2216 1326 1975 
Q 1069 1734 1069 1313 
Q 1069 891 1326 650 
Q 1584 409 2034 409 
Q 2484 409 2743 651 
Q 3003 894 3003 1313 
Q 3003 1734 2745 1975 
Q 2488 2216 2034 2216 
z
M 1403 2484 
Q 997 2584 770 2862 
Q 544 3141 544 3541 
Q 544 4100 942 4425 
Q 1341 4750 2034 4750 
Q 2731 4750 3128 4425 
Q 3525 4100 3525 3541 
Q 3525 3141 3298 2862 
Q 3072 2584 2669 2484 
Q 3125 2378 3379 2068 
Q 3634 1759 3634 1313 
Q 3634 634 3220 271 
Q 2806 -91 2034 -91 
Q 1263 -91 848 271 
Q 434 634 434 1313 
Q 434 1759 690 2068 
Q 947 2378 1403 2484 
z
M 1172 3481 
Q 1172 3119 1398 2916 
Q 1625 2713 2034 2713 
Q 2441 2713 2670 2916 
Q 2900 3119 2900 3481 
Q 2900 3844 2670 4047 
Q 2441 4250 2034 4250 
Q 1625 4250 1398 4047 
Q 1172 3844 1172 3481 
z
" transform="scale(0.015625)"/>
     </defs>
     <use xlink:href="#DejaVuSans-44"/>
     <use xlink:href="#DejaVuSans-20" x="77.001953"/>
     <use xlink:href="#DejaVuSans-5b" x="108.789062"/>
     <use xlink:href="#DejaVuSans-38" x="147.802734"/>
     <use xlink:href="#DejaVuSans-5d" x="211.425781"/>
    </g>
   </g>
   <g id="text_4">
    <!-- E [10] -->
    <g transform="translate(275.422397 54.663444) scale(0.1 -0.1)">
     <defs>
      <path id="DejaVuSans-45" d="M 628 4666 
L 3578 4666 
L 3578 4134 
L 1259 4134 
L 1259 2753 
L 3481 2753 
L 3481 2222 
L 1259 2222 
L 1259 531 
L 3634 531 
L 3634 0 
L 628 0 
L 628 4666 
z
" transform="scale(0.015625)"/>
      <path id="DejaVuSans-31" d="M 794 531 
L 1825 531 
L 1825 4091 
L 703 3866 
L 703 4441 
L 1819 4666 
L 2450 4666 
L 2450 531 
L 3481 531 
L 3481 0 
L 794 0 
L 794 531 
z
" transform="scale(0.015625)"/>
     </defs>
     <use xlink:href="#DejaVuSans-45"/>
     <use xlink:href="#DejaVuSans-20" x="63.183594"/>
     <use xlink:href="#DejaVuSans-5b" x="94.970703"/>
     <use xlink:href="#DejaVuSans-31" x="133.984375"/>
     <use xlink:href="#DejaVuSans-30" x="197.607422"/>
     <use xlink:href="#DejaVuSans-5d" x="261.230469"/>
    </g>
   </g>
   <g id="text_5">
    <!-- F [24] -->
    <g transform="translate(238.335699 28.622133) scale(0.1 -0.1)">
     <defs>
      <path id="DejaVuSans-46" d="M 628 4666 
L 3309 4666 
L 3309 4134 
L 1259 4134 
L 1259 2759 
L 3109 2759 
L 3109 2228 
L 1259 2228 
L 1259 0 
L 628 0 
L 628 4666 
z
" transform="scale(0.015625)"/>
      <path id="DejaVuSans-34" d="M 2419 4116 
L 825 1625 
L 2419 1625 
L 2419 4116 
z
M 2253 4666 
L 3047 4666 
L 3047 1625 
L 3713 1625 
L 3713 1100 
L 3047 1100 
L 3047 0 
L 2419 0 
L 2419 1100 
L 313 1100 
L 313 1709 
L 2253 4666 
z
" transform="scale(0.015625)"/>
     </defs>
     <use xlink:href="#DejaVuSans-46"/>
     <use xlink:href="#DejaVuSans-20" x="57.519531"/>
     <use xlink:href="#DejaVuSans-5b" x="89.306641"/>
     <use xlink:href="#DejaVuSans-32" x="128.320312"/>
     <use xlink:href="#DejaVuSans-34" x="191.943359"/>
     <use xlink:href="#DejaVuSans-5d" x="255.566406"/>
    </g>
   </g>
   <g id="text_6">
    <!-- G [12] -->
    <g transform="translate(192.246453 15.369426) scale(0.1 -0.1)">
     <defs>
      <path id="DejaVuSans-47" d="M 3809 666 
L 3809 1919 
L 2778 1919 
L 2778 2438 
L 4434 2438 
L 4434 434 
Q 4069 175 3628 42 
Q 3188 -91 2688 -91 
Q 1594 -91 976 548 
Q 359 1188 359 2328 
Q 359 3472 976 4111 
Q 1594 4750 2688 4750 
Q 3144 4750 3555 4637 
Q 3966 4525 4313 4306 
L 4313 3634 
Q 3963 3931 3569 4081 
Q 3175 4231 2741 4231 
Q 1884 4231 1454 3753 
Q 1025 3275 1025 2328 
Q 1025 1384 1454 906 
Q 1884 428 2741 428 
Q 3075 428 3337 486 
Q 3600 544 3809 666 
z
" transform="scale(0.015625)"/>
     </defs>
     <use xlink:href="#DejaVuSans-47"/>
     <use xlink:href="#DejaVuSans-20" x="77.490234"/>
     <use xlink:href="#DejaVuSans-5b" x="109.277344"/>
     <use xlink:href="#DejaVuSans-31" x="148.291016"/>
     <use xlink:href="#DejaVuSans-32" x="211.914062"/>
     <use xlink:href="#DejaVuSans-5d" x="275.537109"/>
    </g>
   </g>
   <g id="text_7">
    <!-- H [6] -->
    <g transform="translate(143.323025 14.798437) scale(0.1 -0.1)">
     <defs>
      <path id="DejaVuSans-48" d="M 628 4666 
L 1259 4666 
L 1259 2753 
L 3553 2753 
L 3553 4666 
L 4184 4666 
L 4184 0 
L 3553 0 
L 3553 2222 
L 1259 2222 
L 1259 0 
L 628 0 
L 628 4666 
z
" transform="scale(0.015625)"/>
      <path id="DejaVuSans-36" d="M 2113 2584 
Q 1688 2584 1439 2293 
Q 1191 2003 1191 1497 
Q 1191 994 1439 701 
Q 1688 409 2113 409 
Q 2538 409 2786 701 
Q 3034 994 3034 1497 
Q 3034 2003 2786 2293 
Q 2538 2584 2113 2584 
z
M 3366 4563 
L 3366 3988 
Q 3128 4100 2886 4159 
Q 2644 4219 2406 4219 
Q 1781 4219 1451 3797 
Q 1122 3375 1075 2522 
Q 1259 2794 1537 2939 
Q 1816 3084 2150 3084 
Q 2853 3084 3261 2657 
Q 3669 2231 3669 1497 
Q 3669 778 3244 343 
Q 2819 -91 2113 -91 
Q 1303 -91 875 529 
Q 447 1150 447 2328 
Q 447 3434 972 4092 
Q 1497 4750 2381 4750 
Q 2619 4750 2861 4703 
Q 3103 4656 3366 4563 
z
" transform="scale(0.015625)"/>
     </defs>
     <use xlink:href="#DejaVuSans-48"/>
     <use xlink:href="#DejaVuSans-20" x="75.195312"/>
     <use xlink:href="#DejaVuSans-5b" x="106.982422"/>
     <use xlink:href="#DejaVuSans-36" x="145.996094"/>
     <use xlink:href="#DejaVuSans-5d" x="209.619141"/>
    </g>
   </g>
   <g id="text_8">
    <!-- I [32] -->
    <g transform="translate(92.412522 26.924037) scale(0.1 -0.1)">
     <defs>
      <path id="DejaVuSans-49" d="M 628 4666 
L 1259 4666 
L 1259 0 
L 628 0 
L 628 4666 
z
" transform="scale(0.015625)"/>
      <path id="DejaVuSans-33" d="M 2597 2516 
Q 3050 2419 3304 2112 
Q 3559 1806 3559 1356 
Q 3559 666 3084 287 
Q 2609 -91 1734 -91 
Q 1441 -91 1130 -33 
Q 819 25 488 141 
L 488 750 
Q 750 597 1062 519 
Q 1375 441 1716 441 
Q 2309 441 2620 675 
Q 2931 909 2931 1356 
Q 2931 1769 2642 2001 
Q 2353 2234 1838 2234 
L 1294 2234 
L 1294 2753 
L 1863 2753 
Q 2328 2753 2575 2939 
Q 2822 3125 2822 3475 
Q 2822 3834 2567 4026 
Q 2313 4219 1838 4219 
Q 1578 4219 1281 4162 
Q 984 4106 628 3988 
L 628 4550 
Q 988 4650 1302 4700 
Q 1616 4750 1894 4750 
Q 2613 4750 3031 4423 
Q 3450 4097 3450 3541 
Q 3450 3153 3228 2886 
Q 3006 2619 2597 2516 
z
" transform="scale(0.015625)"/>
     </defs>
     <use xlink:href="#DejaVuSans-49"/>
     <use xlink:href="#DejaVuSans-20" x="29.492188"/>
     <use xlink:href="#DejaVuSans-5b" x="61.279297"/>
     <use xlink:href="#DejaVuSans-33" x="100.292969"/>
     <use xlink:href="#DejaVuSans-32" x="163.916016"/>
     <use xlink:href="#DejaVuSans-5d" x="227.539062"/>
    </g>
   </g>
   <g id="text_9">
    <!-- K [19] -->
    <g transform="translate(35.578907 68.608115) scale(0.1 -0.1)">
     <defs>
      <path id="DejaVuSans-4b" d="M 628 4666 
L 1259 4666 
L 1259 2694 
L 3353 4666 
L 4166 4666 
L 1850 2491 
L 4331 0 
L 3500 0 
L 1259 2247 
L 1259 0 
L 628 0 
L 628 4666 
z
" transform="scale(0.015625)"/>
     </defs>
     <use xlink:href="#DejaVuSans-4b"/>
     <use xlink:href="#DejaVuSans-20" x="65.576172"/>
     <use xlink:href="#DejaVuSans-5b" x="97.363281"/>
     <use xlink:href="#DejaVuSans-31" x="136.376953"/>
     <use xlink:href="#DejaVuSans-39" x="200"/>
     <use xlink:href="#DejaVuSans-5d" x="263.623047"/>
    </g>
   </g>
   <g id="text_10">
    <!-- L [41] -->
    <g transform="translate(7.2 142.203224) scale(0.1 -0.1)">
     <defs>
      <path id="DejaVuSans-4c" d="M 628 4666 
L 1259 4666 
L 1259 531 
L 3531 531 
L 3531 0 
L 628 0 
L 628 4666 
z
" transform="scale(0.015625)"/>
     </defs>
     <use xlink:href="#DejaVuSans-4c"/>
     <use xlink:href="#DejaVuSans-20" x="55.712891"/>
     <use xlink:href="#DejaVuSans-5b" x="87.5"/>
     <use xlink:href="#DejaVuSans-34" x="126.513672"/>
     <use xlink:href="#DejaVuSans-31" x="190.136719"/>
     <use xlink:href="#DejaVuSans-5d" x="253.759766"/>
    </g>
   </g>
   <g id="text_11">
    <!-- M [15] -->
    <g transform="translate(16.738974 215.208995) scale(0.1 -0.1)">
     <defs>
      <path id="DejaVuSans-4d" d="M 628 4666 
L 1569 4666 
L 2759 1491 
L 3956 4666 
L 4897 4666 
L 4897 0 
L 4281 0 
L 4281 4097 
L 3078 897 
L 2444 897 
L 1241 4097 
L 1241 0 
L 628 0 
L 628 4666 
z
" transform="scale(0.015625)"/>
      <path id="DejaVuSans-35" d="M 691 4666 
L 3169 4666 
L 3169 4134 
L 1269 4134 
L 1269 2991 
Q 1406 3038 1543 3061 
Q 1681 3084 1819 3084 
Q 2600 3084 3056 2656 
Q 3513 2228 3513 1497 
Q 3513 744 3044 326 
Q 2575 -91 1722 -91 
Q 1428 -91 1123 -41 
Q 819 9 494 109 
L 494 744 
Q 775 591 1075 516 
Q 1375 441 1709 441 
Q 2250 441 2565 725 
Q 2881 1009 2881 1497 
Q 2881 1984 2565 2268 
Q 2250 2553 1709 2553 
Q 1456 2553 1204 2497 
Q 953 2441 691 2322 
L 691 4666 
z
" transform="scale(0.015625)"/>
     </defs>
     <use xlink:href="#DejaVuSans-4d"/>
     <use xlink:href="#DejaVuSans-20" x="86.279297"/>
     <use xlink:href="#DejaVuSans-5b" x="118.066406"/>
     <use xlink:href="#DejaVuSans-31" x="157.080078"/>
     <use xlink:href="#DejaVuSans-35" x="220.703125"/>
     <use xlink:href="#DejaVuSans-5d" x="284.326172"/>
    </g>
   </g>
   <g id="text_12">
    <!-- N [13] -->
    <g transform="translate(38.036169 246.682789) scale(0.1 -0.1)">
     <defs>
      <path id="DejaVuSans-4e" d="M 628 4666 
L 1478 4666 
L 3547 763 
L 3547 4666 
L 4159 4666 
L 4159 0 
L 3309 0 
L 1241 3903 
L 1241 0 
L 628 0 
L 628 4666 
z
" transform="scale(0.015625)"/>
     </defs>
     <use xlink:href="#DejaVuSans-4e"/>
     <use xlink:href="#DejaVuSans-20" x="74.804688"/>
     <use xlink:href="#DejaVuSans-5b" x="106.591797"/>
     <use xlink:href="#DejaVuSans-31" x="145.605469"/>
     <use xlink:href="#DejaVuSans-33" x="209.228516"/>
     <use xlink:href="#DejaVuSans-5d" x="272.851562"/>
    </g>
   </g>
   <g id="text_13">
    <!-- P [16] -->
    <g transform="translate(68.303218 272.513046) scale(0.1 -0.1)">
     <defs>
      <path id="DejaVuSans-50" d="M 1259 4147 
L 1259 2394 
L 2053 2394 
Q 2494 2394 2734 2622 
Q 2975 2850 2975 3272 
Q 2975 3691 2734 3919 
Q 2494 4147 2053 4147 
L 1259 4147 
z
M 628 4666 
L 2053 4666 
Q 2838 4666 3239 4311 
Q 3641 3956 3641 3272 
Q 3641 2581 3239 2228 
Q 2838 1875 2053 1875 
L 1259 1875 
L 1259 0 
L 628 0 
L 628 4666 
z
" transform="scale(0.015625)"/>
     </defs>
     <use xlink:href="#DejaVuSans-50"/>
     <use xlink:href="#DejaVuSans-20" x="60.302734"/>
     <use xlink:href="#DejaVuSans-5b" x="92.089844"/>
     <use xlink:href="#DejaVuSans-31" x="131.103516"/>
     <use xlink:href="#DejaVuSans-36" x="194.726562"/>
     <use xlink:href="#DejaVuSans-5d" x="258.349609"/>
    </g>
   </g>
   <g id="text_14">
    <!-- Q [7] -->
    <g transform="translate(100.020957 286.812692) scale(0.1 -0.1)">
     <defs>
      <path id="DejaVuSans-51" d="M 2522 4238 
Q 1834 4238 1429 3725 
Q 1025 3213 1025 2328 
Q 1025 1447 1429 934 
Q 1834 422 2522 422 
Q 3209 422 3611 934 
Q 4013 1447 4013 2328 
Q 4013 3213 3611 3725 
Q 3209 4238 2522 4238 
z
M 3406 84 
L 4238 -825 
L 3475 -825 
L 2784 -78 
Q 2681 -84 2626 -87 
Q 2572 -91 2522 -91 
Q 1538 -91 948 567 
Q 359 1225 359 2328 
Q 359 3434 948 4092 
Q 1538 4750 2522 4750 
Q 3503 4750 4090 4092 
Q 4678 3434 4678 2328 
Q 4678 1516 4351 937 
Q 4025 359 3406 84 
z
" transform="scale(0.015625)"/>
      <path id="DejaVuSans-37" d="M 525 4666 
L 3525 4666 
L 3525 4397 
L 1831 0 
L 1172 0 
L 2766 4134 
L 525 4134 
L 525 4666 
z
" transform="scale(0.015625)"/>
     </defs>
     <use xlink:href="#DejaVuSans-51"/>
     <use xlink:href="#DejaVuSans-20" x="78.710938"/>
     <use xlink:href="#DejaVuSans-5b" x="110.498047"/>
     <use xlink:href="#DejaVuSans-37" x="149.511719"/>
     <use xlink:href="#DejaVuSans-5d" x="213.134766"/>
    </g>
   </g>
   <g id="text_15">
    <!-- R [12] -->
    <g transform="translate(118.958816 293.94756) scale(0.1 -0.1)">
     <defs>
      <path id="DejaVuSans-52" d="M 2841 2188 
Q 3044 2119 3236 1894 
Q 3428 1669 3622 1275 
L 4263 0 
L 3584 0 
L 2988 1197 
Q 2756 1666 2539 1819 
Q 2322 1972 1947 1972 
L 1259 1972 
L 1259 0 
L 628 0 
L 628 4666 
L 2053 4666 
Q 2853 4666 3247 4331 
Q 3641 3997 3641 3322 
Q 3641 2881 3436 2590 
Q 3231 2300 2841 2188 
z
M 1259 4147 
L 1259 2491 
L 2053 2491 
Q 2509 2491 2742 2702 
Q 2975 2913 2975 3322 
Q 2975 3731 2742 3939 
Q 2509 4147 2053 4147 
L 1259 4147 
z
" transform="scale(0.015625)"/>
     </defs>
     <use xlink:href="#DejaVuSans-52"/>
     <use xlink:href="#DejaVuSans-20" x="69.482422"/>
     <use xlink:href="#DejaVuSans-5b" x="101.269531"/>
     <use xlink:href="#DejaVuSans-31" x="140.283203"/>
     <use xlink:href="#DejaVuSans-32" x="203.90625"/>
     <use xlink:href="#DejaVuSans-5d" x="267.529297"/>
    </g>
   </g>
   <g id="text_16">
    <!-- S [23] -->
    <g transform="translate(196.231697 295.275308) scale(0.1 -0.1)">
     <defs>
      <path id="DejaVuSans-53" d="M 3425 4513 
L 3425 3897 
Q 3066 4069 2747 4153 
Q 2428 4238 2131 4238 
Q 1616 4238 1336 4038 
Q 1056 3838 1056 3469 
Q 1056 3159 1242 3001 
Q 1428 2844 1947 2747 
L 2328 2669 
Q 3034 2534 3370 2195 
Q 3706 1856 3706 1288 
Q 3706 609 3251 259 
Q 2797 -91 1919 -91 
Q 1588 -91 1214 -16 
Q 841 59 441 206 
L 441 856 
Q 825 641 1194 531 
Q 1563 422 1919 422 
Q 2459 422 2753 634 
Q 3047 847 3047 1241 
Q 3047 1584 2836 1778 
Q 2625 1972 2144 2069 
L 1759 2144 
Q 1053 2284 737 2584 
Q 422 2884 422 3419 
Q 422 4038 858 4394 
Q 1294 4750 2059 4750 
Q 2388 4750 2728 4690 
Q 3069 4631 3425 4513 
z
" transform="scale(0.015625)"/>
     </defs>
     <use xlink:href="#DejaVuSans-53"/>
     <use xlink:href="#DejaVuSans-20" x="63.476562"/>
     <use xlink:href="#DejaVuSans-5b" x="95.263672"/>
     <use xlink:href="#DejaVuSans-32" x="134.277344"/>
     <use xlink:href="#DejaVuSans-33" x="197.900391"/>
     <use xlink:href="#DejaVuSans-5d" x="261.523438"/>
    </g>
   </g>
   <g id="text_17">
    <!-- T [22] -->
    <g transform="translate(252.364927 274.7103) scale(0.1 -0.1)">
     <defs>
      <path id="DejaVuSans-54" d="M -19 4666 
L 3928 4666 
L 3928 4134 
L 2272 4134 
L 2272 0 
L 1638 0 
L 1638 4134 
L -19 4134 
L -19 4666 
z
" transform="scale(0.015625)"/>
     </defs>
     <use xlink:href="#DejaVuSans-54"/>
     <use xlink:href="#DejaVuSans-20" x="61.083984"/>
     <use xlink:href="#DejaVuSans-5b" x="92.871094"/>
     <use xlink:href="#DejaVuSans-32" x="131.884766"/>
     <use xlink:href="#DejaVuSans-32" x="195.507812"/>
     <use xlink:href="#DejaVuSans-5d" x="259.130859"/>
    </g>
   </g>
   <g id="text_18">
    <!-- V [21] -->
    <g transform="translate(293.450784 234.967105) scale(0.1 -0.1)">
     <defs>
      <path id="DejaVuSans-56" d="M 1831 0 
L 50 4666 
L 709 4666 
L 2188 738 
L 3669 4666 
L 4325 4666 
L 2547 0 
L 1831 0 
z
" transform="scale(0.015625)"/>
     </defs>
     <use xlink:href="#DejaVuSans-56"/>
     <use xlink:href="#DejaVuSans-20" x="68.408203"/>
     <use xlink:href="#DejaVuSans-5b" x="100.195312"/>
     <use xlink:href="#DejaVuSans-32" x="139.208984"/>
     <use xlink:href="#DejaVuSans-31" x="202.832031"/>
     <use xlink:href="#DejaVuSans-5d" x="266.455078"/>
    </g>
   </g>
   <g id="text_19">
    <!-- W [5] -->
    <g transform="translate(309.314308 204.08721) scale(0.1 -0.1)">
     <defs>
      <path id="DejaVuSans-57" d="M 213 4666 
L 850 4666 
L 1831 722 
L 2809 4666 
L 3519 4666 
L 4500 722 
L 5478 4666 
L 6119 4666 
L 4947 0 
L 4153 0 
L 3169 4050 
L 2175 0 
L 1381 0 
L 213 4666 
z
" transform="scale(0.015625)"/>
     </defs>
     <use xlink:href="#DejaVuSans-57"/>
     <use xlink:href="#DejaVuSans-20" x="98.876953"/>
     <use xlink:href="#DejaVuSans-5b" x="130.664062"/>
     <use xlink:href="#DejaVuSans-35" x="169.677734"/>
     <use xlink:href="#DejaVuSans-5d" x="233.300781"/>
    </g>
   </g>
   <g id="text_20">
    <!-- Y [16] -->
    <g transform="translate(316.298906 176.905416) scale(0.1 -0.1)">
     <defs>
      <path id="DejaVuSans-59" d="M -13 4666 
L 666 4666 
L 1959 2747 
L 3244 4666 
L 3922 4666 
L 2272 2222 
L 2272 0 
L 1638 0 
L 1638 2222 
L -13 4666 
z
" transform="scale(0.015625)"/>
     </defs>
     <use xlink:href="#DejaVuSans-59"/>
     <use xlink:href="#DejaVuSans-20" x="61.083984"/>
     <use xlink:href="#DejaVuSans-5b" x="92.871094"/>
     <use xlink:href="#DejaVuSans-31" x="131.884766"/>
     <use xlink:href="#DejaVuSans-36" x="195.507812"/>
     <use xlink:href="#DejaVuSans-5d" x="259.130859"/>
    </g>
   </g>
   <g id="text_21">
    <!-- G1MP70 [331] -->
    <g transform="translate(133.945198 152.810109) scale(0.12 -0.12)">
     <use xlink:href="#DejaVuSans-47"/>
     <use xlink:href="#DejaVuSans-31" x="77.490234"/>
     <use xlink:href="#DejaVuSans-4d" x="141.113281"/>
     <use xlink:href="#DejaVuSans-50" x="227.392578"/>
     <use xlink:href="#DejaVuSans-37" x="287.695312"/>
     <use xlink:href="#DejaVuSans-30" x="351.318359"/>
     <use xlink:href="#DejaVuSans-20" x="414.941406"/>
     <use xlink:href="#DejaVuSans-5b" x="446.728516"/>
     <use xlink:href="#DejaVuSans-33" x="485.742188"/>
     <use xlink:href="#DejaVuSans-33" x="549.365234"/>
     <use xlink:href="#DejaVuSans-31" x="612.988281"/>
     <use xlink:href="#DejaVuSans-5d" x="676.611328"/>
    </g>
   </g>
  </g>
 </g>
</svg>
