<?xml version="1.0" encoding="utf-8" standalone="no"?>
<!DOCTYPE svg PUBLIC "-//W3C//DTD SVG 1.1//EN"
  "http://www.w3.org/Graphics/SVG/1.1/DTD/svg11.dtd">
<svg xmlns:xlink="http://www.w3.org/1999/xlink" width="353.249989pt" height="304.464884pt" viewBox="0 0 353.249989 304.464884" xmlns="http://www.w3.org/2000/svg" version="1.1">
 <metadata>
  <rdf:RDF xmlns:dc="http://purl.org/dc/elements/1.1/" xmlns:cc="http://creativecommons.org/ns#" xmlns:rdf="http://www.w3.org/1999/02/22-rdf-syntax-ns#">
   <cc:Work>
    <dc:type rdf:resource="http://purl.org/dc/dcmitype/StillImage"/>
    <dc:date>2024-09-27T16:07:14.399395</dc:date>
    <dc:format>image/svg+xml</dc:format>
    <dc:creator>
     <cc:Agent>
      <dc:title>Matplotlib v3.8.3, https://matplotlib.org/</dc:title>
     </cc:Agent>
    </dc:creator>
   </cc:Work>
  </rdf:RDF>
 </metadata>
 <defs>
  <style type="text/css">*{stroke-linejoin: round; stroke-linecap: butt}</style>
 </defs>
 <g id="figure_1">
  <g id="patch_1">
   <path d="M 0 304.464884 
L 353.249989 304.464884 
L 353.249989 0 
L 0 0 
z
" style="fill: #ffffff"/>
  </g>
  <g id="axes_1">
   <g id="patch_2">
    <path d="M 304.501255 152.103292 
C 304.501255 135.431749 301.237353 118.920339 294.894105 103.502701 
C 288.550857 88.085062 279.250121 74.057375 267.517807 62.212834 
L 176.767495 152.103292 
z
" style="fill: #1f77b4"/>
   </g>
   <g id="patch_3">
    <path d="M 267.354611 61.99698 
C 263.645156 58.252042 259.707445 54.740306 255.564071 51.48192 
C 251.420697 48.223535 247.079601 45.224745 242.565689 42.502756 
L 176.6043 151.887438 
z
" style="fill: #ff7f0e"/>
   </g>
   <g id="patch_4">
    <path d="M 242.480569 42.448053 
C 240.050552 40.982699 237.572379 39.598726 235.050176 38.298441 
C 232.527974 36.998155 229.963142 35.782277 227.359951 34.652833 
L 176.51918 151.832735 
z
" style="fill: #aec7e8"/>
   </g>
   <g id="patch_5">
    <path d="M 227.313879 34.631792 
C 226.19831 34.147781 225.075886 33.679725 223.946951 33.227768 
C 222.818015 32.77581 221.682684 32.339997 220.541302 31.920462 
L 176.473108 151.811695 
z
" style="fill: #ffbb78"/>
   </g>
   <g id="patch_6">
    <path d="M 220.468971 31.89734 
C 215.902283 30.218771 211.243417 28.802492 206.515153 27.655427 
C 201.786889 26.508363 196.996947 25.632386 192.168747 25.03178 
L 176.400777 151.788573 
z
" style="fill: #98df8a"/>
   </g>
   <g id="patch_7">
    <path d="M 191.987638 25.019693 
C 182.323377 23.817503 172.553254 23.724488 162.867856 24.742465 
C 153.182458 25.760441 143.645175 27.882745 134.44205 31.067977 
L 176.219668 151.776486 
z
" style="fill: #2ca02c"/>
   </g>
   <g id="patch_8">
    <path d="M 134.29518 31.105092 
C 131.996739 31.90059 129.721488 32.761573 127.47221 33.686989 
C 125.222932 34.612405 123.000544 35.601876 120.807765 36.654191 
L 176.072798 151.8136 
z
" style="fill: #d62728"/>
   </g>
   <g id="patch_9">
    <path d="M 120.718276 36.701409 
C 115.600247 39.157553 110.651643 41.952158 105.905389 45.066631 
C 101.159135 48.181104 96.625781 51.608522 92.335488 55.326082 
L 175.983309 151.860819 
z
" style="fill: #9467bd"/>
   </g>
   <g id="patch_10">
    <path d="M 92.263886 55.38239 
C 91.038504 56.44419 89.833451 57.529224 88.649381 58.636905 
C 87.465311 59.744586 86.302439 60.874711 85.161398 62.026667 
L 175.911708 151.917127 
z
" style="fill: #ff9896"/>
   </g>
   <g id="patch_11">
    <path d="M 85.020404 62.246057 
C 71.269038 76.128963 60.884986 92.984019 54.669962 111.50991 
C 48.454938 130.035801 46.573112 149.743163 49.169773 169.110469 
L 175.770714 152.136517 
z
" style="fill: #c5b0d5"/>
   </g>
   <g id="patch_12">
    <path d="M 49.158356 169.410141 
C 49.804898 174.232404 50.726434 179.01379 51.918459 183.73092 
C 53.110483 188.44805 54.57105 193.093222 56.293017 197.643724 
L 175.759297 152.436189 
z
" style="fill: #c49c94"/>
   </g>
   <g id="patch_13">
    <path d="M 56.329189 197.7436 
C 57.620511 201.156071 59.057452 204.511647 60.636059 207.801095 
C 62.214666 211.090543 63.933489 214.310843 65.7878 217.453135 
L 175.79547 152.536065 
z
" style="fill: #8c564b"/>
   </g>
   <g id="patch_14">
    <path d="M 65.862103 217.567552 
C 69.572424 223.855017 73.814963 229.812829 78.543094 235.375515 
C 83.271226 240.938201 88.467567 246.085307 94.075011 250.760269 
L 175.869773 152.650482 
z
" style="fill: #e377c2"/>
   </g>
   <g id="patch_15">
    <path d="M 94.167705 250.84616 
C 96.347247 252.663258 98.586735 254.407223 100.882441 256.075151 
C 103.178147 257.743079 105.528796 259.334044 107.930474 260.845398 
L 175.962467 152.736373 
z
" style="fill: #7f7f7f"/>
   </g>
   <g id="patch_16">
    <path d="M 108.008479 260.892437 
C 111.783058 263.267744 115.679448 265.44374 119.681636 267.411484 
C 123.683825 269.379228 127.786323 271.13602 131.972273 272.674642 
L 176.040472 152.783411 
z
" style="fill: #f7b6d2"/>
   </g>
   <g id="patch_17">
    <path d="M 132.146432 272.72578 
C 141.668992 276.22597 151.574742 278.57921 161.654076 279.735706 
C 171.73341 280.892202 181.91473 280.843739 191.982597 279.591343 
L 176.214632 152.834549 
z
" style="fill: #c7c7c7"/>
   </g>
   <g id="patch_18">
    <path d="M 192.212544 279.567174 
C 200.666624 278.515525 208.994328 276.620739 217.071177 273.911136 
C 225.148026 271.201534 232.933576 267.690684 240.311454 263.431064 
L 176.444578 152.810381 
z
" style="fill: #dbdb8d"/>
   </g>
   <g id="patch_19">
    <path d="M 240.544405 263.27501 
C 252.858994 256.165179 263.900362 247.048657 273.212261 236.302153 
C 282.524161 225.555649 289.97654 213.329251 295.261455 200.128172 
L 176.677529 152.654327 
z
" style="fill: #bcbd22"/>
   </g>
   <g id="patch_20">
    <path d="M 295.365402 199.944106 
C 296.420049 197.309724 297.386618 194.640929 298.2635 191.942165 
C 299.140382 189.243401 299.927089 186.516166 300.622312 183.765 
L 176.781476 152.470261 
z
" style="fill: #17becf"/>
   </g>
   <g id="patch_21">
    <path d="M 300.64429 183.666234 
C 301.935711 178.555769 302.909559 173.370262 303.560247 168.139466 
C 304.210934 162.90867 304.537214 157.642608 304.537214 152.371496 
L 176.803454 152.371494 
z
" style="fill: #9edae5"/>
   </g>
   <g id="patch_22">
    <path d="M 250.786661 152.305794 
C 250.786661 142.580727 248.882718 132.949072 245.18249 123.955449 
C 241.482262 114.961827 236.056833 106.779009 229.212983 99.869694 
L 176.275301 152.305794 
z
" style="fill: #ffffff"/>
   </g>
   <g id="patch_23">
    <path d="M 229.212983 99.869694 
C 227.049134 97.685147 224.752135 95.636634 222.335167 93.735909 
C 219.918199 91.835184 217.385893 90.08589 214.752778 88.498063 
L 176.275301 152.305794 
z
" style="fill: #ffffff"/>
   </g>
   <g id="patch_24">
    <path d="M 214.752778 88.498063 
C 213.335268 87.643273 211.889667 86.835956 210.418382 86.077456 
C 208.947097 85.318956 207.450945 84.609694 205.932417 83.950851 
L 176.275301 152.305794 
z
" style="fill: #ffffff"/>
   </g>
   <g id="patch_25">
    <path d="M 205.932417 83.950851 
C 205.281669 83.668512 204.626921 83.395479 203.968376 83.131837 
C 203.30983 82.868195 202.647553 82.613971 201.981747 82.369242 
L 176.275301 152.305794 
z
" style="fill: #ffffff"/>
   </g>
   <g id="patch_26">
    <path d="M 201.981747 82.369242 
C 199.317846 81.390077 196.600174 80.563914 193.84202 79.894793 
C 191.083866 79.225672 188.289733 78.714685 185.473283 78.364332 
L 176.275301 152.305794 
z
" style="fill: #ffffff"/>
   </g>
   <g id="patch_27">
    <path d="M 185.473283 78.364332 
C 179.835798 77.663054 174.136559 77.608796 168.486744 78.202615 
C 162.836928 78.796435 157.273513 80.034445 151.905023 81.892498 
L 176.275301 152.305794 
z
" style="fill: #ffffff"/>
   </g>
   <g id="patch_28">
    <path d="M 151.905023 81.892498 
C 150.564266 82.356538 149.237036 82.858779 147.924958 83.398605 
C 146.612879 83.93843 145.316486 84.515622 144.037365 85.129472 
L 176.275301 152.305794 
z
" style="fill: #ffffff"/>
   </g>
   <g id="patch_29">
    <path d="M 144.037365 85.129472 
C 141.051847 86.562223 138.165162 88.192409 135.396514 90.009185 
C 132.627866 91.825961 129.983409 93.825288 127.480738 95.993865 
L 176.275301 152.305794 
z
" style="fill: #ffffff"/>
   </g>
   <g id="patch_30">
    <path d="M 127.480738 95.993865 
C 126.765932 96.613248 126.062984 97.246185 125.372277 97.892332 
C 124.681569 98.538479 124.003227 99.197719 123.33762 99.869693 
L 176.275301 152.305794 
z
" style="fill: #ffffff"/>
   </g>
   <g id="patch_31">
    <path d="M 123.33762 99.869693 
C 115.315989 107.968055 109.258626 117.80017 105.633195 128.60694 
C 102.007764 139.41371 100.910033 150.909672 102.424752 162.207266 
L 176.275301 152.305794 
z
" style="fill: #ffffff"/>
   </g>
   <g id="patch_32">
    <path d="M 102.424752 162.207266 
C 102.801901 165.020253 103.339464 167.809395 104.034812 170.561054 
C 104.730159 173.312713 105.582156 176.022397 106.586637 178.676856 
L 176.275301 152.305794 
z
" style="fill: #ffffff"/>
   </g>
   <g id="patch_33">
    <path d="M 106.586637 178.676856 
C 107.339908 180.667464 108.178124 182.624883 109.098978 184.543728 
C 110.019832 186.462573 111.022479 188.341081 112.10416 190.174085 
L 176.275301 152.305794 
z
" style="fill: #ffffff"/>
   </g>
   <g id="patch_34">
    <path d="M 112.10416 190.174085 
C 114.268514 193.841773 116.743328 197.317164 119.501405 200.562064 
C 122.259482 203.806964 125.290681 206.809442 128.56169 209.536504 
L 176.275301 152.305794 
z
" style="fill: #ffffff"/>
   </g>
   <g id="patch_35">
    <path d="M 128.56169 209.536504 
C 129.833089 210.596478 131.139457 211.61379 132.478619 212.586748 
C 133.817781 213.559706 135.188992 214.487769 136.589971 215.369392 
L 176.275301 152.305794 
z
" style="fill: #ffffff"/>
   </g>
   <g id="patch_36">
    <path d="M 136.589971 215.369392 
C 138.791809 216.754988 141.064703 218.024319 143.399313 219.17217 
C 145.733923 220.320021 148.127047 221.344816 150.568851 222.242346 
L 176.275301 152.305794 
z
" style="fill: #ffffff"/>
   </g>
   <g id="patch_37">
    <path d="M 150.568851 222.242346 
C 156.123677 224.284123 161.902031 225.656846 167.781643 226.331469 
C 173.661255 227.006092 179.600358 226.977822 185.473281 226.247257 
L 176.275301 152.305794 
z
" style="fill: #ffffff"/>
   </g>
   <g id="patch_38">
    <path d="M 185.473281 226.247257 
C 190.404828 225.633795 195.262655 224.528503 199.97415 222.947902 
C 204.685645 221.3673 209.227216 219.319304 213.530978 216.834526 
L 176.275301 152.305794 
z
" style="fill: #ffffff"/>
   </g>
   <g id="patch_39">
    <path d="M 213.530978 216.834526 
C 220.714489 212.687125 227.155287 207.369154 232.587228 201.10036 
C 238.019169 194.831566 242.36639 187.6995 245.449258 179.998871 
L 176.275301 152.305794 
z
" style="fill: #ffffff"/>
   </g>
   <g id="patch_40">
    <path d="M 245.449258 179.998871 
C 246.064469 178.462148 246.628301 176.905351 247.139815 175.331072 
C 247.651329 173.756793 248.110242 172.165906 248.515789 170.561059 
L 176.275301 152.305794 
z
" style="fill: #ffffff"/>
   </g>
   <g id="patch_41">
    <path d="M 248.515789 170.561059 
C 249.269118 167.579954 249.837196 164.555075 250.216763 161.503778 
C 250.596331 158.45248 250.786661 155.380611 250.786661 152.305796 
L 176.275301 152.305794 
z
" style="fill: #ffffff"/>
   </g>
   <g id="matplotlib.axis_1"/>
   <g id="matplotlib.axis_2"/>
   <g id="text_1">
    <!-- A [41] -->
    <g transform="translate(306.706766 101.402017) scale(0.1 -0.1)">
     <defs>
      <path id="DejaVuSans-41" d="M 2188 4044 
L 1331 1722 
L 3047 1722 
L 2188 4044 
z
M 1831 4666 
L 2547 4666 
L 4325 0 
L 3669 0 
L 3244 1197 
L 1141 1197 
L 716 0 
L 50 0 
L 1831 4666 
z
" transform="scale(0.015625)"/>
      <path id="DejaVuSans-20" transform="scale(0.015625)"/>
      <path id="DejaVuSans-5b" d="M 550 4863 
L 1875 4863 
L 1875 4416 
L 1125 4416 
L 1125 -397 
L 1875 -397 
L 1875 -844 
L 550 -844 
L 550 4863 
z
" transform="scale(0.015625)"/>
      <path id="DejaVuSans-34" d="M 2419 4116 
L 825 1625 
L 2419 1625 
L 2419 4116 
z
M 2253 4666 
L 3047 4666 
L 3047 1625 
L 3713 1625 
L 3713 1100 
L 3047 1100 
L 3047 0 
L 2419 0 
L 2419 1100 
L 313 1100 
L 313 1709 
L 2253 4666 
z
" transform="scale(0.015625)"/>
      <path id="DejaVuSans-31" d="M 794 531 
L 1825 531 
L 1825 4091 
L 703 3866 
L 703 4441 
L 1819 4666 
L 2450 4666 
L 2450 531 
L 3481 531 
L 3481 0 
L 794 0 
L 794 531 
z
" transform="scale(0.015625)"/>
      <path id="DejaVuSans-5d" d="M 1947 4863 
L 1947 -844 
L 622 -844 
L 622 -397 
L 1369 -397 
L 1369 4416 
L 622 4416 
L 622 4863 
L 1947 4863 
z
" transform="scale(0.015625)"/>
     </defs>
     <use xlink:href="#DejaVuSans-41"/>
     <use xlink:href="#DejaVuSans-20" x="68.408203"/>
     <use xlink:href="#DejaVuSans-5b" x="100.195312"/>
     <use xlink:href="#DejaVuSans-34" x="139.208984"/>
     <use xlink:href="#DejaVuSans-31" x="202.832031"/>
     <use xlink:href="#DejaVuSans-5d" x="266.455078"/>
    </g>
   </g>
   <g id="text_2">
    <!-- C [13] -->
    <g transform="translate(263.460048 44.200744) scale(0.1 -0.1)">
     <defs>
      <path id="DejaVuSans-43" d="M 4122 4306 
L 4122 3641 
Q 3803 3938 3442 4084 
Q 3081 4231 2675 4231 
Q 1875 4231 1450 3742 
Q 1025 3253 1025 2328 
Q 1025 1406 1450 917 
Q 1875 428 2675 428 
Q 3081 428 3442 575 
Q 3803 722 4122 1019 
L 4122 359 
Q 3791 134 3420 21 
Q 3050 -91 2638 -91 
Q 1578 -91 968 557 
Q 359 1206 359 2328 
Q 359 3453 968 4101 
Q 1578 4750 2638 4750 
Q 3056 4750 3426 4639 
Q 3797 4528 4122 4306 
z
" transform="scale(0.015625)"/>
      <path id="DejaVuSans-33" d="M 2597 2516 
Q 3050 2419 3304 2112 
Q 3559 1806 3559 1356 
Q 3559 666 3084 287 
Q 2609 -91 1734 -91 
Q 1441 -91 1130 -33 
Q 819 25 488 141 
L 488 750 
Q 750 597 1062 519 
Q 1375 441 1716 441 
Q 2309 441 2620 675 
Q 2931 909 2931 1356 
Q 2931 1769 2642 2001 
Q 2353 2234 1838 2234 
L 1294 2234 
L 1294 2753 
L 1863 2753 
Q 2328 2753 2575 2939 
Q 2822 3125 2822 3475 
Q 2822 3834 2567 4026 
Q 2313 4219 1838 4219 
Q 1578 4219 1281 4162 
Q 984 4106 628 3988 
L 628 4550 
Q 988 4650 1302 4700 
Q 1616 4750 1894 4750 
Q 2613 4750 3031 4423 
Q 3450 4097 3450 3541 
Q 3450 3153 3228 2886 
Q 3006 2619 2597 2516 
z
" transform="scale(0.015625)"/>
     </defs>
     <use xlink:href="#DejaVuSans-43"/>
     <use xlink:href="#DejaVuSans-20" x="69.824219"/>
     <use xlink:href="#DejaVuSans-5b" x="101.611328"/>
     <use xlink:href="#DejaVuSans-31" x="140.625"/>
     <use xlink:href="#DejaVuSans-33" x="204.248047"/>
     <use xlink:href="#DejaVuSans-5d" x="267.871094"/>
    </g>
   </g>
   <g id="text_3">
    <!-- D [7] -->
    <g transform="translate(240.903276 29.704386) scale(0.1 -0.1)">
     <defs>
      <path id="DejaVuSans-44" d="M 1259 4147 
L 1259 519 
L 2022 519 
Q 2988 519 3436 956 
Q 3884 1394 3884 2338 
Q 3884 3275 3436 3711 
Q 2988 4147 2022 4147 
L 1259 4147 
z
M 628 4666 
L 1925 4666 
Q 3281 4666 3915 4102 
Q 4550 3538 4550 2338 
Q 4550 1131 3912 565 
Q 3275 0 1925 0 
L 628 0 
L 628 4666 
z
" transform="scale(0.015625)"/>
      <path id="DejaVuSans-37" d="M 525 4666 
L 3525 4666 
L 3525 4397 
L 1831 0 
L 1172 0 
L 2766 4134 
L 525 4134 
L 525 4666 
z
" transform="scale(0.015625)"/>
     </defs>
     <use xlink:href="#DejaVuSans-44"/>
     <use xlink:href="#DejaVuSans-20" x="77.001953"/>
     <use xlink:href="#DejaVuSans-5b" x="108.789062"/>
     <use xlink:href="#DejaVuSans-37" x="147.802734"/>
     <use xlink:href="#DejaVuSans-5d" x="211.425781"/>
    </g>
   </g>
   <g id="text_4">
    <!-- E [3] -->
    <g transform="translate(228.694335 24.12875) scale(0.1 -0.1)">
     <defs>
      <path id="DejaVuSans-45" d="M 628 4666 
L 3578 4666 
L 3578 4134 
L 1259 4134 
L 1259 2753 
L 3481 2753 
L 3481 2222 
L 1259 2222 
L 1259 531 
L 3634 531 
L 3634 0 
L 628 0 
L 628 4666 
z
" transform="scale(0.015625)"/>
     </defs>
     <use xlink:href="#DejaVuSans-45"/>
     <use xlink:href="#DejaVuSans-20" x="63.183594"/>
     <use xlink:href="#DejaVuSans-5b" x="94.970703"/>
     <use xlink:href="#DejaVuSans-33" x="133.984375"/>
     <use xlink:href="#DejaVuSans-5d" x="197.607422"/>
    </g>
   </g>
   <g id="text_5">
    <!-- F [12] -->
    <g transform="translate(209.52659 18.001488) scale(0.1 -0.1)">
     <defs>
      <path id="DejaVuSans-46" d="M 628 4666 
L 3309 4666 
L 3309 4134 
L 1259 4134 
L 1259 2759 
L 3109 2759 
L 3109 2228 
L 1259 2228 
L 1259 0 
L 628 0 
L 628 4666 
z
" transform="scale(0.015625)"/>
      <path id="DejaVuSans-32" d="M 1228 531 
L 3431 531 
L 3431 0 
L 469 0 
L 469 531 
Q 828 903 1448 1529 
Q 2069 2156 2228 2338 
Q 2531 2678 2651 2914 
Q 2772 3150 2772 3378 
Q 2772 3750 2511 3984 
Q 2250 4219 1831 4219 
Q 1534 4219 1204 4116 
Q 875 4013 500 3803 
L 500 4441 
Q 881 4594 1212 4672 
Q 1544 4750 1819 4750 
Q 2544 4750 2975 4387 
Q 3406 4025 3406 3419 
Q 3406 3131 3298 2873 
Q 3191 2616 2906 2266 
Q 2828 2175 2409 1742 
Q 1991 1309 1228 531 
z
" transform="scale(0.015625)"/>
     </defs>
     <use xlink:href="#DejaVuSans-46"/>
     <use xlink:href="#DejaVuSans-20" x="57.519531"/>
     <use xlink:href="#DejaVuSans-5b" x="89.306641"/>
     <use xlink:href="#DejaVuSans-31" x="128.320312"/>
     <use xlink:href="#DejaVuSans-32" x="191.943359"/>
     <use xlink:href="#DejaVuSans-5d" x="255.566406"/>
    </g>
   </g>
   <g id="text_6">
    <!-- G [24] -->
    <g transform="translate(130.077987 14.798437) scale(0.1 -0.1)">
     <defs>
      <path id="DejaVuSans-47" d="M 3809 666 
L 3809 1919 
L 2778 1919 
L 2778 2438 
L 4434 2438 
L 4434 434 
Q 4069 175 3628 42 
Q 3188 -91 2688 -91 
Q 1594 -91 976 548 
Q 359 1188 359 2328 
Q 359 3472 976 4111 
Q 1594 4750 2688 4750 
Q 3144 4750 3555 4637 
Q 3966 4525 4313 4306 
L 4313 3634 
Q 3963 3931 3569 4081 
Q 3175 4231 2741 4231 
Q 1884 4231 1454 3753 
Q 1025 3275 1025 2328 
Q 1025 1384 1454 906 
Q 1884 428 2741 428 
Q 3075 428 3337 486 
Q 3600 544 3809 666 
z
" transform="scale(0.015625)"/>
     </defs>
     <use xlink:href="#DejaVuSans-47"/>
     <use xlink:href="#DejaVuSans-20" x="77.490234"/>
     <use xlink:href="#DejaVuSans-5b" x="109.277344"/>
     <use xlink:href="#DejaVuSans-32" x="148.291016"/>
     <use xlink:href="#DejaVuSans-34" x="211.914062"/>
     <use xlink:href="#DejaVuSans-5d" x="275.537109"/>
    </g>
   </g>
   <g id="text_7">
    <!-- H [6] -->
    <g transform="translate(97.748089 24.633703) scale(0.1 -0.1)">
     <defs>
      <path id="DejaVuSans-48" d="M 628 4666 
L 1259 4666 
L 1259 2753 
L 3553 2753 
L 3553 4666 
L 4184 4666 
L 4184 0 
L 3553 0 
L 3553 2222 
L 1259 2222 
L 1259 0 
L 628 0 
L 628 4666 
z
" transform="scale(0.015625)"/>
      <path id="DejaVuSans-36" d="M 2113 2584 
Q 1688 2584 1439 2293 
Q 1191 2003 1191 1497 
Q 1191 994 1439 701 
Q 1688 409 2113 409 
Q 2538 409 2786 701 
Q 3034 994 3034 1497 
Q 3034 2003 2786 2293 
Q 2538 2584 2113 2584 
z
M 3366 4563 
L 3366 3988 
Q 3128 4100 2886 4159 
Q 2644 4219 2406 4219 
Q 1781 4219 1451 3797 
Q 1122 3375 1075 2522 
Q 1259 2794 1537 2939 
Q 1816 3084 2150 3084 
Q 2853 3084 3261 2657 
Q 3669 2231 3669 1497 
Q 3669 778 3244 343 
Q 2819 -91 2113 -91 
Q 1303 -91 875 529 
Q 447 1150 447 2328 
Q 447 3434 972 4092 
Q 1497 4750 2381 4750 
Q 2619 4750 2861 4703 
Q 3103 4656 3366 4563 
z
" transform="scale(0.015625)"/>
     </defs>
     <use xlink:href="#DejaVuSans-48"/>
     <use xlink:href="#DejaVuSans-20" x="75.195312"/>
     <use xlink:href="#DejaVuSans-5b" x="106.982422"/>
     <use xlink:href="#DejaVuSans-36" x="145.996094"/>
     <use xlink:href="#DejaVuSans-5d" x="209.619141"/>
    </g>
   </g>
   <g id="text_8">
    <!-- I [14] -->
    <g transform="translate(72.241347 37.146587) scale(0.1 -0.1)">
     <defs>
      <path id="DejaVuSans-49" d="M 628 4666 
L 1259 4666 
L 1259 0 
L 628 0 
L 628 4666 
z
" transform="scale(0.015625)"/>
     </defs>
     <use xlink:href="#DejaVuSans-49"/>
     <use xlink:href="#DejaVuSans-20" x="29.492188"/>
     <use xlink:href="#DejaVuSans-5b" x="61.279297"/>
     <use xlink:href="#DejaVuSans-31" x="100.292969"/>
     <use xlink:href="#DejaVuSans-34" x="163.916016"/>
     <use xlink:href="#DejaVuSans-5d" x="227.539062"/>
    </g>
   </g>
   <g id="text_9">
    <!-- K [4] -->
    <g transform="translate(56.021586 52.068258) scale(0.1 -0.1)">
     <defs>
      <path id="DejaVuSans-4b" d="M 628 4666 
L 1259 4666 
L 1259 2694 
L 3353 4666 
L 4166 4666 
L 1850 2491 
L 4331 0 
L 3500 0 
L 1259 2247 
L 1259 0 
L 628 0 
L 628 4666 
z
" transform="scale(0.015625)"/>
     </defs>
     <use xlink:href="#DejaVuSans-4b"/>
     <use xlink:href="#DejaVuSans-20" x="65.576172"/>
     <use xlink:href="#DejaVuSans-5b" x="97.363281"/>
     <use xlink:href="#DejaVuSans-34" x="136.376953"/>
     <use xlink:href="#DejaVuSans-5d" x="200"/>
    </g>
   </g>
   <g id="text_10">
    <!-- L [48] -->
    <g transform="translate(13.281762 110.206624) scale(0.1 -0.1)">
     <defs>
      <path id="DejaVuSans-4c" d="M 628 4666 
L 1259 4666 
L 1259 531 
L 3531 531 
L 3531 0 
L 628 0 
L 628 4666 
z
" transform="scale(0.015625)"/>
      <path id="DejaVuSans-38" d="M 2034 2216 
Q 1584 2216 1326 1975 
Q 1069 1734 1069 1313 
Q 1069 891 1326 650 
Q 1584 409 2034 409 
Q 2484 409 2743 651 
Q 3003 894 3003 1313 
Q 3003 1734 2745 1975 
Q 2488 2216 2034 2216 
z
M 1403 2484 
Q 997 2584 770 2862 
Q 544 3141 544 3541 
Q 544 4100 942 4425 
Q 1341 4750 2034 4750 
Q 2731 4750 3128 4425 
Q 3525 4100 3525 3541 
Q 3525 3141 3298 2862 
Q 3072 2584 2669 2484 
Q 3125 2378 3379 2068 
Q 3634 1759 3634 1313 
Q 3634 634 3220 271 
Q 2806 -91 2034 -91 
Q 1263 -91 848 271 
Q 434 634 434 1313 
Q 434 1759 690 2068 
Q 947 2378 1403 2484 
z
M 1172 3481 
Q 1172 3119 1398 2916 
Q 1625 2713 2034 2713 
Q 2441 2713 2670 2916 
Q 2900 3119 2900 3481 
Q 2900 3844 2670 4047 
Q 2441 4250 2034 4250 
Q 1625 4250 1398 4047 
Q 1172 3844 1172 3481 
z
" transform="scale(0.015625)"/>
     </defs>
     <use xlink:href="#DejaVuSans-4c"/>
     <use xlink:href="#DejaVuSans-20" x="55.712891"/>
     <use xlink:href="#DejaVuSans-5b" x="87.5"/>
     <use xlink:href="#DejaVuSans-34" x="126.513672"/>
     <use xlink:href="#DejaVuSans-38" x="190.136719"/>
     <use xlink:href="#DejaVuSans-5d" x="253.759766"/>
    </g>
   </g>
   <g id="text_11">
    <!-- M [12] -->
    <g transform="translate(7.2 189.619768) scale(0.1 -0.1)">
     <defs>
      <path id="DejaVuSans-4d" d="M 628 4666 
L 1569 4666 
L 2759 1491 
L 3956 4666 
L 4897 4666 
L 4897 0 
L 4281 0 
L 4281 4097 
L 3078 897 
L 2444 897 
L 1241 4097 
L 1241 0 
L 628 0 
L 628 4666 
z
" transform="scale(0.015625)"/>
     </defs>
     <use xlink:href="#DejaVuSans-4d"/>
     <use xlink:href="#DejaVuSans-20" x="86.279297"/>
     <use xlink:href="#DejaVuSans-5b" x="118.066406"/>
     <use xlink:href="#DejaVuSans-31" x="157.080078"/>
     <use xlink:href="#DejaVuSans-32" x="220.703125"/>
     <use xlink:href="#DejaVuSans-5d" x="284.326172"/>
    </g>
   </g>
   <g id="text_12">
    <!-- N [9] -->
    <g transform="translate(24.295118 216.086973) scale(0.1 -0.1)">
     <defs>
      <path id="DejaVuSans-4e" d="M 628 4666 
L 1478 4666 
L 3547 763 
L 3547 4666 
L 4159 4666 
L 4159 0 
L 3309 0 
L 1241 3903 
L 1241 0 
L 628 0 
L 628 4666 
z
" transform="scale(0.015625)"/>
      <path id="DejaVuSans-39" d="M 703 97 
L 703 672 
Q 941 559 1184 500 
Q 1428 441 1663 441 
Q 2288 441 2617 861 
Q 2947 1281 2994 2138 
Q 2813 1869 2534 1725 
Q 2256 1581 1919 1581 
Q 1219 1581 811 2004 
Q 403 2428 403 3163 
Q 403 3881 828 4315 
Q 1253 4750 1959 4750 
Q 2769 4750 3195 4129 
Q 3622 3509 3622 2328 
Q 3622 1225 3098 567 
Q 2575 -91 1691 -91 
Q 1453 -91 1209 -44 
Q 966 3 703 97 
z
M 1959 2075 
Q 2384 2075 2632 2365 
Q 2881 2656 2881 3163 
Q 2881 3666 2632 3958 
Q 2384 4250 1959 4250 
Q 1534 4250 1286 3958 
Q 1038 3666 1038 3163 
Q 1038 2656 1286 2365 
Q 1534 2075 1959 2075 
z
" transform="scale(0.015625)"/>
     </defs>
     <use xlink:href="#DejaVuSans-4e"/>
     <use xlink:href="#DejaVuSans-20" x="74.804688"/>
     <use xlink:href="#DejaVuSans-5b" x="106.591797"/>
     <use xlink:href="#DejaVuSans-39" x="145.605469"/>
     <use xlink:href="#DejaVuSans-5d" x="209.228516"/>
    </g>
   </g>
   <g id="text_13">
    <!-- P [18] -->
    <g transform="translate(39.074489 246.407393) scale(0.1 -0.1)">
     <defs>
      <path id="DejaVuSans-50" d="M 1259 4147 
L 1259 2394 
L 2053 2394 
Q 2494 2394 2734 2622 
Q 2975 2850 2975 3272 
Q 2975 3691 2734 3919 
Q 2494 4147 2053 4147 
L 1259 4147 
z
M 628 4666 
L 2053 4666 
Q 2838 4666 3239 4311 
Q 3641 3956 3641 3272 
Q 3641 2581 3239 2228 
Q 2838 1875 2053 1875 
L 1259 1875 
L 1259 0 
L 628 0 
L 628 4666 
z
" transform="scale(0.015625)"/>
     </defs>
     <use xlink:href="#DejaVuSans-50"/>
     <use xlink:href="#DejaVuSans-20" x="60.302734"/>
     <use xlink:href="#DejaVuSans-5b" x="92.089844"/>
     <use xlink:href="#DejaVuSans-31" x="131.103516"/>
     <use xlink:href="#DejaVuSans-38" x="194.726562"/>
     <use xlink:href="#DejaVuSans-5d" x="258.349609"/>
    </g>
   </g>
   <g id="text_14">
    <!-- Q [7] -->
    <g transform="translate(68.158814 269.168404) scale(0.1 -0.1)">
     <defs>
      <path id="DejaVuSans-51" d="M 2522 4238 
Q 1834 4238 1429 3725 
Q 1025 3213 1025 2328 
Q 1025 1447 1429 934 
Q 1834 422 2522 422 
Q 3209 422 3611 934 
Q 4013 1447 4013 2328 
Q 4013 3213 3611 3725 
Q 3209 4238 2522 4238 
z
M 3406 84 
L 4238 -825 
L 3475 -825 
L 2784 -78 
Q 2681 -84 2626 -87 
Q 2572 -91 2522 -91 
Q 1538 -91 948 567 
Q 359 1225 359 2328 
Q 359 3434 948 4092 
Q 1538 4750 2522 4750 
Q 3503 4750 4090 4092 
Q 4678 3434 4678 2328 
Q 4678 1516 4351 937 
Q 4025 359 3406 84 
z
" transform="scale(0.015625)"/>
     </defs>
     <use xlink:href="#DejaVuSans-51"/>
     <use xlink:href="#DejaVuSans-20" x="78.710938"/>
     <use xlink:href="#DejaVuSans-5b" x="110.498047"/>
     <use xlink:href="#DejaVuSans-37" x="149.511719"/>
     <use xlink:href="#DejaVuSans-5d" x="213.134766"/>
    </g>
   </g>
   <g id="text_15">
    <!-- R [11] -->
    <g transform="translate(83.391065 281.633666) scale(0.1 -0.1)">
     <defs>
      <path id="DejaVuSans-52" d="M 2841 2188 
Q 3044 2119 3236 1894 
Q 3428 1669 3622 1275 
L 4263 0 
L 3584 0 
L 2988 1197 
Q 2756 1666 2539 1819 
Q 2322 1972 1947 1972 
L 1259 1972 
L 1259 0 
L 628 0 
L 628 4666 
L 2053 4666 
Q 2853 4666 3247 4331 
Q 3641 3997 3641 3322 
Q 3641 2881 3436 2590 
Q 3231 2300 2841 2188 
z
M 1259 4147 
L 1259 2491 
L 2053 2491 
Q 2509 2491 2742 2702 
Q 2975 2913 2975 3322 
Q 2975 3731 2742 3939 
Q 2509 4147 2053 4147 
L 1259 4147 
z
" transform="scale(0.015625)"/>
     </defs>
     <use xlink:href="#DejaVuSans-52"/>
     <use xlink:href="#DejaVuSans-20" x="69.482422"/>
     <use xlink:href="#DejaVuSans-5b" x="101.269531"/>
     <use xlink:href="#DejaVuSans-31" x="140.283203"/>
     <use xlink:href="#DejaVuSans-31" x="203.90625"/>
     <use xlink:href="#DejaVuSans-5d" x="267.529297"/>
    </g>
   </g>
   <g id="text_16">
    <!-- S [25] -->
    <g transform="translate(130.143333 295.185197) scale(0.1 -0.1)">
     <defs>
      <path id="DejaVuSans-53" d="M 3425 4513 
L 3425 3897 
Q 3066 4069 2747 4153 
Q 2428 4238 2131 4238 
Q 1616 4238 1336 4038 
Q 1056 3838 1056 3469 
Q 1056 3159 1242 3001 
Q 1428 2844 1947 2747 
L 2328 2669 
Q 3034 2534 3370 2195 
Q 3706 1856 3706 1288 
Q 3706 609 3251 259 
Q 2797 -91 1919 -91 
Q 1588 -91 1214 -16 
Q 841 59 441 206 
L 441 856 
Q 825 641 1194 531 
Q 1563 422 1919 422 
Q 2459 422 2753 634 
Q 3047 847 3047 1241 
Q 3047 1584 2836 1778 
Q 2625 1972 2144 2069 
L 1759 2144 
Q 1053 2284 737 2584 
Q 422 2884 422 3419 
Q 422 4038 858 4394 
Q 1294 4750 2059 4750 
Q 2388 4750 2728 4690 
Q 3069 4631 3425 4513 
z
" transform="scale(0.015625)"/>
      <path id="DejaVuSans-35" d="M 691 4666 
L 3169 4666 
L 3169 4134 
L 1269 4134 
L 1269 2991 
Q 1406 3038 1543 3061 
Q 1681 3084 1819 3084 
Q 2600 3084 3056 2656 
Q 3513 2228 3513 1497 
Q 3513 744 3044 326 
Q 2575 -91 1722 -91 
Q 1428 -91 1123 -41 
Q 819 9 494 109 
L 494 744 
Q 775 591 1075 516 
Q 1375 441 1709 441 
Q 2250 441 2565 725 
Q 2881 1009 2881 1497 
Q 2881 1984 2565 2268 
Q 2250 2553 1709 2553 
Q 1456 2553 1204 2497 
Q 953 2441 691 2322 
L 691 4666 
z
" transform="scale(0.015625)"/>
     </defs>
     <use xlink:href="#DejaVuSans-53"/>
     <use xlink:href="#DejaVuSans-20" x="63.476562"/>
     <use xlink:href="#DejaVuSans-5b" x="95.263672"/>
     <use xlink:href="#DejaVuSans-32" x="134.277344"/>
     <use xlink:href="#DejaVuSans-35" x="197.900391"/>
     <use xlink:href="#DejaVuSans-5d" x="261.523438"/>
    </g>
   </g>
   <g id="text_17">
    <!-- T [21] -->
    <g transform="translate(221.133837 288.780587) scale(0.1 -0.1)">
     <defs>
      <path id="DejaVuSans-54" d="M -19 4666 
L 3928 4666 
L 3928 4134 
L 2272 4134 
L 2272 0 
L 1638 0 
L 1638 4134 
L -19 4134 
L -19 4666 
z
" transform="scale(0.015625)"/>
     </defs>
     <use xlink:href="#DejaVuSans-54"/>
     <use xlink:href="#DejaVuSans-20" x="61.083984"/>
     <use xlink:href="#DejaVuSans-5b" x="92.871094"/>
     <use xlink:href="#DejaVuSans-32" x="131.884766"/>
     <use xlink:href="#DejaVuSans-31" x="195.507812"/>
     <use xlink:href="#DejaVuSans-5d" x="259.130859"/>
    </g>
   </g>
   <g id="text_18">
    <!-- V [35] -->
    <g transform="translate(282.865735 247.426311) scale(0.1 -0.1)">
     <defs>
      <path id="DejaVuSans-56" d="M 1831 0 
L 50 4666 
L 709 4666 
L 2188 738 
L 3669 4666 
L 4325 4666 
L 2547 0 
L 1831 0 
z
" transform="scale(0.015625)"/>
     </defs>
     <use xlink:href="#DejaVuSans-56"/>
     <use xlink:href="#DejaVuSans-20" x="68.408203"/>
     <use xlink:href="#DejaVuSans-5b" x="100.195312"/>
     <use xlink:href="#DejaVuSans-33" x="139.208984"/>
     <use xlink:href="#DejaVuSans-35" x="202.832031"/>
     <use xlink:href="#DejaVuSans-5d" x="266.455078"/>
    </g>
   </g>
   <g id="text_19">
    <!-- W [7] -->
    <g transform="translate(310.411702 198.648731) scale(0.1 -0.1)">
     <defs>
      <path id="DejaVuSans-57" d="M 213 4666 
L 850 4666 
L 1831 722 
L 2809 4666 
L 3519 4666 
L 4500 722 
L 5478 4666 
L 6119 4666 
L 4947 0 
L 4153 0 
L 3169 4050 
L 2175 0 
L 1381 0 
L 213 4666 
z
" transform="scale(0.015625)"/>
     </defs>
     <use xlink:href="#DejaVuSans-57"/>
     <use xlink:href="#DejaVuSans-20" x="98.876953"/>
     <use xlink:href="#DejaVuSans-5b" x="130.664062"/>
     <use xlink:href="#DejaVuSans-37" x="169.677734"/>
     <use xlink:href="#DejaVuSans-5d" x="233.300781"/>
    </g>
   </g>
   <g id="text_20">
    <!-- Y [13] -->
    <g transform="translate(316.235926 172.475638) scale(0.1 -0.1)">
     <defs>
      <path id="DejaVuSans-59" d="M -13 4666 
L 666 4666 
L 1959 2747 
L 3244 4666 
L 3922 4666 
L 2272 2222 
L 2272 0 
L 1638 0 
L 1638 2222 
L -13 4666 
z
" transform="scale(0.015625)"/>
     </defs>
     <use xlink:href="#DejaVuSans-59"/>
     <use xlink:href="#DejaVuSans-20" x="61.083984"/>
     <use xlink:href="#DejaVuSans-5b" x="92.871094"/>
     <use xlink:href="#DejaVuSans-31" x="131.884766"/>
     <use xlink:href="#DejaVuSans-33" x="195.507812"/>
     <use xlink:href="#DejaVuSans-5d" x="259.130859"/>
    </g>
   </g>
   <g id="text_21">
    <!-- G3N0D0 [330] -->
    <g transform="translate(133.023738 152.305794) scale(0.12 -0.12)">
     <defs>
      <path id="DejaVuSans-30" d="M 2034 4250 
Q 1547 4250 1301 3770 
Q 1056 3291 1056 2328 
Q 1056 1369 1301 889 
Q 1547 409 2034 409 
Q 2525 409 2770 889 
Q 3016 1369 3016 2328 
Q 3016 3291 2770 3770 
Q 2525 4250 2034 4250 
z
M 2034 4750 
Q 2819 4750 3233 4129 
Q 3647 3509 3647 2328 
Q 3647 1150 3233 529 
Q 2819 -91 2034 -91 
Q 1250 -91 836 529 
Q 422 1150 422 2328 
Q 422 3509 836 4129 
Q 1250 4750 2034 4750 
z
" transform="scale(0.015625)"/>
     </defs>
     <use xlink:href="#DejaVuSans-47"/>
     <use xlink:href="#DejaVuSans-33" x="77.490234"/>
     <use xlink:href="#DejaVuSans-4e" x="141.113281"/>
     <use xlink:href="#DejaVuSans-30" x="215.917969"/>
     <use xlink:href="#DejaVuSans-44" x="279.541016"/>
     <use xlink:href="#DejaVuSans-30" x="356.542969"/>
     <use xlink:href="#DejaVuSans-20" x="420.166016"/>
     <use xlink:href="#DejaVuSans-5b" x="451.953125"/>
     <use xlink:href="#DejaVuSans-33" x="490.966797"/>
     <use xlink:href="#DejaVuSans-33" x="554.589844"/>
     <use xlink:href="#DejaVuSans-30" x="618.212891"/>
     <use xlink:href="#DejaVuSans-5d" x="681.835938"/>
    </g>
   </g>
  </g>
 </g>
</svg>
