<?xml version="1.0" encoding="utf-8" standalone="no"?>
<!DOCTYPE svg PUBLIC "-//W3C//DTD SVG 1.1//EN"
  "http://www.w3.org/Graphics/SVG/1.1/DTD/svg11.dtd">
<svg xmlns:xlink="http://www.w3.org/1999/xlink" width="355.275356pt" height="304.73155pt" viewBox="0 0 355.275356 304.73155" xmlns="http://www.w3.org/2000/svg" version="1.1">
 <metadata>
  <rdf:RDF xmlns:dc="http://purl.org/dc/elements/1.1/" xmlns:cc="http://creativecommons.org/ns#" xmlns:rdf="http://www.w3.org/1999/02/22-rdf-syntax-ns#">
   <cc:Work>
    <dc:type rdf:resource="http://purl.org/dc/dcmitype/StillImage"/>
    <dc:date>2024-09-27T16:07:16.939755</dc:date>
    <dc:format>image/svg+xml</dc:format>
    <dc:creator>
     <cc:Agent>
      <dc:title>Matplotlib v3.8.3, https://matplotlib.org/</dc:title>
     </cc:Agent>
    </dc:creator>
   </cc:Work>
  </rdf:RDF>
 </metadata>
 <defs>
  <style type="text/css">*{stroke-linejoin: round; stroke-linecap: butt}</style>
 </defs>
 <g id="figure_1">
  <g id="patch_1">
   <path d="M 0 304.73155 
L 355.275356 304.73155 
L 355.275356 0 
L 0 0 
z
" style="fill: #ffffff"/>
  </g>
  <g id="axes_1">
   <g id="patch_2">
    <path d="M 306.008782 151.587112 
C 306.008782 145.892973 305.62803 140.205201 304.869076 134.561869 
C 304.110121 128.918536 302.974661 123.332262 301.470296 117.840441 
L 178.275022 151.587112 
z
" style="fill: #1f77b4"/>
   </g>
   <g id="patch_3">
    <path d="M 301.441063 117.724251 
C 300.407015 113.949364 299.20001 110.223998 297.823871 106.559948 
C 296.447732 102.895897 294.903912 99.297033 293.197298 95.774747 
L 178.245788 151.470922 
z
" style="fill: #ff7f0e"/>
   </g>
   <g id="patch_4">
    <path d="M 293.16579 95.706099 
C 292.235025 93.78509 291.256251 91.887714 290.230392 90.01576 
C 289.204533 88.143805 288.131911 86.297861 287.013535 84.479665 
L 178.21428 151.402274 
z
" style="fill: #aec7e8"/>
   </g>
   <g id="patch_5">
    <path d="M 286.983057 84.430576 
C 285.678261 82.309307 284.311706 80.226651 282.885145 78.18528 
C 281.458584 76.143909 279.972627 74.144695 278.429179 72.190202 
L 178.183802 151.353184 
z
" style="fill: #ffbb78"/>
   </g>
   <g id="patch_6">
    <path d="M 278.333134 72.085777 
C 272.816208 65.099604 266.584058 58.709248 259.738351 53.018958 
C 252.892645 47.328669 245.470813 42.369559 237.593933 38.222531 
L 178.087757 151.24876 
z
" style="fill: #98df8a"/>
   </g>
   <g id="patch_7">
    <path d="M 237.436682 38.132033 
C 232.398178 35.479356 227.187931 33.166556 221.840816 31.209115 
C 216.493701 29.251673 211.021676 27.653967 205.46137 26.426691 
L 177.930506 151.158263 
z
" style="fill: #2ca02c"/>
   </g>
   <g id="patch_8">
    <path d="M 205.353753 26.399615 
C 202.226876 25.709448 199.075151 25.137105 195.905261 24.683801 
C 192.73537 24.230497 189.549554 23.896551 186.354566 23.682672 
L 177.82289 151.131187 
z
" style="fill: #d62728"/>
   </g>
   <g id="patch_9">
    <path d="M 186.130054 23.698643 
C 171.183723 22.698104 156.177238 24.334532 141.797847 28.532985 
C 127.418457 32.731438 113.889073 39.426829 101.829299 48.312533 
L 177.598378 151.147158 
z
" style="fill: #9467bd"/>
   </g>
   <g id="patch_10">
    <path d="M 101.586739 48.463132 
C 94.994367 53.320426 88.88432 58.800405 83.341002 64.82737 
C 77.797685 70.854335 72.846741 77.400403 68.556564 84.375147 
L 177.355818 151.297757 
z
" style="fill: #ff9896"/>
   </g>
   <g id="patch_11">
    <path d="M 68.431616 84.607739 
C 61.521626 95.841636 56.393045 108.078283 53.228493 120.881956 
C 50.063941 133.685628 48.90143 146.902527 49.782355 160.062025 
L 177.23087 151.530349 
z
" style="fill: #c5b0d5"/>
   </g>
   <g id="patch_12">
    <path d="M 49.777472 160.295738 
C 50.157799 165.977161 50.917602 171.626801 52.051794 177.206838 
C 53.185987 182.786876 54.692033 188.284835 56.559853 193.663912 
L 177.225987 151.764062 
z
" style="fill: #c49c94"/>
   </g>
   <g id="patch_13">
    <path d="M 56.614678 193.813677 
C 58.94994 200.53893 61.843362 207.057195 65.264702 213.300344 
C 68.686041 219.543493 72.623337 225.489699 77.035437 231.076813 
L 177.280813 151.913828 
z
" style="fill: #8c564b"/>
   </g>
   <g id="patch_14">
    <path d="M 77.101536 231.171398 
C 78.424466 232.846646 79.789182 234.488468 81.194398 236.095319 
C 82.599614 237.702169 84.044889 239.273542 85.52886 240.807957 
L 177.346911 152.008413 
z
" style="fill: #e377c2"/>
   </g>
   <g id="patch_15">
    <path d="M 85.582493 240.861143 
C 88.303443 243.674585 91.152269 246.36148 94.11995 248.913322 
C 97.087631 251.465163 100.171032 253.879255 103.360393 256.147956 
L 177.400544 152.0616 
z
" style="fill: #7f7f7f"/>
   </g>
   <g id="patch_16">
    <path d="M 103.459453 256.21535 
C 108.099434 259.515925 112.954927 262.502547 117.993431 265.155224 
C 123.031934 267.807901 128.242182 270.120701 133.589297 272.078142 
L 177.499604 152.128993 
z
" style="fill: #f7b6d2"/>
   </g>
   <g id="patch_17">
    <path d="M 133.841686 272.139405 
C 148.245231 277.412174 163.481447 280.047712 178.819236 279.919558 
C 194.157025 279.791403 209.347074 276.901637 223.660501 271.388924 
L 177.751993 152.190256 
z
" style="fill: #c7c7c7"/>
   </g>
   <g id="patch_18">
    <path d="M 223.927285 271.314645 
C 230.570749 268.755962 236.98869 265.646348 243.114029 262.018305 
C 249.239367 258.390261 255.050688 254.256471 260.487252 249.660142 
L 178.018777 152.115977 
z
" style="fill: #dbdb8d"/>
   </g>
   <g id="patch_19">
    <path d="M 260.647122 249.514329 
C 268.535183 242.845387 275.58526 235.244179 281.642749 226.877393 
C 287.700239 218.510607 292.720537 209.439853 296.59355 199.864048 
L 178.178647 151.970164 
z
" style="fill: #bcbd22"/>
   </g>
   <g id="patch_20">
    <path d="M 296.663749 199.730712 
C 297.33072 198.081665 297.96317 196.418866 298.560688 194.743403 
C 299.158205 193.067939 299.720658 191.380177 300.247679 189.68122 
L 178.248846 151.836828 
z
" style="fill: #17becf"/>
   </g>
   <g id="patch_21">
    <path d="M 300.272596 189.582186 
C 302.170697 183.463284 303.605768 177.210244 304.565653 170.876022 
C 305.525539 164.5418 306.007523 158.14433 306.007523 151.73779 
L 178.273763 151.737793 
z
" style="fill: #9edae5"/>
   </g>
   <g id="patch_22">
    <path d="M 252.258906 151.658051 
C 252.258906 148.33647 252.036801 145.018603 251.594078 141.726659 
C 251.151355 138.434715 250.489003 135.176055 249.611456 131.972493 
L 177.747546 151.658051 
z
" style="fill: #ffffff"/>
   </g>
   <g id="patch_23">
    <path d="M 249.611456 131.972493 
C 249.008262 129.770475 248.304176 127.597345 247.501428 125.459983 
C 246.69868 123.32262 245.798118 121.223282 244.802594 119.168616 
L 177.747546 151.658051 
z
" style="fill: #ffffff"/>
   </g>
   <g id="patch_24">
    <path d="M 244.802594 119.168616 
C 244.259647 118.048027 243.688696 116.941224 243.090278 115.849251 
C 242.491861 114.757278 241.866164 113.680476 241.213778 112.619862 
L 177.747546 151.658051 
z
" style="fill: #ffffff"/>
   </g>
   <g id="patch_25">
    <path d="M 241.213778 112.619862 
C 240.452647 111.382455 239.65549 110.167573 238.82333 108.976773 
C 237.991169 107.785973 237.124361 106.619765 236.224016 105.479644 
L 177.747546 151.658051 
z
" style="fill: #ffffff"/>
   </g>
   <g id="patch_26">
    <path d="M 236.224016 105.479644 
C 233.00581 101.404376 229.370388 97.676669 225.37706 94.357333 
C 221.383731 91.037998 217.054329 88.145184 212.459482 85.726084 
L 177.747546 151.658051 
z
" style="fill: #ffffff"/>
   </g>
   <g id="patch_27">
    <path d="M 212.459482 85.726084 
C 209.520355 84.178689 206.481044 82.829555 203.361894 81.687714 
C 200.242744 80.545873 197.050729 79.613878 193.807217 78.897967 
L 177.747546 151.658051 
z
" style="fill: #ffffff"/>
   </g>
   <g id="patch_28">
    <path d="M 193.807217 78.897967 
C 191.983205 78.49537 190.144699 78.161503 188.295596 77.897076 
C 186.446493 77.632648 184.588101 77.437847 182.724358 77.313084 
L 177.747546 151.658051 
z
" style="fill: #ffffff"/>
   </g>
   <g id="patch_29">
    <path d="M 182.724358 77.313084 
C 174.005665 76.729436 165.251882 77.684019 156.863904 80.133116 
C 148.475926 82.582214 140.583786 86.487859 133.548917 91.671186 
L 177.747546 151.658051 
z
" style="fill: #ffffff"/>
   </g>
   <g id="patch_30">
    <path d="M 133.548917 91.671186 
C 129.703367 94.504607 126.139172 97.701262 122.905571 101.216991 
C 119.671969 104.732721 116.783918 108.551261 114.281315 112.619861 
L 177.747546 151.658051 
z
" style="fill: #ffffff"/>
   </g>
   <g id="patch_31">
    <path d="M 114.281315 112.619861 
C 110.250487 119.172968 107.258815 126.311012 105.412827 133.779821 
C 103.566838 141.24863 102.888706 148.958488 103.402579 156.634862 
L 177.747546 151.658051 
z
" style="fill: #ffffff"/>
   </g>
   <g id="patch_32">
    <path d="M 103.402579 156.634862 
C 103.624437 159.949025 104.067655 163.244648 104.729267 166.49967 
C 105.39088 169.754692 106.269407 172.961835 107.358968 176.099629 
L 177.747546 151.658051 
z
" style="fill: #ffffff"/>
   </g>
   <g id="patch_33">
    <path d="M 107.358968 176.099629 
C 108.721204 180.022693 110.409034 183.825015 112.404815 187.466852 
C 114.400596 191.108688 116.697352 194.577309 119.271078 197.836459 
L 177.747546 151.658051 
z
" style="fill: #ffffff"/>
   </g>
   <g id="patch_34">
    <path d="M 119.271078 197.836459 
C 120.042787 198.813687 120.838871 199.771416 121.658581 200.708746 
C 122.47829 201.646075 123.321367 202.562709 124.187017 203.457785 
L 177.747546 151.658051 
z
" style="fill: #ffffff"/>
   </g>
   <g id="patch_35">
    <path d="M 124.187017 203.457785 
C 125.774238 205.098959 127.436052 206.666314 129.1672 208.154889 
C 130.898347 209.643463 132.696998 211.051683 134.557459 212.375092 
L 177.747546 151.658051 
z
" style="fill: #ffffff"/>
   </g>
   <g id="patch_36">
    <path d="M 134.557459 212.375092 
C 137.264114 214.300427 140.096485 216.042624 143.035612 217.590018 
C 145.974739 219.137413 149.01405 220.486547 152.133201 221.628388 
L 177.747546 151.658051 
z
" style="fill: #ffffff"/>
   </g>
   <g id="patch_37">
    <path d="M 152.133201 221.628388 
C 160.535268 224.704169 169.423061 226.241567 178.370105 226.16681 
C 187.317148 226.092053 196.17801 224.406356 204.527509 221.190607 
L 177.747546 151.658051 
z
" style="fill: #ffffff"/>
   </g>
   <g id="patch_38">
    <path d="M 204.527509 221.190607 
C 208.402864 219.698042 212.146663 217.884101 215.719777 215.767742 
C 219.292891 213.651383 222.682828 211.240006 225.854157 208.558813 
L 177.747546 151.658051 
z
" style="fill: #ffffff"/>
   </g>
   <g id="patch_39">
    <path d="M 225.854157 208.558813 
C 230.455526 204.668597 234.568071 200.234559 238.101606 195.353934 
C 241.635142 190.473309 244.563649 185.182036 246.822907 179.59615 
L 177.747546 151.658051 
z
" style="fill: #ffffff"/>
   </g>
   <g id="patch_40">
    <path d="M 246.822907 179.59615 
C 247.211973 178.634206 247.580902 177.664239 247.929454 176.686886 
C 248.278006 175.709532 248.606104 174.725004 248.913533 173.733946 
L 177.747546 151.658051 
z
" style="fill: #ffffff"/>
   </g>
   <g id="patch_41">
    <path d="M 248.913533 173.733946 
C 250.020758 170.164587 250.857883 166.51698 251.417816 162.822017 
C 251.977749 159.127055 252.258906 155.395197 252.258906 151.658049 
L 177.747546 151.658051 
z
" style="fill: #ffffff"/>
   </g>
   <g id="matplotlib.axis_1"/>
   <g id="matplotlib.axis_2"/>
   <g id="text_1">
    <!-- A [16] -->
    <g transform="translate(317.528481 135.618719) scale(0.1 -0.1)">
     <defs>
      <path id="DejaVuSans-41" d="M 2188 4044 
L 1331 1722 
L 3047 1722 
L 2188 4044 
z
M 1831 4666 
L 2547 4666 
L 4325 0 
L 3669 0 
L 3244 1197 
L 1141 1197 
L 716 0 
L 50 0 
L 1831 4666 
z
" transform="scale(0.015625)"/>
      <path id="DejaVuSans-20" transform="scale(0.015625)"/>
      <path id="DejaVuSans-5b" d="M 550 4863 
L 1875 4863 
L 1875 4416 
L 1125 4416 
L 1125 -397 
L 1875 -397 
L 1875 -844 
L 550 -844 
L 550 4863 
z
" transform="scale(0.015625)"/>
      <path id="DejaVuSans-31" d="M 794 531 
L 1825 531 
L 1825 4091 
L 703 3866 
L 703 4441 
L 1819 4666 
L 2450 4666 
L 2450 531 
L 3481 531 
L 3481 0 
L 794 0 
L 794 531 
z
" transform="scale(0.015625)"/>
      <path id="DejaVuSans-36" d="M 2113 2584 
Q 1688 2584 1439 2293 
Q 1191 2003 1191 1497 
Q 1191 994 1439 701 
Q 1688 409 2113 409 
Q 2538 409 2786 701 
Q 3034 994 3034 1497 
Q 3034 2003 2786 2293 
Q 2538 2584 2113 2584 
z
M 3366 4563 
L 3366 3988 
Q 3128 4100 2886 4159 
Q 2644 4219 2406 4219 
Q 1781 4219 1451 3797 
Q 1122 3375 1075 2522 
Q 1259 2794 1537 2939 
Q 1816 3084 2150 3084 
Q 2853 3084 3261 2657 
Q 3669 2231 3669 1497 
Q 3669 778 3244 343 
Q 2819 -91 2113 -91 
Q 1303 -91 875 529 
Q 447 1150 447 2328 
Q 447 3434 972 4092 
Q 1497 4750 2381 4750 
Q 2619 4750 2861 4703 
Q 3103 4656 3366 4563 
z
" transform="scale(0.015625)"/>
      <path id="DejaVuSans-5d" d="M 1947 4863 
L 1947 -844 
L 622 -844 
L 622 -397 
L 1369 -397 
L 1369 4416 
L 622 4416 
L 622 4863 
L 1947 4863 
z
" transform="scale(0.015625)"/>
     </defs>
     <use xlink:href="#DejaVuSans-41"/>
     <use xlink:href="#DejaVuSans-20" x="68.408203"/>
     <use xlink:href="#DejaVuSans-5b" x="100.195312"/>
     <use xlink:href="#DejaVuSans-31" x="139.208984"/>
     <use xlink:href="#DejaVuSans-36" x="202.832031"/>
     <use xlink:href="#DejaVuSans-5d" x="266.455078"/>
    </g>
   </g>
   <g id="text_2">
    <!-- C [11] -->
    <g transform="translate(309.781679 104.828225) scale(0.1 -0.1)">
     <defs>
      <path id="DejaVuSans-43" d="M 4122 4306 
L 4122 3641 
Q 3803 3938 3442 4084 
Q 3081 4231 2675 4231 
Q 1875 4231 1450 3742 
Q 1025 3253 1025 2328 
Q 1025 1406 1450 917 
Q 1875 428 2675 428 
Q 3081 428 3442 575 
Q 3803 722 4122 1019 
L 4122 359 
Q 3791 134 3420 21 
Q 3050 -91 2638 -91 
Q 1578 -91 968 557 
Q 359 1206 359 2328 
Q 359 3453 968 4101 
Q 1578 4750 2638 4750 
Q 3056 4750 3426 4639 
Q 3797 4528 4122 4306 
z
" transform="scale(0.015625)"/>
     </defs>
     <use xlink:href="#DejaVuSans-43"/>
     <use xlink:href="#DejaVuSans-20" x="69.824219"/>
     <use xlink:href="#DejaVuSans-5b" x="101.611328"/>
     <use xlink:href="#DejaVuSans-31" x="140.625"/>
     <use xlink:href="#DejaVuSans-31" x="204.248047"/>
     <use xlink:href="#DejaVuSans-5d" x="267.871094"/>
    </g>
   </g>
   <g id="text_3">
    <!-- D [6] -->
    <g transform="translate(301.432003 86.636483) scale(0.1 -0.1)">
     <defs>
      <path id="DejaVuSans-44" d="M 1259 4147 
L 1259 519 
L 2022 519 
Q 2988 519 3436 956 
Q 3884 1394 3884 2338 
Q 3884 3275 3436 3711 
Q 2988 4147 2022 4147 
L 1259 4147 
z
M 628 4666 
L 1925 4666 
Q 3281 4666 3915 4102 
Q 4550 3538 4550 2338 
Q 4550 1131 3912 565 
Q 3275 0 1925 0 
L 628 0 
L 628 4666 
z
" transform="scale(0.015625)"/>
     </defs>
     <use xlink:href="#DejaVuSans-44"/>
     <use xlink:href="#DejaVuSans-20" x="77.001953"/>
     <use xlink:href="#DejaVuSans-5b" x="108.789062"/>
     <use xlink:href="#DejaVuSans-36" x="147.802734"/>
     <use xlink:href="#DejaVuSans-5d" x="211.425781"/>
    </g>
   </g>
   <g id="text_4">
    <!-- E [7] -->
    <g transform="translate(293.355279 73.627865) scale(0.1 -0.1)">
     <defs>
      <path id="DejaVuSans-45" d="M 628 4666 
L 3578 4666 
L 3578 4134 
L 1259 4134 
L 1259 2753 
L 3481 2753 
L 3481 2222 
L 1259 2222 
L 1259 531 
L 3634 531 
L 3634 0 
L 628 0 
L 628 4666 
z
" transform="scale(0.015625)"/>
      <path id="DejaVuSans-37" d="M 525 4666 
L 3525 4666 
L 3525 4397 
L 1831 0 
L 1172 0 
L 2766 4134 
L 525 4134 
L 525 4666 
z
" transform="scale(0.015625)"/>
     </defs>
     <use xlink:href="#DejaVuSans-45"/>
     <use xlink:href="#DejaVuSans-20" x="63.183594"/>
     <use xlink:href="#DejaVuSans-5b" x="94.970703"/>
     <use xlink:href="#DejaVuSans-37" x="133.984375"/>
     <use xlink:href="#DejaVuSans-5d" x="197.607422"/>
    </g>
   </g>
   <g id="text_5">
    <!-- F [25] -->
    <g transform="translate(267.903411 45.955353) scale(0.1 -0.1)">
     <defs>
      <path id="DejaVuSans-46" d="M 628 4666 
L 3309 4666 
L 3309 4134 
L 1259 4134 
L 1259 2759 
L 3109 2759 
L 3109 2228 
L 1259 2228 
L 1259 0 
L 628 0 
L 628 4666 
z
" transform="scale(0.015625)"/>
      <path id="DejaVuSans-32" d="M 1228 531 
L 3431 531 
L 3431 0 
L 469 0 
L 469 531 
Q 828 903 1448 1529 
Q 2069 2156 2228 2338 
Q 2531 2678 2651 2914 
Q 2772 3150 2772 3378 
Q 2772 3750 2511 3984 
Q 2250 4219 1831 4219 
Q 1534 4219 1204 4116 
Q 875 4013 500 3803 
L 500 4441 
Q 881 4594 1212 4672 
Q 1544 4750 1819 4750 
Q 2544 4750 2975 4387 
Q 3406 4025 3406 3419 
Q 3406 3131 3298 2873 
Q 3191 2616 2906 2266 
Q 2828 2175 2409 1742 
Q 1991 1309 1228 531 
z
" transform="scale(0.015625)"/>
      <path id="DejaVuSans-35" d="M 691 4666 
L 3169 4666 
L 3169 4134 
L 1269 4134 
L 1269 2991 
Q 1406 3038 1543 3061 
Q 1681 3084 1819 3084 
Q 2600 3084 3056 2656 
Q 3513 2228 3513 1497 
Q 3513 744 3044 326 
Q 2575 -91 1722 -91 
Q 1428 -91 1123 -41 
Q 819 9 494 109 
L 494 744 
Q 775 591 1075 516 
Q 1375 441 1709 441 
Q 2250 441 2565 725 
Q 2881 1009 2881 1497 
Q 2881 1984 2565 2268 
Q 2250 2553 1709 2553 
Q 1456 2553 1204 2497 
Q 953 2441 691 2322 
L 691 4666 
z
" transform="scale(0.015625)"/>
     </defs>
     <use xlink:href="#DejaVuSans-46"/>
     <use xlink:href="#DejaVuSans-20" x="57.519531"/>
     <use xlink:href="#DejaVuSans-5b" x="89.306641"/>
     <use xlink:href="#DejaVuSans-32" x="128.320312"/>
     <use xlink:href="#DejaVuSans-35" x="191.943359"/>
     <use xlink:href="#DejaVuSans-5d" x="255.566406"/>
    </g>
   </g>
   <g id="text_6">
    <!-- G [16] -->
    <g transform="translate(226.231847 21.973575) scale(0.1 -0.1)">
     <defs>
      <path id="DejaVuSans-47" d="M 3809 666 
L 3809 1919 
L 2778 1919 
L 2778 2438 
L 4434 2438 
L 4434 434 
Q 4069 175 3628 42 
Q 3188 -91 2688 -91 
Q 1594 -91 976 548 
Q 359 1188 359 2328 
Q 359 3472 976 4111 
Q 1594 4750 2688 4750 
Q 3144 4750 3555 4637 
Q 3966 4525 4313 4306 
L 4313 3634 
Q 3963 3931 3569 4081 
Q 3175 4231 2741 4231 
Q 1884 4231 1454 3753 
Q 1025 3275 1025 2328 
Q 1025 1384 1454 906 
Q 1884 428 2741 428 
Q 3075 428 3337 486 
Q 3600 544 3809 666 
z
" transform="scale(0.015625)"/>
     </defs>
     <use xlink:href="#DejaVuSans-47"/>
     <use xlink:href="#DejaVuSans-20" x="77.490234"/>
     <use xlink:href="#DejaVuSans-5b" x="109.277344"/>
     <use xlink:href="#DejaVuSans-31" x="148.291016"/>
     <use xlink:href="#DejaVuSans-36" x="211.914062"/>
     <use xlink:href="#DejaVuSans-5d" x="275.537109"/>
    </g>
   </g>
   <g id="text_7">
    <!-- H [9] -->
    <g transform="translate(197.713498 14.798437) scale(0.1 -0.1)">
     <defs>
      <path id="DejaVuSans-48" d="M 628 4666 
L 1259 4666 
L 1259 2753 
L 3553 2753 
L 3553 4666 
L 4184 4666 
L 4184 0 
L 3553 0 
L 3553 2222 
L 1259 2222 
L 1259 0 
L 628 0 
L 628 4666 
z
" transform="scale(0.015625)"/>
      <path id="DejaVuSans-39" d="M 703 97 
L 703 672 
Q 941 559 1184 500 
Q 1428 441 1663 441 
Q 2288 441 2617 861 
Q 2947 1281 2994 2138 
Q 2813 1869 2534 1725 
Q 2256 1581 1919 1581 
Q 1219 1581 811 2004 
Q 403 2428 403 3163 
Q 403 3881 828 4315 
Q 1253 4750 1959 4750 
Q 2769 4750 3195 4129 
Q 3622 3509 3622 2328 
Q 3622 1225 3098 567 
Q 2575 -91 1691 -91 
Q 1453 -91 1209 -44 
Q 966 3 703 97 
z
M 1959 2075 
Q 2384 2075 2632 2365 
Q 2881 2656 2881 3163 
Q 2881 3666 2632 3958 
Q 2384 4250 1959 4250 
Q 1534 4250 1286 3958 
Q 1038 3666 1038 3163 
Q 1038 2656 1286 2365 
Q 1534 2075 1959 2075 
z
" transform="scale(0.015625)"/>
     </defs>
     <use xlink:href="#DejaVuSans-48"/>
     <use xlink:href="#DejaVuSans-20" x="75.195312"/>
     <use xlink:href="#DejaVuSans-5b" x="106.982422"/>
     <use xlink:href="#DejaVuSans-39" x="145.996094"/>
     <use xlink:href="#DejaVuSans-5d" x="209.619141"/>
    </g>
   </g>
   <g id="text_8">
    <!-- I [42] -->
    <g transform="translate(111.561544 19.030943) scale(0.1 -0.1)">
     <defs>
      <path id="DejaVuSans-49" d="M 628 4666 
L 1259 4666 
L 1259 0 
L 628 0 
L 628 4666 
z
" transform="scale(0.015625)"/>
      <path id="DejaVuSans-34" d="M 2419 4116 
L 825 1625 
L 2419 1625 
L 2419 4116 
z
M 2253 4666 
L 3047 4666 
L 3047 1625 
L 3713 1625 
L 3713 1100 
L 3047 1100 
L 3047 0 
L 2419 0 
L 2419 1100 
L 313 1100 
L 313 1709 
L 2253 4666 
z
" transform="scale(0.015625)"/>
     </defs>
     <use xlink:href="#DejaVuSans-49"/>
     <use xlink:href="#DejaVuSans-20" x="29.492188"/>
     <use xlink:href="#DejaVuSans-5b" x="61.279297"/>
     <use xlink:href="#DejaVuSans-34" x="100.292969"/>
     <use xlink:href="#DejaVuSans-32" x="163.916016"/>
     <use xlink:href="#DejaVuSans-5d" x="227.539062"/>
    </g>
   </g>
   <g id="text_9">
    <!-- K [23] -->
    <g transform="translate(43.675458 58.939706) scale(0.1 -0.1)">
     <defs>
      <path id="DejaVuSans-4b" d="M 628 4666 
L 1259 4666 
L 1259 2694 
L 3353 4666 
L 4166 4666 
L 1850 2491 
L 4331 0 
L 3500 0 
L 1259 2247 
L 1259 0 
L 628 0 
L 628 4666 
z
" transform="scale(0.015625)"/>
      <path id="DejaVuSans-33" d="M 2597 2516 
Q 3050 2419 3304 2112 
Q 3559 1806 3559 1356 
Q 3559 666 3084 287 
Q 2609 -91 1734 -91 
Q 1441 -91 1130 -33 
Q 819 25 488 141 
L 488 750 
Q 750 597 1062 519 
Q 1375 441 1716 441 
Q 2309 441 2620 675 
Q 2931 909 2931 1356 
Q 2931 1769 2642 2001 
Q 2353 2234 1838 2234 
L 1294 2234 
L 1294 2753 
L 1863 2753 
Q 2328 2753 2575 2939 
Q 2822 3125 2822 3475 
Q 2822 3834 2567 4026 
Q 2313 4219 1838 4219 
Q 1578 4219 1281 4162 
Q 984 4106 628 3988 
L 628 4550 
Q 988 4650 1302 4700 
Q 1616 4750 1894 4750 
Q 2613 4750 3031 4423 
Q 3450 4097 3450 3541 
Q 3450 3153 3228 2886 
Q 3006 2619 2597 2516 
z
" transform="scale(0.015625)"/>
     </defs>
     <use xlink:href="#DejaVuSans-4b"/>
     <use xlink:href="#DejaVuSans-20" x="65.576172"/>
     <use xlink:href="#DejaVuSans-5b" x="97.363281"/>
     <use xlink:href="#DejaVuSans-32" x="136.376953"/>
     <use xlink:href="#DejaVuSans-33" x="200"/>
     <use xlink:href="#DejaVuSans-5d" x="263.623047"/>
    </g>
   </g>
   <g id="text_10">
    <!-- L [37] -->
    <g transform="translate(11.55013 120.576491) scale(0.1 -0.1)">
     <defs>
      <path id="DejaVuSans-4c" d="M 628 4666 
L 1259 4666 
L 1259 531 
L 3531 531 
L 3531 0 
L 628 0 
L 628 4666 
z
" transform="scale(0.015625)"/>
     </defs>
     <use xlink:href="#DejaVuSans-4c"/>
     <use xlink:href="#DejaVuSans-20" x="55.712891"/>
     <use xlink:href="#DejaVuSans-5b" x="87.5"/>
     <use xlink:href="#DejaVuSans-33" x="126.513672"/>
     <use xlink:href="#DejaVuSans-37" x="190.136719"/>
     <use xlink:href="#DejaVuSans-5d" x="253.759766"/>
    </g>
   </g>
   <g id="text_11">
    <!-- M [16] -->
    <g transform="translate(7.2 182.510491) scale(0.1 -0.1)">
     <defs>
      <path id="DejaVuSans-4d" d="M 628 4666 
L 1569 4666 
L 2759 1491 
L 3956 4666 
L 4897 4666 
L 4897 0 
L 4281 0 
L 4281 4097 
L 3078 897 
L 2444 897 
L 1241 4097 
L 1241 0 
L 628 0 
L 628 4666 
z
" transform="scale(0.015625)"/>
     </defs>
     <use xlink:href="#DejaVuSans-4d"/>
     <use xlink:href="#DejaVuSans-20" x="86.279297"/>
     <use xlink:href="#DejaVuSans-5b" x="118.066406"/>
     <use xlink:href="#DejaVuSans-31" x="157.080078"/>
     <use xlink:href="#DejaVuSans-36" x="220.703125"/>
     <use xlink:href="#DejaVuSans-5d" x="284.326172"/>
    </g>
   </g>
   <g id="text_12">
    <!-- N [20] -->
    <g transform="translate(22.87559 222.19837) scale(0.1 -0.1)">
     <defs>
      <path id="DejaVuSans-4e" d="M 628 4666 
L 1478 4666 
L 3547 763 
L 3547 4666 
L 4159 4666 
L 4159 0 
L 3309 0 
L 1241 3903 
L 1241 0 
L 628 0 
L 628 4666 
z
" transform="scale(0.015625)"/>
      <path id="DejaVuSans-30" d="M 2034 4250 
Q 1547 4250 1301 3770 
Q 1056 3291 1056 2328 
Q 1056 1369 1301 889 
Q 1547 409 2034 409 
Q 2525 409 2770 889 
Q 3016 1369 3016 2328 
Q 3016 3291 2770 3770 
Q 2525 4250 2034 4250 
z
M 2034 4750 
Q 2819 4750 3233 4129 
Q 3647 3509 3647 2328 
Q 3647 1150 3233 529 
Q 2819 -91 2034 -91 
Q 1250 -91 836 529 
Q 422 1150 422 2328 
Q 422 3509 836 4129 
Q 1250 4750 2034 4750 
z
" transform="scale(0.015625)"/>
     </defs>
     <use xlink:href="#DejaVuSans-4e"/>
     <use xlink:href="#DejaVuSans-20" x="74.804688"/>
     <use xlink:href="#DejaVuSans-5b" x="106.591797"/>
     <use xlink:href="#DejaVuSans-32" x="145.605469"/>
     <use xlink:href="#DejaVuSans-30" x="209.228516"/>
     <use xlink:href="#DejaVuSans-5d" x="272.851562"/>
    </g>
   </g>
   <g id="text_13">
    <!-- P [6] -->
    <g transform="translate(48.205709 247.263384) scale(0.1 -0.1)">
     <defs>
      <path id="DejaVuSans-50" d="M 1259 4147 
L 1259 2394 
L 2053 2394 
Q 2494 2394 2734 2622 
Q 2975 2850 2975 3272 
Q 2975 3691 2734 3919 
Q 2494 4147 2053 4147 
L 1259 4147 
z
M 628 4666 
L 2053 4666 
Q 2838 4666 3239 4311 
Q 3641 3956 3641 3272 
Q 3641 2581 3239 2228 
Q 2838 1875 2053 1875 
L 1259 1875 
L 1259 0 
L 628 0 
L 628 4666 
z
" transform="scale(0.015625)"/>
     </defs>
     <use xlink:href="#DejaVuSans-50"/>
     <use xlink:href="#DejaVuSans-20" x="60.302734"/>
     <use xlink:href="#DejaVuSans-5b" x="92.089844"/>
     <use xlink:href="#DejaVuSans-36" x="131.103516"/>
     <use xlink:href="#DejaVuSans-5d" x="194.726562"/>
    </g>
   </g>
   <g id="text_14">
    <!-- Q [11] -->
    <g transform="translate(54.213765 261.357869) scale(0.1 -0.1)">
     <defs>
      <path id="DejaVuSans-51" d="M 2522 4238 
Q 1834 4238 1429 3725 
Q 1025 3213 1025 2328 
Q 1025 1447 1429 934 
Q 1834 422 2522 422 
Q 3209 422 3611 934 
Q 4013 1447 4013 2328 
Q 4013 3213 3611 3725 
Q 3209 4238 2522 4238 
z
M 3406 84 
L 4238 -825 
L 3475 -825 
L 2784 -78 
Q 2681 -84 2626 -87 
Q 2572 -91 2522 -91 
Q 1538 -91 948 567 
Q 359 1225 359 2328 
Q 359 3434 948 4092 
Q 1538 4750 2522 4750 
Q 3503 4750 4090 4092 
Q 4678 3434 4678 2328 
Q 4678 1516 4351 937 
Q 4025 359 3406 84 
z
" transform="scale(0.015625)"/>
     </defs>
     <use xlink:href="#DejaVuSans-51"/>
     <use xlink:href="#DejaVuSans-20" x="78.710938"/>
     <use xlink:href="#DejaVuSans-5b" x="110.498047"/>
     <use xlink:href="#DejaVuSans-31" x="149.511719"/>
     <use xlink:href="#DejaVuSans-31" x="213.134766"/>
     <use xlink:href="#DejaVuSans-5d" x="276.757812"/>
    </g>
   </g>
   <g id="text_15">
    <!-- R [16] -->
    <g transform="translate(81.388126 279.217222) scale(0.1 -0.1)">
     <defs>
      <path id="DejaVuSans-52" d="M 2841 2188 
Q 3044 2119 3236 1894 
Q 3428 1669 3622 1275 
L 4263 0 
L 3584 0 
L 2988 1197 
Q 2756 1666 2539 1819 
Q 2322 1972 1947 1972 
L 1259 1972 
L 1259 0 
L 628 0 
L 628 4666 
L 2053 4666 
Q 2853 4666 3247 4331 
Q 3641 3997 3641 3322 
Q 3641 2881 3436 2590 
Q 3231 2300 2841 2188 
z
M 1259 4147 
L 1259 2491 
L 2053 2491 
Q 2509 2491 2742 2702 
Q 2975 2913 2975 3322 
Q 2975 3731 2742 3939 
Q 2509 4147 2053 4147 
L 1259 4147 
z
" transform="scale(0.015625)"/>
     </defs>
     <use xlink:href="#DejaVuSans-52"/>
     <use xlink:href="#DejaVuSans-20" x="69.482422"/>
     <use xlink:href="#DejaVuSans-5b" x="101.269531"/>
     <use xlink:href="#DejaVuSans-31" x="140.283203"/>
     <use xlink:href="#DejaVuSans-36" x="203.90625"/>
     <use xlink:href="#DejaVuSans-5d" x="267.529297"/>
    </g>
   </g>
   <g id="text_16">
    <!-- S [43] -->
    <g transform="translate(178.92596 295.451863) scale(0.1 -0.1)">
     <defs>
      <path id="DejaVuSans-53" d="M 3425 4513 
L 3425 3897 
Q 3066 4069 2747 4153 
Q 2428 4238 2131 4238 
Q 1616 4238 1336 4038 
Q 1056 3838 1056 3469 
Q 1056 3159 1242 3001 
Q 1428 2844 1947 2747 
L 2328 2669 
Q 3034 2534 3370 2195 
Q 3706 1856 3706 1288 
Q 3706 609 3251 259 
Q 2797 -91 1919 -91 
Q 1588 -91 1214 -16 
Q 841 59 441 206 
L 441 856 
Q 825 641 1194 531 
Q 1563 422 1919 422 
Q 2459 422 2753 634 
Q 3047 847 3047 1241 
Q 3047 1584 2836 1778 
Q 2625 1972 2144 2069 
L 1759 2144 
Q 1053 2284 737 2584 
Q 422 2884 422 3419 
Q 422 4038 858 4394 
Q 1294 4750 2059 4750 
Q 2388 4750 2728 4690 
Q 3069 4631 3425 4513 
z
" transform="scale(0.015625)"/>
     </defs>
     <use xlink:href="#DejaVuSans-53"/>
     <use xlink:href="#DejaVuSans-20" x="63.476562"/>
     <use xlink:href="#DejaVuSans-5b" x="95.263672"/>
     <use xlink:href="#DejaVuSans-34" x="134.277344"/>
     <use xlink:href="#DejaVuSans-33" x="197.900391"/>
     <use xlink:href="#DejaVuSans-5d" x="261.523438"/>
    </g>
   </g>
   <g id="text_17">
    <!-- T [20] -->
    <g transform="translate(249.623554 275.767912) scale(0.1 -0.1)">
     <defs>
      <path id="DejaVuSans-54" d="M -19 4666 
L 3928 4666 
L 3928 4134 
L 2272 4134 
L 2272 0 
L 1638 0 
L 1638 4134 
L -19 4134 
L -19 4666 
z
" transform="scale(0.015625)"/>
     </defs>
     <use xlink:href="#DejaVuSans-54"/>
     <use xlink:href="#DejaVuSans-20" x="61.083984"/>
     <use xlink:href="#DejaVuSans-5b" x="92.871094"/>
     <use xlink:href="#DejaVuSans-32" x="131.884766"/>
     <use xlink:href="#DejaVuSans-30" x="195.507812"/>
     <use xlink:href="#DejaVuSans-5d" x="259.130859"/>
    </g>
   </g>
   <g id="text_18">
    <!-- V [29] -->
    <g transform="translate(291.98916 237.127491) scale(0.1 -0.1)">
     <defs>
      <path id="DejaVuSans-56" d="M 1831 0 
L 50 4666 
L 709 4666 
L 2188 738 
L 3669 4666 
L 4325 4666 
L 2547 0 
L 1831 0 
z
" transform="scale(0.015625)"/>
     </defs>
     <use xlink:href="#DejaVuSans-56"/>
     <use xlink:href="#DejaVuSans-20" x="68.408203"/>
     <use xlink:href="#DejaVuSans-5b" x="100.195312"/>
     <use xlink:href="#DejaVuSans-32" x="139.208984"/>
     <use xlink:href="#DejaVuSans-39" x="202.832031"/>
     <use xlink:href="#DejaVuSans-5d" x="266.455078"/>
    </g>
   </g>
   <g id="text_19">
    <!-- W [5] -->
    <g transform="translate(310.591872 201.793435) scale(0.1 -0.1)">
     <defs>
      <path id="DejaVuSans-57" d="M 213 4666 
L 850 4666 
L 1831 722 
L 2809 4666 
L 3519 4666 
L 4500 722 
L 5478 4666 
L 6119 4666 
L 4947 0 
L 4153 0 
L 3169 4050 
L 2175 0 
L 1381 0 
L 213 4666 
z
" transform="scale(0.015625)"/>
     </defs>
     <use xlink:href="#DejaVuSans-57"/>
     <use xlink:href="#DejaVuSans-20" x="98.876953"/>
     <use xlink:href="#DejaVuSans-5b" x="130.664062"/>
     <use xlink:href="#DejaVuSans-35" x="169.677734"/>
     <use xlink:href="#DejaVuSans-5d" x="233.300781"/>
    </g>
   </g>
   <g id="text_20">
    <!-- Y [18] -->
    <g transform="translate(317.194842 175.54922) scale(0.1 -0.1)">
     <defs>
      <path id="DejaVuSans-59" d="M -13 4666 
L 666 4666 
L 1959 2747 
L 3244 4666 
L 3922 4666 
L 2272 2222 
L 2272 0 
L 1638 0 
L 1638 2222 
L -13 4666 
z
" transform="scale(0.015625)"/>
      <path id="DejaVuSans-38" d="M 2034 2216 
Q 1584 2216 1326 1975 
Q 1069 1734 1069 1313 
Q 1069 891 1326 650 
Q 1584 409 2034 409 
Q 2484 409 2743 651 
Q 3003 894 3003 1313 
Q 3003 1734 2745 1975 
Q 2488 2216 2034 2216 
z
M 1403 2484 
Q 997 2584 770 2862 
Q 544 3141 544 3541 
Q 544 4100 942 4425 
Q 1341 4750 2034 4750 
Q 2731 4750 3128 4425 
Q 3525 4100 3525 3541 
Q 3525 3141 3298 2862 
Q 3072 2584 2669 2484 
Q 3125 2378 3379 2068 
Q 3634 1759 3634 1313 
Q 3634 634 3220 271 
Q 2806 -91 2034 -91 
Q 1263 -91 848 271 
Q 434 634 434 1313 
Q 434 1759 690 2068 
Q 947 2378 1403 2484 
z
M 1172 3481 
Q 1172 3119 1398 2916 
Q 1625 2713 2034 2713 
Q 2441 2713 2670 2916 
Q 2900 3119 2900 3481 
Q 2900 3844 2670 4047 
Q 2441 4250 2034 4250 
Q 1625 4250 1398 4047 
Q 1172 3844 1172 3481 
z
" transform="scale(0.015625)"/>
     </defs>
     <use xlink:href="#DejaVuSans-59"/>
     <use xlink:href="#DejaVuSans-20" x="61.083984"/>
     <use xlink:href="#DejaVuSans-5b" x="92.871094"/>
     <use xlink:href="#DejaVuSans-31" x="131.884766"/>
     <use xlink:href="#DejaVuSans-38" x="195.507812"/>
     <use xlink:href="#DejaVuSans-5d" x="259.130859"/>
    </g>
   </g>
   <g id="text_21">
    <!-- G5E640 [376] -->
    <g transform="translate(135.995984 151.658051) scale(0.12 -0.12)">
     <use xlink:href="#DejaVuSans-47"/>
     <use xlink:href="#DejaVuSans-35" x="77.490234"/>
     <use xlink:href="#DejaVuSans-45" x="141.113281"/>
     <use xlink:href="#DejaVuSans-36" x="204.296875"/>
     <use xlink:href="#DejaVuSans-34" x="267.919922"/>
     <use xlink:href="#DejaVuSans-30" x="331.542969"/>
     <use xlink:href="#DejaVuSans-20" x="395.166016"/>
     <use xlink:href="#DejaVuSans-5b" x="426.953125"/>
     <use xlink:href="#DejaVuSans-33" x="465.966797"/>
     <use xlink:href="#DejaVuSans-37" x="529.589844"/>
     <use xlink:href="#DejaVuSans-36" x="593.212891"/>
     <use xlink:href="#DejaVuSans-5d" x="656.835938"/>
    </g>
   </g>
  </g>
 </g>
</svg>
