<?xml version="1.0" encoding="utf-8" standalone="no"?>
<!DOCTYPE svg PUBLIC "-//W3C//DTD SVG 1.1//EN"
  "http://www.w3.org/Graphics/SVG/1.1/DTD/svg11.dtd">
<svg xmlns:xlink="http://www.w3.org/1999/xlink" width="352.604952pt" height="305.446093pt" viewBox="0 0 352.604952 305.446093" xmlns="http://www.w3.org/2000/svg" version="1.1">
 <metadata>
  <rdf:RDF xmlns:dc="http://purl.org/dc/elements/1.1/" xmlns:cc="http://creativecommons.org/ns#" xmlns:rdf="http://www.w3.org/1999/02/22-rdf-syntax-ns#">
   <cc:Work>
    <dc:type rdf:resource="http://purl.org/dc/dcmitype/StillImage"/>
    <dc:date>2024-09-27T16:07:32.896301</dc:date>
    <dc:format>image/svg+xml</dc:format>
    <dc:creator>
     <cc:Agent>
      <dc:title>Matplotlib v3.8.3, https://matplotlib.org/</dc:title>
     </cc:Agent>
    </dc:creator>
   </cc:Work>
  </rdf:RDF>
 </metadata>
 <defs>
  <style type="text/css">*{stroke-linejoin: round; stroke-linecap: butt}</style>
 </defs>
 <g id="figure_1">
  <g id="patch_1">
   <path d="M 0 305.446093 
L 352.604952 305.446093 
L 352.604952 0 
L 0 0 
z
" style="fill: #ffffff"/>
  </g>
  <g id="axes_1">
   <g id="patch_2">
    <path d="M 304.02132 152.868602 
C 304.02132 145.787151 303.432436 138.717948 302.260757 131.734101 
C 301.089078 124.750254 299.338658 117.875921 297.027599 111.182196 
L 176.28756 152.868602 
z
" style="fill: #1f77b4"/>
   </g>
   <g id="patch_3">
    <path d="M 296.987836 111.051359 
C 295.717263 107.371286 294.279105 103.751226 292.677867 100.202518 
C 291.076629 96.65381 289.313985 93.180163 287.395455 89.79246 
L 176.247797 152.737766 
z
" style="fill: #ff7f0e"/>
   </g>
   <g id="patch_4">
    <path d="M 287.359796 89.726326 
C 286.313453 87.878713 285.221204 86.057478 284.084066 84.264318 
C 282.946928 82.471158 281.765255 80.706631 280.540149 78.972382 
L 176.212138 152.671632 
z
" style="fill: #aec7e8"/>
   </g>
   <g id="patch_5">
    <path d="M 280.506793 78.925576 
C 279.077476 76.902247 277.589601 74.920927 276.045056 72.984129 
C 274.500511 71.047331 272.89995 69.155875 271.245403 67.312161 
L 176.178781 152.624826 
z
" style="fill: #ffbb78"/>
   </g>
   <g id="patch_6">
    <path d="M 271.139976 67.211864 
C 264.988979 60.357613 258.114699 54.188643 250.637128 48.812635 
C 243.159557 43.436628 235.122456 38.885044 226.666112 35.237334 
L 176.073354 152.52453 
z
" style="fill: #98df8a"/>
   </g>
   <g id="patch_7">
    <path d="M 226.499578 35.157135 
C 221.298812 32.913744 215.954585 31.018754 210.502292 29.484717 
C 205.049999 27.950679 199.501704 26.780988 193.894155 25.983391 
L 175.90682 152.444331 
z
" style="fill: #2ca02c"/>
   </g>
   <g id="patch_8">
    <path d="M 193.772118 25.963959 
C 189.567133 25.365857 185.334932 24.977859 181.09129 24.801411 
C 176.847649 24.624963 172.597847 24.660284 168.357725 24.907243 
L 175.784782 152.424898 
z
" style="fill: #d62728"/>
   </g>
   <g id="patch_9">
    <path d="M 168.12888 24.948576 
C 153.60985 25.794213 139.341313 29.113356 125.939699 34.76261 
C 112.538085 40.411865 100.199204 48.308689 89.456119 58.111927 
L 175.555938 152.466231 
z
" style="fill: #9467bd"/>
   </g>
   <g id="patch_10">
    <path d="M 89.241286 58.277485 
C 83.748493 63.289746 78.703857 68.772088 74.164882 74.662015 
C 69.625908 80.551942 65.609909 86.826988 62.162667 93.415618 
L 175.341104 152.631789 
z
" style="fill: #ff9896"/>
   </g>
   <g id="patch_11">
    <path d="M 62.058633 93.656797 
C 55.646698 105.911773 51.267576 119.12722 49.092575 132.786162 
C 46.917573 146.445104 46.975427 160.36708 49.263874 174.007474 
L 175.23707 152.872968 
z
" style="fill: #c5b0d5"/>
   </g>
   <g id="patch_12">
    <path d="M 49.27836 174.239569 
C 50.098295 179.126829 51.201945 183.962236 52.583712 188.721261 
C 53.965479 193.480286 55.623023 198.154871 57.547936 202.721305 
L 175.251556 153.105063 
z
" style="fill: #c49c94"/>
   </g>
   <g id="patch_13">
    <path d="M 57.609586 202.857934 
C 60.360268 209.383323 63.648836 215.668682 67.44128 221.64901 
C 71.233723 227.629338 75.516924 233.283948 80.246586 238.554361 
L 175.313206 153.241693 
z
" style="fill: #8c564b"/>
   </g>
   <g id="patch_14">
    <path d="M 80.327613 238.653407 
C 82.454985 241.024006 84.670284 243.314202 86.968862 245.519193 
C 89.267441 247.724184 91.647692 249.842427 94.104622 251.86948 
L 175.394233 153.34074 
z
" style="fill: #e377c2"/>
   </g>
   <g id="patch_15">
    <path d="M 94.173249 251.925147 
C 97.176337 254.402798 100.291131 256.741856 103.507874 258.934995 
C 106.724617 261.128133 110.039947 263.173059 113.443479 265.063367 
L 175.462859 153.396407 
z
" style="fill: #7f7f7f"/>
   </g>
   <g id="patch_16">
    <path d="M 113.548848 265.119056 
C 118.500401 267.869128 123.629391 270.286814 128.90185 272.356102 
C 134.174308 274.425389 139.578569 276.141699 145.078838 277.493664 
L 175.568229 153.452096 
z
" style="fill: #f7b6d2"/>
   </g>
   <g id="patch_17">
    <path d="M 145.321871 277.528232 
C 159.099053 280.91466 173.344658 281.98222 187.472681 280.686997 
C 201.600705 279.391774 215.414732 275.751774 228.346512 269.916733 
L 175.811261 153.486664 
z
" style="fill: #c7c7c7"/>
   </g>
   <g id="patch_18">
    <path d="M 228.605003 269.821431 
C 236.02938 266.471425 243.116337 262.418941 249.769004 257.719373 
C 256.421671 253.019805 262.609598 247.694663 268.248204 241.816735 
L 176.069752 153.391363 
z
" style="fill: #dbdb8d"/>
   </g>
   <g id="patch_19">
    <path d="M 268.392944 241.66332 
C 274.522708 235.273387 279.971454 228.263353 284.651228 220.746374 
C 289.331002 213.229395 293.216487 205.246136 296.244964 196.925464 
L 176.214492 153.237948 
z
" style="fill: #bcbd22"/>
   </g>
   <g id="patch_20">
    <path d="M 296.300402 196.805276 
C 296.905575 195.142576 297.476135 193.467481 298.011711 191.781075 
C 298.547288 190.094669 299.047766 188.397317 299.512821 186.690117 
L 176.269929 153.11776 
z
" style="fill: #17becf"/>
   </g>
   <g id="patch_21">
    <path d="M 299.533089 186.599585 
C 301.021759 181.134731 302.145297 175.576907 302.896262 169.962922 
C 303.647227 164.348938 304.023957 158.691215 304.023957 153.027227 
L 176.290197 153.027228 
z
" style="fill: #9edae5"/>
   </g>
   <g id="patch_22">
    <path d="M 250.274032 152.956663 
C 250.274032 148.825816 249.930516 144.702114 249.247037 140.628203 
C 248.563557 136.554293 247.542479 132.544265 246.194361 128.639592 
L 175.762672 152.956663 
z
" style="fill: #ffffff"/>
   </g>
   <g id="patch_23">
    <path d="M 246.194361 128.639592 
C 245.453194 126.492883 244.614268 124.381181 243.680213 122.311101 
C 242.746157 120.241022 241.717948 118.214728 240.598806 116.238567 
L 175.762672 152.956663 
z
" style="fill: #ffffff"/>
   </g>
   <g id="patch_24">
    <path d="M 240.598806 116.238567 
C 239.988439 115.160793 239.351294 114.098406 238.687963 113.052396 
C 238.024633 112.006386 237.335324 110.977079 236.620678 109.965433 
L 175.762672 152.956663 
z
" style="fill: #ffffff"/>
   </g>
   <g id="patch_25">
    <path d="M 236.620678 109.965433 
C 235.78691 108.785158 234.918983 107.629388 234.017999 106.499589 
C 233.117014 105.36979 232.183353 104.266441 231.218201 103.190941 
L 175.762672 152.956663 
z
" style="fill: #ffffff"/>
   </g>
   <g id="patch_26">
    <path d="M 231.218201 103.190941 
C 227.63012 99.192628 223.620123 95.594062 219.258207 92.458058 
C 214.89629 89.322053 210.207981 86.666963 205.275114 84.539132 
L 175.762672 152.956663 
z
" style="fill: #ffffff"/>
   </g>
   <g id="patch_27">
    <path d="M 205.275114 84.539132 
C 202.241334 83.230487 199.123868 82.125076 195.943364 81.230221 
C 192.76286 80.335366 189.526354 79.653046 186.255284 79.187781 
L 175.762672 152.956663 
z
" style="fill: #ffffff"/>
   </g>
   <g id="patch_28">
    <path d="M 186.255284 79.187781 
C 183.802376 78.838889 181.333592 78.612557 178.858135 78.509629 
C 176.382677 78.406701 173.903626 78.427305 171.430222 78.571364 
L 175.762672 152.956663 
z
" style="fill: #ffffff"/>
   </g>
   <g id="patch_29">
    <path d="M 171.430222 78.571364 
C 162.960787 79.064652 154.637475 81.000819 146.819866 84.296217 
C 139.002258 87.591616 131.804577 92.198097 125.537778 97.916652 
L 175.762672 152.956663 
z
" style="fill: #ffffff"/>
   </g>
   <g id="patch_30">
    <path d="M 125.537778 97.916652 
C 122.333649 100.840471 119.390944 104.038504 116.743209 107.474295 
C 114.095474 110.910086 111.752808 114.570529 109.741917 118.413897 
L 175.762672 152.956663 
z
" style="fill: #ffffff"/>
   </g>
   <g id="patch_31">
    <path d="M 109.741917 118.413897 
C 106.001622 125.562632 103.447134 133.271643 102.178383 141.239359 
C 100.909632 149.207076 100.94338 157.328228 102.278308 165.285124 
L 175.762672 152.956663 
z
" style="fill: #ffffff"/>
   </g>
   <g id="patch_32">
    <path d="M 102.278308 165.285124 
C 102.756603 168.136026 103.400399 170.95668 104.20643 173.732778 
C 105.01246 176.508876 105.979361 179.235717 107.102227 181.89947 
L 175.762672 152.956663 
z
" style="fill: #ffffff"/>
   </g>
   <g id="patch_33">
    <path d="M 107.102227 181.89947 
C 108.706792 185.705947 110.625123 189.372406 112.837382 192.860931 
C 115.049641 196.349456 117.548174 199.647978 120.307144 202.722385 
L 175.762672 152.956663 
z
" style="fill: #ffffff"/>
   </g>
   <g id="patch_34">
    <path d="M 120.307144 202.722385 
C 121.548111 204.105235 122.840368 205.441182 124.181206 206.727427 
C 125.522043 208.013672 126.910523 209.249314 128.343732 210.431761 
L 175.762672 152.956663 
z
" style="fill: #ffffff"/>
   </g>
   <g id="patch_35">
    <path d="M 128.343732 210.431761 
C 130.095534 211.877058 131.912497 213.241508 133.78893 214.520839 
C 135.665364 215.80017 137.599307 216.993043 139.5847 218.095723 
L 175.762672 152.956663 
z
" style="fill: #ffffff"/>
   </g>
   <g id="patch_36">
    <path d="M 139.5847 218.095723 
C 142.473106 219.699931 145.465017 221.110248 148.540618 222.317333 
C 151.616218 223.524417 154.768704 224.525598 157.977194 225.314244 
L 175.762672 152.956663 
z
" style="fill: #ffffff"/>
   </g>
   <g id="patch_37">
    <path d="M 157.977194 225.314244 
C 166.013884 227.28966 174.32382 227.912404 182.565167 227.156857 
C 190.806514 226.40131 198.864696 224.277977 206.408235 220.874203 
L 175.762672 152.956663 
z
" style="fill: #ffffff"/>
   </g>
   <g id="patch_38">
    <path d="M 206.408235 220.874203 
C 210.739121 218.920032 214.87318 216.556083 218.753902 213.814669 
C 222.634624 211.073254 226.244249 207.966921 229.533436 204.53813 
L 175.762672 152.956663 
z
" style="fill: #ffffff"/>
   </g>
   <g id="patch_39">
    <path d="M 229.533436 204.53813 
C 233.109132 200.810669 236.287567 196.721482 239.017435 192.336578 
C 241.747303 187.951673 244.013836 183.294773 245.780448 178.441047 
L 175.762672 152.956663 
z
" style="fill: #ffffff"/>
   </g>
   <g id="patch_40">
    <path d="M 245.780448 178.441047 
C 246.133465 177.471139 246.466292 176.494 246.778711 175.510263 
C 247.091131 174.526526 247.383076 173.536404 247.654358 172.540538 
L 175.762672 152.956663 
z
" style="fill: #ffffff"/>
   </g>
   <g id="patch_41">
    <path d="M 247.654358 172.540538 
C 248.52275 169.352706 249.178147 166.110642 249.61621 162.835818 
C 250.054273 159.560993 250.274032 156.260655 250.274032 152.956662 
L 175.762672 152.956663 
z
" style="fill: #ffffff"/>
   </g>
   <g id="matplotlib.axis_1"/>
   <g id="matplotlib.axis_2"/>
   <g id="text_1">
    <!-- A [20] -->
    <g transform="translate(314.858077 132.380025) scale(0.1 -0.1)">
     <defs>
      <path id="DejaVuSans-41" d="M 2188 4044 
L 1331 1722 
L 3047 1722 
L 2188 4044 
z
M 1831 4666 
L 2547 4666 
L 4325 0 
L 3669 0 
L 3244 1197 
L 1141 1197 
L 716 0 
L 50 0 
L 1831 4666 
z
" transform="scale(0.015625)"/>
      <path id="DejaVuSans-20" transform="scale(0.015625)"/>
      <path id="DejaVuSans-5b" d="M 550 4863 
L 1875 4863 
L 1875 4416 
L 1125 4416 
L 1125 -397 
L 1875 -397 
L 1875 -844 
L 550 -844 
L 550 4863 
z
" transform="scale(0.015625)"/>
      <path id="DejaVuSans-32" d="M 1228 531 
L 3431 531 
L 3431 0 
L 469 0 
L 469 531 
Q 828 903 1448 1529 
Q 2069 2156 2228 2338 
Q 2531 2678 2651 2914 
Q 2772 3150 2772 3378 
Q 2772 3750 2511 3984 
Q 2250 4219 1831 4219 
Q 1534 4219 1204 4116 
Q 875 4013 500 3803 
L 500 4441 
Q 881 4594 1212 4672 
Q 1544 4750 1819 4750 
Q 2544 4750 2975 4387 
Q 3406 4025 3406 3419 
Q 3406 3131 3298 2873 
Q 3191 2616 2906 2266 
Q 2828 2175 2409 1742 
Q 1991 1309 1228 531 
z
" transform="scale(0.015625)"/>
      <path id="DejaVuSans-30" d="M 2034 4250 
Q 1547 4250 1301 3770 
Q 1056 3291 1056 2328 
Q 1056 1369 1301 889 
Q 1547 409 2034 409 
Q 2525 409 2770 889 
Q 3016 1369 3016 2328 
Q 3016 3291 2770 3770 
Q 2525 4250 2034 4250 
z
M 2034 4750 
Q 2819 4750 3233 4129 
Q 3647 3509 3647 2328 
Q 3647 1150 3233 529 
Q 2819 -91 2034 -91 
Q 1250 -91 836 529 
Q 422 1150 422 2328 
Q 422 3509 836 4129 
Q 1250 4750 2034 4750 
z
" transform="scale(0.015625)"/>
      <path id="DejaVuSans-5d" d="M 1947 4863 
L 1947 -844 
L 622 -844 
L 622 -397 
L 1369 -397 
L 1369 4416 
L 622 4416 
L 622 4863 
L 1947 4863 
z
" transform="scale(0.015625)"/>
     </defs>
     <use xlink:href="#DejaVuSans-41"/>
     <use xlink:href="#DejaVuSans-20" x="68.408203"/>
     <use xlink:href="#DejaVuSans-5b" x="100.195312"/>
     <use xlink:href="#DejaVuSans-32" x="139.208984"/>
     <use xlink:href="#DejaVuSans-30" x="202.832031"/>
     <use xlink:href="#DejaVuSans-5d" x="266.455078"/>
    </g>
   </g>
   <g id="text_2">
    <!-- C [11] -->
    <g transform="translate(304.320874 97.708368) scale(0.1 -0.1)">
     <defs>
      <path id="DejaVuSans-43" d="M 4122 4306 
L 4122 3641 
Q 3803 3938 3442 4084 
Q 3081 4231 2675 4231 
Q 1875 4231 1450 3742 
Q 1025 3253 1025 2328 
Q 1025 1406 1450 917 
Q 1875 428 2675 428 
Q 3081 428 3442 575 
Q 3803 722 4122 1019 
L 4122 359 
Q 3791 134 3420 21 
Q 3050 -91 2638 -91 
Q 1578 -91 968 557 
Q 359 1206 359 2328 
Q 359 3453 968 4101 
Q 1578 4750 2638 4750 
Q 3056 4750 3426 4639 
Q 3797 4528 4122 4306 
z
" transform="scale(0.015625)"/>
      <path id="DejaVuSans-31" d="M 794 531 
L 1825 531 
L 1825 4091 
L 703 3866 
L 703 4441 
L 1819 4666 
L 2450 4666 
L 2450 531 
L 3481 531 
L 3481 0 
L 794 0 
L 794 531 
z
" transform="scale(0.015625)"/>
     </defs>
     <use xlink:href="#DejaVuSans-43"/>
     <use xlink:href="#DejaVuSans-20" x="69.824219"/>
     <use xlink:href="#DejaVuSans-5b" x="101.611328"/>
     <use xlink:href="#DejaVuSans-31" x="140.625"/>
     <use xlink:href="#DejaVuSans-31" x="204.248047"/>
     <use xlink:href="#DejaVuSans-5d" x="267.871094"/>
    </g>
   </g>
   <g id="text_3">
    <!-- D [6] -->
    <g transform="translate(294.871259 80.182962) scale(0.1 -0.1)">
     <defs>
      <path id="DejaVuSans-44" d="M 1259 4147 
L 1259 519 
L 2022 519 
Q 2988 519 3436 956 
Q 3884 1394 3884 2338 
Q 3884 3275 3436 3711 
Q 2988 4147 2022 4147 
L 1259 4147 
z
M 628 4666 
L 1925 4666 
Q 3281 4666 3915 4102 
Q 4550 3538 4550 2338 
Q 4550 1131 3912 565 
Q 3275 0 1925 0 
L 628 0 
L 628 4666 
z
" transform="scale(0.015625)"/>
      <path id="DejaVuSans-36" d="M 2113 2584 
Q 1688 2584 1439 2293 
Q 1191 2003 1191 1497 
Q 1191 994 1439 701 
Q 1688 409 2113 409 
Q 2538 409 2786 701 
Q 3034 994 3034 1497 
Q 3034 2003 2786 2293 
Q 2538 2584 2113 2584 
z
M 3366 4563 
L 3366 3988 
Q 3128 4100 2886 4159 
Q 2644 4219 2406 4219 
Q 1781 4219 1451 3797 
Q 1122 3375 1075 2522 
Q 1259 2794 1537 2939 
Q 1816 3084 2150 3084 
Q 2853 3084 3261 2657 
Q 3669 2231 3669 1497 
Q 3669 778 3244 343 
Q 2819 -91 2113 -91 
Q 1303 -91 875 529 
Q 447 1150 447 2328 
Q 447 3434 972 4092 
Q 1497 4750 2381 4750 
Q 2619 4750 2861 4703 
Q 3103 4656 3366 4563 
z
" transform="scale(0.015625)"/>
     </defs>
     <use xlink:href="#DejaVuSans-44"/>
     <use xlink:href="#DejaVuSans-20" x="77.001953"/>
     <use xlink:href="#DejaVuSans-5b" x="108.789062"/>
     <use xlink:href="#DejaVuSans-36" x="147.802734"/>
     <use xlink:href="#DejaVuSans-5d" x="211.425781"/>
    </g>
   </g>
   <g id="text_4">
    <!-- E [7] -->
    <g transform="translate(286.031683 67.779434) scale(0.1 -0.1)">
     <defs>
      <path id="DejaVuSans-45" d="M 628 4666 
L 3578 4666 
L 3578 4134 
L 1259 4134 
L 1259 2753 
L 3481 2753 
L 3481 2222 
L 1259 2222 
L 1259 531 
L 3634 531 
L 3634 0 
L 628 0 
L 628 4666 
z
" transform="scale(0.015625)"/>
      <path id="DejaVuSans-37" d="M 525 4666 
L 3525 4666 
L 3525 4397 
L 1831 0 
L 1172 0 
L 2766 4134 
L 525 4134 
L 525 4666 
z
" transform="scale(0.015625)"/>
     </defs>
     <use xlink:href="#DejaVuSans-45"/>
     <use xlink:href="#DejaVuSans-20" x="63.183594"/>
     <use xlink:href="#DejaVuSans-5b" x="94.970703"/>
     <use xlink:href="#DejaVuSans-37" x="133.984375"/>
     <use xlink:href="#DejaVuSans-5d" x="197.607422"/>
    </g>
   </g>
   <g id="text_5">
    <!-- F [26] -->
    <g transform="translate(258.093506 41.200821) scale(0.1 -0.1)">
     <defs>
      <path id="DejaVuSans-46" d="M 628 4666 
L 3309 4666 
L 3309 4134 
L 1259 4134 
L 1259 2759 
L 3109 2759 
L 3109 2228 
L 1259 2228 
L 1259 0 
L 628 0 
L 628 4666 
z
" transform="scale(0.015625)"/>
     </defs>
     <use xlink:href="#DejaVuSans-46"/>
     <use xlink:href="#DejaVuSans-20" x="57.519531"/>
     <use xlink:href="#DejaVuSans-5b" x="89.306641"/>
     <use xlink:href="#DejaVuSans-32" x="128.320312"/>
     <use xlink:href="#DejaVuSans-36" x="191.943359"/>
     <use xlink:href="#DejaVuSans-5d" x="255.566406"/>
    </g>
   </g>
   <g id="text_6">
    <!-- G [16] -->
    <g transform="translate(213.961839 19.94813) scale(0.1 -0.1)">
     <defs>
      <path id="DejaVuSans-47" d="M 3809 666 
L 3809 1919 
L 2778 1919 
L 2778 2438 
L 4434 2438 
L 4434 434 
Q 4069 175 3628 42 
Q 3188 -91 2688 -91 
Q 1594 -91 976 548 
Q 359 1188 359 2328 
Q 359 3472 976 4111 
Q 1594 4750 2688 4750 
Q 3144 4750 3555 4637 
Q 3966 4525 4313 4306 
L 4313 3634 
Q 3963 3931 3569 4081 
Q 3175 4231 2741 4231 
Q 1884 4231 1454 3753 
Q 1025 3275 1025 2328 
Q 1025 1384 1454 906 
Q 1884 428 2741 428 
Q 3075 428 3337 486 
Q 3600 544 3809 666 
z
" transform="scale(0.015625)"/>
     </defs>
     <use xlink:href="#DejaVuSans-47"/>
     <use xlink:href="#DejaVuSans-20" x="77.490234"/>
     <use xlink:href="#DejaVuSans-5b" x="109.277344"/>
     <use xlink:href="#DejaVuSans-31" x="148.291016"/>
     <use xlink:href="#DejaVuSans-36" x="211.914062"/>
     <use xlink:href="#DejaVuSans-5d" x="275.537109"/>
    </g>
   </g>
   <g id="text_7">
    <!-- H [12] -->
    <g transform="translate(181.621941 14.798437) scale(0.1 -0.1)">
     <defs>
      <path id="DejaVuSans-48" d="M 628 4666 
L 1259 4666 
L 1259 2753 
L 3553 2753 
L 3553 4666 
L 4184 4666 
L 4184 0 
L 3553 0 
L 3553 2222 
L 1259 2222 
L 1259 0 
L 628 0 
L 628 4666 
z
" transform="scale(0.015625)"/>
     </defs>
     <use xlink:href="#DejaVuSans-48"/>
     <use xlink:href="#DejaVuSans-20" x="75.195312"/>
     <use xlink:href="#DejaVuSans-5b" x="106.982422"/>
     <use xlink:href="#DejaVuSans-31" x="145.996094"/>
     <use xlink:href="#DejaVuSans-32" x="209.619141"/>
     <use xlink:href="#DejaVuSans-5d" x="273.242188"/>
    </g>
   </g>
   <g id="text_8">
    <!-- I [41] -->
    <g transform="translate(94.321825 25.751623) scale(0.1 -0.1)">
     <defs>
      <path id="DejaVuSans-49" d="M 628 4666 
L 1259 4666 
L 1259 0 
L 628 0 
L 628 4666 
z
" transform="scale(0.015625)"/>
      <path id="DejaVuSans-34" d="M 2419 4116 
L 825 1625 
L 2419 1625 
L 2419 4116 
z
M 2253 4666 
L 3047 4666 
L 3047 1625 
L 3713 1625 
L 3713 1100 
L 3047 1100 
L 3047 0 
L 2419 0 
L 2419 1100 
L 313 1100 
L 313 1709 
L 2253 4666 
z
" transform="scale(0.015625)"/>
     </defs>
     <use xlink:href="#DejaVuSans-49"/>
     <use xlink:href="#DejaVuSans-20" x="29.492188"/>
     <use xlink:href="#DejaVuSans-5b" x="61.279297"/>
     <use xlink:href="#DejaVuSans-34" x="100.292969"/>
     <use xlink:href="#DejaVuSans-31" x="163.916016"/>
     <use xlink:href="#DejaVuSans-5d" x="227.539062"/>
    </g>
   </g>
   <g id="text_9">
    <!-- K [21] -->
    <g transform="translate(33.783198 69.624413) scale(0.1 -0.1)">
     <defs>
      <path id="DejaVuSans-4b" d="M 628 4666 
L 1259 4666 
L 1259 2694 
L 3353 4666 
L 4166 4666 
L 1850 2491 
L 4331 0 
L 3500 0 
L 1259 2247 
L 1259 0 
L 628 0 
L 628 4666 
z
" transform="scale(0.015625)"/>
     </defs>
     <use xlink:href="#DejaVuSans-4b"/>
     <use xlink:href="#DejaVuSans-20" x="65.576172"/>
     <use xlink:href="#DejaVuSans-5b" x="97.363281"/>
     <use xlink:href="#DejaVuSans-32" x="136.376953"/>
     <use xlink:href="#DejaVuSans-31" x="200"/>
     <use xlink:href="#DejaVuSans-5d" x="263.623047"/>
    </g>
   </g>
   <g id="text_10">
    <!-- L [39] -->
    <g transform="translate(7.2 133.536857) scale(0.1 -0.1)">
     <defs>
      <path id="DejaVuSans-4c" d="M 628 4666 
L 1259 4666 
L 1259 531 
L 3531 531 
L 3531 0 
L 628 0 
L 628 4666 
z
" transform="scale(0.015625)"/>
      <path id="DejaVuSans-33" d="M 2597 2516 
Q 3050 2419 3304 2112 
Q 3559 1806 3559 1356 
Q 3559 666 3084 287 
Q 2609 -91 1734 -91 
Q 1441 -91 1130 -33 
Q 819 25 488 141 
L 488 750 
Q 750 597 1062 519 
Q 1375 441 1716 441 
Q 2309 441 2620 675 
Q 2931 909 2931 1356 
Q 2931 1769 2642 2001 
Q 2353 2234 1838 2234 
L 1294 2234 
L 1294 2753 
L 1863 2753 
Q 2328 2753 2575 2939 
Q 2822 3125 2822 3475 
Q 2822 3834 2567 4026 
Q 2313 4219 1838 4219 
Q 1578 4219 1281 4162 
Q 984 4106 628 3988 
L 628 4550 
Q 988 4650 1302 4700 
Q 1616 4750 1894 4750 
Q 2613 4750 3031 4423 
Q 3450 4097 3450 3541 
Q 3450 3153 3228 2886 
Q 3006 2619 2597 2516 
z
" transform="scale(0.015625)"/>
      <path id="DejaVuSans-39" d="M 703 97 
L 703 672 
Q 941 559 1184 500 
Q 1428 441 1663 441 
Q 2288 441 2617 861 
Q 2947 1281 2994 2138 
Q 2813 1869 2534 1725 
Q 2256 1581 1919 1581 
Q 1219 1581 811 2004 
Q 403 2428 403 3163 
Q 403 3881 828 4315 
Q 1253 4750 1959 4750 
Q 2769 4750 3195 4129 
Q 3622 3509 3622 2328 
Q 3622 1225 3098 567 
Q 2575 -91 1691 -91 
Q 1453 -91 1209 -44 
Q 966 3 703 97 
z
M 1959 2075 
Q 2384 2075 2632 2365 
Q 2881 2656 2881 3163 
Q 2881 3666 2632 3958 
Q 2384 4250 1959 4250 
Q 1534 4250 1286 3958 
Q 1038 3666 1038 3163 
Q 1038 2656 1286 2365 
Q 1534 2075 1959 2075 
z
" transform="scale(0.015625)"/>
     </defs>
     <use xlink:href="#DejaVuSans-4c"/>
     <use xlink:href="#DejaVuSans-20" x="55.712891"/>
     <use xlink:href="#DejaVuSans-5b" x="87.5"/>
     <use xlink:href="#DejaVuSans-33" x="126.513672"/>
     <use xlink:href="#DejaVuSans-39" x="190.136719"/>
     <use xlink:href="#DejaVuSans-5d" x="253.759766"/>
    </g>
   </g>
   <g id="text_11">
    <!-- M [14] -->
    <g transform="translate(7.982553 195.042256) scale(0.1 -0.1)">
     <defs>
      <path id="DejaVuSans-4d" d="M 628 4666 
L 1569 4666 
L 2759 1491 
L 3956 4666 
L 4897 4666 
L 4897 0 
L 4281 0 
L 4281 4097 
L 3078 897 
L 2444 897 
L 1241 4097 
L 1241 0 
L 628 0 
L 628 4666 
z
" transform="scale(0.015625)"/>
     </defs>
     <use xlink:href="#DejaVuSans-4d"/>
     <use xlink:href="#DejaVuSans-20" x="86.279297"/>
     <use xlink:href="#DejaVuSans-5b" x="118.066406"/>
     <use xlink:href="#DejaVuSans-31" x="157.080078"/>
     <use xlink:href="#DejaVuSans-34" x="220.703125"/>
     <use xlink:href="#DejaVuSans-5d" x="284.326172"/>
    </g>
   </g>
   <g id="text_12">
    <!-- N [20] -->
    <g transform="translate(25.466587 231.249117) scale(0.1 -0.1)">
     <defs>
      <path id="DejaVuSans-4e" d="M 628 4666 
L 1478 4666 
L 3547 763 
L 3547 4666 
L 4159 4666 
L 4159 0 
L 3309 0 
L 1241 3903 
L 1241 0 
L 628 0 
L 628 4666 
z
" transform="scale(0.015625)"/>
     </defs>
     <use xlink:href="#DejaVuSans-4e"/>
     <use xlink:href="#DejaVuSans-20" x="74.804688"/>
     <use xlink:href="#DejaVuSans-5b" x="106.591797"/>
     <use xlink:href="#DejaVuSans-32" x="145.605469"/>
     <use xlink:href="#DejaVuSans-30" x="209.228516"/>
     <use xlink:href="#DejaVuSans-5d" x="272.851562"/>
    </g>
   </g>
   <g id="text_13">
    <!-- P [9] -->
    <g transform="translate(54.752888 257.496414) scale(0.1 -0.1)">
     <defs>
      <path id="DejaVuSans-50" d="M 1259 4147 
L 1259 2394 
L 2053 2394 
Q 2494 2394 2734 2622 
Q 2975 2850 2975 3272 
Q 2975 3691 2734 3919 
Q 2494 4147 2053 4147 
L 1259 4147 
z
M 628 4666 
L 2053 4666 
Q 2838 4666 3239 4311 
Q 3641 3956 3641 3272 
Q 3641 2581 3239 2228 
Q 2838 1875 2053 1875 
L 1259 1875 
L 1259 0 
L 628 0 
L 628 4666 
z
" transform="scale(0.015625)"/>
     </defs>
     <use xlink:href="#DejaVuSans-50"/>
     <use xlink:href="#DejaVuSans-20" x="60.302734"/>
     <use xlink:href="#DejaVuSans-5b" x="92.089844"/>
     <use xlink:href="#DejaVuSans-39" x="131.103516"/>
     <use xlink:href="#DejaVuSans-5d" x="194.726562"/>
    </g>
   </g>
   <g id="text_14">
    <!-- Q [11] -->
    <g transform="translate(64.734251 272.248228) scale(0.1 -0.1)">
     <defs>
      <path id="DejaVuSans-51" d="M 2522 4238 
Q 1834 4238 1429 3725 
Q 1025 3213 1025 2328 
Q 1025 1447 1429 934 
Q 1834 422 2522 422 
Q 3209 422 3611 934 
Q 4013 1447 4013 2328 
Q 4013 3213 3611 3725 
Q 3209 4238 2522 4238 
z
M 3406 84 
L 4238 -825 
L 3475 -825 
L 2784 -78 
Q 2681 -84 2626 -87 
Q 2572 -91 2522 -91 
Q 1538 -91 948 567 
Q 359 1225 359 2328 
Q 359 3434 948 4092 
Q 1538 4750 2522 4750 
Q 3503 4750 4090 4092 
Q 4678 3434 4678 2328 
Q 4678 1516 4351 937 
Q 4025 359 3406 84 
z
" transform="scale(0.015625)"/>
     </defs>
     <use xlink:href="#DejaVuSans-51"/>
     <use xlink:href="#DejaVuSans-20" x="78.710938"/>
     <use xlink:href="#DejaVuSans-5b" x="110.498047"/>
     <use xlink:href="#DejaVuSans-31" x="149.511719"/>
     <use xlink:href="#DejaVuSans-31" x="213.134766"/>
     <use xlink:href="#DejaVuSans-5d" x="276.757812"/>
    </g>
   </g>
   <g id="text_15">
    <!-- R [16] -->
    <g transform="translate(93.580525 287.005877) scale(0.1 -0.1)">
     <defs>
      <path id="DejaVuSans-52" d="M 2841 2188 
Q 3044 2119 3236 1894 
Q 3428 1669 3622 1275 
L 4263 0 
L 3584 0 
L 2988 1197 
Q 2756 1666 2539 1819 
Q 2322 1972 1947 1972 
L 1259 1972 
L 1259 0 
L 628 0 
L 628 4666 
L 2053 4666 
Q 2853 4666 3247 4331 
Q 3641 3997 3641 3322 
Q 3641 2881 3436 2590 
Q 3231 2300 2841 2188 
z
M 1259 4147 
L 1259 2491 
L 2053 2491 
Q 2509 2491 2742 2702 
Q 2975 2913 2975 3322 
Q 2975 3731 2742 3939 
Q 2509 4147 2053 4147 
L 1259 4147 
z
" transform="scale(0.015625)"/>
     </defs>
     <use xlink:href="#DejaVuSans-52"/>
     <use xlink:href="#DejaVuSans-20" x="69.482422"/>
     <use xlink:href="#DejaVuSans-5b" x="101.269531"/>
     <use xlink:href="#DejaVuSans-31" x="140.283203"/>
     <use xlink:href="#DejaVuSans-36" x="203.90625"/>
     <use xlink:href="#DejaVuSans-5d" x="267.529297"/>
    </g>
   </g>
   <g id="text_16">
    <!-- S [40] -->
    <g transform="translate(188.638823 296.166405) scale(0.1 -0.1)">
     <defs>
      <path id="DejaVuSans-53" d="M 3425 4513 
L 3425 3897 
Q 3066 4069 2747 4153 
Q 2428 4238 2131 4238 
Q 1616 4238 1336 4038 
Q 1056 3838 1056 3469 
Q 1056 3159 1242 3001 
Q 1428 2844 1947 2747 
L 2328 2669 
Q 3034 2534 3370 2195 
Q 3706 1856 3706 1288 
Q 3706 609 3251 259 
Q 2797 -91 1919 -91 
Q 1588 -91 1214 -16 
Q 841 59 441 206 
L 441 856 
Q 825 641 1194 531 
Q 1563 422 1919 422 
Q 2459 422 2753 634 
Q 3047 847 3047 1241 
Q 3047 1584 2836 1778 
Q 2625 1972 2144 2069 
L 1759 2144 
Q 1053 2284 737 2584 
Q 422 2884 422 3419 
Q 422 4038 858 4394 
Q 1294 4750 2059 4750 
Q 2388 4750 2728 4690 
Q 3069 4631 3425 4513 
z
" transform="scale(0.015625)"/>
     </defs>
     <use xlink:href="#DejaVuSans-53"/>
     <use xlink:href="#DejaVuSans-20" x="63.476562"/>
     <use xlink:href="#DejaVuSans-5b" x="95.263672"/>
     <use xlink:href="#DejaVuSans-34" x="134.277344"/>
     <use xlink:href="#DejaVuSans-30" x="197.900391"/>
     <use xlink:href="#DejaVuSans-5d" x="261.523438"/>
    </g>
   </g>
   <g id="text_17">
    <!-- T [23] -->
    <g transform="translate(257.138929 270.911549) scale(0.1 -0.1)">
     <defs>
      <path id="DejaVuSans-54" d="M -19 4666 
L 3928 4666 
L 3928 4134 
L 2272 4134 
L 2272 0 
L 1638 0 
L 1638 4134 
L -19 4134 
L -19 4666 
z
" transform="scale(0.015625)"/>
     </defs>
     <use xlink:href="#DejaVuSans-54"/>
     <use xlink:href="#DejaVuSans-20" x="61.083984"/>
     <use xlink:href="#DejaVuSans-5b" x="92.871094"/>
     <use xlink:href="#DejaVuSans-32" x="131.884766"/>
     <use xlink:href="#DejaVuSans-33" x="195.507812"/>
     <use xlink:href="#DejaVuSans-5d" x="259.130859"/>
    </g>
   </g>
   <g id="text_18">
    <!-- V [25] -->
    <g transform="translate(295.494902 230.256591) scale(0.1 -0.1)">
     <defs>
      <path id="DejaVuSans-56" d="M 1831 0 
L 50 4666 
L 709 4666 
L 2188 738 
L 3669 4666 
L 4325 4666 
L 2547 0 
L 1831 0 
z
" transform="scale(0.015625)"/>
      <path id="DejaVuSans-35" d="M 691 4666 
L 3169 4666 
L 3169 4134 
L 1269 4134 
L 1269 2991 
Q 1406 3038 1543 3061 
Q 1681 3084 1819 3084 
Q 2600 3084 3056 2656 
Q 3513 2228 3513 1497 
Q 3513 744 3044 326 
Q 2575 -91 1722 -91 
Q 1428 -91 1123 -41 
Q 819 9 494 109 
L 494 744 
Q 775 591 1075 516 
Q 1375 441 1709 441 
Q 2250 441 2565 725 
Q 2881 1009 2881 1497 
Q 2881 1984 2565 2268 
Q 2250 2553 1709 2553 
Q 1456 2553 1204 2497 
Q 953 2441 691 2322 
L 691 4666 
z
" transform="scale(0.015625)"/>
     </defs>
     <use xlink:href="#DejaVuSans-56"/>
     <use xlink:href="#DejaVuSans-20" x="68.408203"/>
     <use xlink:href="#DejaVuSans-5b" x="100.195312"/>
     <use xlink:href="#DejaVuSans-32" x="139.208984"/>
     <use xlink:href="#DejaVuSans-35" x="202.832031"/>
     <use xlink:href="#DejaVuSans-5d" x="266.455078"/>
    </g>
   </g>
   <g id="text_19">
    <!-- W [5] -->
    <g transform="translate(310.18589 198.406781) scale(0.1 -0.1)">
     <defs>
      <path id="DejaVuSans-57" d="M 213 4666 
L 850 4666 
L 1831 722 
L 2809 4666 
L 3519 4666 
L 4500 722 
L 5478 4666 
L 6119 4666 
L 4947 0 
L 4153 0 
L 3169 4050 
L 2175 0 
L 1381 0 
L 213 4666 
z
" transform="scale(0.015625)"/>
     </defs>
     <use xlink:href="#DejaVuSans-57"/>
     <use xlink:href="#DejaVuSans-20" x="98.876953"/>
     <use xlink:href="#DejaVuSans-5b" x="130.664062"/>
     <use xlink:href="#DejaVuSans-35" x="169.677734"/>
     <use xlink:href="#DejaVuSans-5d" x="233.300781"/>
    </g>
   </g>
   <g id="text_20">
    <!-- Y [16] -->
    <g transform="translate(315.556869 174.415867) scale(0.1 -0.1)">
     <defs>
      <path id="DejaVuSans-59" d="M -13 4666 
L 666 4666 
L 1959 2747 
L 3244 4666 
L 3922 4666 
L 2272 2222 
L 2272 0 
L 1638 0 
L 1638 2222 
L -13 4666 
z
" transform="scale(0.015625)"/>
     </defs>
     <use xlink:href="#DejaVuSans-59"/>
     <use xlink:href="#DejaVuSans-20" x="61.083984"/>
     <use xlink:href="#DejaVuSans-5b" x="92.871094"/>
     <use xlink:href="#DejaVuSans-31" x="131.884766"/>
     <use xlink:href="#DejaVuSans-36" x="195.507812"/>
     <use xlink:href="#DejaVuSans-5d" x="259.130859"/>
    </g>
   </g>
   <g id="text_21">
    <!-- I3LGG4 [378] -->
    <g transform="translate(135.675172 152.956663) scale(0.12 -0.12)">
     <defs>
      <path id="DejaVuSans-38" d="M 2034 2216 
Q 1584 2216 1326 1975 
Q 1069 1734 1069 1313 
Q 1069 891 1326 650 
Q 1584 409 2034 409 
Q 2484 409 2743 651 
Q 3003 894 3003 1313 
Q 3003 1734 2745 1975 
Q 2488 2216 2034 2216 
z
M 1403 2484 
Q 997 2584 770 2862 
Q 544 3141 544 3541 
Q 544 4100 942 4425 
Q 1341 4750 2034 4750 
Q 2731 4750 3128 4425 
Q 3525 4100 3525 3541 
Q 3525 3141 3298 2862 
Q 3072 2584 2669 2484 
Q 3125 2378 3379 2068 
Q 3634 1759 3634 1313 
Q 3634 634 3220 271 
Q 2806 -91 2034 -91 
Q 1263 -91 848 271 
Q 434 634 434 1313 
Q 434 1759 690 2068 
Q 947 2378 1403 2484 
z
M 1172 3481 
Q 1172 3119 1398 2916 
Q 1625 2713 2034 2713 
Q 2441 2713 2670 2916 
Q 2900 3119 2900 3481 
Q 2900 3844 2670 4047 
Q 2441 4250 2034 4250 
Q 1625 4250 1398 4047 
Q 1172 3844 1172 3481 
z
" transform="scale(0.015625)"/>
     </defs>
     <use xlink:href="#DejaVuSans-49"/>
     <use xlink:href="#DejaVuSans-33" x="29.492188"/>
     <use xlink:href="#DejaVuSans-4c" x="93.115234"/>
     <use xlink:href="#DejaVuSans-47" x="148.828125"/>
     <use xlink:href="#DejaVuSans-47" x="226.318359"/>
     <use xlink:href="#DejaVuSans-34" x="303.808594"/>
     <use xlink:href="#DejaVuSans-20" x="367.431641"/>
     <use xlink:href="#DejaVuSans-5b" x="399.21875"/>
     <use xlink:href="#DejaVuSans-33" x="438.232422"/>
     <use xlink:href="#DejaVuSans-37" x="501.855469"/>
     <use xlink:href="#DejaVuSans-38" x="565.478516"/>
     <use xlink:href="#DejaVuSans-5d" x="629.101562"/>
    </g>
   </g>
  </g>
 </g>
</svg>
