<?xml version="1.0" encoding="utf-8" standalone="no"?>
<!DOCTYPE svg PUBLIC "-//W3C//DTD SVG 1.1//EN"
  "http://www.w3.org/Graphics/SVG/1.1/DTD/svg11.dtd">
<svg xmlns:xlink="http://www.w3.org/1999/xlink" width="353.79673pt" height="305.873611pt" viewBox="0 0 353.79673 305.873611" xmlns="http://www.w3.org/2000/svg" version="1.1">
 <metadata>
  <rdf:RDF xmlns:dc="http://purl.org/dc/elements/1.1/" xmlns:cc="http://creativecommons.org/ns#" xmlns:rdf="http://www.w3.org/1999/02/22-rdf-syntax-ns#">
   <cc:Work>
    <dc:type rdf:resource="http://purl.org/dc/dcmitype/StillImage"/>
    <dc:date>2024-09-27T16:07:27.118330</dc:date>
    <dc:format>image/svg+xml</dc:format>
    <dc:creator>
     <cc:Agent>
      <dc:title>Matplotlib v3.8.3, https://matplotlib.org/</dc:title>
     </cc:Agent>
    </dc:creator>
   </cc:Work>
  </rdf:RDF>
 </metadata>
 <defs>
  <style type="text/css">*{stroke-linejoin: round; stroke-linecap: butt}</style>
 </defs>
 <g id="figure_1">
  <g id="patch_1">
   <path d="M 0 305.873611 
L 353.79673 305.873611 
L 353.79673 0 
L 0 0 
z
" style="fill: #ffffff"/>
  </g>
  <g id="axes_1">
   <g id="patch_2">
    <path d="M 304.820917 152.730124 
C 304.820917 139.355626 302.720331 126.063735 298.596053 113.341018 
C 294.471776 100.618301 288.374753 88.621921 280.528175 77.79102 
L 177.087157 152.730124 
z
" style="fill: #1f77b4"/>
   </g>
   <g id="patch_3">
    <path d="M 280.41878 77.600544 
C 277.864774 74.075162 275.132213 70.682648 272.231798 67.436287 
C 269.331383 64.189926 266.266904 61.09396 263.050361 58.160512 
L 176.977762 152.539648 
z
" style="fill: #ff7f0e"/>
   </g>
   <g id="patch_4">
    <path d="M 262.987327 58.10062 
C 261.057669 56.340797 259.074494 54.640567 257.040598 53.002329 
C 255.006701 51.364091 252.923041 49.788615 250.792554 48.278123 
L 176.914728 152.479756 
z
" style="fill: #aec7e8"/>
   </g>
   <g id="patch_5">
    <path d="M 250.7269 48.232907 
C 247.649269 46.0509 244.476479 44.006312 241.217862 42.105158 
C 237.959246 40.204003 234.618002 38.448148 231.203959 36.842758 
L 176.849074 152.434539 
z
" style="fill: #ffbb78"/>
   </g>
   <g id="patch_6">
    <path d="M 231.108478 36.799046 
C 226.906225 34.823015 222.599342 33.077608 218.207013 31.5706 
C 213.814684 30.063592 209.343441 28.797224 204.813204 27.777138 
L 176.753593 152.390828 
z
" style="fill: #98df8a"/>
   </g>
   <g id="patch_7">
    <path d="M 204.613291 27.749027 
C 193.273002 25.195502 181.637033 24.201897 170.027986 24.795758 
C 158.418939 25.38962 146.945101 27.565408 135.924578 31.262801 
L 176.55368 152.362716 
z
" style="fill: #2ca02c"/>
   </g>
   <g id="patch_8">
    <path d="M 135.741829 31.305262 
C 132.440314 32.412922 129.185476 33.655132 125.985474 35.028777 
C 122.785472 36.402423 119.642983 37.906355 116.565882 39.536804 
L 176.370931 152.405177 
z
" style="fill: #d62728"/>
   </g>
   <g id="patch_9">
    <path d="M 116.470963 39.589611 
C 111.854509 42.035711 107.392472 44.762736 103.110005 47.755315 
C 98.827538 50.747894 94.732702 54.000394 90.848579 57.49448 
L 176.276012 152.457984 
z
" style="fill: #9467bd"/>
   </g>
   <g id="patch_10">
    <path d="M 90.773906 57.557621 
C 88.8323 59.304254 86.944719 61.110023 85.113822 62.97238 
C 83.282926 64.834738 81.509576 66.752809 79.796274 68.723888 
L 176.201339 152.521125 
z
" style="fill: #ff9896"/>
   </g>
   <g id="patch_11">
    <path d="M 79.665233 68.946747 
C 67.627198 82.795982 58.713616 99.077996 53.53297 116.681306 
C 48.352324 134.284616 47.025244 152.799334 49.642321 170.961562 
L 176.070298 152.743984 
z
" style="fill: #c5b0d5"/>
   </g>
   <g id="patch_12">
    <path d="M 49.635737 171.237567 
C 50.215204 175.259004 50.986213 179.250504 51.946133 183.198452 
C 52.906053 187.146399 54.053793 191.046299 55.385435 194.884849 
L 176.063714 153.019989 
z
" style="fill: #c49c94"/>
   </g>
   <g id="patch_13">
    <path d="M 55.412811 194.967377 
C 56.363896 197.708944 57.408129 200.417305 58.543693 203.087744 
C 59.679256 205.758184 60.90549 208.389151 62.22026 210.976066 
L 176.09109 153.102517 
z
" style="fill: #8c564b"/>
   </g>
   <g id="patch_14">
    <path d="M 62.303632 211.111443 
C 66.778411 219.915928 72.259273 228.171796 78.636277 235.713442 
C 85.013281 243.255088 92.243502 250.031747 100.181908 255.907486 
L 176.174461 153.237893 
z
" style="fill: #e377c2"/>
   </g>
   <g id="patch_15">
    <path d="M 100.301547 256.012196 
C 102.633992 257.738594 105.024591 259.385007 107.469181 260.94857 
C 109.913772 262.512133 112.410934 263.991938 114.95632 265.385409 
L 176.2941 153.342603 
z
" style="fill: #7f7f7f"/>
   </g>
   <g id="patch_16">
    <path d="M 115.043193 265.430308 
C 119.37114 267.799641 123.832736 269.916217 128.405547 271.769394 
C 132.978358 273.62257 137.654706 275.209236 142.411076 276.521412 
L 176.380973 153.387503 
z
" style="fill: #f7b6d2"/>
   </g>
   <g id="patch_17">
    <path d="M 142.59103 276.560005 
C 152.111736 279.186555 161.905026 280.700054 171.774455 281.070144 
C 181.643885 281.440234 191.52302 280.664422 201.213696 278.758272 
L 176.560927 153.426095 
z
" style="fill: #c7c7c7"/>
   </g>
   <g id="patch_18">
    <path d="M 201.436894 278.718306 
C 209.69996 277.092965 217.782074 274.654434 225.565176 271.438332 
C 233.348278 268.22223 240.794286 264.244294 247.794431 259.562633 
L 176.784125 153.386129 
z
" style="fill: #dbdb8d"/>
   </g>
   <g id="patch_19">
    <path d="M 247.997586 259.414397 
C 257.902359 252.790135 266.831663 244.812375 274.525469 235.713435 
C 282.219276 226.614495 288.602171 216.483563 293.488279 205.61566 
L 176.987279 153.237893 
z
" style="fill: #bcbd22"/>
   </g>
   <g id="patch_20">
    <path d="M 293.587027 205.43958 
C 295.372118 201.469099 296.953066 197.409956 298.323679 193.278045 
C 299.694292 189.146134 300.852779 184.946855 301.794604 180.696651 
L 177.086027 153.061813 
z
" style="fill: #17becf"/>
   </g>
   <g id="patch_21">
    <path d="M 301.818511 180.587 
C 302.823155 176.053313 303.579823 171.468213 304.085146 166.852124 
C 304.590469 162.236035 304.843694 157.595823 304.843694 152.952157 
L 177.109934 152.952162 
z
" style="fill: #9edae5"/>
   </g>
   <g id="patch_22">
    <path d="M 251.09223 152.894245 
C 251.09223 145.092455 249.866888 137.338852 247.46106 129.917267 
C 245.055231 122.495682 241.498634 115.497793 236.921464 109.179768 
L 176.58087 152.894245 
z
" style="fill: #ffffff"/>
   </g>
   <g id="patch_23">
    <path d="M 236.921464 109.179768 
C 235.431627 107.123295 233.837634 105.144329 232.145725 103.250618 
C 230.453816 101.356907 228.666203 99.550927 226.789886 97.839749 
L 176.58087 152.894245 
z
" style="fill: #ffffff"/>
   </g>
   <g id="patch_24">
    <path d="M 226.789886 97.839749 
C 225.664253 96.813186 224.5074 95.821385 223.320961 94.865746 
C 222.134521 93.910107 220.919053 92.99108 219.676269 92.10996 
L 176.58087 152.894245 
z
" style="fill: #ffffff"/>
   </g>
   <g id="patch_25">
    <path d="M 219.676269 92.10996 
C 217.880984 90.837122 216.03019 89.644446 214.12933 88.535439 
C 212.228471 87.426432 210.279412 86.402184 208.287887 85.465706 
L 176.58087 152.894245 
z
" style="fill: #ffffff"/>
   </g>
   <g id="patch_26">
    <path d="M 208.287887 85.465706 
C 205.836573 84.313021 203.324224 83.294867 200.762032 82.415779 
C 198.19984 81.536691 195.591615 80.797977 192.948977 80.202926 
L 176.58087 152.894245 
z
" style="fill: #ffffff"/>
   </g>
   <g id="patch_27">
    <path d="M 192.948977 80.202926 
C 186.333808 78.71337 179.54616 78.133767 172.774216 78.480186 
C 166.002272 78.826606 159.309199 80.095816 152.880561 82.252628 
L 176.58087 152.894245 
z
" style="fill: #ffffff"/>
   </g>
   <g id="patch_28">
    <path d="M 152.880561 82.252628 
C 150.954677 82.898763 149.056022 83.623386 147.189354 84.424679 
C 145.322686 85.225972 143.489567 86.103266 141.694592 87.054361 
L 176.58087 152.894245 
z
" style="fill: #ffffff"/>
   </g>
   <g id="patch_29">
    <path d="M 141.694592 87.054361 
C 139.00166 88.481253 136.398805 90.072017 133.9007 91.817688 
C 131.402594 93.563359 129.01394 95.460651 126.748201 97.498868 
L 176.58087 152.894245 
z
" style="fill: #ffffff"/>
   </g>
   <g id="patch_30">
    <path d="M 126.748201 97.498868 
C 125.615598 98.517737 124.514508 99.571102 123.446486 100.657477 
C 122.378463 101.743853 121.344009 102.862727 120.344583 104.012524 
L 176.58087 152.894245 
z
" style="fill: #ffffff"/>
   </g>
   <g id="patch_31">
    <path d="M 120.344583 104.012524 
C 113.322395 112.091244 108.122806 121.589086 105.100762 131.857683 
C 102.078719 142.126281 101.304589 152.926533 102.831217 163.521166 
L 176.58087 152.894245 
z
" style="fill: #ffffff"/>
   </g>
   <g id="patch_32">
    <path d="M 102.831217 163.521166 
C 103.16924 165.867004 103.618995 168.195379 104.178948 170.498348 
C 104.738902 172.801318 105.408416 175.07626 106.185208 177.315414 
L 176.58087 152.894245 
z
" style="fill: #ffffff"/>
   </g>
   <g id="patch_33">
    <path d="M 106.185208 177.315414 
C 106.740007 178.914661 107.349144 180.494538 108.011555 182.052294 
C 108.673967 183.610051 109.389271 185.144782 110.15622 186.653816 
L 176.58087 152.894245 
z
" style="fill: #ffffff"/>
   </g>
   <g id="patch_34">
    <path d="M 110.15622 186.653816 
C 112.766508 191.789765 115.963677 196.605688 119.683596 201.004982 
C 123.403515 205.404275 127.621144 209.357326 132.251881 212.784841 
L 176.58087 152.894245 
z
" style="fill: #ffffff"/>
   </g>
   <g id="patch_35">
    <path d="M 132.251881 212.784841 
C 133.612474 213.791906 135.00699 214.752314 136.433001 215.664392 
C 137.859012 216.576471 139.31569 217.43969 140.800499 218.252548 
L 176.58087 152.894245 
z
" style="fill: #ffffff"/>
   </g>
   <g id="patch_36">
    <path d="M 140.800499 218.252548 
C 143.325134 219.634659 145.927732 220.869328 148.595205 221.950348 
C 151.262679 223.031368 153.990548 223.956923 156.765097 224.722359 
L 176.58087 152.894245 
z
" style="fill: #ffffff"/>
   </g>
   <g id="patch_37">
    <path d="M 156.765097 224.722359 
C 162.318843 226.254513 168.031595 227.137388 173.788762 227.353274 
C 179.545929 227.569159 185.308758 227.116603 190.961652 226.004681 
L 176.58087 152.894245 
z
" style="fill: #ffffff"/>
   </g>
   <g id="patch_38">
    <path d="M 190.961652 226.004681 
C 195.781774 225.056566 200.496341 223.634089 205.036484 221.75803 
C 209.576626 219.881971 213.920131 217.561508 218.003549 214.830539 
L 176.58087 152.894245 
z
" style="fill: #ffffff"/>
   </g>
   <g id="patch_39">
    <path d="M 218.003549 214.830539 
C 223.781333 210.966386 228.990094 206.312693 233.478148 201.004978 
C 237.966202 195.697263 241.689557 189.787553 244.539787 183.447943 
L 176.58087 152.894245 
z
" style="fill: #ffffff"/>
   </g>
   <g id="patch_40">
    <path d="M 244.539787 183.447943 
C 245.58109 181.131829 246.503309 178.763995 247.302834 176.353714 
C 248.102358 173.943433 248.778142 171.493853 249.32754 169.014568 
L 176.58087 152.894245 
z
" style="fill: #ffffff"/>
   </g>
   <g id="patch_41">
    <path d="M 249.32754 169.014568 
C 249.913582 166.369917 250.354973 163.695275 250.649744 161.002556 
C 250.944516 158.309838 251.09223 155.603047 251.09223 152.894243 
L 176.58087 152.894245 
z
" style="fill: #ffffff"/>
   </g>
   <g id="matplotlib.axis_1"/>
   <g id="matplotlib.axis_2"/>
   <g id="text_1">
    <!-- A [46] -->
    <g transform="translate(310.746943 112.161483) scale(0.1 -0.1)">
     <defs>
      <path id="DejaVuSans-41" d="M 2188 4044 
L 1331 1722 
L 3047 1722 
L 2188 4044 
z
M 1831 4666 
L 2547 4666 
L 4325 0 
L 3669 0 
L 3244 1197 
L 1141 1197 
L 716 0 
L 50 0 
L 1831 4666 
z
" transform="scale(0.015625)"/>
      <path id="DejaVuSans-20" transform="scale(0.015625)"/>
      <path id="DejaVuSans-5b" d="M 550 4863 
L 1875 4863 
L 1875 4416 
L 1125 4416 
L 1125 -397 
L 1875 -397 
L 1875 -844 
L 550 -844 
L 550 4863 
z
" transform="scale(0.015625)"/>
      <path id="DejaVuSans-34" d="M 2419 4116 
L 825 1625 
L 2419 1625 
L 2419 4116 
z
M 2253 4666 
L 3047 4666 
L 3047 1625 
L 3713 1625 
L 3713 1100 
L 3047 1100 
L 3047 0 
L 2419 0 
L 2419 1100 
L 313 1100 
L 313 1709 
L 2253 4666 
z
" transform="scale(0.015625)"/>
      <path id="DejaVuSans-36" d="M 2113 2584 
Q 1688 2584 1439 2293 
Q 1191 2003 1191 1497 
Q 1191 994 1439 701 
Q 1688 409 2113 409 
Q 2538 409 2786 701 
Q 3034 994 3034 1497 
Q 3034 2003 2786 2293 
Q 2538 2584 2113 2584 
z
M 3366 4563 
L 3366 3988 
Q 3128 4100 2886 4159 
Q 2644 4219 2406 4219 
Q 1781 4219 1451 3797 
Q 1122 3375 1075 2522 
Q 1259 2794 1537 2939 
Q 1816 3084 2150 3084 
Q 2853 3084 3261 2657 
Q 3669 2231 3669 1497 
Q 3669 778 3244 343 
Q 2819 -91 2113 -91 
Q 1303 -91 875 529 
Q 447 1150 447 2328 
Q 447 3434 972 4092 
Q 1497 4750 2381 4750 
Q 2619 4750 2861 4703 
Q 3103 4656 3366 4563 
z
" transform="scale(0.015625)"/>
      <path id="DejaVuSans-5d" d="M 1947 4863 
L 1947 -844 
L 622 -844 
L 622 -397 
L 1369 -397 
L 1369 4416 
L 622 4416 
L 622 4863 
L 1947 4863 
z
" transform="scale(0.015625)"/>
     </defs>
     <use xlink:href="#DejaVuSans-41"/>
     <use xlink:href="#DejaVuSans-20" x="68.408203"/>
     <use xlink:href="#DejaVuSans-5b" x="100.195312"/>
     <use xlink:href="#DejaVuSans-34" x="139.208984"/>
     <use xlink:href="#DejaVuSans-36" x="202.832031"/>
     <use xlink:href="#DejaVuSans-5d" x="266.455078"/>
    </g>
   </g>
   <g id="text_2">
    <!-- C [15] -->
    <g transform="translate(281.757202 61.685326) scale(0.1 -0.1)">
     <defs>
      <path id="DejaVuSans-43" d="M 4122 4306 
L 4122 3641 
Q 3803 3938 3442 4084 
Q 3081 4231 2675 4231 
Q 1875 4231 1450 3742 
Q 1025 3253 1025 2328 
Q 1025 1406 1450 917 
Q 1875 428 2675 428 
Q 3081 428 3442 575 
Q 3803 722 4122 1019 
L 4122 359 
Q 3791 134 3420 21 
Q 3050 -91 2638 -91 
Q 1578 -91 968 557 
Q 359 1206 359 2328 
Q 359 3453 968 4101 
Q 1578 4750 2638 4750 
Q 3056 4750 3426 4639 
Q 3797 4528 4122 4306 
z
" transform="scale(0.015625)"/>
      <path id="DejaVuSans-31" d="M 794 531 
L 1825 531 
L 1825 4091 
L 703 3866 
L 703 4441 
L 1819 4666 
L 2450 4666 
L 2450 531 
L 3481 531 
L 3481 0 
L 794 0 
L 794 531 
z
" transform="scale(0.015625)"/>
      <path id="DejaVuSans-35" d="M 691 4666 
L 3169 4666 
L 3169 4134 
L 1269 4134 
L 1269 2991 
Q 1406 3038 1543 3061 
Q 1681 3084 1819 3084 
Q 2600 3084 3056 2656 
Q 3513 2228 3513 1497 
Q 3513 744 3044 326 
Q 2575 -91 1722 -91 
Q 1428 -91 1123 -41 
Q 819 9 494 109 
L 494 744 
Q 775 591 1075 516 
Q 1375 441 1709 441 
Q 2250 441 2565 725 
Q 2881 1009 2881 1497 
Q 2881 1984 2565 2268 
Q 2250 2553 1709 2553 
Q 1456 2553 1204 2497 
Q 953 2441 691 2322 
L 691 4666 
z
" transform="scale(0.015625)"/>
     </defs>
     <use xlink:href="#DejaVuSans-43"/>
     <use xlink:href="#DejaVuSans-20" x="69.824219"/>
     <use xlink:href="#DejaVuSans-5b" x="101.611328"/>
     <use xlink:href="#DejaVuSans-31" x="140.625"/>
     <use xlink:href="#DejaVuSans-35" x="204.248047"/>
     <use xlink:href="#DejaVuSans-5d" x="267.871094"/>
    </g>
   </g>
   <g id="text_3">
    <!-- D [9] -->
    <g transform="translate(265.053185 45.813961) scale(0.1 -0.1)">
     <defs>
      <path id="DejaVuSans-44" d="M 1259 4147 
L 1259 519 
L 2022 519 
Q 2988 519 3436 956 
Q 3884 1394 3884 2338 
Q 3884 3275 3436 3711 
Q 2988 4147 2022 4147 
L 1259 4147 
z
M 628 4666 
L 1925 4666 
Q 3281 4666 3915 4102 
Q 4550 3538 4550 2338 
Q 4550 1131 3912 565 
Q 3275 0 1925 0 
L 628 0 
L 628 4666 
z
" transform="scale(0.015625)"/>
      <path id="DejaVuSans-39" d="M 703 97 
L 703 672 
Q 941 559 1184 500 
Q 1428 441 1663 441 
Q 2288 441 2617 861 
Q 2947 1281 2994 2138 
Q 2813 1869 2534 1725 
Q 2256 1581 1919 1581 
Q 1219 1581 811 2004 
Q 403 2428 403 3163 
Q 403 3881 828 4315 
Q 1253 4750 1959 4750 
Q 2769 4750 3195 4129 
Q 3622 3509 3622 2328 
Q 3622 1225 3098 567 
Q 2575 -91 1691 -91 
Q 1453 -91 1209 -44 
Q 966 3 703 97 
z
M 1959 2075 
Q 2384 2075 2632 2365 
Q 2881 2656 2881 3163 
Q 2881 3666 2632 3958 
Q 2384 4250 1959 4250 
Q 1534 4250 1286 3958 
Q 1038 3666 1038 3163 
Q 1038 2656 1286 2365 
Q 1534 2075 1959 2075 
z
" transform="scale(0.015625)"/>
     </defs>
     <use xlink:href="#DejaVuSans-44"/>
     <use xlink:href="#DejaVuSans-20" x="77.001953"/>
     <use xlink:href="#DejaVuSans-5b" x="108.789062"/>
     <use xlink:href="#DejaVuSans-39" x="147.802734"/>
     <use xlink:href="#DejaVuSans-5d" x="211.425781"/>
    </g>
   </g>
   <g id="text_4">
    <!-- E [13] -->
    <g transform="translate(247.654741 33.831594) scale(0.1 -0.1)">
     <defs>
      <path id="DejaVuSans-45" d="M 628 4666 
L 3578 4666 
L 3578 4134 
L 1259 4134 
L 1259 2753 
L 3481 2753 
L 3481 2222 
L 1259 2222 
L 1259 531 
L 3634 531 
L 3634 0 
L 628 0 
L 628 4666 
z
" transform="scale(0.015625)"/>
      <path id="DejaVuSans-33" d="M 2597 2516 
Q 3050 2419 3304 2112 
Q 3559 1806 3559 1356 
Q 3559 666 3084 287 
Q 2609 -91 1734 -91 
Q 1441 -91 1130 -33 
Q 819 25 488 141 
L 488 750 
Q 750 597 1062 519 
Q 1375 441 1716 441 
Q 2309 441 2620 675 
Q 2931 909 2931 1356 
Q 2931 1769 2642 2001 
Q 2353 2234 1838 2234 
L 1294 2234 
L 1294 2753 
L 1863 2753 
Q 2328 2753 2575 2939 
Q 2822 3125 2822 3475 
Q 2822 3834 2567 4026 
Q 2313 4219 1838 4219 
Q 1578 4219 1281 4162 
Q 984 4106 628 3988 
L 628 4550 
Q 988 4650 1302 4700 
Q 1616 4750 1894 4750 
Q 2613 4750 3031 4423 
Q 3450 4097 3450 3541 
Q 3450 3153 3228 2886 
Q 3006 2619 2597 2516 
z
" transform="scale(0.015625)"/>
     </defs>
     <use xlink:href="#DejaVuSans-45"/>
     <use xlink:href="#DejaVuSans-20" x="63.183594"/>
     <use xlink:href="#DejaVuSans-5b" x="94.970703"/>
     <use xlink:href="#DejaVuSans-31" x="133.984375"/>
     <use xlink:href="#DejaVuSans-33" x="197.607422"/>
     <use xlink:href="#DejaVuSans-5d" x="261.230469"/>
    </g>
   </g>
   <g id="text_5">
    <!-- F [16] -->
    <g transform="translate(222.352355 22.247952) scale(0.1 -0.1)">
     <defs>
      <path id="DejaVuSans-46" d="M 628 4666 
L 3309 4666 
L 3309 4134 
L 1259 4134 
L 1259 2759 
L 3109 2759 
L 3109 2228 
L 1259 2228 
L 1259 0 
L 628 0 
L 628 4666 
z
" transform="scale(0.015625)"/>
     </defs>
     <use xlink:href="#DejaVuSans-46"/>
     <use xlink:href="#DejaVuSans-20" x="57.519531"/>
     <use xlink:href="#DejaVuSans-5b" x="89.306641"/>
     <use xlink:href="#DejaVuSans-31" x="128.320312"/>
     <use xlink:href="#DejaVuSans-36" x="191.943359"/>
     <use xlink:href="#DejaVuSans-5d" x="255.566406"/>
    </g>
   </g>
   <g id="text_6">
    <!-- G [40] -->
    <g transform="translate(137.920729 14.798437) scale(0.1 -0.1)">
     <defs>
      <path id="DejaVuSans-47" d="M 3809 666 
L 3809 1919 
L 2778 1919 
L 2778 2438 
L 4434 2438 
L 4434 434 
Q 4069 175 3628 42 
Q 3188 -91 2688 -91 
Q 1594 -91 976 548 
Q 359 1188 359 2328 
Q 359 3472 976 4111 
Q 1594 4750 2688 4750 
Q 3144 4750 3555 4637 
Q 3966 4525 4313 4306 
L 4313 3634 
Q 3963 3931 3569 4081 
Q 3175 4231 2741 4231 
Q 1884 4231 1454 3753 
Q 1025 3275 1025 2328 
Q 1025 1384 1454 906 
Q 1884 428 2741 428 
Q 3075 428 3337 486 
Q 3600 544 3809 666 
z
" transform="scale(0.015625)"/>
      <path id="DejaVuSans-30" d="M 2034 4250 
Q 1547 4250 1301 3770 
Q 1056 3291 1056 2328 
Q 1056 1369 1301 889 
Q 1547 409 2034 409 
Q 2525 409 2770 889 
Q 3016 1369 3016 2328 
Q 3016 3291 2770 3770 
Q 2525 4250 2034 4250 
z
M 2034 4750 
Q 2819 4750 3233 4129 
Q 3647 3509 3647 2328 
Q 3647 1150 3233 529 
Q 2819 -91 2034 -91 
Q 1250 -91 836 529 
Q 422 1150 422 2328 
Q 422 3509 836 4129 
Q 1250 4750 2034 4750 
z
" transform="scale(0.015625)"/>
     </defs>
     <use xlink:href="#DejaVuSans-47"/>
     <use xlink:href="#DejaVuSans-20" x="77.490234"/>
     <use xlink:href="#DejaVuSans-5b" x="109.277344"/>
     <use xlink:href="#DejaVuSans-34" x="148.291016"/>
     <use xlink:href="#DejaVuSans-30" x="211.914062"/>
     <use xlink:href="#DejaVuSans-5d" x="275.537109"/>
    </g>
   </g>
   <g id="text_7">
    <!-- H [12] -->
    <g transform="translate(89.720366 26.050512) scale(0.1 -0.1)">
     <defs>
      <path id="DejaVuSans-48" d="M 628 4666 
L 1259 4666 
L 1259 2753 
L 3553 2753 
L 3553 4666 
L 4184 4666 
L 4184 0 
L 3553 0 
L 3553 2222 
L 1259 2222 
L 1259 0 
L 628 0 
L 628 4666 
z
" transform="scale(0.015625)"/>
      <path id="DejaVuSans-32" d="M 1228 531 
L 3431 531 
L 3431 0 
L 469 0 
L 469 531 
Q 828 903 1448 1529 
Q 2069 2156 2228 2338 
Q 2531 2678 2651 2914 
Q 2772 3150 2772 3378 
Q 2772 3750 2511 3984 
Q 2250 4219 1831 4219 
Q 1534 4219 1204 4116 
Q 875 4013 500 3803 
L 500 4441 
Q 881 4594 1212 4672 
Q 1544 4750 1819 4750 
Q 2544 4750 2975 4387 
Q 3406 4025 3406 3419 
Q 3406 3131 3298 2873 
Q 3191 2616 2906 2266 
Q 2828 2175 2409 1742 
Q 1991 1309 1228 531 
z
" transform="scale(0.015625)"/>
     </defs>
     <use xlink:href="#DejaVuSans-48"/>
     <use xlink:href="#DejaVuSans-20" x="75.195312"/>
     <use xlink:href="#DejaVuSans-5b" x="106.982422"/>
     <use xlink:href="#DejaVuSans-31" x="145.996094"/>
     <use xlink:href="#DejaVuSans-32" x="209.619141"/>
     <use xlink:href="#DejaVuSans-5d" x="273.242188"/>
    </g>
   </g>
   <g id="text_8">
    <!-- I [18] -->
    <g transform="translate(69.137154 40.044423) scale(0.1 -0.1)">
     <defs>
      <path id="DejaVuSans-49" d="M 628 4666 
L 1259 4666 
L 1259 0 
L 628 0 
L 628 4666 
z
" transform="scale(0.015625)"/>
      <path id="DejaVuSans-38" d="M 2034 2216 
Q 1584 2216 1326 1975 
Q 1069 1734 1069 1313 
Q 1069 891 1326 650 
Q 1584 409 2034 409 
Q 2484 409 2743 651 
Q 3003 894 3003 1313 
Q 3003 1734 2745 1975 
Q 2488 2216 2034 2216 
z
M 1403 2484 
Q 997 2584 770 2862 
Q 544 3141 544 3541 
Q 544 4100 942 4425 
Q 1341 4750 2034 4750 
Q 2731 4750 3128 4425 
Q 3525 4100 3525 3541 
Q 3525 3141 3298 2862 
Q 3072 2584 2669 2484 
Q 3125 2378 3379 2068 
Q 3634 1759 3634 1313 
Q 3634 634 3220 271 
Q 2806 -91 2034 -91 
Q 1263 -91 848 271 
Q 434 634 434 1313 
Q 434 1759 690 2068 
Q 947 2378 1403 2484 
z
M 1172 3481 
Q 1172 3119 1398 2916 
Q 1625 2713 2034 2713 
Q 2441 2713 2670 2916 
Q 2900 3119 2900 3481 
Q 2900 3844 2670 4047 
Q 2441 4250 2034 4250 
Q 1625 4250 1398 4047 
Q 1172 3844 1172 3481 
z
" transform="scale(0.015625)"/>
     </defs>
     <use xlink:href="#DejaVuSans-49"/>
     <use xlink:href="#DejaVuSans-20" x="29.492188"/>
     <use xlink:href="#DejaVuSans-5b" x="61.279297"/>
     <use xlink:href="#DejaVuSans-31" x="100.292969"/>
     <use xlink:href="#DejaVuSans-38" x="163.916016"/>
     <use xlink:href="#DejaVuSans-5d" x="227.539062"/>
    </g>
   </g>
   <g id="text_9">
    <!-- K [9] -->
    <g transform="translate(52.103508 56.776881) scale(0.1 -0.1)">
     <defs>
      <path id="DejaVuSans-4b" d="M 628 4666 
L 1259 4666 
L 1259 2694 
L 3353 4666 
L 4166 4666 
L 1850 2491 
L 4331 0 
L 3500 0 
L 1259 2247 
L 1259 0 
L 628 0 
L 628 4666 
z
" transform="scale(0.015625)"/>
     </defs>
     <use xlink:href="#DejaVuSans-4b"/>
     <use xlink:href="#DejaVuSans-20" x="65.576172"/>
     <use xlink:href="#DejaVuSans-5b" x="97.363281"/>
     <use xlink:href="#DejaVuSans-39" x="136.376953"/>
     <use xlink:href="#DejaVuSans-5d" x="200"/>
    </g>
   </g>
   <g id="text_10">
    <!-- L [63] -->
    <g transform="translate(12.001113 115.834414) scale(0.1 -0.1)">
     <defs>
      <path id="DejaVuSans-4c" d="M 628 4666 
L 1259 4666 
L 1259 531 
L 3531 531 
L 3531 0 
L 628 0 
L 628 4666 
z
" transform="scale(0.015625)"/>
     </defs>
     <use xlink:href="#DejaVuSans-4c"/>
     <use xlink:href="#DejaVuSans-20" x="55.712891"/>
     <use xlink:href="#DejaVuSans-5b" x="87.5"/>
     <use xlink:href="#DejaVuSans-36" x="126.513672"/>
     <use xlink:href="#DejaVuSans-33" x="190.136719"/>
     <use xlink:href="#DejaVuSans-5d" x="253.759766"/>
    </g>
   </g>
   <g id="text_11">
    <!-- M [14] -->
    <g transform="translate(7.2 188.975673) scale(0.1 -0.1)">
     <defs>
      <path id="DejaVuSans-4d" d="M 628 4666 
L 1569 4666 
L 2759 1491 
L 3956 4666 
L 4897 4666 
L 4897 0 
L 4281 0 
L 4281 4097 
L 3078 897 
L 2444 897 
L 1241 4097 
L 1241 0 
L 628 0 
L 628 4666 
z
" transform="scale(0.015625)"/>
     </defs>
     <use xlink:href="#DejaVuSans-4d"/>
     <use xlink:href="#DejaVuSans-20" x="86.279297"/>
     <use xlink:href="#DejaVuSans-5b" x="118.066406"/>
     <use xlink:href="#DejaVuSans-31" x="157.080078"/>
     <use xlink:href="#DejaVuSans-34" x="220.703125"/>
     <use xlink:href="#DejaVuSans-5d" x="284.326172"/>
    </g>
   </g>
   <g id="text_12">
    <!-- N [10] -->
    <g transform="translate(15.601453 210.845642) scale(0.1 -0.1)">
     <defs>
      <path id="DejaVuSans-4e" d="M 628 4666 
L 1478 4666 
L 3547 763 
L 3547 4666 
L 4159 4666 
L 4159 0 
L 3309 0 
L 1241 3903 
L 1241 0 
L 628 0 
L 628 4666 
z
" transform="scale(0.015625)"/>
     </defs>
     <use xlink:href="#DejaVuSans-4e"/>
     <use xlink:href="#DejaVuSans-20" x="74.804688"/>
     <use xlink:href="#DejaVuSans-5b" x="106.591797"/>
     <use xlink:href="#DejaVuSans-31" x="145.605469"/>
     <use xlink:href="#DejaVuSans-30" x="209.228516"/>
     <use xlink:href="#DejaVuSans-5d" x="272.851562"/>
    </g>
   </g>
   <g id="text_13">
    <!-- P [34] -->
    <g transform="translate(39.146521 246.720371) scale(0.1 -0.1)">
     <defs>
      <path id="DejaVuSans-50" d="M 1259 4147 
L 1259 2394 
L 2053 2394 
Q 2494 2394 2734 2622 
Q 2975 2850 2975 3272 
Q 2975 3691 2734 3919 
Q 2494 4147 2053 4147 
L 1259 4147 
z
M 628 4666 
L 2053 4666 
Q 2838 4666 3239 4311 
Q 3641 3956 3641 3272 
Q 3641 2581 3239 2228 
Q 2838 1875 2053 1875 
L 1259 1875 
L 1259 0 
L 628 0 
L 628 4666 
z
" transform="scale(0.015625)"/>
     </defs>
     <use xlink:href="#DejaVuSans-50"/>
     <use xlink:href="#DejaVuSans-20" x="60.302734"/>
     <use xlink:href="#DejaVuSans-5b" x="92.089844"/>
     <use xlink:href="#DejaVuSans-33" x="131.103516"/>
     <use xlink:href="#DejaVuSans-34" x="194.726562"/>
     <use xlink:href="#DejaVuSans-5d" x="258.349609"/>
    </g>
   </g>
   <g id="text_14">
    <!-- Q [10] -->
    <g transform="translate(69.008565 274.468542) scale(0.1 -0.1)">
     <defs>
      <path id="DejaVuSans-51" d="M 2522 4238 
Q 1834 4238 1429 3725 
Q 1025 3213 1025 2328 
Q 1025 1447 1429 934 
Q 1834 422 2522 422 
Q 3209 422 3611 934 
Q 4013 1447 4013 2328 
Q 4013 3213 3611 3725 
Q 3209 4238 2522 4238 
z
M 3406 84 
L 4238 -825 
L 3475 -825 
L 2784 -78 
Q 2681 -84 2626 -87 
Q 2572 -91 2522 -91 
Q 1538 -91 948 567 
Q 359 1225 359 2328 
Q 359 3434 948 4092 
Q 1538 4750 2522 4750 
Q 3503 4750 4090 4092 
Q 4678 3434 4678 2328 
Q 4678 1516 4351 937 
Q 4025 359 3406 84 
z
" transform="scale(0.015625)"/>
     </defs>
     <use xlink:href="#DejaVuSans-51"/>
     <use xlink:href="#DejaVuSans-20" x="78.710938"/>
     <use xlink:href="#DejaVuSans-5b" x="110.498047"/>
     <use xlink:href="#DejaVuSans-31" x="149.511719"/>
     <use xlink:href="#DejaVuSans-30" x="213.134766"/>
     <use xlink:href="#DejaVuSans-5d" x="276.757812"/>
    </g>
   </g>
   <g id="text_15">
    <!-- R [17] -->
    <g transform="translate(92.953317 286.366958) scale(0.1 -0.1)">
     <defs>
      <path id="DejaVuSans-52" d="M 2841 2188 
Q 3044 2119 3236 1894 
Q 3428 1669 3622 1275 
L 4263 0 
L 3584 0 
L 2988 1197 
Q 2756 1666 2539 1819 
Q 2322 1972 1947 1972 
L 1259 1972 
L 1259 0 
L 628 0 
L 628 4666 
L 2053 4666 
Q 2853 4666 3247 4331 
Q 3641 3997 3641 3322 
Q 3641 2881 3436 2590 
Q 3231 2300 2841 2188 
z
M 1259 4147 
L 1259 2491 
L 2053 2491 
Q 2509 2491 2742 2702 
Q 2975 2913 2975 3322 
Q 2975 3731 2742 3939 
Q 2509 4147 2053 4147 
L 1259 4147 
z
" transform="scale(0.015625)"/>
      <path id="DejaVuSans-37" d="M 525 4666 
L 3525 4666 
L 3525 4397 
L 1831 0 
L 1172 0 
L 2766 4134 
L 525 4134 
L 525 4666 
z
" transform="scale(0.015625)"/>
     </defs>
     <use xlink:href="#DejaVuSans-52"/>
     <use xlink:href="#DejaVuSans-20" x="69.482422"/>
     <use xlink:href="#DejaVuSans-5b" x="101.269531"/>
     <use xlink:href="#DejaVuSans-31" x="140.283203"/>
     <use xlink:href="#DejaVuSans-37" x="203.90625"/>
     <use xlink:href="#DejaVuSans-5d" x="267.529297"/>
    </g>
   </g>
   <g id="text_16">
    <!-- S [34] -->
    <g transform="translate(141.241121 296.593924) scale(0.1 -0.1)">
     <defs>
      <path id="DejaVuSans-53" d="M 3425 4513 
L 3425 3897 
Q 3066 4069 2747 4153 
Q 2428 4238 2131 4238 
Q 1616 4238 1336 4038 
Q 1056 3838 1056 3469 
Q 1056 3159 1242 3001 
Q 1428 2844 1947 2747 
L 2328 2669 
Q 3034 2534 3370 2195 
Q 3706 1856 3706 1288 
Q 3706 609 3251 259 
Q 2797 -91 1919 -91 
Q 1588 -91 1214 -16 
Q 841 59 441 206 
L 441 856 
Q 825 641 1194 531 
Q 1563 422 1919 422 
Q 2459 422 2753 634 
Q 3047 847 3047 1241 
Q 3047 1584 2836 1778 
Q 2625 1972 2144 2069 
L 1759 2144 
Q 1053 2284 737 2584 
Q 422 2884 422 3419 
Q 422 4038 858 4394 
Q 1294 4750 2059 4750 
Q 2388 4750 2728 4690 
Q 3069 4631 3425 4513 
z
" transform="scale(0.015625)"/>
     </defs>
     <use xlink:href="#DejaVuSans-53"/>
     <use xlink:href="#DejaVuSans-20" x="63.476562"/>
     <use xlink:href="#DejaVuSans-5b" x="95.263672"/>
     <use xlink:href="#DejaVuSans-33" x="134.277344"/>
     <use xlink:href="#DejaVuSans-34" x="197.900391"/>
     <use xlink:href="#DejaVuSans-5d" x="261.523438"/>
    </g>
   </g>
   <g id="text_17">
    <!-- T [29] -->
    <g transform="translate(230.443281 286.002927) scale(0.1 -0.1)">
     <defs>
      <path id="DejaVuSans-54" d="M -19 4666 
L 3928 4666 
L 3928 4134 
L 2272 4134 
L 2272 0 
L 1638 0 
L 1638 4134 
L -19 4134 
L -19 4666 
z
" transform="scale(0.015625)"/>
     </defs>
     <use xlink:href="#DejaVuSans-54"/>
     <use xlink:href="#DejaVuSans-20" x="61.083984"/>
     <use xlink:href="#DejaVuSans-5b" x="92.871094"/>
     <use xlink:href="#DejaVuSans-32" x="131.884766"/>
     <use xlink:href="#DejaVuSans-39" x="195.507812"/>
     <use xlink:href="#DejaVuSans-5d" x="259.130859"/>
    </g>
   </g>
   <g id="text_18">
    <!-- V [41] -->
    <g transform="translate(284.279288 246.720364) scale(0.1 -0.1)">
     <defs>
      <path id="DejaVuSans-56" d="M 1831 0 
L 50 4666 
L 709 4666 
L 2188 738 
L 3669 4666 
L 4325 4666 
L 2547 0 
L 1831 0 
z
" transform="scale(0.015625)"/>
     </defs>
     <use xlink:href="#DejaVuSans-56"/>
     <use xlink:href="#DejaVuSans-20" x="68.408203"/>
     <use xlink:href="#DejaVuSans-5b" x="100.195312"/>
     <use xlink:href="#DejaVuSans-34" x="139.208984"/>
     <use xlink:href="#DejaVuSans-31" x="202.832031"/>
     <use xlink:href="#DejaVuSans-5d" x="266.455078"/>
    </g>
   </g>
   <g id="text_19">
    <!-- W [15] -->
    <g transform="translate(310.447444 200.059043) scale(0.1 -0.1)">
     <defs>
      <path id="DejaVuSans-57" d="M 213 4666 
L 850 4666 
L 1831 722 
L 2809 4666 
L 3519 4666 
L 4500 722 
L 5478 4666 
L 6119 4666 
L 4947 0 
L 4153 0 
L 3169 4050 
L 2175 0 
L 1381 0 
L 213 4666 
z
" transform="scale(0.015625)"/>
     </defs>
     <use xlink:href="#DejaVuSans-57"/>
     <use xlink:href="#DejaVuSans-20" x="98.876953"/>
     <use xlink:href="#DejaVuSans-5b" x="130.664062"/>
     <use xlink:href="#DejaVuSans-31" x="169.677734"/>
     <use xlink:href="#DejaVuSans-35" x="233.300781"/>
     <use xlink:href="#DejaVuSans-5d" x="296.923828"/>
    </g>
   </g>
   <g id="text_20">
    <!-- Y [16] -->
    <g transform="translate(316.782667 171.001495) scale(0.1 -0.1)">
     <defs>
      <path id="DejaVuSans-59" d="M -13 4666 
L 666 4666 
L 1959 2747 
L 3244 4666 
L 3922 4666 
L 2272 2222 
L 2272 0 
L 1638 0 
L 1638 2222 
L -13 4666 
z
" transform="scale(0.015625)"/>
     </defs>
     <use xlink:href="#DejaVuSans-59"/>
     <use xlink:href="#DejaVuSans-20" x="61.083984"/>
     <use xlink:href="#DejaVuSans-5b" x="92.871094"/>
     <use xlink:href="#DejaVuSans-31" x="131.884766"/>
     <use xlink:href="#DejaVuSans-36" x="195.507812"/>
     <use xlink:href="#DejaVuSans-5d" x="259.130859"/>
    </g>
   </g>
   <g id="text_21">
    <!-- M3WD20 [461] -->
    <g transform="translate(131.357745 152.894245) scale(0.12 -0.12)">
     <use xlink:href="#DejaVuSans-4d"/>
     <use xlink:href="#DejaVuSans-33" x="86.279297"/>
     <use xlink:href="#DejaVuSans-57" x="149.902344"/>
     <use xlink:href="#DejaVuSans-44" x="248.779297"/>
     <use xlink:href="#DejaVuSans-32" x="325.78125"/>
     <use xlink:href="#DejaVuSans-30" x="389.404297"/>
     <use xlink:href="#DejaVuSans-20" x="453.027344"/>
     <use xlink:href="#DejaVuSans-5b" x="484.814453"/>
     <use xlink:href="#DejaVuSans-34" x="523.828125"/>
     <use xlink:href="#DejaVuSans-36" x="587.451172"/>
     <use xlink:href="#DejaVuSans-31" x="651.074219"/>
     <use xlink:href="#DejaVuSans-5d" x="714.697266"/>
    </g>
   </g>
  </g>
 </g>
</svg>
