<?xml version="1.0" encoding="utf-8" standalone="no"?>
<!DOCTYPE svg PUBLIC "-//W3C//DTD SVG 1.1//EN"
  "http://www.w3.org/Graphics/SVG/1.1/DTD/svg11.dtd">
<svg xmlns:xlink="http://www.w3.org/1999/xlink" width="353.735407pt" height="303.481301pt" viewBox="0 0 353.735407 303.481301" xmlns="http://www.w3.org/2000/svg" version="1.1">
 <metadata>
  <rdf:RDF xmlns:dc="http://purl.org/dc/elements/1.1/" xmlns:cc="http://creativecommons.org/ns#" xmlns:rdf="http://www.w3.org/1999/02/22-rdf-syntax-ns#">
   <cc:Work>
    <dc:type rdf:resource="http://purl.org/dc/dcmitype/StillImage"/>
    <dc:date>2024-09-27T16:07:27.432920</dc:date>
    <dc:format>image/svg+xml</dc:format>
    <dc:creator>
     <cc:Agent>
      <dc:title>Matplotlib v3.8.3, https://matplotlib.org/</dc:title>
     </cc:Agent>
    </dc:creator>
   </cc:Work>
  </rdf:RDF>
 </metadata>
 <defs>
  <style type="text/css">*{stroke-linejoin: round; stroke-linecap: butt}</style>
 </defs>
 <g id="figure_1">
  <g id="patch_1">
   <path d="M -0 303.481301 
L 353.735407 303.481301 
L 353.735407 0 
L -0 0 
z
" style="fill: #ffffff"/>
  </g>
  <g id="axes_1">
   <g id="patch_2">
    <path d="M 305.111107 152.561926 
C 305.111107 138.116746 302.660738 123.775669 297.86445 110.15 
C 293.068162 96.524332 285.995087 83.810465 276.946722 72.550345 
L 177.377347 152.561926 
z
" style="fill: #1f77b4"/>
   </g>
   <g id="patch_3">
    <path d="M 276.825899 72.355653 
C 274.279373 69.186662 271.58301 66.14105 268.746018 63.229217 
C 265.909026 60.317385 262.934638 57.542651 259.833014 54.914492 
L 177.256524 152.367234 
z
" style="fill: #ff7f0e"/>
   </g>
   <g id="patch_4">
    <path d="M 259.747975 54.843694 
C 256.082143 51.737454 252.243961 48.840532 248.251732 46.166741 
C 244.259503 43.49295 240.119585 41.046548 235.85172 38.839203 
L 177.171485 152.296435 
z
" style="fill: #aec7e8"/>
   </g>
   <g id="patch_5">
    <path d="M 235.745277 38.784151 
C 231.477412 36.576805 227.088396 34.61203 222.599159 32.899195 
C 218.109923 31.186361 213.527614 29.728194 208.874085 28.531649 
L 177.065043 152.241383 
z
" style="fill: #ffbb78"/>
   </g>
   <g id="patch_6">
    <path d="M 208.721281 28.497966 
C 201.200838 26.564262 193.519709 25.320342 185.773348 24.781666 
C 178.026987 24.24299 170.247618 24.411798 162.531916 25.285993 
L 176.912239 152.2077 
z
" style="fill: #98df8a"/>
   </g>
   <g id="patch_7">
    <path d="M 162.357988 25.302647 
C 156.113431 26.01016 149.929594 27.177558 143.856876 28.795328 
C 137.784159 30.413097 131.839104 32.476829 126.070167 34.969706 
L 176.738312 152.224354 
z
" style="fill: #2ca02c"/>
   </g>
   <g id="patch_8">
    <path d="M 125.950448 35.01778 
C 122.218589 36.630393 118.565844 38.420248 115.004687 40.381231 
C 111.44353 42.342215 107.978021 44.472092 104.619995 46.763588 
L 176.618593 152.272429 
z
" style="fill: #d62728"/>
   </g>
   <g id="patch_9">
    <path d="M 104.522197 46.832843 
C 99.942325 49.95812 95.570798 53.378286 91.435366 57.071629 
C 87.299933 60.764973 83.409363 64.723664 79.78835 68.922576 
L 176.520795 152.341683 
z
" style="fill: #9467bd"/>
   </g>
   <g id="patch_10">
    <path d="M 79.708525 69.011955 
C 77.053548 72.090655 74.547063 75.29435 72.19763 78.612099 
C 69.848197 81.929847 67.658493 85.357868 65.635998 88.884454 
L 176.44097 152.431063 
z
" style="fill: #ff9896"/>
   </g>
   <g id="patch_11">
    <path d="M 65.540544 89.141302 
C 56.499159 104.906589 50.92564 122.421449 49.193342 140.512609 
C 47.461045 158.603768 49.609534 176.85804 55.494888 194.052618 
L 176.345517 152.687911 
z
" style="fill: #c5b0d5"/>
   </g>
   <g id="patch_12">
    <path d="M 55.536128 194.314466 
C 56.613207 197.461248 57.812782 200.564761 59.13211 203.617909 
C 60.451438 206.671056 61.889513 209.671509 63.443045 212.612406 
L 176.386756 152.949759 
z
" style="fill: #c49c94"/>
   </g>
   <g id="patch_13">
    <path d="M 63.494606 212.705087 
C 65.911647 217.28064 68.604503 221.705091 71.55828 225.95397 
C 74.512058 230.20285 77.721303 234.268312 81.168267 238.127874 
L 176.438317 153.04244 
z
" style="fill: #8c564b"/>
   </g>
   <g id="patch_14">
    <path d="M 81.268298 238.236039 
C 85.700998 243.199328 90.514788 247.808641 95.665689 252.021868 
C 100.816591 256.235095 106.28887 260.039367 112.032535 263.39993 
L 176.538348 153.150606 
z
" style="fill: #e377c2"/>
   </g>
   <g id="patch_15">
    <path d="M 112.133245 263.464877 
C 114.684945 264.957852 117.287708 266.361789 119.936831 267.674151 
C 122.585953 268.986514 125.279839 270.206511 128.013621 271.331937 
L 176.639058 153.215553 
z
" style="fill: #7f7f7f"/>
   </g>
   <g id="patch_16">
    <path d="M 128.15342 271.378436 
C 136.361345 274.757425 144.89917 277.271675 153.628408 278.880403 
C 162.357646 280.489131 171.230844 281.183592 180.104074 280.952523 
L 176.778857 153.262052 
z
" style="fill: #f7b6d2"/>
   </g>
   <g id="patch_17">
    <path d="M 180.328593 280.945701 
C 189.57225 280.704985 198.762499 279.461241 207.737632 277.236354 
C 216.712764 275.011466 225.419827 271.818563 233.705613 267.713824 
L 177.003377 153.25523 
z
" style="fill: #c7c7c7"/>
   </g>
   <g id="patch_18">
    <path d="M 233.86211 267.647003 
C 237.836292 265.678213 241.70524 263.503772 245.453229 261.13252 
C 249.201218 258.761267 252.823165 256.196418 256.304349 253.448398 
L 177.159873 153.188409 
z
" style="fill: #dbdb8d"/>
   </g>
   <g id="patch_19">
    <path d="M 256.437544 253.328399 
C 264.277387 247.139686 271.364351 240.052721 277.553064 232.212877 
C 283.741776 224.373034 288.989627 215.834287 293.18897 206.771792 
L 177.293068 153.068411 
z
" style="fill: #bcbd22"/>
   </g>
   <g id="patch_20">
    <path d="M 293.271697 206.623089 
C 294.825478 203.269914 296.233003 199.850886 297.490299 196.375655 
C 298.747594 192.900424 299.853477 189.372265 300.804823 185.801137 
L 177.375795 152.919708 
z
" style="fill: #17becf"/>
   </g>
   <g id="patch_21">
    <path d="M 300.832067 185.689158 
C 302.259367 180.331415 303.336304 174.886419 304.056044 169.388732 
C 304.775783 163.891044 305.136799 158.352322 305.136798 152.807722 
L 177.403038 152.807729 
z
" style="fill: #9edae5"/>
   </g>
   <g id="patch_22">
    <path d="M 251.386678 152.738642 
C 251.386678 144.312287 249.957296 135.946659 247.159461 127.998352 
C 244.361626 120.050046 240.235666 112.633624 234.957453 106.06522 
L 176.875318 152.738642 
z
" style="fill: #ffffff"/>
   </g>
   <g id="patch_23">
    <path d="M 234.957453 106.06522 
C 233.47198 104.216642 231.899101 102.440035 230.244189 100.741466 
C 228.589277 99.042897 226.854218 97.424302 225.044937 95.89121 
L 176.875318 152.738642 
z
" style="fill: #ffffff"/>
   </g>
   <g id="patch_24">
    <path d="M 225.044937 95.89121 
C 222.906535 94.079237 220.667595 92.389365 218.338795 90.829654 
C 216.009995 89.269942 213.595042 87.842875 211.105454 86.555256 
L 176.875318 152.738642 
z
" style="fill: #ffffff"/>
   </g>
   <g id="patch_25">
    <path d="M 211.105454 86.555256 
C 208.615866 85.267638 206.055607 84.121519 203.436885 83.122366 
C 200.818164 82.123212 198.14515 81.272615 195.430592 80.57463 
L 176.875318 152.738642 
z
" style="fill: #ffffff"/>
   </g>
   <g id="patch_26">
    <path d="M 195.430592 80.57463 
C 191.043667 79.446636 186.563008 78.721016 182.044298 78.406789 
C 177.525588 78.092561 172.987622 78.191032 168.486796 78.700979 
L 176.875318 152.738642 
z
" style="fill: #ffffff"/>
   </g>
   <g id="patch_27">
    <path d="M 168.486796 78.700979 
C 164.844137 79.113695 161.236899 79.794678 157.69448 80.738376 
C 154.152062 81.682075 150.684113 82.885919 147.3189 84.340097 
L 176.875318 152.738642 
z
" style="fill: #ffffff"/>
   </g>
   <g id="patch_28">
    <path d="M 147.3189 84.340097 
C 145.141982 85.280788 143.011214 86.32487 140.933872 87.468777 
C 138.856531 88.612684 136.834984 89.855112 134.876136 91.191818 
L 176.875318 152.738642 
z
" style="fill: #ffffff"/>
   </g>
   <g id="patch_29">
    <path d="M 134.876136 91.191818 
C 132.204543 93.014897 129.654486 95.009993 127.24215 97.164444 
C 124.829815 99.318894 122.560315 101.628131 120.448058 104.077496 
L 176.875318 152.738642 
z
" style="fill: #ffffff"/>
   </g>
   <g id="patch_30">
    <path d="M 120.448058 104.077496 
C 118.899321 105.873404 117.437205 107.742226 116.066702 109.677579 
C 114.6962 111.612933 113.418873 113.612612 112.239084 115.669787 
L 176.875318 152.738642 
z
" style="fill: #ffffff"/>
   </g>
   <g id="patch_31">
    <path d="M 112.239084 115.669787 
C 106.964942 124.866204 103.713722 135.083206 102.703216 145.636382 
C 101.692709 156.189558 102.945994 166.837884 106.379117 176.868054 
L 176.875318 152.738642 
z
" style="fill: #ffffff"/>
   </g>
   <g id="patch_32">
    <path d="M 106.379117 176.868054 
C 107.007414 178.703677 107.707166 180.51406 108.476774 182.295062 
C 109.246382 184.076065 110.085259 185.826329 110.991486 187.541852 
L 176.875318 152.738642 
z
" style="fill: #ffffff"/>
   </g>
   <g id="patch_33">
    <path d="M 110.991486 187.541852 
C 112.401427 190.210925 113.972259 192.791855 115.695296 195.270368 
C 117.418333 197.748881 119.290392 200.120401 121.301122 202.371812 
L 176.875318 152.738642 
z
" style="fill: #ffffff"/>
   </g>
   <g id="patch_34">
    <path d="M 121.301122 202.371812 
C 123.886864 205.267063 126.694907 207.955829 129.6996 210.413545 
C 132.704292 212.871261 135.896455 215.09042 139.246927 217.050748 
L 176.875318 152.738642 
z
" style="fill: #ffffff"/>
   </g>
   <g id="patch_35">
    <path d="M 139.246927 217.050748 
C 140.735418 217.92165 142.253696 218.740613 143.799018 219.506158 
C 145.34434 220.271703 146.915773 220.983367 148.510479 221.639866 
L 176.875318 152.738642 
z
" style="fill: #ffffff"/>
   </g>
   <g id="patch_36">
    <path d="M 148.510479 221.639866 
C 153.298435 223.610943 158.278833 225.077589 163.370889 226.016013 
C 168.462945 226.954438 173.638976 227.359541 178.815027 227.22475 
L 176.875318 152.738642 
z
" style="fill: #ffffff"/>
   </g>
   <g id="patch_37">
    <path d="M 178.815027 227.22475 
C 184.20716 227.084332 189.568139 226.358815 194.803633 225.060964 
C 200.039127 223.763113 205.118247 221.900586 209.951622 219.506155 
L 176.875318 152.738642 
z
" style="fill: #ffffff"/>
   </g>
   <g id="patch_38">
    <path d="M 209.951622 219.506155 
C 212.269895 218.357694 214.526781 217.089271 216.713108 215.70604 
C 218.899435 214.322809 221.012238 212.826647 223.042929 211.223635 
L 176.875318 152.738642 
z
" style="fill: #ffffff"/>
   </g>
   <g id="patch_39">
    <path d="M 223.042929 211.223635 
C 227.61617 207.613553 231.750233 203.47949 235.360315 198.906248 
C 238.970397 194.333006 242.031644 189.35207 244.481261 184.065614 
L 176.875318 152.738642 
z
" style="fill: #ffffff"/>
   </g>
   <g id="patch_40">
    <path d="M 244.481261 184.065614 
C 245.387633 182.109595 246.208689 180.115162 246.942112 178.087944 
C 247.675534 176.060726 248.320632 174.002633 248.875584 171.919475 
L 176.875318 152.738642 
z
" style="fill: #ffffff"/>
   </g>
   <g id="patch_41">
    <path d="M 248.875584 171.919475 
C 249.708176 168.794125 250.336389 165.617878 250.756237 162.410893 
C 251.176085 159.203909 251.386678 155.972988 251.386678 152.738638 
L 176.875318 152.738642 
z
" style="fill: #ffffff"/>
   </g>
   <g id="matplotlib.axis_1"/>
   <g id="matplotlib.axis_2"/>
   <g id="text_1">
    <!-- A [39] -->
    <g transform="translate(309.913161 108.668183) scale(0.1 -0.1)">
     <defs>
      <path id="DejaVuSans-41" d="M 2188 4044 
L 1331 1722 
L 3047 1722 
L 2188 4044 
z
M 1831 4666 
L 2547 4666 
L 4325 0 
L 3669 0 
L 3244 1197 
L 1141 1197 
L 716 0 
L 50 0 
L 1831 4666 
z
" transform="scale(0.015625)"/>
      <path id="DejaVuSans-20" transform="scale(0.015625)"/>
      <path id="DejaVuSans-5b" d="M 550 4863 
L 1875 4863 
L 1875 4416 
L 1125 4416 
L 1125 -397 
L 1875 -397 
L 1875 -844 
L 550 -844 
L 550 4863 
z
" transform="scale(0.015625)"/>
      <path id="DejaVuSans-33" d="M 2597 2516 
Q 3050 2419 3304 2112 
Q 3559 1806 3559 1356 
Q 3559 666 3084 287 
Q 2609 -91 1734 -91 
Q 1441 -91 1130 -33 
Q 819 25 488 141 
L 488 750 
Q 750 597 1062 519 
Q 1375 441 1716 441 
Q 2309 441 2620 675 
Q 2931 909 2931 1356 
Q 2931 1769 2642 2001 
Q 2353 2234 1838 2234 
L 1294 2234 
L 1294 2753 
L 1863 2753 
Q 2328 2753 2575 2939 
Q 2822 3125 2822 3475 
Q 2822 3834 2567 4026 
Q 2313 4219 1838 4219 
Q 1578 4219 1281 4162 
Q 984 4106 628 3988 
L 628 4550 
Q 988 4650 1302 4700 
Q 1616 4750 1894 4750 
Q 2613 4750 3031 4423 
Q 3450 4097 3450 3541 
Q 3450 3153 3228 2886 
Q 3006 2619 2597 2516 
z
" transform="scale(0.015625)"/>
      <path id="DejaVuSans-39" d="M 703 97 
L 703 672 
Q 941 559 1184 500 
Q 1428 441 1663 441 
Q 2288 441 2617 861 
Q 2947 1281 2994 2138 
Q 2813 1869 2534 1725 
Q 2256 1581 1919 1581 
Q 1219 1581 811 2004 
Q 403 2428 403 3163 
Q 403 3881 828 4315 
Q 1253 4750 1959 4750 
Q 2769 4750 3195 4129 
Q 3622 3509 3622 2328 
Q 3622 1225 3098 567 
Q 2575 -91 1691 -91 
Q 1453 -91 1209 -44 
Q 966 3 703 97 
z
M 1959 2075 
Q 2384 2075 2632 2365 
Q 2881 2656 2881 3163 
Q 2881 3666 2632 3958 
Q 2384 4250 1959 4250 
Q 1534 4250 1286 3958 
Q 1038 3666 1038 3163 
Q 1038 2656 1286 2365 
Q 1534 2075 1959 2075 
z
" transform="scale(0.015625)"/>
      <path id="DejaVuSans-5d" d="M 1947 4863 
L 1947 -844 
L 622 -844 
L 622 -397 
L 1369 -397 
L 1369 4416 
L 622 4416 
L 622 4863 
L 1947 4863 
z
" transform="scale(0.015625)"/>
     </defs>
     <use xlink:href="#DejaVuSans-41"/>
     <use xlink:href="#DejaVuSans-20" x="68.408203"/>
     <use xlink:href="#DejaVuSans-5b" x="100.195312"/>
     <use xlink:href="#DejaVuSans-33" x="139.208984"/>
     <use xlink:href="#DejaVuSans-39" x="202.832031"/>
     <use xlink:href="#DejaVuSans-5d" x="266.455078"/>
    </g>
   </g>
   <g id="text_2">
    <!-- C [11] -->
    <g transform="translate(277.894967 57.074791) scale(0.1 -0.1)">
     <defs>
      <path id="DejaVuSans-43" d="M 4122 4306 
L 4122 3641 
Q 3803 3938 3442 4084 
Q 3081 4231 2675 4231 
Q 1875 4231 1450 3742 
Q 1025 3253 1025 2328 
Q 1025 1406 1450 917 
Q 1875 428 2675 428 
Q 3081 428 3442 575 
Q 3803 722 4122 1019 
L 4122 359 
Q 3791 134 3420 21 
Q 3050 -91 2638 -91 
Q 1578 -91 968 557 
Q 359 1206 359 2328 
Q 359 3453 968 4101 
Q 1578 4750 2638 4750 
Q 3056 4750 3426 4639 
Q 3797 4528 4122 4306 
z
" transform="scale(0.015625)"/>
      <path id="DejaVuSans-31" d="M 794 531 
L 1825 531 
L 1825 4091 
L 703 3866 
L 703 4441 
L 1819 4666 
L 2450 4666 
L 2450 531 
L 3481 531 
L 3481 0 
L 794 0 
L 794 531 
z
" transform="scale(0.015625)"/>
     </defs>
     <use xlink:href="#DejaVuSans-43"/>
     <use xlink:href="#DejaVuSans-20" x="69.824219"/>
     <use xlink:href="#DejaVuSans-5b" x="101.611328"/>
     <use xlink:href="#DejaVuSans-31" x="140.625"/>
     <use xlink:href="#DejaVuSans-31" x="204.248047"/>
     <use xlink:href="#DejaVuSans-5d" x="267.871094"/>
    </g>
   </g>
   <g id="text_3">
    <!-- D [13] -->
    <g transform="translate(255.359757 38.313146) scale(0.1 -0.1)">
     <defs>
      <path id="DejaVuSans-44" d="M 1259 4147 
L 1259 519 
L 2022 519 
Q 2988 519 3436 956 
Q 3884 1394 3884 2338 
Q 3884 3275 3436 3711 
Q 2988 4147 2022 4147 
L 1259 4147 
z
M 628 4666 
L 1925 4666 
Q 3281 4666 3915 4102 
Q 4550 3538 4550 2338 
Q 4550 1131 3912 565 
Q 3275 0 1925 0 
L 628 0 
L 628 4666 
z
" transform="scale(0.015625)"/>
     </defs>
     <use xlink:href="#DejaVuSans-44"/>
     <use xlink:href="#DejaVuSans-20" x="77.001953"/>
     <use xlink:href="#DejaVuSans-5b" x="108.789062"/>
     <use xlink:href="#DejaVuSans-31" x="147.802734"/>
     <use xlink:href="#DejaVuSans-33" x="211.425781"/>
     <use xlink:href="#DejaVuSans-5d" x="275.048828"/>
    </g>
   </g>
   <g id="text_4">
    <!-- E [13] -->
    <g transform="translate(227.152571 23.724352) scale(0.1 -0.1)">
     <defs>
      <path id="DejaVuSans-45" d="M 628 4666 
L 3578 4666 
L 3578 4134 
L 1259 4134 
L 1259 2753 
L 3481 2753 
L 3481 2222 
L 1259 2222 
L 1259 531 
L 3634 531 
L 3634 0 
L 628 0 
L 628 4666 
z
" transform="scale(0.015625)"/>
     </defs>
     <use xlink:href="#DejaVuSans-45"/>
     <use xlink:href="#DejaVuSans-20" x="63.183594"/>
     <use xlink:href="#DejaVuSans-5b" x="94.970703"/>
     <use xlink:href="#DejaVuSans-31" x="133.984375"/>
     <use xlink:href="#DejaVuSans-33" x="197.607422"/>
     <use xlink:href="#DejaVuSans-5d" x="261.230469"/>
    </g>
   </g>
   <g id="text_5">
    <!-- F [21] -->
    <g transform="translate(186.659459 14.798437) scale(0.1 -0.1)">
     <defs>
      <path id="DejaVuSans-46" d="M 628 4666 
L 3309 4666 
L 3309 4134 
L 1259 4134 
L 1259 2759 
L 3109 2759 
L 3109 2228 
L 1259 2228 
L 1259 0 
L 628 0 
L 628 4666 
z
" transform="scale(0.015625)"/>
      <path id="DejaVuSans-32" d="M 1228 531 
L 3431 531 
L 3431 0 
L 469 0 
L 469 531 
Q 828 903 1448 1529 
Q 2069 2156 2228 2338 
Q 2531 2678 2651 2914 
Q 2772 3150 2772 3378 
Q 2772 3750 2511 3984 
Q 2250 4219 1831 4219 
Q 1534 4219 1204 4116 
Q 875 4013 500 3803 
L 500 4441 
Q 881 4594 1212 4672 
Q 1544 4750 1819 4750 
Q 2544 4750 2975 4387 
Q 3406 4025 3406 3419 
Q 3406 3131 3298 2873 
Q 3191 2616 2906 2266 
Q 2828 2175 2409 1742 
Q 1991 1309 1228 531 
z
" transform="scale(0.015625)"/>
     </defs>
     <use xlink:href="#DejaVuSans-46"/>
     <use xlink:href="#DejaVuSans-20" x="57.519531"/>
     <use xlink:href="#DejaVuSans-5b" x="89.306641"/>
     <use xlink:href="#DejaVuSans-32" x="128.320312"/>
     <use xlink:href="#DejaVuSans-31" x="191.943359"/>
     <use xlink:href="#DejaVuSans-5d" x="255.566406"/>
    </g>
   </g>
   <g id="text_6">
    <!-- G [17] -->
    <g transform="translate(109.114045 19.2118) scale(0.1 -0.1)">
     <defs>
      <path id="DejaVuSans-47" d="M 3809 666 
L 3809 1919 
L 2778 1919 
L 2778 2438 
L 4434 2438 
L 4434 434 
Q 4069 175 3628 42 
Q 3188 -91 2688 -91 
Q 1594 -91 976 548 
Q 359 1188 359 2328 
Q 359 3472 976 4111 
Q 1594 4750 2688 4750 
Q 3144 4750 3555 4637 
Q 3966 4525 4313 4306 
L 4313 3634 
Q 3963 3931 3569 4081 
Q 3175 4231 2741 4231 
Q 1884 4231 1454 3753 
Q 1025 3275 1025 2328 
Q 1025 1384 1454 906 
Q 1884 428 2741 428 
Q 3075 428 3337 486 
Q 3600 544 3809 666 
z
" transform="scale(0.015625)"/>
      <path id="DejaVuSans-37" d="M 525 4666 
L 3525 4666 
L 3525 4397 
L 1831 0 
L 1172 0 
L 2766 4134 
L 525 4134 
L 525 4666 
z
" transform="scale(0.015625)"/>
     </defs>
     <use xlink:href="#DejaVuSans-47"/>
     <use xlink:href="#DejaVuSans-20" x="77.490234"/>
     <use xlink:href="#DejaVuSans-5b" x="109.277344"/>
     <use xlink:href="#DejaVuSans-31" x="148.291016"/>
     <use xlink:href="#DejaVuSans-37" x="211.914062"/>
     <use xlink:href="#DejaVuSans-5d" x="275.537109"/>
    </g>
   </g>
   <g id="text_7">
    <!-- H [11] -->
    <g transform="translate(77.616734 31.951487) scale(0.1 -0.1)">
     <defs>
      <path id="DejaVuSans-48" d="M 628 4666 
L 1259 4666 
L 1259 2753 
L 3553 2753 
L 3553 4666 
L 4184 4666 
L 4184 0 
L 3553 0 
L 3553 2222 
L 1259 2222 
L 1259 0 
L 628 0 
L 628 4666 
z
" transform="scale(0.015625)"/>
     </defs>
     <use xlink:href="#DejaVuSans-48"/>
     <use xlink:href="#DejaVuSans-20" x="75.195312"/>
     <use xlink:href="#DejaVuSans-5b" x="106.982422"/>
     <use xlink:href="#DejaVuSans-31" x="145.996094"/>
     <use xlink:href="#DejaVuSans-31" x="209.619141"/>
     <use xlink:href="#DejaVuSans-5d" x="273.242188"/>
    </g>
   </g>
   <g id="text_8">
    <!-- I [15] -->
    <g transform="translate(56.270573 50.303999) scale(0.1 -0.1)">
     <defs>
      <path id="DejaVuSans-49" d="M 628 4666 
L 1259 4666 
L 1259 0 
L 628 0 
L 628 4666 
z
" transform="scale(0.015625)"/>
      <path id="DejaVuSans-35" d="M 691 4666 
L 3169 4666 
L 3169 4134 
L 1269 4134 
L 1269 2991 
Q 1406 3038 1543 3061 
Q 1681 3084 1819 3084 
Q 2600 3084 3056 2656 
Q 3513 2228 3513 1497 
Q 3513 744 3044 326 
Q 2575 -91 1722 -91 
Q 1428 -91 1123 -41 
Q 819 9 494 109 
L 494 744 
Q 775 591 1075 516 
Q 1375 441 1709 441 
Q 2250 441 2565 725 
Q 2881 1009 2881 1497 
Q 2881 1984 2565 2268 
Q 2250 2553 1709 2553 
Q 1456 2553 1204 2497 
Q 953 2441 691 2322 
L 691 4666 
z
" transform="scale(0.015625)"/>
     </defs>
     <use xlink:href="#DejaVuSans-49"/>
     <use xlink:href="#DejaVuSans-20" x="29.492188"/>
     <use xlink:href="#DejaVuSans-5b" x="61.279297"/>
     <use xlink:href="#DejaVuSans-31" x="100.292969"/>
     <use xlink:href="#DejaVuSans-35" x="163.916016"/>
     <use xlink:href="#DejaVuSans-5d" x="227.539062"/>
    </g>
   </g>
   <g id="text_9">
    <!-- K [11] -->
    <g transform="translate(31.509234 73.989577) scale(0.1 -0.1)">
     <defs>
      <path id="DejaVuSans-4b" d="M 628 4666 
L 1259 4666 
L 1259 2694 
L 3353 4666 
L 4166 4666 
L 1850 2491 
L 4331 0 
L 3500 0 
L 1259 2247 
L 1259 0 
L 628 0 
L 628 4666 
z
" transform="scale(0.015625)"/>
     </defs>
     <use xlink:href="#DejaVuSans-4b"/>
     <use xlink:href="#DejaVuSans-20" x="65.576172"/>
     <use xlink:href="#DejaVuSans-5b" x="97.363281"/>
     <use xlink:href="#DejaVuSans-31" x="136.376953"/>
     <use xlink:href="#DejaVuSans-31" x="200"/>
     <use xlink:href="#DejaVuSans-5d" x="263.623047"/>
    </g>
   </g>
   <g id="text_10">
    <!-- L [49] -->
    <g transform="translate(7.2 142.054453) scale(0.1 -0.1)">
     <defs>
      <path id="DejaVuSans-4c" d="M 628 4666 
L 1259 4666 
L 1259 531 
L 3531 531 
L 3531 0 
L 628 0 
L 628 4666 
z
" transform="scale(0.015625)"/>
      <path id="DejaVuSans-34" d="M 2419 4116 
L 825 1625 
L 2419 1625 
L 2419 4116 
z
M 2253 4666 
L 3047 4666 
L 3047 1625 
L 3713 1625 
L 3713 1100 
L 3047 1100 
L 3047 0 
L 2419 0 
L 2419 1100 
L 313 1100 
L 313 1709 
L 2253 4666 
z
" transform="scale(0.015625)"/>
     </defs>
     <use xlink:href="#DejaVuSans-4c"/>
     <use xlink:href="#DejaVuSans-20" x="55.712891"/>
     <use xlink:href="#DejaVuSans-5b" x="87.5"/>
     <use xlink:href="#DejaVuSans-34" x="126.513672"/>
     <use xlink:href="#DejaVuSans-39" x="190.136719"/>
     <use xlink:href="#DejaVuSans-5d" x="253.759766"/>
    </g>
   </g>
   <g id="text_11">
    <!-- M [9] -->
    <g transform="translate(21.434771 211.444099) scale(0.1 -0.1)">
     <defs>
      <path id="DejaVuSans-4d" d="M 628 4666 
L 1569 4666 
L 2759 1491 
L 3956 4666 
L 4897 4666 
L 4897 0 
L 4281 0 
L 4281 4097 
L 3078 897 
L 2444 897 
L 1241 4097 
L 1241 0 
L 628 0 
L 628 4666 
z
" transform="scale(0.015625)"/>
     </defs>
     <use xlink:href="#DejaVuSans-4d"/>
     <use xlink:href="#DejaVuSans-20" x="86.279297"/>
     <use xlink:href="#DejaVuSans-5b" x="118.066406"/>
     <use xlink:href="#DejaVuSans-39" x="157.080078"/>
     <use xlink:href="#DejaVuSans-5d" x="220.703125"/>
    </g>
   </g>
   <g id="text_12">
    <!-- N [14] -->
    <g transform="translate(29.882777 236.004498) scale(0.1 -0.1)">
     <defs>
      <path id="DejaVuSans-4e" d="M 628 4666 
L 1478 4666 
L 3547 763 
L 3547 4666 
L 4159 4666 
L 4159 0 
L 3309 0 
L 1241 3903 
L 1241 0 
L 628 0 
L 628 4666 
z
" transform="scale(0.015625)"/>
     </defs>
     <use xlink:href="#DejaVuSans-4e"/>
     <use xlink:href="#DejaVuSans-20" x="74.804688"/>
     <use xlink:href="#DejaVuSans-5b" x="106.591797"/>
     <use xlink:href="#DejaVuSans-31" x="145.605469"/>
     <use xlink:href="#DejaVuSans-34" x="209.228516"/>
     <use xlink:href="#DejaVuSans-5d" x="272.851562"/>
    </g>
   </g>
   <g id="text_13">
    <!-- P [18] -->
    <g transform="translate(57.842486 264.668369) scale(0.1 -0.1)">
     <defs>
      <path id="DejaVuSans-50" d="M 1259 4147 
L 1259 2394 
L 2053 2394 
Q 2494 2394 2734 2622 
Q 2975 2850 2975 3272 
Q 2975 3691 2734 3919 
Q 2494 4147 2053 4147 
L 1259 4147 
z
M 628 4666 
L 2053 4666 
Q 2838 4666 3239 4311 
Q 3641 3956 3641 3272 
Q 3641 2581 3239 2228 
Q 2838 1875 2053 1875 
L 1259 1875 
L 1259 0 
L 628 0 
L 628 4666 
z
" transform="scale(0.015625)"/>
      <path id="DejaVuSans-38" d="M 2034 2216 
Q 1584 2216 1326 1975 
Q 1069 1734 1069 1313 
Q 1069 891 1326 650 
Q 1584 409 2034 409 
Q 2484 409 2743 651 
Q 3003 894 3003 1313 
Q 3003 1734 2745 1975 
Q 2488 2216 2034 2216 
z
M 1403 2484 
Q 997 2584 770 2862 
Q 544 3141 544 3541 
Q 544 4100 942 4425 
Q 1341 4750 2034 4750 
Q 2731 4750 3128 4425 
Q 3525 4100 3525 3541 
Q 3525 3141 3298 2862 
Q 3072 2584 2669 2484 
Q 3125 2378 3379 2068 
Q 3634 1759 3634 1313 
Q 3634 634 3220 271 
Q 2806 -91 2034 -91 
Q 1263 -91 848 271 
Q 434 634 434 1313 
Q 434 1759 690 2068 
Q 947 2378 1403 2484 
z
M 1172 3481 
Q 1172 3119 1398 2916 
Q 1625 2713 2034 2713 
Q 2441 2713 2670 2916 
Q 2900 3119 2900 3481 
Q 2900 3844 2670 4047 
Q 2441 4250 2034 4250 
Q 1625 4250 1398 4047 
Q 1172 3844 1172 3481 
z
" transform="scale(0.015625)"/>
     </defs>
     <use xlink:href="#DejaVuSans-50"/>
     <use xlink:href="#DejaVuSans-20" x="60.302734"/>
     <use xlink:href="#DejaVuSans-5b" x="92.089844"/>
     <use xlink:href="#DejaVuSans-31" x="131.103516"/>
     <use xlink:href="#DejaVuSans-38" x="194.726562"/>
     <use xlink:href="#DejaVuSans-5d" x="258.349609"/>
    </g>
   </g>
   <g id="text_14">
    <!-- Q [8] -->
    <g transform="translate(89.050983 281.879386) scale(0.1 -0.1)">
     <defs>
      <path id="DejaVuSans-51" d="M 2522 4238 
Q 1834 4238 1429 3725 
Q 1025 3213 1025 2328 
Q 1025 1447 1429 934 
Q 1834 422 2522 422 
Q 3209 422 3611 934 
Q 4013 1447 4013 2328 
Q 4013 3213 3611 3725 
Q 3209 4238 2522 4238 
z
M 3406 84 
L 4238 -825 
L 3475 -825 
L 2784 -78 
Q 2681 -84 2626 -87 
Q 2572 -91 2522 -91 
Q 1538 -91 948 567 
Q 359 1225 359 2328 
Q 359 3434 948 4092 
Q 1538 4750 2522 4750 
Q 3503 4750 4090 4092 
Q 4678 3434 4678 2328 
Q 4678 1516 4351 937 
Q 4025 359 3406 84 
z
" transform="scale(0.015625)"/>
     </defs>
     <use xlink:href="#DejaVuSans-51"/>
     <use xlink:href="#DejaVuSans-20" x="78.710938"/>
     <use xlink:href="#DejaVuSans-5b" x="110.498047"/>
     <use xlink:href="#DejaVuSans-38" x="149.511719"/>
     <use xlink:href="#DejaVuSans-5d" x="213.134766"/>
    </g>
   </g>
   <g id="text_15">
    <!-- R [24] -->
    <g transform="translate(120.658676 294.201613) scale(0.1 -0.1)">
     <defs>
      <path id="DejaVuSans-52" d="M 2841 2188 
Q 3044 2119 3236 1894 
Q 3428 1669 3622 1275 
L 4263 0 
L 3584 0 
L 2988 1197 
Q 2756 1666 2539 1819 
Q 2322 1972 1947 1972 
L 1259 1972 
L 1259 0 
L 628 0 
L 628 4666 
L 2053 4666 
Q 2853 4666 3247 4331 
Q 3641 3997 3641 3322 
Q 3641 2881 3436 2590 
Q 3231 2300 2841 2188 
z
M 1259 4147 
L 1259 2491 
L 2053 2491 
Q 2509 2491 2742 2702 
Q 2975 2913 2975 3322 
Q 2975 3731 2742 3939 
Q 2509 4147 2053 4147 
L 1259 4147 
z
" transform="scale(0.015625)"/>
     </defs>
     <use xlink:href="#DejaVuSans-52"/>
     <use xlink:href="#DejaVuSans-20" x="69.482422"/>
     <use xlink:href="#DejaVuSans-5b" x="101.269531"/>
     <use xlink:href="#DejaVuSans-32" x="140.283203"/>
     <use xlink:href="#DejaVuSans-34" x="203.90625"/>
     <use xlink:href="#DejaVuSans-5d" x="267.529297"/>
    </g>
   </g>
   <g id="text_16">
    <!-- S [25] -->
    <g transform="translate(210.811057 292.393841) scale(0.1 -0.1)">
     <defs>
      <path id="DejaVuSans-53" d="M 3425 4513 
L 3425 3897 
Q 3066 4069 2747 4153 
Q 2428 4238 2131 4238 
Q 1616 4238 1336 4038 
Q 1056 3838 1056 3469 
Q 1056 3159 1242 3001 
Q 1428 2844 1947 2747 
L 2328 2669 
Q 3034 2534 3370 2195 
Q 3706 1856 3706 1288 
Q 3706 609 3251 259 
Q 2797 -91 1919 -91 
Q 1588 -91 1214 -16 
Q 841 59 441 206 
L 441 856 
Q 825 641 1194 531 
Q 1563 422 1919 422 
Q 2459 422 2753 634 
Q 3047 847 3047 1241 
Q 3047 1584 2836 1778 
Q 2625 1972 2144 2069 
L 1759 2144 
Q 1053 2284 737 2584 
Q 422 2884 422 3419 
Q 422 4038 858 4394 
Q 1294 4750 2059 4750 
Q 2388 4750 2728 4690 
Q 3069 4631 3425 4513 
z
" transform="scale(0.015625)"/>
     </defs>
     <use xlink:href="#DejaVuSans-53"/>
     <use xlink:href="#DejaVuSans-20" x="63.476562"/>
     <use xlink:href="#DejaVuSans-5b" x="95.263672"/>
     <use xlink:href="#DejaVuSans-32" x="134.277344"/>
     <use xlink:href="#DejaVuSans-35" x="197.900391"/>
     <use xlink:href="#DejaVuSans-5d" x="261.523438"/>
    </g>
   </g>
   <g id="text_17">
    <!-- T [12] -->
    <g transform="translate(252.282564 274.686306) scale(0.1 -0.1)">
     <defs>
      <path id="DejaVuSans-54" d="M -19 4666 
L 3928 4666 
L 3928 4134 
L 2272 4134 
L 2272 0 
L 1638 0 
L 1638 4134 
L -19 4134 
L -19 4666 
z
" transform="scale(0.015625)"/>
     </defs>
     <use xlink:href="#DejaVuSans-54"/>
     <use xlink:href="#DejaVuSans-20" x="61.083984"/>
     <use xlink:href="#DejaVuSans-5b" x="92.871094"/>
     <use xlink:href="#DejaVuSans-31" x="131.884766"/>
     <use xlink:href="#DejaVuSans-32" x="195.507812"/>
     <use xlink:href="#DejaVuSans-5d" x="259.130859"/>
    </g>
   </g>
   <g id="text_18">
    <!-- V [27] -->
    <g transform="translate(287.579063 242.886699) scale(0.1 -0.1)">
     <defs>
      <path id="DejaVuSans-56" d="M 1831 0 
L 50 4666 
L 709 4666 
L 2188 738 
L 3669 4666 
L 4325 4666 
L 2547 0 
L 1831 0 
z
" transform="scale(0.015625)"/>
     </defs>
     <use xlink:href="#DejaVuSans-56"/>
     <use xlink:href="#DejaVuSans-20" x="68.408203"/>
     <use xlink:href="#DejaVuSans-5b" x="100.195312"/>
     <use xlink:href="#DejaVuSans-32" x="139.208984"/>
     <use xlink:href="#DejaVuSans-37" x="202.832031"/>
     <use xlink:href="#DejaVuSans-5d" x="266.455078"/>
    </g>
   </g>
   <g id="text_19">
    <!-- W [10] -->
    <g transform="translate(309.501749 203.480625) scale(0.1 -0.1)">
     <defs>
      <path id="DejaVuSans-57" d="M 213 4666 
L 850 4666 
L 1831 722 
L 2809 4666 
L 3519 4666 
L 4500 722 
L 5478 4666 
L 6119 4666 
L 4947 0 
L 4153 0 
L 3169 4050 
L 2175 0 
L 1381 0 
L 213 4666 
z
" transform="scale(0.015625)"/>
      <path id="DejaVuSans-30" d="M 2034 4250 
Q 1547 4250 1301 3770 
Q 1056 3291 1056 2328 
Q 1056 1369 1301 889 
Q 1547 409 2034 409 
Q 2525 409 2770 889 
Q 3016 1369 3016 2328 
Q 3016 3291 2770 3770 
Q 2525 4250 2034 4250 
z
M 2034 4750 
Q 2819 4750 3233 4129 
Q 3647 3509 3647 2328 
Q 3647 1150 3233 529 
Q 2819 -91 2034 -91 
Q 1250 -91 836 529 
Q 422 1150 422 2328 
Q 422 3509 836 4129 
Q 1250 4750 2034 4750 
z
" transform="scale(0.015625)"/>
     </defs>
     <use xlink:href="#DejaVuSans-57"/>
     <use xlink:href="#DejaVuSans-20" x="98.876953"/>
     <use xlink:href="#DejaVuSans-5b" x="130.664062"/>
     <use xlink:href="#DejaVuSans-31" x="169.677734"/>
     <use xlink:href="#DejaVuSans-30" x="233.300781"/>
     <use xlink:href="#DejaVuSans-5d" x="296.923828"/>
    </g>
   </g>
   <g id="text_20">
    <!-- Y [15] -->
    <g transform="translate(316.721344 173.806207) scale(0.1 -0.1)">
     <defs>
      <path id="DejaVuSans-59" d="M -13 4666 
L 666 4666 
L 1959 2747 
L 3244 4666 
L 3922 4666 
L 2272 2222 
L 2272 0 
L 1638 0 
L 1638 2222 
L -13 4666 
z
" transform="scale(0.015625)"/>
     </defs>
     <use xlink:href="#DejaVuSans-59"/>
     <use xlink:href="#DejaVuSans-20" x="61.083984"/>
     <use xlink:href="#DejaVuSans-5b" x="92.871094"/>
     <use xlink:href="#DejaVuSans-31" x="131.884766"/>
     <use xlink:href="#DejaVuSans-35" x="195.507812"/>
     <use xlink:href="#DejaVuSans-5d" x="259.130859"/>
    </g>
   </g>
   <g id="text_21">
    <!-- M3X0L1 [362] -->
    <g transform="translate(134.751568 152.738642) scale(0.12 -0.12)">
     <defs>
      <path id="DejaVuSans-58" d="M 403 4666 
L 1081 4666 
L 2241 2931 
L 3406 4666 
L 4084 4666 
L 2584 2425 
L 4184 0 
L 3506 0 
L 2194 1984 
L 872 0 
L 191 0 
L 1856 2491 
L 403 4666 
z
" transform="scale(0.015625)"/>
      <path id="DejaVuSans-36" d="M 2113 2584 
Q 1688 2584 1439 2293 
Q 1191 2003 1191 1497 
Q 1191 994 1439 701 
Q 1688 409 2113 409 
Q 2538 409 2786 701 
Q 3034 994 3034 1497 
Q 3034 2003 2786 2293 
Q 2538 2584 2113 2584 
z
M 3366 4563 
L 3366 3988 
Q 3128 4100 2886 4159 
Q 2644 4219 2406 4219 
Q 1781 4219 1451 3797 
Q 1122 3375 1075 2522 
Q 1259 2794 1537 2939 
Q 1816 3084 2150 3084 
Q 2853 3084 3261 2657 
Q 3669 2231 3669 1497 
Q 3669 778 3244 343 
Q 2819 -91 2113 -91 
Q 1303 -91 875 529 
Q 447 1150 447 2328 
Q 447 3434 972 4092 
Q 1497 4750 2381 4750 
Q 2619 4750 2861 4703 
Q 3103 4656 3366 4563 
z
" transform="scale(0.015625)"/>
     </defs>
     <use xlink:href="#DejaVuSans-4d"/>
     <use xlink:href="#DejaVuSans-33" x="86.279297"/>
     <use xlink:href="#DejaVuSans-58" x="149.902344"/>
     <use xlink:href="#DejaVuSans-30" x="218.408203"/>
     <use xlink:href="#DejaVuSans-4c" x="282.03125"/>
     <use xlink:href="#DejaVuSans-31" x="337.744141"/>
     <use xlink:href="#DejaVuSans-20" x="401.367188"/>
     <use xlink:href="#DejaVuSans-5b" x="433.154297"/>
     <use xlink:href="#DejaVuSans-33" x="472.167969"/>
     <use xlink:href="#DejaVuSans-36" x="535.791016"/>
     <use xlink:href="#DejaVuSans-32" x="599.414062"/>
     <use xlink:href="#DejaVuSans-5d" x="663.037109"/>
    </g>
   </g>
  </g>
 </g>
</svg>
