<?xml version="1.0" encoding="utf-8" standalone="no"?>
<!DOCTYPE svg PUBLIC "-//W3C//DTD SVG 1.1//EN"
  "http://www.w3.org/Graphics/SVG/1.1/DTD/svg11.dtd">
<svg xmlns:xlink="http://www.w3.org/1999/xlink" width="349.027186pt" height="305.503028pt" viewBox="0 0 349.027186 305.503028" xmlns="http://www.w3.org/2000/svg" version="1.1">
 <metadata>
  <rdf:RDF xmlns:dc="http://purl.org/dc/elements/1.1/" xmlns:cc="http://creativecommons.org/ns#" xmlns:rdf="http://www.w3.org/1999/02/22-rdf-syntax-ns#">
   <cc:Work>
    <dc:type rdf:resource="http://purl.org/dc/dcmitype/StillImage"/>
    <dc:date>2024-09-27T16:07:08.636955</dc:date>
    <dc:format>image/svg+xml</dc:format>
    <dc:creator>
     <cc:Agent>
      <dc:title>Matplotlib v3.8.3, https://matplotlib.org/</dc:title>
     </cc:Agent>
    </dc:creator>
   </cc:Work>
  </rdf:RDF>
 </metadata>
 <defs>
  <style type="text/css">*{stroke-linejoin: round; stroke-linecap: butt}</style>
 </defs>
 <g id="figure_1">
  <g id="patch_1">
   <path d="M 0 305.503028 
L 349.027186 305.503028 
L 349.027186 0 
L 0 0 
z
" style="fill: #ffffff"/>
  </g>
  <g id="axes_1">
   <g id="patch_2">
    <path d="M 305.648433 152.78866 
C 305.648433 134.189232 301.586014 115.812295 293.745936 98.946001 
C 285.905858 82.079707 274.475691 67.127571 260.256644 55.137683 
L 177.914673 152.78866 
z
" style="fill: #1f77b4"/>
   </g>
   <g id="patch_3">
    <path d="M 260.065113 54.916467 
C 256.098131 51.5714 251.930996 48.47117 247.586882 45.633019 
C 243.242768 42.794868 238.729742 40.224066 234.072899 37.934908 
L 177.723142 152.567444 
z
" style="fill: #ff7f0e"/>
   </g>
   <g id="patch_4">
    <path d="M 233.965523 37.88096 
C 229.974271 35.918986 225.883273 34.166799 221.709248 32.631561 
C 217.535223 31.096324 213.283865 29.780128 208.972546 28.688354 
L 177.615766 152.513496 
z
" style="fill: #aec7e8"/>
   </g>
   <g id="patch_5">
    <path d="M 208.883269 28.664085 
C 206.00942 27.936328 203.111105 27.308839 200.193592 26.78276 
C 197.276078 26.256681 194.341134 25.832329 191.394092 25.510477 
L 177.526489 152.489227 
z
" style="fill: #ffbb78"/>
   </g>
   <g id="patch_6">
    <path d="M 191.283438 25.502277 
C 185.38757 24.858377 179.454008 24.625894 173.525835 24.806514 
C 167.597661 24.987134 161.689259 25.58042 155.843527 26.582064 
L 177.415835 152.481027 
z
" style="fill: #98df8a"/>
   </g>
   <g id="patch_7">
    <path d="M 155.633293 26.632391 
C 144.294621 28.575229 133.270204 32.040963 122.859444 36.935469 
C 112.448684 41.829976 102.746689 48.108541 94.016947 55.600651 
L 177.205601 152.531355 
z
" style="fill: #2ca02c"/>
   </g>
   <g id="patch_8">
    <path d="M 93.882924 55.69073 
C 92.75818 56.656017 91.650322 57.640808 90.559854 58.644654 
C 89.469386 59.648501 88.396473 60.671251 87.341603 61.712441 
L 177.071578 152.621434 
z
" style="fill: #d62728"/>
   </g>
   <g id="patch_9">
    <path d="M 87.302749 61.752149 
C 85.192848 63.834687 83.156086 65.990046 81.196165 68.21431 
C 79.236244 70.438575 77.354351 72.730397 75.553906 75.085612 
L 177.032724 152.661142 
z
" style="fill: #9467bd"/>
   </g>
   <g id="patch_10">
    <path d="M 75.524835 75.121651 
C 75.074766 75.710399 74.629829 76.303053 74.190075 76.899545 
C 73.750321 77.496037 73.315767 78.096344 72.886461 78.700399 
L 177.003653 152.697181 
z
" style="fill: #ff9896"/>
   </g>
   <g id="patch_11">
    <path d="M 72.782949 78.9977 
C 58.300218 99.37563 50.11384 123.563939 49.243763 148.548984 
C 48.373685 173.53403 54.857608 198.233216 67.887695 219.56925 
L 176.900141 152.994481 
z
" style="fill: #c5b0d5"/>
   </g>
   <g id="patch_12">
    <path d="M 67.970274 219.873031 
C 68.35652 220.505487 68.748263 221.13457 69.145457 221.760208 
C 69.542652 222.385845 69.945284 223.008015 70.353307 223.626645 
L 176.982721 153.298262 
z
" style="fill: #c49c94"/>
   </g>
   <g id="patch_13">
    <path d="M 70.371507 223.653471 
C 71.391598 225.200097 72.445219 226.724347 73.531621 228.225138 
C 74.618023 229.725928 75.73695 231.202904 76.887606 232.655017 
L 177.000921 153.325088 
z
" style="fill: #8c564b"/>
   </g>
   <g id="patch_14">
    <path d="M 76.98277 232.755722 
C 82.741492 240.023152 89.274468 246.641969 96.46611 252.495064 
C 103.657751 258.348159 111.465392 263.400808 119.75089 267.563613 
L 177.096085 153.425793 
z
" style="fill: #e377c2"/>
   </g>
   <g id="patch_15">
    <path d="M 119.868823 267.636342 
C 121.524357 268.468117 123.197792 269.263773 124.88794 270.022747 
C 126.578088 270.781721 128.284549 271.503832 130.006112 272.188568 
L 177.214018 153.498522 
z
" style="fill: #7f7f7f"/>
   </g>
   <g id="patch_16">
    <path d="M 130.175572 272.233054 
C 141.556925 276.759885 153.530459 279.626212 165.727927 280.743879 
C 177.925394 281.861546 190.220452 281.218976 202.234964 278.835933 
L 177.383478 153.543008 
z
" style="fill: #f7b6d2"/>
   </g>
   <g id="patch_17">
    <path d="M 202.509971 278.787579 
C 212.69922 276.766571 222.603995 273.510152 232.004647 269.090537 
C 241.405299 264.670921 250.23182 259.121022 258.288471 252.563917 
L 177.658485 153.494654 
z
" style="fill: #c7c7c7"/>
   </g>
   <g id="patch_18">
    <path d="M 258.439186 252.457787 
C 261.888559 249.650428 265.188961 246.664835 268.326904 243.513208 
C 271.464847 240.361581 274.436051 237.048219 277.228373 233.586662 
L 177.8092 153.388524 
z
" style="fill: #dbdb8d"/>
   </g>
   <g id="patch_19">
    <path d="M 277.319293 233.464454 
C 282.208145 227.403894 286.532597 220.908976 290.238612 214.060859 
C 293.944627 207.212742 297.016703 200.040071 299.416451 192.632476 
L 177.90012 153.266315 
z
" style="fill: #bcbd22"/>
   </g>
   <g id="patch_20">
    <path d="M 299.465974 192.503073 
C 300.493854 189.33019 301.39707 186.118266 302.173546 182.874686 
C 302.950022 179.631107 303.599161 176.358359 304.119472 173.06397 
L 177.949643 153.136912 
z
" style="fill: #17becf"/>
   </g>
   <g id="patch_21">
    <path d="M 304.132465 172.981705 
C 304.652775 169.687316 305.043858 166.373811 305.304813 163.048811 
C 305.565768 159.723811 305.696396 156.389865 305.696395 153.054641 
L 177.962635 153.054647 
z
" style="fill: #9edae5"/>
   </g>
   <g id="patch_22">
    <path d="M 251.943403 153.013004 
C 251.943403 142.163338 249.573659 131.443458 245.00028 121.604786 
C 240.426901 111.766115 233.759303 103.044036 225.464859 96.049935 
L 177.432043 153.013004 
z
" style="fill: #ffffff"/>
   </g>
   <g id="patch_23">
    <path d="M 225.464859 96.049935 
C 223.150786 94.098645 220.719958 92.290178 218.185892 90.63459 
C 215.651825 88.979002 213.019226 87.479367 210.302735 86.144025 
L 177.432043 153.013004 
z
" style="fill: #ffffff"/>
   </g>
   <g id="patch_24">
    <path d="M 210.302735 86.144025 
C 207.974504 84.99954 205.588089 83.977431 203.153241 83.081876 
C 200.718393 82.18632 198.238434 81.41854 195.723498 80.781671 
L 177.432043 153.013004 
z
" style="fill: #ffffff"/>
   </g>
   <g id="patch_25">
    <path d="M 195.723498 80.781671 
C 194.047086 80.357146 192.356402 79.991111 190.654519 79.684232 
C 188.952637 79.377352 187.240586 79.129814 185.521478 78.942067 
L 177.432043 153.013004 
z
" style="fill: #ffffff"/>
   </g>
   <g id="patch_26">
    <path d="M 185.521478 78.942067 
C 182.082222 78.566459 178.620977 78.430843 175.162876 78.536205 
C 171.704775 78.641567 168.258207 78.98765 164.848197 79.571942 
L 177.432043 153.013004 
z
" style="fill: #ffffff"/>
   </g>
   <g id="patch_27">
    <path d="M 164.848197 79.571942 
C 158.233972 80.705265 151.803061 82.726943 145.730118 85.582071 
C 139.657175 88.4372 133.997678 92.099696 128.905328 96.470094 
L 177.432043 153.013004 
z
" style="fill: #ffffff"/>
   </g>
   <g id="patch_28">
    <path d="M 128.905328 96.470094 
C 128.249228 97.033178 127.602977 97.607639 126.966871 98.193216 
C 126.330765 98.778793 125.704899 99.375398 125.089558 99.982758 
L 177.432043 153.013004 
z
" style="fill: #ffffff"/>
   </g>
   <g id="patch_29">
    <path d="M 125.089558 99.982758 
C 123.858782 101.197572 122.670671 102.454864 121.527384 103.752352 
C 120.384096 105.04984 119.286326 106.386736 118.236066 107.760612 
L 177.432043 153.013004 
z
" style="fill: #ffffff"/>
   </g>
   <g id="patch_30">
    <path d="M 118.236066 107.760612 
C 117.973525 108.104048 117.713979 108.449763 117.457456 108.797717 
C 117.200933 109.14567 116.947443 109.49585 116.697014 109.848215 
L 177.432043 153.013004 
z
" style="fill: #ffffff"/>
   </g>
   <g id="patch_31">
    <path d="M 116.697014 109.848215 
C 108.248755 121.735341 103.473367 135.845188 102.965822 150.419798 
C 102.458277 164.994407 106.240565 179.402266 113.841449 191.848286 
L 177.432043 153.013004 
z
" style="fill: #ffffff"/>
   </g>
   <g id="patch_32">
    <path d="M 113.841449 191.848286 
C 114.066759 192.217219 114.295276 192.584184 114.526972 192.949139 
C 114.758669 193.314094 114.993538 193.677027 115.231551 194.037894 
L 177.432043 153.013004 
z
" style="fill: #ffffff"/>
   </g>
   <g id="patch_33">
    <path d="M 115.231551 194.037894 
C 115.826605 194.940093 116.441217 195.829239 117.074952 196.7047 
C 117.708686 197.580161 118.361393 198.44173 119.032609 199.288796 
L 177.432043 153.013004 
z
" style="fill: #ffffff"/>
   </g>
   <g id="patch_34">
    <path d="M 119.032609 199.288796 
C 122.391864 203.528131 126.202767 207.389107 130.397891 210.803413 
C 134.593015 214.217718 139.147472 217.165096 143.980679 219.593399 
L 177.432043 153.013004 
z
" style="fill: #ffffff"/>
   </g>
   <g id="patch_35">
    <path d="M 143.980679 219.593399 
C 144.946407 220.078601 145.922578 220.542734 146.908498 220.985469 
C 147.894417 221.428203 148.889853 221.849435 149.894098 222.248864 
L 177.432043 153.013004 
z
" style="fill: #ffffff"/>
   </g>
   <g id="patch_36">
    <path d="M 149.894098 222.248864 
C 156.53322 224.889516 163.517782 226.56154 170.632971 227.213512 
C 177.74816 227.865485 184.920278 227.490653 191.928743 226.100544 
L 177.432043 153.013004 
z
" style="fill: #ffffff"/>
   </g>
   <g id="patch_37">
    <path d="M 191.928743 226.100544 
C 197.872472 224.921623 203.650257 223.022045 209.133971 220.443936 
C 214.617685 217.865827 219.766488 214.628386 224.466201 210.803408 
L 177.432043 153.013004 
z
" style="fill: #ffffff"/>
   </g>
   <g id="patch_38">
    <path d="M 224.466201 210.803408 
C 226.478336 209.165782 228.40357 207.424186 230.234037 205.585737 
C 232.064504 203.747288 233.797706 201.814493 235.426561 199.795252 
L 177.432043 153.013004 
z
" style="fill: #ffffff"/>
   </g>
   <g id="patch_39">
    <path d="M 235.426561 199.795252 
C 238.278391 196.259925 240.800988 192.471223 242.96283 188.476488 
C 245.124672 184.481753 246.916717 180.297695 248.31657 175.976598 
L 177.432043 153.013004 
z
" style="fill: #ffffff"/>
   </g>
   <g id="patch_40">
    <path d="M 248.31657 175.976598 
C 248.916166 174.12575 249.443043 172.252128 249.895987 170.360039 
C 250.348931 168.467951 250.727596 166.558849 251.03111 164.637122 
L 177.432043 153.013004 
z
" style="fill: #ffffff"/>
   </g>
   <g id="patch_41">
    <path d="M 251.03111 164.637122 
C 251.334625 162.715395 251.562756 160.782517 251.71498 158.842934 
C 251.867204 156.90335 251.943403 154.958549 251.943403 153.013001 
L 177.432043 153.013004 
z
" style="fill: #ffffff"/>
   </g>
   <g id="matplotlib.axis_1"/>
   <g id="matplotlib.axis_2"/>
   <g id="text_1">
    <!-- A [50] -->
    <g transform="translate(305.329063 96.32111) scale(0.1 -0.1)">
     <defs>
      <path id="DejaVuSans-41" d="M 2188 4044 
L 1331 1722 
L 3047 1722 
L 2188 4044 
z
M 1831 4666 
L 2547 4666 
L 4325 0 
L 3669 0 
L 3244 1197 
L 1141 1197 
L 716 0 
L 50 0 
L 1831 4666 
z
" transform="scale(0.015625)"/>
      <path id="DejaVuSans-20" transform="scale(0.015625)"/>
      <path id="DejaVuSans-5b" d="M 550 4863 
L 1875 4863 
L 1875 4416 
L 1125 4416 
L 1125 -397 
L 1875 -397 
L 1875 -844 
L 550 -844 
L 550 4863 
z
" transform="scale(0.015625)"/>
      <path id="DejaVuSans-35" d="M 691 4666 
L 3169 4666 
L 3169 4134 
L 1269 4134 
L 1269 2991 
Q 1406 3038 1543 3061 
Q 1681 3084 1819 3084 
Q 2600 3084 3056 2656 
Q 3513 2228 3513 1497 
Q 3513 744 3044 326 
Q 2575 -91 1722 -91 
Q 1428 -91 1123 -41 
Q 819 9 494 109 
L 494 744 
Q 775 591 1075 516 
Q 1375 441 1709 441 
Q 2250 441 2565 725 
Q 2881 1009 2881 1497 
Q 2881 1984 2565 2268 
Q 2250 2553 1709 2553 
Q 1456 2553 1204 2497 
Q 953 2441 691 2322 
L 691 4666 
z
" transform="scale(0.015625)"/>
      <path id="DejaVuSans-30" d="M 2034 4250 
Q 1547 4250 1301 3770 
Q 1056 3291 1056 2328 
Q 1056 1369 1301 889 
Q 1547 409 2034 409 
Q 2525 409 2770 889 
Q 3016 1369 3016 2328 
Q 3016 3291 2770 3770 
Q 2525 4250 2034 4250 
z
M 2034 4750 
Q 2819 4750 3233 4129 
Q 3647 3509 3647 2328 
Q 3647 1150 3233 529 
Q 2819 -91 2034 -91 
Q 1250 -91 836 529 
Q 422 1150 422 2328 
Q 422 3509 836 4129 
Q 1250 4750 2034 4750 
z
" transform="scale(0.015625)"/>
      <path id="DejaVuSans-5d" d="M 1947 4863 
L 1947 -844 
L 622 -844 
L 622 -397 
L 1369 -397 
L 1369 4416 
L 622 4416 
L 622 4863 
L 1947 4863 
z
" transform="scale(0.015625)"/>
     </defs>
     <use xlink:href="#DejaVuSans-41"/>
     <use xlink:href="#DejaVuSans-20" x="68.408203"/>
     <use xlink:href="#DejaVuSans-5b" x="100.195312"/>
     <use xlink:href="#DejaVuSans-35" x="139.208984"/>
     <use xlink:href="#DejaVuSans-30" x="202.832031"/>
     <use xlink:href="#DejaVuSans-5d" x="266.455078"/>
    </g>
   </g>
   <g id="text_2">
    <!-- C [14] -->
    <g transform="translate(254.573256 37.698952) scale(0.1 -0.1)">
     <defs>
      <path id="DejaVuSans-43" d="M 4122 4306 
L 4122 3641 
Q 3803 3938 3442 4084 
Q 3081 4231 2675 4231 
Q 1875 4231 1450 3742 
Q 1025 3253 1025 2328 
Q 1025 1406 1450 917 
Q 1875 428 2675 428 
Q 3081 428 3442 575 
Q 3803 722 4122 1019 
L 4122 359 
Q 3791 134 3420 21 
Q 3050 -91 2638 -91 
Q 1578 -91 968 557 
Q 359 1206 359 2328 
Q 359 3453 968 4101 
Q 1578 4750 2638 4750 
Q 3056 4750 3426 4639 
Q 3797 4528 4122 4306 
z
" transform="scale(0.015625)"/>
      <path id="DejaVuSans-31" d="M 794 531 
L 1825 531 
L 1825 4091 
L 703 3866 
L 703 4441 
L 1819 4666 
L 2450 4666 
L 2450 531 
L 3481 531 
L 3481 0 
L 794 0 
L 794 531 
z
" transform="scale(0.015625)"/>
      <path id="DejaVuSans-34" d="M 2419 4116 
L 825 1625 
L 2419 1625 
L 2419 4116 
z
M 2253 4666 
L 3047 4666 
L 3047 1625 
L 3713 1625 
L 3713 1100 
L 3047 1100 
L 3047 0 
L 2419 0 
L 2419 1100 
L 313 1100 
L 313 1709 
L 2253 4666 
z
" transform="scale(0.015625)"/>
     </defs>
     <use xlink:href="#DejaVuSans-43"/>
     <use xlink:href="#DejaVuSans-20" x="69.824219"/>
     <use xlink:href="#DejaVuSans-5b" x="101.611328"/>
     <use xlink:href="#DejaVuSans-31" x="140.625"/>
     <use xlink:href="#DejaVuSans-34" x="204.248047"/>
     <use xlink:href="#DejaVuSans-5d" x="267.871094"/>
    </g>
   </g>
   <g id="text_3">
    <!-- D [12] -->
    <g transform="translate(226.118596 23.402743) scale(0.1 -0.1)">
     <defs>
      <path id="DejaVuSans-44" d="M 1259 4147 
L 1259 519 
L 2022 519 
Q 2988 519 3436 956 
Q 3884 1394 3884 2338 
Q 3884 3275 3436 3711 
Q 2988 4147 2022 4147 
L 1259 4147 
z
M 628 4666 
L 1925 4666 
Q 3281 4666 3915 4102 
Q 4550 3538 4550 2338 
Q 4550 1131 3912 565 
Q 3275 0 1925 0 
L 628 0 
L 628 4666 
z
" transform="scale(0.015625)"/>
      <path id="DejaVuSans-32" d="M 1228 531 
L 3431 531 
L 3431 0 
L 469 0 
L 469 531 
Q 828 903 1448 1529 
Q 2069 2156 2228 2338 
Q 2531 2678 2651 2914 
Q 2772 3150 2772 3378 
Q 2772 3750 2511 3984 
Q 2250 4219 1831 4219 
Q 1534 4219 1204 4116 
Q 875 4013 500 3803 
L 500 4441 
Q 881 4594 1212 4672 
Q 1544 4750 1819 4750 
Q 2544 4750 2975 4387 
Q 3406 4025 3406 3419 
Q 3406 3131 3298 2873 
Q 3191 2616 2906 2266 
Q 2828 2175 2409 1742 
Q 1991 1309 1228 531 
z
" transform="scale(0.015625)"/>
     </defs>
     <use xlink:href="#DejaVuSans-44"/>
     <use xlink:href="#DejaVuSans-20" x="77.001953"/>
     <use xlink:href="#DejaVuSans-5b" x="108.789062"/>
     <use xlink:href="#DejaVuSans-31" x="147.802734"/>
     <use xlink:href="#DejaVuSans-32" x="211.425781"/>
     <use xlink:href="#DejaVuSans-5d" x="275.048828"/>
    </g>
   </g>
   <g id="text_4">
    <!-- E [8] -->
    <g transform="translate(202.460302 16.971488) scale(0.1 -0.1)">
     <defs>
      <path id="DejaVuSans-45" d="M 628 4666 
L 3578 4666 
L 3578 4134 
L 1259 4134 
L 1259 2753 
L 3481 2753 
L 3481 2222 
L 1259 2222 
L 1259 531 
L 3634 531 
L 3634 0 
L 628 0 
L 628 4666 
z
" transform="scale(0.015625)"/>
      <path id="DejaVuSans-38" d="M 2034 2216 
Q 1584 2216 1326 1975 
Q 1069 1734 1069 1313 
Q 1069 891 1326 650 
Q 1584 409 2034 409 
Q 2484 409 2743 651 
Q 3003 894 3003 1313 
Q 3003 1734 2745 1975 
Q 2488 2216 2034 2216 
z
M 1403 2484 
Q 997 2584 770 2862 
Q 544 3141 544 3541 
Q 544 4100 942 4425 
Q 1341 4750 2034 4750 
Q 2731 4750 3128 4425 
Q 3525 4100 3525 3541 
Q 3525 3141 3298 2862 
Q 3072 2584 2669 2484 
Q 3125 2378 3379 2068 
Q 3634 1759 3634 1313 
Q 3634 634 3220 271 
Q 2806 -91 2034 -91 
Q 1263 -91 848 271 
Q 434 634 434 1313 
Q 434 1759 690 2068 
Q 947 2378 1403 2484 
z
M 1172 3481 
Q 1172 3119 1398 2916 
Q 1625 2713 2034 2713 
Q 2441 2713 2670 2916 
Q 2900 3119 2900 3481 
Q 2900 3844 2670 4047 
Q 2441 4250 2034 4250 
Q 1625 4250 1398 4047 
Q 1172 3844 1172 3481 
z
" transform="scale(0.015625)"/>
     </defs>
     <use xlink:href="#DejaVuSans-45"/>
     <use xlink:href="#DejaVuSans-20" x="63.183594"/>
     <use xlink:href="#DejaVuSans-5b" x="94.970703"/>
     <use xlink:href="#DejaVuSans-38" x="133.984375"/>
     <use xlink:href="#DejaVuSans-5d" x="197.607422"/>
    </g>
   </g>
   <g id="text_5">
    <!-- F [16] -->
    <g transform="translate(143.679022 14.798437) scale(0.1 -0.1)">
     <defs>
      <path id="DejaVuSans-46" d="M 628 4666 
L 3309 4666 
L 3309 4134 
L 1259 4134 
L 1259 2759 
L 3109 2759 
L 3109 2228 
L 1259 2228 
L 1259 0 
L 628 0 
L 628 4666 
z
" transform="scale(0.015625)"/>
      <path id="DejaVuSans-36" d="M 2113 2584 
Q 1688 2584 1439 2293 
Q 1191 2003 1191 1497 
Q 1191 994 1439 701 
Q 1688 409 2113 409 
Q 2538 409 2786 701 
Q 3034 994 3034 1497 
Q 3034 2003 2786 2293 
Q 2538 2584 2113 2584 
z
M 3366 4563 
L 3366 3988 
Q 3128 4100 2886 4159 
Q 2644 4219 2406 4219 
Q 1781 4219 1451 3797 
Q 1122 3375 1075 2522 
Q 1259 2794 1537 2939 
Q 1816 3084 2150 3084 
Q 2853 3084 3261 2657 
Q 3669 2231 3669 1497 
Q 3669 778 3244 343 
Q 2819 -91 2113 -91 
Q 1303 -91 875 529 
Q 447 1150 447 2328 
Q 447 3434 972 4092 
Q 1497 4750 2381 4750 
Q 2619 4750 2861 4703 
Q 3103 4656 3366 4563 
z
" transform="scale(0.015625)"/>
     </defs>
     <use xlink:href="#DejaVuSans-46"/>
     <use xlink:href="#DejaVuSans-20" x="57.519531"/>
     <use xlink:href="#DejaVuSans-5b" x="89.306641"/>
     <use xlink:href="#DejaVuSans-31" x="128.320312"/>
     <use xlink:href="#DejaVuSans-36" x="191.943359"/>
     <use xlink:href="#DejaVuSans-5d" x="255.566406"/>
    </g>
   </g>
   <g id="text_6">
    <!-- G [31] -->
    <g transform="translate(85.970141 28.135256) scale(0.1 -0.1)">
     <defs>
      <path id="DejaVuSans-47" d="M 3809 666 
L 3809 1919 
L 2778 1919 
L 2778 2438 
L 4434 2438 
L 4434 434 
Q 4069 175 3628 42 
Q 3188 -91 2688 -91 
Q 1594 -91 976 548 
Q 359 1188 359 2328 
Q 359 3472 976 4111 
Q 1594 4750 2688 4750 
Q 3144 4750 3555 4637 
Q 3966 4525 4313 4306 
L 4313 3634 
Q 3963 3931 3569 4081 
Q 3175 4231 2741 4231 
Q 1884 4231 1454 3753 
Q 1025 3275 1025 2328 
Q 1025 1384 1454 906 
Q 1884 428 2741 428 
Q 3075 428 3337 486 
Q 3600 544 3809 666 
z
" transform="scale(0.015625)"/>
      <path id="DejaVuSans-33" d="M 2597 2516 
Q 3050 2419 3304 2112 
Q 3559 1806 3559 1356 
Q 3559 666 3084 287 
Q 2609 -91 1734 -91 
Q 1441 -91 1130 -33 
Q 819 25 488 141 
L 488 750 
Q 750 597 1062 519 
Q 1375 441 1716 441 
Q 2309 441 2620 675 
Q 2931 909 2931 1356 
Q 2931 1769 2642 2001 
Q 2353 2234 1838 2234 
L 1294 2234 
L 1294 2753 
L 1863 2753 
Q 2328 2753 2575 2939 
Q 2822 3125 2822 3475 
Q 2822 3834 2567 4026 
Q 2313 4219 1838 4219 
Q 1578 4219 1281 4162 
Q 984 4106 628 3988 
L 628 4550 
Q 988 4650 1302 4700 
Q 1616 4750 1894 4750 
Q 2613 4750 3031 4423 
Q 3450 4097 3450 3541 
Q 3450 3153 3228 2886 
Q 3006 2619 2597 2516 
z
" transform="scale(0.015625)"/>
     </defs>
     <use xlink:href="#DejaVuSans-47"/>
     <use xlink:href="#DejaVuSans-20" x="77.490234"/>
     <use xlink:href="#DejaVuSans-5b" x="109.277344"/>
     <use xlink:href="#DejaVuSans-33" x="148.291016"/>
     <use xlink:href="#DejaVuSans-31" x="211.914062"/>
     <use xlink:href="#DejaVuSans-5d" x="275.537109"/>
    </g>
   </g>
   <g id="text_7">
    <!-- H [4] -->
    <g transform="translate(57.044619 52.006351) scale(0.1 -0.1)">
     <defs>
      <path id="DejaVuSans-48" d="M 628 4666 
L 1259 4666 
L 1259 2753 
L 3553 2753 
L 3553 4666 
L 4184 4666 
L 4184 0 
L 3553 0 
L 3553 2222 
L 1259 2222 
L 1259 0 
L 628 0 
L 628 4666 
z
" transform="scale(0.015625)"/>
     </defs>
     <use xlink:href="#DejaVuSans-48"/>
     <use xlink:href="#DejaVuSans-20" x="75.195312"/>
     <use xlink:href="#DejaVuSans-5b" x="106.982422"/>
     <use xlink:href="#DejaVuSans-34" x="145.996094"/>
     <use xlink:href="#DejaVuSans-5d" x="209.619141"/>
    </g>
   </g>
   <g id="text_8">
    <!-- I [8] -->
    <g transform="translate(51.318759 62.529002) scale(0.1 -0.1)">
     <defs>
      <path id="DejaVuSans-49" d="M 628 4666 
L 1259 4666 
L 1259 0 
L 628 0 
L 628 4666 
z
" transform="scale(0.015625)"/>
     </defs>
     <use xlink:href="#DejaVuSans-49"/>
     <use xlink:href="#DejaVuSans-20" x="29.492188"/>
     <use xlink:href="#DejaVuSans-5b" x="61.279297"/>
     <use xlink:href="#DejaVuSans-38" x="100.292969"/>
     <use xlink:href="#DejaVuSans-5d" x="163.916016"/>
    </g>
   </g>
   <g id="text_9">
    <!-- K [2] -->
    <g transform="translate(40.007155 72.079156) scale(0.1 -0.1)">
     <defs>
      <path id="DejaVuSans-4b" d="M 628 4666 
L 1259 4666 
L 1259 2694 
L 3353 4666 
L 4166 4666 
L 1850 2491 
L 4331 0 
L 3500 0 
L 1259 2247 
L 1259 0 
L 628 0 
L 628 4666 
z
" transform="scale(0.015625)"/>
     </defs>
     <use xlink:href="#DejaVuSans-4b"/>
     <use xlink:href="#DejaVuSans-20" x="65.576172"/>
     <use xlink:href="#DejaVuSans-5b" x="97.363281"/>
     <use xlink:href="#DejaVuSans-32" x="136.376953"/>
     <use xlink:href="#DejaVuSans-5d" x="200"/>
    </g>
   </g>
   <g id="text_10">
    <!-- L [67] -->
    <g transform="translate(7.2 150.863809) scale(0.1 -0.1)">
     <defs>
      <path id="DejaVuSans-4c" d="M 628 4666 
L 1259 4666 
L 1259 531 
L 3531 531 
L 3531 0 
L 628 0 
L 628 4666 
z
" transform="scale(0.015625)"/>
      <path id="DejaVuSans-37" d="M 525 4666 
L 3525 4666 
L 3525 4397 
L 1831 0 
L 1172 0 
L 2766 4134 
L 525 4134 
L 525 4666 
z
" transform="scale(0.015625)"/>
     </defs>
     <use xlink:href="#DejaVuSans-4c"/>
     <use xlink:href="#DejaVuSans-20" x="55.712891"/>
     <use xlink:href="#DejaVuSans-5b" x="87.5"/>
     <use xlink:href="#DejaVuSans-36" x="126.513672"/>
     <use xlink:href="#DejaVuSans-37" x="190.136719"/>
     <use xlink:href="#DejaVuSans-5d" x="253.759766"/>
    </g>
   </g>
   <g id="text_11">
    <!-- M [2] -->
    <g transform="translate(32.389856 231.365777) scale(0.1 -0.1)">
     <defs>
      <path id="DejaVuSans-4d" d="M 628 4666 
L 1569 4666 
L 2759 1491 
L 3956 4666 
L 4897 4666 
L 4897 0 
L 4281 0 
L 4281 4097 
L 3078 897 
L 2444 897 
L 1241 4097 
L 1241 0 
L 628 0 
L 628 4666 
z
" transform="scale(0.015625)"/>
     </defs>
     <use xlink:href="#DejaVuSans-4d"/>
     <use xlink:href="#DejaVuSans-20" x="86.279297"/>
     <use xlink:href="#DejaVuSans-5b" x="118.066406"/>
     <use xlink:href="#DejaVuSans-32" x="157.080078"/>
     <use xlink:href="#DejaVuSans-5d" x="220.703125"/>
    </g>
   </g>
   <g id="text_12">
    <!-- N [5] -->
    <g transform="translate(38.359691 238.474518) scale(0.1 -0.1)">
     <defs>
      <path id="DejaVuSans-4e" d="M 628 4666 
L 1478 4666 
L 3547 763 
L 3547 4666 
L 4159 4666 
L 4159 0 
L 3309 0 
L 1241 3903 
L 1241 0 
L 628 0 
L 628 4666 
z
" transform="scale(0.015625)"/>
     </defs>
     <use xlink:href="#DejaVuSans-4e"/>
     <use xlink:href="#DejaVuSans-20" x="74.804688"/>
     <use xlink:href="#DejaVuSans-5b" x="106.591797"/>
     <use xlink:href="#DejaVuSans-35" x="145.605469"/>
     <use xlink:href="#DejaVuSans-5d" x="209.228516"/>
    </g>
   </g>
   <g id="text_13">
    <!-- P [25] -->
    <g transform="translate(58.667174 265.161366) scale(0.1 -0.1)">
     <defs>
      <path id="DejaVuSans-50" d="M 1259 4147 
L 1259 2394 
L 2053 2394 
Q 2494 2394 2734 2622 
Q 2975 2850 2975 3272 
Q 2975 3691 2734 3919 
Q 2494 4147 2053 4147 
L 1259 4147 
z
M 628 4666 
L 2053 4666 
Q 2838 4666 3239 4311 
Q 3641 3956 3641 3272 
Q 3641 2581 3239 2228 
Q 2838 1875 2053 1875 
L 1259 1875 
L 1259 0 
L 628 0 
L 628 4666 
z
" transform="scale(0.015625)"/>
     </defs>
     <use xlink:href="#DejaVuSans-50"/>
     <use xlink:href="#DejaVuSans-20" x="60.302734"/>
     <use xlink:href="#DejaVuSans-5b" x="92.089844"/>
     <use xlink:href="#DejaVuSans-32" x="131.103516"/>
     <use xlink:href="#DejaVuSans-35" x="194.726562"/>
     <use xlink:href="#DejaVuSans-5d" x="258.349609"/>
    </g>
   </g>
   <g id="text_14">
    <!-- Q [5] -->
    <g transform="translate(94.439707 284.434544) scale(0.1 -0.1)">
     <defs>
      <path id="DejaVuSans-51" d="M 2522 4238 
Q 1834 4238 1429 3725 
Q 1025 3213 1025 2328 
Q 1025 1447 1429 934 
Q 1834 422 2522 422 
Q 3209 422 3611 934 
Q 4013 1447 4013 2328 
Q 4013 3213 3611 3725 
Q 3209 4238 2522 4238 
z
M 3406 84 
L 4238 -825 
L 3475 -825 
L 2784 -78 
Q 2681 -84 2626 -87 
Q 2572 -91 2522 -91 
Q 1538 -91 948 567 
Q 359 1225 359 2328 
Q 359 3434 948 4092 
Q 1538 4750 2522 4750 
Q 3503 4750 4090 4092 
Q 4678 3434 4678 2328 
Q 4678 1516 4351 937 
Q 4025 359 3406 84 
z
" transform="scale(0.015625)"/>
     </defs>
     <use xlink:href="#DejaVuSans-51"/>
     <use xlink:href="#DejaVuSans-20" x="78.710938"/>
     <use xlink:href="#DejaVuSans-5b" x="110.498047"/>
     <use xlink:href="#DejaVuSans-35" x="149.511719"/>
     <use xlink:href="#DejaVuSans-5d" x="213.134766"/>
    </g>
   </g>
   <g id="text_15">
    <!-- R [33] -->
    <g transform="translate(133.907684 296.223341) scale(0.1 -0.1)">
     <defs>
      <path id="DejaVuSans-52" d="M 2841 2188 
Q 3044 2119 3236 1894 
Q 3428 1669 3622 1275 
L 4263 0 
L 3584 0 
L 2988 1197 
Q 2756 1666 2539 1819 
Q 2322 1972 1947 1972 
L 1259 1972 
L 1259 0 
L 628 0 
L 628 4666 
L 2053 4666 
Q 2853 4666 3247 4331 
Q 3641 3997 3641 3322 
Q 3641 2881 3436 2590 
Q 3231 2300 2841 2188 
z
M 1259 4147 
L 1259 2491 
L 2053 2491 
Q 2509 2491 2742 2702 
Q 2975 2913 2975 3322 
Q 2975 3731 2742 3939 
Q 2509 4147 2053 4147 
L 1259 4147 
z
" transform="scale(0.015625)"/>
     </defs>
     <use xlink:href="#DejaVuSans-52"/>
     <use xlink:href="#DejaVuSans-20" x="69.482422"/>
     <use xlink:href="#DejaVuSans-5b" x="101.269531"/>
     <use xlink:href="#DejaVuSans-33" x="140.283203"/>
     <use xlink:href="#DejaVuSans-33" x="203.90625"/>
     <use xlink:href="#DejaVuSans-5d" x="267.529297"/>
    </g>
   </g>
   <g id="text_16">
    <!-- S [28] -->
    <g transform="translate(237.439264 283.4095) scale(0.1 -0.1)">
     <defs>
      <path id="DejaVuSans-53" d="M 3425 4513 
L 3425 3897 
Q 3066 4069 2747 4153 
Q 2428 4238 2131 4238 
Q 1616 4238 1336 4038 
Q 1056 3838 1056 3469 
Q 1056 3159 1242 3001 
Q 1428 2844 1947 2747 
L 2328 2669 
Q 3034 2534 3370 2195 
Q 3706 1856 3706 1288 
Q 3706 609 3251 259 
Q 2797 -91 1919 -91 
Q 1588 -91 1214 -16 
Q 841 59 441 206 
L 441 856 
Q 825 641 1194 531 
Q 1563 422 1919 422 
Q 2459 422 2753 634 
Q 3047 847 3047 1241 
Q 3047 1584 2836 1778 
Q 2625 1972 2144 2069 
L 1759 2144 
Q 1053 2284 737 2584 
Q 422 2884 422 3419 
Q 422 4038 858 4394 
Q 1294 4750 2059 4750 
Q 2388 4750 2728 4690 
Q 3069 4631 3425 4513 
z
" transform="scale(0.015625)"/>
     </defs>
     <use xlink:href="#DejaVuSans-53"/>
     <use xlink:href="#DejaVuSans-20" x="63.476562"/>
     <use xlink:href="#DejaVuSans-5b" x="95.263672"/>
     <use xlink:href="#DejaVuSans-32" x="134.277344"/>
     <use xlink:href="#DejaVuSans-38" x="197.900391"/>
     <use xlink:href="#DejaVuSans-5d" x="261.523438"/>
    </g>
   </g>
   <g id="text_17">
    <!-- T [12] -->
    <g transform="translate(277.378675 255.285051) scale(0.1 -0.1)">
     <defs>
      <path id="DejaVuSans-54" d="M -19 4666 
L 3928 4666 
L 3928 4134 
L 2272 4134 
L 2272 0 
L 1638 0 
L 1638 4134 
L -19 4134 
L -19 4666 
z
" transform="scale(0.015625)"/>
     </defs>
     <use xlink:href="#DejaVuSans-54"/>
     <use xlink:href="#DejaVuSans-20" x="61.083984"/>
     <use xlink:href="#DejaVuSans-5b" x="92.871094"/>
     <use xlink:href="#DejaVuSans-31" x="131.884766"/>
     <use xlink:href="#DejaVuSans-32" x="195.507812"/>
     <use xlink:href="#DejaVuSans-5d" x="259.130859"/>
    </g>
   </g>
   <g id="text_18">
    <!-- V [21] -->
    <g transform="translate(301.472462 222.899688) scale(0.1 -0.1)">
     <defs>
      <path id="DejaVuSans-56" d="M 1831 0 
L 50 4666 
L 709 4666 
L 2188 738 
L 3669 4666 
L 4325 4666 
L 2547 0 
L 1831 0 
z
" transform="scale(0.015625)"/>
     </defs>
     <use xlink:href="#DejaVuSans-56"/>
     <use xlink:href="#DejaVuSans-20" x="68.408203"/>
     <use xlink:href="#DejaVuSans-5b" x="100.195312"/>
     <use xlink:href="#DejaVuSans-32" x="139.208984"/>
     <use xlink:href="#DejaVuSans-31" x="202.832031"/>
     <use xlink:href="#DejaVuSans-5d" x="266.455078"/>
    </g>
   </g>
   <g id="text_19">
    <!-- W [9] -->
    <g transform="translate(314.595936 188.607839) scale(0.1 -0.1)">
     <defs>
      <path id="DejaVuSans-57" d="M 213 4666 
L 850 4666 
L 1831 722 
L 2809 4666 
L 3519 4666 
L 4500 722 
L 5478 4666 
L 6119 4666 
L 4947 0 
L 4153 0 
L 3169 4050 
L 2175 0 
L 1381 0 
L 213 4666 
z
" transform="scale(0.015625)"/>
      <path id="DejaVuSans-39" d="M 703 97 
L 703 672 
Q 941 559 1184 500 
Q 1428 441 1663 441 
Q 2288 441 2617 861 
Q 2947 1281 2994 2138 
Q 2813 1869 2534 1725 
Q 2256 1581 1919 1581 
Q 1219 1581 811 2004 
Q 403 2428 403 3163 
Q 403 3881 828 4315 
Q 1253 4750 1959 4750 
Q 2769 4750 3195 4129 
Q 3622 3509 3622 2328 
Q 3622 1225 3098 567 
Q 2575 -91 1691 -91 
Q 1453 -91 1209 -44 
Q 966 3 703 97 
z
M 1959 2075 
Q 2384 2075 2632 2365 
Q 2881 2656 2881 3163 
Q 2881 3666 2632 3958 
Q 2384 4250 1959 4250 
Q 1534 4250 1286 3958 
Q 1038 3666 1038 3163 
Q 1038 2656 1286 2365 
Q 1534 2075 1959 2075 
z
" transform="scale(0.015625)"/>
     </defs>
     <use xlink:href="#DejaVuSans-57"/>
     <use xlink:href="#DejaVuSans-20" x="98.876953"/>
     <use xlink:href="#DejaVuSans-5b" x="130.664062"/>
     <use xlink:href="#DejaVuSans-39" x="169.677734"/>
     <use xlink:href="#DejaVuSans-5d" x="233.300781"/>
    </g>
   </g>
   <g id="text_20">
    <!-- Y [9] -->
    <g transform="translate(318.03903 166.807603) scale(0.1 -0.1)">
     <defs>
      <path id="DejaVuSans-59" d="M -13 4666 
L 666 4666 
L 1959 2747 
L 3244 4666 
L 3922 4666 
L 2272 2222 
L 2272 0 
L 1638 0 
L 1638 2222 
L -13 4666 
z
" transform="scale(0.015625)"/>
     </defs>
     <use xlink:href="#DejaVuSans-59"/>
     <use xlink:href="#DejaVuSans-20" x="61.083984"/>
     <use xlink:href="#DejaVuSans-5b" x="92.871094"/>
     <use xlink:href="#DejaVuSans-39" x="131.884766"/>
     <use xlink:href="#DejaVuSans-5d" x="195.507812"/>
    </g>
   </g>
   <g id="text_21">
    <!-- O00155 [361] -->
    <g transform="translate(135.580168 153.013004) scale(0.12 -0.12)">
     <defs>
      <path id="DejaVuSans-4f" d="M 2522 4238 
Q 1834 4238 1429 3725 
Q 1025 3213 1025 2328 
Q 1025 1447 1429 934 
Q 1834 422 2522 422 
Q 3209 422 3611 934 
Q 4013 1447 4013 2328 
Q 4013 3213 3611 3725 
Q 3209 4238 2522 4238 
z
M 2522 4750 
Q 3503 4750 4090 4092 
Q 4678 3434 4678 2328 
Q 4678 1225 4090 567 
Q 3503 -91 2522 -91 
Q 1538 -91 948 565 
Q 359 1222 359 2328 
Q 359 3434 948 4092 
Q 1538 4750 2522 4750 
z
" transform="scale(0.015625)"/>
     </defs>
     <use xlink:href="#DejaVuSans-4f"/>
     <use xlink:href="#DejaVuSans-30" x="78.710938"/>
     <use xlink:href="#DejaVuSans-30" x="142.333984"/>
     <use xlink:href="#DejaVuSans-31" x="205.957031"/>
     <use xlink:href="#DejaVuSans-35" x="269.580078"/>
     <use xlink:href="#DejaVuSans-35" x="333.203125"/>
     <use xlink:href="#DejaVuSans-20" x="396.826172"/>
     <use xlink:href="#DejaVuSans-5b" x="428.613281"/>
     <use xlink:href="#DejaVuSans-33" x="467.626953"/>
     <use xlink:href="#DejaVuSans-36" x="531.25"/>
     <use xlink:href="#DejaVuSans-31" x="594.873047"/>
     <use xlink:href="#DejaVuSans-5d" x="658.496094"/>
    </g>
   </g>
  </g>
 </g>
</svg>
