<?xml version="1.0" encoding="utf-8" standalone="no"?>
<!DOCTYPE svg PUBLIC "-//W3C//DTD SVG 1.1//EN"
  "http://www.w3.org/Graphics/SVG/1.1/DTD/svg11.dtd">
<svg xmlns:xlink="http://www.w3.org/1999/xlink" width="355.937852pt" height="305.574634pt" viewBox="0 0 355.937852 305.574634" xmlns="http://www.w3.org/2000/svg" version="1.1">
 <metadata>
  <rdf:RDF xmlns:dc="http://purl.org/dc/elements/1.1/" xmlns:cc="http://creativecommons.org/ns#" xmlns:rdf="http://www.w3.org/1999/02/22-rdf-syntax-ns#">
   <cc:Work>
    <dc:type rdf:resource="http://purl.org/dc/dcmitype/StillImage"/>
    <dc:date>2024-09-27T16:07:08.951746</dc:date>
    <dc:format>image/svg+xml</dc:format>
    <dc:creator>
     <cc:Agent>
      <dc:title>Matplotlib v3.8.3, https://matplotlib.org/</dc:title>
     </cc:Agent>
    </dc:creator>
   </cc:Work>
  </rdf:RDF>
 </metadata>
 <defs>
  <style type="text/css">*{stroke-linejoin: round; stroke-linecap: butt}</style>
 </defs>
 <g id="figure_1">
  <g id="patch_1">
   <path d="M 0 305.574634 
L 355.937852 305.574634 
L 355.937852 0 
L 0 0 
z
" style="fill: #ffffff"/>
  </g>
  <g id="axes_1">
   <g id="patch_2">
    <path d="M 305.758277 152.844291 
C 305.758277 140.164884 303.870357 127.555851 300.156699 115.43248 
C 296.44304 103.30911 290.944866 91.805978 283.843262 81.301951 
L 178.024517 152.844291 
z
" style="fill: #1f77b4"/>
   </g>
   <g id="patch_3">
    <path d="M 283.726288 81.097737 
C 280.180368 75.852943 276.24942 70.879024 271.965957 66.217118 
C 267.682495 61.555212 263.05836 57.218208 258.131798 53.241978 
L 177.907543 152.640078 
z
" style="fill: #ff7f0e"/>
   </g>
   <g id="patch_4">
    <path d="M 258.03911 53.161927 
C 255.321876 50.968847 252.515856 48.888109 249.628123 46.924958 
C 246.74039 44.961807 243.773371 43.117894 240.734544 41.397866 
L 177.814855 152.560028 
z
" style="fill: #aec7e8"/>
   </g>
   <g id="patch_5">
    <path d="M 240.613218 41.3364 
C 234.152534 37.679542 227.38533 34.592873 220.388498 32.111464 
C 213.391666 29.630056 206.191807 27.763343 198.870731 26.532536 
L 177.693529 152.498561 
z
" style="fill: #ffbb78"/>
   </g>
   <g id="patch_6">
    <path d="M 198.710561 26.50222 
C 193.113559 25.561261 187.46006 24.994382 181.787662 24.805352 
C 176.115263 24.616322 170.436567 24.805561 164.789338 25.371812 
L 177.533359 152.468245 
z
" style="fill: #98df8a"/>
   </g>
   <g id="patch_7">
    <path d="M 164.591148 25.403046 
C 154.156226 26.449361 143.889765 28.776802 134.02379 32.33277 
C 124.157816 35.888738 114.767215 40.646241 106.06422 46.497756 
L 177.335169 152.499479 
z
" style="fill: #2ca02c"/>
   </g>
   <g id="patch_8">
    <path d="M 105.932071 46.567712 
C 104.664446 47.420008 103.412212 48.294974 102.175972 49.192187 
C 100.939732 50.0894 99.719685 51.008717 98.516421 51.949693 
L 177.20302 152.569435 
z
" style="fill: #d62728"/>
   </g>
   <g id="patch_9">
    <path d="M 98.433453 52.024372 
C 92.585489 56.597594 87.147331 61.671943 82.180771 67.189762 
C 77.214211 72.707581 72.738131 78.647891 68.803391 84.943196 
L 177.120052 152.644114 
z
" style="fill: #9467bd"/>
   </g>
   <g id="patch_10">
    <path d="M 68.719962 85.06728 
C 66.290631 88.954038 64.072264 92.968738 62.074489 97.093957 
C 60.076715 101.219176 58.302427 105.448937 56.759327 109.764881 
L 177.036624 152.768198 
z
" style="fill: #ff9896"/>
   </g>
   <g id="patch_11">
    <path d="M 56.706119 109.999585 
C 51.698013 124.00691 49.175097 138.782026 49.251333 153.657525 
C 49.32757 168.533025 52.001793 183.281505 57.153207 197.236763 
L 176.983416 153.002902 
z
" style="fill: #c5b0d5"/>
   </g>
   <g id="patch_12">
    <path d="M 57.198403 197.448682 
C 58.105259 199.90537 59.08745 202.333588 60.143581 204.729896 
C 61.199712 207.126203 62.329286 209.489465 63.530699 211.816332 
L 177.028612 153.21482 
z
" style="fill: #c49c94"/>
   </g>
   <g id="patch_13">
    <path d="M 63.573776 211.895244 
C 65.676591 215.967922 67.997094 219.924466 70.525214 223.747703 
C 73.053333 227.57094 75.785407 231.255332 78.709578 234.784888 
L 177.071689 153.293732 
z
" style="fill: #8c564b"/>
   </g>
   <g id="patch_14">
    <path d="M 78.817135 234.90377 
C 84.111392 241.294086 90.015813 247.153291 96.446638 252.398266 
C 102.877464 257.643242 109.80414 262.249068 117.128404 266.150406 
L 177.179247 153.412614 
z
" style="fill: #e377c2"/>
   </g>
   <g id="patch_15">
    <path d="M 117.261432 266.229807 
C 120.921397 268.179322 124.674128 269.949453 128.506288 271.533911 
C 132.338449 273.118369 136.245495 274.515273 140.213543 275.719662 
L 177.312275 153.492015 
z
" style="fill: #7f7f7f"/>
   </g>
   <g id="patch_16">
    <path d="M 140.371949 275.758143 
C 148.940756 278.358961 157.759354 280.051505 166.682171 280.807837 
C 175.604988 281.564169 184.582655 281.380103 193.466973 280.258678 
L 177.470681 153.530496 
z
" style="fill: #f7b6d2"/>
   </g>
   <g id="patch_17">
    <path d="M 193.697512 280.227174 
C 203.450423 278.996111 213.028701 276.643287 222.241996 273.215461 
C 231.45529 269.787634 240.242159 265.307664 248.42798 259.864583 
L 177.701219 153.498993 
z
" style="fill: #c7c7c7"/>
   </g>
   <g id="patch_18">
    <path d="M 248.617283 259.743547 
C 255.527563 255.148624 261.973647 249.891204 267.864092 244.045869 
C 273.754537 238.200534 279.061355 231.795055 283.709265 224.920303 
L 177.890523 153.377957 
z
" style="fill: #dbdb8d"/>
   </g>
   <g id="patch_19">
    <path d="M 283.816894 224.767104 
C 287.607609 219.160232 290.946711 213.260939 293.802647 207.124966 
C 296.658582 200.988993 299.022329 194.635729 300.871551 188.125206 
L 177.998152 153.224758 
z
" style="fill: #bcbd22"/>
   </g>
   <g id="patch_20">
    <path d="M 300.908385 188.016962 
C 301.564259 185.707837 302.154911 183.380682 302.679636 181.03827 
C 303.204362 178.695859 303.662953 176.339121 304.054863 173.970865 
L 178.034986 153.116515 
z
" style="fill: #17becf"/>
   </g>
   <g id="patch_21">
    <path d="M 304.065946 173.898117 
C 304.636039 170.453127 305.064629 166.986208 305.350637 163.506098 
C 305.636644 160.025989 305.779828 156.535614 305.779829 153.043771 
L 178.046069 153.043767 
z
" style="fill: #9edae5"/>
   </g>
   <g id="patch_22">
    <path d="M 252.026993 153.000174 
C 252.026993 145.603853 250.925706 138.248584 248.759406 131.176618 
C 246.593105 124.104652 243.385836 117.394491 239.243234 111.267142 
L 177.515633 153.000174 
z
" style="fill: #ffffff"/>
   </g>
   <g id="patch_23">
    <path d="M 239.243234 111.267142 
C 237.174781 108.207678 234.881728 105.306225 232.383041 102.58678 
C 229.884355 99.867335 227.186943 97.337416 224.313115 95.017949 
L 177.515633 153.000174 
z
" style="fill: #ffffff"/>
   </g>
   <g id="patch_24">
    <path d="M 224.313115 95.017949 
C 222.728062 93.738652 221.091217 92.524888 219.406706 91.379717 
C 217.722195 90.234545 215.991434 89.158929 214.218785 88.15558 
L 177.515633 153.000174 
z
" style="fill: #ffffff"/>
   </g>
   <g id="patch_25">
    <path d="M 214.218785 88.15558 
C 210.450053 86.022413 206.502517 84.221856 202.421031 82.774368 
C 198.339546 81.326879 194.139629 80.237963 189.869001 79.519992 
L 177.515633 153.000174 
z
" style="fill: #ffffff"/>
   </g>
   <g id="patch_26">
    <path d="M 189.869001 79.519992 
C 186.604083 78.9711 183.306209 78.64042 179.997309 78.530153 
C 176.68841 78.419885 173.375838 78.530275 170.081621 78.860588 
L 177.515633 153.000174 
z
" style="fill: #ffffff"/>
   </g>
   <g id="patch_27">
    <path d="M 170.081621 78.860588 
C 163.994583 79.470938 158.005814 80.828612 152.250662 82.902927 
C 146.49551 84.977242 141.01766 87.752451 135.940913 91.165836 
L 177.515633 153.000174 
z
" style="fill: #ffffff"/>
   </g>
   <g id="patch_28">
    <path d="M 135.940913 91.165836 
C 135.201465 91.663008 134.470995 92.173405 133.749855 92.696779 
C 133.028715 93.220154 132.317021 93.756422 131.615117 94.305324 
L 177.515633 153.000174 
z
" style="fill: #ffffff"/>
   </g>
   <g id="patch_29">
    <path d="M 131.615117 94.305324 
C 128.203804 96.973037 125.031545 99.933074 122.134385 103.151802 
C 119.237225 106.37053 116.626179 109.835711 114.330914 113.507972 
L 177.515633 153.000174 
z
" style="fill: #ffffff"/>
   </g>
   <g id="patch_30">
    <path d="M 114.330914 113.507972 
C 112.913804 115.775247 111.619756 118.117156 110.454388 120.523533 
C 109.289019 122.929911 108.254018 125.397272 107.353876 127.914906 
L 177.515633 153.000174 
z
" style="fill: #ffffff"/>
   </g>
   <g id="patch_31">
    <path d="M 107.353876 127.914906 
C 104.432481 136.085846 102.96078 144.704663 103.005251 153.382038 
C 103.049723 162.059413 104.609686 170.662693 107.614678 178.80326 
L 177.515633 153.000174 
z
" style="fill: #ffffff"/>
   </g>
   <g id="patch_32">
    <path d="M 107.614678 178.80326 
C 108.143677 180.236328 108.716622 181.652789 109.332698 183.050635 
C 109.948775 184.448481 110.607693 185.82705 111.308517 187.184389 
L 177.515633 153.000174 
z
" style="fill: #ffffff"/>
   </g>
   <g id="patch_33">
    <path d="M 111.308517 187.184389 
C 112.535159 189.560118 113.888786 191.868102 115.363522 194.098324 
C 116.838259 196.328545 118.431968 198.477774 120.137734 200.536681 
L 177.515633 153.000174 
z
" style="fill: #ffffff"/>
   </g>
   <g id="patch_34">
    <path d="M 120.137734 200.536681 
C 123.226051 204.264366 126.670296 207.682235 130.421611 210.741804 
C 134.172926 213.801373 138.213487 216.488105 142.485974 218.763886 
L 177.515633 153.000174 
z
" style="fill: #ffffff"/>
   </g>
   <g id="patch_35">
    <path d="M 142.485974 218.763886 
C 144.620955 219.901103 146.810047 220.93368 149.045474 221.857947 
C 151.280901 222.782213 153.560011 223.597075 155.874706 224.299634 
L 177.515633 153.000174 
z
" style="fill: #ffffff"/>
   </g>
   <g id="patch_36">
    <path d="M 155.874706 224.299634 
C 160.873177 225.816778 166.017359 226.804096 171.222336 227.245289 
C 176.427312 227.686483 181.664285 227.579111 186.846803 226.924947 
L 177.515633 153.000174 
z
" style="fill: #ffffff"/>
   </g>
   <g id="patch_37">
    <path d="M 186.846803 226.924947 
C 192.536001 226.206826 198.123331 224.834346 203.497752 222.83478 
C 208.872174 220.835215 213.997848 218.221899 218.77291 215.046768 
L 177.515633 153.000174 
z
" style="fill: #ffffff"/>
   </g>
   <g id="patch_38">
    <path d="M 218.77291 215.046768 
C 222.803906 212.366397 226.564122 209.299568 230.000215 205.889789 
C 233.436308 202.48001 236.531952 198.743481 239.243232 194.733209 
L 177.515633 153.000174 
z
" style="fill: #ffffff"/>
   </g>
   <g id="patch_39">
    <path d="M 239.243232 194.733209 
C 241.454483 191.462534 243.402292 188.021279 245.068255 184.441962 
C 246.734217 180.862644 248.11307 177.156573 249.191782 173.358768 
L 177.515633 153.000174 
z
" style="fill: #ffffff"/>
   </g>
   <g id="patch_40">
    <path d="M 249.191782 173.358768 
C 249.574376 172.011779 249.918923 170.654272 250.225013 169.287865 
C 250.531102 167.921458 250.798614 166.546694 251.027228 165.165212 
L 177.515633 153.000174 
z
" style="fill: #ffffff"/>
   </g>
   <g id="patch_41">
    <path d="M 251.027228 165.165212 
C 251.359782 163.155634 251.609793 161.133265 251.776631 159.103201 
C 251.943469 157.073137 252.026993 155.037085 252.026993 153.000177 
L 177.515633 153.000174 
z
" style="fill: #ffffff"/>
   </g>
   <g id="matplotlib.axis_1"/>
   <g id="matplotlib.axis_2"/>
   <g id="text_1">
    <!-- A [58] -->
    <g transform="translate(312.369917 114.450674) scale(0.1 -0.1)">
     <defs>
      <path id="DejaVuSans-41" d="M 2188 4044 
L 1331 1722 
L 3047 1722 
L 2188 4044 
z
M 1831 4666 
L 2547 4666 
L 4325 0 
L 3669 0 
L 3244 1197 
L 1141 1197 
L 716 0 
L 50 0 
L 1831 4666 
z
" transform="scale(0.015625)"/>
      <path id="DejaVuSans-20" transform="scale(0.015625)"/>
      <path id="DejaVuSans-5b" d="M 550 4863 
L 1875 4863 
L 1875 4416 
L 1125 4416 
L 1125 -397 
L 1875 -397 
L 1875 -844 
L 550 -844 
L 550 4863 
z
" transform="scale(0.015625)"/>
      <path id="DejaVuSans-35" d="M 691 4666 
L 3169 4666 
L 3169 4134 
L 1269 4134 
L 1269 2991 
Q 1406 3038 1543 3061 
Q 1681 3084 1819 3084 
Q 2600 3084 3056 2656 
Q 3513 2228 3513 1497 
Q 3513 744 3044 326 
Q 2575 -91 1722 -91 
Q 1428 -91 1123 -41 
Q 819 9 494 109 
L 494 744 
Q 775 591 1075 516 
Q 1375 441 1709 441 
Q 2250 441 2565 725 
Q 2881 1009 2881 1497 
Q 2881 1984 2565 2268 
Q 2250 2553 1709 2553 
Q 1456 2553 1204 2497 
Q 953 2441 691 2322 
L 691 4666 
z
" transform="scale(0.015625)"/>
      <path id="DejaVuSans-38" d="M 2034 2216 
Q 1584 2216 1326 1975 
Q 1069 1734 1069 1313 
Q 1069 891 1326 650 
Q 1584 409 2034 409 
Q 2484 409 2743 651 
Q 3003 894 3003 1313 
Q 3003 1734 2745 1975 
Q 2488 2216 2034 2216 
z
M 1403 2484 
Q 997 2584 770 2862 
Q 544 3141 544 3541 
Q 544 4100 942 4425 
Q 1341 4750 2034 4750 
Q 2731 4750 3128 4425 
Q 3525 4100 3525 3541 
Q 3525 3141 3298 2862 
Q 3072 2584 2669 2484 
Q 3125 2378 3379 2068 
Q 3634 1759 3634 1313 
Q 3634 634 3220 271 
Q 2806 -91 2034 -91 
Q 1263 -91 848 271 
Q 434 634 434 1313 
Q 434 1759 690 2068 
Q 947 2378 1403 2484 
z
M 1172 3481 
Q 1172 3119 1398 2916 
Q 1625 2713 2034 2713 
Q 2441 2713 2670 2916 
Q 2900 3119 2900 3481 
Q 2900 3844 2670 4047 
Q 2441 4250 2034 4250 
Q 1625 4250 1398 4047 
Q 1172 3844 1172 3481 
z
" transform="scale(0.015625)"/>
      <path id="DejaVuSans-5d" d="M 1947 4863 
L 1947 -844 
L 622 -844 
L 622 -397 
L 1369 -397 
L 1369 4416 
L 622 4416 
L 622 4863 
L 1947 4863 
z
" transform="scale(0.015625)"/>
     </defs>
     <use xlink:href="#DejaVuSans-41"/>
     <use xlink:href="#DejaVuSans-20" x="68.408203"/>
     <use xlink:href="#DejaVuSans-5b" x="100.195312"/>
     <use xlink:href="#DejaVuSans-35" x="139.208984"/>
     <use xlink:href="#DejaVuSans-38" x="202.832031"/>
     <use xlink:href="#DejaVuSans-5d" x="266.455078"/>
    </g>
   </g>
   <g id="text_2">
    <!-- C [29] -->
    <g transform="translate(281.371799 60.334197) scale(0.1 -0.1)">
     <defs>
      <path id="DejaVuSans-43" d="M 4122 4306 
L 4122 3641 
Q 3803 3938 3442 4084 
Q 3081 4231 2675 4231 
Q 1875 4231 1450 3742 
Q 1025 3253 1025 2328 
Q 1025 1406 1450 917 
Q 1875 428 2675 428 
Q 3081 428 3442 575 
Q 3803 722 4122 1019 
L 4122 359 
Q 3791 134 3420 21 
Q 3050 -91 2638 -91 
Q 1578 -91 968 557 
Q 359 1206 359 2328 
Q 359 3453 968 4101 
Q 1578 4750 2638 4750 
Q 3056 4750 3426 4639 
Q 3797 4528 4122 4306 
z
" transform="scale(0.015625)"/>
      <path id="DejaVuSans-32" d="M 1228 531 
L 3431 531 
L 3431 0 
L 469 0 
L 469 531 
Q 828 903 1448 1529 
Q 2069 2156 2228 2338 
Q 2531 2678 2651 2914 
Q 2772 3150 2772 3378 
Q 2772 3750 2511 3984 
Q 2250 4219 1831 4219 
Q 1534 4219 1204 4116 
Q 875 4013 500 3803 
L 500 4441 
Q 881 4594 1212 4672 
Q 1544 4750 1819 4750 
Q 2544 4750 2975 4387 
Q 3406 4025 3406 3419 
Q 3406 3131 3298 2873 
Q 3191 2616 2906 2266 
Q 2828 2175 2409 1742 
Q 1991 1309 1228 531 
z
" transform="scale(0.015625)"/>
      <path id="DejaVuSans-39" d="M 703 97 
L 703 672 
Q 941 559 1184 500 
Q 1428 441 1663 441 
Q 2288 441 2617 861 
Q 2947 1281 2994 2138 
Q 2813 1869 2534 1725 
Q 2256 1581 1919 1581 
Q 1219 1581 811 2004 
Q 403 2428 403 3163 
Q 403 3881 828 4315 
Q 1253 4750 1959 4750 
Q 2769 4750 3195 4129 
Q 3622 3509 3622 2328 
Q 3622 1225 3098 567 
Q 2575 -91 1691 -91 
Q 1453 -91 1209 -44 
Q 966 3 703 97 
z
M 1959 2075 
Q 2384 2075 2632 2365 
Q 2881 2656 2881 3163 
Q 2881 3666 2632 3958 
Q 2384 4250 1959 4250 
Q 1534 4250 1286 3958 
Q 1038 3666 1038 3163 
Q 1038 2656 1286 2365 
Q 1534 2075 1959 2075 
z
" transform="scale(0.015625)"/>
     </defs>
     <use xlink:href="#DejaVuSans-43"/>
     <use xlink:href="#DejaVuSans-20" x="69.824219"/>
     <use xlink:href="#DejaVuSans-5b" x="101.611328"/>
     <use xlink:href="#DejaVuSans-32" x="140.625"/>
     <use xlink:href="#DejaVuSans-39" x="204.248047"/>
     <use xlink:href="#DejaVuSans-5d" x="267.871094"/>
    </g>
   </g>
   <g id="text_3">
    <!-- D [16] -->
    <g transform="translate(256.80945 39.120826) scale(0.1 -0.1)">
     <defs>
      <path id="DejaVuSans-44" d="M 1259 4147 
L 1259 519 
L 2022 519 
Q 2988 519 3436 956 
Q 3884 1394 3884 2338 
Q 3884 3275 3436 3711 
Q 2988 4147 2022 4147 
L 1259 4147 
z
M 628 4666 
L 1925 4666 
Q 3281 4666 3915 4102 
Q 4550 3538 4550 2338 
Q 4550 1131 3912 565 
Q 3275 0 1925 0 
L 628 0 
L 628 4666 
z
" transform="scale(0.015625)"/>
      <path id="DejaVuSans-31" d="M 794 531 
L 1825 531 
L 1825 4091 
L 703 3866 
L 703 4441 
L 1819 4666 
L 2450 4666 
L 2450 531 
L 3481 531 
L 3481 0 
L 794 0 
L 794 531 
z
" transform="scale(0.015625)"/>
      <path id="DejaVuSans-36" d="M 2113 2584 
Q 1688 2584 1439 2293 
Q 1191 2003 1191 1497 
Q 1191 994 1439 701 
Q 1688 409 2113 409 
Q 2538 409 2786 701 
Q 3034 994 3034 1497 
Q 3034 2003 2786 2293 
Q 2538 2584 2113 2584 
z
M 3366 4563 
L 3366 3988 
Q 3128 4100 2886 4159 
Q 2644 4219 2406 4219 
Q 1781 4219 1451 3797 
Q 1122 3375 1075 2522 
Q 1259 2794 1537 2939 
Q 1816 3084 2150 3084 
Q 2853 3084 3261 2657 
Q 3669 2231 3669 1497 
Q 3669 778 3244 343 
Q 2819 -91 2113 -91 
Q 1303 -91 875 529 
Q 447 1150 447 2328 
Q 447 3434 972 4092 
Q 1497 4750 2381 4750 
Q 2619 4750 2861 4703 
Q 3103 4656 3366 4563 
z
" transform="scale(0.015625)"/>
     </defs>
     <use xlink:href="#DejaVuSans-44"/>
     <use xlink:href="#DejaVuSans-20" x="77.001953"/>
     <use xlink:href="#DejaVuSans-5b" x="108.789062"/>
     <use xlink:href="#DejaVuSans-31" x="147.802734"/>
     <use xlink:href="#DejaVuSans-36" x="211.425781"/>
     <use xlink:href="#DejaVuSans-5d" x="275.048828"/>
    </g>
   </g>
   <g id="text_4">
    <!-- E [34] -->
    <g transform="translate(224.657994 22.83213) scale(0.1 -0.1)">
     <defs>
      <path id="DejaVuSans-45" d="M 628 4666 
L 3578 4666 
L 3578 4134 
L 1259 4134 
L 1259 2753 
L 3481 2753 
L 3481 2222 
L 1259 2222 
L 1259 531 
L 3634 531 
L 3634 0 
L 628 0 
L 628 4666 
z
" transform="scale(0.015625)"/>
      <path id="DejaVuSans-33" d="M 2597 2516 
Q 3050 2419 3304 2112 
Q 3559 1806 3559 1356 
Q 3559 666 3084 287 
Q 2609 -91 1734 -91 
Q 1441 -91 1130 -33 
Q 819 25 488 141 
L 488 750 
Q 750 597 1062 519 
Q 1375 441 1716 441 
Q 2309 441 2620 675 
Q 2931 909 2931 1356 
Q 2931 1769 2642 2001 
Q 2353 2234 1838 2234 
L 1294 2234 
L 1294 2753 
L 1863 2753 
Q 2328 2753 2575 2939 
Q 2822 3125 2822 3475 
Q 2822 3834 2567 4026 
Q 2313 4219 1838 4219 
Q 1578 4219 1281 4162 
Q 984 4106 628 3988 
L 628 4550 
Q 988 4650 1302 4700 
Q 1616 4750 1894 4750 
Q 2613 4750 3031 4423 
Q 3450 4097 3450 3541 
Q 3450 3153 3228 2886 
Q 3006 2619 2597 2516 
z
" transform="scale(0.015625)"/>
      <path id="DejaVuSans-34" d="M 2419 4116 
L 825 1625 
L 2419 1625 
L 2419 4116 
z
M 2253 4666 
L 3047 4666 
L 3047 1625 
L 3713 1625 
L 3713 1100 
L 3047 1100 
L 3047 0 
L 2419 0 
L 2419 1100 
L 313 1100 
L 313 1709 
L 2253 4666 
z
" transform="scale(0.015625)"/>
     </defs>
     <use xlink:href="#DejaVuSans-45"/>
     <use xlink:href="#DejaVuSans-20" x="63.183594"/>
     <use xlink:href="#DejaVuSans-5b" x="94.970703"/>
     <use xlink:href="#DejaVuSans-33" x="133.984375"/>
     <use xlink:href="#DejaVuSans-34" x="197.607422"/>
     <use xlink:href="#DejaVuSans-5d" x="261.230469"/>
    </g>
   </g>
   <g id="text_5">
    <!-- F [26] -->
    <g transform="translate(182.213092 14.798437) scale(0.1 -0.1)">
     <defs>
      <path id="DejaVuSans-46" d="M 628 4666 
L 3309 4666 
L 3309 4134 
L 1259 4134 
L 1259 2759 
L 3109 2759 
L 3109 2228 
L 1259 2228 
L 1259 0 
L 628 0 
L 628 4666 
z
" transform="scale(0.015625)"/>
     </defs>
     <use xlink:href="#DejaVuSans-46"/>
     <use xlink:href="#DejaVuSans-20" x="57.519531"/>
     <use xlink:href="#DejaVuSans-5b" x="89.306641"/>
     <use xlink:href="#DejaVuSans-32" x="128.320312"/>
     <use xlink:href="#DejaVuSans-36" x="191.943359"/>
     <use xlink:href="#DejaVuSans-5d" x="255.566406"/>
    </g>
   </g>
   <g id="text_6">
    <!-- G [48] -->
    <g transform="translate(98.237965 23.075474) scale(0.1 -0.1)">
     <defs>
      <path id="DejaVuSans-47" d="M 3809 666 
L 3809 1919 
L 2778 1919 
L 2778 2438 
L 4434 2438 
L 4434 434 
Q 4069 175 3628 42 
Q 3188 -91 2688 -91 
Q 1594 -91 976 548 
Q 359 1188 359 2328 
Q 359 3472 976 4111 
Q 1594 4750 2688 4750 
Q 3144 4750 3555 4637 
Q 3966 4525 4313 4306 
L 4313 3634 
Q 3963 3931 3569 4081 
Q 3175 4231 2741 4231 
Q 1884 4231 1454 3753 
Q 1025 3275 1025 2328 
Q 1025 1384 1454 906 
Q 1884 428 2741 428 
Q 3075 428 3337 486 
Q 3600 544 3809 666 
z
" transform="scale(0.015625)"/>
     </defs>
     <use xlink:href="#DejaVuSans-47"/>
     <use xlink:href="#DejaVuSans-20" x="77.490234"/>
     <use xlink:href="#DejaVuSans-5b" x="109.277344"/>
     <use xlink:href="#DejaVuSans-34" x="148.291016"/>
     <use xlink:href="#DejaVuSans-38" x="211.914062"/>
     <use xlink:href="#DejaVuSans-5d" x="275.537109"/>
    </g>
   </g>
   <g id="text_7">
    <!-- H [7] -->
    <g transform="translate(69.809204 41.613837) scale(0.1 -0.1)">
     <defs>
      <path id="DejaVuSans-48" d="M 628 4666 
L 1259 4666 
L 1259 2753 
L 3553 2753 
L 3553 4666 
L 4184 4666 
L 4184 0 
L 3553 0 
L 3553 2222 
L 1259 2222 
L 1259 0 
L 628 0 
L 628 4666 
z
" transform="scale(0.015625)"/>
      <path id="DejaVuSans-37" d="M 525 4666 
L 3525 4666 
L 3525 4397 
L 1831 0 
L 1172 0 
L 2766 4134 
L 525 4134 
L 525 4666 
z
" transform="scale(0.015625)"/>
     </defs>
     <use xlink:href="#DejaVuSans-48"/>
     <use xlink:href="#DejaVuSans-20" x="75.195312"/>
     <use xlink:href="#DejaVuSans-5b" x="106.982422"/>
     <use xlink:href="#DejaVuSans-37" x="145.996094"/>
     <use xlink:href="#DejaVuSans-5d" x="209.619141"/>
    </g>
   </g>
   <g id="text_8">
    <!-- I [34] -->
    <g transform="translate(46.030593 61.403702) scale(0.1 -0.1)">
     <defs>
      <path id="DejaVuSans-49" d="M 628 4666 
L 1259 4666 
L 1259 0 
L 628 0 
L 628 4666 
z
" transform="scale(0.015625)"/>
     </defs>
     <use xlink:href="#DejaVuSans-49"/>
     <use xlink:href="#DejaVuSans-20" x="29.492188"/>
     <use xlink:href="#DejaVuSans-5b" x="61.279297"/>
     <use xlink:href="#DejaVuSans-33" x="100.292969"/>
     <use xlink:href="#DejaVuSans-34" x="163.916016"/>
     <use xlink:href="#DejaVuSans-5d" x="227.539062"/>
    </g>
   </g>
   <g id="text_9">
    <!-- K [21] -->
    <g transform="translate(20.314214 94.285908) scale(0.1 -0.1)">
     <defs>
      <path id="DejaVuSans-4b" d="M 628 4666 
L 1259 4666 
L 1259 2694 
L 3353 4666 
L 4166 4666 
L 1850 2491 
L 4331 0 
L 3500 0 
L 1259 2247 
L 1259 0 
L 628 0 
L 628 4666 
z
" transform="scale(0.015625)"/>
     </defs>
     <use xlink:href="#DejaVuSans-4b"/>
     <use xlink:href="#DejaVuSans-20" x="65.576172"/>
     <use xlink:href="#DejaVuSans-5b" x="97.363281"/>
     <use xlink:href="#DejaVuSans-32" x="136.376953"/>
     <use xlink:href="#DejaVuSans-31" x="200"/>
     <use xlink:href="#DejaVuSans-5d" x="263.623047"/>
    </g>
   </g>
   <g id="text_10">
    <!-- L [68] -->
    <g transform="translate(7.2 156.482363) scale(0.1 -0.1)">
     <defs>
      <path id="DejaVuSans-4c" d="M 628 4666 
L 1259 4666 
L 1259 531 
L 3531 531 
L 3531 0 
L 628 0 
L 628 4666 
z
" transform="scale(0.015625)"/>
     </defs>
     <use xlink:href="#DejaVuSans-4c"/>
     <use xlink:href="#DejaVuSans-20" x="55.712891"/>
     <use xlink:href="#DejaVuSans-5b" x="87.5"/>
     <use xlink:href="#DejaVuSans-36" x="126.513672"/>
     <use xlink:href="#DejaVuSans-38" x="190.136719"/>
     <use xlink:href="#DejaVuSans-5d" x="253.759766"/>
    </g>
   </g>
   <g id="text_11">
    <!-- M [12] -->
    <g transform="translate(16.120703 212.640778) scale(0.1 -0.1)">
     <defs>
      <path id="DejaVuSans-4d" d="M 628 4666 
L 1569 4666 
L 2759 1491 
L 3956 4666 
L 4897 4666 
L 4897 0 
L 4281 0 
L 4281 4097 
L 3078 897 
L 2444 897 
L 1241 4097 
L 1241 0 
L 628 0 
L 628 4666 
z
" transform="scale(0.015625)"/>
     </defs>
     <use xlink:href="#DejaVuSans-4d"/>
     <use xlink:href="#DejaVuSans-20" x="86.279297"/>
     <use xlink:href="#DejaVuSans-5b" x="118.066406"/>
     <use xlink:href="#DejaVuSans-31" x="157.080078"/>
     <use xlink:href="#DejaVuSans-32" x="220.703125"/>
     <use xlink:href="#DejaVuSans-5d" x="284.326172"/>
    </g>
   </g>
   <g id="text_12">
    <!-- N [21] -->
    <g transform="translate(28.683066 233.552475) scale(0.1 -0.1)">
     <defs>
      <path id="DejaVuSans-4e" d="M 628 4666 
L 1478 4666 
L 3547 763 
L 3547 4666 
L 4159 4666 
L 4159 0 
L 3309 0 
L 1241 3903 
L 1241 0 
L 628 0 
L 628 4666 
z
" transform="scale(0.015625)"/>
     </defs>
     <use xlink:href="#DejaVuSans-4e"/>
     <use xlink:href="#DejaVuSans-20" x="74.804688"/>
     <use xlink:href="#DejaVuSans-5b" x="106.591797"/>
     <use xlink:href="#DejaVuSans-32" x="145.605469"/>
     <use xlink:href="#DejaVuSans-31" x="209.228516"/>
     <use xlink:href="#DejaVuSans-5d" x="272.851562"/>
    </g>
   </g>
   <g id="text_13">
    <!-- P [38] -->
    <g transform="translate(58.63744 265.056207) scale(0.1 -0.1)">
     <defs>
      <path id="DejaVuSans-50" d="M 1259 4147 
L 1259 2394 
L 2053 2394 
Q 2494 2394 2734 2622 
Q 2975 2850 2975 3272 
Q 2975 3691 2734 3919 
Q 2494 4147 2053 4147 
L 1259 4147 
z
M 628 4666 
L 2053 4666 
Q 2838 4666 3239 4311 
Q 3641 3956 3641 3272 
Q 3641 2581 3239 2228 
Q 2838 1875 2053 1875 
L 1259 1875 
L 1259 0 
L 628 0 
L 628 4666 
z
" transform="scale(0.015625)"/>
     </defs>
     <use xlink:href="#DejaVuSans-50"/>
     <use xlink:href="#DejaVuSans-20" x="60.302734"/>
     <use xlink:href="#DejaVuSans-5b" x="92.089844"/>
     <use xlink:href="#DejaVuSans-33" x="131.103516"/>
     <use xlink:href="#DejaVuSans-38" x="194.726562"/>
     <use xlink:href="#DejaVuSans-5d" x="258.349609"/>
    </g>
   </g>
   <g id="text_14">
    <!-- Q [19] -->
    <g transform="translate(92.047565 286.097476) scale(0.1 -0.1)">
     <defs>
      <path id="DejaVuSans-51" d="M 2522 4238 
Q 1834 4238 1429 3725 
Q 1025 3213 1025 2328 
Q 1025 1447 1429 934 
Q 1834 422 2522 422 
Q 3209 422 3611 934 
Q 4013 1447 4013 2328 
Q 4013 3213 3611 3725 
Q 3209 4238 2522 4238 
z
M 3406 84 
L 4238 -825 
L 3475 -825 
L 2784 -78 
Q 2681 -84 2626 -87 
Q 2572 -91 2522 -91 
Q 1538 -91 948 567 
Q 359 1225 359 2328 
Q 359 3434 948 4092 
Q 1538 4750 2522 4750 
Q 3503 4750 4090 4092 
Q 4678 3434 4678 2328 
Q 4678 1516 4351 937 
Q 4025 359 3406 84 
z
" transform="scale(0.015625)"/>
     </defs>
     <use xlink:href="#DejaVuSans-51"/>
     <use xlink:href="#DejaVuSans-20" x="78.710938"/>
     <use xlink:href="#DejaVuSans-5b" x="110.498047"/>
     <use xlink:href="#DejaVuSans-31" x="149.511719"/>
     <use xlink:href="#DejaVuSans-39" x="213.134766"/>
     <use xlink:href="#DejaVuSans-5d" x="276.757812"/>
    </g>
   </g>
   <g id="text_15">
    <!-- R [41] -->
    <g transform="translate(134.948633 296.294946) scale(0.1 -0.1)">
     <defs>
      <path id="DejaVuSans-52" d="M 2841 2188 
Q 3044 2119 3236 1894 
Q 3428 1669 3622 1275 
L 4263 0 
L 3584 0 
L 2988 1197 
Q 2756 1666 2539 1819 
Q 2322 1972 1947 1972 
L 1259 1972 
L 1259 0 
L 628 0 
L 628 4666 
L 2053 4666 
Q 2853 4666 3247 4331 
Q 3641 3997 3641 3322 
Q 3641 2881 3436 2590 
Q 3231 2300 2841 2188 
z
M 1259 4147 
L 1259 2491 
L 2053 2491 
Q 2509 2491 2742 2702 
Q 2975 2913 2975 3322 
Q 2975 3731 2742 3939 
Q 2509 4147 2053 4147 
L 1259 4147 
z
" transform="scale(0.015625)"/>
     </defs>
     <use xlink:href="#DejaVuSans-52"/>
     <use xlink:href="#DejaVuSans-20" x="69.482422"/>
     <use xlink:href="#DejaVuSans-5b" x="101.269531"/>
     <use xlink:href="#DejaVuSans-34" x="140.283203"/>
     <use xlink:href="#DejaVuSans-31" x="203.90625"/>
     <use xlink:href="#DejaVuSans-5d" x="267.529297"/>
    </g>
   </g>
   <g id="text_16">
    <!-- S [45] -->
    <g transform="translate(226.696073 287.946482) scale(0.1 -0.1)">
     <defs>
      <path id="DejaVuSans-53" d="M 3425 4513 
L 3425 3897 
Q 3066 4069 2747 4153 
Q 2428 4238 2131 4238 
Q 1616 4238 1336 4038 
Q 1056 3838 1056 3469 
Q 1056 3159 1242 3001 
Q 1428 2844 1947 2747 
L 2328 2669 
Q 3034 2534 3370 2195 
Q 3706 1856 3706 1288 
Q 3706 609 3251 259 
Q 2797 -91 1919 -91 
Q 1588 -91 1214 -16 
Q 841 59 441 206 
L 441 856 
Q 825 641 1194 531 
Q 1563 422 1919 422 
Q 2459 422 2753 634 
Q 3047 847 3047 1241 
Q 3047 1584 2836 1778 
Q 2625 1972 2144 2069 
L 1759 2144 
Q 1053 2284 737 2584 
Q 422 2884 422 3419 
Q 422 4038 858 4394 
Q 1294 4750 2059 4750 
Q 2388 4750 2728 4690 
Q 3069 4631 3425 4513 
z
" transform="scale(0.015625)"/>
     </defs>
     <use xlink:href="#DejaVuSans-53"/>
     <use xlink:href="#DejaVuSans-20" x="63.476562"/>
     <use xlink:href="#DejaVuSans-5b" x="95.263672"/>
     <use xlink:href="#DejaVuSans-34" x="134.277344"/>
     <use xlink:href="#DejaVuSans-35" x="197.900391"/>
     <use xlink:href="#DejaVuSans-5d" x="261.523438"/>
    </g>
   </g>
   <g id="text_17">
    <!-- T [38] -->
    <g transform="translate(276.861449 255.872035) scale(0.1 -0.1)">
     <defs>
      <path id="DejaVuSans-54" d="M -19 4666 
L 3928 4666 
L 3928 4134 
L 2272 4134 
L 2272 0 
L 1638 0 
L 1638 4134 
L -19 4134 
L -19 4666 
z
" transform="scale(0.015625)"/>
     </defs>
     <use xlink:href="#DejaVuSans-54"/>
     <use xlink:href="#DejaVuSans-20" x="61.083984"/>
     <use xlink:href="#DejaVuSans-5b" x="92.871094"/>
     <use xlink:href="#DejaVuSans-33" x="131.884766"/>
     <use xlink:href="#DejaVuSans-38" x="195.507812"/>
     <use xlink:href="#DejaVuSans-5d" x="259.130859"/>
    </g>
   </g>
   <g id="text_18">
    <!-- V [31] -->
    <g transform="translate(305.383096 215.274362) scale(0.1 -0.1)">
     <defs>
      <path id="DejaVuSans-56" d="M 1831 0 
L 50 4666 
L 709 4666 
L 2188 738 
L 3669 4666 
L 4325 4666 
L 2547 0 
L 1831 0 
z
" transform="scale(0.015625)"/>
     </defs>
     <use xlink:href="#DejaVuSans-56"/>
     <use xlink:href="#DejaVuSans-20" x="68.408203"/>
     <use xlink:href="#DejaVuSans-5b" x="100.195312"/>
     <use xlink:href="#DejaVuSans-33" x="139.208984"/>
     <use xlink:href="#DejaVuSans-31" x="202.832031"/>
     <use xlink:href="#DejaVuSans-5d" x="266.455078"/>
    </g>
   </g>
   <g id="text_19">
    <!-- W [11] -->
    <g transform="translate(315.144102 186.589821) scale(0.1 -0.1)">
     <defs>
      <path id="DejaVuSans-57" d="M 213 4666 
L 850 4666 
L 1831 722 
L 2809 4666 
L 3519 4666 
L 4500 722 
L 5478 4666 
L 6119 4666 
L 4947 0 
L 4153 0 
L 3169 4050 
L 2175 0 
L 1381 0 
L 213 4666 
z
" transform="scale(0.015625)"/>
     </defs>
     <use xlink:href="#DejaVuSans-57"/>
     <use xlink:href="#DejaVuSans-20" x="98.876953"/>
     <use xlink:href="#DejaVuSans-5b" x="130.664062"/>
     <use xlink:href="#DejaVuSans-31" x="169.677734"/>
     <use xlink:href="#DejaVuSans-31" x="233.300781"/>
     <use xlink:href="#DejaVuSans-5d" x="296.923828"/>
    </g>
   </g>
   <g id="text_20">
    <!-- Y [16] -->
    <g transform="translate(318.081093 167.311706) scale(0.1 -0.1)">
     <defs>
      <path id="DejaVuSans-59" d="M -13 4666 
L 666 4666 
L 1959 2747 
L 3244 4666 
L 3922 4666 
L 2272 2222 
L 2272 0 
L 1638 0 
L 1638 2222 
L -13 4666 
z
" transform="scale(0.015625)"/>
     </defs>
     <use xlink:href="#DejaVuSans-59"/>
     <use xlink:href="#DejaVuSans-20" x="61.083984"/>
     <use xlink:href="#DejaVuSans-5b" x="92.871094"/>
     <use xlink:href="#DejaVuSans-31" x="131.884766"/>
     <use xlink:href="#DejaVuSans-36" x="195.507812"/>
     <use xlink:href="#DejaVuSans-5d" x="259.130859"/>
    </g>
   </g>
   <g id="text_21">
    <!-- O15354 [613] -->
    <g transform="translate(135.663758 153.000174) scale(0.12 -0.12)">
     <defs>
      <path id="DejaVuSans-4f" d="M 2522 4238 
Q 1834 4238 1429 3725 
Q 1025 3213 1025 2328 
Q 1025 1447 1429 934 
Q 1834 422 2522 422 
Q 3209 422 3611 934 
Q 4013 1447 4013 2328 
Q 4013 3213 3611 3725 
Q 3209 4238 2522 4238 
z
M 2522 4750 
Q 3503 4750 4090 4092 
Q 4678 3434 4678 2328 
Q 4678 1225 4090 567 
Q 3503 -91 2522 -91 
Q 1538 -91 948 565 
Q 359 1222 359 2328 
Q 359 3434 948 4092 
Q 1538 4750 2522 4750 
z
" transform="scale(0.015625)"/>
     </defs>
     <use xlink:href="#DejaVuSans-4f"/>
     <use xlink:href="#DejaVuSans-31" x="78.710938"/>
     <use xlink:href="#DejaVuSans-35" x="142.333984"/>
     <use xlink:href="#DejaVuSans-33" x="205.957031"/>
     <use xlink:href="#DejaVuSans-35" x="269.580078"/>
     <use xlink:href="#DejaVuSans-34" x="333.203125"/>
     <use xlink:href="#DejaVuSans-20" x="396.826172"/>
     <use xlink:href="#DejaVuSans-5b" x="428.613281"/>
     <use xlink:href="#DejaVuSans-36" x="467.626953"/>
     <use xlink:href="#DejaVuSans-31" x="531.25"/>
     <use xlink:href="#DejaVuSans-33" x="594.873047"/>
     <use xlink:href="#DejaVuSans-5d" x="658.496094"/>
    </g>
   </g>
  </g>
 </g>
</svg>
