<?xml version="1.0" encoding="utf-8" standalone="no"?>
<!DOCTYPE svg PUBLIC "-//W3C//DTD SVG 1.1//EN"
  "http://www.w3.org/Graphics/SVG/1.1/DTD/svg11.dtd">
<svg xmlns:xlink="http://www.w3.org/1999/xlink" width="349.082049pt" height="304.847563pt" viewBox="0 0 349.082049 304.847563" xmlns="http://www.w3.org/2000/svg" version="1.1">
 <metadata>
  <rdf:RDF xmlns:dc="http://purl.org/dc/elements/1.1/" xmlns:cc="http://creativecommons.org/ns#" xmlns:rdf="http://www.w3.org/1999/02/22-rdf-syntax-ns#">
   <cc:Work>
    <dc:type rdf:resource="http://purl.org/dc/dcmitype/StillImage"/>
    <dc:date>2024-09-27T16:07:12.446000</dc:date>
    <dc:format>image/svg+xml</dc:format>
    <dc:creator>
     <cc:Agent>
      <dc:title>Matplotlib v3.8.3, https://matplotlib.org/</dc:title>
     </cc:Agent>
    </dc:creator>
   </cc:Work>
  </rdf:RDF>
 </metadata>
 <defs>
  <style type="text/css">*{stroke-linejoin: round; stroke-linecap: butt}</style>
 </defs>
 <g id="figure_1">
  <g id="patch_1">
   <path d="M 0 304.847563 
L 349.082049 304.847563 
L 349.082049 -0 
L 0 -0 
z
" style="fill: #ffffff"/>
  </g>
  <g id="axes_1">
   <g id="patch_2">
    <path d="M 300.51212 152.952203 
C 300.51212 145.845655 299.919055 138.751487 298.7391 131.743583 
C 297.559145 124.735678 295.796412 117.838452 293.469259 111.123739 
L 172.77836 152.952203 
z
" style="fill: #1f77b4"/>
   </g>
   <g id="patch_3">
    <path d="M 293.438689 111.014717 
C 292.792603 109.150515 292.103412 107.301533 291.37167 105.469259 
C 290.639929 103.636985 289.865833 101.82191 289.050007 100.025497 
L 172.74779 152.843181 
z
" style="fill: #ff7f0e"/>
   </g>
   <g id="patch_4">
    <path d="M 289.027354 99.976223 
C 288.048343 97.820484 287.009585 95.692382 285.912282 93.594383 
C 284.81498 91.496385 283.659558 89.4293 282.447355 87.395526 
L 172.725137 152.793907 
z
" style="fill: #aec7e8"/>
   </g>
   <g id="patch_5">
    <path d="M 282.414292 87.340634 
C 281.000023 84.967842 279.509157 82.641551 277.944046 80.365431 
C 276.378935 78.08931 274.740403 75.864557 273.031034 73.694683 
L 172.692074 152.739015 
z
" style="fill: #ffbb78"/>
   </g>
   <g id="patch_6">
    <path d="M 272.908104 73.5677 
C 265.816416 64.565503 257.545387 56.558489 248.317944 49.762469 
C 239.090502 42.966449 228.9903 37.443034 218.289567 33.341095 
L 172.569144 152.612032 
z
" style="fill: #98df8a"/>
   </g>
   <g id="patch_7">
    <path d="M 218.10812 33.254601 
C 213.685734 31.559357 209.172483 30.111387 204.58928 28.917401 
C 200.006077 27.723415 195.360013 26.78526 190.672615 26.107283 
L 172.387697 152.525538 
z
" style="fill: #2ca02c"/>
   </g>
   <g id="patch_8">
    <path d="M 190.550771 26.090236 
C 185.47253 25.355728 180.354642 24.927877 175.224933 24.809011 
C 170.095225 24.690144 164.963012 24.880477 159.856199 25.378975 
L 172.265853 152.508491 
z
" style="fill: #d62728"/>
   </g>
   <g id="patch_9">
    <path d="M 159.662611 25.410648 
C 149.045548 26.447025 138.600006 28.809338 128.570187 32.44236 
C 118.540368 36.075382 109.005048 40.950579 100.187149 46.953975 
L 172.072265 152.540165 
z
" style="fill: #9467bd"/>
   </g>
   <g id="patch_10">
    <path d="M 100.003572 47.066881 
C 94.455918 50.843831 89.214552 55.052136 84.328176 59.652694 
C 79.441799 64.253252 74.925593 69.23177 70.821522 74.541987 
L 171.888688 152.653071 
z
" style="fill: #ff9896"/>
   </g>
   <g id="patch_11">
    <path d="M 70.675946 74.778684 
C 60.99675 87.3025 53.729185 101.517018 49.244276 116.696557 
C 44.759366 131.876095 43.134754 147.757867 44.453379 163.531073 
L 171.743112 152.889767 
z
" style="fill: #c5b0d5"/>
   </g>
   <g id="patch_12">
    <path d="M 44.438955 163.770247 
C 44.734844 167.309631 45.178228 170.835135 45.767949 174.337566 
C 46.35767 177.839997 47.093217 181.316308 47.97267 184.757434 
L 171.728688 153.128941 
z
" style="fill: #c49c94"/>
   </g>
   <g id="patch_13">
    <path d="M 48.001432 184.861868 
C 49.271954 189.833166 50.840869 194.723396 52.699646 199.505967 
C 54.558423 204.288537 56.703688 208.954765 59.123775 213.479277 
L 171.75745 153.233375 
z
" style="fill: #8c564b"/>
   </g>
   <g id="patch_14">
    <path d="M 59.184113 213.592083 
C 61.6042 218.116595 64.294716 222.491177 67.241031 226.692041 
C 70.187346 230.892906 73.38411 234.912426 76.813941 238.728746 
L 171.817787 153.34618 
z
" style="fill: #e377c2"/>
   </g>
   <g id="patch_15">
    <path d="M 76.892086 238.817335 
C 79.794002 242.046251 82.858644 245.125127 86.07408 248.041973 
C 89.289515 250.958818 92.651565 253.709843 96.147135 256.284334 
L 171.895933 153.434769 
z
" style="fill: #7f7f7f"/>
   </g>
   <g id="patch_16">
    <path d="M 96.225904 256.343481 
C 99.085712 258.449732 102.032124 260.435788 105.057459 262.296471 
C 108.082794 264.157154 111.184419 265.890846 114.354248 267.493025 
L 171.974702 153.493916 
z
" style="fill: #f7b6d2"/>
   </g>
   <g id="patch_17">
    <path d="M 114.561767 267.567107 
C 127.26857 273.989716 140.960248 278.242834 155.069621 280.150273 
C 169.178994 282.057713 183.508505 281.592767 197.464551 278.774696 
L 172.182221 153.567998 
z
" style="fill: #c7c7c7"/>
   </g>
   <g id="patch_18">
    <path d="M 197.775939 278.722267 
C 209.009215 276.45399 219.886316 272.684257 230.114071 267.514673 
C 240.341827 262.345088 249.827515 255.822519 258.31547 248.122765 
L 172.493609 153.515568 
z
" style="fill: #dbdb8d"/>
   </g>
   <g id="patch_19">
    <path d="M 258.522148 247.937018 
C 266.716582 240.503528 273.910619 232.036795 279.923439 222.749626 
C 285.936259 213.462456 290.717061 203.433316 294.145682 192.914281 
L 172.700287 153.329821 
z
" style="fill: #bcbd22"/>
   </g>
   <g id="patch_20">
    <path d="M 294.215768 192.752033 
C 295.194116 189.750455 296.06085 186.713638 296.814183 183.647838 
C 297.567517 180.582039 298.206933 177.489365 298.731114 174.376188 
L 172.770373 153.167573 
z
" style="fill: #17becf"/>
   </g>
   <g id="patch_21">
    <path d="M 298.744638 174.293525 
C 299.334359 170.791094 299.777742 167.265591 300.073631 163.726206 
C 300.36952 160.186822 300.517658 156.636636 300.517658 153.084905 
L 172.783898 153.084911 
z
" style="fill: #9edae5"/>
   </g>
   <g id="patch_22">
    <path d="M 246.764884 153.040572 
C 246.764884 148.895086 246.418929 144.756821 245.730622 140.668877 
C 245.042315 136.580933 244.014054 132.557551 242.656548 128.640635 
L 172.253524 153.040572 
z
" style="fill: #ffffff"/>
   </g>
   <g id="patch_23">
    <path d="M 242.656548 128.640635 
C 242.279665 127.553184 241.877637 126.474611 241.450787 125.405784 
C 241.023938 124.336958 240.572383 123.278164 240.096484 122.230256 
L 172.253524 153.040572 
z
" style="fill: #ffffff"/>
   </g>
   <g id="patch_24">
    <path d="M 240.096484 122.230256 
C 239.525394 120.972742 238.919452 119.731349 238.279359 118.507516 
C 237.639265 117.283684 236.965269 116.077884 236.258151 114.891516 
L 172.253524 153.040572 
z
" style="fill: #ffffff"/>
   </g>
   <g id="patch_25">
    <path d="M 236.258151 114.891516 
C 235.433161 113.507388 234.563489 112.150385 233.650508 110.822648 
C 232.737526 109.494911 231.781716 108.197138 230.784584 106.931378 
L 172.253524 153.040572 
z
" style="fill: #ffffff"/>
   </g>
   <g id="patch_26">
    <path d="M 230.784584 106.931378 
C 226.647766 101.680097 221.822999 97.009339 216.440324 93.044993 
C 211.057649 89.080648 205.165865 85.858656 198.923771 83.465859 
L 172.253524 153.040572 
z
" style="fill: #ffffff"/>
   </g>
   <g id="patch_27">
    <path d="M 198.923771 83.465859 
C 196.344045 82.476966 193.711316 81.632317 191.037781 80.935826 
C 188.364246 80.239334 185.654041 79.692077 182.919726 79.29659 
L 172.253524 153.040572 
z
" style="fill: #ffffff"/>
   </g>
   <g id="patch_28">
    <path d="M 182.919726 79.29659 
C 179.957419 78.868127 176.971984 78.618547 173.979654 78.549209 
C 170.987324 78.47987 167.993533 78.590897 165.014559 78.881688 
L 172.253524 153.040572 
z
" style="fill: #ffffff"/>
   </g>
   <g id="patch_29">
    <path d="M 165.014559 78.881688 
C 158.821272 79.486241 152.728039 80.864257 146.877312 82.98352 
C 141.026584 85.102782 135.464314 87.946647 130.320539 91.448628 
L 172.253524 153.040572 
z
" style="fill: #ffffff"/>
   </g>
   <g id="patch_30">
    <path d="M 130.320539 91.448628 
C 127.084408 93.651849 124.026944 96.106694 121.176558 98.790352 
C 118.326172 101.474011 115.691718 104.378147 113.297677 107.475773 
L 172.253524 153.040572 
z
" style="fill: #ffffff"/>
   </g>
   <g id="patch_31">
    <path d="M 113.297677 107.475773 
C 107.65148 114.781333 103.412067 123.073135 100.795869 131.927866 
C 98.179672 140.782597 97.231982 150.046964 98.00118 159.248 
L 172.253524 153.040572 
z
" style="fill: #ffffff"/>
   </g>
   <g id="patch_32">
    <path d="M 98.00118 159.248 
C 98.173782 161.312641 98.432422 163.369185 98.776426 165.41227 
C 99.120431 167.455354 99.549499 169.483202 100.062514 171.490526 
L 172.253524 153.040572 
z
" style="fill: #ffffff"/>
   </g>
   <g id="patch_33">
    <path d="M 100.062514 171.490526 
C 100.803651 174.390451 101.718852 177.243085 102.803138 180.032917 
C 103.887425 182.82275 105.138829 185.544716 106.550547 188.184015 
L 172.253524 153.040572 
z
" style="fill: #ffffff"/>
   </g>
   <g id="patch_34">
    <path d="M 106.550547 188.184015 
C 107.962265 190.823314 109.531732 193.375154 111.250416 195.825658 
C 112.9691 198.276162 114.833879 200.620882 116.834613 202.847069 
L 172.253524 153.040572 
z
" style="fill: #ffffff"/>
   </g>
   <g id="patch_35">
    <path d="M 116.834613 202.847069 
C 118.527397 204.730603 120.315106 206.526614 122.190776 208.228108 
C 124.066447 209.929601 126.027642 211.534365 128.066725 213.036152 
L 172.253524 153.040572 
z
" style="fill: #ffffff"/>
   </g>
   <g id="patch_36">
    <path d="M 128.066725 213.036152 
C 129.734946 214.264798 131.453687 215.423331 133.218465 216.508729 
C 134.983244 217.594128 136.792526 218.605448 138.641592 219.540052 
L 172.253524 153.040572 
z
" style="fill: #ffffff"/>
   </g>
   <g id="patch_37">
    <path d="M 138.641592 219.540052 
C 146.053894 223.286574 154.040706 225.767559 162.271174 226.880233 
C 170.501641 227.992906 178.860523 227.721687 187.001549 226.077813 
L 172.253524 153.040572 
z
" style="fill: #ffffff"/>
   </g>
   <g id="patch_38">
    <path d="M 187.001549 226.077813 
C 193.554294 224.754651 199.899269 222.555641 205.86546 219.54005 
C 211.831651 216.524459 217.364969 212.719626 222.316276 208.228103 
L 172.253524 153.040572 
z
" style="fill: #ffffff"/>
   </g>
   <g id="patch_39">
    <path d="M 222.316276 208.228103 
C 227.096363 203.891901 231.292884 198.952974 234.800362 193.535458 
C 238.307841 188.117942 241.096642 182.26761 243.096671 176.131507 
L 172.253524 153.040572 
z
" style="fill: #ffffff"/>
   </g>
   <g id="patch_40">
    <path d="M 243.096671 176.131507 
C 243.667374 174.380586 244.172969 172.60911 244.612413 170.820727 
C 245.051858 169.032344 245.424851 167.228284 245.730623 165.412264 
L 172.253524 153.040572 
z
" style="fill: #ffffff"/>
   </g>
   <g id="patch_41">
    <path d="M 245.730623 165.412264 
C 246.074626 163.369179 246.333267 161.312635 246.505869 159.247994 
C 246.67847 157.183353 246.764884 155.112412 246.764884 153.040569 
L 172.253524 153.040572 
z
" style="fill: #ffffff"/>
   </g>
   <g id="matplotlib.axis_1"/>
   <g id="matplotlib.axis_2"/>
   <g id="text_1">
    <!-- A [18] -->
    <g transform="translate(311.335174 132.382096) scale(0.1 -0.1)">
     <defs>
      <path id="DejaVuSans-41" d="M 2188 4044 
L 1331 1722 
L 3047 1722 
L 2188 4044 
z
M 1831 4666 
L 2547 4666 
L 4325 0 
L 3669 0 
L 3244 1197 
L 1141 1197 
L 716 0 
L 50 0 
L 1831 4666 
z
" transform="scale(0.015625)"/>
      <path id="DejaVuSans-20" transform="scale(0.015625)"/>
      <path id="DejaVuSans-5b" d="M 550 4863 
L 1875 4863 
L 1875 4416 
L 1125 4416 
L 1125 -397 
L 1875 -397 
L 1875 -844 
L 550 -844 
L 550 4863 
z
" transform="scale(0.015625)"/>
      <path id="DejaVuSans-31" d="M 794 531 
L 1825 531 
L 1825 4091 
L 703 3866 
L 703 4441 
L 1819 4666 
L 2450 4666 
L 2450 531 
L 3481 531 
L 3481 0 
L 794 0 
L 794 531 
z
" transform="scale(0.015625)"/>
      <path id="DejaVuSans-38" d="M 2034 2216 
Q 1584 2216 1326 1975 
Q 1069 1734 1069 1313 
Q 1069 891 1326 650 
Q 1584 409 2034 409 
Q 2484 409 2743 651 
Q 3003 894 3003 1313 
Q 3003 1734 2745 1975 
Q 2488 2216 2034 2216 
z
M 1403 2484 
Q 997 2584 770 2862 
Q 544 3141 544 3541 
Q 544 4100 942 4425 
Q 1341 4750 2034 4750 
Q 2731 4750 3128 4425 
Q 3525 4100 3525 3541 
Q 3525 3141 3298 2862 
Q 3072 2584 2669 2484 
Q 3125 2378 3379 2068 
Q 3634 1759 3634 1313 
Q 3634 634 3220 271 
Q 2806 -91 2034 -91 
Q 1263 -91 848 271 
Q 434 634 434 1313 
Q 434 1759 690 2068 
Q 947 2378 1403 2484 
z
M 1172 3481 
Q 1172 3119 1398 2916 
Q 1625 2713 2034 2713 
Q 2441 2713 2670 2916 
Q 2900 3119 2900 3481 
Q 2900 3844 2670 4047 
Q 2441 4250 2034 4250 
Q 1625 4250 1398 4047 
Q 1172 3844 1172 3481 
z
" transform="scale(0.015625)"/>
      <path id="DejaVuSans-5d" d="M 1947 4863 
L 1947 -844 
L 622 -844 
L 622 -397 
L 1369 -397 
L 1369 4416 
L 622 4416 
L 622 4863 
L 1947 4863 
z
" transform="scale(0.015625)"/>
     </defs>
     <use xlink:href="#DejaVuSans-41"/>
     <use xlink:href="#DejaVuSans-20" x="68.408203"/>
     <use xlink:href="#DejaVuSans-5b" x="100.195312"/>
     <use xlink:href="#DejaVuSans-31" x="139.208984"/>
     <use xlink:href="#DejaVuSans-38" x="202.832031"/>
     <use xlink:href="#DejaVuSans-5d" x="266.455078"/>
    </g>
   </g>
   <g id="text_2">
    <!-- C [5] -->
    <g transform="translate(303.234058 103.491242) scale(0.1 -0.1)">
     <defs>
      <path id="DejaVuSans-43" d="M 4122 4306 
L 4122 3641 
Q 3803 3938 3442 4084 
Q 3081 4231 2675 4231 
Q 1875 4231 1450 3742 
Q 1025 3253 1025 2328 
Q 1025 1406 1450 917 
Q 1875 428 2675 428 
Q 3081 428 3442 575 
Q 3803 722 4122 1019 
L 4122 359 
Q 3791 134 3420 21 
Q 3050 -91 2638 -91 
Q 1578 -91 968 557 
Q 359 1206 359 2328 
Q 359 3453 968 4101 
Q 1578 4750 2638 4750 
Q 3056 4750 3426 4639 
Q 3797 4528 4122 4306 
z
" transform="scale(0.015625)"/>
      <path id="DejaVuSans-35" d="M 691 4666 
L 3169 4666 
L 3169 4134 
L 1269 4134 
L 1269 2991 
Q 1406 3038 1543 3061 
Q 1681 3084 1819 3084 
Q 2600 3084 3056 2656 
Q 3513 2228 3513 1497 
Q 3513 744 3044 326 
Q 2575 -91 1722 -91 
Q 1428 -91 1123 -41 
Q 819 9 494 109 
L 494 744 
Q 775 591 1075 516 
Q 1375 441 1709 441 
Q 2250 441 2565 725 
Q 2881 1009 2881 1497 
Q 2881 1984 2565 2268 
Q 2250 2553 1709 2553 
Q 1456 2553 1204 2497 
Q 953 2441 691 2322 
L 691 4666 
z
" transform="scale(0.015625)"/>
     </defs>
     <use xlink:href="#DejaVuSans-43"/>
     <use xlink:href="#DejaVuSans-20" x="69.824219"/>
     <use xlink:href="#DejaVuSans-5b" x="101.611328"/>
     <use xlink:href="#DejaVuSans-35" x="140.625"/>
     <use xlink:href="#DejaVuSans-5d" x="204.248047"/>
    </g>
   </g>
   <g id="text_3">
    <!-- D [6] -->
    <g transform="translate(297.230997 90.433806) scale(0.1 -0.1)">
     <defs>
      <path id="DejaVuSans-44" d="M 1259 4147 
L 1259 519 
L 2022 519 
Q 2988 519 3436 956 
Q 3884 1394 3884 2338 
Q 3884 3275 3436 3711 
Q 2988 4147 2022 4147 
L 1259 4147 
z
M 628 4666 
L 1925 4666 
Q 3281 4666 3915 4102 
Q 4550 3538 4550 2338 
Q 4550 1131 3912 565 
Q 3275 0 1925 0 
L 628 0 
L 628 4666 
z
" transform="scale(0.015625)"/>
      <path id="DejaVuSans-36" d="M 2113 2584 
Q 1688 2584 1439 2293 
Q 1191 2003 1191 1497 
Q 1191 994 1439 701 
Q 1688 409 2113 409 
Q 2538 409 2786 701 
Q 3034 994 3034 1497 
Q 3034 2003 2786 2293 
Q 2538 2584 2113 2584 
z
M 3366 4563 
L 3366 3988 
Q 3128 4100 2886 4159 
Q 2644 4219 2406 4219 
Q 1781 4219 1451 3797 
Q 1122 3375 1075 2522 
Q 1259 2794 1537 2939 
Q 1816 3084 2150 3084 
Q 2853 3084 3261 2657 
Q 3669 2231 3669 1497 
Q 3669 778 3244 343 
Q 2819 -91 2113 -91 
Q 1303 -91 875 529 
Q 447 1150 447 2328 
Q 447 3434 972 4092 
Q 1497 4750 2381 4750 
Q 2619 4750 2861 4703 
Q 3103 4656 3366 4563 
z
" transform="scale(0.015625)"/>
     </defs>
     <use xlink:href="#DejaVuSans-44"/>
     <use xlink:href="#DejaVuSans-20" x="77.001953"/>
     <use xlink:href="#DejaVuSans-5b" x="108.789062"/>
     <use xlink:href="#DejaVuSans-36" x="147.802734"/>
     <use xlink:href="#DejaVuSans-5d" x="211.425781"/>
    </g>
   </g>
   <g id="text_4">
    <!-- E [7] -->
    <g transform="translate(288.469243 75.887447) scale(0.1 -0.1)">
     <defs>
      <path id="DejaVuSans-45" d="M 628 4666 
L 3578 4666 
L 3578 4134 
L 1259 4134 
L 1259 2753 
L 3481 2753 
L 3481 2222 
L 1259 2222 
L 1259 531 
L 3634 531 
L 3634 0 
L 628 0 
L 628 4666 
z
" transform="scale(0.015625)"/>
      <path id="DejaVuSans-37" d="M 525 4666 
L 3525 4666 
L 3525 4397 
L 1831 0 
L 1172 0 
L 2766 4134 
L 525 4134 
L 525 4666 
z
" transform="scale(0.015625)"/>
     </defs>
     <use xlink:href="#DejaVuSans-45"/>
     <use xlink:href="#DejaVuSans-20" x="63.183594"/>
     <use xlink:href="#DejaVuSans-5b" x="94.970703"/>
     <use xlink:href="#DejaVuSans-37" x="133.984375"/>
     <use xlink:href="#DejaVuSans-5d" x="197.607422"/>
    </g>
   </g>
   <g id="text_5">
    <!-- F [29] -->
    <g transform="translate(255.892824 42.236888) scale(0.1 -0.1)">
     <defs>
      <path id="DejaVuSans-46" d="M 628 4666 
L 3309 4666 
L 3309 4134 
L 1259 4134 
L 1259 2759 
L 3109 2759 
L 3109 2228 
L 1259 2228 
L 1259 0 
L 628 0 
L 628 4666 
z
" transform="scale(0.015625)"/>
      <path id="DejaVuSans-32" d="M 1228 531 
L 3431 531 
L 3431 0 
L 469 0 
L 469 531 
Q 828 903 1448 1529 
Q 2069 2156 2228 2338 
Q 2531 2678 2651 2914 
Q 2772 3150 2772 3378 
Q 2772 3750 2511 3984 
Q 2250 4219 1831 4219 
Q 1534 4219 1204 4116 
Q 875 4013 500 3803 
L 500 4441 
Q 881 4594 1212 4672 
Q 1544 4750 1819 4750 
Q 2544 4750 2975 4387 
Q 3406 4025 3406 3419 
Q 3406 3131 3298 2873 
Q 3191 2616 2906 2266 
Q 2828 2175 2409 1742 
Q 1991 1309 1228 531 
z
" transform="scale(0.015625)"/>
      <path id="DejaVuSans-39" d="M 703 97 
L 703 672 
Q 941 559 1184 500 
Q 1428 441 1663 441 
Q 2288 441 2617 861 
Q 2947 1281 2994 2138 
Q 2813 1869 2534 1725 
Q 2256 1581 1919 1581 
Q 1219 1581 811 2004 
Q 403 2428 403 3163 
Q 403 3881 828 4315 
Q 1253 4750 1959 4750 
Q 2769 4750 3195 4129 
Q 3622 3509 3622 2328 
Q 3622 1225 3098 567 
Q 2575 -91 1691 -91 
Q 1453 -91 1209 -44 
Q 966 3 703 97 
z
M 1959 2075 
Q 2384 2075 2632 2365 
Q 2881 2656 2881 3163 
Q 2881 3666 2632 3958 
Q 2384 4250 1959 4250 
Q 1534 4250 1286 3958 
Q 1038 3666 1038 3163 
Q 1038 2656 1286 2365 
Q 1534 2075 1959 2075 
z
" transform="scale(0.015625)"/>
     </defs>
     <use xlink:href="#DejaVuSans-46"/>
     <use xlink:href="#DejaVuSans-20" x="57.519531"/>
     <use xlink:href="#DejaVuSans-5b" x="89.306641"/>
     <use xlink:href="#DejaVuSans-32" x="128.320312"/>
     <use xlink:href="#DejaVuSans-39" x="191.943359"/>
     <use xlink:href="#DejaVuSans-5d" x="255.566406"/>
    </g>
   </g>
   <g id="text_6">
    <!-- G [12] -->
    <g transform="translate(207.809438 19.315963) scale(0.1 -0.1)">
     <defs>
      <path id="DejaVuSans-47" d="M 3809 666 
L 3809 1919 
L 2778 1919 
L 2778 2438 
L 4434 2438 
L 4434 434 
Q 4069 175 3628 42 
Q 3188 -91 2688 -91 
Q 1594 -91 976 548 
Q 359 1188 359 2328 
Q 359 3472 976 4111 
Q 1594 4750 2688 4750 
Q 3144 4750 3555 4637 
Q 3966 4525 4313 4306 
L 4313 3634 
Q 3963 3931 3569 4081 
Q 3175 4231 2741 4231 
Q 1884 4231 1454 3753 
Q 1025 3275 1025 2328 
Q 1025 1384 1454 906 
Q 1884 428 2741 428 
Q 3075 428 3337 486 
Q 3600 544 3809 666 
z
" transform="scale(0.015625)"/>
     </defs>
     <use xlink:href="#DejaVuSans-47"/>
     <use xlink:href="#DejaVuSans-20" x="77.490234"/>
     <use xlink:href="#DejaVuSans-5b" x="109.277344"/>
     <use xlink:href="#DejaVuSans-31" x="148.291016"/>
     <use xlink:href="#DejaVuSans-32" x="211.914062"/>
     <use xlink:href="#DejaVuSans-5d" x="275.537109"/>
    </g>
   </g>
   <g id="text_7">
    <!-- H [13] -->
    <g transform="translate(175.520841 14.798437) scale(0.1 -0.1)">
     <defs>
      <path id="DejaVuSans-48" d="M 628 4666 
L 1259 4666 
L 1259 2753 
L 3553 2753 
L 3553 4666 
L 4184 4666 
L 4184 0 
L 3553 0 
L 3553 2222 
L 1259 2222 
L 1259 0 
L 628 0 
L 628 4666 
z
" transform="scale(0.015625)"/>
      <path id="DejaVuSans-33" d="M 2597 2516 
Q 3050 2419 3304 2112 
Q 3559 1806 3559 1356 
Q 3559 666 3084 287 
Q 2609 -91 1734 -91 
Q 1441 -91 1130 -33 
Q 819 25 488 141 
L 488 750 
Q 750 597 1062 519 
Q 1375 441 1716 441 
Q 2309 441 2620 675 
Q 2931 909 2931 1356 
Q 2931 1769 2642 2001 
Q 2353 2234 1838 2234 
L 1294 2234 
L 1294 2753 
L 1863 2753 
Q 2328 2753 2575 2939 
Q 2822 3125 2822 3475 
Q 2822 3834 2567 4026 
Q 2313 4219 1838 4219 
Q 1578 4219 1281 4162 
Q 984 4106 628 3988 
L 628 4550 
Q 988 4650 1302 4700 
Q 1616 4750 1894 4750 
Q 2613 4750 3031 4423 
Q 3450 4097 3450 3541 
Q 3450 3153 3228 2886 
Q 3006 2619 2597 2516 
z
" transform="scale(0.015625)"/>
     </defs>
     <use xlink:href="#DejaVuSans-48"/>
     <use xlink:href="#DejaVuSans-20" x="75.195312"/>
     <use xlink:href="#DejaVuSans-5b" x="106.982422"/>
     <use xlink:href="#DejaVuSans-31" x="145.996094"/>
     <use xlink:href="#DejaVuSans-33" x="209.619141"/>
     <use xlink:href="#DejaVuSans-5d" x="273.242188"/>
    </g>
   </g>
   <g id="text_8">
    <!-- I [27] -->
    <g transform="translate(97.563729 23.191955) scale(0.1 -0.1)">
     <defs>
      <path id="DejaVuSans-49" d="M 628 4666 
L 1259 4666 
L 1259 0 
L 628 0 
L 628 4666 
z
" transform="scale(0.015625)"/>
     </defs>
     <use xlink:href="#DejaVuSans-49"/>
     <use xlink:href="#DejaVuSans-20" x="29.492188"/>
     <use xlink:href="#DejaVuSans-5b" x="61.279297"/>
     <use xlink:href="#DejaVuSans-32" x="100.292969"/>
     <use xlink:href="#DejaVuSans-37" x="163.916016"/>
     <use xlink:href="#DejaVuSans-5d" x="227.539062"/>
    </g>
   </g>
   <g id="text_9">
    <!-- K [17] -->
    <g transform="translate(45.308062 53.112031) scale(0.1 -0.1)">
     <defs>
      <path id="DejaVuSans-4b" d="M 628 4666 
L 1259 4666 
L 1259 2694 
L 3353 4666 
L 4166 4666 
L 1850 2491 
L 4331 0 
L 3500 0 
L 1259 2247 
L 1259 0 
L 628 0 
L 628 4666 
z
" transform="scale(0.015625)"/>
     </defs>
     <use xlink:href="#DejaVuSans-4b"/>
     <use xlink:href="#DejaVuSans-20" x="65.576172"/>
     <use xlink:href="#DejaVuSans-5b" x="97.363281"/>
     <use xlink:href="#DejaVuSans-31" x="136.376953"/>
     <use xlink:href="#DejaVuSans-37" x="200"/>
     <use xlink:href="#DejaVuSans-5d" x="263.623047"/>
    </g>
   </g>
   <g id="text_10">
    <!-- L [40] -->
    <g transform="translate(7.716267 115.836611) scale(0.1 -0.1)">
     <defs>
      <path id="DejaVuSans-4c" d="M 628 4666 
L 1259 4666 
L 1259 531 
L 3531 531 
L 3531 0 
L 628 0 
L 628 4666 
z
" transform="scale(0.015625)"/>
      <path id="DejaVuSans-34" d="M 2419 4116 
L 825 1625 
L 2419 1625 
L 2419 4116 
z
M 2253 4666 
L 3047 4666 
L 3047 1625 
L 3713 1625 
L 3713 1100 
L 3047 1100 
L 3047 0 
L 2419 0 
L 2419 1100 
L 313 1100 
L 313 1709 
L 2253 4666 
z
" transform="scale(0.015625)"/>
      <path id="DejaVuSans-30" d="M 2034 4250 
Q 1547 4250 1301 3770 
Q 1056 3291 1056 2328 
Q 1056 1369 1301 889 
Q 1547 409 2034 409 
Q 2525 409 2770 889 
Q 3016 1369 3016 2328 
Q 3016 3291 2770 3770 
Q 2525 4250 2034 4250 
z
M 2034 4750 
Q 2819 4750 3233 4129 
Q 3647 3509 3647 2328 
Q 3647 1150 3233 529 
Q 2819 -91 2034 -91 
Q 1250 -91 836 529 
Q 422 1150 422 2328 
Q 422 3509 836 4129 
Q 1250 4750 2034 4750 
z
" transform="scale(0.015625)"/>
     </defs>
     <use xlink:href="#DejaVuSans-4c"/>
     <use xlink:href="#DejaVuSans-20" x="55.712891"/>
     <use xlink:href="#DejaVuSans-5b" x="87.5"/>
     <use xlink:href="#DejaVuSans-34" x="126.513672"/>
     <use xlink:href="#DejaVuSans-30" x="190.136719"/>
     <use xlink:href="#DejaVuSans-5d" x="253.759766"/>
    </g>
   </g>
   <g id="text_11">
    <!-- M [9] -->
    <g transform="translate(7.2 179.217803) scale(0.1 -0.1)">
     <defs>
      <path id="DejaVuSans-4d" d="M 628 4666 
L 1569 4666 
L 2759 1491 
L 3956 4666 
L 4897 4666 
L 4897 0 
L 4281 0 
L 4281 4097 
L 3078 897 
L 2444 897 
L 1241 4097 
L 1241 0 
L 628 0 
L 628 4666 
z
" transform="scale(0.015625)"/>
     </defs>
     <use xlink:href="#DejaVuSans-4d"/>
     <use xlink:href="#DejaVuSans-20" x="86.279297"/>
     <use xlink:href="#DejaVuSans-5b" x="118.066406"/>
     <use xlink:href="#DejaVuSans-39" x="157.080078"/>
     <use xlink:href="#DejaVuSans-5d" x="220.703125"/>
    </g>
   </g>
   <g id="text_12">
    <!-- N [13] -->
    <g transform="translate(9.606365 206.892601) scale(0.1 -0.1)">
     <defs>
      <path id="DejaVuSans-4e" d="M 628 4666 
L 1478 4666 
L 3547 763 
L 3547 4666 
L 4159 4666 
L 4159 0 
L 3309 0 
L 1241 3903 
L 1241 0 
L 628 0 
L 628 4666 
z
" transform="scale(0.015625)"/>
     </defs>
     <use xlink:href="#DejaVuSans-4e"/>
     <use xlink:href="#DejaVuSans-20" x="74.804688"/>
     <use xlink:href="#DejaVuSans-5b" x="106.591797"/>
     <use xlink:href="#DejaVuSans-31" x="145.605469"/>
     <use xlink:href="#DejaVuSans-33" x="209.228516"/>
     <use xlink:href="#DejaVuSans-5d" x="272.851562"/>
    </g>
   </g>
   <g id="text_13">
    <!-- P [13] -->
    <g transform="translate(27.047418 236.786003) scale(0.1 -0.1)">
     <defs>
      <path id="DejaVuSans-50" d="M 1259 4147 
L 1259 2394 
L 2053 2394 
Q 2494 2394 2734 2622 
Q 2975 2850 2975 3272 
Q 2975 3691 2734 3919 
Q 2494 4147 2053 4147 
L 1259 4147 
z
M 628 4666 
L 2053 4666 
Q 2838 4666 3239 4311 
Q 3641 3956 3641 3272 
Q 3641 2581 3239 2228 
Q 2838 1875 2053 1875 
L 1259 1875 
L 1259 0 
L 628 0 
L 628 4666 
z
" transform="scale(0.015625)"/>
     </defs>
     <use xlink:href="#DejaVuSans-50"/>
     <use xlink:href="#DejaVuSans-20" x="60.302734"/>
     <use xlink:href="#DejaVuSans-5b" x="92.089844"/>
     <use xlink:href="#DejaVuSans-31" x="131.103516"/>
     <use xlink:href="#DejaVuSans-33" x="194.726562"/>
     <use xlink:href="#DejaVuSans-5d" x="258.349609"/>
    </g>
   </g>
   <g id="text_14">
    <!-- Q [11] -->
    <g transform="translate(45.91377 260.262068) scale(0.1 -0.1)">
     <defs>
      <path id="DejaVuSans-51" d="M 2522 4238 
Q 1834 4238 1429 3725 
Q 1025 3213 1025 2328 
Q 1025 1447 1429 934 
Q 1834 422 2522 422 
Q 3209 422 3611 934 
Q 4013 1447 4013 2328 
Q 4013 3213 3611 3725 
Q 3209 4238 2522 4238 
z
M 3406 84 
L 4238 -825 
L 3475 -825 
L 2784 -78 
Q 2681 -84 2626 -87 
Q 2572 -91 2522 -91 
Q 1538 -91 948 567 
Q 359 1225 359 2328 
Q 359 3434 948 4092 
Q 1538 4750 2522 4750 
Q 3503 4750 4090 4092 
Q 4678 3434 4678 2328 
Q 4678 1516 4351 937 
Q 4025 359 3406 84 
z
" transform="scale(0.015625)"/>
     </defs>
     <use xlink:href="#DejaVuSans-51"/>
     <use xlink:href="#DejaVuSans-20" x="78.710938"/>
     <use xlink:href="#DejaVuSans-5b" x="110.498047"/>
     <use xlink:href="#DejaVuSans-31" x="149.511719"/>
     <use xlink:href="#DejaVuSans-31" x="213.134766"/>
     <use xlink:href="#DejaVuSans-5d" x="276.757812"/>
    </g>
   </g>
   <g id="text_15">
    <!-- R [9] -->
    <g transform="translate(74.073547 275.936102) scale(0.1 -0.1)">
     <defs>
      <path id="DejaVuSans-52" d="M 2841 2188 
Q 3044 2119 3236 1894 
Q 3428 1669 3622 1275 
L 4263 0 
L 3584 0 
L 2988 1197 
Q 2756 1666 2539 1819 
Q 2322 1972 1947 1972 
L 1259 1972 
L 1259 0 
L 628 0 
L 628 4666 
L 2053 4666 
Q 2853 4666 3247 4331 
Q 3641 3997 3641 3322 
Q 3641 2881 3436 2590 
Q 3231 2300 2841 2188 
z
M 1259 4147 
L 1259 2491 
L 2053 2491 
Q 2509 2491 2742 2702 
Q 2975 2913 2975 3322 
Q 2975 3731 2742 3939 
Q 2509 4147 2053 4147 
L 1259 4147 
z
" transform="scale(0.015625)"/>
     </defs>
     <use xlink:href="#DejaVuSans-52"/>
     <use xlink:href="#DejaVuSans-20" x="69.482422"/>
     <use xlink:href="#DejaVuSans-5b" x="101.269531"/>
     <use xlink:href="#DejaVuSans-39" x="140.283203"/>
     <use xlink:href="#DejaVuSans-5d" x="203.90625"/>
    </g>
   </g>
   <g id="text_16">
    <!-- S [36] -->
    <g transform="translate(123.303674 295.567876) scale(0.1 -0.1)">
     <defs>
      <path id="DejaVuSans-53" d="M 3425 4513 
L 3425 3897 
Q 3066 4069 2747 4153 
Q 2428 4238 2131 4238 
Q 1616 4238 1336 4038 
Q 1056 3838 1056 3469 
Q 1056 3159 1242 3001 
Q 1428 2844 1947 2747 
L 2328 2669 
Q 3034 2534 3370 2195 
Q 3706 1856 3706 1288 
Q 3706 609 3251 259 
Q 2797 -91 1919 -91 
Q 1588 -91 1214 -16 
Q 841 59 441 206 
L 441 856 
Q 825 641 1194 531 
Q 1563 422 1919 422 
Q 2459 422 2753 634 
Q 3047 847 3047 1241 
Q 3047 1584 2836 1778 
Q 2625 1972 2144 2069 
L 1759 2144 
Q 1053 2284 737 2584 
Q 422 2884 422 3419 
Q 422 4038 858 4394 
Q 1294 4750 2059 4750 
Q 2388 4750 2728 4690 
Q 3069 4631 3425 4513 
z
" transform="scale(0.015625)"/>
     </defs>
     <use xlink:href="#DejaVuSans-53"/>
     <use xlink:href="#DejaVuSans-20" x="63.476562"/>
     <use xlink:href="#DejaVuSans-5b" x="95.263672"/>
     <use xlink:href="#DejaVuSans-33" x="134.277344"/>
     <use xlink:href="#DejaVuSans-36" x="197.900391"/>
     <use xlink:href="#DejaVuSans-5d" x="261.523438"/>
    </g>
   </g>
   <g id="text_17">
    <!-- T [29] -->
    <g transform="translate(235.876117 281.673958) scale(0.1 -0.1)">
     <defs>
      <path id="DejaVuSans-54" d="M -19 4666 
L 3928 4666 
L 3928 4134 
L 2272 4134 
L 2272 0 
L 1638 0 
L 1638 4134 
L -19 4134 
L -19 4666 
z
" transform="scale(0.015625)"/>
     </defs>
     <use xlink:href="#DejaVuSans-54"/>
     <use xlink:href="#DejaVuSans-20" x="61.083984"/>
     <use xlink:href="#DejaVuSans-5b" x="92.871094"/>
     <use xlink:href="#DejaVuSans-32" x="131.884766"/>
     <use xlink:href="#DejaVuSans-39" x="195.507812"/>
     <use xlink:href="#DejaVuSans-5d" x="259.130859"/>
    </g>
   </g>
   <g id="text_18">
    <!-- V [28] -->
    <g transform="translate(290.645754 232.450981) scale(0.1 -0.1)">
     <defs>
      <path id="DejaVuSans-56" d="M 1831 0 
L 50 4666 
L 709 4666 
L 2188 738 
L 3669 4666 
L 4325 4666 
L 2547 0 
L 1831 0 
z
" transform="scale(0.015625)"/>
     </defs>
     <use xlink:href="#DejaVuSans-56"/>
     <use xlink:href="#DejaVuSans-20" x="68.408203"/>
     <use xlink:href="#DejaVuSans-5b" x="100.195312"/>
     <use xlink:href="#DejaVuSans-32" x="139.208984"/>
     <use xlink:href="#DejaVuSans-38" x="202.832031"/>
     <use xlink:href="#DejaVuSans-5d" x="266.455078"/>
    </g>
   </g>
   <g id="text_19">
    <!-- W [8] -->
    <g transform="translate(309.218565 189.45524) scale(0.1 -0.1)">
     <defs>
      <path id="DejaVuSans-57" d="M 213 4666 
L 850 4666 
L 1831 722 
L 2809 4666 
L 3519 4666 
L 4500 722 
L 5478 4666 
L 6119 4666 
L 4947 0 
L 4153 0 
L 3169 4050 
L 2175 0 
L 1381 0 
L 213 4666 
z
" transform="scale(0.015625)"/>
     </defs>
     <use xlink:href="#DejaVuSans-57"/>
     <use xlink:href="#DejaVuSans-20" x="98.876953"/>
     <use xlink:href="#DejaVuSans-5b" x="130.664062"/>
     <use xlink:href="#DejaVuSans-38" x="169.677734"/>
     <use xlink:href="#DejaVuSans-5d" x="233.300781"/>
    </g>
   </g>
   <g id="text_20">
    <!-- Y [9] -->
    <g transform="translate(312.802605 167.549711) scale(0.1 -0.1)">
     <defs>
      <path id="DejaVuSans-59" d="M -13 4666 
L 666 4666 
L 1959 2747 
L 3244 4666 
L 3922 4666 
L 2272 2222 
L 2272 0 
L 1638 0 
L 1638 2222 
L -13 4666 
z
" transform="scale(0.015625)"/>
     </defs>
     <use xlink:href="#DejaVuSans-59"/>
     <use xlink:href="#DejaVuSans-20" x="61.083984"/>
     <use xlink:href="#DejaVuSans-5b" x="92.871094"/>
     <use xlink:href="#DejaVuSans-39" x="131.884766"/>
     <use xlink:href="#DejaVuSans-5d" x="195.507812"/>
    </g>
   </g>
   <g id="text_21">
    <!-- O88416 [339] -->
    <g transform="translate(130.401649 153.040572) scale(0.12 -0.12)">
     <defs>
      <path id="DejaVuSans-4f" d="M 2522 4238 
Q 1834 4238 1429 3725 
Q 1025 3213 1025 2328 
Q 1025 1447 1429 934 
Q 1834 422 2522 422 
Q 3209 422 3611 934 
Q 4013 1447 4013 2328 
Q 4013 3213 3611 3725 
Q 3209 4238 2522 4238 
z
M 2522 4750 
Q 3503 4750 4090 4092 
Q 4678 3434 4678 2328 
Q 4678 1225 4090 567 
Q 3503 -91 2522 -91 
Q 1538 -91 948 565 
Q 359 1222 359 2328 
Q 359 3434 948 4092 
Q 1538 4750 2522 4750 
z
" transform="scale(0.015625)"/>
     </defs>
     <use xlink:href="#DejaVuSans-4f"/>
     <use xlink:href="#DejaVuSans-38" x="78.710938"/>
     <use xlink:href="#DejaVuSans-38" x="142.333984"/>
     <use xlink:href="#DejaVuSans-34" x="205.957031"/>
     <use xlink:href="#DejaVuSans-31" x="269.580078"/>
     <use xlink:href="#DejaVuSans-36" x="333.203125"/>
     <use xlink:href="#DejaVuSans-20" x="396.826172"/>
     <use xlink:href="#DejaVuSans-5b" x="428.613281"/>
     <use xlink:href="#DejaVuSans-33" x="467.626953"/>
     <use xlink:href="#DejaVuSans-33" x="531.25"/>
     <use xlink:href="#DejaVuSans-39" x="594.873047"/>
     <use xlink:href="#DejaVuSans-5d" x="658.496094"/>
    </g>
   </g>
  </g>
 </g>
</svg>
