<?xml version="1.0" encoding="utf-8" standalone="no"?>
<!DOCTYPE svg PUBLIC "-//W3C//DTD SVG 1.1//EN"
  "http://www.w3.org/Graphics/SVG/1.1/DTD/svg11.dtd">
<svg xmlns:xlink="http://www.w3.org/1999/xlink" width="349.537555pt" height="301.85957pt" viewBox="0 0 349.537555 301.85957" xmlns="http://www.w3.org/2000/svg" version="1.1">
 <metadata>
  <rdf:RDF xmlns:dc="http://purl.org/dc/elements/1.1/" xmlns:cc="http://creativecommons.org/ns#" xmlns:rdf="http://www.w3.org/1999/02/22-rdf-syntax-ns#">
   <cc:Work>
    <dc:type rdf:resource="http://purl.org/dc/dcmitype/StillImage"/>
    <dc:date>2024-09-27T16:07:11.817041</dc:date>
    <dc:format>image/svg+xml</dc:format>
    <dc:creator>
     <cc:Agent>
      <dc:title>Matplotlib v3.8.3, https://matplotlib.org/</dc:title>
     </cc:Agent>
    </dc:creator>
   </cc:Work>
  </rdf:RDF>
 </metadata>
 <defs>
  <style type="text/css">*{stroke-linejoin: round; stroke-linecap: butt}</style>
 </defs>
 <g id="figure_1">
  <g id="patch_1">
   <path d="M 0 301.85957 
L 349.537555 301.85957 
L 349.537555 0 
L 0 0 
z
" style="fill: #ffffff"/>
  </g>
  <g id="axes_1">
   <g id="patch_2">
    <path d="M 299.866183 151.948313 
C 299.866183 134.325317 296.219105 116.89152 289.154939 100.746319 
C 282.090773 84.601117 271.761198 70.091178 258.817611 58.131515 
L 172.132423 151.948313 
z
" style="fill: #1f77b4"/>
   </g>
   <g id="patch_3">
    <path d="M 258.651849 57.920962 
C 255.63257 55.131198 252.480378 52.488812 249.206279 50.003032 
C 245.93218 47.517252 242.53999 45.190975 239.041555 43.032323 
L 171.966661 151.73776 
z
" style="fill: #ff7f0e"/>
   </g>
   <g id="patch_4">
    <path d="M 238.95843 42.980527 
C 235.778142 41.018183 232.513269 39.196347 229.173236 37.520279 
C 225.833202 35.84421 222.421224 34.315523 218.94715 32.938629 
L 171.883536 151.685964 
z
" style="fill: #aec7e8"/>
   </g>
   <g id="patch_5">
    <path d="M 218.873797 32.908433 
C 216.442144 31.944686 213.981461 31.055858 211.495231 30.243206 
C 209.009 29.430554 206.498395 28.694461 203.966965 28.035969 
L 171.810184 151.655769 
z
" style="fill: #ffbb78"/>
   </g>
   <g id="patch_6">
    <path d="M 203.862196 28.013091 
C 198.074151 26.507467 192.187503 25.410207 186.245713 24.72941 
C 180.303922 24.048614 174.321647 23.785962 168.343054 23.943392 
L 171.705414 151.63289 
z
" style="fill: #98df8a"/>
   </g>
   <g id="patch_7">
    <path d="M 168.134971 23.960779 
C 157.288623 24.246389 146.522733 25.912822 136.097619 28.919785 
C 125.672505 31.926748 115.672877 36.249807 106.340526 41.784431 
L 171.49733 151.650278 
z
" style="fill: #2ca02c"/>
   </g>
   <g id="patch_8">
    <path d="M 106.204582 41.845338 
C 105.240452 42.417124 104.28389 43.001575 103.335144 43.598541 
C 102.386399 44.195507 101.445553 44.804936 100.51285 45.426669 
L 171.361387 151.711185 
z
" style="fill: #d62728"/>
   </g>
   <g id="patch_9">
    <path d="M 100.474461 45.453244 
C 98.298016 46.904048 96.166647 48.421361 94.08337 50.003039 
C 92.000094 51.584716 89.965892 53.230011 87.983642 54.936596 
L 171.322997 151.73776 
z
" style="fill: #9467bd"/>
   </g>
   <g id="patch_10">
    <path d="M 87.951201 54.963309 
C 87.384885 55.45087 86.822859 55.94339 86.265186 56.440815 
C 85.707514 56.938239 85.154218 57.440547 84.605361 57.947682 
L 171.290557 151.764473 
z
" style="fill: #ff9896"/>
   </g>
   <g id="patch_11">
    <path d="M 84.44957 58.192883 
C 67.610265 73.752129 55.266645 93.561883 48.719638 115.534343 
C 42.17263 137.506803 41.660612 160.841952 47.237546 183.080434 
L 171.134766 152.009674 
z
" style="fill: #c5b0d5"/>
   </g>
   <g id="patch_12">
    <path d="M 47.233722 183.370916 
C 47.415495 184.095753 47.603626 184.81898 47.798092 185.540514 
C 47.992558 186.262049 48.193352 186.981863 48.400451 187.699874 
L 171.130942 152.300156 
z
" style="fill: #c49c94"/>
   </g>
   <g id="patch_13">
    <path d="M 48.411432 187.735579 
C 49.032762 189.889722 49.710697 192.027133 50.444533 194.145591 
C 51.17837 196.264049 51.967853 198.362819 52.812163 200.439721 
L 171.141923 152.335862 
z
" style="fill: #8c564b"/>
   </g>
   <g id="patch_14">
    <path d="M 52.867104 200.552898 
C 55.824107 207.826773 59.445522 214.812522 63.685336 221.421387 
C 67.92515 228.030252 72.76533 234.234121 78.144377 239.954171 
L 171.196865 152.449039 
z
" style="fill: #e377c2"/>
   </g>
   <g id="patch_15">
    <path d="M 78.231154 240.05769 
C 80.279077 242.23544 82.40282 244.340627 84.598458 246.369361 
C 86.794096 248.398094 89.060277 250.349125 91.392813 252.218847 
L 171.283641 152.552558 
z
" style="fill: #7f7f7f"/>
   </g>
   <g id="patch_16">
    <path d="M 91.557903 252.322724 
C 101.488513 260.282934 112.553304 266.714421 124.385123 271.403773 
C 136.216942 276.093125 148.683455 278.987894 161.370995 279.992026 
L 171.448731 152.656435 
z
" style="fill: #f7b6d2"/>
   </g>
   <g id="patch_17">
    <path d="M 161.682921 280.016713 
C 174.370461 281.020844 187.137124 280.123107 199.559285 277.353291 
C 211.981445 274.583475 223.920167 269.972558 234.979297 263.673541 
L 171.760657 152.681122 
z
" style="fill: #c7c7c7"/>
   </g>
   <g id="patch_18">
    <path d="M 235.174031 263.586293 
C 239.070942 261.366705 242.848257 258.943428 246.490279 256.32653 
C 250.132302 253.709632 253.633981 250.902744 256.980766 247.917528 
L 171.955391 152.593874 
z
" style="fill: #dbdb8d"/>
   </g>
   <g id="patch_19">
    <path d="M 257.110449 247.784386 
C 264.927618 240.811744 271.857483 232.903914 277.743792 224.239202 
C 283.6301 215.57449 288.428275 206.218512 292.030127 196.382226 
L 172.085074 152.460732 
z
" style="fill: #bcbd22"/>
   </g>
   <g id="patch_20">
    <path d="M 292.107237 196.208075 
C 293.777881 191.645721 295.186856 186.991761 296.327294 182.268889 
C 297.467732 177.546016 298.337776 172.76192 298.933183 167.939927 
L 172.162184 152.286581 
z
" style="fill: #17becf"/>
   </g>
   <g id="patch_21">
    <path d="M 298.947048 167.847674 
C 299.26759 165.251716 299.508319 162.646524 299.668892 160.035784 
C 299.829466 157.425045 299.90981 154.809989 299.909809 152.194315 
L 172.176049 152.194327 
z
" style="fill: #9edae5"/>
   </g>
   <g id="patch_22">
    <path d="M 246.156189 152.161655 
C 246.156189 141.881574 244.028727 131.711859 239.907964 122.293825 
C 235.7872 112.87579 229.761615 104.411659 222.211189 97.435189 
L 171.644829 152.161655 
z
" style="fill: #ffffff"/>
   </g>
   <g id="patch_23">
    <path d="M 222.211189 97.435189 
C 220.449943 95.807827 218.611164 94.266435 216.701273 92.816397 
C 214.791382 91.366358 212.812605 90.009363 210.771851 88.75015 
L 171.644829 152.161655 
z
" style="fill: #ffffff"/>
   </g>
   <g id="patch_24">
    <path d="M 210.771851 88.75015 
C 208.916683 87.605449 207.012174 86.542711 205.063821 85.565005 
C 203.115468 84.587298 201.125147 83.695564 199.098604 82.892375 
L 171.644829 152.161655 
z
" style="fill: #ffffff"/>
   </g>
   <g id="patch_25">
    <path d="M 199.098604 82.892375 
C 197.680139 82.33019 196.244741 81.811707 194.79444 81.33766 
C 193.344139 80.863612 191.879619 80.434225 190.402952 80.050105 
L 171.644829 152.161655 
z
" style="fill: #ffffff"/>
   </g>
   <g id="patch_26">
    <path d="M 190.402952 80.050105 
C 187.026593 79.171825 183.592715 78.531756 180.12667 78.134625 
C 176.660626 77.737494 173.170965 77.58428 169.683453 77.676114 
L 171.644829 152.161655 
z
" style="fill: #ffffff"/>
   </g>
   <g id="patch_27">
    <path d="M 169.683453 77.676114 
C 163.356417 77.842719 157.076314 78.814806 150.994997 80.568867 
C 144.913681 82.322929 139.080565 84.844713 133.636693 88.073244 
L 171.644829 152.161655 
z
" style="fill: #ffffff"/>
   </g>
   <g id="patch_28">
    <path d="M 133.636693 88.073244 
C 133.074284 88.406785 132.516289 88.747715 131.962855 89.095946 
C 131.40942 89.444176 130.860593 89.799676 130.316516 90.162354 
L 171.644829 152.161655 
z
" style="fill: #ffffff"/>
   </g>
   <g id="patch_29">
    <path d="M 130.316516 90.162354 
C 129.046923 91.008656 127.803625 91.893755 126.58838 92.816401 
C 125.373135 93.739046 124.186518 94.698801 123.030205 95.694309 
L 171.644829 152.161655 
z
" style="fill: #ffffff"/>
   </g>
   <g id="patch_30">
    <path d="M 123.030205 95.694309 
C 122.699854 95.978719 122.372005 96.266023 122.046696 96.556187 
C 121.721388 96.846351 121.398631 97.139365 121.078465 97.435193 
L 171.644829 152.161655 
z
" style="fill: #ffffff"/>
   </g>
   <g id="patch_31">
    <path d="M 121.078465 97.435193 
C 111.255537 106.51142 104.055092 118.06711 100.236004 130.884378 
C 96.416917 143.701647 96.118239 157.313816 99.371451 170.286265 
L 171.644829 152.161655 
z
" style="fill: #ffffff"/>
   </g>
   <g id="patch_32">
    <path d="M 99.371451 170.286265 
C 99.477485 170.709086 99.587228 171.130969 99.700666 171.551864 
C 99.814105 171.972759 99.931235 172.39265 100.052043 172.81149 
L 171.644829 152.161655 
z
" style="fill: #ffffff"/>
   </g>
   <g id="patch_33">
    <path d="M 100.052043 172.81149 
C 100.414485 174.068073 100.809947 175.314896 101.238018 176.550663 
C 101.66609 177.78643 102.126622 179.010713 102.619136 180.222239 
L 171.644829 152.161655 
z
" style="fill: #ffffff"/>
   </g>
   <g id="patch_34">
    <path d="M 102.619136 180.222239 
C 104.344054 184.465332 106.456546 188.540353 108.929771 192.395524 
C 111.402996 196.250695 114.226434 199.869619 117.364212 203.206315 
L 171.644829 152.161655 
z
" style="fill: #ffffff"/>
   </g>
   <g id="patch_35">
    <path d="M 117.364212 203.206315 
C 118.558834 204.476669 119.797684 205.704695 121.078472 206.888123 
C 122.359261 208.071551 123.6812 209.209652 125.041846 210.300323 
L 171.644829 152.161655 
z
" style="fill: #ffffff"/>
   </g>
   <g id="patch_36">
    <path d="M 125.041846 210.300323 
C 130.834702 214.943779 137.289164 218.69548 144.191058 221.430935 
C 151.092952 224.16639 158.365085 225.855006 165.76615 226.440749 
L 171.644829 152.161655 
z
" style="fill: #ffffff"/>
   </g>
   <g id="patch_37">
    <path d="M 165.76615 226.440749 
C 173.167215 227.026493 180.614435 226.502813 187.860696 224.887087 
C 195.106956 223.27136 202.07121 220.581659 208.522369 216.907232 
L 171.644829 152.161655 
z
" style="fill: #ffffff"/>
   </g>
   <g id="patch_38">
    <path d="M 208.522369 216.907232 
C 210.795567 215.612473 212.999001 214.198894 215.123514 212.672371 
C 217.248027 211.145847 219.290673 209.508495 221.242965 207.767119 
L 171.644829 152.161655 
z
" style="fill: #ffffff"/>
   </g>
   <g id="patch_39">
    <path d="M 221.242965 207.767119 
C 225.80298 203.699745 229.845401 199.086844 233.279081 194.032429 
C 236.712761 188.978013 239.511696 183.52036 241.612777 177.782526 
L 171.644829 152.161655 
z
" style="fill: #ffffff"/>
   </g>
   <g id="patch_40">
    <path d="M 241.612777 177.782526 
C 242.587319 175.121153 243.409222 172.406343 244.074477 169.651334 
C 244.739733 166.896325 245.247258 164.105602 245.594579 161.292773 
L 171.644829 152.161655 
z
" style="fill: #ffffff"/>
   </g>
   <g id="patch_41">
    <path d="M 245.594579 161.292773 
C 245.781562 159.778464 245.921986 158.258769 246.015654 156.735838 
C 246.109322 155.212906 246.156189 153.687457 246.156189 152.161648 
L 171.644829 152.161655 
z
" style="fill: #ffffff"/>
   </g>
   <g id="matplotlib.axis_1"/>
   <g id="matplotlib.axis_2"/>
   <g id="text_1">
    <!-- A [47] -->
    <g transform="translate(300.857191 98.385494) scale(0.1 -0.1)">
     <defs>
      <path id="DejaVuSans-41" d="M 2188 4044 
L 1331 1722 
L 3047 1722 
L 2188 4044 
z
M 1831 4666 
L 2547 4666 
L 4325 0 
L 3669 0 
L 3244 1197 
L 1141 1197 
L 716 0 
L 50 0 
L 1831 4666 
z
" transform="scale(0.015625)"/>
      <path id="DejaVuSans-20" transform="scale(0.015625)"/>
      <path id="DejaVuSans-5b" d="M 550 4863 
L 1875 4863 
L 1875 4416 
L 1125 4416 
L 1125 -397 
L 1875 -397 
L 1875 -844 
L 550 -844 
L 550 4863 
z
" transform="scale(0.015625)"/>
      <path id="DejaVuSans-34" d="M 2419 4116 
L 825 1625 
L 2419 1625 
L 2419 4116 
z
M 2253 4666 
L 3047 4666 
L 3047 1625 
L 3713 1625 
L 3713 1100 
L 3047 1100 
L 3047 0 
L 2419 0 
L 2419 1100 
L 313 1100 
L 313 1709 
L 2253 4666 
z
" transform="scale(0.015625)"/>
      <path id="DejaVuSans-37" d="M 525 4666 
L 3525 4666 
L 3525 4397 
L 1831 0 
L 1172 0 
L 2766 4134 
L 525 4134 
L 525 4666 
z
" transform="scale(0.015625)"/>
      <path id="DejaVuSans-5d" d="M 1947 4863 
L 1947 -844 
L 622 -844 
L 622 -397 
L 1369 -397 
L 1369 4416 
L 622 4416 
L 622 4863 
L 1947 4863 
z
" transform="scale(0.015625)"/>
     </defs>
     <use xlink:href="#DejaVuSans-41"/>
     <use xlink:href="#DejaVuSans-20" x="68.408203"/>
     <use xlink:href="#DejaVuSans-5b" x="100.195312"/>
     <use xlink:href="#DejaVuSans-34" x="139.208984"/>
     <use xlink:href="#DejaVuSans-37" x="202.832031"/>
     <use xlink:href="#DejaVuSans-5d" x="266.455078"/>
    </g>
   </g>
   <g id="text_2">
    <!-- C [11] -->
    <g transform="translate(256.930241 42.588934) scale(0.1 -0.1)">
     <defs>
      <path id="DejaVuSans-43" d="M 4122 4306 
L 4122 3641 
Q 3803 3938 3442 4084 
Q 3081 4231 2675 4231 
Q 1875 4231 1450 3742 
Q 1025 3253 1025 2328 
Q 1025 1406 1450 917 
Q 1875 428 2675 428 
Q 3081 428 3442 575 
Q 3803 722 4122 1019 
L 4122 359 
Q 3791 134 3420 21 
Q 3050 -91 2638 -91 
Q 1578 -91 968 557 
Q 359 1206 359 2328 
Q 359 3453 968 4101 
Q 1578 4750 2638 4750 
Q 3056 4750 3426 4639 
Q 3797 4528 4122 4306 
z
" transform="scale(0.015625)"/>
      <path id="DejaVuSans-31" d="M 794 531 
L 1825 531 
L 1825 4091 
L 703 3866 
L 703 4441 
L 1819 4666 
L 2450 4666 
L 2450 531 
L 3481 531 
L 3481 0 
L 794 0 
L 794 531 
z
" transform="scale(0.015625)"/>
     </defs>
     <use xlink:href="#DejaVuSans-43"/>
     <use xlink:href="#DejaVuSans-20" x="69.824219"/>
     <use xlink:href="#DejaVuSans-5b" x="101.611328"/>
     <use xlink:href="#DejaVuSans-31" x="140.625"/>
     <use xlink:href="#DejaVuSans-31" x="204.248047"/>
     <use xlink:href="#DejaVuSans-5d" x="267.871094"/>
    </g>
   </g>
   <g id="text_3">
    <!-- D [10] -->
    <g transform="translate(234.902206 28.863085) scale(0.1 -0.1)">
     <defs>
      <path id="DejaVuSans-44" d="M 1259 4147 
L 1259 519 
L 2022 519 
Q 2988 519 3436 956 
Q 3884 1394 3884 2338 
Q 3884 3275 3436 3711 
Q 2988 4147 2022 4147 
L 1259 4147 
z
M 628 4666 
L 1925 4666 
Q 3281 4666 3915 4102 
Q 4550 3538 4550 2338 
Q 4550 1131 3912 565 
Q 3275 0 1925 0 
L 628 0 
L 628 4666 
z
" transform="scale(0.015625)"/>
      <path id="DejaVuSans-30" d="M 2034 4250 
Q 1547 4250 1301 3770 
Q 1056 3291 1056 2328 
Q 1056 1369 1301 889 
Q 1547 409 2034 409 
Q 2525 409 2770 889 
Q 3016 1369 3016 2328 
Q 3016 3291 2770 3770 
Q 2525 4250 2034 4250 
z
M 2034 4750 
Q 2819 4750 3233 4129 
Q 3647 3509 3647 2328 
Q 3647 1150 3233 529 
Q 2819 -91 2034 -91 
Q 1250 -91 836 529 
Q 422 1150 422 2328 
Q 422 3509 836 4129 
Q 1250 4750 2034 4750 
z
" transform="scale(0.015625)"/>
     </defs>
     <use xlink:href="#DejaVuSans-44"/>
     <use xlink:href="#DejaVuSans-20" x="77.001953"/>
     <use xlink:href="#DejaVuSans-5b" x="108.789062"/>
     <use xlink:href="#DejaVuSans-31" x="147.802734"/>
     <use xlink:href="#DejaVuSans-30" x="211.425781"/>
     <use xlink:href="#DejaVuSans-5d" x="275.048828"/>
    </g>
   </g>
   <g id="text_4">
    <!-- E [7] -->
    <g transform="translate(215.463736 20.861325) scale(0.1 -0.1)">
     <defs>
      <path id="DejaVuSans-45" d="M 628 4666 
L 3578 4666 
L 3578 4134 
L 1259 4134 
L 1259 2753 
L 3481 2753 
L 3481 2222 
L 1259 2222 
L 1259 531 
L 3634 531 
L 3634 0 
L 628 0 
L 628 4666 
z
" transform="scale(0.015625)"/>
     </defs>
     <use xlink:href="#DejaVuSans-45"/>
     <use xlink:href="#DejaVuSans-20" x="63.183594"/>
     <use xlink:href="#DejaVuSans-5b" x="94.970703"/>
     <use xlink:href="#DejaVuSans-37" x="133.984375"/>
     <use xlink:href="#DejaVuSans-5d" x="197.607422"/>
    </g>
   </g>
   <g id="text_5">
    <!-- F [16] -->
    <g transform="translate(187.699743 14.798437) scale(0.1 -0.1)">
     <defs>
      <path id="DejaVuSans-46" d="M 628 4666 
L 3309 4666 
L 3309 4134 
L 1259 4134 
L 1259 2759 
L 3109 2759 
L 3109 2228 
L 1259 2228 
L 1259 0 
L 628 0 
L 628 4666 
z
" transform="scale(0.015625)"/>
      <path id="DejaVuSans-36" d="M 2113 2584 
Q 1688 2584 1439 2293 
Q 1191 2003 1191 1497 
Q 1191 994 1439 701 
Q 1688 409 2113 409 
Q 2538 409 2786 701 
Q 3034 994 3034 1497 
Q 3034 2003 2786 2293 
Q 2538 2584 2113 2584 
z
M 3366 4563 
L 3366 3988 
Q 3128 4100 2886 4159 
Q 2644 4219 2406 4219 
Q 1781 4219 1451 3797 
Q 1122 3375 1075 2522 
Q 1259 2794 1537 2939 
Q 1816 3084 2150 3084 
Q 2853 3084 3261 2657 
Q 3669 2231 3669 1497 
Q 3669 778 3244 343 
Q 2819 -91 2113 -91 
Q 1303 -91 875 529 
Q 447 1150 447 2328 
Q 447 3434 972 4092 
Q 1497 4750 2381 4750 
Q 2619 4750 2861 4703 
Q 3103 4656 3366 4563 
z
" transform="scale(0.015625)"/>
     </defs>
     <use xlink:href="#DejaVuSans-46"/>
     <use xlink:href="#DejaVuSans-20" x="57.519531"/>
     <use xlink:href="#DejaVuSans-5b" x="89.306641"/>
     <use xlink:href="#DejaVuSans-31" x="128.320312"/>
     <use xlink:href="#DejaVuSans-36" x="191.943359"/>
     <use xlink:href="#DejaVuSans-5d" x="255.566406"/>
    </g>
   </g>
   <g id="text_6">
    <!-- G [29] -->
    <g transform="translate(101.10296 19.406111) scale(0.1 -0.1)">
     <defs>
      <path id="DejaVuSans-47" d="M 3809 666 
L 3809 1919 
L 2778 1919 
L 2778 2438 
L 4434 2438 
L 4434 434 
Q 4069 175 3628 42 
Q 3188 -91 2688 -91 
Q 1594 -91 976 548 
Q 359 1188 359 2328 
Q 359 3472 976 4111 
Q 1594 4750 2688 4750 
Q 3144 4750 3555 4637 
Q 3966 4525 4313 4306 
L 4313 3634 
Q 3963 3931 3569 4081 
Q 3175 4231 2741 4231 
Q 1884 4231 1454 3753 
Q 1025 3275 1025 2328 
Q 1025 1384 1454 906 
Q 1884 428 2741 428 
Q 3075 428 3337 486 
Q 3600 544 3809 666 
z
" transform="scale(0.015625)"/>
      <path id="DejaVuSans-32" d="M 1228 531 
L 3431 531 
L 3431 0 
L 469 0 
L 469 531 
Q 828 903 1448 1529 
Q 2069 2156 2228 2338 
Q 2531 2678 2651 2914 
Q 2772 3150 2772 3378 
Q 2772 3750 2511 3984 
Q 2250 4219 1831 4219 
Q 1534 4219 1204 4116 
Q 875 4013 500 3803 
L 500 4441 
Q 881 4594 1212 4672 
Q 1544 4750 1819 4750 
Q 2544 4750 2975 4387 
Q 3406 4025 3406 3419 
Q 3406 3131 3298 2873 
Q 3191 2616 2906 2266 
Q 2828 2175 2409 1742 
Q 1991 1309 1228 531 
z
" transform="scale(0.015625)"/>
      <path id="DejaVuSans-39" d="M 703 97 
L 703 672 
Q 941 559 1184 500 
Q 1428 441 1663 441 
Q 2288 441 2617 861 
Q 2947 1281 2994 2138 
Q 2813 1869 2534 1725 
Q 2256 1581 1919 1581 
Q 1219 1581 811 2004 
Q 403 2428 403 3163 
Q 403 3881 828 4315 
Q 1253 4750 1959 4750 
Q 2769 4750 3195 4129 
Q 3622 3509 3622 2328 
Q 3622 1225 3098 567 
Q 2575 -91 1691 -91 
Q 1453 -91 1209 -44 
Q 966 3 703 97 
z
M 1959 2075 
Q 2384 2075 2632 2365 
Q 2881 2656 2881 3163 
Q 2881 3666 2632 3958 
Q 2384 4250 1959 4250 
Q 1534 4250 1286 3958 
Q 1038 3666 1038 3163 
Q 1038 2656 1286 2365 
Q 1534 2075 1959 2075 
z
" transform="scale(0.015625)"/>
     </defs>
     <use xlink:href="#DejaVuSans-47"/>
     <use xlink:href="#DejaVuSans-20" x="77.490234"/>
     <use xlink:href="#DejaVuSans-5b" x="109.277344"/>
     <use xlink:href="#DejaVuSans-32" x="148.291016"/>
     <use xlink:href="#DejaVuSans-39" x="211.914062"/>
     <use xlink:href="#DejaVuSans-5d" x="275.537109"/>
    </g>
   </g>
   <g id="text_7">
    <!-- H [3] -->
    <g transform="translate(71.668458 35.546652) scale(0.1 -0.1)">
     <defs>
      <path id="DejaVuSans-48" d="M 628 4666 
L 1259 4666 
L 1259 2753 
L 3553 2753 
L 3553 4666 
L 4184 4666 
L 4184 0 
L 3553 0 
L 3553 2222 
L 1259 2222 
L 1259 0 
L 628 0 
L 628 4666 
z
" transform="scale(0.015625)"/>
      <path id="DejaVuSans-33" d="M 2597 2516 
Q 3050 2419 3304 2112 
Q 3559 1806 3559 1356 
Q 3559 666 3084 287 
Q 2609 -91 1734 -91 
Q 1441 -91 1130 -33 
Q 819 25 488 141 
L 488 750 
Q 750 597 1062 519 
Q 1375 441 1716 441 
Q 2309 441 2620 675 
Q 2931 909 2931 1356 
Q 2931 1769 2642 2001 
Q 2353 2234 1838 2234 
L 1294 2234 
L 1294 2753 
L 1863 2753 
Q 2328 2753 2575 2939 
Q 2822 3125 2822 3475 
Q 2822 3834 2567 4026 
Q 2313 4219 1838 4219 
Q 1578 4219 1281 4162 
Q 984 4106 628 3988 
L 628 4550 
Q 988 4650 1302 4700 
Q 1616 4750 1894 4750 
Q 2613 4750 3031 4423 
Q 3450 4097 3450 3541 
Q 3450 3153 3228 2886 
Q 3006 2619 2597 2516 
z
" transform="scale(0.015625)"/>
     </defs>
     <use xlink:href="#DejaVuSans-48"/>
     <use xlink:href="#DejaVuSans-20" x="75.195312"/>
     <use xlink:href="#DejaVuSans-5b" x="106.982422"/>
     <use xlink:href="#DejaVuSans-33" x="145.996094"/>
     <use xlink:href="#DejaVuSans-5d" x="209.619141"/>
    </g>
   </g>
   <g id="text_8">
    <!-- I [7] -->
    <g transform="translate(66.065658 42.588942) scale(0.1 -0.1)">
     <defs>
      <path id="DejaVuSans-49" d="M 628 4666 
L 1259 4666 
L 1259 0 
L 628 0 
L 628 4666 
z
" transform="scale(0.015625)"/>
     </defs>
     <use xlink:href="#DejaVuSans-49"/>
     <use xlink:href="#DejaVuSans-20" x="29.492188"/>
     <use xlink:href="#DejaVuSans-5b" x="61.279297"/>
     <use xlink:href="#DejaVuSans-37" x="100.292969"/>
     <use xlink:href="#DejaVuSans-5d" x="163.916016"/>
    </g>
   </g>
   <g id="text_9">
    <!-- K [2] -->
    <g transform="translate(53.861087 49.667824) scale(0.1 -0.1)">
     <defs>
      <path id="DejaVuSans-4b" d="M 628 4666 
L 1259 4666 
L 1259 2694 
L 3353 4666 
L 4166 4666 
L 1850 2491 
L 4331 0 
L 3500 0 
L 1259 2247 
L 1259 0 
L 628 0 
L 628 4666 
z
" transform="scale(0.015625)"/>
     </defs>
     <use xlink:href="#DejaVuSans-4b"/>
     <use xlink:href="#DejaVuSans-20" x="65.576172"/>
     <use xlink:href="#DejaVuSans-5b" x="97.363281"/>
     <use xlink:href="#DejaVuSans-32" x="136.376953"/>
     <use xlink:href="#DejaVuSans-5d" x="200"/>
    </g>
   </g>
   <g id="text_10">
    <!-- L [61] -->
    <g transform="translate(7.2 114.646185) scale(0.1 -0.1)">
     <defs>
      <path id="DejaVuSans-4c" d="M 628 4666 
L 1259 4666 
L 1259 531 
L 3531 531 
L 3531 0 
L 628 0 
L 628 4666 
z
" transform="scale(0.015625)"/>
     </defs>
     <use xlink:href="#DejaVuSans-4c"/>
     <use xlink:href="#DejaVuSans-20" x="55.712891"/>
     <use xlink:href="#DejaVuSans-5b" x="87.5"/>
     <use xlink:href="#DejaVuSans-36" x="126.513672"/>
     <use xlink:href="#DejaVuSans-31" x="190.136719"/>
     <use xlink:href="#DejaVuSans-5d" x="253.759766"/>
    </g>
   </g>
   <g id="text_11">
    <!-- M [2] -->
    <g transform="translate(9.492932 191.623925) scale(0.1 -0.1)">
     <defs>
      <path id="DejaVuSans-4d" d="M 628 4666 
L 1569 4666 
L 2759 1491 
L 3956 4666 
L 4897 4666 
L 4897 0 
L 4281 0 
L 4281 4097 
L 3078 897 
L 2444 897 
L 1241 4097 
L 1241 0 
L 628 0 
L 628 4666 
z
" transform="scale(0.015625)"/>
     </defs>
     <use xlink:href="#DejaVuSans-4d"/>
     <use xlink:href="#DejaVuSans-20" x="86.279297"/>
     <use xlink:href="#DejaVuSans-5b" x="118.066406"/>
     <use xlink:href="#DejaVuSans-32" x="157.080078"/>
     <use xlink:href="#DejaVuSans-5d" x="220.703125"/>
    </g>
   </g>
   <g id="text_12">
    <!-- N [6] -->
    <g transform="translate(13.549794 201.085939) scale(0.1 -0.1)">
     <defs>
      <path id="DejaVuSans-4e" d="M 628 4666 
L 1478 4666 
L 3547 763 
L 3547 4666 
L 4159 4666 
L 4159 0 
L 3309 0 
L 1241 3903 
L 1241 0 
L 628 0 
L 628 4666 
z
" transform="scale(0.015625)"/>
     </defs>
     <use xlink:href="#DejaVuSans-4e"/>
     <use xlink:href="#DejaVuSans-20" x="74.804688"/>
     <use xlink:href="#DejaVuSans-5b" x="106.591797"/>
     <use xlink:href="#DejaVuSans-36" x="145.605469"/>
     <use xlink:href="#DejaVuSans-5d" x="209.228516"/>
    </g>
   </g>
   <g id="text_13">
    <!-- P [21] -->
    <g transform="translate(23.198246 231.077997) scale(0.1 -0.1)">
     <defs>
      <path id="DejaVuSans-50" d="M 1259 4147 
L 1259 2394 
L 2053 2394 
Q 2494 2394 2734 2622 
Q 2975 2850 2975 3272 
Q 2975 3691 2734 3919 
Q 2494 4147 2053 4147 
L 1259 4147 
z
M 628 4666 
L 2053 4666 
Q 2838 4666 3239 4311 
Q 3641 3956 3641 3272 
Q 3641 2581 3239 2228 
Q 2838 1875 2053 1875 
L 1259 1875 
L 1259 0 
L 628 0 
L 628 4666 
z
" transform="scale(0.015625)"/>
     </defs>
     <use xlink:href="#DejaVuSans-50"/>
     <use xlink:href="#DejaVuSans-20" x="60.302734"/>
     <use xlink:href="#DejaVuSans-5b" x="92.089844"/>
     <use xlink:href="#DejaVuSans-32" x="131.103516"/>
     <use xlink:href="#DejaVuSans-31" x="194.726562"/>
     <use xlink:href="#DejaVuSans-5d" x="258.349609"/>
    </g>
   </g>
   <g id="text_14">
    <!-- Q [8] -->
    <g transform="translate(50.714315 258.510416) scale(0.1 -0.1)">
     <defs>
      <path id="DejaVuSans-51" d="M 2522 4238 
Q 1834 4238 1429 3725 
Q 1025 3213 1025 2328 
Q 1025 1447 1429 934 
Q 1834 422 2522 422 
Q 3209 422 3611 934 
Q 4013 1447 4013 2328 
Q 4013 3213 3611 3725 
Q 3209 4238 2522 4238 
z
M 3406 84 
L 4238 -825 
L 3475 -825 
L 2784 -78 
Q 2681 -84 2626 -87 
Q 2572 -91 2522 -91 
Q 1538 -91 948 567 
Q 359 1225 359 2328 
Q 359 3434 948 4092 
Q 1538 4750 2522 4750 
Q 3503 4750 4090 4092 
Q 4678 3434 4678 2328 
Q 4678 1516 4351 937 
Q 4025 359 3406 84 
z
" transform="scale(0.015625)"/>
      <path id="DejaVuSans-38" d="M 2034 2216 
Q 1584 2216 1326 1975 
Q 1069 1734 1069 1313 
Q 1069 891 1326 650 
Q 1584 409 2034 409 
Q 2484 409 2743 651 
Q 3003 894 3003 1313 
Q 3003 1734 2745 1975 
Q 2488 2216 2034 2216 
z
M 1403 2484 
Q 997 2584 770 2862 
Q 544 3141 544 3541 
Q 544 4100 942 4425 
Q 1341 4750 2034 4750 
Q 2731 4750 3128 4425 
Q 3525 4100 3525 3541 
Q 3525 3141 3298 2862 
Q 3072 2584 2669 2484 
Q 3125 2378 3379 2068 
Q 3634 1759 3634 1313 
Q 3634 634 3220 271 
Q 2806 -91 2034 -91 
Q 1263 -91 848 271 
Q 434 634 434 1313 
Q 434 1759 690 2068 
Q 947 2378 1403 2484 
z
M 1172 3481 
Q 1172 3119 1398 2916 
Q 1625 2713 2034 2713 
Q 2441 2713 2670 2916 
Q 2900 3119 2900 3481 
Q 2900 3844 2670 4047 
Q 2441 4250 2034 4250 
Q 1625 4250 1398 4047 
Q 1172 3844 1172 3481 
z
" transform="scale(0.015625)"/>
     </defs>
     <use xlink:href="#DejaVuSans-51"/>
     <use xlink:href="#DejaVuSans-20" x="78.710938"/>
     <use xlink:href="#DejaVuSans-5b" x="110.498047"/>
     <use xlink:href="#DejaVuSans-38" x="149.511719"/>
     <use xlink:href="#DejaVuSans-5d" x="213.134766"/>
    </g>
   </g>
   <g id="text_15">
    <!-- R [34] -->
    <g transform="translate(89.024075 286.037882) scale(0.1 -0.1)">
     <defs>
      <path id="DejaVuSans-52" d="M 2841 2188 
Q 3044 2119 3236 1894 
Q 3428 1669 3622 1275 
L 4263 0 
L 3584 0 
L 2988 1197 
Q 2756 1666 2539 1819 
Q 2322 1972 1947 1972 
L 1259 1972 
L 1259 0 
L 628 0 
L 628 4666 
L 2053 4666 
Q 2853 4666 3247 4331 
Q 3641 3997 3641 3322 
Q 3641 2881 3436 2590 
Q 3231 2300 2841 2188 
z
M 1259 4147 
L 1259 2491 
L 2053 2491 
Q 2509 2491 2742 2702 
Q 2975 2913 2975 3322 
Q 2975 3731 2742 3939 
Q 2509 4147 2053 4147 
L 1259 4147 
z
" transform="scale(0.015625)"/>
     </defs>
     <use xlink:href="#DejaVuSans-52"/>
     <use xlink:href="#DejaVuSans-20" x="69.482422"/>
     <use xlink:href="#DejaVuSans-5b" x="101.269531"/>
     <use xlink:href="#DejaVuSans-33" x="140.283203"/>
     <use xlink:href="#DejaVuSans-34" x="203.90625"/>
     <use xlink:href="#DejaVuSans-5d" x="267.529297"/>
    </g>
   </g>
   <g id="text_16">
    <!-- S [34] -->
    <g transform="translate(202.339148 292.579883) scale(0.1 -0.1)">
     <defs>
      <path id="DejaVuSans-53" d="M 3425 4513 
L 3425 3897 
Q 3066 4069 2747 4153 
Q 2428 4238 2131 4238 
Q 1616 4238 1336 4038 
Q 1056 3838 1056 3469 
Q 1056 3159 1242 3001 
Q 1428 2844 1947 2747 
L 2328 2669 
Q 3034 2534 3370 2195 
Q 3706 1856 3706 1288 
Q 3706 609 3251 259 
Q 2797 -91 1919 -91 
Q 1588 -91 1214 -16 
Q 841 59 441 206 
L 441 856 
Q 825 641 1194 531 
Q 1563 422 1919 422 
Q 2459 422 2753 634 
Q 3047 847 3047 1241 
Q 3047 1584 2836 1778 
Q 2625 1972 2144 2069 
L 1759 2144 
Q 1053 2284 737 2584 
Q 422 2884 422 3419 
Q 422 4038 858 4394 
Q 1294 4750 2059 4750 
Q 2388 4750 2728 4690 
Q 3069 4631 3425 4513 
z
" transform="scale(0.015625)"/>
     </defs>
     <use xlink:href="#DejaVuSans-53"/>
     <use xlink:href="#DejaVuSans-20" x="63.476562"/>
     <use xlink:href="#DejaVuSans-5b" x="95.263672"/>
     <use xlink:href="#DejaVuSans-33" x="134.277344"/>
     <use xlink:href="#DejaVuSans-34" x="197.900391"/>
     <use xlink:href="#DejaVuSans-5d" x="261.523438"/>
    </g>
   </g>
   <g id="text_17">
    <!-- T [12] -->
    <g transform="translate(253.943768 269.459171) scale(0.1 -0.1)">
     <defs>
      <path id="DejaVuSans-54" d="M -19 4666 
L 3928 4666 
L 3928 4134 
L 2272 4134 
L 2272 0 
L 1638 0 
L 1638 4134 
L -19 4134 
L -19 4666 
z
" transform="scale(0.015625)"/>
     </defs>
     <use xlink:href="#DejaVuSans-54"/>
     <use xlink:href="#DejaVuSans-20" x="61.083984"/>
     <use xlink:href="#DejaVuSans-5b" x="92.871094"/>
     <use xlink:href="#DejaVuSans-31" x="131.884766"/>
     <use xlink:href="#DejaVuSans-32" x="195.507812"/>
     <use xlink:href="#DejaVuSans-5d" x="259.130859"/>
    </g>
   </g>
   <g id="text_18">
    <!-- V [28] -->
    <g transform="translate(288.309664 234.176424) scale(0.1 -0.1)">
     <defs>
      <path id="DejaVuSans-56" d="M 1831 0 
L 50 4666 
L 709 4666 
L 2188 738 
L 3669 4666 
L 4325 4666 
L 2547 0 
L 1831 0 
z
" transform="scale(0.015625)"/>
     </defs>
     <use xlink:href="#DejaVuSans-56"/>
     <use xlink:href="#DejaVuSans-20" x="68.408203"/>
     <use xlink:href="#DejaVuSans-5b" x="100.195312"/>
     <use xlink:href="#DejaVuSans-32" x="139.208984"/>
     <use xlink:href="#DejaVuSans-38" x="202.832031"/>
     <use xlink:href="#DejaVuSans-5d" x="266.455078"/>
    </g>
   </g>
   <g id="text_19">
    <!-- W [13] -->
    <g transform="translate(308.743805 188.026495) scale(0.1 -0.1)">
     <defs>
      <path id="DejaVuSans-57" d="M 213 4666 
L 850 4666 
L 1831 722 
L 2809 4666 
L 3519 4666 
L 4500 722 
L 5478 4666 
L 6119 4666 
L 4947 0 
L 4153 0 
L 3169 4050 
L 2175 0 
L 1381 0 
L 213 4666 
z
" transform="scale(0.015625)"/>
     </defs>
     <use xlink:href="#DejaVuSans-57"/>
     <use xlink:href="#DejaVuSans-20" x="98.876953"/>
     <use xlink:href="#DejaVuSans-5b" x="130.664062"/>
     <use xlink:href="#DejaVuSans-31" x="169.677734"/>
     <use xlink:href="#DejaVuSans-33" x="233.300781"/>
     <use xlink:href="#DejaVuSans-5d" x="296.923828"/>
    </g>
   </g>
   <g id="text_20">
    <!-- Y [7] -->
    <g transform="translate(312.418177 163.579305) scale(0.1 -0.1)">
     <defs>
      <path id="DejaVuSans-59" d="M -13 4666 
L 666 4666 
L 1959 2747 
L 3244 4666 
L 3922 4666 
L 2272 2222 
L 2272 0 
L 1638 0 
L 1638 2222 
L -13 4666 
z
" transform="scale(0.015625)"/>
     </defs>
     <use xlink:href="#DejaVuSans-59"/>
     <use xlink:href="#DejaVuSans-20" x="61.083984"/>
     <use xlink:href="#DejaVuSans-5b" x="92.871094"/>
     <use xlink:href="#DejaVuSans-37" x="131.884766"/>
     <use xlink:href="#DejaVuSans-5d" x="195.507812"/>
    </g>
   </g>
   <g id="text_21">
    <!-- P0C5I1 [358] -->
    <g transform="translate(132.573579 152.161655) scale(0.12 -0.12)">
     <defs>
      <path id="DejaVuSans-35" d="M 691 4666 
L 3169 4666 
L 3169 4134 
L 1269 4134 
L 1269 2991 
Q 1406 3038 1543 3061 
Q 1681 3084 1819 3084 
Q 2600 3084 3056 2656 
Q 3513 2228 3513 1497 
Q 3513 744 3044 326 
Q 2575 -91 1722 -91 
Q 1428 -91 1123 -41 
Q 819 9 494 109 
L 494 744 
Q 775 591 1075 516 
Q 1375 441 1709 441 
Q 2250 441 2565 725 
Q 2881 1009 2881 1497 
Q 2881 1984 2565 2268 
Q 2250 2553 1709 2553 
Q 1456 2553 1204 2497 
Q 953 2441 691 2322 
L 691 4666 
z
" transform="scale(0.015625)"/>
     </defs>
     <use xlink:href="#DejaVuSans-50"/>
     <use xlink:href="#DejaVuSans-30" x="60.302734"/>
     <use xlink:href="#DejaVuSans-43" x="123.925781"/>
     <use xlink:href="#DejaVuSans-35" x="193.75"/>
     <use xlink:href="#DejaVuSans-49" x="257.373047"/>
     <use xlink:href="#DejaVuSans-31" x="286.865234"/>
     <use xlink:href="#DejaVuSans-20" x="350.488281"/>
     <use xlink:href="#DejaVuSans-5b" x="382.275391"/>
     <use xlink:href="#DejaVuSans-33" x="421.289062"/>
     <use xlink:href="#DejaVuSans-35" x="484.912109"/>
     <use xlink:href="#DejaVuSans-38" x="548.535156"/>
     <use xlink:href="#DejaVuSans-5d" x="612.158203"/>
    </g>
   </g>
  </g>
 </g>
</svg>
