<?xml version="1.0" encoding="utf-8" standalone="no"?>
<!DOCTYPE svg PUBLIC "-//W3C//DTD SVG 1.1//EN"
  "http://www.w3.org/Graphics/SVG/1.1/DTD/svg11.dtd">
<svg xmlns:xlink="http://www.w3.org/1999/xlink" width="354.333209pt" height="304.862731pt" viewBox="0 0 354.333209 304.862731" xmlns="http://www.w3.org/2000/svg" version="1.1">
 <metadata>
  <rdf:RDF xmlns:dc="http://purl.org/dc/elements/1.1/" xmlns:cc="http://creativecommons.org/ns#" xmlns:rdf="http://www.w3.org/1999/02/22-rdf-syntax-ns#">
   <cc:Work>
    <dc:type rdf:resource="http://purl.org/dc/dcmitype/StillImage"/>
    <dc:date>2024-09-27T16:07:10.871788</dc:date>
    <dc:format>image/svg+xml</dc:format>
    <dc:creator>
     <cc:Agent>
      <dc:title>Matplotlib v3.8.3, https://matplotlib.org/</dc:title>
     </cc:Agent>
    </dc:creator>
   </cc:Work>
  </rdf:RDF>
 </metadata>
 <defs>
  <style type="text/css">*{stroke-linejoin: round; stroke-linecap: butt}</style>
 </defs>
 <g id="figure_1">
  <g id="patch_1">
   <path d="M -0 304.862731 
L 354.333209 304.862731 
L 354.333209 0 
L -0 0 
z
" style="fill: #ffffff"/>
  </g>
  <g id="axes_1">
   <g id="patch_2">
    <path d="M 305.581524 152.388748 
C 305.581524 144.230798 304.79999 136.091576 303.247639 128.082684 
C 301.695288 120.073792 299.379247 112.232002 296.331272 104.664836 
L 177.847764 152.388748 
z
" style="fill: #1f77b4"/>
   </g>
   <g id="patch_3">
    <path d="M 296.27237 104.504693 
C 294.195053 99.347366 291.78322 94.331168 289.052264 89.488117 
C 286.321308 84.645065 283.277053 79.985485 279.938928 75.539117 
L 177.788862 152.228604 
z
" style="fill: #ff7f0e"/>
   </g>
   <g id="patch_4">
    <path d="M 279.877696 75.452162 
C 278.097815 73.081367 276.235937 70.773255 274.295446 68.532019 
C 272.354956 66.290783 270.337028 64.117781 268.24533 62.016961 
L 177.72763 152.141649 
z
" style="fill: #aec7e8"/>
   </g>
   <g id="patch_5">
    <path d="M 268.178922 61.952546 
C 265.040979 58.800919 261.740577 55.815326 258.291204 53.007968 
C 254.84183 50.200609 251.24819 47.575315 247.524969 45.142813 
L 177.661223 152.077234 
z
" style="fill: #ffbb78"/>
   </g>
   <g id="patch_6">
    <path d="M 247.390007 45.062791 
C 240.560445 40.600815 233.319103 36.803356 225.765272 33.722484 
C 218.21144 30.641611 210.379802 28.29147 202.37774 26.704285 
L 177.52626 151.997212 
z
" style="fill: #98df8a"/>
   </g>
   <g id="patch_7">
    <path d="M 202.225309 26.667093 
C 197.862886 25.801819 193.458247 25.164971 189.029393 24.759149 
C 184.600539 24.353328 180.153511 24.179089 175.706481 24.237142 
L 177.373829 151.960019 
z
" style="fill: #2ca02c"/>
   </g>
   <g id="patch_8">
    <path d="M 175.604741 24.237585 
C 171.899141 24.285959 168.1974 24.495576 164.510027 24.865839 
C 160.822654 25.236102 157.15314 25.766662 153.511903 26.456012 
L 177.272089 151.960462 
z
" style="fill: #d62728"/>
   </g>
   <g id="patch_9">
    <path d="M 153.301645 26.523117 
C 139.43568 29.148187 126.100118 34.053107 113.837808 41.038215 
C 101.575499 48.023322 90.555119 56.99253 81.225276 67.580731 
L 177.061831 152.027567 
z
" style="fill: #9467bd"/>
   </g>
   <g id="patch_10">
    <path d="M 81.032094 67.769755 
C 75.884243 73.611919 71.281363 79.912582 67.280972 86.59301 
C 63.28058 93.273438 59.89941 100.305688 57.179713 107.601886 
L 176.868649 152.216591 
z
" style="fill: #ff9896"/>
   </g>
   <g id="patch_11">
    <path d="M 57.104829 107.84754 
C 52.566413 120.022858 49.912247 132.819708 49.234092 145.795674 
C 48.555938 158.771641 49.8617 171.775445 53.106236 184.357519 
L 176.793766 152.462246 
z
" style="fill: #c5b0d5"/>
   </g>
   <g id="patch_12">
    <path d="M 53.144054 184.584146 
C 54.532385 189.967993 56.270757 195.255454 58.348074 200.412781 
C 60.425391 205.570108 62.837224 210.586306 65.568179 215.429358 
L 176.831583 152.688873 
z
" style="fill: #c49c94"/>
   </g>
   <g id="patch_13">
    <path d="M 65.650538 215.568259 
C 69.292816 222.027442 73.490649 228.157206 78.196448 233.888059 
C 82.902246 239.618913 88.09816 244.929119 93.725286 249.758476 
L 176.913941 152.827774 
z
" style="fill: #8c564b"/>
   </g>
   <g id="patch_14">
    <path d="M 93.84551 249.866285 
C 98.06469 253.487305 102.515796 256.828987 107.170416 259.870002 
C 111.825037 262.911018 116.673249 265.644884 121.684107 268.05415 
L 177.034165 152.935583 
z
" style="fill: #e377c2"/>
   </g>
   <g id="patch_15">
    <path d="M 121.795837 268.109678 
C 125.804012 270.036845 129.910103 271.753364 134.09733 273.25222 
C 138.284557 274.751077 142.547208 276.030225 146.867864 277.08444 
L 177.145895 152.991111 
z
" style="fill: #7f7f7f"/>
   </g>
   <g id="patch_16">
    <path d="M 146.994058 277.112913 
C 152.75595 278.51878 158.608769 279.521638 164.510017 280.114206 
C 170.411265 280.706773 176.346625 280.887613 182.273002 280.655411 
L 177.272089 153.019584 
z
" style="fill: #f7b6d2"/>
   </g>
   <g id="patch_17">
    <path d="M 182.456831 280.641788 
C 191.350877 280.293309 200.184189 279.016138 208.812695 276.831104 
C 217.441201 274.64607 225.817734 271.565118 233.805672 267.638498 
L 177.455918 153.005961 
z
" style="fill: #c7c7c7"/>
   </g>
   <g id="patch_18">
    <path d="M 233.996407 267.546791 
C 241.317623 263.947911 248.277259 259.655919 254.779886 254.729664 
C 261.282513 249.803409 267.298275 244.265511 272.744688 238.191901 
L 177.646653 152.914254 
z
" style="fill: #dbdb8d"/>
   </g>
   <g id="patch_19">
    <path d="M 272.886897 238.029089 
C 279.077376 231.125728 284.497798 223.568775 289.05226 215.491937 
C 293.606721 207.415099 297.2682 198.866293 299.971915 189.996775 
L 177.788862 152.751442 
z
" style="fill: #bcbd22"/>
   </g>
   <g id="patch_20">
    <path d="M 300.021292 189.877203 
C 300.345423 188.813893 300.65566 187.746397 300.951923 186.674989 
C 301.248187 185.60358 301.530451 184.52835 301.798645 183.449572 
L 177.838238 152.631869 
z
" style="fill: #17becf"/>
   </g>
   <g id="patch_21">
    <path d="M 301.813951 183.372409 
C 303.065892 178.33663 304.00981 173.229238 304.640455 168.078635 
C 305.271101 162.928032 305.587303 157.743782 305.587303 152.554713 
L 177.853543 152.554706 
z
" style="fill: #9edae5"/>
   </g>
   <g id="patch_22">
    <path d="M 251.836624 152.490023 
C 251.836624 147.731219 251.38073 142.98334 250.475192 138.311486 
C 249.569653 133.639632 248.218629 129.065255 246.440644 124.651075 
L 177.325264 152.490023 
z
" style="fill: #ffffff"/>
   </g>
   <g id="patch_23">
    <path d="M 246.440644 124.651075 
C 245.228876 121.642634 243.821973 118.716519 242.228916 115.891405 
C 240.635858 113.066292 238.860042 110.348203 236.912803 107.754488 
L 177.325264 152.490023 
z
" style="fill: #ffffff"/>
   </g>
   <g id="patch_24">
    <path d="M 236.912803 107.754488 
C 235.874539 106.371525 234.788443 105.025126 233.65649 103.717738 
C 232.524538 102.410351 231.347413 101.142766 230.127256 99.917288 
L 177.325264 152.490023 
z
" style="fill: #ffffff"/>
   </g>
   <g id="patch_25">
    <path d="M 230.127256 99.917288 
C 228.296789 98.078839 226.371555 96.337243 224.35942 94.699617 
C 222.347285 93.061992 220.250995 91.53057 218.079116 90.111611 
L 177.325264 152.490023 
z
" style="fill: #ffffff"/>
   </g>
   <g id="patch_26">
    <path d="M 218.079116 90.111611 
C 214.095205 87.508792 209.871089 85.293607 205.464688 83.496432 
C 201.058286 81.699256 196.48983 80.328341 191.821961 79.402483 
L 177.325264 152.490023 
z
" style="fill: #ffffff"/>
   </g>
   <g id="patch_27">
    <path d="M 191.821961 79.402483 
C 189.277214 78.89774 186.707841 78.526244 184.124343 78.289516 
C 181.540845 78.052787 178.946745 77.951147 176.352645 77.985011 
L 177.325264 152.490023 
z
" style="fill: #ffffff"/>
   </g>
   <g id="patch_28">
    <path d="M 176.352645 77.985011 
C 174.191044 78.01323 172.031696 78.135506 169.880728 78.351493 
C 167.72976 78.56748 165.589211 78.876973 163.465156 79.279094 
L 177.325264 152.490023 
z
" style="fill: #ffffff"/>
   </g>
   <g id="patch_29">
    <path d="M 163.465156 79.279094 
C 155.376676 80.810384 147.597598 83.671588 140.444585 87.746234 
C 133.291571 91.82088 126.863016 97.052918 121.420607 103.229368 
L 177.325264 152.490023 
z
" style="fill: #ffffff"/>
   </g>
   <g id="patch_30">
    <path d="M 121.420607 103.229368 
C 118.417694 106.637297 115.732681 110.312684 113.399119 114.2096 
C 111.065558 118.106517 109.093208 122.208663 107.506718 126.464778 
L 177.325264 152.490023 
z
" style="fill: #ffffff"/>
   </g>
   <g id="patch_31">
    <path d="M 107.506718 126.464778 
C 104.859309 133.567047 103.311045 141.031876 102.915455 148.60119 
C 102.519865 156.170503 103.281559 163.756056 105.174205 171.095599 
L 177.325264 152.490023 
z
" style="fill: #ffffff"/>
   </g>
   <g id="patch_32">
    <path d="M 105.174205 171.095599 
C 105.984065 174.236177 106.998116 177.320529 108.209884 180.328969 
C 109.421652 183.33741 110.828555 186.263526 112.421612 189.088639 
L 177.325264 152.490023 
z
" style="fill: #ffffff"/>
   </g>
   <g id="patch_33">
    <path d="M 112.421612 189.088639 
C 114.546274 192.856496 116.99501 196.432191 119.74006 199.775189 
C 122.485109 203.118187 125.516059 206.215807 128.798548 209.032932 
L 177.325264 152.490023 
z
" style="fill: #ffffff"/>
   </g>
   <g id="patch_34">
    <path d="M 128.798548 209.032932 
C 131.259737 211.145194 133.856215 213.094508 136.571411 214.868434 
C 139.286606 216.64236 142.11473 218.237115 145.03773 219.64252 
L 177.325264 152.490023 
z
" style="fill: #ffffff"/>
   </g>
   <g id="patch_35">
    <path d="M 145.03773 219.64252 
C 147.375832 220.766701 149.771052 221.768004 152.213601 222.642337 
C 154.65615 223.51667 157.142697 224.26284 159.66308 224.877798 
L 177.325264 152.490023 
z
" style="fill: #ffffff"/>
   </g>
   <g id="patch_36">
    <path d="M 159.66308 224.877798 
C 163.024183 225.697887 166.438327 226.282888 169.880722 226.628552 
C 173.323117 226.974217 176.78541 227.079706 180.242464 226.944255 
L 177.325264 152.490023 
z
" style="fill: #ffffff"/>
   </g>
   <g id="patch_37">
    <path d="M 180.242464 226.944255 
C 185.430657 226.740976 190.583423 225.995959 195.616718 224.721356 
C 200.650013 223.446753 205.536324 221.649531 210.195954 219.359003 
L 177.325264 152.490023 
z
" style="fill: #ffffff"/>
   </g>
   <g id="patch_38">
    <path d="M 210.195954 219.359003 
C 214.466664 217.259656 218.526451 214.755994 222.31965 211.882346 
C 226.112849 209.008697 229.622044 205.778256 232.799118 202.235317 
L 177.325264 152.490023 
z
" style="fill: #ffffff"/>
   </g>
   <g id="patch_39">
    <path d="M 232.799118 202.235317 
C 236.410231 198.208356 239.572144 193.800134 242.228913 189.088645 
C 244.885682 184.377156 247.021545 179.390353 248.598712 174.216468 
L 177.325264 152.490023 
z
" style="fill: #ffffff"/>
   </g>
   <g id="patch_40">
    <path d="M 248.598712 174.216468 
C 248.787789 173.596204 248.96876 172.973498 249.141581 172.348509 
C 249.314401 171.723521 249.479056 171.096303 249.635502 170.467016 
L 177.325264 152.490023 
z
" style="fill: #ffffff"/>
   </g>
   <g id="patch_41">
    <path d="M 249.635502 170.467016 
C 250.365801 167.529479 250.91642 164.550167 251.284296 161.545648 
C 251.652173 158.54113 251.836624 155.516984 251.836624 152.490027 
L 177.325264 152.490023 
z
" style="fill: #ffffff"/>
   </g>
   <g id="matplotlib.axis_1"/>
   <g id="matplotlib.axis_2"/>
   <g id="text_1">
    <!-- A [22] -->
    <g transform="translate(315.787627 128.411453) scale(0.1 -0.1)">
     <defs>
      <path id="DejaVuSans-41" d="M 2188 4044 
L 1331 1722 
L 3047 1722 
L 2188 4044 
z
M 1831 4666 
L 2547 4666 
L 4325 0 
L 3669 0 
L 3244 1197 
L 1141 1197 
L 716 0 
L 50 0 
L 1831 4666 
z
" transform="scale(0.015625)"/>
      <path id="DejaVuSans-20" transform="scale(0.015625)"/>
      <path id="DejaVuSans-5b" d="M 550 4863 
L 1875 4863 
L 1875 4416 
L 1125 4416 
L 1125 -397 
L 1875 -397 
L 1875 -844 
L 550 -844 
L 550 4863 
z
" transform="scale(0.015625)"/>
      <path id="DejaVuSans-32" d="M 1228 531 
L 3431 531 
L 3431 0 
L 469 0 
L 469 531 
Q 828 903 1448 1529 
Q 2069 2156 2228 2338 
Q 2531 2678 2651 2914 
Q 2772 3150 2772 3378 
Q 2772 3750 2511 3984 
Q 2250 4219 1831 4219 
Q 1534 4219 1204 4116 
Q 875 4013 500 3803 
L 500 4441 
Q 881 4594 1212 4672 
Q 1544 4750 1819 4750 
Q 2544 4750 2975 4387 
Q 3406 4025 3406 3419 
Q 3406 3131 3298 2873 
Q 3191 2616 2906 2266 
Q 2828 2175 2409 1742 
Q 1991 1309 1228 531 
z
" transform="scale(0.015625)"/>
      <path id="DejaVuSans-5d" d="M 1947 4863 
L 1947 -844 
L 622 -844 
L 622 -397 
L 1369 -397 
L 1369 4416 
L 622 4416 
L 622 4863 
L 1947 4863 
z
" transform="scale(0.015625)"/>
     </defs>
     <use xlink:href="#DejaVuSans-41"/>
     <use xlink:href="#DejaVuSans-20" x="68.408203"/>
     <use xlink:href="#DejaVuSans-5b" x="100.195312"/>
     <use xlink:href="#DejaVuSans-32" x="139.208984"/>
     <use xlink:href="#DejaVuSans-32" x="202.832031"/>
     <use xlink:href="#DejaVuSans-5d" x="266.455078"/>
    </g>
   </g>
   <g id="text_2">
    <!-- C [15] -->
    <g transform="translate(300.178604 85.973443) scale(0.1 -0.1)">
     <defs>
      <path id="DejaVuSans-43" d="M 4122 4306 
L 4122 3641 
Q 3803 3938 3442 4084 
Q 3081 4231 2675 4231 
Q 1875 4231 1450 3742 
Q 1025 3253 1025 2328 
Q 1025 1406 1450 917 
Q 1875 428 2675 428 
Q 3081 428 3442 575 
Q 3803 722 4122 1019 
L 4122 359 
Q 3791 134 3420 21 
Q 3050 -91 2638 -91 
Q 1578 -91 968 557 
Q 359 1206 359 2328 
Q 359 3453 968 4101 
Q 1578 4750 2638 4750 
Q 3056 4750 3426 4639 
Q 3797 4528 4122 4306 
z
" transform="scale(0.015625)"/>
      <path id="DejaVuSans-31" d="M 794 531 
L 1825 531 
L 1825 4091 
L 703 3866 
L 703 4441 
L 1819 4666 
L 2450 4666 
L 2450 531 
L 3481 531 
L 3481 0 
L 794 0 
L 794 531 
z
" transform="scale(0.015625)"/>
      <path id="DejaVuSans-35" d="M 691 4666 
L 3169 4666 
L 3169 4134 
L 1269 4134 
L 1269 2991 
Q 1406 3038 1543 3061 
Q 1681 3084 1819 3084 
Q 2600 3084 3056 2656 
Q 3513 2228 3513 1497 
Q 3513 744 3044 326 
Q 2575 -91 1722 -91 
Q 1428 -91 1123 -41 
Q 819 9 494 109 
L 494 744 
Q 775 591 1075 516 
Q 1375 441 1709 441 
Q 2250 441 2565 725 
Q 2881 1009 2881 1497 
Q 2881 1984 2565 2268 
Q 2250 2553 1709 2553 
Q 1456 2553 1204 2497 
Q 953 2441 691 2322 
L 691 4666 
z
" transform="scale(0.015625)"/>
     </defs>
     <use xlink:href="#DejaVuSans-43"/>
     <use xlink:href="#DejaVuSans-20" x="69.824219"/>
     <use xlink:href="#DejaVuSans-5b" x="101.611328"/>
     <use xlink:href="#DejaVuSans-31" x="140.625"/>
     <use xlink:href="#DejaVuSans-35" x="204.248047"/>
     <use xlink:href="#DejaVuSans-5d" x="267.871094"/>
    </g>
   </g>
   <g id="text_3">
    <!-- D [8] -->
    <g transform="translate(283.952228 62.930431) scale(0.1 -0.1)">
     <defs>
      <path id="DejaVuSans-44" d="M 1259 4147 
L 1259 519 
L 2022 519 
Q 2988 519 3436 956 
Q 3884 1394 3884 2338 
Q 3884 3275 3436 3711 
Q 2988 4147 2022 4147 
L 1259 4147 
z
M 628 4666 
L 1925 4666 
Q 3281 4666 3915 4102 
Q 4550 3538 4550 2338 
Q 4550 1131 3912 565 
Q 3275 0 1925 0 
L 628 0 
L 628 4666 
z
" transform="scale(0.015625)"/>
      <path id="DejaVuSans-38" d="M 2034 2216 
Q 1584 2216 1326 1975 
Q 1069 1734 1069 1313 
Q 1069 891 1326 650 
Q 1584 409 2034 409 
Q 2484 409 2743 651 
Q 3003 894 3003 1313 
Q 3003 1734 2745 1975 
Q 2488 2216 2034 2216 
z
M 1403 2484 
Q 997 2584 770 2862 
Q 544 3141 544 3541 
Q 544 4100 942 4425 
Q 1341 4750 2034 4750 
Q 2731 4750 3128 4425 
Q 3525 4100 3525 3541 
Q 3525 3141 3298 2862 
Q 3072 2584 2669 2484 
Q 3125 2378 3379 2068 
Q 3634 1759 3634 1313 
Q 3634 634 3220 271 
Q 2806 -91 2034 -91 
Q 1263 -91 848 271 
Q 434 634 434 1313 
Q 434 1759 690 2068 
Q 947 2378 1403 2484 
z
M 1172 3481 
Q 1172 3119 1398 2916 
Q 1625 2713 2034 2713 
Q 2441 2713 2670 2916 
Q 2900 3119 2900 3481 
Q 2900 3844 2670 4047 
Q 2441 4250 2034 4250 
Q 1625 4250 1398 4047 
Q 1172 3844 1172 3481 
z
" transform="scale(0.015625)"/>
     </defs>
     <use xlink:href="#DejaVuSans-44"/>
     <use xlink:href="#DejaVuSans-20" x="77.001953"/>
     <use xlink:href="#DejaVuSans-5b" x="108.789062"/>
     <use xlink:href="#DejaVuSans-38" x="147.802734"/>
     <use xlink:href="#DejaVuSans-5d" x="211.425781"/>
    </g>
   </g>
   <g id="text_4">
    <!-- E [12] -->
    <g transform="translate(266.354202 45.860416) scale(0.1 -0.1)">
     <defs>
      <path id="DejaVuSans-45" d="M 628 4666 
L 3578 4666 
L 3578 4134 
L 1259 4134 
L 1259 2753 
L 3481 2753 
L 3481 2222 
L 1259 2222 
L 1259 531 
L 3634 531 
L 3634 0 
L 628 0 
L 628 4666 
z
" transform="scale(0.015625)"/>
     </defs>
     <use xlink:href="#DejaVuSans-45"/>
     <use xlink:href="#DejaVuSans-20" x="63.183594"/>
     <use xlink:href="#DejaVuSans-5b" x="94.970703"/>
     <use xlink:href="#DejaVuSans-31" x="133.984375"/>
     <use xlink:href="#DejaVuSans-32" x="197.607422"/>
     <use xlink:href="#DejaVuSans-5d" x="261.230469"/>
    </g>
   </g>
   <g id="text_5">
    <!-- F [22] -->
    <g transform="translate(230.589173 24.654386) scale(0.1 -0.1)">
     <defs>
      <path id="DejaVuSans-46" d="M 628 4666 
L 3309 4666 
L 3309 4134 
L 1259 4134 
L 1259 2759 
L 3109 2759 
L 3109 2228 
L 1259 2228 
L 1259 0 
L 628 0 
L 628 4666 
z
" transform="scale(0.015625)"/>
     </defs>
     <use xlink:href="#DejaVuSans-46"/>
     <use xlink:href="#DejaVuSans-20" x="57.519531"/>
     <use xlink:href="#DejaVuSans-5b" x="89.306641"/>
     <use xlink:href="#DejaVuSans-32" x="128.320312"/>
     <use xlink:href="#DejaVuSans-32" x="191.943359"/>
     <use xlink:href="#DejaVuSans-5d" x="255.566406"/>
    </g>
   </g>
   <g id="text_6">
    <!-- G [12] -->
    <g transform="translate(190.194949 14.798437) scale(0.1 -0.1)">
     <defs>
      <path id="DejaVuSans-47" d="M 3809 666 
L 3809 1919 
L 2778 1919 
L 2778 2438 
L 4434 2438 
L 4434 434 
Q 4069 175 3628 42 
Q 3188 -91 2688 -91 
Q 1594 -91 976 548 
Q 359 1188 359 2328 
Q 359 3472 976 4111 
Q 1594 4750 2688 4750 
Q 3144 4750 3555 4637 
Q 3966 4525 4313 4306 
L 4313 3634 
Q 3963 3931 3569 4081 
Q 3175 4231 2741 4231 
Q 1884 4231 1454 3753 
Q 1025 3275 1025 2328 
Q 1025 1384 1454 906 
Q 1884 428 2741 428 
Q 3075 428 3337 486 
Q 3600 544 3809 666 
z
" transform="scale(0.015625)"/>
     </defs>
     <use xlink:href="#DejaVuSans-47"/>
     <use xlink:href="#DejaVuSans-20" x="77.490234"/>
     <use xlink:href="#DejaVuSans-5b" x="109.277344"/>
     <use xlink:href="#DejaVuSans-31" x="148.291016"/>
     <use xlink:href="#DejaVuSans-32" x="211.914062"/>
     <use xlink:href="#DejaVuSans-5d" x="275.537109"/>
    </g>
   </g>
   <g id="text_7">
    <!-- H [10] -->
    <g transform="translate(132.007258 14.915752) scale(0.1 -0.1)">
     <defs>
      <path id="DejaVuSans-48" d="M 628 4666 
L 1259 4666 
L 1259 2753 
L 3553 2753 
L 3553 4666 
L 4184 4666 
L 4184 0 
L 3553 0 
L 3553 2222 
L 1259 2222 
L 1259 0 
L 628 0 
L 628 4666 
z
" transform="scale(0.015625)"/>
      <path id="DejaVuSans-30" d="M 2034 4250 
Q 1547 4250 1301 3770 
Q 1056 3291 1056 2328 
Q 1056 1369 1301 889 
Q 1547 409 2034 409 
Q 2525 409 2770 889 
Q 3016 1369 3016 2328 
Q 3016 3291 2770 3770 
Q 2525 4250 2034 4250 
z
M 2034 4750 
Q 2819 4750 3233 4129 
Q 3647 3509 3647 2328 
Q 3647 1150 3233 529 
Q 2819 -91 2034 -91 
Q 1250 -91 836 529 
Q 422 1150 422 2328 
Q 422 3509 836 4129 
Q 1250 4750 2034 4750 
z
" transform="scale(0.015625)"/>
     </defs>
     <use xlink:href="#DejaVuSans-48"/>
     <use xlink:href="#DejaVuSans-20" x="75.195312"/>
     <use xlink:href="#DejaVuSans-5b" x="106.982422"/>
     <use xlink:href="#DejaVuSans-31" x="145.996094"/>
     <use xlink:href="#DejaVuSans-30" x="209.619141"/>
     <use xlink:href="#DejaVuSans-5d" x="273.242188"/>
    </g>
   </g>
   <g id="text_8">
    <!-- I [38] -->
    <g transform="translate(80.859156 32.698654) scale(0.1 -0.1)">
     <defs>
      <path id="DejaVuSans-49" d="M 628 4666 
L 1259 4666 
L 1259 0 
L 628 0 
L 628 4666 
z
" transform="scale(0.015625)"/>
      <path id="DejaVuSans-33" d="M 2597 2516 
Q 3050 2419 3304 2112 
Q 3559 1806 3559 1356 
Q 3559 666 3084 287 
Q 2609 -91 1734 -91 
Q 1441 -91 1130 -33 
Q 819 25 488 141 
L 488 750 
Q 750 597 1062 519 
Q 1375 441 1716 441 
Q 2309 441 2620 675 
Q 2931 909 2931 1356 
Q 2931 1769 2642 2001 
Q 2353 2234 1838 2234 
L 1294 2234 
L 1294 2753 
L 1863 2753 
Q 2328 2753 2575 2939 
Q 2822 3125 2822 3475 
Q 2822 3834 2567 4026 
Q 2313 4219 1838 4219 
Q 1578 4219 1281 4162 
Q 984 4106 628 3988 
L 628 4550 
Q 988 4650 1302 4700 
Q 1616 4750 1894 4750 
Q 2613 4750 3031 4423 
Q 3450 4097 3450 3541 
Q 3450 3153 3228 2886 
Q 3006 2619 2597 2516 
z
" transform="scale(0.015625)"/>
     </defs>
     <use xlink:href="#DejaVuSans-49"/>
     <use xlink:href="#DejaVuSans-20" x="29.492188"/>
     <use xlink:href="#DejaVuSans-5b" x="61.279297"/>
     <use xlink:href="#DejaVuSans-33" x="100.292969"/>
     <use xlink:href="#DejaVuSans-38" x="163.916016"/>
     <use xlink:href="#DejaVuSans-5d" x="227.539062"/>
    </g>
   </g>
   <g id="text_9">
    <!-- K [21] -->
    <g transform="translate(26.058142 82.790027) scale(0.1 -0.1)">
     <defs>
      <path id="DejaVuSans-4b" d="M 628 4666 
L 1259 4666 
L 1259 2694 
L 3353 4666 
L 4166 4666 
L 1850 2491 
L 4331 0 
L 3500 0 
L 1259 2247 
L 1259 0 
L 628 0 
L 628 4666 
z
" transform="scale(0.015625)"/>
     </defs>
     <use xlink:href="#DejaVuSans-4b"/>
     <use xlink:href="#DejaVuSans-20" x="65.576172"/>
     <use xlink:href="#DejaVuSans-5b" x="97.363281"/>
     <use xlink:href="#DejaVuSans-32" x="136.376953"/>
     <use xlink:href="#DejaVuSans-31" x="200"/>
     <use xlink:href="#DejaVuSans-5d" x="263.623047"/>
    </g>
   </g>
   <g id="text_10">
    <!-- L [35] -->
    <g transform="translate(7.2 147.888392) scale(0.1 -0.1)">
     <defs>
      <path id="DejaVuSans-4c" d="M 628 4666 
L 1259 4666 
L 1259 531 
L 3531 531 
L 3531 0 
L 628 0 
L 628 4666 
z
" transform="scale(0.015625)"/>
     </defs>
     <use xlink:href="#DejaVuSans-4c"/>
     <use xlink:href="#DejaVuSans-20" x="55.712891"/>
     <use xlink:href="#DejaVuSans-5b" x="87.5"/>
     <use xlink:href="#DejaVuSans-33" x="126.513672"/>
     <use xlink:href="#DejaVuSans-35" x="190.136719"/>
     <use xlink:href="#DejaVuSans-5d" x="253.759766"/>
    </g>
   </g>
   <g id="text_11">
    <!-- M [15] -->
    <g transform="translate(14.165348 207.944547) scale(0.1 -0.1)">
     <defs>
      <path id="DejaVuSans-4d" d="M 628 4666 
L 1569 4666 
L 2759 1491 
L 3956 4666 
L 4897 4666 
L 4897 0 
L 4281 0 
L 4281 4097 
L 3078 897 
L 2444 897 
L 1241 4097 
L 1241 0 
L 628 0 
L 628 4666 
z
" transform="scale(0.015625)"/>
     </defs>
     <use xlink:href="#DejaVuSans-4d"/>
     <use xlink:href="#DejaVuSans-20" x="86.279297"/>
     <use xlink:href="#DejaVuSans-5b" x="118.066406"/>
     <use xlink:href="#DejaVuSans-31" x="157.080078"/>
     <use xlink:href="#DejaVuSans-35" x="220.703125"/>
     <use xlink:href="#DejaVuSans-5d" x="284.326172"/>
    </g>
   </g>
   <g id="text_12">
    <!-- N [20] -->
    <g transform="translate(37.137198 244.753463) scale(0.1 -0.1)">
     <defs>
      <path id="DejaVuSans-4e" d="M 628 4666 
L 1478 4666 
L 3547 763 
L 3547 4666 
L 4159 4666 
L 4159 0 
L 3309 0 
L 1241 3903 
L 1241 0 
L 628 0 
L 628 4666 
z
" transform="scale(0.015625)"/>
     </defs>
     <use xlink:href="#DejaVuSans-4e"/>
     <use xlink:href="#DejaVuSans-20" x="74.804688"/>
     <use xlink:href="#DejaVuSans-5b" x="106.591797"/>
     <use xlink:href="#DejaVuSans-32" x="145.605469"/>
     <use xlink:href="#DejaVuSans-30" x="209.228516"/>
     <use xlink:href="#DejaVuSans-5d" x="272.851562"/>
    </g>
   </g>
   <g id="text_13">
    <!-- P [15] -->
    <g transform="translate(70.448104 273.322819) scale(0.1 -0.1)">
     <defs>
      <path id="DejaVuSans-50" d="M 1259 4147 
L 1259 2394 
L 2053 2394 
Q 2494 2394 2734 2622 
Q 2975 2850 2975 3272 
Q 2975 3691 2734 3919 
Q 2494 4147 2053 4147 
L 1259 4147 
z
M 628 4666 
L 2053 4666 
Q 2838 4666 3239 4311 
Q 3641 3956 3641 3272 
Q 3641 2581 3239 2228 
Q 2838 1875 2053 1875 
L 1259 1875 
L 1259 0 
L 628 0 
L 628 4666 
z
" transform="scale(0.015625)"/>
     </defs>
     <use xlink:href="#DejaVuSans-50"/>
     <use xlink:href="#DejaVuSans-20" x="60.302734"/>
     <use xlink:href="#DejaVuSans-5b" x="92.089844"/>
     <use xlink:href="#DejaVuSans-31" x="131.103516"/>
     <use xlink:href="#DejaVuSans-35" x="194.726562"/>
     <use xlink:href="#DejaVuSans-5d" x="258.349609"/>
    </g>
   </g>
   <g id="text_14">
    <!-- Q [12] -->
    <g transform="translate(98.214348 288.037706) scale(0.1 -0.1)">
     <defs>
      <path id="DejaVuSans-51" d="M 2522 4238 
Q 1834 4238 1429 3725 
Q 1025 3213 1025 2328 
Q 1025 1447 1429 934 
Q 1834 422 2522 422 
Q 3209 422 3611 934 
Q 4013 1447 4013 2328 
Q 4013 3213 3611 3725 
Q 3209 4238 2522 4238 
z
M 3406 84 
L 4238 -825 
L 3475 -825 
L 2784 -78 
Q 2681 -84 2626 -87 
Q 2572 -91 2522 -91 
Q 1538 -91 948 567 
Q 359 1225 359 2328 
Q 359 3434 948 4092 
Q 1538 4750 2522 4750 
Q 3503 4750 4090 4092 
Q 4678 3434 4678 2328 
Q 4678 1516 4351 937 
Q 4025 359 3406 84 
z
" transform="scale(0.015625)"/>
     </defs>
     <use xlink:href="#DejaVuSans-51"/>
     <use xlink:href="#DejaVuSans-20" x="78.710938"/>
     <use xlink:href="#DejaVuSans-5b" x="110.498047"/>
     <use xlink:href="#DejaVuSans-31" x="149.511719"/>
     <use xlink:href="#DejaVuSans-32" x="213.134766"/>
     <use xlink:href="#DejaVuSans-5d" x="276.757812"/>
    </g>
   </g>
   <g id="text_15">
    <!-- R [16] -->
    <g transform="translate(132.579122 295.583043) scale(0.1 -0.1)">
     <defs>
      <path id="DejaVuSans-52" d="M 2841 2188 
Q 3044 2119 3236 1894 
Q 3428 1669 3622 1275 
L 4263 0 
L 3584 0 
L 2988 1197 
Q 2756 1666 2539 1819 
Q 2322 1972 1947 1972 
L 1259 1972 
L 1259 0 
L 628 0 
L 628 4666 
L 2053 4666 
Q 2853 4666 3247 4331 
Q 3641 3997 3641 3322 
Q 3641 2881 3436 2590 
Q 3231 2300 2841 2188 
z
M 1259 4147 
L 1259 2491 
L 2053 2491 
Q 2509 2491 2742 2702 
Q 2975 2913 2975 3322 
Q 2975 3731 2742 3939 
Q 2509 4147 2053 4147 
L 1259 4147 
z
" transform="scale(0.015625)"/>
      <path id="DejaVuSans-36" d="M 2113 2584 
Q 1688 2584 1439 2293 
Q 1191 2003 1191 1497 
Q 1191 994 1439 701 
Q 1688 409 2113 409 
Q 2538 409 2786 701 
Q 3034 994 3034 1497 
Q 3034 2003 2786 2293 
Q 2538 2584 2113 2584 
z
M 3366 4563 
L 3366 3988 
Q 3128 4100 2886 4159 
Q 2644 4219 2406 4219 
Q 1781 4219 1451 3797 
Q 1122 3375 1075 2522 
Q 1259 2794 1537 2939 
Q 1816 3084 2150 3084 
Q 2853 3084 3261 2657 
Q 3669 2231 3669 1497 
Q 3669 778 3244 343 
Q 2819 -91 2113 -91 
Q 1303 -91 875 529 
Q 447 1150 447 2328 
Q 447 3434 972 4092 
Q 1497 4750 2381 4750 
Q 2619 4750 2861 4703 
Q 3103 4656 3366 4563 
z
" transform="scale(0.015625)"/>
     </defs>
     <use xlink:href="#DejaVuSans-52"/>
     <use xlink:href="#DejaVuSans-20" x="69.482422"/>
     <use xlink:href="#DejaVuSans-5b" x="101.269531"/>
     <use xlink:href="#DejaVuSans-31" x="140.283203"/>
     <use xlink:href="#DejaVuSans-36" x="203.90625"/>
     <use xlink:href="#DejaVuSans-5d" x="267.529297"/>
    </g>
   </g>
   <g id="text_16">
    <!-- S [24] -->
    <g transform="translate(211.948373 291.972993) scale(0.1 -0.1)">
     <defs>
      <path id="DejaVuSans-53" d="M 3425 4513 
L 3425 3897 
Q 3066 4069 2747 4153 
Q 2428 4238 2131 4238 
Q 1616 4238 1336 4038 
Q 1056 3838 1056 3469 
Q 1056 3159 1242 3001 
Q 1428 2844 1947 2747 
L 2328 2669 
Q 3034 2534 3370 2195 
Q 3706 1856 3706 1288 
Q 3706 609 3251 259 
Q 2797 -91 1919 -91 
Q 1588 -91 1214 -16 
Q 841 59 441 206 
L 441 856 
Q 825 641 1194 531 
Q 1563 422 1919 422 
Q 2459 422 2753 634 
Q 3047 847 3047 1241 
Q 3047 1584 2836 1778 
Q 2625 1972 2144 2069 
L 1759 2144 
Q 1053 2284 737 2584 
Q 422 2884 422 3419 
Q 422 4038 858 4394 
Q 1294 4750 2059 4750 
Q 2388 4750 2728 4690 
Q 3069 4631 3425 4513 
z
" transform="scale(0.015625)"/>
      <path id="DejaVuSans-34" d="M 2419 4116 
L 825 1625 
L 2419 1625 
L 2419 4116 
z
M 2253 4666 
L 3047 4666 
L 3047 1625 
L 3713 1625 
L 3713 1100 
L 3047 1100 
L 3047 0 
L 2419 0 
L 2419 1100 
L 313 1100 
L 313 1709 
L 2253 4666 
z
" transform="scale(0.015625)"/>
     </defs>
     <use xlink:href="#DejaVuSans-53"/>
     <use xlink:href="#DejaVuSans-20" x="63.476562"/>
     <use xlink:href="#DejaVuSans-5b" x="95.263672"/>
     <use xlink:href="#DejaVuSans-32" x="134.277344"/>
     <use xlink:href="#DejaVuSans-34" x="197.900391"/>
     <use xlink:href="#DejaVuSans-5d" x="261.523438"/>
    </g>
   </g>
   <g id="text_17">
    <!-- T [22] -->
    <g transform="translate(262.493209 267.67058) scale(0.1 -0.1)">
     <defs>
      <path id="DejaVuSans-54" d="M -19 4666 
L 3928 4666 
L 3928 4134 
L 2272 4134 
L 2272 0 
L 1638 0 
L 1638 4134 
L -19 4134 
L -19 4666 
z
" transform="scale(0.015625)"/>
     </defs>
     <use xlink:href="#DejaVuSans-54"/>
     <use xlink:href="#DejaVuSans-20" x="61.083984"/>
     <use xlink:href="#DejaVuSans-5b" x="92.871094"/>
     <use xlink:href="#DejaVuSans-32" x="131.884766"/>
     <use xlink:href="#DejaVuSans-32" x="195.507812"/>
     <use xlink:href="#DejaVuSans-5d" x="259.130859"/>
    </g>
   </g>
   <g id="text_18">
    <!-- V [25] -->
    <g transform="translate(300.178599 224.525362) scale(0.1 -0.1)">
     <defs>
      <path id="DejaVuSans-56" d="M 1831 0 
L 50 4666 
L 709 4666 
L 2188 738 
L 3669 4666 
L 4325 4666 
L 2547 0 
L 1831 0 
z
" transform="scale(0.015625)"/>
     </defs>
     <use xlink:href="#DejaVuSans-56"/>
     <use xlink:href="#DejaVuSans-20" x="68.408203"/>
     <use xlink:href="#DejaVuSans-5b" x="100.195312"/>
     <use xlink:href="#DejaVuSans-32" x="139.208984"/>
     <use xlink:href="#DejaVuSans-35" x="202.832031"/>
     <use xlink:href="#DejaVuSans-5d" x="266.455078"/>
    </g>
   </g>
   <g id="text_19">
    <!-- W [3] -->
    <g transform="translate(313.263292 192.838676) scale(0.1 -0.1)">
     <defs>
      <path id="DejaVuSans-57" d="M 213 4666 
L 850 4666 
L 1831 722 
L 2809 4666 
L 3519 4666 
L 4500 722 
L 5478 4666 
L 6119 4666 
L 4947 0 
L 4153 0 
L 3169 4050 
L 2175 0 
L 1381 0 
L 213 4666 
z
" transform="scale(0.015625)"/>
     </defs>
     <use xlink:href="#DejaVuSans-57"/>
     <use xlink:href="#DejaVuSans-20" x="98.876953"/>
     <use xlink:href="#DejaVuSans-5b" x="130.664062"/>
     <use xlink:href="#DejaVuSans-33" x="169.677734"/>
     <use xlink:href="#DejaVuSans-5d" x="233.300781"/>
    </g>
   </g>
   <g id="text_20">
    <!-- Y [14] -->
    <g transform="translate(317.319146 172.390403) scale(0.1 -0.1)">
     <defs>
      <path id="DejaVuSans-59" d="M -13 4666 
L 666 4666 
L 1959 2747 
L 3244 4666 
L 3922 4666 
L 2272 2222 
L 2272 0 
L 1638 0 
L 1638 2222 
L -13 4666 
z
" transform="scale(0.015625)"/>
     </defs>
     <use xlink:href="#DejaVuSans-59"/>
     <use xlink:href="#DejaVuSans-20" x="61.083984"/>
     <use xlink:href="#DejaVuSans-5b" x="92.871094"/>
     <use xlink:href="#DejaVuSans-31" x="131.884766"/>
     <use xlink:href="#DejaVuSans-34" x="195.507812"/>
     <use xlink:href="#DejaVuSans-5d" x="259.130859"/>
    </g>
   </g>
   <g id="text_21">
    <!-- P32249 [361] -->
    <g transform="translate(136.578702 152.490023) scale(0.12 -0.12)">
     <defs>
      <path id="DejaVuSans-39" d="M 703 97 
L 703 672 
Q 941 559 1184 500 
Q 1428 441 1663 441 
Q 2288 441 2617 861 
Q 2947 1281 2994 2138 
Q 2813 1869 2534 1725 
Q 2256 1581 1919 1581 
Q 1219 1581 811 2004 
Q 403 2428 403 3163 
Q 403 3881 828 4315 
Q 1253 4750 1959 4750 
Q 2769 4750 3195 4129 
Q 3622 3509 3622 2328 
Q 3622 1225 3098 567 
Q 2575 -91 1691 -91 
Q 1453 -91 1209 -44 
Q 966 3 703 97 
z
M 1959 2075 
Q 2384 2075 2632 2365 
Q 2881 2656 2881 3163 
Q 2881 3666 2632 3958 
Q 2384 4250 1959 4250 
Q 1534 4250 1286 3958 
Q 1038 3666 1038 3163 
Q 1038 2656 1286 2365 
Q 1534 2075 1959 2075 
z
" transform="scale(0.015625)"/>
     </defs>
     <use xlink:href="#DejaVuSans-50"/>
     <use xlink:href="#DejaVuSans-33" x="60.302734"/>
     <use xlink:href="#DejaVuSans-32" x="123.925781"/>
     <use xlink:href="#DejaVuSans-32" x="187.548828"/>
     <use xlink:href="#DejaVuSans-34" x="251.171875"/>
     <use xlink:href="#DejaVuSans-39" x="314.794922"/>
     <use xlink:href="#DejaVuSans-20" x="378.417969"/>
     <use xlink:href="#DejaVuSans-5b" x="410.205078"/>
     <use xlink:href="#DejaVuSans-33" x="449.21875"/>
     <use xlink:href="#DejaVuSans-36" x="512.841797"/>
     <use xlink:href="#DejaVuSans-31" x="576.464844"/>
     <use xlink:href="#DejaVuSans-5d" x="640.087891"/>
    </g>
   </g>
  </g>
 </g>
</svg>
