<?xml version="1.0" encoding="utf-8" standalone="no"?>
<!DOCTYPE svg PUBLIC "-//W3C//DTD SVG 1.1//EN"
  "http://www.w3.org/Graphics/SVG/1.1/DTD/svg11.dtd">
<svg xmlns:xlink="http://www.w3.org/1999/xlink" width="353.572744pt" height="303.642533pt" viewBox="0 0 353.572744 303.642533" xmlns="http://www.w3.org/2000/svg" version="1.1">
 <metadata>
  <rdf:RDF xmlns:dc="http://purl.org/dc/elements/1.1/" xmlns:cc="http://creativecommons.org/ns#" xmlns:rdf="http://www.w3.org/1999/02/22-rdf-syntax-ns#">
   <cc:Work>
    <dc:type rdf:resource="http://purl.org/dc/dcmitype/StillImage"/>
    <dc:date>2024-09-27T16:07:11.188274</dc:date>
    <dc:format>image/svg+xml</dc:format>
    <dc:creator>
     <cc:Agent>
      <dc:title>Matplotlib v3.8.3, https://matplotlib.org/</dc:title>
     </cc:Agent>
    </dc:creator>
   </cc:Work>
  </rdf:RDF>
 </metadata>
 <defs>
  <style type="text/css">*{stroke-linejoin: round; stroke-linecap: butt}</style>
 </defs>
 <g id="figure_1">
  <g id="patch_1">
   <path d="M 0 303.642533 
L 353.572744 303.642533 
L 353.572744 0 
L 0 0 
z
" style="fill: #ffffff"/>
  </g>
  <g id="axes_1">
   <g id="patch_2">
    <path d="M 304.829591 151.45448 
C 304.829591 136.009654 302.028343 120.692107 296.562109 106.246937 
C 291.095875 91.801768 283.054749 78.467057 272.829877 66.891451 
L 177.095831 151.45448 
z
" style="fill: #1f77b4"/>
   </g>
   <g id="patch_3">
    <path d="M 272.684447 66.680924 
C 269.194836 62.730325 265.464027 58.999516 261.513428 55.509905 
C 257.562829 52.020294 253.40001 48.778566 249.048855 45.803323 
L 176.950401 151.243953 
z
" style="fill: #ff7f0e"/>
   </g>
   <g id="patch_4">
    <path d="M 248.953797 45.736312 
C 245.607191 43.447961 242.153535 41.320236 238.60456 39.360362 
C 235.055586 37.400488 231.415315 35.610687 227.696113 33.997039 
L 176.855344 151.176942 
z
" style="fill: #aec7e8"/>
   </g>
   <g id="patch_5">
    <path d="M 227.627189 33.965166 
C 225.767852 33.158456 223.889576 32.396115 221.99396 31.67879 
C 220.098343 30.961464 218.185922 30.289359 216.25832 29.663043 
L 176.78642 151.145068 
z
" style="fill: #ffbb78"/>
   </g>
   <g id="patch_6">
    <path d="M 216.17068 29.638213 
C 211.157554 28.00935 206.048406 26.692358 200.87255 25.694794 
C 195.696694 24.697229 190.464048 24.021004 185.204636 23.669998 
L 176.698779 151.120239 
z
" style="fill: #98df8a"/>
   </g>
   <g id="patch_7">
    <path d="M 185.028169 23.665797 
C 176.12234 23.071434 167.178689 23.412173 158.343899 24.682424 
C 149.509109 25.952675 140.831742 28.145457 132.454113 31.224807 
L 176.522312 151.116038 
z
" style="fill: #2ca02c"/>
   </g>
   <g id="patch_8">
    <path d="M 132.322678 31.261369 
C 130.420318 31.960616 128.534871 32.705042 126.667937 33.494015 
C 124.801004 34.282988 122.953113 35.116284 121.125835 35.993195 
L 176.390876 151.152601 
z
" style="fill: #d62728"/>
   </g>
   <g id="patch_9">
    <path d="M 121.032604 36.044103 
C 115.182766 38.851442 109.555332 42.100443 104.199186 45.762882 
C 98.843041 49.425321 93.773738 53.490562 89.035313 57.923292 
L 176.297645 151.203509 
z
" style="fill: #9467bd"/>
   </g>
   <g id="patch_10">
    <path d="M 88.957597 57.988084 
C 87.773527 59.095765 86.610656 60.22589 85.469614 61.377846 
C 84.328573 62.529803 83.209569 63.70338 82.113211 64.897941 
L 176.219929 151.268301 
z
" style="fill: #ff9896"/>
   </g>
   <g id="patch_11">
    <path d="M 81.983619 65.112845 
C 69.325724 78.904532 59.853053 95.311681 54.23805 113.169583 
C 48.623048 131.027485 47.0018 149.903333 49.489397 168.457168 
L 176.090337 151.483205 
z
" style="fill: #c5b0d5"/>
   </g>
   <g id="patch_12">
    <path d="M 49.479894 168.742284 
C 50.072532 173.162501 50.896259 177.548648 51.947689 181.882702 
C 52.99912 186.216756 54.276811 190.492772 55.775514 194.693179 
L 176.080834 151.768321 
z
" style="fill: #c49c94"/>
   </g>
   <g id="patch_13">
    <path d="M 55.806525 194.784178 
C 56.896373 197.838691 58.102155 200.85059 59.421251 203.813326 
C 60.740346 206.776062 62.171797 209.687486 63.712492 212.541269 
L 176.111844 151.85932 
z
" style="fill: #8c564b"/>
   </g>
   <g id="patch_14">
    <path d="M 63.777233 212.649796 
C 67.0526 218.716659 70.813794 224.508389 75.023938 229.9682 
C 79.234082 235.428011 83.879371 240.538001 88.914261 245.248069 
L 176.176586 151.967846 
z
" style="fill: #e377c2"/>
   </g>
   <g id="patch_15">
    <path d="M 88.998826 245.335085 
C 91.071077 247.273646 93.207352 249.142617 95.404094 250.938883 
C 97.600836 252.73515 99.856825 254.457716 102.168305 256.103714 
L 176.261151 152.054861 
z
" style="fill: #7f7f7f"/>
   </g>
   <g id="patch_16">
    <path d="M 102.252368 256.160027 
C 106.546089 259.217572 111.024957 262.006408 115.663273 264.510533 
C 120.30159 267.014658 125.090466 269.229273 130.002426 271.141673 
L 176.345214 152.111175 
z
" style="fill: #f7b6d2"/>
   </g>
   <g id="patch_17">
    <path d="M 130.189568 271.201496 
C 140.022872 275.02995 150.292804 277.625174 160.76439 278.927792 
C 171.235977 280.230409 181.828743 280.230409 192.300329 278.92779 
L 176.532355 152.170998 
z
" style="fill: #c7c7c7"/>
   </g>
   <g id="patch_18">
    <path d="M 192.530495 278.905812 
C 200.581379 277.904319 208.518569 276.138078 216.234429 273.631043 
C 223.950289 271.124008 231.40978 267.887562 238.511745 263.965597 
L 176.762522 152.14902 
z
" style="fill: #dbdb8d"/>
   </g>
   <g id="patch_19">
    <path d="M 238.74617 263.811767 
C 251.551243 256.740336 263.046963 247.521539 272.730998 236.558214 
C 282.415033 225.594889 290.144241 213.049087 295.580876 199.469028 
L 176.996947 151.995191 
z
" style="fill: #bcbd22"/>
   </g>
   <g id="patch_20">
    <path d="M 295.688159 199.281148 
C 296.742807 196.646766 297.709376 193.977972 298.586257 191.279208 
C 299.463139 188.580444 300.249846 185.853208 300.945069 183.102042 
L 177.10423 151.807311 
z
" style="fill: #17becf"/>
   </g>
   <g id="patch_21">
    <path d="M 300.967047 183.003276 
C 302.258468 177.892811 303.232315 172.707304 303.883002 167.476508 
C 304.533689 162.245712 304.859969 156.97965 304.859969 151.708538 
L 177.126209 151.708544 
z
" style="fill: #9edae5"/>
   </g>
   <g id="patch_22">
    <path d="M 251.109415 151.642845 
C 251.109415 142.633363 249.475354 133.698127 246.286717 125.271778 
C 243.098081 116.845429 238.407424 109.066848 232.442915 102.314411 
L 176.598055 151.642845 
z
" style="fill: #ffffff"/>
   </g>
   <g id="patch_23">
    <path d="M 232.442915 102.314411 
C 230.407309 100.009895 228.231004 97.83359 225.926488 95.797983 
C 223.621971 93.762377 221.19366 91.871369 218.655486 90.135811 
L 176.598055 151.642845 
z
" style="fill: #ffffff"/>
   </g>
   <g id="patch_24">
    <path d="M 218.655486 90.135811 
C 216.703299 88.800939 214.688667 87.559766 212.618432 86.416506 
C 210.548197 85.273246 208.424705 84.229196 206.255171 83.287901 
L 176.598055 151.642845 
z
" style="fill: #ffffff"/>
   </g>
   <g id="patch_25">
    <path d="M 206.255171 83.287901 
C 205.170557 82.817321 204.074896 82.372622 202.96912 81.954182 
C 201.863344 81.535742 200.747765 81.14368 199.62333 80.77833 
L 176.598055 151.642845 
z
" style="fill: #ffffff"/>
   </g>
   <g id="patch_26">
    <path d="M 199.62333 80.77833 
C 196.699007 79.82816 193.718671 79.059914 190.699422 78.478002 
C 187.680172 77.896089 184.627795 77.501624 181.559805 77.296871 
L 176.598055 151.642845 
z
" style="fill: #ffffff"/>
   </g>
   <g id="patch_27">
    <path d="M 181.559805 77.296871 
C 176.364738 76.950159 171.147609 77.148923 165.993981 77.889903 
C 160.840353 78.630883 155.778556 79.910006 150.891606 81.706293 
L 176.598055 151.642845 
z
" style="fill: #ffffff"/>
   </g>
   <g id="patch_28">
    <path d="M 150.891606 81.706293 
C 149.781896 82.114187 148.682052 82.548436 147.593007 83.00867 
C 146.503963 83.468904 145.426027 83.954993 144.360115 84.466525 
L 176.598055 151.642845 
z
" style="fill: #ffffff"/>
   </g>
   <g id="patch_29">
    <path d="M 144.360115 84.466525 
C 140.947709 86.104139 137.665039 87.99939 134.540621 90.135812 
C 131.416203 92.272235 128.459109 94.643626 125.695028 97.229385 
L 176.598055 151.642845 
z
" style="fill: #ffffff"/>
   </g>
   <g id="patch_30">
    <path d="M 125.695028 97.229385 
C 125.004321 97.875532 124.325979 98.534772 123.660372 99.206746 
C 122.994764 99.87872 122.342012 100.563307 121.70247 101.260135 
L 176.598055 151.642845 
z
" style="fill: #ffffff"/>
   </g>
   <g id="patch_31">
    <path d="M 121.70247 101.260135 
C 114.318698 109.305285 108.792973 118.876123 105.517554 129.293232 
C 102.242136 139.710342 101.296409 150.721253 102.747507 161.544323 
L 176.598055 151.642845 
z
" style="fill: #ffffff"/>
   </g>
   <g id="patch_32">
    <path d="M 102.747507 161.544323 
C 103.093213 164.122783 103.57372 166.681368 104.187054 169.209567 
C 104.800389 171.737765 105.545709 174.232108 106.419952 176.682345 
L 176.598055 151.642845 
z
" style="fill: #ffffff"/>
   </g>
   <g id="patch_33">
    <path d="M 106.419952 176.682345 
C 107.055697 178.464144 107.75907 180.221085 108.528542 181.949348 
C 109.298014 183.677611 110.133028 185.375942 111.031766 187.040649 
L 176.598055 151.642845 
z
" style="fill: #ffffff"/>
   </g>
   <g id="patch_34">
    <path d="M 111.031766 187.040649 
C 112.942397 190.579652 115.136426 193.958161 117.592344 197.143051 
C 120.048261 200.327941 122.758013 203.308769 125.695032 206.056308 
L 176.598055 151.642845 
z
" style="fill: #ffffff"/>
   </g>
   <g id="patch_35">
    <path d="M 125.695032 206.056308 
C 126.903846 207.187136 128.150006 208.277368 129.431439 209.325191 
C 130.712871 210.373013 132.028865 211.377843 133.377228 212.338008 
L 176.598055 151.642845 
z
" style="fill: #ffffff"/>
   </g>
   <g id="patch_36">
    <path d="M 133.377228 212.338008 
C 135.881899 214.121576 138.494572 215.748397 141.200257 217.209136 
C 143.905941 218.669876 146.699453 219.961735 149.564762 221.077302 
L 176.598055 151.642845 
z
" style="fill: #ffffff"/>
   </g>
   <g id="patch_37">
    <path d="M 149.564762 221.077302 
C 155.300857 223.310566 161.29165 224.824447 167.400076 225.584308 
C 173.508501 226.344168 179.687615 226.344168 185.79604 225.584307 
L 176.598055 151.642845 
z
" style="fill: #ffffff"/>
   </g>
   <g id="patch_38">
    <path d="M 185.79604 225.584307 
C 190.492389 225.000102 195.122416 223.969795 199.623335 222.507358 
C 204.124253 221.044921 208.475623 219.156995 212.618436 216.869181 
L 176.598055 151.642845 
z
" style="fill: #ffffff"/>
   </g>
   <g id="patch_39">
    <path d="M 212.618436 216.869181 
C 220.088061 212.744179 226.793898 207.366548 232.442918 200.971275 
C 238.091939 194.576002 242.600643 187.257618 245.772014 179.335916 
L 176.598055 151.642845 
z
" style="fill: #ffffff"/>
   </g>
   <g id="patch_40">
    <path d="M 245.772014 179.335916 
C 246.387225 177.799194 246.951057 176.242397 247.462571 174.668118 
C 247.974085 173.093839 248.432997 171.502951 248.838544 169.898105 
L 176.598055 151.642845 
z
" style="fill: #ffffff"/>
   </g>
   <g id="patch_41">
    <path d="M 248.838544 169.898105 
C 249.591873 166.917 250.159951 163.892121 250.539518 160.840823 
C 250.919086 157.789526 251.109415 154.717656 251.109415 151.642841 
L 176.598055 151.642845 
z
" style="fill: #ffffff"/>
   </g>
   <g id="matplotlib.axis_1"/>
   <g id="matplotlib.axis_2"/>
   <g id="text_1">
    <!-- A [38] -->
    <g transform="translate(308.508737 104.485558) scale(0.1 -0.1)">
     <defs>
      <path id="DejaVuSans-41" d="M 2188 4044 
L 1331 1722 
L 3047 1722 
L 2188 4044 
z
M 1831 4666 
L 2547 4666 
L 4325 0 
L 3669 0 
L 3244 1197 
L 1141 1197 
L 716 0 
L 50 0 
L 1831 4666 
z
" transform="scale(0.015625)"/>
      <path id="DejaVuSans-20" transform="scale(0.015625)"/>
      <path id="DejaVuSans-5b" d="M 550 4863 
L 1875 4863 
L 1875 4416 
L 1125 4416 
L 1125 -397 
L 1875 -397 
L 1875 -844 
L 550 -844 
L 550 4863 
z
" transform="scale(0.015625)"/>
      <path id="DejaVuSans-33" d="M 2597 2516 
Q 3050 2419 3304 2112 
Q 3559 1806 3559 1356 
Q 3559 666 3084 287 
Q 2609 -91 1734 -91 
Q 1441 -91 1130 -33 
Q 819 25 488 141 
L 488 750 
Q 750 597 1062 519 
Q 1375 441 1716 441 
Q 2309 441 2620 675 
Q 2931 909 2931 1356 
Q 2931 1769 2642 2001 
Q 2353 2234 1838 2234 
L 1294 2234 
L 1294 2753 
L 1863 2753 
Q 2328 2753 2575 2939 
Q 2822 3125 2822 3475 
Q 2822 3834 2567 4026 
Q 2313 4219 1838 4219 
Q 1578 4219 1281 4162 
Q 984 4106 628 3988 
L 628 4550 
Q 988 4650 1302 4700 
Q 1616 4750 1894 4750 
Q 2613 4750 3031 4423 
Q 3450 4097 3450 3541 
Q 3450 3153 3228 2886 
Q 3006 2619 2597 2516 
z
" transform="scale(0.015625)"/>
      <path id="DejaVuSans-38" d="M 2034 2216 
Q 1584 2216 1326 1975 
Q 1069 1734 1069 1313 
Q 1069 891 1326 650 
Q 1584 409 2034 409 
Q 2484 409 2743 651 
Q 3003 894 3003 1313 
Q 3003 1734 2745 1975 
Q 2488 2216 2034 2216 
z
M 1403 2484 
Q 997 2584 770 2862 
Q 544 3141 544 3541 
Q 544 4100 942 4425 
Q 1341 4750 2034 4750 
Q 2731 4750 3128 4425 
Q 3525 4100 3525 3541 
Q 3525 3141 3298 2862 
Q 3072 2584 2669 2484 
Q 3125 2378 3379 2068 
Q 3634 1759 3634 1313 
Q 3634 634 3220 271 
Q 2806 -91 2034 -91 
Q 1263 -91 848 271 
Q 434 634 434 1313 
Q 434 1759 690 2068 
Q 947 2378 1403 2484 
z
M 1172 3481 
Q 1172 3119 1398 2916 
Q 1625 2713 2034 2713 
Q 2441 2713 2670 2916 
Q 2900 3119 2900 3481 
Q 2900 3844 2670 4047 
Q 2441 4250 2034 4250 
Q 1625 4250 1398 4047 
Q 1172 3844 1172 3481 
z
" transform="scale(0.015625)"/>
      <path id="DejaVuSans-5d" d="M 1947 4863 
L 1947 -844 
L 622 -844 
L 622 -397 
L 1369 -397 
L 1369 4416 
L 622 4416 
L 622 4863 
L 1947 4863 
z
" transform="scale(0.015625)"/>
     </defs>
     <use xlink:href="#DejaVuSans-41"/>
     <use xlink:href="#DejaVuSans-20" x="68.408203"/>
     <use xlink:href="#DejaVuSans-5b" x="100.195312"/>
     <use xlink:href="#DejaVuSans-33" x="139.208984"/>
     <use xlink:href="#DejaVuSans-38" x="202.832031"/>
     <use xlink:href="#DejaVuSans-5d" x="266.455078"/>
    </g>
   </g>
   <g id="text_2">
    <!-- C [13] -->
    <g transform="translate(269.969731 48.695875) scale(0.1 -0.1)">
     <defs>
      <path id="DejaVuSans-43" d="M 4122 4306 
L 4122 3641 
Q 3803 3938 3442 4084 
Q 3081 4231 2675 4231 
Q 1875 4231 1450 3742 
Q 1025 3253 1025 2328 
Q 1025 1406 1450 917 
Q 1875 428 2675 428 
Q 3081 428 3442 575 
Q 3803 722 4122 1019 
L 4122 359 
Q 3791 134 3420 21 
Q 3050 -91 2638 -91 
Q 1578 -91 968 557 
Q 359 1206 359 2328 
Q 359 3453 968 4101 
Q 1578 4750 2638 4750 
Q 3056 4750 3426 4639 
Q 3797 4528 4122 4306 
z
" transform="scale(0.015625)"/>
      <path id="DejaVuSans-31" d="M 794 531 
L 1825 531 
L 1825 4091 
L 703 3866 
L 703 4441 
L 1819 4666 
L 2450 4666 
L 2450 531 
L 3481 531 
L 3481 0 
L 794 0 
L 794 531 
z
" transform="scale(0.015625)"/>
     </defs>
     <use xlink:href="#DejaVuSans-43"/>
     <use xlink:href="#DejaVuSans-20" x="69.824219"/>
     <use xlink:href="#DejaVuSans-5b" x="101.611328"/>
     <use xlink:href="#DejaVuSans-31" x="140.625"/>
     <use xlink:href="#DejaVuSans-33" x="204.248047"/>
     <use xlink:href="#DejaVuSans-5d" x="267.871094"/>
    </g>
   </g>
   <g id="text_3">
    <!-- D [10] -->
    <g transform="translate(244.779482 30.938079) scale(0.1 -0.1)">
     <defs>
      <path id="DejaVuSans-44" d="M 1259 4147 
L 1259 519 
L 2022 519 
Q 2988 519 3436 956 
Q 3884 1394 3884 2338 
Q 3884 3275 3436 3711 
Q 2988 4147 2022 4147 
L 1259 4147 
z
M 628 4666 
L 1925 4666 
Q 3281 4666 3915 4102 
Q 4550 3538 4550 2338 
Q 4550 1131 3912 565 
Q 3275 0 1925 0 
L 628 0 
L 628 4666 
z
" transform="scale(0.015625)"/>
      <path id="DejaVuSans-30" d="M 2034 4250 
Q 1547 4250 1301 3770 
Q 1056 3291 1056 2328 
Q 1056 1369 1301 889 
Q 1547 409 2034 409 
Q 2525 409 2770 889 
Q 3016 1369 3016 2328 
Q 3016 3291 2770 3770 
Q 2525 4250 2034 4250 
z
M 2034 4750 
Q 2819 4750 3233 4129 
Q 3647 3509 3647 2328 
Q 3647 1150 3233 529 
Q 2819 -91 2034 -91 
Q 1250 -91 836 529 
Q 422 1150 422 2328 
Q 422 3509 836 4129 
Q 1250 4750 2034 4750 
z
" transform="scale(0.015625)"/>
     </defs>
     <use xlink:href="#DejaVuSans-44"/>
     <use xlink:href="#DejaVuSans-20" x="77.001953"/>
     <use xlink:href="#DejaVuSans-5b" x="108.789062"/>
     <use xlink:href="#DejaVuSans-31" x="147.802734"/>
     <use xlink:href="#DejaVuSans-30" x="211.425781"/>
     <use xlink:href="#DejaVuSans-5d" x="275.048828"/>
    </g>
   </g>
   <g id="text_4">
    <!-- E [5] -->
    <g transform="translate(226.514714 22.491537) scale(0.1 -0.1)">
     <defs>
      <path id="DejaVuSans-45" d="M 628 4666 
L 3578 4666 
L 3578 4134 
L 1259 4134 
L 1259 2753 
L 3481 2753 
L 3481 2222 
L 1259 2222 
L 1259 531 
L 3634 531 
L 3634 0 
L 628 0 
L 628 4666 
z
" transform="scale(0.015625)"/>
      <path id="DejaVuSans-35" d="M 691 4666 
L 3169 4666 
L 3169 4134 
L 1269 4134 
L 1269 2991 
Q 1406 3038 1543 3061 
Q 1681 3084 1819 3084 
Q 2600 3084 3056 2656 
Q 3513 2228 3513 1497 
Q 3513 744 3044 326 
Q 2575 -91 1722 -91 
Q 1428 -91 1123 -41 
Q 819 9 494 109 
L 494 744 
Q 775 591 1075 516 
Q 1375 441 1709 441 
Q 2250 441 2565 725 
Q 2881 1009 2881 1497 
Q 2881 1984 2565 2268 
Q 2250 2553 1709 2553 
Q 1456 2553 1204 2497 
Q 953 2441 691 2322 
L 691 4666 
z
" transform="scale(0.015625)"/>
     </defs>
     <use xlink:href="#DejaVuSans-45"/>
     <use xlink:href="#DejaVuSans-20" x="63.183594"/>
     <use xlink:href="#DejaVuSans-5b" x="94.970703"/>
     <use xlink:href="#DejaVuSans-35" x="133.984375"/>
     <use xlink:href="#DejaVuSans-5d" x="197.607422"/>
    </g>
   </g>
   <g id="text_5">
    <!-- F [13] -->
    <g transform="translate(203.289927 15.911624) scale(0.1 -0.1)">
     <defs>
      <path id="DejaVuSans-46" d="M 628 4666 
L 3309 4666 
L 3309 4134 
L 1259 4134 
L 1259 2759 
L 3109 2759 
L 3109 2228 
L 1259 2228 
L 1259 0 
L 628 0 
L 628 4666 
z
" transform="scale(0.015625)"/>
     </defs>
     <use xlink:href="#DejaVuSans-46"/>
     <use xlink:href="#DejaVuSans-20" x="57.519531"/>
     <use xlink:href="#DejaVuSans-5b" x="89.306641"/>
     <use xlink:href="#DejaVuSans-31" x="128.320312"/>
     <use xlink:href="#DejaVuSans-33" x="191.943359"/>
     <use xlink:href="#DejaVuSans-5d" x="255.566406"/>
    </g>
   </g>
   <g id="text_6">
    <!-- G [22] -->
    <g transform="translate(125.07137 14.798437) scale(0.1 -0.1)">
     <defs>
      <path id="DejaVuSans-47" d="M 3809 666 
L 3809 1919 
L 2778 1919 
L 2778 2438 
L 4434 2438 
L 4434 434 
Q 4069 175 3628 42 
Q 3188 -91 2688 -91 
Q 1594 -91 976 548 
Q 359 1188 359 2328 
Q 359 3472 976 4111 
Q 1594 4750 2688 4750 
Q 3144 4750 3555 4637 
Q 3966 4525 4313 4306 
L 4313 3634 
Q 3963 3931 3569 4081 
Q 3175 4231 2741 4231 
Q 1884 4231 1454 3753 
Q 1025 3275 1025 2328 
Q 1025 1384 1454 906 
Q 1884 428 2741 428 
Q 3075 428 3337 486 
Q 3600 544 3809 666 
z
" transform="scale(0.015625)"/>
      <path id="DejaVuSans-32" d="M 1228 531 
L 3431 531 
L 3431 0 
L 469 0 
L 469 531 
Q 828 903 1448 1529 
Q 2069 2156 2228 2338 
Q 2531 2678 2651 2914 
Q 2772 3150 2772 3378 
Q 2772 3750 2511 3984 
Q 2250 4219 1831 4219 
Q 1534 4219 1204 4116 
Q 875 4013 500 3803 
L 500 4441 
Q 881 4594 1212 4672 
Q 1544 4750 1819 4750 
Q 2544 4750 2975 4387 
Q 3406 4025 3406 3419 
Q 3406 3131 3298 2873 
Q 3191 2616 2906 2266 
Q 2828 2175 2409 1742 
Q 1991 1309 1228 531 
z
" transform="scale(0.015625)"/>
     </defs>
     <use xlink:href="#DejaVuSans-47"/>
     <use xlink:href="#DejaVuSans-20" x="77.490234"/>
     <use xlink:href="#DejaVuSans-5b" x="109.277344"/>
     <use xlink:href="#DejaVuSans-32" x="148.291016"/>
     <use xlink:href="#DejaVuSans-32" x="211.914062"/>
     <use xlink:href="#DejaVuSans-5d" x="275.537109"/>
    </g>
   </g>
   <g id="text_7">
    <!-- H [5] -->
    <g transform="translate(96.831581 24.487531) scale(0.1 -0.1)">
     <defs>
      <path id="DejaVuSans-48" d="M 628 4666 
L 1259 4666 
L 1259 2753 
L 3553 2753 
L 3553 4666 
L 4184 4666 
L 4184 0 
L 3553 0 
L 3553 2222 
L 1259 2222 
L 1259 0 
L 628 0 
L 628 4666 
z
" transform="scale(0.015625)"/>
     </defs>
     <use xlink:href="#DejaVuSans-48"/>
     <use xlink:href="#DejaVuSans-20" x="75.195312"/>
     <use xlink:href="#DejaVuSans-5b" x="106.982422"/>
     <use xlink:href="#DejaVuSans-35" x="145.996094"/>
     <use xlink:href="#DejaVuSans-5d" x="209.619141"/>
    </g>
   </g>
   <g id="text_8">
    <!-- I [16] -->
    <g transform="translate(70.333091 37.978194) scale(0.1 -0.1)">
     <defs>
      <path id="DejaVuSans-49" d="M 628 4666 
L 1259 4666 
L 1259 0 
L 628 0 
L 628 4666 
z
" transform="scale(0.015625)"/>
      <path id="DejaVuSans-36" d="M 2113 2584 
Q 1688 2584 1439 2293 
Q 1191 2003 1191 1497 
Q 1191 994 1439 701 
Q 1688 409 2113 409 
Q 2538 409 2786 701 
Q 3034 994 3034 1497 
Q 3034 2003 2786 2293 
Q 2538 2584 2113 2584 
z
M 3366 4563 
L 3366 3988 
Q 3128 4100 2886 4159 
Q 2644 4219 2406 4219 
Q 1781 4219 1451 3797 
Q 1122 3375 1075 2522 
Q 1259 2794 1537 2939 
Q 1816 3084 2150 3084 
Q 2853 3084 3261 2657 
Q 3669 2231 3669 1497 
Q 3669 778 3244 343 
Q 2819 -91 2113 -91 
Q 1303 -91 875 529 
Q 447 1150 447 2328 
Q 447 3434 972 4092 
Q 1497 4750 2381 4750 
Q 2619 4750 2861 4703 
Q 3103 4656 3366 4563 
z
" transform="scale(0.015625)"/>
     </defs>
     <use xlink:href="#DejaVuSans-49"/>
     <use xlink:href="#DejaVuSans-20" x="29.492188"/>
     <use xlink:href="#DejaVuSans-5b" x="61.279297"/>
     <use xlink:href="#DejaVuSans-31" x="100.292969"/>
     <use xlink:href="#DejaVuSans-36" x="163.916016"/>
     <use xlink:href="#DejaVuSans-5d" x="227.539062"/>
    </g>
   </g>
   <g id="text_9">
    <!-- K [4] -->
    <g transform="translate(52.49302 55.148176) scale(0.1 -0.1)">
     <defs>
      <path id="DejaVuSans-4b" d="M 628 4666 
L 1259 4666 
L 1259 2694 
L 3353 4666 
L 4166 4666 
L 1850 2491 
L 4331 0 
L 3500 0 
L 1259 2247 
L 1259 0 
L 628 0 
L 628 4666 
z
" transform="scale(0.015625)"/>
      <path id="DejaVuSans-34" d="M 2419 4116 
L 825 1625 
L 2419 1625 
L 2419 4116 
z
M 2253 4666 
L 3047 4666 
L 3047 1625 
L 3713 1625 
L 3713 1100 
L 3047 1100 
L 3047 0 
L 2419 0 
L 2419 1100 
L 313 1100 
L 313 1709 
L 2253 4666 
z
" transform="scale(0.015625)"/>
     </defs>
     <use xlink:href="#DejaVuSans-4b"/>
     <use xlink:href="#DejaVuSans-20" x="65.576172"/>
     <use xlink:href="#DejaVuSans-5b" x="97.363281"/>
     <use xlink:href="#DejaVuSans-34" x="136.376953"/>
     <use xlink:href="#DejaVuSans-5d" x="200"/>
    </g>
   </g>
   <g id="text_10">
    <!-- L [46] -->
    <g transform="translate(12.774697 112.097596) scale(0.1 -0.1)">
     <defs>
      <path id="DejaVuSans-4c" d="M 628 4666 
L 1259 4666 
L 1259 531 
L 3531 531 
L 3531 0 
L 628 0 
L 628 4666 
z
" transform="scale(0.015625)"/>
     </defs>
     <use xlink:href="#DejaVuSans-4c"/>
     <use xlink:href="#DejaVuSans-20" x="55.712891"/>
     <use xlink:href="#DejaVuSans-5b" x="87.5"/>
     <use xlink:href="#DejaVuSans-34" x="126.513672"/>
     <use xlink:href="#DejaVuSans-36" x="190.136719"/>
     <use xlink:href="#DejaVuSans-5d" x="253.759766"/>
    </g>
   </g>
   <g id="text_11">
    <!-- M [11] -->
    <g transform="translate(7.2 187.653515) scale(0.1 -0.1)">
     <defs>
      <path id="DejaVuSans-4d" d="M 628 4666 
L 1569 4666 
L 2759 1491 
L 3956 4666 
L 4897 4666 
L 4897 0 
L 4281 0 
L 4281 4097 
L 3078 897 
L 2444 897 
L 1241 4097 
L 1241 0 
L 628 0 
L 628 4666 
z
" transform="scale(0.015625)"/>
     </defs>
     <use xlink:href="#DejaVuSans-4d"/>
     <use xlink:href="#DejaVuSans-20" x="86.279297"/>
     <use xlink:href="#DejaVuSans-5b" x="118.066406"/>
     <use xlink:href="#DejaVuSans-31" x="157.080078"/>
     <use xlink:href="#DejaVuSans-31" x="220.703125"/>
     <use xlink:href="#DejaVuSans-5d" x="284.326172"/>
    </g>
   </g>
   <g id="text_12">
    <!-- N [8] -->
    <g transform="translate(22.927191 211.768101) scale(0.1 -0.1)">
     <defs>
      <path id="DejaVuSans-4e" d="M 628 4666 
L 1478 4666 
L 3547 763 
L 3547 4666 
L 4159 4666 
L 4159 0 
L 3309 0 
L 1241 3903 
L 1241 0 
L 628 0 
L 628 4666 
z
" transform="scale(0.015625)"/>
     </defs>
     <use xlink:href="#DejaVuSans-4e"/>
     <use xlink:href="#DejaVuSans-20" x="74.804688"/>
     <use xlink:href="#DejaVuSans-5b" x="106.591797"/>
     <use xlink:href="#DejaVuSans-38" x="145.605469"/>
     <use xlink:href="#DejaVuSans-5d" x="209.228516"/>
    </g>
   </g>
   <g id="text_13">
    <!-- P [17] -->
    <g transform="translate(35.172735 240.52761) scale(0.1 -0.1)">
     <defs>
      <path id="DejaVuSans-50" d="M 1259 4147 
L 1259 2394 
L 2053 2394 
Q 2494 2394 2734 2622 
Q 2975 2850 2975 3272 
Q 2975 3691 2734 3919 
Q 2494 4147 2053 4147 
L 1259 4147 
z
M 628 4666 
L 2053 4666 
Q 2838 4666 3239 4311 
Q 3641 3956 3641 3272 
Q 3641 2581 3239 2228 
Q 2838 1875 2053 1875 
L 1259 1875 
L 1259 0 
L 628 0 
L 628 4666 
z
" transform="scale(0.015625)"/>
      <path id="DejaVuSans-37" d="M 525 4666 
L 3525 4666 
L 3525 4397 
L 1831 0 
L 1172 0 
L 2766 4134 
L 525 4134 
L 525 4666 
z
" transform="scale(0.015625)"/>
     </defs>
     <use xlink:href="#DejaVuSans-50"/>
     <use xlink:href="#DejaVuSans-20" x="60.302734"/>
     <use xlink:href="#DejaVuSans-5b" x="92.089844"/>
     <use xlink:href="#DejaVuSans-31" x="131.103516"/>
     <use xlink:href="#DejaVuSans-37" x="194.726562"/>
     <use xlink:href="#DejaVuSans-5d" x="258.349609"/>
    </g>
   </g>
   <g id="text_14">
    <!-- Q [7] -->
    <g transform="translate(62.102763 263.58666) scale(0.1 -0.1)">
     <defs>
      <path id="DejaVuSans-51" d="M 2522 4238 
Q 1834 4238 1429 3725 
Q 1025 3213 1025 2328 
Q 1025 1447 1429 934 
Q 1834 422 2522 422 
Q 3209 422 3611 934 
Q 4013 1447 4013 2328 
Q 4013 3213 3611 3725 
Q 3209 4238 2522 4238 
z
M 3406 84 
L 4238 -825 
L 3475 -825 
L 2784 -78 
Q 2681 -84 2626 -87 
Q 2572 -91 2522 -91 
Q 1538 -91 948 567 
Q 359 1225 359 2328 
Q 359 3434 948 4092 
Q 1538 4750 2522 4750 
Q 3503 4750 4090 4092 
Q 4678 3434 4678 2328 
Q 4678 1516 4351 937 
Q 4025 359 3406 84 
z
" transform="scale(0.015625)"/>
     </defs>
     <use xlink:href="#DejaVuSans-51"/>
     <use xlink:href="#DejaVuSans-20" x="78.710938"/>
     <use xlink:href="#DejaVuSans-5b" x="110.498047"/>
     <use xlink:href="#DejaVuSans-37" x="149.511719"/>
     <use xlink:href="#DejaVuSans-5d" x="213.134766"/>
    </g>
   </g>
   <g id="text_15">
    <!-- R [13] -->
    <g transform="translate(78.940392 278.509843) scale(0.1 -0.1)">
     <defs>
      <path id="DejaVuSans-52" d="M 2841 2188 
Q 3044 2119 3236 1894 
Q 3428 1669 3622 1275 
L 4263 0 
L 3584 0 
L 2988 1197 
Q 2756 1666 2539 1819 
Q 2322 1972 1947 1972 
L 1259 1972 
L 1259 0 
L 628 0 
L 628 4666 
L 2053 4666 
Q 2853 4666 3247 4331 
Q 3641 3997 3641 3322 
Q 3641 2881 3436 2590 
Q 3231 2300 2841 2188 
z
M 1259 4147 
L 1259 2491 
L 2053 2491 
Q 2509 2491 2742 2702 
Q 2975 2913 2975 3322 
Q 2975 3731 2742 3939 
Q 2509 4147 2053 4147 
L 1259 4147 
z
" transform="scale(0.015625)"/>
     </defs>
     <use xlink:href="#DejaVuSans-52"/>
     <use xlink:href="#DejaVuSans-20" x="69.482422"/>
     <use xlink:href="#DejaVuSans-5b" x="101.269531"/>
     <use xlink:href="#DejaVuSans-31" x="140.283203"/>
     <use xlink:href="#DejaVuSans-33" x="203.90625"/>
     <use xlink:href="#DejaVuSans-5d" x="267.529297"/>
    </g>
   </g>
   <g id="text_16">
    <!-- S [26] -->
    <g transform="translate(129.132906 294.362846) scale(0.1 -0.1)">
     <defs>
      <path id="DejaVuSans-53" d="M 3425 4513 
L 3425 3897 
Q 3066 4069 2747 4153 
Q 2428 4238 2131 4238 
Q 1616 4238 1336 4038 
Q 1056 3838 1056 3469 
Q 1056 3159 1242 3001 
Q 1428 2844 1947 2747 
L 2328 2669 
Q 3034 2534 3370 2195 
Q 3706 1856 3706 1288 
Q 3706 609 3251 259 
Q 2797 -91 1919 -91 
Q 1588 -91 1214 -16 
Q 841 59 441 206 
L 441 856 
Q 825 641 1194 531 
Q 1563 422 1919 422 
Q 2459 422 2753 634 
Q 3047 847 3047 1241 
Q 3047 1584 2836 1778 
Q 2625 1972 2144 2069 
L 1759 2144 
Q 1053 2284 737 2584 
Q 422 2884 422 3419 
Q 422 4038 858 4394 
Q 1294 4750 2059 4750 
Q 2388 4750 2728 4690 
Q 3069 4631 3425 4513 
z
" transform="scale(0.015625)"/>
     </defs>
     <use xlink:href="#DejaVuSans-53"/>
     <use xlink:href="#DejaVuSans-20" x="63.476562"/>
     <use xlink:href="#DejaVuSans-5b" x="95.263672"/>
     <use xlink:href="#DejaVuSans-32" x="134.277344"/>
     <use xlink:href="#DejaVuSans-36" x="197.900391"/>
     <use xlink:href="#DejaVuSans-5d" x="261.523438"/>
    </g>
   </g>
   <g id="text_17">
    <!-- T [20] -->
    <g transform="translate(220.18162 288.53862) scale(0.1 -0.1)">
     <defs>
      <path id="DejaVuSans-54" d="M -19 4666 
L 3928 4666 
L 3928 4134 
L 2272 4134 
L 2272 0 
L 1638 0 
L 1638 4134 
L -19 4134 
L -19 4666 
z
" transform="scale(0.015625)"/>
     </defs>
     <use xlink:href="#DejaVuSans-54"/>
     <use xlink:href="#DejaVuSans-20" x="61.083984"/>
     <use xlink:href="#DejaVuSans-5b" x="92.871094"/>
     <use xlink:href="#DejaVuSans-32" x="131.884766"/>
     <use xlink:href="#DejaVuSans-30" x="195.507812"/>
     <use xlink:href="#DejaVuSans-5d" x="259.130859"/>
    </g>
   </g>
   <g id="text_18">
    <!-- V [36] -->
    <g transform="translate(282.304403 247.773891) scale(0.1 -0.1)">
     <defs>
      <path id="DejaVuSans-56" d="M 1831 0 
L 50 4666 
L 709 4666 
L 2188 738 
L 3669 4666 
L 4325 4666 
L 2547 0 
L 1831 0 
z
" transform="scale(0.015625)"/>
     </defs>
     <use xlink:href="#DejaVuSans-56"/>
     <use xlink:href="#DejaVuSans-20" x="68.408203"/>
     <use xlink:href="#DejaVuSans-5b" x="100.195312"/>
     <use xlink:href="#DejaVuSans-33" x="139.208984"/>
     <use xlink:href="#DejaVuSans-36" x="202.832031"/>
     <use xlink:href="#DejaVuSans-5d" x="266.455078"/>
    </g>
   </g>
   <g id="text_19">
    <!-- W [7] -->
    <g transform="translate(310.73446 197.985772) scale(0.1 -0.1)">
     <defs>
      <path id="DejaVuSans-57" d="M 213 4666 
L 850 4666 
L 1831 722 
L 2809 4666 
L 3519 4666 
L 4500 722 
L 5478 4666 
L 6119 4666 
L 4947 0 
L 4153 0 
L 3169 4050 
L 2175 0 
L 1381 0 
L 213 4666 
z
" transform="scale(0.015625)"/>
     </defs>
     <use xlink:href="#DejaVuSans-57"/>
     <use xlink:href="#DejaVuSans-20" x="98.876953"/>
     <use xlink:href="#DejaVuSans-5b" x="130.664062"/>
     <use xlink:href="#DejaVuSans-37" x="169.677734"/>
     <use xlink:href="#DejaVuSans-5d" x="233.300781"/>
    </g>
   </g>
   <g id="text_20">
    <!-- Y [13] -->
    <g transform="translate(316.558682 171.812679) scale(0.1 -0.1)">
     <defs>
      <path id="DejaVuSans-59" d="M -13 4666 
L 666 4666 
L 1959 2747 
L 3244 4666 
L 3922 4666 
L 2272 2222 
L 2272 0 
L 1638 0 
L 1638 2222 
L -13 4666 
z
" transform="scale(0.015625)"/>
     </defs>
     <use xlink:href="#DejaVuSans-59"/>
     <use xlink:href="#DejaVuSans-20" x="61.083984"/>
     <use xlink:href="#DejaVuSans-5b" x="92.871094"/>
     <use xlink:href="#DejaVuSans-31" x="131.884766"/>
     <use xlink:href="#DejaVuSans-33" x="195.507812"/>
     <use xlink:href="#DejaVuSans-5d" x="259.130859"/>
    </g>
   </g>
   <g id="text_21">
    <!-- P35413 [330] -->
    <g transform="translate(135.851493 151.642845) scale(0.12 -0.12)">
     <use xlink:href="#DejaVuSans-50"/>
     <use xlink:href="#DejaVuSans-33" x="60.302734"/>
     <use xlink:href="#DejaVuSans-35" x="123.925781"/>
     <use xlink:href="#DejaVuSans-34" x="187.548828"/>
     <use xlink:href="#DejaVuSans-31" x="251.171875"/>
     <use xlink:href="#DejaVuSans-33" x="314.794922"/>
     <use xlink:href="#DejaVuSans-20" x="378.417969"/>
     <use xlink:href="#DejaVuSans-5b" x="410.205078"/>
     <use xlink:href="#DejaVuSans-33" x="449.21875"/>
     <use xlink:href="#DejaVuSans-33" x="512.841797"/>
     <use xlink:href="#DejaVuSans-30" x="576.464844"/>
     <use xlink:href="#DejaVuSans-5d" x="640.087891"/>
    </g>
   </g>
  </g>
 </g>
</svg>
