<?xml version="1.0" encoding="utf-8" standalone="no"?>
<!DOCTYPE svg PUBLIC "-//W3C//DTD SVG 1.1//EN"
  "http://www.w3.org/Graphics/SVG/1.1/DTD/svg11.dtd">
<svg xmlns:xlink="http://www.w3.org/1999/xlink" width="351.124718pt" height="304.676004pt" viewBox="0 0 351.124718 304.676004" xmlns="http://www.w3.org/2000/svg" version="1.1">
 <metadata>
  <rdf:RDF xmlns:dc="http://purl.org/dc/elements/1.1/" xmlns:cc="http://creativecommons.org/ns#" xmlns:rdf="http://www.w3.org/1999/02/22-rdf-syntax-ns#">
   <cc:Work>
    <dc:type rdf:resource="http://purl.org/dc/dcmitype/StillImage"/>
    <dc:date>2024-09-27T16:07:08.006006</dc:date>
    <dc:format>image/svg+xml</dc:format>
    <dc:creator>
     <cc:Agent>
      <dc:title>Matplotlib v3.8.3, https://matplotlib.org/</dc:title>
     </cc:Agent>
    </dc:creator>
   </cc:Work>
  </rdf:RDF>
 </metadata>
 <defs>
  <style type="text/css">*{stroke-linejoin: round; stroke-linecap: butt}</style>
 </defs>
 <g id="figure_1">
  <g id="patch_1">
   <path d="M 0 304.676004 
L 351.124718 304.676004 
L 351.124718 0 
L 0 0 
z
" style="fill: #ffffff"/>
  </g>
  <g id="axes_1">
   <g id="patch_2">
    <path d="M 302.375983 151.625099 
C 302.375983 134.953555 299.11208 118.442146 292.768833 103.024507 
C 286.425585 87.606869 277.124849 73.579182 265.392534 61.734641 
L 174.642223 151.625099 
z
" style="fill: #1f77b4"/>
   </g>
   <g id="patch_3">
    <path d="M 265.229339 61.518787 
C 261.519884 57.773849 257.582173 54.262112 253.438799 51.003727 
C 249.295425 47.745342 244.954328 44.746552 240.440417 42.024563 
L 174.479028 151.409245 
z
" style="fill: #ff7f0e"/>
   </g>
   <g id="patch_4">
    <path d="M 240.355297 41.96986 
C 237.925279 40.504505 235.447107 39.120533 232.924904 37.820247 
C 230.402701 36.519962 227.83787 35.304084 225.234679 34.174639 
L 174.393908 151.354542 
z
" style="fill: #aec7e8"/>
   </g>
   <g id="patch_5">
    <path d="M 225.183895 34.151739 
C 223.69645 33.506382 222.196852 32.889405 220.685916 32.301144 
C 219.17498 31.712883 217.65298 31.153445 216.120744 30.623133 
L 174.343124 151.331641 
z
" style="fill: #ffbb78"/>
   </g>
   <g id="patch_6">
    <path d="M 216.043256 30.599577 
C 211.445437 29.008256 206.760451 27.680933 202.011206 26.624097 
C 197.26196 25.567261 192.456209 24.782638 187.61745 24.274063 
L 174.265635 151.308084 
z
" style="fill: #98df8a"/>
   </g>
   <g id="patch_7">
    <path d="M 187.431118 24.266076 
C 177.341231 23.205586 167.160834 23.350972 157.105345 24.699157 
C 147.049856 26.047341 137.190704 28.588748 127.73651 32.269601 
L 174.079304 151.300097 
z
" style="fill: #2ca02c"/>
   </g>
   <g id="patch_8">
    <path d="M 127.586141 32.312977 
C 125.319652 33.195402 123.078829 34.142382 120.866412 35.152759 
C 118.653996 36.163135 116.470889 37.236497 114.319762 38.37153 
L 173.928935 151.343473 
z
" style="fill: #d62728"/>
   </g>
   <g id="patch_9">
    <path d="M 114.223938 38.428077 
C 108.485218 41.456088 102.985556 44.916974 97.772724 48.78067 
C 92.559893 52.644366 87.649031 56.899652 83.082799 61.509563 
L 173.83311 151.40002 
z
" style="fill: #9467bd"/>
   </g>
   <g id="patch_10">
    <path d="M 83.004198 61.581016 
C 81.577872 63.020986 80.186021 64.494699 78.829827 66.000905 
C 77.473633 67.507111 76.15348 69.045383 74.870491 70.614413 
L 173.754509 151.471474 
z
" style="fill: #ff9896"/>
   </g>
   <g id="patch_11">
    <path d="M 74.746494 70.854934 
C 62.11707 86.300067 53.280227 104.491482 48.946524 123.966427 
C 44.61282 143.441373 44.901612 163.663488 49.789677 183.006738 
L 173.630512 151.711995 
z
" style="fill: #c5b0d5"/>
   </g>
   <g id="patch_12">
    <path d="M 49.806241 183.296418 
C 50.700154 186.833845 51.745222 190.331347 52.938571 193.779301 
C 54.131919 197.227255 55.472453 200.622495 56.956483 203.955681 
L 173.647077 152.001675 
z
" style="fill: #c49c94"/>
   </g>
   <g id="patch_13">
    <path d="M 56.993532 204.038896 
C 58.477562 207.372081 60.103726 210.640151 61.867549 213.834113 
C 63.631373 217.028075 65.531237 220.144998 67.561913 223.176305 
L 173.684126 152.08489 
z
" style="fill: #8c564b"/>
   </g>
   <g id="patch_14">
    <path d="M 67.646141 223.289943 
C 71.935389 229.692748 76.795312 235.694253 82.166416 241.220989 
C 87.537521 246.747724 93.397799 251.777044 99.675509 256.247381 
L 173.768354 152.198528 
z
" style="fill: #e377c2"/>
   </g>
   <g id="patch_15">
    <path d="M 99.778019 256.329587 
C 102.089499 257.975584 104.455187 259.544099 106.871145 261.03252 
C 109.287102 262.520942 111.751988 263.928443 114.261697 265.25268 
L 173.870863 152.280734 
z
" style="fill: #7f7f7f"/>
   </g>
   <g id="patch_16">
    <path d="M 114.33836 265.291742 
C 117.924005 267.183692 121.597692 268.903862 125.346942 270.446408 
C 129.096192 271.988954 132.916756 273.352129 136.795658 274.531301 
L 173.947526 152.319795 
z
" style="fill: #f7b6d2"/>
   </g>
   <g id="patch_17">
    <path d="M 136.967776 274.570463 
C 146.674627 277.521311 156.698566 279.305205 166.827485 279.884397 
C 176.956404 280.463589 187.118352 279.833965 197.098302 278.008847 
L 174.119645 152.358957 
z
" style="fill: #c7c7c7"/>
   </g>
   <g id="patch_18">
    <path d="M 197.312304 277.977037 
C 204.493796 276.663697 211.549491 274.737086 218.401849 272.218377 
C 225.254207 269.699669 231.878033 266.598123 238.200534 262.947824 
L 174.333646 152.327148 
z
" style="fill: #dbdb8d"/>
   </g>
   <g id="patch_19">
    <path d="M 238.419145 262.79681 
C 250.733734 255.686978 261.7751 246.570454 271.086999 235.823949 
C 280.398897 225.077444 287.851274 212.851045 293.136188 199.649965 
L 174.552257 152.176134 
z
" style="fill: #bcbd22"/>
   </g>
   <g id="patch_20">
    <path d="M 293.240135 199.465899 
C 294.294782 196.831517 295.261351 194.162723 296.138232 191.463958 
C 297.015114 188.765194 297.801821 186.037959 298.497044 183.286793 
L 174.656204 151.992067 
z
" style="fill: #17becf"/>
   </g>
   <g id="patch_21">
    <path d="M 298.519022 183.188027 
C 299.810442 178.077562 300.78429 172.892055 301.434977 167.661258 
C 302.085663 162.430462 302.411943 157.164401 302.411942 151.893289 
L 174.678182 151.893301 
z
" style="fill: #9edae5"/>
   </g>
   <g id="patch_22">
    <path d="M 248.661389 151.827601 
C 248.661389 142.102534 246.757446 132.470879 243.057218 123.477256 
C 239.35699 114.483634 233.931561 106.300816 227.08771 99.391501 
L 174.150029 151.827601 
z
" style="fill: #ffffff"/>
   </g>
   <g id="patch_23">
    <path d="M 227.08771 99.391501 
C 224.923862 97.206953 222.626863 95.15844 220.209895 93.257716 
C 217.792927 91.356991 215.260621 89.607697 212.627506 88.01987 
L 174.150029 151.827601 
z
" style="fill: #ffffff"/>
   </g>
   <g id="patch_24">
    <path d="M 212.627506 88.01987 
C 211.209995 87.16508 209.764395 86.357763 208.29311 85.599263 
C 206.821825 84.840763 205.325673 84.131501 203.807145 83.472658 
L 174.150029 151.827601 
z
" style="fill: #ffffff"/>
   </g>
   <g id="patch_25">
    <path d="M 203.807145 83.472658 
C 202.939469 83.0962 202.064703 82.736297 201.183324 82.393145 
C 200.301945 82.049993 199.414112 81.723654 198.520307 81.414305 
L 174.150029 151.827601 
z
" style="fill: #ffffff"/>
   </g>
   <g id="patch_26">
    <path d="M 198.520307 81.414305 
C 195.838247 80.486035 193.105338 79.711763 190.334945 79.095275 
C 187.564552 78.478787 184.761196 78.02109 181.938587 77.724422 
L 174.150029 151.827601 
z
" style="fill: #ffffff"/>
   </g>
   <g id="patch_27">
    <path d="M 181.938587 77.724422 
C 176.05282 77.105803 170.114255 77.190611 164.248553 77.977052 
C 158.382851 78.763493 152.631679 80.245981 147.116733 82.393145 
L 174.150029 151.827601 
z
" style="fill: #ffffff"/>
   </g>
   <g id="patch_28">
    <path d="M 147.116733 82.393145 
C 145.794614 82.907893 144.487467 83.460298 143.196891 84.049684 
C 141.906314 84.639071 140.632835 85.265198 139.378011 85.927301 
L 174.150029 151.827601 
z
" style="fill: #ffffff"/>
   </g>
   <g id="patch_29">
    <path d="M 139.378011 85.927301 
C 136.030425 87.693641 132.822288 89.712491 129.78147 91.966313 
C 126.740652 94.220136 123.875983 96.702386 121.212347 99.391501 
L 174.150029 151.827601 
z
" style="fill: #ffffff"/>
   </g>
   <g id="patch_30">
    <path d="M 121.212347 99.391501 
C 120.380324 100.231483 119.56841 101.091149 118.777297 101.969769 
C 117.986184 102.84839 117.216095 103.745715 116.467685 104.660982 
L 174.150029 151.827601 
z
" style="fill: #ffffff"/>
   </g>
   <g id="patch_31">
    <path d="M 116.467685 104.660982 
C 109.100521 113.670644 103.945696 124.282302 101.417702 135.642687 
C 98.889709 147.003072 99.05817 158.799306 101.909541 170.082868 
L 174.150029 151.827601 
z
" style="fill: #ffffff"/>
   </g>
   <g id="patch_32">
    <path d="M 101.909541 170.082868 
C 102.43099 172.146367 103.040614 174.186577 103.736734 176.197883 
C 104.432854 178.20919 105.214832 180.189747 106.080516 182.134105 
L 174.150029 151.827601 
z
" style="fill: #ffffff"/>
   </g>
   <g id="patch_33">
    <path d="M 106.080516 182.134105 
C 106.9462 184.078463 107.894795 185.984837 108.923692 187.847981 
C 109.952589 189.711126 111.060843 191.529331 112.245404 193.297593 
L 174.150029 151.827601 
z
" style="fill: #ffffff"/>
   </g>
   <g id="patch_34">
    <path d="M 112.245404 193.297593 
C 114.747466 197.032563 117.582421 200.533441 120.715565 203.75737 
C 123.848709 206.981299 127.267205 209.915069 130.929203 212.522765 
L 174.150029 151.827601 
z
" style="fill: #ffffff"/>
   </g>
   <g id="patch_35">
    <path d="M 130.929203 212.522765 
C 132.277566 213.482931 133.657551 214.397898 135.066859 215.266143 
C 136.476168 216.134389 137.914018 216.955431 139.378015 217.727903 
L 174.150029 151.827601 
z
" style="fill: #ffffff"/>
   </g>
   <g id="patch_36">
    <path d="M 139.378015 217.727903 
C 141.469642 218.831541 143.612625 219.834973 145.799688 220.734792 
C 147.98675 221.63461 150.215413 222.429795 152.478106 223.117646 
L 174.150029 151.827601 
z
" style="fill: #ffffff"/>
   </g>
   <g id="patch_37">
    <path d="M 152.478106 223.117646 
C 158.140435 224.838974 163.987733 225.879579 169.896269 226.217441 
C 175.804805 226.555303 181.732608 226.188022 187.554246 225.12337 
L 174.150029 151.827601 
z
" style="fill: #ffffff"/>
   </g>
   <g id="patch_38">
    <path d="M 187.554246 225.12337 
C 191.74345 224.357255 195.859272 223.233398 199.85648 221.764152 
C 203.853689 220.294905 207.717588 218.48567 211.405713 216.356329 
L 174.150029 151.827601 
z
" style="fill: #ffffff"/>
   </g>
   <g id="patch_39">
    <path d="M 211.405713 216.356329 
C 218.589224 212.208927 225.030021 206.890955 230.461961 200.62216 
C 235.893902 194.353366 240.241122 187.221299 243.323989 179.52067 
L 174.150029 151.827601 
z
" style="fill: #ffffff"/>
   </g>
   <g id="patch_40">
    <path d="M 243.323989 179.52067 
C 243.939199 177.983947 244.503031 176.42715 245.014545 174.852871 
C 245.526059 173.278592 245.984972 171.687705 246.390519 170.082858 
L 174.150029 151.827601 
z
" style="fill: #ffffff"/>
   </g>
   <g id="patch_41">
    <path d="M 246.390519 170.082858 
C 247.143847 167.101753 247.711925 164.076874 248.091492 161.025576 
C 248.471059 157.974279 248.661389 154.902409 248.661389 151.827594 
L 174.150029 151.827601 
z
" style="fill: #ffffff"/>
   </g>
   <g id="matplotlib.axis_1"/>
   <g id="matplotlib.axis_2"/>
   <g id="text_1">
    <!-- A [41] -->
    <g transform="translate(304.581494 100.923823) scale(0.1 -0.1)">
     <defs>
      <path id="DejaVuSans-41" d="M 2188 4044 
L 1331 1722 
L 3047 1722 
L 2188 4044 
z
M 1831 4666 
L 2547 4666 
L 4325 0 
L 3669 0 
L 3244 1197 
L 1141 1197 
L 716 0 
L 50 0 
L 1831 4666 
z
" transform="scale(0.015625)"/>
      <path id="DejaVuSans-20" transform="scale(0.015625)"/>
      <path id="DejaVuSans-5b" d="M 550 4863 
L 1875 4863 
L 1875 4416 
L 1125 4416 
L 1125 -397 
L 1875 -397 
L 1875 -844 
L 550 -844 
L 550 4863 
z
" transform="scale(0.015625)"/>
      <path id="DejaVuSans-34" d="M 2419 4116 
L 825 1625 
L 2419 1625 
L 2419 4116 
z
M 2253 4666 
L 3047 4666 
L 3047 1625 
L 3713 1625 
L 3713 1100 
L 3047 1100 
L 3047 0 
L 2419 0 
L 2419 1100 
L 313 1100 
L 313 1709 
L 2253 4666 
z
" transform="scale(0.015625)"/>
      <path id="DejaVuSans-31" d="M 794 531 
L 1825 531 
L 1825 4091 
L 703 3866 
L 703 4441 
L 1819 4666 
L 2450 4666 
L 2450 531 
L 3481 531 
L 3481 0 
L 794 0 
L 794 531 
z
" transform="scale(0.015625)"/>
      <path id="DejaVuSans-5d" d="M 1947 4863 
L 1947 -844 
L 622 -844 
L 622 -397 
L 1369 -397 
L 1369 4416 
L 622 4416 
L 622 4863 
L 1947 4863 
z
" transform="scale(0.015625)"/>
     </defs>
     <use xlink:href="#DejaVuSans-41"/>
     <use xlink:href="#DejaVuSans-20" x="68.408203"/>
     <use xlink:href="#DejaVuSans-5b" x="100.195312"/>
     <use xlink:href="#DejaVuSans-34" x="139.208984"/>
     <use xlink:href="#DejaVuSans-31" x="202.832031"/>
     <use xlink:href="#DejaVuSans-5d" x="266.455078"/>
    </g>
   </g>
   <g id="text_2">
    <!-- C [13] -->
    <g transform="translate(261.334776 43.72255) scale(0.1 -0.1)">
     <defs>
      <path id="DejaVuSans-43" d="M 4122 4306 
L 4122 3641 
Q 3803 3938 3442 4084 
Q 3081 4231 2675 4231 
Q 1875 4231 1450 3742 
Q 1025 3253 1025 2328 
Q 1025 1406 1450 917 
Q 1875 428 2675 428 
Q 3081 428 3442 575 
Q 3803 722 4122 1019 
L 4122 359 
Q 3791 134 3420 21 
Q 3050 -91 2638 -91 
Q 1578 -91 968 557 
Q 359 1206 359 2328 
Q 359 3453 968 4101 
Q 1578 4750 2638 4750 
Q 3056 4750 3426 4639 
Q 3797 4528 4122 4306 
z
" transform="scale(0.015625)"/>
      <path id="DejaVuSans-33" d="M 2597 2516 
Q 3050 2419 3304 2112 
Q 3559 1806 3559 1356 
Q 3559 666 3084 287 
Q 2609 -91 1734 -91 
Q 1441 -91 1130 -33 
Q 819 25 488 141 
L 488 750 
Q 750 597 1062 519 
Q 1375 441 1716 441 
Q 2309 441 2620 675 
Q 2931 909 2931 1356 
Q 2931 1769 2642 2001 
Q 2353 2234 1838 2234 
L 1294 2234 
L 1294 2753 
L 1863 2753 
Q 2328 2753 2575 2939 
Q 2822 3125 2822 3475 
Q 2822 3834 2567 4026 
Q 2313 4219 1838 4219 
Q 1578 4219 1281 4162 
Q 984 4106 628 3988 
L 628 4550 
Q 988 4650 1302 4700 
Q 1616 4750 1894 4750 
Q 2613 4750 3031 4423 
Q 3450 4097 3450 3541 
Q 3450 3153 3228 2886 
Q 3006 2619 2597 2516 
z
" transform="scale(0.015625)"/>
     </defs>
     <use xlink:href="#DejaVuSans-43"/>
     <use xlink:href="#DejaVuSans-20" x="69.824219"/>
     <use xlink:href="#DejaVuSans-5b" x="101.611328"/>
     <use xlink:href="#DejaVuSans-31" x="140.625"/>
     <use xlink:href="#DejaVuSans-33" x="204.248047"/>
     <use xlink:href="#DejaVuSans-5d" x="267.871094"/>
    </g>
   </g>
   <g id="text_3">
    <!-- D [7] -->
    <g transform="translate(238.778004 29.226193) scale(0.1 -0.1)">
     <defs>
      <path id="DejaVuSans-44" d="M 1259 4147 
L 1259 519 
L 2022 519 
Q 2988 519 3436 956 
Q 3884 1394 3884 2338 
Q 3884 3275 3436 3711 
Q 2988 4147 2022 4147 
L 1259 4147 
z
M 628 4666 
L 1925 4666 
Q 3281 4666 3915 4102 
Q 4550 3538 4550 2338 
Q 4550 1131 3912 565 
Q 3275 0 1925 0 
L 628 0 
L 628 4666 
z
" transform="scale(0.015625)"/>
      <path id="DejaVuSans-37" d="M 525 4666 
L 3525 4666 
L 3525 4397 
L 1831 0 
L 1172 0 
L 2766 4134 
L 525 4134 
L 525 4666 
z
" transform="scale(0.015625)"/>
     </defs>
     <use xlink:href="#DejaVuSans-44"/>
     <use xlink:href="#DejaVuSans-20" x="77.001953"/>
     <use xlink:href="#DejaVuSans-5b" x="108.789062"/>
     <use xlink:href="#DejaVuSans-37" x="147.802734"/>
     <use xlink:href="#DejaVuSans-5d" x="211.425781"/>
    </g>
   </g>
   <g id="text_4">
    <!-- E [4] -->
    <g transform="translate(225.320195 23.15747) scale(0.1 -0.1)">
     <defs>
      <path id="DejaVuSans-45" d="M 628 4666 
L 3578 4666 
L 3578 4134 
L 1259 4134 
L 1259 2753 
L 3481 2753 
L 3481 2222 
L 1259 2222 
L 1259 531 
L 3634 531 
L 3634 0 
L 628 0 
L 628 4666 
z
" transform="scale(0.015625)"/>
     </defs>
     <use xlink:href="#DejaVuSans-45"/>
     <use xlink:href="#DejaVuSans-20" x="63.183594"/>
     <use xlink:href="#DejaVuSans-5b" x="94.970703"/>
     <use xlink:href="#DejaVuSans-34" x="133.984375"/>
     <use xlink:href="#DejaVuSans-5d" x="197.607422"/>
    </g>
   </g>
   <g id="text_5">
    <!-- F [12] -->
    <g transform="translate(204.785763 16.915073) scale(0.1 -0.1)">
     <defs>
      <path id="DejaVuSans-46" d="M 628 4666 
L 3309 4666 
L 3309 4134 
L 1259 4134 
L 1259 2759 
L 3109 2759 
L 3109 2228 
L 1259 2228 
L 1259 0 
L 628 0 
L 628 4666 
z
" transform="scale(0.015625)"/>
      <path id="DejaVuSans-32" d="M 1228 531 
L 3431 531 
L 3431 0 
L 469 0 
L 469 531 
Q 828 903 1448 1529 
Q 2069 2156 2228 2338 
Q 2531 2678 2651 2914 
Q 2772 3150 2772 3378 
Q 2772 3750 2511 3984 
Q 2250 4219 1831 4219 
Q 1534 4219 1204 4116 
Q 875 4013 500 3803 
L 500 4441 
Q 881 4594 1212 4672 
Q 1544 4750 1819 4750 
Q 2544 4750 2975 4387 
Q 3406 4025 3406 3419 
Q 3406 3131 3298 2873 
Q 3191 2616 2906 2266 
Q 2828 2175 2409 1742 
Q 1991 1309 1228 531 
z
" transform="scale(0.015625)"/>
     </defs>
     <use xlink:href="#DejaVuSans-46"/>
     <use xlink:href="#DejaVuSans-20" x="57.519531"/>
     <use xlink:href="#DejaVuSans-5b" x="89.306641"/>
     <use xlink:href="#DejaVuSans-31" x="128.320312"/>
     <use xlink:href="#DejaVuSans-32" x="191.943359"/>
     <use xlink:href="#DejaVuSans-5d" x="255.566406"/>
    </g>
   </g>
   <g id="text_6">
    <!-- G [25] -->
    <g transform="translate(123.953262 14.798437) scale(0.1 -0.1)">
     <defs>
      <path id="DejaVuSans-47" d="M 3809 666 
L 3809 1919 
L 2778 1919 
L 2778 2438 
L 4434 2438 
L 4434 434 
Q 4069 175 3628 42 
Q 3188 -91 2688 -91 
Q 1594 -91 976 548 
Q 359 1188 359 2328 
Q 359 3472 976 4111 
Q 1594 4750 2688 4750 
Q 3144 4750 3555 4637 
Q 3966 4525 4313 4306 
L 4313 3634 
Q 3963 3931 3569 4081 
Q 3175 4231 2741 4231 
Q 1884 4231 1454 3753 
Q 1025 3275 1025 2328 
Q 1025 1384 1454 906 
Q 1884 428 2741 428 
Q 3075 428 3337 486 
Q 3600 544 3809 666 
z
" transform="scale(0.015625)"/>
      <path id="DejaVuSans-35" d="M 691 4666 
L 3169 4666 
L 3169 4134 
L 1269 4134 
L 1269 2991 
Q 1406 3038 1543 3061 
Q 1681 3084 1819 3084 
Q 2600 3084 3056 2656 
Q 3513 2228 3513 1497 
Q 3513 744 3044 326 
Q 2575 -91 1722 -91 
Q 1428 -91 1123 -41 
Q 819 9 494 109 
L 494 744 
Q 775 591 1075 516 
Q 1375 441 1709 441 
Q 2250 441 2565 725 
Q 2881 1009 2881 1497 
Q 2881 1984 2565 2268 
Q 2250 2553 1709 2553 
Q 1456 2553 1204 2497 
Q 953 2441 691 2322 
L 691 4666 
z
" transform="scale(0.015625)"/>
     </defs>
     <use xlink:href="#DejaVuSans-47"/>
     <use xlink:href="#DejaVuSans-20" x="77.490234"/>
     <use xlink:href="#DejaVuSans-5b" x="109.277344"/>
     <use xlink:href="#DejaVuSans-32" x="148.291016"/>
     <use xlink:href="#DejaVuSans-35" x="211.914062"/>
     <use xlink:href="#DejaVuSans-5d" x="275.537109"/>
    </g>
   </g>
   <g id="text_7">
    <!-- H [6] -->
    <g transform="translate(90.696098 26.293062) scale(0.1 -0.1)">
     <defs>
      <path id="DejaVuSans-48" d="M 628 4666 
L 1259 4666 
L 1259 2753 
L 3553 2753 
L 3553 4666 
L 4184 4666 
L 4184 0 
L 3553 0 
L 3553 2222 
L 1259 2222 
L 1259 0 
L 628 0 
L 628 4666 
z
" transform="scale(0.015625)"/>
      <path id="DejaVuSans-36" d="M 2113 2584 
Q 1688 2584 1439 2293 
Q 1191 2003 1191 1497 
Q 1191 994 1439 701 
Q 1688 409 2113 409 
Q 2538 409 2786 701 
Q 3034 994 3034 1497 
Q 3034 2003 2786 2293 
Q 2538 2584 2113 2584 
z
M 3366 4563 
L 3366 3988 
Q 3128 4100 2886 4159 
Q 2644 4219 2406 4219 
Q 1781 4219 1451 3797 
Q 1122 3375 1075 2522 
Q 1259 2794 1537 2939 
Q 1816 3084 2150 3084 
Q 2853 3084 3261 2657 
Q 3669 2231 3669 1497 
Q 3669 778 3244 343 
Q 2819 -91 2113 -91 
Q 1303 -91 875 529 
Q 447 1150 447 2328 
Q 447 3434 972 4092 
Q 1497 4750 2381 4750 
Q 2619 4750 2861 4703 
Q 3103 4656 3366 4563 
z
" transform="scale(0.015625)"/>
     </defs>
     <use xlink:href="#DejaVuSans-48"/>
     <use xlink:href="#DejaVuSans-20" x="75.195312"/>
     <use xlink:href="#DejaVuSans-5b" x="106.982422"/>
     <use xlink:href="#DejaVuSans-36" x="145.996094"/>
     <use xlink:href="#DejaVuSans-5d" x="209.619141"/>
    </g>
   </g>
   <g id="text_8">
    <!-- I [16] -->
    <g transform="translate(63.510436 41.27811) scale(0.1 -0.1)">
     <defs>
      <path id="DejaVuSans-49" d="M 628 4666 
L 1259 4666 
L 1259 0 
L 628 0 
L 628 4666 
z
" transform="scale(0.015625)"/>
     </defs>
     <use xlink:href="#DejaVuSans-49"/>
     <use xlink:href="#DejaVuSans-20" x="29.492188"/>
     <use xlink:href="#DejaVuSans-5b" x="61.279297"/>
     <use xlink:href="#DejaVuSans-31" x="100.292969"/>
     <use xlink:href="#DejaVuSans-36" x="163.916016"/>
     <use xlink:href="#DejaVuSans-5d" x="227.539062"/>
    </g>
   </g>
   <g id="text_9">
    <!-- K [5] -->
    <g transform="translate(45.435796 60.213223) scale(0.1 -0.1)">
     <defs>
      <path id="DejaVuSans-4b" d="M 628 4666 
L 1259 4666 
L 1259 2694 
L 3353 4666 
L 4166 4666 
L 1850 2491 
L 4331 0 
L 3500 0 
L 1259 2247 
L 1259 0 
L 628 0 
L 628 4666 
z
" transform="scale(0.015625)"/>
     </defs>
     <use xlink:href="#DejaVuSans-4b"/>
     <use xlink:href="#DejaVuSans-20" x="65.576172"/>
     <use xlink:href="#DejaVuSans-5b" x="97.363281"/>
     <use xlink:href="#DejaVuSans-35" x="136.376953"/>
     <use xlink:href="#DejaVuSans-5d" x="200"/>
    </g>
   </g>
   <g id="text_10">
    <!-- L [49] -->
    <g transform="translate(7.2 123.951245) scale(0.1 -0.1)">
     <defs>
      <path id="DejaVuSans-4c" d="M 628 4666 
L 1259 4666 
L 1259 531 
L 3531 531 
L 3531 0 
L 628 0 
L 628 4666 
z
" transform="scale(0.015625)"/>
      <path id="DejaVuSans-39" d="M 703 97 
L 703 672 
Q 941 559 1184 500 
Q 1428 441 1663 441 
Q 2288 441 2617 861 
Q 2947 1281 2994 2138 
Q 2813 1869 2534 1725 
Q 2256 1581 1919 1581 
Q 1219 1581 811 2004 
Q 403 2428 403 3163 
Q 403 3881 828 4315 
Q 1253 4750 1959 4750 
Q 2769 4750 3195 4129 
Q 3622 3509 3622 2328 
Q 3622 1225 3098 567 
Q 2575 -91 1691 -91 
Q 1453 -91 1209 -44 
Q 966 3 703 97 
z
M 1959 2075 
Q 2384 2075 2632 2365 
Q 2881 2656 2881 3163 
Q 2881 3666 2632 3958 
Q 2384 4250 1959 4250 
Q 1534 4250 1286 3958 
Q 1038 3666 1038 3163 
Q 1038 2656 1286 2365 
Q 1534 2075 1959 2075 
z
" transform="scale(0.015625)"/>
     </defs>
     <use xlink:href="#DejaVuSans-4c"/>
     <use xlink:href="#DejaVuSans-20" x="55.712891"/>
     <use xlink:href="#DejaVuSans-5b" x="87.5"/>
     <use xlink:href="#DejaVuSans-34" x="126.513672"/>
     <use xlink:href="#DejaVuSans-39" x="190.136719"/>
     <use xlink:href="#DejaVuSans-5d" x="253.759766"/>
    </g>
   </g>
   <g id="text_11">
    <!-- M [9] -->
    <g transform="translate(14.895845 200.716438) scale(0.1 -0.1)">
     <defs>
      <path id="DejaVuSans-4d" d="M 628 4666 
L 1569 4666 
L 2759 1491 
L 3956 4666 
L 4897 4666 
L 4897 0 
L 4281 0 
L 4281 4097 
L 3078 897 
L 2444 897 
L 1241 4097 
L 1241 0 
L 628 0 
L 628 4666 
z
" transform="scale(0.015625)"/>
     </defs>
     <use xlink:href="#DejaVuSans-4d"/>
     <use xlink:href="#DejaVuSans-20" x="86.279297"/>
     <use xlink:href="#DejaVuSans-5b" x="118.066406"/>
     <use xlink:href="#DejaVuSans-39" x="157.080078"/>
     <use xlink:href="#DejaVuSans-5d" x="220.703125"/>
    </g>
   </g>
   <g id="text_12">
    <!-- N [9] -->
    <g transform="translate(25.860892 222.76841) scale(0.1 -0.1)">
     <defs>
      <path id="DejaVuSans-4e" d="M 628 4666 
L 1478 4666 
L 3547 763 
L 3547 4666 
L 4159 4666 
L 4159 0 
L 3309 0 
L 1241 3903 
L 1241 0 
L 628 0 
L 628 4666 
z
" transform="scale(0.015625)"/>
     </defs>
     <use xlink:href="#DejaVuSans-4e"/>
     <use xlink:href="#DejaVuSans-20" x="74.804688"/>
     <use xlink:href="#DejaVuSans-5b" x="106.591797"/>
     <use xlink:href="#DejaVuSans-39" x="145.605469"/>
     <use xlink:href="#DejaVuSans-5d" x="209.228516"/>
    </g>
   </g>
   <g id="text_13">
    <!-- P [19] -->
    <g transform="translate(43.270285 252.88261) scale(0.1 -0.1)">
     <defs>
      <path id="DejaVuSans-50" d="M 1259 4147 
L 1259 2394 
L 2053 2394 
Q 2494 2394 2734 2622 
Q 2975 2850 2975 3272 
Q 2975 3691 2734 3919 
Q 2494 4147 2053 4147 
L 1259 4147 
z
M 628 4666 
L 2053 4666 
Q 2838 4666 3239 4311 
Q 3641 3956 3641 3272 
Q 3641 2581 3239 2228 
Q 2838 1875 2053 1875 
L 1259 1875 
L 1259 0 
L 628 0 
L 628 4666 
z
" transform="scale(0.015625)"/>
     </defs>
     <use xlink:href="#DejaVuSans-50"/>
     <use xlink:href="#DejaVuSans-20" x="60.302734"/>
     <use xlink:href="#DejaVuSans-5b" x="92.089844"/>
     <use xlink:href="#DejaVuSans-31" x="131.103516"/>
     <use xlink:href="#DejaVuSans-39" x="194.726562"/>
     <use xlink:href="#DejaVuSans-5d" x="258.349609"/>
    </g>
   </g>
   <g id="text_14">
    <!-- Q [7] -->
    <g transform="translate(74.955548 274.667074) scale(0.1 -0.1)">
     <defs>
      <path id="DejaVuSans-51" d="M 2522 4238 
Q 1834 4238 1429 3725 
Q 1025 3213 1025 2328 
Q 1025 1447 1429 934 
Q 1834 422 2522 422 
Q 3209 422 3611 934 
Q 4013 1447 4013 2328 
Q 4013 3213 3611 3725 
Q 3209 4238 2522 4238 
z
M 3406 84 
L 4238 -825 
L 3475 -825 
L 2784 -78 
Q 2681 -84 2626 -87 
Q 2572 -91 2522 -91 
Q 1538 -91 948 567 
Q 359 1225 359 2328 
Q 359 3434 948 4092 
Q 1538 4750 2522 4750 
Q 3503 4750 4090 4092 
Q 4678 3434 4678 2328 
Q 4678 1516 4351 937 
Q 4025 359 3406 84 
z
" transform="scale(0.015625)"/>
     </defs>
     <use xlink:href="#DejaVuSans-51"/>
     <use xlink:href="#DejaVuSans-20" x="78.710938"/>
     <use xlink:href="#DejaVuSans-5b" x="110.498047"/>
     <use xlink:href="#DejaVuSans-37" x="149.511719"/>
     <use xlink:href="#DejaVuSans-5d" x="213.134766"/>
    </g>
   </g>
   <g id="text_15">
    <!-- R [10] -->
    <g transform="translate(89.832196 285.018444) scale(0.1 -0.1)">
     <defs>
      <path id="DejaVuSans-52" d="M 2841 2188 
Q 3044 2119 3236 1894 
Q 3428 1669 3622 1275 
L 4263 0 
L 3584 0 
L 2988 1197 
Q 2756 1666 2539 1819 
Q 2322 1972 1947 1972 
L 1259 1972 
L 1259 0 
L 628 0 
L 628 4666 
L 2053 4666 
Q 2853 4666 3247 4331 
Q 3641 3997 3641 3322 
Q 3641 2881 3436 2590 
Q 3231 2300 2841 2188 
z
M 1259 4147 
L 1259 2491 
L 2053 2491 
Q 2509 2491 2742 2702 
Q 2975 2913 2975 3322 
Q 2975 3731 2742 3939 
Q 2509 4147 2053 4147 
L 1259 4147 
z
" transform="scale(0.015625)"/>
      <path id="DejaVuSans-30" d="M 2034 4250 
Q 1547 4250 1301 3770 
Q 1056 3291 1056 2328 
Q 1056 1369 1301 889 
Q 1547 409 2034 409 
Q 2525 409 2770 889 
Q 3016 1369 3016 2328 
Q 3016 3291 2770 3770 
Q 2525 4250 2034 4250 
z
M 2034 4750 
Q 2819 4750 3233 4129 
Q 3647 3509 3647 2328 
Q 3647 1150 3233 529 
Q 2819 -91 2034 -91 
Q 1250 -91 836 529 
Q 422 1150 422 2328 
Q 422 3509 836 4129 
Q 1250 4750 2034 4750 
z
" transform="scale(0.015625)"/>
     </defs>
     <use xlink:href="#DejaVuSans-52"/>
     <use xlink:href="#DejaVuSans-20" x="69.482422"/>
     <use xlink:href="#DejaVuSans-5b" x="101.269531"/>
     <use xlink:href="#DejaVuSans-31" x="140.283203"/>
     <use xlink:href="#DejaVuSans-30" x="203.90625"/>
     <use xlink:href="#DejaVuSans-5d" x="267.529297"/>
    </g>
   </g>
   <g id="text_16">
    <!-- S [25] -->
    <g transform="translate(136.043581 295.396316) scale(0.1 -0.1)">
     <defs>
      <path id="DejaVuSans-53" d="M 3425 4513 
L 3425 3897 
Q 3066 4069 2747 4153 
Q 2428 4238 2131 4238 
Q 1616 4238 1336 4038 
Q 1056 3838 1056 3469 
Q 1056 3159 1242 3001 
Q 1428 2844 1947 2747 
L 2328 2669 
Q 3034 2534 3370 2195 
Q 3706 1856 3706 1288 
Q 3706 609 3251 259 
Q 2797 -91 1919 -91 
Q 1588 -91 1214 -16 
Q 841 59 441 206 
L 441 856 
Q 825 641 1194 531 
Q 1563 422 1919 422 
Q 2459 422 2753 634 
Q 3047 847 3047 1241 
Q 3047 1584 2836 1778 
Q 2625 1972 2144 2069 
L 1759 2144 
Q 1053 2284 737 2584 
Q 422 2884 422 3419 
Q 422 4038 858 4394 
Q 1294 4750 2059 4750 
Q 2388 4750 2728 4690 
Q 3069 4631 3425 4513 
z
" transform="scale(0.015625)"/>
     </defs>
     <use xlink:href="#DejaVuSans-53"/>
     <use xlink:href="#DejaVuSans-20" x="63.476562"/>
     <use xlink:href="#DejaVuSans-5b" x="95.263672"/>
     <use xlink:href="#DejaVuSans-32" x="134.277344"/>
     <use xlink:href="#DejaVuSans-35" x="197.900391"/>
     <use xlink:href="#DejaVuSans-5d" x="261.523438"/>
    </g>
   </g>
   <g id="text_17">
    <!-- T [18] -->
    <g transform="translate(222.808669 286.966875) scale(0.1 -0.1)">
     <defs>
      <path id="DejaVuSans-54" d="M -19 4666 
L 3928 4666 
L 3928 4134 
L 2272 4134 
L 2272 0 
L 1638 0 
L 1638 4134 
L -19 4134 
L -19 4666 
z
" transform="scale(0.015625)"/>
      <path id="DejaVuSans-38" d="M 2034 2216 
Q 1584 2216 1326 1975 
Q 1069 1734 1069 1313 
Q 1069 891 1326 650 
Q 1584 409 2034 409 
Q 2484 409 2743 651 
Q 3003 894 3003 1313 
Q 3003 1734 2745 1975 
Q 2488 2216 2034 2216 
z
M 1403 2484 
Q 997 2584 770 2862 
Q 544 3141 544 3541 
Q 544 4100 942 4425 
Q 1341 4750 2034 4750 
Q 2731 4750 3128 4425 
Q 3525 4100 3525 3541 
Q 3525 3141 3298 2862 
Q 3072 2584 2669 2484 
Q 3125 2378 3379 2068 
Q 3634 1759 3634 1313 
Q 3634 634 3220 271 
Q 2806 -91 2034 -91 
Q 1263 -91 848 271 
Q 434 634 434 1313 
Q 434 1759 690 2068 
Q 947 2378 1403 2484 
z
M 1172 3481 
Q 1172 3119 1398 2916 
Q 1625 2713 2034 2713 
Q 2441 2713 2670 2916 
Q 2900 3119 2900 3481 
Q 2900 3844 2670 4047 
Q 2441 4250 2034 4250 
Q 1625 4250 1398 4047 
Q 1172 3844 1172 3481 
z
" transform="scale(0.015625)"/>
     </defs>
     <use xlink:href="#DejaVuSans-54"/>
     <use xlink:href="#DejaVuSans-20" x="61.083984"/>
     <use xlink:href="#DejaVuSans-5b" x="92.871094"/>
     <use xlink:href="#DejaVuSans-31" x="131.884766"/>
     <use xlink:href="#DejaVuSans-38" x="195.507812"/>
     <use xlink:href="#DejaVuSans-5d" x="259.130859"/>
    </g>
   </g>
   <g id="text_18">
    <!-- V [35] -->
    <g transform="translate(280.740473 246.948106) scale(0.1 -0.1)">
     <defs>
      <path id="DejaVuSans-56" d="M 1831 0 
L 50 4666 
L 709 4666 
L 2188 738 
L 3669 4666 
L 4325 4666 
L 2547 0 
L 1831 0 
z
" transform="scale(0.015625)"/>
     </defs>
     <use xlink:href="#DejaVuSans-56"/>
     <use xlink:href="#DejaVuSans-20" x="68.408203"/>
     <use xlink:href="#DejaVuSans-5b" x="100.195312"/>
     <use xlink:href="#DejaVuSans-33" x="139.208984"/>
     <use xlink:href="#DejaVuSans-35" x="202.832031"/>
     <use xlink:href="#DejaVuSans-5d" x="266.455078"/>
    </g>
   </g>
   <g id="text_19">
    <!-- W [7] -->
    <g transform="translate(308.286435 198.170522) scale(0.1 -0.1)">
     <defs>
      <path id="DejaVuSans-57" d="M 213 4666 
L 850 4666 
L 1831 722 
L 2809 4666 
L 3519 4666 
L 4500 722 
L 5478 4666 
L 6119 4666 
L 4947 0 
L 4153 0 
L 3169 4050 
L 2175 0 
L 1381 0 
L 213 4666 
z
" transform="scale(0.015625)"/>
     </defs>
     <use xlink:href="#DejaVuSans-57"/>
     <use xlink:href="#DejaVuSans-20" x="98.876953"/>
     <use xlink:href="#DejaVuSans-5b" x="130.664062"/>
     <use xlink:href="#DejaVuSans-37" x="169.677734"/>
     <use xlink:href="#DejaVuSans-5d" x="233.300781"/>
    </g>
   </g>
   <g id="text_20">
    <!-- Y [13] -->
    <g transform="translate(314.110656 171.997429) scale(0.1 -0.1)">
     <defs>
      <path id="DejaVuSans-59" d="M -13 4666 
L 666 4666 
L 1959 2747 
L 3244 4666 
L 3922 4666 
L 2272 2222 
L 2272 0 
L 1638 0 
L 1638 2222 
L -13 4666 
z
" transform="scale(0.015625)"/>
     </defs>
     <use xlink:href="#DejaVuSans-59"/>
     <use xlink:href="#DejaVuSans-20" x="61.083984"/>
     <use xlink:href="#DejaVuSans-5b" x="92.871094"/>
     <use xlink:href="#DejaVuSans-31" x="131.884766"/>
     <use xlink:href="#DejaVuSans-33" x="195.507812"/>
     <use xlink:href="#DejaVuSans-5d" x="259.130859"/>
    </g>
   </g>
   <g id="text_21">
    <!-- P46089 [330] -->
    <g transform="translate(133.403466 151.827601) scale(0.12 -0.12)">
     <use xlink:href="#DejaVuSans-50"/>
     <use xlink:href="#DejaVuSans-34" x="60.302734"/>
     <use xlink:href="#DejaVuSans-36" x="123.925781"/>
     <use xlink:href="#DejaVuSans-30" x="187.548828"/>
     <use xlink:href="#DejaVuSans-38" x="251.171875"/>
     <use xlink:href="#DejaVuSans-39" x="314.794922"/>
     <use xlink:href="#DejaVuSans-20" x="378.417969"/>
     <use xlink:href="#DejaVuSans-5b" x="410.205078"/>
     <use xlink:href="#DejaVuSans-33" x="449.21875"/>
     <use xlink:href="#DejaVuSans-33" x="512.841797"/>
     <use xlink:href="#DejaVuSans-30" x="576.464844"/>
     <use xlink:href="#DejaVuSans-5d" x="640.087891"/>
    </g>
   </g>
  </g>
 </g>
</svg>
