<?xml version="1.0" encoding="utf-8" standalone="no"?>
<!DOCTYPE svg PUBLIC "-//W3C//DTD SVG 1.1//EN"
  "http://www.w3.org/Graphics/SVG/1.1/DTD/svg11.dtd">
<svg xmlns:xlink="http://www.w3.org/1999/xlink" width="352.481626pt" height="302.917369pt" viewBox="0 0 352.481626 302.917369" xmlns="http://www.w3.org/2000/svg" version="1.1">
 <metadata>
  <rdf:RDF xmlns:dc="http://purl.org/dc/elements/1.1/" xmlns:cc="http://creativecommons.org/ns#" xmlns:rdf="http://www.w3.org/1999/02/22-rdf-syntax-ns#">
   <cc:Work>
    <dc:type rdf:resource="http://purl.org/dc/dcmitype/StillImage"/>
    <dc:date>2024-09-27T16:07:30.649128</dc:date>
    <dc:format>image/svg+xml</dc:format>
    <dc:creator>
     <cc:Agent>
      <dc:title>Matplotlib v3.8.3, https://matplotlib.org/</dc:title>
     </cc:Agent>
    </dc:creator>
   </cc:Work>
  </rdf:RDF>
 </metadata>
 <defs>
  <style type="text/css">*{stroke-linejoin: round; stroke-linecap: butt}</style>
 </defs>
 <g id="figure_1">
  <g id="patch_1">
   <path d="M -0 302.917369 
L 352.481626 302.917369 
L 352.481626 0 
L -0 0 
z
" style="fill: #ffffff"/>
  </g>
  <g id="axes_1">
   <g id="patch_2">
    <path d="M 303.85809 151.120164 
C 303.85809 138.56889 302.008135 126.085877 298.367941 114.074072 
C 294.727748 102.062267 289.336909 90.652323 282.369441 80.21255 
L 176.12433 151.120164 
z
" style="fill: #1f77b4"/>
   </g>
   <g id="patch_3">
    <path d="M 282.272692 80.030718 
C 280.022138 76.658578 277.612315 73.395495 275.051409 70.252553 
C 272.490503 67.109611 269.781416 64.090372 266.93335 61.205091 
L 176.027581 150.938332 
z
" style="fill: #ff7f0e"/>
   </g>
   <g id="patch_4">
    <path d="M 266.851557 61.124353 
C 263.226322 57.451747 259.381856 54.002205 255.339301 50.794696 
C 251.296746 47.587188 247.063529 44.627604 242.662929 41.932223 
L 175.945788 150.857594 
z
" style="fill: #aec7e8"/>
   </g>
   <g id="patch_5">
    <path d="M 242.561563 41.868923 
C 238.789926 39.558783 234.900848 37.446096 230.910046 35.539401 
C 226.919245 33.632705 222.832103 31.934573 218.665141 30.451868 
L 175.844422 150.794294 
z
" style="fill: #ffbb78"/>
   </g>
   <g id="patch_6">
    <path d="M 218.520551 30.40668 
C 211.224992 27.810745 203.708461 25.883602 196.063856 24.649066 
C 188.419251 23.414531 180.678195 22.877712 172.936361 23.045243 
L 175.699832 150.749106 
z
" style="fill: #98df8a"/>
   </g>
   <g id="patch_7">
    <path d="M 172.75305 23.047623 
C 165.749405 23.199179 158.770083 23.926629 151.885721 25.222609 
C 145.00136 26.51859 138.235263 28.378714 131.655913 30.784154 
L 175.51652 150.751486 
z
" style="fill: #2ca02c"/>
   </g>
   <g id="patch_8">
    <path d="M 131.520787 30.828966 
C 127.366813 32.347678 123.294521 34.081118 119.32037 36.02228 
C 115.346219 37.963443 111.47557 40.109708 107.724068 42.452402 
L 175.381394 150.796298 
z
" style="fill: #d62728"/>
   </g>
   <g id="patch_9">
    <path d="M 107.619683 42.519487 
C 102.929712 45.448224 98.434855 48.678402 94.163484 52.189629 
C 89.892113 55.700856 85.853235 59.485729 82.072347 63.520355 
L 175.277009 150.863382 
z
" style="fill: #9467bd"/>
   </g>
   <g id="patch_10">
    <path d="M 81.991963 63.602496 
C 79.471862 66.291723 77.069329 69.088758 74.79111 71.98575 
C 72.51289 74.882742 70.361117 77.876977 68.341832 80.96005 
L 175.196625 150.945524 
z
" style="fill: #ff9896"/>
   </g>
   <g id="patch_11">
    <path d="M 68.235143 81.201926 
C 58.50938 96.051357 51.984957 112.766396 49.079199 130.277896 
C 46.17344 147.789397 46.949649 165.715861 51.358177 182.910655 
L 175.089937 151.1874 
z
" style="fill: #c5b0d5"/>
   </g>
   <g id="patch_12">
    <path d="M 51.378052 183.165308 
C 52.110258 186.021166 52.941118 188.850817 53.86914 191.649178 
C 54.797163 194.447539 55.82179 197.212931 56.941182 199.940386 
L 175.109812 151.442052 
z
" style="fill: #c49c94"/>
   </g>
   <g id="patch_13">
    <path d="M 56.979783 200.028934 
C 58.799093 204.461774 60.866394 208.788733 63.171884 212.989289 
C 65.477373 217.189846 68.017399 221.257348 70.779916 225.172506 
L 175.148413 151.530601 
z
" style="fill: #8c564b"/>
   </g>
   <g id="patch_14">
    <path d="M 70.87096 225.293581 
C 75.122515 231.319069 79.887898 236.965073 85.113678 242.168289 
C 90.339458 247.371504 96.006029 252.112412 102.049858 256.337854 
L 175.239458 151.651675 
z
" style="fill: #e377c2"/>
   </g>
   <g id="patch_15">
    <path d="M 102.147394 256.414557 
C 104.261577 257.892653 106.420051 259.306364 108.619847 260.653746 
C 110.819642 262.001128 113.059749 263.281562 115.337086 264.493287 
L 175.336994 151.728378 
z
" style="fill: #7f7f7f"/>
   </g>
   <g id="patch_16">
    <path d="M 115.462921 264.549443 
C 122.951197 268.533802 130.817766 271.762371 138.946055 274.187307 
C 147.074344 276.612243 155.424004 278.221508 163.871305 278.991256 
L 175.462828 151.784534 
z
" style="fill: #f7b6d2"/>
   </g>
   <g id="patch_17">
    <path d="M 164.099201 279.008051 
C 174.018683 279.911949 184.009935 279.652483 193.86913 278.234945 
C 203.728326 276.817407 213.387962 274.251503 222.650978 270.589578 
L 175.690725 151.801329 
z
" style="fill: #c7c7c7"/>
   </g>
   <g id="patch_18">
    <path d="M 222.825234 270.532625 
C 227.281318 268.771013 231.634749 266.760056 235.86488 264.50929 
C 240.095011 262.258524 244.195144 259.771513 248.145833 257.060054 
L 175.864981 151.744377 
z
" style="fill: #dbdb8d"/>
   </g>
   <g id="patch_19">
    <path d="M 248.302552 256.933482 
C 257.735044 250.459721 266.255203 242.747986 273.634166 234.005424 
C 281.01313 225.262863 287.184233 215.56846 291.981711 205.182619 
L 176.0217 151.617804 
z
" style="fill: #bcbd22"/>
   </g>
   <g id="patch_20">
    <path d="M 292.075643 205.019925 
C 293.621144 201.67414 295.021118 198.263034 296.271634 194.796183 
C 297.52215 191.329331 298.622038 187.809982 299.568209 184.248015 
L 176.115632 151.455111 
z
" style="fill: #17becf"/>
   </g>
   <g id="patch_21">
    <path d="M 299.595305 184.136326 
C 301.014838 178.792334 302.08588 173.361803 302.801669 167.879015 
C 303.517459 162.396226 303.876487 156.872741 303.876487 151.343426 
L 176.142727 151.343421 
z
" style="fill: #9edae5"/>
   </g>
   <g id="patch_22">
    <path d="M 250.126342 151.274523 
C 250.126342 143.952946 249.047201 136.671189 246.923755 129.664302 
C 244.800309 122.657416 241.655653 116.001615 237.591297 109.911748 
L 175.614982 151.274523 
z
" style="fill: #ffffff"/>
   </g>
   <g id="patch_23">
    <path d="M 237.591297 109.911748 
C 236.278473 107.944666 234.872743 106.041201 233.378881 104.207818 
C 231.885019 102.374435 230.304719 100.613213 228.643347 98.930132 
L 175.614982 151.274523 
z
" style="fill: #ffffff"/>
   </g>
   <g id="patch_24">
    <path d="M 228.643347 98.930132 
C 226.528627 96.787779 224.286021 94.775546 221.927864 92.904499 
C 219.569707 91.033452 217.10033 89.307029 214.533314 87.734723 
L 175.614982 151.274523 
z
" style="fill: #ffffff"/>
   </g>
   <g id="patch_25">
    <path d="M 214.533314 87.734723 
C 212.333193 86.387141 210.064564 85.154741 207.736596 84.042502 
C 205.408628 82.930263 203.024463 81.939686 200.593735 81.074774 
L 175.614982 151.274523 
z
" style="fill: #ffffff"/>
   </g>
   <g id="patch_26">
    <path d="M 200.593735 81.074774 
C 196.337992 79.560479 191.953349 78.436312 187.493996 77.716166 
C 183.034643 76.996021 178.519027 76.682876 174.002957 76.780603 
L 175.614982 151.274523 
z
" style="fill: #ffffff"/>
   </g>
   <g id="patch_27">
    <path d="M 174.002957 76.780603 
C 169.917498 76.869011 165.846227 77.293356 161.830349 78.049345 
C 157.814472 78.805333 153.867582 79.890406 150.029627 81.293579 
L 175.614982 151.274523 
z
" style="fill: #ffffff"/>
   </g>
   <g id="patch_28">
    <path d="M 150.029627 81.293579 
C 147.606476 82.179495 145.230972 83.190668 142.912718 84.323013 
C 140.594463 85.455357 138.336584 86.707345 136.148208 88.073917 
L 175.614982 151.274523 
z
" style="fill: #ffffff"/>
   </g>
   <g id="patch_29">
    <path d="M 136.148208 88.073917 
C 133.412392 89.782347 130.790392 91.666618 128.298759 93.714833 
C 125.807126 95.763049 123.451114 97.970892 121.245596 100.324423 
L 175.614982 151.274523 
z
" style="fill: #ffffff"/>
   </g>
   <g id="patch_30">
    <path d="M 121.245596 100.324423 
C 119.775537 101.893139 118.374059 103.524743 117.045097 105.214655 
C 115.716136 106.904567 114.460935 108.651204 113.283019 110.449663 
L 175.614982 151.274523 
z
" style="fill: #ffffff"/>
   </g>
   <g id="patch_31">
    <path d="M 113.283019 110.449663 
C 107.609657 119.111831 103.803744 128.862271 102.108718 139.077312 
C 100.413692 149.292354 100.86648 159.749458 103.438121 169.779755 
L 175.614982 151.274523 
z
" style="fill: #ffffff"/>
   </g>
   <g id="patch_32">
    <path d="M 103.438121 169.779755 
C 103.865241 171.445672 104.34991 173.096302 104.891256 174.728679 
C 105.432603 176.361056 106.030302 177.974202 106.683281 179.565217 
L 175.614982 151.274523 
z
" style="fill: #ffffff"/>
   </g>
   <g id="patch_33">
    <path d="M 106.683281 179.565217 
C 107.744545 182.15104 108.950471 184.6751 110.29534 187.125424 
C 111.640209 189.575749 113.12189 191.948459 114.733358 194.232301 
L 175.614982 151.274523 
z
" style="fill: #ffffff"/>
   </g>
   <g id="patch_34">
    <path d="M 114.733358 194.232301 
C 117.213432 197.747169 119.993239 201.040671 123.04161 204.075881 
C 126.089982 207.11109 129.395482 209.876619 132.921049 212.34146 
L 175.614982 151.274523 
z
" style="fill: #ffffff"/>
   </g>
   <g id="patch_35">
    <path d="M 132.921049 212.34146 
C 134.154322 213.203683 135.413432 214.028348 136.696646 214.814321 
C 137.97986 215.600293 139.286589 216.347213 140.615036 217.054053 
L 175.614982 151.274523 
z
" style="fill: #ffffff"/>
   </g>
   <g id="patch_36">
    <path d="M 140.615036 217.054053 
C 144.983197 219.378262 149.572028 221.261594 154.31353 222.67614 
C 159.055032 224.090686 163.925667 225.029424 168.853259 225.478444 
L 175.614982 151.274523 
z
" style="fill: #ffffff"/>
   </g>
   <g id="patch_37">
    <path d="M 168.853259 225.478444 
C 174.639624 226.005718 180.467854 225.854362 186.219052 225.027465 
C 191.970249 224.200568 197.605037 222.70379 203.008463 220.567668 
L 175.614982 151.274523 
z
" style="fill: #ffffff"/>
   </g>
   <g id="patch_38">
    <path d="M 203.008463 220.567668 
C 205.607845 219.540061 208.147346 218.367002 210.614922 217.054055 
C 213.082499 215.741109 215.474243 214.290353 217.778812 212.708668 
L 175.614982 151.274523 
z
" style="fill: #ffffff"/>
   </g>
   <g id="patch_39">
    <path d="M 217.778812 212.708668 
C 223.281099 208.932307 228.251191 204.433795 232.555587 199.333968 
C 236.859982 194.23414 240.459792 188.579072 243.258321 182.520664 
L 175.614982 151.274523 
z
" style="fill: #ffffff"/>
   </g>
   <g id="patch_40">
    <path d="M 243.258321 182.520664 
C 244.159864 180.568957 244.976515 178.579145 245.705983 176.556815 
C 246.435451 174.534485 247.077052 172.481531 247.628985 170.403717 
L 175.614982 151.274523 
z
" style="fill: #ffffff"/>
   </g>
   <g id="patch_41">
    <path d="M 247.628985 170.403717 
C 248.457046 167.286388 249.08182 164.118579 249.499364 160.920286 
C 249.916908 157.721992 250.126342 154.499959 250.126342 151.274525 
L 175.614982 151.274523 
z
" style="fill: #ffffff"/>
   </g>
   <g id="matplotlib.axis_1"/>
   <g id="matplotlib.axis_2"/>
   <g id="text_1">
    <!-- A [34] -->
    <g transform="translate(310.592302 113.128838) scale(0.1 -0.1)">
     <defs>
      <path id="DejaVuSans-41" d="M 2188 4044 
L 1331 1722 
L 3047 1722 
L 2188 4044 
z
M 1831 4666 
L 2547 4666 
L 4325 0 
L 3669 0 
L 3244 1197 
L 1141 1197 
L 716 0 
L 50 0 
L 1831 4666 
z
" transform="scale(0.015625)"/>
      <path id="DejaVuSans-20" transform="scale(0.015625)"/>
      <path id="DejaVuSans-5b" d="M 550 4863 
L 1875 4863 
L 1875 4416 
L 1125 4416 
L 1125 -397 
L 1875 -397 
L 1875 -844 
L 550 -844 
L 550 4863 
z
" transform="scale(0.015625)"/>
      <path id="DejaVuSans-33" d="M 2597 2516 
Q 3050 2419 3304 2112 
Q 3559 1806 3559 1356 
Q 3559 666 3084 287 
Q 2609 -91 1734 -91 
Q 1441 -91 1130 -33 
Q 819 25 488 141 
L 488 750 
Q 750 597 1062 519 
Q 1375 441 1716 441 
Q 2309 441 2620 675 
Q 2931 909 2931 1356 
Q 2931 1769 2642 2001 
Q 2353 2234 1838 2234 
L 1294 2234 
L 1294 2753 
L 1863 2753 
Q 2328 2753 2575 2939 
Q 2822 3125 2822 3475 
Q 2822 3834 2567 4026 
Q 2313 4219 1838 4219 
Q 1578 4219 1281 4162 
Q 984 4106 628 3988 
L 628 4550 
Q 988 4650 1302 4700 
Q 1616 4750 1894 4750 
Q 2613 4750 3031 4423 
Q 3450 4097 3450 3541 
Q 3450 3153 3228 2886 
Q 3006 2619 2597 2516 
z
" transform="scale(0.015625)"/>
      <path id="DejaVuSans-34" d="M 2419 4116 
L 825 1625 
L 2419 1625 
L 2419 4116 
z
M 2253 4666 
L 3047 4666 
L 3047 1625 
L 3713 1625 
L 3713 1100 
L 3047 1100 
L 3047 0 
L 2419 0 
L 2419 1100 
L 313 1100 
L 313 1709 
L 2253 4666 
z
" transform="scale(0.015625)"/>
      <path id="DejaVuSans-5d" d="M 1947 4863 
L 1947 -844 
L 622 -844 
L 622 -397 
L 1369 -397 
L 1369 4416 
L 622 4416 
L 622 4863 
L 1947 4863 
z
" transform="scale(0.015625)"/>
     </defs>
     <use xlink:href="#DejaVuSans-41"/>
     <use xlink:href="#DejaVuSans-20" x="68.408203"/>
     <use xlink:href="#DejaVuSans-5b" x="100.195312"/>
     <use xlink:href="#DejaVuSans-33" x="139.208984"/>
     <use xlink:href="#DejaVuSans-34" x="202.832031"/>
     <use xlink:href="#DejaVuSans-5d" x="266.455078"/>
    </g>
   </g>
   <g id="text_2">
    <!-- C [11] -->
    <g transform="translate(284.953792 64.94335) scale(0.1 -0.1)">
     <defs>
      <path id="DejaVuSans-43" d="M 4122 4306 
L 4122 3641 
Q 3803 3938 3442 4084 
Q 3081 4231 2675 4231 
Q 1875 4231 1450 3742 
Q 1025 3253 1025 2328 
Q 1025 1406 1450 917 
Q 1875 428 2675 428 
Q 3081 428 3442 575 
Q 3803 722 4122 1019 
L 4122 359 
Q 3791 134 3420 21 
Q 3050 -91 2638 -91 
Q 1578 -91 968 557 
Q 359 1206 359 2328 
Q 359 3453 968 4101 
Q 1578 4750 2638 4750 
Q 3056 4750 3426 4639 
Q 3797 4528 4122 4306 
z
" transform="scale(0.015625)"/>
      <path id="DejaVuSans-31" d="M 794 531 
L 1825 531 
L 1825 4091 
L 703 3866 
L 703 4441 
L 1819 4666 
L 2450 4666 
L 2450 531 
L 3481 531 
L 3481 0 
L 794 0 
L 794 531 
z
" transform="scale(0.015625)"/>
     </defs>
     <use xlink:href="#DejaVuSans-43"/>
     <use xlink:href="#DejaVuSans-20" x="69.824219"/>
     <use xlink:href="#DejaVuSans-5b" x="101.611328"/>
     <use xlink:href="#DejaVuSans-31" x="140.625"/>
     <use xlink:href="#DejaVuSans-31" x="204.248047"/>
     <use xlink:href="#DejaVuSans-5d" x="267.871094"/>
    </g>
   </g>
   <g id="text_3">
    <!-- D [14] -->
    <g transform="translate(263.278652 43.547781) scale(0.1 -0.1)">
     <defs>
      <path id="DejaVuSans-44" d="M 1259 4147 
L 1259 519 
L 2022 519 
Q 2988 519 3436 956 
Q 3884 1394 3884 2338 
Q 3884 3275 3436 3711 
Q 2988 4147 2022 4147 
L 1259 4147 
z
M 628 4666 
L 1925 4666 
Q 3281 4666 3915 4102 
Q 4550 3538 4550 2338 
Q 4550 1131 3912 565 
Q 3275 0 1925 0 
L 628 0 
L 628 4666 
z
" transform="scale(0.015625)"/>
     </defs>
     <use xlink:href="#DejaVuSans-44"/>
     <use xlink:href="#DejaVuSans-20" x="77.001953"/>
     <use xlink:href="#DejaVuSans-5b" x="108.789062"/>
     <use xlink:href="#DejaVuSans-31" x="147.802734"/>
     <use xlink:href="#DejaVuSans-34" x="211.425781"/>
     <use xlink:href="#DejaVuSans-5d" x="275.048828"/>
    </g>
   </g>
   <g id="text_4">
    <!-- E [12] -->
    <g transform="translate(236.416609 26.773286) scale(0.1 -0.1)">
     <defs>
      <path id="DejaVuSans-45" d="M 628 4666 
L 3578 4666 
L 3578 4134 
L 1259 4134 
L 1259 2753 
L 3481 2753 
L 3481 2222 
L 1259 2222 
L 1259 531 
L 3634 531 
L 3634 0 
L 628 0 
L 628 4666 
z
" transform="scale(0.015625)"/>
      <path id="DejaVuSans-32" d="M 1228 531 
L 3431 531 
L 3431 0 
L 469 0 
L 469 531 
Q 828 903 1448 1529 
Q 2069 2156 2228 2338 
Q 2531 2678 2651 2914 
Q 2772 3150 2772 3378 
Q 2772 3750 2511 3984 
Q 2250 4219 1831 4219 
Q 1534 4219 1204 4116 
Q 875 4013 500 3803 
L 500 4441 
Q 881 4594 1212 4672 
Q 1544 4750 1819 4750 
Q 2544 4750 2975 4387 
Q 3406 4025 3406 3419 
Q 3406 3131 3298 2873 
Q 3191 2616 2906 2266 
Q 2828 2175 2409 1742 
Q 1991 1309 1228 531 
z
" transform="scale(0.015625)"/>
     </defs>
     <use xlink:href="#DejaVuSans-45"/>
     <use xlink:href="#DejaVuSans-20" x="63.183594"/>
     <use xlink:href="#DejaVuSans-5b" x="94.970703"/>
     <use xlink:href="#DejaVuSans-31" x="133.984375"/>
     <use xlink:href="#DejaVuSans-32" x="197.607422"/>
     <use xlink:href="#DejaVuSans-5d" x="261.230469"/>
    </g>
   </g>
   <g id="text_5">
    <!-- F [21] -->
    <g transform="translate(198.100259 14.798437) scale(0.1 -0.1)">
     <defs>
      <path id="DejaVuSans-46" d="M 628 4666 
L 3309 4666 
L 3309 4134 
L 1259 4134 
L 1259 2759 
L 3109 2759 
L 3109 2228 
L 1259 2228 
L 1259 0 
L 628 0 
L 628 4666 
z
" transform="scale(0.015625)"/>
     </defs>
     <use xlink:href="#DejaVuSans-46"/>
     <use xlink:href="#DejaVuSans-20" x="57.519531"/>
     <use xlink:href="#DejaVuSans-5b" x="89.306641"/>
     <use xlink:href="#DejaVuSans-32" x="128.320312"/>
     <use xlink:href="#DejaVuSans-31" x="191.943359"/>
     <use xlink:href="#DejaVuSans-5d" x="255.566406"/>
    </g>
   </g>
   <g id="text_6">
    <!-- G [19] -->
    <g transform="translate(118.067954 15.429097) scale(0.1 -0.1)">
     <defs>
      <path id="DejaVuSans-47" d="M 3809 666 
L 3809 1919 
L 2778 1919 
L 2778 2438 
L 4434 2438 
L 4434 434 
Q 4069 175 3628 42 
Q 3188 -91 2688 -91 
Q 1594 -91 976 548 
Q 359 1188 359 2328 
Q 359 3472 976 4111 
Q 1594 4750 2688 4750 
Q 3144 4750 3555 4637 
Q 3966 4525 4313 4306 
L 4313 3634 
Q 3963 3931 3569 4081 
Q 3175 4231 2741 4231 
Q 1884 4231 1454 3753 
Q 1025 3275 1025 2328 
Q 1025 1384 1454 906 
Q 1884 428 2741 428 
Q 3075 428 3337 486 
Q 3600 544 3809 666 
z
" transform="scale(0.015625)"/>
      <path id="DejaVuSans-39" d="M 703 97 
L 703 672 
Q 941 559 1184 500 
Q 1428 441 1663 441 
Q 2288 441 2617 861 
Q 2947 1281 2994 2138 
Q 2813 1869 2534 1725 
Q 2256 1581 1919 1581 
Q 1219 1581 811 2004 
Q 403 2428 403 3163 
Q 403 3881 828 4315 
Q 1253 4750 1959 4750 
Q 2769 4750 3195 4129 
Q 3622 3509 3622 2328 
Q 3622 1225 3098 567 
Q 2575 -91 1691 -91 
Q 1453 -91 1209 -44 
Q 966 3 703 97 
z
M 1959 2075 
Q 2384 2075 2632 2365 
Q 2881 2656 2881 3163 
Q 2881 3666 2632 3958 
Q 2384 4250 1959 4250 
Q 1534 4250 1286 3958 
Q 1038 3666 1038 3163 
Q 1038 2656 1286 2365 
Q 1534 2075 1959 2075 
z
" transform="scale(0.015625)"/>
     </defs>
     <use xlink:href="#DejaVuSans-47"/>
     <use xlink:href="#DejaVuSans-20" x="77.490234"/>
     <use xlink:href="#DejaVuSans-5b" x="109.277344"/>
     <use xlink:href="#DejaVuSans-31" x="148.291016"/>
     <use xlink:href="#DejaVuSans-39" x="211.914062"/>
     <use xlink:href="#DejaVuSans-5d" x="275.537109"/>
    </g>
   </g>
   <g id="text_7">
    <!-- H [12] -->
    <g transform="translate(82.487705 27.304254) scale(0.1 -0.1)">
     <defs>
      <path id="DejaVuSans-48" d="M 628 4666 
L 1259 4666 
L 1259 2753 
L 3553 2753 
L 3553 4666 
L 4184 4666 
L 4184 0 
L 3553 0 
L 3553 2222 
L 1259 2222 
L 1259 0 
L 628 0 
L 628 4666 
z
" transform="scale(0.015625)"/>
     </defs>
     <use xlink:href="#DejaVuSans-48"/>
     <use xlink:href="#DejaVuSans-20" x="75.195312"/>
     <use xlink:href="#DejaVuSans-5b" x="106.982422"/>
     <use xlink:href="#DejaVuSans-31" x="145.996094"/>
     <use xlink:href="#DejaVuSans-32" x="209.619141"/>
     <use xlink:href="#DejaVuSans-5d" x="273.242188"/>
    </g>
   </g>
   <g id="text_8">
    <!-- I [15] -->
    <g transform="translate(59.395881 45.081629) scale(0.1 -0.1)">
     <defs>
      <path id="DejaVuSans-49" d="M 628 4666 
L 1259 4666 
L 1259 0 
L 628 0 
L 628 4666 
z
" transform="scale(0.015625)"/>
      <path id="DejaVuSans-35" d="M 691 4666 
L 3169 4666 
L 3169 4134 
L 1269 4134 
L 1269 2991 
Q 1406 3038 1543 3061 
Q 1681 3084 1819 3084 
Q 2600 3084 3056 2656 
Q 3513 2228 3513 1497 
Q 3513 744 3044 326 
Q 2575 -91 1722 -91 
Q 1428 -91 1123 -41 
Q 819 9 494 109 
L 494 744 
Q 775 591 1075 516 
Q 1375 441 1709 441 
Q 2250 441 2565 725 
Q 2881 1009 2881 1497 
Q 2881 1984 2565 2268 
Q 2250 2553 1709 2553 
Q 1456 2553 1204 2497 
Q 953 2441 691 2322 
L 691 4666 
z
" transform="scale(0.015625)"/>
     </defs>
     <use xlink:href="#DejaVuSans-49"/>
     <use xlink:href="#DejaVuSans-20" x="29.492188"/>
     <use xlink:href="#DejaVuSans-5b" x="61.279297"/>
     <use xlink:href="#DejaVuSans-31" x="100.292969"/>
     <use xlink:href="#DejaVuSans-35" x="163.916016"/>
     <use xlink:href="#DejaVuSans-5d" x="227.539062"/>
    </g>
   </g>
   <g id="text_9">
    <!-- K [10] -->
    <g transform="translate(34.486495 66.849148) scale(0.1 -0.1)">
     <defs>
      <path id="DejaVuSans-4b" d="M 628 4666 
L 1259 4666 
L 1259 2694 
L 3353 4666 
L 4166 4666 
L 1850 2491 
L 4331 0 
L 3500 0 
L 1259 2247 
L 1259 0 
L 628 0 
L 628 4666 
z
" transform="scale(0.015625)"/>
      <path id="DejaVuSans-30" d="M 2034 4250 
Q 1547 4250 1301 3770 
Q 1056 3291 1056 2328 
Q 1056 1369 1301 889 
Q 1547 409 2034 409 
Q 2525 409 2770 889 
Q 3016 1369 3016 2328 
Q 3016 3291 2770 3770 
Q 2525 4250 2034 4250 
z
M 2034 4750 
Q 2819 4750 3233 4129 
Q 3647 3509 3647 2328 
Q 3647 1150 3233 529 
Q 2819 -91 2034 -91 
Q 1250 -91 836 529 
Q 422 1150 422 2328 
Q 422 3509 836 4129 
Q 1250 4750 2034 4750 
z
" transform="scale(0.015625)"/>
     </defs>
     <use xlink:href="#DejaVuSans-4b"/>
     <use xlink:href="#DejaVuSans-20" x="65.576172"/>
     <use xlink:href="#DejaVuSans-5b" x="97.363281"/>
     <use xlink:href="#DejaVuSans-31" x="136.376953"/>
     <use xlink:href="#DejaVuSans-30" x="200"/>
     <use xlink:href="#DejaVuSans-5d" x="263.623047"/>
    </g>
   </g>
   <g id="text_10">
    <!-- L [48] -->
    <g transform="translate(7.2 130.946321) scale(0.1 -0.1)">
     <defs>
      <path id="DejaVuSans-4c" d="M 628 4666 
L 1259 4666 
L 1259 531 
L 3531 531 
L 3531 0 
L 628 0 
L 628 4666 
z
" transform="scale(0.015625)"/>
      <path id="DejaVuSans-38" d="M 2034 2216 
Q 1584 2216 1326 1975 
Q 1069 1734 1069 1313 
Q 1069 891 1326 650 
Q 1584 409 2034 409 
Q 2484 409 2743 651 
Q 3003 894 3003 1313 
Q 3003 1734 2745 1975 
Q 2488 2216 2034 2216 
z
M 1403 2484 
Q 997 2584 770 2862 
Q 544 3141 544 3541 
Q 544 4100 942 4425 
Q 1341 4750 2034 4750 
Q 2731 4750 3128 4425 
Q 3525 4100 3525 3541 
Q 3525 3141 3298 2862 
Q 3072 2584 2669 2484 
Q 3125 2378 3379 2068 
Q 3634 1759 3634 1313 
Q 3634 634 3220 271 
Q 2806 -91 2034 -91 
Q 1263 -91 848 271 
Q 434 634 434 1313 
Q 434 1759 690 2068 
Q 947 2378 1403 2484 
z
M 1172 3481 
Q 1172 3119 1398 2916 
Q 1625 2713 2034 2713 
Q 2441 2713 2670 2916 
Q 2900 3119 2900 3481 
Q 2900 3844 2670 4047 
Q 2441 4250 2034 4250 
Q 1625 4250 1398 4047 
Q 1172 3844 1172 3481 
z
" transform="scale(0.015625)"/>
     </defs>
     <use xlink:href="#DejaVuSans-4c"/>
     <use xlink:href="#DejaVuSans-20" x="55.712891"/>
     <use xlink:href="#DejaVuSans-5b" x="87.5"/>
     <use xlink:href="#DejaVuSans-34" x="126.513672"/>
     <use xlink:href="#DejaVuSans-38" x="190.136719"/>
     <use xlink:href="#DejaVuSans-5d" x="253.759766"/>
    </g>
   </g>
   <g id="text_11">
    <!-- M [8] -->
    <g transform="translate(15.773198 198.429265) scale(0.1 -0.1)">
     <defs>
      <path id="DejaVuSans-4d" d="M 628 4666 
L 1569 4666 
L 2759 1491 
L 3956 4666 
L 4897 4666 
L 4897 0 
L 4281 0 
L 4281 4097 
L 3078 897 
L 2444 897 
L 1241 4097 
L 1241 0 
L 628 0 
L 628 4666 
z
" transform="scale(0.015625)"/>
     </defs>
     <use xlink:href="#DejaVuSans-4d"/>
     <use xlink:href="#DejaVuSans-20" x="86.279297"/>
     <use xlink:href="#DejaVuSans-5b" x="118.066406"/>
     <use xlink:href="#DejaVuSans-38" x="157.080078"/>
     <use xlink:href="#DejaVuSans-5d" x="220.703125"/>
    </g>
   </g>
   <g id="text_12">
    <!-- N [13] -->
    <g transform="translate(20.786731 221.894533) scale(0.1 -0.1)">
     <defs>
      <path id="DejaVuSans-4e" d="M 628 4666 
L 1478 4666 
L 3547 763 
L 3547 4666 
L 4159 4666 
L 4159 0 
L 3309 0 
L 1241 3903 
L 1241 0 
L 628 0 
L 628 4666 
z
" transform="scale(0.015625)"/>
     </defs>
     <use xlink:href="#DejaVuSans-4e"/>
     <use xlink:href="#DejaVuSans-20" x="74.804688"/>
     <use xlink:href="#DejaVuSans-5b" x="106.591797"/>
     <use xlink:href="#DejaVuSans-31" x="145.605469"/>
     <use xlink:href="#DejaVuSans-33" x="209.228516"/>
     <use xlink:href="#DejaVuSans-5d" x="272.851562"/>
    </g>
   </g>
   <g id="text_13">
    <!-- P [20] -->
    <g transform="translate(46.365162 253.979325) scale(0.1 -0.1)">
     <defs>
      <path id="DejaVuSans-50" d="M 1259 4147 
L 1259 2394 
L 2053 2394 
Q 2494 2394 2734 2622 
Q 2975 2850 2975 3272 
Q 2975 3691 2734 3919 
Q 2494 4147 2053 4147 
L 1259 4147 
z
M 628 4666 
L 2053 4666 
Q 2838 4666 3239 4311 
Q 3641 3956 3641 3272 
Q 3641 2581 3239 2228 
Q 2838 1875 2053 1875 
L 1259 1875 
L 1259 0 
L 628 0 
L 628 4666 
z
" transform="scale(0.015625)"/>
     </defs>
     <use xlink:href="#DejaVuSans-50"/>
     <use xlink:href="#DejaVuSans-20" x="60.302734"/>
     <use xlink:href="#DejaVuSans-5b" x="92.089844"/>
     <use xlink:href="#DejaVuSans-32" x="131.103516"/>
     <use xlink:href="#DejaVuSans-30" x="194.726562"/>
     <use xlink:href="#DejaVuSans-5d" x="258.349609"/>
    </g>
   </g>
   <g id="text_14">
    <!-- Q [7] -->
    <g transform="translate(76.732507 274.305658) scale(0.1 -0.1)">
     <defs>
      <path id="DejaVuSans-51" d="M 2522 4238 
Q 1834 4238 1429 3725 
Q 1025 3213 1025 2328 
Q 1025 1447 1429 934 
Q 1834 422 2522 422 
Q 3209 422 3611 934 
Q 4013 1447 4013 2328 
Q 4013 3213 3611 3725 
Q 3209 4238 2522 4238 
z
M 3406 84 
L 4238 -825 
L 3475 -825 
L 2784 -78 
Q 2681 -84 2626 -87 
Q 2572 -91 2522 -91 
Q 1538 -91 948 567 
Q 359 1225 359 2328 
Q 359 3434 948 4092 
Q 1538 4750 2522 4750 
Q 3503 4750 4090 4092 
Q 4678 3434 4678 2328 
Q 4678 1516 4351 937 
Q 4025 359 3406 84 
z
" transform="scale(0.015625)"/>
      <path id="DejaVuSans-37" d="M 525 4666 
L 3525 4666 
L 3525 4397 
L 1831 0 
L 1172 0 
L 2766 4134 
L 525 4134 
L 525 4666 
z
" transform="scale(0.015625)"/>
     </defs>
     <use xlink:href="#DejaVuSans-51"/>
     <use xlink:href="#DejaVuSans-20" x="78.710938"/>
     <use xlink:href="#DejaVuSans-5b" x="110.498047"/>
     <use xlink:href="#DejaVuSans-37" x="149.511719"/>
     <use xlink:href="#DejaVuSans-5d" x="213.134766"/>
    </g>
   </g>
   <g id="text_15">
    <!-- R [23] -->
    <g transform="translate(104.63969 289.186959) scale(0.1 -0.1)">
     <defs>
      <path id="DejaVuSans-52" d="M 2841 2188 
Q 3044 2119 3236 1894 
Q 3428 1669 3622 1275 
L 4263 0 
L 3584 0 
L 2988 1197 
Q 2756 1666 2539 1819 
Q 2322 1972 1947 1972 
L 1259 1972 
L 1259 0 
L 628 0 
L 628 4666 
L 2053 4666 
Q 2853 4666 3247 4331 
Q 3641 3997 3641 3322 
Q 3641 2881 3436 2590 
Q 3231 2300 2841 2188 
z
M 1259 4147 
L 1259 2491 
L 2053 2491 
Q 2509 2491 2742 2702 
Q 2975 2913 2975 3322 
Q 2975 3731 2742 3939 
Q 2509 4147 2053 4147 
L 1259 4147 
z
" transform="scale(0.015625)"/>
     </defs>
     <use xlink:href="#DejaVuSans-52"/>
     <use xlink:href="#DejaVuSans-20" x="69.482422"/>
     <use xlink:href="#DejaVuSans-5b" x="101.269531"/>
     <use xlink:href="#DejaVuSans-32" x="140.283203"/>
     <use xlink:href="#DejaVuSans-33" x="203.90625"/>
     <use xlink:href="#DejaVuSans-5d" x="267.529297"/>
    </g>
   </g>
   <g id="text_16">
    <!-- S [27] -->
    <g transform="translate(195.686971 293.637681) scale(0.1 -0.1)">
     <defs>
      <path id="DejaVuSans-53" d="M 3425 4513 
L 3425 3897 
Q 3066 4069 2747 4153 
Q 2428 4238 2131 4238 
Q 1616 4238 1336 4038 
Q 1056 3838 1056 3469 
Q 1056 3159 1242 3001 
Q 1428 2844 1947 2747 
L 2328 2669 
Q 3034 2534 3370 2195 
Q 3706 1856 3706 1288 
Q 3706 609 3251 259 
Q 2797 -91 1919 -91 
Q 1588 -91 1214 -16 
Q 841 59 441 206 
L 441 856 
Q 825 641 1194 531 
Q 1563 422 1919 422 
Q 2459 422 2753 634 
Q 3047 847 3047 1241 
Q 3047 1584 2836 1778 
Q 2625 1972 2144 2069 
L 1759 2144 
Q 1053 2284 737 2584 
Q 422 2884 422 3419 
Q 422 4038 858 4394 
Q 1294 4750 2059 4750 
Q 2388 4750 2728 4690 
Q 3069 4631 3425 4513 
z
" transform="scale(0.015625)"/>
     </defs>
     <use xlink:href="#DejaVuSans-53"/>
     <use xlink:href="#DejaVuSans-20" x="63.476562"/>
     <use xlink:href="#DejaVuSans-5b" x="95.263672"/>
     <use xlink:href="#DejaVuSans-32" x="134.277344"/>
     <use xlink:href="#DejaVuSans-37" x="197.900391"/>
     <use xlink:href="#DejaVuSans-5d" x="261.523438"/>
    </g>
   </g>
   <g id="text_17">
    <!-- T [13] -->
    <g transform="translate(241.864869 278.545156) scale(0.1 -0.1)">
     <defs>
      <path id="DejaVuSans-54" d="M -19 4666 
L 3928 4666 
L 3928 4134 
L 2272 4134 
L 2272 0 
L 1638 0 
L 1638 4134 
L -19 4134 
L -19 4666 
z
" transform="scale(0.015625)"/>
     </defs>
     <use xlink:href="#DejaVuSans-54"/>
     <use xlink:href="#DejaVuSans-20" x="61.083984"/>
     <use xlink:href="#DejaVuSans-5b" x="92.871094"/>
     <use xlink:href="#DejaVuSans-31" x="131.884766"/>
     <use xlink:href="#DejaVuSans-33" x="195.507812"/>
     <use xlink:href="#DejaVuSans-5d" x="259.130859"/>
    </g>
   </g>
   <g id="text_18">
    <!-- V [31] -->
    <g transform="translate(283.395413 245.003561) scale(0.1 -0.1)">
     <defs>
      <path id="DejaVuSans-56" d="M 1831 0 
L 50 4666 
L 709 4666 
L 2188 738 
L 3669 4666 
L 4325 4666 
L 2547 0 
L 1831 0 
z
" transform="scale(0.015625)"/>
     </defs>
     <use xlink:href="#DejaVuSans-56"/>
     <use xlink:href="#DejaVuSans-20" x="68.408203"/>
     <use xlink:href="#DejaVuSans-5b" x="100.195312"/>
     <use xlink:href="#DejaVuSans-33" x="139.208984"/>
     <use xlink:href="#DejaVuSans-31" x="202.832031"/>
     <use xlink:href="#DejaVuSans-5d" x="266.455078"/>
    </g>
   </g>
   <g id="text_19">
    <!-- W [10] -->
    <g transform="translate(308.287234 201.889665) scale(0.1 -0.1)">
     <defs>
      <path id="DejaVuSans-57" d="M 213 4666 
L 850 4666 
L 1831 722 
L 2809 4666 
L 3519 4666 
L 4500 722 
L 5478 4666 
L 6119 4666 
L 4947 0 
L 4153 0 
L 3169 4050 
L 2175 0 
L 1381 0 
L 213 4666 
z
" transform="scale(0.015625)"/>
     </defs>
     <use xlink:href="#DejaVuSans-57"/>
     <use xlink:href="#DejaVuSans-20" x="98.876953"/>
     <use xlink:href="#DejaVuSans-5b" x="130.664062"/>
     <use xlink:href="#DejaVuSans-31" x="169.677734"/>
     <use xlink:href="#DejaVuSans-30" x="233.300781"/>
     <use xlink:href="#DejaVuSans-5d" x="296.923828"/>
    </g>
   </g>
   <g id="text_20">
    <!-- Y [15] -->
    <g transform="translate(315.467563 172.291949) scale(0.1 -0.1)">
     <defs>
      <path id="DejaVuSans-59" d="M -13 4666 
L 666 4666 
L 1959 2747 
L 3244 4666 
L 3922 4666 
L 2272 2222 
L 2272 0 
L 1638 0 
L 1638 2222 
L -13 4666 
z
" transform="scale(0.015625)"/>
     </defs>
     <use xlink:href="#DejaVuSans-59"/>
     <use xlink:href="#DejaVuSans-20" x="61.083984"/>
     <use xlink:href="#DejaVuSans-5b" x="92.871094"/>
     <use xlink:href="#DejaVuSans-31" x="131.884766"/>
     <use xlink:href="#DejaVuSans-35" x="195.507812"/>
     <use xlink:href="#DejaVuSans-5d" x="259.130859"/>
    </g>
   </g>
   <g id="text_21">
    <!-- P50132 [363] -->
    <g transform="translate(134.868419 151.274523) scale(0.12 -0.12)">
     <defs>
      <path id="DejaVuSans-36" d="M 2113 2584 
Q 1688 2584 1439 2293 
Q 1191 2003 1191 1497 
Q 1191 994 1439 701 
Q 1688 409 2113 409 
Q 2538 409 2786 701 
Q 3034 994 3034 1497 
Q 3034 2003 2786 2293 
Q 2538 2584 2113 2584 
z
M 3366 4563 
L 3366 3988 
Q 3128 4100 2886 4159 
Q 2644 4219 2406 4219 
Q 1781 4219 1451 3797 
Q 1122 3375 1075 2522 
Q 1259 2794 1537 2939 
Q 1816 3084 2150 3084 
Q 2853 3084 3261 2657 
Q 3669 2231 3669 1497 
Q 3669 778 3244 343 
Q 2819 -91 2113 -91 
Q 1303 -91 875 529 
Q 447 1150 447 2328 
Q 447 3434 972 4092 
Q 1497 4750 2381 4750 
Q 2619 4750 2861 4703 
Q 3103 4656 3366 4563 
z
" transform="scale(0.015625)"/>
     </defs>
     <use xlink:href="#DejaVuSans-50"/>
     <use xlink:href="#DejaVuSans-35" x="60.302734"/>
     <use xlink:href="#DejaVuSans-30" x="123.925781"/>
     <use xlink:href="#DejaVuSans-31" x="187.548828"/>
     <use xlink:href="#DejaVuSans-33" x="251.171875"/>
     <use xlink:href="#DejaVuSans-32" x="314.794922"/>
     <use xlink:href="#DejaVuSans-20" x="378.417969"/>
     <use xlink:href="#DejaVuSans-5b" x="410.205078"/>
     <use xlink:href="#DejaVuSans-33" x="449.21875"/>
     <use xlink:href="#DejaVuSans-36" x="512.841797"/>
     <use xlink:href="#DejaVuSans-33" x="576.464844"/>
     <use xlink:href="#DejaVuSans-5d" x="640.087891"/>
    </g>
   </g>
  </g>
 </g>
</svg>
