<?xml version="1.0" encoding="utf-8" standalone="no"?>
<!DOCTYPE svg PUBLIC "-//W3C//DTD SVG 1.1//EN"
  "http://www.w3.org/Graphics/SVG/1.1/DTD/svg11.dtd">
<svg xmlns:xlink="http://www.w3.org/1999/xlink" width="355.382771pt" height="305.24537pt" viewBox="0 0 355.382771 305.24537" xmlns="http://www.w3.org/2000/svg" version="1.1">
 <metadata>
  <rdf:RDF xmlns:dc="http://purl.org/dc/elements/1.1/" xmlns:cc="http://creativecommons.org/ns#" xmlns:rdf="http://www.w3.org/1999/02/22-rdf-syntax-ns#">
   <cc:Work>
    <dc:type rdf:resource="http://purl.org/dc/dcmitype/StillImage"/>
    <dc:date>2024-09-27T16:07:15.347562</dc:date>
    <dc:format>image/svg+xml</dc:format>
    <dc:creator>
     <cc:Agent>
      <dc:title>Matplotlib v3.8.3, https://matplotlib.org/</dc:title>
     </cc:Agent>
    </dc:creator>
   </cc:Work>
  </rdf:RDF>
 </metadata>
 <defs>
  <style type="text/css">*{stroke-linejoin: round; stroke-linecap: butt}</style>
 </defs>
 <g id="figure_1">
  <g id="patch_1">
   <path d="M -0 305.24537 
L 355.382771 305.24537 
L 355.382771 0 
L -0 0 
z
" style="fill: #ffffff"/>
  </g>
  <g id="axes_1">
   <g id="patch_2">
    <path d="M 305.697282 152.801829 
C 305.697282 141.218973 304.121788 129.689754 301.014171 118.531562 
C 297.906554 107.373369 293.295596 96.689543 287.308233 86.774201 
L 177.963522 152.801829 
z
" style="fill: #1f77b4"/>
   </g>
   <g id="patch_3">
    <path d="M 287.205364 86.577447 
C 283.932774 81.157892 280.261787 75.989132 276.222764 71.113918 
C 272.183741 66.238704 267.787848 61.670514 263.071446 57.447131 
L 177.860653 152.605075 
z
" style="fill: #ff7f0e"/>
   </g>
   <g id="patch_4">
    <path d="M 262.974216 57.355939 
C 259.722309 54.443964 256.323267 51.700596 252.790475 49.136637 
C 249.257683 46.572678 245.595781 44.191497 241.819187 42.002469 
L 177.763424 152.513883 
z
" style="fill: #aec7e8"/>
   </g>
   <g id="patch_5">
    <path d="M 241.687038 41.932513 
C 235.075019 38.099986 228.132364 34.868587 220.942657 32.27722 
C 213.752951 29.685852 206.345163 27.744957 198.808477 26.477902 
L 177.631275 152.443927 
z
" style="fill: #ffbb78"/>
   </g>
   <g id="patch_6">
    <path d="M 198.651191 26.446877 
C 193.485009 25.578347 188.270286 25.028456 183.036576 24.800321 
C 177.802865 24.572185 172.560073 24.666237 167.337913 25.081942 
L 177.473988 152.412903 
z
" style="fill: #98df8a"/>
   </g>
   <g id="patch_7">
    <path d="M 167.147159 25.108507 
C 156.911307 25.923324 146.810948 27.969432 137.064978 31.202488 
C 127.319008 34.435544 117.998343 38.832022 109.304983 44.296642 
L 177.283235 152.439468 
z
" style="fill: #2ca02c"/>
   </g>
   <g id="patch_8">
    <path d="M 109.168841 44.36474 
C 107.506089 45.409941 105.867663 46.493352 104.254871 47.614108 
C 102.642079 48.734864 101.05535 49.892668 99.49595 51.086595 
L 177.147093 152.507566 
z
" style="fill: #d62728"/>
   </g>
   <g id="patch_9">
    <path d="M 99.415221 51.155597 
C 94.214891 55.137136 89.328483 59.512753 84.799243 64.243722 
C 80.270003 68.97469 76.111332 74.047013 72.360036 79.415799 
L 177.066365 152.576568 
z
" style="fill: #9467bd"/>
   </g>
   <g id="patch_10">
    <path d="M 72.276679 79.530037 
C 69.526353 83.466251 67.000176 87.554425 64.710177 91.775086 
C 62.420179 95.995747 60.370001 100.342183 58.56941 104.793693 
L 176.983007 152.690806 
z
" style="fill: #ff9896"/>
   </g>
   <g id="patch_11">
    <path d="M 58.505241 105.031146 
C 52.84476 119.025266 49.709574 133.912664 49.245463 149.001105 
C 48.781352 164.089546 50.995622 179.141489 55.785315 193.457051 
L 176.918838 152.928259 
z
" style="fill: #c5b0d5"/>
   </g>
   <g id="patch_12">
    <path d="M 55.822881 193.670454 
C 56.584527 195.946882 57.410193 198.201388 58.298893 200.431285 
C 59.187594 202.661182 60.138976 204.865584 61.151908 207.041865 
L 176.956405 153.141662 
z
" style="fill: #c49c94"/>
   </g>
   <g id="patch_13">
    <path d="M 61.186535 207.112903 
C 62.844243 210.674486 64.665375 214.157699 66.644121 217.551433 
C 68.622867 220.945167 70.757123 224.245811 73.040081 227.442836 
L 176.991032 153.2127 
z
" style="fill: #8c564b"/>
   </g>
   <g id="patch_14">
    <path d="M 73.142787 227.569425 
C 78.47388 235.03502 84.593746 241.904634 91.396388 248.059284 
C 98.199031 254.213934 105.644949 259.617882 113.605179 264.177532 
L 177.093739 153.339288 
z
" style="fill: #e377c2"/>
   </g>
   <g id="patch_15">
    <path d="M 113.746357 264.269334 
C 117.53412 266.438979 121.430612 268.413035 125.420493 270.183731 
C 129.410373 271.954426 133.488399 273.519434 137.638516 274.872593 
L 177.234917 153.431091 
z
" style="fill: #7f7f7f"/>
   </g>
   <g id="patch_16">
    <path d="M 137.798596 274.915413 
C 146.312289 277.691331 155.09434 279.564287 163.999779 280.503363 
C 172.905218 281.442439 181.884771 281.442439 190.79021 280.503363 
L 177.394997 153.473911 
z
" style="fill: #f7b6d2"/>
   </g>
   <g id="patch_17">
    <path d="M 191.023919 280.475687 
C 201.017757 279.42184 210.852407 277.192292 220.323669 273.833334 
C 229.794931 270.474376 238.836798 266.009419 247.261533 260.531168 
L 177.628707 153.446235 
z
" style="fill: #c7c7c7"/>
   </g>
   <g id="patch_18">
    <path d="M 247.454636 260.41116 
C 254.411649 255.887307 260.911282 250.696234 266.861331 244.911581 
C 272.811379 239.126928 278.183573 232.77618 282.901703 225.949428 
L 177.821809 153.326227 
z
" style="fill: #dbdb8d"/>
   </g>
   <g id="patch_19">
    <path d="M 283.010896 225.797341 
C 286.858882 220.229618 290.258274 214.364859 293.176952 208.258481 
C 296.09563 202.152103 298.524371 195.8234 300.440227 189.332173 
L 177.931002 153.17414 
z
" style="fill: #bcbd22"/>
   </g>
   <g id="patch_20">
    <path d="M 300.477538 189.226966 
C 301.095265 187.134007 301.659257 185.025562 302.168957 182.903707 
C 302.678657 180.781851 303.133898 178.647283 303.534232 176.502103 
L 177.968314 153.068933 
z
" style="fill: #17becf"/>
   </g>
   <g id="patch_21">
    <path d="M 303.546691 176.426819 
C 304.267381 172.565023 304.809533 168.672033 305.171417 164.760268 
C 305.533301 160.848503 305.714532 156.922124 305.714532 152.993655 
L 177.980772 152.993649 
z
" style="fill: #9edae5"/>
   </g>
   <g id="patch_22">
    <path d="M 251.962171 152.944622 
C 251.962171 146.187956 251.043133 139.462578 249.230356 132.953633 
C 247.41758 126.444687 244.727854 120.212455 241.235225 114.428505 
L 177.450811 152.944622 
z
" style="fill: #ffffff"/>
   </g>
   <g id="patch_23">
    <path d="M 241.235225 114.428505 
C 239.326215 111.267098 237.184805 108.251988 234.828709 105.408114 
C 232.472612 102.564239 229.908342 99.899461 227.157107 97.435821 
L 177.450811 152.944622 
z
" style="fill: #ffffff"/>
   </g>
   <g id="patch_24">
    <path d="M 227.157107 97.435821 
C 225.26016 95.737169 223.277386 94.136871 221.216591 92.641228 
C 219.155795 91.145586 217.019686 89.756563 214.816673 88.47963 
L 177.450811 152.944622 
z
" style="fill: #ffffff"/>
   </g>
   <g id="patch_25">
    <path d="M 214.816673 88.47963 
C 210.959661 86.24399 206.909779 84.359007 202.715784 82.847376 
C 198.521789 81.335745 194.200579 80.203556 189.804179 79.46444 
L 177.450811 152.944622 
z
" style="fill: #ffffff"/>
   </g>
   <g id="patch_26">
    <path d="M 189.804179 79.46444 
C 186.790573 78.957798 183.748651 78.637028 180.695654 78.503949 
C 177.642656 78.37087 174.58436 78.425733 171.5381 78.668228 
L 177.450811 152.944622 
z
" style="fill: #ffffff"/>
   </g>
   <g id="patch_27">
    <path d="M 171.5381 78.668228 
C 165.567186 79.143538 159.67531 80.337101 153.990161 82.22305 
C 148.305012 84.108999 142.867957 86.673612 137.79683 89.861307 
L 177.450811 152.944622 
z
" style="fill: #ffffff"/>
   </g>
   <g id="patch_28">
    <path d="M 137.79683 89.861307 
C 136.826891 90.471008 135.871143 91.102997 134.930348 91.756772 
C 133.989553 92.410546 133.063961 93.085931 132.154311 93.782389 
L 177.450811 152.944622 
z
" style="fill: #ffffff"/>
   </g>
   <g id="patch_29">
    <path d="M 132.154311 93.782389 
C 129.120785 96.104953 126.27038 98.657396 123.628324 101.417128 
C 120.986267 104.17686 118.560375 107.135715 116.372119 110.267506 
L 177.450811 152.944622 
z
" style="fill: #ffffff"/>
   </g>
   <g id="patch_30">
    <path d="M 116.372119 110.267506 
C 114.767763 112.563631 113.294159 114.948399 111.958327 117.410451 
C 110.622494 119.872504 109.426557 122.407925 108.376212 125.004639 
L 177.450811 152.944622 
z
" style="fill: #ffffff"/>
   </g>
   <g id="patch_31">
    <path d="M 108.376212 125.004639 
C 105.074265 133.167876 103.245406 141.852191 102.974675 150.653782 
C 102.703943 159.455373 103.995601 168.235673 106.789589 176.586417 
L 177.450811 152.944622 
z
" style="fill: #ffffff"/>
   </g>
   <g id="patch_32">
    <path d="M 106.789589 176.586417 
C 107.233883 177.914333 107.715521 179.229462 108.233929 180.530235 
C 108.752338 181.831008 109.307311 183.11691 109.898188 184.386407 
L 177.450811 152.944622 
z
" style="fill: #ffffff"/>
   </g>
   <g id="patch_33">
    <path d="M 109.898188 184.386407 
C 110.865184 186.463997 111.927511 188.495871 113.081779 190.47555 
C 114.236048 192.455228 115.481031 194.380603 116.812756 196.245535 
L 177.450811 152.944622 
z
" style="fill: #ffffff"/>
   </g>
   <g id="patch_34">
    <path d="M 116.812756 196.245535 
C 119.92256 200.600465 123.492482 204.60774 127.46069 208.197952 
C 131.428898 211.788165 135.77235 214.940468 140.415818 217.600264 
L 177.450811 152.944622 
z
" style="fill: #ffffff"/>
   </g>
   <g id="patch_35">
    <path d="M 140.415818 217.600264 
C 142.625346 218.86589 144.8983 220.017422 147.22573 221.050328 
C 149.55316 222.083234 151.932008 222.996155 154.35291 223.785498 
L 177.450811 152.944622 
z
" style="fill: #ffffff"/>
   </g>
   <g id="patch_36">
    <path d="M 154.35291 223.785498 
C 159.319231 225.404783 164.442094 226.497341 169.636933 227.045135 
C 174.831773 227.592929 180.069846 227.59293 185.264685 227.045135 
L 177.450811 152.944622 
z
" style="fill: #ffffff"/>
   </g>
   <g id="patch_37">
    <path d="M 185.264685 227.045135 
C 191.094424 226.430391 196.831303 225.129822 202.356205 223.17043 
C 207.881108 221.211038 213.155531 218.606479 218.06996 215.410833 
L 177.450811 152.944622 
z
" style="fill: #ffffff"/>
   </g>
   <g id="patch_38">
    <path d="M 218.06996 215.410833 
C 222.128218 212.771918 225.91967 209.743792 229.390532 206.369411 
C 232.861394 202.995031 235.995173 199.290427 238.747416 195.308156 
L 177.450811 152.944622 
z
" style="fill: #ffffff"/>
   </g>
   <g id="patch_39">
    <path d="M 238.747416 195.308156 
C 240.992074 192.060317 242.975053 188.639208 244.677615 185.077154 
C 246.380177 181.5151 247.796943 177.823357 248.914525 174.036808 
L 177.450811 152.944622 
z
" style="fill: #ffffff"/>
   </g>
   <g id="patch_40">
    <path d="M 248.914525 174.036808 
C 249.274866 172.815915 249.603861 171.585988 249.901186 170.34824 
C 250.198511 169.110491 250.464068 167.865326 250.697597 166.613971 
L 177.450811 152.944622 
z
" style="fill: #ffffff"/>
   </g>
   <g id="patch_41">
    <path d="M 250.697597 166.613971 
C 251.118 164.361256 251.434255 162.090346 251.645354 159.808483 
C 251.856453 157.52662 251.962171 155.236232 251.962171 152.944625 
L 177.450811 152.944622 
z
" style="fill: #ffffff"/>
   </g>
   <g id="matplotlib.axis_1"/>
   <g id="matplotlib.axis_2"/>
   <g id="text_1">
    <!-- A [53] -->
    <g transform="translate(313.319236 117.86391) scale(0.1 -0.1)">
     <defs>
      <path id="DejaVuSans-41" d="M 2188 4044 
L 1331 1722 
L 3047 1722 
L 2188 4044 
z
M 1831 4666 
L 2547 4666 
L 4325 0 
L 3669 0 
L 3244 1197 
L 1141 1197 
L 716 0 
L 50 0 
L 1831 4666 
z
" transform="scale(0.015625)"/>
      <path id="DejaVuSans-20" transform="scale(0.015625)"/>
      <path id="DejaVuSans-5b" d="M 550 4863 
L 1875 4863 
L 1875 4416 
L 1125 4416 
L 1125 -397 
L 1875 -397 
L 1875 -844 
L 550 -844 
L 550 4863 
z
" transform="scale(0.015625)"/>
      <path id="DejaVuSans-35" d="M 691 4666 
L 3169 4666 
L 3169 4134 
L 1269 4134 
L 1269 2991 
Q 1406 3038 1543 3061 
Q 1681 3084 1819 3084 
Q 2600 3084 3056 2656 
Q 3513 2228 3513 1497 
Q 3513 744 3044 326 
Q 2575 -91 1722 -91 
Q 1428 -91 1123 -41 
Q 819 9 494 109 
L 494 744 
Q 775 591 1075 516 
Q 1375 441 1709 441 
Q 2250 441 2565 725 
Q 2881 1009 2881 1497 
Q 2881 1984 2565 2268 
Q 2250 2553 1709 2553 
Q 1456 2553 1204 2497 
Q 953 2441 691 2322 
L 691 4666 
z
" transform="scale(0.015625)"/>
      <path id="DejaVuSans-33" d="M 2597 2516 
Q 3050 2419 3304 2112 
Q 3559 1806 3559 1356 
Q 3559 666 3084 287 
Q 2609 -91 1734 -91 
Q 1441 -91 1130 -33 
Q 819 25 488 141 
L 488 750 
Q 750 597 1062 519 
Q 1375 441 1716 441 
Q 2309 441 2620 675 
Q 2931 909 2931 1356 
Q 2931 1769 2642 2001 
Q 2353 2234 1838 2234 
L 1294 2234 
L 1294 2753 
L 1863 2753 
Q 2328 2753 2575 2939 
Q 2822 3125 2822 3475 
Q 2822 3834 2567 4026 
Q 2313 4219 1838 4219 
Q 1578 4219 1281 4162 
Q 984 4106 628 3988 
L 628 4550 
Q 988 4650 1302 4700 
Q 1616 4750 1894 4750 
Q 2613 4750 3031 4423 
Q 3450 4097 3450 3541 
Q 3450 3153 3228 2886 
Q 3006 2619 2597 2516 
z
" transform="scale(0.015625)"/>
      <path id="DejaVuSans-5d" d="M 1947 4863 
L 1947 -844 
L 622 -844 
L 622 -397 
L 1369 -397 
L 1369 4416 
L 622 4416 
L 622 4863 
L 1947 4863 
z
" transform="scale(0.015625)"/>
     </defs>
     <use xlink:href="#DejaVuSans-41"/>
     <use xlink:href="#DejaVuSans-20" x="68.408203"/>
     <use xlink:href="#DejaVuSans-5b" x="100.195312"/>
     <use xlink:href="#DejaVuSans-35" x="139.208984"/>
     <use xlink:href="#DejaVuSans-33" x="202.832031"/>
     <use xlink:href="#DejaVuSans-5d" x="266.455078"/>
    </g>
   </g>
   <g id="text_2">
    <!-- C [29] -->
    <g transform="translate(286.058975 65.724178) scale(0.1 -0.1)">
     <defs>
      <path id="DejaVuSans-43" d="M 4122 4306 
L 4122 3641 
Q 3803 3938 3442 4084 
Q 3081 4231 2675 4231 
Q 1875 4231 1450 3742 
Q 1025 3253 1025 2328 
Q 1025 1406 1450 917 
Q 1875 428 2675 428 
Q 3081 428 3442 575 
Q 3803 722 4122 1019 
L 4122 359 
Q 3791 134 3420 21 
Q 3050 -91 2638 -91 
Q 1578 -91 968 557 
Q 359 1206 359 2328 
Q 359 3453 968 4101 
Q 1578 4750 2638 4750 
Q 3056 4750 3426 4639 
Q 3797 4528 4122 4306 
z
" transform="scale(0.015625)"/>
      <path id="DejaVuSans-32" d="M 1228 531 
L 3431 531 
L 3431 0 
L 469 0 
L 469 531 
Q 828 903 1448 1529 
Q 2069 2156 2228 2338 
Q 2531 2678 2651 2914 
Q 2772 3150 2772 3378 
Q 2772 3750 2511 3984 
Q 2250 4219 1831 4219 
Q 1534 4219 1204 4116 
Q 875 4013 500 3803 
L 500 4441 
Q 881 4594 1212 4672 
Q 1544 4750 1819 4750 
Q 2544 4750 2975 4387 
Q 3406 4025 3406 3419 
Q 3406 3131 3298 2873 
Q 3191 2616 2906 2266 
Q 2828 2175 2409 1742 
Q 1991 1309 1228 531 
z
" transform="scale(0.015625)"/>
      <path id="DejaVuSans-39" d="M 703 97 
L 703 672 
Q 941 559 1184 500 
Q 1428 441 1663 441 
Q 2288 441 2617 861 
Q 2947 1281 2994 2138 
Q 2813 1869 2534 1725 
Q 2256 1581 1919 1581 
Q 1219 1581 811 2004 
Q 403 2428 403 3163 
Q 403 3881 828 4315 
Q 1253 4750 1959 4750 
Q 2769 4750 3195 4129 
Q 3622 3509 3622 2328 
Q 3622 1225 3098 567 
Q 2575 -91 1691 -91 
Q 1453 -91 1209 -44 
Q 966 3 703 97 
z
M 1959 2075 
Q 2384 2075 2632 2365 
Q 2881 2656 2881 3163 
Q 2881 3666 2632 3958 
Q 2384 4250 1959 4250 
Q 1534 4250 1286 3958 
Q 1038 3666 1038 3163 
Q 1038 2656 1286 2365 
Q 1534 2075 1959 2075 
z
" transform="scale(0.015625)"/>
     </defs>
     <use xlink:href="#DejaVuSans-43"/>
     <use xlink:href="#DejaVuSans-20" x="69.824219"/>
     <use xlink:href="#DejaVuSans-5b" x="101.611328"/>
     <use xlink:href="#DejaVuSans-32" x="140.625"/>
     <use xlink:href="#DejaVuSans-39" x="204.248047"/>
     <use xlink:href="#DejaVuSans-5d" x="267.871094"/>
    </g>
   </g>
   <g id="text_3">
    <!-- D [20] -->
    <g transform="translate(260.29318 41.558288) scale(0.1 -0.1)">
     <defs>
      <path id="DejaVuSans-44" d="M 1259 4147 
L 1259 519 
L 2022 519 
Q 2988 519 3436 956 
Q 3884 1394 3884 2338 
Q 3884 3275 3436 3711 
Q 2988 4147 2022 4147 
L 1259 4147 
z
M 628 4666 
L 1925 4666 
Q 3281 4666 3915 4102 
Q 4550 3538 4550 2338 
Q 4550 1131 3912 565 
Q 3275 0 1925 0 
L 628 0 
L 628 4666 
z
" transform="scale(0.015625)"/>
      <path id="DejaVuSans-30" d="M 2034 4250 
Q 1547 4250 1301 3770 
Q 1056 3291 1056 2328 
Q 1056 1369 1301 889 
Q 1547 409 2034 409 
Q 2525 409 2770 889 
Q 3016 1369 3016 2328 
Q 3016 3291 2770 3770 
Q 2525 4250 2034 4250 
z
M 2034 4750 
Q 2819 4750 3233 4129 
Q 3647 3509 3647 2328 
Q 3647 1150 3233 529 
Q 2819 -91 2034 -91 
Q 1250 -91 836 529 
Q 422 1150 422 2328 
Q 422 3509 836 4129 
Q 1250 4750 2034 4750 
z
" transform="scale(0.015625)"/>
     </defs>
     <use xlink:href="#DejaVuSans-44"/>
     <use xlink:href="#DejaVuSans-20" x="77.001953"/>
     <use xlink:href="#DejaVuSans-5b" x="108.789062"/>
     <use xlink:href="#DejaVuSans-32" x="147.802734"/>
     <use xlink:href="#DejaVuSans-30" x="211.425781"/>
     <use xlink:href="#DejaVuSans-5d" x="275.048828"/>
    </g>
   </g>
   <g id="text_4">
    <!-- E [35] -->
    <g transform="translate(225.273796 23.019924) scale(0.1 -0.1)">
     <defs>
      <path id="DejaVuSans-45" d="M 628 4666 
L 3578 4666 
L 3578 4134 
L 1259 4134 
L 1259 2753 
L 3481 2753 
L 3481 2222 
L 1259 2222 
L 1259 531 
L 3634 531 
L 3634 0 
L 628 0 
L 628 4666 
z
" transform="scale(0.015625)"/>
     </defs>
     <use xlink:href="#DejaVuSans-45"/>
     <use xlink:href="#DejaVuSans-20" x="63.183594"/>
     <use xlink:href="#DejaVuSans-5b" x="94.970703"/>
     <use xlink:href="#DejaVuSans-33" x="133.984375"/>
     <use xlink:href="#DejaVuSans-35" x="197.607422"/>
     <use xlink:href="#DejaVuSans-5d" x="261.230469"/>
    </g>
   </g>
   <g id="text_5">
    <!-- F [24] -->
    <g transform="translate(183.592835 14.798437) scale(0.1 -0.1)">
     <defs>
      <path id="DejaVuSans-46" d="M 628 4666 
L 3309 4666 
L 3309 4134 
L 1259 4134 
L 1259 2759 
L 3109 2759 
L 3109 2228 
L 1259 2228 
L 1259 0 
L 628 0 
L 628 4666 
z
" transform="scale(0.015625)"/>
      <path id="DejaVuSans-34" d="M 2419 4116 
L 825 1625 
L 2419 1625 
L 2419 4116 
z
M 2253 4666 
L 3047 4666 
L 3047 1625 
L 3713 1625 
L 3713 1100 
L 3047 1100 
L 3047 0 
L 2419 0 
L 2419 1100 
L 313 1100 
L 313 1709 
L 2253 4666 
z
" transform="scale(0.015625)"/>
     </defs>
     <use xlink:href="#DejaVuSans-46"/>
     <use xlink:href="#DejaVuSans-20" x="57.519531"/>
     <use xlink:href="#DejaVuSans-5b" x="89.306641"/>
     <use xlink:href="#DejaVuSans-32" x="128.320312"/>
     <use xlink:href="#DejaVuSans-34" x="191.943359"/>
     <use xlink:href="#DejaVuSans-5d" x="255.566406"/>
    </g>
   </g>
   <g id="text_6">
    <!-- G [47] -->
    <g transform="translate(101.588465 21.838165) scale(0.1 -0.1)">
     <defs>
      <path id="DejaVuSans-47" d="M 3809 666 
L 3809 1919 
L 2778 1919 
L 2778 2438 
L 4434 2438 
L 4434 434 
Q 4069 175 3628 42 
Q 3188 -91 2688 -91 
Q 1594 -91 976 548 
Q 359 1188 359 2328 
Q 359 3472 976 4111 
Q 1594 4750 2688 4750 
Q 3144 4750 3555 4637 
Q 3966 4525 4313 4306 
L 4313 3634 
Q 3963 3931 3569 4081 
Q 3175 4231 2741 4231 
Q 1884 4231 1454 3753 
Q 1025 3275 1025 2328 
Q 1025 1384 1454 906 
Q 1884 428 2741 428 
Q 3075 428 3337 486 
Q 3600 544 3809 666 
z
" transform="scale(0.015625)"/>
      <path id="DejaVuSans-37" d="M 525 4666 
L 3525 4666 
L 3525 4397 
L 1831 0 
L 1172 0 
L 2766 4134 
L 525 4134 
L 525 4666 
z
" transform="scale(0.015625)"/>
     </defs>
     <use xlink:href="#DejaVuSans-47"/>
     <use xlink:href="#DejaVuSans-20" x="77.490234"/>
     <use xlink:href="#DejaVuSans-5b" x="109.277344"/>
     <use xlink:href="#DejaVuSans-34" x="148.291016"/>
     <use xlink:href="#DejaVuSans-37" x="211.914062"/>
     <use xlink:href="#DejaVuSans-5d" x="275.537109"/>
    </g>
   </g>
   <g id="text_7">
    <!-- H [9] -->
    <g transform="translate(72.101586 39.884137) scale(0.1 -0.1)">
     <defs>
      <path id="DejaVuSans-48" d="M 628 4666 
L 1259 4666 
L 1259 2753 
L 3553 2753 
L 3553 4666 
L 4184 4666 
L 4184 0 
L 3553 0 
L 3553 2222 
L 1259 2222 
L 1259 0 
L 628 0 
L 628 4666 
z
" transform="scale(0.015625)"/>
     </defs>
     <use xlink:href="#DejaVuSans-48"/>
     <use xlink:href="#DejaVuSans-20" x="75.195312"/>
     <use xlink:href="#DejaVuSans-5b" x="106.982422"/>
     <use xlink:href="#DejaVuSans-39" x="145.996094"/>
     <use xlink:href="#DejaVuSans-5d" x="209.619141"/>
    </g>
   </g>
   <g id="text_8">
    <!-- I [30] -->
    <g transform="translate(48.916281 58.169812) scale(0.1 -0.1)">
     <defs>
      <path id="DejaVuSans-49" d="M 628 4666 
L 1259 4666 
L 1259 0 
L 628 0 
L 628 4666 
z
" transform="scale(0.015625)"/>
     </defs>
     <use xlink:href="#DejaVuSans-49"/>
     <use xlink:href="#DejaVuSans-20" x="29.492188"/>
     <use xlink:href="#DejaVuSans-5b" x="61.279297"/>
     <use xlink:href="#DejaVuSans-33" x="100.292969"/>
     <use xlink:href="#DejaVuSans-30" x="163.916016"/>
     <use xlink:href="#DejaVuSans-5d" x="227.539062"/>
    </g>
   </g>
   <g id="text_9">
    <!-- K [22] -->
    <g transform="translate(23.218832 88.442889) scale(0.1 -0.1)">
     <defs>
      <path id="DejaVuSans-4b" d="M 628 4666 
L 1259 4666 
L 1259 2694 
L 3353 4666 
L 4166 4666 
L 1850 2491 
L 4331 0 
L 3500 0 
L 1259 2247 
L 1259 0 
L 628 0 
L 628 4666 
z
" transform="scale(0.015625)"/>
     </defs>
     <use xlink:href="#DejaVuSans-4b"/>
     <use xlink:href="#DejaVuSans-20" x="65.576172"/>
     <use xlink:href="#DejaVuSans-5b" x="97.363281"/>
     <use xlink:href="#DejaVuSans-32" x="136.376953"/>
     <use xlink:href="#DejaVuSans-32" x="200"/>
     <use xlink:href="#DejaVuSans-5d" x="263.623047"/>
    </g>
   </g>
   <g id="text_10">
    <!-- L [69] -->
    <g transform="translate(7.2 151.367764) scale(0.1 -0.1)">
     <defs>
      <path id="DejaVuSans-4c" d="M 628 4666 
L 1259 4666 
L 1259 531 
L 3531 531 
L 3531 0 
L 628 0 
L 628 4666 
z
" transform="scale(0.015625)"/>
      <path id="DejaVuSans-36" d="M 2113 2584 
Q 1688 2584 1439 2293 
Q 1191 2003 1191 1497 
Q 1191 994 1439 701 
Q 1688 409 2113 409 
Q 2538 409 2786 701 
Q 3034 994 3034 1497 
Q 3034 2003 2786 2293 
Q 2538 2584 2113 2584 
z
M 3366 4563 
L 3366 3988 
Q 3128 4100 2886 4159 
Q 2644 4219 2406 4219 
Q 1781 4219 1451 3797 
Q 1122 3375 1075 2522 
Q 1259 2794 1537 2939 
Q 1816 3084 2150 3084 
Q 2853 3084 3261 2657 
Q 3669 2231 3669 1497 
Q 3669 778 3244 343 
Q 2819 -91 2113 -91 
Q 1303 -91 875 529 
Q 447 1150 447 2328 
Q 447 3434 972 4092 
Q 1497 4750 2381 4750 
Q 2619 4750 2861 4703 
Q 3103 4656 3366 4563 
z
" transform="scale(0.015625)"/>
     </defs>
     <use xlink:href="#DejaVuSans-4c"/>
     <use xlink:href="#DejaVuSans-20" x="55.712891"/>
     <use xlink:href="#DejaVuSans-5b" x="87.5"/>
     <use xlink:href="#DejaVuSans-36" x="126.513672"/>
     <use xlink:href="#DejaVuSans-39" x="190.136719"/>
     <use xlink:href="#DejaVuSans-5d" x="253.759766"/>
    </g>
   </g>
   <g id="text_11">
    <!-- M [11] -->
    <g transform="translate(14.098767 207.919622) scale(0.1 -0.1)">
     <defs>
      <path id="DejaVuSans-4d" d="M 628 4666 
L 1569 4666 
L 2759 1491 
L 3956 4666 
L 4897 4666 
L 4897 0 
L 4281 0 
L 4281 4097 
L 3078 897 
L 2444 897 
L 1241 4097 
L 1241 0 
L 628 0 
L 628 4666 
z
" transform="scale(0.015625)"/>
      <path id="DejaVuSans-31" d="M 794 531 
L 1825 531 
L 1825 4091 
L 703 3866 
L 703 4441 
L 1819 4666 
L 2450 4666 
L 2450 531 
L 3481 531 
L 3481 0 
L 794 0 
L 794 531 
z
" transform="scale(0.015625)"/>
     </defs>
     <use xlink:href="#DejaVuSans-4d"/>
     <use xlink:href="#DejaVuSans-20" x="86.279297"/>
     <use xlink:href="#DejaVuSans-5b" x="118.066406"/>
     <use xlink:href="#DejaVuSans-31" x="157.080078"/>
     <use xlink:href="#DejaVuSans-31" x="220.703125"/>
     <use xlink:href="#DejaVuSans-5d" x="284.326172"/>
    </g>
   </g>
   <g id="text_12">
    <!-- N [18] -->
    <g transform="translate(24.42193 226.744682) scale(0.1 -0.1)">
     <defs>
      <path id="DejaVuSans-4e" d="M 628 4666 
L 1478 4666 
L 3547 763 
L 3547 4666 
L 4159 4666 
L 4159 0 
L 3309 0 
L 1241 3903 
L 1241 0 
L 628 0 
L 628 4666 
z
" transform="scale(0.015625)"/>
      <path id="DejaVuSans-38" d="M 2034 2216 
Q 1584 2216 1326 1975 
Q 1069 1734 1069 1313 
Q 1069 891 1326 650 
Q 1584 409 2034 409 
Q 2484 409 2743 651 
Q 3003 894 3003 1313 
Q 3003 1734 2745 1975 
Q 2488 2216 2034 2216 
z
M 1403 2484 
Q 997 2584 770 2862 
Q 544 3141 544 3541 
Q 544 4100 942 4425 
Q 1341 4750 2034 4750 
Q 2731 4750 3128 4425 
Q 3525 4100 3525 3541 
Q 3525 3141 3298 2862 
Q 3072 2584 2669 2484 
Q 3125 2378 3379 2068 
Q 3634 1759 3634 1313 
Q 3634 634 3220 271 
Q 2806 -91 2034 -91 
Q 1263 -91 848 271 
Q 434 634 434 1313 
Q 434 1759 690 2068 
Q 947 2378 1403 2484 
z
M 1172 3481 
Q 1172 3119 1398 2916 
Q 1625 2713 2034 2713 
Q 2441 2713 2670 2916 
Q 2900 3119 2900 3481 
Q 2900 3844 2670 4047 
Q 2441 4250 2034 4250 
Q 1625 4250 1398 4047 
Q 1172 3844 1172 3481 
z
" transform="scale(0.015625)"/>
     </defs>
     <use xlink:href="#DejaVuSans-4e"/>
     <use xlink:href="#DejaVuSans-20" x="74.804688"/>
     <use xlink:href="#DejaVuSans-5b" x="106.591797"/>
     <use xlink:href="#DejaVuSans-31" x="145.605469"/>
     <use xlink:href="#DejaVuSans-38" x="209.228516"/>
     <use xlink:href="#DejaVuSans-5d" x="272.851562"/>
    </g>
   </g>
   <g id="text_13">
    <!-- P [42] -->
    <g transform="translate(53.090716 260.290659) scale(0.1 -0.1)">
     <defs>
      <path id="DejaVuSans-50" d="M 1259 4147 
L 1259 2394 
L 2053 2394 
Q 2494 2394 2734 2622 
Q 2975 2850 2975 3272 
Q 2975 3691 2734 3919 
Q 2494 4147 2053 4147 
L 1259 4147 
z
M 628 4666 
L 2053 4666 
Q 2838 4666 3239 4311 
Q 3641 3956 3641 3272 
Q 3641 2581 3239 2228 
Q 2838 1875 2053 1875 
L 1259 1875 
L 1259 0 
L 628 0 
L 628 4666 
z
" transform="scale(0.015625)"/>
     </defs>
     <use xlink:href="#DejaVuSans-50"/>
     <use xlink:href="#DejaVuSans-20" x="60.302734"/>
     <use xlink:href="#DejaVuSans-5b" x="92.089844"/>
     <use xlink:href="#DejaVuSans-34" x="131.103516"/>
     <use xlink:href="#DejaVuSans-32" x="194.726562"/>
     <use xlink:href="#DejaVuSans-5d" x="258.349609"/>
    </g>
   </g>
   <g id="text_14">
    <!-- Q [20] -->
    <g transform="translate(88.660925 284.618369) scale(0.1 -0.1)">
     <defs>
      <path id="DejaVuSans-51" d="M 2522 4238 
Q 1834 4238 1429 3725 
Q 1025 3213 1025 2328 
Q 1025 1447 1429 934 
Q 1834 422 2522 422 
Q 3209 422 3611 934 
Q 4013 1447 4013 2328 
Q 4013 3213 3611 3725 
Q 3209 4238 2522 4238 
z
M 3406 84 
L 4238 -825 
L 3475 -825 
L 2784 -78 
Q 2681 -84 2626 -87 
Q 2572 -91 2522 -91 
Q 1538 -91 948 567 
Q 359 1225 359 2328 
Q 359 3434 948 4092 
Q 1538 4750 2522 4750 
Q 3503 4750 4090 4092 
Q 4678 3434 4678 2328 
Q 4678 1516 4351 937 
Q 4025 359 3406 84 
z
" transform="scale(0.015625)"/>
     </defs>
     <use xlink:href="#DejaVuSans-51"/>
     <use xlink:href="#DejaVuSans-20" x="78.710938"/>
     <use xlink:href="#DejaVuSans-5b" x="110.498047"/>
     <use xlink:href="#DejaVuSans-32" x="149.511719"/>
     <use xlink:href="#DejaVuSans-30" x="213.134766"/>
     <use xlink:href="#DejaVuSans-5d" x="276.757812"/>
    </g>
   </g>
   <g id="text_15">
    <!-- R [41] -->
    <g transform="translate(132.00557 295.965683) scale(0.1 -0.1)">
     <defs>
      <path id="DejaVuSans-52" d="M 2841 2188 
Q 3044 2119 3236 1894 
Q 3428 1669 3622 1275 
L 4263 0 
L 3584 0 
L 2988 1197 
Q 2756 1666 2539 1819 
Q 2322 1972 1947 1972 
L 1259 1972 
L 1259 0 
L 628 0 
L 628 4666 
L 2053 4666 
Q 2853 4666 3247 4331 
Q 3641 3997 3641 3322 
Q 3641 2881 3436 2590 
Q 3231 2300 2841 2188 
z
M 1259 4147 
L 1259 2491 
L 2053 2491 
Q 2509 2491 2742 2702 
Q 2975 2913 2975 3322 
Q 2975 3731 2742 3939 
Q 2509 4147 2053 4147 
L 1259 4147 
z
" transform="scale(0.015625)"/>
     </defs>
     <use xlink:href="#DejaVuSans-52"/>
     <use xlink:href="#DejaVuSans-20" x="69.482422"/>
     <use xlink:href="#DejaVuSans-5b" x="101.269531"/>
     <use xlink:href="#DejaVuSans-34" x="140.283203"/>
     <use xlink:href="#DejaVuSans-31" x="203.90625"/>
     <use xlink:href="#DejaVuSans-5d" x="267.529297"/>
    </g>
   </g>
   <g id="text_16">
    <!-- S [46] -->
    <g transform="translate(224.593165 288.631419) scale(0.1 -0.1)">
     <defs>
      <path id="DejaVuSans-53" d="M 3425 4513 
L 3425 3897 
Q 3066 4069 2747 4153 
Q 2428 4238 2131 4238 
Q 1616 4238 1336 4038 
Q 1056 3838 1056 3469 
Q 1056 3159 1242 3001 
Q 1428 2844 1947 2747 
L 2328 2669 
Q 3034 2534 3370 2195 
Q 3706 1856 3706 1288 
Q 3706 609 3251 259 
Q 2797 -91 1919 -91 
Q 1588 -91 1214 -16 
Q 841 59 441 206 
L 441 856 
Q 825 641 1194 531 
Q 1563 422 1919 422 
Q 2459 422 2753 634 
Q 3047 847 3047 1241 
Q 3047 1584 2836 1778 
Q 2625 1972 2144 2069 
L 1759 2144 
Q 1053 2284 737 2584 
Q 422 2884 422 3419 
Q 422 4038 858 4394 
Q 1294 4750 2059 4750 
Q 2388 4750 2728 4690 
Q 3069 4631 3425 4513 
z
" transform="scale(0.015625)"/>
     </defs>
     <use xlink:href="#DejaVuSans-53"/>
     <use xlink:href="#DejaVuSans-20" x="63.476562"/>
     <use xlink:href="#DejaVuSans-5b" x="95.263672"/>
     <use xlink:href="#DejaVuSans-34" x="134.277344"/>
     <use xlink:href="#DejaVuSans-36" x="197.900391"/>
     <use xlink:href="#DejaVuSans-5d" x="261.523438"/>
    </g>
   </g>
   <g id="text_17">
    <!-- T [38] -->
    <g transform="translate(275.765283 256.829491) scale(0.1 -0.1)">
     <defs>
      <path id="DejaVuSans-54" d="M -19 4666 
L 3928 4666 
L 3928 4134 
L 2272 4134 
L 2272 0 
L 1638 0 
L 1638 4134 
L -19 4134 
L -19 4666 
z
" transform="scale(0.015625)"/>
     </defs>
     <use xlink:href="#DejaVuSans-54"/>
     <use xlink:href="#DejaVuSans-20" x="61.083984"/>
     <use xlink:href="#DejaVuSans-5b" x="92.871094"/>
     <use xlink:href="#DejaVuSans-33" x="131.884766"/>
     <use xlink:href="#DejaVuSans-38" x="195.507812"/>
     <use xlink:href="#DejaVuSans-5d" x="259.130859"/>
    </g>
   </g>
   <g id="text_18">
    <!-- V [31] -->
    <g transform="translate(304.701547 216.52629) scale(0.1 -0.1)">
     <defs>
      <path id="DejaVuSans-56" d="M 1831 0 
L 50 4666 
L 709 4666 
L 2188 738 
L 3669 4666 
L 4325 4666 
L 2547 0 
L 1831 0 
z
" transform="scale(0.015625)"/>
     </defs>
     <use xlink:href="#DejaVuSans-56"/>
     <use xlink:href="#DejaVuSans-20" x="68.408203"/>
     <use xlink:href="#DejaVuSans-5b" x="100.195312"/>
     <use xlink:href="#DejaVuSans-33" x="139.208984"/>
     <use xlink:href="#DejaVuSans-31" x="202.832031"/>
     <use xlink:href="#DejaVuSans-5d" x="266.455078"/>
    </g>
   </g>
   <g id="text_19">
    <!-- W [10] -->
    <g transform="translate(314.589021 188.646559) scale(0.1 -0.1)">
     <defs>
      <path id="DejaVuSans-57" d="M 213 4666 
L 850 4666 
L 1831 722 
L 2809 4666 
L 3519 4666 
L 4500 722 
L 5478 4666 
L 6119 4666 
L 4947 0 
L 4153 0 
L 3169 4050 
L 2175 0 
L 1381 0 
L 213 4666 
z
" transform="scale(0.015625)"/>
     </defs>
     <use xlink:href="#DejaVuSans-57"/>
     <use xlink:href="#DejaVuSans-20" x="98.876953"/>
     <use xlink:href="#DejaVuSans-5b" x="130.664062"/>
     <use xlink:href="#DejaVuSans-31" x="169.677734"/>
     <use xlink:href="#DejaVuSans-30" x="233.300781"/>
     <use xlink:href="#DejaVuSans-5d" x="296.923828"/>
    </g>
   </g>
   <g id="text_20">
    <!-- Y [18] -->
    <g transform="translate(317.890481 168.696305) scale(0.1 -0.1)">
     <defs>
      <path id="DejaVuSans-59" d="M -13 4666 
L 666 4666 
L 1959 2747 
L 3244 4666 
L 3922 4666 
L 2272 2222 
L 2272 0 
L 1638 0 
L 1638 2222 
L -13 4666 
z
" transform="scale(0.015625)"/>
     </defs>
     <use xlink:href="#DejaVuSans-59"/>
     <use xlink:href="#DejaVuSans-20" x="61.083984"/>
     <use xlink:href="#DejaVuSans-5b" x="92.871094"/>
     <use xlink:href="#DejaVuSans-31" x="131.884766"/>
     <use xlink:href="#DejaVuSans-38" x="195.507812"/>
     <use xlink:href="#DejaVuSans-5d" x="259.130859"/>
    </g>
   </g>
   <g id="text_21">
    <!-- Q0VD43 [613] -->
    <g transform="translate(134.509561 152.944622) scale(0.12 -0.12)">
     <use xlink:href="#DejaVuSans-51"/>
     <use xlink:href="#DejaVuSans-30" x="78.710938"/>
     <use xlink:href="#DejaVuSans-56" x="142.333984"/>
     <use xlink:href="#DejaVuSans-44" x="210.742188"/>
     <use xlink:href="#DejaVuSans-34" x="287.744141"/>
     <use xlink:href="#DejaVuSans-33" x="351.367188"/>
     <use xlink:href="#DejaVuSans-20" x="414.990234"/>
     <use xlink:href="#DejaVuSans-5b" x="446.777344"/>
     <use xlink:href="#DejaVuSans-36" x="485.791016"/>
     <use xlink:href="#DejaVuSans-31" x="549.414062"/>
     <use xlink:href="#DejaVuSans-33" x="613.037109"/>
     <use xlink:href="#DejaVuSans-5d" x="676.660156"/>
    </g>
   </g>
  </g>
 </g>
</svg>
