<?xml version="1.0" encoding="utf-8" standalone="no"?>
<!DOCTYPE svg PUBLIC "-//W3C//DTD SVG 1.1//EN"
  "http://www.w3.org/Graphics/SVG/1.1/DTD/svg11.dtd">
<svg xmlns:xlink="http://www.w3.org/1999/xlink" width="351.458216pt" height="305.950411pt" viewBox="0 0 351.458216 305.950411" xmlns="http://www.w3.org/2000/svg" version="1.1">
 <metadata>
  <rdf:RDF xmlns:dc="http://purl.org/dc/elements/1.1/" xmlns:cc="http://creativecommons.org/ns#" xmlns:rdf="http://www.w3.org/1999/02/22-rdf-syntax-ns#">
   <cc:Work>
    <dc:type rdf:resource="http://purl.org/dc/dcmitype/StillImage"/>
    <dc:date>2024-09-27T16:07:09.892450</dc:date>
    <dc:format>image/svg+xml</dc:format>
    <dc:creator>
     <cc:Agent>
      <dc:title>Matplotlib v3.8.3, https://matplotlib.org/</dc:title>
     </cc:Agent>
    </dc:creator>
   </cc:Work>
  </rdf:RDF>
 </metadata>
 <defs>
  <style type="text/css">*{stroke-linejoin: round; stroke-linecap: butt}</style>
 </defs>
 <g id="figure_1">
  <g id="patch_1">
   <path d="M 0 305.950411 
L 351.458216 305.950411 
L 351.458216 -0 
L 0 -0 
z
" style="fill: #ffffff"/>
  </g>
  <g id="axes_1">
   <g id="patch_2">
    <path d="M 302.98347 152.910125 
C 302.98347 145.631612 302.361355 138.366399 301.12392 131.193846 
C 299.886485 124.021294 298.038253 116.967615 295.599412 110.109859 
L 175.24971 152.910125 
z
" style="fill: #1f77b4"/>
   </g>
   <g id="patch_3">
    <path d="M 295.557235 109.975289 
C 294.202893 106.167024 292.668554 102.425189 290.959398 98.762415 
C 289.250243 95.099641 287.368197 91.520056 285.319614 88.035743 
L 175.207534 152.775555 
z
" style="fill: #ff7f0e"/>
   </g>
   <g id="patch_4">
    <path d="M 285.268486 87.948783 
C 283.219903 84.46447 281.007091 81.079357 278.637521 77.80487 
C 276.267951 74.530384 273.744293 71.370213 271.075066 68.335028 
L 175.156406 152.688594 
z
" style="fill: #aec7e8"/>
   </g>
   <g id="patch_5">
    <path d="M 271.019339 68.269812 
C 269.151059 66.145386 267.212716 64.083614 265.207517 62.087909 
C 263.202319 60.092204 261.131372 58.163667 258.998103 56.305489 
L 175.10068 152.623379 
z
" style="fill: #ffbb78"/>
   </g>
   <g id="patch_6">
    <path d="M 258.872571 56.212821 
C 251.551283 49.835634 243.526697 44.313945 234.954408 39.754818 
C 226.382118 35.195692 217.317891 31.628786 207.937479 29.123263 
L 174.975148 152.53071 
z
" style="fill: #98df8a"/>
   </g>
   <g id="patch_7">
    <path d="M 207.77556 29.068263 
C 203.870538 28.025225 199.918208 27.168127 195.931913 26.499861 
C 191.945619 25.831596 187.92985 25.352916 183.898166 25.065439 
L 174.813229 152.475711 
z
" style="fill: #2ca02c"/>
   </g>
   <g id="patch_8">
    <path d="M 183.827848 25.058408 
C 182.215428 24.943435 180.600971 24.859081 178.98535 24.805391 
C 177.369728 24.751702 175.753232 24.728687 174.136737 24.736358 
L 174.742911 152.46868 
z
" style="fill: #d62728"/>
   </g>
   <g id="patch_9">
    <path d="M 173.962299 24.759674 
C 161.412286 24.819232 148.939292 26.728071 136.94587 30.424583 
C 124.952448 34.121096 113.569028 39.565084 103.162998 46.580846 
L 174.568474 152.491996 
z
" style="fill: #9467bd"/>
   </g>
   <g id="patch_10">
    <path d="M 102.947911 46.708683 
C 96.577172 51.003846 90.606948 55.86508 85.109885 61.233231 
C 79.612822 66.601383 74.611309 72.45459 70.166204 78.72163 
L 174.353387 152.619832 
z
" style="fill: #ff9896"/>
   </g>
   <g id="patch_11">
    <path d="M 70.016364 78.997027 
C 59.692171 93.552844 52.531993 110.111973 48.998618 127.604143 
C 45.465243 145.096313 45.63647 163.136368 49.501234 180.558318 
L 174.203547 152.89523 
z
" style="fill: #c5b0d5"/>
   </g>
   <g id="patch_12">
    <path d="M 49.523179 180.846783 
C 50.748893 186.372172 52.340486 191.809993 54.287433 197.124284 
C 56.23438 202.438576 58.532381 207.617597 61.166236 212.627098 
L 174.225493 153.183696 
z
" style="fill: #c49c94"/>
   </g>
   <g id="patch_13">
    <path d="M 61.234807 212.756027 
C 64.056949 218.123642 67.257761 223.283472 70.81295 228.196353 
C 74.368138 233.109234 78.268684 237.762704 82.484982 242.121443 
L 174.294063 153.312625 
z
" style="fill: #8c564b"/>
   </g>
   <g id="patch_14">
    <path d="M 82.586012 242.226883 
C 86.521009 246.294818 90.722027 250.096727 95.161282 253.607469 
C 99.600537 257.118211 104.268223 260.330029 109.133471 263.221682 
L 174.395094 153.418066 
z
" style="fill: #e377c2"/>
   </g>
   <g id="patch_15">
    <path d="M 109.222663 263.278784 
C 111.654616 264.724213 114.133919 266.088447 116.656469 267.369229 
C 119.179018 268.650012 121.743422 269.846636 124.345437 270.957122 
L 174.484285 153.475169 
z
" style="fill: #7f7f7f"/>
   </g>
   <g id="patch_16">
    <path d="M 124.439308 270.994061 
C 129.272708 273.056856 134.228806 274.819405 139.279336 276.271656 
C 144.329865 277.723908 149.465207 278.863096 154.656074 279.682723 
L 174.578156 153.512108 
z
" style="fill: #f7b6d2"/>
   </g>
   <g id="patch_17">
    <path d="M 154.825877 279.702964 
C 163.215397 281.027652 171.716163 281.512271 180.201877 281.149621 
C 188.68759 280.786971 197.116015 279.578857 205.361927 277.543229 
L 174.747959 153.532349 
z
" style="fill: #c7c7c7"/>
   </g>
   <g id="patch_18">
    <path d="M 205.584644 277.483741 
C 215.404586 275.059539 224.901917 271.47749 233.876879 266.812936 
C 242.851841 262.148382 251.241067 256.434256 258.868108 249.790743 
L 174.970677 153.47286 
z
" style="fill: #dbdb8d"/>
   </g>
   <g id="patch_19">
    <path d="M 259.050856 249.634586 
C 266.066473 243.523652 272.393474 236.664461 277.919158 229.179195 
C 283.444842 221.693929 288.136204 213.627296 291.909678 205.122986 
L 175.153425 153.316704 
z
" style="fill: #bcbd22"/>
   </g>
   <g id="patch_20">
    <path d="M 291.977664 204.999431 
C 292.79721 203.152413 293.572813 201.286207 294.303817 199.402391 
C 295.034821 197.518574 295.721021 195.617677 296.361837 193.701304 
L 175.221411 153.193148 
z
" style="fill: #17becf"/>
   </g>
   <g id="patch_21">
    <path d="M 296.390972 193.594268 
C 298.570825 187.075373 300.220928 180.391145 301.325198 173.606726 
C 302.429467 166.822307 302.984306 159.959807 302.984306 153.086107 
L 175.250546 153.086112 
z
" style="fill: #9edae5"/>
   </g>
   <g id="patch_22">
    <path d="M 249.236594 153.00061 
C 249.236594 148.754811 248.873694 144.516769 248.151857 140.33278 
C 247.43002 136.148792 246.351884 132.034145 244.929227 128.033788 
L 174.725234 153.00061 
z
" style="fill: #ffffff"/>
   </g>
   <g id="patch_23">
    <path d="M 244.929227 128.033788 
C 244.139194 125.8123 243.244163 123.629563 242.247155 121.492945 
C 241.250148 119.356327 240.152288 117.268235 238.957281 115.23572 
L 174.725234 153.00061 
z
" style="fill: #ffffff"/>
   </g>
   <g id="patch_24">
    <path d="M 238.957281 115.23572 
C 237.762275 113.203204 236.471468 111.228555 235.089219 109.318437 
C 233.706969 107.40832 232.234835 105.564888 230.677786 103.794363 
L 174.725234 153.00061 
z
" style="fill: #ffffff"/>
   </g>
   <g id="patch_25">
    <path d="M 230.677786 103.794363 
C 229.587956 102.555114 228.457256 101.352414 227.287556 100.188253 
C 226.117857 99.024091 224.909805 97.899111 223.665398 96.815174 
L 174.725234 153.00061 
z
" style="fill: #ffffff"/>
   </g>
   <g id="patch_26">
    <path d="M 223.665398 96.815174 
C 219.394647 93.095148 214.713638 89.874163 209.713136 87.214673 
C 204.712634 84.555182 199.425168 82.474487 193.953261 81.012932 
L 174.725234 153.00061 
z
" style="fill: #ffffff"/>
   </g>
   <g id="patch_27">
    <path d="M 193.953261 81.012932 
C 191.675331 80.404493 189.369806 79.904519 187.044467 79.514698 
C 184.719128 79.124876 182.376597 78.845647 180.024781 78.677951 
L 174.725234 153.00061 
z
" style="fill: #ffffff"/>
   </g>
   <g id="patch_28">
    <path d="M 180.024781 78.677951 
C 179.084203 78.610884 178.142436 78.561677 177.19999 78.530358 
C 176.257544 78.49904 175.314588 78.485614 174.371633 78.490089 
L 174.725234 153.00061 
z
" style="fill: #ffffff"/>
   </g>
   <g id="patch_29">
    <path d="M 174.371633 78.490089 
C 167.050792 78.524831 159.774878 79.63832 152.778716 81.794619 
C 145.782553 83.950919 139.142224 87.126578 133.072041 91.219106 
L 174.725234 153.00061 
z
" style="fill: #ffffff"/>
   </g>
   <g id="patch_30">
    <path d="M 133.072041 91.219106 
C 129.355776 93.724618 125.873145 96.560338 122.666525 99.691759 
C 119.459905 102.823181 116.542356 106.237552 113.949378 109.893325 
L 174.725234 153.00061 
z
" style="fill: #ffffff"/>
   </g>
   <g id="patch_31">
    <path d="M 113.949378 109.893325 
C 107.926932 118.384218 103.750161 128.043709 101.689026 138.247475 
C 99.62789 148.451241 99.727773 158.974607 101.982218 169.137411 
L 174.725234 153.00061 
z
" style="fill: #ffffff"/>
   </g>
   <g id="patch_32">
    <path d="M 101.982218 169.137411 
C 102.697218 172.360555 103.625647 175.532617 104.761366 178.63262 
C 105.897086 181.732623 107.237586 184.753719 108.774002 187.675928 
L 174.725234 153.00061 
z
" style="fill: #ffffff"/>
   </g>
   <g id="patch_33">
    <path d="M 108.774002 187.675928 
C 110.420251 190.807036 112.287392 193.816937 114.361252 196.682784 
C 116.435111 199.548631 118.71043 202.263156 121.169937 204.805753 
L 174.725234 153.00061 
z
" style="fill: #ffffff"/>
   </g>
   <g id="patch_34">
    <path d="M 121.169937 204.805753 
C 123.465352 207.178715 125.915945 209.396496 128.505511 211.444429 
C 131.095077 213.492361 133.817893 215.365922 136.655955 217.052719 
L 174.725234 153.00061 
z
" style="fill: #ffffff"/>
   </g>
   <g id="patch_35">
    <path d="M 136.655955 217.052719 
C 138.074594 217.895886 139.520854 218.691689 140.992341 219.438812 
C 142.463829 220.185935 143.959731 220.883966 145.477573 221.531749 
L 174.725234 153.00061 
z
" style="fill: #ffffff"/>
   </g>
   <g id="patch_36">
    <path d="M 145.477573 221.531749 
C 148.297057 222.735046 151.188114 223.7632 154.134256 224.610347 
C 157.080398 225.457493 160.076014 226.122019 163.10402 226.600135 
L 174.725234 153.00061 
z
" style="fill: #ffffff"/>
   </g>
   <g id="patch_37">
    <path d="M 163.10402 226.600135 
C 167.997906 227.37287 172.956687 227.655565 177.906686 227.444019 
C 182.856686 227.232473 187.773267 226.52774 192.583382 225.34029 
L 174.725234 153.00061 
z
" style="fill: #ffffff"/>
   </g>
   <g id="patch_38">
    <path d="M 192.583382 225.34029 
C 198.311682 223.926172 203.851791 221.836644 209.087186 219.115654 
C 214.32258 216.394664 219.216296 213.061424 223.665403 209.186041 
L 174.725234 153.00061 
z
" style="fill: #ffffff"/>
   </g>
   <g id="patch_39">
    <path d="M 223.665403 209.186041 
C 227.757846 205.62133 231.448596 201.620135 234.671912 197.25373 
C 237.895228 192.887324 240.631855 188.181789 242.833049 183.220941 
L 174.725234 153.00061 
z
" style="fill: #ffffff"/>
   </g>
   <g id="patch_40">
    <path d="M 242.833049 183.220941 
C 243.311117 182.143514 243.763552 181.054894 244.189971 179.956001 
C 244.61639 178.857108 245.016674 177.748251 245.390483 176.630367 
L 174.725234 153.00061 
z
" style="fill: #ffffff"/>
   </g>
   <g id="patch_41">
    <path d="M 245.390483 176.630367 
C 246.662064 172.827678 247.624624 168.928545 248.268781 164.970968 
C 248.912939 161.01339 249.236595 157.010265 249.236594 153.000607 
L 174.725234 153.00061 
z
" style="fill: #ffffff"/>
   </g>
   <g id="matplotlib.axis_1"/>
   <g id="matplotlib.axis_2"/>
   <g id="text_1">
    <!-- A [18] -->
    <g transform="translate(313.711341 131.781593) scale(0.1 -0.1)">
     <defs>
      <path id="DejaVuSans-41" d="M 2188 4044 
L 1331 1722 
L 3047 1722 
L 2188 4044 
z
M 1831 4666 
L 2547 4666 
L 4325 0 
L 3669 0 
L 3244 1197 
L 1141 1197 
L 716 0 
L 50 0 
L 1831 4666 
z
" transform="scale(0.015625)"/>
      <path id="DejaVuSans-20" transform="scale(0.015625)"/>
      <path id="DejaVuSans-5b" d="M 550 4863 
L 1875 4863 
L 1875 4416 
L 1125 4416 
L 1125 -397 
L 1875 -397 
L 1875 -844 
L 550 -844 
L 550 4863 
z
" transform="scale(0.015625)"/>
      <path id="DejaVuSans-31" d="M 794 531 
L 1825 531 
L 1825 4091 
L 703 3866 
L 703 4441 
L 1819 4666 
L 2450 4666 
L 2450 531 
L 3481 531 
L 3481 0 
L 794 0 
L 794 531 
z
" transform="scale(0.015625)"/>
      <path id="DejaVuSans-38" d="M 2034 2216 
Q 1584 2216 1326 1975 
Q 1069 1734 1069 1313 
Q 1069 891 1326 650 
Q 1584 409 2034 409 
Q 2484 409 2743 651 
Q 3003 894 3003 1313 
Q 3003 1734 2745 1975 
Q 2488 2216 2034 2216 
z
M 1403 2484 
Q 997 2584 770 2862 
Q 544 3141 544 3541 
Q 544 4100 942 4425 
Q 1341 4750 2034 4750 
Q 2731 4750 3128 4425 
Q 3525 4100 3525 3541 
Q 3525 3141 3298 2862 
Q 3072 2584 2669 2484 
Q 3125 2378 3379 2068 
Q 3634 1759 3634 1313 
Q 3634 634 3220 271 
Q 2806 -91 2034 -91 
Q 1263 -91 848 271 
Q 434 634 434 1313 
Q 434 1759 690 2068 
Q 947 2378 1403 2484 
z
M 1172 3481 
Q 1172 3119 1398 2916 
Q 1625 2713 2034 2713 
Q 2441 2713 2670 2916 
Q 2900 3119 2900 3481 
Q 2900 3844 2670 4047 
Q 2441 4250 2034 4250 
Q 1625 4250 1398 4047 
Q 1172 3844 1172 3481 
z
" transform="scale(0.015625)"/>
      <path id="DejaVuSans-5d" d="M 1947 4863 
L 1947 -844 
L 622 -844 
L 622 -397 
L 1369 -397 
L 1369 4416 
L 622 4416 
L 622 4863 
L 1947 4863 
z
" transform="scale(0.015625)"/>
     </defs>
     <use xlink:href="#DejaVuSans-41"/>
     <use xlink:href="#DejaVuSans-20" x="68.408203"/>
     <use xlink:href="#DejaVuSans-5b" x="100.195312"/>
     <use xlink:href="#DejaVuSans-31" x="139.208984"/>
     <use xlink:href="#DejaVuSans-38" x="202.832031"/>
     <use xlink:href="#DejaVuSans-5d" x="266.455078"/>
    </g>
   </g>
   <g id="text_2">
    <!-- C [10] -->
    <g transform="translate(302.534585 96.120476) scale(0.1 -0.1)">
     <defs>
      <path id="DejaVuSans-43" d="M 4122 4306 
L 4122 3641 
Q 3803 3938 3442 4084 
Q 3081 4231 2675 4231 
Q 1875 4231 1450 3742 
Q 1025 3253 1025 2328 
Q 1025 1406 1450 917 
Q 1875 428 2675 428 
Q 3081 428 3442 575 
Q 3803 722 4122 1019 
L 4122 359 
Q 3791 134 3420 21 
Q 3050 -91 2638 -91 
Q 1578 -91 968 557 
Q 359 1206 359 2328 
Q 359 3453 968 4101 
Q 1578 4750 2638 4750 
Q 3056 4750 3426 4639 
Q 3797 4528 4122 4306 
z
" transform="scale(0.015625)"/>
      <path id="DejaVuSans-30" d="M 2034 4250 
Q 1547 4250 1301 3770 
Q 1056 3291 1056 2328 
Q 1056 1369 1301 889 
Q 1547 409 2034 409 
Q 2525 409 2770 889 
Q 3016 1369 3016 2328 
Q 3016 3291 2770 3770 
Q 2525 4250 2034 4250 
z
M 2034 4750 
Q 2819 4750 3233 4129 
Q 3647 3509 3647 2328 
Q 3647 1150 3233 529 
Q 2819 -91 2034 -91 
Q 1250 -91 836 529 
Q 422 1150 422 2328 
Q 422 3509 836 4129 
Q 1250 4750 2034 4750 
z
" transform="scale(0.015625)"/>
     </defs>
     <use xlink:href="#DejaVuSans-43"/>
     <use xlink:href="#DejaVuSans-20" x="69.824219"/>
     <use xlink:href="#DejaVuSans-5b" x="101.611328"/>
     <use xlink:href="#DejaVuSans-31" x="140.625"/>
     <use xlink:href="#DejaVuSans-30" x="204.248047"/>
     <use xlink:href="#DejaVuSans-5d" x="267.871094"/>
    </g>
   </g>
   <g id="text_3">
    <!-- D [10] -->
    <g transform="translate(288.985633 73.075873) scale(0.1 -0.1)">
     <defs>
      <path id="DejaVuSans-44" d="M 1259 4147 
L 1259 519 
L 2022 519 
Q 2988 519 3436 956 
Q 3884 1394 3884 2338 
Q 3884 3275 3436 3711 
Q 2988 4147 2022 4147 
L 1259 4147 
z
M 628 4666 
L 1925 4666 
Q 3281 4666 3915 4102 
Q 4550 3538 4550 2338 
Q 4550 1131 3912 565 
Q 3275 0 1925 0 
L 628 0 
L 628 4666 
z
" transform="scale(0.015625)"/>
     </defs>
     <use xlink:href="#DejaVuSans-44"/>
     <use xlink:href="#DejaVuSans-20" x="77.001953"/>
     <use xlink:href="#DejaVuSans-5b" x="108.789062"/>
     <use xlink:href="#DejaVuSans-31" x="147.802734"/>
     <use xlink:href="#DejaVuSans-30" x="211.425781"/>
     <use xlink:href="#DejaVuSans-5d" x="275.048828"/>
    </g>
   </g>
   <g id="text_4">
    <!-- E [7] -->
    <g transform="translate(274.218201 55.793737) scale(0.1 -0.1)">
     <defs>
      <path id="DejaVuSans-45" d="M 628 4666 
L 3578 4666 
L 3578 4134 
L 1259 4134 
L 1259 2753 
L 3481 2753 
L 3481 2222 
L 1259 2222 
L 1259 531 
L 3634 531 
L 3634 0 
L 628 0 
L 628 4666 
z
" transform="scale(0.015625)"/>
      <path id="DejaVuSans-37" d="M 525 4666 
L 3525 4666 
L 3525 4397 
L 1831 0 
L 1172 0 
L 2766 4134 
L 525 4134 
L 525 4666 
z
" transform="scale(0.015625)"/>
     </defs>
     <use xlink:href="#DejaVuSans-45"/>
     <use xlink:href="#DejaVuSans-20" x="63.183594"/>
     <use xlink:href="#DejaVuSans-5b" x="94.970703"/>
     <use xlink:href="#DejaVuSans-37" x="133.984375"/>
     <use xlink:href="#DejaVuSans-5d" x="197.607422"/>
    </g>
   </g>
   <g id="text_5">
    <!-- F [24] -->
    <g transform="translate(240.952334 31.236604) scale(0.1 -0.1)">
     <defs>
      <path id="DejaVuSans-46" d="M 628 4666 
L 3309 4666 
L 3309 4134 
L 1259 4134 
L 1259 2759 
L 3109 2759 
L 3109 2228 
L 1259 2228 
L 1259 0 
L 628 0 
L 628 4666 
z
" transform="scale(0.015625)"/>
      <path id="DejaVuSans-32" d="M 1228 531 
L 3431 531 
L 3431 0 
L 469 0 
L 469 531 
Q 828 903 1448 1529 
Q 2069 2156 2228 2338 
Q 2531 2678 2651 2914 
Q 2772 3150 2772 3378 
Q 2772 3750 2511 3984 
Q 2250 4219 1831 4219 
Q 1534 4219 1204 4116 
Q 875 4013 500 3803 
L 500 4441 
Q 881 4594 1212 4672 
Q 1544 4750 1819 4750 
Q 2544 4750 2975 4387 
Q 3406 4025 3406 3419 
Q 3406 3131 3298 2873 
Q 3191 2616 2906 2266 
Q 2828 2175 2409 1742 
Q 1991 1309 1228 531 
z
" transform="scale(0.015625)"/>
      <path id="DejaVuSans-34" d="M 2419 4116 
L 825 1625 
L 2419 1625 
L 2419 4116 
z
M 2253 4666 
L 3047 4666 
L 3047 1625 
L 3713 1625 
L 3713 1100 
L 3047 1100 
L 3047 0 
L 2419 0 
L 2419 1100 
L 313 1100 
L 313 1709 
L 2253 4666 
z
" transform="scale(0.015625)"/>
     </defs>
     <use xlink:href="#DejaVuSans-46"/>
     <use xlink:href="#DejaVuSans-20" x="57.519531"/>
     <use xlink:href="#DejaVuSans-5b" x="89.306641"/>
     <use xlink:href="#DejaVuSans-32" x="128.320312"/>
     <use xlink:href="#DejaVuSans-34" x="191.943359"/>
     <use xlink:href="#DejaVuSans-5d" x="255.566406"/>
    </g>
   </g>
   <g id="text_6">
    <!-- G [10] -->
    <g transform="translate(198.043782 16.661651) scale(0.1 -0.1)">
     <defs>
      <path id="DejaVuSans-47" d="M 3809 666 
L 3809 1919 
L 2778 1919 
L 2778 2438 
L 4434 2438 
L 4434 434 
Q 4069 175 3628 42 
Q 3188 -91 2688 -91 
Q 1594 -91 976 548 
Q 359 1188 359 2328 
Q 359 3472 976 4111 
Q 1594 4750 2688 4750 
Q 3144 4750 3555 4637 
Q 3966 4525 4313 4306 
L 4313 3634 
Q 3963 3931 3569 4081 
Q 3175 4231 2741 4231 
Q 1884 4231 1454 3753 
Q 1025 3275 1025 2328 
Q 1025 1384 1454 906 
Q 1884 428 2741 428 
Q 3075 428 3337 486 
Q 3600 544 3809 666 
z
" transform="scale(0.015625)"/>
     </defs>
     <use xlink:href="#DejaVuSans-47"/>
     <use xlink:href="#DejaVuSans-20" x="77.490234"/>
     <use xlink:href="#DejaVuSans-5b" x="109.277344"/>
     <use xlink:href="#DejaVuSans-31" x="148.291016"/>
     <use xlink:href="#DejaVuSans-30" x="211.914062"/>
     <use xlink:href="#DejaVuSans-5d" x="275.537109"/>
    </g>
   </g>
   <g id="text_7">
    <!-- H [4] -->
    <g transform="translate(179.409593 14.798437) scale(0.1 -0.1)">
     <defs>
      <path id="DejaVuSans-48" d="M 628 4666 
L 1259 4666 
L 1259 2753 
L 3553 2753 
L 3553 4666 
L 4184 4666 
L 4184 0 
L 3553 0 
L 3553 2222 
L 1259 2222 
L 1259 0 
L 628 0 
L 628 4666 
z
" transform="scale(0.015625)"/>
     </defs>
     <use xlink:href="#DejaVuSans-48"/>
     <use xlink:href="#DejaVuSans-20" x="75.195312"/>
     <use xlink:href="#DejaVuSans-5b" x="106.982422"/>
     <use xlink:href="#DejaVuSans-34" x="145.996094"/>
     <use xlink:href="#DejaVuSans-5d" x="209.619141"/>
    </g>
   </g>
   <g id="text_8">
    <!-- I [31] -->
    <g transform="translate(106.52736 20.977217) scale(0.1 -0.1)">
     <defs>
      <path id="DejaVuSans-49" d="M 628 4666 
L 1259 4666 
L 1259 0 
L 628 0 
L 628 4666 
z
" transform="scale(0.015625)"/>
      <path id="DejaVuSans-33" d="M 2597 2516 
Q 3050 2419 3304 2112 
Q 3559 1806 3559 1356 
Q 3559 666 3084 287 
Q 2609 -91 1734 -91 
Q 1441 -91 1130 -33 
Q 819 25 488 141 
L 488 750 
Q 750 597 1062 519 
Q 1375 441 1716 441 
Q 2309 441 2620 675 
Q 2931 909 2931 1356 
Q 2931 1769 2642 2001 
Q 2353 2234 1838 2234 
L 1294 2234 
L 1294 2753 
L 1863 2753 
Q 2328 2753 2575 2939 
Q 2822 3125 2822 3475 
Q 2822 3834 2567 4026 
Q 2313 4219 1838 4219 
Q 1578 4219 1281 4162 
Q 984 4106 628 3988 
L 628 4550 
Q 988 4650 1302 4700 
Q 1616 4750 1894 4750 
Q 2613 4750 3031 4423 
Q 3450 4097 3450 3541 
Q 3450 3153 3228 2886 
Q 3006 2619 2597 2516 
z
" transform="scale(0.015625)"/>
     </defs>
     <use xlink:href="#DejaVuSans-49"/>
     <use xlink:href="#DejaVuSans-20" x="29.492188"/>
     <use xlink:href="#DejaVuSans-5b" x="61.279297"/>
     <use xlink:href="#DejaVuSans-33" x="100.292969"/>
     <use xlink:href="#DejaVuSans-31" x="163.916016"/>
     <use xlink:href="#DejaVuSans-5d" x="227.539062"/>
    </g>
   </g>
   <g id="text_9">
    <!-- K [19] -->
    <g transform="translate(45.921472 54.853946) scale(0.1 -0.1)">
     <defs>
      <path id="DejaVuSans-4b" d="M 628 4666 
L 1259 4666 
L 1259 2694 
L 3353 4666 
L 4166 4666 
L 1850 2491 
L 4331 0 
L 3500 0 
L 1259 2247 
L 1259 0 
L 628 0 
L 628 4666 
z
" transform="scale(0.015625)"/>
      <path id="DejaVuSans-39" d="M 703 97 
L 703 672 
Q 941 559 1184 500 
Q 1428 441 1663 441 
Q 2288 441 2617 861 
Q 2947 1281 2994 2138 
Q 2813 1869 2534 1725 
Q 2256 1581 1919 1581 
Q 1219 1581 811 2004 
Q 403 2428 403 3163 
Q 403 3881 828 4315 
Q 1253 4750 1959 4750 
Q 2769 4750 3195 4129 
Q 3622 3509 3622 2328 
Q 3622 1225 3098 567 
Q 2575 -91 1691 -91 
Q 1453 -91 1209 -44 
Q 966 3 703 97 
z
M 1959 2075 
Q 2384 2075 2632 2365 
Q 2881 2656 2881 3163 
Q 2881 3666 2632 3958 
Q 2384 4250 1959 4250 
Q 1534 4250 1286 3958 
Q 1038 3666 1038 3163 
Q 1038 2656 1286 2365 
Q 1534 2075 1959 2075 
z
" transform="scale(0.015625)"/>
     </defs>
     <use xlink:href="#DejaVuSans-4b"/>
     <use xlink:href="#DejaVuSans-20" x="65.576172"/>
     <use xlink:href="#DejaVuSans-5b" x="97.363281"/>
     <use xlink:href="#DejaVuSans-31" x="136.376953"/>
     <use xlink:href="#DejaVuSans-39" x="200"/>
     <use xlink:href="#DejaVuSans-5d" x="263.623047"/>
    </g>
   </g>
   <g id="text_10">
    <!-- L [44] -->
    <g transform="translate(7.2 127.834409) scale(0.1 -0.1)">
     <defs>
      <path id="DejaVuSans-4c" d="M 628 4666 
L 1259 4666 
L 1259 531 
L 3531 531 
L 3531 0 
L 628 0 
L 628 4666 
z
" transform="scale(0.015625)"/>
     </defs>
     <use xlink:href="#DejaVuSans-4c"/>
     <use xlink:href="#DejaVuSans-20" x="55.712891"/>
     <use xlink:href="#DejaVuSans-5b" x="87.5"/>
     <use xlink:href="#DejaVuSans-34" x="126.513672"/>
     <use xlink:href="#DejaVuSans-34" x="190.136719"/>
     <use xlink:href="#DejaVuSans-5d" x="253.759766"/>
    </g>
   </g>
   <g id="text_11">
    <!-- M [14] -->
    <g transform="translate(9.959252 204.277718) scale(0.1 -0.1)">
     <defs>
      <path id="DejaVuSans-4d" d="M 628 4666 
L 1569 4666 
L 2759 1491 
L 3956 4666 
L 4897 4666 
L 4897 0 
L 4281 0 
L 4281 4097 
L 3078 897 
L 2444 897 
L 1241 4097 
L 1241 0 
L 628 0 
L 628 4666 
z
" transform="scale(0.015625)"/>
     </defs>
     <use xlink:href="#DejaVuSans-4d"/>
     <use xlink:href="#DejaVuSans-20" x="86.279297"/>
     <use xlink:href="#DejaVuSans-5b" x="118.066406"/>
     <use xlink:href="#DejaVuSans-31" x="157.080078"/>
     <use xlink:href="#DejaVuSans-34" x="220.703125"/>
     <use xlink:href="#DejaVuSans-5d" x="284.326172"/>
    </g>
   </g>
   <g id="text_12">
    <!-- N [15] -->
    <g transform="translate(29.277338 238.4441) scale(0.1 -0.1)">
     <defs>
      <path id="DejaVuSans-4e" d="M 628 4666 
L 1478 4666 
L 3547 763 
L 3547 4666 
L 4159 4666 
L 4159 0 
L 3309 0 
L 1241 3903 
L 1241 0 
L 628 0 
L 628 4666 
z
" transform="scale(0.015625)"/>
      <path id="DejaVuSans-35" d="M 691 4666 
L 3169 4666 
L 3169 4134 
L 1269 4134 
L 1269 2991 
Q 1406 3038 1543 3061 
Q 1681 3084 1819 3084 
Q 2600 3084 3056 2656 
Q 3513 2228 3513 1497 
Q 3513 744 3044 326 
Q 2575 -91 1722 -91 
Q 1428 -91 1123 -41 
Q 819 9 494 109 
L 494 744 
Q 775 591 1075 516 
Q 1375 441 1709 441 
Q 2250 441 2565 725 
Q 2881 1009 2881 1497 
Q 2881 1984 2565 2268 
Q 2250 2553 1709 2553 
Q 1456 2553 1204 2497 
Q 953 2441 691 2322 
L 691 4666 
z
" transform="scale(0.015625)"/>
     </defs>
     <use xlink:href="#DejaVuSans-4e"/>
     <use xlink:href="#DejaVuSans-20" x="74.804688"/>
     <use xlink:href="#DejaVuSans-5b" x="106.591797"/>
     <use xlink:href="#DejaVuSans-31" x="145.605469"/>
     <use xlink:href="#DejaVuSans-35" x="209.228516"/>
     <use xlink:href="#DejaVuSans-5d" x="272.851562"/>
    </g>
   </g>
   <g id="text_13">
    <!-- P [14] -->
    <g transform="translate(57.501963 266.385784) scale(0.1 -0.1)">
     <defs>
      <path id="DejaVuSans-50" d="M 1259 4147 
L 1259 2394 
L 2053 2394 
Q 2494 2394 2734 2622 
Q 2975 2850 2975 3272 
Q 2975 3691 2734 3919 
Q 2494 4147 2053 4147 
L 1259 4147 
z
M 628 4666 
L 2053 4666 
Q 2838 4666 3239 4311 
Q 3641 3956 3641 3272 
Q 3641 2581 3239 2228 
Q 2838 1875 2053 1875 
L 1259 1875 
L 1259 0 
L 628 0 
L 628 4666 
z
" transform="scale(0.015625)"/>
     </defs>
     <use xlink:href="#DejaVuSans-50"/>
     <use xlink:href="#DejaVuSans-20" x="60.302734"/>
     <use xlink:href="#DejaVuSans-5b" x="92.089844"/>
     <use xlink:href="#DejaVuSans-31" x="131.103516"/>
     <use xlink:href="#DejaVuSans-34" x="194.726562"/>
     <use xlink:href="#DejaVuSans-5d" x="258.349609"/>
    </g>
   </g>
   <g id="text_14">
    <!-- Q [7] -->
    <g transform="translate(85.658062 281.51801) scale(0.1 -0.1)">
     <defs>
      <path id="DejaVuSans-51" d="M 2522 4238 
Q 1834 4238 1429 3725 
Q 1025 3213 1025 2328 
Q 1025 1447 1429 934 
Q 1834 422 2522 422 
Q 3209 422 3611 934 
Q 4013 1447 4013 2328 
Q 4013 3213 3611 3725 
Q 3209 4238 2522 4238 
z
M 3406 84 
L 4238 -825 
L 3475 -825 
L 2784 -78 
Q 2681 -84 2626 -87 
Q 2572 -91 2522 -91 
Q 1538 -91 948 567 
Q 359 1225 359 2328 
Q 359 3434 948 4092 
Q 1538 4750 2522 4750 
Q 3503 4750 4090 4092 
Q 4678 3434 4678 2328 
Q 4678 1516 4351 937 
Q 4025 359 3406 84 
z
" transform="scale(0.015625)"/>
     </defs>
     <use xlink:href="#DejaVuSans-51"/>
     <use xlink:href="#DejaVuSans-20" x="78.710938"/>
     <use xlink:href="#DejaVuSans-5b" x="110.498047"/>
     <use xlink:href="#DejaVuSans-37" x="149.511719"/>
     <use xlink:href="#DejaVuSans-5d" x="213.134766"/>
    </g>
   </g>
   <g id="text_15">
    <!-- R [13] -->
    <g transform="translate(105.094766 291.306986) scale(0.1 -0.1)">
     <defs>
      <path id="DejaVuSans-52" d="M 2841 2188 
Q 3044 2119 3236 1894 
Q 3428 1669 3622 1275 
L 4263 0 
L 3584 0 
L 2988 1197 
Q 2756 1666 2539 1819 
Q 2322 1972 1947 1972 
L 1259 1972 
L 1259 0 
L 628 0 
L 628 4666 
L 2053 4666 
Q 2853 4666 3247 4331 
Q 3641 3997 3641 3322 
Q 3641 2881 3436 2590 
Q 3231 2300 2841 2188 
z
M 1259 4147 
L 1259 2491 
L 2053 2491 
Q 2509 2491 2742 2702 
Q 2975 2913 2975 3322 
Q 2975 3731 2742 3939 
Q 2509 4147 2053 4147 
L 1259 4147 
z
" transform="scale(0.015625)"/>
     </defs>
     <use xlink:href="#DejaVuSans-52"/>
     <use xlink:href="#DejaVuSans-20" x="69.482422"/>
     <use xlink:href="#DejaVuSans-5b" x="101.269531"/>
     <use xlink:href="#DejaVuSans-31" x="140.283203"/>
     <use xlink:href="#DejaVuSans-33" x="203.90625"/>
     <use xlink:href="#DejaVuSans-5d" x="267.529297"/>
    </g>
   </g>
   <g id="text_16">
    <!-- S [21] -->
    <g transform="translate(180.747268 296.670723) scale(0.1 -0.1)">
     <defs>
      <path id="DejaVuSans-53" d="M 3425 4513 
L 3425 3897 
Q 3066 4069 2747 4153 
Q 2428 4238 2131 4238 
Q 1616 4238 1336 4038 
Q 1056 3838 1056 3469 
Q 1056 3159 1242 3001 
Q 1428 2844 1947 2747 
L 2328 2669 
Q 3034 2534 3370 2195 
Q 3706 1856 3706 1288 
Q 3706 609 3251 259 
Q 2797 -91 1919 -91 
Q 1588 -91 1214 -16 
Q 841 59 441 206 
L 441 856 
Q 825 641 1194 531 
Q 1563 422 1919 422 
Q 2459 422 2753 634 
Q 3047 847 3047 1241 
Q 3047 1584 2836 1778 
Q 2625 1972 2144 2069 
L 1759 2144 
Q 1053 2284 737 2584 
Q 422 2884 422 3419 
Q 422 4038 858 4394 
Q 1294 4750 2059 4750 
Q 2388 4750 2728 4690 
Q 3069 4631 3425 4513 
z
" transform="scale(0.015625)"/>
     </defs>
     <use xlink:href="#DejaVuSans-53"/>
     <use xlink:href="#DejaVuSans-20" x="63.476562"/>
     <use xlink:href="#DejaVuSans-5b" x="95.263672"/>
     <use xlink:href="#DejaVuSans-32" x="134.277344"/>
     <use xlink:href="#DejaVuSans-31" x="197.900391"/>
     <use xlink:href="#DejaVuSans-5d" x="261.523438"/>
    </g>
   </g>
   <g id="text_17">
    <!-- T [25] -->
    <g transform="translate(239.767499 280.906319) scale(0.1 -0.1)">
     <defs>
      <path id="DejaVuSans-54" d="M -19 4666 
L 3928 4666 
L 3928 4134 
L 2272 4134 
L 2272 0 
L 1638 0 
L 1638 4134 
L -19 4134 
L -19 4666 
z
" transform="scale(0.015625)"/>
     </defs>
     <use xlink:href="#DejaVuSans-54"/>
     <use xlink:href="#DejaVuSans-20" x="61.083984"/>
     <use xlink:href="#DejaVuSans-5b" x="92.871094"/>
     <use xlink:href="#DejaVuSans-32" x="131.884766"/>
     <use xlink:href="#DejaVuSans-35" x="195.507812"/>
     <use xlink:href="#DejaVuSans-5d" x="259.130859"/>
    </g>
   </g>
   <g id="text_18">
    <!-- V [23] -->
    <g transform="translate(288.195731 239.524819) scale(0.1 -0.1)">
     <defs>
      <path id="DejaVuSans-56" d="M 1831 0 
L 50 4666 
L 709 4666 
L 2188 738 
L 3669 4666 
L 4325 4666 
L 2547 0 
L 1831 0 
z
" transform="scale(0.015625)"/>
     </defs>
     <use xlink:href="#DejaVuSans-56"/>
     <use xlink:href="#DejaVuSans-20" x="68.408203"/>
     <use xlink:href="#DejaVuSans-5b" x="100.195312"/>
     <use xlink:href="#DejaVuSans-32" x="139.208984"/>
     <use xlink:href="#DejaVuSans-33" x="202.832031"/>
     <use xlink:href="#DejaVuSans-5d" x="266.455078"/>
    </g>
   </g>
   <g id="text_19">
    <!-- W [5] -->
    <g transform="translate(306.212057 206.78269) scale(0.1 -0.1)">
     <defs>
      <path id="DejaVuSans-57" d="M 213 4666 
L 850 4666 
L 1831 722 
L 2809 4666 
L 3519 4666 
L 4500 722 
L 5478 4666 
L 6119 4666 
L 4947 0 
L 4153 0 
L 3169 4050 
L 2175 0 
L 1381 0 
L 213 4666 
z
" transform="scale(0.015625)"/>
     </defs>
     <use xlink:href="#DejaVuSans-57"/>
     <use xlink:href="#DejaVuSans-20" x="98.876953"/>
     <use xlink:href="#DejaVuSans-5b" x="130.664062"/>
     <use xlink:href="#DejaVuSans-35" x="169.677734"/>
     <use xlink:href="#DejaVuSans-5d" x="233.300781"/>
    </g>
   </g>
   <g id="text_20">
    <!-- Y [17] -->
    <g transform="translate(313.932663 178.418162) scale(0.1 -0.1)">
     <defs>
      <path id="DejaVuSans-59" d="M -13 4666 
L 666 4666 
L 1959 2747 
L 3244 4666 
L 3922 4666 
L 2272 2222 
L 2272 0 
L 1638 0 
L 1638 2222 
L -13 4666 
z
" transform="scale(0.015625)"/>
     </defs>
     <use xlink:href="#DejaVuSans-59"/>
     <use xlink:href="#DejaVuSans-20" x="61.083984"/>
     <use xlink:href="#DejaVuSans-5b" x="92.871094"/>
     <use xlink:href="#DejaVuSans-31" x="131.884766"/>
     <use xlink:href="#DejaVuSans-37" x="195.507812"/>
     <use xlink:href="#DejaVuSans-5d" x="259.130859"/>
    </g>
   </g>
   <g id="text_21">
    <!-- Q14330 [331] -->
    <g transform="translate(132.873359 153.00061) scale(0.12 -0.12)">
     <use xlink:href="#DejaVuSans-51"/>
     <use xlink:href="#DejaVuSans-31" x="78.710938"/>
     <use xlink:href="#DejaVuSans-34" x="142.333984"/>
     <use xlink:href="#DejaVuSans-33" x="205.957031"/>
     <use xlink:href="#DejaVuSans-33" x="269.580078"/>
     <use xlink:href="#DejaVuSans-30" x="333.203125"/>
     <use xlink:href="#DejaVuSans-20" x="396.826172"/>
     <use xlink:href="#DejaVuSans-5b" x="428.613281"/>
     <use xlink:href="#DejaVuSans-33" x="467.626953"/>
     <use xlink:href="#DejaVuSans-33" x="531.25"/>
     <use xlink:href="#DejaVuSans-31" x="594.873047"/>
     <use xlink:href="#DejaVuSans-5d" x="658.496094"/>
    </g>
   </g>
  </g>
 </g>
</svg>
