<?xml version="1.0" encoding="utf-8" standalone="no"?>
<!DOCTYPE svg PUBLIC "-//W3C//DTD SVG 1.1//EN"
  "http://www.w3.org/Graphics/SVG/1.1/DTD/svg11.dtd">
<svg xmlns:xlink="http://www.w3.org/1999/xlink" width="353.613451pt" height="303.056958pt" viewBox="0 0 353.613451 303.056958" xmlns="http://www.w3.org/2000/svg" version="1.1">
 <metadata>
  <rdf:RDF xmlns:dc="http://purl.org/dc/elements/1.1/" xmlns:cc="http://creativecommons.org/ns#" xmlns:rdf="http://www.w3.org/1999/02/22-rdf-syntax-ns#">
   <cc:Work>
    <dc:type rdf:resource="http://purl.org/dc/dcmitype/StillImage"/>
    <dc:date>2024-09-27T16:07:14.715915</dc:date>
    <dc:format>image/svg+xml</dc:format>
    <dc:creator>
     <cc:Agent>
      <dc:title>Matplotlib v3.8.3, https://matplotlib.org/</dc:title>
     </cc:Agent>
    </dc:creator>
   </cc:Work>
  </rdf:RDF>
 </metadata>
 <defs>
  <style type="text/css">*{stroke-linejoin: round; stroke-linecap: butt}</style>
 </defs>
 <g id="figure_1">
  <g id="patch_1">
   <path d="M 0 303.056958 
L 353.613451 303.056958 
L 353.613451 0 
L 0 0 
z
" style="fill: #ffffff"/>
  </g>
  <g id="axes_1">
   <g id="patch_2">
    <path d="M 304.992144 152.146324 
C 304.992144 138.445167 302.787695 124.832825 298.463439 111.831959 
C 294.139184 98.831093 287.751184 86.610255 279.544713 75.638675 
L 177.258384 152.146324 
z
" style="fill: #1f77b4"/>
   </g>
   <g id="patch_3">
    <path d="M 279.433559 75.448698 
C 276.998553 72.193235 274.409518 69.055875 271.675295 66.047334 
C 268.941072 63.038793 266.064779 60.1625 263.056238 57.428277 
L 177.14723 151.956346 
z
" style="fill: #ff7f0e"/>
   </g>
   <g id="patch_4">
    <path d="M 262.973708 57.35457 
C 259.417892 54.122973 255.682564 51.094584 251.785539 48.283847 
C 247.888514 45.47311 243.835996 42.884499 239.647312 40.53036 
L 177.0647 151.882639 
z
" style="fill: #aec7e8"/>
   </g>
   <g id="patch_5">
    <path d="M 239.542845 40.471647 
C 235.354161 38.117507 231.035979 36.001587 226.608894 34.133978 
C 222.181809 32.266368 217.652869 30.650043 213.043672 29.29271 
L 176.960232 151.823926 
z
" style="fill: #ffbb78"/>
   </g>
   <g id="patch_6">
    <path d="M 212.892129 29.253744 
C 205.44333 27.060195 197.81 25.550437 190.087002 24.743235 
C 182.364004 23.936033 174.583462 23.834743 166.842068 24.440624 
L 176.808689 151.78496 
z
" style="fill: #98df8a"/>
   </g>
   <g id="patch_7">
    <path d="M 166.667668 24.451232 
C 160.402317 24.94159 154.181688 25.893664 148.056482 27.299694 
C 141.931276 28.705725 135.918178 30.561881 130.066196 32.853034 
L 176.634289 151.795568 
z
" style="fill: #2ca02c"/>
   </g>
   <g id="patch_8">
    <path d="M 129.940769 32.899029 
C 125.810897 34.515946 121.76804 36.34686 117.828626 38.38433 
C 113.889213 40.4218 110.058587 42.663063 106.352318 45.099008 
L 176.508862 151.841562 
z
" style="fill: #d62728"/>
   </g>
   <g id="patch_9">
    <path d="M 106.249239 45.168695 
C 101.615814 48.214013 97.185586 51.557791 92.986675 55.178804 
C 88.787763 58.799817 84.829072 62.690388 81.135728 66.82582 
L 176.405783 151.911248 
z
" style="fill: #9467bd"/>
   </g>
   <g id="patch_10">
    <path d="M 81.054364 66.913801 
C 78.346354 69.945957 75.784643 73.105667 73.377981 76.382139 
C 70.971319 79.658612 68.722448 83.048112 66.63905 86.539064 
L 176.324419 151.999229 
z
" style="fill: #ff9896"/>
   </g>
   <g id="patch_11">
    <path d="M 66.538653 86.798809 
C 57.033475 102.72573 51.110382 120.5335 49.182297 138.980661 
C 47.254213 157.427822 49.367009 176.075497 55.373392 193.623677 
L 176.224022 152.258974 
z
" style="fill: #c5b0d5"/>
   </g>
   <g id="patch_12">
    <path d="M 55.416022 193.894352 
C 56.612812 197.390881 57.960785 200.833823 59.456134 204.213461 
C 60.951484 207.593098 62.592802 210.906248 64.375455 214.143556 
L 176.266652 152.52965 
z
" style="fill: #c49c94"/>
   </g>
   <g id="patch_13">
    <path d="M 64.427819 214.235786 
C 66.745519 218.444742 69.298863 222.519572 72.075675 226.440843 
C 74.852487 230.362114 77.848345 234.123582 81.048962 237.707309 
L 176.319016 152.621879 
z
" style="fill: #8c564b"/>
   </g>
   <g id="patch_14">
    <path d="M 81.142777 237.808753 
C 85.328986 242.496047 89.855417 246.868014 94.685177 250.88902 
C 99.514936 254.910027 104.634868 258.56912 110.003243 261.836477 
L 176.412831 152.723324 
z
" style="fill: #e377c2"/>
   </g>
   <g id="patch_15">
    <path d="M 110.099274 261.900192 
C 112.624678 263.437229 115.202682 264.886128 117.828628 266.244271 
C 120.454574 267.602414 123.12688 268.868982 125.840717 270.041687 
L 176.508862 152.787039 
z
" style="fill: #7f7f7f"/>
   </g>
   <g id="patch_16">
    <path d="M 125.988758 270.092358 
C 134.817185 273.907303 144.048294 276.712998 153.506448 278.45606 
C 162.964601 280.199122 172.58943 280.868425 182.197806 280.451235 
L 176.656903 152.83771 
z
" style="fill: #f7b6d2"/>
   </g>
   <g id="patch_17">
    <path d="M 182.426804 280.443283 
C 191.294687 280.058245 200.098332 278.749907 208.69494 276.539492 
C 217.291548 274.329077 225.634386 271.228601 233.588131 267.288355 
L 176.8859 152.829758 
z
" style="fill: #c7c7c7"/>
   </g>
   <g id="patch_18">
    <path d="M 233.740149 267.222665 
C 237.714332 265.253874 241.58328 263.079434 245.331269 260.708181 
C 249.079259 258.336929 252.701205 255.77208 256.18239 253.02406 
L 177.037918 152.764067 
z
" style="fill: #dbdb8d"/>
   </g>
   <g id="patch_19">
    <path d="M 256.321245 252.896761 
C 264.743291 246.248462 272.294169 238.565374 278.795294 230.029208 
C 285.296419 221.493043 290.69613 212.171631 294.86672 202.285432 
L 177.176773 152.636769 
z
" style="fill: #bcbd22"/>
   </g>
   <g id="patch_20">
    <path d="M 294.946854 202.135317 
C 296.095963 199.411405 297.150159 196.64842 298.107538 193.851355 
C 299.064916 191.05429 299.924899 188.22483 300.685934 185.368089 
L 177.256907 152.486653 
z
" style="fill: #17becf"/>
   </g>
   <g id="patch_21">
    <path d="M 300.71011 185.264823 
C 302.137411 179.907081 303.214348 174.462085 303.934088 168.964398 
C 304.653828 163.46671 305.014844 157.927988 305.014844 152.383388 
L 177.281084 152.383388 
z
" style="fill: #9edae5"/>
   </g>
   <g id="patch_22">
    <path d="M 251.264723 152.3143 
C 251.264723 144.321959 249.978794 136.381426 247.456312 128.797588 
C 244.933829 121.213749 241.207496 114.084927 236.420388 107.684839 
L 176.753363 152.3143 
z
" style="fill: #ffffff"/>
   </g>
   <g id="patch_23">
    <path d="M 236.420388 107.684839 
C 234.999968 105.785819 233.489698 103.955692 231.894734 102.20071 
C 230.299771 100.445728 228.621933 98.76789 226.866951 97.172927 
L 176.753363 152.3143 
z
" style="fill: #ffffff"/>
   </g>
   <g id="patch_24">
    <path d="M 226.866951 97.172927 
C 224.792725 95.287829 222.613784 93.521269 220.340519 91.881672 
C 218.067255 90.242075 215.703286 88.732052 213.259887 87.358804 
L 176.753363 152.3143 
z
" style="fill: #ffffff"/>
   </g>
   <g id="patch_25">
    <path d="M 213.259887 87.358804 
C 210.816488 85.985556 208.297549 84.75127 205.715082 83.661831 
C 203.132616 82.572392 200.490734 81.629536 197.802036 80.837758 
L 176.753363 152.3143 
z
" style="fill: #ffffff"/>
   </g>
   <g id="patch_26">
    <path d="M 197.802036 80.837758 
C 193.456903 79.558187 189.004128 78.677496 184.499045 78.206628 
C 179.993963 77.735759 175.455314 77.676674 170.939501 78.030104 
L 176.753363 152.3143 
z
" style="fill: #ffffff"/>
   </g>
   <g id="patch_27">
    <path d="M 170.939501 78.030104 
C 167.284713 78.316147 163.656013 78.871523 160.082976 79.691708 
C 156.509939 80.511892 153.002298 81.59465 149.588642 82.931156 
L 176.753363 152.3143 
z
" style="fill: #ffffff"/>
   </g>
   <g id="patch_28">
    <path d="M 149.588642 82.931156 
C 147.17955 83.874358 144.821217 84.942391 142.523225 86.130915 
C 140.225234 87.31944 137.990703 88.626842 135.828712 90.047811 
L 176.753363 152.3143 
z
" style="fill: #ffffff"/>
   </g>
   <g id="patch_29">
    <path d="M 135.828712 90.047811 
C 133.125881 91.824246 130.541581 93.774784 128.092216 95.887041 
C 125.642851 97.999299 123.333615 100.268798 121.179164 102.681134 
L 176.753363 152.3143 
z
" style="fill: #ffffff"/>
   </g>
   <g id="patch_30">
    <path d="M 121.179164 102.681134 
C 119.599491 104.449892 118.10516 106.293056 116.701274 108.204331 
C 115.297387 110.115607 113.985546 112.092815 112.770231 114.129204 
L 176.753363 152.3143 
z
" style="fill: #ffffff"/>
   </g>
   <g id="patch_31">
    <path d="M 112.770231 114.129204 
C 107.225544 123.419908 103.770406 133.807774 102.64569 144.568618 
C 101.520974 155.329461 102.753438 166.207272 106.257162 176.44371 
L 176.753363 152.3143 
z
" style="fill: #ffffff"/>
   </g>
   <g id="patch_32">
    <path d="M 106.257162 176.44371 
C 106.95529 178.483352 107.741607 180.491735 108.613894 182.46319 
C 109.486181 184.434645 110.443617 186.367316 111.483498 188.255746 
L 176.753363 152.3143 
z
" style="fill: #ffffff"/>
   </g>
   <g id="patch_33">
    <path d="M 111.483498 188.255746 
C 112.83549 190.71097 114.324941 193.087955 115.944747 195.375362 
C 117.564554 197.66277 119.312138 199.85696 121.179165 201.947467 
L 176.753363 152.3143 
z
" style="fill: #ffffff"/>
   </g>
   <g id="patch_34">
    <path d="M 121.179165 201.947467 
C 123.62112 204.681722 126.261538 207.232036 129.078898 209.577623 
C 131.896258 211.923211 134.882884 214.057681 138.014437 215.96364 
L 176.753363 152.3143 
z
" style="fill: #ffffff"/>
   </g>
   <g id="patch_35">
    <path d="M 138.014437 215.96364 
C 139.487589 216.860245 140.991424 217.705436 142.523226 218.497686 
C 144.055028 219.289936 145.613874 220.028767 147.196945 220.712845 
L 176.753363 152.3143 
z
" style="fill: #ffffff"/>
   </g>
   <g id="patch_36">
    <path d="M 147.196945 220.712845 
C 152.346861 222.93823 157.731675 224.574885 163.248931 225.591671 
C 168.766187 226.608457 174.380671 226.998884 179.985557 226.755523 
L 176.753363 152.3143 
z
" style="fill: #ffffff"/>
   </g>
   <g id="patch_37">
    <path d="M 179.985557 226.755523 
C 185.158488 226.530918 190.293948 225.767721 195.308636 224.478312 
C 200.323324 223.188904 205.18998 221.380292 209.829664 219.081815 
L 176.753363 152.3143 
z
" style="fill: #ffffff"/>
   </g>
   <g id="patch_38">
    <path d="M 209.829664 219.081815 
C 212.147937 217.933354 214.404824 216.664931 216.591151 215.2817 
C 218.777478 213.898469 220.89028 212.402308 222.920971 210.799296 
L 176.753363 152.3143 
z
" style="fill: #ffffff"/>
   </g>
   <g id="patch_39">
    <path d="M 222.920971 210.799296 
C 227.833832 206.921121 232.238511 202.43932 236.030833 197.45989 
C 239.823156 192.48046 242.972988 187.04297 245.405832 181.276021 
L 176.753363 152.3143 
z
" style="fill: #ffffff"/>
   </g>
   <g id="patch_40">
    <path d="M 245.405832 181.276021 
C 246.076146 179.687072 246.691093 178.075331 247.249564 176.44371 
C 247.808035 174.812088 248.309692 173.16157 248.753628 171.495138 
L 176.753363 152.3143 
z
" style="fill: #ffffff"/>
   </g>
   <g id="patch_41">
    <path d="M 248.753628 171.495138 
C 249.58622 168.369788 250.214434 165.19354 250.634282 161.986556 
C 251.05413 158.779572 251.264723 155.54865 251.264723 152.3143 
L 176.753363 152.3143 
z
" style="fill: #ffffff"/>
   </g>
   <g id="matplotlib.axis_1"/>
   <g id="matplotlib.axis_2"/>
   <g id="text_1">
    <!-- A [37] -->
    <g transform="translate(310.583945 110.559898) scale(0.1 -0.1)">
     <defs>
      <path id="DejaVuSans-41" d="M 2188 4044 
L 1331 1722 
L 3047 1722 
L 2188 4044 
z
M 1831 4666 
L 2547 4666 
L 4325 0 
L 3669 0 
L 3244 1197 
L 1141 1197 
L 716 0 
L 50 0 
L 1831 4666 
z
" transform="scale(0.015625)"/>
      <path id="DejaVuSans-20" transform="scale(0.015625)"/>
      <path id="DejaVuSans-5b" d="M 550 4863 
L 1875 4863 
L 1875 4416 
L 1125 4416 
L 1125 -397 
L 1875 -397 
L 1875 -844 
L 550 -844 
L 550 4863 
z
" transform="scale(0.015625)"/>
      <path id="DejaVuSans-33" d="M 2597 2516 
Q 3050 2419 3304 2112 
Q 3559 1806 3559 1356 
Q 3559 666 3084 287 
Q 2609 -91 1734 -91 
Q 1441 -91 1130 -33 
Q 819 25 488 141 
L 488 750 
Q 750 597 1062 519 
Q 1375 441 1716 441 
Q 2309 441 2620 675 
Q 2931 909 2931 1356 
Q 2931 1769 2642 2001 
Q 2353 2234 1838 2234 
L 1294 2234 
L 1294 2753 
L 1863 2753 
Q 2328 2753 2575 2939 
Q 2822 3125 2822 3475 
Q 2822 3834 2567 4026 
Q 2313 4219 1838 4219 
Q 1578 4219 1281 4162 
Q 984 4106 628 3988 
L 628 4550 
Q 988 4650 1302 4700 
Q 1616 4750 1894 4750 
Q 2613 4750 3031 4423 
Q 3450 4097 3450 3541 
Q 3450 3153 3228 2886 
Q 3006 2619 2597 2516 
z
" transform="scale(0.015625)"/>
      <path id="DejaVuSans-37" d="M 525 4666 
L 3525 4666 
L 3525 4397 
L 1831 0 
L 1172 0 
L 2766 4134 
L 525 4134 
L 525 4666 
z
" transform="scale(0.015625)"/>
      <path id="DejaVuSans-5d" d="M 1947 4863 
L 1947 -844 
L 622 -844 
L 622 -397 
L 1369 -397 
L 1369 4416 
L 622 4416 
L 622 4863 
L 1947 4863 
z
" transform="scale(0.015625)"/>
     </defs>
     <use xlink:href="#DejaVuSans-41"/>
     <use xlink:href="#DejaVuSans-20" x="68.408203"/>
     <use xlink:href="#DejaVuSans-5b" x="100.195312"/>
     <use xlink:href="#DejaVuSans-33" x="139.208984"/>
     <use xlink:href="#DejaVuSans-37" x="202.832031"/>
     <use xlink:href="#DejaVuSans-5d" x="266.455078"/>
    </g>
   </g>
   <g id="text_2">
    <!-- C [11] -->
    <g transform="translate(281.128102 60.215808) scale(0.1 -0.1)">
     <defs>
      <path id="DejaVuSans-43" d="M 4122 4306 
L 4122 3641 
Q 3803 3938 3442 4084 
Q 3081 4231 2675 4231 
Q 1875 4231 1450 3742 
Q 1025 3253 1025 2328 
Q 1025 1406 1450 917 
Q 1875 428 2675 428 
Q 3081 428 3442 575 
Q 3803 722 4122 1019 
L 4122 359 
Q 3791 134 3420 21 
Q 3050 -91 2638 -91 
Q 1578 -91 968 557 
Q 359 1206 359 2328 
Q 359 3453 968 4101 
Q 1578 4750 2638 4750 
Q 3056 4750 3426 4639 
Q 3797 4528 4122 4306 
z
" transform="scale(0.015625)"/>
      <path id="DejaVuSans-31" d="M 794 531 
L 1825 531 
L 1825 4091 
L 703 3866 
L 703 4441 
L 1819 4666 
L 2450 4666 
L 2450 531 
L 3481 531 
L 3481 0 
L 794 0 
L 794 531 
z
" transform="scale(0.015625)"/>
     </defs>
     <use xlink:href="#DejaVuSans-43"/>
     <use xlink:href="#DejaVuSans-20" x="69.824219"/>
     <use xlink:href="#DejaVuSans-5b" x="101.611328"/>
     <use xlink:href="#DejaVuSans-31" x="140.625"/>
     <use xlink:href="#DejaVuSans-31" x="204.248047"/>
     <use xlink:href="#DejaVuSans-5d" x="267.871094"/>
    </g>
   </g>
   <g id="text_3">
    <!-- D [13] -->
    <g transform="translate(259.257623 40.683343) scale(0.1 -0.1)">
     <defs>
      <path id="DejaVuSans-44" d="M 1259 4147 
L 1259 519 
L 2022 519 
Q 2988 519 3436 956 
Q 3884 1394 3884 2338 
Q 3884 3275 3436 3711 
Q 2988 4147 2022 4147 
L 1259 4147 
z
M 628 4666 
L 1925 4666 
Q 3281 4666 3915 4102 
Q 4550 3538 4550 2338 
Q 4550 1131 3912 565 
Q 3275 0 1925 0 
L 628 0 
L 628 4666 
z
" transform="scale(0.015625)"/>
     </defs>
     <use xlink:href="#DejaVuSans-44"/>
     <use xlink:href="#DejaVuSans-20" x="77.001953"/>
     <use xlink:href="#DejaVuSans-5b" x="108.789062"/>
     <use xlink:href="#DejaVuSans-31" x="147.802734"/>
     <use xlink:href="#DejaVuSans-33" x="211.425781"/>
     <use xlink:href="#DejaVuSans-5d" x="275.048828"/>
    </g>
   </g>
   <g id="text_4">
    <!-- E [13] -->
    <g transform="translate(231.573761 25.124358) scale(0.1 -0.1)">
     <defs>
      <path id="DejaVuSans-45" d="M 628 4666 
L 3578 4666 
L 3578 4134 
L 1259 4134 
L 1259 2753 
L 3481 2753 
L 3481 2222 
L 1259 2222 
L 1259 531 
L 3634 531 
L 3634 0 
L 628 0 
L 628 4666 
z
" transform="scale(0.015625)"/>
     </defs>
     <use xlink:href="#DejaVuSans-45"/>
     <use xlink:href="#DejaVuSans-20" x="63.183594"/>
     <use xlink:href="#DejaVuSans-5b" x="94.970703"/>
     <use xlink:href="#DejaVuSans-31" x="133.984375"/>
     <use xlink:href="#DejaVuSans-33" x="197.607422"/>
     <use xlink:href="#DejaVuSans-5d" x="261.230469"/>
    </g>
   </g>
   <g id="text_5">
    <!-- F [21] -->
    <g transform="translate(191.414833 14.798437) scale(0.1 -0.1)">
     <defs>
      <path id="DejaVuSans-46" d="M 628 4666 
L 3309 4666 
L 3309 4134 
L 1259 4134 
L 1259 2759 
L 3109 2759 
L 3109 2228 
L 1259 2228 
L 1259 0 
L 628 0 
L 628 4666 
z
" transform="scale(0.015625)"/>
      <path id="DejaVuSans-32" d="M 1228 531 
L 3431 531 
L 3431 0 
L 469 0 
L 469 531 
Q 828 903 1448 1529 
Q 2069 2156 2228 2338 
Q 2531 2678 2651 2914 
Q 2772 3150 2772 3378 
Q 2772 3750 2511 3984 
Q 2250 4219 1831 4219 
Q 1534 4219 1204 4116 
Q 875 4013 500 3803 
L 500 4441 
Q 881 4594 1212 4672 
Q 1544 4750 1819 4750 
Q 2544 4750 2975 4387 
Q 3406 4025 3406 3419 
Q 3406 3131 3298 2873 
Q 3191 2616 2906 2266 
Q 2828 2175 2409 1742 
Q 1991 1309 1228 531 
z
" transform="scale(0.015625)"/>
     </defs>
     <use xlink:href="#DejaVuSans-46"/>
     <use xlink:href="#DejaVuSans-20" x="57.519531"/>
     <use xlink:href="#DejaVuSans-5b" x="89.306641"/>
     <use xlink:href="#DejaVuSans-32" x="128.320312"/>
     <use xlink:href="#DejaVuSans-31" x="191.943359"/>
     <use xlink:href="#DejaVuSans-5d" x="255.566406"/>
    </g>
   </g>
   <g id="text_6">
    <!-- G [17] -->
    <g transform="translate(113.744014 17.609482) scale(0.1 -0.1)">
     <defs>
      <path id="DejaVuSans-47" d="M 3809 666 
L 3809 1919 
L 2778 1919 
L 2778 2438 
L 4434 2438 
L 4434 434 
Q 4069 175 3628 42 
Q 3188 -91 2688 -91 
Q 1594 -91 976 548 
Q 359 1188 359 2328 
Q 359 3472 976 4111 
Q 1594 4750 2688 4750 
Q 3144 4750 3555 4637 
Q 3966 4525 4313 4306 
L 4313 3634 
Q 3963 3931 3569 4081 
Q 3175 4231 2741 4231 
Q 1884 4231 1454 3753 
Q 1025 3275 1025 2328 
Q 1025 1384 1454 906 
Q 1884 428 2741 428 
Q 3075 428 3337 486 
Q 3600 544 3809 666 
z
" transform="scale(0.015625)"/>
     </defs>
     <use xlink:href="#DejaVuSans-47"/>
     <use xlink:href="#DejaVuSans-20" x="77.490234"/>
     <use xlink:href="#DejaVuSans-5b" x="109.277344"/>
     <use xlink:href="#DejaVuSans-31" x="148.291016"/>
     <use xlink:href="#DejaVuSans-37" x="211.914062"/>
     <use xlink:href="#DejaVuSans-5d" x="275.537109"/>
    </g>
   </g>
   <g id="text_7">
    <!-- H [12] -->
    <g transform="translate(80.73404 29.797982) scale(0.1 -0.1)">
     <defs>
      <path id="DejaVuSans-48" d="M 628 4666 
L 1259 4666 
L 1259 2753 
L 3553 2753 
L 3553 4666 
L 4184 4666 
L 4184 0 
L 3553 0 
L 3553 2222 
L 1259 2222 
L 1259 0 
L 628 0 
L 628 4666 
z
" transform="scale(0.015625)"/>
     </defs>
     <use xlink:href="#DejaVuSans-48"/>
     <use xlink:href="#DejaVuSans-20" x="75.195312"/>
     <use xlink:href="#DejaVuSans-5b" x="106.982422"/>
     <use xlink:href="#DejaVuSans-31" x="145.996094"/>
     <use xlink:href="#DejaVuSans-32" x="209.619141"/>
     <use xlink:href="#DejaVuSans-5d" x="273.242188"/>
    </g>
   </g>
   <g id="text_8">
    <!-- I [15] -->
    <g transform="translate(57.988514 48.264935) scale(0.1 -0.1)">
     <defs>
      <path id="DejaVuSans-49" d="M 628 4666 
L 1259 4666 
L 1259 0 
L 628 0 
L 628 4666 
z
" transform="scale(0.015625)"/>
      <path id="DejaVuSans-35" d="M 691 4666 
L 3169 4666 
L 3169 4134 
L 1269 4134 
L 1269 2991 
Q 1406 3038 1543 3061 
Q 1681 3084 1819 3084 
Q 2600 3084 3056 2656 
Q 3513 2228 3513 1497 
Q 3513 744 3044 326 
Q 2575 -91 1722 -91 
Q 1428 -91 1123 -41 
Q 819 9 494 109 
L 494 744 
Q 775 591 1075 516 
Q 1375 441 1709 441 
Q 2250 441 2565 725 
Q 2881 1009 2881 1497 
Q 2881 1984 2565 2268 
Q 2250 2553 1709 2553 
Q 1456 2553 1204 2497 
Q 953 2441 691 2322 
L 691 4666 
z
" transform="scale(0.015625)"/>
     </defs>
     <use xlink:href="#DejaVuSans-49"/>
     <use xlink:href="#DejaVuSans-20" x="29.492188"/>
     <use xlink:href="#DejaVuSans-5b" x="61.279297"/>
     <use xlink:href="#DejaVuSans-31" x="100.292969"/>
     <use xlink:href="#DejaVuSans-35" x="163.916016"/>
     <use xlink:href="#DejaVuSans-5d" x="227.539062"/>
    </g>
   </g>
   <g id="text_9">
    <!-- K [11] -->
    <g transform="translate(32.819275 71.579805) scale(0.1 -0.1)">
     <defs>
      <path id="DejaVuSans-4b" d="M 628 4666 
L 1259 4666 
L 1259 2694 
L 3353 4666 
L 4166 4666 
L 1850 2491 
L 4331 0 
L 3500 0 
L 1259 2247 
L 1259 0 
L 628 0 
L 628 4666 
z
" transform="scale(0.015625)"/>
     </defs>
     <use xlink:href="#DejaVuSans-4b"/>
     <use xlink:href="#DejaVuSans-20" x="65.576172"/>
     <use xlink:href="#DejaVuSans-5b" x="97.363281"/>
     <use xlink:href="#DejaVuSans-31" x="136.376953"/>
     <use xlink:href="#DejaVuSans-31" x="200"/>
     <use xlink:href="#DejaVuSans-5d" x="263.623047"/>
    </g>
   </g>
   <g id="text_10">
    <!-- L [50] -->
    <g transform="translate(7.2 140.412205) scale(0.1 -0.1)">
     <defs>
      <path id="DejaVuSans-4c" d="M 628 4666 
L 1259 4666 
L 1259 531 
L 3531 531 
L 3531 0 
L 628 0 
L 628 4666 
z
" transform="scale(0.015625)"/>
      <path id="DejaVuSans-30" d="M 2034 4250 
Q 1547 4250 1301 3770 
Q 1056 3291 1056 2328 
Q 1056 1369 1301 889 
Q 1547 409 2034 409 
Q 2525 409 2770 889 
Q 3016 1369 3016 2328 
Q 3016 3291 2770 3770 
Q 2525 4250 2034 4250 
z
M 2034 4750 
Q 2819 4750 3233 4129 
Q 3647 3509 3647 2328 
Q 3647 1150 3233 529 
Q 2819 -91 2034 -91 
Q 1250 -91 836 529 
Q 422 1150 422 2328 
Q 422 3509 836 4129 
Q 1250 4750 2034 4750 
z
" transform="scale(0.015625)"/>
     </defs>
     <use xlink:href="#DejaVuSans-4c"/>
     <use xlink:href="#DejaVuSans-20" x="55.712891"/>
     <use xlink:href="#DejaVuSans-5b" x="87.5"/>
     <use xlink:href="#DejaVuSans-35" x="126.513672"/>
     <use xlink:href="#DejaVuSans-30" x="190.136719"/>
     <use xlink:href="#DejaVuSans-5d" x="253.759766"/>
    </g>
   </g>
   <g id="text_11">
    <!-- M [10] -->
    <g transform="translate(15.440708 212.141217) scale(0.1 -0.1)">
     <defs>
      <path id="DejaVuSans-4d" d="M 628 4666 
L 1569 4666 
L 2759 1491 
L 3956 4666 
L 4897 4666 
L 4897 0 
L 4281 0 
L 4281 4097 
L 3078 897 
L 2444 897 
L 1241 4097 
L 1241 0 
L 628 0 
L 628 4666 
z
" transform="scale(0.015625)"/>
     </defs>
     <use xlink:href="#DejaVuSans-4d"/>
     <use xlink:href="#DejaVuSans-20" x="86.279297"/>
     <use xlink:href="#DejaVuSans-5b" x="118.066406"/>
     <use xlink:href="#DejaVuSans-31" x="157.080078"/>
     <use xlink:href="#DejaVuSans-30" x="220.703125"/>
     <use xlink:href="#DejaVuSans-5d" x="284.326172"/>
    </g>
   </g>
   <g id="text_12">
    <!-- N [13] -->
    <g transform="translate(30.463841 236.582114) scale(0.1 -0.1)">
     <defs>
      <path id="DejaVuSans-4e" d="M 628 4666 
L 1478 4666 
L 3547 763 
L 3547 4666 
L 4159 4666 
L 4159 0 
L 3309 0 
L 1241 3903 
L 1241 0 
L 628 0 
L 628 4666 
z
" transform="scale(0.015625)"/>
     </defs>
     <use xlink:href="#DejaVuSans-4e"/>
     <use xlink:href="#DejaVuSans-20" x="74.804688"/>
     <use xlink:href="#DejaVuSans-5b" x="106.591797"/>
     <use xlink:href="#DejaVuSans-31" x="145.605469"/>
     <use xlink:href="#DejaVuSans-33" x="209.228516"/>
     <use xlink:href="#DejaVuSans-5d" x="272.851562"/>
    </g>
   </g>
   <g id="text_13">
    <!-- P [17] -->
    <g transform="translate(56.776474 263.464965) scale(0.1 -0.1)">
     <defs>
      <path id="DejaVuSans-50" d="M 1259 4147 
L 1259 2394 
L 2053 2394 
Q 2494 2394 2734 2622 
Q 2975 2850 2975 3272 
Q 2975 3691 2734 3919 
Q 2494 4147 2053 4147 
L 1259 4147 
z
M 628 4666 
L 2053 4666 
Q 2838 4666 3239 4311 
Q 3641 3956 3641 3272 
Q 3641 2581 3239 2228 
Q 2838 1875 2053 1875 
L 1259 1875 
L 1259 0 
L 628 0 
L 628 4666 
z
" transform="scale(0.015625)"/>
     </defs>
     <use xlink:href="#DejaVuSans-50"/>
     <use xlink:href="#DejaVuSans-20" x="60.302734"/>
     <use xlink:href="#DejaVuSans-5b" x="92.089844"/>
     <use xlink:href="#DejaVuSans-31" x="131.103516"/>
     <use xlink:href="#DejaVuSans-37" x="194.726562"/>
     <use xlink:href="#DejaVuSans-5d" x="258.349609"/>
    </g>
   </g>
   <g id="text_14">
    <!-- Q [8] -->
    <g transform="translate(86.74498 280.34937) scale(0.1 -0.1)">
     <defs>
      <path id="DejaVuSans-51" d="M 2522 4238 
Q 1834 4238 1429 3725 
Q 1025 3213 1025 2328 
Q 1025 1447 1429 934 
Q 1834 422 2522 422 
Q 3209 422 3611 934 
Q 4013 1447 4013 2328 
Q 4013 3213 3611 3725 
Q 3209 4238 2522 4238 
z
M 3406 84 
L 4238 -825 
L 3475 -825 
L 2784 -78 
Q 2681 -84 2626 -87 
Q 2572 -91 2522 -91 
Q 1538 -91 948 567 
Q 359 1225 359 2328 
Q 359 3434 948 4092 
Q 1538 4750 2522 4750 
Q 3503 4750 4090 4092 
Q 4678 3434 4678 2328 
Q 4678 1516 4351 937 
Q 4025 359 3406 84 
z
" transform="scale(0.015625)"/>
      <path id="DejaVuSans-38" d="M 2034 2216 
Q 1584 2216 1326 1975 
Q 1069 1734 1069 1313 
Q 1069 891 1326 650 
Q 1584 409 2034 409 
Q 2484 409 2743 651 
Q 3003 894 3003 1313 
Q 3003 1734 2745 1975 
Q 2488 2216 2034 2216 
z
M 1403 2484 
Q 997 2584 770 2862 
Q 544 3141 544 3541 
Q 544 4100 942 4425 
Q 1341 4750 2034 4750 
Q 2731 4750 3128 4425 
Q 3525 4100 3525 3541 
Q 3525 3141 3298 2862 
Q 3072 2584 2669 2484 
Q 3125 2378 3379 2068 
Q 3634 1759 3634 1313 
Q 3634 634 3220 271 
Q 2806 -91 2034 -91 
Q 1263 -91 848 271 
Q 434 634 434 1313 
Q 434 1759 690 2068 
Q 947 2378 1403 2484 
z
M 1172 3481 
Q 1172 3119 1398 2916 
Q 1625 2713 2034 2713 
Q 2441 2713 2670 2916 
Q 2900 3119 2900 3481 
Q 2900 3844 2670 4047 
Q 2441 4250 2034 4250 
Q 1625 4250 1398 4047 
Q 1172 3844 1172 3481 
z
" transform="scale(0.015625)"/>
     </defs>
     <use xlink:href="#DejaVuSans-51"/>
     <use xlink:href="#DejaVuSans-20" x="78.710938"/>
     <use xlink:href="#DejaVuSans-5b" x="110.498047"/>
     <use xlink:href="#DejaVuSans-38" x="149.511719"/>
     <use xlink:href="#DejaVuSans-5d" x="213.134766"/>
    </g>
   </g>
   <g id="text_15">
    <!-- R [26] -->
    <g transform="translate(120.536715 293.77727) scale(0.1 -0.1)">
     <defs>
      <path id="DejaVuSans-52" d="M 2841 2188 
Q 3044 2119 3236 1894 
Q 3428 1669 3622 1275 
L 4263 0 
L 3584 0 
L 2988 1197 
Q 2756 1666 2539 1819 
Q 2322 1972 1947 1972 
L 1259 1972 
L 1259 0 
L 628 0 
L 628 4666 
L 2053 4666 
Q 2853 4666 3247 4331 
Q 3641 3997 3641 3322 
Q 3641 2881 3436 2590 
Q 3231 2300 2841 2188 
z
M 1259 4147 
L 1259 2491 
L 2053 2491 
Q 2509 2491 2742 2702 
Q 2975 2913 2975 3322 
Q 2975 3731 2742 3939 
Q 2509 4147 2053 4147 
L 1259 4147 
z
" transform="scale(0.015625)"/>
      <path id="DejaVuSans-36" d="M 2113 2584 
Q 1688 2584 1439 2293 
Q 1191 2003 1191 1497 
Q 1191 994 1439 701 
Q 1688 409 2113 409 
Q 2538 409 2786 701 
Q 3034 994 3034 1497 
Q 3034 2003 2786 2293 
Q 2538 2584 2113 2584 
z
M 3366 4563 
L 3366 3988 
Q 3128 4100 2886 4159 
Q 2644 4219 2406 4219 
Q 1781 4219 1451 3797 
Q 1122 3375 1075 2522 
Q 1259 2794 1537 2939 
Q 1816 3084 2150 3084 
Q 2853 3084 3261 2657 
Q 3669 2231 3669 1497 
Q 3669 778 3244 343 
Q 2819 -91 2113 -91 
Q 1303 -91 875 529 
Q 447 1150 447 2328 
Q 447 3434 972 4092 
Q 1497 4750 2381 4750 
Q 2619 4750 2861 4703 
Q 3103 4656 3366 4563 
z
" transform="scale(0.015625)"/>
     </defs>
     <use xlink:href="#DejaVuSans-52"/>
     <use xlink:href="#DejaVuSans-20" x="69.482422"/>
     <use xlink:href="#DejaVuSans-5b" x="101.269531"/>
     <use xlink:href="#DejaVuSans-32" x="140.283203"/>
     <use xlink:href="#DejaVuSans-36" x="203.90625"/>
     <use xlink:href="#DejaVuSans-5d" x="267.529297"/>
    </g>
   </g>
   <g id="text_16">
    <!-- S [24] -->
    <g transform="translate(211.875844 291.669841) scale(0.1 -0.1)">
     <defs>
      <path id="DejaVuSans-53" d="M 3425 4513 
L 3425 3897 
Q 3066 4069 2747 4153 
Q 2428 4238 2131 4238 
Q 1616 4238 1336 4038 
Q 1056 3838 1056 3469 
Q 1056 3159 1242 3001 
Q 1428 2844 1947 2747 
L 2328 2669 
Q 3034 2534 3370 2195 
Q 3706 1856 3706 1288 
Q 3706 609 3251 259 
Q 2797 -91 1919 -91 
Q 1588 -91 1214 -16 
Q 841 59 441 206 
L 441 856 
Q 825 641 1194 531 
Q 1563 422 1919 422 
Q 2459 422 2753 634 
Q 3047 847 3047 1241 
Q 3047 1584 2836 1778 
Q 2625 1972 2144 2069 
L 1759 2144 
Q 1053 2284 737 2584 
Q 422 2884 422 3419 
Q 422 4038 858 4394 
Q 1294 4750 2059 4750 
Q 2388 4750 2728 4690 
Q 3069 4631 3425 4513 
z
" transform="scale(0.015625)"/>
      <path id="DejaVuSans-34" d="M 2419 4116 
L 825 1625 
L 2419 1625 
L 2419 4116 
z
M 2253 4666 
L 3047 4666 
L 3047 1625 
L 3713 1625 
L 3713 1100 
L 3047 1100 
L 3047 0 
L 2419 0 
L 2419 1100 
L 313 1100 
L 313 1709 
L 2253 4666 
z
" transform="scale(0.015625)"/>
     </defs>
     <use xlink:href="#DejaVuSans-53"/>
     <use xlink:href="#DejaVuSans-20" x="63.476562"/>
     <use xlink:href="#DejaVuSans-5b" x="95.263672"/>
     <use xlink:href="#DejaVuSans-32" x="134.277344"/>
     <use xlink:href="#DejaVuSans-34" x="197.900391"/>
     <use xlink:href="#DejaVuSans-5d" x="261.523438"/>
    </g>
   </g>
   <g id="text_17">
    <!-- T [12] -->
    <g transform="translate(252.160604 274.261968) scale(0.1 -0.1)">
     <defs>
      <path id="DejaVuSans-54" d="M -19 4666 
L 3928 4666 
L 3928 4134 
L 2272 4134 
L 2272 0 
L 1638 0 
L 1638 4134 
L -19 4134 
L -19 4666 
z
" transform="scale(0.015625)"/>
     </defs>
     <use xlink:href="#DejaVuSans-54"/>
     <use xlink:href="#DejaVuSans-20" x="61.083984"/>
     <use xlink:href="#DejaVuSans-5b" x="92.871094"/>
     <use xlink:href="#DejaVuSans-31" x="131.884766"/>
     <use xlink:href="#DejaVuSans-32" x="195.507812"/>
     <use xlink:href="#DejaVuSans-5d" x="259.130859"/>
    </g>
   </g>
   <g id="text_18">
    <!-- V [29] -->
    <g transform="translate(288.957146 240.527827) scale(0.1 -0.1)">
     <defs>
      <path id="DejaVuSans-56" d="M 1831 0 
L 50 4666 
L 709 4666 
L 2188 738 
L 3669 4666 
L 4325 4666 
L 2547 0 
L 1831 0 
z
" transform="scale(0.015625)"/>
      <path id="DejaVuSans-39" d="M 703 97 
L 703 672 
Q 941 559 1184 500 
Q 1428 441 1663 441 
Q 2288 441 2617 861 
Q 2947 1281 2994 2138 
Q 2813 1869 2534 1725 
Q 2256 1581 1919 1581 
Q 1219 1581 811 2004 
Q 403 2428 403 3163 
Q 403 3881 828 4315 
Q 1253 4750 1959 4750 
Q 2769 4750 3195 4129 
Q 3622 3509 3622 2328 
Q 3622 1225 3098 567 
Q 2575 -91 1691 -91 
Q 1453 -91 1209 -44 
Q 966 3 703 97 
z
M 1959 2075 
Q 2384 2075 2632 2365 
Q 2881 2656 2881 3163 
Q 2881 3666 2632 3958 
Q 2384 4250 1959 4250 
Q 1534 4250 1286 3958 
Q 1038 3666 1038 3163 
Q 1038 2656 1286 2365 
Q 1534 2075 1959 2075 
z
" transform="scale(0.015625)"/>
     </defs>
     <use xlink:href="#DejaVuSans-56"/>
     <use xlink:href="#DejaVuSans-20" x="68.408203"/>
     <use xlink:href="#DejaVuSans-5b" x="100.195312"/>
     <use xlink:href="#DejaVuSans-32" x="139.208984"/>
     <use xlink:href="#DejaVuSans-39" x="202.832031"/>
     <use xlink:href="#DejaVuSans-5d" x="266.455078"/>
    </g>
   </g>
   <g id="text_19">
    <!-- W [8] -->
    <g transform="translate(310.192601 200.7472) scale(0.1 -0.1)">
     <defs>
      <path id="DejaVuSans-57" d="M 213 4666 
L 850 4666 
L 1831 722 
L 2809 4666 
L 3519 4666 
L 4500 722 
L 5478 4666 
L 6119 4666 
L 4947 0 
L 4153 0 
L 3169 4050 
L 2175 0 
L 1381 0 
L 213 4666 
z
" transform="scale(0.015625)"/>
     </defs>
     <use xlink:href="#DejaVuSans-57"/>
     <use xlink:href="#DejaVuSans-20" x="98.876953"/>
     <use xlink:href="#DejaVuSans-5b" x="130.664062"/>
     <use xlink:href="#DejaVuSans-38" x="169.677734"/>
     <use xlink:href="#DejaVuSans-5d" x="233.300781"/>
    </g>
   </g>
   <g id="text_20">
    <!-- Y [15] -->
    <g transform="translate(316.599389 173.381874) scale(0.1 -0.1)">
     <defs>
      <path id="DejaVuSans-59" d="M -13 4666 
L 666 4666 
L 1959 2747 
L 3244 4666 
L 3922 4666 
L 2272 2222 
L 2272 0 
L 1638 0 
L 1638 2222 
L -13 4666 
z
" transform="scale(0.015625)"/>
     </defs>
     <use xlink:href="#DejaVuSans-59"/>
     <use xlink:href="#DejaVuSans-20" x="61.083984"/>
     <use xlink:href="#DejaVuSans-5b" x="92.871094"/>
     <use xlink:href="#DejaVuSans-31" x="131.884766"/>
     <use xlink:href="#DejaVuSans-35" x="195.507812"/>
     <use xlink:href="#DejaVuSans-5d" x="259.130859"/>
    </g>
   </g>
   <g id="text_21">
    <!-- Q1JQB3 [362] -->
    <g transform="translate(135.7443 152.3143) scale(0.12 -0.12)">
     <defs>
      <path id="DejaVuSans-4a" d="M 628 4666 
L 1259 4666 
L 1259 325 
Q 1259 -519 939 -900 
Q 619 -1281 -91 -1281 
L -331 -1281 
L -331 -750 
L -134 -750 
Q 284 -750 456 -515 
Q 628 -281 628 325 
L 628 4666 
z
" transform="scale(0.015625)"/>
      <path id="DejaVuSans-42" d="M 1259 2228 
L 1259 519 
L 2272 519 
Q 2781 519 3026 730 
Q 3272 941 3272 1375 
Q 3272 1813 3026 2020 
Q 2781 2228 2272 2228 
L 1259 2228 
z
M 1259 4147 
L 1259 2741 
L 2194 2741 
Q 2656 2741 2882 2914 
Q 3109 3088 3109 3444 
Q 3109 3797 2882 3972 
Q 2656 4147 2194 4147 
L 1259 4147 
z
M 628 4666 
L 2241 4666 
Q 2963 4666 3353 4366 
Q 3744 4066 3744 3513 
Q 3744 3084 3544 2831 
Q 3344 2578 2956 2516 
Q 3422 2416 3680 2098 
Q 3938 1781 3938 1306 
Q 3938 681 3513 340 
Q 3088 0 2303 0 
L 628 0 
L 628 4666 
z
" transform="scale(0.015625)"/>
     </defs>
     <use xlink:href="#DejaVuSans-51"/>
     <use xlink:href="#DejaVuSans-31" x="78.710938"/>
     <use xlink:href="#DejaVuSans-4a" x="142.333984"/>
     <use xlink:href="#DejaVuSans-51" x="171.826172"/>
     <use xlink:href="#DejaVuSans-42" x="250.537109"/>
     <use xlink:href="#DejaVuSans-33" x="319.140625"/>
     <use xlink:href="#DejaVuSans-20" x="382.763672"/>
     <use xlink:href="#DejaVuSans-5b" x="414.550781"/>
     <use xlink:href="#DejaVuSans-33" x="453.564453"/>
     <use xlink:href="#DejaVuSans-36" x="517.1875"/>
     <use xlink:href="#DejaVuSans-32" x="580.810547"/>
     <use xlink:href="#DejaVuSans-5d" x="644.433594"/>
    </g>
   </g>
  </g>
 </g>
</svg>
