<?xml version="1.0" encoding="utf-8" standalone="no"?>
<!DOCTYPE svg PUBLIC "-//W3C//DTD SVG 1.1//EN"
  "http://www.w3.org/Graphics/SVG/1.1/DTD/svg11.dtd">
<svg xmlns:xlink="http://www.w3.org/1999/xlink" width="353.982926pt" height="305.70049pt" viewBox="0 0 353.982926 305.70049" xmlns="http://www.w3.org/2000/svg" version="1.1">
 <metadata>
  <rdf:RDF xmlns:dc="http://purl.org/dc/elements/1.1/" xmlns:cc="http://creativecommons.org/ns#" xmlns:rdf="http://www.w3.org/1999/02/22-rdf-syntax-ns#">
   <cc:Work>
    <dc:type rdf:resource="http://purl.org/dc/dcmitype/StillImage"/>
    <dc:date>2024-09-27T16:07:17.253939</dc:date>
    <dc:format>image/svg+xml</dc:format>
    <dc:creator>
     <cc:Agent>
      <dc:title>Matplotlib v3.8.3, https://matplotlib.org/</dc:title>
     </cc:Agent>
    </dc:creator>
   </cc:Work>
  </rdf:RDF>
 </metadata>
 <defs>
  <style type="text/css">*{stroke-linejoin: round; stroke-linecap: butt}</style>
 </defs>
 <g id="figure_1">
  <g id="patch_1">
   <path d="M -0 305.70049 
L 353.982926 305.70049 
L 353.982926 0 
L -0 0 
z
" style="fill: #ffffff"/>
  </g>
  <g id="axes_1">
   <g id="patch_2">
    <path d="M 305.237859 152.788143 
C 305.237859 144.979876 304.521889 137.188031 303.098945 129.510514 
C 301.676001 121.832997 299.552069 114.302102 296.753837 107.012457 
L 177.504099 152.788143 
z
" style="fill: #1f77b4"/>
   </g>
   <g id="patch_3">
    <path d="M 296.696019 106.85142 
C 294.564656 101.299032 292.048107 95.902274 289.164744 90.70055 
C 286.281381 85.498825 283.038239 80.504824 279.458996 75.755009 
L 177.44628 152.627106 
z
" style="fill: #ff7f0e"/>
   </g>
   <g id="patch_4">
    <path d="M 279.392115 75.660374 
C 277.37935 72.989344 275.262456 70.398396 273.046329 67.89352 
C 270.830201 65.388644 268.51655 62.971772 266.110724 60.648492 
L 177.379399 152.532471 
z
" style="fill: #aec7e8"/>
   </g>
   <g id="patch_5">
    <path d="M 266.036109 60.578913 
C 262.560542 57.222597 258.89734 54.066181 255.064169 51.124885 
C 251.230998 48.183589 247.234027 45.462149 243.092532 42.973688 
L 177.304784 152.462891 
z
" style="fill: #ffbb78"/>
   </g>
   <g id="patch_6">
    <path d="M 242.950566 42.895803 
C 235.938384 38.682459 228.537627 35.152479 220.850335 32.354534 
C 213.163042 29.556588 205.224706 27.503595 197.144778 26.22386 
L 177.162818 152.385006 
z
" style="fill: #98df8a"/>
   </g>
   <g id="patch_7">
    <path d="M 196.990601 26.192493 
C 192.58574 25.494831 188.147362 25.028339 183.693706 24.794933 
C 179.24005 24.561527 174.777225 24.561527 170.323569 24.794933 
L 177.008641 152.353639 
z
" style="fill: #2ca02c"/>
   </g>
   <g id="patch_8">
    <path d="M 170.217047 24.80005 
C 166.134678 25.013998 162.064932 25.4238 158.021863 26.028041 
C 153.978795 26.632282 149.967063 27.430265 146.000522 28.419235 
L 176.902119 152.358755 
z
" style="fill: #d62728"/>
   </g>
   <g id="patch_9">
    <path d="M 145.785435 28.501799 
C 131.6911 32.015912 118.298913 37.908616 106.186043 45.92595 
C 94.073172 53.943285 83.416166 63.968396 74.674313 75.569227 
L 176.687033 152.441319 
z
" style="fill: #9467bd"/>
   </g>
   <g id="patch_10">
    <path d="M 74.48769 75.783913 
C 69.340304 82.614725 64.892 89.945305 61.209794 97.665209 
C 57.527589 105.385114 54.630068 113.45538 52.560886 121.754419 
L 176.500409 152.656005 
z
" style="fill: #ff9896"/>
   </g>
   <g id="patch_11">
    <path d="M 52.511065 122.029934 
C 49.087474 135.761211 47.969497 149.966469 49.202894 164.064259 
C 50.436292 178.162049 54.004003 191.957361 59.759995 204.885528 
L 176.450588 152.93152 
z
" style="fill: #c5b0d5"/>
   </g>
   <g id="patch_12">
    <path d="M 59.833989 205.113258 
C 61.95044 209.866883 64.355388 214.486744 67.035384 218.947007 
C 69.715381 223.407269 72.665422 227.699605 75.869011 231.800012 
L 176.524582 153.159249 
z
" style="fill: #c49c94"/>
   </g>
   <g id="patch_13">
    <path d="M 75.958858 231.911958 
C 79.849504 236.891757 84.104345 241.575971 88.688317 245.925998 
C 93.272289 250.276024 98.172766 254.279881 103.349362 257.904572 
L 176.614428 153.271195 
z
" style="fill: #8c564b"/>
   </g>
   <g id="patch_14">
    <path d="M 103.465857 257.988436 
C 107.728308 260.973036 112.169154 263.694389 116.763565 266.13728 
C 121.357975 268.580171 126.09737 270.740037 130.955248 272.604801 
L 176.730923 153.355059 
z
" style="fill: #e377c2"/>
   </g>
   <g id="patch_15">
    <path d="M 131.058411 272.646482 
C 134.527796 273.978254 138.053647 275.157987 141.625902 276.182314 
C 145.198156 277.206641 148.813411 278.074586 152.461347 278.783673 
L 176.834086 153.39674 
z
" style="fill: #7f7f7f"/>
   </g>
   <g id="patch_16">
    <path d="M 152.575557 278.803298 
C 158.048546 279.867139 163.585322 280.571505 169.150348 280.911876 
C 174.715375 281.252247 180.296721 281.227893 185.858565 280.838971 
L 176.948295 153.416364 
z
" style="fill: #f7b6d2"/>
   </g>
   <g id="patch_17">
    <path d="M 186.033287 280.820606 
C 194.565555 280.223971 203.016364 278.771856 211.258394 276.486138 
C 219.500424 274.200419 227.492075 271.092635 235.112945 267.209607 
L 177.123018 153.398 
z
" style="fill: #c7c7c7"/>
   </g>
   <g id="patch_18">
    <path d="M 235.302032 267.113262 
C 242.922902 263.230234 250.134526 258.59156 256.828253 253.267128 
C 263.52198 247.942695 269.664026 241.959378 275.161853 235.40732 
L 177.312104 153.301656 
z
" style="fill: #dbdb8d"/>
   </g>
   <g id="patch_19">
    <path d="M 275.298264 235.244752 
C 280.796091 228.692695 285.621951 221.604967 289.703138 214.088353 
C 293.784325 206.571739 297.100239 198.664178 299.600923 190.484805 
L 177.448514 153.139088 
z
" style="fill: #bcbd22"/>
   </g>
   <g id="patch_20">
    <path d="M 299.646063 190.37308 
C 299.97197 189.307084 300.28391 188.236867 300.581801 187.162705 
C 300.879692 186.088543 301.16351 185.010528 301.433181 183.928936 
L 177.493654 153.027364 
z
" style="fill: #17becf"/>
   </g>
   <g id="patch_21">
    <path d="M 301.448571 183.851567 
C 302.707408 178.802641 303.656553 173.681507 304.290698 168.516802 
C 304.924844 163.352096 305.242805 158.153463 305.242804 152.949972 
L 177.509044 152.949995 
z
" style="fill: #9edae5"/>
   </g>
   <g id="patch_22">
    <path d="M 251.492147 152.885133 
C 251.492147 148.330311 251.074498 143.785068 250.244447 139.306516 
C 249.414397 134.827965 248.175436 130.434943 246.543134 126.18265 
L 176.980787 152.885133 
z
" style="fill: #ffffff"/>
   </g>
   <g id="patch_23">
    <path d="M 246.543134 126.18265 
C 245.299839 122.943757 243.831852 119.795648 242.149891 116.761309 
C 240.467929 113.726969 238.576096 110.813802 236.488204 108.043077 
L 176.980787 152.885133 
z
" style="fill: #ffffff"/>
   </g>
   <g id="patch_24">
    <path d="M 236.488204 108.043077 
C 235.314091 106.484976 234.079237 104.973589 232.786496 103.512412 
C 231.493755 102.051234 230.144125 100.641392 228.740726 99.286146 
L 176.980787 152.885133 
z
" style="fill: #ffffff"/>
   </g>
   <g id="patch_25">
    <path d="M 228.740726 99.286146 
C 226.713312 97.328295 224.576445 95.487052 222.340428 93.771296 
C 220.104411 92.05554 217.772845 90.468034 215.356973 89.016431 
L 176.980787 152.885133 
z
" style="fill: #ffffff"/>
   </g>
   <g id="patch_26">
    <path d="M 215.356973 89.016431 
C 211.266533 86.558647 206.949425 84.499492 202.465171 82.867357 
C 197.980917 81.235223 193.350222 80.037643 188.63693 79.291131 
L 176.980787 152.885133 
z
" style="fill: #ffffff"/>
   </g>
   <g id="patch_27">
    <path d="M 188.63693 79.291131 
C 186.067428 78.884162 183.478374 78.612042 180.880408 78.475888 
C 178.282442 78.339735 175.679127 78.339735 173.081161 78.475889 
L 176.980787 152.885133 
z
" style="fill: #ffffff"/>
   </g>
   <g id="patch_28">
    <path d="M 173.081161 78.475889 
C 170.699779 78.600692 168.325761 78.839743 165.967304 79.192216 
C 163.608848 79.54469 161.268671 80.01018 158.954855 80.58708 
L 176.980787 152.885133 
z
" style="fill: #ffffff"/>
   </g>
   <g id="patch_29">
    <path d="M 158.954855 80.58708 
C 150.733159 82.636979 142.92105 86.074389 135.855209 90.751168 
C 128.789368 95.427946 122.572781 101.275928 117.473367 108.04308 
L 176.980787 152.885133 
z
" style="fill: #ffffff"/>
   </g>
   <g id="patch_30">
    <path d="M 117.473367 108.04308 
C 114.470726 112.02772 111.875881 116.303891 109.727928 120.807169 
C 107.579975 125.310447 105.889755 130.018102 104.682732 134.859208 
L 176.980787 152.885133 
z
" style="fill: #ffffff"/>
   </g>
   <g id="patch_31">
    <path d="M 104.682732 134.859208 
C 102.685637 142.86912 102.033483 151.15552 102.752965 159.379231 
C 103.472448 167.602942 105.553612 175.650207 108.911274 183.191638 
L 176.980787 152.885133 
z
" style="fill: #ffffff"/>
   </g>
   <g id="patch_32">
    <path d="M 108.911274 183.191638 
C 110.145871 185.964587 111.548757 188.659505 113.112088 191.261325 
C 114.67542 193.863145 116.396277 196.367007 118.265037 198.758912 
L 176.980787 152.885133 
z
" style="fill: #ffffff"/>
   </g>
   <g id="patch_33">
    <path d="M 118.265037 198.758912 
C 120.534581 201.663795 123.016572 204.396253 125.690556 206.933768 
C 128.364539 209.471284 131.223151 211.806867 134.242832 213.92127 
L 176.980787 152.885133 
z
" style="fill: #ffffff"/>
   </g>
   <g id="patch_34">
    <path d="M 134.242832 213.92127 
C 136.729261 215.662286 139.319755 217.249742 141.999828 218.674762 
C 144.679901 220.099782 147.444548 221.359704 150.27831 222.447483 
L 176.980787 152.885133 
z
" style="fill: #ffffff"/>
   </g>
   <g id="patch_35">
    <path d="M 150.27831 222.447483 
C 152.302118 223.22435 154.358864 223.912527 156.442679 224.510051 
C 158.526494 225.107575 160.635393 225.613877 162.763356 226.027511 
L 176.980787 152.885133 
z
" style="fill: #ffffff"/>
   </g>
   <g id="patch_36">
    <path d="M 162.763356 226.027511 
C 165.955933 226.648085 169.185719 227.058965 172.431984 227.257515 
C 175.67825 227.456065 178.934035 227.441858 182.178444 227.214987 
L 176.980787 152.885133 
z
" style="fill: #ffffff"/>
   </g>
   <g id="patch_37">
    <path d="M 182.178444 227.214987 
C 187.1556 226.86695 192.085239 226.019882 196.89309 224.686547 
C 201.700941 223.353211 206.362737 221.540337 210.808245 219.275237 
L 176.980787 152.885133 
z
" style="fill: #ffffff"/>
   </g>
   <g id="patch_38">
    <path d="M 210.808245 219.275237 
C 215.253752 217.010137 219.460533 214.304244 223.365207 211.198325 
C 227.269881 208.092406 230.852741 204.602137 234.059807 200.780104 
L 176.980787 152.885133 
z
" style="fill: #ffffff"/>
   </g>
   <g id="patch_39">
    <path d="M 234.059807 200.780104 
C 237.266873 196.95807 240.081958 192.823562 242.462651 188.438871 
C 244.843343 184.05418 246.777626 179.441436 248.236358 174.670134 
L 176.980787 152.885133 
z
" style="fill: #ffffff"/>
   </g>
   <g id="patch_40">
    <path d="M 248.236358 174.670134 
C 248.426471 174.048303 248.608436 173.42401 248.782206 172.797416 
C 248.955976 172.170821 249.121536 171.541979 249.278844 170.91105 
L 176.980787 152.885133 
z
" style="fill: #ffffff"/>
   </g>
   <g id="patch_41">
    <path d="M 249.278844 170.91105 
C 250.013166 167.965843 250.566834 164.978516 250.936752 161.965771 
C 251.30667 158.953026 251.492147 155.92049 251.492147 152.88512 
L 176.980787 152.885133 
z
" style="fill: #ffffff"/>
   </g>
   <g id="matplotlib.axis_1"/>
   <g id="matplotlib.axis_2"/>
   <g id="text_1">
    <!-- A [21] -->
    <g transform="translate(315.65843 129.942126) scale(0.1 -0.1)">
     <defs>
      <path id="DejaVuSans-41" d="M 2188 4044 
L 1331 1722 
L 3047 1722 
L 2188 4044 
z
M 1831 4666 
L 2547 4666 
L 4325 0 
L 3669 0 
L 3244 1197 
L 1141 1197 
L 716 0 
L 50 0 
L 1831 4666 
z
" transform="scale(0.015625)"/>
      <path id="DejaVuSans-20" transform="scale(0.015625)"/>
      <path id="DejaVuSans-5b" d="M 550 4863 
L 1875 4863 
L 1875 4416 
L 1125 4416 
L 1125 -397 
L 1875 -397 
L 1875 -844 
L 550 -844 
L 550 4863 
z
" transform="scale(0.015625)"/>
      <path id="DejaVuSans-32" d="M 1228 531 
L 3431 531 
L 3431 0 
L 469 0 
L 469 531 
Q 828 903 1448 1529 
Q 2069 2156 2228 2338 
Q 2531 2678 2651 2914 
Q 2772 3150 2772 3378 
Q 2772 3750 2511 3984 
Q 2250 4219 1831 4219 
Q 1534 4219 1204 4116 
Q 875 4013 500 3803 
L 500 4441 
Q 881 4594 1212 4672 
Q 1544 4750 1819 4750 
Q 2544 4750 2975 4387 
Q 3406 4025 3406 3419 
Q 3406 3131 3298 2873 
Q 3191 2616 2906 2266 
Q 2828 2175 2409 1742 
Q 1991 1309 1228 531 
z
" transform="scale(0.015625)"/>
      <path id="DejaVuSans-31" d="M 794 531 
L 1825 531 
L 1825 4091 
L 703 3866 
L 703 4441 
L 1819 4666 
L 2450 4666 
L 2450 531 
L 3481 531 
L 3481 0 
L 794 0 
L 794 531 
z
" transform="scale(0.015625)"/>
      <path id="DejaVuSans-5d" d="M 1947 4863 
L 1947 -844 
L 622 -844 
L 622 -397 
L 1369 -397 
L 1369 4416 
L 622 4416 
L 622 4863 
L 1947 4863 
z
" transform="scale(0.015625)"/>
     </defs>
     <use xlink:href="#DejaVuSans-41"/>
     <use xlink:href="#DejaVuSans-20" x="68.408203"/>
     <use xlink:href="#DejaVuSans-5b" x="100.195312"/>
     <use xlink:href="#DejaVuSans-32" x="139.208984"/>
     <use xlink:href="#DejaVuSans-31" x="202.832031"/>
     <use xlink:href="#DejaVuSans-5d" x="266.455078"/>
    </g>
   </g>
   <g id="text_2">
    <!-- C [16] -->
    <g transform="translate(300.33659 87.267269) scale(0.1 -0.1)">
     <defs>
      <path id="DejaVuSans-43" d="M 4122 4306 
L 4122 3641 
Q 3803 3938 3442 4084 
Q 3081 4231 2675 4231 
Q 1875 4231 1450 3742 
Q 1025 3253 1025 2328 
Q 1025 1406 1450 917 
Q 1875 428 2675 428 
Q 3081 428 3442 575 
Q 3803 722 4122 1019 
L 4122 359 
Q 3791 134 3420 21 
Q 3050 -91 2638 -91 
Q 1578 -91 968 557 
Q 359 1206 359 2328 
Q 359 3453 968 4101 
Q 1578 4750 2638 4750 
Q 3056 4750 3426 4639 
Q 3797 4528 4122 4306 
z
" transform="scale(0.015625)"/>
      <path id="DejaVuSans-36" d="M 2113 2584 
Q 1688 2584 1439 2293 
Q 1191 2003 1191 1497 
Q 1191 994 1439 701 
Q 1688 409 2113 409 
Q 2538 409 2786 701 
Q 3034 994 3034 1497 
Q 3034 2003 2786 2293 
Q 2538 2584 2113 2584 
z
M 3366 4563 
L 3366 3988 
Q 3128 4100 2886 4159 
Q 2644 4219 2406 4219 
Q 1781 4219 1451 3797 
Q 1122 3375 1075 2522 
Q 1259 2794 1537 2939 
Q 1816 3084 2150 3084 
Q 2853 3084 3261 2657 
Q 3669 2231 3669 1497 
Q 3669 778 3244 343 
Q 2819 -91 2113 -91 
Q 1303 -91 875 529 
Q 447 1150 447 2328 
Q 447 3434 972 4092 
Q 1497 4750 2381 4750 
Q 2619 4750 2861 4703 
Q 3103 4656 3366 4563 
z
" transform="scale(0.015625)"/>
     </defs>
     <use xlink:href="#DejaVuSans-43"/>
     <use xlink:href="#DejaVuSans-20" x="69.824219"/>
     <use xlink:href="#DejaVuSans-5b" x="101.611328"/>
     <use xlink:href="#DejaVuSans-31" x="140.625"/>
     <use xlink:href="#DejaVuSans-36" x="204.248047"/>
     <use xlink:href="#DejaVuSans-5d" x="267.871094"/>
    </g>
   </g>
   <g id="text_3">
    <!-- D [9] -->
    <g transform="translate(282.613021 62.189) scale(0.1 -0.1)">
     <defs>
      <path id="DejaVuSans-44" d="M 1259 4147 
L 1259 519 
L 2022 519 
Q 2988 519 3436 956 
Q 3884 1394 3884 2338 
Q 3884 3275 3436 3711 
Q 2988 4147 2022 4147 
L 1259 4147 
z
M 628 4666 
L 1925 4666 
Q 3281 4666 3915 4102 
Q 4550 3538 4550 2338 
Q 4550 1131 3912 565 
Q 3275 0 1925 0 
L 628 0 
L 628 4666 
z
" transform="scale(0.015625)"/>
      <path id="DejaVuSans-39" d="M 703 97 
L 703 672 
Q 941 559 1184 500 
Q 1428 441 1663 441 
Q 2288 441 2617 861 
Q 2947 1281 2994 2138 
Q 2813 1869 2534 1725 
Q 2256 1581 1919 1581 
Q 1219 1581 811 2004 
Q 403 2428 403 3163 
Q 403 3881 828 4315 
Q 1253 4750 1959 4750 
Q 2769 4750 3195 4129 
Q 3622 3509 3622 2328 
Q 3622 1225 3098 567 
Q 2575 -91 1691 -91 
Q 1453 -91 1209 -44 
Q 966 3 703 97 
z
M 1959 2075 
Q 2384 2075 2632 2365 
Q 2881 2656 2881 3163 
Q 2881 3666 2632 3958 
Q 2384 4250 1959 4250 
Q 1534 4250 1286 3958 
Q 1038 3666 1038 3163 
Q 1038 2656 1286 2365 
Q 1534 2075 1959 2075 
z
" transform="scale(0.015625)"/>
     </defs>
     <use xlink:href="#DejaVuSans-44"/>
     <use xlink:href="#DejaVuSans-20" x="77.001953"/>
     <use xlink:href="#DejaVuSans-5b" x="108.789062"/>
     <use xlink:href="#DejaVuSans-39" x="147.802734"/>
     <use xlink:href="#DejaVuSans-5d" x="211.425781"/>
    </g>
   </g>
   <g id="text_4">
    <!-- E [13] -->
    <g transform="translate(262.840107 43.750459) scale(0.1 -0.1)">
     <defs>
      <path id="DejaVuSans-45" d="M 628 4666 
L 3578 4666 
L 3578 4134 
L 1259 4134 
L 1259 2753 
L 3481 2753 
L 3481 2222 
L 1259 2222 
L 1259 531 
L 3634 531 
L 3634 0 
L 628 0 
L 628 4666 
z
" transform="scale(0.015625)"/>
      <path id="DejaVuSans-33" d="M 2597 2516 
Q 3050 2419 3304 2112 
Q 3559 1806 3559 1356 
Q 3559 666 3084 287 
Q 2609 -91 1734 -91 
Q 1441 -91 1130 -33 
Q 819 25 488 141 
L 488 750 
Q 750 597 1062 519 
Q 1375 441 1716 441 
Q 2309 441 2620 675 
Q 2931 909 2931 1356 
Q 2931 1769 2642 2001 
Q 2353 2234 1838 2234 
L 1294 2234 
L 1294 2753 
L 1863 2753 
Q 2328 2753 2575 2939 
Q 2822 3125 2822 3475 
Q 2822 3834 2567 4026 
Q 2313 4219 1838 4219 
Q 1578 4219 1281 4162 
Q 984 4106 628 3988 
L 628 4550 
Q 988 4650 1302 4700 
Q 1616 4750 1894 4750 
Q 2613 4750 3031 4423 
Q 3450 4097 3450 3541 
Q 3450 3153 3228 2886 
Q 3006 2619 2597 2516 
z
" transform="scale(0.015625)"/>
     </defs>
     <use xlink:href="#DejaVuSans-45"/>
     <use xlink:href="#DejaVuSans-20" x="63.183594"/>
     <use xlink:href="#DejaVuSans-5b" x="94.970703"/>
     <use xlink:href="#DejaVuSans-31" x="133.984375"/>
     <use xlink:href="#DejaVuSans-33" x="197.607422"/>
     <use xlink:href="#DejaVuSans-5d" x="261.230469"/>
    </g>
   </g>
   <g id="text_5">
    <!-- F [22] -->
    <g transform="translate(225.219086 23.110861) scale(0.1 -0.1)">
     <defs>
      <path id="DejaVuSans-46" d="M 628 4666 
L 3309 4666 
L 3309 4134 
L 1259 4134 
L 1259 2759 
L 3109 2759 
L 3109 2228 
L 1259 2228 
L 1259 0 
L 628 0 
L 628 4666 
z
" transform="scale(0.015625)"/>
     </defs>
     <use xlink:href="#DejaVuSans-46"/>
     <use xlink:href="#DejaVuSans-20" x="57.519531"/>
     <use xlink:href="#DejaVuSans-5b" x="89.306641"/>
     <use xlink:href="#DejaVuSans-32" x="128.320312"/>
     <use xlink:href="#DejaVuSans-32" x="191.943359"/>
     <use xlink:href="#DejaVuSans-5d" x="255.566406"/>
    </g>
   </g>
   <g id="text_6">
    <!-- G [12] -->
    <g transform="translate(184.362213 14.798437) scale(0.1 -0.1)">
     <defs>
      <path id="DejaVuSans-47" d="M 3809 666 
L 3809 1919 
L 2778 1919 
L 2778 2438 
L 4434 2438 
L 4434 434 
Q 4069 175 3628 42 
Q 3188 -91 2688 -91 
Q 1594 -91 976 548 
Q 359 1188 359 2328 
Q 359 3472 976 4111 
Q 1594 4750 2688 4750 
Q 3144 4750 3555 4637 
Q 3966 4525 4313 4306 
L 4313 3634 
Q 3963 3931 3569 4081 
Q 3175 4231 2741 4231 
Q 1884 4231 1454 3753 
Q 1025 3275 1025 2328 
Q 1025 1384 1454 906 
Q 1884 428 2741 428 
Q 3075 428 3337 486 
Q 3600 544 3809 666 
z
" transform="scale(0.015625)"/>
     </defs>
     <use xlink:href="#DejaVuSans-47"/>
     <use xlink:href="#DejaVuSans-20" x="77.490234"/>
     <use xlink:href="#DejaVuSans-5b" x="109.277344"/>
     <use xlink:href="#DejaVuSans-31" x="148.291016"/>
     <use xlink:href="#DejaVuSans-32" x="211.914062"/>
     <use xlink:href="#DejaVuSans-5d" x="275.537109"/>
    </g>
   </g>
   <g id="text_7">
    <!-- H [11] -->
    <g transform="translate(124.907275 16.154344) scale(0.1 -0.1)">
     <defs>
      <path id="DejaVuSans-48" d="M 628 4666 
L 1259 4666 
L 1259 2753 
L 3553 2753 
L 3553 4666 
L 4184 4666 
L 4184 0 
L 3553 0 
L 3553 2222 
L 1259 2222 
L 1259 0 
L 628 0 
L 628 4666 
z
" transform="scale(0.015625)"/>
     </defs>
     <use xlink:href="#DejaVuSans-48"/>
     <use xlink:href="#DejaVuSans-20" x="75.195312"/>
     <use xlink:href="#DejaVuSans-5b" x="106.982422"/>
     <use xlink:href="#DejaVuSans-31" x="145.996094"/>
     <use xlink:href="#DejaVuSans-31" x="209.619141"/>
     <use xlink:href="#DejaVuSans-5d" x="273.242188"/>
    </g>
   </g>
   <g id="text_8">
    <!-- I [39] -->
    <g transform="translate(72.479694 38.033788) scale(0.1 -0.1)">
     <defs>
      <path id="DejaVuSans-49" d="M 628 4666 
L 1259 4666 
L 1259 0 
L 628 0 
L 628 4666 
z
" transform="scale(0.015625)"/>
     </defs>
     <use xlink:href="#DejaVuSans-49"/>
     <use xlink:href="#DejaVuSans-20" x="29.492188"/>
     <use xlink:href="#DejaVuSans-5b" x="61.279297"/>
     <use xlink:href="#DejaVuSans-33" x="100.292969"/>
     <use xlink:href="#DejaVuSans-39" x="163.916016"/>
     <use xlink:href="#DejaVuSans-5d" x="227.539062"/>
    </g>
   </g>
   <g id="text_9">
    <!-- K [23] -->
    <g transform="translate(19.41667 94.925505) scale(0.1 -0.1)">
     <defs>
      <path id="DejaVuSans-4b" d="M 628 4666 
L 1259 4666 
L 1259 2694 
L 3353 4666 
L 4166 4666 
L 1850 2491 
L 4331 0 
L 3500 0 
L 1259 2247 
L 1259 0 
L 628 0 
L 628 4666 
z
" transform="scale(0.015625)"/>
     </defs>
     <use xlink:href="#DejaVuSans-4b"/>
     <use xlink:href="#DejaVuSans-20" x="65.576172"/>
     <use xlink:href="#DejaVuSans-5b" x="97.363281"/>
     <use xlink:href="#DejaVuSans-32" x="136.376953"/>
     <use xlink:href="#DejaVuSans-33" x="200"/>
     <use xlink:href="#DejaVuSans-5d" x="263.623047"/>
    </g>
   </g>
   <g id="text_10">
    <!-- L [38] -->
    <g transform="translate(7.2 167.936907) scale(0.1 -0.1)">
     <defs>
      <path id="DejaVuSans-4c" d="M 628 4666 
L 1259 4666 
L 1259 531 
L 3531 531 
L 3531 0 
L 628 0 
L 628 4666 
z
" transform="scale(0.015625)"/>
      <path id="DejaVuSans-38" d="M 2034 2216 
Q 1584 2216 1326 1975 
Q 1069 1734 1069 1313 
Q 1069 891 1326 650 
Q 1584 409 2034 409 
Q 2484 409 2743 651 
Q 3003 894 3003 1313 
Q 3003 1734 2745 1975 
Q 2488 2216 2034 2216 
z
M 1403 2484 
Q 997 2584 770 2862 
Q 544 3141 544 3541 
Q 544 4100 942 4425 
Q 1341 4750 2034 4750 
Q 2731 4750 3128 4425 
Q 3525 4100 3525 3541 
Q 3525 3141 3298 2862 
Q 3072 2584 2669 2484 
Q 3125 2378 3379 2068 
Q 3634 1759 3634 1313 
Q 3634 634 3220 271 
Q 2806 -91 2034 -91 
Q 1263 -91 848 271 
Q 434 634 434 1313 
Q 434 1759 690 2068 
Q 947 2378 1403 2484 
z
M 1172 3481 
Q 1172 3119 1398 2916 
Q 1625 2713 2034 2713 
Q 2441 2713 2670 2916 
Q 2900 3119 2900 3481 
Q 2900 3844 2670 4047 
Q 2441 4250 2034 4250 
Q 1625 4250 1398 4047 
Q 1172 3844 1172 3481 
z
" transform="scale(0.015625)"/>
     </defs>
     <use xlink:href="#DejaVuSans-4c"/>
     <use xlink:href="#DejaVuSans-20" x="55.712891"/>
     <use xlink:href="#DejaVuSans-5b" x="87.5"/>
     <use xlink:href="#DejaVuSans-33" x="126.513672"/>
     <use xlink:href="#DejaVuSans-38" x="190.136719"/>
     <use xlink:href="#DejaVuSans-5d" x="253.759766"/>
    </g>
   </g>
   <g id="text_11">
    <!-- M [14] -->
    <g transform="translate(23.75209 228.285157) scale(0.1 -0.1)">
     <defs>
      <path id="DejaVuSans-4d" d="M 628 4666 
L 1569 4666 
L 2759 1491 
L 3956 4666 
L 4897 4666 
L 4897 0 
L 4281 0 
L 4281 4097 
L 3078 897 
L 2444 897 
L 1241 4097 
L 1241 0 
L 628 0 
L 628 4666 
z
" transform="scale(0.015625)"/>
      <path id="DejaVuSans-34" d="M 2419 4116 
L 825 1625 
L 2419 1625 
L 2419 4116 
z
M 2253 4666 
L 3047 4666 
L 3047 1625 
L 3713 1625 
L 3713 1100 
L 3047 1100 
L 3047 0 
L 2419 0 
L 2419 1100 
L 313 1100 
L 313 1709 
L 2253 4666 
z
" transform="scale(0.015625)"/>
     </defs>
     <use xlink:href="#DejaVuSans-4d"/>
     <use xlink:href="#DejaVuSans-20" x="86.279297"/>
     <use xlink:href="#DejaVuSans-5b" x="118.066406"/>
     <use xlink:href="#DejaVuSans-31" x="157.080078"/>
     <use xlink:href="#DejaVuSans-34" x="220.703125"/>
     <use xlink:href="#DejaVuSans-5d" x="284.326172"/>
    </g>
   </g>
   <g id="text_12">
    <!-- N [17] -->
    <g transform="translate(48.708206 257.950853) scale(0.1 -0.1)">
     <defs>
      <path id="DejaVuSans-4e" d="M 628 4666 
L 1478 4666 
L 3547 763 
L 3547 4666 
L 4159 4666 
L 4159 0 
L 3309 0 
L 1241 3903 
L 1241 0 
L 628 0 
L 628 4666 
z
" transform="scale(0.015625)"/>
      <path id="DejaVuSans-37" d="M 525 4666 
L 3525 4666 
L 3525 4397 
L 1831 0 
L 1172 0 
L 2766 4134 
L 525 4134 
L 525 4666 
z
" transform="scale(0.015625)"/>
     </defs>
     <use xlink:href="#DejaVuSans-4e"/>
     <use xlink:href="#DejaVuSans-20" x="74.804688"/>
     <use xlink:href="#DejaVuSans-5b" x="106.591797"/>
     <use xlink:href="#DejaVuSans-31" x="145.605469"/>
     <use xlink:href="#DejaVuSans-37" x="209.228516"/>
     <use xlink:href="#DejaVuSans-5d" x="272.851562"/>
    </g>
   </g>
   <g id="text_13">
    <!-- P [14] -->
    <g transform="translate(81.030892 280.174877) scale(0.1 -0.1)">
     <defs>
      <path id="DejaVuSans-50" d="M 1259 4147 
L 1259 2394 
L 2053 2394 
Q 2494 2394 2734 2622 
Q 2975 2850 2975 3272 
Q 2975 3691 2734 3919 
Q 2494 4147 2053 4147 
L 1259 4147 
z
M 628 4666 
L 2053 4666 
Q 2838 4666 3239 4311 
Q 3641 3956 3641 3272 
Q 3641 2581 3239 2228 
Q 2838 1875 2053 1875 
L 1259 1875 
L 1259 0 
L 628 0 
L 628 4666 
z
" transform="scale(0.015625)"/>
     </defs>
     <use xlink:href="#DejaVuSans-50"/>
     <use xlink:href="#DejaVuSans-20" x="60.302734"/>
     <use xlink:href="#DejaVuSans-5b" x="92.089844"/>
     <use xlink:href="#DejaVuSans-31" x="131.103516"/>
     <use xlink:href="#DejaVuSans-34" x="194.726562"/>
     <use xlink:href="#DejaVuSans-5d" x="258.349609"/>
    </g>
   </g>
   <g id="text_14">
    <!-- Q [10] -->
    <g transform="translate(106.526958 291.220246) scale(0.1 -0.1)">
     <defs>
      <path id="DejaVuSans-51" d="M 2522 4238 
Q 1834 4238 1429 3725 
Q 1025 3213 1025 2328 
Q 1025 1447 1429 934 
Q 1834 422 2522 422 
Q 3209 422 3611 934 
Q 4013 1447 4013 2328 
Q 4013 3213 3611 3725 
Q 3209 4238 2522 4238 
z
M 3406 84 
L 4238 -825 
L 3475 -825 
L 2784 -78 
Q 2681 -84 2626 -87 
Q 2572 -91 2522 -91 
Q 1538 -91 948 567 
Q 359 1225 359 2328 
Q 359 3434 948 4092 
Q 1538 4750 2522 4750 
Q 3503 4750 4090 4092 
Q 4678 3434 4678 2328 
Q 4678 1516 4351 937 
Q 4025 359 3406 84 
z
" transform="scale(0.015625)"/>
      <path id="DejaVuSans-30" d="M 2034 4250 
Q 1547 4250 1301 3770 
Q 1056 3291 1056 2328 
Q 1056 1369 1301 889 
Q 1547 409 2034 409 
Q 2525 409 2770 889 
Q 3016 1369 3016 2328 
Q 3016 3291 2770 3770 
Q 2525 4250 2034 4250 
z
M 2034 4750 
Q 2819 4750 3233 4129 
Q 3647 3509 3647 2328 
Q 3647 1150 3233 529 
Q 2819 -91 2034 -91 
Q 1250 -91 836 529 
Q 422 1150 422 2328 
Q 422 3509 836 4129 
Q 1250 4750 2034 4750 
z
" transform="scale(0.015625)"/>
     </defs>
     <use xlink:href="#DejaVuSans-51"/>
     <use xlink:href="#DejaVuSans-20" x="78.710938"/>
     <use xlink:href="#DejaVuSans-5b" x="110.498047"/>
     <use xlink:href="#DejaVuSans-31" x="149.511719"/>
     <use xlink:href="#DejaVuSans-30" x="213.134766"/>
     <use xlink:href="#DejaVuSans-5d" x="276.757812"/>
    </g>
   </g>
   <g id="text_15">
    <!-- R [15] -->
    <g transform="translate(137.715866 296.420802) scale(0.1 -0.1)">
     <defs>
      <path id="DejaVuSans-52" d="M 2841 2188 
Q 3044 2119 3236 1894 
Q 3428 1669 3622 1275 
L 4263 0 
L 3584 0 
L 2988 1197 
Q 2756 1666 2539 1819 
Q 2322 1972 1947 1972 
L 1259 1972 
L 1259 0 
L 628 0 
L 628 4666 
L 2053 4666 
Q 2853 4666 3247 4331 
Q 3641 3997 3641 3322 
Q 3641 2881 3436 2590 
Q 3231 2300 2841 2188 
z
M 1259 4147 
L 1259 2491 
L 2053 2491 
Q 2509 2491 2742 2702 
Q 2975 2913 2975 3322 
Q 2975 3731 2742 3939 
Q 2509 4147 2053 4147 
L 1259 4147 
z
" transform="scale(0.015625)"/>
      <path id="DejaVuSans-35" d="M 691 4666 
L 3169 4666 
L 3169 4134 
L 1269 4134 
L 1269 2991 
Q 1406 3038 1543 3061 
Q 1681 3084 1819 3084 
Q 2600 3084 3056 2656 
Q 3513 2228 3513 1497 
Q 3513 744 3044 326 
Q 2575 -91 1722 -91 
Q 1428 -91 1123 -41 
Q 819 9 494 109 
L 494 744 
Q 775 591 1075 516 
Q 1375 441 1709 441 
Q 2250 441 2565 725 
Q 2881 1009 2881 1497 
Q 2881 1984 2565 2268 
Q 2250 2553 1709 2553 
Q 1456 2553 1204 2497 
Q 953 2441 691 2322 
L 691 4666 
z
" transform="scale(0.015625)"/>
     </defs>
     <use xlink:href="#DejaVuSans-52"/>
     <use xlink:href="#DejaVuSans-20" x="69.482422"/>
     <use xlink:href="#DejaVuSans-5b" x="101.269531"/>
     <use xlink:href="#DejaVuSans-31" x="140.283203"/>
     <use xlink:href="#DejaVuSans-35" x="203.90625"/>
     <use xlink:href="#DejaVuSans-5d" x="267.529297"/>
    </g>
   </g>
   <g id="text_16">
    <!-- S [23] -->
    <g transform="translate(214.671932 291.554326) scale(0.1 -0.1)">
     <defs>
      <path id="DejaVuSans-53" d="M 3425 4513 
L 3425 3897 
Q 3066 4069 2747 4153 
Q 2428 4238 2131 4238 
Q 1616 4238 1336 4038 
Q 1056 3838 1056 3469 
Q 1056 3159 1242 3001 
Q 1428 2844 1947 2747 
L 2328 2669 
Q 3034 2534 3370 2195 
Q 3706 1856 3706 1288 
Q 3706 609 3251 259 
Q 2797 -91 1919 -91 
Q 1588 -91 1214 -16 
Q 841 59 441 206 
L 441 856 
Q 825 641 1194 531 
Q 1563 422 1919 422 
Q 2459 422 2753 634 
Q 3047 847 3047 1241 
Q 3047 1584 2836 1778 
Q 2625 1972 2144 2069 
L 1759 2144 
Q 1053 2284 737 2584 
Q 422 2884 422 3419 
Q 422 4038 858 4394 
Q 1294 4750 2059 4750 
Q 2388 4750 2728 4690 
Q 3069 4631 3425 4513 
z
" transform="scale(0.015625)"/>
     </defs>
     <use xlink:href="#DejaVuSans-53"/>
     <use xlink:href="#DejaVuSans-20" x="63.476562"/>
     <use xlink:href="#DejaVuSans-5b" x="95.263672"/>
     <use xlink:href="#DejaVuSans-32" x="134.277344"/>
     <use xlink:href="#DejaVuSans-33" x="197.900391"/>
     <use xlink:href="#DejaVuSans-5d" x="261.523438"/>
    </g>
   </g>
   <g id="text_17">
    <!-- T [23] -->
    <g transform="translate(264.779868 266.02305) scale(0.1 -0.1)">
     <defs>
      <path id="DejaVuSans-54" d="M -19 4666 
L 3928 4666 
L 3928 4134 
L 2272 4134 
L 2272 0 
L 1638 0 
L 1638 4134 
L -19 4134 
L -19 4666 
z
" transform="scale(0.015625)"/>
     </defs>
     <use xlink:href="#DejaVuSans-54"/>
     <use xlink:href="#DejaVuSans-20" x="61.083984"/>
     <use xlink:href="#DejaVuSans-5b" x="92.871094"/>
     <use xlink:href="#DejaVuSans-32" x="131.884766"/>
     <use xlink:href="#DejaVuSans-33" x="195.507812"/>
     <use xlink:href="#DejaVuSans-5d" x="259.130859"/>
    </g>
   </g>
   <g id="text_18">
    <!-- V [23] -->
    <g transform="translate(300.928601 222.942655) scale(0.1 -0.1)">
     <defs>
      <path id="DejaVuSans-56" d="M 1831 0 
L 50 4666 
L 709 4666 
L 2188 738 
L 3669 4666 
L 4325 4666 
L 2547 0 
L 1831 0 
z
" transform="scale(0.015625)"/>
     </defs>
     <use xlink:href="#DejaVuSans-56"/>
     <use xlink:href="#DejaVuSans-20" x="68.408203"/>
     <use xlink:href="#DejaVuSans-5b" x="100.195312"/>
     <use xlink:href="#DejaVuSans-32" x="139.208984"/>
     <use xlink:href="#DejaVuSans-33" x="202.832031"/>
     <use xlink:href="#DejaVuSans-5d" x="266.455078"/>
    </g>
   </g>
   <g id="text_19">
    <!-- W [3] -->
    <g transform="translate(312.890616 193.335614) scale(0.1 -0.1)">
     <defs>
      <path id="DejaVuSans-57" d="M 213 4666 
L 850 4666 
L 1831 722 
L 2809 4666 
L 3519 4666 
L 4500 722 
L 5478 4666 
L 6119 4666 
L 4947 0 
L 4153 0 
L 3169 4050 
L 2175 0 
L 1381 0 
L 213 4666 
z
" transform="scale(0.015625)"/>
     </defs>
     <use xlink:href="#DejaVuSans-57"/>
     <use xlink:href="#DejaVuSans-20" x="98.876953"/>
     <use xlink:href="#DejaVuSans-5b" x="130.664062"/>
     <use xlink:href="#DejaVuSans-33" x="169.677734"/>
     <use xlink:href="#DejaVuSans-5d" x="233.300781"/>
    </g>
   </g>
   <g id="text_20">
    <!-- Y [14] -->
    <g transform="translate(316.968864 172.832858) scale(0.1 -0.1)">
     <defs>
      <path id="DejaVuSans-59" d="M -13 4666 
L 666 4666 
L 1959 2747 
L 3244 4666 
L 3922 4666 
L 2272 2222 
L 2272 0 
L 1638 0 
L 1638 2222 
L -13 4666 
z
" transform="scale(0.015625)"/>
     </defs>
     <use xlink:href="#DejaVuSans-59"/>
     <use xlink:href="#DejaVuSans-20" x="61.083984"/>
     <use xlink:href="#DejaVuSans-5b" x="92.871094"/>
     <use xlink:href="#DejaVuSans-31" x="131.884766"/>
     <use xlink:href="#DejaVuSans-34" x="195.507812"/>
     <use xlink:href="#DejaVuSans-5d" x="259.130859"/>
    </g>
   </g>
   <g id="text_21">
    <!-- Q1RMI1 [360] -->
    <g transform="translate(135.465474 152.885133) scale(0.12 -0.12)">
     <use xlink:href="#DejaVuSans-51"/>
     <use xlink:href="#DejaVuSans-31" x="78.710938"/>
     <use xlink:href="#DejaVuSans-52" x="142.333984"/>
     <use xlink:href="#DejaVuSans-4d" x="211.816406"/>
     <use xlink:href="#DejaVuSans-49" x="298.095703"/>
     <use xlink:href="#DejaVuSans-31" x="327.587891"/>
     <use xlink:href="#DejaVuSans-20" x="391.210938"/>
     <use xlink:href="#DejaVuSans-5b" x="422.998047"/>
     <use xlink:href="#DejaVuSans-33" x="462.011719"/>
     <use xlink:href="#DejaVuSans-36" x="525.634766"/>
     <use xlink:href="#DejaVuSans-30" x="589.257812"/>
     <use xlink:href="#DejaVuSans-5d" x="652.880859"/>
    </g>
   </g>
  </g>
 </g>
</svg>
