<?xml version="1.0" encoding="utf-8" standalone="no"?>
<!DOCTYPE svg PUBLIC "-//W3C//DTD SVG 1.1//EN"
  "http://www.w3.org/Graphics/SVG/1.1/DTD/svg11.dtd">
<svg xmlns:xlink="http://www.w3.org/1999/xlink" width="355.953486pt" height="305.286323pt" viewBox="0 0 355.953486 305.286323" xmlns="http://www.w3.org/2000/svg" version="1.1">
 <metadata>
  <rdf:RDF xmlns:dc="http://purl.org/dc/elements/1.1/" xmlns:cc="http://creativecommons.org/ns#" xmlns:rdf="http://www.w3.org/1999/02/22-rdf-syntax-ns#">
   <cc:Work>
    <dc:type rdf:resource="http://purl.org/dc/dcmitype/StillImage"/>
    <dc:date>2024-09-27T16:07:16.619544</dc:date>
    <dc:format>image/svg+xml</dc:format>
    <dc:creator>
     <cc:Agent>
      <dc:title>Matplotlib v3.8.3, https://matplotlib.org/</dc:title>
     </cc:Agent>
    </dc:creator>
   </cc:Work>
  </rdf:RDF>
 </metadata>
 <defs>
  <style type="text/css">*{stroke-linejoin: round; stroke-linecap: butt}</style>
 </defs>
 <g id="figure_1">
  <g id="patch_1">
   <path d="M 0 305.286323 
L 355.953486 305.286323 
L 355.953486 -0 
L 0 -0 
z
" style="fill: #ffffff"/>
  </g>
  <g id="axes_1">
   <g id="patch_2">
    <path d="M 306.874092 152.899788 
C 306.874092 143.516827 305.840223 134.162366 303.791214 125.005864 
C 301.742205 115.849362 298.690504 106.946445 294.691393 98.45839 
L 179.140332 152.899788 
z
" style="fill: #1f77b4"/>
   </g>
   <g id="patch_3">
    <path d="M 294.634509 98.31125 
C 293.230656 95.331594 291.712077 92.407353 290.082176 89.545086 
C 288.452275 86.682819 286.712272 83.884666 284.866069 81.156904 
L 179.083448 152.752648 
z
" style="fill: #ff7f0e"/>
   </g>
   <g id="patch_4">
    <path d="M 284.815992 81.083855 
C 282.68567 77.936307 280.415927 74.885408 278.013539 71.940266 
C 275.61115 68.995125 273.07851 66.158674 270.42318 63.439382 
L 179.033371 152.679599 
z
" style="fill: #aec7e8"/>
   </g>
   <g id="patch_5">
    <path d="M 270.332242 63.351634 
C 265.905386 58.818146 261.147327 54.620333 256.097486 50.792974 
C 251.047644 46.965616 245.720005 43.519311 240.158707 40.482613 
L 178.942433 152.591851 
z
" style="fill: #ffbb78"/>
   </g>
   <g id="patch_6">
    <path d="M 240.02025 40.40701 
C 234.458953 37.370312 228.679397 34.75163 222.729468 32.572659 
C 216.779539 30.393688 210.675713 28.660463 204.468561 27.387344 
L 178.803976 152.516248 
z
" style="fill: #98df8a"/>
   </g>
   <g id="patch_7">
    <path d="M 204.269707 27.355121 
C 194.580165 25.367746 184.692489 24.512566 174.805613 24.806786 
C 164.918736 25.101007 155.099411 26.542642 145.545194 29.102686 
L 178.605122 152.484025 
z
" style="fill: #2ca02c"/>
   </g>
   <g id="patch_8">
    <path d="M 145.395957 29.128696 
C 143.193474 29.718849 141.007188 30.367872 138.839449 31.075066 
C 136.67171 31.78226 134.523296 32.547372 132.396517 33.369579 
L 178.455885 152.510034 
z
" style="fill: #d62728"/>
   </g>
   <g id="patch_9">
    <path d="M 132.290008 33.417838 
C 125.669933 35.97714 119.274673 39.083766 113.170666 42.70544 
C 107.06666 46.327114 101.275118 50.451252 95.856208 55.03501 
L 178.349376 152.558293 
z
" style="fill: #9467bd"/>
   </g>
   <g id="patch_10">
    <path d="M 95.738254 55.130063 
C 91.868699 58.403249 88.197382 61.903842 84.743782 65.613271 
C 81.290182 69.322699 78.060417 73.234391 75.071621 77.327593 
L 178.231422 152.653346 
z
" style="fill: #ff9896"/>
   </g>
   <g id="patch_11">
    <path d="M 74.947893 77.549454 
C 65.809816 90.064193 59.024867 104.137982 54.925244 119.081751 
C 50.825621 134.02552 49.479342 149.591334 50.952322 165.017075 
L 178.107693 152.875207 
z
" style="fill: #c5b0d5"/>
   </g>
   <g id="patch_12">
    <path d="M 50.940727 165.246139 
C 51.229734 168.272752 51.626709 171.288081 52.130895 174.286364 
C 52.635081 177.284647 53.246157 180.263974 53.962953 183.218649 
L 178.096099 153.104272 
z
" style="fill: #c49c94"/>
   </g>
   <g id="patch_13">
    <path d="M 53.984856 183.304464 
C 54.940664 187.244357 56.083504 191.136512 57.409495 194.96771 
C 58.735485 198.798907 60.243123 202.564805 61.927288 206.252611 
L 178.118001 153.190087 
z
" style="fill: #8c564b"/>
   </g>
   <g id="patch_14">
    <path d="M 61.974144 206.352834 
C 63.974244 210.732443 66.220368 214.995465 68.701761 219.121487 
C 71.183154 223.24751 73.895848 227.229937 76.826854 231.049698 
L 178.164857 153.29031 
z
" style="fill: #e377c2"/>
   </g>
   <g id="patch_15">
    <path d="M 76.88913 231.133407 
C 79.048556 233.947626 81.324274 236.670671 83.710366 239.29546 
C 86.096457 241.920249 88.590851 244.444504 91.18706 246.86166 
L 178.227134 153.374019 
z
" style="fill: #7f7f7f"/>
   </g>
   <g id="patch_16">
    <path d="M 91.287831 246.947934 
C 96.482499 251.784342 102.071247 256.179381 107.996013 260.087393 
C 113.92078 263.995406 120.160977 267.402811 126.651777 270.27421 
L 178.327904 153.460293 
z
" style="fill: #f7b6d2"/>
   </g>
   <g id="patch_17">
    <path d="M 126.887935 270.359105 
C 138.959291 275.69923 151.785787 279.136079 164.909951 280.547072 
C 178.034115 281.958065 191.29804 281.326226 204.228654 278.67409 
L 178.564061 153.545188 
z
" style="fill: #c7c7c7"/>
   </g>
   <g id="patch_18">
    <path d="M 204.500863 278.63164 
C 213.443577 276.797442 222.16395 274.009842 230.512409 270.316651 
C 238.860867 266.62346 246.789405 262.045915 254.162031 256.662533 
L 178.836271 153.502738 
z
" style="fill: #dbdb8d"/>
   </g>
   <g id="patch_19">
    <path d="M 254.370875 256.497288 
C 264.413985 249.163957 273.332576 240.403157 280.843997 230.492539 
C 288.355417 220.581921 294.379467 209.627301 298.72523 197.975858 
L 179.045116 153.337492 
z
" style="fill: #bcbd22"/>
   </g>
   <g id="patch_20">
    <path d="M 298.812616 197.801282 
C 299.963683 194.715152 300.994948 191.585654 301.9041 188.419806 
C 302.813251 185.253957 303.599608 182.054128 304.261407 178.827493 
L 179.132502 153.162917 
z
" style="fill: #17becf"/>
   </g>
   <g id="patch_21">
    <path d="M 304.279363 178.734332 
C 305.144869 174.514513 305.796359 170.253612 306.231335 165.967965 
C 306.666312 161.682319 306.884217 157.377411 306.884217 153.069747 
L 179.150457 153.069756 
z
" style="fill: #9edae5"/>
   </g>
   <g id="patch_22">
    <path d="M 253.132314 153.016013 
C 253.132314 147.542619 252.529223 142.08585 251.333968 136.744557 
C 250.138713 131.403264 248.358554 126.209896 246.025739 121.258531 
L 178.620954 153.016013 
z
" style="fill: #ffffff"/>
   </g>
   <g id="patch_23">
    <path d="M 246.025739 121.258531 
C 245.206825 119.520398 244.320987 117.814591 243.370211 116.144935 
C 242.419436 114.475279 241.404434 112.843024 240.327482 111.251829 
L 178.620954 153.016013 
z
" style="fill: #ffffff"/>
   </g>
   <g id="patch_24">
    <path d="M 240.327482 111.251829 
C 239.084795 109.415759 237.760778 107.636068 236.359385 105.918069 
C 234.957992 104.20007 233.480618 102.545473 231.931675 100.95922 
L 178.620954 153.016013 
z
" style="fill: #ffffff"/>
   </g>
   <g id="patch_25">
    <path d="M 231.931675 100.95922 
C 229.349343 98.314685 226.573808 95.865961 223.628068 93.633335 
C 220.682327 91.400709 217.574537 89.390365 214.330447 87.618958 
L 178.620954 153.016013 
z
" style="fill: #ffffff"/>
   </g>
   <g id="patch_26">
    <path d="M 214.330447 87.618958 
C 211.086356 85.84755 207.714949 84.319986 204.244157 83.048919 
C 200.773365 81.777853 197.2128 80.766805 193.591961 80.024153 
L 178.620954 153.016013 
z
" style="fill: #ffffff"/>
   </g>
   <g id="patch_27">
    <path d="M 193.591961 80.024153 
C 187.939728 78.86485 182.171918 78.365995 176.404573 78.537624 
C 170.637228 78.709253 164.909289 79.550206 159.335996 81.043566 
L 178.620954 153.016013 
z
" style="fill: #ffffff"/>
   </g>
   <g id="patch_28">
    <path d="M 159.335996 81.043566 
C 158.051214 81.387822 156.77588 81.766419 155.511366 82.178948 
C 154.246852 82.591478 152.99361 83.037794 151.752989 83.517414 
L 178.620954 153.016013 
z
" style="fill: #ffffff"/>
   </g>
   <g id="patch_29">
    <path d="M 151.752989 83.517414 
C 147.891279 85.010341 144.16071 86.822539 140.60004 88.935182 
C 137.039369 91.047826 133.66097 93.453573 130.499939 96.127431 
L 178.620954 153.016013 
z
" style="fill: #ffffff"/>
   </g>
   <g id="patch_30">
    <path d="M 130.499939 96.127431 
C 128.242698 98.03679 126.101097 100.078803 124.086497 102.242636 
C 122.071897 104.406469 120.187868 106.688289 118.444403 109.075991 
L 178.620954 153.016013 
z
" style="fill: #ffffff"/>
   </g>
   <g id="patch_31">
    <path d="M 118.444403 109.075991 
C 113.113859 116.376255 109.155972 124.585965 106.764525 133.303164 
C 104.373078 142.020362 103.587749 151.100421 104.446987 160.098769 
L 178.620954 153.016013 
z
" style="fill: #ffffff"/>
   </g>
   <g id="patch_32">
    <path d="M 104.446987 160.098769 
C 104.615574 161.864293 104.847143 163.623235 105.141252 165.372234 
C 105.43536 167.121232 105.791821 168.859173 106.209952 170.582733 
L 178.620954 153.016013 
z
" style="fill: #ffffff"/>
   </g>
   <g id="patch_33">
    <path d="M 106.209952 170.582733 
C 106.767507 172.881004 107.434163 175.151428 108.207658 177.386293 
C 108.981152 179.621159 109.860608 181.817932 110.843037 183.969152 
L 178.620954 153.016013 
z
" style="fill: #ffffff"/>
   </g>
   <g id="patch_34">
    <path d="M 110.843037 183.969152 
C 112.009762 186.523924 113.320002 189.010687 114.767481 191.417533 
C 116.21496 193.82438 117.797365 196.147462 119.507118 198.375656 
L 178.620954 153.016013 
z
" style="fill: #ffffff"/>
   </g>
   <g id="patch_35">
    <path d="M 119.507118 198.375656 
C 120.766783 200.017284 122.094286 201.605727 123.486172 203.136854 
C 124.878059 204.66798 126.333122 206.140463 127.847577 207.550471 
L 178.620954 153.016013 
z
" style="fill: #ffffff"/>
   </g>
   <g id="patch_36">
    <path d="M 127.847577 207.550471 
C 130.877801 210.371708 134.137904 212.935481 137.594017 215.215155 
C 141.050131 217.494829 144.690246 219.482482 148.476546 221.157465 
L 178.620954 153.016013 
z
" style="fill: #ffffff"/>
   </g>
   <g id="patch_37">
    <path d="M 148.476546 221.157465 
C 155.518171 224.272538 163.000294 226.277367 170.656056 227.100446 
C 178.311818 227.923525 186.049108 227.554952 193.591966 226.007873 
L 178.620954 153.016013 
z
" style="fill: #ffffff"/>
   </g>
   <g id="patch_38">
    <path d="M 193.591966 226.007873 
C 198.808549 224.937924 203.895433 223.311824 208.765367 221.157462 
C 213.635301 219.003101 218.260282 216.332867 222.56098 213.19256 
L 178.620954 153.016013 
z
" style="fill: #ffffff"/>
   </g>
   <g id="patch_39">
    <path d="M 222.56098 213.19256 
C 228.419461 208.914784 233.621972 203.804317 238.003634 198.023124 
C 242.385296 192.24193 245.899325 185.851735 248.434354 179.055059 
L 178.620954 153.016013 
z
" style="fill: #ffffff"/>
   </g>
   <g id="patch_40">
    <path d="M 248.434354 179.055059 
C 249.105809 177.254817 249.707381 175.429276 250.237719 173.582532 
C 250.768057 171.735787 251.226765 169.869219 251.612815 167.987016 
L 178.620954 153.016013 
z
" style="fill: #ffffff"/>
   </g>
   <g id="patch_41">
    <path d="M 251.612815 167.987016 
C 252.117694 165.525455 252.49773 163.039929 252.751466 160.539969 
C 253.005202 158.040008 253.132314 155.528812 253.132314 153.016008 
L 178.620954 153.016013 
z
" style="fill: #ffffff"/>
   </g>
   <g id="matplotlib.axis_1"/>
   <g id="matplotlib.axis_2"/>
   <g id="text_1">
    <!-- A [37] -->
    <g transform="translate(316.256303 124.975847) scale(0.1 -0.1)">
     <defs>
      <path id="DejaVuSans-41" d="M 2188 4044 
L 1331 1722 
L 3047 1722 
L 2188 4044 
z
M 1831 4666 
L 2547 4666 
L 4325 0 
L 3669 0 
L 3244 1197 
L 1141 1197 
L 716 0 
L 50 0 
L 1831 4666 
z
" transform="scale(0.015625)"/>
      <path id="DejaVuSans-20" transform="scale(0.015625)"/>
      <path id="DejaVuSans-5b" d="M 550 4863 
L 1875 4863 
L 1875 4416 
L 1125 4416 
L 1125 -397 
L 1875 -397 
L 1875 -844 
L 550 -844 
L 550 4863 
z
" transform="scale(0.015625)"/>
      <path id="DejaVuSans-33" d="M 2597 2516 
Q 3050 2419 3304 2112 
Q 3559 1806 3559 1356 
Q 3559 666 3084 287 
Q 2609 -91 1734 -91 
Q 1441 -91 1130 -33 
Q 819 25 488 141 
L 488 750 
Q 750 597 1062 519 
Q 1375 441 1716 441 
Q 2309 441 2620 675 
Q 2931 909 2931 1356 
Q 2931 1769 2642 2001 
Q 2353 2234 1838 2234 
L 1294 2234 
L 1294 2753 
L 1863 2753 
Q 2328 2753 2575 2939 
Q 2822 3125 2822 3475 
Q 2822 3834 2567 4026 
Q 2313 4219 1838 4219 
Q 1578 4219 1281 4162 
Q 984 4106 628 3988 
L 628 4550 
Q 988 4650 1302 4700 
Q 1616 4750 1894 4750 
Q 2613 4750 3031 4423 
Q 3450 4097 3450 3541 
Q 3450 3153 3228 2886 
Q 3006 2619 2597 2516 
z
" transform="scale(0.015625)"/>
      <path id="DejaVuSans-37" d="M 525 4666 
L 3525 4666 
L 3525 4397 
L 1831 0 
L 1172 0 
L 2766 4134 
L 525 4134 
L 525 4666 
z
" transform="scale(0.015625)"/>
      <path id="DejaVuSans-5d" d="M 1947 4863 
L 1947 -844 
L 622 -844 
L 622 -397 
L 1369 -397 
L 1369 4416 
L 622 4416 
L 622 4863 
L 1947 4863 
z
" transform="scale(0.015625)"/>
     </defs>
     <use xlink:href="#DejaVuSans-41"/>
     <use xlink:href="#DejaVuSans-20" x="68.408203"/>
     <use xlink:href="#DejaVuSans-5b" x="100.195312"/>
     <use xlink:href="#DejaVuSans-33" x="139.208984"/>
     <use xlink:href="#DejaVuSans-37" x="202.832031"/>
     <use xlink:href="#DejaVuSans-5d" x="266.455078"/>
    </g>
   </g>
   <g id="text_2">
    <!-- C [13] -->
    <g transform="translate(301.182049 85.983705) scale(0.1 -0.1)">
     <defs>
      <path id="DejaVuSans-43" d="M 4122 4306 
L 4122 3641 
Q 3803 3938 3442 4084 
Q 3081 4231 2675 4231 
Q 1875 4231 1450 3742 
Q 1025 3253 1025 2328 
Q 1025 1406 1450 917 
Q 1875 428 2675 428 
Q 3081 428 3442 575 
Q 3803 722 4122 1019 
L 4122 359 
Q 3791 134 3420 21 
Q 3050 -91 2638 -91 
Q 1578 -91 968 557 
Q 359 1206 359 2328 
Q 359 3453 968 4101 
Q 1578 4750 2638 4750 
Q 3056 4750 3426 4639 
Q 3797 4528 4122 4306 
z
" transform="scale(0.015625)"/>
      <path id="DejaVuSans-31" d="M 794 531 
L 1825 531 
L 1825 4091 
L 703 3866 
L 703 4441 
L 1819 4666 
L 2450 4666 
L 2450 531 
L 3481 531 
L 3481 0 
L 794 0 
L 794 531 
z
" transform="scale(0.015625)"/>
     </defs>
     <use xlink:href="#DejaVuSans-43"/>
     <use xlink:href="#DejaVuSans-20" x="69.824219"/>
     <use xlink:href="#DejaVuSans-5b" x="101.611328"/>
     <use xlink:href="#DejaVuSans-31" x="140.625"/>
     <use xlink:href="#DejaVuSans-33" x="204.248047"/>
     <use xlink:href="#DejaVuSans-5d" x="267.871094"/>
    </g>
   </g>
   <g id="text_3">
    <!-- D [15] -->
    <g transform="translate(287.911555 66.625708) scale(0.1 -0.1)">
     <defs>
      <path id="DejaVuSans-44" d="M 1259 4147 
L 1259 519 
L 2022 519 
Q 2988 519 3436 956 
Q 3884 1394 3884 2338 
Q 3884 3275 3436 3711 
Q 2988 4147 2022 4147 
L 1259 4147 
z
M 628 4666 
L 1925 4666 
Q 3281 4666 3915 4102 
Q 4550 3538 4550 2338 
Q 4550 1131 3912 565 
Q 3275 0 1925 0 
L 628 0 
L 628 4666 
z
" transform="scale(0.015625)"/>
      <path id="DejaVuSans-35" d="M 691 4666 
L 3169 4666 
L 3169 4134 
L 1269 4134 
L 1269 2991 
Q 1406 3038 1543 3061 
Q 1681 3084 1819 3084 
Q 2600 3084 3056 2656 
Q 3513 2228 3513 1497 
Q 3513 744 3044 326 
Q 2575 -91 1722 -91 
Q 1428 -91 1123 -41 
Q 819 9 494 109 
L 494 744 
Q 775 591 1075 516 
Q 1375 441 1709 441 
Q 2250 441 2565 725 
Q 2881 1009 2881 1497 
Q 2881 1984 2565 2268 
Q 2250 2553 1709 2553 
Q 1456 2553 1204 2497 
Q 953 2441 691 2322 
L 691 4666 
z
" transform="scale(0.015625)"/>
     </defs>
     <use xlink:href="#DejaVuSans-44"/>
     <use xlink:href="#DejaVuSans-20" x="77.001953"/>
     <use xlink:href="#DejaVuSans-5b" x="108.789062"/>
     <use xlink:href="#DejaVuSans-31" x="147.802734"/>
     <use xlink:href="#DejaVuSans-35" x="211.425781"/>
     <use xlink:href="#DejaVuSans-5d" x="275.048828"/>
    </g>
   </g>
   <g id="text_4">
    <!-- E [25] -->
    <g transform="translate(263.812991 43.372462) scale(0.1 -0.1)">
     <defs>
      <path id="DejaVuSans-45" d="M 628 4666 
L 3578 4666 
L 3578 4134 
L 1259 4134 
L 1259 2753 
L 3481 2753 
L 3481 2222 
L 1259 2222 
L 1259 531 
L 3634 531 
L 3634 0 
L 628 0 
L 628 4666 
z
" transform="scale(0.015625)"/>
      <path id="DejaVuSans-32" d="M 1228 531 
L 3431 531 
L 3431 0 
L 469 0 
L 469 531 
Q 828 903 1448 1529 
Q 2069 2156 2228 2338 
Q 2531 2678 2651 2914 
Q 2772 3150 2772 3378 
Q 2772 3750 2511 3984 
Q 2250 4219 1831 4219 
Q 1534 4219 1204 4116 
Q 875 4013 500 3803 
L 500 4441 
Q 881 4594 1212 4672 
Q 1544 4750 1819 4750 
Q 2544 4750 2975 4387 
Q 3406 4025 3406 3419 
Q 3406 3131 3298 2873 
Q 3191 2616 2906 2266 
Q 2828 2175 2409 1742 
Q 1991 1309 1228 531 
z
" transform="scale(0.015625)"/>
     </defs>
     <use xlink:href="#DejaVuSans-45"/>
     <use xlink:href="#DejaVuSans-20" x="63.183594"/>
     <use xlink:href="#DejaVuSans-5b" x="94.970703"/>
     <use xlink:href="#DejaVuSans-32" x="133.984375"/>
     <use xlink:href="#DejaVuSans-35" x="197.607422"/>
     <use xlink:href="#DejaVuSans-5d" x="261.230469"/>
    </g>
   </g>
   <g id="text_5">
    <!-- F [25] -->
    <g transform="translate(227.122017 23.337675) scale(0.1 -0.1)">
     <defs>
      <path id="DejaVuSans-46" d="M 628 4666 
L 3309 4666 
L 3309 4134 
L 1259 4134 
L 1259 2759 
L 3109 2759 
L 3109 2228 
L 1259 2228 
L 1259 0 
L 628 0 
L 628 4666 
z
" transform="scale(0.015625)"/>
     </defs>
     <use xlink:href="#DejaVuSans-46"/>
     <use xlink:href="#DejaVuSans-20" x="57.519531"/>
     <use xlink:href="#DejaVuSans-5b" x="89.306641"/>
     <use xlink:href="#DejaVuSans-32" x="128.320312"/>
     <use xlink:href="#DejaVuSans-35" x="191.943359"/>
     <use xlink:href="#DejaVuSans-5d" x="255.566406"/>
    </g>
   </g>
   <g id="text_6">
    <!-- G [39] -->
    <g transform="translate(142.970974 14.798437) scale(0.1 -0.1)">
     <defs>
      <path id="DejaVuSans-47" d="M 3809 666 
L 3809 1919 
L 2778 1919 
L 2778 2438 
L 4434 2438 
L 4434 434 
Q 4069 175 3628 42 
Q 3188 -91 2688 -91 
Q 1594 -91 976 548 
Q 359 1188 359 2328 
Q 359 3472 976 4111 
Q 1594 4750 2688 4750 
Q 3144 4750 3555 4637 
Q 3966 4525 4313 4306 
L 4313 3634 
Q 3963 3931 3569 4081 
Q 3175 4231 2741 4231 
Q 1884 4231 1454 3753 
Q 1025 3275 1025 2328 
Q 1025 1384 1454 906 
Q 1884 428 2741 428 
Q 3075 428 3337 486 
Q 3600 544 3809 666 
z
" transform="scale(0.015625)"/>
      <path id="DejaVuSans-39" d="M 703 97 
L 703 672 
Q 941 559 1184 500 
Q 1428 441 1663 441 
Q 2288 441 2617 861 
Q 2947 1281 2994 2138 
Q 2813 1869 2534 1725 
Q 2256 1581 1919 1581 
Q 1219 1581 811 2004 
Q 403 2428 403 3163 
Q 403 3881 828 4315 
Q 1253 4750 1959 4750 
Q 2769 4750 3195 4129 
Q 3622 3509 3622 2328 
Q 3622 1225 3098 567 
Q 2575 -91 1691 -91 
Q 1453 -91 1209 -44 
Q 966 3 703 97 
z
M 1959 2075 
Q 2384 2075 2632 2365 
Q 2881 2656 2881 3163 
Q 2881 3666 2632 3958 
Q 2384 4250 1959 4250 
Q 1534 4250 1286 3958 
Q 1038 3666 1038 3163 
Q 1038 2656 1286 2365 
Q 1534 2075 1959 2075 
z
" transform="scale(0.015625)"/>
     </defs>
     <use xlink:href="#DejaVuSans-47"/>
     <use xlink:href="#DejaVuSans-20" x="77.490234"/>
     <use xlink:href="#DejaVuSans-5b" x="109.277344"/>
     <use xlink:href="#DejaVuSans-33" x="148.291016"/>
     <use xlink:href="#DejaVuSans-39" x="211.914062"/>
     <use xlink:href="#DejaVuSans-5d" x="275.537109"/>
    </g>
   </g>
   <g id="text_7">
    <!-- H [9] -->
    <g transform="translate(110.013743 21.690944) scale(0.1 -0.1)">
     <defs>
      <path id="DejaVuSans-48" d="M 628 4666 
L 1259 4666 
L 1259 2753 
L 3553 2753 
L 3553 4666 
L 4184 4666 
L 4184 0 
L 3553 0 
L 3553 2222 
L 1259 2222 
L 1259 0 
L 628 0 
L 628 4666 
z
" transform="scale(0.015625)"/>
     </defs>
     <use xlink:href="#DejaVuSans-48"/>
     <use xlink:href="#DejaVuSans-20" x="75.195312"/>
     <use xlink:href="#DejaVuSans-5b" x="106.982422"/>
     <use xlink:href="#DejaVuSans-39" x="145.996094"/>
     <use xlink:href="#DejaVuSans-5d" x="209.619141"/>
    </g>
   </g>
   <g id="text_8">
    <!-- I [28] -->
    <g transform="translate(79.996546 34.47953) scale(0.1 -0.1)">
     <defs>
      <path id="DejaVuSans-49" d="M 628 4666 
L 1259 4666 
L 1259 0 
L 628 0 
L 628 4666 
z
" transform="scale(0.015625)"/>
      <path id="DejaVuSans-38" d="M 2034 2216 
Q 1584 2216 1326 1975 
Q 1069 1734 1069 1313 
Q 1069 891 1326 650 
Q 1584 409 2034 409 
Q 2484 409 2743 651 
Q 3003 894 3003 1313 
Q 3003 1734 2745 1975 
Q 2488 2216 2034 2216 
z
M 1403 2484 
Q 997 2584 770 2862 
Q 544 3141 544 3541 
Q 544 4100 942 4425 
Q 1341 4750 2034 4750 
Q 2731 4750 3128 4425 
Q 3525 4100 3525 3541 
Q 3525 3141 3298 2862 
Q 3072 2584 2669 2484 
Q 3125 2378 3379 2068 
Q 3634 1759 3634 1313 
Q 3634 634 3220 271 
Q 2806 -91 2034 -91 
Q 1263 -91 848 271 
Q 434 634 434 1313 
Q 434 1759 690 2068 
Q 947 2378 1403 2484 
z
M 1172 3481 
Q 1172 3119 1398 2916 
Q 1625 2713 2034 2713 
Q 2441 2713 2670 2916 
Q 2900 3119 2900 3481 
Q 2900 3844 2670 4047 
Q 2441 4250 2034 4250 
Q 1625 4250 1398 4047 
Q 1172 3844 1172 3481 
z
" transform="scale(0.015625)"/>
     </defs>
     <use xlink:href="#DejaVuSans-49"/>
     <use xlink:href="#DejaVuSans-20" x="29.492188"/>
     <use xlink:href="#DejaVuSans-5b" x="61.279297"/>
     <use xlink:href="#DejaVuSans-32" x="100.292969"/>
     <use xlink:href="#DejaVuSans-38" x="163.916016"/>
     <use xlink:href="#DejaVuSans-5d" x="227.539062"/>
    </g>
   </g>
   <g id="text_9">
    <!-- K [20] -->
    <g transform="translate(45.130956 59.668638) scale(0.1 -0.1)">
     <defs>
      <path id="DejaVuSans-4b" d="M 628 4666 
L 1259 4666 
L 1259 2694 
L 3353 4666 
L 4166 4666 
L 1850 2491 
L 4331 0 
L 3500 0 
L 1259 2247 
L 1259 0 
L 628 0 
L 628 4666 
z
" transform="scale(0.015625)"/>
      <path id="DejaVuSans-30" d="M 2034 4250 
Q 1547 4250 1301 3770 
Q 1056 3291 1056 2328 
Q 1056 1369 1301 889 
Q 1547 409 2034 409 
Q 2525 409 2770 889 
Q 3016 1369 3016 2328 
Q 3016 3291 2770 3770 
Q 2525 4250 2034 4250 
z
M 2034 4750 
Q 2819 4750 3233 4129 
Q 3647 3509 3647 2328 
Q 3647 1150 3233 529 
Q 2819 -91 2034 -91 
Q 1250 -91 836 529 
Q 422 1150 422 2328 
Q 422 3509 836 4129 
Q 1250 4750 2034 4750 
z
" transform="scale(0.015625)"/>
     </defs>
     <use xlink:href="#DejaVuSans-4b"/>
     <use xlink:href="#DejaVuSans-20" x="65.576172"/>
     <use xlink:href="#DejaVuSans-5b" x="97.363281"/>
     <use xlink:href="#DejaVuSans-32" x="136.376953"/>
     <use xlink:href="#DejaVuSans-30" x="200"/>
     <use xlink:href="#DejaVuSans-5d" x="263.623047"/>
    </g>
   </g>
   <g id="text_10">
    <!-- L [61] -->
    <g transform="translate(13.328874 118.46178) scale(0.1 -0.1)">
     <defs>
      <path id="DejaVuSans-4c" d="M 628 4666 
L 1259 4666 
L 1259 531 
L 3531 531 
L 3531 0 
L 628 0 
L 628 4666 
z
" transform="scale(0.015625)"/>
      <path id="DejaVuSans-36" d="M 2113 2584 
Q 1688 2584 1439 2293 
Q 1191 2003 1191 1497 
Q 1191 994 1439 701 
Q 1688 409 2113 409 
Q 2538 409 2786 701 
Q 3034 994 3034 1497 
Q 3034 2003 2786 2293 
Q 2538 2584 2113 2584 
z
M 3366 4563 
L 3366 3988 
Q 3128 4100 2886 4159 
Q 2644 4219 2406 4219 
Q 1781 4219 1451 3797 
Q 1122 3375 1075 2522 
Q 1259 2794 1537 2939 
Q 1816 3084 2150 3084 
Q 2853 3084 3261 2657 
Q 3669 2231 3669 1497 
Q 3669 778 3244 343 
Q 2819 -91 2113 -91 
Q 1303 -91 875 529 
Q 447 1150 447 2328 
Q 447 3434 972 4092 
Q 1497 4750 2381 4750 
Q 2619 4750 2861 4703 
Q 3103 4656 3366 4563 
z
" transform="scale(0.015625)"/>
     </defs>
     <use xlink:href="#DejaVuSans-4c"/>
     <use xlink:href="#DejaVuSans-20" x="55.712891"/>
     <use xlink:href="#DejaVuSans-5b" x="87.5"/>
     <use xlink:href="#DejaVuSans-36" x="126.513672"/>
     <use xlink:href="#DejaVuSans-31" x="190.136719"/>
     <use xlink:href="#DejaVuSans-5d" x="253.759766"/>
    </g>
   </g>
   <g id="text_11">
    <!-- M [12] -->
    <g transform="translate(7.2 179.163948) scale(0.1 -0.1)">
     <defs>
      <path id="DejaVuSans-4d" d="M 628 4666 
L 1569 4666 
L 2759 1491 
L 3956 4666 
L 4897 4666 
L 4897 0 
L 4281 0 
L 4281 4097 
L 3078 897 
L 2444 897 
L 1241 4097 
L 1241 0 
L 628 0 
L 628 4666 
z
" transform="scale(0.015625)"/>
     </defs>
     <use xlink:href="#DejaVuSans-4d"/>
     <use xlink:href="#DejaVuSans-20" x="86.279297"/>
     <use xlink:href="#DejaVuSans-5b" x="118.066406"/>
     <use xlink:href="#DejaVuSans-31" x="157.080078"/>
     <use xlink:href="#DejaVuSans-32" x="220.703125"/>
     <use xlink:href="#DejaVuSans-5d" x="284.326172"/>
    </g>
   </g>
   <g id="text_12">
    <!-- N [16] -->
    <g transform="translate(14.151144 201.904847) scale(0.1 -0.1)">
     <defs>
      <path id="DejaVuSans-4e" d="M 628 4666 
L 1478 4666 
L 3547 763 
L 3547 4666 
L 4159 4666 
L 4159 0 
L 3309 0 
L 1241 3903 
L 1241 0 
L 628 0 
L 628 4666 
z
" transform="scale(0.015625)"/>
     </defs>
     <use xlink:href="#DejaVuSans-4e"/>
     <use xlink:href="#DejaVuSans-20" x="74.804688"/>
     <use xlink:href="#DejaVuSans-5b" x="106.591797"/>
     <use xlink:href="#DejaVuSans-31" x="145.605469"/>
     <use xlink:href="#DejaVuSans-36" x="209.228516"/>
     <use xlink:href="#DejaVuSans-5d" x="272.851562"/>
    </g>
   </g>
   <g id="text_13">
    <!-- P [19] -->
    <g transform="translate(28.019514 228.46398) scale(0.1 -0.1)">
     <defs>
      <path id="DejaVuSans-50" d="M 1259 4147 
L 1259 2394 
L 2053 2394 
Q 2494 2394 2734 2622 
Q 2975 2850 2975 3272 
Q 2975 3691 2734 3919 
Q 2494 4147 2053 4147 
L 1259 4147 
z
M 628 4666 
L 2053 4666 
Q 2838 4666 3239 4311 
Q 3641 3956 3641 3272 
Q 3641 2581 3239 2228 
Q 2838 1875 2053 1875 
L 1259 1875 
L 1259 0 
L 628 0 
L 628 4666 
z
" transform="scale(0.015625)"/>
     </defs>
     <use xlink:href="#DejaVuSans-50"/>
     <use xlink:href="#DejaVuSans-20" x="60.302734"/>
     <use xlink:href="#DejaVuSans-5b" x="92.089844"/>
     <use xlink:href="#DejaVuSans-31" x="131.103516"/>
     <use xlink:href="#DejaVuSans-39" x="194.726562"/>
     <use xlink:href="#DejaVuSans-5d" x="258.349609"/>
    </g>
   </g>
   <g id="text_14">
    <!-- Q [14] -->
    <g transform="translate(42.680564 250.646979) scale(0.1 -0.1)">
     <defs>
      <path id="DejaVuSans-51" d="M 2522 4238 
Q 1834 4238 1429 3725 
Q 1025 3213 1025 2328 
Q 1025 1447 1429 934 
Q 1834 422 2522 422 
Q 3209 422 3611 934 
Q 4013 1447 4013 2328 
Q 4013 3213 3611 3725 
Q 3209 4238 2522 4238 
z
M 3406 84 
L 4238 -825 
L 3475 -825 
L 2784 -78 
Q 2681 -84 2626 -87 
Q 2572 -91 2522 -91 
Q 1538 -91 948 567 
Q 359 1225 359 2328 
Q 359 3434 948 4092 
Q 1538 4750 2522 4750 
Q 3503 4750 4090 4092 
Q 4678 3434 4678 2328 
Q 4678 1516 4351 937 
Q 4025 359 3406 84 
z
" transform="scale(0.015625)"/>
      <path id="DejaVuSans-34" d="M 2419 4116 
L 825 1625 
L 2419 1625 
L 2419 4116 
z
M 2253 4666 
L 3047 4666 
L 3047 1625 
L 3713 1625 
L 3713 1100 
L 3047 1100 
L 3047 0 
L 2419 0 
L 2419 1100 
L 313 1100 
L 313 1709 
L 2253 4666 
z
" transform="scale(0.015625)"/>
     </defs>
     <use xlink:href="#DejaVuSans-51"/>
     <use xlink:href="#DejaVuSans-20" x="78.710938"/>
     <use xlink:href="#DejaVuSans-5b" x="110.498047"/>
     <use xlink:href="#DejaVuSans-31" x="149.511719"/>
     <use xlink:href="#DejaVuSans-34" x="213.134766"/>
     <use xlink:href="#DejaVuSans-5d" x="276.757812"/>
    </g>
   </g>
   <g id="text_15">
    <!-- R [28] -->
    <g transform="translate(70.308137 273.509478) scale(0.1 -0.1)">
     <defs>
      <path id="DejaVuSans-52" d="M 2841 2188 
Q 3044 2119 3236 1894 
Q 3428 1669 3622 1275 
L 4263 0 
L 3584 0 
L 2988 1197 
Q 2756 1666 2539 1819 
Q 2322 1972 1947 1972 
L 1259 1972 
L 1259 0 
L 628 0 
L 628 4666 
L 2053 4666 
Q 2853 4666 3247 4331 
Q 3641 3997 3641 3322 
Q 3641 2881 3436 2590 
Q 3231 2300 2841 2188 
z
M 1259 4147 
L 1259 2491 
L 2053 2491 
Q 2509 2491 2742 2702 
Q 2975 2913 2975 3322 
Q 2975 3731 2742 3939 
Q 2509 4147 2053 4147 
L 1259 4147 
z
" transform="scale(0.015625)"/>
     </defs>
     <use xlink:href="#DejaVuSans-52"/>
     <use xlink:href="#DejaVuSans-20" x="69.482422"/>
     <use xlink:href="#DejaVuSans-5b" x="101.269531"/>
     <use xlink:href="#DejaVuSans-32" x="140.283203"/>
     <use xlink:href="#DejaVuSans-38" x="203.90625"/>
     <use xlink:href="#DejaVuSans-5d" x="267.529297"/>
    </g>
   </g>
   <g id="text_16">
    <!-- S [52] -->
    <g transform="translate(133.489853 296.006636) scale(0.1 -0.1)">
     <defs>
      <path id="DejaVuSans-53" d="M 3425 4513 
L 3425 3897 
Q 3066 4069 2747 4153 
Q 2428 4238 2131 4238 
Q 1616 4238 1336 4038 
Q 1056 3838 1056 3469 
Q 1056 3159 1242 3001 
Q 1428 2844 1947 2747 
L 2328 2669 
Q 3034 2534 3370 2195 
Q 3706 1856 3706 1288 
Q 3706 609 3251 259 
Q 2797 -91 1919 -91 
Q 1588 -91 1214 -16 
Q 841 59 441 206 
L 441 856 
Q 825 641 1194 531 
Q 1563 422 1919 422 
Q 2459 422 2753 634 
Q 3047 847 3047 1241 
Q 3047 1584 2836 1778 
Q 2625 1972 2144 2069 
L 1759 2144 
Q 1053 2284 737 2584 
Q 422 2884 422 3419 
Q 422 4038 858 4394 
Q 1294 4750 2059 4750 
Q 2388 4750 2728 4690 
Q 3069 4631 3425 4513 
z
" transform="scale(0.015625)"/>
     </defs>
     <use xlink:href="#DejaVuSans-53"/>
     <use xlink:href="#DejaVuSans-20" x="63.476562"/>
     <use xlink:href="#DejaVuSans-5b" x="95.263672"/>
     <use xlink:href="#DejaVuSans-35" x="134.277344"/>
     <use xlink:href="#DejaVuSans-32" x="197.900391"/>
     <use xlink:href="#DejaVuSans-5d" x="261.523438"/>
    </g>
   </g>
   <g id="text_17">
    <!-- T [36] -->
    <g transform="translate(235.680022 284.757417) scale(0.1 -0.1)">
     <defs>
      <path id="DejaVuSans-54" d="M -19 4666 
L 3928 4666 
L 3928 4134 
L 2272 4134 
L 2272 0 
L 1638 0 
L 1638 4134 
L -19 4134 
L -19 4666 
z
" transform="scale(0.015625)"/>
     </defs>
     <use xlink:href="#DejaVuSans-54"/>
     <use xlink:href="#DejaVuSans-20" x="61.083984"/>
     <use xlink:href="#DejaVuSans-5b" x="92.871094"/>
     <use xlink:href="#DejaVuSans-33" x="131.884766"/>
     <use xlink:href="#DejaVuSans-36" x="195.507812"/>
     <use xlink:href="#DejaVuSans-5d" x="259.130859"/>
    </g>
   </g>
   <g id="text_18">
    <!-- V [49] -->
    <g transform="translate(291.023885 240.967419) scale(0.1 -0.1)">
     <defs>
      <path id="DejaVuSans-56" d="M 1831 0 
L 50 4666 
L 709 4666 
L 2188 738 
L 3669 4666 
L 4325 4666 
L 2547 0 
L 1831 0 
z
" transform="scale(0.015625)"/>
     </defs>
     <use xlink:href="#DejaVuSans-56"/>
     <use xlink:href="#DejaVuSans-20" x="68.408203"/>
     <use xlink:href="#DejaVuSans-5b" x="100.195312"/>
     <use xlink:href="#DejaVuSans-34" x="139.208984"/>
     <use xlink:href="#DejaVuSans-39" x="202.832031"/>
     <use xlink:href="#DejaVuSans-5d" x="266.455078"/>
    </g>
   </g>
   <g id="text_19">
    <!-- W [13] -->
    <g transform="translate(314.181259 194.70487) scale(0.1 -0.1)">
     <defs>
      <path id="DejaVuSans-57" d="M 213 4666 
L 850 4666 
L 1831 722 
L 2809 4666 
L 3519 4666 
L 4500 722 
L 5478 4666 
L 6119 4666 
L 4947 0 
L 4153 0 
L 3169 4050 
L 2175 0 
L 1381 0 
L 213 4666 
z
" transform="scale(0.015625)"/>
     </defs>
     <use xlink:href="#DejaVuSans-57"/>
     <use xlink:href="#DejaVuSans-20" x="98.876953"/>
     <use xlink:href="#DejaVuSans-5b" x="130.664062"/>
     <use xlink:href="#DejaVuSans-31" x="169.677734"/>
     <use xlink:href="#DejaVuSans-33" x="233.300781"/>
     <use xlink:href="#DejaVuSans-5d" x="296.923828"/>
    </g>
   </g>
   <g id="text_20">
    <!-- Y [17] -->
    <g transform="translate(318.939423 170.017161) scale(0.1 -0.1)">
     <defs>
      <path id="DejaVuSans-59" d="M -13 4666 
L 666 4666 
L 1959 2747 
L 3244 4666 
L 3922 4666 
L 2272 2222 
L 2272 0 
L 1638 0 
L 1638 2222 
L -13 4666 
z
" transform="scale(0.015625)"/>
     </defs>
     <use xlink:href="#DejaVuSans-59"/>
     <use xlink:href="#DejaVuSans-20" x="61.083984"/>
     <use xlink:href="#DejaVuSans-5b" x="92.871094"/>
     <use xlink:href="#DejaVuSans-31" x="131.884766"/>
     <use xlink:href="#DejaVuSans-37" x="195.507812"/>
     <use xlink:href="#DejaVuSans-5d" x="259.130859"/>
    </g>
   </g>
   <g id="text_21">
    <!-- Q2YDN1 [528] -->
    <g transform="translate(135.448141 153.016013) scale(0.12 -0.12)">
     <use xlink:href="#DejaVuSans-51"/>
     <use xlink:href="#DejaVuSans-32" x="78.710938"/>
     <use xlink:href="#DejaVuSans-59" x="142.333984"/>
     <use xlink:href="#DejaVuSans-44" x="203.417969"/>
     <use xlink:href="#DejaVuSans-4e" x="280.419922"/>
     <use xlink:href="#DejaVuSans-31" x="355.224609"/>
     <use xlink:href="#DejaVuSans-20" x="418.847656"/>
     <use xlink:href="#DejaVuSans-5b" x="450.634766"/>
     <use xlink:href="#DejaVuSans-35" x="489.648438"/>
     <use xlink:href="#DejaVuSans-32" x="553.271484"/>
     <use xlink:href="#DejaVuSans-38" x="616.894531"/>
     <use xlink:href="#DejaVuSans-5d" x="680.517578"/>
    </g>
   </g>
  </g>
 </g>
</svg>
