<?xml version="1.0" encoding="utf-8" standalone="no"?>
<!DOCTYPE svg PUBLIC "-//W3C//DTD SVG 1.1//EN"
  "http://www.w3.org/Graphics/SVG/1.1/DTD/svg11.dtd">
<svg xmlns:xlink="http://www.w3.org/1999/xlink" width="351.512105pt" height="305.942187pt" viewBox="0 0 351.512105 305.942187" xmlns="http://www.w3.org/2000/svg" version="1.1">
 <metadata>
  <rdf:RDF xmlns:dc="http://purl.org/dc/elements/1.1/" xmlns:cc="http://creativecommons.org/ns#" xmlns:rdf="http://www.w3.org/1999/02/22-rdf-syntax-ns#">
   <cc:Work>
    <dc:type rdf:resource="http://purl.org/dc/dcmitype/StillImage"/>
    <dc:date>2024-09-27T16:07:16.304454</dc:date>
    <dc:format>image/svg+xml</dc:format>
    <dc:creator>
     <cc:Agent>
      <dc:title>Matplotlib v3.8.3, https://matplotlib.org/</dc:title>
     </cc:Agent>
    </dc:creator>
   </cc:Work>
  </rdf:RDF>
 </metadata>
 <defs>
  <style type="text/css">*{stroke-linejoin: round; stroke-linecap: butt}</style>
 </defs>
 <g id="figure_1">
  <g id="patch_1">
   <path d="M 0 305.942187 
L 351.512105 305.942187 
L 351.512105 0 
L 0 0 
z
" style="fill: #ffffff"/>
  </g>
  <g id="axes_1">
   <g id="patch_2">
    <path d="M 303.500593 152.921472 
C 303.500593 144.857483 302.736958 136.811583 301.219922 128.891575 
C 299.702885 120.971568 297.439251 113.212985 294.459351 105.719781 
L 175.766833 152.921472 
z
" style="fill: #1f77b4"/>
   </g>
   <g id="patch_3">
    <path d="M 294.410386 105.577383 
C 292.921268 101.832874 291.255787 98.16093 289.41953 94.573873 
C 287.583274 90.986815 285.578299 87.488661 283.411334 84.09115 
L 175.717868 152.779075 
z
" style="fill: #ff7f0e"/>
   </g>
   <g id="patch_4">
    <path d="M 283.360329 84.010341 
C 281.410129 80.952689 279.330594 77.979479 277.127376 75.098795 
C 274.924158 72.21811 272.599256 69.432563 270.15899 66.749726 
L 175.666864 152.698265 
z
" style="fill: #aec7e8"/>
   </g>
   <g id="patch_5">
    <path d="M 270.101744 66.686187 
C 267.932687 64.301519 265.674136 61.999815 263.330943 59.786019 
C 260.987749 57.572224 258.561591 55.447923 256.057682 53.41768 
L 175.609617 152.634727 
z
" style="fill: #ffbb78"/>
   </g>
   <g id="patch_6">
    <path d="M 255.930204 53.328519 
C 248.725228 47.486515 240.905284 42.446673 232.608833 38.298227 
C 224.312381 34.149782 215.588678 30.917363 206.592184 28.658204 
L 175.482139 152.545566 
z
" style="fill: #98df8a"/>
   </g>
   <g id="patch_7">
    <path d="M 206.424458 28.606674 
C 201.733998 27.428826 196.980431 26.518305 192.186719 25.879508 
C 187.393007 25.240711 182.566883 24.874669 177.731663 24.78315 
L 175.314413 152.494036 
z
" style="fill: #2ca02c"/>
   </g>
   <g id="patch_8">
    <path d="M 177.646255 24.778701 
C 175.632026 24.740577 173.617178 24.75011 171.6034 24.807292 
C 169.589623 24.864474 167.57748 24.96929 165.56866 25.121651 
L 175.229005 152.489587 
z
" style="fill: #d62728"/>
   </g>
   <g id="patch_9">
    <path d="M 165.396488 25.155475 
C 153.323934 26.071129 141.442653 28.698594 130.109746 32.958897 
C 118.776839 37.219201 108.106995 43.06923 98.420905 50.333156 
L 175.056832 152.523411 
z
" style="fill: #9467bd"/>
   </g>
   <g id="patch_10">
    <path d="M 98.221315 50.465836 
C 92.41588 54.819528 86.991989 59.660024 82.008535 64.934765 
C 77.025081 70.209506 72.500165 75.899333 68.482919 81.942465 
L 174.857242 152.656091 
z
" style="fill: #ff9896"/>
   </g>
   <g id="patch_11">
    <path d="M 68.346144 82.212797 
C 58.722224 96.690034 52.154302 112.980721 49.045611 130.084704 
C 45.936919 147.188688 46.352405 164.748627 50.26656 181.686443 
L 174.720466 152.926423 
z
" style="fill: #c5b0d5"/>
   </g>
   <g id="patch_12">
    <path d="M 50.293815 181.973602 
C 51.655112 187.864378 53.432936 193.651076 55.613873 199.290038 
C 57.794809 204.928999 60.37336 210.406007 63.33007 215.679737 
L 174.74772 153.213582 
z
" style="fill: #c49c94"/>
   </g>
   <g id="patch_13">
    <path d="M 63.391776 215.794854 
C 65.55961 219.661507 67.927259 223.412691 70.485109 227.033176 
C 73.042959 230.653662 75.787545 234.138542 78.707723 237.473668 
L 174.809427 153.328698 
z
" style="fill: #8c564b"/>
   </g>
   <g id="patch_14">
    <path d="M 78.80331 237.57678 
C 83.317726 242.73268 88.239754 247.516928 93.521715 251.883179 
C 98.803675 256.24943 104.428458 260.183539 110.341574 263.647397 
L 174.905014 153.431811 
z
" style="fill: #e377c2"/>
   </g>
   <g id="patch_15">
    <path d="M 110.438149 263.71094 
C 112.524147 264.932902 114.644417 266.095396 116.796394 267.197019 
C 118.948372 268.298641 121.131191 269.338947 123.342213 270.316679 
L 175.00159 153.495353 
z
" style="fill: #7f7f7f"/>
   </g>
   <g id="patch_16">
    <path d="M 123.43084 270.352411 
C 128.222576 272.471358 133.140148 274.293479 138.155677 275.808447 
C 143.171207 277.323415 148.275199 278.528361 153.438721 279.416455 
L 175.090218 153.531085 
z
" style="fill: #f7b6d2"/>
   </g>
   <g id="patch_17">
    <path d="M 153.617787 279.438594 
C 162.759372 281.01089 172.045088 281.582748 181.31052 281.144043 
C 190.575953 280.705339 199.766094 279.258676 208.718224 276.82967 
L 175.269283 153.553225 
z
" style="fill: #c7c7c7"/>
   </g>
   <g id="patch_18">
    <path d="M 208.940046 276.769482 
C 217.892176 274.340476 226.553146 270.943547 234.769605 266.638841 
C 242.986065 262.334135 250.709233 257.147209 257.802365 251.169903 
L 175.491105 153.493037 
z
" style="fill: #dbdb8d"/>
   </g>
   <g id="patch_19">
    <path d="M 257.981164 251.017778 
C 265.383338 244.780044 272.052517 237.721046 277.860162 229.976836 
C 283.667806 222.232626 288.576364 213.853278 292.491229 205.000293 
L 175.669904 153.340913 
z
" style="fill: #bcbd22"/>
   </g>
   <g id="patch_20">
    <path d="M 292.561827 204.872962 
C 293.376588 203.030481 294.147646 201.168983 294.874353 199.29003 
C 295.601061 197.411076 296.283215 195.515194 296.920244 193.603973 
L 175.740503 153.213582 
z
" style="fill: #17becf"/>
   </g>
   <g id="patch_21">
    <path d="M 296.949205 193.497235 
C 299.116168 186.995887 300.756421 180.330682 301.854074 173.566185 
C 302.951727 166.801689 303.503224 159.959815 303.503224 153.106841 
L 175.769464 153.106844 
z
" style="fill: #9edae5"/>
   </g>
   <g id="patch_22">
    <path d="M 249.755472 153.021596 
C 249.755472 148.317603 249.310018 143.624161 248.42508 139.004157 
C 247.540142 134.384152 246.219689 129.858312 244.481414 125.487277 
L 175.244112 153.021596 
z
" style="fill: #ffffff"/>
   </g>
   <g id="patch_23">
    <path d="M 244.481414 125.487277 
C 243.612761 123.30298 242.64123 121.161012 241.570081 119.068562 
C 240.498931 116.976112 239.329362 114.935522 238.065299 112.95364 
L 175.244112 153.021596 
z
" style="fill: #ffffff"/>
   </g>
   <g id="patch_24">
    <path d="M 238.065299 112.95364 
C 236.927683 111.17001 235.714621 109.435638 234.42941 107.755239 
C 233.1442 106.074839 231.788007 104.449937 230.364519 102.884949 
L 175.244112 153.021596 
z
" style="fill: #ffffff"/>
   </g>
   <g id="patch_25">
    <path d="M 230.364519 102.884949 
C 229.099236 101.493892 227.781748 100.151231 226.414885 98.85985 
C 225.048022 97.56847 223.632763 96.329294 222.172149 95.144986 
L 175.244112 153.021596 
z
" style="fill: #ffffff"/>
   </g>
   <g id="patch_26">
    <path d="M 222.172149 95.144986 
C 217.969246 91.73715 213.407613 88.797242 208.568016 86.377316 
C 203.728419 83.957389 198.639592 82.071812 193.391638 80.753968 
L 175.244112 153.021596 
z
" style="fill: #ffffff"/>
   </g>
   <g id="patch_27">
    <path d="M 193.391638 80.753968 
C 190.655536 80.066891 187.882622 79.535753 185.08629 79.163122 
C 182.289958 78.79049 179.474719 78.576966 176.654174 78.52358 
L 175.244112 153.021596 
z
" style="fill: #ffffff"/>
   </g>
   <g id="patch_28">
    <path d="M 176.654174 78.52358 
C 175.479207 78.501341 174.303879 78.506901 173.129176 78.540258 
C 171.954472 78.573614 170.780722 78.634756 169.608911 78.723634 
L 175.244112 153.021596 
z
" style="fill: #ffffff"/>
   </g>
   <g id="patch_29">
    <path d="M 169.608911 78.723634 
C 162.566588 79.257765 155.635841 80.790453 149.024978 83.27563 
C 142.414116 85.760807 136.19004 89.173324 130.539821 93.410614 
L 175.244112 153.021596 
z
" style="fill: #ffffff"/>
   </g>
   <g id="patch_30">
    <path d="M 130.539821 93.410614 
C 127.153317 95.950268 123.989381 98.773891 121.082366 101.850823 
C 118.175351 104.927755 115.535817 108.246821 113.192423 111.771981 
L 175.244112 153.021596 
z
" style="fill: #ffffff"/>
   </g>
   <g id="patch_31">
    <path d="M 113.192423 111.771981 
C 107.57847 120.217036 103.747182 129.719937 101.933779 139.697261 
C 100.120376 149.674585 100.362742 159.917882 102.646 169.798275 
L 175.244112 153.021596 
z
" style="fill: #ffffff"/>
   </g>
   <g id="patch_32">
    <path d="M 102.646 169.798275 
C 103.44009 173.234561 104.477154 176.610135 105.749367 179.899529 
C 107.02158 183.188923 108.525735 186.383844 110.250482 189.460187 
L 175.244112 153.021596 
z
" style="fill: #ffffff"/>
   </g>
   <g id="patch_33">
    <path d="M 110.250482 189.460187 
C 111.515052 191.715735 112.89618 193.903926 114.388259 196.015875 
C 115.880338 198.127825 117.481347 200.160672 119.184784 202.106162 
L 175.244112 153.021596 
z
" style="fill: #ffffff"/>
   </g>
   <g id="patch_34">
    <path d="M 119.184784 202.106162 
C 121.818193 205.11377 124.689376 207.904582 127.77052 210.451562 
C 130.851664 212.998541 134.132787 215.293438 137.582104 217.314022 
L 175.244112 153.021596 
z
" style="fill: #ffffff"/>
   </g>
   <g id="patch_35">
    <path d="M 137.582104 217.314022 
C 138.798937 218.026833 140.03576 218.704955 141.291081 219.347568 
C 142.546401 219.990181 143.819712 220.597026 145.109475 221.16737 
L 175.244112 153.021596 
z
" style="fill: #ffffff"/>
   </g>
   <g id="patch_36">
    <path d="M 145.109475 221.16737 
C 147.904654 222.403422 150.773237 223.466326 153.698963 224.350057 
C 156.624689 225.233789 159.602018 225.936674 162.614072 226.454728 
L 175.244112 153.021596 
z
" style="fill: #ffffff"/>
   </g>
   <g id="patch_37">
    <path d="M 162.614072 226.454728 
C 167.946663 227.371901 173.363331 227.705485 178.768166 227.449574 
C 184.173002 227.193663 189.533918 226.349776 194.755993 224.932856 
L 175.244112 153.021596 
z
" style="fill: #ffffff"/>
   </g>
   <g id="patch_38">
    <path d="M 194.755993 224.932856 
C 199.978069 223.515936 205.030302 221.534394 209.823237 219.023315 
C 214.616171 216.512237 219.121353 213.48653 223.259013 209.999768 
L 175.244112 153.021596 
z
" style="fill: #ffffff"/>
   </g>
   <g id="patch_39">
    <path d="M 223.259013 209.999768 
C 227.576948 206.36109 231.467303 202.243341 234.855095 197.725885 
C 238.242888 193.208429 241.106213 188.320476 243.389884 183.156235 
L 175.244112 153.021596 
z
" style="fill: #ffffff"/>
   </g>
   <g id="patch_40">
    <path d="M 243.389884 183.156235 
C 243.865161 182.081454 244.314945 180.99558 244.738858 179.899524 
C 245.162771 178.803468 245.560694 177.697537 245.932294 176.582658 
L 175.244112 153.021596 
z
" style="fill: #ffffff"/>
   </g>
   <g id="patch_41">
    <path d="M 245.932294 176.582658 
C 247.196356 172.790205 248.15317 168.902169 248.793467 164.956212 
C 249.433765 161.010256 249.755472 157.019163 249.755472 153.021595 
L 175.244112 153.021596 
z
" style="fill: #ffffff"/>
   </g>
   <g id="matplotlib.axis_1"/>
   <g id="matplotlib.axis_2"/>
   <g id="text_1">
    <!-- A [20] -->
    <g transform="translate(313.76523 129.247961) scale(0.1 -0.1)">
     <defs>
      <path id="DejaVuSans-41" d="M 2188 4044 
L 1331 1722 
L 3047 1722 
L 2188 4044 
z
M 1831 4666 
L 2547 4666 
L 4325 0 
L 3669 0 
L 3244 1197 
L 1141 1197 
L 716 0 
L 50 0 
L 1831 4666 
z
" transform="scale(0.015625)"/>
      <path id="DejaVuSans-20" transform="scale(0.015625)"/>
      <path id="DejaVuSans-5b" d="M 550 4863 
L 1875 4863 
L 1875 4416 
L 1125 4416 
L 1125 -397 
L 1875 -397 
L 1875 -844 
L 550 -844 
L 550 4863 
z
" transform="scale(0.015625)"/>
      <path id="DejaVuSans-32" d="M 1228 531 
L 3431 531 
L 3431 0 
L 469 0 
L 469 531 
Q 828 903 1448 1529 
Q 2069 2156 2228 2338 
Q 2531 2678 2651 2914 
Q 2772 3150 2772 3378 
Q 2772 3750 2511 3984 
Q 2250 4219 1831 4219 
Q 1534 4219 1204 4116 
Q 875 4013 500 3803 
L 500 4441 
Q 881 4594 1212 4672 
Q 1544 4750 1819 4750 
Q 2544 4750 2975 4387 
Q 3406 4025 3406 3419 
Q 3406 3131 3298 2873 
Q 3191 2616 2906 2266 
Q 2828 2175 2409 1742 
Q 1991 1309 1228 531 
z
" transform="scale(0.015625)"/>
      <path id="DejaVuSans-30" d="M 2034 4250 
Q 1547 4250 1301 3770 
Q 1056 3291 1056 2328 
Q 1056 1369 1301 889 
Q 1547 409 2034 409 
Q 2525 409 2770 889 
Q 3016 1369 3016 2328 
Q 3016 3291 2770 3770 
Q 2525 4250 2034 4250 
z
M 2034 4750 
Q 2819 4750 3233 4129 
Q 3647 3509 3647 2328 
Q 3647 1150 3233 529 
Q 2819 -91 2034 -91 
Q 1250 -91 836 529 
Q 422 1150 422 2328 
Q 422 3509 836 4129 
Q 1250 4750 2034 4750 
z
" transform="scale(0.015625)"/>
      <path id="DejaVuSans-5d" d="M 1947 4863 
L 1947 -844 
L 622 -844 
L 622 -397 
L 1369 -397 
L 1369 4416 
L 622 4416 
L 622 4863 
L 1947 4863 
z
" transform="scale(0.015625)"/>
     </defs>
     <use xlink:href="#DejaVuSans-41"/>
     <use xlink:href="#DejaVuSans-20" x="68.408203"/>
     <use xlink:href="#DejaVuSans-5b" x="100.195312"/>
     <use xlink:href="#DejaVuSans-32" x="139.208984"/>
     <use xlink:href="#DejaVuSans-30" x="202.832031"/>
     <use xlink:href="#DejaVuSans-5d" x="266.455078"/>
    </g>
   </g>
   <g id="text_2">
    <!-- C [10] -->
    <g transform="translate(300.789696 91.512727) scale(0.1 -0.1)">
     <defs>
      <path id="DejaVuSans-43" d="M 4122 4306 
L 4122 3641 
Q 3803 3938 3442 4084 
Q 3081 4231 2675 4231 
Q 1875 4231 1450 3742 
Q 1025 3253 1025 2328 
Q 1025 1406 1450 917 
Q 1875 428 2675 428 
Q 3081 428 3442 575 
Q 3803 722 4122 1019 
L 4122 359 
Q 3791 134 3420 21 
Q 3050 -91 2638 -91 
Q 1578 -91 968 557 
Q 359 1206 359 2328 
Q 359 3453 968 4101 
Q 1578 4750 2638 4750 
Q 3056 4750 3426 4639 
Q 3797 4528 4122 4306 
z
" transform="scale(0.015625)"/>
      <path id="DejaVuSans-31" d="M 794 531 
L 1825 531 
L 1825 4091 
L 703 3866 
L 703 4441 
L 1819 4666 
L 2450 4666 
L 2450 531 
L 3481 531 
L 3481 0 
L 794 0 
L 794 531 
z
" transform="scale(0.015625)"/>
     </defs>
     <use xlink:href="#DejaVuSans-43"/>
     <use xlink:href="#DejaVuSans-20" x="69.824219"/>
     <use xlink:href="#DejaVuSans-5b" x="101.611328"/>
     <use xlink:href="#DejaVuSans-31" x="140.625"/>
     <use xlink:href="#DejaVuSans-30" x="204.248047"/>
     <use xlink:href="#DejaVuSans-5d" x="267.871094"/>
    </g>
   </g>
   <g id="text_3">
    <!-- D [9] -->
    <g transform="translate(287.273427 70.098223) scale(0.1 -0.1)">
     <defs>
      <path id="DejaVuSans-44" d="M 1259 4147 
L 1259 519 
L 2022 519 
Q 2988 519 3436 956 
Q 3884 1394 3884 2338 
Q 3884 3275 3436 3711 
Q 2988 4147 2022 4147 
L 1259 4147 
z
M 628 4666 
L 1925 4666 
Q 3281 4666 3915 4102 
Q 4550 3538 4550 2338 
Q 4550 1131 3912 565 
Q 3275 0 1925 0 
L 628 0 
L 628 4666 
z
" transform="scale(0.015625)"/>
      <path id="DejaVuSans-39" d="M 703 97 
L 703 672 
Q 941 559 1184 500 
Q 1428 441 1663 441 
Q 2288 441 2617 861 
Q 2947 1281 2994 2138 
Q 2813 1869 2534 1725 
Q 2256 1581 1919 1581 
Q 1219 1581 811 2004 
Q 403 2428 403 3163 
Q 403 3881 828 4315 
Q 1253 4750 1959 4750 
Q 2769 4750 3195 4129 
Q 3622 3509 3622 2328 
Q 3622 1225 3098 567 
Q 2575 -91 1691 -91 
Q 1453 -91 1209 -44 
Q 966 3 703 97 
z
M 1959 2075 
Q 2384 2075 2632 2365 
Q 2881 2656 2881 3163 
Q 2881 3666 2632 3958 
Q 2384 4250 1959 4250 
Q 1534 4250 1286 3958 
Q 1038 3666 1038 3163 
Q 1038 2656 1286 2365 
Q 1534 2075 1959 2075 
z
" transform="scale(0.015625)"/>
     </defs>
     <use xlink:href="#DejaVuSans-44"/>
     <use xlink:href="#DejaVuSans-20" x="77.001953"/>
     <use xlink:href="#DejaVuSans-5b" x="108.789062"/>
     <use xlink:href="#DejaVuSans-39" x="147.802734"/>
     <use xlink:href="#DejaVuSans-5d" x="211.425781"/>
    </g>
   </g>
   <g id="text_4">
    <!-- E [8] -->
    <g transform="translate(272.103075 53.260524) scale(0.1 -0.1)">
     <defs>
      <path id="DejaVuSans-45" d="M 628 4666 
L 3578 4666 
L 3578 4134 
L 1259 4134 
L 1259 2753 
L 3481 2753 
L 3481 2222 
L 1259 2222 
L 1259 531 
L 3634 531 
L 3634 0 
L 628 0 
L 628 4666 
z
" transform="scale(0.015625)"/>
      <path id="DejaVuSans-38" d="M 2034 2216 
Q 1584 2216 1326 1975 
Q 1069 1734 1069 1313 
Q 1069 891 1326 650 
Q 1584 409 2034 409 
Q 2484 409 2743 651 
Q 3003 894 3003 1313 
Q 3003 1734 2745 1975 
Q 2488 2216 2034 2216 
z
M 1403 2484 
Q 997 2584 770 2862 
Q 544 3141 544 3541 
Q 544 4100 942 4425 
Q 1341 4750 2034 4750 
Q 2731 4750 3128 4425 
Q 3525 4100 3525 3541 
Q 3525 3141 3298 2862 
Q 3072 2584 2669 2484 
Q 3125 2378 3379 2068 
Q 3634 1759 3634 1313 
Q 3634 634 3220 271 
Q 2806 -91 2034 -91 
Q 1263 -91 848 271 
Q 434 634 434 1313 
Q 434 1759 690 2068 
Q 947 2378 1403 2484 
z
M 1172 3481 
Q 1172 3119 1398 2916 
Q 1625 2713 2034 2713 
Q 2441 2713 2670 2916 
Q 2900 3119 2900 3481 
Q 2900 3844 2670 4047 
Q 2441 4250 2034 4250 
Q 1625 4250 1398 4047 
Q 1172 3844 1172 3481 
z
" transform="scale(0.015625)"/>
     </defs>
     <use xlink:href="#DejaVuSans-45"/>
     <use xlink:href="#DejaVuSans-20" x="63.183594"/>
     <use xlink:href="#DejaVuSans-5b" x="94.970703"/>
     <use xlink:href="#DejaVuSans-38" x="133.984375"/>
     <use xlink:href="#DejaVuSans-5d" x="197.607422"/>
    </g>
   </g>
   <g id="text_5">
    <!-- F [23] -->
    <g transform="translate(238.321502 29.632869) scale(0.1 -0.1)">
     <defs>
      <path id="DejaVuSans-46" d="M 628 4666 
L 3309 4666 
L 3309 4134 
L 1259 4134 
L 1259 2759 
L 3109 2759 
L 3109 2228 
L 1259 2228 
L 1259 0 
L 628 0 
L 628 4666 
z
" transform="scale(0.015625)"/>
      <path id="DejaVuSans-33" d="M 2597 2516 
Q 3050 2419 3304 2112 
Q 3559 1806 3559 1356 
Q 3559 666 3084 287 
Q 2609 -91 1734 -91 
Q 1441 -91 1130 -33 
Q 819 25 488 141 
L 488 750 
Q 750 597 1062 519 
Q 1375 441 1716 441 
Q 2309 441 2620 675 
Q 2931 909 2931 1356 
Q 2931 1769 2642 2001 
Q 2353 2234 1838 2234 
L 1294 2234 
L 1294 2753 
L 1863 2753 
Q 2328 2753 2575 2939 
Q 2822 3125 2822 3475 
Q 2822 3834 2567 4026 
Q 2313 4219 1838 4219 
Q 1578 4219 1281 4162 
Q 984 4106 628 3988 
L 628 4550 
Q 988 4650 1302 4700 
Q 1616 4750 1894 4750 
Q 2613 4750 3031 4423 
Q 3450 4097 3450 3541 
Q 3450 3153 3228 2886 
Q 3006 2619 2597 2516 
z
" transform="scale(0.015625)"/>
     </defs>
     <use xlink:href="#DejaVuSans-46"/>
     <use xlink:href="#DejaVuSans-20" x="57.519531"/>
     <use xlink:href="#DejaVuSans-5b" x="89.306641"/>
     <use xlink:href="#DejaVuSans-32" x="128.320312"/>
     <use xlink:href="#DejaVuSans-33" x="191.943359"/>
     <use xlink:href="#DejaVuSans-5d" x="255.566406"/>
    </g>
   </g>
   <g id="text_6">
    <!-- G [12] -->
    <g transform="translate(193.873949 15.97743) scale(0.1 -0.1)">
     <defs>
      <path id="DejaVuSans-47" d="M 3809 666 
L 3809 1919 
L 2778 1919 
L 2778 2438 
L 4434 2438 
L 4434 434 
Q 4069 175 3628 42 
Q 3188 -91 2688 -91 
Q 1594 -91 976 548 
Q 359 1188 359 2328 
Q 359 3472 976 4111 
Q 1594 4750 2688 4750 
Q 3144 4750 3555 4637 
Q 3966 4525 4313 4306 
L 4313 3634 
Q 3963 3931 3569 4081 
Q 3175 4231 2741 4231 
Q 1884 4231 1454 3753 
Q 1025 3275 1025 2328 
Q 1025 1384 1454 906 
Q 1884 428 2741 428 
Q 3075 428 3337 486 
Q 3600 544 3809 666 
z
" transform="scale(0.015625)"/>
     </defs>
     <use xlink:href="#DejaVuSans-47"/>
     <use xlink:href="#DejaVuSans-20" x="77.490234"/>
     <use xlink:href="#DejaVuSans-5b" x="109.277344"/>
     <use xlink:href="#DejaVuSans-31" x="148.291016"/>
     <use xlink:href="#DejaVuSans-32" x="211.914062"/>
     <use xlink:href="#DejaVuSans-5d" x="275.537109"/>
    </g>
   </g>
   <g id="text_7">
    <!-- H [5] -->
    <g transform="translate(146.376777 14.798437) scale(0.1 -0.1)">
     <defs>
      <path id="DejaVuSans-48" d="M 628 4666 
L 1259 4666 
L 1259 2753 
L 3553 2753 
L 3553 4666 
L 4184 4666 
L 4184 0 
L 3553 0 
L 3553 2222 
L 1259 2222 
L 1259 0 
L 628 0 
L 628 4666 
z
" transform="scale(0.015625)"/>
      <path id="DejaVuSans-35" d="M 691 4666 
L 3169 4666 
L 3169 4134 
L 1269 4134 
L 1269 2991 
Q 1406 3038 1543 3061 
Q 1681 3084 1819 3084 
Q 2600 3084 3056 2656 
Q 3513 2228 3513 1497 
Q 3513 744 3044 326 
Q 2575 -91 1722 -91 
Q 1428 -91 1123 -41 
Q 819 9 494 109 
L 494 744 
Q 775 591 1075 516 
Q 1375 441 1709 441 
Q 2250 441 2565 725 
Q 2881 1009 2881 1497 
Q 2881 1984 2565 2268 
Q 2250 2553 1709 2553 
Q 1456 2553 1204 2497 
Q 953 2441 691 2322 
L 691 4666 
z
" transform="scale(0.015625)"/>
     </defs>
     <use xlink:href="#DejaVuSans-48"/>
     <use xlink:href="#DejaVuSans-20" x="75.195312"/>
     <use xlink:href="#DejaVuSans-5b" x="106.982422"/>
     <use xlink:href="#DejaVuSans-35" x="145.996094"/>
     <use xlink:href="#DejaVuSans-5d" x="209.619141"/>
    </g>
   </g>
   <g id="text_8">
    <!-- I [30] -->
    <g transform="translate(98.958788 23.761821) scale(0.1 -0.1)">
     <defs>
      <path id="DejaVuSans-49" d="M 628 4666 
L 1259 4666 
L 1259 0 
L 628 0 
L 628 4666 
z
" transform="scale(0.015625)"/>
     </defs>
     <use xlink:href="#DejaVuSans-49"/>
     <use xlink:href="#DejaVuSans-20" x="29.492188"/>
     <use xlink:href="#DejaVuSans-5b" x="61.279297"/>
     <use xlink:href="#DejaVuSans-33" x="100.292969"/>
     <use xlink:href="#DejaVuSans-30" x="163.916016"/>
     <use xlink:href="#DejaVuSans-5d" x="227.539062"/>
    </g>
   </g>
   <g id="text_9">
    <!-- K [18] -->
    <g transform="translate(42.459602 58.922007) scale(0.1 -0.1)">
     <defs>
      <path id="DejaVuSans-4b" d="M 628 4666 
L 1259 4666 
L 1259 2694 
L 3353 4666 
L 4166 4666 
L 1850 2491 
L 4331 0 
L 3500 0 
L 1259 2247 
L 1259 0 
L 628 0 
L 628 4666 
z
" transform="scale(0.015625)"/>
     </defs>
     <use xlink:href="#DejaVuSans-4b"/>
     <use xlink:href="#DejaVuSans-20" x="65.576172"/>
     <use xlink:href="#DejaVuSans-5b" x="97.363281"/>
     <use xlink:href="#DejaVuSans-31" x="136.376953"/>
     <use xlink:href="#DejaVuSans-38" x="200"/>
     <use xlink:href="#DejaVuSans-5d" x="263.623047"/>
    </g>
   </g>
   <g id="text_10">
    <!-- L [43] -->
    <g transform="translate(7.2 130.559908) scale(0.1 -0.1)">
     <defs>
      <path id="DejaVuSans-4c" d="M 628 4666 
L 1259 4666 
L 1259 531 
L 3531 531 
L 3531 0 
L 628 0 
L 628 4666 
z
" transform="scale(0.015625)"/>
      <path id="DejaVuSans-34" d="M 2419 4116 
L 825 1625 
L 2419 1625 
L 2419 4116 
z
M 2253 4666 
L 3047 4666 
L 3047 1625 
L 3713 1625 
L 3713 1100 
L 3047 1100 
L 3047 0 
L 2419 0 
L 2419 1100 
L 313 1100 
L 313 1709 
L 2253 4666 
z
" transform="scale(0.015625)"/>
     </defs>
     <use xlink:href="#DejaVuSans-4c"/>
     <use xlink:href="#DejaVuSans-20" x="55.712891"/>
     <use xlink:href="#DejaVuSans-5b" x="87.5"/>
     <use xlink:href="#DejaVuSans-34" x="126.513672"/>
     <use xlink:href="#DejaVuSans-33" x="190.136719"/>
     <use xlink:href="#DejaVuSans-5d" x="253.759766"/>
    </g>
   </g>
   <g id="text_11">
    <!-- M [15] -->
    <g transform="translate(11.366113 206.657058) scale(0.1 -0.1)">
     <defs>
      <path id="DejaVuSans-4d" d="M 628 4666 
L 1569 4666 
L 2759 1491 
L 3956 4666 
L 4897 4666 
L 4897 0 
L 4281 0 
L 4281 4097 
L 3078 897 
L 2444 897 
L 1241 4097 
L 1241 0 
L 628 0 
L 628 4666 
z
" transform="scale(0.015625)"/>
     </defs>
     <use xlink:href="#DejaVuSans-4d"/>
     <use xlink:href="#DejaVuSans-20" x="86.279297"/>
     <use xlink:href="#DejaVuSans-5b" x="118.066406"/>
     <use xlink:href="#DejaVuSans-31" x="157.080078"/>
     <use xlink:href="#DejaVuSans-35" x="220.703125"/>
     <use xlink:href="#DejaVuSans-5d" x="284.326172"/>
    </g>
   </g>
   <g id="text_12">
    <!-- N [11] -->
    <g transform="translate(28.865177 237.162999) scale(0.1 -0.1)">
     <defs>
      <path id="DejaVuSans-4e" d="M 628 4666 
L 1478 4666 
L 3547 763 
L 3547 4666 
L 4159 4666 
L 4159 0 
L 3309 0 
L 1241 3903 
L 1241 0 
L 628 0 
L 628 4666 
z
" transform="scale(0.015625)"/>
     </defs>
     <use xlink:href="#DejaVuSans-4e"/>
     <use xlink:href="#DejaVuSans-20" x="74.804688"/>
     <use xlink:href="#DejaVuSans-5b" x="106.591797"/>
     <use xlink:href="#DejaVuSans-31" x="145.605469"/>
     <use xlink:href="#DejaVuSans-31" x="209.228516"/>
     <use xlink:href="#DejaVuSans-5d" x="272.851562"/>
    </g>
   </g>
   <g id="text_13">
    <!-- P [17] -->
    <g transform="translate(55.647447 264.487691) scale(0.1 -0.1)">
     <defs>
      <path id="DejaVuSans-50" d="M 1259 4147 
L 1259 2394 
L 2053 2394 
Q 2494 2394 2734 2622 
Q 2975 2850 2975 3272 
Q 2975 3691 2734 3919 
Q 2494 4147 2053 4147 
L 1259 4147 
z
M 628 4666 
L 2053 4666 
Q 2838 4666 3239 4311 
Q 3641 3956 3641 3272 
Q 3641 2581 3239 2228 
Q 2838 1875 2053 1875 
L 1259 1875 
L 1259 0 
L 628 0 
L 628 4666 
z
" transform="scale(0.015625)"/>
      <path id="DejaVuSans-37" d="M 525 4666 
L 3525 4666 
L 3525 4397 
L 1831 0 
L 1172 0 
L 2766 4134 
L 525 4134 
L 525 4666 
z
" transform="scale(0.015625)"/>
     </defs>
     <use xlink:href="#DejaVuSans-50"/>
     <use xlink:href="#DejaVuSans-20" x="60.302734"/>
     <use xlink:href="#DejaVuSans-5b" x="92.089844"/>
     <use xlink:href="#DejaVuSans-31" x="131.103516"/>
     <use xlink:href="#DejaVuSans-37" x="194.726562"/>
     <use xlink:href="#DejaVuSans-5d" x="258.349609"/>
    </g>
   </g>
   <g id="text_14">
    <!-- Q [6] -->
    <g transform="translate(85.76025 281.32656) scale(0.1 -0.1)">
     <defs>
      <path id="DejaVuSans-51" d="M 2522 4238 
Q 1834 4238 1429 3725 
Q 1025 3213 1025 2328 
Q 1025 1447 1429 934 
Q 1834 422 2522 422 
Q 3209 422 3611 934 
Q 4013 1447 4013 2328 
Q 4013 3213 3611 3725 
Q 3209 4238 2522 4238 
z
M 3406 84 
L 4238 -825 
L 3475 -825 
L 2784 -78 
Q 2681 -84 2626 -87 
Q 2572 -91 2522 -91 
Q 1538 -91 948 567 
Q 359 1225 359 2328 
Q 359 3434 948 4092 
Q 1538 4750 2522 4750 
Q 3503 4750 4090 4092 
Q 4678 3434 4678 2328 
Q 4678 1516 4351 937 
Q 4025 359 3406 84 
z
" transform="scale(0.015625)"/>
      <path id="DejaVuSans-36" d="M 2113 2584 
Q 1688 2584 1439 2293 
Q 1191 2003 1191 1497 
Q 1191 994 1439 701 
Q 1688 409 2113 409 
Q 2538 409 2786 701 
Q 3034 994 3034 1497 
Q 3034 2003 2786 2293 
Q 2538 2584 2113 2584 
z
M 3366 4563 
L 3366 3988 
Q 3128 4100 2886 4159 
Q 2644 4219 2406 4219 
Q 1781 4219 1451 3797 
Q 1122 3375 1075 2522 
Q 1259 2794 1537 2939 
Q 1816 3084 2150 3084 
Q 2853 3084 3261 2657 
Q 3669 2231 3669 1497 
Q 3669 778 3244 343 
Q 2819 -91 2113 -91 
Q 1303 -91 875 529 
Q 447 1150 447 2328 
Q 447 3434 972 4092 
Q 1497 4750 2381 4750 
Q 2619 4750 2861 4703 
Q 3103 4656 3366 4563 
z
" transform="scale(0.015625)"/>
     </defs>
     <use xlink:href="#DejaVuSans-51"/>
     <use xlink:href="#DejaVuSans-20" x="78.710938"/>
     <use xlink:href="#DejaVuSans-5b" x="110.498047"/>
     <use xlink:href="#DejaVuSans-36" x="149.511719"/>
     <use xlink:href="#DejaVuSans-5d" x="213.134766"/>
    </g>
   </g>
   <g id="text_15">
    <!-- R [13] -->
    <g transform="translate(103.807536 290.795558) scale(0.1 -0.1)">
     <defs>
      <path id="DejaVuSans-52" d="M 2841 2188 
Q 3044 2119 3236 1894 
Q 3428 1669 3622 1275 
L 4263 0 
L 3584 0 
L 2988 1197 
Q 2756 1666 2539 1819 
Q 2322 1972 1947 1972 
L 1259 1972 
L 1259 0 
L 628 0 
L 628 4666 
L 2053 4666 
Q 2853 4666 3247 4331 
Q 3641 3997 3641 3322 
Q 3641 2881 3436 2590 
Q 3231 2300 2841 2188 
z
M 1259 4147 
L 1259 2491 
L 2053 2491 
Q 2509 2491 2742 2702 
Q 2975 2913 2975 3322 
Q 2975 3731 2742 3939 
Q 2509 4147 2053 4147 
L 1259 4147 
z
" transform="scale(0.015625)"/>
     </defs>
     <use xlink:href="#DejaVuSans-52"/>
     <use xlink:href="#DejaVuSans-20" x="69.482422"/>
     <use xlink:href="#DejaVuSans-5b" x="101.269531"/>
     <use xlink:href="#DejaVuSans-31" x="140.283203"/>
     <use xlink:href="#DejaVuSans-33" x="203.90625"/>
     <use xlink:href="#DejaVuSans-5d" x="267.529297"/>
    </g>
   </g>
   <g id="text_16">
    <!-- S [23] -->
    <g transform="translate(181.914644 296.6625) scale(0.1 -0.1)">
     <defs>
      <path id="DejaVuSans-53" d="M 3425 4513 
L 3425 3897 
Q 3066 4069 2747 4153 
Q 2428 4238 2131 4238 
Q 1616 4238 1336 4038 
Q 1056 3838 1056 3469 
Q 1056 3159 1242 3001 
Q 1428 2844 1947 2747 
L 2328 2669 
Q 3034 2534 3370 2195 
Q 3706 1856 3706 1288 
Q 3706 609 3251 259 
Q 2797 -91 1919 -91 
Q 1588 -91 1214 -16 
Q 841 59 441 206 
L 441 856 
Q 825 641 1194 531 
Q 1563 422 1919 422 
Q 2459 422 2753 634 
Q 3047 847 3047 1241 
Q 3047 1584 2836 1778 
Q 2625 1972 2144 2069 
L 1759 2144 
Q 1053 2284 737 2584 
Q 422 2884 422 3419 
Q 422 4038 858 4394 
Q 1294 4750 2059 4750 
Q 2388 4750 2728 4690 
Q 3069 4631 3425 4513 
z
" transform="scale(0.015625)"/>
     </defs>
     <use xlink:href="#DejaVuSans-53"/>
     <use xlink:href="#DejaVuSans-20" x="63.476562"/>
     <use xlink:href="#DejaVuSans-5b" x="95.263672"/>
     <use xlink:href="#DejaVuSans-32" x="134.277344"/>
     <use xlink:href="#DejaVuSans-33" x="197.900391"/>
     <use xlink:href="#DejaVuSans-5d" x="261.523438"/>
    </g>
   </g>
   <g id="text_17">
    <!-- T [23] -->
    <g transform="translate(240.697455 280.712796) scale(0.1 -0.1)">
     <defs>
      <path id="DejaVuSans-54" d="M -19 4666 
L 3928 4666 
L 3928 4134 
L 2272 4134 
L 2272 0 
L 1638 0 
L 1638 4134 
L -19 4134 
L -19 4666 
z
" transform="scale(0.015625)"/>
     </defs>
     <use xlink:href="#DejaVuSans-54"/>
     <use xlink:href="#DejaVuSans-20" x="61.083984"/>
     <use xlink:href="#DejaVuSans-5b" x="92.871094"/>
     <use xlink:href="#DejaVuSans-32" x="131.884766"/>
     <use xlink:href="#DejaVuSans-33" x="195.507812"/>
     <use xlink:href="#DejaVuSans-5d" x="259.130859"/>
    </g>
   </g>
   <g id="text_18">
    <!-- V [24] -->
    <g transform="translate(288.079188 240.399803) scale(0.1 -0.1)">
     <defs>
      <path id="DejaVuSans-56" d="M 1831 0 
L 50 4666 
L 709 4666 
L 2188 738 
L 3669 4666 
L 4325 4666 
L 2547 0 
L 1831 0 
z
" transform="scale(0.015625)"/>
     </defs>
     <use xlink:href="#DejaVuSans-56"/>
     <use xlink:href="#DejaVuSans-20" x="68.408203"/>
     <use xlink:href="#DejaVuSans-5b" x="100.195312"/>
     <use xlink:href="#DejaVuSans-32" x="139.208984"/>
     <use xlink:href="#DejaVuSans-34" x="202.832031"/>
     <use xlink:href="#DejaVuSans-5d" x="266.455078"/>
    </g>
   </g>
   <g id="text_19">
    <!-- W [5] -->
    <g transform="translate(306.787738 206.657049) scale(0.1 -0.1)">
     <defs>
      <path id="DejaVuSans-57" d="M 213 4666 
L 850 4666 
L 1831 722 
L 2809 4666 
L 3519 4666 
L 4500 722 
L 5478 4666 
L 6119 4666 
L 4947 0 
L 4153 0 
L 3169 4050 
L 2175 0 
L 1381 0 
L 213 4666 
z
" transform="scale(0.015625)"/>
     </defs>
     <use xlink:href="#DejaVuSans-57"/>
     <use xlink:href="#DejaVuSans-20" x="98.876953"/>
     <use xlink:href="#DejaVuSans-5b" x="130.664062"/>
     <use xlink:href="#DejaVuSans-35" x="169.677734"/>
     <use xlink:href="#DejaVuSans-5d" x="233.300781"/>
    </g>
   </g>
   <g id="text_20">
    <!-- Y [17] -->
    <g transform="translate(314.462535 178.371494) scale(0.1 -0.1)">
     <defs>
      <path id="DejaVuSans-59" d="M -13 4666 
L 666 4666 
L 1959 2747 
L 3244 4666 
L 3922 4666 
L 2272 2222 
L 2272 0 
L 1638 0 
L 1638 2222 
L -13 4666 
z
" transform="scale(0.015625)"/>
     </defs>
     <use xlink:href="#DejaVuSans-59"/>
     <use xlink:href="#DejaVuSans-20" x="61.083984"/>
     <use xlink:href="#DejaVuSans-5b" x="92.871094"/>
     <use xlink:href="#DejaVuSans-31" x="131.884766"/>
     <use xlink:href="#DejaVuSans-37" x="195.507812"/>
     <use xlink:href="#DejaVuSans-5d" x="259.130859"/>
    </g>
   </g>
   <g id="text_21">
    <!-- Q3T0E9 [332] -->
    <g transform="translate(133.571299 153.021596) scale(0.12 -0.12)">
     <use xlink:href="#DejaVuSans-51"/>
     <use xlink:href="#DejaVuSans-33" x="78.710938"/>
     <use xlink:href="#DejaVuSans-54" x="142.333984"/>
     <use xlink:href="#DejaVuSans-30" x="203.417969"/>
     <use xlink:href="#DejaVuSans-45" x="267.041016"/>
     <use xlink:href="#DejaVuSans-39" x="330.224609"/>
     <use xlink:href="#DejaVuSans-20" x="393.847656"/>
     <use xlink:href="#DejaVuSans-5b" x="425.634766"/>
     <use xlink:href="#DejaVuSans-33" x="464.648438"/>
     <use xlink:href="#DejaVuSans-33" x="528.271484"/>
     <use xlink:href="#DejaVuSans-32" x="591.894531"/>
     <use xlink:href="#DejaVuSans-5d" x="655.517578"/>
    </g>
   </g>
  </g>
 </g>
</svg>
