<?xml version="1.0" encoding="utf-8" standalone="no"?>
<!DOCTYPE svg PUBLIC "-//W3C//DTD SVG 1.1//EN"
  "http://www.w3.org/Graphics/SVG/1.1/DTD/svg11.dtd">
<svg xmlns:xlink="http://www.w3.org/1999/xlink" width="353.683698pt" height="304.061269pt" viewBox="0 0 353.683698 304.061269" xmlns="http://www.w3.org/2000/svg" version="1.1">
 <metadata>
  <rdf:RDF xmlns:dc="http://purl.org/dc/elements/1.1/" xmlns:cc="http://creativecommons.org/ns#" xmlns:rdf="http://www.w3.org/1999/02/22-rdf-syntax-ns#">
   <cc:Work>
    <dc:type rdf:resource="http://purl.org/dc/dcmitype/StillImage"/>
    <dc:date>2024-09-27T16:07:14.084257</dc:date>
    <dc:format>image/svg+xml</dc:format>
    <dc:creator>
     <cc:Agent>
      <dc:title>Matplotlib v3.8.3, https://matplotlib.org/</dc:title>
     </cc:Agent>
    </dc:creator>
   </cc:Work>
  </rdf:RDF>
 </metadata>
 <defs>
  <style type="text/css">*{stroke-linejoin: round; stroke-linecap: butt}</style>
 </defs>
 <g id="figure_1">
  <g id="patch_1">
   <path d="M 0 304.061269 
L 353.683698 304.061269 
L 353.683698 0 
L 0 0 
z
" style="fill: #ffffff"/>
  </g>
  <g id="axes_1">
   <g id="patch_2">
    <path d="M 305.110375 152.731611 
C 305.110375 143.355055 304.077917 134.006942 302.031679 124.856383 
C 299.985442 115.705825 296.937838 106.808337 292.944001 98.324878 
L 177.376615 152.731611 
z
" style="fill: #1f77b4"/>
   </g>
   <g id="patch_3">
    <path d="M 292.869558 98.148998 
C 290.31502 92.722809 287.381491 87.483263 284.090749 82.469262 
C 280.800007 77.455261 277.160216 72.679242 273.1984 68.176665 
L 177.302171 152.555731 
z
" style="fill: #ff7f0e"/>
   </g>
   <g id="patch_4">
    <path d="M 273.130613 68.093181 
C 271.397897 66.123961 269.604935 64.20858 267.754278 62.349762 
C 265.903621 60.490944 263.996147 58.689572 262.034569 56.948208 
L 177.234385 152.472247 
z
" style="fill: #aec7e8"/>
   </g>
   <g id="patch_5">
    <path d="M 261.970615 56.893415 
C 258.887779 54.156668 255.674264 51.570763 252.341357 49.14478 
C 249.008449 46.718797 245.560054 44.45558 242.008281 42.363075 
L 177.170431 152.417455 
z
" style="fill: #ffbb78"/>
   </g>
   <g id="patch_6">
    <path d="M 241.885145 42.296252 
C 235.747892 38.680528 229.318929 35.584503 222.665527 33.040573 
C 216.012125 30.496643 209.15757 28.513712 202.173587 27.112528 
L 177.047294 152.350632 
z
" style="fill: #98df8a"/>
   </g>
   <g id="patch_7">
    <path d="M 202.013937 27.078299 
C 196.133683 25.898555 190.177634 25.134413 184.190011 24.791548 
C 178.202387 24.448683 172.198043 24.527945 166.221557 25.028746 
L 176.887645 152.316404 
z
" style="fill: #2ca02c"/>
   </g>
   <g id="patch_8">
    <path d="M 166.100248 25.035692 
C 162.365883 25.348614 158.647097 25.825722 154.954684 26.465632 
C 151.262271 27.105542 147.599806 27.907635 143.97792 28.869581 
L 176.766337 152.323351 
z
" style="fill: #d62728"/>
   </g>
   <g id="patch_9">
    <path d="M 143.806756 28.930745 
C 133.290751 31.723719 123.174576 35.848939 113.704207 41.2061 
C 104.233838 46.56326 95.48666 53.108587 87.675361 60.68293 
L 176.595173 152.384514 
z
" style="fill: #9467bd"/>
   </g>
   <g id="patch_10">
    <path d="M 87.508486 60.831071 
C 82.394688 65.789742 77.704625 71.167496 73.487371 76.908063 
C 69.270117 82.64863 65.540433 88.731917 62.337344 95.094273 
L 176.428298 152.532655 
z
" style="fill: #ff9896"/>
   </g>
   <g id="patch_11">
    <path d="M 62.236533 95.357937 
C 55.140063 109.45379 50.716955 124.743497 49.191703 140.451029 
C 47.666452 156.158561 49.065306 172.013599 53.317266 187.211421 
L 176.327486 152.796319 
z
" style="fill: #c5b0d5"/>
   </g>
   <g id="patch_12">
    <path d="M 53.357788 187.472468 
C 54.872599 192.886869 56.743237 198.195354 58.957495 203.363279 
C 61.171754 208.531205 63.724804 213.547303 66.599985 218.378837 
L 176.368008 153.057366 
z
" style="fill: #c49c94"/>
   </g>
   <g id="patch_13">
    <path d="M 66.683502 218.513722 
C 70.326196 224.635006 74.474551 230.440873 79.085161 235.87057 
C 83.695771 241.300268 88.752498 246.334794 94.20243 250.921467 
L 176.451525 153.192251 
z
" style="fill: #8c564b"/>
   </g>
   <g id="patch_14">
    <path d="M 94.318057 251.023208 
C 98.33273 254.401964 102.551787 257.53013 106.95124 260.389921 
C 111.350693 263.249711 115.922187 265.835695 120.63973 268.133169 
L 176.567152 153.293991 
z
" style="fill: #e377c2"/>
   </g>
   <g id="patch_15">
    <path d="M 120.731001 268.180639 
C 123.426165 269.493202 126.166702 270.710478 128.947518 271.830207 
C 131.728335 272.949936 134.547708 273.971423 137.4004 274.892771 
L 176.658423 153.341461 
z
" style="fill: #7f7f7f"/>
   </g>
   <g id="patch_16">
    <path d="M 137.503703 274.922655 
C 142.853889 276.650631 148.31233 278.023484 153.843403 279.032253 
C 159.374477 280.041023 164.966124 280.683511 170.581852 280.955523 
L 176.761725 153.371345 
z
" style="fill: #f7b6d2"/>
   </g>
   <g id="patch_17">
    <path d="M 170.763608 280.957123 
C 179.753852 281.392589 188.764997 280.876589 197.646767 279.417728 
C 206.528538 277.958867 215.231285 275.5653 223.609879 272.276943 
L 176.943482 153.372944 
z
" style="fill: #c7c7c7"/>
   </g>
   <g id="patch_18">
    <path d="M 223.817597 272.195419 
C 232.196191 268.907063 240.203794 264.742298 247.706869 259.770579 
C 255.209944 254.79886 262.166548 249.047978 268.46067 242.613838 
L 177.1512 153.291421 
z
" style="fill: #dbdb8d"/>
   </g>
   <g id="patch_19">
    <path d="M 268.621642 242.446362 
C 275.44137 235.474923 281.440319 227.745337 286.50114 219.408806 
C 291.561961 211.072275 295.651438 202.183515 298.689575 192.916402 
L 177.312172 153.123945 
z
" style="fill: #bcbd22"/>
   </g>
   <g id="patch_20">
    <path d="M 298.74456 192.792609 
C 299.094738 191.724475 299.430801 190.651765 299.752662 189.574759 
C 300.074522 188.497754 300.382152 187.416546 300.675471 186.33142 
L 177.367158 153.000152 
z
" style="fill: #17becf"/>
   </g>
   <g id="patch_21">
    <path d="M 300.693125 186.249075 
C 302.16023 180.821553 303.26739 175.303084 304.007379 169.729682 
C 304.747368 164.15628 305.118573 158.540097 305.118572 152.917785 
L 177.384812 152.917807 
z
" style="fill: #9edae5"/>
   </g>
   <g id="patch_22">
    <path d="M 251.368578 152.847758 
C 251.368578 147.3781 250.766311 141.925034 249.572673 136.587208 
C 248.379034 131.249383 246.601265 126.059181 244.271527 121.110497 
L 176.857218 152.847758 
z
" style="fill: #ffffff"/>
   </g>
   <g id="patch_23">
    <path d="M 244.271527 121.110497 
C 242.78138 117.94522 241.070155 114.888818 239.150555 111.963984 
C 237.230956 109.03915 235.107745 106.253139 232.796685 103.626636 
L 176.857218 152.847758 
z
" style="fill: #ffffff"/>
   </g>
   <g id="patch_24">
    <path d="M 232.796685 103.626636 
C 231.785934 102.477924 230.740039 101.360618 229.660489 100.276308 
C 228.580939 99.191997 227.468246 98.141197 226.323993 97.125401 
L 176.857218 152.847758 
z
" style="fill: #ffffff"/>
   </g>
   <g id="patch_25">
    <path d="M 226.323993 97.125401 
C 224.525671 95.528966 222.651121 94.020521 220.706925 92.605364 
C 218.762729 91.190207 216.751166 89.869997 214.679298 88.649369 
L 176.857218 152.847758 
z
" style="fill: #ffffff"/>
   </g>
   <g id="patch_26">
    <path d="M 214.679298 88.649369 
C 211.099234 86.540197 207.349005 84.734182 203.467854 83.250223 
C 199.586703 81.766264 195.588213 80.609554 191.514222 79.792197 
L 176.857218 152.847758 
z
" style="fill: #ffffff"/>
   </g>
   <g id="patch_27">
    <path d="M 191.514222 79.792197 
C 188.084074 79.104012 184.609712 78.658263 181.116932 78.458258 
C 177.624151 78.258254 174.121617 78.30449 170.635334 78.596624 
L 176.857218 152.847758 
z
" style="fill: #ffffff"/>
   </g>
   <g id="patch_28">
    <path d="M 170.635334 78.596624 
C 168.456954 78.779161 166.287662 79.057474 164.133754 79.430755 
C 161.979847 79.804036 159.843409 80.271923 157.730642 80.833059 
L 176.857218 152.847758 
z
" style="fill: #ffffff"/>
   </g>
   <g id="patch_29">
    <path d="M 157.730642 80.833059 
C 151.596306 82.462294 145.695204 84.868672 140.170822 87.993682 
C 134.64644 91.118693 129.543919 94.9368 124.987328 99.355167 
L 176.857218 152.847758 
z
" style="fill: #ffffff"/>
   </g>
   <g id="patch_30">
    <path d="M 124.987328 99.355167 
C 122.004279 102.247725 119.268409 105.384748 116.808344 108.733412 
C 114.348279 112.082076 112.17263 115.630661 110.304162 119.342035 
L 176.857218 152.847758 
z
" style="fill: #ffffff"/>
   </g>
   <g id="patch_31">
    <path d="M 110.304162 119.342035 
C 106.164555 127.564616 103.584409 136.483611 102.694679 145.646338 
C 101.804948 154.809065 102.620947 164.057838 105.101257 172.923234 
L 176.857218 152.847758 
z
" style="fill: #ffffff"/>
   </g>
   <g id="patch_32">
    <path d="M 105.101257 172.923234 
C 105.984896 176.081634 107.076102 179.178251 108.367753 182.192874 
C 109.659403 185.207497 111.148683 188.133554 112.825872 190.951949 
L 176.857218 152.847758 
z
" style="fill: #ffffff"/>
   </g>
   <g id="patch_33">
    <path d="M 112.825872 190.951949 
C 114.950777 194.522698 117.37065 197.909454 120.060173 201.076778 
C 122.749695 204.244101 125.699452 207.180908 128.87858 209.856467 
L 176.857218 152.847758 
z
" style="fill: #ffffff"/>
   </g>
   <g id="patch_34">
    <path d="M 128.87858 209.856467 
C 131.220472 211.827409 133.681589 213.652172 136.247936 215.320384 
C 138.814284 216.988595 141.480989 218.497085 144.232889 219.837278 
L 176.857218 152.847758 
z
" style="fill: #ffffff"/>
   </g>
   <g id="patch_35">
    <path d="M 144.232889 219.837278 
C 145.805068 220.60294 147.403714 221.313018 149.025857 221.966193 
C 150.648 222.619368 152.292635 223.215236 153.956705 223.752689 
L 176.857218 152.847758 
z
" style="fill: #ffffff"/>
   </g>
   <g id="patch_36">
    <path d="M 153.956705 223.752689 
C 157.077647 224.760675 160.261738 225.561505 163.488197 226.149954 
C 166.714657 226.738403 169.976451 227.113188 173.252292 227.271862 
L 176.857218 152.847758 
z
" style="fill: #ffffff"/>
   </g>
   <g id="patch_37">
    <path d="M 173.252292 227.271862 
C 178.496601 227.525884 183.753102 227.224884 188.934135 226.373881 
C 194.115167 225.522879 199.19177 224.126632 204.079283 222.208423 
L 176.857218 152.847758 
z
" style="fill: #ffffff"/>
   </g>
   <g id="patch_38">
    <path d="M 204.079283 222.208423 
C 208.966796 220.290215 213.637898 217.860769 218.014692 214.9606 
C 222.391485 212.06043 226.449504 208.705749 230.121075 204.952501 
L 176.857218 152.847758 
z
" style="fill: #ffffff"/>
   </g>
   <g id="patch_39">
    <path d="M 230.121075 204.952501 
C 234.09925 200.885829 237.598637 196.376903 240.550783 191.513927 
C 243.502928 186.650951 245.888457 181.46584 247.660703 176.060024 
L 176.857218 152.847758 
z
" style="fill: #ffffff"/>
   </g>
   <g id="patch_40">
    <path d="M 247.660703 176.060024 
C 247.864974 175.436946 248.06101 174.811199 248.248762 174.182945 
C 248.436514 173.554692 248.615965 172.923988 248.787068 172.290997 
L 176.857218 152.847758 
z
" style="fill: #ffffff"/>
   </g>
   <g id="patch_41">
    <path d="M 248.787068 172.290997 
C 249.642879 169.124943 250.288722 165.905836 250.720382 162.654685 
C 251.152043 159.403534 251.368579 156.127427 251.368578 152.847745 
L 176.857218 152.847758 
z
" style="fill: #ffffff"/>
   </g>
   <g id="matplotlib.axis_1"/>
   <g id="matplotlib.axis_2"/>
   <g id="text_1">
    <!-- A [25] -->
    <g transform="translate(314.497186 124.828236) scale(0.1 -0.1)">
     <defs>
      <path id="DejaVuSans-41" d="M 2188 4044 
L 1331 1722 
L 3047 1722 
L 2188 4044 
z
M 1831 4666 
L 2547 4666 
L 4325 0 
L 3669 0 
L 3244 1197 
L 1141 1197 
L 716 0 
L 50 0 
L 1831 4666 
z
" transform="scale(0.015625)"/>
      <path id="DejaVuSans-20" transform="scale(0.015625)"/>
      <path id="DejaVuSans-5b" d="M 550 4863 
L 1875 4863 
L 1875 4416 
L 1125 4416 
L 1125 -397 
L 1875 -397 
L 1875 -844 
L 550 -844 
L 550 4863 
z
" transform="scale(0.015625)"/>
      <path id="DejaVuSans-32" d="M 1228 531 
L 3431 531 
L 3431 0 
L 469 0 
L 469 531 
Q 828 903 1448 1529 
Q 2069 2156 2228 2338 
Q 2531 2678 2651 2914 
Q 2772 3150 2772 3378 
Q 2772 3750 2511 3984 
Q 2250 4219 1831 4219 
Q 1534 4219 1204 4116 
Q 875 4013 500 3803 
L 500 4441 
Q 881 4594 1212 4672 
Q 1544 4750 1819 4750 
Q 2544 4750 2975 4387 
Q 3406 4025 3406 3419 
Q 3406 3131 3298 2873 
Q 3191 2616 2906 2266 
Q 2828 2175 2409 1742 
Q 1991 1309 1228 531 
z
" transform="scale(0.015625)"/>
      <path id="DejaVuSans-35" d="M 691 4666 
L 3169 4666 
L 3169 4134 
L 1269 4134 
L 1269 2991 
Q 1406 3038 1543 3061 
Q 1681 3084 1819 3084 
Q 2600 3084 3056 2656 
Q 3513 2228 3513 1497 
Q 3513 744 3044 326 
Q 2575 -91 1722 -91 
Q 1428 -91 1123 -41 
Q 819 9 494 109 
L 494 744 
Q 775 591 1075 516 
Q 1375 441 1709 441 
Q 2250 441 2565 725 
Q 2881 1009 2881 1497 
Q 2881 1984 2565 2268 
Q 2250 2553 1709 2553 
Q 1456 2553 1204 2497 
Q 953 2441 691 2322 
L 691 4666 
z
" transform="scale(0.015625)"/>
      <path id="DejaVuSans-5d" d="M 1947 4863 
L 1947 -844 
L 622 -844 
L 622 -397 
L 1369 -397 
L 1369 4416 
L 622 4416 
L 622 4863 
L 1947 4863 
z
" transform="scale(0.015625)"/>
     </defs>
     <use xlink:href="#DejaVuSans-41"/>
     <use xlink:href="#DejaVuSans-20" x="68.408203"/>
     <use xlink:href="#DejaVuSans-5b" x="100.195312"/>
     <use xlink:href="#DejaVuSans-32" x="139.208984"/>
     <use xlink:href="#DejaVuSans-35" x="202.832031"/>
     <use xlink:href="#DejaVuSans-5d" x="266.455078"/>
    </g>
   </g>
   <g id="text_2">
    <!-- C [16] -->
    <g transform="translate(294.769606 78.21999) scale(0.1 -0.1)">
     <defs>
      <path id="DejaVuSans-43" d="M 4122 4306 
L 4122 3641 
Q 3803 3938 3442 4084 
Q 3081 4231 2675 4231 
Q 1875 4231 1450 3742 
Q 1025 3253 1025 2328 
Q 1025 1406 1450 917 
Q 1875 428 2675 428 
Q 3081 428 3442 575 
Q 3803 722 4122 1019 
L 4122 359 
Q 3791 134 3420 21 
Q 3050 -91 2638 -91 
Q 1578 -91 968 557 
Q 359 1206 359 2328 
Q 359 3453 968 4101 
Q 1578 4750 2638 4750 
Q 3056 4750 3426 4639 
Q 3797 4528 4122 4306 
z
" transform="scale(0.015625)"/>
      <path id="DejaVuSans-31" d="M 794 531 
L 1825 531 
L 1825 4091 
L 703 3866 
L 703 4441 
L 1819 4666 
L 2450 4666 
L 2450 531 
L 3481 531 
L 3481 0 
L 794 0 
L 794 531 
z
" transform="scale(0.015625)"/>
      <path id="DejaVuSans-36" d="M 2113 2584 
Q 1688 2584 1439 2293 
Q 1191 2003 1191 1497 
Q 1191 994 1439 701 
Q 1688 409 2113 409 
Q 2538 409 2786 701 
Q 3034 994 3034 1497 
Q 3034 2003 2786 2293 
Q 2538 2584 2113 2584 
z
M 3366 4563 
L 3366 3988 
Q 3128 4100 2886 4159 
Q 2644 4219 2406 4219 
Q 1781 4219 1451 3797 
Q 1122 3375 1075 2522 
Q 1259 2794 1537 2939 
Q 1816 3084 2150 3084 
Q 2853 3084 3261 2657 
Q 3669 2231 3669 1497 
Q 3669 778 3244 343 
Q 2819 -91 2113 -91 
Q 1303 -91 875 529 
Q 447 1150 447 2328 
Q 447 3434 972 4092 
Q 1497 4750 2381 4750 
Q 2619 4750 2861 4703 
Q 3103 4656 3366 4563 
z
" transform="scale(0.015625)"/>
     </defs>
     <use xlink:href="#DejaVuSans-43"/>
     <use xlink:href="#DejaVuSans-20" x="69.824219"/>
     <use xlink:href="#DejaVuSans-5b" x="101.611328"/>
     <use xlink:href="#DejaVuSans-31" x="140.625"/>
     <use xlink:href="#DejaVuSans-36" x="204.248047"/>
     <use xlink:href="#DejaVuSans-5d" x="267.871094"/>
    </g>
   </g>
   <g id="text_3">
    <!-- D [7] -->
    <g transform="translate(276.806267 56.096888) scale(0.1 -0.1)">
     <defs>
      <path id="DejaVuSans-44" d="M 1259 4147 
L 1259 519 
L 2022 519 
Q 2988 519 3436 956 
Q 3884 1394 3884 2338 
Q 3884 3275 3436 3711 
Q 2988 4147 2022 4147 
L 1259 4147 
z
M 628 4666 
L 1925 4666 
Q 3281 4666 3915 4102 
Q 4550 3538 4550 2338 
Q 4550 1131 3912 565 
Q 3275 0 1925 0 
L 628 0 
L 628 4666 
z
" transform="scale(0.015625)"/>
      <path id="DejaVuSans-37" d="M 525 4666 
L 3525 4666 
L 3525 4397 
L 1831 0 
L 1172 0 
L 2766 4134 
L 525 4134 
L 525 4666 
z
" transform="scale(0.015625)"/>
     </defs>
     <use xlink:href="#DejaVuSans-44"/>
     <use xlink:href="#DejaVuSans-20" x="77.001953"/>
     <use xlink:href="#DejaVuSans-5b" x="108.789062"/>
     <use xlink:href="#DejaVuSans-37" x="147.802734"/>
     <use xlink:href="#DejaVuSans-5d" x="211.425781"/>
    </g>
   </g>
   <g id="text_4">
    <!-- E [11] -->
    <g transform="translate(259.858449 41.576888) scale(0.1 -0.1)">
     <defs>
      <path id="DejaVuSans-45" d="M 628 4666 
L 3578 4666 
L 3578 4134 
L 1259 4134 
L 1259 2753 
L 3481 2753 
L 3481 2222 
L 1259 2222 
L 1259 531 
L 3634 531 
L 3634 0 
L 628 0 
L 628 4666 
z
" transform="scale(0.015625)"/>
     </defs>
     <use xlink:href="#DejaVuSans-45"/>
     <use xlink:href="#DejaVuSans-20" x="63.183594"/>
     <use xlink:href="#DejaVuSans-5b" x="94.970703"/>
     <use xlink:href="#DejaVuSans-31" x="133.984375"/>
     <use xlink:href="#DejaVuSans-31" x="197.607422"/>
     <use xlink:href="#DejaVuSans-5d" x="261.230469"/>
    </g>
   </g>
   <g id="text_5">
    <!-- F [19] -->
    <g transform="translate(227.22735 23.868942) scale(0.1 -0.1)">
     <defs>
      <path id="DejaVuSans-46" d="M 628 4666 
L 3309 4666 
L 3309 4134 
L 1259 4134 
L 1259 2759 
L 3109 2759 
L 3109 2228 
L 1259 2228 
L 1259 0 
L 628 0 
L 628 4666 
z
" transform="scale(0.015625)"/>
      <path id="DejaVuSans-39" d="M 703 97 
L 703 672 
Q 941 559 1184 500 
Q 1428 441 1663 441 
Q 2288 441 2617 861 
Q 2947 1281 2994 2138 
Q 2813 1869 2534 1725 
Q 2256 1581 1919 1581 
Q 1219 1581 811 2004 
Q 403 2428 403 3163 
Q 403 3881 828 4315 
Q 1253 4750 1959 4750 
Q 2769 4750 3195 4129 
Q 3622 3509 3622 2328 
Q 3622 1225 3098 567 
Q 2575 -91 1691 -91 
Q 1453 -91 1209 -44 
Q 966 3 703 97 
z
M 1959 2075 
Q 2384 2075 2632 2365 
Q 2881 2656 2881 3163 
Q 2881 3666 2632 3958 
Q 2384 4250 1959 4250 
Q 1534 4250 1286 3958 
Q 1038 3666 1038 3163 
Q 1038 2656 1286 2365 
Q 1534 2075 1959 2075 
z
" transform="scale(0.015625)"/>
     </defs>
     <use xlink:href="#DejaVuSans-46"/>
     <use xlink:href="#DejaVuSans-20" x="57.519531"/>
     <use xlink:href="#DejaVuSans-5b" x="89.306641"/>
     <use xlink:href="#DejaVuSans-31" x="128.320312"/>
     <use xlink:href="#DejaVuSans-39" x="191.943359"/>
     <use xlink:href="#DejaVuSans-5d" x="255.566406"/>
    </g>
   </g>
   <g id="text_6">
    <!-- G [16] -->
    <g transform="translate(184.920247 14.798437) scale(0.1 -0.1)">
     <defs>
      <path id="DejaVuSans-47" d="M 3809 666 
L 3809 1919 
L 2778 1919 
L 2778 2438 
L 4434 2438 
L 4434 434 
Q 4069 175 3628 42 
Q 3188 -91 2688 -91 
Q 1594 -91 976 548 
Q 359 1188 359 2328 
Q 359 3472 976 4111 
Q 1594 4750 2688 4750 
Q 3144 4750 3555 4637 
Q 3966 4525 4313 4306 
L 4313 3634 
Q 3963 3931 3569 4081 
Q 3175 4231 2741 4231 
Q 1884 4231 1454 3753 
Q 1025 3275 1025 2328 
Q 1025 1384 1454 906 
Q 1884 428 2741 428 
Q 3075 428 3337 486 
Q 3600 544 3809 666 
z
" transform="scale(0.015625)"/>
     </defs>
     <use xlink:href="#DejaVuSans-47"/>
     <use xlink:href="#DejaVuSans-20" x="77.490234"/>
     <use xlink:href="#DejaVuSans-5b" x="109.277344"/>
     <use xlink:href="#DejaVuSans-31" x="148.291016"/>
     <use xlink:href="#DejaVuSans-36" x="211.914062"/>
     <use xlink:href="#DejaVuSans-5d" x="275.537109"/>
    </g>
   </g>
   <g id="text_7">
    <!-- H [10] -->
    <g transform="translate(121.546956 16.639235) scale(0.1 -0.1)">
     <defs>
      <path id="DejaVuSans-48" d="M 628 4666 
L 1259 4666 
L 1259 2753 
L 3553 2753 
L 3553 4666 
L 4184 4666 
L 4184 0 
L 3553 0 
L 3553 2222 
L 1259 2222 
L 1259 0 
L 628 0 
L 628 4666 
z
" transform="scale(0.015625)"/>
      <path id="DejaVuSans-30" d="M 2034 4250 
Q 1547 4250 1301 3770 
Q 1056 3291 1056 2328 
Q 1056 1369 1301 889 
Q 1547 409 2034 409 
Q 2525 409 2770 889 
Q 3016 1369 3016 2328 
Q 3016 3291 2770 3770 
Q 2525 4250 2034 4250 
z
M 2034 4750 
Q 2819 4750 3233 4129 
Q 3647 3509 3647 2328 
Q 3647 1150 3233 529 
Q 2819 -91 2034 -91 
Q 1250 -91 836 529 
Q 422 1150 422 2328 
Q 422 3509 836 4129 
Q 1250 4750 2034 4750 
z
" transform="scale(0.015625)"/>
     </defs>
     <use xlink:href="#DejaVuSans-48"/>
     <use xlink:href="#DejaVuSans-20" x="75.195312"/>
     <use xlink:href="#DejaVuSans-5b" x="106.982422"/>
     <use xlink:href="#DejaVuSans-31" x="145.996094"/>
     <use xlink:href="#DejaVuSans-30" x="209.619141"/>
     <use xlink:href="#DejaVuSans-5d" x="273.242188"/>
    </g>
   </g>
   <g id="text_8">
    <!-- I [29] -->
    <g transform="translate(80.758861 32.847633) scale(0.1 -0.1)">
     <defs>
      <path id="DejaVuSans-49" d="M 628 4666 
L 1259 4666 
L 1259 0 
L 628 0 
L 628 4666 
z
" transform="scale(0.015625)"/>
     </defs>
     <use xlink:href="#DejaVuSans-49"/>
     <use xlink:href="#DejaVuSans-20" x="29.492188"/>
     <use xlink:href="#DejaVuSans-5b" x="61.279297"/>
     <use xlink:href="#DejaVuSans-32" x="100.292969"/>
     <use xlink:href="#DejaVuSans-39" x="163.916016"/>
     <use xlink:href="#DejaVuSans-5d" x="227.539062"/>
    </g>
   </g>
   <g id="text_9">
    <!-- K [19] -->
    <g transform="translate(32.929216 72.104979) scale(0.1 -0.1)">
     <defs>
      <path id="DejaVuSans-4b" d="M 628 4666 
L 1259 4666 
L 1259 2694 
L 3353 4666 
L 4166 4666 
L 1850 2491 
L 4331 0 
L 3500 0 
L 1259 2247 
L 1259 0 
L 628 0 
L 628 4666 
z
" transform="scale(0.015625)"/>
     </defs>
     <use xlink:href="#DejaVuSans-4b"/>
     <use xlink:href="#DejaVuSans-20" x="65.576172"/>
     <use xlink:href="#DejaVuSans-5b" x="97.363281"/>
     <use xlink:href="#DejaVuSans-31" x="136.376953"/>
     <use xlink:href="#DejaVuSans-39" x="200"/>
     <use xlink:href="#DejaVuSans-5d" x="263.623047"/>
    </g>
   </g>
   <g id="text_10">
    <!-- L [42] -->
    <g transform="translate(7.2 141.975875) scale(0.1 -0.1)">
     <defs>
      <path id="DejaVuSans-4c" d="M 628 4666 
L 1259 4666 
L 1259 531 
L 3531 531 
L 3531 0 
L 628 0 
L 628 4666 
z
" transform="scale(0.015625)"/>
      <path id="DejaVuSans-34" d="M 2419 4116 
L 825 1625 
L 2419 1625 
L 2419 4116 
z
M 2253 4666 
L 3047 4666 
L 3047 1625 
L 3713 1625 
L 3713 1100 
L 3047 1100 
L 3047 0 
L 2419 0 
L 2419 1100 
L 313 1100 
L 313 1709 
L 2253 4666 
z
" transform="scale(0.015625)"/>
     </defs>
     <use xlink:href="#DejaVuSans-4c"/>
     <use xlink:href="#DejaVuSans-20" x="55.712891"/>
     <use xlink:href="#DejaVuSans-5b" x="87.5"/>
     <use xlink:href="#DejaVuSans-34" x="126.513672"/>
     <use xlink:href="#DejaVuSans-32" x="190.136719"/>
     <use xlink:href="#DejaVuSans-5d" x="253.759766"/>
    </g>
   </g>
   <g id="text_11">
    <!-- M [15] -->
    <g transform="translate(14.882069 211.153246) scale(0.1 -0.1)">
     <defs>
      <path id="DejaVuSans-4d" d="M 628 4666 
L 1569 4666 
L 2759 1491 
L 3956 4666 
L 4897 4666 
L 4897 0 
L 4281 0 
L 4281 4097 
L 3078 897 
L 2444 897 
L 1241 4097 
L 1241 0 
L 628 0 
L 628 4666 
z
" transform="scale(0.015625)"/>
     </defs>
     <use xlink:href="#DejaVuSans-4d"/>
     <use xlink:href="#DejaVuSans-20" x="86.279297"/>
     <use xlink:href="#DejaVuSans-5b" x="118.066406"/>
     <use xlink:href="#DejaVuSans-31" x="157.080078"/>
     <use xlink:href="#DejaVuSans-35" x="220.703125"/>
     <use xlink:href="#DejaVuSans-5d" x="284.326172"/>
    </g>
   </g>
   <g id="text_12">
    <!-- N [19] -->
    <g transform="translate(38.161025 246.897777) scale(0.1 -0.1)">
     <defs>
      <path id="DejaVuSans-4e" d="M 628 4666 
L 1478 4666 
L 3547 763 
L 3547 4666 
L 4159 4666 
L 4159 0 
L 3309 0 
L 1241 3903 
L 1241 0 
L 628 0 
L 628 4666 
z
" transform="scale(0.015625)"/>
     </defs>
     <use xlink:href="#DejaVuSans-4e"/>
     <use xlink:href="#DejaVuSans-20" x="74.804688"/>
     <use xlink:href="#DejaVuSans-5b" x="106.591797"/>
     <use xlink:href="#DejaVuSans-31" x="145.605469"/>
     <use xlink:href="#DejaVuSans-39" x="209.228516"/>
     <use xlink:href="#DejaVuSans-5d" x="272.851562"/>
    </g>
   </g>
   <g id="text_13">
    <!-- P [14] -->
    <g transform="translate(70.253712 273.858889) scale(0.1 -0.1)">
     <defs>
      <path id="DejaVuSans-50" d="M 1259 4147 
L 1259 2394 
L 2053 2394 
Q 2494 2394 2734 2622 
Q 2975 2850 2975 3272 
Q 2975 3691 2734 3919 
Q 2494 4147 2053 4147 
L 1259 4147 
z
M 628 4666 
L 2053 4666 
Q 2838 4666 3239 4311 
Q 3641 3956 3641 3272 
Q 3641 2581 3239 2228 
Q 2838 1875 2053 1875 
L 1259 1875 
L 1259 0 
L 628 0 
L 628 4666 
z
" transform="scale(0.015625)"/>
     </defs>
     <use xlink:href="#DejaVuSans-50"/>
     <use xlink:href="#DejaVuSans-20" x="60.302734"/>
     <use xlink:href="#DejaVuSans-5b" x="92.089844"/>
     <use xlink:href="#DejaVuSans-31" x="131.103516"/>
     <use xlink:href="#DejaVuSans-34" x="194.726562"/>
     <use xlink:href="#DejaVuSans-5d" x="258.349609"/>
    </g>
   </g>
   <g id="text_14">
    <!-- Q [8] -->
    <g transform="translate(98.960803 286.438457) scale(0.1 -0.1)">
     <defs>
      <path id="DejaVuSans-51" d="M 2522 4238 
Q 1834 4238 1429 3725 
Q 1025 3213 1025 2328 
Q 1025 1447 1429 934 
Q 1834 422 2522 422 
Q 3209 422 3611 934 
Q 4013 1447 4013 2328 
Q 4013 3213 3611 3725 
Q 3209 4238 2522 4238 
z
M 3406 84 
L 4238 -825 
L 3475 -825 
L 2784 -78 
Q 2681 -84 2626 -87 
Q 2572 -91 2522 -91 
Q 1538 -91 948 567 
Q 359 1225 359 2328 
Q 359 3434 948 4092 
Q 1538 4750 2522 4750 
Q 3503 4750 4090 4092 
Q 4678 3434 4678 2328 
Q 4678 1516 4351 937 
Q 4025 359 3406 84 
z
" transform="scale(0.015625)"/>
      <path id="DejaVuSans-38" d="M 2034 2216 
Q 1584 2216 1326 1975 
Q 1069 1734 1069 1313 
Q 1069 891 1326 650 
Q 1584 409 2034 409 
Q 2484 409 2743 651 
Q 3003 894 3003 1313 
Q 3003 1734 2745 1975 
Q 2488 2216 2034 2216 
z
M 1403 2484 
Q 997 2584 770 2862 
Q 544 3141 544 3541 
Q 544 4100 942 4425 
Q 1341 4750 2034 4750 
Q 2731 4750 3128 4425 
Q 3525 4100 3525 3541 
Q 3525 3141 3298 2862 
Q 3072 2584 2669 2484 
Q 3125 2378 3379 2068 
Q 3634 1759 3634 1313 
Q 3634 634 3220 271 
Q 2806 -91 2034 -91 
Q 1263 -91 848 271 
Q 434 634 434 1313 
Q 434 1759 690 2068 
Q 947 2378 1403 2484 
z
M 1172 3481 
Q 1172 3119 1398 2916 
Q 1625 2713 2034 2713 
Q 2441 2713 2670 2916 
Q 2900 3119 2900 3481 
Q 2900 3844 2670 4047 
Q 2441 4250 2034 4250 
Q 1625 4250 1398 4047 
Q 1172 3844 1172 3481 
z
" transform="scale(0.015625)"/>
     </defs>
     <use xlink:href="#DejaVuSans-51"/>
     <use xlink:href="#DejaVuSans-20" x="78.710938"/>
     <use xlink:href="#DejaVuSans-5b" x="110.498047"/>
     <use xlink:href="#DejaVuSans-38" x="149.511719"/>
     <use xlink:href="#DejaVuSans-5d" x="213.134766"/>
    </g>
   </g>
   <g id="text_15">
    <!-- R [15] -->
    <g transform="translate(120.896884 294.357719) scale(0.1 -0.1)">
     <defs>
      <path id="DejaVuSans-52" d="M 2841 2188 
Q 3044 2119 3236 1894 
Q 3428 1669 3622 1275 
L 4263 0 
L 3584 0 
L 2988 1197 
Q 2756 1666 2539 1819 
Q 2322 1972 1947 1972 
L 1259 1972 
L 1259 0 
L 628 0 
L 628 4666 
L 2053 4666 
Q 2853 4666 3247 4331 
Q 3641 3997 3641 3322 
Q 3641 2881 3436 2590 
Q 3231 2300 2841 2188 
z
M 1259 4147 
L 1259 2491 
L 2053 2491 
Q 2509 2491 2742 2702 
Q 2975 2913 2975 3322 
Q 2975 3731 2742 3939 
Q 2509 4147 2053 4147 
L 1259 4147 
z
" transform="scale(0.015625)"/>
     </defs>
     <use xlink:href="#DejaVuSans-52"/>
     <use xlink:href="#DejaVuSans-20" x="69.482422"/>
     <use xlink:href="#DejaVuSans-5b" x="101.269531"/>
     <use xlink:href="#DejaVuSans-31" x="140.283203"/>
     <use xlink:href="#DejaVuSans-35" x="203.90625"/>
     <use xlink:href="#DejaVuSans-5d" x="267.529297"/>
    </g>
   </g>
   <g id="text_16">
    <!-- S [24] -->
    <g transform="translate(199.717096 294.781581) scale(0.1 -0.1)">
     <defs>
      <path id="DejaVuSans-53" d="M 3425 4513 
L 3425 3897 
Q 3066 4069 2747 4153 
Q 2428 4238 2131 4238 
Q 1616 4238 1336 4038 
Q 1056 3838 1056 3469 
Q 1056 3159 1242 3001 
Q 1428 2844 1947 2747 
L 2328 2669 
Q 3034 2534 3370 2195 
Q 3706 1856 3706 1288 
Q 3706 609 3251 259 
Q 2797 -91 1919 -91 
Q 1588 -91 1214 -16 
Q 841 59 441 206 
L 441 856 
Q 825 641 1194 531 
Q 1563 422 1919 422 
Q 2459 422 2753 634 
Q 3047 847 3047 1241 
Q 3047 1584 2836 1778 
Q 2625 1972 2144 2069 
L 1759 2144 
Q 1053 2284 737 2584 
Q 422 2884 422 3419 
Q 422 4038 858 4394 
Q 1294 4750 2059 4750 
Q 2388 4750 2728 4690 
Q 3069 4631 3425 4513 
z
" transform="scale(0.015625)"/>
     </defs>
     <use xlink:href="#DejaVuSans-53"/>
     <use xlink:href="#DejaVuSans-20" x="63.476562"/>
     <use xlink:href="#DejaVuSans-5b" x="95.263672"/>
     <use xlink:href="#DejaVuSans-32" x="134.277344"/>
     <use xlink:href="#DejaVuSans-34" x="197.900391"/>
     <use xlink:href="#DejaVuSans-5d" x="261.523438"/>
    </g>
   </g>
   <g id="text_17">
    <!-- T [24] -->
    <g transform="translate(254.762436 273.17787) scale(0.1 -0.1)">
     <defs>
      <path id="DejaVuSans-54" d="M -19 4666 
L 3928 4666 
L 3928 4134 
L 2272 4134 
L 2272 0 
L 1638 0 
L 1638 4134 
L -19 4134 
L -19 4666 
z
" transform="scale(0.015625)"/>
     </defs>
     <use xlink:href="#DejaVuSans-54"/>
     <use xlink:href="#DejaVuSans-20" x="61.083984"/>
     <use xlink:href="#DejaVuSans-5b" x="92.871094"/>
     <use xlink:href="#DejaVuSans-32" x="131.884766"/>
     <use xlink:href="#DejaVuSans-34" x="195.507812"/>
     <use xlink:href="#DejaVuSans-5d" x="259.130859"/>
    </g>
   </g>
   <g id="text_18">
    <!-- V [26] -->
    <g transform="translate(297.420036 228.796667) scale(0.1 -0.1)">
     <defs>
      <path id="DejaVuSans-56" d="M 1831 0 
L 50 4666 
L 709 4666 
L 2188 738 
L 3669 4666 
L 4325 4666 
L 2547 0 
L 1831 0 
z
" transform="scale(0.015625)"/>
     </defs>
     <use xlink:href="#DejaVuSans-56"/>
     <use xlink:href="#DejaVuSans-20" x="68.408203"/>
     <use xlink:href="#DejaVuSans-5b" x="100.195312"/>
     <use xlink:href="#DejaVuSans-32" x="139.208984"/>
     <use xlink:href="#DejaVuSans-36" x="202.832031"/>
     <use xlink:href="#DejaVuSans-5d" x="266.455078"/>
    </g>
   </g>
   <g id="text_19">
    <!-- W [3] -->
    <g transform="translate(311.991212 195.991595) scale(0.1 -0.1)">
     <defs>
      <path id="DejaVuSans-57" d="M 213 4666 
L 850 4666 
L 1831 722 
L 2809 4666 
L 3519 4666 
L 4500 722 
L 5478 4666 
L 6119 4666 
L 4947 0 
L 4153 0 
L 3169 4050 
L 2175 0 
L 1381 0 
L 213 4666 
z
" transform="scale(0.015625)"/>
      <path id="DejaVuSans-33" d="M 2597 2516 
Q 3050 2419 3304 2112 
Q 3559 1806 3559 1356 
Q 3559 666 3084 287 
Q 2609 -91 1734 -91 
Q 1441 -91 1130 -33 
Q 819 25 488 141 
L 488 750 
Q 750 597 1062 519 
Q 1375 441 1716 441 
Q 2309 441 2620 675 
Q 2931 909 2931 1356 
Q 2931 1769 2642 2001 
Q 2353 2234 1838 2234 
L 1294 2234 
L 1294 2753 
L 1863 2753 
Q 2328 2753 2575 2939 
Q 2822 3125 2822 3475 
Q 2822 3834 2567 4026 
Q 2313 4219 1838 4219 
Q 1578 4219 1281 4162 
Q 984 4106 628 3988 
L 628 4550 
Q 988 4650 1302 4700 
Q 1616 4750 1894 4750 
Q 2613 4750 3031 4423 
Q 3450 4097 3450 3541 
Q 3450 3153 3228 2886 
Q 3006 2619 2597 2516 
z
" transform="scale(0.015625)"/>
     </defs>
     <use xlink:href="#DejaVuSans-57"/>
     <use xlink:href="#DejaVuSans-20" x="98.876953"/>
     <use xlink:href="#DejaVuSans-5b" x="130.664062"/>
     <use xlink:href="#DejaVuSans-33" x="169.677734"/>
     <use xlink:href="#DejaVuSans-5d" x="233.300781"/>
    </g>
   </g>
   <g id="text_20">
    <!-- Y [15] -->
    <g transform="translate(316.669635 174.170245) scale(0.1 -0.1)">
     <defs>
      <path id="DejaVuSans-59" d="M -13 4666 
L 666 4666 
L 1959 2747 
L 3244 4666 
L 3922 4666 
L 2272 2222 
L 2272 0 
L 1638 0 
L 1638 2222 
L -13 4666 
z
" transform="scale(0.015625)"/>
     </defs>
     <use xlink:href="#DejaVuSans-59"/>
     <use xlink:href="#DejaVuSans-20" x="61.083984"/>
     <use xlink:href="#DejaVuSans-5b" x="92.871094"/>
     <use xlink:href="#DejaVuSans-31" x="131.884766"/>
     <use xlink:href="#DejaVuSans-35" x="195.507812"/>
     <use xlink:href="#DejaVuSans-5d" x="259.130859"/>
    </g>
   </g>
   <g id="text_21">
    <!-- Q3U6B2 [357] -->
    <g transform="translate(134.132531 152.847758) scale(0.12 -0.12)">
     <defs>
      <path id="DejaVuSans-55" d="M 556 4666 
L 1191 4666 
L 1191 1831 
Q 1191 1081 1462 751 
Q 1734 422 2344 422 
Q 2950 422 3222 751 
Q 3494 1081 3494 1831 
L 3494 4666 
L 4128 4666 
L 4128 1753 
Q 4128 841 3676 375 
Q 3225 -91 2344 -91 
Q 1459 -91 1007 375 
Q 556 841 556 1753 
L 556 4666 
z
" transform="scale(0.015625)"/>
      <path id="DejaVuSans-42" d="M 1259 2228 
L 1259 519 
L 2272 519 
Q 2781 519 3026 730 
Q 3272 941 3272 1375 
Q 3272 1813 3026 2020 
Q 2781 2228 2272 2228 
L 1259 2228 
z
M 1259 4147 
L 1259 2741 
L 2194 2741 
Q 2656 2741 2882 2914 
Q 3109 3088 3109 3444 
Q 3109 3797 2882 3972 
Q 2656 4147 2194 4147 
L 1259 4147 
z
M 628 4666 
L 2241 4666 
Q 2963 4666 3353 4366 
Q 3744 4066 3744 3513 
Q 3744 3084 3544 2831 
Q 3344 2578 2956 2516 
Q 3422 2416 3680 2098 
Q 3938 1781 3938 1306 
Q 3938 681 3513 340 
Q 3088 0 2303 0 
L 628 0 
L 628 4666 
z
" transform="scale(0.015625)"/>
     </defs>
     <use xlink:href="#DejaVuSans-51"/>
     <use xlink:href="#DejaVuSans-33" x="78.710938"/>
     <use xlink:href="#DejaVuSans-55" x="142.333984"/>
     <use xlink:href="#DejaVuSans-36" x="215.527344"/>
     <use xlink:href="#DejaVuSans-42" x="279.150391"/>
     <use xlink:href="#DejaVuSans-32" x="347.753906"/>
     <use xlink:href="#DejaVuSans-20" x="411.376953"/>
     <use xlink:href="#DejaVuSans-5b" x="443.164062"/>
     <use xlink:href="#DejaVuSans-33" x="482.177734"/>
     <use xlink:href="#DejaVuSans-35" x="545.800781"/>
     <use xlink:href="#DejaVuSans-37" x="609.423828"/>
     <use xlink:href="#DejaVuSans-5d" x="673.046875"/>
    </g>
   </g>
  </g>
 </g>
</svg>
