<?xml version="1.0" encoding="utf-8" standalone="no"?>
<!DOCTYPE svg PUBLIC "-//W3C//DTD SVG 1.1//EN"
  "http://www.w3.org/Graphics/SVG/1.1/DTD/svg11.dtd">
<svg xmlns:xlink="http://www.w3.org/1999/xlink" width="353.449044pt" height="306.141154pt" viewBox="0 0 353.449044 306.141154" xmlns="http://www.w3.org/2000/svg" version="1.1">
 <metadata>
  <rdf:RDF xmlns:dc="http://purl.org/dc/elements/1.1/" xmlns:cc="http://creativecommons.org/ns#" xmlns:rdf="http://www.w3.org/1999/02/22-rdf-syntax-ns#">
   <cc:Work>
    <dc:type rdf:resource="http://purl.org/dc/dcmitype/StillImage"/>
    <dc:date>2024-09-27T16:07:09.266823</dc:date>
    <dc:format>image/svg+xml</dc:format>
    <dc:creator>
     <cc:Agent>
      <dc:title>Matplotlib v3.8.3, https://matplotlib.org/</dc:title>
     </cc:Agent>
    </dc:creator>
   </cc:Work>
  </rdf:RDF>
 </metadata>
 <defs>
  <style type="text/css">*{stroke-linejoin: round; stroke-linecap: butt}</style>
 </defs>
 <g id="figure_1">
  <g id="patch_1">
   <path d="M 0 306.141154 
L 353.449044 306.141154 
L 353.449044 0 
L 0 0 
z
" style="fill: #ffffff"/>
  </g>
  <g id="axes_1">
   <g id="patch_2">
    <path d="M 304.281966 152.979307 
C 304.281966 146.146935 303.733779 139.325562 302.642684 132.580874 
C 301.551589 125.836185 299.921098 119.189898 297.766913 112.70601 
L 176.548206 152.979307 
z
" style="fill: #1f77b4"/>
   </g>
   <g id="patch_3">
    <path d="M 297.738123 112.599569 
C 297.104849 110.693476 296.426705 108.802584 295.704256 106.928472 
C 294.981807 105.05436 294.215255 103.197549 293.405239 101.359587 
L 176.519416 152.872866 
z
" style="fill: #ff7f0e"/>
   </g>
   <g id="patch_4">
    <path d="M 293.382736 101.309174 
C 292.410697 99.103575 291.376424 96.925932 290.28116 94.778859 
C 289.185895 92.631786 288.030079 90.516144 286.815098 88.434475 
L 176.496913 152.822452 
z
" style="fill: #aec7e8"/>
   </g>
   <g id="patch_5">
    <path d="M 286.773339 88.365932 
C 284.748131 84.896072 282.560342 81.523691 280.217271 78.26004 
C 277.8742 74.996389 275.378455 71.8451 272.73836 68.816685 
L 176.455154 152.753909 
z
" style="fill: #ffbb78"/>
   </g>
   <g id="patch_6">
    <path d="M 272.597781 68.68195 
C 264.931008 59.887503 256.095338 52.184793 246.337532 45.788941 
C 236.579726 39.393088 225.991477 34.364193 214.868491 30.842703 
L 176.314574 152.619175 
z
" style="fill: #98df8a"/>
   </g>
   <g id="patch_7">
    <path d="M 214.683944 30.766516 
C 210.470494 29.432556 206.190649 28.318171 201.861682 27.427859 
C 197.532715 26.537547 193.160456 25.872507 188.762551 25.435424 
L 176.130027 152.542987 
z
" style="fill: #2ca02c"/>
   </g>
   <g id="patch_8">
    <path d="M 188.662868 25.424566 
C 185.064848 25.066979 181.453267 24.862325 177.837884 24.81116 
C 174.222501 24.759994 170.606575 24.862361 166.999877 25.117986 
L 176.030344 152.53213 
z
" style="fill: #d62728"/>
   </g>
   <g id="patch_9">
    <path d="M 166.82216 25.145876 
C 155.989089 25.913669 145.298031 28.059919 135.007979 31.532634 
C 124.717926 35.005348 114.912645 39.776257 105.82967 45.729785 
L 175.852626 152.56002 
z
" style="fill: #9467bd"/>
   </g>
   <g id="patch_10">
    <path d="M 105.644476 45.837875 
C 100.266677 49.362808 95.162712 53.288789 90.376125 57.582325 
C 85.589538 61.875862 81.133979 66.524709 77.047459 71.489206 
L 175.667432 152.66811 
z
" style="fill: #ff9896"/>
   </g>
   <g id="patch_11">
    <path d="M 76.889077 71.746435 
C 65.358231 85.754652 56.943263 102.060239 52.20603 119.574496 
C 47.468796 137.088752 46.517129 155.413004 49.414571 173.323766 
L 175.50905 152.925339 
z
" style="fill: #c5b0d5"/>
   </g>
   <g id="patch_12">
    <path d="M 49.413283 173.596837 
C 50.054878 177.562912 50.883236 181.49651 51.895592 185.384509 
C 52.907948 189.272508 54.103175 193.11058 55.477288 196.885923 
L 175.507761 153.198409 
z
" style="fill: #c49c94"/>
   </g>
   <g id="patch_13">
    <path d="M 55.52054 196.998124 
C 57.44464 202.284545 59.715878 207.438083 62.319416 212.425065 
C 64.922954 217.412047 67.853107 222.221588 71.090731 226.822261 
L 175.551014 153.310611 
z
" style="fill: #8c564b"/>
   </g>
   <g id="patch_14">
    <path d="M 71.154822 226.918058 
C 73.235708 229.875003 75.441209 232.742261 77.765365 235.512082 
C 80.089521 238.281904 82.530237 240.951792 85.080918 243.514533 
L 175.615105 153.406407 
z
" style="fill: #e377c2"/>
   </g>
   <g id="patch_15">
    <path d="M 85.156228 243.588088 
C 88.557533 247.005475 92.149604 250.22754 95.915194 253.238809 
C 99.680783 256.250078 103.613853 259.045724 107.695517 261.612322 
L 175.690415 153.479962 
z
" style="fill: #7f7f7f"/>
   </g>
   <g id="patch_16">
    <path d="M 107.797314 261.676333 
C 111.878978 264.242931 116.102691 266.576367 120.448172 268.665434 
C 124.793653 270.754501 129.253934 272.595851 133.807597 274.180641 
L 175.792212 153.543973 
z
" style="fill: #f7b6d2"/>
   </g>
   <g id="patch_17">
    <path d="M 134.035687 274.233186 
C 147.343747 278.864728 161.326946 281.262389 175.417766 281.328857 
C 189.508586 281.395326 203.513783 279.129692 216.864945 274.623906 
L 176.020302 153.596519 
z
" style="fill: #c7c7c7"/>
   </g>
   <g id="patch_18">
    <path d="M 217.167564 274.53123 
C 228.222129 270.800506 238.713612 265.572735 248.349009 258.993918 
C 257.984405 252.415101 266.673174 244.547057 274.172655 235.609525 
L 176.322921 153.503842 
z
" style="fill: #dbdb8d"/>
   </g>
   <g id="patch_19">
    <path d="M 274.334716 235.433918 
C 279.243812 229.583484 283.618337 223.304549 287.405695 216.672602 
C 291.193053 210.040655 294.378006 203.082381 296.922261 195.881439 
L 176.484982 153.328235 
z
" style="fill: #bcbd22"/>
   </g>
   <g id="patch_20">
    <path d="M 296.973854 195.756466 
C 298.04453 192.726158 299.000458 189.65652 299.839594 186.554106 
C 300.678731 183.451693 301.40048 180.318715 302.003299 177.161861 
L 176.536575 153.203262 
z
" style="fill: #17becf"/>
   </g>
   <g id="patch_21">
    <path d="M 302.019394 177.073036 
C 302.772969 173.126705 303.339937 169.147018 303.718407 165.147248 
C 304.096878 161.147478 304.286429 157.132078 304.286429 153.114442 
L 176.552669 153.114437 
z
" style="fill: #9edae5"/>
   </g>
   <g id="patch_22">
    <path d="M 250.534172 153.0643 
C 250.534172 149.07875 250.214396 145.099616 249.577924 141.165214 
C 248.941452 137.230813 247.990333 133.353812 246.733725 129.571544 
L 176.022812 153.0643 
z
" style="fill: #ffffff"/>
   </g>
   <g id="patch_23">
    <path d="M 246.733725 129.571544 
C 246.364315 128.459656 245.968731 127.356636 245.547302 126.263404 
C 245.125874 125.170172 244.678718 124.087032 244.206209 123.014888 
L 176.022812 153.0643 
z
" style="fill: #ffffff"/>
   </g>
   <g id="patch_24">
    <path d="M 244.206209 123.014888 
C 243.639186 121.728289 243.03586 120.457997 242.396956 119.205538 
C 241.758052 117.953079 241.083825 116.718954 240.375086 115.504647 
L 176.022812 153.0643 
z
" style="fill: #ffffff"/>
   </g>
   <g id="patch_25">
    <path d="M 240.375086 115.504647 
C 239.193715 113.480562 237.917505 111.51334 236.550714 109.609544 
C 235.183922 107.705747 233.728071 105.867495 232.188016 104.10092 
L 176.022812 153.0643 
z
" style="fill: #ffffff"/>
   </g>
   <g id="patch_26">
    <path d="M 232.188016 104.10092 
C 227.715732 98.970825 222.561591 94.477578 216.869537 90.746664 
C 211.177484 87.01575 205.001005 84.082228 198.512597 82.028026 
L 176.022812 153.0643 
z
" style="fill: #ffffff"/>
   </g>
   <g id="patch_27">
    <path d="M 198.512597 82.028026 
C 196.054751 81.249882 193.558175 80.599824 191.032944 80.080476 
C 188.507713 79.561127 185.957229 79.173187 183.391784 78.918222 
L 176.022812 153.0643 
z
" style="fill: #ffffff"/>
   </g>
   <g id="patch_28">
    <path d="M 183.391784 78.918222 
C 181.29294 78.709629 179.186184 78.590248 177.077211 78.560401 
C 174.968237 78.530554 172.858947 78.590269 170.75504 78.739383 
L 176.022812 153.0643 
z
" style="fill: #ffffff"/>
   </g>
   <g id="patch_29">
    <path d="M 170.75504 78.739383 
C 164.435749 79.187262 158.199299 80.439242 152.196768 82.464992 
C 146.194237 84.490742 140.47449 87.273772 135.176088 90.746664 
L 176.022812 153.0643 
z
" style="fill: #ffffff"/>
   </g>
   <g id="patch_30">
    <path d="M 135.176088 90.746664 
C 132.039038 92.802874 129.061726 95.09303 126.26955 97.597593 
C 123.477374 100.102156 120.878298 102.813983 118.494495 105.70994 
L 176.022812 153.0643 
z
" style="fill: #ffffff"/>
   </g>
   <g id="patch_31">
    <path d="M 118.494495 105.70994 
C 111.768168 113.8814 106.859437 123.392993 104.09605 133.609642 
C 101.332664 143.826292 100.777525 154.515439 102.467699 164.963383 
L 176.022812 153.0643 
z
" style="fill: #ffffff"/>
   </g>
   <g id="patch_32">
    <path d="M 102.467699 164.963383 
C 102.841964 167.276927 103.325172 169.571526 103.915713 171.839525 
C 104.506254 174.107525 105.20347 176.3464 106.005036 178.548683 
L 176.022812 153.0643 
z
" style="fill: #ffffff"/>
   </g>
   <g id="patch_33">
    <path d="M 106.005036 178.548683 
C 107.127427 181.632429 108.452316 184.638659 109.971047 187.547732 
C 111.489777 190.456805 113.199033 193.26237 115.087647 195.946096 
L 176.022812 153.0643 
z
" style="fill: #ffffff"/>
   </g>
   <g id="patch_34">
    <path d="M 115.087647 195.946096 
C 116.301497 197.670981 117.588039 199.343548 118.943797 200.959277 
C 120.299555 202.575007 121.723306 204.132442 123.211203 205.627374 
L 176.022812 153.0643 
z
" style="fill: #ffffff"/>
   </g>
   <g id="patch_35">
    <path d="M 123.211203 205.627374 
C 125.195297 207.62085 127.290672 209.500387 129.487266 211.256961 
C 131.68386 213.013535 133.978151 214.644328 136.359122 216.14151 
L 176.022812 153.0643 
z
" style="fill: #ffffff"/>
   </g>
   <g id="patch_36">
    <path d="M 136.359122 216.14151 
C 138.740092 217.638693 141.203925 218.999863 143.738789 220.218486 
C 146.273653 221.437108 148.875484 222.511229 151.531787 223.43569 
L 176.022812 153.0643 
z
" style="fill: #ffffff"/>
   </g>
   <g id="patch_37">
    <path d="M 151.531787 223.43569 
C 159.294822 226.137423 167.451688 227.536058 175.671333 227.574831 
C 183.890978 227.613605 192.060676 226.291985 199.848854 223.66361 
L 176.022812 153.0643 
z
" style="fill: #ffffff"/>
   </g>
   <g id="patch_38">
    <path d="M 199.848854 223.66361 
C 206.29735 221.487354 212.417382 218.437821 218.03803 214.600178 
C 223.658678 210.762535 228.727126 206.172842 233.101823 200.959282 
L 176.022812 153.0643 
z
" style="fill: #ffffff"/>
   </g>
   <g id="patch_39">
    <path d="M 233.101823 200.959282 
C 235.965463 197.546529 238.517269 193.883817 240.726562 190.015181 
C 242.935854 186.146545 244.793743 182.087552 246.277892 177.887003 
L 176.022812 153.0643 
z
" style="fill: #ffffff"/>
   </g>
   <g id="patch_40">
    <path d="M 246.277892 177.887003 
C 246.902453 176.119323 247.460077 174.328701 247.949574 172.51896 
C 248.43907 170.709219 248.86009 168.881648 249.211735 167.04015 
L 176.022812 153.0643 
z
" style="fill: #ffffff"/>
   </g>
   <g id="patch_41">
    <path d="M 249.211735 167.04015 
C 249.65132 164.738124 249.982052 162.416639 250.202826 160.08344 
C 250.4236 157.750241 250.534172 155.407924 250.534172 153.064303 
L 176.022812 153.0643 
z
" style="fill: #ffffff"/>
   </g>
   <g id="matplotlib.axis_1"/>
   <g id="matplotlib.axis_2"/>
   <g id="text_1">
    <!-- A [17] -->
    <g transform="translate(315.252132 133.300405) scale(0.1 -0.1)">
     <defs>
      <path id="DejaVuSans-41" d="M 2188 4044 
L 1331 1722 
L 3047 1722 
L 2188 4044 
z
M 1831 4666 
L 2547 4666 
L 4325 0 
L 3669 0 
L 3244 1197 
L 1141 1197 
L 716 0 
L 50 0 
L 1831 4666 
z
" transform="scale(0.015625)"/>
      <path id="DejaVuSans-20" transform="scale(0.015625)"/>
      <path id="DejaVuSans-5b" d="M 550 4863 
L 1875 4863 
L 1875 4416 
L 1125 4416 
L 1125 -397 
L 1875 -397 
L 1875 -844 
L 550 -844 
L 550 4863 
z
" transform="scale(0.015625)"/>
      <path id="DejaVuSans-31" d="M 794 531 
L 1825 531 
L 1825 4091 
L 703 3866 
L 703 4441 
L 1819 4666 
L 2450 4666 
L 2450 531 
L 3481 531 
L 3481 0 
L 794 0 
L 794 531 
z
" transform="scale(0.015625)"/>
      <path id="DejaVuSans-37" d="M 525 4666 
L 3525 4666 
L 3525 4397 
L 1831 0 
L 1172 0 
L 2766 4134 
L 525 4134 
L 525 4666 
z
" transform="scale(0.015625)"/>
      <path id="DejaVuSans-5d" d="M 1947 4863 
L 1947 -844 
L 622 -844 
L 622 -397 
L 1369 -397 
L 1369 4416 
L 622 4416 
L 622 4863 
L 1947 4863 
z
" transform="scale(0.015625)"/>
     </defs>
     <use xlink:href="#DejaVuSans-41"/>
     <use xlink:href="#DejaVuSans-20" x="68.408203"/>
     <use xlink:href="#DejaVuSans-5b" x="100.195312"/>
     <use xlink:href="#DejaVuSans-31" x="139.208984"/>
     <use xlink:href="#DejaVuSans-37" x="202.832031"/>
     <use xlink:href="#DejaVuSans-5d" x="266.455078"/>
    </g>
   </g>
   <g id="text_2">
    <!-- C [5] -->
    <g transform="translate(307.62274 105.093408) scale(0.1 -0.1)">
     <defs>
      <path id="DejaVuSans-43" d="M 4122 4306 
L 4122 3641 
Q 3803 3938 3442 4084 
Q 3081 4231 2675 4231 
Q 1875 4231 1450 3742 
Q 1025 3253 1025 2328 
Q 1025 1406 1450 917 
Q 1875 428 2675 428 
Q 3081 428 3442 575 
Q 3803 722 4122 1019 
L 4122 359 
Q 3791 134 3420 21 
Q 3050 -91 2638 -91 
Q 1578 -91 968 557 
Q 359 1206 359 2328 
Q 359 3453 968 4101 
Q 1578 4750 2638 4750 
Q 3056 4750 3426 4639 
Q 3797 4528 4122 4306 
z
" transform="scale(0.015625)"/>
      <path id="DejaVuSans-35" d="M 691 4666 
L 3169 4666 
L 3169 4134 
L 1269 4134 
L 1269 2991 
Q 1406 3038 1543 3061 
Q 1681 3084 1819 3084 
Q 2600 3084 3056 2656 
Q 3513 2228 3513 1497 
Q 3513 744 3044 326 
Q 2575 -91 1722 -91 
Q 1428 -91 1123 -41 
Q 819 9 494 109 
L 494 744 
Q 775 591 1075 516 
Q 1375 441 1709 441 
Q 2250 441 2565 725 
Q 2881 1009 2881 1497 
Q 2881 1984 2565 2268 
Q 2250 2553 1709 2553 
Q 1456 2553 1204 2497 
Q 953 2441 691 2322 
L 691 4666 
z
" transform="scale(0.015625)"/>
     </defs>
     <use xlink:href="#DejaVuSans-43"/>
     <use xlink:href="#DejaVuSans-20" x="69.824219"/>
     <use xlink:href="#DejaVuSans-5b" x="101.611328"/>
     <use xlink:href="#DejaVuSans-35" x="140.625"/>
     <use xlink:href="#DejaVuSans-5d" x="204.248047"/>
    </g>
   </g>
   <g id="text_3">
    <!-- D [6] -->
    <g transform="translate(301.659584 91.733875) scale(0.1 -0.1)">
     <defs>
      <path id="DejaVuSans-44" d="M 1259 4147 
L 1259 519 
L 2022 519 
Q 2988 519 3436 956 
Q 3884 1394 3884 2338 
Q 3884 3275 3436 3711 
Q 2988 4147 2022 4147 
L 1259 4147 
z
M 628 4666 
L 1925 4666 
Q 3281 4666 3915 4102 
Q 4550 3538 4550 2338 
Q 4550 1131 3912 565 
Q 3275 0 1925 0 
L 628 0 
L 628 4666 
z
" transform="scale(0.015625)"/>
      <path id="DejaVuSans-36" d="M 2113 2584 
Q 1688 2584 1439 2293 
Q 1191 2003 1191 1497 
Q 1191 994 1439 701 
Q 1688 409 2113 409 
Q 2538 409 2786 701 
Q 3034 994 3034 1497 
Q 3034 2003 2786 2293 
Q 2538 2584 2113 2584 
z
M 3366 4563 
L 3366 3988 
Q 3128 4100 2886 4159 
Q 2644 4219 2406 4219 
Q 1781 4219 1451 3797 
Q 1122 3375 1075 2522 
Q 1259 2794 1537 2939 
Q 1816 3084 2150 3084 
Q 2853 3084 3261 2657 
Q 3669 2231 3669 1497 
Q 3669 778 3244 343 
Q 2819 -91 2113 -91 
Q 1303 -91 875 529 
Q 447 1150 447 2328 
Q 447 3434 972 4092 
Q 1497 4750 2381 4750 
Q 2619 4750 2861 4703 
Q 3103 4656 3366 4563 
z
" transform="scale(0.015625)"/>
     </defs>
     <use xlink:href="#DejaVuSans-44"/>
     <use xlink:href="#DejaVuSans-20" x="77.001953"/>
     <use xlink:href="#DejaVuSans-5b" x="108.789062"/>
     <use xlink:href="#DejaVuSans-36" x="147.802734"/>
     <use xlink:href="#DejaVuSans-5d" x="211.425781"/>
    </g>
   </g>
   <g id="text_4">
    <!-- E [10] -->
    <g transform="translate(290.593483 73.570028) scale(0.1 -0.1)">
     <defs>
      <path id="DejaVuSans-45" d="M 628 4666 
L 3578 4666 
L 3578 4134 
L 1259 4134 
L 1259 2753 
L 3481 2753 
L 3481 2222 
L 1259 2222 
L 1259 531 
L 3634 531 
L 3634 0 
L 628 0 
L 628 4666 
z
" transform="scale(0.015625)"/>
      <path id="DejaVuSans-30" d="M 2034 4250 
Q 1547 4250 1301 3770 
Q 1056 3291 1056 2328 
Q 1056 1369 1301 889 
Q 1547 409 2034 409 
Q 2525 409 2770 889 
Q 3016 1369 3016 2328 
Q 3016 3291 2770 3770 
Q 2525 4250 2034 4250 
z
M 2034 4750 
Q 2819 4750 3233 4129 
Q 3647 3509 3647 2328 
Q 3647 1150 3233 529 
Q 2819 -91 2034 -91 
Q 1250 -91 836 529 
Q 422 1150 422 2328 
Q 422 3509 836 4129 
Q 1250 4750 2034 4750 
z
" transform="scale(0.015625)"/>
     </defs>
     <use xlink:href="#DejaVuSans-45"/>
     <use xlink:href="#DejaVuSans-20" x="63.183594"/>
     <use xlink:href="#DejaVuSans-5b" x="94.970703"/>
     <use xlink:href="#DejaVuSans-31" x="133.984375"/>
     <use xlink:href="#DejaVuSans-30" x="197.607422"/>
     <use xlink:href="#DejaVuSans-5d" x="261.230469"/>
    </g>
   </g>
   <g id="text_5">
    <!-- F [29] -->
    <g transform="translate(253.339828 37.865292) scale(0.1 -0.1)">
     <defs>
      <path id="DejaVuSans-46" d="M 628 4666 
L 3309 4666 
L 3309 4134 
L 1259 4134 
L 1259 2759 
L 3109 2759 
L 3109 2228 
L 1259 2228 
L 1259 0 
L 628 0 
L 628 4666 
z
" transform="scale(0.015625)"/>
      <path id="DejaVuSans-32" d="M 1228 531 
L 3431 531 
L 3431 0 
L 469 0 
L 469 531 
Q 828 903 1448 1529 
Q 2069 2156 2228 2338 
Q 2531 2678 2651 2914 
Q 2772 3150 2772 3378 
Q 2772 3750 2511 3984 
Q 2250 4219 1831 4219 
Q 1534 4219 1204 4116 
Q 875 4013 500 3803 
L 500 4441 
Q 881 4594 1212 4672 
Q 1544 4750 1819 4750 
Q 2544 4750 2975 4387 
Q 3406 4025 3406 3419 
Q 3406 3131 3298 2873 
Q 3191 2616 2906 2266 
Q 2828 2175 2409 1742 
Q 1991 1309 1228 531 
z
" transform="scale(0.015625)"/>
      <path id="DejaVuSans-39" d="M 703 97 
L 703 672 
Q 941 559 1184 500 
Q 1428 441 1663 441 
Q 2288 441 2617 861 
Q 2947 1281 2994 2138 
Q 2813 1869 2534 1725 
Q 2256 1581 1919 1581 
Q 1219 1581 811 2004 
Q 403 2428 403 3163 
Q 403 3881 828 4315 
Q 1253 4750 1959 4750 
Q 2769 4750 3195 4129 
Q 3622 3509 3622 2328 
Q 3622 1225 3098 567 
Q 2575 -91 1691 -91 
Q 1453 -91 1209 -44 
Q 966 3 703 97 
z
M 1959 2075 
Q 2384 2075 2632 2365 
Q 2881 2656 2881 3163 
Q 2881 3666 2632 3958 
Q 2384 4250 1959 4250 
Q 1534 4250 1286 3958 
Q 1038 3666 1038 3163 
Q 1038 2656 1286 2365 
Q 1534 2075 1959 2075 
z
" transform="scale(0.015625)"/>
     </defs>
     <use xlink:href="#DejaVuSans-46"/>
     <use xlink:href="#DejaVuSans-20" x="57.519531"/>
     <use xlink:href="#DejaVuSans-5b" x="89.306641"/>
     <use xlink:href="#DejaVuSans-32" x="128.320312"/>
     <use xlink:href="#DejaVuSans-39" x="191.943359"/>
     <use xlink:href="#DejaVuSans-5d" x="255.566406"/>
    </g>
   </g>
   <g id="text_6">
    <!-- G [11] -->
    <g transform="translate(204.434848 17.675721) scale(0.1 -0.1)">
     <defs>
      <path id="DejaVuSans-47" d="M 3809 666 
L 3809 1919 
L 2778 1919 
L 2778 2438 
L 4434 2438 
L 4434 434 
Q 4069 175 3628 42 
Q 3188 -91 2688 -91 
Q 1594 -91 976 548 
Q 359 1188 359 2328 
Q 359 3472 976 4111 
Q 1594 4750 2688 4750 
Q 3144 4750 3555 4637 
Q 3966 4525 4313 4306 
L 4313 3634 
Q 3963 3931 3569 4081 
Q 3175 4231 2741 4231 
Q 1884 4231 1454 3753 
Q 1025 3275 1025 2328 
Q 1025 1384 1454 906 
Q 1884 428 2741 428 
Q 3075 428 3337 486 
Q 3600 544 3809 666 
z
" transform="scale(0.015625)"/>
     </defs>
     <use xlink:href="#DejaVuSans-47"/>
     <use xlink:href="#DejaVuSans-20" x="77.490234"/>
     <use xlink:href="#DejaVuSans-5b" x="109.277344"/>
     <use xlink:href="#DejaVuSans-31" x="148.291016"/>
     <use xlink:href="#DejaVuSans-31" x="211.914062"/>
     <use xlink:href="#DejaVuSans-5d" x="275.537109"/>
    </g>
   </g>
   <g id="text_7">
    <!-- H [9] -->
    <g transform="translate(178.018638 14.798437) scale(0.1 -0.1)">
     <defs>
      <path id="DejaVuSans-48" d="M 628 4666 
L 1259 4666 
L 1259 2753 
L 3553 2753 
L 3553 4666 
L 4184 4666 
L 4184 0 
L 3553 0 
L 3553 2222 
L 1259 2222 
L 1259 0 
L 628 0 
L 628 4666 
z
" transform="scale(0.015625)"/>
     </defs>
     <use xlink:href="#DejaVuSans-48"/>
     <use xlink:href="#DejaVuSans-20" x="75.195312"/>
     <use xlink:href="#DejaVuSans-5b" x="106.982422"/>
     <use xlink:href="#DejaVuSans-39" x="145.996094"/>
     <use xlink:href="#DejaVuSans-5d" x="209.619141"/>
    </g>
   </g>
   <g id="text_8">
    <!-- I [27] -->
    <g transform="translate(104.267264 22.18927) scale(0.1 -0.1)">
     <defs>
      <path id="DejaVuSans-49" d="M 628 4666 
L 1259 4666 
L 1259 0 
L 628 0 
L 628 4666 
z
" transform="scale(0.015625)"/>
     </defs>
     <use xlink:href="#DejaVuSans-49"/>
     <use xlink:href="#DejaVuSans-20" x="29.492188"/>
     <use xlink:href="#DejaVuSans-5b" x="61.279297"/>
     <use xlink:href="#DejaVuSans-32" x="100.292969"/>
     <use xlink:href="#DejaVuSans-37" x="163.916016"/>
     <use xlink:href="#DejaVuSans-5d" x="227.539062"/>
    </g>
   </g>
   <g id="text_9">
    <!-- K [16] -->
    <g transform="translate(51.582932 50.833122) scale(0.1 -0.1)">
     <defs>
      <path id="DejaVuSans-4b" d="M 628 4666 
L 1259 4666 
L 1259 2694 
L 3353 4666 
L 4166 4666 
L 1850 2491 
L 4331 0 
L 3500 0 
L 1259 2247 
L 1259 0 
L 628 0 
L 628 4666 
z
" transform="scale(0.015625)"/>
     </defs>
     <use xlink:href="#DejaVuSans-4b"/>
     <use xlink:href="#DejaVuSans-20" x="65.576172"/>
     <use xlink:href="#DejaVuSans-5b" x="97.363281"/>
     <use xlink:href="#DejaVuSans-31" x="136.376953"/>
     <use xlink:href="#DejaVuSans-36" x="200"/>
     <use xlink:href="#DejaVuSans-5d" x="263.623047"/>
    </g>
   </g>
   <g id="text_10">
    <!-- L [45] -->
    <g transform="translate(10.597603 118.998787) scale(0.1 -0.1)">
     <defs>
      <path id="DejaVuSans-4c" d="M 628 4666 
L 1259 4666 
L 1259 531 
L 3531 531 
L 3531 0 
L 628 0 
L 628 4666 
z
" transform="scale(0.015625)"/>
      <path id="DejaVuSans-34" d="M 2419 4116 
L 825 1625 
L 2419 1625 
L 2419 4116 
z
M 2253 4666 
L 3047 4666 
L 3047 1625 
L 3713 1625 
L 3713 1100 
L 3047 1100 
L 3047 0 
L 2419 0 
L 2419 1100 
L 313 1100 
L 313 1709 
L 2253 4666 
z
" transform="scale(0.015625)"/>
     </defs>
     <use xlink:href="#DejaVuSans-4c"/>
     <use xlink:href="#DejaVuSans-20" x="55.712891"/>
     <use xlink:href="#DejaVuSans-5b" x="87.5"/>
     <use xlink:href="#DejaVuSans-34" x="126.513672"/>
     <use xlink:href="#DejaVuSans-35" x="190.136719"/>
     <use xlink:href="#DejaVuSans-5d" x="253.759766"/>
    </g>
   </g>
   <g id="text_11">
    <!-- M [10] -->
    <g transform="translate(7.2 191.362494) scale(0.1 -0.1)">
     <defs>
      <path id="DejaVuSans-4d" d="M 628 4666 
L 1569 4666 
L 2759 1491 
L 3956 4666 
L 4897 4666 
L 4897 0 
L 4281 0 
L 4281 4097 
L 3078 897 
L 2444 897 
L 1241 4097 
L 1241 0 
L 628 0 
L 628 4666 
z
" transform="scale(0.015625)"/>
     </defs>
     <use xlink:href="#DejaVuSans-4d"/>
     <use xlink:href="#DejaVuSans-20" x="86.279297"/>
     <use xlink:href="#DejaVuSans-5b" x="118.066406"/>
     <use xlink:href="#DejaVuSans-31" x="157.080078"/>
     <use xlink:href="#DejaVuSans-30" x="220.703125"/>
     <use xlink:href="#DejaVuSans-5d" x="284.326172"/>
    </g>
   </g>
   <g id="text_12">
    <!-- N [14] -->
    <g transform="translate(19.808756 221.095885) scale(0.1 -0.1)">
     <defs>
      <path id="DejaVuSans-4e" d="M 628 4666 
L 1478 4666 
L 3547 763 
L 3547 4666 
L 4159 4666 
L 4159 0 
L 3309 0 
L 1241 3903 
L 1241 0 
L 628 0 
L 628 4666 
z
" transform="scale(0.015625)"/>
     </defs>
     <use xlink:href="#DejaVuSans-4e"/>
     <use xlink:href="#DejaVuSans-20" x="74.804688"/>
     <use xlink:href="#DejaVuSans-5b" x="106.591797"/>
     <use xlink:href="#DejaVuSans-31" x="145.605469"/>
     <use xlink:href="#DejaVuSans-34" x="209.228516"/>
     <use xlink:href="#DejaVuSans-5d" x="272.851562"/>
    </g>
   </g>
   <g id="text_13">
    <!-- P [9] -->
    <g transform="translate(44.606953 246.482025) scale(0.1 -0.1)">
     <defs>
      <path id="DejaVuSans-50" d="M 1259 4147 
L 1259 2394 
L 2053 2394 
Q 2494 2394 2734 2622 
Q 2975 2850 2975 3272 
Q 2975 3691 2734 3919 
Q 2494 4147 2053 4147 
L 1259 4147 
z
M 628 4666 
L 2053 4666 
Q 2838 4666 3239 4311 
Q 3641 3956 3641 3272 
Q 3641 2581 3239 2228 
Q 2838 1875 2053 1875 
L 1259 1875 
L 1259 0 
L 628 0 
L 628 4666 
z
" transform="scale(0.015625)"/>
     </defs>
     <use xlink:href="#DejaVuSans-50"/>
     <use xlink:href="#DejaVuSans-20" x="60.302734"/>
     <use xlink:href="#DejaVuSans-5b" x="92.089844"/>
     <use xlink:href="#DejaVuSans-39" x="131.103516"/>
     <use xlink:href="#DejaVuSans-5d" x="194.726562"/>
    </g>
   </g>
   <g id="text_14">
    <!-- Q [12] -->
    <g transform="translate(56.359547 265.974068) scale(0.1 -0.1)">
     <defs>
      <path id="DejaVuSans-51" d="M 2522 4238 
Q 1834 4238 1429 3725 
Q 1025 3213 1025 2328 
Q 1025 1447 1429 934 
Q 1834 422 2522 422 
Q 3209 422 3611 934 
Q 4013 1447 4013 2328 
Q 4013 3213 3611 3725 
Q 3209 4238 2522 4238 
z
M 3406 84 
L 4238 -825 
L 3475 -825 
L 2784 -78 
Q 2681 -84 2626 -87 
Q 2572 -91 2522 -91 
Q 1538 -91 948 567 
Q 359 1225 359 2328 
Q 359 3434 948 4092 
Q 1538 4750 2522 4750 
Q 3503 4750 4090 4092 
Q 4678 3434 4678 2328 
Q 4678 1516 4351 937 
Q 4025 359 3406 84 
z
" transform="scale(0.015625)"/>
     </defs>
     <use xlink:href="#DejaVuSans-51"/>
     <use xlink:href="#DejaVuSans-20" x="78.710938"/>
     <use xlink:href="#DejaVuSans-5b" x="110.498047"/>
     <use xlink:href="#DejaVuSans-31" x="149.511719"/>
     <use xlink:href="#DejaVuSans-32" x="213.134766"/>
     <use xlink:href="#DejaVuSans-5d" x="276.757812"/>
    </g>
   </g>
   <g id="text_15">
    <!-- R [12] -->
    <g transform="translate(84.259081 282.936955) scale(0.1 -0.1)">
     <defs>
      <path id="DejaVuSans-52" d="M 2841 2188 
Q 3044 2119 3236 1894 
Q 3428 1669 3622 1275 
L 4263 0 
L 3584 0 
L 2988 1197 
Q 2756 1666 2539 1819 
Q 2322 1972 1947 1972 
L 1259 1972 
L 1259 0 
L 628 0 
L 628 4666 
L 2053 4666 
Q 2853 4666 3247 4331 
Q 3641 3997 3641 3322 
Q 3641 2881 3436 2590 
Q 3231 2300 2841 2188 
z
M 1259 4147 
L 1259 2491 
L 2053 2491 
Q 2509 2491 2742 2702 
Q 2975 2913 2975 3322 
Q 2975 3731 2742 3939 
Q 2509 4147 2053 4147 
L 1259 4147 
z
" transform="scale(0.015625)"/>
     </defs>
     <use xlink:href="#DejaVuSans-52"/>
     <use xlink:href="#DejaVuSans-20" x="69.482422"/>
     <use xlink:href="#DejaVuSans-5b" x="101.269531"/>
     <use xlink:href="#DejaVuSans-31" x="140.283203"/>
     <use xlink:href="#DejaVuSans-32" x="203.90625"/>
     <use xlink:href="#DejaVuSans-5d" x="267.529297"/>
    </g>
   </g>
   <g id="text_16">
    <!-- S [35] -->
    <g transform="translate(145.302825 296.861466) scale(0.1 -0.1)">
     <defs>
      <path id="DejaVuSans-53" d="M 3425 4513 
L 3425 3897 
Q 3066 4069 2747 4153 
Q 2428 4238 2131 4238 
Q 1616 4238 1336 4038 
Q 1056 3838 1056 3469 
Q 1056 3159 1242 3001 
Q 1428 2844 1947 2747 
L 2328 2669 
Q 3034 2534 3370 2195 
Q 3706 1856 3706 1288 
Q 3706 609 3251 259 
Q 2797 -91 1919 -91 
Q 1588 -91 1214 -16 
Q 841 59 441 206 
L 441 856 
Q 825 641 1194 531 
Q 1563 422 1919 422 
Q 2459 422 2753 634 
Q 3047 847 3047 1241 
Q 3047 1584 2836 1778 
Q 2625 1972 2144 2069 
L 1759 2144 
Q 1053 2284 737 2584 
Q 422 2884 422 3419 
Q 422 4038 858 4394 
Q 1294 4750 2059 4750 
Q 2388 4750 2728 4690 
Q 3069 4631 3425 4513 
z
" transform="scale(0.015625)"/>
      <path id="DejaVuSans-33" d="M 2597 2516 
Q 3050 2419 3304 2112 
Q 3559 1806 3559 1356 
Q 3559 666 3084 287 
Q 2609 -91 1734 -91 
Q 1441 -91 1130 -33 
Q 819 25 488 141 
L 488 750 
Q 750 597 1062 519 
Q 1375 441 1716 441 
Q 2309 441 2620 675 
Q 2931 909 2931 1356 
Q 2931 1769 2642 2001 
Q 2353 2234 1838 2234 
L 1294 2234 
L 1294 2753 
L 1863 2753 
Q 2328 2753 2575 2939 
Q 2822 3125 2822 3475 
Q 2822 3834 2567 4026 
Q 2313 4219 1838 4219 
Q 1578 4219 1281 4162 
Q 984 4106 628 3988 
L 628 4550 
Q 988 4650 1302 4700 
Q 1616 4750 1894 4750 
Q 2613 4750 3031 4423 
Q 3450 4097 3450 3541 
Q 3450 3153 3228 2886 
Q 3006 2619 2597 2516 
z
" transform="scale(0.015625)"/>
     </defs>
     <use xlink:href="#DejaVuSans-53"/>
     <use xlink:href="#DejaVuSans-20" x="63.476562"/>
     <use xlink:href="#DejaVuSans-5b" x="95.263672"/>
     <use xlink:href="#DejaVuSans-33" x="134.277344"/>
     <use xlink:href="#DejaVuSans-35" x="197.900391"/>
     <use xlink:href="#DejaVuSans-5d" x="261.523438"/>
    </g>
   </g>
   <g id="text_17">
    <!-- T [29] -->
    <g transform="translate(255.551618 272.302301) scale(0.1 -0.1)">
     <defs>
      <path id="DejaVuSans-54" d="M -19 4666 
L 3928 4666 
L 3928 4134 
L 2272 4134 
L 2272 0 
L 1638 0 
L 1638 4134 
L -19 4134 
L -19 4666 
z
" transform="scale(0.015625)"/>
     </defs>
     <use xlink:href="#DejaVuSans-54"/>
     <use xlink:href="#DejaVuSans-20" x="61.083984"/>
     <use xlink:href="#DejaVuSans-5b" x="92.871094"/>
     <use xlink:href="#DejaVuSans-32" x="131.884766"/>
     <use xlink:href="#DejaVuSans-39" x="195.507812"/>
     <use xlink:href="#DejaVuSans-5d" x="259.130859"/>
    </g>
   </g>
   <g id="text_18">
    <!-- V [19] -->
    <g transform="translate(298.497767 225.766414) scale(0.1 -0.1)">
     <defs>
      <path id="DejaVuSans-56" d="M 1831 0 
L 50 4666 
L 709 4666 
L 2188 738 
L 3669 4666 
L 4325 4666 
L 2547 0 
L 1831 0 
z
" transform="scale(0.015625)"/>
     </defs>
     <use xlink:href="#DejaVuSans-56"/>
     <use xlink:href="#DejaVuSans-20" x="68.408203"/>
     <use xlink:href="#DejaVuSans-5b" x="100.195312"/>
     <use xlink:href="#DejaVuSans-31" x="139.208984"/>
     <use xlink:href="#DejaVuSans-39" x="202.832031"/>
     <use xlink:href="#DejaVuSans-5d" x="266.455078"/>
    </g>
   </g>
   <g id="text_19">
    <!-- W [8] -->
    <g transform="translate(312.169896 192.648566) scale(0.1 -0.1)">
     <defs>
      <path id="DejaVuSans-57" d="M 213 4666 
L 850 4666 
L 1831 722 
L 2809 4666 
L 3519 4666 
L 4500 722 
L 5478 4666 
L 6119 4666 
L 4947 0 
L 4153 0 
L 3169 4050 
L 2175 0 
L 1381 0 
L 213 4666 
z
" transform="scale(0.015625)"/>
      <path id="DejaVuSans-38" d="M 2034 2216 
Q 1584 2216 1326 1975 
Q 1069 1734 1069 1313 
Q 1069 891 1326 650 
Q 1584 409 2034 409 
Q 2484 409 2743 651 
Q 3003 894 3003 1313 
Q 3003 1734 2745 1975 
Q 2488 2216 2034 2216 
z
M 1403 2484 
Q 997 2584 770 2862 
Q 544 3141 544 3541 
Q 544 4100 942 4425 
Q 1341 4750 2034 4750 
Q 2731 4750 3128 4425 
Q 3525 4100 3525 3541 
Q 3525 3141 3298 2862 
Q 3072 2584 2669 2484 
Q 3125 2378 3379 2068 
Q 3634 1759 3634 1313 
Q 3634 634 3220 271 
Q 2806 -91 2034 -91 
Q 1263 -91 848 271 
Q 434 634 434 1313 
Q 434 1759 690 2068 
Q 947 2378 1403 2484 
z
M 1172 3481 
Q 1172 3119 1398 2916 
Q 1625 2713 2034 2713 
Q 2441 2713 2670 2916 
Q 2900 3119 2900 3481 
Q 2900 3844 2670 4047 
Q 2441 4250 2034 4250 
Q 1625 4250 1398 4047 
Q 1172 3844 1172 3481 
z
" transform="scale(0.015625)"/>
     </defs>
     <use xlink:href="#DejaVuSans-57"/>
     <use xlink:href="#DejaVuSans-20" x="98.876953"/>
     <use xlink:href="#DejaVuSans-5b" x="130.664062"/>
     <use xlink:href="#DejaVuSans-38" x="169.677734"/>
     <use xlink:href="#DejaVuSans-5d" x="233.300781"/>
    </g>
   </g>
   <g id="text_20">
    <!-- Y [10] -->
    <g transform="translate(316.434981 169.109904) scale(0.1 -0.1)">
     <defs>
      <path id="DejaVuSans-59" d="M -13 4666 
L 666 4666 
L 1959 2747 
L 3244 4666 
L 3922 4666 
L 2272 2222 
L 2272 0 
L 1638 0 
L 1638 2222 
L -13 4666 
z
" transform="scale(0.015625)"/>
     </defs>
     <use xlink:href="#DejaVuSans-59"/>
     <use xlink:href="#DejaVuSans-20" x="61.083984"/>
     <use xlink:href="#DejaVuSans-5b" x="92.871094"/>
     <use xlink:href="#DejaVuSans-31" x="131.884766"/>
     <use xlink:href="#DejaVuSans-30" x="195.507812"/>
     <use xlink:href="#DejaVuSans-5d" x="259.130859"/>
    </g>
   </g>
   <g id="text_21">
    <!-- Q49SQ1 [333] -->
    <g transform="translate(133.27375 153.0643) scale(0.12 -0.12)">
     <use xlink:href="#DejaVuSans-51"/>
     <use xlink:href="#DejaVuSans-34" x="78.710938"/>
     <use xlink:href="#DejaVuSans-39" x="142.333984"/>
     <use xlink:href="#DejaVuSans-53" x="205.957031"/>
     <use xlink:href="#DejaVuSans-51" x="269.433594"/>
     <use xlink:href="#DejaVuSans-31" x="348.144531"/>
     <use xlink:href="#DejaVuSans-20" x="411.767578"/>
     <use xlink:href="#DejaVuSans-5b" x="443.554688"/>
     <use xlink:href="#DejaVuSans-33" x="482.568359"/>
     <use xlink:href="#DejaVuSans-33" x="546.191406"/>
     <use xlink:href="#DejaVuSans-33" x="609.814453"/>
     <use xlink:href="#DejaVuSans-5d" x="673.4375"/>
    </g>
   </g>
  </g>
 </g>
</svg>
