<?xml version="1.0" encoding="utf-8" standalone="no"?>
<!DOCTYPE svg PUBLIC "-//W3C//DTD SVG 1.1//EN"
  "http://www.w3.org/Graphics/SVG/1.1/DTD/svg11.dtd">
<svg xmlns:xlink="http://www.w3.org/1999/xlink" width="352.707805pt" height="303.462966pt" viewBox="0 0 352.707805 303.462966" xmlns="http://www.w3.org/2000/svg" version="1.1">
 <metadata>
  <rdf:RDF xmlns:dc="http://purl.org/dc/elements/1.1/" xmlns:cc="http://creativecommons.org/ns#" xmlns:rdf="http://www.w3.org/1999/02/22-rdf-syntax-ns#">
   <cc:Work>
    <dc:type rdf:resource="http://purl.org/dc/dcmitype/StillImage"/>
    <dc:date>2024-09-27T16:07:11.502757</dc:date>
    <dc:format>image/svg+xml</dc:format>
    <dc:creator>
     <cc:Agent>
      <dc:title>Matplotlib v3.8.3, https://matplotlib.org/</dc:title>
     </cc:Agent>
    </dc:creator>
   </cc:Work>
  </rdf:RDF>
 </metadata>
 <defs>
  <style type="text/css">*{stroke-linejoin: round; stroke-linecap: butt}</style>
 </defs>
 <g id="figure_1">
  <g id="patch_1">
   <path d="M 0 303.462966 
L 352.707805 303.462966 
L 352.707805 0 
L 0 0 
z
" style="fill: #ffffff"/>
  </g>
  <g id="axes_1">
   <g id="patch_2">
    <path d="M 304.071565 151.32798 
C 304.071565 138.845725 302.2419 126.430609 298.640989 114.479035 
C 295.040078 102.52746 289.706658 91.167997 282.811019 80.763341 
L 176.337805 151.32798 
z
" style="fill: #1f77b4"/>
   </g>
   <g id="patch_3">
    <path d="M 282.712383 80.578686 
C 280.282415 76.912168 277.664677 73.373614 274.869634 69.977169 
C 272.074592 66.580724 269.105973 63.330921 265.975647 60.24075 
L 176.239169 151.143325 
z
" style="fill: #ff7f0e"/>
   </g>
   <g id="patch_4">
    <path d="M 265.893958 60.160801 
C 262.50264 56.812986 258.926631 53.657574 255.182707 50.709367 
C 251.438783 47.761159 247.532806 45.024772 243.4831 42.513044 
L 176.157481 151.063375 
z
" style="fill: #aec7e8"/>
   </g>
   <g id="patch_5">
    <path d="M 243.382095 42.450398 
C 239.332389 39.938669 235.145296 37.655532 230.840457 35.611697 
C 226.535619 33.567861 222.119776 31.766528 217.613645 30.216148 
L 176.056475 151.000729 
z
" style="fill: #ffbb78"/>
   </g>
   <g id="patch_6">
    <path d="M 217.465241 30.170737 
C 210.183054 27.665227 202.689176 25.823413 195.075214 24.667813 
C 187.461251 23.512213 179.758357 23.047553 172.060693 23.279514 
L 175.908072 150.955319 
z
" style="fill: #98df8a"/>
   </g>
   <g id="patch_7">
    <path d="M 171.882902 23.282575 
C 165.286093 23.481363 158.714601 24.191123 152.22748 25.405475 
C 145.740359 26.619828 139.357098 28.335126 133.13506 30.535954 
L 175.730281 150.95838 
z
" style="fill: #2ca02c"/>
   </g>
   <g id="patch_8">
    <path d="M 133.004722 30.578303 
C 128.857848 32.045115 124.789507 33.725151 120.815963 35.611696 
C 116.84242 37.49824 112.968974 39.588776 109.211112 41.874945 
L 175.599942 151.000729 
z
" style="fill: #d62728"/>
   </g>
   <g id="patch_9">
    <path d="M 109.10652 41.940441 
C 104.408606 44.79851 99.900152 47.95697 95.609308 51.396101 
C 91.318463 54.835231 87.254178 58.54786 83.441827 62.510806 
L 175.49535 151.066225 
z
" style="fill: #9467bd"/>
   </g>
   <g id="patch_10">
    <path d="M 83.357965 62.59503 
C 80.562689 65.500724 77.906558 68.53714 75.398497 71.694077 
C 72.890435 74.851014 70.533253 78.124933 68.334871 81.504836 
L 175.411488 151.150449 
z
" style="fill: #ff9896"/>
   </g>
   <g id="patch_11">
    <path d="M 68.225742 81.753777 
C 58.398637 96.862455 51.879685 113.881381 49.09851 131.688941 
C 46.317335 149.496501 47.336406 167.692712 52.088563 185.078371 
L 175.30236 151.39939 
z
" style="fill: #c5b0d5"/>
   </g>
   <g id="patch_12">
    <path d="M 52.10895 185.327141 
C 52.688739 187.448286 53.323205 189.554106 54.011714 191.642495 
C 54.700223 193.730885 55.442545 195.801146 56.237938 197.851211 
L 175.322746 151.64816 
z
" style="fill: #c49c94"/>
   </g>
   <g id="patch_13">
    <path d="M 56.273954 197.93533 
C 58.130329 202.719994 60.273379 207.388432 62.691449 211.91525 
C 65.109518 216.442068 67.798212 220.819042 70.742907 225.022364 
L 175.358762 151.732279 
z
" style="fill: #8c564b"/>
   </g>
   <g id="patch_14">
    <path d="M 70.831988 225.14387 
C 74.829377 230.849829 79.286895 236.219197 84.15992 241.198224 
C 89.032945 246.17725 94.305162 250.749265 99.923791 254.868499 
L 175.447843 151.853785 
z
" style="fill: #e377c2"/>
   </g>
   <g id="patch_15">
    <path d="M 100.019752 254.946092 
C 102.384407 256.679712 104.808054 258.331399 107.286383 259.898217 
C 109.764713 261.465034 112.296256 262.946055 114.876513 264.338644 
L 175.543803 151.931379 
z
" style="fill: #7f7f7f"/>
   </g>
   <g id="patch_16">
    <path d="M 115.000816 264.396355 
C 122.101118 268.228457 129.548563 271.379208 137.243256 273.806347 
C 144.937949 276.233486 152.845331 277.926112 160.859338 278.86152 
L 175.668105 151.989089 
z
" style="fill: #f7b6d2"/>
   </g>
   <g id="patch_17">
    <path d="M 161.085692 278.882033 
C 171.290047 280.073102 181.600933 280.028729 191.794658 278.749876 
C 201.988383 277.471022 211.990694 274.967004 221.584593 271.292145 
L 175.89446 152.009601 
z
" style="fill: #c7c7c7"/>
   </g>
   <g id="patch_18">
    <path d="M 221.771123 271.232424 
C 226.906291 269.265443 231.909084 266.968906 236.748268 264.357152 
C 241.587453 261.745398 246.252935 258.823874 250.715585 255.610821 
L 176.080989 151.94988 
z
" style="fill: #dbdb8d"/>
   </g>
   <g id="patch_19">
    <path d="M 250.876661 255.4771 
C 260.109925 248.829264 268.413735 240.977494 275.567467 232.130404 
C 282.721199 223.283314 288.660932 213.519957 293.228851 203.099737 
L 176.242065 151.81616 
z
" style="fill: #bcbd22"/>
   </g>
   <g id="patch_20">
    <path d="M 293.317514 202.940413 
C 294.641889 199.919284 295.848738 196.847985 296.935346 193.733427 
C 298.021955 190.618868 298.987508 187.463387 299.829833 184.274079 
L 176.330728 151.656836 
z
" style="fill: #17becf"/>
   </g>
   <g id="patch_21">
    <path d="M 299.855108 184.167283 
C 301.259295 178.850591 302.318689 173.448766 303.026675 167.995536 
C 303.734661 162.542306 304.089763 157.049044 304.089763 151.550047 
L 176.356003 151.55004 
z
" style="fill: #9edae5"/>
   </g>
   <g id="patch_22">
    <path d="M 250.339569 151.481517 
C 250.339569 144.200201 249.272264 136.958051 247.171733 129.986299 
C 245.071201 123.014547 241.960039 116.388194 237.937584 110.318811 
L 175.828209 151.481517 
z
" style="fill: #ffffff"/>
   </g>
   <g id="patch_23">
    <path d="M 237.937584 110.318811 
C 236.520102 108.180009 234.993089 106.115852 233.362647 104.134593 
C 231.732205 102.153333 230.000511 100.257615 228.174487 98.455015 
L 175.828209 151.481517 
z
" style="fill: #ffffff"/>
   </g>
   <g id="patch_24">
    <path d="M 228.174487 98.455015 
C 226.196219 96.502123 224.110214 94.661466 221.926258 92.941679 
C 219.742302 91.221891 217.463815 89.625665 215.101487 88.16049 
L 175.828209 151.481517 
z
" style="fill: #ffffff"/>
   </g>
   <g id="patch_25">
    <path d="M 215.101487 88.16049 
C 212.739158 86.695315 210.296687 85.363485 207.785532 84.171248 
C 205.274376 82.979011 202.698468 81.928233 200.069891 81.023844 
L 175.828209 151.481517 
z
" style="fill: #ffffff"/>
   </g>
   <g id="patch_26">
    <path d="M 200.069891 81.023844 
C 195.821949 79.562296 191.45052 78.487905 187.009041 77.813805 
C 182.567563 77.139705 178.074208 76.868653 173.583905 77.003964 
L 175.828209 151.481517 
z
" style="fill: #ffffff"/>
   </g>
   <g id="patch_27">
    <path d="M 173.583905 77.003964 
C 169.735766 77.119924 165.902396 77.53395 162.118242 78.242323 
C 158.334088 78.950695 154.610519 79.951285 150.980997 81.235102 
L 175.828209 151.481517 
z
" style="fill: #ffffff"/>
   </g>
   <g id="patch_28">
    <path d="M 150.980997 81.235102 
C 148.561987 82.090742 146.188788 83.070763 143.870888 84.171247 
C 141.552987 85.271731 139.293478 86.491211 137.101391 87.82481 
L 175.828209 151.481517 
z
" style="fill: #ffffff"/>
   </g>
   <g id="patch_29">
    <path d="M 137.101391 87.82481 
C 134.360941 89.492017 131.73101 91.334452 129.228017 93.340611 
C 126.725025 95.346771 124.354192 97.512471 122.13032 99.824189 
L 175.828209 151.481517 
z
" style="fill: #ffffff"/>
   </g>
   <g id="patch_30">
    <path d="M 122.13032 99.824189 
C 120.499743 101.519177 118.950333 103.29042 117.487297 105.131967 
C 116.024261 106.973513 114.649239 108.883299 113.366849 110.854909 
L 175.828209 151.481517 
z
" style="fill: #ffffff"/>
   </g>
   <g id="patch_31">
    <path d="M 113.366849 110.854909 
C 107.634371 119.668305 103.831649 129.596012 102.209297 139.983755 
C 100.586945 150.371498 101.181403 160.985955 103.953494 171.127589 
L 175.828209 151.481517 
z
" style="fill: #ffffff"/>
   </g>
   <g id="patch_32">
    <path d="M 103.953494 171.127589 
C 104.291704 172.364924 104.66181 173.593319 105.06344 174.811546 
C 105.46507 176.029773 105.898091 177.237426 106.362071 178.433296 
L 175.828209 151.481517 
z
" style="fill: #ffffff"/>
   </g>
   <g id="patch_33">
    <path d="M 106.362071 178.433296 
C 107.444956 181.22435 108.695069 183.947606 110.10561 186.58825 
C 111.51615 189.228894 113.084555 191.782129 114.802294 194.234066 
L 175.828209 151.481517 
z
" style="fill: #ffffff"/>
   </g>
   <g id="patch_34">
    <path d="M 114.802294 194.234066 
C 117.134104 197.562542 119.734323 200.694674 122.576921 203.599106 
C 125.419519 206.503538 128.494979 209.170547 131.772512 211.573433 
L 175.828209 151.481517 
z
" style="fill: #ffffff"/>
   </g>
   <g id="patch_35">
    <path d="M 131.772512 211.573433 
C 133.151895 212.584711 134.565689 213.548195 136.011381 214.462172 
C 137.457073 215.376149 138.933806 216.240078 140.438957 217.052422 
L 175.828209 151.481517 
z
" style="fill: #ffffff"/>
   </g>
   <g id="patch_36">
    <path d="M 140.438957 217.052422 
C 144.5808 219.287815 148.925143 221.125753 153.413713 222.541584 
C 157.902284 223.957415 162.514924 224.94478 167.189761 225.490435 
L 175.828209 151.481517 
z
" style="fill: #ffffff"/>
   </g>
   <g id="patch_37">
    <path d="M 167.189761 225.490435 
C 173.142301 226.185226 179.156985 226.159341 185.103324 225.413344 
C 191.049664 224.667346 196.884345 223.206668 202.480787 221.063 
L 175.828209 151.481517 
z
" style="fill: #ffffff"/>
   </g>
   <g id="patch_38">
    <path d="M 202.480787 221.063 
C 205.476301 219.915595 208.394598 218.575948 211.217455 217.052425 
C 214.040313 215.528902 216.761844 213.82468 219.365057 211.950399 
L 175.828209 151.481517 
z
" style="fill: #ffffff"/>
   </g>
   <g id="patch_39">
    <path d="M 219.365057 211.950399 
C 224.751127 208.072494 229.595017 203.492295 233.768027 198.331493 
C 237.941038 193.17069 241.405881 187.475399 244.070501 181.396937 
L 175.828209 151.481517 
z
" style="fill: #ffffff"/>
   </g>
   <g id="patch_40">
    <path d="M 244.070501 181.396937 
C 244.843053 179.634611 245.547048 177.843021 246.180903 176.026195 
C 246.814758 174.209369 247.377997 172.368671 247.869353 170.508242 
L 175.828209 151.481517 
z
" style="fill: #ffffff"/>
   </g>
   <g id="patch_41">
    <path d="M 247.869353 170.508242 
C 248.688462 167.406838 249.306442 164.255774 249.719434 161.074723 
C 250.132426 157.893672 250.339569 154.689269 250.339569 151.481521 
L 175.828209 151.481517 
z
" style="fill: #ffffff"/>
   </g>
   <g id="matplotlib.axis_1"/>
   <g id="matplotlib.axis_2"/>
   <g id="text_1">
    <!-- A [34] -->
    <g transform="translate(310.871307 113.553515) scale(0.1 -0.1)">
     <defs>
      <path id="DejaVuSans-41" d="M 2188 4044 
L 1331 1722 
L 3047 1722 
L 2188 4044 
z
M 1831 4666 
L 2547 4666 
L 4325 0 
L 3669 0 
L 3244 1197 
L 1141 1197 
L 716 0 
L 50 0 
L 1831 4666 
z
" transform="scale(0.015625)"/>
      <path id="DejaVuSans-20" transform="scale(0.015625)"/>
      <path id="DejaVuSans-5b" d="M 550 4863 
L 1875 4863 
L 1875 4416 
L 1125 4416 
L 1125 -397 
L 1875 -397 
L 1875 -844 
L 550 -844 
L 550 4863 
z
" transform="scale(0.015625)"/>
      <path id="DejaVuSans-33" d="M 2597 2516 
Q 3050 2419 3304 2112 
Q 3559 1806 3559 1356 
Q 3559 666 3084 287 
Q 2609 -91 1734 -91 
Q 1441 -91 1130 -33 
Q 819 25 488 141 
L 488 750 
Q 750 597 1062 519 
Q 1375 441 1716 441 
Q 2309 441 2620 675 
Q 2931 909 2931 1356 
Q 2931 1769 2642 2001 
Q 2353 2234 1838 2234 
L 1294 2234 
L 1294 2753 
L 1863 2753 
Q 2328 2753 2575 2939 
Q 2822 3125 2822 3475 
Q 2822 3834 2567 4026 
Q 2313 4219 1838 4219 
Q 1578 4219 1281 4162 
Q 984 4106 628 3988 
L 628 4550 
Q 988 4650 1302 4700 
Q 1616 4750 1894 4750 
Q 2613 4750 3031 4423 
Q 3450 4097 3450 3541 
Q 3450 3153 3228 2886 
Q 3006 2619 2597 2516 
z
" transform="scale(0.015625)"/>
      <path id="DejaVuSans-34" d="M 2419 4116 
L 825 1625 
L 2419 1625 
L 2419 4116 
z
M 2253 4666 
L 3047 4666 
L 3047 1625 
L 3713 1625 
L 3713 1100 
L 3047 1100 
L 3047 0 
L 2419 0 
L 2419 1100 
L 313 1100 
L 313 1709 
L 2253 4666 
z
" transform="scale(0.015625)"/>
      <path id="DejaVuSans-5d" d="M 1947 4863 
L 1947 -844 
L 622 -844 
L 622 -397 
L 1369 -397 
L 1369 4416 
L 622 4416 
L 622 4863 
L 1947 4863 
z
" transform="scale(0.015625)"/>
     </defs>
     <use xlink:href="#DejaVuSans-41"/>
     <use xlink:href="#DejaVuSans-20" x="68.408203"/>
     <use xlink:href="#DejaVuSans-5b" x="100.195312"/>
     <use xlink:href="#DejaVuSans-33" x="139.208984"/>
     <use xlink:href="#DejaVuSans-34" x="202.832031"/>
     <use xlink:href="#DejaVuSans-5d" x="266.455078"/>
    </g>
   </g>
   <g id="text_2">
    <!-- C [12] -->
    <g transform="translate(284.732681 64.619929) scale(0.1 -0.1)">
     <defs>
      <path id="DejaVuSans-43" d="M 4122 4306 
L 4122 3641 
Q 3803 3938 3442 4084 
Q 3081 4231 2675 4231 
Q 1875 4231 1450 3742 
Q 1025 3253 1025 2328 
Q 1025 1406 1450 917 
Q 1875 428 2675 428 
Q 3081 428 3442 575 
Q 3803 722 4122 1019 
L 4122 359 
Q 3791 134 3420 21 
Q 3050 -91 2638 -91 
Q 1578 -91 968 557 
Q 359 1206 359 2328 
Q 359 3453 968 4101 
Q 1578 4750 2638 4750 
Q 3056 4750 3426 4639 
Q 3797 4528 4122 4306 
z
" transform="scale(0.015625)"/>
      <path id="DejaVuSans-31" d="M 794 531 
L 1825 531 
L 1825 4091 
L 703 3866 
L 703 4441 
L 1819 4666 
L 2450 4666 
L 2450 531 
L 3481 531 
L 3481 0 
L 794 0 
L 794 531 
z
" transform="scale(0.015625)"/>
      <path id="DejaVuSans-32" d="M 1228 531 
L 3431 531 
L 3431 0 
L 469 0 
L 469 531 
Q 828 903 1448 1529 
Q 2069 2156 2228 2338 
Q 2531 2678 2651 2914 
Q 2772 3150 2772 3378 
Q 2772 3750 2511 3984 
Q 2250 4219 1831 4219 
Q 1534 4219 1204 4116 
Q 875 4013 500 3803 
L 500 4441 
Q 881 4594 1212 4672 
Q 1544 4750 1819 4750 
Q 2544 4750 2975 4387 
Q 3406 4025 3406 3419 
Q 3406 3131 3298 2873 
Q 3191 2616 2906 2266 
Q 2828 2175 2409 1742 
Q 1991 1309 1228 531 
z
" transform="scale(0.015625)"/>
     </defs>
     <use xlink:href="#DejaVuSans-43"/>
     <use xlink:href="#DejaVuSans-20" x="69.824219"/>
     <use xlink:href="#DejaVuSans-5b" x="101.611328"/>
     <use xlink:href="#DejaVuSans-31" x="140.625"/>
     <use xlink:href="#DejaVuSans-32" x="204.248047"/>
     <use xlink:href="#DejaVuSans-5d" x="267.871094"/>
    </g>
   </g>
   <g id="text_3">
    <!-- D [13] -->
    <g transform="translate(263.08523 43.433341) scale(0.1 -0.1)">
     <defs>
      <path id="DejaVuSans-44" d="M 1259 4147 
L 1259 519 
L 2022 519 
Q 2988 519 3436 956 
Q 3884 1394 3884 2338 
Q 3884 3275 3436 3711 
Q 2988 4147 2022 4147 
L 1259 4147 
z
M 628 4666 
L 1925 4666 
Q 3281 4666 3915 4102 
Q 4550 3538 4550 2338 
Q 4550 1131 3912 565 
Q 3275 0 1925 0 
L 628 0 
L 628 4666 
z
" transform="scale(0.015625)"/>
     </defs>
     <use xlink:href="#DejaVuSans-44"/>
     <use xlink:href="#DejaVuSans-20" x="77.001953"/>
     <use xlink:href="#DejaVuSans-5b" x="108.789062"/>
     <use xlink:href="#DejaVuSans-31" x="147.802734"/>
     <use xlink:href="#DejaVuSans-33" x="211.425781"/>
     <use xlink:href="#DejaVuSans-5d" x="275.048828"/>
    </g>
   </g>
   <g id="text_4">
    <!-- E [13] -->
    <g transform="translate(236.318855 26.832169) scale(0.1 -0.1)">
     <defs>
      <path id="DejaVuSans-45" d="M 628 4666 
L 3578 4666 
L 3578 4134 
L 1259 4134 
L 1259 2753 
L 3481 2753 
L 3481 2222 
L 1259 2222 
L 1259 531 
L 3634 531 
L 3634 0 
L 628 0 
L 628 4666 
z
" transform="scale(0.015625)"/>
     </defs>
     <use xlink:href="#DejaVuSans-45"/>
     <use xlink:href="#DejaVuSans-20" x="63.183594"/>
     <use xlink:href="#DejaVuSans-5b" x="94.970703"/>
     <use xlink:href="#DejaVuSans-31" x="133.984375"/>
     <use xlink:href="#DejaVuSans-33" x="197.607422"/>
     <use xlink:href="#DejaVuSans-5d" x="261.230469"/>
    </g>
   </g>
   <g id="text_5">
    <!-- F [21] -->
    <g transform="translate(196.991928 14.798437) scale(0.1 -0.1)">
     <defs>
      <path id="DejaVuSans-46" d="M 628 4666 
L 3309 4666 
L 3309 4134 
L 1259 4134 
L 1259 2759 
L 3109 2759 
L 3109 2228 
L 1259 2228 
L 1259 0 
L 628 0 
L 628 4666 
z
" transform="scale(0.015625)"/>
     </defs>
     <use xlink:href="#DejaVuSans-46"/>
     <use xlink:href="#DejaVuSans-20" x="57.519531"/>
     <use xlink:href="#DejaVuSans-5b" x="89.306641"/>
     <use xlink:href="#DejaVuSans-32" x="128.320312"/>
     <use xlink:href="#DejaVuSans-31" x="191.943359"/>
     <use xlink:href="#DejaVuSans-5d" x="255.566406"/>
    </g>
   </g>
   <g id="text_6">
    <!-- G [18] -->
    <g transform="translate(118.422512 15.60956) scale(0.1 -0.1)">
     <defs>
      <path id="DejaVuSans-47" d="M 3809 666 
L 3809 1919 
L 2778 1919 
L 2778 2438 
L 4434 2438 
L 4434 434 
Q 4069 175 3628 42 
Q 3188 -91 2688 -91 
Q 1594 -91 976 548 
Q 359 1188 359 2328 
Q 359 3472 976 4111 
Q 1594 4750 2688 4750 
Q 3144 4750 3555 4637 
Q 3966 4525 4313 4306 
L 4313 3634 
Q 3963 3931 3569 4081 
Q 3175 4231 2741 4231 
Q 1884 4231 1454 3753 
Q 1025 3275 1025 2328 
Q 1025 1384 1454 906 
Q 1884 428 2741 428 
Q 3075 428 3337 486 
Q 3600 544 3809 666 
z
" transform="scale(0.015625)"/>
      <path id="DejaVuSans-38" d="M 2034 2216 
Q 1584 2216 1326 1975 
Q 1069 1734 1069 1313 
Q 1069 891 1326 650 
Q 1584 409 2034 409 
Q 2484 409 2743 651 
Q 3003 894 3003 1313 
Q 3003 1734 2745 1975 
Q 2488 2216 2034 2216 
z
M 1403 2484 
Q 997 2584 770 2862 
Q 544 3141 544 3541 
Q 544 4100 942 4425 
Q 1341 4750 2034 4750 
Q 2731 4750 3128 4425 
Q 3525 4100 3525 3541 
Q 3525 3141 3298 2862 
Q 3072 2584 2669 2484 
Q 3125 2378 3379 2068 
Q 3634 1759 3634 1313 
Q 3634 634 3220 271 
Q 2806 -91 2034 -91 
Q 1263 -91 848 271 
Q 434 634 434 1313 
Q 434 1759 690 2068 
Q 947 2378 1403 2484 
z
M 1172 3481 
Q 1172 3119 1398 2916 
Q 1625 2713 2034 2713 
Q 2441 2713 2670 2916 
Q 2900 3119 2900 3481 
Q 2900 3844 2670 4047 
Q 2441 4250 2034 4250 
Q 1625 4250 1398 4047 
Q 1172 3844 1172 3481 
z
" transform="scale(0.015625)"/>
     </defs>
     <use xlink:href="#DejaVuSans-47"/>
     <use xlink:href="#DejaVuSans-20" x="77.490234"/>
     <use xlink:href="#DejaVuSans-5b" x="109.277344"/>
     <use xlink:href="#DejaVuSans-31" x="148.291016"/>
     <use xlink:href="#DejaVuSans-38" x="211.914062"/>
     <use xlink:href="#DejaVuSans-5d" x="275.537109"/>
    </g>
   </g>
   <g id="text_7">
    <!-- H [12] -->
    <g transform="translate(84.111003 26.832167) scale(0.1 -0.1)">
     <defs>
      <path id="DejaVuSans-48" d="M 628 4666 
L 1259 4666 
L 1259 2753 
L 3553 2753 
L 3553 4666 
L 4184 4666 
L 4184 0 
L 3553 0 
L 3553 2222 
L 1259 2222 
L 1259 0 
L 628 0 
L 628 4666 
z
" transform="scale(0.015625)"/>
     </defs>
     <use xlink:href="#DejaVuSans-48"/>
     <use xlink:href="#DejaVuSans-20" x="75.195312"/>
     <use xlink:href="#DejaVuSans-5b" x="106.982422"/>
     <use xlink:href="#DejaVuSans-31" x="145.996094"/>
     <use xlink:href="#DejaVuSans-32" x="209.619141"/>
     <use xlink:href="#DejaVuSans-5d" x="273.242188"/>
    </g>
   </g>
   <g id="text_8">
    <!-- I [15] -->
    <g transform="translate(60.964453 44.188463) scale(0.1 -0.1)">
     <defs>
      <path id="DejaVuSans-49" d="M 628 4666 
L 1259 4666 
L 1259 0 
L 628 0 
L 628 4666 
z
" transform="scale(0.015625)"/>
      <path id="DejaVuSans-35" d="M 691 4666 
L 3169 4666 
L 3169 4134 
L 1269 4134 
L 1269 2991 
Q 1406 3038 1543 3061 
Q 1681 3084 1819 3084 
Q 2600 3084 3056 2656 
Q 3513 2228 3513 1497 
Q 3513 744 3044 326 
Q 2575 -91 1722 -91 
Q 1428 -91 1123 -41 
Q 819 9 494 109 
L 494 744 
Q 775 591 1075 516 
Q 1375 441 1709 441 
Q 2250 441 2565 725 
Q 2881 1009 2881 1497 
Q 2881 1984 2565 2268 
Q 2250 2553 1709 2553 
Q 1456 2553 1204 2497 
Q 953 2441 691 2322 
L 691 4666 
z
" transform="scale(0.015625)"/>
     </defs>
     <use xlink:href="#DejaVuSans-49"/>
     <use xlink:href="#DejaVuSans-20" x="29.492188"/>
     <use xlink:href="#DejaVuSans-5b" x="61.279297"/>
     <use xlink:href="#DejaVuSans-31" x="100.292969"/>
     <use xlink:href="#DejaVuSans-35" x="163.916016"/>
     <use xlink:href="#DejaVuSans-5d" x="227.539062"/>
    </g>
   </g>
   <g id="text_9">
    <!-- K [11] -->
    <g transform="translate(35.133135 66.507815) scale(0.1 -0.1)">
     <defs>
      <path id="DejaVuSans-4b" d="M 628 4666 
L 1259 4666 
L 1259 2694 
L 3353 4666 
L 4166 4666 
L 1850 2491 
L 4331 0 
L 3500 0 
L 1259 2247 
L 1259 0 
L 628 0 
L 628 4666 
z
" transform="scale(0.015625)"/>
     </defs>
     <use xlink:href="#DejaVuSans-4b"/>
     <use xlink:href="#DejaVuSans-20" x="65.576172"/>
     <use xlink:href="#DejaVuSans-5b" x="97.363281"/>
     <use xlink:href="#DejaVuSans-31" x="136.376953"/>
     <use xlink:href="#DejaVuSans-31" x="200"/>
     <use xlink:href="#DejaVuSans-5d" x="263.623047"/>
    </g>
   </g>
   <g id="text_10">
    <!-- L [49] -->
    <g transform="translate(7.2 132.477271) scale(0.1 -0.1)">
     <defs>
      <path id="DejaVuSans-4c" d="M 628 4666 
L 1259 4666 
L 1259 531 
L 3531 531 
L 3531 0 
L 628 0 
L 628 4666 
z
" transform="scale(0.015625)"/>
      <path id="DejaVuSans-39" d="M 703 97 
L 703 672 
Q 941 559 1184 500 
Q 1428 441 1663 441 
Q 2288 441 2617 861 
Q 2947 1281 2994 2138 
Q 2813 1869 2534 1725 
Q 2256 1581 1919 1581 
Q 1219 1581 811 2004 
Q 403 2428 403 3163 
Q 403 3881 828 4315 
Q 1253 4750 1959 4750 
Q 2769 4750 3195 4129 
Q 3622 3509 3622 2328 
Q 3622 1225 3098 567 
Q 2575 -91 1691 -91 
Q 1453 -91 1209 -44 
Q 966 3 703 97 
z
M 1959 2075 
Q 2384 2075 2632 2365 
Q 2881 2656 2881 3163 
Q 2881 3666 2632 3958 
Q 2384 4250 1959 4250 
Q 1534 4250 1286 3958 
Q 1038 3666 1038 3163 
Q 1038 2656 1286 2365 
Q 1534 2075 1959 2075 
z
" transform="scale(0.015625)"/>
     </defs>
     <use xlink:href="#DejaVuSans-4c"/>
     <use xlink:href="#DejaVuSans-20" x="55.712891"/>
     <use xlink:href="#DejaVuSans-5b" x="87.5"/>
     <use xlink:href="#DejaVuSans-34" x="126.513672"/>
     <use xlink:href="#DejaVuSans-39" x="190.136719"/>
     <use xlink:href="#DejaVuSans-5d" x="253.759766"/>
    </g>
   </g>
   <g id="text_11">
    <!-- M [6] -->
    <g transform="translate(15.908736 198.401304) scale(0.1 -0.1)">
     <defs>
      <path id="DejaVuSans-4d" d="M 628 4666 
L 1569 4666 
L 2759 1491 
L 3956 4666 
L 4897 4666 
L 4897 0 
L 4281 0 
L 4281 4097 
L 3078 897 
L 2444 897 
L 1241 4097 
L 1241 0 
L 628 0 
L 628 4666 
z
" transform="scale(0.015625)"/>
      <path id="DejaVuSans-36" d="M 2113 2584 
Q 1688 2584 1439 2293 
Q 1191 2003 1191 1497 
Q 1191 994 1439 701 
Q 1688 409 2113 409 
Q 2538 409 2786 701 
Q 3034 994 3034 1497 
Q 3034 2003 2786 2293 
Q 2538 2584 2113 2584 
z
M 3366 4563 
L 3366 3988 
Q 3128 4100 2886 4159 
Q 2644 4219 2406 4219 
Q 1781 4219 1451 3797 
Q 1122 3375 1075 2522 
Q 1259 2794 1537 2939 
Q 1816 3084 2150 3084 
Q 2853 3084 3261 2657 
Q 3669 2231 3669 1497 
Q 3669 778 3244 343 
Q 2819 -91 2113 -91 
Q 1303 -91 875 529 
Q 447 1150 447 2328 
Q 447 3434 972 4092 
Q 1497 4750 2381 4750 
Q 2619 4750 2861 4703 
Q 3103 4656 3366 4563 
z
" transform="scale(0.015625)"/>
     </defs>
     <use xlink:href="#DejaVuSans-4d"/>
     <use xlink:href="#DejaVuSans-20" x="86.279297"/>
     <use xlink:href="#DejaVuSans-5b" x="118.066406"/>
     <use xlink:href="#DejaVuSans-36" x="157.080078"/>
     <use xlink:href="#DejaVuSans-5d" x="220.703125"/>
    </g>
   </g>
   <g id="text_12">
    <!-- N [14] -->
    <g transform="translate(20.237217 220.692922) scale(0.1 -0.1)">
     <defs>
      <path id="DejaVuSans-4e" d="M 628 4666 
L 1478 4666 
L 3547 763 
L 3547 4666 
L 4159 4666 
L 4159 0 
L 3309 0 
L 1241 3903 
L 1241 0 
L 628 0 
L 628 4666 
z
" transform="scale(0.015625)"/>
     </defs>
     <use xlink:href="#DejaVuSans-4e"/>
     <use xlink:href="#DejaVuSans-20" x="74.804688"/>
     <use xlink:href="#DejaVuSans-5b" x="106.591797"/>
     <use xlink:href="#DejaVuSans-31" x="145.605469"/>
     <use xlink:href="#DejaVuSans-34" x="209.228516"/>
     <use xlink:href="#DejaVuSans-5d" x="272.851562"/>
    </g>
   </g>
   <g id="text_13">
    <!-- P [19] -->
    <g transform="translate(45.29519 252.892043) scale(0.1 -0.1)">
     <defs>
      <path id="DejaVuSans-50" d="M 1259 4147 
L 1259 2394 
L 2053 2394 
Q 2494 2394 2734 2622 
Q 2975 2850 2975 3272 
Q 2975 3691 2734 3919 
Q 2494 4147 2053 4147 
L 1259 4147 
z
M 628 4666 
L 2053 4666 
Q 2838 4666 3239 4311 
Q 3641 3956 3641 3272 
Q 3641 2581 3239 2228 
Q 2838 1875 2053 1875 
L 1259 1875 
L 1259 0 
L 628 0 
L 628 4666 
z
" transform="scale(0.015625)"/>
     </defs>
     <use xlink:href="#DejaVuSans-50"/>
     <use xlink:href="#DejaVuSans-20" x="60.302734"/>
     <use xlink:href="#DejaVuSans-5b" x="92.089844"/>
     <use xlink:href="#DejaVuSans-31" x="131.103516"/>
     <use xlink:href="#DejaVuSans-39" x="194.726562"/>
     <use xlink:href="#DejaVuSans-5d" x="258.349609"/>
    </g>
   </g>
   <g id="text_14">
    <!-- Q [8] -->
    <g transform="translate(75.245016 273.454275) scale(0.1 -0.1)">
     <defs>
      <path id="DejaVuSans-51" d="M 2522 4238 
Q 1834 4238 1429 3725 
Q 1025 3213 1025 2328 
Q 1025 1447 1429 934 
Q 1834 422 2522 422 
Q 3209 422 3611 934 
Q 4013 1447 4013 2328 
Q 4013 3213 3611 3725 
Q 3209 4238 2522 4238 
z
M 3406 84 
L 4238 -825 
L 3475 -825 
L 2784 -78 
Q 2681 -84 2626 -87 
Q 2572 -91 2522 -91 
Q 1538 -91 948 567 
Q 359 1225 359 2328 
Q 359 3434 948 4092 
Q 1538 4750 2522 4750 
Q 3503 4750 4090 4092 
Q 4678 3434 4678 2328 
Q 4678 1516 4351 937 
Q 4025 359 3406 84 
z
" transform="scale(0.015625)"/>
     </defs>
     <use xlink:href="#DejaVuSans-51"/>
     <use xlink:href="#DejaVuSans-20" x="78.710938"/>
     <use xlink:href="#DejaVuSans-5b" x="110.498047"/>
     <use xlink:href="#DejaVuSans-38" x="149.511719"/>
     <use xlink:href="#DejaVuSans-5d" x="213.134766"/>
    </g>
   </g>
   <g id="text_15">
    <!-- R [22] -->
    <g transform="translate(102.746084 288.747448) scale(0.1 -0.1)">
     <defs>
      <path id="DejaVuSans-52" d="M 2841 2188 
Q 3044 2119 3236 1894 
Q 3428 1669 3622 1275 
L 4263 0 
L 3584 0 
L 2988 1197 
Q 2756 1666 2539 1819 
Q 2322 1972 1947 1972 
L 1259 1972 
L 1259 0 
L 628 0 
L 628 4666 
L 2053 4666 
Q 2853 4666 3247 4331 
Q 3641 3997 3641 3322 
Q 3641 2881 3436 2590 
Q 3231 2300 2841 2188 
z
M 1259 4147 
L 1259 2491 
L 2053 2491 
Q 2509 2491 2742 2702 
Q 2975 2913 2975 3322 
Q 2975 3731 2742 3939 
Q 2509 4147 2053 4147 
L 1259 4147 
z
" transform="scale(0.015625)"/>
     </defs>
     <use xlink:href="#DejaVuSans-52"/>
     <use xlink:href="#DejaVuSans-20" x="69.482422"/>
     <use xlink:href="#DejaVuSans-5b" x="101.269531"/>
     <use xlink:href="#DejaVuSans-32" x="140.283203"/>
     <use xlink:href="#DejaVuSans-32" x="203.90625"/>
     <use xlink:href="#DejaVuSans-5d" x="267.529297"/>
    </g>
   </g>
   <g id="text_16">
    <!-- S [28] -->
    <g transform="translate(193.384678 294.183278) scale(0.1 -0.1)">
     <defs>
      <path id="DejaVuSans-53" d="M 3425 4513 
L 3425 3897 
Q 3066 4069 2747 4153 
Q 2428 4238 2131 4238 
Q 1616 4238 1336 4038 
Q 1056 3838 1056 3469 
Q 1056 3159 1242 3001 
Q 1428 2844 1947 2747 
L 2328 2669 
Q 3034 2534 3370 2195 
Q 3706 1856 3706 1288 
Q 3706 609 3251 259 
Q 2797 -91 1919 -91 
Q 1588 -91 1214 -16 
Q 841 59 441 206 
L 441 856 
Q 825 641 1194 531 
Q 1563 422 1919 422 
Q 2459 422 2753 634 
Q 3047 847 3047 1241 
Q 3047 1584 2836 1778 
Q 2625 1972 2144 2069 
L 1759 2144 
Q 1053 2284 737 2584 
Q 422 2884 422 3419 
Q 422 4038 858 4394 
Q 1294 4750 2059 4750 
Q 2388 4750 2728 4690 
Q 3069 4631 3425 4513 
z
" transform="scale(0.015625)"/>
     </defs>
     <use xlink:href="#DejaVuSans-53"/>
     <use xlink:href="#DejaVuSans-20" x="63.476562"/>
     <use xlink:href="#DejaVuSans-5b" x="95.263672"/>
     <use xlink:href="#DejaVuSans-32" x="134.277344"/>
     <use xlink:href="#DejaVuSans-38" x="197.900391"/>
     <use xlink:href="#DejaVuSans-5d" x="261.523438"/>
    </g>
   </g>
   <g id="text_17">
    <!-- T [15] -->
    <g transform="translate(242.814996 278.357254) scale(0.1 -0.1)">
     <defs>
      <path id="DejaVuSans-54" d="M -19 4666 
L 3928 4666 
L 3928 4134 
L 2272 4134 
L 2272 0 
L 1638 0 
L 1638 4134 
L -19 4134 
L -19 4666 
z
" transform="scale(0.015625)"/>
     </defs>
     <use xlink:href="#DejaVuSans-54"/>
     <use xlink:href="#DejaVuSans-20" x="61.083984"/>
     <use xlink:href="#DejaVuSans-5b" x="92.871094"/>
     <use xlink:href="#DejaVuSans-31" x="131.884766"/>
     <use xlink:href="#DejaVuSans-35" x="195.507812"/>
     <use xlink:href="#DejaVuSans-5d" x="259.130859"/>
    </g>
   </g>
   <g id="text_18">
    <!-- V [31] -->
    <g transform="translate(285.500007 242.921203) scale(0.1 -0.1)">
     <defs>
      <path id="DejaVuSans-56" d="M 1831 0 
L 50 4666 
L 709 4666 
L 2188 738 
L 3669 4666 
L 4325 4666 
L 2547 0 
L 1831 0 
z
" transform="scale(0.015625)"/>
     </defs>
     <use xlink:href="#DejaVuSans-56"/>
     <use xlink:href="#DejaVuSans-20" x="68.408203"/>
     <use xlink:href="#DejaVuSans-5b" x="100.195312"/>
     <use xlink:href="#DejaVuSans-33" x="139.208984"/>
     <use xlink:href="#DejaVuSans-31" x="202.832031"/>
     <use xlink:href="#DejaVuSans-5d" x="266.455078"/>
    </g>
   </g>
   <g id="text_19">
    <!-- W [9] -->
    <g transform="translate(308.995808 200.700461) scale(0.1 -0.1)">
     <defs>
      <path id="DejaVuSans-57" d="M 213 4666 
L 850 4666 
L 1831 722 
L 2809 4666 
L 3519 4666 
L 4500 722 
L 5478 4666 
L 6119 4666 
L 4947 0 
L 4153 0 
L 3169 4050 
L 2175 0 
L 1381 0 
L 213 4666 
z
" transform="scale(0.015625)"/>
     </defs>
     <use xlink:href="#DejaVuSans-57"/>
     <use xlink:href="#DejaVuSans-20" x="98.876953"/>
     <use xlink:href="#DejaVuSans-5b" x="130.664062"/>
     <use xlink:href="#DejaVuSans-39" x="169.677734"/>
     <use xlink:href="#DejaVuSans-5d" x="233.300781"/>
    </g>
   </g>
   <g id="text_20">
    <!-- Y [15] -->
    <g transform="translate(315.693742 172.39946) scale(0.1 -0.1)">
     <defs>
      <path id="DejaVuSans-59" d="M -13 4666 
L 666 4666 
L 1959 2747 
L 3244 4666 
L 3922 4666 
L 2272 2222 
L 2272 0 
L 1638 0 
L 1638 2222 
L -13 4666 
z
" transform="scale(0.015625)"/>
     </defs>
     <use xlink:href="#DejaVuSans-59"/>
     <use xlink:href="#DejaVuSans-20" x="61.083984"/>
     <use xlink:href="#DejaVuSans-5b" x="92.871094"/>
     <use xlink:href="#DejaVuSans-31" x="131.884766"/>
     <use xlink:href="#DejaVuSans-35" x="195.507812"/>
     <use xlink:href="#DejaVuSans-5d" x="259.130859"/>
    </g>
   </g>
   <g id="text_21">
    <!-- Q8BUD0 [365] -->
    <g transform="translate(132.301021 151.481517) scale(0.12 -0.12)">
     <defs>
      <path id="DejaVuSans-42" d="M 1259 2228 
L 1259 519 
L 2272 519 
Q 2781 519 3026 730 
Q 3272 941 3272 1375 
Q 3272 1813 3026 2020 
Q 2781 2228 2272 2228 
L 1259 2228 
z
M 1259 4147 
L 1259 2741 
L 2194 2741 
Q 2656 2741 2882 2914 
Q 3109 3088 3109 3444 
Q 3109 3797 2882 3972 
Q 2656 4147 2194 4147 
L 1259 4147 
z
M 628 4666 
L 2241 4666 
Q 2963 4666 3353 4366 
Q 3744 4066 3744 3513 
Q 3744 3084 3544 2831 
Q 3344 2578 2956 2516 
Q 3422 2416 3680 2098 
Q 3938 1781 3938 1306 
Q 3938 681 3513 340 
Q 3088 0 2303 0 
L 628 0 
L 628 4666 
z
" transform="scale(0.015625)"/>
      <path id="DejaVuSans-55" d="M 556 4666 
L 1191 4666 
L 1191 1831 
Q 1191 1081 1462 751 
Q 1734 422 2344 422 
Q 2950 422 3222 751 
Q 3494 1081 3494 1831 
L 3494 4666 
L 4128 4666 
L 4128 1753 
Q 4128 841 3676 375 
Q 3225 -91 2344 -91 
Q 1459 -91 1007 375 
Q 556 841 556 1753 
L 556 4666 
z
" transform="scale(0.015625)"/>
      <path id="DejaVuSans-30" d="M 2034 4250 
Q 1547 4250 1301 3770 
Q 1056 3291 1056 2328 
Q 1056 1369 1301 889 
Q 1547 409 2034 409 
Q 2525 409 2770 889 
Q 3016 1369 3016 2328 
Q 3016 3291 2770 3770 
Q 2525 4250 2034 4250 
z
M 2034 4750 
Q 2819 4750 3233 4129 
Q 3647 3509 3647 2328 
Q 3647 1150 3233 529 
Q 2819 -91 2034 -91 
Q 1250 -91 836 529 
Q 422 1150 422 2328 
Q 422 3509 836 4129 
Q 1250 4750 2034 4750 
z
" transform="scale(0.015625)"/>
     </defs>
     <use xlink:href="#DejaVuSans-51"/>
     <use xlink:href="#DejaVuSans-38" x="78.710938"/>
     <use xlink:href="#DejaVuSans-42" x="142.333984"/>
     <use xlink:href="#DejaVuSans-55" x="210.9375"/>
     <use xlink:href="#DejaVuSans-44" x="284.130859"/>
     <use xlink:href="#DejaVuSans-30" x="361.132812"/>
     <use xlink:href="#DejaVuSans-20" x="424.755859"/>
     <use xlink:href="#DejaVuSans-5b" x="456.542969"/>
     <use xlink:href="#DejaVuSans-33" x="495.556641"/>
     <use xlink:href="#DejaVuSans-36" x="559.179688"/>
     <use xlink:href="#DejaVuSans-35" x="622.802734"/>
     <use xlink:href="#DejaVuSans-5d" x="686.425781"/>
    </g>
   </g>
  </g>
 </g>
</svg>
