<?xml version="1.0" encoding="utf-8" standalone="no"?>
<!DOCTYPE svg PUBLIC "-//W3C//DTD SVG 1.1//EN"
  "http://www.w3.org/Graphics/SVG/1.1/DTD/svg11.dtd">
<svg xmlns:xlink="http://www.w3.org/1999/xlink" width="350.548754pt" height="306.115555pt" viewBox="0 0 350.548754 306.115555" xmlns="http://www.w3.org/2000/svg" version="1.1">
 <metadata>
  <rdf:RDF xmlns:dc="http://purl.org/dc/elements/1.1/" xmlns:cc="http://creativecommons.org/ns#" xmlns:rdf="http://www.w3.org/1999/02/22-rdf-syntax-ns#">
   <cc:Work>
    <dc:type rdf:resource="http://purl.org/dc/dcmitype/StillImage"/>
    <dc:date>2024-09-27T16:07:13.074909</dc:date>
    <dc:format>image/svg+xml</dc:format>
    <dc:creator>
     <cc:Agent>
      <dc:title>Matplotlib v3.8.3, https://matplotlib.org/</dc:title>
     </cc:Agent>
    </dc:creator>
   </cc:Work>
  </rdf:RDF>
 </metadata>
 <defs>
  <style type="text/css">*{stroke-linejoin: round; stroke-linecap: butt}</style>
 </defs>
 <g id="figure_1">
  <g id="patch_1">
   <path d="M -0 306.115555 
L 350.548754 306.115555 
L 350.548754 0 
L -0 0 
z
" style="fill: #ffffff"/>
  </g>
  <g id="axes_1">
   <g id="patch_2">
    <path d="M 302.374907 152.976411 
C 302.374907 144.888023 301.606645 136.817889 300.080476 128.87479 
C 298.554308 120.931691 296.277121 113.151478 293.279612 105.639024 
L 174.641147 152.976411 
z
" style="fill: #1f77b4"/>
   </g>
   <g id="patch_3">
    <path d="M 293.232645 105.500753 
C 291.884572 102.12217 290.392791 98.802713 288.761382 95.551462 
C 287.129973 92.300211 285.360425 89.120132 283.457577 86.019923 
L 174.59418 152.83814 
z
" style="fill: #ff7f0e"/>
   </g>
   <g id="patch_4">
    <path d="M 283.415994 85.950708 
C 281.93609 83.539579 280.376491 81.178281 278.739779 78.870721 
C 277.103066 76.563162 275.390142 74.310614 273.603842 72.116807 
L 174.552597 152.768925 
z
" style="fill: #aec7e8"/>
   </g>
   <g id="patch_5">
    <path d="M 273.552267 72.054679 
C 271.255457 69.2339 268.839201 66.51252 266.310105 63.897983 
C 263.78101 61.283446 261.141383 58.778137 258.398444 56.388908 
L 174.501021 152.706798 
z
" style="fill: #ffbb78"/>
   </g>
   <g id="patch_6">
    <path d="M 258.274694 56.293874 
C 251.564668 50.449125 244.262208 45.321528 236.486356 40.994672 
C 228.710505 36.667817 220.503748 33.165344 211.99987 30.54435 
L 174.377271 152.611763 
z
" style="fill: #98df8a"/>
   </g>
   <g id="patch_7">
    <path d="M 211.834055 30.48538 
C 206.812001 28.937525 201.699208 27.701066 196.524834 26.783057 
C 191.35046 25.865048 186.124362 25.267237 180.876343 24.993032 
L 174.211456 152.552794 
z
" style="fill: #2ca02c"/>
   </g>
   <g id="patch_8">
    <path d="M 180.780845 24.984855 
C 178.359287 24.858331 175.934617 24.800787 173.509783 24.812295 
C 171.084949 24.823802 168.660934 24.904356 166.240686 25.053858 
L 174.115958 152.544616 
z
" style="fill: #d62728"/>
   </g>
   <g id="patch_9">
    <path d="M 166.100994 25.073205 
C 157.219297 25.621839 148.419195 27.097095 139.844145 29.474923 
C 131.269096 31.852752 122.965951 35.120161 115.070067 39.223886 
L 173.976266 152.563963 
z
" style="fill: #9467bd"/>
   </g>
   <g id="patch_10">
    <path d="M 114.890126 39.31311 
C 108.431793 42.669697 102.272157 46.572164 96.478504 50.977881 
C 90.684852 55.383598 85.278355 60.276464 80.318071 65.603033 
L 173.796326 152.653187 
z
" style="fill: #ff9896"/>
   </g>
   <g id="patch_11">
    <path d="M 80.129434 65.877176 
C 66.574128 80.433456 56.604365 97.956726 51.017037 117.04634 
C 45.429708 136.135954 44.377755 156.269374 47.945261 175.83732 
L 173.607689 152.92733 
z
" style="fill: #c5b0d5"/>
   </g>
   <g id="patch_12">
    <path d="M 47.948191 176.145996 
C 48.890745 181.315955 50.151453 186.422823 51.723124 191.437475 
C 53.294796 196.452127 55.174437 201.365012 57.351328 206.14811 
L 173.610619 153.236007 
z
" style="fill: #c49c94"/>
   </g>
   <g id="patch_13">
    <path d="M 57.405595 206.267347 
C 59.582486 211.050445 62.05248 215.694647 64.801492 220.173466 
C 67.550503 224.652285 70.573296 228.95719 73.85263 233.063631 
L 173.664886 153.355244 
z
" style="fill: #8c564b"/>
   </g>
   <g id="patch_14">
    <path d="M 73.930782 233.162453 
C 76.957718 236.952835 80.198108 240.56772 83.636204 243.989538 
C 87.0743 247.411356 90.704522 250.634555 94.509227 253.643469 
L 173.743038 153.454065 
z
" style="fill: #e377c2"/>
   </g>
   <g id="patch_15">
    <path d="M 94.587149 253.707534 
C 97.123238 255.713176 99.734567 257.6218 102.41549 259.429284 
C 105.096414 261.236767 107.845001 262.941805 110.65531 264.540714 
L 173.820961 153.518131 
z
" style="fill: #7f7f7f"/>
   </g>
   <g id="patch_16">
    <path d="M 110.748576 264.590886 
C 115.316228 267.189625 120.039904 269.504008 124.892665 271.520836 
C 129.745426 273.537663 134.718029 275.253094 139.782115 276.657346 
L 173.914227 153.568303 
z
" style="fill: #f7b6d2"/>
   </g>
   <g id="patch_17">
    <path d="M 139.973744 276.697951 
C 150.111533 279.50912 160.5579 281.057109 171.075273 281.306712 
C 181.592646 281.556315 192.100686 280.505626 202.360419 278.17854 
L 174.105856 153.608909 
z
" style="fill: #c7c7c7"/>
   </g>
   <g id="patch_18">
    <path d="M 202.586595 278.133969 
C 210.474623 276.344827 218.174911 273.810491 225.583662 270.565123 
C 232.992414 267.319755 240.07619 263.378003 246.739505 258.793 
L 174.332032 153.564338 
z
" style="fill: #dbdb8d"/>
   </g>
   <g id="patch_19">
    <path d="M 246.93867 258.641547 
C 256.942989 251.75761 265.914673 243.482018 273.582446 234.064999 
C 281.250219 224.647979 287.536013 214.185412 292.249765 202.99365 
L 174.531197 153.412885 
z
" style="fill: #bcbd22"/>
   </g>
   <g id="patch_20">
    <path d="M 292.336793 202.840685 
C 293.121133 200.978444 293.861173 199.097853 294.556288 197.2005 
C 295.251403 195.303148 295.901398 193.389568 296.505723 191.461376 
L 174.618225 153.25992 
z
" style="fill: #17becf"/>
   </g>
   <g id="patch_21">
    <path d="M 296.53208 191.358803 
C 298.46676 185.185917 299.929716 178.87497 300.908318 172.480453 
C 301.88692 166.085936 302.378343 159.626307 302.378342 153.157342 
L 174.644582 153.157347 
z
" style="fill: #9edae5"/>
   </g>
   <g id="patch_22">
    <path d="M 248.629843 153.076834 
C 248.629843 148.358608 248.18169 143.65103 247.291425 139.017555 
C 246.40116 134.384081 245.072801 129.845623 243.324254 125.463359 
L 174.118483 153.076834 
z
" style="fill: #ffffff"/>
   </g>
   <g id="patch_23">
    <path d="M 243.324254 125.463359 
C 242.537878 123.492518 241.667673 121.556169 240.716018 119.659606 
C 239.764363 117.763042 238.732126 115.907996 237.622132 114.099541 
L 174.118483 153.076834 
z
" style="fill: #ffffff"/>
   </g>
   <g id="patch_24">
    <path d="M 237.622132 114.099541 
C 236.758855 112.693049 235.849089 111.315625 234.894339 109.969549 
C 233.93959 108.623472 232.940385 107.309486 231.898376 106.029765 
L 174.118483 153.076834 
z
" style="fill: #ffffff"/>
   </g>
   <g id="patch_25">
    <path d="M 231.898376 106.029765 
C 230.558571 104.384311 229.149088 102.796839 227.673782 101.271693 
C 226.198477 99.746546 224.658694 98.285116 223.058647 96.891399 
L 174.118483 153.076834 
z
" style="fill: #ffffff"/>
   </g>
   <g id="patch_26">
    <path d="M 223.058647 96.891399 
C 219.144465 93.481962 214.884696 90.490864 210.348783 87.966865 
C 205.81287 85.442866 201.025595 83.399756 196.065 81.870843 
L 174.118483 153.076834 
z
" style="fill: #ffffff"/>
   </g>
   <g id="patch_27">
    <path d="M 196.065 81.870843 
C 193.135468 80.967927 190.153005 80.24666 187.134621 79.711155 
C 184.116236 79.175649 181.067678 78.826926 178.006334 78.666974 
L 174.118483 153.076834 
z
" style="fill: #ffffff"/>
   </g>
   <g id="patch_28">
    <path d="M 178.006334 78.666974 
C 176.593759 78.593168 175.179368 78.559601 173.764881 78.566313 
C 172.350395 78.573026 170.936386 78.620016 169.524575 78.707225 
L 174.118483 153.076834 
z
" style="fill: #ffffff"/>
   </g>
   <g id="patch_29">
    <path d="M 169.524575 78.707225 
C 164.343585 79.027262 159.210192 79.887828 154.20808 81.274894 
C 149.205967 82.661961 144.362466 84.56795 139.756534 86.961789 
L 174.118483 153.076834 
z
" style="fill: #ffffff"/>
   </g>
   <g id="patch_30">
    <path d="M 139.756534 86.961789 
C 135.989172 88.919799 132.396052 91.196237 129.016421 93.766239 
C 125.63679 96.33624 122.483 99.190413 119.589501 102.297578 
L 174.118483 153.076834 
z
" style="fill: #ffffff"/>
   </g>
   <g id="patch_31">
    <path d="M 119.589501 102.297578 
C 111.682239 110.788741 105.866544 121.010649 102.60727 132.146257 
C 99.347995 143.281865 98.734355 155.02636 100.8154 166.440995 
L 174.118483 153.076834 
z
" style="fill: #ffffff"/>
   </g>
   <g id="patch_32">
    <path d="M 100.8154 166.440995 
C 101.365224 169.456804 102.100637 172.43581 103.017445 175.361024 
C 103.934253 178.286238 105.03071 181.152087 106.300563 183.942228 
L 174.118483 153.076834 
z
" style="fill: #ffffff"/>
   </g>
   <g id="patch_33">
    <path d="M 106.300563 183.942228 
C 107.570416 186.732368 109.011247 189.441486 110.614837 192.054131 
C 112.218427 194.666775 113.981722 197.17797 115.894667 199.573393 
L 174.118483 153.076834 
z
" style="fill: #ffffff"/>
   </g>
   <g id="patch_34">
    <path d="M 115.894667 199.573393 
C 117.66038 201.78445 119.550607 203.893133 121.556163 205.889193 
C 123.561719 207.885254 125.679349 209.765453 127.89876 211.520653 
L 174.118483 153.076834 
z
" style="fill: #ffffff"/>
   </g>
   <g id="patch_35">
    <path d="M 127.89876 211.520653 
C 129.378145 212.690611 130.90142 213.803975 132.465292 214.85834 
C 134.029165 215.912705 135.632507 216.907311 137.271854 217.840008 
L 174.118483 153.076834 
z
" style="fill: #ffffff"/>
   </g>
   <g id="patch_36">
    <path d="M 137.271854 217.840008 
C 139.936317 219.355939 142.691795 220.705995 145.522572 221.882478 
C 148.35335 223.058961 151.254035 224.059629 154.208085 224.878776 
L 174.118483 153.076834 
z
" style="fill: #ffffff"/>
   </g>
   <g id="patch_37">
    <path d="M 154.208085 224.878776 
C 160.121795 226.518625 166.215509 227.421618 172.350643 227.56722 
C 178.485778 227.712822 184.615468 227.09992 190.600312 225.742453 
L 174.118483 153.076834 
z
" style="fill: #ffffff"/>
   </g>
   <g id="patch_38">
    <path d="M 190.600312 225.742453 
C 195.201661 224.698786 199.693496 223.220424 204.015268 221.327293 
C 208.33704 219.434161 212.469242 217.134806 216.356176 214.460221 
L 174.118483 153.076834 
z
" style="fill: #ffffff"/>
   </g>
   <g id="patch_39">
    <path d="M 216.356176 214.460221 
C 222.192029 210.444591 227.425511 205.617162 231.898379 200.123901 
C 236.371246 194.63064 240.037959 188.527475 242.787648 181.998947 
L 174.118483 153.076834 
z
" style="fill: #ffffff"/>
   </g>
   <g id="patch_40">
    <path d="M 242.787648 181.998947 
C 243.245179 180.91264 243.676869 179.815628 244.082353 178.708839 
C 244.487837 177.60205 244.867001 176.485795 245.219524 175.361017 
L 174.118483 153.076834 
z
" style="fill: #ffffff"/>
   </g>
   <g id="patch_41">
    <path d="M 245.219524 175.361017 
C 246.348087 171.760167 247.201478 168.078781 247.772329 164.348646 
C 248.34318 160.618511 248.629843 156.850394 248.629843 153.076831 
L 174.118483 153.076834 
z
" style="fill: #ffffff"/>
   </g>
   <g id="matplotlib.axis_1"/>
   <g id="matplotlib.axis_2"/>
   <g id="text_1">
    <!-- A [20] -->
    <g transform="translate(312.624409 129.224003) scale(0.1 -0.1)">
     <defs>
      <path id="DejaVuSans-41" d="M 2188 4044 
L 1331 1722 
L 3047 1722 
L 2188 4044 
z
M 1831 4666 
L 2547 4666 
L 4325 0 
L 3669 0 
L 3244 1197 
L 1141 1197 
L 716 0 
L 50 0 
L 1831 4666 
z
" transform="scale(0.015625)"/>
      <path id="DejaVuSans-20" transform="scale(0.015625)"/>
      <path id="DejaVuSans-5b" d="M 550 4863 
L 1875 4863 
L 1875 4416 
L 1125 4416 
L 1125 -397 
L 1875 -397 
L 1875 -844 
L 550 -844 
L 550 4863 
z
" transform="scale(0.015625)"/>
      <path id="DejaVuSans-32" d="M 1228 531 
L 3431 531 
L 3431 0 
L 469 0 
L 469 531 
Q 828 903 1448 1529 
Q 2069 2156 2228 2338 
Q 2531 2678 2651 2914 
Q 2772 3150 2772 3378 
Q 2772 3750 2511 3984 
Q 2250 4219 1831 4219 
Q 1534 4219 1204 4116 
Q 875 4013 500 3803 
L 500 4441 
Q 881 4594 1212 4672 
Q 1544 4750 1819 4750 
Q 2544 4750 2975 4387 
Q 3406 4025 3406 3419 
Q 3406 3131 3298 2873 
Q 3191 2616 2906 2266 
Q 2828 2175 2409 1742 
Q 1991 1309 1228 531 
z
" transform="scale(0.015625)"/>
      <path id="DejaVuSans-30" d="M 2034 4250 
Q 1547 4250 1301 3770 
Q 1056 3291 1056 2328 
Q 1056 1369 1301 889 
Q 1547 409 2034 409 
Q 2525 409 2770 889 
Q 3016 1369 3016 2328 
Q 3016 3291 2770 3770 
Q 2525 4250 2034 4250 
z
M 2034 4750 
Q 2819 4750 3233 4129 
Q 3647 3509 3647 2328 
Q 3647 1150 3233 529 
Q 2819 -91 2034 -91 
Q 1250 -91 836 529 
Q 422 1150 422 2328 
Q 422 3509 836 4129 
Q 1250 4750 2034 4750 
z
" transform="scale(0.015625)"/>
      <path id="DejaVuSans-5d" d="M 1947 4863 
L 1947 -844 
L 622 -844 
L 622 -397 
L 1369 -397 
L 1369 4416 
L 622 4416 
L 622 4863 
L 1947 4863 
z
" transform="scale(0.015625)"/>
     </defs>
     <use xlink:href="#DejaVuSans-41"/>
     <use xlink:href="#DejaVuSans-20" x="68.408203"/>
     <use xlink:href="#DejaVuSans-5b" x="100.195312"/>
     <use xlink:href="#DejaVuSans-32" x="139.208984"/>
     <use xlink:href="#DejaVuSans-30" x="202.832031"/>
     <use xlink:href="#DejaVuSans-5d" x="266.455078"/>
    </g>
   </g>
   <g id="text_2">
    <!-- C [9] -->
    <g transform="translate(300.178102 92.582169) scale(0.1 -0.1)">
     <defs>
      <path id="DejaVuSans-43" d="M 4122 4306 
L 4122 3641 
Q 3803 3938 3442 4084 
Q 3081 4231 2675 4231 
Q 1875 4231 1450 3742 
Q 1025 3253 1025 2328 
Q 1025 1406 1450 917 
Q 1875 428 2675 428 
Q 3081 428 3442 575 
Q 3803 722 4122 1019 
L 4122 359 
Q 3791 134 3420 21 
Q 3050 -91 2638 -91 
Q 1578 -91 968 557 
Q 359 1206 359 2328 
Q 359 3453 968 4101 
Q 1578 4750 2638 4750 
Q 3056 4750 3426 4639 
Q 3797 4528 4122 4306 
z
" transform="scale(0.015625)"/>
      <path id="DejaVuSans-39" d="M 703 97 
L 703 672 
Q 941 559 1184 500 
Q 1428 441 1663 441 
Q 2288 441 2617 861 
Q 2947 1281 2994 2138 
Q 2813 1869 2534 1725 
Q 2256 1581 1919 1581 
Q 1219 1581 811 2004 
Q 403 2428 403 3163 
Q 403 3881 828 4315 
Q 1253 4750 1959 4750 
Q 2769 4750 3195 4129 
Q 3622 3509 3622 2328 
Q 3622 1225 3098 567 
Q 2575 -91 1691 -91 
Q 1453 -91 1209 -44 
Q 966 3 703 97 
z
M 1959 2075 
Q 2384 2075 2632 2365 
Q 2881 2656 2881 3163 
Q 2881 3666 2632 3958 
Q 2384 4250 1959 4250 
Q 1534 4250 1286 3958 
Q 1038 3666 1038 3163 
Q 1038 2656 1286 2365 
Q 1534 2075 1959 2075 
z
" transform="scale(0.015625)"/>
     </defs>
     <use xlink:href="#DejaVuSans-43"/>
     <use xlink:href="#DejaVuSans-20" x="69.824219"/>
     <use xlink:href="#DejaVuSans-5b" x="101.611328"/>
     <use xlink:href="#DejaVuSans-39" x="140.625"/>
     <use xlink:href="#DejaVuSans-5d" x="204.248047"/>
    </g>
   </g>
   <g id="text_3">
    <!-- D [7] -->
    <g transform="translate(289.158497 74.240276) scale(0.1 -0.1)">
     <defs>
      <path id="DejaVuSans-44" d="M 1259 4147 
L 1259 519 
L 2022 519 
Q 2988 519 3436 956 
Q 3884 1394 3884 2338 
Q 3884 3275 3436 3711 
Q 2988 4147 2022 4147 
L 1259 4147 
z
M 628 4666 
L 1925 4666 
Q 3281 4666 3915 4102 
Q 4550 3538 4550 2338 
Q 4550 1131 3912 565 
Q 3275 0 1925 0 
L 628 0 
L 628 4666 
z
" transform="scale(0.015625)"/>
      <path id="DejaVuSans-37" d="M 525 4666 
L 3525 4666 
L 3525 4397 
L 1831 0 
L 1172 0 
L 2766 4134 
L 525 4134 
L 525 4666 
z
" transform="scale(0.015625)"/>
     </defs>
     <use xlink:href="#DejaVuSans-44"/>
     <use xlink:href="#DejaVuSans-20" x="77.001953"/>
     <use xlink:href="#DejaVuSans-5b" x="108.789062"/>
     <use xlink:href="#DejaVuSans-37" x="147.802734"/>
     <use xlink:href="#DejaVuSans-5d" x="211.425781"/>
    </g>
   </g>
   <g id="text_4">
    <!-- E [9] -->
    <g transform="translate(275.491014 57.776477) scale(0.1 -0.1)">
     <defs>
      <path id="DejaVuSans-45" d="M 628 4666 
L 3578 4666 
L 3578 4134 
L 1259 4134 
L 1259 2753 
L 3481 2753 
L 3481 2222 
L 1259 2222 
L 1259 531 
L 3634 531 
L 3634 0 
L 628 0 
L 628 4666 
z
" transform="scale(0.015625)"/>
     </defs>
     <use xlink:href="#DejaVuSans-45"/>
     <use xlink:href="#DejaVuSans-20" x="63.183594"/>
     <use xlink:href="#DejaVuSans-5b" x="94.970703"/>
     <use xlink:href="#DejaVuSans-39" x="133.984375"/>
     <use xlink:href="#DejaVuSans-5d" x="197.607422"/>
    </g>
   </g>
   <g id="text_5">
    <!-- F [22] -->
    <g transform="translate(242.697265 32.592338) scale(0.1 -0.1)">
     <defs>
      <path id="DejaVuSans-46" d="M 628 4666 
L 3309 4666 
L 3309 4134 
L 1259 4134 
L 1259 2759 
L 3109 2759 
L 3109 2228 
L 1259 2228 
L 1259 0 
L 628 0 
L 628 4666 
z
" transform="scale(0.015625)"/>
     </defs>
     <use xlink:href="#DejaVuSans-46"/>
     <use xlink:href="#DejaVuSans-20" x="57.519531"/>
     <use xlink:href="#DejaVuSans-5b" x="89.306641"/>
     <use xlink:href="#DejaVuSans-32" x="128.320312"/>
     <use xlink:href="#DejaVuSans-32" x="191.943359"/>
     <use xlink:href="#DejaVuSans-5d" x="255.566406"/>
    </g>
   </g>
   <g id="text_6">
    <!-- G [13] -->
    <g transform="translate(198.756172 16.965459) scale(0.1 -0.1)">
     <defs>
      <path id="DejaVuSans-47" d="M 3809 666 
L 3809 1919 
L 2778 1919 
L 2778 2438 
L 4434 2438 
L 4434 434 
Q 4069 175 3628 42 
Q 3188 -91 2688 -91 
Q 1594 -91 976 548 
Q 359 1188 359 2328 
Q 359 3472 976 4111 
Q 1594 4750 2688 4750 
Q 3144 4750 3555 4637 
Q 3966 4525 4313 4306 
L 4313 3634 
Q 3963 3931 3569 4081 
Q 3175 4231 2741 4231 
Q 1884 4231 1454 3753 
Q 1025 3275 1025 2328 
Q 1025 1384 1454 906 
Q 1884 428 2741 428 
Q 3075 428 3337 486 
Q 3600 544 3809 666 
z
" transform="scale(0.015625)"/>
      <path id="DejaVuSans-31" d="M 794 531 
L 1825 531 
L 1825 4091 
L 703 3866 
L 703 4441 
L 1819 4666 
L 2450 4666 
L 2450 531 
L 3481 531 
L 3481 0 
L 794 0 
L 794 531 
z
" transform="scale(0.015625)"/>
      <path id="DejaVuSans-33" d="M 2597 2516 
Q 3050 2419 3304 2112 
Q 3559 1806 3559 1356 
Q 3559 666 3084 287 
Q 2609 -91 1734 -91 
Q 1441 -91 1130 -33 
Q 819 25 488 141 
L 488 750 
Q 750 597 1062 519 
Q 1375 441 1716 441 
Q 2309 441 2620 675 
Q 2931 909 2931 1356 
Q 2931 1769 2642 2001 
Q 2353 2234 1838 2234 
L 1294 2234 
L 1294 2753 
L 1863 2753 
Q 2328 2753 2575 2939 
Q 2822 3125 2822 3475 
Q 2822 3834 2567 4026 
Q 2313 4219 1838 4219 
Q 1578 4219 1281 4162 
Q 984 4106 628 3988 
L 628 4550 
Q 988 4650 1302 4700 
Q 1616 4750 1894 4750 
Q 2613 4750 3031 4423 
Q 3450 4097 3450 3541 
Q 3450 3153 3228 2886 
Q 3006 2619 2597 2516 
z
" transform="scale(0.015625)"/>
     </defs>
     <use xlink:href="#DejaVuSans-47"/>
     <use xlink:href="#DejaVuSans-20" x="77.490234"/>
     <use xlink:href="#DejaVuSans-5b" x="109.277344"/>
     <use xlink:href="#DejaVuSans-31" x="148.291016"/>
     <use xlink:href="#DejaVuSans-33" x="211.914062"/>
     <use xlink:href="#DejaVuSans-5d" x="275.537109"/>
    </g>
   </g>
   <g id="text_7">
    <!-- H [6] -->
    <g transform="translate(148.585103 14.798437) scale(0.1 -0.1)">
     <defs>
      <path id="DejaVuSans-48" d="M 628 4666 
L 1259 4666 
L 1259 2753 
L 3553 2753 
L 3553 4666 
L 4184 4666 
L 4184 0 
L 3553 0 
L 3553 2222 
L 1259 2222 
L 1259 0 
L 628 0 
L 628 4666 
z
" transform="scale(0.015625)"/>
      <path id="DejaVuSans-36" d="M 2113 2584 
Q 1688 2584 1439 2293 
Q 1191 2003 1191 1497 
Q 1191 994 1439 701 
Q 1688 409 2113 409 
Q 2538 409 2786 701 
Q 3034 994 3034 1497 
Q 3034 2003 2786 2293 
Q 2538 2584 2113 2584 
z
M 3366 4563 
L 3366 3988 
Q 3128 4100 2886 4159 
Q 2644 4219 2406 4219 
Q 1781 4219 1451 3797 
Q 1122 3375 1075 2522 
Q 1259 2794 1537 2939 
Q 1816 3084 2150 3084 
Q 2853 3084 3261 2657 
Q 3669 2231 3669 1497 
Q 3669 778 3244 343 
Q 2819 -91 2113 -91 
Q 1303 -91 875 529 
Q 447 1150 447 2328 
Q 447 3434 972 4092 
Q 1497 4750 2381 4750 
Q 2619 4750 2861 4703 
Q 3103 4656 3366 4563 
z
" transform="scale(0.015625)"/>
     </defs>
     <use xlink:href="#DejaVuSans-48"/>
     <use xlink:href="#DejaVuSans-20" x="75.195312"/>
     <use xlink:href="#DejaVuSans-5b" x="106.982422"/>
     <use xlink:href="#DejaVuSans-36" x="145.996094"/>
     <use xlink:href="#DejaVuSans-5d" x="209.619141"/>
    </g>
   </g>
   <g id="text_8">
    <!-- I [22] -->
    <g transform="translate(109.774683 19.925394) scale(0.1 -0.1)">
     <defs>
      <path id="DejaVuSans-49" d="M 628 4666 
L 1259 4666 
L 1259 0 
L 628 0 
L 628 4666 
z
" transform="scale(0.015625)"/>
     </defs>
     <use xlink:href="#DejaVuSans-49"/>
     <use xlink:href="#DejaVuSans-20" x="29.492188"/>
     <use xlink:href="#DejaVuSans-5b" x="61.279297"/>
     <use xlink:href="#DejaVuSans-32" x="100.292969"/>
     <use xlink:href="#DejaVuSans-32" x="163.916016"/>
     <use xlink:href="#DejaVuSans-5d" x="227.539062"/>
    </g>
   </g>
   <g id="text_9">
    <!-- K [18] -->
    <g transform="translate(58.48266 43.569725) scale(0.1 -0.1)">
     <defs>
      <path id="DejaVuSans-4b" d="M 628 4666 
L 1259 4666 
L 1259 2694 
L 3353 4666 
L 4166 4666 
L 1850 2491 
L 4331 0 
L 3500 0 
L 1259 2247 
L 1259 0 
L 628 0 
L 628 4666 
z
" transform="scale(0.015625)"/>
      <path id="DejaVuSans-38" d="M 2034 2216 
Q 1584 2216 1326 1975 
Q 1069 1734 1069 1313 
Q 1069 891 1326 650 
Q 1584 409 2034 409 
Q 2484 409 2743 651 
Q 3003 894 3003 1313 
Q 3003 1734 2745 1975 
Q 2488 2216 2034 2216 
z
M 1403 2484 
Q 997 2584 770 2862 
Q 544 3141 544 3541 
Q 544 4100 942 4425 
Q 1341 4750 2034 4750 
Q 2731 4750 3128 4425 
Q 3525 4100 3525 3541 
Q 3525 3141 3298 2862 
Q 3072 2584 2669 2484 
Q 3125 2378 3379 2068 
Q 3634 1759 3634 1313 
Q 3634 634 3220 271 
Q 2806 -91 2034 -91 
Q 1263 -91 848 271 
Q 434 634 434 1313 
Q 434 1759 690 2068 
Q 947 2378 1403 2484 
z
M 1172 3481 
Q 1172 3119 1398 2916 
Q 1625 2713 2034 2713 
Q 2441 2713 2670 2916 
Q 2900 3119 2900 3481 
Q 2900 3844 2670 4047 
Q 2441 4250 2034 4250 
Q 1625 4250 1398 4047 
Q 1172 3844 1172 3481 
z
" transform="scale(0.015625)"/>
     </defs>
     <use xlink:href="#DejaVuSans-4b"/>
     <use xlink:href="#DejaVuSans-20" x="65.576172"/>
     <use xlink:href="#DejaVuSans-5b" x="97.363281"/>
     <use xlink:href="#DejaVuSans-31" x="136.376953"/>
     <use xlink:href="#DejaVuSans-38" x="200"/>
     <use xlink:href="#DejaVuSans-5d" x="263.623047"/>
    </g>
   </g>
   <g id="text_10">
    <!-- L [49] -->
    <g transform="translate(9.479847 116.217616) scale(0.1 -0.1)">
     <defs>
      <path id="DejaVuSans-4c" d="M 628 4666 
L 1259 4666 
L 1259 531 
L 3531 531 
L 3531 0 
L 628 0 
L 628 4666 
z
" transform="scale(0.015625)"/>
      <path id="DejaVuSans-34" d="M 2419 4116 
L 825 1625 
L 2419 1625 
L 2419 4116 
z
M 2253 4666 
L 3047 4666 
L 3047 1625 
L 3713 1625 
L 3713 1100 
L 3047 1100 
L 3047 0 
L 2419 0 
L 2419 1100 
L 313 1100 
L 313 1709 
L 2253 4666 
z
" transform="scale(0.015625)"/>
     </defs>
     <use xlink:href="#DejaVuSans-4c"/>
     <use xlink:href="#DejaVuSans-20" x="55.712891"/>
     <use xlink:href="#DejaVuSans-5b" x="87.5"/>
     <use xlink:href="#DejaVuSans-34" x="126.513672"/>
     <use xlink:href="#DejaVuSans-39" x="190.136719"/>
     <use xlink:href="#DejaVuSans-5d" x="253.759766"/>
    </g>
   </g>
   <g id="text_11">
    <!-- M [13] -->
    <g transform="translate(7.2 198.016997) scale(0.1 -0.1)">
     <defs>
      <path id="DejaVuSans-4d" d="M 628 4666 
L 1569 4666 
L 2759 1491 
L 3956 4666 
L 4897 4666 
L 4897 0 
L 4281 0 
L 4281 4097 
L 3078 897 
L 2444 897 
L 1241 4097 
L 1241 0 
L 628 0 
L 628 4666 
z
" transform="scale(0.015625)"/>
     </defs>
     <use xlink:href="#DejaVuSans-4d"/>
     <use xlink:href="#DejaVuSans-20" x="86.279297"/>
     <use xlink:href="#DejaVuSans-5b" x="118.066406"/>
     <use xlink:href="#DejaVuSans-31" x="157.080078"/>
     <use xlink:href="#DejaVuSans-33" x="220.703125"/>
     <use xlink:href="#DejaVuSans-5d" x="284.326172"/>
    </g>
   </g>
   <g id="text_12">
    <!-- N [13] -->
    <g transform="translate(22.727652 229.614663) scale(0.1 -0.1)">
     <defs>
      <path id="DejaVuSans-4e" d="M 628 4666 
L 1478 4666 
L 3547 763 
L 3547 4666 
L 4159 4666 
L 4159 0 
L 3309 0 
L 1241 3903 
L 1241 0 
L 628 0 
L 628 4666 
z
" transform="scale(0.015625)"/>
     </defs>
     <use xlink:href="#DejaVuSans-4e"/>
     <use xlink:href="#DejaVuSans-20" x="74.804688"/>
     <use xlink:href="#DejaVuSans-5b" x="106.591797"/>
     <use xlink:href="#DejaVuSans-31" x="145.605469"/>
     <use xlink:href="#DejaVuSans-33" x="209.228516"/>
     <use xlink:href="#DejaVuSans-5d" x="272.851562"/>
    </g>
   </g>
   <g id="text_13">
    <!-- P [12] -->
    <g transform="translate(44.889583 255.802461) scale(0.1 -0.1)">
     <defs>
      <path id="DejaVuSans-50" d="M 1259 4147 
L 1259 2394 
L 2053 2394 
Q 2494 2394 2734 2622 
Q 2975 2850 2975 3272 
Q 2975 3691 2734 3919 
Q 2494 4147 2053 4147 
L 1259 4147 
z
M 628 4666 
L 2053 4666 
Q 2838 4666 3239 4311 
Q 3641 3956 3641 3272 
Q 3641 2581 3239 2228 
Q 2838 1875 2053 1875 
L 1259 1875 
L 1259 0 
L 628 0 
L 628 4666 
z
" transform="scale(0.015625)"/>
     </defs>
     <use xlink:href="#DejaVuSans-50"/>
     <use xlink:href="#DejaVuSans-20" x="60.302734"/>
     <use xlink:href="#DejaVuSans-5b" x="92.089844"/>
     <use xlink:href="#DejaVuSans-31" x="131.103516"/>
     <use xlink:href="#DejaVuSans-32" x="194.726562"/>
     <use xlink:href="#DejaVuSans-5d" x="258.349609"/>
    </g>
   </g>
   <g id="text_14">
    <!-- Q [8] -->
    <g transform="translate(70.059318 272.779774) scale(0.1 -0.1)">
     <defs>
      <path id="DejaVuSans-51" d="M 2522 4238 
Q 1834 4238 1429 3725 
Q 1025 3213 1025 2328 
Q 1025 1447 1429 934 
Q 1834 422 2522 422 
Q 3209 422 3611 934 
Q 4013 1447 4013 2328 
Q 4013 3213 3611 3725 
Q 3209 4238 2522 4238 
z
M 3406 84 
L 4238 -825 
L 3475 -825 
L 2784 -78 
Q 2681 -84 2626 -87 
Q 2572 -91 2522 -91 
Q 1538 -91 948 567 
Q 359 1225 359 2328 
Q 359 3434 948 4092 
Q 1538 4750 2522 4750 
Q 3503 4750 4090 4092 
Q 4678 3434 4678 2328 
Q 4678 1516 4351 937 
Q 4025 359 3406 84 
z
" transform="scale(0.015625)"/>
     </defs>
     <use xlink:href="#DejaVuSans-51"/>
     <use xlink:href="#DejaVuSans-20" x="78.710938"/>
     <use xlink:href="#DejaVuSans-5b" x="110.498047"/>
     <use xlink:href="#DejaVuSans-38" x="149.511719"/>
     <use xlink:href="#DejaVuSans-5d" x="213.134766"/>
    </g>
   </g>
   <g id="text_15">
    <!-- R [13] -->
    <g transform="translate(89.335821 286.075464) scale(0.1 -0.1)">
     <defs>
      <path id="DejaVuSans-52" d="M 2841 2188 
Q 3044 2119 3236 1894 
Q 3428 1669 3622 1275 
L 4263 0 
L 3584 0 
L 2988 1197 
Q 2756 1666 2539 1819 
Q 2322 1972 1947 1972 
L 1259 1972 
L 1259 0 
L 628 0 
L 628 4666 
L 2053 4666 
Q 2853 4666 3247 4331 
Q 3641 3997 3641 3322 
Q 3641 2881 3436 2590 
Q 3231 2300 2841 2188 
z
M 1259 4147 
L 1259 2491 
L 2053 2491 
Q 2509 2491 2742 2702 
Q 2975 2913 2975 3322 
Q 2975 3731 2742 3939 
Q 2509 4147 2053 4147 
L 1259 4147 
z
" transform="scale(0.015625)"/>
     </defs>
     <use xlink:href="#DejaVuSans-52"/>
     <use xlink:href="#DejaVuSans-20" x="69.482422"/>
     <use xlink:href="#DejaVuSans-5b" x="101.269531"/>
     <use xlink:href="#DejaVuSans-31" x="140.283203"/>
     <use xlink:href="#DejaVuSans-33" x="203.90625"/>
     <use xlink:href="#DejaVuSans-5d" x="267.529297"/>
    </g>
   </g>
   <g id="text_16">
    <!-- S [26] -->
    <g transform="translate(140.717527 296.835867) scale(0.1 -0.1)">
     <defs>
      <path id="DejaVuSans-53" d="M 3425 4513 
L 3425 3897 
Q 3066 4069 2747 4153 
Q 2428 4238 2131 4238 
Q 1616 4238 1336 4038 
Q 1056 3838 1056 3469 
Q 1056 3159 1242 3001 
Q 1428 2844 1947 2747 
L 2328 2669 
Q 3034 2534 3370 2195 
Q 3706 1856 3706 1288 
Q 3706 609 3251 259 
Q 2797 -91 1919 -91 
Q 1588 -91 1214 -16 
Q 841 59 441 206 
L 441 856 
Q 825 641 1194 531 
Q 1563 422 1919 422 
Q 2459 422 2753 634 
Q 3047 847 3047 1241 
Q 3047 1584 2836 1778 
Q 2625 1972 2144 2069 
L 1759 2144 
Q 1053 2284 737 2584 
Q 422 2884 422 3419 
Q 422 4038 858 4394 
Q 1294 4750 2059 4750 
Q 2388 4750 2728 4690 
Q 3069 4631 3425 4513 
z
" transform="scale(0.015625)"/>
     </defs>
     <use xlink:href="#DejaVuSans-53"/>
     <use xlink:href="#DejaVuSans-20" x="63.476562"/>
     <use xlink:href="#DejaVuSans-5b" x="95.263672"/>
     <use xlink:href="#DejaVuSans-32" x="134.277344"/>
     <use xlink:href="#DejaVuSans-36" x="197.900391"/>
     <use xlink:href="#DejaVuSans-5d" x="261.523438"/>
    </g>
   </g>
   <g id="text_17">
    <!-- T [20] -->
    <g transform="translate(230.708825 285.024577) scale(0.1 -0.1)">
     <defs>
      <path id="DejaVuSans-54" d="M -19 4666 
L 3928 4666 
L 3928 4134 
L 2272 4134 
L 2272 0 
L 1638 0 
L 1638 4134 
L -19 4134 
L -19 4666 
z
" transform="scale(0.015625)"/>
     </defs>
     <use xlink:href="#DejaVuSans-54"/>
     <use xlink:href="#DejaVuSans-20" x="61.083984"/>
     <use xlink:href="#DejaVuSans-5b" x="92.871094"/>
     <use xlink:href="#DejaVuSans-32" x="131.884766"/>
     <use xlink:href="#DejaVuSans-30" x="195.507812"/>
     <use xlink:href="#DejaVuSans-5d" x="259.130859"/>
    </g>
   </g>
   <g id="text_18">
    <!-- V [30] -->
    <g transform="translate(283.487571 244.889585) scale(0.1 -0.1)">
     <defs>
      <path id="DejaVuSans-56" d="M 1831 0 
L 50 4666 
L 709 4666 
L 2188 738 
L 3669 4666 
L 4325 4666 
L 2547 0 
L 1831 0 
z
" transform="scale(0.015625)"/>
     </defs>
     <use xlink:href="#DejaVuSans-56"/>
     <use xlink:href="#DejaVuSans-20" x="68.408203"/>
     <use xlink:href="#DejaVuSans-5b" x="100.195312"/>
     <use xlink:href="#DejaVuSans-33" x="139.208984"/>
     <use xlink:href="#DejaVuSans-30" x="202.832031"/>
     <use xlink:href="#DejaVuSans-5d" x="266.455078"/>
    </g>
   </g>
   <g id="text_19">
    <!-- W [5] -->
    <g transform="translate(306.550094 204.353933) scale(0.1 -0.1)">
     <defs>
      <path id="DejaVuSans-57" d="M 213 4666 
L 850 4666 
L 1831 722 
L 2809 4666 
L 3519 4666 
L 4500 722 
L 5478 4666 
L 6119 4666 
L 4947 0 
L 4153 0 
L 3169 4050 
L 2175 0 
L 1381 0 
L 213 4666 
z
" transform="scale(0.015625)"/>
      <path id="DejaVuSans-35" d="M 691 4666 
L 3169 4666 
L 3169 4134 
L 1269 4134 
L 1269 2991 
Q 1406 3038 1543 3061 
Q 1681 3084 1819 3084 
Q 2600 3084 3056 2656 
Q 3513 2228 3513 1497 
Q 3513 744 3044 326 
Q 2575 -91 1722 -91 
Q 1428 -91 1123 -41 
Q 819 9 494 109 
L 494 744 
Q 775 591 1075 516 
Q 1375 441 1709 441 
Q 2250 441 2565 725 
Q 2881 1009 2881 1497 
Q 2881 1984 2565 2268 
Q 2250 2553 1709 2553 
Q 1456 2553 1204 2497 
Q 953 2441 691 2322 
L 691 4666 
z
" transform="scale(0.015625)"/>
     </defs>
     <use xlink:href="#DejaVuSans-57"/>
     <use xlink:href="#DejaVuSans-20" x="98.876953"/>
     <use xlink:href="#DejaVuSans-5b" x="130.664062"/>
     <use xlink:href="#DejaVuSans-35" x="169.677734"/>
     <use xlink:href="#DejaVuSans-5d" x="233.300781"/>
    </g>
   </g>
   <g id="text_20">
    <!-- Y [16] -->
    <g transform="translate(313.534692 177.172138) scale(0.1 -0.1)">
     <defs>
      <path id="DejaVuSans-59" d="M -13 4666 
L 666 4666 
L 1959 2747 
L 3244 4666 
L 3922 4666 
L 2272 2222 
L 2272 0 
L 1638 0 
L 1638 2222 
L -13 4666 
z
" transform="scale(0.015625)"/>
     </defs>
     <use xlink:href="#DejaVuSans-59"/>
     <use xlink:href="#DejaVuSans-20" x="61.083984"/>
     <use xlink:href="#DejaVuSans-5b" x="92.871094"/>
     <use xlink:href="#DejaVuSans-31" x="131.884766"/>
     <use xlink:href="#DejaVuSans-36" x="195.507812"/>
     <use xlink:href="#DejaVuSans-5d" x="259.130859"/>
    </g>
   </g>
   <g id="text_21">
    <!-- Q8K1Z6 [331] -->
    <g transform="translate(131.856921 153.076834) scale(0.12 -0.12)">
     <defs>
      <path id="DejaVuSans-5a" d="M 359 4666 
L 4025 4666 
L 4025 4184 
L 1075 531 
L 4097 531 
L 4097 0 
L 288 0 
L 288 481 
L 3238 4134 
L 359 4134 
L 359 4666 
z
" transform="scale(0.015625)"/>
     </defs>
     <use xlink:href="#DejaVuSans-51"/>
     <use xlink:href="#DejaVuSans-38" x="78.710938"/>
     <use xlink:href="#DejaVuSans-4b" x="142.333984"/>
     <use xlink:href="#DejaVuSans-31" x="207.910156"/>
     <use xlink:href="#DejaVuSans-5a" x="271.533203"/>
     <use xlink:href="#DejaVuSans-36" x="340.039062"/>
     <use xlink:href="#DejaVuSans-20" x="403.662109"/>
     <use xlink:href="#DejaVuSans-5b" x="435.449219"/>
     <use xlink:href="#DejaVuSans-33" x="474.462891"/>
     <use xlink:href="#DejaVuSans-33" x="538.085938"/>
     <use xlink:href="#DejaVuSans-31" x="601.708984"/>
     <use xlink:href="#DejaVuSans-5d" x="665.332031"/>
    </g>
   </g>
  </g>
 </g>
</svg>
