<?xml version="1.0" encoding="utf-8" standalone="no"?>
<!DOCTYPE svg PUBLIC "-//W3C//DTD SVG 1.1//EN"
  "http://www.w3.org/Graphics/SVG/1.1/DTD/svg11.dtd">
<svg xmlns:xlink="http://www.w3.org/1999/xlink" width="354.697923pt" height="305.524151pt" viewBox="0 0 354.697923 305.524151" xmlns="http://www.w3.org/2000/svg" version="1.1">
 <metadata>
  <rdf:RDF xmlns:dc="http://purl.org/dc/elements/1.1/" xmlns:cc="http://creativecommons.org/ns#" xmlns:rdf="http://www.w3.org/1999/02/22-rdf-syntax-ns#">
   <cc:Work>
    <dc:type rdf:resource="http://purl.org/dc/dcmitype/StillImage"/>
    <dc:date>2024-09-27T16:07:10.204691</dc:date>
    <dc:format>image/svg+xml</dc:format>
    <dc:creator>
     <cc:Agent>
      <dc:title>Matplotlib v3.8.3, https://matplotlib.org/</dc:title>
     </cc:Agent>
    </dc:creator>
   </cc:Work>
  </rdf:RDF>
 </metadata>
 <defs>
  <style type="text/css">*{stroke-linejoin: round; stroke-linecap: butt}</style>
 </defs>
 <g id="figure_1">
  <g id="patch_1">
   <path d="M 0 305.524151 
L 354.697923 305.524151 
L 354.697923 0 
L 0 0 
z
" style="fill: #ffffff"/>
  </g>
  <g id="axes_1">
   <g id="patch_2">
    <path d="M 305.61516 152.506294 
C 305.61516 142.887464 304.528659 133.29934 302.376336 123.924405 
C 300.224013 114.549471 297.019609 105.44758 292.824111 96.791964 
L 177.8814 152.506294 
z
" style="fill: #1f77b4"/>
   </g>
   <g id="patch_3">
    <path d="M 292.763377 96.639941 
C 291.219082 93.453947 289.542989 90.333537 287.739442 87.286797 
C 285.935895 84.240057 284.006453 81.26962 281.956115 78.383183 
L 177.820666 152.354271 
z
" style="fill: #ff7f0e"/>
   </g>
   <g id="patch_4">
    <path d="M 281.904922 78.311116 
C 279.854584 75.424679 277.685122 72.624736 275.402158 69.918543 
C 273.119193 67.212351 270.7247 64.602247 268.224881 62.094994 
L 177.769474 152.282204 
z
" style="fill: #aec7e8"/>
   </g>
   <g id="patch_5">
    <path d="M 268.127578 62.005196 
C 263.125783 56.988526 257.715308 52.396641 251.952149 48.277063 
C 246.18899 44.157485 240.093098 40.524477 233.727563 37.415637 
L 177.672171 152.192405 
z
" style="fill: #ffbb78"/>
   </g>
   <g id="patch_6">
    <path d="M 233.575298 37.34015 
C 227.664913 34.453599 221.540383 32.027885 215.256379 30.084659 
C 208.972374 28.141434 202.547648 26.686497 196.039548 25.732835 
L 177.519907 152.116918 
z
" style="fill: #98df8a"/>
   </g>
   <g id="patch_7">
    <path d="M 195.839688 25.710789 
C 186.322494 24.31619 176.678153 24.001064 167.09022 24.771409 
C 157.502286 25.541753 148.031975 27.392649 138.859528 30.28887 
L 177.320047 152.094871 
z
" style="fill: #2ca02c"/>
   </g>
   <g id="patch_8">
    <path d="M 138.715015 30.321145 
C 136.544764 31.006407 134.393214 31.749548 132.262671 32.549773 
C 130.132128 33.349998 128.023352 34.207021 125.938602 35.119924 
L 177.175534 152.127147 
z
" style="fill: #d62728"/>
   </g>
   <g id="patch_9">
    <path d="M 125.829231 35.176184 
C 118.875886 38.221022 112.207777 41.87963 105.904106 46.108551 
C 99.600434 50.337472 93.686257 55.119898 88.231821 60.399023 
L 177.066163 152.183407 
z
" style="fill: #9467bd"/>
   </g>
   <g id="patch_10">
    <path d="M 88.115477 60.505122 
C 84.480519 64.023248 81.057763 67.754204 77.865298 71.67827 
C 74.672834 75.602337 71.716294 79.712589 69.011307 83.987302 
L 176.949819 152.289505 
z
" style="fill: #ff9896"/>
   </g>
   <g id="patch_11">
    <path d="M 68.904052 84.21026 
C 60.906335 96.849115 55.190303 110.795023 52.016937 125.411243 
C 48.843571 140.027464 48.261914 155.088109 50.298524 169.905544 
L 176.842564 152.512464 
z
" style="fill: #c5b0d5"/>
   </g>
   <g id="patch_12">
    <path d="M 50.298524 170.131387 
C 50.746182 173.388343 51.319414 176.626803 52.016938 179.839531 
C 52.714462 183.052259 53.535758 186.236861 54.478992 189.386222 
L 176.842564 152.738307 
z
" style="fill: #c49c94"/>
   </g>
   <g id="patch_13">
    <path d="M 54.504857 189.470752 
C 55.593249 193.104779 56.842989 196.688517 58.25036 200.211308 
C 59.657731 203.734098 61.221337 207.192446 62.936527 210.576064 
L 176.868429 152.822838 
z
" style="fill: #8c564b"/>
   </g>
   <g id="patch_14">
    <path d="M 62.986167 210.671171 
C 65.158958 214.957516 67.57191 219.117829 70.213512 223.132267 
C 72.855114 227.146704 75.721159 231.008871 78.797975 234.700343 
L 176.918069 152.917945 
z
" style="fill: #e377c2"/>
   </g>
   <g id="patch_15">
    <path d="M 78.863455 234.781319 
C 81.130308 237.501021 83.509258 240.1253 85.994143 242.647353 
C 88.479028 245.169407 91.067698 247.587056 93.753447 249.894037 
L 176.983549 152.998921 
z
" style="fill: #7f7f7f"/>
   </g>
   <g id="patch_16">
    <path d="M 93.857386 249.976064 
C 99.231202 254.592016 104.979719 258.752931 111.043442 262.415742 
C 117.107164 266.078554 123.465101 269.230584 130.051451 271.839209 
L 177.087488 153.080947 
z
" style="fill: #f7b6d2"/>
   </g>
   <g id="patch_17">
    <path d="M 130.299779 271.915193 
C 143.258478 277.047685 156.970313 280.024698 170.890648 280.727983 
C 184.810984 281.431269 198.753042 279.851392 212.163045 276.051104 
L 177.335816 153.156932 
z
" style="fill: #c7c7c7"/>
   </g>
   <g id="patch_18">
    <path d="M 212.4263 275.996399 
C 219.973263 273.85765 227.307197 271.028248 234.335101 267.544074 
C 241.363005 264.059899 248.055046 259.935742 254.326365 255.223898 
L 177.599071 153.102227 
z
" style="fill: #dbdb8d"/>
   </g>
   <g id="patch_19">
    <path d="M 254.516419 255.06549 
C 264.236399 247.762556 272.86414 239.109158 280.138179 229.367536 
C 287.412218 219.625914 293.258325 208.895479 297.499334 197.501415 
L 177.789126 152.943818 
z
" style="fill: #bcbd22"/>
   </g>
   <g id="patch_20">
    <path d="M 297.584505 197.329616 
C 298.731317 194.248547 299.758751 191.124352 300.664513 187.964011 
C 301.570275 184.80367 302.353689 181.609538 303.013006 178.388752 
L 177.874297 152.772019 
z
" style="fill: #17becf"/>
   </g>
   <g id="patch_21">
    <path d="M 303.030894 178.29576 
C 303.893153 174.083591 304.54219 169.830573 304.975526 165.552948 
C 305.408862 161.275323 305.625945 156.978546 305.625945 152.679028 
L 177.892185 152.679027 
z
" style="fill: #9edae5"/>
   </g>
   <g id="patch_22">
    <path d="M 251.874031 152.625386 
C 251.874031 147.014401 251.240239 141.421329 249.984717 135.952617 
C 248.729195 130.483905 246.85996 125.174469 244.412586 120.12536 
L 177.362671 152.625386 
z
" style="fill: #ffffff"/>
   </g>
   <g id="patch_23">
    <path d="M 244.412586 120.12536 
C 243.511747 118.266863 242.534026 116.446624 241.481957 114.669359 
C 240.429888 112.892094 239.30438 111.159339 238.108349 109.475584 
L 177.362671 152.625386 
z
" style="fill: #ffffff"/>
   </g>
   <g id="patch_24">
    <path d="M 238.108349 109.475584 
C 236.912319 107.791829 235.646799 106.15853 234.31507 104.579917 
C 232.983341 103.001305 231.586553 101.478744 230.128325 100.01618 
L 177.362671 152.625386 
z
" style="fill: #ffffff"/>
   </g>
   <g id="patch_25">
    <path d="M 230.128325 100.01618 
C 227.210612 97.08979 224.054501 94.41119 220.692659 92.008103 
C 217.330816 89.605016 213.774879 87.485761 210.06165 85.672271 
L 177.362671 152.625386 
z
" style="fill: #ffffff"/>
   </g>
   <g id="patch_26">
    <path d="M 210.06165 85.672271 
C 206.613925 83.988449 203.041283 82.573449 199.375613 81.439901 
C 195.709944 80.306353 191.962187 79.45764 188.165795 78.901337 
L 177.362671 152.625386 
z
" style="fill: #ffffff"/>
   </g>
   <g id="patch_27">
    <path d="M 188.165795 78.901337 
C 182.614098 78.087822 176.988233 77.903998 171.395272 78.353366 
C 165.802311 78.802733 160.277963 79.882423 154.927368 81.571885 
L 177.362671 152.625386 
z
" style="fill: #ffffff"/>
   </g>
   <g id="patch_28">
    <path d="M 154.927368 81.571885 
C 153.661388 81.971621 152.406318 82.40512 151.163501 82.871918 
C 149.920684 83.338716 148.690565 83.838646 147.474461 84.371172 
L 177.362671 152.625386 
z
" style="fill: #ffffff"/>
   </g>
   <g id="patch_29">
    <path d="M 147.474461 84.371172 
C 143.418343 86.147328 139.528613 88.281516 135.851471 90.748386 
C 132.17433 93.215257 128.724393 96.005005 125.542638 99.084495 
L 177.362671 152.625386 
z
" style="fill: #ffffff"/>
   </g>
   <g id="patch_30">
    <path d="M 125.542638 99.084495 
C 123.422246 101.136735 121.425639 103.313126 119.563367 105.602165 
C 117.701096 107.891204 115.976449 110.288851 114.398539 112.782433 
L 177.362671 152.625386 
z
" style="fill: #ffffff"/>
   </g>
   <g id="patch_31">
    <path d="M 114.398539 112.782433 
C 109.733204 120.155099 106.398852 128.290212 104.547722 136.81634 
C 102.696592 145.342469 102.357292 154.127845 103.545314 162.771349 
L 177.362671 152.625386 
z
" style="fill: #ffffff"/>
   </g>
   <g id="patch_32">
    <path d="M 103.545314 162.771349 
C 103.806448 164.67124 104.140833 166.560342 104.547722 168.434433 
C 104.954611 170.308524 105.433701 172.166209 105.983921 174.003336 
L 177.362671 152.625386 
z
" style="fill: #ffffff"/>
   </g>
   <g id="patch_33">
    <path d="M 105.983921 174.003336 
C 106.618816 176.123185 107.347831 178.213699 108.168798 180.26866 
C 108.989764 182.323621 109.901868 184.34099 110.902395 186.314768 
L 177.362671 152.625386 
z
" style="fill: #ffffff"/>
   </g>
   <g id="patch_34">
    <path d="M 110.902395 186.314768 
C 112.169856 188.815135 113.577412 191.241985 115.118346 193.58374 
C 116.659281 195.925495 118.33114 198.178425 120.12595 200.331784 
L 177.362671 152.625386 
z
" style="fill: #ffffff"/>
   </g>
   <g id="patch_35">
    <path d="M 120.12595 200.331784 
C 121.448281 201.918278 122.836002 203.449107 124.285518 204.920305 
C 125.735034 206.391503 127.245092 207.801798 128.811778 209.147537 
L 177.362671 152.625386 
z
" style="fill: #ffffff"/>
   </g>
   <g id="patch_36">
    <path d="M 128.811778 209.147537 
C 131.946505 211.840176 135.299806 214.267376 138.836978 216.404016 
C 142.374149 218.540656 146.082946 220.37934 149.924983 221.901038 
L 177.362671 152.625386 
z
" style="fill: #ffffff"/>
   </g>
   <g id="patch_37">
    <path d="M 149.924983 221.901038 
C 157.484224 224.894992 165.482794 226.631582 173.60299 227.041832 
C 181.723186 227.452082 189.856053 226.530487 197.678554 224.313653 
L 177.362671 152.625386 
z
" style="fill: #ffffff"/>
   </g>
   <g id="patch_38">
    <path d="M 197.678554 224.313653 
C 202.08095 223.066049 206.359078 221.415565 210.458688 219.38313 
C 214.558299 217.350695 218.46199 214.944936 222.120259 212.196361 
L 177.362671 152.625386 
z
" style="fill: #ffffff"/>
   </g>
   <g id="patch_39">
    <path d="M 222.120259 212.196361 
C 227.790247 207.936316 232.823096 202.888501 237.066286 197.205888 
C 241.309475 191.523275 244.719704 185.263854 247.193626 178.617317 
L 177.362671 152.625386 
z
" style="fill: #ffffff"/>
   </g>
   <g id="patch_40">
    <path d="M 247.193626 178.617317 
C 247.862599 176.820027 248.461936 174.99758 248.990297 173.154048 
C 249.518658 171.310515 249.97565 169.447272 250.360251 167.56848 
L 177.362671 152.625386 
z
" style="fill: #ffffff"/>
   </g>
   <g id="patch_41">
    <path d="M 250.360251 167.56848 
C 250.863236 165.111382 251.241841 162.630454 251.49462 160.135173 
C 251.7474 157.639892 251.874031 155.133438 251.874031 152.625386 
L 177.362671 152.625386 
z
" style="fill: #ffffff"/>
   </g>
   <g id="matplotlib.axis_1"/>
   <g id="matplotlib.axis_2"/>
   <g id="text_1">
    <!-- A [38] -->
    <g transform="translate(314.82583 123.825591) scale(0.1 -0.1)">
     <defs>
      <path id="DejaVuSans-41" d="M 2188 4044 
L 1331 1722 
L 3047 1722 
L 2188 4044 
z
M 1831 4666 
L 2547 4666 
L 4325 0 
L 3669 0 
L 3244 1197 
L 1141 1197 
L 716 0 
L 50 0 
L 1831 4666 
z
" transform="scale(0.015625)"/>
      <path id="DejaVuSans-20" transform="scale(0.015625)"/>
      <path id="DejaVuSans-5b" d="M 550 4863 
L 1875 4863 
L 1875 4416 
L 1125 4416 
L 1125 -397 
L 1875 -397 
L 1875 -844 
L 550 -844 
L 550 4863 
z
" transform="scale(0.015625)"/>
      <path id="DejaVuSans-33" d="M 2597 2516 
Q 3050 2419 3304 2112 
Q 3559 1806 3559 1356 
Q 3559 666 3084 287 
Q 2609 -91 1734 -91 
Q 1441 -91 1130 -33 
Q 819 25 488 141 
L 488 750 
Q 750 597 1062 519 
Q 1375 441 1716 441 
Q 2309 441 2620 675 
Q 2931 909 2931 1356 
Q 2931 1769 2642 2001 
Q 2353 2234 1838 2234 
L 1294 2234 
L 1294 2753 
L 1863 2753 
Q 2328 2753 2575 2939 
Q 2822 3125 2822 3475 
Q 2822 3834 2567 4026 
Q 2313 4219 1838 4219 
Q 1578 4219 1281 4162 
Q 984 4106 628 3988 
L 628 4550 
Q 988 4650 1302 4700 
Q 1616 4750 1894 4750 
Q 2613 4750 3031 4423 
Q 3450 4097 3450 3541 
Q 3450 3153 3228 2886 
Q 3006 2619 2597 2516 
z
" transform="scale(0.015625)"/>
      <path id="DejaVuSans-38" d="M 2034 2216 
Q 1584 2216 1326 1975 
Q 1069 1734 1069 1313 
Q 1069 891 1326 650 
Q 1584 409 2034 409 
Q 2484 409 2743 651 
Q 3003 894 3003 1313 
Q 3003 1734 2745 1975 
Q 2488 2216 2034 2216 
z
M 1403 2484 
Q 997 2584 770 2862 
Q 544 3141 544 3541 
Q 544 4100 942 4425 
Q 1341 4750 2034 4750 
Q 2731 4750 3128 4425 
Q 3525 4100 3525 3541 
Q 3525 3141 3298 2862 
Q 3072 2584 2669 2484 
Q 3125 2378 3379 2068 
Q 3634 1759 3634 1313 
Q 3634 634 3220 271 
Q 2806 -91 2034 -91 
Q 1263 -91 848 271 
Q 434 634 434 1313 
Q 434 1759 690 2068 
Q 947 2378 1403 2484 
z
M 1172 3481 
Q 1172 3119 1398 2916 
Q 1625 2713 2034 2713 
Q 2441 2713 2670 2916 
Q 2900 3119 2900 3481 
Q 2900 3844 2670 4047 
Q 2441 4250 2034 4250 
Q 1625 4250 1398 4047 
Q 1172 3844 1172 3481 
z
" transform="scale(0.015625)"/>
      <path id="DejaVuSans-5d" d="M 1947 4863 
L 1947 -844 
L 622 -844 
L 622 -397 
L 1369 -397 
L 1369 4416 
L 622 4416 
L 622 4863 
L 1947 4863 
z
" transform="scale(0.015625)"/>
     </defs>
     <use xlink:href="#DejaVuSans-41"/>
     <use xlink:href="#DejaVuSans-20" x="68.408203"/>
     <use xlink:href="#DejaVuSans-5b" x="100.195312"/>
     <use xlink:href="#DejaVuSans-33" x="139.208984"/>
     <use xlink:href="#DejaVuSans-38" x="202.832031"/>
     <use xlink:href="#DejaVuSans-5d" x="266.455078"/>
    </g>
   </g>
   <g id="text_2">
    <!-- C [14] -->
    <g transform="translate(298.73132 83.539425) scale(0.1 -0.1)">
     <defs>
      <path id="DejaVuSans-43" d="M 4122 4306 
L 4122 3641 
Q 3803 3938 3442 4084 
Q 3081 4231 2675 4231 
Q 1875 4231 1450 3742 
Q 1025 3253 1025 2328 
Q 1025 1406 1450 917 
Q 1875 428 2675 428 
Q 3081 428 3442 575 
Q 3803 722 4122 1019 
L 4122 359 
Q 3791 134 3420 21 
Q 3050 -91 2638 -91 
Q 1578 -91 968 557 
Q 359 1206 359 2328 
Q 359 3453 968 4101 
Q 1578 4750 2638 4750 
Q 3056 4750 3426 4639 
Q 3797 4528 4122 4306 
z
" transform="scale(0.015625)"/>
      <path id="DejaVuSans-31" d="M 794 531 
L 1825 531 
L 1825 4091 
L 703 3866 
L 703 4441 
L 1819 4666 
L 2450 4666 
L 2450 531 
L 3481 531 
L 3481 0 
L 794 0 
L 794 531 
z
" transform="scale(0.015625)"/>
      <path id="DejaVuSans-34" d="M 2419 4116 
L 825 1625 
L 2419 1625 
L 2419 4116 
z
M 2253 4666 
L 3047 4666 
L 3047 1625 
L 3713 1625 
L 3713 1100 
L 3047 1100 
L 3047 0 
L 2419 0 
L 2419 1100 
L 313 1100 
L 313 1709 
L 2253 4666 
z
" transform="scale(0.015625)"/>
     </defs>
     <use xlink:href="#DejaVuSans-43"/>
     <use xlink:href="#DejaVuSans-20" x="69.824219"/>
     <use xlink:href="#DejaVuSans-5b" x="101.611328"/>
     <use xlink:href="#DejaVuSans-31" x="140.625"/>
     <use xlink:href="#DejaVuSans-34" x="204.248047"/>
     <use xlink:href="#DejaVuSans-5d" x="267.871094"/>
    </g>
   </g>
   <g id="text_3">
    <!-- D [14] -->
    <g transform="translate(285.165426 64.441552) scale(0.1 -0.1)">
     <defs>
      <path id="DejaVuSans-44" d="M 1259 4147 
L 1259 519 
L 2022 519 
Q 2988 519 3436 956 
Q 3884 1394 3884 2338 
Q 3884 3275 3436 3711 
Q 2988 4147 2022 4147 
L 1259 4147 
z
M 628 4666 
L 1925 4666 
Q 3281 4666 3915 4102 
Q 4550 3538 4550 2338 
Q 4550 1131 3912 565 
Q 3275 0 1925 0 
L 628 0 
L 628 4666 
z
" transform="scale(0.015625)"/>
     </defs>
     <use xlink:href="#DejaVuSans-44"/>
     <use xlink:href="#DejaVuSans-20" x="77.001953"/>
     <use xlink:href="#DejaVuSans-5b" x="108.789062"/>
     <use xlink:href="#DejaVuSans-31" x="147.802734"/>
     <use xlink:href="#DejaVuSans-34" x="211.425781"/>
     <use xlink:href="#DejaVuSans-5d" x="275.048828"/>
    </g>
   </g>
   <g id="text_4">
    <!-- E [28] -->
    <g transform="translate(259.380147 40.644904) scale(0.1 -0.1)">
     <defs>
      <path id="DejaVuSans-45" d="M 628 4666 
L 3578 4666 
L 3578 4134 
L 1259 4134 
L 1259 2753 
L 3481 2753 
L 3481 2222 
L 1259 2222 
L 1259 531 
L 3634 531 
L 3634 0 
L 628 0 
L 628 4666 
z
" transform="scale(0.015625)"/>
      <path id="DejaVuSans-32" d="M 1228 531 
L 3431 531 
L 3431 0 
L 469 0 
L 469 531 
Q 828 903 1448 1529 
Q 2069 2156 2228 2338 
Q 2531 2678 2651 2914 
Q 2772 3150 2772 3378 
Q 2772 3750 2511 3984 
Q 2250 4219 1831 4219 
Q 1534 4219 1204 4116 
Q 875 4013 500 3803 
L 500 4441 
Q 881 4594 1212 4672 
Q 1544 4750 1819 4750 
Q 2544 4750 2975 4387 
Q 3406 4025 3406 3419 
Q 3406 3131 3298 2873 
Q 3191 2616 2906 2266 
Q 2828 2175 2409 1742 
Q 1991 1309 1228 531 
z
" transform="scale(0.015625)"/>
     </defs>
     <use xlink:href="#DejaVuSans-45"/>
     <use xlink:href="#DejaVuSans-20" x="63.183594"/>
     <use xlink:href="#DejaVuSans-5b" x="94.970703"/>
     <use xlink:href="#DejaVuSans-32" x="133.984375"/>
     <use xlink:href="#DejaVuSans-38" x="197.607422"/>
     <use xlink:href="#DejaVuSans-5d" x="261.230469"/>
    </g>
   </g>
   <g id="text_5">
    <!-- F [26] -->
    <g transform="translate(219.030026 20.640808) scale(0.1 -0.1)">
     <defs>
      <path id="DejaVuSans-46" d="M 628 4666 
L 3309 4666 
L 3309 4134 
L 1259 4134 
L 1259 2759 
L 3109 2759 
L 3109 2228 
L 1259 2228 
L 1259 0 
L 628 0 
L 628 4666 
z
" transform="scale(0.015625)"/>
      <path id="DejaVuSans-36" d="M 2113 2584 
Q 1688 2584 1439 2293 
Q 1191 2003 1191 1497 
Q 1191 994 1439 701 
Q 1688 409 2113 409 
Q 2538 409 2786 701 
Q 3034 994 3034 1497 
Q 3034 2003 2786 2293 
Q 2538 2584 2113 2584 
z
M 3366 4563 
L 3366 3988 
Q 3128 4100 2886 4159 
Q 2644 4219 2406 4219 
Q 1781 4219 1451 3797 
Q 1122 3375 1075 2522 
Q 1259 2794 1537 2939 
Q 1816 3084 2150 3084 
Q 2853 3084 3261 2657 
Q 3669 2231 3669 1497 
Q 3669 778 3244 343 
Q 2819 -91 2113 -91 
Q 1303 -91 875 529 
Q 447 1150 447 2328 
Q 447 3434 972 4092 
Q 1497 4750 2381 4750 
Q 2619 4750 2861 4703 
Q 3103 4656 3366 4563 
z
" transform="scale(0.015625)"/>
     </defs>
     <use xlink:href="#DejaVuSans-46"/>
     <use xlink:href="#DejaVuSans-20" x="57.519531"/>
     <use xlink:href="#DejaVuSans-5b" x="89.306641"/>
     <use xlink:href="#DejaVuSans-32" x="128.320312"/>
     <use xlink:href="#DejaVuSans-36" x="191.943359"/>
     <use xlink:href="#DejaVuSans-5d" x="255.566406"/>
    </g>
   </g>
   <g id="text_6">
    <!-- G [38] -->
    <g transform="translate(134.61255 14.798437) scale(0.1 -0.1)">
     <defs>
      <path id="DejaVuSans-47" d="M 3809 666 
L 3809 1919 
L 2778 1919 
L 2778 2438 
L 4434 2438 
L 4434 434 
Q 4069 175 3628 42 
Q 3188 -91 2688 -91 
Q 1594 -91 976 548 
Q 359 1188 359 2328 
Q 359 3472 976 4111 
Q 1594 4750 2688 4750 
Q 3144 4750 3555 4637 
Q 3966 4525 4313 4306 
L 4313 3634 
Q 3963 3931 3569 4081 
Q 3175 4231 2741 4231 
Q 1884 4231 1454 3753 
Q 1025 3275 1025 2328 
Q 1025 1384 1454 906 
Q 1884 428 2741 428 
Q 3075 428 3337 486 
Q 3600 544 3809 666 
z
" transform="scale(0.015625)"/>
     </defs>
     <use xlink:href="#DejaVuSans-47"/>
     <use xlink:href="#DejaVuSans-20" x="77.490234"/>
     <use xlink:href="#DejaVuSans-5b" x="109.277344"/>
     <use xlink:href="#DejaVuSans-33" x="148.291016"/>
     <use xlink:href="#DejaVuSans-38" x="211.914062"/>
     <use xlink:href="#DejaVuSans-5d" x="275.537109"/>
    </g>
   </g>
   <g id="text_7">
    <!-- H [9] -->
    <g transform="translate(102.907322 23.351411) scale(0.1 -0.1)">
     <defs>
      <path id="DejaVuSans-48" d="M 628 4666 
L 1259 4666 
L 1259 2753 
L 3553 2753 
L 3553 4666 
L 4184 4666 
L 4184 0 
L 3553 0 
L 3553 2222 
L 1259 2222 
L 1259 0 
L 628 0 
L 628 4666 
z
" transform="scale(0.015625)"/>
      <path id="DejaVuSans-39" d="M 703 97 
L 703 672 
Q 941 559 1184 500 
Q 1428 441 1663 441 
Q 2288 441 2617 861 
Q 2947 1281 2994 2138 
Q 2813 1869 2534 1725 
Q 2256 1581 1919 1581 
Q 1219 1581 811 2004 
Q 403 2428 403 3163 
Q 403 3881 828 4315 
Q 1253 4750 1959 4750 
Q 2769 4750 3195 4129 
Q 3622 3509 3622 2328 
Q 3622 1225 3098 567 
Q 2575 -91 1691 -91 
Q 1453 -91 1209 -44 
Q 966 3 703 97 
z
M 1959 2075 
Q 2384 2075 2632 2365 
Q 2881 2656 2881 3163 
Q 2881 3666 2632 3958 
Q 2384 4250 1959 4250 
Q 1534 4250 1286 3958 
Q 1038 3666 1038 3163 
Q 1038 2656 1286 2365 
Q 1534 2075 1959 2075 
z
" transform="scale(0.015625)"/>
     </defs>
     <use xlink:href="#DejaVuSans-48"/>
     <use xlink:href="#DejaVuSans-20" x="75.195312"/>
     <use xlink:href="#DejaVuSans-5b" x="106.982422"/>
     <use xlink:href="#DejaVuSans-39" x="145.996094"/>
     <use xlink:href="#DejaVuSans-5d" x="209.619141"/>
    </g>
   </g>
   <g id="text_8">
    <!-- I [30] -->
    <g transform="translate(72.13165 38.26044) scale(0.1 -0.1)">
     <defs>
      <path id="DejaVuSans-49" d="M 628 4666 
L 1259 4666 
L 1259 0 
L 628 0 
L 628 4666 
z
" transform="scale(0.015625)"/>
      <path id="DejaVuSans-30" d="M 2034 4250 
Q 1547 4250 1301 3770 
Q 1056 3291 1056 2328 
Q 1056 1369 1301 889 
Q 1547 409 2034 409 
Q 2525 409 2770 889 
Q 3016 1369 3016 2328 
Q 3016 3291 2770 3770 
Q 2525 4250 2034 4250 
z
M 2034 4750 
Q 2819 4750 3233 4129 
Q 3647 3509 3647 2328 
Q 3647 1150 3233 529 
Q 2819 -91 2034 -91 
Q 1250 -91 836 529 
Q 422 1150 422 2328 
Q 422 3509 836 4129 
Q 1250 4750 2034 4750 
z
" transform="scale(0.015625)"/>
     </defs>
     <use xlink:href="#DejaVuSans-49"/>
     <use xlink:href="#DejaVuSans-20" x="29.492188"/>
     <use xlink:href="#DejaVuSans-5b" x="61.279297"/>
     <use xlink:href="#DejaVuSans-33" x="100.292969"/>
     <use xlink:href="#DejaVuSans-30" x="163.916016"/>
     <use xlink:href="#DejaVuSans-5d" x="227.539062"/>
    </g>
   </g>
   <g id="text_9">
    <!-- K [20] -->
    <g transform="translate(37.692784 66.376522) scale(0.1 -0.1)">
     <defs>
      <path id="DejaVuSans-4b" d="M 628 4666 
L 1259 4666 
L 1259 2694 
L 3353 4666 
L 4166 4666 
L 1850 2491 
L 4331 0 
L 3500 0 
L 1259 2247 
L 1259 0 
L 628 0 
L 628 4666 
z
" transform="scale(0.015625)"/>
     </defs>
     <use xlink:href="#DejaVuSans-4b"/>
     <use xlink:href="#DejaVuSans-20" x="65.576172"/>
     <use xlink:href="#DejaVuSans-5b" x="97.363281"/>
     <use xlink:href="#DejaVuSans-32" x="136.376953"/>
     <use xlink:href="#DejaVuSans-30" x="200"/>
     <use xlink:href="#DejaVuSans-5d" x="263.623047"/>
    </g>
   </g>
   <g id="text_10">
    <!-- L [59] -->
    <g transform="translate(10.256249 125.460496) scale(0.1 -0.1)">
     <defs>
      <path id="DejaVuSans-4c" d="M 628 4666 
L 1259 4666 
L 1259 531 
L 3531 531 
L 3531 0 
L 628 0 
L 628 4666 
z
" transform="scale(0.015625)"/>
      <path id="DejaVuSans-35" d="M 691 4666 
L 3169 4666 
L 3169 4134 
L 1269 4134 
L 1269 2991 
Q 1406 3038 1543 3061 
Q 1681 3084 1819 3084 
Q 2600 3084 3056 2656 
Q 3513 2228 3513 1497 
Q 3513 744 3044 326 
Q 2575 -91 1722 -91 
Q 1428 -91 1123 -41 
Q 819 9 494 109 
L 494 744 
Q 775 591 1075 516 
Q 1375 441 1709 441 
Q 2250 441 2565 725 
Q 2881 1009 2881 1497 
Q 2881 1984 2565 2268 
Q 2250 2553 1709 2553 
Q 1456 2553 1204 2497 
Q 953 2441 691 2322 
L 691 4666 
z
" transform="scale(0.015625)"/>
     </defs>
     <use xlink:href="#DejaVuSans-4c"/>
     <use xlink:href="#DejaVuSans-20" x="55.712891"/>
     <use xlink:href="#DejaVuSans-5b" x="87.5"/>
     <use xlink:href="#DejaVuSans-35" x="126.513672"/>
     <use xlink:href="#DejaVuSans-39" x="190.136719"/>
     <use xlink:href="#DejaVuSans-5d" x="253.759766"/>
    </g>
   </g>
   <g id="text_11">
    <!-- M [13] -->
    <g transform="translate(7.2 185.309029) scale(0.1 -0.1)">
     <defs>
      <path id="DejaVuSans-4d" d="M 628 4666 
L 1569 4666 
L 2759 1491 
L 3956 4666 
L 4897 4666 
L 4897 0 
L 4281 0 
L 4281 4097 
L 3078 897 
L 2444 897 
L 1241 4097 
L 1241 0 
L 628 0 
L 628 4666 
z
" transform="scale(0.015625)"/>
     </defs>
     <use xlink:href="#DejaVuSans-4d"/>
     <use xlink:href="#DejaVuSans-20" x="86.279297"/>
     <use xlink:href="#DejaVuSans-5b" x="118.066406"/>
     <use xlink:href="#DejaVuSans-31" x="157.080078"/>
     <use xlink:href="#DejaVuSans-33" x="220.703125"/>
     <use xlink:href="#DejaVuSans-5d" x="284.326172"/>
    </g>
   </g>
   <g id="text_12">
    <!-- N [15] -->
    <g transform="translate(15.201053 207.70953) scale(0.1 -0.1)">
     <defs>
      <path id="DejaVuSans-4e" d="M 628 4666 
L 1478 4666 
L 3547 763 
L 3547 4666 
L 4159 4666 
L 4159 0 
L 3309 0 
L 1241 3903 
L 1241 0 
L 628 0 
L 628 4666 
z
" transform="scale(0.015625)"/>
     </defs>
     <use xlink:href="#DejaVuSans-4e"/>
     <use xlink:href="#DejaVuSans-20" x="74.804688"/>
     <use xlink:href="#DejaVuSans-5b" x="106.591797"/>
     <use xlink:href="#DejaVuSans-31" x="145.605469"/>
     <use xlink:href="#DejaVuSans-35" x="209.228516"/>
     <use xlink:href="#DejaVuSans-5d" x="272.851562"/>
    </g>
   </g>
   <g id="text_13">
    <!-- P [19] -->
    <g transform="translate(29.807118 232.913074) scale(0.1 -0.1)">
     <defs>
      <path id="DejaVuSans-50" d="M 1259 4147 
L 1259 2394 
L 2053 2394 
Q 2494 2394 2734 2622 
Q 2975 2850 2975 3272 
Q 2975 3691 2734 3919 
Q 2494 4147 2053 4147 
L 1259 4147 
z
M 628 4666 
L 2053 4666 
Q 2838 4666 3239 4311 
Q 3641 3956 3641 3272 
Q 3641 2581 3239 2228 
Q 2838 1875 2053 1875 
L 1259 1875 
L 1259 0 
L 628 0 
L 628 4666 
z
" transform="scale(0.015625)"/>
     </defs>
     <use xlink:href="#DejaVuSans-50"/>
     <use xlink:href="#DejaVuSans-20" x="60.302734"/>
     <use xlink:href="#DejaVuSans-5b" x="92.089844"/>
     <use xlink:href="#DejaVuSans-31" x="131.103516"/>
     <use xlink:href="#DejaVuSans-39" x="194.726562"/>
     <use xlink:href="#DejaVuSans-5d" x="258.349609"/>
    </g>
   </g>
   <g id="text_14">
    <!-- Q [14] -->
    <g transform="translate(45.317077 254.371572) scale(0.1 -0.1)">
     <defs>
      <path id="DejaVuSans-51" d="M 2522 4238 
Q 1834 4238 1429 3725 
Q 1025 3213 1025 2328 
Q 1025 1447 1429 934 
Q 1834 422 2522 422 
Q 3209 422 3611 934 
Q 4013 1447 4013 2328 
Q 4013 3213 3611 3725 
Q 3209 4238 2522 4238 
z
M 3406 84 
L 4238 -825 
L 3475 -825 
L 2784 -78 
Q 2681 -84 2626 -87 
Q 2572 -91 2522 -91 
Q 1538 -91 948 567 
Q 359 1225 359 2328 
Q 359 3434 948 4092 
Q 1538 4750 2522 4750 
Q 3503 4750 4090 4092 
Q 4678 3434 4678 2328 
Q 4678 1516 4351 937 
Q 4025 359 3406 84 
z
" transform="scale(0.015625)"/>
     </defs>
     <use xlink:href="#DejaVuSans-51"/>
     <use xlink:href="#DejaVuSans-20" x="78.710938"/>
     <use xlink:href="#DejaVuSans-5b" x="110.498047"/>
     <use xlink:href="#DejaVuSans-31" x="149.511719"/>
     <use xlink:href="#DejaVuSans-34" x="213.134766"/>
     <use xlink:href="#DejaVuSans-5d" x="276.757812"/>
    </g>
   </g>
   <g id="text_15">
    <!-- R [28] -->
    <g transform="translate(73.78435 276.108597) scale(0.1 -0.1)">
     <defs>
      <path id="DejaVuSans-52" d="M 2841 2188 
Q 3044 2119 3236 1894 
Q 3428 1669 3622 1275 
L 4263 0 
L 3584 0 
L 2988 1197 
Q 2756 1666 2539 1819 
Q 2322 1972 1947 1972 
L 1259 1972 
L 1259 0 
L 628 0 
L 628 4666 
L 2053 4666 
Q 2853 4666 3247 4331 
Q 3641 3997 3641 3322 
Q 3641 2881 3436 2590 
Q 3231 2300 2841 2188 
z
M 1259 4147 
L 1259 2491 
L 2053 2491 
Q 2509 2491 2742 2702 
Q 2975 2913 2975 3322 
Q 2975 3731 2742 3939 
Q 2509 4147 2053 4147 
L 1259 4147 
z
" transform="scale(0.015625)"/>
     </defs>
     <use xlink:href="#DejaVuSans-52"/>
     <use xlink:href="#DejaVuSans-20" x="69.482422"/>
     <use xlink:href="#DejaVuSans-5b" x="101.269531"/>
     <use xlink:href="#DejaVuSans-32" x="140.283203"/>
     <use xlink:href="#DejaVuSans-38" x="203.90625"/>
     <use xlink:href="#DejaVuSans-5d" x="267.529297"/>
    </g>
   </g>
   <g id="text_16">
    <!-- S [55] -->
    <g transform="translate(140.191444 296.244464) scale(0.1 -0.1)">
     <defs>
      <path id="DejaVuSans-53" d="M 3425 4513 
L 3425 3897 
Q 3066 4069 2747 4153 
Q 2428 4238 2131 4238 
Q 1616 4238 1336 4038 
Q 1056 3838 1056 3469 
Q 1056 3159 1242 3001 
Q 1428 2844 1947 2747 
L 2328 2669 
Q 3034 2534 3370 2195 
Q 3706 1856 3706 1288 
Q 3706 609 3251 259 
Q 2797 -91 1919 -91 
Q 1588 -91 1214 -16 
Q 841 59 441 206 
L 441 856 
Q 825 641 1194 531 
Q 1563 422 1919 422 
Q 2459 422 2753 634 
Q 3047 847 3047 1241 
Q 3047 1584 2836 1778 
Q 2625 1972 2144 2069 
L 1759 2144 
Q 1053 2284 737 2584 
Q 422 2884 422 3419 
Q 422 4038 858 4394 
Q 1294 4750 2059 4750 
Q 2388 4750 2728 4690 
Q 3069 4631 3425 4513 
z
" transform="scale(0.015625)"/>
     </defs>
     <use xlink:href="#DejaVuSans-53"/>
     <use xlink:href="#DejaVuSans-20" x="63.476562"/>
     <use xlink:href="#DejaVuSans-5b" x="95.263672"/>
     <use xlink:href="#DejaVuSans-35" x="134.277344"/>
     <use xlink:href="#DejaVuSans-35" x="197.900391"/>
     <use xlink:href="#DejaVuSans-5d" x="261.523438"/>
    </g>
   </g>
   <g id="text_17">
    <!-- T [31] -->
    <g transform="translate(240.008704 281.747634) scale(0.1 -0.1)">
     <defs>
      <path id="DejaVuSans-54" d="M -19 4666 
L 3928 4666 
L 3928 4134 
L 2272 4134 
L 2272 0 
L 1638 0 
L 1638 4134 
L -19 4134 
L -19 4666 
z
" transform="scale(0.015625)"/>
     </defs>
     <use xlink:href="#DejaVuSans-54"/>
     <use xlink:href="#DejaVuSans-20" x="61.083984"/>
     <use xlink:href="#DejaVuSans-5b" x="92.871094"/>
     <use xlink:href="#DejaVuSans-33" x="131.884766"/>
     <use xlink:href="#DejaVuSans-31" x="195.507812"/>
     <use xlink:href="#DejaVuSans-5d" x="259.130859"/>
    </g>
   </g>
   <g id="text_18">
    <!-- V [48] -->
    <g transform="translate(290.373084 239.769283) scale(0.1 -0.1)">
     <defs>
      <path id="DejaVuSans-56" d="M 1831 0 
L 50 4666 
L 709 4666 
L 2188 738 
L 3669 4666 
L 4325 4666 
L 2547 0 
L 1831 0 
z
" transform="scale(0.015625)"/>
     </defs>
     <use xlink:href="#DejaVuSans-56"/>
     <use xlink:href="#DejaVuSans-20" x="68.408203"/>
     <use xlink:href="#DejaVuSans-5b" x="100.195312"/>
     <use xlink:href="#DejaVuSans-34" x="139.208984"/>
     <use xlink:href="#DejaVuSans-38" x="202.832031"/>
     <use xlink:href="#DejaVuSans-5d" x="266.455078"/>
    </g>
   </g>
   <g id="text_19">
    <!-- W [13] -->
    <g transform="translate(312.943535 194.242585) scale(0.1 -0.1)">
     <defs>
      <path id="DejaVuSans-57" d="M 213 4666 
L 850 4666 
L 1831 722 
L 2809 4666 
L 3519 4666 
L 4500 722 
L 5478 4666 
L 6119 4666 
L 4947 0 
L 4153 0 
L 3169 4050 
L 2175 0 
L 1381 0 
L 213 4666 
z
" transform="scale(0.015625)"/>
     </defs>
     <use xlink:href="#DejaVuSans-57"/>
     <use xlink:href="#DejaVuSans-20" x="98.876953"/>
     <use xlink:href="#DejaVuSans-5b" x="130.664062"/>
     <use xlink:href="#DejaVuSans-31" x="169.677734"/>
     <use xlink:href="#DejaVuSans-33" x="233.300781"/>
     <use xlink:href="#DejaVuSans-5d" x="296.923828"/>
    </g>
   </g>
   <g id="text_20">
    <!-- Y [17] -->
    <g transform="translate(317.68386 169.599715) scale(0.1 -0.1)">
     <defs>
      <path id="DejaVuSans-59" d="M -13 4666 
L 666 4666 
L 1959 2747 
L 3244 4666 
L 3922 4666 
L 2272 2222 
L 2272 0 
L 1638 0 
L 1638 2222 
L -13 4666 
z
" transform="scale(0.015625)"/>
      <path id="DejaVuSans-37" d="M 525 4666 
L 3525 4666 
L 3525 4397 
L 1831 0 
L 1172 0 
L 2766 4134 
L 525 4134 
L 525 4666 
z
" transform="scale(0.015625)"/>
     </defs>
     <use xlink:href="#DejaVuSans-59"/>
     <use xlink:href="#DejaVuSans-20" x="61.083984"/>
     <use xlink:href="#DejaVuSans-5b" x="92.871094"/>
     <use xlink:href="#DejaVuSans-31" x="131.884766"/>
     <use xlink:href="#DejaVuSans-37" x="195.507812"/>
     <use xlink:href="#DejaVuSans-5d" x="259.130859"/>
    </g>
   </g>
   <g id="text_21">
    <!-- Q8N6U8 [529] -->
    <g transform="translate(134.265796 152.625386) scale(0.12 -0.12)">
     <defs>
      <path id="DejaVuSans-55" d="M 556 4666 
L 1191 4666 
L 1191 1831 
Q 1191 1081 1462 751 
Q 1734 422 2344 422 
Q 2950 422 3222 751 
Q 3494 1081 3494 1831 
L 3494 4666 
L 4128 4666 
L 4128 1753 
Q 4128 841 3676 375 
Q 3225 -91 2344 -91 
Q 1459 -91 1007 375 
Q 556 841 556 1753 
L 556 4666 
z
" transform="scale(0.015625)"/>
     </defs>
     <use xlink:href="#DejaVuSans-51"/>
     <use xlink:href="#DejaVuSans-38" x="78.710938"/>
     <use xlink:href="#DejaVuSans-4e" x="142.333984"/>
     <use xlink:href="#DejaVuSans-36" x="217.138672"/>
     <use xlink:href="#DejaVuSans-55" x="280.761719"/>
     <use xlink:href="#DejaVuSans-38" x="353.955078"/>
     <use xlink:href="#DejaVuSans-20" x="417.578125"/>
     <use xlink:href="#DejaVuSans-5b" x="449.365234"/>
     <use xlink:href="#DejaVuSans-35" x="488.378906"/>
     <use xlink:href="#DejaVuSans-32" x="552.001953"/>
     <use xlink:href="#DejaVuSans-39" x="615.625"/>
     <use xlink:href="#DejaVuSans-5d" x="679.248047"/>
    </g>
   </g>
  </g>
 </g>
</svg>
