<?xml version="1.0" encoding="utf-8" standalone="no"?>
<!DOCTYPE svg PUBLIC "-//W3C//DTD SVG 1.1//EN"
  "http://www.w3.org/Graphics/SVG/1.1/DTD/svg11.dtd">
<svg xmlns:xlink="http://www.w3.org/1999/xlink" width="349.593112pt" height="302.516596pt" viewBox="0 0 349.593112 302.516596" xmlns="http://www.w3.org/2000/svg" version="1.1">
 <metadata>
  <rdf:RDF xmlns:dc="http://purl.org/dc/elements/1.1/" xmlns:cc="http://creativecommons.org/ns#" xmlns:rdf="http://www.w3.org/1999/02/22-rdf-syntax-ns#">
   <cc:Work>
    <dc:type rdf:resource="http://purl.org/dc/dcmitype/StillImage"/>
    <dc:date>2024-09-27T16:07:12.760172</dc:date>
    <dc:format>image/svg+xml</dc:format>
    <dc:creator>
     <cc:Agent>
      <dc:title>Matplotlib v3.8.3, https://matplotlib.org/</dc:title>
     </cc:Agent>
    </dc:creator>
   </cc:Work>
  </rdf:RDF>
 </metadata>
 <defs>
  <style type="text/css">*{stroke-linejoin: round; stroke-linecap: butt}</style>
 </defs>
 <g id="figure_1">
  <g id="patch_1">
   <path d="M 0 302.516596 
L 349.593112 302.516596 
L 349.593112 0 
L 0 0 
z
" style="fill: #ffffff"/>
  </g>
  <g id="axes_1">
   <g id="patch_2">
    <path d="M 299.653533 151.477228 
C 299.653533 131.532345 294.982117 111.861937 286.014671 94.046683 
C 277.047226 76.231428 264.030565 60.761663 248.010685 48.88051 
L 171.919773 151.477228 
z
" style="fill: #1f77b4"/>
   </g>
   <g id="patch_3">
    <path d="M 247.81634 48.667838 
C 245.018058 46.592491 242.136041 44.632496 239.17752 42.792769 
C 236.218998 40.953042 233.186448 39.235124 230.087478 37.643324 
L 171.725428 151.264556 
z
" style="fill: #ff7f0e"/>
   </g>
   <g id="patch_4">
    <path d="M 230.033983 37.614165 
C 228.79454 36.977519 227.544762 36.361197 226.285152 35.765446 
C 225.025542 35.169695 223.756269 34.594595 222.477841 34.040376 
L 171.671932 151.235397 
z
" style="fill: #aec7e8"/>
   </g>
   <g id="patch_5">
    <path d="M 222.425481 34.018938 
C 219.548757 32.771833 216.627091 31.63107 213.666419 30.598969 
C 210.705748 29.566867 207.708078 28.644127 204.679502 27.832622 
L 171.619572 151.21396 
z
" style="fill: #ffbb78"/>
   </g>
   <g id="patch_6">
    <path d="M 204.612406 27.814054 
C 202.256952 27.182912 199.883908 26.619351 197.496191 26.124064 
C 195.108474 25.628776 192.707064 25.201966 190.294912 24.844157 
L 171.552476 151.195392 
z
" style="fill: #98df8a"/>
   </g>
   <g id="patch_7">
    <path d="M 190.113029 24.838203 
C 178.032532 23.04623 165.757236 22.996016 153.662482 24.689097 
C 141.567729 26.382177 129.778061 29.801117 118.653972 34.841377 
L 171.370593 151.189437 
z
" style="fill: #2ca02c"/>
   </g>
   <g id="patch_8">
    <path d="M 118.473035 34.90115 
C 115.617102 36.195157 112.809781 37.59388 110.056779 39.094476 
C 107.303777 40.595072 104.606959 42.196524 101.971807 43.895577 
L 171.189657 151.249211 
z
" style="fill: #d62728"/>
   </g>
   <g id="patch_9">
    <path d="M 101.916519 43.930272 
C 100.159861 45.062903 98.431268 46.238481 96.732301 47.455943 
C 95.033335 48.673405 93.364507 49.932385 91.727325 51.231745 
L 171.134369 151.283906 
z
" style="fill: #9467bd"/>
   </g>
   <g id="patch_10">
    <path d="M 91.69634 51.255723 
C 90.87778 51.905378 90.067223 52.565055 89.264853 53.234603 
C 88.462483 53.904151 87.668359 54.583521 86.882662 55.272559 
L 171.103383 151.307884 
z
" style="fill: #ff9896"/>
   </g>
   <g id="patch_11">
    <path d="M 86.71435 55.526701 
C 68.79142 71.244688 55.621511 91.6706 48.701484 114.482872 
C 41.781457 137.295143 41.383807 161.595478 47.553732 184.621953 
L 170.935071 151.562026 
z
" style="fill: #c5b0d5"/>
   </g>
   <g id="patch_12">
    <path d="M 47.555013 184.935107 
C 48.005814 186.617518 48.490979 188.290532 49.010204 189.9531 
C 49.529429 191.615668 50.082606 193.267442 50.669387 194.907385 
L 170.936352 151.87518 
z
" style="fill: #c49c94"/>
   </g>
   <g id="patch_13">
    <path d="M 50.6891 194.960418 
C 51.628001 197.584471 52.65253 200.177092 53.761042 202.734119 
C 54.869554 205.291146 56.061455 207.811209 57.334831 210.290261 
L 170.956065 151.928214 
z
" style="fill: #8c564b"/>
   </g>
   <g id="patch_14">
    <path d="M 57.420139 210.426204 
C 62.041121 219.422491 67.714253 227.838206 74.320238 235.496379 
C 80.926224 243.154551 88.41843 250.001123 96.639306 255.89212 
L 171.041373 152.064156 
z
" style="fill: #e377c2"/>
   </g>
   <g id="patch_15">
    <path d="M 96.791422 256.013865 
C 101.323388 259.261426 106.063124 262.208784 110.980211 264.837021 
C 115.897297 267.465258 120.981192 269.768741 126.199266 271.732685 
L 171.193489 152.185902 
z
" style="fill: #7f7f7f"/>
   </g>
   <g id="patch_16">
    <path d="M 126.354878 271.786932 
C 133.532007 274.488212 140.93784 276.537682 148.482604 277.910498 
C 156.027369 279.283315 163.680458 279.973909 171.349102 279.973909 
L 171.3491 152.240149 
z
" style="fill: #f7b6d2"/>
   </g>
   <g id="patch_17">
    <path d="M 171.577918 279.965481 
C 182.390901 279.965481 193.160254 278.592461 203.62734 275.879397 
C 214.094427 273.166333 224.174777 269.135118 233.626301 263.882567 
L 171.577917 152.231721 
z
" style="fill: #c7c7c7"/>
   </g>
   <g id="patch_18">
    <path d="M 233.816759 263.78961 
C 239.299882 260.742442 244.551097 257.295498 249.527761 253.476769 
C 254.504425 249.658041 259.193031 245.477892 263.555506 240.970267 
L 171.768375 152.138764 
z
" style="fill: #dbdb8d"/>
   </g>
   <g id="patch_19">
    <path d="M 263.688013 240.821643 
C 270.478429 233.805294 276.441997 226.033421 281.461781 217.658418 
C 286.481564 209.283415 290.524538 200.360382 293.511426 191.064285 
L 171.900881 151.99014 
z
" style="fill: #bcbd22"/>
   </g>
   <g id="patch_20">
    <path d="M 293.573243 190.911523 
C 294.638973 187.594648 295.568558 184.235559 296.359666 180.842685 
C 297.150773 177.449811 297.80274 174.025992 298.313932 170.579816 
L 171.962698 151.837378 
z
" style="fill: #17becf"/>
   </g>
   <g id="patch_21">
    <path d="M 298.326394 170.498113 
C 298.786454 167.396637 299.132164 164.279273 299.362819 161.152356 
C 299.593474 158.02544 299.708919 154.89109 299.708919 151.755678 
L 171.975159 151.755675 
z
" style="fill: #9edae5"/>
   </g>
   <g id="patch_22">
    <path d="M 245.955737 151.716522 
C 245.955737 140.082007 243.230745 128.607602 237.999735 118.215371 
C 232.768725 107.823139 225.175673 98.799109 215.830743 91.868437 
L 171.444377 151.716522 
z
" style="fill: #ffffff"/>
   </g>
   <g id="patch_23">
    <path d="M 215.830743 91.868437 
C 214.198412 90.657818 212.517235 89.514487 210.791431 88.441313 
C 209.065627 87.368139 207.296639 86.36602 205.488907 85.43747 
L 171.444377 151.716522 
z
" style="fill: #ffffff"/>
   </g>
   <g id="patch_24">
    <path d="M 205.488907 85.43747 
C 204.765898 85.066093 204.036861 84.706572 203.302089 84.359051 
C 202.567317 84.011529 201.826907 83.676054 201.081157 83.35276 
L 171.444377 151.716522 
z
" style="fill: #ffffff"/>
   </g>
   <g id="patch_25">
    <path d="M 201.081157 83.35276 
C 199.403069 82.625281 197.698763 81.959837 195.971705 81.357777 
C 194.244646 80.755718 192.496006 80.217453 190.729336 79.744075 
L 171.444377 151.716522 
z
" style="fill: #ffffff"/>
   </g>
   <g id="patch_26">
    <path d="M 190.729336 79.744075 
C 189.355322 79.375909 187.971046 79.047165 186.578211 78.758248 
C 185.185376 78.46933 183.784553 78.220357 182.377465 78.011635 
L 171.444377 151.716522 
z
" style="fill: #ffffff"/>
   </g>
   <g id="patch_27">
    <path d="M 182.377465 78.011635 
C 175.330508 76.966318 168.169919 76.937027 161.114646 77.924657 
C 154.059373 78.912287 147.182067 80.906669 140.693015 83.84682 
L 171.444377 151.716522 
z
" style="fill: #ffffff"/>
   </g>
   <g id="patch_28">
    <path d="M 140.693015 83.84682 
C 139.027053 84.601657 137.38945 85.417579 135.783532 86.292927 
C 134.177614 87.168274 132.60447 88.102455 131.067298 89.093569 
L 171.444377 151.716522 
z
" style="fill: #ffffff"/>
   </g>
   <g id="patch_29">
    <path d="M 131.067298 89.093569 
C 130.042581 89.754271 129.034235 90.440024 128.043171 91.150211 
C 127.052108 91.860397 126.078625 92.594802 125.123602 93.352762 
L 171.444377 151.716522 
z
" style="fill: #ffffff"/>
   </g>
   <g id="patch_30">
    <path d="M 125.123602 93.352762 
C 124.646109 93.731727 124.173284 94.116539 123.705234 94.507109 
C 123.237185 94.897678 122.773947 95.293977 122.315623 95.695916 
L 171.444377 151.716522 
z
" style="fill: #ffffff"/>
   </g>
   <g id="patch_31">
    <path d="M 122.315623 95.695916 
C 111.860581 104.864742 104.178134 116.779857 100.141452 130.087016 
C 96.104769 143.394174 95.872807 157.569369 99.47193 171.00148 
L 171.444377 151.716522 
z
" style="fill: #ffffff"/>
   </g>
   <g id="patch_32">
    <path d="M 99.47193 171.00148 
C 99.734897 171.982886 100.01791 172.958811 100.320791 173.928642 
C 100.623673 174.898473 100.946359 175.862008 101.288648 176.818642 
L 171.444377 151.716522 
z
" style="fill: #ffffff"/>
   </g>
   <g id="patch_33">
    <path d="M 101.288648 176.818642 
C 101.83634 178.349339 102.433982 179.861701 103.080614 181.353301 
C 103.727246 182.8449 104.422521 184.314936 105.165324 185.76105 
L 171.444377 151.716522 
z
" style="fill: #ffffff"/>
   </g>
   <g id="patch_34">
    <path d="M 105.165324 185.76105 
C 107.860897 191.008884 111.170224 195.918051 115.023716 200.385318 
C 118.877207 204.852586 123.24766 208.846419 128.043172 212.282834 
L 171.444377 151.716522 
z
" style="fill: #ffffff"/>
   </g>
   <g id="patch_35">
    <path d="M 128.043172 212.282834 
C 130.686819 214.177245 133.451665 215.896537 136.319965 217.429675 
C 139.188266 218.962814 142.153871 220.306512 145.197747 221.452146 
L 171.444377 151.716522 
z
" style="fill: #ffffff"/>
   </g>
   <g id="patch_36">
    <path d="M 145.197747 221.452146 
C 149.384406 223.027893 153.704475 224.223417 158.105588 225.024226 
C 162.506701 225.825036 166.971002 226.227882 171.444378 226.227882 
L 171.444377 151.716522 
z
" style="fill: #ffffff"/>
   </g>
   <g id="patch_37">
    <path d="M 171.444378 226.227882 
C 177.751952 226.227882 184.034074 225.426954 190.139875 223.844333 
C 196.245675 222.261713 202.125879 219.910171 207.639268 216.846182 
L 171.444377 151.716522 
z
" style="fill: #ffffff"/>
   </g>
   <g id="patch_38">
    <path d="M 207.639268 216.846182 
C 210.837757 215.068668 213.900965 213.05795 216.804019 210.830359 
C 219.707073 208.602767 222.442093 206.164347 224.986871 203.534899 
L 171.444377 151.716522 
z
" style="fill: #ffffff"/>
   </g>
   <g id="patch_39">
    <path d="M 224.986871 203.534899 
C 228.947947 199.442029 232.426695 194.908436 235.354902 190.023018 
C 238.283109 185.137599 240.641511 179.932497 242.383862 174.509774 
L 171.444377 151.716522 
z
" style="fill: #ffffff"/>
   </g>
   <g id="patch_40">
    <path d="M 242.383862 174.509774 
C 243.005538 172.57493 243.547796 170.615461 244.009275 168.636285 
C 244.470754 166.657109 244.851069 164.65988 245.149264 162.649611 
L 171.444377 151.716522 
z
" style="fill: #ffffff"/>
   </g>
   <g id="patch_41">
    <path d="M 245.149264 162.649611 
C 245.417633 160.840417 245.619296 159.021954 245.753845 157.19792 
C 245.888394 155.373885 245.955737 153.545514 245.955737 151.716524 
L 171.444377 151.716522 
z
" style="fill: #ffffff"/>
   </g>
   <g id="matplotlib.axis_1"/>
   <g id="matplotlib.axis_2"/>
   <g id="text_1">
    <!-- A [57] -->
    <g transform="translate(297.424161 91.063003) scale(0.1 -0.1)">
     <defs>
      <path id="DejaVuSans-41" d="M 2188 4044 
L 1331 1722 
L 3047 1722 
L 2188 4044 
z
M 1831 4666 
L 2547 4666 
L 4325 0 
L 3669 0 
L 3244 1197 
L 1141 1197 
L 716 0 
L 50 0 
L 1831 4666 
z
" transform="scale(0.015625)"/>
      <path id="DejaVuSans-20" transform="scale(0.015625)"/>
      <path id="DejaVuSans-5b" d="M 550 4863 
L 1875 4863 
L 1875 4416 
L 1125 4416 
L 1125 -397 
L 1875 -397 
L 1875 -844 
L 550 -844 
L 550 4863 
z
" transform="scale(0.015625)"/>
      <path id="DejaVuSans-35" d="M 691 4666 
L 3169 4666 
L 3169 4134 
L 1269 4134 
L 1269 2991 
Q 1406 3038 1543 3061 
Q 1681 3084 1819 3084 
Q 2600 3084 3056 2656 
Q 3513 2228 3513 1497 
Q 3513 744 3044 326 
Q 2575 -91 1722 -91 
Q 1428 -91 1123 -41 
Q 819 9 494 109 
L 494 744 
Q 775 591 1075 516 
Q 1375 441 1709 441 
Q 2250 441 2565 725 
Q 2881 1009 2881 1497 
Q 2881 1984 2565 2268 
Q 2250 2553 1709 2553 
Q 1456 2553 1204 2497 
Q 953 2441 691 2322 
L 691 4666 
z
" transform="scale(0.015625)"/>
      <path id="DejaVuSans-37" d="M 525 4666 
L 3525 4666 
L 3525 4397 
L 1831 0 
L 1172 0 
L 2766 4134 
L 525 4134 
L 525 4666 
z
" transform="scale(0.015625)"/>
      <path id="DejaVuSans-5d" d="M 1947 4863 
L 1947 -844 
L 622 -844 
L 622 -397 
L 1369 -397 
L 1369 4416 
L 622 4416 
L 622 4863 
L 1947 4863 
z
" transform="scale(0.015625)"/>
     </defs>
     <use xlink:href="#DejaVuSans-41"/>
     <use xlink:href="#DejaVuSans-20" x="68.408203"/>
     <use xlink:href="#DejaVuSans-5b" x="100.195312"/>
     <use xlink:href="#DejaVuSans-35" x="139.208984"/>
     <use xlink:href="#DejaVuSans-37" x="202.832031"/>
     <use xlink:href="#DejaVuSans-5d" x="266.455078"/>
    </g>
   </g>
   <g id="text_2">
    <!-- C [10] -->
    <g transform="translate(245.922729 34.704965) scale(0.1 -0.1)">
     <defs>
      <path id="DejaVuSans-43" d="M 4122 4306 
L 4122 3641 
Q 3803 3938 3442 4084 
Q 3081 4231 2675 4231 
Q 1875 4231 1450 3742 
Q 1025 3253 1025 2328 
Q 1025 1406 1450 917 
Q 1875 428 2675 428 
Q 3081 428 3442 575 
Q 3803 722 4122 1019 
L 4122 359 
Q 3791 134 3420 21 
Q 3050 -91 2638 -91 
Q 1578 -91 968 557 
Q 359 1206 359 2328 
Q 359 3453 968 4101 
Q 1578 4750 2638 4750 
Q 3056 4750 3426 4639 
Q 3797 4528 4122 4306 
z
" transform="scale(0.015625)"/>
      <path id="DejaVuSans-31" d="M 794 531 
L 1825 531 
L 1825 4091 
L 703 3866 
L 703 4441 
L 1819 4666 
L 2450 4666 
L 2450 531 
L 3481 531 
L 3481 0 
L 794 0 
L 794 531 
z
" transform="scale(0.015625)"/>
      <path id="DejaVuSans-30" d="M 2034 4250 
Q 1547 4250 1301 3770 
Q 1056 3291 1056 2328 
Q 1056 1369 1301 889 
Q 1547 409 2034 409 
Q 2525 409 2770 889 
Q 3016 1369 3016 2328 
Q 3016 3291 2770 3770 
Q 2525 4250 2034 4250 
z
M 2034 4750 
Q 2819 4750 3233 4129 
Q 3647 3509 3647 2328 
Q 3647 1150 3233 529 
Q 2819 -91 2034 -91 
Q 1250 -91 836 529 
Q 422 1150 422 2328 
Q 422 3509 836 4129 
Q 1250 4750 2034 4750 
z
" transform="scale(0.015625)"/>
     </defs>
     <use xlink:href="#DejaVuSans-43"/>
     <use xlink:href="#DejaVuSans-20" x="69.824219"/>
     <use xlink:href="#DejaVuSans-5b" x="101.611328"/>
     <use xlink:href="#DejaVuSans-31" x="140.625"/>
     <use xlink:href="#DejaVuSans-30" x="204.248047"/>
     <use xlink:href="#DejaVuSans-5d" x="267.871094"/>
    </g>
   </g>
   <g id="text_3">
    <!-- D [4] -->
    <g transform="translate(231.746474 26.977826) scale(0.1 -0.1)">
     <defs>
      <path id="DejaVuSans-44" d="M 1259 4147 
L 1259 519 
L 2022 519 
Q 2988 519 3436 956 
Q 3884 1394 3884 2338 
Q 3884 3275 3436 3711 
Q 2988 4147 2022 4147 
L 1259 4147 
z
M 628 4666 
L 1925 4666 
Q 3281 4666 3915 4102 
Q 4550 3538 4550 2338 
Q 4550 1131 3912 565 
Q 3275 0 1925 0 
L 628 0 
L 628 4666 
z
" transform="scale(0.015625)"/>
      <path id="DejaVuSans-34" d="M 2419 4116 
L 825 1625 
L 2419 1625 
L 2419 4116 
z
M 2253 4666 
L 3047 4666 
L 3047 1625 
L 3713 1625 
L 3713 1100 
L 3047 1100 
L 3047 0 
L 2419 0 
L 2419 1100 
L 313 1100 
L 313 1709 
L 2253 4666 
z
" transform="scale(0.015625)"/>
     </defs>
     <use xlink:href="#DejaVuSans-44"/>
     <use xlink:href="#DejaVuSans-20" x="77.001953"/>
     <use xlink:href="#DejaVuSans-5b" x="108.789062"/>
     <use xlink:href="#DejaVuSans-34" x="147.802734"/>
     <use xlink:href="#DejaVuSans-5d" x="211.425781"/>
    </g>
   </g>
   <g id="text_4">
    <!-- E [9] -->
    <g transform="translate(217.871104 21.296844) scale(0.1 -0.1)">
     <defs>
      <path id="DejaVuSans-45" d="M 628 4666 
L 3578 4666 
L 3578 4134 
L 1259 4134 
L 1259 2753 
L 3481 2753 
L 3481 2222 
L 1259 2222 
L 1259 531 
L 3634 531 
L 3634 0 
L 628 0 
L 628 4666 
z
" transform="scale(0.015625)"/>
      <path id="DejaVuSans-39" d="M 703 97 
L 703 672 
Q 941 559 1184 500 
Q 1428 441 1663 441 
Q 2288 441 2617 861 
Q 2947 1281 2994 2138 
Q 2813 1869 2534 1725 
Q 2256 1581 1919 1581 
Q 1219 1581 811 2004 
Q 403 2428 403 3163 
Q 403 3881 828 4315 
Q 1253 4750 1959 4750 
Q 2769 4750 3195 4129 
Q 3622 3509 3622 2328 
Q 3622 1225 3098 567 
Q 2575 -91 1691 -91 
Q 1453 -91 1209 -44 
Q 966 3 703 97 
z
M 1959 2075 
Q 2384 2075 2632 2365 
Q 2881 2656 2881 3163 
Q 2881 3666 2632 3958 
Q 2384 4250 1959 4250 
Q 1534 4250 1286 3958 
Q 1038 3666 1038 3163 
Q 1038 2656 1286 2365 
Q 1534 2075 1959 2075 
z
" transform="scale(0.015625)"/>
     </defs>
     <use xlink:href="#DejaVuSans-45"/>
     <use xlink:href="#DejaVuSans-20" x="63.183594"/>
     <use xlink:href="#DejaVuSans-5b" x="94.970703"/>
     <use xlink:href="#DejaVuSans-39" x="133.984375"/>
     <use xlink:href="#DejaVuSans-5d" x="197.607422"/>
    </g>
   </g>
   <g id="text_5">
    <!-- F [7] -->
    <g transform="translate(200.090563 16.376306) scale(0.1 -0.1)">
     <defs>
      <path id="DejaVuSans-46" d="M 628 4666 
L 3309 4666 
L 3309 4134 
L 1259 4134 
L 1259 2759 
L 3109 2759 
L 3109 2228 
L 1259 2228 
L 1259 0 
L 628 0 
L 628 4666 
z
" transform="scale(0.015625)"/>
     </defs>
     <use xlink:href="#DejaVuSans-46"/>
     <use xlink:href="#DejaVuSans-20" x="57.519531"/>
     <use xlink:href="#DejaVuSans-5b" x="89.306641"/>
     <use xlink:href="#DejaVuSans-37" x="128.320312"/>
     <use xlink:href="#DejaVuSans-5d" x="191.943359"/>
    </g>
   </g>
   <g id="text_6">
    <!-- G [35] -->
    <g transform="translate(120.436984 14.798437) scale(0.1 -0.1)">
     <defs>
      <path id="DejaVuSans-47" d="M 3809 666 
L 3809 1919 
L 2778 1919 
L 2778 2438 
L 4434 2438 
L 4434 434 
Q 4069 175 3628 42 
Q 3188 -91 2688 -91 
Q 1594 -91 976 548 
Q 359 1188 359 2328 
Q 359 3472 976 4111 
Q 1594 4750 2688 4750 
Q 3144 4750 3555 4637 
Q 3966 4525 4313 4306 
L 4313 3634 
Q 3963 3931 3569 4081 
Q 3175 4231 2741 4231 
Q 1884 4231 1454 3753 
Q 1025 3275 1025 2328 
Q 1025 1384 1454 906 
Q 1884 428 2741 428 
Q 3075 428 3337 486 
Q 3600 544 3809 666 
z
" transform="scale(0.015625)"/>
      <path id="DejaVuSans-33" d="M 2597 2516 
Q 3050 2419 3304 2112 
Q 3559 1806 3559 1356 
Q 3559 666 3084 287 
Q 2609 -91 1734 -91 
Q 1441 -91 1130 -33 
Q 819 25 488 141 
L 488 750 
Q 750 597 1062 519 
Q 1375 441 1716 441 
Q 2309 441 2620 675 
Q 2931 909 2931 1356 
Q 2931 1769 2642 2001 
Q 2353 2234 1838 2234 
L 1294 2234 
L 1294 2753 
L 1863 2753 
Q 2328 2753 2575 2939 
Q 2822 3125 2822 3475 
Q 2822 3834 2567 4026 
Q 2313 4219 1838 4219 
Q 1578 4219 1281 4162 
Q 984 4106 628 3988 
L 628 4550 
Q 988 4650 1302 4700 
Q 1616 4750 1894 4750 
Q 2613 4750 3031 4423 
Q 3450 4097 3450 3541 
Q 3450 3153 3228 2886 
Q 3006 2619 2597 2516 
z
" transform="scale(0.015625)"/>
     </defs>
     <use xlink:href="#DejaVuSans-47"/>
     <use xlink:href="#DejaVuSans-20" x="77.490234"/>
     <use xlink:href="#DejaVuSans-5b" x="109.277344"/>
     <use xlink:href="#DejaVuSans-33" x="148.291016"/>
     <use xlink:href="#DejaVuSans-35" x="211.914062"/>
     <use xlink:href="#DejaVuSans-5d" x="275.537109"/>
    </g>
   </g>
   <g id="text_7">
    <!-- H [9] -->
    <g transform="translate(79.079428 30.638377) scale(0.1 -0.1)">
     <defs>
      <path id="DejaVuSans-48" d="M 628 4666 
L 1259 4666 
L 1259 2753 
L 3553 2753 
L 3553 4666 
L 4184 4666 
L 4184 0 
L 3553 0 
L 3553 2222 
L 1259 2222 
L 1259 0 
L 628 0 
L 628 4666 
z
" transform="scale(0.015625)"/>
     </defs>
     <use xlink:href="#DejaVuSans-48"/>
     <use xlink:href="#DejaVuSans-20" x="75.195312"/>
     <use xlink:href="#DejaVuSans-5b" x="106.982422"/>
     <use xlink:href="#DejaVuSans-39" x="145.996094"/>
     <use xlink:href="#DejaVuSans-5d" x="209.619141"/>
    </g>
   </g>
   <g id="text_8">
    <!-- I [6] -->
    <g transform="translate(68.998345 39.832522) scale(0.1 -0.1)">
     <defs>
      <path id="DejaVuSans-49" d="M 628 4666 
L 1259 4666 
L 1259 0 
L 628 0 
L 628 4666 
z
" transform="scale(0.015625)"/>
      <path id="DejaVuSans-36" d="M 2113 2584 
Q 1688 2584 1439 2293 
Q 1191 2003 1191 1497 
Q 1191 994 1439 701 
Q 1688 409 2113 409 
Q 2538 409 2786 701 
Q 3034 994 3034 1497 
Q 3034 2003 2786 2293 
Q 2538 2584 2113 2584 
z
M 3366 4563 
L 3366 3988 
Q 3128 4100 2886 4159 
Q 2644 4219 2406 4219 
Q 1781 4219 1451 3797 
Q 1122 3375 1075 2522 
Q 1259 2794 1537 2939 
Q 1816 3084 2150 3084 
Q 2853 3084 3261 2657 
Q 3669 2231 3669 1497 
Q 3669 778 3244 343 
Q 2819 -91 2113 -91 
Q 1303 -91 875 529 
Q 447 1150 447 2328 
Q 447 3434 972 4092 
Q 1497 4750 2381 4750 
Q 2619 4750 2861 4703 
Q 3103 4656 3366 4563 
z
" transform="scale(0.015625)"/>
     </defs>
     <use xlink:href="#DejaVuSans-49"/>
     <use xlink:href="#DejaVuSans-20" x="29.492188"/>
     <use xlink:href="#DejaVuSans-5b" x="61.279297"/>
     <use xlink:href="#DejaVuSans-36" x="100.292969"/>
     <use xlink:href="#DejaVuSans-5d" x="163.916016"/>
    </g>
   </g>
   <g id="text_9">
    <!-- K [3] -->
    <g transform="translate(57.179437 46.18665) scale(0.1 -0.1)">
     <defs>
      <path id="DejaVuSans-4b" d="M 628 4666 
L 1259 4666 
L 1259 2694 
L 3353 4666 
L 4166 4666 
L 1850 2491 
L 4331 0 
L 3500 0 
L 1259 2247 
L 1259 0 
L 628 0 
L 628 4666 
z
" transform="scale(0.015625)"/>
     </defs>
     <use xlink:href="#DejaVuSans-4b"/>
     <use xlink:href="#DejaVuSans-20" x="65.576172"/>
     <use xlink:href="#DejaVuSans-5b" x="97.363281"/>
     <use xlink:href="#DejaVuSans-33" x="136.376953"/>
     <use xlink:href="#DejaVuSans-5d" x="200"/>
    </g>
   </g>
   <g id="text_10">
    <!-- L [68] -->
    <g transform="translate(7.2 113.534331) scale(0.1 -0.1)">
     <defs>
      <path id="DejaVuSans-4c" d="M 628 4666 
L 1259 4666 
L 1259 531 
L 3531 531 
L 3531 0 
L 628 0 
L 628 4666 
z
" transform="scale(0.015625)"/>
      <path id="DejaVuSans-38" d="M 2034 2216 
Q 1584 2216 1326 1975 
Q 1069 1734 1069 1313 
Q 1069 891 1326 650 
Q 1584 409 2034 409 
Q 2484 409 2743 651 
Q 3003 894 3003 1313 
Q 3003 1734 2745 1975 
Q 2488 2216 2034 2216 
z
M 1403 2484 
Q 997 2584 770 2862 
Q 544 3141 544 3541 
Q 544 4100 942 4425 
Q 1341 4750 2034 4750 
Q 2731 4750 3128 4425 
Q 3525 4100 3525 3541 
Q 3525 3141 3298 2862 
Q 3072 2584 2669 2484 
Q 3125 2378 3379 2068 
Q 3634 1759 3634 1313 
Q 3634 634 3220 271 
Q 2806 -91 2034 -91 
Q 1263 -91 848 271 
Q 434 634 434 1313 
Q 434 1759 690 2068 
Q 947 2378 1403 2484 
z
M 1172 3481 
Q 1172 3119 1398 2916 
Q 1625 2713 2034 2713 
Q 2441 2713 2670 2916 
Q 2900 3119 2900 3481 
Q 2900 3844 2670 4047 
Q 2441 4250 2034 4250 
Q 1625 4250 1398 4047 
Q 1172 3844 1172 3481 
z
" transform="scale(0.015625)"/>
     </defs>
     <use xlink:href="#DejaVuSans-4c"/>
     <use xlink:href="#DejaVuSans-20" x="55.712891"/>
     <use xlink:href="#DejaVuSans-5b" x="87.5"/>
     <use xlink:href="#DejaVuSans-36" x="126.513672"/>
     <use xlink:href="#DejaVuSans-38" x="190.136719"/>
     <use xlink:href="#DejaVuSans-5d" x="253.759766"/>
    </g>
   </g>
   <g id="text_11">
    <!-- M [5] -->
    <g transform="translate(10.845714 196.520267) scale(0.1 -0.1)">
     <defs>
      <path id="DejaVuSans-4d" d="M 628 4666 
L 1569 4666 
L 2759 1491 
L 3956 4666 
L 4897 4666 
L 4897 0 
L 4281 0 
L 4281 4097 
L 3078 897 
L 2444 897 
L 1241 4097 
L 1241 0 
L 628 0 
L 628 4666 
z
" transform="scale(0.015625)"/>
     </defs>
     <use xlink:href="#DejaVuSans-4d"/>
     <use xlink:href="#DejaVuSans-20" x="86.279297"/>
     <use xlink:href="#DejaVuSans-5b" x="118.066406"/>
     <use xlink:href="#DejaVuSans-35" x="157.080078"/>
     <use xlink:href="#DejaVuSans-5d" x="220.703125"/>
    </g>
   </g>
   <g id="text_12">
    <!-- N [8] -->
    <g transform="translate(17.216539 210.574085) scale(0.1 -0.1)">
     <defs>
      <path id="DejaVuSans-4e" d="M 628 4666 
L 1478 4666 
L 3547 763 
L 3547 4666 
L 4159 4666 
L 4159 0 
L 3309 0 
L 1241 3903 
L 1241 0 
L 628 0 
L 628 4666 
z
" transform="scale(0.015625)"/>
     </defs>
     <use xlink:href="#DejaVuSans-4e"/>
     <use xlink:href="#DejaVuSans-20" x="74.804688"/>
     <use xlink:href="#DejaVuSans-5b" x="106.591797"/>
     <use xlink:href="#DejaVuSans-38" x="145.605469"/>
     <use xlink:href="#DejaVuSans-5d" x="209.228516"/>
    </g>
   </g>
   <g id="text_13">
    <!-- P [29] -->
    <g transform="translate(34.912188 246.598976) scale(0.1 -0.1)">
     <defs>
      <path id="DejaVuSans-50" d="M 1259 4147 
L 1259 2394 
L 2053 2394 
Q 2494 2394 2734 2622 
Q 2975 2850 2975 3272 
Q 2975 3691 2734 3919 
Q 2494 4147 2053 4147 
L 1259 4147 
z
M 628 4666 
L 2053 4666 
Q 2838 4666 3239 4311 
Q 3641 3956 3641 3272 
Q 3641 2581 3239 2228 
Q 2838 1875 2053 1875 
L 1259 1875 
L 1259 0 
L 628 0 
L 628 4666 
z
" transform="scale(0.015625)"/>
      <path id="DejaVuSans-32" d="M 1228 531 
L 3431 531 
L 3431 0 
L 469 0 
L 469 531 
Q 828 903 1448 1529 
Q 2069 2156 2228 2338 
Q 2531 2678 2651 2914 
Q 2772 3150 2772 3378 
Q 2772 3750 2511 3984 
Q 2250 4219 1831 4219 
Q 1534 4219 1204 4116 
Q 875 4013 500 3803 
L 500 4441 
Q 881 4594 1212 4672 
Q 1544 4750 1819 4750 
Q 2544 4750 2975 4387 
Q 3406 4025 3406 3419 
Q 3406 3131 3298 2873 
Q 3191 2616 2906 2266 
Q 2828 2175 2409 1742 
Q 1991 1309 1228 531 
z
" transform="scale(0.015625)"/>
     </defs>
     <use xlink:href="#DejaVuSans-50"/>
     <use xlink:href="#DejaVuSans-20" x="60.302734"/>
     <use xlink:href="#DejaVuSans-5b" x="92.089844"/>
     <use xlink:href="#DejaVuSans-32" x="131.103516"/>
     <use xlink:href="#DejaVuSans-39" x="194.726562"/>
     <use xlink:href="#DejaVuSans-5d" x="258.349609"/>
    </g>
   </g>
   <g id="text_14">
    <!-- Q [16] -->
    <g transform="translate(73.380758 278.861508) scale(0.1 -0.1)">
     <defs>
      <path id="DejaVuSans-51" d="M 2522 4238 
Q 1834 4238 1429 3725 
Q 1025 3213 1025 2328 
Q 1025 1447 1429 934 
Q 1834 422 2522 422 
Q 3209 422 3611 934 
Q 4013 1447 4013 2328 
Q 4013 3213 3611 3725 
Q 3209 4238 2522 4238 
z
M 3406 84 
L 4238 -825 
L 3475 -825 
L 2784 -78 
Q 2681 -84 2626 -87 
Q 2572 -91 2522 -91 
Q 1538 -91 948 567 
Q 359 1225 359 2328 
Q 359 3434 948 4092 
Q 1538 4750 2522 4750 
Q 3503 4750 4090 4092 
Q 4678 3434 4678 2328 
Q 4678 1516 4351 937 
Q 4025 359 3406 84 
z
" transform="scale(0.015625)"/>
     </defs>
     <use xlink:href="#DejaVuSans-51"/>
     <use xlink:href="#DejaVuSans-20" x="78.710938"/>
     <use xlink:href="#DejaVuSans-5b" x="110.498047"/>
     <use xlink:href="#DejaVuSans-31" x="149.511719"/>
     <use xlink:href="#DejaVuSans-36" x="213.134766"/>
     <use xlink:href="#DejaVuSans-5d" x="276.757812"/>
    </g>
   </g>
   <g id="text_15">
    <!-- R [22] -->
    <g transform="translate(115.541267 293.236908) scale(0.1 -0.1)">
     <defs>
      <path id="DejaVuSans-52" d="M 2841 2188 
Q 3044 2119 3236 1894 
Q 3428 1669 3622 1275 
L 4263 0 
L 3584 0 
L 2988 1197 
Q 2756 1666 2539 1819 
Q 2322 1972 1947 1972 
L 1259 1972 
L 1259 0 
L 628 0 
L 628 4666 
L 2053 4666 
Q 2853 4666 3247 4331 
Q 3641 3997 3641 3322 
Q 3641 2881 3436 2590 
Q 3231 2300 2841 2188 
z
M 1259 4147 
L 1259 2491 
L 2053 2491 
Q 2509 2491 2742 2702 
Q 2975 2913 2975 3322 
Q 2975 3731 2742 3939 
Q 2509 4147 2053 4147 
L 1259 4147 
z
" transform="scale(0.015625)"/>
     </defs>
     <use xlink:href="#DejaVuSans-52"/>
     <use xlink:href="#DejaVuSans-20" x="69.482422"/>
     <use xlink:href="#DejaVuSans-5b" x="101.269531"/>
     <use xlink:href="#DejaVuSans-32" x="140.283203"/>
     <use xlink:href="#DejaVuSans-32" x="203.90625"/>
     <use xlink:href="#DejaVuSans-5d" x="267.529297"/>
    </g>
   </g>
   <g id="text_16">
    <!-- S [31] -->
    <g transform="translate(206.832283 291.00354) scale(0.1 -0.1)">
     <defs>
      <path id="DejaVuSans-53" d="M 3425 4513 
L 3425 3897 
Q 3066 4069 2747 4153 
Q 2428 4238 2131 4238 
Q 1616 4238 1336 4038 
Q 1056 3838 1056 3469 
Q 1056 3159 1242 3001 
Q 1428 2844 1947 2747 
L 2328 2669 
Q 3034 2534 3370 2195 
Q 3706 1856 3706 1288 
Q 3706 609 3251 259 
Q 2797 -91 1919 -91 
Q 1588 -91 1214 -16 
Q 841 59 441 206 
L 441 856 
Q 825 641 1194 531 
Q 1563 422 1919 422 
Q 2459 422 2753 634 
Q 3047 847 3047 1241 
Q 3047 1584 2836 1778 
Q 2625 1972 2144 2069 
L 1759 2144 
Q 1053 2284 737 2584 
Q 422 2884 422 3419 
Q 422 4038 858 4394 
Q 1294 4750 2059 4750 
Q 2388 4750 2728 4690 
Q 3069 4631 3425 4513 
z
" transform="scale(0.015625)"/>
     </defs>
     <use xlink:href="#DejaVuSans-53"/>
     <use xlink:href="#DejaVuSans-20" x="63.476562"/>
     <use xlink:href="#DejaVuSans-5b" x="95.263672"/>
     <use xlink:href="#DejaVuSans-33" x="134.277344"/>
     <use xlink:href="#DejaVuSans-31" x="197.900391"/>
     <use xlink:href="#DejaVuSans-5d" x="261.523438"/>
    </g>
   </g>
   <g id="text_17">
    <!-- T [18] -->
    <g transform="translate(257.303699 266.369945) scale(0.1 -0.1)">
     <defs>
      <path id="DejaVuSans-54" d="M -19 4666 
L 3928 4666 
L 3928 4134 
L 2272 4134 
L 2272 0 
L 1638 0 
L 1638 4134 
L -19 4134 
L -19 4666 
z
" transform="scale(0.015625)"/>
     </defs>
     <use xlink:href="#DejaVuSans-54"/>
     <use xlink:href="#DejaVuSans-20" x="61.083984"/>
     <use xlink:href="#DejaVuSans-5b" x="92.871094"/>
     <use xlink:href="#DejaVuSans-31" x="131.884766"/>
     <use xlink:href="#DejaVuSans-38" x="195.507812"/>
     <use xlink:href="#DejaVuSans-5d" x="259.130859"/>
    </g>
   </g>
   <g id="text_18">
    <!-- V [28] -->
    <g transform="translate(292.417871 226.984621) scale(0.1 -0.1)">
     <defs>
      <path id="DejaVuSans-56" d="M 1831 0 
L 50 4666 
L 709 4666 
L 2188 738 
L 3669 4666 
L 4325 4666 
L 2547 0 
L 1831 0 
z
" transform="scale(0.015625)"/>
     </defs>
     <use xlink:href="#DejaVuSans-56"/>
     <use xlink:href="#DejaVuSans-20" x="68.408203"/>
     <use xlink:href="#DejaVuSans-5b" x="100.195312"/>
     <use xlink:href="#DejaVuSans-32" x="139.208984"/>
     <use xlink:href="#DejaVuSans-38" x="202.832031"/>
     <use xlink:href="#DejaVuSans-5d" x="266.455078"/>
    </g>
   </g>
   <g id="text_19">
    <!-- W [10] -->
    <g transform="translate(308.799362 186.502591) scale(0.1 -0.1)">
     <defs>
      <path id="DejaVuSans-57" d="M 213 4666 
L 850 4666 
L 1831 722 
L 2809 4666 
L 3519 4666 
L 4500 722 
L 5478 4666 
L 6119 4666 
L 4947 0 
L 4153 0 
L 3169 4050 
L 2175 0 
L 1381 0 
L 213 4666 
z
" transform="scale(0.015625)"/>
     </defs>
     <use xlink:href="#DejaVuSans-57"/>
     <use xlink:href="#DejaVuSans-20" x="98.876953"/>
     <use xlink:href="#DejaVuSans-5b" x="130.664062"/>
     <use xlink:href="#DejaVuSans-31" x="169.677734"/>
     <use xlink:href="#DejaVuSans-30" x="233.300781"/>
     <use xlink:href="#DejaVuSans-5d" x="296.923828"/>
    </g>
   </g>
   <g id="text_20">
    <!-- Y [9] -->
    <g transform="translate(312.101585 164.851399) scale(0.1 -0.1)">
     <defs>
      <path id="DejaVuSans-59" d="M -13 4666 
L 666 4666 
L 1959 2747 
L 3244 4666 
L 3922 4666 
L 2272 2222 
L 2272 0 
L 1638 0 
L 1638 2222 
L -13 4666 
z
" transform="scale(0.015625)"/>
     </defs>
     <use xlink:href="#DejaVuSans-59"/>
     <use xlink:href="#DejaVuSans-20" x="61.083984"/>
     <use xlink:href="#DejaVuSans-5b" x="92.871094"/>
     <use xlink:href="#DejaVuSans-39" x="131.884766"/>
     <use xlink:href="#DejaVuSans-5d" x="195.507812"/>
    </g>
   </g>
   <g id="text_21">
    <!-- Q9EPB7 [384] -->
    <g transform="translate(129.519377 151.716522) scale(0.12 -0.12)">
     <defs>
      <path id="DejaVuSans-42" d="M 1259 2228 
L 1259 519 
L 2272 519 
Q 2781 519 3026 730 
Q 3272 941 3272 1375 
Q 3272 1813 3026 2020 
Q 2781 2228 2272 2228 
L 1259 2228 
z
M 1259 4147 
L 1259 2741 
L 2194 2741 
Q 2656 2741 2882 2914 
Q 3109 3088 3109 3444 
Q 3109 3797 2882 3972 
Q 2656 4147 2194 4147 
L 1259 4147 
z
M 628 4666 
L 2241 4666 
Q 2963 4666 3353 4366 
Q 3744 4066 3744 3513 
Q 3744 3084 3544 2831 
Q 3344 2578 2956 2516 
Q 3422 2416 3680 2098 
Q 3938 1781 3938 1306 
Q 3938 681 3513 340 
Q 3088 0 2303 0 
L 628 0 
L 628 4666 
z
" transform="scale(0.015625)"/>
     </defs>
     <use xlink:href="#DejaVuSans-51"/>
     <use xlink:href="#DejaVuSans-39" x="78.710938"/>
     <use xlink:href="#DejaVuSans-45" x="142.333984"/>
     <use xlink:href="#DejaVuSans-50" x="205.517578"/>
     <use xlink:href="#DejaVuSans-42" x="265.820312"/>
     <use xlink:href="#DejaVuSans-37" x="334.423828"/>
     <use xlink:href="#DejaVuSans-20" x="398.046875"/>
     <use xlink:href="#DejaVuSans-5b" x="429.833984"/>
     <use xlink:href="#DejaVuSans-33" x="468.847656"/>
     <use xlink:href="#DejaVuSans-38" x="532.470703"/>
     <use xlink:href="#DejaVuSans-34" x="596.09375"/>
     <use xlink:href="#DejaVuSans-5d" x="659.716797"/>
    </g>
   </g>
  </g>
 </g>
</svg>
