<?xml version="1.0" encoding="utf-8" standalone="no"?>
<!DOCTYPE svg PUBLIC "-//W3C//DTD SVG 1.1//EN"
  "http://www.w3.org/Graphics/SVG/1.1/DTD/svg11.dtd">
<svg xmlns:xlink="http://www.w3.org/1999/xlink" width="350.24492pt" height="301.7463pt" viewBox="0 0 350.24492 301.7463" xmlns="http://www.w3.org/2000/svg" version="1.1">
 <metadata>
  <rdf:RDF xmlns:dc="http://purl.org/dc/elements/1.1/" xmlns:cc="http://creativecommons.org/ns#" xmlns:rdf="http://www.w3.org/1999/02/22-rdf-syntax-ns#">
   <cc:Work>
    <dc:type rdf:resource="http://purl.org/dc/dcmitype/StillImage"/>
    <dc:date>2024-09-27T16:07:09.579885</dc:date>
    <dc:format>image/svg+xml</dc:format>
    <dc:creator>
     <cc:Agent>
      <dc:title>Matplotlib v3.8.3, https://matplotlib.org/</dc:title>
     </cc:Agent>
    </dc:creator>
   </cc:Work>
  </rdf:RDF>
 </metadata>
 <defs>
  <style type="text/css">*{stroke-linejoin: round; stroke-linecap: butt}</style>
 </defs>
 <g id="figure_1">
  <g id="patch_1">
   <path d="M 0 301.7463 
L 350.24492 301.7463 
L 350.24492 0 
L 0 0 
z
" style="fill: #ffffff"/>
  </g>
  <g id="axes_1">
   <g id="patch_2">
    <path d="M 300.297257 151.123189 
C 300.297257 129.764828 294.94026 108.743702 284.718232 89.99031 
C 274.496204 71.236918 259.731944 55.343468 241.781343 43.769552 
L 172.563497 151.123189 
z
" style="fill: #1f77b4"/>
   </g>
   <g id="patch_3">
    <path d="M 241.56492 43.554893 
C 238.636896 41.667006 235.63286 39.8997 232.560349 38.257409 
C 229.487838 36.615118 226.349424 35.099216 223.15298 33.713506 
L 172.347075 150.90853 
z
" style="fill: #ff7f0e"/>
   </g>
   <g id="patch_4">
    <path d="M 223.097692 33.687909 
C 221.819264 33.13369 220.531853 32.600427 219.235976 32.088334 
C 217.940099 31.576241 216.635929 31.085386 215.323991 30.615967 
L 172.291787 150.882932 
z
" style="fill: #aec7e8"/>
   </g>
   <g id="patch_5">
    <path d="M 215.274533 30.599178 
C 212.65048 29.660277 209.996403 28.807507 207.316561 28.042238 
C 204.63672 27.276969 201.932551 26.59961 199.208397 26.011249 
L 172.242329 150.866143 
z
" style="fill: #ffbb78"/>
   </g>
   <g id="patch_6">
    <path d="M 199.144652 25.997208 
C 196.761067 25.482403 194.363229 25.035961 191.954085 24.65843 
C 189.544942 24.280899 187.125481 23.972434 184.698678 23.733415 
L 172.178584 150.852102 
z
" style="fill: #98df8a"/>
   </g>
   <g id="patch_7">
    <path d="M 184.52529 23.734834 
C 173.068086 22.606398 161.510735 23.03208 150.167587 25.000304 
C 138.82444 26.968527 127.799277 30.461283 117.391973 35.383571 
L 172.005196 150.853521 
z
" style="fill: #2ca02c"/>
   </g>
   <g id="patch_8">
    <path d="M 117.216851 35.44704 
C 114.067458 36.936592 110.980323 38.554369 107.963191 40.29631 
C 104.946059 42.038252 102.001456 43.902902 99.13677 45.88558 
L 171.830074 150.91699 
z
" style="fill: #d62728"/>
   </g>
   <g id="patch_9">
    <path d="M 99.078884 45.924258 
C 97.360226 47.113759 95.671022 48.345266 94.0128 49.617664 
C 92.354577 50.890063 90.727835 52.202972 89.134044 53.555203 
L 171.772189 150.955668 
z
" style="fill: #9467bd"/>
   </g>
   <g id="patch_10">
    <path d="M 89.107122 53.577297 
C 88.575882 54.028021 88.048338 54.483083 87.524544 54.942439 
C 87.000749 55.401794 86.480722 55.865427 85.964513 56.333291 
L 171.745266 150.977762 
z
" style="fill: #ff9896"/>
   </g>
   <g id="patch_11">
    <path d="M 85.803667 56.587296 
C 68.140311 72.596429 55.306368 93.23509 48.760515 116.157531 
C 42.214663 139.079973 42.214663 163.383561 48.760516 186.306003 
L 171.58442 151.231767 
z
" style="fill: #c5b0d5"/>
   </g>
   <g id="patch_12">
    <path d="M 48.765571 186.614954 
C 49.14818 187.954785 49.552687 189.288266 49.97893 190.614861 
C 50.405172 191.941456 50.853093 193.260987 51.322512 194.572926 
L 171.589475 151.540718 
z
" style="fill: #c49c94"/>
   </g>
   <g id="patch_13">
    <path d="M 51.34091 194.621808 
C 52.279811 197.24586 53.30434 199.838482 54.412852 202.395509 
C 55.521363 204.952536 56.713264 207.472599 57.986641 209.951651 
L 171.607873 151.589601 
z
" style="fill: #8c564b"/>
   </g>
   <g id="patch_14">
    <path d="M 58.069118 210.084285 
C 62.530402 218.769666 67.972897 226.914935 74.289883 234.360376 
C 80.606869 241.805817 87.756787 248.502446 95.599437 254.318952 
L 171.690351 151.722235 
z
" style="fill: #e377c2"/>
   </g>
   <g id="patch_15">
    <path d="M 95.74294 254.437707 
C 99.941094 257.55127 104.326398 260.404224 108.874113 262.980472 
C 113.421827 265.556721 118.123384 267.851411 122.952258 269.851596 
L 171.833854 151.84099 
z
" style="fill: #7f7f7f"/>
   </g>
   <g id="patch_16">
    <path d="M 123.110759 269.910513 
C 130.840733 273.112373 138.866635 275.547004 147.072732 277.179298 
C 155.278829 278.811592 163.625488 279.633667 171.992352 279.633667 
L 171.992354 151.899907 
z
" style="fill: #f7b6d2"/>
   </g>
   <g id="patch_17">
    <path d="M 172.229723 279.626868 
C 183.042707 279.626868 193.81206 278.253849 204.279146 275.540785 
C 214.746232 272.827721 224.826582 268.796507 234.278107 263.543956 
L 172.229725 151.893108 
z
" style="fill: #c7c7c7"/>
   </g>
   <g id="patch_18">
    <path d="M 234.468565 263.450999 
C 239.951688 260.403831 245.202902 256.956887 250.179567 253.138159 
C 255.156231 249.31943 259.844837 245.139281 264.207313 240.631656 
L 172.420183 151.800151 
z
" style="fill: #dbdb8d"/>
   </g>
   <g id="patch_19">
    <path d="M 264.339819 240.483033 
C 271.130235 233.466684 277.093804 225.694811 282.113588 217.319808 
C 287.133372 208.944805 291.176346 200.021772 294.163233 190.725676 
L 172.55269 151.651527 
z
" style="fill: #bcbd22"/>
   </g>
   <g id="patch_20">
    <path d="M 294.22505 190.572913 
C 295.290781 187.256038 296.220366 183.89695 297.011474 180.504076 
C 297.802581 177.111202 298.454549 173.687382 298.965741 170.241206 
L 172.614507 151.498765 
z
" style="fill: #17becf"/>
   </g>
   <g id="patch_21">
    <path d="M 298.978202 170.159504 
C 299.438263 167.058028 299.783972 163.940663 300.014627 160.813747 
C 300.245283 157.68683 300.360728 154.552481 300.360728 151.417069 
L 172.626968 151.417062 
z
" style="fill: #9edae5"/>
   </g>
   <g id="patch_22">
    <path d="M 246.607546 151.377909 
C 246.607546 138.918866 243.482631 126.656542 237.519781 115.717063 
C 231.556932 104.777585 222.944446 95.506405 212.473263 88.754955 
L 172.096186 151.377909 
z
" style="fill: #ffffff"/>
   </g>
   <g id="patch_23">
    <path d="M 212.473263 88.754955 
C 210.765248 87.653687 209.012894 86.622759 207.220596 85.664755 
C 205.428298 84.706752 203.597556 83.822476 201.732964 83.014146 
L 172.096186 151.377909 
z
" style="fill: #ffffff"/>
   </g>
   <g id="patch_24">
    <path d="M 201.732964 83.014146 
C 200.987214 82.690851 200.236225 82.379781 199.480296 82.08106 
C 198.724368 81.782339 197.963602 81.496008 197.198305 81.22218 
L 172.096186 151.377909 
z
" style="fill: #ffffff"/>
   </g>
   <g id="patch_25">
    <path d="M 197.198305 81.22218 
C 195.667608 80.674488 194.119396 80.177039 192.556155 79.730631 
C 190.992914 79.284224 189.415482 78.889098 187.826392 78.545888 
L 172.096186 151.377909 
z
" style="fill: #ffffff"/>
   </g>
   <g id="patch_26">
    <path d="M 187.826392 78.545888 
C 186.435968 78.245585 185.037229 77.98516 183.631895 77.764934 
C 182.226561 77.544707 180.815209 77.364769 179.399574 77.225342 
L 172.096186 151.377909 
z
" style="fill: #ffffff"/>
   </g>
   <g id="patch_27">
    <path d="M 179.399574 77.225342 
C 172.716205 76.567087 165.974417 76.815402 159.357581 77.963533 
C 152.740745 79.111663 146.3094 81.149104 140.238473 84.020439 
L 172.096186 151.377909 
z
" style="fill: #ffffff"/>
   </g>
   <g id="patch_28">
    <path d="M 140.238473 84.020439 
C 138.401326 84.889344 136.600498 85.833047 134.840504 86.84918 
C 133.080511 87.865312 131.362826 88.953025 129.691759 90.109587 
L 172.096186 151.377909 
z
" style="fill: #ffffff"/>
   </g>
   <g id="patch_29">
    <path d="M 129.691759 90.109587 
C 128.689208 90.803463 127.703839 91.521841 126.736542 92.264074 
C 125.769246 93.006307 124.820313 93.77217 123.890602 94.560972 
L 172.096186 151.377909 
z
" style="fill: #ffffff"/>
   </g>
   <g id="patch_30">
    <path d="M 123.890602 94.560972 
C 123.580712 94.823894 123.272978 95.089347 122.967431 95.357304 
C 122.661884 95.625261 122.358535 95.895714 122.057413 96.168635 
L 172.096186 151.377909 
z
" style="fill: #ffffff"/>
   </g>
   <g id="patch_31">
    <path d="M 122.057413 96.168635 
C 111.753789 105.507296 104.267322 117.546514 100.448908 130.917939 
C 96.630495 144.289363 96.630495 158.466456 100.448909 171.83788 
L 172.096186 151.377909 
z
" style="fill: #ffffff"/>
   </g>
   <g id="patch_32">
    <path d="M 100.448909 171.83788 
C 100.672097 172.619448 100.90806 173.397312 101.156701 174.171159 
C 101.405342 174.945006 101.666629 175.714733 101.940457 176.48003 
L 172.096186 151.377909 
z
" style="fill: #ffffff"/>
   </g>
   <g id="patch_33">
    <path d="M 101.940457 176.48003 
C 102.488149 178.010727 103.085791 179.52309 103.732423 181.014689 
C 104.379055 182.506288 105.074331 183.976325 105.817133 185.422439 
L 172.096186 151.377909 
z
" style="fill: #ffffff"/>
   </g>
   <g id="patch_34">
    <path d="M 105.817133 185.422439 
C 108.419549 190.488911 111.594338 195.240318 115.279247 199.583492 
C 118.964155 203.926666 123.13494 207.833032 127.70982 211.225994 
L 172.096186 151.377909 
z
" style="fill: #ffffff"/>
   </g>
   <g id="patch_35">
    <path d="M 127.70982 211.225994 
C 130.158743 213.042239 132.716837 214.706462 135.36967 216.209274 
C 138.022504 217.712086 140.765079 219.050655 143.581922 220.217429 
L 172.096186 151.377909 
z
" style="fill: #ffffff"/>
   </g>
   <g id="patch_36">
    <path d="M 143.581922 220.217429 
C 148.091074 222.085181 152.77285 223.505383 157.55974 224.457554 
C 162.34663 225.409726 167.215514 225.889269 172.096185 225.889269 
L 172.096186 151.377909 
z
" style="fill: #ffffff"/>
   </g>
   <g id="patch_37">
    <path d="M 172.096185 225.889269 
C 178.403758 225.889269 184.685881 225.088342 190.791681 223.505721 
C 196.897482 221.9231 202.777686 219.571559 208.291075 216.507571 
L 172.096186 151.377909 
z
" style="fill: #ffffff"/>
   </g>
   <g id="patch_38">
    <path d="M 208.291075 216.507571 
C 211.489564 214.730056 214.552772 212.719339 217.455826 210.491747 
C 220.35888 208.264155 223.093901 205.825735 225.638678 203.196287 
L 172.096186 151.377909 
z
" style="fill: #ffffff"/>
   </g>
   <g id="patch_39">
    <path d="M 225.638678 203.196287 
C 229.599754 199.103417 233.078502 194.569825 236.00671 189.684406 
C 238.934917 184.798988 241.293319 179.593885 243.03567 174.171163 
L 172.096186 151.377909 
z
" style="fill: #ffffff"/>
   </g>
   <g id="patch_40">
    <path d="M 243.03567 174.171163 
C 243.657346 172.236319 244.199604 170.27685 244.661083 168.297674 
C 245.122563 166.318498 245.502877 164.321269 245.801072 162.311 
L 172.096186 151.377909 
z
" style="fill: #ffffff"/>
   </g>
   <g id="patch_41">
    <path d="M 245.801072 162.311 
C 246.069441 160.501806 246.271105 158.683343 246.405654 156.859309 
C 246.540203 155.035274 246.607546 153.206903 246.607546 151.377913 
L 172.096186 151.377909 
z
" style="fill: #ffffff"/>
   </g>
   <g id="matplotlib.axis_1"/>
   <g id="matplotlib.axis_2"/>
   <g id="text_1">
    <!-- A [61] -->
    <g transform="translate(295.933706 86.636397) scale(0.1 -0.1)">
     <defs>
      <path id="DejaVuSans-41" d="M 2188 4044 
L 1331 1722 
L 3047 1722 
L 2188 4044 
z
M 1831 4666 
L 2547 4666 
L 4325 0 
L 3669 0 
L 3244 1197 
L 1141 1197 
L 716 0 
L 50 0 
L 1831 4666 
z
" transform="scale(0.015625)"/>
      <path id="DejaVuSans-20" transform="scale(0.015625)"/>
      <path id="DejaVuSans-5b" d="M 550 4863 
L 1875 4863 
L 1875 4416 
L 1125 4416 
L 1125 -397 
L 1875 -397 
L 1875 -844 
L 550 -844 
L 550 4863 
z
" transform="scale(0.015625)"/>
      <path id="DejaVuSans-36" d="M 2113 2584 
Q 1688 2584 1439 2293 
Q 1191 2003 1191 1497 
Q 1191 994 1439 701 
Q 1688 409 2113 409 
Q 2538 409 2786 701 
Q 3034 994 3034 1497 
Q 3034 2003 2786 2293 
Q 2538 2584 2113 2584 
z
M 3366 4563 
L 3366 3988 
Q 3128 4100 2886 4159 
Q 2644 4219 2406 4219 
Q 1781 4219 1451 3797 
Q 1122 3375 1075 2522 
Q 1259 2794 1537 2939 
Q 1816 3084 2150 3084 
Q 2853 3084 3261 2657 
Q 3669 2231 3669 1497 
Q 3669 778 3244 343 
Q 2819 -91 2113 -91 
Q 1303 -91 875 529 
Q 447 1150 447 2328 
Q 447 3434 972 4092 
Q 1497 4750 2381 4750 
Q 2619 4750 2861 4703 
Q 3103 4656 3366 4563 
z
" transform="scale(0.015625)"/>
      <path id="DejaVuSans-31" d="M 794 531 
L 1825 531 
L 1825 4091 
L 703 3866 
L 703 4441 
L 1819 4666 
L 2450 4666 
L 2450 531 
L 3481 531 
L 3481 0 
L 794 0 
L 794 531 
z
" transform="scale(0.015625)"/>
      <path id="DejaVuSans-5d" d="M 1947 4863 
L 1947 -844 
L 622 -844 
L 622 -397 
L 1369 -397 
L 1369 4416 
L 622 4416 
L 622 4863 
L 1947 4863 
z
" transform="scale(0.015625)"/>
     </defs>
     <use xlink:href="#DejaVuSans-41"/>
     <use xlink:href="#DejaVuSans-20" x="68.408203"/>
     <use xlink:href="#DejaVuSans-5b" x="100.195312"/>
     <use xlink:href="#DejaVuSans-36" x="139.208984"/>
     <use xlink:href="#DejaVuSans-31" x="202.832031"/>
     <use xlink:href="#DejaVuSans-5d" x="266.455078"/>
    </g>
   </g>
   <g id="text_2">
    <!-- C [10] -->
    <g transform="translate(238.581676 29.751672) scale(0.1 -0.1)">
     <defs>
      <path id="DejaVuSans-43" d="M 4122 4306 
L 4122 3641 
Q 3803 3938 3442 4084 
Q 3081 4231 2675 4231 
Q 1875 4231 1450 3742 
Q 1025 3253 1025 2328 
Q 1025 1406 1450 917 
Q 1875 428 2675 428 
Q 3081 428 3442 575 
Q 3803 722 4122 1019 
L 4122 359 
Q 3791 134 3420 21 
Q 3050 -91 2638 -91 
Q 1578 -91 968 557 
Q 359 1206 359 2328 
Q 359 3453 968 4101 
Q 1578 4750 2638 4750 
Q 3056 4750 3426 4639 
Q 3797 4528 4122 4306 
z
" transform="scale(0.015625)"/>
      <path id="DejaVuSans-30" d="M 2034 4250 
Q 1547 4250 1301 3770 
Q 1056 3291 1056 2328 
Q 1056 1369 1301 889 
Q 1547 409 2034 409 
Q 2525 409 2770 889 
Q 3016 1369 3016 2328 
Q 3016 3291 2770 3770 
Q 2525 4250 2034 4250 
z
M 2034 4750 
Q 2819 4750 3233 4129 
Q 3647 3509 3647 2328 
Q 3647 1150 3233 529 
Q 2819 -91 2034 -91 
Q 1250 -91 836 529 
Q 422 1150 422 2328 
Q 422 3509 836 4129 
Q 1250 4750 2034 4750 
z
" transform="scale(0.015625)"/>
     </defs>
     <use xlink:href="#DejaVuSans-43"/>
     <use xlink:href="#DejaVuSans-20" x="69.824219"/>
     <use xlink:href="#DejaVuSans-5b" x="101.611328"/>
     <use xlink:href="#DejaVuSans-31" x="140.625"/>
     <use xlink:href="#DejaVuSans-30" x="204.248047"/>
     <use xlink:href="#DejaVuSans-5d" x="267.871094"/>
    </g>
   </g>
   <g id="text_3">
    <!-- D [4] -->
    <g transform="translate(223.930395 22.968249) scale(0.1 -0.1)">
     <defs>
      <path id="DejaVuSans-44" d="M 1259 4147 
L 1259 519 
L 2022 519 
Q 2988 519 3436 956 
Q 3884 1394 3884 2338 
Q 3884 3275 3436 3711 
Q 2988 4147 2022 4147 
L 1259 4147 
z
M 628 4666 
L 1925 4666 
Q 3281 4666 3915 4102 
Q 4550 3538 4550 2338 
Q 4550 1131 3912 565 
Q 3275 0 1925 0 
L 628 0 
L 628 4666 
z
" transform="scale(0.015625)"/>
      <path id="DejaVuSans-34" d="M 2419 4116 
L 825 1625 
L 2419 1625 
L 2419 4116 
z
M 2253 4666 
L 3047 4666 
L 3047 1625 
L 3713 1625 
L 3713 1100 
L 3047 1100 
L 3047 0 
L 2419 0 
L 2419 1100 
L 313 1100 
L 313 1709 
L 2253 4666 
z
" transform="scale(0.015625)"/>
     </defs>
     <use xlink:href="#DejaVuSans-44"/>
     <use xlink:href="#DejaVuSans-20" x="77.001953"/>
     <use xlink:href="#DejaVuSans-5b" x="108.789062"/>
     <use xlink:href="#DejaVuSans-34" x="147.802734"/>
     <use xlink:href="#DejaVuSans-5d" x="211.425781"/>
    </g>
   </g>
   <g id="text_4">
    <!-- E [8] -->
    <g transform="translate(210.823985 18.519223) scale(0.1 -0.1)">
     <defs>
      <path id="DejaVuSans-45" d="M 628 4666 
L 3578 4666 
L 3578 4134 
L 1259 4134 
L 1259 2753 
L 3481 2753 
L 3481 2222 
L 1259 2222 
L 1259 531 
L 3634 531 
L 3634 0 
L 628 0 
L 628 4666 
z
" transform="scale(0.015625)"/>
      <path id="DejaVuSans-38" d="M 2034 2216 
Q 1584 2216 1326 1975 
Q 1069 1734 1069 1313 
Q 1069 891 1326 650 
Q 1584 409 2034 409 
Q 2484 409 2743 651 
Q 3003 894 3003 1313 
Q 3003 1734 2745 1975 
Q 2488 2216 2034 2216 
z
M 1403 2484 
Q 997 2584 770 2862 
Q 544 3141 544 3541 
Q 544 4100 942 4425 
Q 1341 4750 2034 4750 
Q 2731 4750 3128 4425 
Q 3525 4100 3525 3541 
Q 3525 3141 3298 2862 
Q 3072 2584 2669 2484 
Q 3125 2378 3379 2068 
Q 3634 1759 3634 1313 
Q 3634 634 3220 271 
Q 2806 -91 2034 -91 
Q 1263 -91 848 271 
Q 434 634 434 1313 
Q 434 1759 690 2068 
Q 947 2378 1403 2484 
z
M 1172 3481 
Q 1172 3119 1398 2916 
Q 1625 2713 2034 2713 
Q 2441 2713 2670 2916 
Q 2900 3119 2900 3481 
Q 2900 3844 2670 4047 
Q 2441 4250 2034 4250 
Q 1625 4250 1398 4047 
Q 1172 3844 1172 3481 
z
" transform="scale(0.015625)"/>
     </defs>
     <use xlink:href="#DejaVuSans-45"/>
     <use xlink:href="#DejaVuSans-20" x="63.183594"/>
     <use xlink:href="#DejaVuSans-5b" x="94.970703"/>
     <use xlink:href="#DejaVuSans-38" x="133.984375"/>
     <use xlink:href="#DejaVuSans-5d" x="197.607422"/>
    </g>
   </g>
   <g id="text_5">
    <!-- F [7] -->
    <g transform="translate(193.931635 14.798437) scale(0.1 -0.1)">
     <defs>
      <path id="DejaVuSans-46" d="M 628 4666 
L 3309 4666 
L 3309 4134 
L 1259 4134 
L 1259 2759 
L 3109 2759 
L 3109 2228 
L 1259 2228 
L 1259 0 
L 628 0 
L 628 4666 
z
" transform="scale(0.015625)"/>
      <path id="DejaVuSans-37" d="M 525 4666 
L 3525 4666 
L 3525 4397 
L 1831 0 
L 1172 0 
L 2766 4134 
L 525 4134 
L 525 4666 
z
" transform="scale(0.015625)"/>
     </defs>
     <use xlink:href="#DejaVuSans-46"/>
     <use xlink:href="#DejaVuSans-20" x="57.519531"/>
     <use xlink:href="#DejaVuSans-5b" x="89.306641"/>
     <use xlink:href="#DejaVuSans-37" x="128.320312"/>
     <use xlink:href="#DejaVuSans-5d" x="191.943359"/>
    </g>
   </g>
   <g id="text_6">
    <!-- G [33] -->
    <g transform="translate(116.529139 15.174357) scale(0.1 -0.1)">
     <defs>
      <path id="DejaVuSans-47" d="M 3809 666 
L 3809 1919 
L 2778 1919 
L 2778 2438 
L 4434 2438 
L 4434 434 
Q 4069 175 3628 42 
Q 3188 -91 2688 -91 
Q 1594 -91 976 548 
Q 359 1188 359 2328 
Q 359 3472 976 4111 
Q 1594 4750 2688 4750 
Q 3144 4750 3555 4637 
Q 3966 4525 4313 4306 
L 4313 3634 
Q 3963 3931 3569 4081 
Q 3175 4231 2741 4231 
Q 1884 4231 1454 3753 
Q 1025 3275 1025 2328 
Q 1025 1384 1454 906 
Q 1884 428 2741 428 
Q 3075 428 3337 486 
Q 3600 544 3809 666 
z
" transform="scale(0.015625)"/>
      <path id="DejaVuSans-33" d="M 2597 2516 
Q 3050 2419 3304 2112 
Q 3559 1806 3559 1356 
Q 3559 666 3084 287 
Q 2609 -91 1734 -91 
Q 1441 -91 1130 -33 
Q 819 25 488 141 
L 488 750 
Q 750 597 1062 519 
Q 1375 441 1716 441 
Q 2309 441 2620 675 
Q 2931 909 2931 1356 
Q 2931 1769 2642 2001 
Q 2353 2234 1838 2234 
L 1294 2234 
L 1294 2753 
L 1863 2753 
Q 2328 2753 2575 2939 
Q 2822 3125 2822 3475 
Q 2822 3834 2567 4026 
Q 2313 4219 1838 4219 
Q 1578 4219 1281 4162 
Q 984 4106 628 3988 
L 628 4550 
Q 988 4650 1302 4700 
Q 1616 4750 1894 4750 
Q 2613 4750 3031 4423 
Q 3450 4097 3450 3541 
Q 3450 3153 3228 2886 
Q 3006 2619 2597 2516 
z
" transform="scale(0.015625)"/>
     </defs>
     <use xlink:href="#DejaVuSans-47"/>
     <use xlink:href="#DejaVuSans-20" x="77.490234"/>
     <use xlink:href="#DejaVuSans-5b" x="109.277344"/>
     <use xlink:href="#DejaVuSans-33" x="148.291016"/>
     <use xlink:href="#DejaVuSans-33" x="211.914062"/>
     <use xlink:href="#DejaVuSans-5d" x="275.537109"/>
    </g>
   </g>
   <g id="text_7">
    <!-- H [10] -->
    <g transform="translate(70.34994 31.993618) scale(0.1 -0.1)">
     <defs>
      <path id="DejaVuSans-48" d="M 628 4666 
L 1259 4666 
L 1259 2753 
L 3553 2753 
L 3553 4666 
L 4184 4666 
L 4184 0 
L 3553 0 
L 3553 2222 
L 1259 2222 
L 1259 0 
L 628 0 
L 628 4666 
z
" transform="scale(0.015625)"/>
     </defs>
     <use xlink:href="#DejaVuSans-48"/>
     <use xlink:href="#DejaVuSans-20" x="75.195312"/>
     <use xlink:href="#DejaVuSans-5b" x="106.982422"/>
     <use xlink:href="#DejaVuSans-31" x="145.996094"/>
     <use xlink:href="#DejaVuSans-30" x="209.619141"/>
     <use xlink:href="#DejaVuSans-5d" x="273.242188"/>
    </g>
   </g>
   <g id="text_8">
    <!-- I [6] -->
    <g transform="translate(65.943111 42.243239) scale(0.1 -0.1)">
     <defs>
      <path id="DejaVuSans-49" d="M 628 4666 
L 1259 4666 
L 1259 0 
L 628 0 
L 628 4666 
z
" transform="scale(0.015625)"/>
     </defs>
     <use xlink:href="#DejaVuSans-49"/>
     <use xlink:href="#DejaVuSans-20" x="29.492188"/>
     <use xlink:href="#DejaVuSans-5b" x="61.279297"/>
     <use xlink:href="#DejaVuSans-36" x="100.292969"/>
     <use xlink:href="#DejaVuSans-5d" x="163.916016"/>
    </g>
   </g>
   <g id="text_9">
    <!-- K [2] -->
    <g transform="translate(55.200909 48.098281) scale(0.1 -0.1)">
     <defs>
      <path id="DejaVuSans-4b" d="M 628 4666 
L 1259 4666 
L 1259 2694 
L 3353 4666 
L 4166 4666 
L 1850 2491 
L 4331 0 
L 3500 0 
L 1259 2247 
L 1259 0 
L 628 0 
L 628 4666 
z
" transform="scale(0.015625)"/>
      <path id="DejaVuSans-32" d="M 1228 531 
L 3431 531 
L 3431 0 
L 469 0 
L 469 531 
Q 828 903 1448 1529 
Q 2069 2156 2228 2338 
Q 2531 2678 2651 2914 
Q 2772 3150 2772 3378 
Q 2772 3750 2511 3984 
Q 2250 4219 1831 4219 
Q 1534 4219 1204 4116 
Q 875 4013 500 3803 
L 500 4441 
Q 881 4594 1212 4672 
Q 1544 4750 1819 4750 
Q 2544 4750 2975 4387 
Q 3406 4025 3406 3419 
Q 3406 3131 3298 2873 
Q 3191 2616 2906 2266 
Q 2828 2175 2409 1742 
Q 1991 1309 1228 531 
z
" transform="scale(0.015625)"/>
     </defs>
     <use xlink:href="#DejaVuSans-4b"/>
     <use xlink:href="#DejaVuSans-20" x="65.576172"/>
     <use xlink:href="#DejaVuSans-5b" x="97.363281"/>
     <use xlink:href="#DejaVuSans-32" x="136.376953"/>
     <use xlink:href="#DejaVuSans-5d" x="200"/>
    </g>
   </g>
   <g id="text_10">
    <!-- L [68] -->
    <g transform="translate(7.2 115.409483) scale(0.1 -0.1)">
     <defs>
      <path id="DejaVuSans-4c" d="M 628 4666 
L 1259 4666 
L 1259 531 
L 3531 531 
L 3531 0 
L 628 0 
L 628 4666 
z
" transform="scale(0.015625)"/>
     </defs>
     <use xlink:href="#DejaVuSans-4c"/>
     <use xlink:href="#DejaVuSans-20" x="55.712891"/>
     <use xlink:href="#DejaVuSans-5b" x="87.5"/>
     <use xlink:href="#DejaVuSans-36" x="126.513672"/>
     <use xlink:href="#DejaVuSans-38" x="190.136719"/>
     <use xlink:href="#DejaVuSans-5d" x="253.759766"/>
    </g>
   </g>
   <g id="text_11">
    <!-- M [4] -->
    <g transform="translate(11.846 197.28165) scale(0.1 -0.1)">
     <defs>
      <path id="DejaVuSans-4d" d="M 628 4666 
L 1569 4666 
L 2759 1491 
L 3956 4666 
L 4897 4666 
L 4897 0 
L 4281 0 
L 4281 4097 
L 3078 897 
L 2444 897 
L 1241 4097 
L 1241 0 
L 628 0 
L 628 4666 
z
" transform="scale(0.015625)"/>
     </defs>
     <use xlink:href="#DejaVuSans-4d"/>
     <use xlink:href="#DejaVuSans-20" x="86.279297"/>
     <use xlink:href="#DejaVuSans-5b" x="118.066406"/>
     <use xlink:href="#DejaVuSans-34" x="157.080078"/>
     <use xlink:href="#DejaVuSans-5d" x="220.703125"/>
    </g>
   </g>
   <g id="text_12">
    <!-- N [8] -->
    <g transform="translate(17.868349 210.235474) scale(0.1 -0.1)">
     <defs>
      <path id="DejaVuSans-4e" d="M 628 4666 
L 1478 4666 
L 3547 763 
L 3547 4666 
L 4159 4666 
L 4159 0 
L 3309 0 
L 1241 3903 
L 1241 0 
L 628 0 
L 628 4666 
z
" transform="scale(0.015625)"/>
     </defs>
     <use xlink:href="#DejaVuSans-4e"/>
     <use xlink:href="#DejaVuSans-20" x="74.804688"/>
     <use xlink:href="#DejaVuSans-5b" x="106.591797"/>
     <use xlink:href="#DejaVuSans-38" x="145.605469"/>
     <use xlink:href="#DejaVuSans-5d" x="209.228516"/>
    </g>
   </g>
   <g id="text_13">
    <!-- P [28] -->
    <g transform="translate(34.813899 245.383565) scale(0.1 -0.1)">
     <defs>
      <path id="DejaVuSans-50" d="M 1259 4147 
L 1259 2394 
L 2053 2394 
Q 2494 2394 2734 2622 
Q 2975 2850 2975 3272 
Q 2975 3691 2734 3919 
Q 2494 4147 2053 4147 
L 1259 4147 
z
M 628 4666 
L 2053 4666 
Q 2838 4666 3239 4311 
Q 3641 3956 3641 3272 
Q 3641 2581 3239 2228 
Q 2838 1875 2053 1875 
L 1259 1875 
L 1259 0 
L 628 0 
L 628 4666 
z
" transform="scale(0.015625)"/>
     </defs>
     <use xlink:href="#DejaVuSans-50"/>
     <use xlink:href="#DejaVuSans-20" x="60.302734"/>
     <use xlink:href="#DejaVuSans-5b" x="92.089844"/>
     <use xlink:href="#DejaVuSans-32" x="131.103516"/>
     <use xlink:href="#DejaVuSans-38" x="194.726562"/>
     <use xlink:href="#DejaVuSans-5d" x="258.349609"/>
    </g>
   </g>
   <g id="text_14">
    <!-- Q [15] -->
    <g transform="translate(71.000014 276.853796) scale(0.1 -0.1)">
     <defs>
      <path id="DejaVuSans-51" d="M 2522 4238 
Q 1834 4238 1429 3725 
Q 1025 3213 1025 2328 
Q 1025 1447 1429 934 
Q 1834 422 2522 422 
Q 3209 422 3611 934 
Q 4013 1447 4013 2328 
Q 4013 3213 3611 3725 
Q 3209 4238 2522 4238 
z
M 3406 84 
L 4238 -825 
L 3475 -825 
L 2784 -78 
Q 2681 -84 2626 -87 
Q 2572 -91 2522 -91 
Q 1538 -91 948 567 
Q 359 1225 359 2328 
Q 359 3434 948 4092 
Q 1538 4750 2522 4750 
Q 3503 4750 4090 4092 
Q 4678 3434 4678 2328 
Q 4678 1516 4351 937 
Q 4025 359 3406 84 
z
" transform="scale(0.015625)"/>
      <path id="DejaVuSans-35" d="M 691 4666 
L 3169 4666 
L 3169 4134 
L 1269 4134 
L 1269 2991 
Q 1406 3038 1543 3061 
Q 1681 3084 1819 3084 
Q 2600 3084 3056 2656 
Q 3513 2228 3513 1497 
Q 3513 744 3044 326 
Q 2575 -91 1722 -91 
Q 1428 -91 1123 -41 
Q 819 9 494 109 
L 494 744 
Q 775 591 1075 516 
Q 1375 441 1709 441 
Q 2250 441 2565 725 
Q 2881 1009 2881 1497 
Q 2881 1984 2565 2268 
Q 2250 2553 1709 2553 
Q 1456 2553 1204 2497 
Q 953 2441 691 2322 
L 691 4666 
z
" transform="scale(0.015625)"/>
     </defs>
     <use xlink:href="#DejaVuSans-51"/>
     <use xlink:href="#DejaVuSans-20" x="78.710938"/>
     <use xlink:href="#DejaVuSans-5b" x="110.498047"/>
     <use xlink:href="#DejaVuSans-31" x="149.511719"/>
     <use xlink:href="#DejaVuSans-35" x="213.134766"/>
     <use xlink:href="#DejaVuSans-5d" x="276.757812"/>
    </g>
   </g>
   <g id="text_15">
    <!-- R [24] -->
    <g transform="translate(113.926082 292.466612) scale(0.1 -0.1)">
     <defs>
      <path id="DejaVuSans-52" d="M 2841 2188 
Q 3044 2119 3236 1894 
Q 3428 1669 3622 1275 
L 4263 0 
L 3584 0 
L 2988 1197 
Q 2756 1666 2539 1819 
Q 2322 1972 1947 1972 
L 1259 1972 
L 1259 0 
L 628 0 
L 628 4666 
L 2053 4666 
Q 2853 4666 3247 4331 
Q 3641 3997 3641 3322 
Q 3641 2881 3436 2590 
Q 3231 2300 2841 2188 
z
M 1259 4147 
L 1259 2491 
L 2053 2491 
Q 2509 2491 2742 2702 
Q 2975 2913 2975 3322 
Q 2975 3731 2742 3939 
Q 2509 4147 2053 4147 
L 1259 4147 
z
" transform="scale(0.015625)"/>
     </defs>
     <use xlink:href="#DejaVuSans-52"/>
     <use xlink:href="#DejaVuSans-20" x="69.482422"/>
     <use xlink:href="#DejaVuSans-5b" x="101.269531"/>
     <use xlink:href="#DejaVuSans-32" x="140.283203"/>
     <use xlink:href="#DejaVuSans-34" x="203.90625"/>
     <use xlink:href="#DejaVuSans-5d" x="267.529297"/>
    </g>
   </g>
   <g id="text_16">
    <!-- S [31] -->
    <g transform="translate(207.484088 290.664928) scale(0.1 -0.1)">
     <defs>
      <path id="DejaVuSans-53" d="M 3425 4513 
L 3425 3897 
Q 3066 4069 2747 4153 
Q 2428 4238 2131 4238 
Q 1616 4238 1336 4038 
Q 1056 3838 1056 3469 
Q 1056 3159 1242 3001 
Q 1428 2844 1947 2747 
L 2328 2669 
Q 3034 2534 3370 2195 
Q 3706 1856 3706 1288 
Q 3706 609 3251 259 
Q 2797 -91 1919 -91 
Q 1588 -91 1214 -16 
Q 841 59 441 206 
L 441 856 
Q 825 641 1194 531 
Q 1563 422 1919 422 
Q 2459 422 2753 634 
Q 3047 847 3047 1241 
Q 3047 1584 2836 1778 
Q 2625 1972 2144 2069 
L 1759 2144 
Q 1053 2284 737 2584 
Q 422 2884 422 3419 
Q 422 4038 858 4394 
Q 1294 4750 2059 4750 
Q 2388 4750 2728 4690 
Q 3069 4631 3425 4513 
z
" transform="scale(0.015625)"/>
     </defs>
     <use xlink:href="#DejaVuSans-53"/>
     <use xlink:href="#DejaVuSans-20" x="63.476562"/>
     <use xlink:href="#DejaVuSans-5b" x="95.263672"/>
     <use xlink:href="#DejaVuSans-33" x="134.277344"/>
     <use xlink:href="#DejaVuSans-31" x="197.900391"/>
     <use xlink:href="#DejaVuSans-5d" x="261.523438"/>
    </g>
   </g>
   <g id="text_17">
    <!-- T [18] -->
    <g transform="translate(257.955505 266.031334) scale(0.1 -0.1)">
     <defs>
      <path id="DejaVuSans-54" d="M -19 4666 
L 3928 4666 
L 3928 4134 
L 2272 4134 
L 2272 0 
L 1638 0 
L 1638 4134 
L -19 4134 
L -19 4666 
z
" transform="scale(0.015625)"/>
     </defs>
     <use xlink:href="#DejaVuSans-54"/>
     <use xlink:href="#DejaVuSans-20" x="61.083984"/>
     <use xlink:href="#DejaVuSans-5b" x="92.871094"/>
     <use xlink:href="#DejaVuSans-31" x="131.884766"/>
     <use xlink:href="#DejaVuSans-38" x="195.507812"/>
     <use xlink:href="#DejaVuSans-5d" x="259.130859"/>
    </g>
   </g>
   <g id="text_18">
    <!-- V [28] -->
    <g transform="translate(293.069677 226.646011) scale(0.1 -0.1)">
     <defs>
      <path id="DejaVuSans-56" d="M 1831 0 
L 50 4666 
L 709 4666 
L 2188 738 
L 3669 4666 
L 4325 4666 
L 2547 0 
L 1831 0 
z
" transform="scale(0.015625)"/>
     </defs>
     <use xlink:href="#DejaVuSans-56"/>
     <use xlink:href="#DejaVuSans-20" x="68.408203"/>
     <use xlink:href="#DejaVuSans-5b" x="100.195312"/>
     <use xlink:href="#DejaVuSans-32" x="139.208984"/>
     <use xlink:href="#DejaVuSans-38" x="202.832031"/>
     <use xlink:href="#DejaVuSans-5d" x="266.455078"/>
    </g>
   </g>
   <g id="text_19">
    <!-- W [10] -->
    <g transform="translate(309.45117 186.163982) scale(0.1 -0.1)">
     <defs>
      <path id="DejaVuSans-57" d="M 213 4666 
L 850 4666 
L 1831 722 
L 2809 4666 
L 3519 4666 
L 4500 722 
L 5478 4666 
L 6119 4666 
L 4947 0 
L 4153 0 
L 3169 4050 
L 2175 0 
L 1381 0 
L 213 4666 
z
" transform="scale(0.015625)"/>
     </defs>
     <use xlink:href="#DejaVuSans-57"/>
     <use xlink:href="#DejaVuSans-20" x="98.876953"/>
     <use xlink:href="#DejaVuSans-5b" x="130.664062"/>
     <use xlink:href="#DejaVuSans-31" x="169.677734"/>
     <use xlink:href="#DejaVuSans-30" x="233.300781"/>
     <use xlink:href="#DejaVuSans-5d" x="296.923828"/>
    </g>
   </g>
   <g id="text_20">
    <!-- Y [9] -->
    <g transform="translate(312.753393 164.51279) scale(0.1 -0.1)">
     <defs>
      <path id="DejaVuSans-59" d="M -13 4666 
L 666 4666 
L 1959 2747 
L 3244 4666 
L 3922 4666 
L 2272 2222 
L 2272 0 
L 1638 0 
L 1638 2222 
L -13 4666 
z
" transform="scale(0.015625)"/>
      <path id="DejaVuSans-39" d="M 703 97 
L 703 672 
Q 941 559 1184 500 
Q 1428 441 1663 441 
Q 2288 441 2617 861 
Q 2947 1281 2994 2138 
Q 2813 1869 2534 1725 
Q 2256 1581 1919 1581 
Q 1219 1581 811 2004 
Q 403 2428 403 3163 
Q 403 3881 828 4315 
Q 1253 4750 1959 4750 
Q 2769 4750 3195 4129 
Q 3622 3509 3622 2328 
Q 3622 1225 3098 567 
Q 2575 -91 1691 -91 
Q 1453 -91 1209 -44 
Q 966 3 703 97 
z
M 1959 2075 
Q 2384 2075 2632 2365 
Q 2881 2656 2881 3163 
Q 2881 3666 2632 3958 
Q 2384 4250 1959 4250 
Q 1534 4250 1286 3958 
Q 1038 3666 1038 3163 
Q 1038 2656 1286 2365 
Q 1534 2075 1959 2075 
z
" transform="scale(0.015625)"/>
     </defs>
     <use xlink:href="#DejaVuSans-59"/>
     <use xlink:href="#DejaVuSans-20" x="61.083984"/>
     <use xlink:href="#DejaVuSans-5b" x="92.871094"/>
     <use xlink:href="#DejaVuSans-39" x="131.884766"/>
     <use xlink:href="#DejaVuSans-5d" x="195.507812"/>
    </g>
   </g>
   <g id="text_21">
    <!-- Q9GZN0 [384] -->
    <g transform="translate(128.448998 151.377909) scale(0.12 -0.12)">
     <defs>
      <path id="DejaVuSans-5a" d="M 359 4666 
L 4025 4666 
L 4025 4184 
L 1075 531 
L 4097 531 
L 4097 0 
L 288 0 
L 288 481 
L 3238 4134 
L 359 4134 
L 359 4666 
z
" transform="scale(0.015625)"/>
     </defs>
     <use xlink:href="#DejaVuSans-51"/>
     <use xlink:href="#DejaVuSans-39" x="78.710938"/>
     <use xlink:href="#DejaVuSans-47" x="142.333984"/>
     <use xlink:href="#DejaVuSans-5a" x="219.824219"/>
     <use xlink:href="#DejaVuSans-4e" x="288.330078"/>
     <use xlink:href="#DejaVuSans-30" x="363.134766"/>
     <use xlink:href="#DejaVuSans-20" x="426.757812"/>
     <use xlink:href="#DejaVuSans-5b" x="458.544922"/>
     <use xlink:href="#DejaVuSans-33" x="497.558594"/>
     <use xlink:href="#DejaVuSans-38" x="561.181641"/>
     <use xlink:href="#DejaVuSans-34" x="624.804688"/>
     <use xlink:href="#DejaVuSans-5d" x="688.427734"/>
    </g>
   </g>
  </g>
 </g>
</svg>
