<?xml version="1.0" encoding="utf-8" standalone="no"?>
<!DOCTYPE svg PUBLIC "-//W3C//DTD SVG 1.1//EN"
  "http://www.w3.org/Graphics/SVG/1.1/DTD/svg11.dtd">
<svg xmlns:xlink="http://www.w3.org/1999/xlink" width="355.283746pt" height="301.971242pt" viewBox="0 0 355.283746 301.971242" xmlns="http://www.w3.org/2000/svg" version="1.1">
 <metadata>
  <rdf:RDF xmlns:dc="http://purl.org/dc/elements/1.1/" xmlns:cc="http://creativecommons.org/ns#" xmlns:rdf="http://www.w3.org/1999/02/22-rdf-syntax-ns#">
   <cc:Work>
    <dc:type rdf:resource="http://purl.org/dc/dcmitype/StillImage"/>
    <dc:date>2024-09-27T16:07:12.132029</dc:date>
    <dc:format>image/svg+xml</dc:format>
    <dc:creator>
     <cc:Agent>
      <dc:title>Matplotlib v3.8.3, https://matplotlib.org/</dc:title>
     </cc:Agent>
    </dc:creator>
   </cc:Work>
  </rdf:RDF>
 </metadata>
 <defs>
  <style type="text/css">*{stroke-linejoin: round; stroke-linecap: butt}</style>
 </defs>
 <g id="figure_1">
  <g id="patch_1">
   <path d="M 0 301.971242 
L 355.283746 301.971242 
L 355.283746 0 
L 0 0 
z
" style="fill: #ffffff"/>
  </g>
  <g id="axes_1">
   <g id="patch_2">
    <path d="M 305.099243 152.330951 
C 305.099243 142.510869 303.966802 132.723462 301.724377 123.162837 
C 299.481953 113.602212 296.144469 104.331993 291.778115 95.53603 
L 177.365483 152.330951 
z
" style="fill: #1f77b4"/>
   </g>
   <g id="patch_3">
    <path d="M 291.696989 95.353816 
C 288.920223 89.760058 285.736965 84.377461 282.172834 79.249349 
C 278.608703 74.121237 274.673288 69.261404 270.398262 64.708963 
L 177.284357 152.148737 
z
" style="fill: #ff7f0e"/>
   </g>
   <g id="patch_4">
    <path d="M 270.302621 64.604407 
C 266.791504 60.865446 263.058366 57.341359 259.123491 54.051293 
C 255.188616 50.761227 251.059143 47.711151 246.757509 44.917637 
L 177.188716 152.044181 
z
" style="fill: #aec7e8"/>
   </g>
   <g id="patch_5">
    <path d="M 246.627486 44.83749 
C 240.640914 40.949764 234.338975 37.570694 227.787887 34.735785 
C 221.2368 31.900876 214.459589 29.620093 207.527469 27.917401 
L 177.058693 151.964034 
z
" style="fill: #ffbb78"/>
   </g>
   <g id="patch_6">
    <path d="M 207.366184 27.87599 
C 201.301409 26.386338 195.135544 25.34346 188.918217 24.75575 
C 182.70089 24.168039 176.448824 24.037077 170.21234 24.363917 
L 176.897408 151.922623 
z
" style="fill: #98df8a"/>
   </g>
   <g id="patch_7">
    <path d="M 170.032595 24.37759 
C 161.788778 24.80963 153.606223 26.039823 145.599802 28.050896 
C 137.593382 30.06197 129.800739 32.84447 122.331273 36.359334 
L 176.717663 151.936296 
z
" style="fill: #2ca02c"/>
   </g>
   <g id="patch_8">
    <path d="M 122.211888 36.405162 
C 120.396325 37.259501 118.601145 38.156501 116.827843 39.095417 
C 115.054541 40.034332 113.303608 41.014901 111.576504 42.036308 
L 176.598278 151.982123 
z
" style="fill: #d62728"/>
   </g>
   <g id="patch_9">
    <path d="M 111.484152 42.098366 
C 105.532248 45.618312 99.875987 49.615762 94.571153 54.051291 
C 89.266319 58.486821 84.330409 63.345801 79.812102 68.58031 
L 176.505926 152.044181 
z
" style="fill: #9467bd"/>
   </g>
   <g id="patch_10">
    <path d="M 79.714877 68.687159 
C 76.654996 72.232065 73.792369 75.942559 71.139965 79.801831 
C 68.487561 83.661103 66.04939 87.663318 63.836498 91.790343 
L 176.408701 152.15103 
z
" style="fill: #ff9896"/>
   </g>
   <g id="patch_11">
    <path d="M 63.74989 92.005789 
C 57.097876 104.411741 52.54217 117.832417 50.267302 131.72421 
C 47.992434 145.616002 48.029538 159.78878 50.377111 173.668471 
L 176.322093 152.366475 
z
" style="fill: #c5b0d5"/>
   </g>
   <g id="patch_12">
    <path d="M 50.384177 173.876014 
C 50.830362 176.514017 51.359319 179.13735 51.970264 181.742131 
C 52.58121 184.346911 53.273843 186.931854 54.047139 189.493133 
L 176.329159 152.574019 
z
" style="fill: #c49c94"/>
   </g>
   <g id="patch_13">
    <path d="M 54.072531 189.572695 
C 55.232593 193.415009 56.57311 197.200512 58.089618 200.916602 
C 59.606126 204.632691 61.296941 208.27524 63.156433 211.832122 
L 176.354551 152.653581 
z
" style="fill: #8c564b"/>
   </g>
   <g id="patch_14">
    <path d="M 63.2409 211.972421 
C 67.47969 220.080478 72.577373 227.7097 78.446126 234.72865 
C 84.314879 241.747601 90.920804 248.115737 98.150093 253.723349 
L 176.439018 152.79388 
z
" style="fill: #e377c2"/>
   </g>
   <g id="patch_15">
    <path d="M 98.277938 253.834287 
C 101.801846 256.567711 105.466492 259.114706 109.256816 261.464806 
C 113.04714 263.814907 116.957944 265.96489 120.973157 267.905919 
L 176.566863 152.904818 
z
" style="fill: #7f7f7f"/>
   </g>
   <g id="patch_16">
    <path d="M 121.134796 267.972377 
C 129.774636 272.149039 138.857703 275.338785 148.211924 277.481188 
C 157.566145 279.623591 167.132076 280.705036 176.7285 280.705036 
L 176.728502 152.971276 
z
" style="fill: #f7b6d2"/>
   </g>
   <g id="patch_17">
    <path d="M 176.976977 280.702434 
C 187.46824 280.702434 197.919655 279.409903 208.094838 276.854074 
C 218.270021 274.298245 228.091676 270.498533 237.337663 265.540879 
L 176.976979 152.968674 
z
" style="fill: #c7c7c7"/>
   </g>
   <g id="patch_18">
    <path d="M 237.553657 265.429396 
C 245.616882 261.105933 253.192304 255.928637 260.149413 249.986705 
C 267.106522 244.044773 273.405134 237.372524 278.936734 230.08491 
L 177.192973 152.857191 
z
" style="fill: #dbdb8d"/>
   </g>
   <g id="patch_19">
    <path d="M 279.067801 229.916849 
C 283.923751 223.519372 288.165501 216.678129 291.736671 209.484055 
C 295.307841 202.28998 298.192537 194.77509 300.352416 187.039272 
L 177.324041 152.68913 
z
" style="fill: #bcbd22"/>
   </g>
   <g id="patch_20">
    <path d="M 300.395103 186.918728 
C 300.994661 184.771355 301.537894 182.608652 302.024245 180.432844 
C 302.510595 178.257035 302.939897 176.068866 303.311708 173.870586 
L 177.366728 152.568586 
z
" style="fill: #17becf"/>
   </g>
   <g id="patch_21">
    <path d="M 303.32266 173.79902 
C 303.917611 170.281459 304.364936 166.740516 304.663458 163.185507 
C 304.961981 159.630497 305.111439 156.064542 305.111439 152.497021 
L 177.377679 152.49702 
z
" style="fill: #9edae5"/>
   </g>
   <g id="patch_22">
    <path d="M 251.358681 152.452485 
C 251.358681 146.724103 250.69809 141.014783 249.39001 135.437752 
C 248.081929 129.86072 246.135063 124.453093 243.588023 119.322114 
L 176.847321 152.452485 
z
" style="fill: #ffffff"/>
   </g>
   <g id="patch_23">
    <path d="M 243.588023 119.322114 
C 241.968243 116.059088 240.111343 112.919241 238.032266 109.927842 
C 235.95319 106.936443 233.657531 104.10154 231.163766 101.44595 
L 176.847321 152.452485 
z
" style="fill: #ffffff"/>
   </g>
   <g id="patch_24">
    <path d="M 231.163766 101.44595 
C 229.115614 99.264889 226.93795 97.209172 224.642606 95.289967 
C 222.347263 93.370761 219.938404 91.59155 217.429117 89.962001 
L 176.847321 152.452485 
z
" style="fill: #ffffff"/>
   </g>
   <g id="patch_25">
    <path d="M 217.429117 89.962001 
C 213.93695 87.694161 210.260819 85.723037 206.439351 84.06934 
C 202.617883 82.415643 198.664511 81.085186 194.620774 80.091949 
L 176.847321 152.452485 
z
" style="fill: #ffffff"/>
   </g>
   <g id="patch_26">
    <path d="M 194.620774 80.091949 
C 191.082988 79.222985 187.486234 78.61464 183.85946 78.271809 
C 180.232686 77.928978 176.585647 77.852583 172.947698 78.04324 
L 176.847321 152.452485 
z
" style="fill: #ffffff"/>
   </g>
   <g id="patch_27">
    <path d="M 172.947698 78.04324 
C 168.138805 78.295263 163.365647 79.012876 158.695235 80.186002 
C 154.024824 81.359128 149.479115 82.982253 145.121927 85.032591 
L 176.847321 152.452485 
z
" style="fill: #ffffff"/>
   </g>
   <g id="patch_28">
    <path d="M 145.121927 85.032591 
C 144.062849 85.530955 143.015661 86.054205 141.981234 86.601906 
C 140.946808 87.149606 139.925431 87.721605 138.917953 88.317426 
L 176.847321 152.452485 
z
" style="fill: #ffffff"/>
   </g>
   <g id="patch_29">
    <path d="M 138.917953 88.317426 
C 135.446009 90.370728 132.146523 92.702574 129.052037 95.289966 
C 125.957551 97.877358 123.07827 100.711763 120.44259 103.765227 
L 176.847321 152.452485 
z
" style="fill: #ffffff"/>
   </g>
   <g id="patch_30">
    <path d="M 120.44259 103.765227 
C 118.65766 105.833089 116.987794 107.997543 115.440558 110.248785 
C 113.893322 112.500028 112.471056 114.834653 111.180203 117.242084 
L 176.847321 152.452485 
z
" style="fill: #ffffff"/>
   </g>
   <g id="patch_31">
    <path d="M 111.180203 117.242084 
C 107.299862 124.47889 104.642366 132.307618 103.31536 140.411163 
C 101.988353 148.514709 102.009997 156.782163 103.379415 164.878649 
L 176.847321 152.452485 
z
" style="fill: #ffffff"/>
   </g>
   <g id="patch_32">
    <path d="M 103.379415 164.878649 
C 103.63969 166.417484 103.948248 167.947761 104.304633 169.467217 
C 104.661018 170.986672 105.065054 172.494556 105.516143 173.988635 
L 176.847321 152.452485 
z
" style="fill: #ffffff"/>
   </g>
   <g id="patch_33">
    <path d="M 105.516143 173.988635 
C 106.192846 176.229985 106.974814 178.438195 107.859444 180.605914 
C 108.744074 182.773633 109.730382 184.898453 110.815086 186.9733 
L 176.847321 152.452485 
z
" style="fill: #ffffff"/>
   </g>
   <g id="patch_34">
    <path d="M 110.815086 186.9733 
C 113.287713 191.703 116.261362 196.15338 119.684801 200.247768 
C 123.10824 204.342155 126.961697 208.056902 131.178782 211.328008 
L 176.847321 152.452485 
z
" style="fill: #ffffff"/>
   </g>
   <g id="patch_35">
    <path d="M 131.178782 211.328008 
C 133.234395 212.922505 135.372105 214.408253 137.583127 215.779145 
C 139.79415 217.150037 142.075452 218.404193 144.417659 219.536461 
L 176.847321 152.452485 
z
" style="fill: #ffffff"/>
   </g>
   <g id="patch_36">
    <path d="M 144.417659 219.536461 
C 149.457566 221.972847 154.756021 223.833532 160.21265 225.083267 
C 165.669279 226.333002 171.249406 226.963845 176.84732 226.963845 
L 176.847321 152.452485 
z
" style="fill: #ffffff"/>
   </g>
   <g id="patch_37">
    <path d="M 176.84732 226.963845 
C 182.967224 226.963845 189.063882 226.209868 194.999406 224.718968 
C 200.934929 223.228068 206.664228 221.011569 212.05772 218.119604 
L 176.847321 152.452485 
z
" style="fill: #ffffff"/>
   </g>
   <g id="patch_38">
    <path d="M 212.05772 218.119604 
C 216.761268 215.597584 221.180264 212.577495 225.238578 209.111368 
C 229.296891 205.645241 232.971082 201.753096 236.197848 197.501987 
L 176.847321 152.452485 
z
" style="fill: #ffffff"/>
   </g>
   <g id="patch_39">
    <path d="M 236.197848 197.501987 
C 239.030486 193.770126 241.50484 189.779401 243.588022 185.582857 
C 245.671205 181.386314 247.353944 177.002628 248.613874 172.490067 
L 176.847321 152.452485 
z
" style="fill: #ffffff"/>
   </g>
   <g id="patch_40">
    <path d="M 248.613874 172.490067 
C 248.963615 171.237433 249.280502 169.975857 249.564206 168.706635 
C 249.847911 167.437414 250.098337 166.160982 250.315227 164.878652 
L 176.847321 152.452485 
z
" style="fill: #ffffff"/>
   </g>
   <g id="patch_41">
    <path d="M 250.315227 164.878652 
C 250.662282 162.826741 250.923221 160.761191 251.097359 158.687435 
C 251.271497 156.61368 251.358681 154.533539 251.358681 152.452485 
L 176.847321 152.452485 
z
" style="fill: #ffffff"/>
   </g>
   <g id="matplotlib.axis_1"/>
   <g id="matplotlib.axis_2"/>
   <g id="text_1">
    <!-- A [44] -->
    <g transform="translate(314.160267 123.0054) scale(0.1 -0.1)">
     <defs>
      <path id="DejaVuSans-41" d="M 2188 4044 
L 1331 1722 
L 3047 1722 
L 2188 4044 
z
M 1831 4666 
L 2547 4666 
L 4325 0 
L 3669 0 
L 3244 1197 
L 1141 1197 
L 716 0 
L 50 0 
L 1831 4666 
z
" transform="scale(0.015625)"/>
      <path id="DejaVuSans-20" transform="scale(0.015625)"/>
      <path id="DejaVuSans-5b" d="M 550 4863 
L 1875 4863 
L 1875 4416 
L 1125 4416 
L 1125 -397 
L 1875 -397 
L 1875 -844 
L 550 -844 
L 550 4863 
z
" transform="scale(0.015625)"/>
      <path id="DejaVuSans-34" d="M 2419 4116 
L 825 1625 
L 2419 1625 
L 2419 4116 
z
M 2253 4666 
L 3047 4666 
L 3047 1625 
L 3713 1625 
L 3713 1100 
L 3047 1100 
L 3047 0 
L 2419 0 
L 2419 1100 
L 313 1100 
L 313 1709 
L 2253 4666 
z
" transform="scale(0.015625)"/>
      <path id="DejaVuSans-5d" d="M 1947 4863 
L 1947 -844 
L 622 -844 
L 622 -397 
L 1369 -397 
L 1369 4416 
L 622 4416 
L 622 4863 
L 1947 4863 
z
" transform="scale(0.015625)"/>
     </defs>
     <use xlink:href="#DejaVuSans-41"/>
     <use xlink:href="#DejaVuSans-20" x="68.408203"/>
     <use xlink:href="#DejaVuSans-5b" x="100.195312"/>
     <use xlink:href="#DejaVuSans-34" x="139.208984"/>
     <use xlink:href="#DejaVuSans-34" x="202.832031"/>
     <use xlink:href="#DejaVuSans-5d" x="266.455078"/>
    </g>
   </g>
   <g id="text_2">
    <!-- C [28] -->
    <g transform="translate(292.661682 74.718785) scale(0.1 -0.1)">
     <defs>
      <path id="DejaVuSans-43" d="M 4122 4306 
L 4122 3641 
Q 3803 3938 3442 4084 
Q 3081 4231 2675 4231 
Q 1875 4231 1450 3742 
Q 1025 3253 1025 2328 
Q 1025 1406 1450 917 
Q 1875 428 2675 428 
Q 3081 428 3442 575 
Q 3803 722 4122 1019 
L 4122 359 
Q 3791 134 3420 21 
Q 3050 -91 2638 -91 
Q 1578 -91 968 557 
Q 359 1206 359 2328 
Q 359 3453 968 4101 
Q 1578 4750 2638 4750 
Q 3056 4750 3426 4639 
Q 3797 4528 4122 4306 
z
" transform="scale(0.015625)"/>
      <path id="DejaVuSans-32" d="M 1228 531 
L 3431 531 
L 3431 0 
L 469 0 
L 469 531 
Q 828 903 1448 1529 
Q 2069 2156 2228 2338 
Q 2531 2678 2651 2914 
Q 2772 3150 2772 3378 
Q 2772 3750 2511 3984 
Q 2250 4219 1831 4219 
Q 1534 4219 1204 4116 
Q 875 4013 500 3803 
L 500 4441 
Q 881 4594 1212 4672 
Q 1544 4750 1819 4750 
Q 2544 4750 2975 4387 
Q 3406 4025 3406 3419 
Q 3406 3131 3298 2873 
Q 3191 2616 2906 2266 
Q 2828 2175 2409 1742 
Q 1991 1309 1228 531 
z
" transform="scale(0.015625)"/>
      <path id="DejaVuSans-38" d="M 2034 2216 
Q 1584 2216 1326 1975 
Q 1069 1734 1069 1313 
Q 1069 891 1326 650 
Q 1584 409 2034 409 
Q 2484 409 2743 651 
Q 3003 894 3003 1313 
Q 3003 1734 2745 1975 
Q 2488 2216 2034 2216 
z
M 1403 2484 
Q 997 2584 770 2862 
Q 544 3141 544 3541 
Q 544 4100 942 4425 
Q 1341 4750 2034 4750 
Q 2731 4750 3128 4425 
Q 3525 4100 3525 3541 
Q 3525 3141 3298 2862 
Q 3072 2584 2669 2484 
Q 3125 2378 3379 2068 
Q 3634 1759 3634 1313 
Q 3634 634 3220 271 
Q 2806 -91 2034 -91 
Q 1263 -91 848 271 
Q 434 634 434 1313 
Q 434 1759 690 2068 
Q 947 2378 1403 2484 
z
M 1172 3481 
Q 1172 3119 1398 2916 
Q 1625 2713 2034 2713 
Q 2441 2713 2670 2916 
Q 2900 3119 2900 3481 
Q 2900 3844 2670 4047 
Q 2441 4250 2034 4250 
Q 1625 4250 1398 4047 
Q 1172 3844 1172 3481 
z
" transform="scale(0.015625)"/>
     </defs>
     <use xlink:href="#DejaVuSans-43"/>
     <use xlink:href="#DejaVuSans-20" x="69.824219"/>
     <use xlink:href="#DejaVuSans-5b" x="101.611328"/>
     <use xlink:href="#DejaVuSans-32" x="140.625"/>
     <use xlink:href="#DejaVuSans-38" x="204.248047"/>
     <use xlink:href="#DejaVuSans-5d" x="267.871094"/>
    </g>
   </g>
   <g id="text_3">
    <!-- D [23] -->
    <g transform="translate(267.316968 47.011379) scale(0.1 -0.1)">
     <defs>
      <path id="DejaVuSans-44" d="M 1259 4147 
L 1259 519 
L 2022 519 
Q 2988 519 3436 956 
Q 3884 1394 3884 2338 
Q 3884 3275 3436 3711 
Q 2988 4147 2022 4147 
L 1259 4147 
z
M 628 4666 
L 1925 4666 
Q 3281 4666 3915 4102 
Q 4550 3538 4550 2338 
Q 4550 1131 3912 565 
Q 3275 0 1925 0 
L 628 0 
L 628 4666 
z
" transform="scale(0.015625)"/>
      <path id="DejaVuSans-33" d="M 2597 2516 
Q 3050 2419 3304 2112 
Q 3559 1806 3559 1356 
Q 3559 666 3084 287 
Q 2609 -91 1734 -91 
Q 1441 -91 1130 -33 
Q 819 25 488 141 
L 488 750 
Q 750 597 1062 519 
Q 1375 441 1716 441 
Q 2309 441 2620 675 
Q 2931 909 2931 1356 
Q 2931 1769 2642 2001 
Q 2353 2234 1838 2234 
L 1294 2234 
L 1294 2753 
L 1863 2753 
Q 2328 2753 2575 2939 
Q 2822 3125 2822 3475 
Q 2822 3834 2567 4026 
Q 2313 4219 1838 4219 
Q 1578 4219 1281 4162 
Q 984 4106 628 3988 
L 628 4550 
Q 988 4650 1302 4700 
Q 1616 4750 1894 4750 
Q 2613 4750 3031 4423 
Q 3450 4097 3450 3541 
Q 3450 3153 3228 2886 
Q 3006 2619 2597 2516 
z
" transform="scale(0.015625)"/>
     </defs>
     <use xlink:href="#DejaVuSans-44"/>
     <use xlink:href="#DejaVuSans-20" x="77.001953"/>
     <use xlink:href="#DejaVuSans-5b" x="108.789062"/>
     <use xlink:href="#DejaVuSans-32" x="147.802734"/>
     <use xlink:href="#DejaVuSans-33" x="211.425781"/>
     <use xlink:href="#DejaVuSans-5d" x="275.048828"/>
    </g>
   </g>
   <g id="text_4">
    <!-- E [32] -->
    <g transform="translate(232.860807 25.772335) scale(0.1 -0.1)">
     <defs>
      <path id="DejaVuSans-45" d="M 628 4666 
L 3578 4666 
L 3578 4134 
L 1259 4134 
L 1259 2753 
L 3481 2753 
L 3481 2222 
L 1259 2222 
L 1259 531 
L 3634 531 
L 3634 0 
L 628 0 
L 628 4666 
z
" transform="scale(0.015625)"/>
     </defs>
     <use xlink:href="#DejaVuSans-45"/>
     <use xlink:href="#DejaVuSans-20" x="63.183594"/>
     <use xlink:href="#DejaVuSans-5b" x="94.970703"/>
     <use xlink:href="#DejaVuSans-33" x="133.984375"/>
     <use xlink:href="#DejaVuSans-32" x="197.607422"/>
     <use xlink:href="#DejaVuSans-5d" x="261.230469"/>
    </g>
   </g>
   <g id="text_5">
    <!-- F [28] -->
    <g transform="translate(190.120298 14.798437) scale(0.1 -0.1)">
     <defs>
      <path id="DejaVuSans-46" d="M 628 4666 
L 3309 4666 
L 3309 4134 
L 1259 4134 
L 1259 2759 
L 3109 2759 
L 3109 2228 
L 1259 2228 
L 1259 0 
L 628 0 
L 628 4666 
z
" transform="scale(0.015625)"/>
     </defs>
     <use xlink:href="#DejaVuSans-46"/>
     <use xlink:href="#DejaVuSans-20" x="57.519531"/>
     <use xlink:href="#DejaVuSans-5b" x="89.306641"/>
     <use xlink:href="#DejaVuSans-32" x="128.320312"/>
     <use xlink:href="#DejaVuSans-38" x="191.943359"/>
     <use xlink:href="#DejaVuSans-5d" x="255.566406"/>
    </g>
   </g>
   <g id="text_6">
    <!-- G [37] -->
    <g transform="translate(111.033328 18.421731) scale(0.1 -0.1)">
     <defs>
      <path id="DejaVuSans-47" d="M 3809 666 
L 3809 1919 
L 2778 1919 
L 2778 2438 
L 4434 2438 
L 4434 434 
Q 4069 175 3628 42 
Q 3188 -91 2688 -91 
Q 1594 -91 976 548 
Q 359 1188 359 2328 
Q 359 3472 976 4111 
Q 1594 4750 2688 4750 
Q 3144 4750 3555 4637 
Q 3966 4525 4313 4306 
L 4313 3634 
Q 3963 3931 3569 4081 
Q 3175 4231 2741 4231 
Q 1884 4231 1454 3753 
Q 1025 3275 1025 2328 
Q 1025 1384 1454 906 
Q 1884 428 2741 428 
Q 3075 428 3337 486 
Q 3600 544 3809 666 
z
" transform="scale(0.015625)"/>
      <path id="DejaVuSans-37" d="M 525 4666 
L 3525 4666 
L 3525 4397 
L 1831 0 
L 1172 0 
L 2766 4134 
L 525 4134 
L 525 4666 
z
" transform="scale(0.015625)"/>
     </defs>
     <use xlink:href="#DejaVuSans-47"/>
     <use xlink:href="#DejaVuSans-20" x="77.490234"/>
     <use xlink:href="#DejaVuSans-5b" x="109.277344"/>
     <use xlink:href="#DejaVuSans-33" x="148.291016"/>
     <use xlink:href="#DejaVuSans-37" x="211.914062"/>
     <use xlink:href="#DejaVuSans-5d" x="275.537109"/>
    </g>
   </g>
   <g id="text_7">
    <!-- H [9] -->
    <g transform="translate(85.986737 30.566121) scale(0.1 -0.1)">
     <defs>
      <path id="DejaVuSans-48" d="M 628 4666 
L 1259 4666 
L 1259 2753 
L 3553 2753 
L 3553 4666 
L 4184 4666 
L 4184 0 
L 3553 0 
L 3553 2222 
L 1259 2222 
L 1259 0 
L 628 0 
L 628 4666 
z
" transform="scale(0.015625)"/>
      <path id="DejaVuSans-39" d="M 703 97 
L 703 672 
Q 941 559 1184 500 
Q 1428 441 1663 441 
Q 2288 441 2617 861 
Q 2947 1281 2994 2138 
Q 2813 1869 2534 1725 
Q 2256 1581 1919 1581 
Q 1219 1581 811 2004 
Q 403 2428 403 3163 
Q 403 3881 828 4315 
Q 1253 4750 1959 4750 
Q 2769 4750 3195 4129 
Q 3622 3509 3622 2328 
Q 3622 1225 3098 567 
Q 2575 -91 1691 -91 
Q 1453 -91 1209 -44 
Q 966 3 703 97 
z
M 1959 2075 
Q 2384 2075 2632 2365 
Q 2881 2656 2881 3163 
Q 2881 3666 2632 3958 
Q 2384 4250 1959 4250 
Q 1534 4250 1286 3958 
Q 1038 3666 1038 3163 
Q 1038 2656 1286 2365 
Q 1534 2075 1959 2075 
z
" transform="scale(0.015625)"/>
     </defs>
     <use xlink:href="#DejaVuSans-48"/>
     <use xlink:href="#DejaVuSans-20" x="75.195312"/>
     <use xlink:href="#DejaVuSans-5b" x="106.982422"/>
     <use xlink:href="#DejaVuSans-39" x="145.996094"/>
     <use xlink:href="#DejaVuSans-5d" x="209.619141"/>
    </g>
   </g>
   <g id="text_8">
    <!-- I [31] -->
    <g transform="translate(59.721426 47.011377) scale(0.1 -0.1)">
     <defs>
      <path id="DejaVuSans-49" d="M 628 4666 
L 1259 4666 
L 1259 0 
L 628 0 
L 628 4666 
z
" transform="scale(0.015625)"/>
      <path id="DejaVuSans-31" d="M 794 531 
L 1825 531 
L 1825 4091 
L 703 3866 
L 703 4441 
L 1819 4666 
L 2450 4666 
L 2450 531 
L 3481 531 
L 3481 0 
L 794 0 
L 794 531 
z
" transform="scale(0.015625)"/>
     </defs>
     <use xlink:href="#DejaVuSans-49"/>
     <use xlink:href="#DejaVuSans-20" x="29.492188"/>
     <use xlink:href="#DejaVuSans-5b" x="61.279297"/>
     <use xlink:href="#DejaVuSans-33" x="100.292969"/>
     <use xlink:href="#DejaVuSans-31" x="163.916016"/>
     <use xlink:href="#DejaVuSans-5d" x="227.539062"/>
    </g>
   </g>
   <g id="text_9">
    <!-- K [21] -->
    <g transform="translate(30.349029 75.326286) scale(0.1 -0.1)">
     <defs>
      <path id="DejaVuSans-4b" d="M 628 4666 
L 1259 4666 
L 1259 2694 
L 3353 4666 
L 4166 4666 
L 1850 2491 
L 4331 0 
L 3500 0 
L 1259 2247 
L 1259 0 
L 628 0 
L 628 4666 
z
" transform="scale(0.015625)"/>
     </defs>
     <use xlink:href="#DejaVuSans-4b"/>
     <use xlink:href="#DejaVuSans-20" x="65.576172"/>
     <use xlink:href="#DejaVuSans-5b" x="97.363281"/>
     <use xlink:href="#DejaVuSans-32" x="136.376953"/>
     <use xlink:href="#DejaVuSans-31" x="200"/>
     <use xlink:href="#DejaVuSans-5d" x="263.623047"/>
    </g>
   </g>
   <g id="text_10">
    <!-- L [63] -->
    <g transform="translate(8.383698 132.419358) scale(0.1 -0.1)">
     <defs>
      <path id="DejaVuSans-4c" d="M 628 4666 
L 1259 4666 
L 1259 531 
L 3531 531 
L 3531 0 
L 628 0 
L 628 4666 
z
" transform="scale(0.015625)"/>
      <path id="DejaVuSans-36" d="M 2113 2584 
Q 1688 2584 1439 2293 
Q 1191 2003 1191 1497 
Q 1191 994 1439 701 
Q 1688 409 2113 409 
Q 2538 409 2786 701 
Q 3034 994 3034 1497 
Q 3034 2003 2786 2293 
Q 2538 2584 2113 2584 
z
M 3366 4563 
L 3366 3988 
Q 3128 4100 2886 4159 
Q 2644 4219 2406 4219 
Q 1781 4219 1451 3797 
Q 1122 3375 1075 2522 
Q 1259 2794 1537 2939 
Q 1816 3084 2150 3084 
Q 2853 3084 3261 2657 
Q 3669 2231 3669 1497 
Q 3669 778 3244 343 
Q 2819 -91 2113 -91 
Q 1303 -91 875 529 
Q 447 1150 447 2328 
Q 447 3434 972 4092 
Q 1497 4750 2381 4750 
Q 2619 4750 2861 4703 
Q 3103 4656 3366 4563 
z
" transform="scale(0.015625)"/>
     </defs>
     <use xlink:href="#DejaVuSans-4c"/>
     <use xlink:href="#DejaVuSans-20" x="55.712891"/>
     <use xlink:href="#DejaVuSans-5b" x="87.5"/>
     <use xlink:href="#DejaVuSans-36" x="126.513672"/>
     <use xlink:href="#DejaVuSans-33" x="190.136719"/>
     <use xlink:href="#DejaVuSans-5d" x="253.759766"/>
    </g>
   </g>
   <g id="text_11">
    <!-- M [12] -->
    <g transform="translate(7.2 187.418317) scale(0.1 -0.1)">
     <defs>
      <path id="DejaVuSans-4d" d="M 628 4666 
L 1569 4666 
L 2759 1491 
L 3956 4666 
L 4897 4666 
L 4897 0 
L 4281 0 
L 4281 4097 
L 3078 897 
L 2444 897 
L 1241 4097 
L 1241 0 
L 628 0 
L 628 4666 
z
" transform="scale(0.015625)"/>
     </defs>
     <use xlink:href="#DejaVuSans-4d"/>
     <use xlink:href="#DejaVuSans-20" x="86.279297"/>
     <use xlink:href="#DejaVuSans-5b" x="118.066406"/>
     <use xlink:href="#DejaVuSans-31" x="157.080078"/>
     <use xlink:href="#DejaVuSans-32" x="220.703125"/>
     <use xlink:href="#DejaVuSans-5d" x="284.326172"/>
    </g>
   </g>
   <g id="text_12">
    <!-- N [18] -->
    <g transform="translate(15.075625 208.502279) scale(0.1 -0.1)">
     <defs>
      <path id="DejaVuSans-4e" d="M 628 4666 
L 1478 4666 
L 3547 763 
L 3547 4666 
L 4159 4666 
L 4159 0 
L 3309 0 
L 1241 3903 
L 1241 0 
L 628 0 
L 628 4666 
z
" transform="scale(0.015625)"/>
     </defs>
     <use xlink:href="#DejaVuSans-4e"/>
     <use xlink:href="#DejaVuSans-20" x="74.804688"/>
     <use xlink:href="#DejaVuSans-5b" x="106.591797"/>
     <use xlink:href="#DejaVuSans-31" x="145.605469"/>
     <use xlink:href="#DejaVuSans-38" x="209.228516"/>
     <use xlink:href="#DejaVuSans-5d" x="272.851562"/>
    </g>
   </g>
   <g id="text_13">
    <!-- P [41] -->
    <g transform="translate(38.910899 245.681502) scale(0.1 -0.1)">
     <defs>
      <path id="DejaVuSans-50" d="M 1259 4147 
L 1259 2394 
L 2053 2394 
Q 2494 2394 2734 2622 
Q 2975 2850 2975 3272 
Q 2975 3691 2734 3919 
Q 2494 4147 2053 4147 
L 1259 4147 
z
M 628 4666 
L 2053 4666 
Q 2838 4666 3239 4311 
Q 3641 3956 3641 3272 
Q 3641 2581 3239 2228 
Q 2838 1875 2053 1875 
L 1259 1875 
L 1259 0 
L 628 0 
L 628 4666 
z
" transform="scale(0.015625)"/>
     </defs>
     <use xlink:href="#DejaVuSans-50"/>
     <use xlink:href="#DejaVuSans-20" x="60.302734"/>
     <use xlink:href="#DejaVuSans-5b" x="92.089844"/>
     <use xlink:href="#DejaVuSans-34" x="131.103516"/>
     <use xlink:href="#DejaVuSans-31" x="194.726562"/>
     <use xlink:href="#DejaVuSans-5d" x="258.349609"/>
    </g>
   </g>
   <g id="text_14">
    <!-- Q [20] -->
    <g transform="translate(70.947686 275.08018) scale(0.1 -0.1)">
     <defs>
      <path id="DejaVuSans-51" d="M 2522 4238 
Q 1834 4238 1429 3725 
Q 1025 3213 1025 2328 
Q 1025 1447 1429 934 
Q 1834 422 2522 422 
Q 3209 422 3611 934 
Q 4013 1447 4013 2328 
Q 4013 3213 3611 3725 
Q 3209 4238 2522 4238 
z
M 3406 84 
L 4238 -825 
L 3475 -825 
L 2784 -78 
Q 2681 -84 2626 -87 
Q 2572 -91 2522 -91 
Q 1538 -91 948 567 
Q 359 1225 359 2328 
Q 359 3434 948 4092 
Q 1538 4750 2522 4750 
Q 3503 4750 4090 4092 
Q 4678 3434 4678 2328 
Q 4678 1516 4351 937 
Q 4025 359 3406 84 
z
" transform="scale(0.015625)"/>
      <path id="DejaVuSans-30" d="M 2034 4250 
Q 1547 4250 1301 3770 
Q 1056 3291 1056 2328 
Q 1056 1369 1301 889 
Q 1547 409 2034 409 
Q 2525 409 2770 889 
Q 3016 1369 3016 2328 
Q 3016 3291 2770 3770 
Q 2525 4250 2034 4250 
z
M 2034 4750 
Q 2819 4750 3233 4129 
Q 3647 3509 3647 2328 
Q 3647 1150 3233 529 
Q 2819 -91 2034 -91 
Q 1250 -91 836 529 
Q 422 1150 422 2328 
Q 422 3509 836 4129 
Q 1250 4750 2034 4750 
z
" transform="scale(0.015625)"/>
     </defs>
     <use xlink:href="#DejaVuSans-51"/>
     <use xlink:href="#DejaVuSans-20" x="78.710938"/>
     <use xlink:href="#DejaVuSans-5b" x="110.498047"/>
     <use xlink:href="#DejaVuSans-32" x="149.511719"/>
     <use xlink:href="#DejaVuSans-30" x="213.134766"/>
     <use xlink:href="#DejaVuSans-5d" x="276.757812"/>
    </g>
   </g>
   <g id="text_15">
    <!-- R [43] -->
    <g transform="translate(114.705578 292.691554) scale(0.1 -0.1)">
     <defs>
      <path id="DejaVuSans-52" d="M 2841 2188 
Q 3044 2119 3236 1894 
Q 3428 1669 3622 1275 
L 4263 0 
L 3584 0 
L 2988 1197 
Q 2756 1666 2539 1819 
Q 2322 1972 1947 1972 
L 1259 1972 
L 1259 0 
L 628 0 
L 628 4666 
L 2053 4666 
Q 2853 4666 3247 4331 
Q 3641 3997 3641 3322 
Q 3641 2881 3436 2590 
Q 3231 2300 2841 2188 
z
M 1259 4147 
L 1259 2491 
L 2053 2491 
Q 2509 2491 2742 2702 
Q 2975 2913 2975 3322 
Q 2975 3731 2742 3939 
Q 2509 4147 2053 4147 
L 1259 4147 
z
" transform="scale(0.015625)"/>
     </defs>
     <use xlink:href="#DejaVuSans-52"/>
     <use xlink:href="#DejaVuSans-20" x="69.482422"/>
     <use xlink:href="#DejaVuSans-5b" x="101.269531"/>
     <use xlink:href="#DejaVuSans-34" x="140.283203"/>
     <use xlink:href="#DejaVuSans-33" x="203.90625"/>
     <use xlink:href="#DejaVuSans-5d" x="267.529297"/>
    </g>
   </g>
   <g id="text_16">
    <!-- S [47] -->
    <g transform="translate(211.206624 292.001989) scale(0.1 -0.1)">
     <defs>
      <path id="DejaVuSans-53" d="M 3425 4513 
L 3425 3897 
Q 3066 4069 2747 4153 
Q 2428 4238 2131 4238 
Q 1616 4238 1336 4038 
Q 1056 3838 1056 3469 
Q 1056 3159 1242 3001 
Q 1428 2844 1947 2747 
L 2328 2669 
Q 3034 2534 3370 2195 
Q 3706 1856 3706 1288 
Q 3706 609 3251 259 
Q 2797 -91 1919 -91 
Q 1588 -91 1214 -16 
Q 841 59 441 206 
L 441 856 
Q 825 641 1194 531 
Q 1563 422 1919 422 
Q 2459 422 2753 634 
Q 3047 847 3047 1241 
Q 3047 1584 2836 1778 
Q 2625 1972 2144 2069 
L 1759 2144 
Q 1053 2284 737 2584 
Q 422 2884 422 3419 
Q 422 4038 858 4394 
Q 1294 4750 2059 4750 
Q 2388 4750 2728 4690 
Q 3069 4631 3425 4513 
z
" transform="scale(0.015625)"/>
     </defs>
     <use xlink:href="#DejaVuSans-53"/>
     <use xlink:href="#DejaVuSans-20" x="63.476562"/>
     <use xlink:href="#DejaVuSans-5b" x="95.263672"/>
     <use xlink:href="#DejaVuSans-34" x="134.277344"/>
     <use xlink:href="#DejaVuSans-37" x="197.900391"/>
     <use xlink:href="#DejaVuSans-5d" x="261.523438"/>
    </g>
   </g>
   <g id="text_17">
    <!-- T [41] -->
    <g transform="translate(268.445057 262.459032) scale(0.1 -0.1)">
     <defs>
      <path id="DejaVuSans-54" d="M -19 4666 
L 3928 4666 
L 3928 4134 
L 2272 4134 
L 2272 0 
L 1638 0 
L 1638 4134 
L -19 4134 
L -19 4666 
z
" transform="scale(0.015625)"/>
     </defs>
     <use xlink:href="#DejaVuSans-54"/>
     <use xlink:href="#DejaVuSans-20" x="61.083984"/>
     <use xlink:href="#DejaVuSans-5b" x="92.871094"/>
     <use xlink:href="#DejaVuSans-34" x="131.884766"/>
     <use xlink:href="#DejaVuSans-31" x="195.507812"/>
     <use xlink:href="#DejaVuSans-5d" x="259.130859"/>
    </g>
   </g>
   <g id="text_18">
    <!-- V [36] -->
    <g transform="translate(303.177934 217.922922) scale(0.1 -0.1)">
     <defs>
      <path id="DejaVuSans-56" d="M 1831 0 
L 50 4666 
L 709 4666 
L 2188 738 
L 3669 4666 
L 4325 4666 
L 2547 0 
L 1831 0 
z
" transform="scale(0.015625)"/>
     </defs>
     <use xlink:href="#DejaVuSans-56"/>
     <use xlink:href="#DejaVuSans-20" x="68.408203"/>
     <use xlink:href="#DejaVuSans-5b" x="100.195312"/>
     <use xlink:href="#DejaVuSans-33" x="139.208984"/>
     <use xlink:href="#DejaVuSans-36" x="202.832031"/>
     <use xlink:href="#DejaVuSans-5d" x="266.455078"/>
    </g>
   </g>
   <g id="text_19">
    <!-- W [10] -->
    <g transform="translate(314.489996 185.978645) scale(0.1 -0.1)">
     <defs>
      <path id="DejaVuSans-57" d="M 213 4666 
L 850 4666 
L 1831 722 
L 2809 4666 
L 3519 4666 
L 4500 722 
L 5478 4666 
L 6119 4666 
L 4947 0 
L 4153 0 
L 3169 4050 
L 2175 0 
L 1381 0 
L 213 4666 
z
" transform="scale(0.015625)"/>
     </defs>
     <use xlink:href="#DejaVuSans-57"/>
     <use xlink:href="#DejaVuSans-20" x="98.876953"/>
     <use xlink:href="#DejaVuSans-5b" x="130.664062"/>
     <use xlink:href="#DejaVuSans-31" x="169.677734"/>
     <use xlink:href="#DejaVuSans-30" x="233.300781"/>
     <use xlink:href="#DejaVuSans-5d" x="296.923828"/>
    </g>
   </g>
   <g id="text_20">
    <!-- Y [16] -->
    <g transform="translate(317.392036 167.01373) scale(0.1 -0.1)">
     <defs>
      <path id="DejaVuSans-59" d="M -13 4666 
L 666 4666 
L 1959 2747 
L 3244 4666 
L 3922 4666 
L 2272 2222 
L 2272 0 
L 1638 0 
L 1638 2222 
L -13 4666 
z
" transform="scale(0.015625)"/>
     </defs>
     <use xlink:href="#DejaVuSans-59"/>
     <use xlink:href="#DejaVuSans-20" x="61.083984"/>
     <use xlink:href="#DejaVuSans-5b" x="92.871094"/>
     <use xlink:href="#DejaVuSans-31" x="131.884766"/>
     <use xlink:href="#DejaVuSans-36" x="195.507812"/>
     <use xlink:href="#DejaVuSans-5d" x="259.130859"/>
    </g>
   </g>
   <g id="text_21">
    <!-- Q9QY42 [600] -->
    <g transform="translate(134.242634 152.452485) scale(0.12 -0.12)">
     <use xlink:href="#DejaVuSans-51"/>
     <use xlink:href="#DejaVuSans-39" x="78.710938"/>
     <use xlink:href="#DejaVuSans-51" x="142.333984"/>
     <use xlink:href="#DejaVuSans-59" x="221.044922"/>
     <use xlink:href="#DejaVuSans-34" x="282.128906"/>
     <use xlink:href="#DejaVuSans-32" x="345.751953"/>
     <use xlink:href="#DejaVuSans-20" x="409.375"/>
     <use xlink:href="#DejaVuSans-5b" x="441.162109"/>
     <use xlink:href="#DejaVuSans-36" x="480.175781"/>
     <use xlink:href="#DejaVuSans-30" x="543.798828"/>
     <use xlink:href="#DejaVuSans-30" x="607.421875"/>
     <use xlink:href="#DejaVuSans-5d" x="671.044922"/>
    </g>
   </g>
  </g>
 </g>
</svg>
