<?xml version="1.0" encoding="utf-8" standalone="no"?>
<!DOCTYPE svg PUBLIC "-//W3C//DTD SVG 1.1//EN"
  "http://www.w3.org/Graphics/SVG/1.1/DTD/svg11.dtd">
<svg xmlns:xlink="http://www.w3.org/1999/xlink" width="354.931644pt" height="305.105907pt" viewBox="0 0 354.931644 305.105907" xmlns="http://www.w3.org/2000/svg" version="1.1">
 <metadata>
  <rdf:RDF xmlns:dc="http://purl.org/dc/elements/1.1/" xmlns:cc="http://creativecommons.org/ns#" xmlns:rdf="http://www.w3.org/1999/02/22-rdf-syntax-ns#">
   <cc:Work>
    <dc:type rdf:resource="http://purl.org/dc/dcmitype/StillImage"/>
    <dc:date>2024-09-27T16:07:13.704429</dc:date>
    <dc:format>image/svg+xml</dc:format>
    <dc:creator>
     <cc:Agent>
      <dc:title>Matplotlib v3.8.3, https://matplotlib.org/</dc:title>
     </cc:Agent>
    </dc:creator>
   </cc:Work>
  </rdf:RDF>
 </metadata>
 <defs>
  <style type="text/css">*{stroke-linejoin: round; stroke-linecap: butt}</style>
 </defs>
 <g id="figure_1">
  <g id="patch_1">
   <path d="M 0 305.105907 
L 354.931644 305.105907 
L 354.931644 0 
L 0 0 
z
" style="fill: #ffffff"/>
  </g>
  <g id="axes_1">
   <g id="patch_2">
    <path d="M 305.243852 152.247944 
C 305.243852 147.6097 304.991218 142.974896 304.487071 138.364131 
C 303.982925 133.753367 303.228015 129.173482 302.225696 124.644832 
L 177.510092 152.247944 
z
" style="fill: #1f77b4"/>
   </g>
   <g id="patch_3">
    <path d="M 302.203484 124.540337 
C 301.355428 120.708671 300.33124 116.918122 299.13418 113.180755 
C 297.93712 109.443389 296.56846 105.763173 295.032556 102.151821 
L 177.487881 152.143449 
z
" style="fill: #ff7f0e"/>
   </g>
   <g id="patch_4">
    <path d="M 295.000417 102.073534 
C 293.883488 99.447315 292.67886 96.859266 291.38856 94.313744 
C 290.098261 91.768223 288.723014 89.266658 287.265136 86.813263 
L 177.455742 152.065163 
z
" style="fill: #aec7e8"/>
   </g>
   <g id="patch_5">
    <path d="M 287.231234 86.755662 
C 285.955619 84.608989 284.61733 82.500183 283.218092 80.431963 
C 281.818854 78.363742 280.35927 76.336998 278.84122 74.354341 
L 177.421839 152.007562 
z
" style="fill: #ffbb78"/>
   </g>
   <g id="patch_6">
    <path d="M 278.739655 74.242487 
C 272.878506 66.587505 266.169476 59.620659 258.74084 53.475157 
C 251.312205 47.329655 243.211614 42.044915 234.593953 37.721984 
L 177.320274 151.895708 
z
" style="fill: #98df8a"/>
   </g>
   <g id="patch_7">
    <path d="M 234.427624 37.628721 
C 229.324385 35.068751 224.055247 32.853809 218.655669 30.998801 
C 213.25609 29.143792 207.738211 27.652887 202.139164 26.536119 
L 177.153946 151.802445 
z
" style="fill: #2ca02c"/>
   </g>
   <g id="patch_8">
    <path d="M 202.021873 26.51016 
C 198.173287 25.742533 194.291369 25.152676 190.388474 24.742465 
C 186.485579 24.332254 182.565852 24.102125 178.641768 24.05281 
L 177.036654 151.776485 
z
" style="fill: #d62728"/>
   </g>
   <g id="patch_9">
    <path d="M 178.413212 24.07877 
C 163.753819 23.894545 149.171536 26.235468 135.306385 30.998797 
C 121.441233 35.762127 108.499074 42.877138 97.047942 52.031553 
L 176.808098 151.802445 
z
" style="fill: #9467bd"/>
   </g>
   <g id="patch_10">
    <path d="M 96.823858 52.180434 
C 91.248343 56.637685 86.056254 61.55447 81.302149 66.879123 
C 76.548044 72.203777 72.248631 77.917585 68.449088 83.960509 
L 176.584014 151.951326 
z
" style="fill: #ff9896"/>
   </g>
   <g id="patch_11">
    <path d="M 68.327429 84.195614 
C 60.715059 96.302589 55.189736 109.602486 51.982374 123.539482 
C 48.775011 137.476478 47.93092 151.85368 49.485376 166.070244 
L 176.462355 152.186431 
z
" style="fill: #c5b0d5"/>
   </g>
   <g id="patch_12">
    <path d="M 49.485376 166.308969 
C 50.028325 171.274604 50.862089 176.204116 51.982373 181.072102 
C 53.102657 185.940088 54.507533 190.738169 56.189759 195.441618 
L 176.462355 152.425156 
z
" style="fill: #c49c94"/>
   </g>
   <g id="patch_13">
    <path d="M 56.246395 195.586435 
C 58.770638 202.644134 61.911217 209.465968 65.631756 215.972926 
C 69.352296 222.479883 73.638376 228.646744 78.440354 234.402083 
L 176.518992 152.569972 
z
" style="fill: #8c564b"/>
   </g>
   <g id="patch_14">
    <path d="M 78.517475 234.505473 
C 80.345793 236.696776 82.247036 238.82619 84.218002 240.89013 
C 86.188968 242.95407 88.22855 244.951377 90.333314 246.878686 
L 176.596113 152.673363 
z
" style="fill: #e377c2"/>
   </g>
   <g id="patch_15">
    <path d="M 90.39644 246.935049 
C 93.290732 249.585321 96.305624 252.100802 99.431521 254.473487 
C 102.557417 256.846171 105.790999 259.07354 109.121974 261.148503 
L 176.65924 152.729726 
z
" style="fill: #7f7f7f"/>
   </g>
   <g id="patch_16">
    <path d="M 109.233408 261.213463 
C 114.68571 264.609864 120.386458 267.590142 126.287113 270.128925 
C 132.187767 272.667707 138.271536 274.757766 144.486618 276.381308 
L 176.770674 152.794686 
z
" style="fill: #f7b6d2"/>
   </g>
   <g id="patch_17">
    <path d="M 144.730385 276.42359 
C 157.872533 279.856662 171.47856 281.171567 185.034909 280.318674 
C 198.591259 279.465781 211.925197 276.455957 224.533437 271.402807 
L 177.01444 152.836967 
z
" style="fill: #c7c7c7"/>
   </g>
   <g id="patch_18">
    <path d="M 224.788953 271.3186 
C 232.410099 268.264186 239.719026 264.482069 246.61423 260.024775 
C 253.509435 255.56748 259.958847 250.455739 265.872901 244.760541 
L 177.269956 152.75276 
z
" style="fill: #dbdb8d"/>
   </g>
   <g id="patch_19">
    <path d="M 266.027267 244.608102 
C 272.714152 238.168672 278.679153 231.01941 283.816483 223.287107 
C 288.953814 215.554803 293.232924 207.285438 296.577926 198.625666 
L 177.424322 152.600322 
z
" style="fill: #bcbd22"/>
   </g>
   <g id="patch_20">
    <path d="M 296.638693 198.501952 
C 297.281352 196.838193 297.889093 195.161156 298.461517 193.471944 
C 299.033941 191.782733 299.570922 190.081718 300.072106 188.370017 
L 177.48509 152.476607 
z
" style="fill: #17becf"/>
   </g>
   <g id="patch_21">
    <path d="M 300.094874 188.274746 
C 301.79956 182.45272 303.087324 176.516642 303.948385 170.511601 
C 304.809445 164.506561 305.241617 158.4478 305.241617 152.381339 
L 177.507857 152.381336 
z
" style="fill: #9edae5"/>
   </g>
   <g id="patch_22">
    <path d="M 251.492382 152.305793 
C 251.492382 149.600151 251.345012 146.896515 251.050926 144.206902 
C 250.756841 141.51729 250.316476 138.845691 249.73179 136.203978 
L 176.981022 152.305793 
z
" style="fill: #ffffff"/>
   </g>
   <g id="patch_23">
    <path d="M 249.73179 136.203978 
C 249.23709 133.96884 248.639647 131.757686 247.941363 129.577556 
C 247.243078 127.397425 246.444693 125.250632 245.548749 123.14401 
L 176.981022 152.305793 
z
" style="fill: #ffffff"/>
   </g>
   <g id="patch_24">
    <path d="M 245.548749 123.14401 
C 244.897207 121.612049 244.194507 120.102354 243.441833 118.617466 
C 242.689158 117.132579 241.88693 115.673333 241.036502 114.242186 
L 176.981022 152.305793 
z
" style="fill: #ffffff"/>
   </g>
   <g id="patch_25">
    <path d="M 241.036502 114.242186 
C 240.292393 112.989959 239.511724 111.759822 238.695502 110.553361 
C 237.87928 109.346899 237.027856 108.164631 236.142327 107.008081 
L 176.981022 152.305793 
z
" style="fill: #ffffff"/>
   </g>
   <g id="patch_26">
    <path d="M 236.142327 107.008081 
C 232.723324 102.542675 228.809723 98.478682 224.476352 94.893805 
C 220.142981 91.308929 215.417637 88.226165 210.390668 85.704455 
L 176.981022 152.305793 
z
" style="fill: #ffffff"/>
   </g>
   <g id="patch_27">
    <path d="M 210.390668 85.704455 
C 207.413778 84.211139 204.340114 82.919089 201.19036 81.837001 
C 198.040606 80.754913 194.821844 79.885218 191.555733 79.23377 
L 176.981022 152.305793 
z
" style="fill: #ffffff"/>
   </g>
   <g id="patch_28">
    <path d="M 191.555733 79.23377 
C 189.310724 78.785988 187.046272 78.441905 184.769583 78.202615 
C 182.492894 77.963325 180.206387 77.829083 177.917338 77.800317 
L 176.981022 152.305793 
z
" style="fill: #ffffff"/>
   </g>
   <g id="patch_29">
    <path d="M 177.917338 77.800317 
C 169.366026 77.692852 160.859694 79.05839 152.771689 81.836999 
C 144.683684 84.615608 137.134091 88.766031 130.454264 94.106106 
L 176.981022 152.305793 
z
" style="fill: #ffffff"/>
   </g>
   <g id="patch_30">
    <path d="M 130.454264 94.106106 
C 127.20188 96.70617 124.173162 99.574294 121.399934 102.680342 
C 118.626706 105.78639 116.118715 109.119445 113.902315 112.644484 
L 176.981022 152.305793 
z
" style="fill: #ffffff"/>
   </g>
   <g id="patch_31">
    <path d="M 113.902315 112.644484 
C 109.461765 119.706886 106.238661 127.465159 104.367699 135.595073 
C 102.496738 143.724987 102.004351 152.111689 102.911117 160.404684 
L 176.981022 152.305793 
z
" style="fill: #ffffff"/>
   </g>
   <g id="patch_32">
    <path d="M 102.911117 160.404684 
C 103.227837 163.301305 103.7142 166.176854 104.367699 169.016512 
C 105.021198 171.85617 105.840709 174.655051 106.822007 177.39873 
L 176.981022 152.305793 
z
" style="fill: #ffffff"/>
   </g>
   <g id="patch_33">
    <path d="M 106.822007 177.39873 
C 108.294482 181.515721 110.126487 185.495124 112.296801 189.29085 
C 114.467116 193.086575 116.967329 196.68391 119.768483 200.041191 
L 176.981022 152.305793 
z
" style="fill: #ffffff"/>
   </g>
   <g id="patch_34">
    <path d="M 119.768483 200.041191 
C 120.835002 201.319451 121.94406 202.561609 123.09379 203.765574 
C 124.24352 204.969539 125.433277 206.134635 126.661056 207.258899 
L 176.981022 152.305793 
z
" style="fill: #ffffff"/>
   </g>
   <g id="patch_35">
    <path d="M 126.661056 207.258899 
C 128.349392 208.80489 130.108079 210.272254 131.931519 211.656321 
C 133.754959 213.040387 135.641215 214.339685 137.584283 215.55008 
L 176.981022 152.305793 
z
" style="fill: #ffffff"/>
   </g>
   <g id="patch_36">
    <path d="M 137.584283 215.55008 
C 140.764793 217.531314 144.090229 219.26981 147.532278 220.750766 
C 150.974327 222.231722 154.523191 223.450924 158.148656 224.39799 
L 176.981022 152.305793 
z
" style="fill: #ffffff"/>
   </g>
   <g id="patch_37">
    <path d="M 158.148656 224.39799 
C 165.814909 226.400615 173.751758 227.167643 181.659629 226.670122 
C 189.567499 226.172601 197.34563 224.416871 204.700436 221.4692 
L 176.981022 152.305793 
z
" style="fill: #ffffff"/>
   </g>
   <g id="patch_38">
    <path d="M 204.700436 221.4692 
C 209.146105 219.687458 213.409646 217.481224 217.431848 214.881135 
C 221.454051 212.281047 225.216208 209.299198 228.666073 205.976999 
L 176.981022 152.305793 
z
" style="fill: #ffffff"/>
   </g>
   <g id="patch_39">
    <path d="M 228.666073 205.976999 
C 232.566756 202.220664 236.046339 198.050262 239.043116 193.539751 
C 242.039892 189.029241 244.536039 184.205445 246.48729 179.153911 
L 176.981022 152.305793 
z
" style="fill: #ffffff"/>
   </g>
   <g id="patch_40">
    <path d="M 246.48729 179.153911 
C 246.862174 178.183385 247.21669 177.205113 247.550604 176.21974 
C 247.884518 175.234367 248.197757 174.242108 248.490115 173.243616 
L 176.981022 152.305793 
z
" style="fill: #ffffff"/>
   </g>
   <g id="patch_41">
    <path d="M 248.490115 173.243616 
C 249.484515 169.847434 250.23571 166.384722 250.737996 162.881781 
C 251.240281 159.378841 251.492382 155.844564 251.492382 152.305795 
L 176.981022 152.305793 
z
" style="fill: #ffffff"/>
   </g>
   <g id="matplotlib.axis_1"/>
   <g id="matplotlib.axis_2"/>
   <g id="text_1">
    <!-- A [13] -->
    <g transform="translate(317.184769 139.735125) scale(0.1 -0.1)">
     <defs>
      <path id="DejaVuSans-41" d="M 2188 4044 
L 1331 1722 
L 3047 1722 
L 2188 4044 
z
M 1831 4666 
L 2547 4666 
L 4325 0 
L 3669 0 
L 3244 1197 
L 1141 1197 
L 716 0 
L 50 0 
L 1831 4666 
z
" transform="scale(0.015625)"/>
      <path id="DejaVuSans-20" transform="scale(0.015625)"/>
      <path id="DejaVuSans-5b" d="M 550 4863 
L 1875 4863 
L 1875 4416 
L 1125 4416 
L 1125 -397 
L 1875 -397 
L 1875 -844 
L 550 -844 
L 550 4863 
z
" transform="scale(0.015625)"/>
      <path id="DejaVuSans-31" d="M 794 531 
L 1825 531 
L 1825 4091 
L 703 3866 
L 703 4441 
L 1819 4666 
L 2450 4666 
L 2450 531 
L 3481 531 
L 3481 0 
L 794 0 
L 794 531 
z
" transform="scale(0.015625)"/>
      <path id="DejaVuSans-33" d="M 2597 2516 
Q 3050 2419 3304 2112 
Q 3559 1806 3559 1356 
Q 3559 666 3084 287 
Q 2609 -91 1734 -91 
Q 1441 -91 1130 -33 
Q 819 25 488 141 
L 488 750 
Q 750 597 1062 519 
Q 1375 441 1716 441 
Q 2309 441 2620 675 
Q 2931 909 2931 1356 
Q 2931 1769 2642 2001 
Q 2353 2234 1838 2234 
L 1294 2234 
L 1294 2753 
L 1863 2753 
Q 2328 2753 2575 2939 
Q 2822 3125 2822 3475 
Q 2822 3834 2567 4026 
Q 2313 4219 1838 4219 
Q 1578 4219 1281 4162 
Q 984 4106 628 3988 
L 628 4550 
Q 988 4650 1302 4700 
Q 1616 4750 1894 4750 
Q 2613 4750 3031 4423 
Q 3450 4097 3450 3541 
Q 3450 3153 3228 2886 
Q 3006 2619 2597 2516 
z
" transform="scale(0.015625)"/>
      <path id="DejaVuSans-5d" d="M 1947 4863 
L 1947 -844 
L 622 -844 
L 622 -397 
L 1369 -397 
L 1369 4416 
L 622 4416 
L 622 4863 
L 1947 4863 
z
" transform="scale(0.015625)"/>
     </defs>
     <use xlink:href="#DejaVuSans-41"/>
     <use xlink:href="#DejaVuSans-20" x="68.408203"/>
     <use xlink:href="#DejaVuSans-5b" x="100.195312"/>
     <use xlink:href="#DejaVuSans-31" x="139.208984"/>
     <use xlink:href="#DejaVuSans-33" x="202.832031"/>
     <use xlink:href="#DejaVuSans-5d" x="266.455078"/>
    </g>
   </g>
   <g id="text_2">
    <!-- C [11] -->
    <g transform="translate(311.29881 112.043861) scale(0.1 -0.1)">
     <defs>
      <path id="DejaVuSans-43" d="M 4122 4306 
L 4122 3641 
Q 3803 3938 3442 4084 
Q 3081 4231 2675 4231 
Q 1875 4231 1450 3742 
Q 1025 3253 1025 2328 
Q 1025 1406 1450 917 
Q 1875 428 2675 428 
Q 3081 428 3442 575 
Q 3803 722 4122 1019 
L 4122 359 
Q 3791 134 3420 21 
Q 3050 -91 2638 -91 
Q 1578 -91 968 557 
Q 359 1206 359 2328 
Q 359 3453 968 4101 
Q 1578 4750 2638 4750 
Q 3056 4750 3426 4639 
Q 3797 4528 4122 4306 
z
" transform="scale(0.015625)"/>
     </defs>
     <use xlink:href="#DejaVuSans-43"/>
     <use xlink:href="#DejaVuSans-20" x="69.824219"/>
     <use xlink:href="#DejaVuSans-5b" x="101.611328"/>
     <use xlink:href="#DejaVuSans-31" x="140.625"/>
     <use xlink:href="#DejaVuSans-31" x="204.248047"/>
     <use xlink:href="#DejaVuSans-5d" x="267.871094"/>
    </g>
   </g>
   <g id="text_3">
    <!-- D [8] -->
    <g transform="translate(302.781842 91.297978) scale(0.1 -0.1)">
     <defs>
      <path id="DejaVuSans-44" d="M 1259 4147 
L 1259 519 
L 2022 519 
Q 2988 519 3436 956 
Q 3884 1394 3884 2338 
Q 3884 3275 3436 3711 
Q 2988 4147 2022 4147 
L 1259 4147 
z
M 628 4666 
L 1925 4666 
Q 3281 4666 3915 4102 
Q 4550 3538 4550 2338 
Q 4550 1131 3912 565 
Q 3275 0 1925 0 
L 628 0 
L 628 4666 
z
" transform="scale(0.015625)"/>
      <path id="DejaVuSans-38" d="M 2034 2216 
Q 1584 2216 1326 1975 
Q 1069 1734 1069 1313 
Q 1069 891 1326 650 
Q 1584 409 2034 409 
Q 2484 409 2743 651 
Q 3003 894 3003 1313 
Q 3003 1734 2745 1975 
Q 2488 2216 2034 2216 
z
M 1403 2484 
Q 997 2584 770 2862 
Q 544 3141 544 3541 
Q 544 4100 942 4425 
Q 1341 4750 2034 4750 
Q 2731 4750 3128 4425 
Q 3525 4100 3525 3541 
Q 3525 3141 3298 2862 
Q 3072 2584 2669 2484 
Q 3125 2378 3379 2068 
Q 3634 1759 3634 1313 
Q 3634 634 3220 271 
Q 2806 -91 2034 -91 
Q 1263 -91 848 271 
Q 434 634 434 1313 
Q 434 1759 690 2068 
Q 947 2378 1403 2484 
z
M 1172 3481 
Q 1172 3119 1398 2916 
Q 1625 2713 2034 2713 
Q 2441 2713 2670 2916 
Q 2900 3119 2900 3481 
Q 2900 3844 2670 4047 
Q 2441 4250 2034 4250 
Q 1625 4250 1398 4047 
Q 1172 3844 1172 3481 
z
" transform="scale(0.015625)"/>
     </defs>
     <use xlink:href="#DejaVuSans-44"/>
     <use xlink:href="#DejaVuSans-20" x="77.001953"/>
     <use xlink:href="#DejaVuSans-5b" x="108.789062"/>
     <use xlink:href="#DejaVuSans-38" x="147.802734"/>
     <use xlink:href="#DejaVuSans-5d" x="211.425781"/>
    </g>
   </g>
   <g id="text_4">
    <!-- E [7] -->
    <g transform="translate(293.797717 76.033778) scale(0.1 -0.1)">
     <defs>
      <path id="DejaVuSans-45" d="M 628 4666 
L 3578 4666 
L 3578 4134 
L 1259 4134 
L 1259 2753 
L 3481 2753 
L 3481 2222 
L 1259 2222 
L 1259 531 
L 3634 531 
L 3634 0 
L 628 0 
L 628 4666 
z
" transform="scale(0.015625)"/>
      <path id="DejaVuSans-37" d="M 525 4666 
L 3525 4666 
L 3525 4397 
L 1831 0 
L 1172 0 
L 2766 4134 
L 525 4134 
L 525 4666 
z
" transform="scale(0.015625)"/>
     </defs>
     <use xlink:href="#DejaVuSans-45"/>
     <use xlink:href="#DejaVuSans-20" x="63.183594"/>
     <use xlink:href="#DejaVuSans-5b" x="94.970703"/>
     <use xlink:href="#DejaVuSans-37" x="133.984375"/>
     <use xlink:href="#DejaVuSans-5d" x="197.607422"/>
    </g>
   </g>
   <g id="text_5">
    <!-- F [27] -->
    <g transform="translate(266.882897 46.392477) scale(0.1 -0.1)">
     <defs>
      <path id="DejaVuSans-46" d="M 628 4666 
L 3309 4666 
L 3309 4134 
L 1259 4134 
L 1259 2759 
L 3109 2759 
L 3109 2228 
L 1259 2228 
L 1259 0 
L 628 0 
L 628 4666 
z
" transform="scale(0.015625)"/>
      <path id="DejaVuSans-32" d="M 1228 531 
L 3431 531 
L 3431 0 
L 469 0 
L 469 531 
Q 828 903 1448 1529 
Q 2069 2156 2228 2338 
Q 2531 2678 2651 2914 
Q 2772 3150 2772 3378 
Q 2772 3750 2511 3984 
Q 2250 4219 1831 4219 
Q 1534 4219 1204 4116 
Q 875 4013 500 3803 
L 500 4441 
Q 881 4594 1212 4672 
Q 1544 4750 1819 4750 
Q 2544 4750 2975 4387 
Q 3406 4025 3406 3419 
Q 3406 3131 3298 2873 
Q 3191 2616 2906 2266 
Q 2828 2175 2409 1742 
Q 1991 1309 1228 531 
z
" transform="scale(0.015625)"/>
     </defs>
     <use xlink:href="#DejaVuSans-46"/>
     <use xlink:href="#DejaVuSans-20" x="57.519531"/>
     <use xlink:href="#DejaVuSans-5b" x="89.306641"/>
     <use xlink:href="#DejaVuSans-32" x="128.320312"/>
     <use xlink:href="#DejaVuSans-37" x="191.943359"/>
     <use xlink:href="#DejaVuSans-5d" x="255.566406"/>
    </g>
   </g>
   <g id="text_6">
    <!-- G [16] -->
    <g transform="translate(222.805841 21.677811) scale(0.1 -0.1)">
     <defs>
      <path id="DejaVuSans-47" d="M 3809 666 
L 3809 1919 
L 2778 1919 
L 2778 2438 
L 4434 2438 
L 4434 434 
Q 4069 175 3628 42 
Q 3188 -91 2688 -91 
Q 1594 -91 976 548 
Q 359 1188 359 2328 
Q 359 3472 976 4111 
Q 1594 4750 2688 4750 
Q 3144 4750 3555 4637 
Q 3966 4525 4313 4306 
L 4313 3634 
Q 3963 3931 3569 4081 
Q 3175 4231 2741 4231 
Q 1884 4231 1454 3753 
Q 1025 3275 1025 2328 
Q 1025 1384 1454 906 
Q 1884 428 2741 428 
Q 3075 428 3337 486 
Q 3600 544 3809 666 
z
" transform="scale(0.015625)"/>
      <path id="DejaVuSans-36" d="M 2113 2584 
Q 1688 2584 1439 2293 
Q 1191 2003 1191 1497 
Q 1191 994 1439 701 
Q 1688 409 2113 409 
Q 2538 409 2786 701 
Q 3034 994 3034 1497 
Q 3034 2003 2786 2293 
Q 2538 2584 2113 2584 
z
M 3366 4563 
L 3366 3988 
Q 3128 4100 2886 4159 
Q 2644 4219 2406 4219 
Q 1781 4219 1451 3797 
Q 1122 3375 1075 2522 
Q 1259 2794 1537 2939 
Q 1816 3084 2150 3084 
Q 2853 3084 3261 2657 
Q 3669 2231 3669 1497 
Q 3669 778 3244 343 
Q 2819 -91 2113 -91 
Q 1303 -91 875 529 
Q 447 1150 447 2328 
Q 447 3434 972 4092 
Q 1497 4750 2381 4750 
Q 2619 4750 2861 4703 
Q 3103 4656 3366 4563 
z
" transform="scale(0.015625)"/>
     </defs>
     <use xlink:href="#DejaVuSans-47"/>
     <use xlink:href="#DejaVuSans-20" x="77.490234"/>
     <use xlink:href="#DejaVuSans-5b" x="109.277344"/>
     <use xlink:href="#DejaVuSans-31" x="148.291016"/>
     <use xlink:href="#DejaVuSans-36" x="211.914062"/>
     <use xlink:href="#DejaVuSans-5d" x="275.537109"/>
    </g>
   </g>
   <g id="text_7">
    <!-- H [11] -->
    <g transform="translate(191.723656 14.798437) scale(0.1 -0.1)">
     <defs>
      <path id="DejaVuSans-48" d="M 628 4666 
L 1259 4666 
L 1259 2753 
L 3553 2753 
L 3553 4666 
L 4184 4666 
L 4184 0 
L 3553 0 
L 3553 2222 
L 1259 2222 
L 1259 0 
L 628 0 
L 628 4666 
z
" transform="scale(0.015625)"/>
     </defs>
     <use xlink:href="#DejaVuSans-48"/>
     <use xlink:href="#DejaVuSans-20" x="75.195312"/>
     <use xlink:href="#DejaVuSans-5b" x="106.982422"/>
     <use xlink:href="#DejaVuSans-31" x="145.996094"/>
     <use xlink:href="#DejaVuSans-31" x="209.619141"/>
     <use xlink:href="#DejaVuSans-5d" x="273.242188"/>
    </g>
   </g>
   <g id="text_8">
    <!-- I [41] -->
    <g transform="translate(104.499964 21.677808) scale(0.1 -0.1)">
     <defs>
      <path id="DejaVuSans-49" d="M 628 4666 
L 1259 4666 
L 1259 0 
L 628 0 
L 628 4666 
z
" transform="scale(0.015625)"/>
      <path id="DejaVuSans-34" d="M 2419 4116 
L 825 1625 
L 2419 1625 
L 2419 4116 
z
M 2253 4666 
L 3047 4666 
L 3047 1625 
L 3713 1625 
L 3713 1100 
L 3047 1100 
L 3047 0 
L 2419 0 
L 2419 1100 
L 313 1100 
L 313 1709 
L 2253 4666 
z
" transform="scale(0.015625)"/>
     </defs>
     <use xlink:href="#DejaVuSans-49"/>
     <use xlink:href="#DejaVuSans-20" x="29.492188"/>
     <use xlink:href="#DejaVuSans-5b" x="61.279297"/>
     <use xlink:href="#DejaVuSans-34" x="100.292969"/>
     <use xlink:href="#DejaVuSans-31" x="163.916016"/>
     <use xlink:href="#DejaVuSans-5d" x="227.539062"/>
    </g>
   </g>
   <g id="text_9">
    <!-- K [20] -->
    <g transform="translate(41.5099 61.131278) scale(0.1 -0.1)">
     <defs>
      <path id="DejaVuSans-4b" d="M 628 4666 
L 1259 4666 
L 1259 2694 
L 3353 4666 
L 4166 4666 
L 1850 2491 
L 4331 0 
L 3500 0 
L 1259 2247 
L 1259 0 
L 628 0 
L 628 4666 
z
" transform="scale(0.015625)"/>
      <path id="DejaVuSans-30" d="M 2034 4250 
Q 1547 4250 1301 3770 
Q 1056 3291 1056 2328 
Q 1056 1369 1301 889 
Q 1547 409 2034 409 
Q 2525 409 2770 889 
Q 3016 1369 3016 2328 
Q 3016 3291 2770 3770 
Q 2525 4250 2034 4250 
z
M 2034 4750 
Q 2819 4750 3233 4129 
Q 3647 3509 3647 2328 
Q 3647 1150 3233 529 
Q 2819 -91 2034 -91 
Q 1250 -91 836 529 
Q 422 1150 422 2328 
Q 422 3509 836 4129 
Q 1250 4750 2034 4750 
z
" transform="scale(0.015625)"/>
     </defs>
     <use xlink:href="#DejaVuSans-4b"/>
     <use xlink:href="#DejaVuSans-20" x="65.576172"/>
     <use xlink:href="#DejaVuSans-5b" x="97.363281"/>
     <use xlink:href="#DejaVuSans-32" x="136.376953"/>
     <use xlink:href="#DejaVuSans-30" x="200"/>
     <use xlink:href="#DejaVuSans-5d" x="263.623047"/>
    </g>
   </g>
   <g id="text_10">
    <!-- L [40] -->
    <g transform="translate(10.256251 123.434162) scale(0.1 -0.1)">
     <defs>
      <path id="DejaVuSans-4c" d="M 628 4666 
L 1259 4666 
L 1259 531 
L 3531 531 
L 3531 0 
L 628 0 
L 628 4666 
z
" transform="scale(0.015625)"/>
     </defs>
     <use xlink:href="#DejaVuSans-4c"/>
     <use xlink:href="#DejaVuSans-20" x="55.712891"/>
     <use xlink:href="#DejaVuSans-5b" x="87.5"/>
     <use xlink:href="#DejaVuSans-34" x="126.513672"/>
     <use xlink:href="#DejaVuSans-30" x="190.136719"/>
     <use xlink:href="#DejaVuSans-5d" x="253.759766"/>
    </g>
   </g>
   <g id="text_11">
    <!-- M [14] -->
    <g transform="translate(7.2 186.696172) scale(0.1 -0.1)">
     <defs>
      <path id="DejaVuSans-4d" d="M 628 4666 
L 1569 4666 
L 2759 1491 
L 3956 4666 
L 4897 4666 
L 4897 0 
L 4281 0 
L 4281 4097 
L 3078 897 
L 2444 897 
L 1241 4097 
L 1241 0 
L 628 0 
L 628 4666 
z
" transform="scale(0.015625)"/>
     </defs>
     <use xlink:href="#DejaVuSans-4d"/>
     <use xlink:href="#DejaVuSans-20" x="86.279297"/>
     <use xlink:href="#DejaVuSans-5b" x="118.066406"/>
     <use xlink:href="#DejaVuSans-31" x="157.080078"/>
     <use xlink:href="#DejaVuSans-34" x="220.703125"/>
     <use xlink:href="#DejaVuSans-5d" x="284.326172"/>
    </g>
   </g>
   <g id="text_12">
    <!-- N [21] -->
    <g transform="translate(23.355533 225.072596) scale(0.1 -0.1)">
     <defs>
      <path id="DejaVuSans-4e" d="M 628 4666 
L 1478 4666 
L 3547 763 
L 3547 4666 
L 4159 4666 
L 4159 0 
L 3309 0 
L 1241 3903 
L 1241 0 
L 628 0 
L 628 4666 
z
" transform="scale(0.015625)"/>
     </defs>
     <use xlink:href="#DejaVuSans-4e"/>
     <use xlink:href="#DejaVuSans-20" x="74.804688"/>
     <use xlink:href="#DejaVuSans-5b" x="106.591797"/>
     <use xlink:href="#DejaVuSans-32" x="145.605469"/>
     <use xlink:href="#DejaVuSans-31" x="209.228516"/>
     <use xlink:href="#DejaVuSans-5d" x="272.851562"/>
    </g>
   </g>
   <g id="text_13">
    <!-- P [8] -->
    <g transform="translate(51.606753 252.471182) scale(0.1 -0.1)">
     <defs>
      <path id="DejaVuSans-50" d="M 1259 4147 
L 1259 2394 
L 2053 2394 
Q 2494 2394 2734 2622 
Q 2975 2850 2975 3272 
Q 2975 3691 2734 3919 
Q 2494 4147 2053 4147 
L 1259 4147 
z
M 628 4666 
L 2053 4666 
Q 2838 4666 3239 4311 
Q 3641 3956 3641 3272 
Q 3641 2581 3239 2228 
Q 2838 1875 2053 1875 
L 1259 1875 
L 1259 0 
L 628 0 
L 628 4666 
z
" transform="scale(0.015625)"/>
     </defs>
     <use xlink:href="#DejaVuSans-50"/>
     <use xlink:href="#DejaVuSans-20" x="60.302734"/>
     <use xlink:href="#DejaVuSans-5b" x="92.089844"/>
     <use xlink:href="#DejaVuSans-38" x="131.103516"/>
     <use xlink:href="#DejaVuSans-5d" x="194.726562"/>
    </g>
   </g>
   <g id="text_14">
    <!-- Q [11] -->
    <g transform="translate(60.130624 267.407238) scale(0.1 -0.1)">
     <defs>
      <path id="DejaVuSans-51" d="M 2522 4238 
Q 1834 4238 1429 3725 
Q 1025 3213 1025 2328 
Q 1025 1447 1429 934 
Q 1834 422 2522 422 
Q 3209 422 3611 934 
Q 4013 1447 4013 2328 
Q 4013 3213 3611 3725 
Q 3209 4238 2522 4238 
z
M 3406 84 
L 4238 -825 
L 3475 -825 
L 2784 -78 
Q 2681 -84 2626 -87 
Q 2572 -91 2522 -91 
Q 1538 -91 948 567 
Q 359 1225 359 2328 
Q 359 3434 948 4092 
Q 1538 4750 2522 4750 
Q 3503 4750 4090 4092 
Q 4678 3434 4678 2328 
Q 4678 1516 4351 937 
Q 4025 359 3406 84 
z
" transform="scale(0.015625)"/>
     </defs>
     <use xlink:href="#DejaVuSans-51"/>
     <use xlink:href="#DejaVuSans-20" x="78.710938"/>
     <use xlink:href="#DejaVuSans-5b" x="110.498047"/>
     <use xlink:href="#DejaVuSans-31" x="149.511719"/>
     <use xlink:href="#DejaVuSans-31" x="213.134766"/>
     <use xlink:href="#DejaVuSans-5d" x="276.757812"/>
    </g>
   </g>
   <g id="text_15">
    <!-- R [18] -->
    <g transform="translate(90.584069 284.621723) scale(0.1 -0.1)">
     <defs>
      <path id="DejaVuSans-52" d="M 2841 2188 
Q 3044 2119 3236 1894 
Q 3428 1669 3622 1275 
L 4263 0 
L 3584 0 
L 2988 1197 
Q 2756 1666 2539 1819 
Q 2322 1972 1947 1972 
L 1259 1972 
L 1259 0 
L 628 0 
L 628 4666 
L 2053 4666 
Q 2853 4666 3247 4331 
Q 3641 3997 3641 3322 
Q 3641 2881 3436 2590 
Q 3231 2300 2841 2188 
z
M 1259 4147 
L 1259 2491 
L 2053 2491 
Q 2509 2491 2742 2702 
Q 2975 2913 2975 3322 
Q 2975 3731 2742 3939 
Q 2509 4147 2053 4147 
L 1259 4147 
z
" transform="scale(0.015625)"/>
     </defs>
     <use xlink:href="#DejaVuSans-52"/>
     <use xlink:href="#DejaVuSans-20" x="69.482422"/>
     <use xlink:href="#DejaVuSans-5b" x="101.269531"/>
     <use xlink:href="#DejaVuSans-31" x="140.283203"/>
     <use xlink:href="#DejaVuSans-38" x="203.90625"/>
     <use xlink:href="#DejaVuSans-5d" x="267.529297"/>
    </g>
   </g>
   <g id="text_16">
    <!-- S [38] -->
    <g transform="translate(185.836956 295.826219) scale(0.1 -0.1)">
     <defs>
      <path id="DejaVuSans-53" d="M 3425 4513 
L 3425 3897 
Q 3066 4069 2747 4153 
Q 2428 4238 2131 4238 
Q 1616 4238 1336 4038 
Q 1056 3838 1056 3469 
Q 1056 3159 1242 3001 
Q 1428 2844 1947 2747 
L 2328 2669 
Q 3034 2534 3370 2195 
Q 3706 1856 3706 1288 
Q 3706 609 3251 259 
Q 2797 -91 1919 -91 
Q 1588 -91 1214 -16 
Q 841 59 441 206 
L 441 856 
Q 825 641 1194 531 
Q 1563 422 1919 422 
Q 2459 422 2753 634 
Q 3047 847 3047 1241 
Q 3047 1584 2836 1778 
Q 2625 1972 2144 2069 
L 1759 2144 
Q 1053 2284 737 2584 
Q 422 2884 422 3419 
Q 422 4038 858 4394 
Q 1294 4750 2059 4750 
Q 2388 4750 2728 4690 
Q 3069 4631 3425 4513 
z
" transform="scale(0.015625)"/>
     </defs>
     <use xlink:href="#DejaVuSans-53"/>
     <use xlink:href="#DejaVuSans-20" x="63.476562"/>
     <use xlink:href="#DejaVuSans-5b" x="95.263672"/>
     <use xlink:href="#DejaVuSans-33" x="134.277344"/>
     <use xlink:href="#DejaVuSans-38" x="197.900391"/>
     <use xlink:href="#DejaVuSans-5d" x="261.523438"/>
    </g>
   </g>
   <g id="text_17">
    <!-- T [23] -->
    <g transform="translate(253.548658 273.511351) scale(0.1 -0.1)">
     <defs>
      <path id="DejaVuSans-54" d="M -19 4666 
L 3928 4666 
L 3928 4134 
L 2272 4134 
L 2272 0 
L 1638 0 
L 1638 4134 
L -19 4134 
L -19 4666 
z
" transform="scale(0.015625)"/>
     </defs>
     <use xlink:href="#DejaVuSans-54"/>
     <use xlink:href="#DejaVuSans-20" x="61.083984"/>
     <use xlink:href="#DejaVuSans-5b" x="92.871094"/>
     <use xlink:href="#DejaVuSans-32" x="131.884766"/>
     <use xlink:href="#DejaVuSans-33" x="195.507812"/>
     <use xlink:href="#DejaVuSans-5d" x="259.130859"/>
    </g>
   </g>
   <g id="text_18">
    <!-- V [26] -->
    <g transform="translate(294.455699 233.11516) scale(0.1 -0.1)">
     <defs>
      <path id="DejaVuSans-56" d="M 1831 0 
L 50 4666 
L 709 4666 
L 2188 738 
L 3669 4666 
L 4325 4666 
L 2547 0 
L 1831 0 
z
" transform="scale(0.015625)"/>
     </defs>
     <use xlink:href="#DejaVuSans-56"/>
     <use xlink:href="#DejaVuSans-20" x="68.408203"/>
     <use xlink:href="#DejaVuSans-5b" x="100.195312"/>
     <use xlink:href="#DejaVuSans-32" x="139.208984"/>
     <use xlink:href="#DejaVuSans-36" x="202.832031"/>
     <use xlink:href="#DejaVuSans-5d" x="266.455078"/>
    </g>
   </g>
   <g id="text_19">
    <!-- W [5] -->
    <g transform="translate(310.559159 200.330853) scale(0.1 -0.1)">
     <defs>
      <path id="DejaVuSans-57" d="M 213 4666 
L 850 4666 
L 1831 722 
L 2809 4666 
L 3519 4666 
L 4500 722 
L 5478 4666 
L 6119 4666 
L 4947 0 
L 4153 0 
L 3169 4050 
L 2175 0 
L 1381 0 
L 213 4666 
z
" transform="scale(0.015625)"/>
      <path id="DejaVuSans-35" d="M 691 4666 
L 3169 4666 
L 3169 4134 
L 1269 4134 
L 1269 2991 
Q 1406 3038 1543 3061 
Q 1681 3084 1819 3084 
Q 2600 3084 3056 2656 
Q 3513 2228 3513 1497 
Q 3513 744 3044 326 
Q 2575 -91 1722 -91 
Q 1428 -91 1123 -41 
Q 819 9 494 109 
L 494 744 
Q 775 591 1075 516 
Q 1375 441 1709 441 
Q 2250 441 2565 725 
Q 2881 1009 2881 1497 
Q 2881 1984 2565 2268 
Q 2250 2553 1709 2553 
Q 1456 2553 1204 2497 
Q 953 2441 691 2322 
L 691 4666 
z
" transform="scale(0.015625)"/>
     </defs>
     <use xlink:href="#DejaVuSans-57"/>
     <use xlink:href="#DejaVuSans-20" x="98.876953"/>
     <use xlink:href="#DejaVuSans-5b" x="130.664062"/>
     <use xlink:href="#DejaVuSans-35" x="169.677734"/>
     <use xlink:href="#DejaVuSans-5d" x="233.300781"/>
    </g>
   </g>
   <g id="text_20">
    <!-- Y [17] -->
    <g transform="translate(316.592437 175.084003) scale(0.1 -0.1)">
     <defs>
      <path id="DejaVuSans-59" d="M -13 4666 
L 666 4666 
L 1959 2747 
L 3244 4666 
L 3922 4666 
L 2272 2222 
L 2272 0 
L 1638 0 
L 1638 2222 
L -13 4666 
z
" transform="scale(0.015625)"/>
     </defs>
     <use xlink:href="#DejaVuSans-59"/>
     <use xlink:href="#DejaVuSans-20" x="61.083984"/>
     <use xlink:href="#DejaVuSans-5b" x="92.871094"/>
     <use xlink:href="#DejaVuSans-31" x="131.884766"/>
     <use xlink:href="#DejaVuSans-37" x="195.507812"/>
     <use xlink:href="#DejaVuSans-5d" x="259.130859"/>
    </g>
   </g>
   <g id="text_21">
    <!-- Q9R1K6 [375] -->
    <g transform="translate(134.660397 152.305793) scale(0.12 -0.12)">
     <defs>
      <path id="DejaVuSans-39" d="M 703 97 
L 703 672 
Q 941 559 1184 500 
Q 1428 441 1663 441 
Q 2288 441 2617 861 
Q 2947 1281 2994 2138 
Q 2813 1869 2534 1725 
Q 2256 1581 1919 1581 
Q 1219 1581 811 2004 
Q 403 2428 403 3163 
Q 403 3881 828 4315 
Q 1253 4750 1959 4750 
Q 2769 4750 3195 4129 
Q 3622 3509 3622 2328 
Q 3622 1225 3098 567 
Q 2575 -91 1691 -91 
Q 1453 -91 1209 -44 
Q 966 3 703 97 
z
M 1959 2075 
Q 2384 2075 2632 2365 
Q 2881 2656 2881 3163 
Q 2881 3666 2632 3958 
Q 2384 4250 1959 4250 
Q 1534 4250 1286 3958 
Q 1038 3666 1038 3163 
Q 1038 2656 1286 2365 
Q 1534 2075 1959 2075 
z
" transform="scale(0.015625)"/>
     </defs>
     <use xlink:href="#DejaVuSans-51"/>
     <use xlink:href="#DejaVuSans-39" x="78.710938"/>
     <use xlink:href="#DejaVuSans-52" x="142.333984"/>
     <use xlink:href="#DejaVuSans-31" x="211.816406"/>
     <use xlink:href="#DejaVuSans-4b" x="275.439453"/>
     <use xlink:href="#DejaVuSans-36" x="341.015625"/>
     <use xlink:href="#DejaVuSans-20" x="404.638672"/>
     <use xlink:href="#DejaVuSans-5b" x="436.425781"/>
     <use xlink:href="#DejaVuSans-33" x="475.439453"/>
     <use xlink:href="#DejaVuSans-37" x="539.0625"/>
     <use xlink:href="#DejaVuSans-35" x="602.685547"/>
     <use xlink:href="#DejaVuSans-5d" x="666.308594"/>
    </g>
   </g>
  </g>
 </g>
</svg>
